<?xml version="1.0" encoding="utf-8"?>
<!-- Generator: Adobe Illustrator 15.0.0, SVG Export Plug-In . SVG Version: 6.00 Build 0)  -->
<!DOCTYPE svg PUBLIC "-//W3C//DTD SVG 1.1//EN" "http://www.w3.org/Graphics/SVG/1.1/DTD/svg11.dtd">
<svg version="1.1" id="Layer_1" xmlns="http://www.w3.org/2000/svg" xmlns:xlink="http://www.w3.org/1999/xlink" x="0px" y="0px"
	 width="640px" height="360px" viewBox="0 0 640 360" enable-background="new 0 0 640 360" xml:space="preserve">
<g>
	<path fill="#596462" d="M237.306,226.108c0,0-1.575,14.197-2.704,39.212c-1.125,25.017-1.351,27.945-0.9,33.128
		c0.452,5.186,55.216,9.916,68.737,10.143c13.521,0.226,33.128-8.79,33.128-8.79s4.959-12.846,12.847-36.51
		c7.887-23.663,13.298-29.298,10.816-35.154c-2.477-5.861-4.054-8.567-4.054-8.567s-18.707-4.504-56.117-3.83
		C261.645,216.418,237.306,226.108,237.306,226.108z"/>
	<path fill="#0892C0" d="M231.672,113.876c-5.86,3.832-11.27,7.663-14.198,16.903c-2.928,9.239,0.451,13.069,9.466,27.494
		c9.012,14.424,11.045,16.903,13.297,26.594c2.253,9.689,1.577,11.719,4.506,14.196c2.931,2.479,2.704,3.607,2.028,4.734
		c-0.676,1.125-6.31,5.855-6.085,9.689c0.228,3.833-1.801,6.761-2.476,8.563c-0.677,1.805-0.904,4.058-0.904,4.058
		s12.172,0.899,27.948,1.801c15.774,0.905,38.31,2.256,51.607-1.123c13.297-3.381,15.326-3.605,21.41-3.381
		c6.083,0.224,6.76,0.9,13.521-0.902c6.762-1.804,7.437-2.255,6.087-3.606c-1.354-1.353-2.704-5.634-2.704-8.113
		c0-2.478-2.705-2.255-4.733-4.056c-2.028-1.805-2.479-6.312-4.51-8.563c-2.026-2.256-4.508-12.393-4.508-15.326
		c0-2.929-0.898-33.354-4.504-52.285c-3.61-18.93-1.577-25.014-13.298-29.522c-11.718-4.508-20.508-5.859-34.256-6.31
		C275.619,94.271,231.672,113.876,231.672,113.876z"/>
	<path fill="#0892C0" d="M216.125,133.258c-0.903,5.409-2.93,9.69-6.311,31.325c-3.381,21.635-3.382,23.665-4.285,24.79
		c-0.898,1.126-5.181,3.383-6.083,7.212c-0.899,3.831,0.453,5.409-1.8,7.66c-2.256,2.255-5.409,7.664-8.115,16.452
		c-2.704,8.789-6.984,11.045-11.267,17.353c-4.284,6.312-1.129,10.82-4.51,12.171c-3.38,1.353-10.517,2.365-10.065,8.679
		c0.449,6.308-2.068,7.528-2.968,8.207c-0.902,0.675,1.092,2.271,1.092,2.271l12.395,10.138c0,0,6.984-0.674,21.182-16.674
		c14.198-16.003,29.075-38.765,30.202-43.046c1.125-4.283,3.831-16.226,8.562-27.27c4.733-11.042,4.506-15.324,4.506-16
		C238.659,175.852,216.125,133.258,216.125,133.258z"/>
	<path fill="#ECAF8B" d="M304.916,96.297c2.931,3.156,8.339,10.592,3.157,27.043c-5.187,16.454-16.001,29.072-35.834,28.396
		c-19.832-0.675-29.071-12.394-32.002-22.085c-2.932-9.691-3.156-14.873-2.255-17.578c0.903-2.704,36.06-16.677,39.89-16.903
		C281.706,94.945,304.916,96.297,304.916,96.297z"/>
	<path fill="#ECAF8B" d="M207.108,77.592c-0.676,9.691,4.958,16.454,10.591,20.058c5.636,3.606,9.692,5.86,10.595,11.495
		c0.9,5.633,0.45,6.759,3.381,6.309c2.927-0.45,3.83-2.703,5.632-0.9c1.804,1.802,1.803,2.928,4.058,2.928s2.254,0,2.254,0
		s-0.675,2.03,1.352,2.479c2.028,0.451,3.607-0.226,4.284,1.126c0.675,1.352,4.281,2.031,6.761,1.578
		c2.479-0.452,7.437-6.083,10.591-8.114c3.154-2.029,13.748-11.267,16.675-12.845c2.932-1.578,10.142-7.437,10.142-7.437
		s-9.24-7.889-13.522-16.003c-4.281-8.113-9.688-19.832-19.379-20.959c-9.691-1.125-37.41-1.124-45.75,5.861
		C206.433,70.155,207.108,77.592,207.108,77.592z"/>
	<path fill="#5E4732" d="M270.146,42.256c0,0,6.085-3.043,13.185,1.353c7.1,4.395,18.254,13.86,19.268,22.649
		c1.014,8.79-1.352,12.846-1.691,19.607c-0.337,6.761,9.129,9.126,9.129,9.126s-4.057,6.085-14.198,2.706
		c-10.142-3.382-12.846-13.184-12.507-23.663c0.338-10.479-1.352-18.931-3.042-20.959c-1.69-2.027-6.761-3.043-6.761-3.043
		S271.5,44.283,270.146,42.256z"/>
	<path fill="#5E4732" d="M277.246,71.666c-2.367-1.353-5.748-3.042-7.1-3.38c-1.352-0.338-5.071-0.676-5.071-0.676
		s-3.719-4.395-8.114-2.366c-4.395,2.029-3.042,6.423-2.704,8.452c0.336,2.029,0,4.732-2.367,5.409
		c-2.367,0.676-2.367,0.676-2.367,0.676s-5.071-4.058-9.803-4.058c-4.733,0-8.452,0.676-12.509,0.676
		c-4.056,0-9.126-1.353-9.126-1.353s0,1.691,2.028,2.367c2.027,0.676,4.733,1.691,4.733,1.691s-2.029,0.337-4.733,0.337
		c-2.703,0-5.072,0-5.072,0s2.366,3.043,4.395,4.057c2.03,1.014,6.423,2.028,6.423,2.028s-3.042,0.676-7.774-0.675
		c-4.732-1.353-6.424-3.042-6.424-3.042s1.692,4.056,3.719,6.422c2.029,2.366,6.759,4.733,6.759,4.733s-4.73,1.689-11.493-2.029
		c-6.76-3.719-8.452-9.803-8.452-9.803s-7.774-2.705-5.406-9.803c2.365-7.1,6.083-8.452,6.083-8.452s0.677-11.831,10.817-19.944
		c10.141-8.114,24.001-12.17,38.876-7.438c14.874,4.733,19.944,13.861,20.959,20.284C274.542,62.201,277.246,71.666,277.246,71.666z
		"/>
	<path fill="#485350" d="M351.203,250.055c-4.792,9.082-5.047,19.275-10.033,28.383c-4.121,7.538-9.2,14.058-13.269,21.56
		c17.044,6.256,19.075-37.302,22.625-46.902"/>
	<path fill="#485350" d="M282.58,239.574c8.897,11.987,3.872,22.395,3.983,35.732c0.438-9.744,6.834-15.111,7.409-28.901
		c-2.65-0.856-4.797-2.173-6.997-3.785"/>
	<path fill="#1083AA" d="M234.066,169.766c-2.092,18.008-9.457,33.609-10.749,52.086c0.302-15.23,24.959-37.458,12.287-51.064"/>
	<path fill="#1083AA" d="M306.237,205.594c-4.449,0.29-8.758-2.021-11.806-2.909c7.071,10.563,30.141,9.662,27.672-5.892
		c-3.773,5.731-12.034,7.451-18.937,8.289"/>
	<path fill="#0892C0" d="M327.002,102.607c4.057,2.48,20.961,13.07,21.411,25.016c0.448,11.945,0.675,23.214-2.255,38.313
		c-2.928,15.097-4.734,28.847-12.395,43.946c-7.661,15.098-10.816,22.984-11.945,23.213c-1.124,0.225-34.706,14.872-51.608,18.704
		c-16.903,3.831-17.128,3.609-20.959,3.609c-3.832,0-7.889,1.352-7.889,1.352l-8.338-22.088c0,0,4.283-2.479,11.945-4.958
		c7.662-2.476,9.239-5.407,13.294-4.281c4.056,1.13,8.565,0,11.27-1.575c2.705-1.578,10.817-2.932,14.421-4.286
		c3.609-1.353,7.441-3.154,11.046-6.757c3.606-3.609,9.014-1.804,9.014-1.804s0.677-4.734,1.352-4.959
		c0.676-0.225,1.129-0.225,1.129-0.225s-1.577-8.34,2.028-18.03c3.603-9.689,9.691-21.858,14.873-32
		c5.182-10.141,10.818-26.143,10.818-27.496C334.215,126.95,327.002,102.607,327.002,102.607z"/>
	<g>
		<g>
			<g>
				<path fill="#020202" d="M357.517,226.828c0.883,2.002,1.813,4.296,1.146,6.514c-0.427,1.425-1.47,2.614-2.579,3.567
					c-0.525,0.448-0.396,0.248-0.024,0.713c0.229,0.287,0.398,0.599,0.627,0.883c3.11-2.479,4.488-5.731,3.246-9.592
					c-0.539-1.671-1.327-3.237-1.881-4.903c-0.133-0.395-0.327-2.547-0.5-2.572c-0.5-0.072-1.149-0.036-1.65-0.108
					c-0.274,1.923,0.781,3.822,1.535,5.535"/>
			</g>
		</g>
		<g>
			<g>
				<path fill="#020202" d="M353.917,245.979c-3.322,8.554-7.365,17.006-9.757,25.871c-0.992,3.68-0.95,7.648-2.002,11.308
					c-0.859,2.989-1.954,5.995-3.302,8.803c-0.171,0.355-2.052,3.062-2.075,3.046c0.561,0.362,0.482,0.919,1.037,1.282
					c5.543-8.596,6.989-18.99,10.078-28.586c1.924-5.987,4.056-11.946,6.336-17.808c1.92-4.925,4.745-9.766,5.529-15.032
					c-0.565-0.087-1.718,0.099-2.279,0.015c-0.423-0.062-0.21-0.419-0.305,0.163c-0.134,0.799-0.605,1.518-0.804,2.303
					c-0.719,2.911-1.977,5.605-3.101,8.381"/>
			</g>
		</g>
		<g>
			<g>
				<path fill="#020202" d="M293.461,245.65c0.226,6.678-2.356,12.749-4.422,18.975c-1.986,5.979-3.24,12.173-4.029,18.429
					c0.378,0.047,0.809,0.294,1.187,0.34c0.429,0.056,0.522-1.763,0.585-2.177c0.276-1.854,0.191-3.788,0.587-5.62
					c0.669-3.104,1.561-6.187,2.536-9.209c2.199-6.83,5.582-13.489,5.335-20.807c-0.45,0.014-1.324,0.036-1.774,0.052"/>
			</g>
		</g>
		<g>
			<g>
				<path fill="#020202" d="M233.344,270.7c-0.143,3.016-0.095,6.042-0.237,9.061c-0.084,1.762-0.159,3.521-0.243,5.28
					c-0.017,0.356,0.15,0.721,0.133,1.076c-0.003,0.056,1.332,0.108,1.517,0.119c0.237-4.957,0.631-9.908,0.866-14.866
					c0.09-1.871-0.083-3.758,0-5.629c0.065-1.447,0.445-2.876,0.512-4.324c0.002-0.111-0.193-0.538-0.265-0.63
					c-0.144-0.183-1.263-0.143-1.53-0.155c-0.15,3.362-0.296,6.722-0.446,10.086"/>
			</g>
		</g>
		<g>
			<g>
				<path fill="#020202" d="M212.876,141.122c-1.344,5.793-1.955,11.723-2.748,17.612c-0.404,2.967-0.449,6-0.962,8.95
					c-0.597,3.426-2.271,6.661-2.776,10.104c-0.436,3-0.998,5.933-1.929,8.834c-0.354,1.1,0.473,2.897-0.266,3.793
					c-0.833,1.005-2.297,1.38-3.076,2.448c-1.95,2.673-2.778,6.222-2.362,9.481c0.365-0.045,1.399-0.042,1.615-0.297
					c-0.062-0.508,0.008-0.971,0.017-1.483c0.03-2.411,0.534-5.17,2.048-7.107c0.894-1.143,2.774-1.438,3.601-2.654
					c0.933-1.371,1.782-3.062,2.161-4.665c0.872-3.685,0.049-7.72,0.876-11.415c3.203-14.331,2.995-29.773,8.754-43.46
					c1.489-3.542,4.28-6.449,6.704-9.443c1.047-1.293,1.786-2.877,3.087-3.917c0.557-0.445,1.007-0.367,0.582-0.958
					c-0.291-0.407-0.816-0.984-1.108-1.392c-7.97,5.707-12.158,16.415-14.281,25.551"/>
			</g>
		</g>
		<g>
			<g>
				<path fill="#020202" d="M231.116,166.302c3.75,5.18,7.192,10.839,8.179,17.315c0.745,4.862,0.771,9.894,3.53,14.21
					c3.27,5.111,9.346,8.974,15.415,8.797c4.63-0.138,9.148-2.444,12.946-5.016c-0.212-0.315-0.629-0.549-0.842-0.863
					c-0.217-0.319-0.268,0.323-0.545,0.499c-1.095,0.688-2.337,1.195-3.514,1.728c-2.883,1.307-6.107,1.67-9.287,1.527
					c-6.709-0.299-13.022-5.102-14.635-11.677c-0.71-2.9-0.704-5.892-1.096-8.837c-0.537-4.047-1.997-7.593-4.134-11.041
					c-1.927-3.108-4.201-5.988-6.318-8.964c-0.967-1.362-2.062-2.655-2.759-4.18c-0.269-0.586-0.751-1.137-0.865-1.773
					c-0.143-0.801,0.289-0.818-0.552-0.821c-0.226,0-0.32-0.078-0.547-0.078c-0.01,3.53,2.569,6.852,4.517,9.541"/>
			</g>
		</g>
		<g>
			<g>
				<path fill="#020202" d="M306.794,100.186c2.948,5.791,3.327,11.789,1.68,17.94c-1.665,6.221-3.605,13.005-6.997,18.502
					c-3.197,5.178-7.959,9.495-13.601,11.839c-6.716,2.791-14.597,2.955-21.809,1.666c-8.051-1.44-16.358-5.704-21.258-12.264
					c-2.178-2.919-3.016-6.588-4.239-9.997c-0.741-2.072-1.198-4.098-1.537-6.277c-0.195-1.266-0.709-2.492-0.794-3.771
					c-0.215-0.142-1.336,0.099-1.611,0.118c0.435,6.407,2.825,12.72,6.167,18.232c3.212,5.298,8.031,9.946,13.453,12.836
					c6.192,3.3,13.305,4.042,20.233,3.132c6.872-0.902,14.326-2.741,19.685-7.276c5.958-5.049,8.823-12.717,11.511-19.867
					c3.125-8.313,4.729-17.179,0.499-25.486c-0.401,0.203-0.113,0.047-0.515,0.251"/>
			</g>
		</g>
		<g>
			<g>
				<path fill="#020202" d="M303.864,205.558c-0.719-0.111-1.443-0.264-2.17-0.448c-2.346-0.605-4.659-1.323-6.845-2.354
					c-0.3-0.145-2.663-1.289-2.609-1.396c0.189-0.388,0.246-1.115,0.437-1.502c4.064,2.011,8.204,4.509,12.811,4.803
					L303.864,205.558z"/>
			</g>
		</g>
		<g>
			<g>
				<path fill="#020202" d="M190.543,216.239c-1.279,3.947-2.547,7.623-4.8,11.168c-3.418,5.38-8.037,9.88-10.35,15.896
					c-1.027,2.669-1.609,5.381-3.9,7.243c-2.377,1.929-6.104,1.714-7.861,4.52c-1.705,2.721,0.12,6.638-1.278,9.419
					c-0.46,0.915-1.647,1.729-2.624,2.009c-0.687,0.196-0.73-0.466-0.61,0.218c0.064,0.358,0.057,1.346,0.12,1.703
					c2.939-0.519,4.385-3.164,4.855-5.983c0.565-3.367,0.182-7.236,3.679-8.922c1.508-0.728,3.296-0.943,4.593-2.016
					c1.415-1.171,2.997-2.222,3.816-3.857c1.111-2.224,1.289-4.879,2.417-7.097c3.324-6.554,9.032-11.723,11.334-18.825
					c1.319-4.065,2.995-8.428,5.3-12.047c0.865-1.36,1.624-2.818,2.876-3.825c0.44-0.354,1.747-0.714,1.365-1.258
					c-0.255-0.364-0.936-0.414-1.188-0.775c-4.441,3.11-6.074,7.462-7.556,12.488"/>
			</g>
		</g>
		<g>
			<g>
				<path fill="#020202" d="M220.204,227.552c-2.979,4.089-5.76,8.172-8.201,12.61c-1.541,2.795-3.164,5.577-4.849,8.286
					c-4.717,7.588-12.17,13.238-18.375,19.604c0.152,0.141,1.576,1.518,1.646,1.446c0.447-0.461,0.61-1.195,1.057-1.654
					c1.407-1.444,3.072-2.631,4.479-4.072c4.611-4.729,8.987-9.461,12.444-15.156c2.086-3.441,4.618-6.637,6.598-10.14
					c1.581-2.795,3.18-5.53,5.076-8.126c1.637-2.243,3.32-4.492,4.792-6.853c1.129-1.807,1.991-3.869,2.562-5.932
					c-0.485-0.133-1.135-0.144-1.622-0.28c-0.232-0.061-0.791,2.524-1.004,2.953c-1.263,2.573-3.345,4.692-5.052,6.981"/>
			</g>
		</g>
		<g>
			<g>
				<path fill="#020202" d="M237.285,178.814c0.097,4.73-1.833,9.461-3.569,13.765c-1.386,3.438-3.135,6.711-4.214,10.257
					c-1.943,6.369-3.584,12.828-5.061,19.324c0.493,0.114,0.61,0.267,1.103,0.378c0.32,0.07,0.514-2.722,0.633-3.173
					c0.717-2.685,1.674-5.313,2.516-7.961c0.724-2.285,1.632-4.508,2.332-6.799c1.035-3.407,1.846-6.87,3.189-10.173
					c2.018-4.973,4.438-10.139,4.325-15.614c-0.563,0.012-0.423,0.028-0.986,0.042"/>
			</g>
		</g>
		<g>
			<g>
				<path fill="#020202" d="M198.729,207.537c-0.502,0.119-1.084,0.465-1.589,0.58c3.979,2.681,8.203,5.898,12.912,7.133
					c0.063-0.243,0.548-1.449,0.445-1.653c-1.195-0.311-2.438-0.586-3.544-1.129c-2.218-1.09-4.266-2.474-6.321-3.84
					c3.173-0.696,6.353-1.439,9.586-1.771c1.624-0.167,3.272-0.012,4.905-0.027c0.367,0,1.506,0.146,1.518-0.294
					c0.01-0.381-0.07-0.649-0.06-1.031c-5.992-0.156-11.998,0.838-17.813,2.198"/>
			</g>
		</g>
		<g>
			<g>
				<path fill="#020202" d="M195.536,211.115c3.874,2.374,7.618,5.126,11.702,7.118c0.165-0.345,0.279-0.785,0.448-1.129
					c0.172-0.36-1.64-1.124-2.041-1.352c-1.661-0.939-3.303-1.897-4.932-2.895c-1.526-0.936-3.017-1.916-4.544-2.853
					c-0.224,0.392-0.497,0.732-0.719,1.125"/>
			</g>
		</g>
		<g>
			<g>
				<path fill="#020202" d="M205.818,197.198c0.09,0.439,0.178,0.784,0.269,1.223c9.023-1.87,17.581-5.114,25.783-9.298
					c-0.2-0.384-0.069-0.682-0.266-1.065c-0.042-0.078-3.312,1.305-3.652,1.468c-2.434,1.152-4.83,2.365-7.341,3.334
					c-4.804,1.853-9.688,3.573-14.728,4.621"/>
			</g>
		</g>
		<g>
			<g>
				<path fill="#020202" d="M347.192,118.009c0.916,4.872-0.307,10.115-0.42,15.044c-0.16,7.116,0.713,14.316,0.114,21.41
					c-0.642,7.6-3.14,15.042-4.276,22.587c-1.174,7.806-2.263,15.667-5.199,22.978c-3.146,7.826-7.456,15.355-11.642,22.687
					c-2.047,3.578-3.282,7.76-5.803,11.029c-0.527,0.683-2.337,0.33-2.896,0.986c-0.254,0.297,1.963,1.95,2.247,2.2
					c6.728-7.65,10.453-17.445,14.752-26.587c3.121-6.638,5.862-13.362,7.975-20.391c1.83-6.108,3.7-12.102,4.406-18.429
					c1.021-9.095,1.799-18.229,2.368-27.366c0.31-4.989,0.455-9.994,0.454-14.994c0-3.788-1.005-7.305-1.708-11.042
					c-0.664,0.124,0.199-0.179-0.462-0.053"/>
			</g>
		</g>
		<g>
			<g>
				<path fill="#020202" d="M292.695,95.523c3.66,0.347,7.261,1.368,10.889,1.955c6.906,1.117,14.019,2.544,20.584,5.03
					c5.885,2.227,11.096,6.085,15.319,10.684c3.212,3.502,6.453,7.83,7.685,12.526c0.041,0.175,0.497,1.258,0.489,1.258
					c0.664,0,1.418,0.455,2.082,0.455c0-4.526-3.766-8.893-6.423-12.272c-3.928-4.985-8.742-9.208-14.296-12.309
					c-6.014-3.356-12.903-5.02-19.601-6.306c-5.105-0.982-10.234-1.838-15.401-2.406c-0.395-0.042-0.422,0.115-0.819,0.078
					c-0.062,0.674-0.073,1.024-0.135,1.697"/>
			</g>
		</g>
		<g>
			<g>
				<path fill="#020202" d="M283.853,247.38c-5.818,1.934-11.753,4.175-17.742,5.472c-4.062,0.879-8.282-0.62-12.4-0.403
					c-3.32,0.18-6.369,1.82-9.546,2.799c0.103,0.33,0.191,1.906,0.467,2.051c0.737-0.226,1.576-0.363,2.324-0.545
					c2.688-0.645,5.338-0.762,8.095-0.849c3.022-0.097,6.079-0.162,9.087-0.545c2.627-0.334,4.905-2.188,7.419-2.996
					c11.119-3.578,22.496-6.484,33.273-10.985c6.59-2.751,13.038-5.874,19.372-9.169c-0.257-0.494-0.727-2.044-1.28-1.759
					c-1.36,0.706-2.475,1.901-3.85,2.572c-3.419,1.669-6.943,3.146-10.425,4.669c-8.122,3.546-16.388,6.877-24.812,9.629"/>
			</g>
		</g>
		<g>
			<g>
				<path fill="#020202" d="M293.042,213.563c-1.273,2.797-4.519,3.649-7.2,4.483c-1.684,0.524-3.508,0.639-5.178,1.193
					c-2.448,0.82-4.732,2.419-7.336,2.521c-1.749,0.069-2.968,0.542-4.482,1.45c-1.6,0.96-3.108,2.393-4.924,2.906
					c-1.515,0.431-3.42,0.039-4.927-0.461c-0.831-0.279-1.573-0.753-2.461-0.834c-2.71-0.245-5.566,1.218-7.943,2.245
					c-4.883,2.111-9.767,4.379-14.893,5.789c-0.814,0.226-0.16,0.966,0.02,1.641c4.604-1.213,8.948-3.142,13.375-4.889
					c1.462-0.577,2.902-1.11,4.319-1.799c1.271-0.62,2.85-1.47,4.28-1.63c0.639-0.069,1.337,0.572,1.923,0.81
					c1.432,0.577,2.84,1.13,4.39,1.058c1.682-0.077,3.167-0.967,4.654-1.735c1.572-0.811,3.055-1.936,4.72-2.547
					c1.12-0.413,2.45-0.381,3.629-0.553c1.326-0.19,2.657-0.264,3.931-0.665c2.09-0.668,4.136-1.479,6.227-2.142
					c2.59-0.818,5.021-1.938,7.212-3.633c1.798-1.388,2.612-3.887,4.952-4.479c2.275-0.579,4.909-0.283,7.196-0.002
					c0.029-0.251,0.328-1.743,0.207-1.76c-1.25-0.155-2.511-0.295-3.764-0.399c-3.024-0.248-5.931,0.607-7.334,3.696"/>
			</g>
		</g>
		<g>
			<g>
				<path fill="#020202" d="M326.139,147.886c-2.172,5.888-4.109,11.805-7.631,17.029c-3.407,5.059-6.063,10.469-8.136,16.206
					c-1.646,4.557-3.541,9.1-3.876,13.949c-0.18,2.623-0.417,5.226-0.539,7.846c-0.029,0.591,0.62,1.68,0.06,2.037
					c-0.46,0.294-0.069,1.101,0.123,1.598c2.445-0.941,1.345-4.96,1.337-7.003c-0.012-2.982,0.696-5.922,1.257-8.854
					c1.251-6.541,2.785-11.832,5.873-17.713c1.772-3.369,4.154-7.045,6.085-10.311c1.903-3.212,4.083-7.08,5.423-10.559
					c1.33-3.459,2.105-7.158,3.624-10.543c0.638-1.426,1.926-2.491,2.85-3.755c0.121-0.164,0.634-1.4,0.589-1.443
					c-0.304-0.305-0.316-0.522-0.62-0.828c-3.282,3.28-4.762,8.145-6.321,12.381"/>
			</g>
		</g>
		<g>
			<g>
				<path fill="#020202" d="M308.917,204.461c-2.305,0.614-7.565,1.771-6.438,5.249c0.631,1.955,2.327,3.585,3.808,4.91
					c0.25,0.225,1.654,1.822,1.984,1.756c0.25-0.053,0.604-0.862,0.782-1.066c-1.353-1.146-2.553-2.44-3.749-3.751
					c-0.635-0.697-1.909-1.745-1.806-2.798c0.135-1.351,2.486-1.913,3.514-2.249c1.183-0.39,2.35-0.807,3.546-1.142
					c-0.069-0.225-0.181-1.18-0.365-1.277c-0.187-0.1-1.05,0.329-1.274,0.392"/>
			</g>
		</g>
		<g>
			<g>
				<path fill="#020202" d="M306.127,209.839c-0.441,0.126-0.898,0.055-1.338,0.183c3.647,2.678,7.991,3.804,12.421,4.551
					c0.07-0.427,0.06-0.699,0.133-1.126c0.011-0.064-2.599-0.677-2.899-0.755c-2.118-0.52-4.318-1.175-6.277-2.141
					c4.836-0.646,9.711,0.592,14.556,0.479c-0.009-0.31-0.179-0.447-0.184-0.754c-0.018-0.654-0.115-0.495-0.747-0.504
					c-1.839-0.031-3.687-0.019-5.512-0.189c-3.354-0.319-6.919-0.884-10.209,0.066"/>
			</g>
		</g>
		<g>
			<g>
				<path fill="#020202" d="M303.203,215.697c4.36,2.313,9.461,2.823,14.322,2.821c1.941-0.002,3.881-0.213,5.818-0.285
					c0.578-0.02,1.158,0.119,1.734,0.099c0.082-0.002-0.01-1.408-0.012-1.576c-3.594,0.134-7.196,0.327-10.788,0.11
					c-2.324-0.136-4.6-0.578-6.83-1.269c-1.194-0.373-2.381-0.764-3.487-1.349c-0.231,0.104-0.429,0.843-0.555,1.081"/>
			</g>
		</g>
		<g>
			<g>
				<path fill="#020202" d="M209.793,90.589c1.808,2.792,3.917,5.361,6.592,7.371c2.381,1.792,5.356,2.828,7.465,4.953
					c3.528,3.558,4.037,9.197,5.149,13.867c0.428-0.118,0.957-0.063,1.382-0.176c0.474-0.127,0.283-0.37,0.167-0.84
					c-0.242-1.02-0.363-2.07-0.593-3.095c-0.824-3.671-1.829-7.55-4.38-10.451c-2.434-2.77-6.369-3.56-9.178-5.885
					c-1.452-1.203-2.476-2.87-3.605-4.378c-0.269-0.36-1.441-2.168-1.705-1.998c-0.425,0.275-1.152,0.517-1.575,0.792"/>
			</g>
		</g>
		<g>
			<g>
				<path fill="#020202" d="M233.603,113.939c-1.273,0.639-2.839,1.599-4.258,0.874c-0.669-0.341-0.553-0.584-1.04-0.013
					c-0.238,0.276-0.389,0.552-0.625,0.83c1.294,1.104,2.833,1.295,4.434,0.81c1.395-0.425,3.165-1.999,4.63-1.84
					c0.867,0.093,1.196,1.617,1.359,2.262c0.137,0.552-0.069,1.482,0.604,1.374c0.438-0.07,0.819-0.238,1.256-0.306
					c-0.217-1.371-0.515-2.935-1.475-4.007c-1.375-1.538-3.312-0.672-4.841,0.101"/>
			</g>
		</g>
		<g>
			<g>
				<path fill="#020202" d="M258.154,120.744c-1.531,0.985-3.558,2.518-5.483,2.081c-1.175-0.269-1.804-1.417-2.466-2.355
					c-0.483-0.74-1.21-1.221-2.174-1.253c-0.645-0.021-1.221-0.035-1.839,0.073c-0.48,0.084-0.343,0.373-0.782,0.185
					c-0.379-0.249-0.829-0.49-1-0.939c-0.244-0.646-0.113-1.242-0.014-1.902c-1.026,0.181-1.966-0.055-3,0.084
					c-0.667,0.09-1.333,0.192-1.999,0.283c-0.278,0.038-0.032,1.226-0.018,1.499c1.211-0.163,2.473-0.303,3.676-0.514
					c0.06,1.369,1.01,1.887,2.041,2.608c0.882,0.615,1.532,0.037,2.457-0.292c0.888-0.317,1.267,1.211,1.705,1.823
					c0.721,1.007,2.071,1.898,3.292,2.134c2.869,0.555,6.124-1.619,8.228-3.338c2.701-2.213,4.884-5.084,7.021-7.83
					c-0.584-0.454-0.719-0.936-1.237-0.276c-0.978,1.242-2.315,2.185-3.375,3.359c-1.521,1.69-3.099,3.349-5.024,4.586"/>
			</g>
		</g>
		<g>
			<g>
				<path fill="#020202" d="M217.507,73.599c1.059,2.462,3.768,3.602,6.169,3.853c3.342,0.355,6.753-0.49,10.078-0.856
					c1.887-0.207,3.786-0.517,5.681-0.593c1.964-0.082,4.227-0.129,6.05,0.735c1.787,0.847,2.295,3.107,4.032,4.018
					c0.198-0.381,0.219-0.805,0.421-1.186c-0.05,0.094-1.549-1.628-1.706-1.832c-1.461-1.902-3.501-2.738-5.839-2.887
					c-2.573-0.165-5.162,0.459-7.72,0.749c-3.542,0.401-7.19,0.432-10.756,0.077c-1.459-0.147-2.978-0.426-4.203-1.284
					c-0.485-0.345-1.06-0.612-1.297-1.164c-0.216-0.073-0.908,0.37-1.134,0.467"/>
			</g>
		</g>
		<g>
			<g>
				<path fill="#020202" d="M254.972,73.613c0.005,2.278-2.324,3.829-4.19,4.609c-0.966,0.405-1.996,0.727-3.045,0.784
					c-0.528,0.027-0.288,0.918-0.288,1.391c3.586-0.006,9.017-2.664,9.008-6.793c-0.449,0.001-0.895,0.034-1.345,0.035"/>
			</g>
		</g>
		<g>
			<g>
				<path fill="#020202" d="M257.542,64.273c-4.215,1.486-4.898,6.339-3.406,10.07c0.401-0.159,0.692-0.445,1.092-0.606
					c-0.091,0.037-0.443-2.635-0.449-2.978c-0.042-1.985,0.706-3.854,2.532-4.823c3.51-1.858,5.661,0.456,7.71,2.964
					c2.117,2.593,3.128,6.455,2.846,9.758c-0.138,1.605-0.85,3.219-2.28,4.135c-0.787,0.508-1.637,0.91-2.562,0.892
					c-0.156,0.171-0.026,0.839-0.033,1.092c6.995,0.134,6.848-8.225,5.123-12.952c-1.538-4.217-5.644-9.541-10.656-7.78"/>
			</g>
		</g>
		<g>
			<g>
				<path fill="#020202" d="M257.616,73.799c0.048,1.774,0.892,3.039,2.813,2.632c0.044,0.223,0.246,2.468,0.112,2.431
					c0.418,0.118,0.789,0.196,1.204,0.313c0.42-1.49,0.107-2.937-0.329-4.374c-0.525,0.178-1.786,0.819-2.199,0.195
					c-0.241-0.366-0.062-1.205-0.485-1.195c-0.379,0.01-0.747-0.008-1.127,0.002"/>
			</g>
		</g>
		<g>
			<g>
				<path fill="#020202" d="M260.311,67.074c-2.548,0.56-3.875,3.522-3.701,5.904c0.308-0.022,0.587,0.022,0.896,0
					c0.64-0.047,0.354-0.319,0.411-0.941c0.121-1.292,0.807-2.609,1.921-3.333c1.13-0.732,2.196-0.284,2.828,0.813
					c0.167,0.292,0.199,0.809,0.563,0.673c0.355-0.135,0.7-0.229,1.057-0.362c-0.633-1.685-2.03-3.273-3.992-2.842"/>
			</g>
		</g>
		<g>
			<g>
				<path fill="#020202" d="M258.084,72.006c0.156,0.264,0.282,0.563,0.438,0.828c0.359,0.611,0.691,0.021,1.279-0.226
					c1.368-0.572,2.913-0.508,3.666,0.949c0.506,0.975,1.122,3.753,0.096,4.458c-1.565,1.076-0.409,2.252,0.848,2.866
					c0.167-0.343,0.333-0.576,0.502-0.917c0.211-0.438-0.595-0.374-0.788-0.758c2.269-0.378,1.235-5.182,0.485-6.477
					c-1.449-2.501-4.359-1.953-6.503-0.688"/>
			</g>
		</g>
		<g>
			<g>
				<path fill="#020202" d="M265.852,67.05c0.014,0.38,0.102,0.727,0.119,1.107c0.013,0.374,1.319,0.229,1.725,0.292
					c1.842,0.286,3.586,1.07,5.218,1.954c1.64,0.888,3.286,1.863,4.627,3.163c0.169,0.164,1.291,1.587,1.331,1.558
					c0.345-0.259,0.734-0.487,1.081-0.747c-3.048-4.074-8.912-7.614-14.107-7.424"/>
			</g>
		</g>
		<g>
			<g>
				<path fill="#020202" d="M232.749,32.533c-16.608,2.295-28.706,17.279-31.574,33.35c0.348,0.062,1.128,0.383,1.395,0.204
					c0.159-0.892,1.103-1.549,1.334-2.425c0.529-2.01,0.365-4.26,1.175-6.176c1.94-4.584,4.517-9.161,7.909-12.816
					c8.833-9.52,22.66-12.792,35.203-10.4c8.505,1.624,15.797,7.369,20.448,14.83c2.414,3.874,4.298,7.968,5.356,12.36
					c1.179,4.904,1.969,9.898,4.542,14.331c0.314-0.183,0.658-0.144,0.753-0.461c-0.844-1.456-1.508-3.079-1.931-4.705
					c-0.732-2.834-0.709-5.865-1.369-8.717c-1.287-5.551-2.588-11.234-5.966-15.916c-7.108-9.858-19.468-14.49-31.281-14.183
					c-1.999,0.053-3.958,0.81-5.939,1.083"/>
			</g>
		</g>
		<g>
			<g>
				<path fill="#020202" d="M265.362,41.837c0.19,0.189,0.719,0.922,0.968,0.953c0.483-0.483,1.19-0.918,1.905-0.689
					c1.312,0.417,2.189,1.977,2.728,3.124c0.694,1.481,1.235,3.072,1.621,4.662c0.129,0.54,0.118,1.119,0.176,1.671
					c0.032,0.283,1.136,0.049,1.417,0.029c-0.256-3.407-3.824-14.597-8.747-9.689"/>
			</g>
		</g>
		<g>
			<g>
				<path fill="#020202" d="M268.444,42.445c0.255,0.302,0.517,0.848,0.877,0.915c1.028-0.872,2.606-0.484,3.937-0.678
					c2.768-0.403,5.713-0.384,8.218,0.725c5.202,2.298,9.851,6.353,13.458,10.755c4.54,5.536,8.2,12.837,6.99,20.09
					c-0.787,4.913-2.131,9.752-1.633,14.762c0.44,4.439,2.415,8.052,5.511,11.207c0.277-0.271,1.508-1.028,1.542-1.386
					c-1.309-1.335-3.334-2.29-4.217-3.944c-1.444-2.707-1.083-5.976-0.957-9.019c0.219-5.288,2.203-10.484,1.983-15.791
					c-0.297-7.22-3.922-14.47-8.823-19.641c-4.183-4.41-10.523-7.31-16.365-9.068c-3.678-1.107-7.326-1.374-10.401,1.235"/>
			</g>
		</g>
		<g>
			<g>
				<path fill="#020202" d="M275.16,48.345c0.001,0.659-0.252,1.228,0.459,1.297c0.849,0.083,1.576,0.955,2.216,1.514
					c1.54,1.349,2.58,3.389,3.129,5.302c1.506,5.233,0.949,10.935,1.124,16.346c0.093,2.951,0.001,6.023,0.416,8.95
					c0.379,2.703,1.702,5.365,2.995,7.76c2.772,5.13,7.819,9.411,13.775,9.931c3.572,0.313,8.432-0.543,10.521-3.957
					c-0.311-0.191-0.16-0.281-0.472-0.469c-0.513-0.315-0.354-0.162-0.739,0.292c-0.816,0.966-2.217,1.311-3.405,1.649
					c-2.611,0.748-5.637,1.063-8.25,0.282c-5.893-1.766-9.378-7.192-11.111-12.924c-0.903-2.99-1.856-5.863-1.936-8.962
					c-0.068-2.696,0.81-5.439,0.63-8.132c-0.342-5.047-1.452-10.677-4.084-15.137c-1.186-2.004-2.834-3.244-5.261-3.241"/>
			</g>
		</g>
		<g>
			<g>
				<path fill="#020202" d="M272.527,49.997c2.09,1.034,4.394,1.581,6.678,1.958c0.277,0.046,2.29,0.629,2.513,0.415
					c0.185-0.18,0.087-1.079,0.129-1.35c-1.841-0.278-3.682-0.555-5.49-1.004c-1.12-0.28-2.22-0.663-3.255-1.178
					c-0.221,0.097-0.495,0.989-0.609,1.223"/>
			</g>
		</g>
		<g>
			<g>
				<path fill="#020202" d="M297.959,84.831c0.441,3.764,1.969,7.372,5.453,9.149c2.88,1.473,6.301,1.565,9.478,1.439
					c-0.024-0.613,0.234-1.225-0.464-1.206c-1.264,0.035-2.541-0.024-3.794-0.17c-1.959-0.229-3.979-0.782-5.625-1.91
					c-1.382-0.947-2.442-2.336-3.069-3.884c-0.375-0.923-0.483-1.938-0.636-2.92c-0.088-0.563-0.018-0.796-0.578-0.73
					c-0.305,0.035-0.509,0.205-0.814,0.24"/>
			</g>
		</g>
		<g>
			<g>
				<path fill="#020202" d="M276.259,72.134c0.961,2.695,2.467,5.234,3.928,7.681c1.761,2.947,3.668,6.022,6.266,8.308
					c0.317-0.36,1.04-0.803,0.638-1.172c-0.732-0.676-1.324-1.49-1.951-2.262c-1.427-1.752-2.846-3.536-4.002-5.477
					c-1.04-1.742-2.035-3.536-2.896-5.374c-0.293-0.63-0.343-1.365-0.59-2.018c-0.12-0.328-1.127,0.218-1.434,0.328"/>
			</g>
		</g>
		<g>
			<g>
				<path fill="#020202" d="M207.389,89.454c2.349,2.104,5.241,3.469,8.315,4.147c1.548,0.343,3.118,0.561,4.705,0.561
					c0.906-0.004,1.821,0.021,2.721-0.08c0.798-0.089,0.71-0.034,0.773-0.774c0.029-0.338,0.385-0.651,0.416-0.988
					c0.01-0.117-2.061-0.86-2.303-0.964c-1.538-0.652-3.014-1.431-4.34-2.447c-0.997-0.763-2.128-1.49-2.805-2.551
					c-0.361-0.564-0.155-0.78-0.731-0.476c-0.325,0.169-0.414,0.396-0.736,0.567c1.455,2.766,4.072,4.8,6.822,6.12
					c-5.61-0.056-11.255-2.441-14.461-7.152c-1.517-2.23-2.329-4.927-2.745-7.583c-0.224-1.437-0.374-2.897-0.316-4.35
					c-0.189-0.19-1.229-0.055-1.528-0.065c-0.216,5.954,1.702,11.982,6.222,16.029"/>
			</g>
		</g>
		<g>
			<g>
				<path fill="#020202" d="M215.239,78.209c-0.418,0.02-0.753-0.038-1.17-0.016c2.415,3.3,5.281,5.543,9.039,7.129
					c-2.506-0.265-4.976-0.927-7.205-2.161c-1.045-0.579-1.932-1.358-2.532-2.404c-0.173-0.303-0.31-0.782-0.686-0.655
					c-0.361,0.12-0.71,0.151-1.07,0.27c1.63,4.871,8.104,5.873,12.51,6.212c0.996,0.076,1.984,0.248,2.979,0.252
					c0.537,0.001,0.503-0.171,0.586-0.688c0.146-0.924-0.343-0.748-1.217-1.061c-3.474-1.247-7.185-2.897-9.767-5.619
					c3.072-0.007,6.271,0.217,9.333,0.422c0.015-0.25,0.216-1.385-0.026-1.401c-0.755-0.05-1.52,0.07-2.274,0.019
					c-2.831-0.191-5.661-0.422-8.499-0.276"/>
			</g>
		</g>
		<g>
			<g>
				<path fill="#020202" d="M196.468,75.1c0.277,3.258,2.163,5.707,5.037,7.182c0.132-0.261,0.768-1.053,0.689-1.303
					c-1.218-0.627-2.204-1.581-2.97-2.73c-1.475-2.219-1.339-4.915-0.632-7.383c0.801-2.798,2.044-5.568,3.912-7.794
					c0.831-0.99,1.908-1.781,2.921-2.586c0.513-0.405-0.455-1.218-0.802-1.678c-4.715,3.549-8.811,10.201-8.289,16.301"/>
			</g>
		</g>
		<g>
			<g>
				<path fill="#020202" d="M228.413,99.035c0.188,0.41,0.375,0.836,0.565,1.246c2.407-1.11,4.987-2.431,6.844-4.357
					c-0.31-0.301-0.704-0.613-1.012-0.912c-0.021-0.021-1.591,1.34-1.799,1.487c-1.431,1.005-2.991,1.855-4.579,2.586"/>
			</g>
		</g>
		<g>
			<g>
				<path fill="#020202" d="M232.106,97.244c0.372,0.557,0.775,1.104,1.119,1.678c-0.22-0.068-1.772-0.839-1.721-0.888
					c-0.309,0.3-0.62,0.589-0.927,0.89c0.834,0.856,1.98,1.413,3.15,1.575c0.387,0.053,0.47,0.141,0.571-0.246
					c0.074-0.277,0.455-0.704,0.481-0.889c0.138-0.9-1.289-2.399-1.74-3.058c-0.316,0.32-0.6,0.645-0.917,0.964"/>
			</g>
		</g>
		<g>
			<g>
				<path fill="#020202" d="M220.705,96.73c0.364,0.107,0.808,0.181,1.172,0.291c0.395,0.118,0.635-0.987,0.78-1.347
					c0.473-1.146,1.062-2.278,2.04-3.064c0.888-0.714,1.968-1.089,3.095-1.154c0.21-0.014,1.614,0.063,1.62,0.005
					c0.048-0.428,0.143-0.829,0.189-1.258c-4.737-0.531-7.524,2.262-8.811,6.546"/>
			</g>
		</g>
		<g>
			<g>
				<path fill="#020202" d="M242.643,116.604c0.167,0.419,0.333,0.864,0.499,1.282c1.604-0.646,3.032-1.595,4.359-2.702
					c-0.546-0.653-0.601-1.223-1.328-0.654c-1.083,0.848-2.278,1.514-3.554,2.025"/>
			</g>
		</g>
		<g>
			<g>
				<path fill="#020202" d="M264.118,115.131c0.038,0.307,0.084,0.503,0.123,0.808c0.08,0.639,0.258,0.28,0.884,0.278
					c1.448-0.004,2.904,0.421,4.207,1.025c1.336,0.617,2.552,1.483,3.759,2.316c0.292,0.201,0.957,0.984,1.206,0.629
					c0.22-0.313,0.297-0.597,0.517-0.908c-3.126-2.202-6.697-4.83-10.725-4.319"/>
			</g>
		</g>
		<g>
			<g>
				<path fill="#020202" d="M250.669,212.812c7.349,0.576,11.532,8.409,18.699,9.742c0.079-0.424,0.241-0.707,0.321-1.131
					c-0.001,0.008-2.391-0.813-2.661-0.93c-1.959-0.85-3.707-2.085-5.393-3.378c-3.249-2.49-6.616-5.262-10.867-5.594
					c-0.035,0.45-0.032,0.726-0.069,1.18"/>
			</g>
		</g>
		<g>
			<g>
				<path fill="#020202" d="M243.072,207.771c-1.269,0.94-2.668,2.029-3.001,3.642c-0.369,1.775-0.07,3.69-0.617,5.419
					c-0.997,3.146-3.487,6.584-2.834,10.06c0.303-0.059,0.692-0.103,0.994-0.159c0.653-0.12,0.239-0.382,0.224-1.015
					c-0.021-0.941,0.5-1.781,0.759-2.672c0.263-0.899,0.523-1.783,0.911-2.641c0.688-1.525,1.292-3.073,1.418-4.78
					c0.236-2.236,0.107-4.223,1.849-5.892c0.714-0.682,1.575-1.18,2.285-1.867c0.993-0.964,1.531-2.258,2-3.547
					c-0.29-0.104-0.546-0.114-0.836-0.218c-0.707-0.259-0.49,0.497-0.777,1.077c-0.546,1.098-1.539,1.689-2.508,2.411"/>
			</g>
		</g>
		<g>
			<g>
				<path fill="#020202" d="M241.602,225.428c-1.886,0.123-3.768,0.22-5.658,0.152c-0.378-0.012-1.403-0.229-1.444,0.208
					c-0.037,0.38-0.239,0.878-0.273,1.258c2.983,0.284,6.009-0.004,8.99-0.175c1.477-0.085,2.953-0.309,4.431-0.241
					c0.639,0.033,0.917,0.354,0.978-0.318c0.026-0.306,0.102-0.65,0.129-0.957c-2.377-0.207-4.773-0.033-7.15,0.121"/>
			</g>
		</g>
		<g>
			<g>
				<path fill="#020202" d="M236.648,227.42c-0.042,0.972-0.049,1.941-0.091,2.912c-0.005,0.13-0.126,0.811-0.035,0.911
					c0.147,0.168,1.127,0.112,1.369,0.135c0.057-1.317,0.106-2.646,0.163-3.964c-0.45,0.003-0.916-0.016-1.366-0.016"/>
			</g>
		</g>
		<g>
			<g>
				<path fill="#020202" d="M346.023,199.527c1.041,1.249,1.82,2.667,2.737,4.011c0.575,0.802,0.858,1.398,0.536,2.374
					c0.125,0.205,1.132,0.393,1.38,0.475c0.579-1.745-0.248-2.898-1.191-4.287c-1.104-1.616-2.287-3.127-3.477-4.673
					c-0.979-1.268-1.834-2.594-2.057-4.193c-0.134-0.965-0.096-1.955-0.004-2.926c-0.183-0.174-1.164-0.134-1.433-0.164
					c-0.363,3.82,0.939,6.678,3.322,9.538"/>
			</g>
		</g>
		<g>
			<g>
				<path fill="#020202" d="M347.51,204.875c0.864,1.774,2.234,2.433,4.025,2.889c0.921,0.235,2.01,0.618,2.352,1.582
					c0.185,0.527-0.049,1.182-0.018,1.735c0.104,1.846,0.651,3.145,1.61,4.751c0.607,1.012,1.244,2.065,1.192,3.281
					c0.201,0.164,1.094,0.042,1.37,0.052c0.097-2.383-1.469-4.127-2.379-6.17c-0.558-1.253-0.275-2.485-0.588-3.766
					c-0.555-2.256-2.65-2.575-4.488-3.189c-0.885-0.296-1.436-0.944-1.841-1.781c-0.235-0.055-1.173,0.568-1.409,0.683"/>
			</g>
		</g>
		<g>
			<g>
				<path fill="#020202" d="M348.028,222.361c-1.932,0.209-3.938,0.324-5.673,1.276c0.208,0.377,0.46,0.704,0.666,1.08
					c-0.036-0.065,2.527-0.732,2.825-0.782c1.84-0.315,3.699-0.424,5.527-0.793c3.757-0.76,6.445-3.022,8.161-6.455
					c-0.273-0.142-0.447-0.174-0.725-0.31c-0.67-0.336-0.745,0.353-1.093,0.907c-0.73,1.166-1.527,2.36-2.677,3.131
					c-2.061,1.385-4.612,1.579-7.023,1.838"/>
			</g>
		</g>
		<g>
			<g>
				<path fill="#020202" d="M329.31,223.673c4.443,0,8.87,0.088,13.271,0.759c2.281,0.346,4.563,0.671,6.748,1.417
					c1.141,0.392,2.254,0.873,3.346,1.384c0.233-0.126,0.511-1.099,0.631-1.354c-7.544-3.524-15.811-3.539-23.982-3.539
					c0,0.452-0.013,0.753-0.013,1.204"/>
			</g>
		</g>
	</g>
</g>
<g>
	<g>
		<g>
			<g>
				<path fill="#D0D2D8" d="M185.31,325.576c-10.116-0.109-41.642-5.607-47.63,4.92c12.443,3.595,27.875,1.19,41.196,1.151
					c12.178-0.031,20.581,4.782,32.746,4.95c-11.886,18.24,11.612,14.947,26.32,15.682c19.488,0.974,39.037,1.426,58.614,2.428
					c28.573,1.464,78.362,11.841,105.662-1.214c-5.932-5.18-15.924-2.636-21.465-7.775c17.31-1.729,32.211-0.829,48.862,1.581
					c22.688,3.288,43.555-2.42,66.056-3.671c16.714-0.931,45.669,1.101,59.031-7.158c-5.482-5.199-14.769-6.678-18.866-10.925
					c1.118-0.738,2.484-1.091,3.538-1.759c-0.017-0.018-0.121-1.781-0.146-1.763c-66.846-2.575-133.445-6.897-200.165-13.598
					c-36.636-3.678-76.605-5.099-113.106,0.091c-15.665,2.225-30.325,10.166-45.952,11.594"/>
				<path fill="#F3BF98" d="M520.082,301.502c3.239-1.213,9.127-4.855,13.249-9.409c4.124-4.557,4.421-4.557,6.48-5.771
					c2.062-1.212,2.354-2.729,3.239-2.426c0.883,0.303,4.419,3.038,5.598,6.374c1.178,3.34-0.297,5.162-0.59,6.682
					c-0.296,1.518-0.59,1.518-0.59,3.339c0,1.819-0.884,4.856-3.535,8.198c-2.648,3.339-4.122,2.125-9.129,7.891
					c-5.007,5.767-6.184,7.286-8.245,7.592c-2.063,0.305-2.063,0.305-2.063,0.305L520.082,301.502z"/>
				<path fill="#F3BF98" d="M498.405,296.354c2.651-1.518,9.72-7.285,14.431-8.199c4.714-0.911,9.426-4.857,10.309-6.374
					c0.885-1.519,2.947-5.465,2.947-5.465l3.238,1.82l1.178-2.125c0,0,3.533,3.036,0.592,6.981
					c-2.949,3.948-3.536,5.466-3.831,7.592c-0.294,2.123-3.534,5.16-8.244,7.288c-4.712,2.123-20.617,5.465-20.617,5.465
					L498.405,296.354L498.405,296.354z"/>
				<path fill="#496888" d="M439.521,298.637c-7.922-2.653,15.316-3.952,25.036-4.558c9.721-0.604,6.771,0.604,10.011,2.428
					c3.24,1.823,6.186,0.61,7.953-0.604c1.766-1.218,12.072-2.125,14.726-2.125c2.649,0,2.649,0,2.649,0s0.591,4.86,0.883,8.196
					C501.075,305.314,450.419,302.277,439.521,298.637z"/>
				<path fill="#496B92" d="M517.328,296.062c0,0-13.722,2.63-23.438,2.934c-9.72,0.304-7.299,1.079-17.9,1.079
					c-10.603,0-12.37-0.302-24.738-2.732c-12.37-2.429-24.444-7.285-29.155-7.285s-10.013,0-16.79,0
					c-6.771,0-11.011-2.156-23.548-4.506c-12.364-2.317-23.275-5.209-30.934-6.12c-7.657-0.912-14.951-0.64-19.367-0.947
					c-4.42-0.302-5.891-0.302-7.07-0.302c-1.178,0-2.226,1.486-2.226,1.486s-7.268,3.707-7.562,13.424
					c-0.293,9.717,0,12.145,1.18,19.432c1.179,7.284,1.179,8.501,1.179,8.501l8.244,13.663c0,0,39.762,6.676,55.961,4.855
					c16.196-1.821,23.559,0.606,32.101,1.521c8.542,0.911,26.8,0.604,42.41,0c15.606-0.607,25.328-0.913,41.229-1.823
					c15.903-0.911,22.006-0.353,22.006-0.353s3.19-5.463,4.958-7.892c1.766-2.429,1.767-2.428,1.767-2.428s0.294-3.945-1.476-11.232
					c-1.765-7.286,0-10.02-0.879-13.662C522.39,300.025,518.506,295.758,517.328,296.062z"/>
				<path fill="#375773" d="M325.201,321.933c6.551,3.855,15.066,3.66,22.408,5.157c9.661,1.975,19.874,3.837,29.746,5.78
					c14.979,2.95,30.979,4.242,46.24,4.242c21.533,0,42.714,2.071,63.586-2.141c11.542-2.332,24.236-0.224,35.938-1.183
					c0.447-0.039-0.51,0.048,0,0l-4.216,5.094c0,0-15.231,0.658-27.308,0.658c-12.074,0-30.629,1.819-47.119,1.819
					c-16.494,0-31.512-0.605-37.401-1.214c-5.891-0.605-9.721-1.52-14.136-1.52c-4.42,0-14.434,0.609-14.434,0.609
					s-12.957,0-31.807-0.912C327.854,337.416,325.201,321.933,325.201,321.933z"/>
				<path fill="#F3BF98" d="M324.277,280.376c-6.773-1.214-9.131-2.732-26.211-1.819c-17.082,0.91-18.165,0.604-28.471,0.604
					c-10.31,0-18.618,3.35-24.51,6.083c-5.889,2.733-14.391,7.636-18.422,9.805c-4.395,2.365-5.595-2.026-9.128-2.026
					c-3.532,0-3.115-9.469-3.313-14.1c-0.199-4.635-2.937-7.582-6.872-6.769c-3.935,0.81-5.087-2.16-5.619-0.448
					c-1.408,4.57-2.834-1.085-3.714-1.176c-0.878-0.091-2.249,1.945-3.849,0.253c-1.6-1.692-4.94-2.856-6.1-0.233
					c-1.161,2.628-1.665,3.698-7.942,4.266c-6.274,0.568-17.716,4.196-20.865,6.004c-3.15,1.812-1.474,8.359-0.885,13.218
					c0.589,4.86,37.572,31.88,39.043,32.792c1.472,0.911,14.368-11.154,24.678-0.508c7.45,7.693,57.119,0.813,70.077,0.511
					c12.958-0.302,34.753-6.072,34.753-6.072s-1.771-5.463-2.063-20.342S324.277,280.376,324.277,280.376z"/>
				<path fill="#707F8F" d="M362.558,335.275l0.508,19.438c0,0-3.594-1.268-10.482-0.169c-4.424,0.704-11.103,4.057-16.091,3.82
					c-12.763-0.606-19.158-1.451-20.924-1.451c-1.768,0-14.383-2.269-17.917-2.878c-3.534-0.606-14.76-1.542-14.76-1.542
					s-3.536,0.405-10.211,0.205c-6.675-0.205-9.292-5.152-17.342-7.176c-8.05-2.022-16.295-4.656-18.259-6.68
					s-5.497-2.429-8.246-3.641c-2.748-1.218-5.889-3.645-5.889-3.645s1.738-4.081,6.254-14.2
					c4.515-10.121,24.831-11.214,31.704-10.606c6.874,0.607,18.26,2.835,30.826,5.869c12.566,3.037,30.826,10.931,35.93,13.561
					c5.105,2.629,5.97,1.188,12.251,4.021c6.283,2.834,2.473,3.872,8.166,3.264C353.77,332.861,362.558,335.275,362.558,335.275z"/>
				<path fill="#8091A7" d="M349.372,334.43l7.102,0.846c-3.678-1.894-5.439-4.398-9.299-5.917c-3.859-1.516-6.969-2.33-11.01-4.795
					c-4.042-2.463-9.188-3.978-15.987-6.251c-6.8-2.273-18.01-9.282-31.607-13.261c-13.599-3.977-24.074-6.63-31.791-6.819
					c-7.716-0.188-18.375-0.377-23.703,4.168c-5.33,4.546-6.984,5.871-9.556,13.449c-2.574,7.577-2.941,12.692-2.941,13.259
					c0,0.568,0.735,2.653,3.125,3.412c2.387,0.758,4.042,1.895,4.042,1.895s-1.837,5.302-1.837,7.291s2.207,3.978,3.032,3.692
					c0.828-0.284,3.86-3.692,4.963-4.828c1.103-1.14,1.103-1.14,1.103-1.14s1.652-3.692,1.652-11.364s8.064-13.064,14.678-13.92
					c6.615-0.853,20.878,0.281,20.878,0.281s2.48,2.839,11.025,4.546c8.546,1.704,13.782,4.263,13.782,4.263
					s3.032-2.843,5.788,1.132c2.755,3.98,7.443,4.265,14.058,5.972c6.616,1.702,9.995-2.539,14.679-1.976
					c4.686,0.569,6.671,0.651,6.671,0.651s4.364,2.475,5.915,3.045C347.344,333.249,349.372,334.43,349.372,334.43z"/>
				<path fill="#F3BF98" d="M361.881,335.444c5.193-1.128,1.306-0.426,6.414-0.426c5.104,0,15.679,0.835,17.25,2.456
					c1.569,1.614-7.436,4.024-7.436,4.024s2.269-0.256,4.902,0.874c3.549,1.523,7.861,0.276,8.45,1.692
					c0.59,1.417,1.184,2.874,1.184,2.874l-1.352,0.169c0,0-0.313,0.033-0.508,0.845c0,0-3.446,2.049-7.965,3.866
					c-4.516,1.822-9.032,3.647-13.546,3.241c-4.519-0.405-5.872,0.161-5.872,0.161s-1.223-2.174-3.382-7.438
					C357.862,342.522,358.15,336.255,361.881,335.444z"/>
				<path fill="#5A6774" d="M255.228,312.965c8.621-2.537,13.183,2.199,22.985,1.354c5.336-0.46,6.642,1.135,6.642,1.135
					s8.191-0.973,13.134,1.568c24.339,12.509,22.795,6.329,27.312,9.566c4.517,3.24,2.942,2.431,2.942,2.431l-4.054,1.354
					c0,0,3.664-0.347-3.405-0.547c-7.069-0.202-19.045-2.633-23.757-4.451c-4.711-1.821-5.889-4.457-7.851-5.667
					c-1.963-1.215-3.929,0.402-3.929,0.402s-10.993-3.644-13.743-4.251c-2.75-0.607-9.424-1.821-10.013-2.427
					C260.902,312.824,255.228,312.965,255.228,312.965z"/>
				<path fill="#5A6774" d="M237.64,330.571c2.181,3.938,13.803,8.145,17.76,10.137c11.263,5.673,21.599,6.327,33.407,7.71
					c6.263,0.73,10.195,3.86,16.18,5.529c8.797,2.459,18.818,1.56,27.925,3.567c2.21,0.488,4.423,0.686,6.546,1.205
					c-27.016,0.995-33.123-3.622-49.652-4.233c-10.563-0.39-21.889-2.254-31.845-5.698c-3.785-1.313-6.356-3.125-9.651-4.992
					c-2.337-1.325-7.811-2.769-9.727-4.424c-2.126-1.83-4.062-2.232-1.531-6.073"/>
			</g>
			<path fill="#8F7560" d="M164.246,276.863c0,0-11.97,4.761-13.051,14.79c-1.077,10.029-1.679,19.362-1.486,19.862
				c0.19,0.498-1.535-0.27-1.535-0.27l0.701,4.366l-2.159,0.944c0,0,2.117,9.549,7.156,12.539c5.037,2.991,5.037,2.991,5.037,2.991
				l-1.794,1.434c0,0,1.653,2.972,4.034,3.206c2.377,0.233,2.377,0.233,2.377,0.233l0.405,1.501c0,0,3.685-0.842,5.189-1.244
				c1.505-0.404,3.361-0.487,3.361-0.487s4.467,1.492,12.034,0.48c7.569-1.012,10.846-3.357,12.654-4.619
				c1.803-1.265,4.915-3.604,5.568-4.139c0.653-0.539,2.474-1.465,2.474-1.465s-0.673-3.693-2.964-5.79
				c-2.292-2.099-6.012-5.826-6.012-5.826s-4.071-4.046-3.66-6.265c0.409-2.217,2.704-3.843,4.003-5.084
				c1.299-1.243,0.725-2.739,0.725-2.739s-4.116,2.552-7.406,0.837c-3.292-1.717-4.932-4.349-9.151-4.162
				c-4.223,0.186-7.352-1.703-10.929-2.223c-3.575-0.52-5.602-0.428-5.602-0.428l1.461-1.418c0,0-0.023-0.506-1.551-0.609
				c-1.526-0.102-3.033,0.304-3.033,0.304s0.91-2.409,3.604-2.698c2.696-0.289,4.297,1.501,4.297,1.501s-0.839-3.688-4.247-4.209
				c-3.407-0.525-6.218,0.948-6.218,0.948s0.388-2.722,1.862-3.802c1.475-1.083,2.127-1.619,2.127-1.619s-2.202-0.069-3.684,0.842
				C158.835,284.547,161.313,279.362,164.246,276.863z"/>
		</g>
		<g>
			<g>
				<g>
					<path fill="#020202" d="M225.438,297.595c-0.665-0.123-1.725,0.227-2.391,0.107c0.525-2.804,3.814-3.56,6.05-4.726
						c3.278-1.713,6.426-3.644,9.729-5.309c8.537-4.304,17.509-8.151,27.078-9.129c5.395-0.55,10.867-0.828,16.282-0.784
						c5.896,0.042,11.76,0.601,17.636,0.12c5.272-0.43,10.586-1.684,15.868-1.196c2.46,0.226,4.696,1.656,7.09,2.255
						c0.774,0.192,2.14-0.521,2.003,0.404c-0.07,0.497-0.445,0.697-0.516,1.191c-1.879-0.273-3.611-0.931-5.484-1.239
						c-2.63-0.433-5.342-0.588-8.005-0.603c-5.064-0.036-10.085,1.176-15.131,1.546c-10.062,0.746-20.256-0.654-30.281,0.52
						c-8.633,1.011-17.135,3.549-24.895,7.361c-2.825,1.389-5.446,3.199-8.192,4.731c-1.963,1.101-7.018,2.473-7.374,5.144"/>
				</g>
				<g>
					<path fill="#020202" d="M227.381,346.4c-0.333-0.649-0.743-0.941-0.022-1.329c1.104-0.601,1.969-1.579,2.956-2.356
						c2.158-1.696,4.147-3.746,5.098-6.36c1.071-2.945,0.347-5.91,0.253-8.934c-0.085-2.723,0.652-5.102,2.469-7.109
						c3.156-3.487,7.804-5.722,12.164-7.29c5.336-1.922,11.214-2.923,16.889-2.373c-0.075,0.787,0.208,1.23-0.673,1.162
						c-1.553-0.118-3.117,0.014-4.667,0.141c-3.379,0.276-6.789,0.862-10.009,1.909c-4.613,1.498-9.728,3.886-12.918,7.677
						c-1.911,2.269-2.007,4.796-1.709,7.681c0.328,3.17,0.568,6.209-0.922,9.133c-1.811,3.565-5.291,6.302-8.802,8.097"/>
				</g>
				<g>
					<path fill="#020202" d="M229.217,345.361c-1.678,0-4.536-0.705-4.424-2.881c0.101-1.973,0.9-3.876,1.22-5.818
						c0.479-2.929,0.928-5.858,1.213-8.812c0.149-1.549,0.281-3.094,0.279-4.654c-0.002-0.974,0.653-0.677,1.521-0.696
						c0.115,5.221-0.663,10.998-2.009,16.06c-0.383,1.441-1.712,4.069,0.094,4.951c1.046,0.508,2.333,0.652,3.451,0.39
						c0.773-0.18,0.737,0.458,0.988,1.157c-0.727,0.259-1.563,0.406-2.331,0.406"/>
				</g>
				<g>
					<path fill="#020202" d="M225.873,333.793c-1.66-0.933-4.565-1.552-5.61-3.297c-1.22-2.043-0.002-5.504,0.282-7.638
						c0.483-3.643,0.973-7.371,3.066-10.488c1.168-1.736,2.543-3.332,3.912-4.911c0.164-0.188,1.18-1.427,1.321-1.309
						c0.324,0.262,0.694,0.464,1.017,0.723c-1.916,2.349-4.203,4.53-5.673,7.204c-1.64,2.981-1.944,6.387-2.394,9.701
						c-0.211,1.555-1.312,4.601-0.272,6.073c0.978,1.385,3.489,2.114,4.896,2.906c-0.22,0.393-0.352,0.693-0.573,1.085"/>
				</g>
				<g>
					<path fill="#020202" d="M325.61,317.251c-0.532-7.307-1.659-14.545-1.483-21.887c0.089-3.593,0.151-7.193-0.175-10.78
						c-0.147-1.627-0.354-3.254-0.762-4.837c-0.375-1.442,0.069-1.257,1.404-1.688c1.839,5.684,1.269,11.968,1.144,17.854
						c-0.183,7.105,0.755,14.15,1.267,21.224c-0.562,0.043-0.953,0.083-1.515,0.124"/>
				</g>
				<g>
					<path fill="#020202" d="M330.175,279.565c-1.772-0.192-3.527-0.533-5.311-0.66c-1.374-0.1-1.149-0.057-1.179-1.366
						c1.565-0.023,3.113,0.232,4.657,0.455c0.245,0.037,1.984,0.167,1.964,0.346c-0.043,0.416-0.093,0.822-0.14,1.236"/>
				</g>
				<g>
					<path fill="#020202" d="M413.112,292.15c-7.194,0-14.029-2.532-21.023-3.973c-7.396-1.519-14.809-3.009-22.257-4.283
						c-6.8-1.164-13.625-2.287-20.466-3.216c-2.887-0.392-5.834-0.32-8.714-0.733c-2.144-0.306-4.257-0.585-6.417-0.289
						c-1.242,0.167-2.489,0.267-3.664,0.693c-0.264-0.144-0.836-1.148-0.942-1.441c-0.026-0.079,0.284-0.33,0.255-0.411
						c4.818-1.74,9.226-0.986,14.149-0.454c2.382,0.26,4.778,0.404,7.151,0.74c7.063,0.999,13.988,2.882,21.019,4.1
						c7.312,1.27,14.59,2.662,21.852,4.187c2.535,0.534,5.2,0.516,7.702,1.183c5.036,1.345,9.915,1.961,15.118,1.729
						c3.088-0.137,6.194-0.666,9.291-0.687c0.002,0.502,0.11,1.171,0.112,1.67c0.01,1.055-2.169,0.947-3.047,0.979
						c-3.368,0.135-6.745,0.292-10.118,0.292"/>
				</g>
				<g>
					<path fill="#020202" d="M489.656,300.574c-2.912,0-5.699-0.853-8.584-1.124c-3.236-0.304-6.504,1.1-9.748,1.143
						c-6.334,0.084-12.479-1.905-18.711-2.841c-3.326-0.501-6.586-0.832-9.849-1.673c-3.229-0.84-6.642-1.059-9.813-2.095
						c-3.182-1.036-6.224-2.58-9.517-3.205c-0.584-0.11-3.074-0.147-3.032-0.61c0.054-0.589-0.149-0.501-0.096-1.091
						c9.284,0.853,17.654,4.329,26.778,5.944c4.43,0.785,8.84,1.873,13.291,2.563c4.445,0.686,8.96,0.934,13.46,0.604
						c2.246-0.164,4.415-0.056,6.678,0.085c1.955,0.123,3.827,0.531,5.764,0.826c4.724,0.719,9.16-0.955,13.822-1.439
						c4.565-0.474,9.077-1.364,13.626-1.957c2.125-0.277,4.239-0.604,6.356-0.913c1.054-0.155,0.703,0.892,0.838,1.813
						c-5.002,0.735-9.854,2.076-14.877,2.646c-2.824,0.321-5.698,0.247-8.501,0.723c-2.611,0.44-5.225,1.394-7.888,1.394"/>
				</g>
				<g>
					<path fill="#020202" d="M524.816,329.818c-1.345-0.497-1.177-0.366-0.741-1.836c0.489-1.651,0.753-3.393,0.646-5.118
						c-0.188-3.044-1.38-5.929-2.157-8.852c-0.466-1.732-0.979-3.413-0.916-5.215c0.067-1.966,0.567-3.952,0.36-5.919
						c-0.395-3.797-4.009-5.504-6.86-7.396c0.74-1.112,0.646-1.259,1.874-0.478c1.391,0.884,2.926,1.653,4.091,2.827
						c3.05,3.073,2.052,7.067,1.91,10.985c-0.136,3.684,1.446,7.158,2.321,10.675c0.872,3.49,0.685,6.862-0.57,10.24"/>
				</g>
				<g>
					<path fill="#020202" d="M516.277,340.633c-0.417-0.72-0.915-0.992-0.151-1.489c1.218-0.795,2.3-1.783,3.275-2.854
						c2.295-2.533,4.09-5.518,6.495-7.948c0.632,0.625,1.207,0.75,0.539,1.471c-1.249,1.335-2.338,2.813-3.461,4.254
						c-1.905,2.447-3.936,5.01-6.668,6.583"/>
				</g>
				<g>
					<path fill="#020202" d="M431.934,343.314c-8.482,0-16.91-1.341-25.361-1.947c-3.937-0.279-7.911,0.015-11.848-0.234
						c-1.549-0.102-3.081-0.5-4.632-0.587c-0.401-0.02-0.577,0.258-0.553-0.223c0.029-0.59-0.589-0.768-0.558-1.356
						c16.838,0.872,33.688,2.569,50.562,1.956c11.956-0.433,23.889-0.922,35.855-1.198c12.221-0.276,24.44-0.767,36.644-1.521
						c2.438-0.151,4.894-0.025,7.324-0.232c1.174-0.097,0.881,1.264,0.971,2.294c-14.657,1.28-29.455,1.163-44.156,1.489
						C461.431,342.09,446.685,343.314,431.934,343.314"/>
				</g>
				<g>
					<path fill="#020202" d="M478.145,297.75c-2.668,0-4.015-1.689-6.047-2.961c-2.037-1.272-5.038,0.385-7.231,0.473
						c-6.185,0.237-12.363,0.386-18.554,0.386c0-0.531-0.082-0.99-0.082-1.521c0-0.15,3.962,0.041,4.428,0.023
						c3.088-0.093,6.154-0.693,9.234-0.856c2.911-0.147,5.739-0.077,8.621-0.485c1.235-0.174,2.536-0.341,3.723,0.14
						c1.241,0.5,1.978,1.595,3.037,2.345c1.959,1.386,3.525,0.997,5.421-0.086c2.139-1.223,4.524-1.447,6.947-1.72
						c2.713-0.306,5.425-0.642,8.153-0.691c1.46-0.028,2.888,0.26,4.348,0.223c0.195,0.212,0.057,1.026,0.064,1.34
						c-3.964,0.1-7.923,0.199-11.866,0.594c-1.736,0.172-3.594,0.212-5.235,0.833c-1.679,0.635-3.083,2.12-4.96,2.12"/>
				</g>
				<g>
					<path fill="#020202" d="M498.956,297.448c-0.01-1.704-0.357-3.377-0.547-5.064c0.751-0.084,1.314-0.46,1.425,0.385
						c0.201,1.554,0.454,3.092,0.466,4.665c-0.453,0.003-0.883,0.012-1.334,0.017"/>
				</g>
				<g>
					<path fill="#020202" d="M498.849,296.495c-0.727-1.157-1-1.128,0.157-1.865c1.461-0.932,3.051-1.651,4.553-2.523
						c3.899-2.253,8.047-3.665,12.248-5.216c1.538-0.57,2.768-1.454,3.954-2.588c1.35-1.293,2.557-3.07,4.237-3.956
						c1.865-0.984,3.545-1.084,4.945-2.876c0.36-0.462,0.597-1.029,0.862-1.557c0.208-0.061,1.116,0.577,1.332,0.685
						c-0.508,1.012-1.284,1.879-2.101,2.66c-1.305,1.244-2.674,1.54-4.221,2.281c-1.461,0.702-2.487,2.3-3.609,3.421
						c-1.208,1.211-2.555,2.188-4.144,2.846c-3.592,1.484-7.361,2.397-10.84,4.179c-2.591,1.328-4.992,2.989-7.447,4.551"/>
				</g>
				<g>
					<path fill="#020202" d="M520.962,298.068c-0.136-0.262-0.748-1.105-0.468-1.258c1.005-0.563,1.969-1.245,2.82-2.012
						c1.206-1.081,2.379-2.333,2.709-3.978c0.29-1.438,0.442-2.788,1.112-4.13c1.277-2.548,5.062-4.222,4.203-7.513
						c-0.234-0.91-0.788-1.746-1.682-2.032c-0.55-0.181-0.204-0.807-0.122-1.327c2.083,0.319,3.461,2.316,3.461,4.322
						c0,3.076-2.913,4.301-4.36,6.615c-1.383,2.204-0.857,4.938-2.503,7.022c-1.338,1.69-3.213,3.33-5.158,4.307"/>
				</g>
				<g>
					<path fill="#020202" d="M521.92,283.416c-0.41-0.192-0.784-0.371-1.194-0.563c0.876-1.879,2.276-3.457,3.697-4.935
						c0.789-0.823,1.617-1.615,2.346-2.494c0.253,0.007,0.836,0.697,1.041,0.867C525.852,278.642,523.238,280.596,521.92,283.416"/>
				</g>
				<g>
					<path fill="#020202" d="M527.903,278.194c-1.03-0.402-2.087-0.729-3.15-1.023c-0.101-0.226,0.296-1.065,0.368-1.319
						c1.108,0.307,2.196,0.676,3.268,1.097c-0.164,0.422-0.325,0.835-0.488,1.256"/>
				</g>
				<g>
					<path fill="#020202" d="M518.941,302.48c-0.334-0.753-1.071-1.313-0.23-1.704c1.48-0.696,2.903-1.533,4.271-2.427
						c2.843-1.854,5.544-4.021,7.861-6.505c2.287-2.45,4.41-4.59,7.095-6.601c1.27-0.95,2.454-2.004,3.656-3.044
						c0.77-0.663,0.979,0.203,1.576,0.88c-1.847,1.628-3.693,3.191-5.683,4.646c-2.075,1.521-3.758,3.325-5.511,5.198
						c-3.661,3.917-8.164,7.488-13.069,9.676"/>
				</g>
				<g>
					<path fill="#020202" d="M537.9,293.359c-0.357-0.273-0.725-0.515-1.083-0.787c2.212-2.909,5.481-5.214,8.474-7.242
						c0.142,0.208,0.807,0.926,0.776,1.15c-1.006,0.682-1.978,1.421-2.946,2.157c-1.84,1.407-3.85,2.865-5.261,4.727"/>
				</g>
				<g>
					<path fill="#020202" d="M543.766,285.666c-0.259-0.915-0.902-1.666-1.733-2.118c-0.691-0.383-0.223-0.775,0.055-1.471
						c1.433,0.569,2.551,1.732,2.975,3.225c-0.437,0.121-0.878,0.245-1.311,0.365"/>
				</g>
				<g>
					<path fill="#020202" d="M546.72,299.513c-0.207-0.36-0.508-0.667-0.716-1.028c0-0.007,1.527-1.366,1.711-1.659
						c0.546-0.856,0.496-1.817-0.169-2.585c-0.207-0.733-0.275-0.05-0.033-0.803c1.074-1.388,0.961-3.044-0.675-3.875
						c-0.547-0.28-0.167-0.151-0.265-0.636c0.224-0.993-0.605-1.725-0.931-2.592c1.127-0.425,1.127-0.617,1.764,0.428
						c0.374,0.614,0.585,1.247,0.519,1.984c0.748,0.487,1.427,1.167,1.625,2.05c0.179,0.813,0.038,1.693-0.313,2.436
						c-0.458,0.979,0.183,1.295,0.213,2.364c0.052,1.752-1.357,3.171-2.776,3.972"/>
				</g>
				<g>
					<path fill="#020202" d="M541.404,293.716c-0.284-0.351-0.549-0.691-0.835-1.04c2.317-1.897,4.809-3.865,7.688-4.816
						c0.131,0.396,0.257,0.771,0.388,1.165c0.034,0.105-1.862,0.92-2.13,1.066c-1.829,1.007-3.52,2.263-5.128,3.585"/>
				</g>
				<g>
					<path fill="#020202" d="M543.354,297.755c-0.316-0.325-0.634-0.686-0.946-1.014c1.344-1.289,2.978-2.234,4.509-3.273
						c0.259-0.176,1.954-1.475,2.043-1.372c0.273,0.313,0.508,0.624,0.779,0.94c-1.998,1.737-4.466,2.848-6.379,4.688"/>
				</g>
				<g>
					<path fill="#020202" d="M542.285,303.53c-0.313-0.322-0.631-0.685-0.943-1.008c2.072-2.01,4.336-3.936,7.136-4.833
						c0.103,0.319,0.228,0.611,0.331,0.929c0.206,0.64-1.118,0.796-1.644,1.074c-1.832,0.97-3.358,2.404-4.838,3.838"/>
				</g>
				<g>
					<path fill="#020202" d="M523.979,326.903c-0.189-0.409-0.347-0.836-0.534-1.245c-0.281-0.611,1.164-0.81,1.659-1.095
						c1.716-0.982,3.16-2.369,4.591-3.727c3.05-2.883,5.734-6.098,9.071-8.679c2.301-1.779,3.865-2.84,4.96-5.535
						c0.722-1.764,2.021-3.315,2.581-5.137c0.068-0.226,0.129-1.636,0.088-1.605c0.437-0.306,0.836-0.682,1.272-0.989
						c1.853,2.627-1.537,6.706-2.479,9.136c-0.939,2.431-2.984,3.488-5.021,4.995c-5.791,4.288-9.448,10.72-16.167,13.838"/>
				</g>
				<g>
					<path fill="#020202" d="M435.438,334.283c-8.818-0.021-13.973,0.111-22.453-0.36c-8.776-0.486-20.297-3.163-28.896-4.936
						c-8.144-1.678-16.133-3.93-24.223-5.841c-8.531-2.015-17.215-3.389-25.748-5.389c0.076-0.324,0.243-0.795,0.318-1.119
						c0.168-0.711,1.611,0.14,2.195,0.269c2.183,0.505,4.436,0.689,6.623,1.176c4.47,0.99,8.874,2.248,13.333,3.271
						c8.586,1.967,17.01,4.61,25.612,6.471c8.707,1.884,17.51,3.564,26.413,4.123c8.974,0.563,18.009,0.188,26.955,1.168
						C435.52,333.565,435.486,333.834,435.438,334.283"/>
				</g>
				<g>
					<path fill="#020202" d="M425.122,334.308c-0.022-0.454,0.085-1.055,0.062-1.503c18.186-0.896,36.404,0.493,54.587-0.6
						c7.35-0.442,14.712-0.715,22.051-1.361c4.593-0.404,9.209-0.633,13.802-0.952c4.21-0.292,8.246,0.215,12.405,0.771
						c-0.057,0.448-0.008,0.486-0.069,0.934c-4.027-0.544-8.101-1.406-12.173-1.14c-4.528,0.295-9.033,1.257-13.559,1.657
						c-7.365,0.658-14.764,0.886-22.148,1.332c-18.264,1.099-36.526,0.385-54.795,1.281"/>
				</g>
				<g>
					<path fill="#020202" d="M363.111,355.432c-4.989-4.701-6.427-14.123-2.606-19.978c0.217,0.142,0.993,0.469,1.061,0.693
						c-0.518,0.795-0.94,1.663-1.217,2.566c-0.634,2.084-0.693,4.339-0.462,6.495c0.229,2.125,0.811,4.235,1.837,6.118
						c0.541,0.999,1.275,1.864,2.063,2.68c0.554,0.563-0.176,0.894-0.662,1.408"/>
				</g>
				<g>
					<path fill="#020202" d="M339.477,359.523c-3.611,0-7.036-1.618-10.626-1.657c-2.352-0.024-4.646,0.096-6.999-0.088
						c-2.314-0.185-4.655-0.106-6.966-0.365c-4.03-0.457-8.132-0.318-12.123-1.109c-3.717-0.738-6.993-2.592-10.169-4.647
						c0.273-0.421,0.287-0.719,0.56-1.14c0.54-0.835,1.572,0.6,2.308,1.005c2.285,1.257,4.868,1.824,7.42,2.367
						c2.904,0.616,5.775,0.81,8.72,1.011c3.326,0.221,6.609,0.885,9.929,1.17c3.02,0.258,6.086-0.463,9.088-0.146
						c2.752,0.289,5.373,1.564,8.154,1.652c5.388,0.175,9.81-3.186,14.962-4.193c0.069,0.363,0.656,2.06,0.484,2.354
						c-1.749,0.343-3.507,0.691-5.168,1.341c-3.145,1.23-6.141,2.232-9.574,2.232"/>
				</g>
				<g>
					<path fill="#020202" d="M292.464,354.194c-5.513,0-10.926-1.018-16.418-1.218c-2.683-0.096-5.355-0.532-7.957-1.278
						c-2.702-0.771-5.216-2.142-7.998-2.645c-2.12-0.445-4.327-0.503-6.388-1.203c-2.719-0.916-5.046-2.679-7.534-4.074
						c-4.053-2.27-10.069-2.905-12.762-7.067c0.497-0.321,0.889-0.301,1.384-0.622c0.209-0.134,2.08,1.399,2.619,1.692
						c2.811,1.511,5.85,2.41,8.687,3.913c2.792,1.481,5.51,3.156,8.542,4.14c2.713,0.881,5.693,0.774,8.38,1.731
						c3.133,1.118,5.828,2.666,9.204,2.944c3.326,0.272,6.622,0.451,9.941,0.847c3.436,0.408,6.897,0.697,10.36,0.694
						c0.504,0,5.181-0.265,5.185-0.227c0.062,0.652,0.015,1.379,0.075,2.027c-1.756,0.164-3.556,0.473-5.319,0.473"/>
				</g>
				<g>
					<path fill="#020202" d="M294.39,322.512c-4.951-0.301-9.468-3.232-14.338-4.13c-2.906-0.541-5.703-0.969-8.454-2.094
						c-1.297-0.531-2.575-1.128-3.915-1.547c-0.111-0.295,0.415-1.248,0.516-1.571c2.614,0.817,5.038,2.174,7.707,2.83
						c2.702,0.671,5.483,0.901,8.162,1.682c2.136,0.627,4.204,1.417,6.31,2.123c1.337,0.455,2.691,0.975,4.107,1.058
						c0.176,0.23-0.074,1.394-0.092,1.708"/>
				</g>
				<g>
					<path fill="#020202" d="M322.912,331.558c-3.569-0.492-7.045-1.427-10.504-2.417c-1.553-0.444-3.151-0.736-4.701-1.186
						c-1.507-0.433-3.133-0.697-4.269-1.871c-1.069-1.111-1.84-2.951-3.612-3.035c-1.223-0.059-2.492,0.377-3.515,0.973
						c-0.946,0.548-0.841-0.079-1.365-0.914c1.906-1.2,4.46-2.526,6.682-1.316c1.595,0.872,2.354,3.307,4.072,3.782
						c3.529,0.968,7.042,1.984,10.584,2.904c1.818,0.471,3.617,1.052,5.472,1.366c1.653,0.283,1.353,0.275,1.142,1.81"/>
				</g>
				<g>
					<path fill="#020202" d="M354.228,334.897c-4.063-3.264-8.408-6.302-13.103-8.552c-3.915-1.875-8.269-3.345-12.404-4.635
						c-5.418-1.687-10.466-3.829-15.678-6.132c-5.503-2.428-11.061-4.842-16.802-6.681c-8.298-2.653-16.801-5.083-25.358-6.725
						c-9.092-1.742-19.349-3.149-28.57-1.351c-3.038,0.591-6.25,0.991-8.806,2.755c-1.357,0.934-2.072,2.623-3.18,3.848
						c-0.371,0.409-0.866,0.816-1.388,0.409c-0.355-0.279-0.785,0.075-1.142-0.2c5.74-7.373,14.291-10.286,23.262-10.001
						c9.832,0.315,19.665,3.156,29.167,5.609c8.876,2.29,17.728,4.592,26.117,8.32c5.485,2.438,11.089,4.663,16.843,6.425
						c2.585,0.792,5.029,1.961,7.573,2.884c2.276,0.827,4.369,2.083,6.598,3.04c6.286,2.706,12.464,5.5,17.819,9.799
						c-0.354,0.438-0.918,1.185-1.271,1.622"/>
				</g>
				<g>
					<path fill="#020202" d="M257.965,288.747c-0.644,0-2.077-0.498-1.499-1.464c0.077-0.208,0.168-0.45,0.395-0.403
						c0.866,0.183,1.82-0.703,2.771-0.591c0.805,0.093,1.34,0.791,1.796,1.395C260.336,288.171,259.182,288.747,257.965,288.747"/>
				</g>
			</g>
			<g>
				<g>
					<path fill="#020202" d="M165.557,278.881c-0.209-0.519-0.385-1.149-0.597-1.672c4.092-1.654,8.569-3.338,13.084-2.811
						c2.104,0.247,4.284-0.51,6.15-1.482c1.716-0.883,2.648-2.186,3.882-3.6c1.24-1.424,3.331-1.254,4.752-0.017
						c0.478,0.411,0.749,0.88,0.998,1.45c0.371,0.838,1.551,0.066,2.131-0.341c0.776-0.541,0.569-1.04,1.57-1.034
						c1.6,0.007,2.505,1.177,2.91,2.663c-0.437,0.117-0.303,0.349-0.742,0.455c-0.522,0.129-0.876-1.215-1.545-1.506
						c-0.599-0.257-0.429,0.17-0.873,0.518c-0.774,0.601-1.641,1.146-2.622,1.265c-2.207,0.272-1.607-1.886-3.072-2.632
						c-1.887-0.964-2.602,1.135-3.688,2.32c-2.961,3.237-7.156,3.599-11.211,3.542c-3.819-0.054-7.636,1.301-11.106,2.704"/>
				</g>
				<g>
					<path fill="#020202" d="M223.859,296.761c-3.22-0.48-6.546-1.802-8.584-4.411c-3.03-3.886-2.707-8.698-2.488-13.342
						c0.111-2.366-0.064-5.95-3.27-5.97c-1.081-0.009-2.035,0.438-3.034,0.753c-1.378,0.434-1.782-0.323-2.841-1.023
						c-0.457-0.299-1.49-0.388-1.713-0.789c-0.286-0.512-0.359-1.048-0.359-1.048c0.915-0.82,1.417-0.682,2.297-0.244
						c0.665,0.33,1.552,1.432,2.243,1.166c2.004-0.76,3.761-1.286,5.798-0.287c3.222,1.583,3.071,5.989,2.802,8.986
						c-0.382,4.25,0.125,9.328,3.868,12.041c1.479,1.073,3.234,1.703,5.008,2.078c1,0.214,0.299,1.283,0.167,2.186"/>
				</g>
				<g>
					<path fill="#020202" d="M149.162,309.313c-1.308-11.659,0.705-30.28,14.691-33.467c0.058,0.258,0.495,1.82,0.353,1.858
						c-0.752,0.2-1.488,0.537-2.184,0.868c-3.376,1.608-6.097,4.433-7.764,7.785c-2.27,4.561-3.281,9.65-3.489,14.717
						c-0.093,2.19,0.053,4.382,0.242,6.568c0.065,0.771,0.362,1.29-0.504,1.389c-0.499,0.056-0.93,0.23-1.427,0.286"/>
				</g>
				<g>
					<path fill="#020202" d="M147.733,315.481c-0.321-1.077-0.435-2.198-0.493-3.315c-0.051-0.958-0.469-1.929,0.57-2.171
						c0.809-0.189,1.153-0.563,1.601,0.154c0.62,0.991,1.478,1.815,2.217,2.714c-0.306,0.25-0.626,0.521-0.935,0.769
						c-0.748,0.614-0.627,0.57-1.304-0.194c0.103,0.786,0.639,1.338-0.206,1.591c-0.481,0.143-0.967,0.315-1.449,0.461"/>
				</g>
				<g>
					<path fill="#020202" d="M158.037,333.297c-7.097-2.981-11.938-10.706-12.14-18.302c0.588-0.016,1.206-0.054,1.795-0.069
						c0.463-0.008,0.264,0.634,0.31,1.041c0.299,2.789,1.174,5.575,2.65,7.977c1.481,2.403,3.543,4.422,5.871,6.007
						c0.229,0.157,2.354,1.467,2.339,1.506c-0.251,0.603-0.555,1.237-0.809,1.837"/>
				</g>
				<g>
					<path fill="#020202" d="M161.201,336.598c-2.957,0.132-5.047-0.946-6.499-3.486c1.18-0.265,2.35-0.454,3.568-0.485
						c0.53-0.013,1.633-0.361,1.661,0.29c0.021,0.449,0.052,0.88,0.072,1.33c-0.71,0.03-1.39,0.04-2.098,0.067
						c1.048,0.56,2.318,0.669,3.482,0.585c0.523-0.037,0.405,1.188,0.467,1.645c-0.224,0.029-0.43,0.05-0.654,0.059"/>
				</g>
				<g>
					<path fill="#020202" d="M160.667,338.573c-0.056-0.449-0.098-0.898-0.157-1.346c-0.076-0.601,0.826-0.503,1.328-0.726
						c0.529-0.234,1.346-1.151,1.72-0.61c0.258,0.369,0.525,0.744,0.784,1.114c-1.099,0.758-2.326,1.391-3.667,1.564"/>
				</g>
				<g>
					<path fill="#020202" d="M175.943,339.014c-1.916,0.084-3.621-0.848-5.45-1.203c-0.175-0.297,0.361-1.646,0.429-2.02
						c1.704,0.327,3.487,1.366,5.261,1.064c1.708-0.29,3.445-0.363,5.168-0.515c3.079-0.267,6.18-0.573,9.187-1.359
						c3.603-0.943,5.818-2.732,8.166-5.48c1.197-1.398,2.886-1.542,4.306-2.553c0.763-0.548,1.167,0.436,1.818,1.064
						c-0.92,0.955-2.021,1.395-3.203,1.9c-1.436,0.615-1.991,2.039-3.039,3.112c-1.955,2.005-4.585,3.145-7.266,3.889
						c-2.418,0.671-4.901,0.976-7.391,1.177c-2.651,0.214-5.337,0.946-7.981,1.065"/>
				</g>
				<g>
					<path fill="#020202" d="M163.466,339.768c-0.052-1.158-0.101-2.31,0.613-3.308c0.28,0.2,1.466,0.836,1.3,1.127
						c1.324-0.399,2.615-0.899,3.977-1.161c0.066,0.335,0.122,0.653,0.188,0.987c0.186,0.969-0.222,0.716-1.152,0.993
						c-1.641,0.483-3.233,1.039-4.916,1.389"/>
				</g>
				<g>
					<path fill="#020202" d="M198.877,316.014c-5.311,0.234-8.298-4.962-6.186-9.593c0.402,0.185,1.371,0.353,1.193,0.831
						c-0.521,1.378-0.787,2.99-0.239,4.395c1.13,2.893,5.003,3.764,7.557,2.395c2.383-1.277,4.382-3.969,5.734-6.266
						c0.878-1.488,0.874-3.248-0.468-4.426c-0.205-0.179-1.58-0.914-1.538-1.004c0.17-0.384,0.375-0.707,0.546-1.087
						c4.058,1.805,3.932,5.318,1.584,8.583c-1.991,2.751-4.481,6.001-8.187,6.165"/>
				</g>
				<g>
					<path fill="#020202" d="M159.693,284.799c-0.662-0.152-1.32-0.299-1.978-0.447c0.612-2.687,2.306-5.366,4.804-6.652
						c0.18,0.35,0.359,0.664,0.54,1.016c0.473,0.919,0.325,0.665-0.496,1.31c-1.465,1.155-2.481,2.967-2.89,4.773"/>
				</g>
				<g>
					<path fill="#020202" d="M168.874,292.358c-1.366-3.075-5.132-4.241-8.247-3.503c-0.716,0.172-2.42,1.155-2.65-0.362
						c0.943-1.408,1.306-3.03,2.658-4.165c0.269,0.319,0.571,0.639,0.841,0.96c-0.049-0.058-1.343,1.937-1.485,2.243
						c3.82-1.037,8.471,0.499,10.152,4.269c-0.412,0.183-0.869,0.384-1.28,0.568"/>
				</g>
				<g>
					<path fill="#020202" d="M168.033,292.631c-0.983-1.372-2.885-1.737-4.424-1.17c-0.265,0.104-1.632,1.021-1.637,1.016
						c-0.33-0.257-0.651-0.48-0.98-0.738c1.985-2.543,6.253-2.548,8.149,0.099c-0.366,0.262-0.714,0.51-1.082,0.773"/>
				</g>
				<g>
					<path fill="#020202" d="M178.226,298.568c-2.945,0.132-5.563-1.386-8.396-1.973c-2.162-0.45-4.341-0.505-6.542-0.463
						c0.269-0.568,0.511-1.306,0.969-1.755c-0.255-0.076-2.278-0.082-2.169,0.04c-0.277-0.313-0.648-0.651-0.926-0.964
						c1.19-1.063,2.878-0.583,4.22-0.088c0.998,0.366,1.009,0.2,0.827,1.244c2.846,0.107,5.595,0.761,8.241,1.803
						c2.789,1.102,5.116,0.67,7.993,0.271c0.032,0.233,0.304,1.121,0.176,1.291c-1.464,0.2-2.917,0.487-4.399,0.552"/>
				</g>
				<g>
					<path fill="#020202" d="M192.305,303.521c-2.046,0.089-3.719-0.822-5.299-2.019c-0.901-0.68-1.845-1.324-2.863-1.831
						c-0.056-0.229,0.536-1.057,0.651-1.288c2.502,1.247,4.418,3.982,7.457,3.85c1.331-0.059,2.708-0.39,3.927-0.914
						c1.152-0.499,0.937-0.396,1.567,0.652c-1.59,0.955-3.588,1.505-5.437,1.588"/>
				</g>
				<g>
					<path fill="#020202" d="M205.558,327.306c-0.797-0.022-1.256,0.229-1.318-0.628c-0.104-1.483-0.863-2.831-1.736-4.01
						c-1.5-2.023-3.473-3.629-5.371-5.258c0.364-0.419,0.685-1.233,1.181-0.813c1.003,0.86,1.992,1.745,2.948,2.657
						c2.226,2.111,4.342,4.777,4.252,8.013"/>
				</g>
				<g>
					<path fill="#020202" d="M205.01,325.733c-0.551-0.393-1.149-0.81-1.697-1.203c3.515-4.898,13.926-5.455,17.825-0.787
						c-0.307,0.258-1.223,1.317-1.6,1.324c-1.109-1.325-2.922-1.849-4.585-2.107c-3.164-0.482-7.866-0.042-9.911,2.805"/>
				</g>
				<g>
					<path fill="#020202" d="M186.389,283.212c-0.196-1.918-1.526-3.473-2.36-5.146c1.134-0.563,1.041-0.776,1.715,0.391
						c0.843,1.459,1.792,2.904,1.968,4.624c-0.448,0.044-0.889,0.083-1.336,0.13"/>
				</g>
				<g>
					<path fill="#020202" d="M178.774,280.505c-1.066-0.972-1.648-2.227-1.825-3.653c0.332-0.04,0.649-0.075,0.98-0.114
						c0.653-0.082,0.523,0.982,0.793,1.526c0.114,0.228,0.961,1.251,0.896,1.319c-0.28,0.309-0.556,0.602-0.839,0.911"/>
				</g>
				<g>
					<path fill="#020202" d="M196.998,311.423c-4.412-1.001,0.052-8.84,3.125-4.647c-0.237,0.176-0.783,0.775-1.067,0.785
						c-0.572-0.778-1.294-0.854-1.934-0.105c-0.478,0.56-1.074,1.906-0.262,2.464c0.616,0.425,0.319,0.709,0.142,1.502"/>
				</g>
				<g>
					<path fill="#020202" d="M201.685,310.943c-1.432,0.063-4.961-1.676-4.205-3.575c0.177,0.07,1.279,0.538,1.275,0.442
						c0.088,0.951,2.088,1.844,2.877,1.809c1.005-0.043,0.751-1.534,0.854-2.217c0.052-0.346,0.477-3.556-0.073-3.193
						c-0.335,0.237-0.534,1.617-0.659,1.626c-0.418,0.041-0.802,0.02-1.22,0.058c-0.096-1.095,0.447-2.685,1.621-3.005
						c1.508-0.41,2.06,1.099,2.023,2.257c-0.058,1.8,0.017,5.661-2.492,5.771"/>
				</g>
			</g>
			<g>
				<path fill="#020202" d="M332.501,319.388c-0.13-7.359-0.703-14.632-1.197-21.966c-0.251-3.706-0.496-7.407-0.688-11.114
					c-0.098-1.839,0.021-3.705-0.256-5.524c-0.229-1.495-0.47-1.289,0.905-1.555c1.273,6.587,0.712,13.436,1.24,20.103
					c0.532,6.697,1.432,13.318,1.55,20.041c-0.449,0.008-1.035,0.006-1.484,0.012"/>
			</g>
			<g>
				<g>
					<path fill="#020202" d="M380.084,341.432c-0.143-1.27-0.321-1.224,0.902-1.464c1.707-0.327,3.674-0.772,3.976-2.813
						c-4.306-0.542-8.46-1.769-12.804-2.216c-1.804-0.185-3.622-0.119-5.403,0.242c-1.387,0.28-2.705,0.836-4.034,1.318
						c-1.001,0.361-0.812-0.127-1.146-1.012c5.729-2.183,11.733-2.438,17.649-0.808c1.32,0.363,2.522,0.947,3.894,1.115
						c1.341,0.164,3.542-0.232,3.217,1.733c-0.489,2.978-3.643,3.593-6.203,3.877"/>
				</g>
				<g>
					<path fill="#020202" d="M368.966,356.148c-3.203,0-6.416-0.223-9.604-0.433c-1.959-0.131-3.909-0.257-5.872-0.28
						c-0.522-0.012-1.579,0.27-1.579-0.417c0-0.453,0.119-0.895,0.119-1.35c5.181,0,10.295,0.563,15.461,0.826
						c1.976,0.103,4.191,0.317,6.085-0.337c0.483-0.169,2.185-1.466,2.587-1.317c0.244,0.093,0.53,1.335,0.648,1.602
						c-2.649,1.2-4.907,1.829-7.843,1.829"/>
				</g>
				<g>
					<path fill="#020202" d="M373.124,354.14c-0.049-0.449-0.085-0.875-0.134-1.322c2.74-0.307,5.764-0.049,8.354-1.135
						c0.797-0.331,1.579-0.84,2.111-1.533c0.208-0.272,0.99,0.418,1.263,0.584c-2.215,3.649-7.974,2.998-11.586,3.402"/>
				</g>
				<g>
					<path fill="#020202" d="M381.83,351.091c-3.282,0-6.959-0.367-10.11-1.282c0.07-0.24,0.212-1.222,0.406-1.342
						c0.949,0.274,1.953,0.306,2.922,0.467c1.962,0.318,3.926,0.692,5.904,0.825c2.239,0.153,4.32-0.82,6.461-1.354
						c0.999-0.25,2.131-0.349,3.022-0.9c0.446-0.276,0.895,0.499,1.236,0.864c-0.998,0.942-2.673,1.068-3.94,1.388
						c-1.921,0.479-3.898,1.386-5.901,1.386"/>
				</g>
				<g>
					<path fill="#020202" d="M382.199,348.556c-2.388,0-4.472-1.091-6.532-2.196c-1.1-0.589-2.162-1.255-3.263-1.839
						c-0.551-0.29,0.041-0.887,0.281-1.374c3.012,1.492,6.099,3.998,9.598,3.984c1.883-0.007,3.771-0.077,5.648-0.256
						c0.686-0.063,2.938,0.014,3.416-0.437c0.499-0.466-0.643-1.622-1.02-1.735c-2.017-0.611-4.242-0.386-6.295-1.024
						c-2.141-0.667-4.136-1.83-6.148-2.801c-1.922-0.923-3.796-1.995-5.799-2.732c-0.685-0.253-1.411-0.427-2.132-0.556
						c-0.12-0.186,0.196-1.075,0.241-1.31c6.154,1.146,11.047,5.97,17.269,6.797c1.291,0.173,2.899,0.068,3.99,0.891
						c0.929,0.692,1.847,2.241,1.068,3.322c-0.797,1.107-3.548,0.835-4.768,0.948c-1.845,0.173-3.702,0.258-5.557,0.258"/>
				</g>
			</g>
			<g>
				<path fill="#020202" d="M237.553,333.445c-2.214-1.119-2.911-2.521-3.476-4.807c-0.774-3.133-4.027-4.779-4.887-7.79
					c-0.786-2.755,1.27-5.079,2.639-7.217c0.595-0.928,1.229-2.024,0.429-3.033c-0.821-1.039-0.751-0.819,0.034-1.952
					c2.802,1.936,1.678,4.61,0.064,6.923c-0.852,1.218-2.139,2.54-2.121,4.104c0.016,1.498,1.392,2.614,2.287,3.69
					c0.901,1.082,1.739,2.245,2.287,3.561c0.409,0.985,0.643,1.996,0.986,2.998c0.327,0.94,0.905,1.675,1.749,2.171
					c0.806,0.47,0.34,0.755-0.046,1.521"/>
			</g>
			<g>
				<path fill="#020202" d="M220.573,322.11c-1.852-2.961-1.612-7.004-0.033-10.018c0.734,0.383,1.253,0.289,0.89,1.118
					c-0.556,1.258-0.772,2.647-0.774,4.021c-0.003,1.28,0.218,2.579,0.803,3.727c0.369,0.725-0.262,0.752-0.901,1.152"/>
			</g>
			<g>
				<path fill="#020202" d="M293.689,351.817c-3.621-1.549-7.077-3.528-10.819-4.785c-2.457-0.825-6.496-1.918-7.915,1.133
					c1.333,0.124,2.627,0.148,3.965,0.124c0.956-0.016,2.301-0.346,3.227,0.024c-0.555,1.391-0.523,1.23-2.056,1.242
					c-1.708,0.022-3.439,0.149-5.146,0.021c-0.623-0.046-1.159-0.186-1.572-0.677c-0.7-0.835,1.5-2.902,2.161-3.29
					c3.095-1.819,7.452-0.05,10.418,1.172c2.026,0.835,3.986,1.825,5.977,2.739c0.283,0.133,2.351,0.935,2.283,1.095
					c-0.165,0.384-0.333,0.752-0.499,1.133"/>
			</g>
			<g>
				<path fill="#020202" d="M294.899,316.889c-8.126-0.274-16.223-1.049-24.323-1.729c-3.88-0.323-7.753-0.793-11.646-0.979
					c-1.961-0.094-3.935,0.159-5.899,0.13c-0.278-0.005-1.994-0.13-1.994-0.312c0-0.419-0.229-0.976-0.229-1.395
					c8.083,0,16.142,0.895,24.185,1.599c3.913,0.348,7.824,0.745,11.743,1.021c1.987,0.137,3.987,0.002,5.975,0.093
					c0.279,0.014,2.153,0.13,2.147,0.312c-0.014,0.415,0.045,0.622,0.033,1.041"/>
			</g>
			<g>
				<path fill="#020202" d="M327.228,329.547c-2.292-2.624-4.56-3.313-7.899-3.353c-4.02-0.047-7.319-1.459-10.786-3.422
					c-3.654-2.071-7.275-4.224-11.302-5.53c-4.236-1.375-8.667-2.029-13.021-2.925c-4.185-0.86-8.32-1.963-12.398-3.248
					c-4.262-1.348-8.479-2.801-12.891-3.577c-3.863-0.678-7.854-1.276-11.639-0.139c-1.637,0.495-2.969,1.797-4.516,2.523
					c-0.297,0.14-2.77,1.012-2.849,0.855c-0.186-0.371,0.187-0.6,0-0.972c3.125-1.561,6.148-3.162,9.611-3.786
					c3.909-0.701,7.847-0.3,11.694,0.562c4.212,0.94,8.37,2.056,12.493,3.312c4.241,1.298,8.533,2.333,12.873,3.221
					c4.146,0.849,8.616,1.171,12.577,2.701c4.036,1.56,7.56,4.246,11.35,6.289c3.233,1.744,6.029,2.97,9.676,3.014
					c3.369,0.041,6.145,0.749,8.395,3.323c-0.341,0.296-1.017,0.877-1.356,1.171"/>
			</g>
			<g>
				<path fill="#020202" d="M355.452,335.897c-3.229,0-6.386-0.665-9.374-1.875c-3.541-1.434-6.729-3.606-10.549-4.286
					c-3.154-0.563-6.354-0.357-9.313,0.786c-1.833,0.714-3.518,1.799-5.234,2.756c-0.462,0.258-0.917,0.922-1.263,0.329
					c-0.226-0.392-0.736-0.838-0.963-1.226c3.693-2.147,7.77-4.091,12.063-4.647c4.287-0.552,8.175,0.742,11.915,2.731
					c3.445,1.831,7.087,3.237,11.017,3.535c1.891,0.145,3.8,0.344,5.677,0.086c0.322-0.045,2.445-0.639,2.472-0.497
					c0.103,0.521,0.36,1.189,0.461,1.71c-2.252,0.442-4.608,0.688-6.91,0.688"/>
			</g>
			<g>
				<path fill="#020202" d="M349.002,354.785c-1.329-2.813-2.725-5.819-2.73-8.987c-0.007-3.252,1.521-6.26,3.114-9.012
					c0.363,0.209,0.661,0.437,1.022,0.645c0.105,0.062-1.203,2.588-1.37,2.961c-0.769,1.716-1.429,3.523-1.425,5.418
					c0.007,1.882,0.635,3.703,1.318,5.445c0.391,0.998,0.809,1.989,1.271,2.964c-0.107,0.224-1,0.47-1.242,0.585"/>
			</g>
		</g>
	</g>
	<g>
		<g>
			<path fill="#020202" d="M202.026,270.72c-1.22,0.353-1.17,2.826-1.17,2.826s-0.335-2.001-1.081-2.284
				c-0.52-0.191-0.993-0.524-1.53-0.644c-0.077,0.356,0.082-0.042,0.005,0.313c0.003-0.019,0.85,1.04,1.21,1.647
				c0.374,0.632,0.669,2.869,1.478,2.831c0.808-0.037,1.005-2.153,1.205-2.713c0.128-0.821,1.123-1.288,1.738-1.77
				c-0.528-0.396-0.933-0.988-1.476-0.259"/>
		</g>
	</g>
</g>
<g>
	<path fill="#ECAF8B" d="M238.609,233.444c0,0-7.437,2.705-15.101,5.183c-7.664,2.48-10.142,7.89-11.72,8.79
		c-1.577,0.901-2.253,5.859-3.155,8.113c-0.901,2.253-0.901,3.831-0.901,3.831s1.351,3.156,4.958-0.901
		c3.606-4.055,1.127-6.31,3.606-6.987c2.479-0.673,3.38-0.898,3.38-0.898s-5.634,6.532-8.339,11.943
		c-2.704,5.408,0.676,9.239,0.676,9.239s-0.225,2.029,0.902,3.831c1.127,1.803,1.127,1.803,1.127,1.803l8.563-8.339
		c0,0,2.929,0.452,5.635-1.352c2.704-1.805,2.029-1.352,5.634-1.579c3.605-0.224,5.183-0.449,7.437-3.154
		c2.253-2.705,4.958-6.762,4.958-6.762S246.046,243.135,238.609,233.444z"/>
	<g>
		<g>
			<path fill="#020202" d="M226.355,236.707c-4.206,1.365-8.199,2.816-11.317,6.146c-1.212,1.298-2.172,2.856-3.544,3.998
				c-0.899,0.751-1.878,1.477-2.946,1.976c-0.535,0.251,0.001,1.049,0.179,1.533c2.372-0.854,4.049-3.085,5.717-4.894
				c2.24-2.427,4.362-4.633,7.515-5.878c2.477-0.974,5.22-1.367,7.756-2.172c2.208-0.7,4.358-1.701,6.642-2.088
				c1.284-0.214,2.563-0.397,3.863-0.47c0.146-0.215,0-0.887-0.015-1.162c-4.768,0.258-9.209,1.943-13.711,3.432"/>
		</g>
	</g>
	<g>
		<g>
			<path fill="#020202" d="M209.472,248.381c0,3.377-0.931,5.408-1.864,8.646c-0.303,1.05-0.452,2.174-0.92,3.161
				c-0.193,0.408,0.606,0.564,0.937,0.754c0.872-1.477,1.347-3.285,1.756-4.924c0.734-2.929,1.389-5.585,1.389-8.611
				c-0.451,0-1.017,0.957-1.466,0.957"/>
		</g>
	</g>
	<g>
		<g>
			<path fill="#020202" d="M215.573,251.125c-1.328,0.739-1.372,2.388-1.815,3.675c-0.524,1.517-1.494,3.194-2.934,4.012
				c-1.028,0.582-2.201,0.702-3.301,0.333c-0.884-0.294-0.848,0.162-1.314,1.021c3.506,1.914,6.798-0.562,8.328-3.754
				c0.329-0.68,0.685-1.359,0.876-2.087c0.174-0.654,0.206-1.571,0.871-1.941c0.678-0.555,1.519-1.033,2.283-1.47
				c-0.235-0.393-0.408-1.243-0.879-0.972c-0.703,0.398-1.384,0.833-2.084,1.235"/>
		</g>
	</g>
	<g>
		<g>
			<path fill="#020202" d="M215.241,255.309c-2.132,3.147-4.334,6.312-5.442,9.987c-0.784,2.605-0.988,5.902,2.142,7.132
				c0.143-0.354,0.417-0.616,0.559-0.97c0.145-0.346-0.462-0.55-0.726-0.784c-0.725-0.65-1.178-1.144-1.169-2.095
				c0.023-2.717,1.279-5.578,2.563-7.892c1.421-2.566,3.224-4.938,4.853-7.377c1.13-1.691,2.453-3.468,2.861-5.515
				c-0.447-0.089-1.099-0.521-1.232-0.029c-0.152,0.551-0.32,1.098-0.594,1.597c-1.13,2.06-2.566,3.959-3.881,5.9"/>
		</g>
	</g>
	<g>
		<g>
			<path fill="#020202" d="M223.344,255.925c-2.34,2.792-4.884,5.478-6.868,8.537c-1.196,1.844-2.226,3.788-3.391,5.652
				c-0.413,0.658-0.859,1.293-1.268,1.952c-0.187,0.299,0.695,0.66,0.952,0.832c2.691-4.306,5.154-8.711,8.42-12.613
				c1.114-1.331,2.421-2.503,3.528-3.839c0.699-0.845,1.254-1.811,1.952-2.658c0.698-0.842,0.376-0.716-0.432-1.463
				c-0.988,1.193-1.963,2.354-2.951,3.544"/>
		</g>
	</g>
	<g>
		<g>
			<path fill="#020202" d="M227.042,262.469c-2.69,3.746-5.908,6.882-9.089,10.199c-1.535,1.604-3.141,3.192-4.391,5.041
				c1.269,0.848,1.06,0.919,1.932-0.157c1.543-1.901,3.24-3.661,4.964-5.396c2.398-2.413,4.749-4.831,6.788-7.565
				c0.797-1.068,1.443-2.291,2.374-3.254c0.26-0.267,0.999-0.573,0.822-0.9c-0.181-0.339-0.288-0.596-0.471-0.931
				c-1.269,0.686-2.06,1.857-2.877,2.999"/>
		</g>
	</g>
	<g>
		<g>
			<path fill="#020202" d="M215.052,278.549c0.147-0.27,0.276-0.6,0.425-0.871c0.333-0.611-0.213-0.521-0.682-0.94
				c-0.812-0.725-1.303-1.763-1.446-2.831c-0.091-0.683-0.015-1.396,0.126-2.073c0.074-0.363-0.921-0.421-1.239-0.506
				c-0.737,2.728,0.324,5.771,2.851,7.151"/>
		</g>
	</g>
	<g>
		<g>
			<path fill="#020202" d="M228.156,266.834c-1.207,0.923-2.204,1.46-3.648,1.794c-0.125,0.028-1.072,0.13-1.043,0.255
				c0.096,0.417,0.289,0.754,0.384,1.179c0.72-0.169,1.427-0.235,2.148-0.403c1.435-0.329,2.61-1.413,3.761-2.265
				c1.193-0.879,2.398-1.768,3.801-2.264c0.387-0.139,1.789-0.224,1.709-0.617c-0.076-0.372-0.16-0.817-0.235-1.191
				c-2.616,0.526-4.752,1.964-6.843,3.561"/>
		</g>
	</g>
	<g>
		<g>
			<path fill="#020202" d="M242.508,259.564c-1.169,2.186-2.077,4.833-4.736,5.426c-1.05,0.235-2.092,0.506-3.146,0.729
				c-0.983,0.208-1.969,0.499-2.984,0.499c-0.153,0.179-0.021,0.961-0.021,1.214c1.855,0,3.75-0.639,5.56-1.022
				c1.871-0.401,3.294-0.878,4.399-2.519c0.881-1.313,1.722-2.682,2.456-4.082c0.631-1.21,1.112-2.644,2.069-3.641
				c0.361-0.376,0.419-0.213,0.14-0.662c-0.165-0.26-0.271-0.526-0.434-0.786c-1.604,1.003-2.503,3.222-3.339,4.825"/>
		</g>
	</g>
	<g>
		<g>
			<path fill="#020202" d="M235.86,233.17c3.683,3.115,6.167,7.352,7.795,11.893c0.866,2.415,1.588,4.872,1.882,7.418
				c0.151,1.302,0.001,2.613,0.028,3.921c0.012,0.629,0.034,0.811,0.682,0.808c0.309,0,0.542,0.084,0.85,0.084
				c-0.015-9.491-2.993-18.876-10.393-25.134c-0.289,0.348-0.563,0.69-0.854,1.034"/>
		</g>
	</g>
</g>
<g>
	<path fill="#ECAF8B" d="M161.906,267.498c-4.257,0.444-3.154,2.479-9.465,5.636c-6.309,3.152-8.114,4.733-8.114,6.312
		c0,1.575,0,2.025,0,2.025s-2.028,1.126-1.353,5.636c0.676,4.507,1.58,4.957,1.129,6.986c-0.453,2.027-0.001,7.438,0.898,9.015
		c0.904,1.576,8.341,6.084,9.018,6.533c0.675,0.45,0.225-3.831-2.479-7.438c-2.706-3.605-5.863-7.209-5.863-7.209
		s2.48,3.604,7.438,6.309c4.96,2.706,7.215,4.284,7.215,4.284s1.575-2.479,0.899-4.059c-0.675-1.576-0.675-1.576-0.675-1.576
		s2.705,1.126,2.705,0s-1.577-6.309-2.478-7.662c-0.903-1.352-1.803-2.253-1.803-2.253s2.251-0.674,4.281-6.535
		c2.028-5.861,2.59-6.48,3.266-6.932c0.676-0.447,5.242-1.436,5.242-1.436S172.725,266.372,161.906,267.498z"/>
	<g>
		<g>
			<path fill="#020202" d="M159.202,267.84c3.149,0.001,7.006-0.109,9.675,1.83c1.045,0.76,1.684,1.877,2.055,3.111
				c0.237,0.791,0.528,1.575,0.55,2.397c0.156,0.145,0.893-0.015,1.129-0.021c-0.108-3.895-2.105-6.911-5.824-8.061
				c-1.565-0.483-3.233-0.63-4.862-0.707c-0.767-0.035-1.538,0.105-2.307,0.104c-0.697-0.004-0.405,0.526-0.407,1.134"/>
		</g>
	</g>
	<g>
		<g>
			<path fill="#020202" d="M156.291,275.805c-0.263,3.11-0.933,6.136-0.816,9.267c0.042,1.116,0.07,2.233,0.104,3.353
				c0,0.167-0.038,0.93,0.087,1.049c0.161,0.147,0.837,0.104,1.081,0.104c-0.029-1.161,0.054-2.293,0.023-3.451
				c-0.024-0.965,0.076-1.928,0.083-2.891c0.01-1.424,0.307-2.756,0.431-4.154c0.106-1.223,0.189-2.457,0.237-3.683
				c0.047-1.186-0.057-2.537,0.409-3.65c0.206-0.5,0.511-0.497,0.084-0.849c-0.235-0.199-0.537-0.271-0.774-0.467
				c-1.166,1.396-1.184,3.658-1.247,5.36"/>
		</g>
	</g>
	<g>
		<g>
			<path fill="#020202" d="M165.498,276.954c-3.192,2.067-2.509,5.651-3.607,8.828c-0.614,1.764-1.898,2.812-3.8,2.725
				c-1.088-0.053-2.15-0.392-3.175-0.748c-0.769-0.269-0.725,0.465-0.98,1.142c1.962,0.737,4.383,1.473,6.429,0.611
				c1.708-0.718,2.71-2.466,3.055-4.218c0.331-1.68,0.429-3.463,0.91-5.105c0.646-2.216,3.474-2.503,4.131-4.755
				c-0.414-0.12-0.907-0.333-1.322-0.456c0.264,0.075-1.498,1.773-1.691,1.898"/>
		</g>
	</g>
	<g>
		<g>
			<path fill="#020202" d="M158.129,290.609c2.309,0.98,3.797,3.31,4.439,5.656c0.317,1.171,0.488,2.387,0.313,3.594
				c-0.052,0.346-0.378,0.918,0.01,1.038c0.366,0.109,0.62,0.251,0.986,0.36c1.337-4.405-0.874-10.072-5.206-11.916
				c-0.176,0.418-0.348,0.81-0.523,1.226"/>
		</g>
	</g>
	<g>
		<g>
			<path fill="#020202" d="M154.367,278.905c-0.347,2.359-0.573,4.63,0.014,6.973c0.268-0.066,1.125-0.125,1.286-0.324
				c-0.29-1.159-0.356-2.344-0.305-3.533c0.063-1.507,0.294-3.01,0.504-4.504c-0.23-0.028-1.194-0.325-1.356-0.196
				c-0.197,0.149-0.197,1.3-0.234,1.571"/>
		</g>
	</g>
	<g>
		<g>
			<path fill="#020202" d="M146.208,283.777c2.944,8.073,9.862,13.317,16.447,18.393c0.374-0.482,0.944-0.741,0.393-1.165
				c-0.989-0.764-1.984-1.526-2.96-2.305c-2.063-1.646-3.934-3.509-5.773-5.404c-1.741-1.785-3.492-3.59-4.773-5.736
				c-0.653-1.097-1.258-2.24-1.739-3.426c-0.234-0.579-0.004-0.808-0.604-0.59c-0.292,0.105-0.611,0.099-0.9,0.201"/>
		</g>
	</g>
	<g>
		<g>
			<path fill="#020202" d="M144.21,290.927c0.893,4.304,3.765,7.528,7.277,9.977c1.869,1.305,3.965,2.261,5.907,3.458
				c1.083,0.666,2.102,1.447,3.128,2.202c0.618,0.453,0.749-0.209,1.157-0.751c-3.647-2.767-7.866-4.688-11.364-7.659
				c-1.504-1.277-2.98-2.673-3.856-4.455c-0.467-0.948-0.733-1.999-0.948-3.036c-0.208-0.112-1.104,0.22-1.357,0.269"/>
		</g>
	</g>
	<g>
		<g>
			<path fill="#020202" d="M159.606,301.005c1.22,0.685,1.563,2.177,1.238,3.477c-0.095,0.375-0.602,1.03-0.279,1.257
				c0.312,0.218,0.585,0.392,0.897,0.609c1.448-2.063,1.097-5.235-1.191-6.523c-0.222,0.394-0.423,0.776-0.644,1.166"/>
		</g>
	</g>
	<g>
		<g>
			<path fill="#020202" d="M145.245,296.285c1.55,3.934,5.887,5.752,7.731,9.514c0.501,1.021,0.845,2.266,0.384,3.358
				c-0.131,0.313-0.256,0.604-0.451,0.878c0.042,0.212,0.873,0.681,1.067,0.818c1.917-2.687,0.44-5.761-1.444-8.085
				c-1.352-1.666-3.192-2.856-4.588-4.48c-0.626-0.727-1.157-1.561-1.508-2.453c-0.233-0.076-0.906,0.339-1.15,0.433"/>
		</g>
	</g>
	<g>
		<g>
			<path fill="#020202" d="M153.216,310.871c0.37,0.311,0.776,0.57,1.146,0.878c0.085,0.071,0.912-0.984,1.029-1.125
				c-2.953-2.466-6.268-4.673-8.645-7.727c-1.245-1.602-2.23-3.597-2.394-5.661c-0.075-0.957,0.194-1.865,0.584-2.747
				c0.238-0.526,0.269-0.464-0.235-0.761c-0.265-0.156-0.46-0.422-0.726-0.579c-4.069,6.942,4.634,13.822,9.277,17.677"/>
		</g>
	</g>
	<g>
		<g>
			<path fill="#020202" d="M148.373,274.28c-1.304,0.581-2.662,1.359-3.555,2.537c-0.428,0.563-0.969,1.114-1.091,1.804
				c-0.08,0.453,0.031,0.946,0.018,1.409c-0.017,0.622,0.362,1.478-0.241,1.732c-2.492,1.051-1.632,3.776-0.943,5.79
				c0.395,1.154,0.619,2.396,0.787,3.615c0.078,0.577,1.145,0.321,1.687,0.313c-0.042-2.256-4.147-8.278-0.319-9.023
				c0.532-0.103,0.708,0.08,0.669-0.461c-0.057-0.728-0.307-1.448-0.278-2.181c0.037-1.017,0.264-2.032,1.073-2.716
				c1.625-1.368,4.141-1.777,6.022-2.748c3.205-1.647,6.006-3.974,8.776-6.268c-0.242-0.293-0.256-0.653-0.498-0.946
				c-0.274-0.33-1.41,1.152-1.741,1.407c-1.343,1.042-2.935,1.74-4.377,2.64c-1.919,1.194-3.884,2.259-5.95,3.177"/>
		</g>
	</g>
</g>
</svg>
