<?xml version="1.0" encoding="utf-8"?>
<!-- Generator: Adobe Illustrator 15.0.0, SVG Export Plug-In . SVG Version: 6.00 Build 0)  -->
<!DOCTYPE svg PUBLIC "-//W3C//DTD SVG 1.1//EN" "http://www.w3.org/Graphics/SVG/1.1/DTD/svg11.dtd">
<svg version="1.1" id="Layer_1" xmlns="http://www.w3.org/2000/svg" xmlns:xlink="http://www.w3.org/1999/xlink" x="0px" y="0px"
	 width="640px" height="360px" viewBox="0 0 640 360" enable-background="new 0 0 640 360" xml:space="preserve">
<path fill="#596462" d="M404.674,203.255c0,0,4.78,8.024,7.857,19.922c3.075,11.892,2.46,27.479-2.05,35.067
	c-4.518,7.588-73.218,4.514-73.218,4.514s9.435-26.867,26.457-29.533C365.391,232.963,404.674,203.255,404.674,203.255z"/>
<path fill="#0892C0" d="M210.659,163.978c-16.403,18.405-21.488,17.232-8.684,38.038c12.804,20.803,14.803,36.406,15.203,37.606
	c0.4,1.198,17.879,32.905,56.287,35.706c26.384,1.923,71.186-25.493,91.078-42.721c10.418-9.021,26.456-13.739,26.456-13.739
	l13.678-15.613c0,0-2.658-7.68-5.313-12.405c-0.585-1.037-8.413-3.266-8.563-4.428c-0.729-5.594-4.063-6.738-7.382-11.224
	c-13.56-18.299-33.813-19.194-54.612-32.396C307.998,129.601,292.396,128.8,274.392,132
	C256.385,135.201,210.659,163.978,210.659,163.978z"/>
<path fill="#0892C0" d="M225.98,156.673c-16.003,8.002-29.607,17.604-32.007,29.604c-2.4,12.004,0.15,26.131,9.304,46.804
	c8.916,20.131,8.859,23.632,8.859,29.229c0,5.604,15.947,12.998,15.947,12.998s1.098-31.818,1.497-39.82
	C229.979,227.488,225.98,156.673,225.98,156.673z"/>
<path fill="#ECAF8B" d="M288.136,149.689c3.999,2.8,16.403,11.202,14.804,29.206c-1.601,18.005-7.385,38.813-14.986,46.812
	c-12.78,13.455-21.063,1.959-28.917-0.421c-13.203-4.001-8.908-52.392-0.506-62.794C266.93,152.09,288.136,149.689,288.136,149.689z
	"/>
<g>
	<path fill="#020202" d="M207.484,139.929"/>
</g>
<g>
	<g>
		<path fill="#020202" d="M283.93,202.329c-1.455,0.562-2.906,1.139-4.429,1.489c-0.818,0.188-2.807,0.041-2.39,1.266
			c2.871-0.163,5.596-1.305,8.251-2.302c1.257-0.476,2.511-0.917,3.833-1.175c0.82-0.158,2.683,0.144,2.317-1.092
			c-2.65,0.045-5.16,0.813-7.602,1.758"/>
	</g>
</g>
<path fill="#0892C0" d="M362.15,162.797c0,0,15.354,18.604,30.121,38.684c14.768,20.082,19.487,31.896,20.377,41.348
	c0.886,9.445-0.89,15.058-0.89,15.058l-116.94,5.316l-0.591-22.146c0,0,0.295-0.889,13.879-1.773
	c13.583-0.885,10.105,5.412,19.966,2.857c9.856-2.562,10.153,0.688,17.536,0.098s11.52-2.361,13.879-2.361
	c2.363,0,4.021,0.506,3.933-0.634c-0.092-1.14-4.521-8.226-8.653-10.591c-4.137-2.358-11.225-6.197-12.699-17.125
	c-1.473-10.928-4.133-39.571-1.771-46.067C342.661,158.957,362.15,162.797,362.15,162.797z"/>
<path fill="#1083AA" d="M369.426,243.828c8.784-0.338,17.688-0.16,26.51-0.328c3.009-0.052,10.813-1.707,11.281,2.887
	c-7.896,3.596-18.806-1.107-26.999-1.51c1.788,1.563,4.825,2.895,4.894,5.568c-5.547,2.183-13.069-4.566-16.816-8.239"/>
<path fill="#1083AA" d="M343.316,218.691c-0.084,6.59,5.892,11.064,6.174,17.535c0.068,1.652-0.139,3.223-0.326,4.813
	c5.674,0.114,4.984-0.729,8.422-3.8c1.604-1.438,3.445-1.859,5.217-2.651c-4.166-2.649-8.416-4.489-12.195-7.807
	c-2.586-2.269-4.688-5.72-7.775-7.286"/>
<g>
	<g>
		<g>
			<path fill="#020202" d="M302.983,241.045c-1.565,0.253-3.079,0.729-4.653,0.9c-1.197,0.136-1.394-0.48-1.324,0.74
				c4.05-0.23,7.949,0.09,11.98-0.326c1.769-0.188,3.551-1.459,5.323-1.262c0.729,0.082,1.518,0.688,2.167,1.063
				c0.843,0.479,1.71,0.892,2.487,1.459c2.444,1.798,6.508,0.135,9.176-0.378c2.647-0.511,5.396-0.914,8.105-0.806
				c1.379,0.058,2.749,0.799,4.07,1.181c2.125,0.606,4.297,0.079,6.463-0.306c2.367-0.422,4.582-1.424,6.924-1.957
				c3.559-0.813,7.586-1.381,11.223-0.813c1.984,0.311,3.157,2.139,4.752,3.348c1.418,1.073,3.215,1.346,5.049,1.385
				c0.004-0.174,0.094-0.428-0.009-0.553c-0.812-0.02-1.866,0.172-2.594-0.193c-1.397-0.699-2.308-2.238-3.704-2.943
				c-3.109-1.572-6.939-2.21-10.309-1.811c-6.104,0.729-11.926,4.556-18.104,2.896c-5.481-1.469-10.728-0.229-16.146,0.563
				c-1.53,0.225-3.722,1.137-5.007,0.037c-1.386-1.188-1.938-2.875-3.84-3.164c-3.911-0.594-8.074,0.93-11.931,1.549"/>
		</g>
	</g>
	<g>
		<g>
			<path fill="#020202" d="M304.451,243.157c-1.424,0.13-2.83,0.464-4.255,0.563c-0.741,0.053-3.436-0.313-3.111,0.76
				c2.877-0.084,5.794-0.385,8.661-0.643c1.44-0.129,2.88-0.281,4.326-0.361c0.693-0.039,2.806,0.193,2.498-0.871
				c-2.701,0.047-5.433,0.268-8.122,0.513"/>
		</g>
	</g>
	<g>
		<g>
			<path fill="#020202" d="M303.593,244.966c-1.396,0.115-2.788,0.261-4.183,0.345c-0.683,0.045-2.694-0.401-2.372,0.651
				c2.627-0.08,5.247-0.139,7.866-0.353c1.474-0.118,2.939-0.373,4.417-0.438c0.698-0.028,2.838,0.364,2.546-0.712
				c-2.758,0.003-5.532,0.216-8.279,0.441"/>
		</g>
	</g>
	<g>
		<g>
			<path fill="#020202" d="M306.359,246.674c-2.814,0.273-5.679,0.553-8.475,0.979c-0.104,0.938,0.833,0.764,1.442,0.682
				c1.292-0.18,2.564-0.521,3.861-0.66c1.32-0.145,2.631-0.354,3.948-0.488c1.794-0.195,3.563-0.313,5.357-0.504
				c0.204-1.098-1.813-0.346-2.43-0.275c-1.231,0.133-2.458,0.293-3.689,0.425"/>
		</g>
	</g>
	<g>
		<g>
			<path fill="#020202" d="M306.323,249.296c-1.483,0.167-2.966,0.335-4.457,0.45c-0.762,0.061-3.485-0.422-3.196,0.646
				c2.802-0.015,5.581-0.179,8.362-0.494c1.285-0.146,2.556-0.418,3.845-0.521c0.707-0.054,2.894,0.37,2.584-0.696
				c-2.391,0.047-4.782,0.178-7.157,0.447"/>
		</g>
	</g>
	<g>
		<g>
			<path fill="#020202" d="M299.313,252.041c-0.048,0.176-0.003,0.535-0.004,0.725c4.677,0.019,9.49-0.336,14.047-1.423
				c0.039-1.011-1.203-0.606-1.815-0.485c-1.346,0.27-2.677,0.627-4.039,0.791c-2.714,0.326-5.452,0.479-8.186,0.474"/>
		</g>
	</g>
	<g>
		<g>
			<path fill="#020202" d="M299.487,254.137c-0.195,1.116,1.924,0.43,2.62,0.375c1.563-0.125,3.122-0.273,4.688-0.373
				c1.238-0.078,2.485-0.055,3.728-0.111c0.68-0.028,2.817,0.309,2.486-0.733c-4.507,0.146-9.021,0.437-13.514,0.815"/>
		</g>
	</g>
	<g>
		<g>
			<path fill="#020202" d="M299.323,257.195c-0.274,0.912,0.72,0.527,1.278,0.511c1.456-0.042,2.915,0.013,4.371-0.03
				c1.467-0.046,2.934-0.197,4.402-0.24c0.322-0.012,2.048,0.271,2.279,0.022c0.744-0.784-1.2-0.544-1.329-0.541
				c-1.456,0.044-2.91,0.121-4.366,0.161c-2.218,0.07-4.437,0.049-6.653,0.115"/>
		</g>
	</g>
	<g>
		<g>
			<path fill="#020202" d="M300.8,259.813c-0.772,0.017-1.602-0.109-2.373-0.101c-0.281,1.058,1.717,0.665,2.379,0.656
				c2.698-0.027,5.532,0.034,8.153-0.69c0-1.051-2.358-0.183-3.11-0.104c-1.676,0.164-3.366,0.179-5.047,0.195"/>
		</g>
	</g>
	<g>
		<g>
			<path fill="#020202" d="M296.972,262.234c-0.336,1.127,2.829,0.51,3.488,0.49c1.051-0.029,2.106,0.006,3.159-0.026
				c0.22-0.007,1.532,0.028,1.683-0.147c0.577-0.683-0.526-0.501-0.748-0.492c-0.929,0.024-1.863-0.078-2.792-0.053
				c-1.622,0.049-3.239,0.13-4.859,0.176"/>
		</g>
	</g>
</g>
<g>
	<g>
		<path fill="#020202" d="M358.979,159.426c8.897,10.03,17.785,20.179,25.494,31.118c9.264,13.142,19.407,26.933,24.942,42.202
			c2.014,5.554,2.854,11.354,3.449,17.229c0.192,1.928-0.416,4.512-0.451,6.45c-0.016,1.142-0.474,0.705,0.737,0.831
			c0.521-5.113,0.715-10.391-0.36-15.357c-1.438-6.638-3.698-12.604-6.828-18.631c-3.724-7.166-7.449-14.043-12.002-20.703
			c-5.485-8.023-12.2-16.162-17.854-24.065c-4.979-6.962-9.492-14.436-15.176-20.845c-0.225,0.2-0.93,0.878-1.156,1.077"/>
	</g>
</g>
<g>
	<g>
		<path fill="#020202" d="M340.844,215.454c3.752,5.913,9.479,10.735,14.91,15.043c2.273,1.804,4.973,3.22,7.047,5.252
			c0.332,0.323,0.826,0.872,0.873,1.373c0.057,0.565-0.938,1.071-1.176,1.556c-0.82,1.68,1.371,3.239,2.572,3.989
			c0.359-0.576,0.688-0.642,0.076-1.071c-0.643-0.449-2.049-1.386-1.728-2.359c0.421-1.254,1.603-1.719,0.56-3.149
			c-1.771-2.425-4.711-4.134-7.063-5.979c-3.086-2.42-6.122-4.928-8.925-7.672c-1.502-1.469-2.74-3.172-4.067-4.8
			c-0.563-0.694-1.467-1.137-1.973-1.876c-0.539-0.791-0.03-0.955-0.792-0.472"/>
	</g>
</g>
<g>
	<g>
		<path fill="#020202" d="M393.962,243.023c-1.991,0.17-3.985,0.276-5.981,0.377c-2.198,0.105-4.4-0.125-6.605-0.113
			c-1.264,0.003-2.521,0.127-3.775,0.025c-0.699-0.059-2.783-0.484-2.676,0.605c5.387,0.875,10.988-0.01,16.405-0.271
			c3.592-0.176,8.182-1.356,11.5,0.44c1.771,0.959,1.783,2.116-0.111,2.462c-1.979,0.365-4.052,0.081-6.05-0.055
			c-3.707-0.254-7.415-0.689-11.104-1.155c-0.355,0.935,0.998,0.771,1.604,0.851c1.609,0.203,3.239,0.261,4.854,0.447
			c3.396,0.396,6.966,0.902,10.379,0.396c0.765-0.116,1.725-0.106,2.223-0.774c0.854-1.149-0.565-2.702-1.521-3.153
			c-2.697-1.28-6.275-0.355-9.136-0.063"/>
	</g>
</g>
<g>
	<g>
		<path fill="#020202" d="M345.941,227.398c0.988-0.008-0.455-0.771-0.619-1.358c-0.27-0.96,0.107-2.097-0.139-3.062
			c-0.537-2.104-1.515-4.099-1.947-6.215c-0.859-4.19-1.555-8.439-2.03-12.69c-0.517-4.597-0.833-9.231-0.988-13.853
			c-0.081-2.406,0.234-9.757,0.248-11.016c0.009-0.699-0.019-2.913-1.12-2.643c-0.332,17.19,1.41,34.396,6.231,50.97"/>
	</g>
</g>
<g>
	<g>
		<path fill="#020202" d="M291.643,152.003c5.674,3.461,8.449,9.146,10.051,15.453c2.068,8.138,1.158,17.272-0.3,25.505
			c-1.559,8.807-4.333,18.362-8.552,26.256c-1.635,3.061-2.995,5.58-5.521,8.012c-2.388,2.301-5.601,3.904-8.868,4.196
			c-3.417,0.306-7.139-0.161-10.373-1.309c-1.525-0.54-2.836-1.741-4.28-2.47c-0.857-0.436-1.731-0.854-2.574-1.313
			c-0.532-0.29-0.602-1.735-0.823-0.851c7.26,4.037,15.644,7.746,23.724,3.519c2.939-1.538,6.763-5.886,11.265-17.89
			c3.121-8.325,5.68-17.664,6.301-26.557c0.553-7.912,0.887-15.075-2.39-22.389c-1.912-4.264-4.741-7.775-8.754-10.222
			c-0.096,0.158-0.384,0.483-0.434,0.66"/>
	</g>
</g>
<g>
	<g>
		<path fill="#020202" d="M198.829,176.742c-1.396,2.516-4.96,3.842-5.332,6.863c-0.387,3.135,0.359,6.345-0.001,9.521
			c-0.498,4.376-0.239,8.606,0.523,12.966c1.145,6.547,3.041,13.036,5.385,19.236c0.972,2.579,2.162,5.072,2.983,7.707
			c0.458,1.468,1.479,2.803,1.836,4.299c0.238,0.994,0.132,2.048,0.335,3.053c0.16,0.074,0.761-0.121,0.944-0.158
			c-2.688-13.256-10.656-25.291-11.478-38.973c-0.128-2.145,0.627-4.25,0.861-6.384c0.371-3.388-0.016-6.636-0.034-10.021
			c-0.019-3.49,2.824-5.08,4.382-7.886c0.467-0.838,0.613-1.914,1.292-2.6c0.571-0.576,1.376-0.935,2.013-1.436
			c0.686-0.537,0.519-0.271,0.062-0.875c-1.708,1.295-3.027,2.638-4.071,4.52"/>
	</g>
</g>
<g>
	<g>
		<path fill="#020202" d="M361.38,158.724c2.144,2.422,5.146,3.959,7.863,5.622c3.118,1.913,5.806,4.415,8.545,6.831
			c4.11,3.622,7.97,7.233,11.056,11.759c1.172,1.717,2.227,5.107,4.358,5.713c0.621,0.179,1.371-0.049,2.008-0.021
			c0.792,0.026,1.402,0.269,1.985,0.758c1.094,0.929,1.819,2.188,2.553,3.413c2.224,3.73,3.691,7.913,5.048,12.02
			c0.645-0.231,0.563,0.055,0.346-0.604c-0.271-0.842-0.473-1.709-0.75-2.549c-0.798-2.418-1.137-5.04-2.188-7.364
			c-1.063-2.338-3.395-5.968-6.063-6.802c-1.547-0.48-2.754,0.332-4.006-1.014c-0.973-1.049-1.537-2.435-2.343-3.608
			c-3.351-4.906-7.015-9.322-11.496-13.236c-2.944-2.576-6.049-4.994-9.421-6.998c-1.527-0.909-3.271-1.52-4.691-2.592
			c-0.752-0.567-1.506-1.17-2.131-1.876c-0.166,0.01-0.723,0.561-0.856,0.68"/>
	</g>
</g>
<g>
	<g>
		<path fill="#020202" d="M398.31,209.244c0.063,0.173,0.176,0.238,0.278,0.39c3.182-2.258,6.881-6.325,7.438-10.323
			c-0.874-0.396-0.771,1.117-1.035,1.732c-0.476,1.113-1.161,2.125-1.869,3.105c-1.349,1.875-2.965,3.686-4.857,5.026"/>
	</g>
</g>
<g>
	<g>
		<path fill="#020202" d="M404.005,204.611c0.5,2.347,2.201,4.184,3.33,6.229c0.495,0.897,1.019,1.856,1.063,2.897
			c0.044,1.063-0.323,1.019,0.719,1.214c0.457-2.437-0.938-4.558-2.213-6.491c-0.636-0.959-1.244-1.945-1.671-3.021
			c-0.401-1.012-0.146-1.045-1.184-0.822"/>
	</g>
</g>
<g>
	<g>
		<path fill="#020202" d="M402.488,211.549c2.034,1.25,4.167,2.448,5.87,4.145c0.88,0.877,1.657,1.875,2.065,3.062
			c0.237,0.695,0.313,1.437,0.332,2.167c0.02,0.573-0.282,1.162,0.536,1.003c0.252-2.987-1.1-5.397-3.322-7.313
			c-1.039-0.893-2.107-1.735-3.271-2.463c-0.524-0.328-1.938-1.656-2.223-0.631"/>
	</g>
</g>
<g>
	<g>
		<path fill="#020202" d="M408.561,217.898c3.096,3.754,4.53,8.508,4.998,13.271c0.243,2.475,0.271,4.965,0.19,7.448
			c-0.037,1.229-0.164,2.455-0.239,3.687c-0.063,1.069-0.061,1.045,0.938,1.106c0.598-8.782,0.877-18.996-5.058-26.201
			c-0.229,0.188-0.511,0.423-0.738,0.616"/>
	</g>
</g>
<g>
	<g>
		<path fill="#020202" d="M353.922,239.794c-1.164,0.906-2.313,1.835-3.511,2.7c-0.565,0.404-2.554,1.184-1.733,1.925
			c2.479-1.582,4.788-3.446,7.119-5.233c1.137-0.871,2.313-1.684,3.508-2.477c0.571-0.38,2.403-1.124,1.646-1.896
			c-2.508,1.396-4.789,3.203-7.051,4.957"/>
	</g>
</g>
<g id="Head">
	<path fill="#ECAF8B" d="M278.889,180.91c0.6,7.501,0.101,17.701-5.3,25.505c-5.401,7.8-3.9,5.801-7.202,10.299
		c-3.301,4.502-3.602,5.703-5.401,7.504c-1.799,1.802-4.3,4-4.3,4s-3.801,1.2-8.301,1.501c-4.502,0.301-11.902-5-11.902-5
		s-3.502-5.1-10.404-9.9c-6.902-4.803-12.603-10.803-15.003-24.604c-2.4-13.803-2.4-13.803-2.4-13.803s-4.802-5.701-4.802-8.703
		c0-3,3-6,6.3-6c3.301,0,74.115,1.8,74.115,1.8s3.601,0.6,0.6,7.202C281.89,177.311,278.889,180.91,278.889,180.91z"/>
	<path fill="#5E4732" d="M249.783,122.399c5.701-5.102,10.201-8.702,18.603-6.002c8.401,2.701,21.604,11.404,29.706,11.404
		c8.102,0,17.404-5.402,17.404-5.402s0.6,1.2,0,2.701c-0.6,1.5-0.6,1.5-0.6,1.5s4.801-3.901,11.402-4.801
		c6.601-0.9,8.701,3.301,8.701,3.301s-4.801,0-7.501,3.299c-2.701,3.301-5.102,4.5-5.102,4.5s3-0.6,5.102,2.701
		c2.102,3.3,2.102,11.402,2.102,11.402s-2.397-9.302-13.501-10.803c-11.101-1.5-13.201,1.8-13.201,1.8s-1.5,4.801-5.701,7.802
		c-4.2,3.001-8.401,4.5-16.503,4.801C272.587,150.905,249.783,122.399,249.783,122.399z"/>
	<path fill="#513D2A" d="M274.988,130.801c-6.468-5.822-15.603-13.203-32.408-12.902c-16.802,0.3-32.706,10.502-35.107,22.204
		c-2.4,11.703-1.2,18.003-1.2,18.003s-0.3,9.903,1.2,15.003c1.5,5.101,7.201,8.702,7.201,8.702l1.5,3.002l3.301-6.303
		c0,0,0,9.602,9.002,16.805c9.002,7.201,15.603,7.804,15.603,7.804s-6.001-5.104-4.802-12.306c0,0,4.502,3.9,10.203,4.806
		c5.701,0.896,7.801,0.896,7.801,0.896l-4.801-12.902c0,0,5.402,2.701,7.802,2.701c2.401,0,4.802-1.801,4.201-3
		c-0.601-1.201-0.601-1.201-0.601-1.201s4.802,2.4,7.802,2.4s4.801-2.4,4.801-2.4l2.401,0.604c0,0,1.2-6.601,2.4-11.403
		c1.201-4.801,3.901-6.602,3.901-6.602S289.99,144.304,274.988,130.801z"/>
	<path fill="#977052" d="M266.286,202.216c0-1.2-1.5-3.002-8.702,0.302c-7.201,3.299-8.701,4.5-8.701,4.5s4.801-1.5,10.502-3.002
		C265.086,202.518,266.286,202.216,266.286,202.216z"/>
	<path fill="#977052" d="M232.079,206.115c0,0-3.299-2.398-8.401-3.899c-5.102-1.501-6.601-2.399-6.601-2.399s0.3,5.104,6.601,6
		C229.979,206.716,232.079,206.115,232.079,206.115z"/>
	<path fill="#513D2A" d="M281.032,141.622c5.795,3.39,7.709-0.286,13.125-1.46c-0.145,1.901-1.348,3.737-2.971,4.896
		c3.397-0.355,7.06-2.602,9.7-4.499c-0.544,5.918-10.893,9.917-15.96,10.018c-0.657-2.18-0.574-4.426-1.325-6.603"/>
	<path fill="#5E4732" d="M205.945,149.535c-0.409,7.071,3.292,14.729,8.757,19.145c0.552-1.685,0.478-3.706,0.431-5.662
		c5.19,8.332,10.307,16.637,19.397,21.119c-2.297-4.882-3.597-9.433-4.648-14.404c0.603,1.524,3.871,4.28,4.734,5.403
		c1.531-2.862,1.627-2.657,3.036-5.576c11.86,10.095,23.173-2.32,29.043-12.415c3.768,3.037,8.191,2.345,8.347,7.641
		c1.697-2.424,3.954-4.282,6.417-5.886c1.529,2.185,3.893,3.214,5.321,0.677c0.334,1.813-0.1,3.355-1.438,4.427
		c-0.023-3.521,1.021-6.797,0.824-10.191c-0.298-5.147-2.244-11.123-5.656-16.743c-6.472-10.66-21.307-17.495-33.056-19.799
		c-10.444-2.047-25.902,4.112-33.563,11.309c-5.17,4.858-6.406,13.614-7.578,20.333c-0.072,0.346-0.124,0.696-0.156,1.048"/>
	<g>
		<g>
			<path fill="#020202" d="M248.687,217.511c3.311,2.134-4.236,8.185-6.349,8.599c-2.387,0.472-4.492-1.252-5.578-3.178
				c-0.652-1.156-1.002-2.472-1.131-3.793c-0.078-0.789,0.344-2.183-0.832-2.029c-0.651,4.275,3.125,11.729,8.443,9.539
				c2.341-0.967,9.878-7.028,5.792-9.657c-0.122,0.188-0.211,0.245-0.278,0.463"/>
		</g>
	</g>
	<g>
		<g>
			<path fill="#020202" d="M278.03,187.677c0.458,4.243-0.804,8.485-1.924,12.63c-1.087,4.023-2.712,6.938-5.437,10.01
				c-1.289,1.453-5.945,7.597-6.839,9.379c-0.91,1.813-5.345,7.324-7.145,8.775c-0.137,0.108,0.503,0.295,0.646,0.188
				c2.254-1.642,4.214-5.026,5.655-6.589c1.869-2.029,2.513-3.9,3.792-5.579c1.253-1.646,2.913-2.978,4.296-4.515
				c2.876-3.199,4.596-6.517,5.863-10.697c1.345-4.447,2.156-9.073,1.663-13.662C278.302,187.648,278.329,187.646,278.03,187.677"/>
		</g>
	</g>
	<g>
		<g>
			<path fill="#020202" d="M209.077,181.622c0.729,3.125,1.189,6.315,1.941,9.435c1.123,4.658,2.301,9.764,4.878,13.868
				c2.826,4.503,7.114,8.734,11.448,11.808c1.879,1.332,4.051,2.47,5.64,4.17c0.429,0.459,0.651,1.054,0.898,1.625
				c0.338,0.789,0.044,0.699,0.856,0.408c-1.333-3.729-4.699-5.472-7.649-7.729c-2.143-1.645-4.352-3.217-6.126-5.251
				c-1.681-1.931-3.546-3.938-4.792-6.188c-3.711-6.699-4.969-14.858-6.694-22.246c-0.291,0.074-0.27-0.065-0.562,0.008"/>
		</g>
	</g>
	<g>
		<g>
			<path fill="#020202" d="M261.436,205.789c-1.486,1.936-3.109,3.174-5.566,3.627c-1.113,0.205-2.224,0.341-3.347,0.2
				c-0.954-0.12-2.162-0.623-3.104-0.354c-0.015,0.904,2.247,0.997,3.033,1.094c1.775,0.224,3.666,0.016,5.348-0.604
				c1.43-0.522,2.688-1.457,3.659-2.62c0.438-0.521,0.818-1.09,1.267-1.604c0.399-0.451,1.125-0.748,0.629-1.41
				c-0.794,0.285-1.4,1.055-1.893,1.695"/>
		</g>
	</g>
	<g>
		<g>
			<path fill="#020202" d="M219.42,204.34c0.582,0.192,0.994,1.67,1.411,2.131c1.031,1.135,2.493,2.055,3.976,2.489
				c0.782,0.229,6.153,0.128,5.238-1.208c-1.793,0.619-3.564,1.239-5.444,0.539c-1.267-0.475-2.431-1.423-3.313-2.441
				c-0.519-0.599-0.922-1.713-1.707-1.974c-0.059,0.176-0.198,0.382-0.208,0.567"/>
		</g>
	</g>
	<g>
		<g>
			<path fill="#020202" d="M252.383,206.018c-1.823,0.688-3.498,0.934-5.233,1.824c0.177,1.126,2.507-0.266,3.099-0.509
				c2.146-0.883,4.281-1.769,6.502-2.442c2.017-0.613,4.027-1.271,6.069-1.806c0.688-0.181,3.547-0.192,3.123-1.146
				c-1.942,0.242-3.581,0.65-5.458,1.178C257.969,203.816,254.83,205.1,252.383,206.018"/>
		</g>
	</g>
	<g>
		<g>
			<path fill="#020202" d="M253.11,204.354c-1.011,0.541-1.971,1.174-3.005,1.668c-0.587,0.279-2.176,0.396-1.577,1.229
				c3.374-1.196,6.334-3.272,9.606-4.711c1.621-0.713,3.398-1.269,5.177-1.401c0.772-0.06,1.514,0.217,2.262,0.424
				c0.537,0.15,1.093,0.291,1.225-0.5c-4.363-2.076-9.916,1.338-13.663,3.338"/>
		</g>
	</g>
	<g>
		<g>
			<path fill="#020202" d="M215.477,199.68c6.327,2.043,11.814,6.079,18.525,7.053c0.252-0.573,0.025-0.387-0.507-0.479
				c-0.973-0.172-1.936-0.438-2.879-0.727c-1.761-0.537-3.375-1.469-5.054-2.219c-3.26-1.457-6.505-3.063-9.91-4.156
				c-0.058,0.176-0.226,0.461-0.232,0.646"/>
		</g>
	</g>
	<g>
		<g>
			<path fill="#020202" d="M217.928,202.443c3.34,3.426,9.645,4.242,14.189,4.25c0.285-0.987-1.988-0.877-2.684-0.943
				c-1.779-0.174-3.573-0.368-5.3-0.836c-1.718-0.462-3.513-1.063-4.95-2.135c-0.716-0.535-1.373-1.244-1.765-2.057
				c-0.32-0.66-0.037-2.261-0.974-2.019c-0.034,1.392,0.647,2.628,1.606,3.61"/>
		</g>
	</g>
	<g>
		<g>
			<path fill="#020202" d="M234.186,207.141c-0.25,0.892,0.755,0.58,1.337,0.846c0.851,0.395,1.354,1.229,1.694,2.078
				c0.366,0.912,0.517,1.896,0.507,2.871c-0.006,0.61-0.385,1.571,0.542,1.479c0.52-2.851-0.453-7.271-4.078-7.25"/>
		</g>
	</g>
	<g>
		<g>
			<path fill="#020202" d="M283.518,163.993c-0.719,0.162-1.442,0.773-1.805,1.417c0.958,0.543,0.588,0.095,1.498-0.404
				c0.898-0.494,2.08,0.135,2.309,1.167c0.305,1.374-0.579,3.376-1.066,4.684c-0.817,2.193-2.085,4.198-3.367,6.153
				c-0.645,0.981-1.089,2.132-1.88,3.001c-0.679,0.748-0.732,0.653-0.064,1.34c2.713-2.635,4.694-6.313,6.057-9.813
				c0.489-1.251,0.79-2.686,1.095-3.995c0.435-1.86-0.585-4.089-2.788-3.596"/>
		</g>
	</g>
	<g>
		<g>
			<path fill="#020202" d="M220.328,180.742c0.239,12.775,13.703,20.181,24.8,22.143c0.578-1.187-1.808-0.941-2.618-1.144
				c-1.676-0.418-3.268-1.147-4.877-1.774c-3.05-1.189-5.904-2.82-8.496-4.828c-2.445-1.896-4.51-4.193-5.982-6.933
				c-0.753-1.401-1.317-2.843-1.648-4.397c-0.155-0.729-0.419-1.428-0.475-2.166c-0.047-0.66-0.091-1.167-0.947-0.901"/>
		</g>
	</g>
	<g>
		<g>
			<path fill="#020202" d="M238.831,191.264c5.127,2.86,13.043,6.064,19.018,5.664c-0.457-1.568-2.131-5.732-3.278-6.933
				c-0.557,0.295-0.458,0.407-0.136,0.817c0.647,0.828,2.156,4.685,2.497,5.672c-3.108,0.113-6.179-0.762-9.072-1.871
				c-1.4-0.537-5.409-2.204-6.742-2.893c-0.703-0.363-2.033-1.664-2.334-0.406"/>
		</g>
	</g>
	<g>
		<g>
			<path fill="#020202" d="M262.654,181.797c0.385,1.046,0.752,2.975-0.385,3.78c-0.756,0.534-1.893,0.621-2.765,0.53
				c-1.554-0.164-2.999-0.967-4.464-1.488c-0.956-0.338-1.897-0.688-2.828-1.096c-0.586-0.256-0.824-0.225-0.937,0.504
				c3.01,1.355,14.374,5.918,12.226-1.615c3.93,1.484,7.832,2.963,12.074,2.099c0.09-1.291-1.789-0.577-2.626-0.547
				c-1.48,0.05-2.905-0.465-4.337-0.831c-2.193-0.56-4.314-1.363-6.427-2.165c0.094,0.257,0.146,0.657,0.24,0.915"/>
		</g>
	</g>
	<g>
		<g>
			<path fill="#020202" d="M279.759,176.232c-0.723,1.737-1.312,3.655-0.957,5.571c-2.015-0.316-3.99-1.066-5.831-1.945
				c-1.032-0.492-2.1-0.924-3.078-1.514c-0.715-0.432-0.51-0.292-0.893,0.326c3.451,2.137,6.975,3.782,11.031,4.249
				c-0.833-2.354-0.088-4.383,0.833-6.596c-0.276-0.116-0.611-0.164-0.888-0.279c-0.042,0.103-0.059,0.136-0.101,0.239"/>
		</g>
	</g>
	<g>
		<g>
			<path fill="#020202" d="M227.015,120.067c-13.697,5.155-24.542,20.299-21.945,35.233c0.323-0.057,1.983-0.173,1.923-0.546
				c-0.07-0.436-0.286-0.814-0.325-1.251c-0.096-1.099-0.525-2.166-0.478-3.267c0.111-2.575,0.594-5.117,1.294-7.595
				c1.725-6.118,5.467-11.283,10.313-15.426c13.382-11.444,32.802-11.181,47.438-2.865c1.942,1.104,4.312,2.967,6.067,4.35
				c0.835,0.658,1.556,0.929,2.335,1.65c0.832,0.773,0.787,1.513,1.59,0.709C263.029,118.86,243.179,113.983,227.015,120.067"/>
		</g>
	</g>
	<g>
		<g>
			<path fill="#020202" d="M216.408,185.1c0.169,0.414,0.199,0.873,0.367,1.289c0.171-1.063,0.331-2.115,0.672-3.143
				c0.266-0.803,0.592-1.598,1.042-2.313c0.354-0.563,0.799-0.978-0.034-1.355c-0.975,1.132-1.598,2.79-1.987,4.217
				c-0.85-2.263-1.593-4.747-1.593-7.184c0-1.077,0.216-2.168,0.548-3.194c0.235-0.73,1.266-1.516,0.137-1.775
				c-2.346,4.283-1.001,9.284,0.714,13.51"/>
		</g>
	</g>
	<g>
		<g>
			<path fill="#020202" d="M208.924,176.779c1.333,2.462,3.209,4.745,5.981,5.448c0.619-1.053-1.145-1.379-1.865-1.808
				c-1.253-0.745-2.244-1.788-3.036-3.003c-1.571-2.412-2.199-5.277-2.609-8.099c-0.417-2.869-0.415-5.74-0.135-8.624
				c0.124-1.262-0.211-2.602,0.066-3.84c0.172-0.773,1.347-2.17,0.125-2.232c-2.296,6.727-2.146,15.957,1.272,22.267"/>
		</g>
	</g>
	<g>
		<g>
			<path fill="#020202" d="M205.83,172.754c0.491,0.972,0.859,2.009,1.209,3.042c0.313,0.919,0.146,0.811,1.078,0.646
				c-0.5-2.819-2.381-5.179-3.222-7.898c-0.331-1.072-0.559-2.295-0.048-3.345c0.262-0.535,0.725-0.936,1.214-1.27
				c0.015-0.163-0.371-0.523-0.47-0.667c-3.489,2.379-1.346,6.666,0.111,9.559"/>
		</g>
	</g>
	<g>
		<g>
			<path fill="#020202" d="M239.102,197.277c0.746,2.635,2.794,4.645,4.776,6.421c0.424-0.472,0.825-0.583,0.295-1.066
				c-0.746-0.679-1.542-1.315-2.194-2.085c-0.654-0.775-1.242-1.629-1.647-2.561c-0.422-0.967-0.232-1.004-1.213-0.729"/>
		</g>
	</g>
	<g>
		<g>
			<path fill="#020202" d="M254.518,118c0.154,0.221,0.016,0.271,0.168,0.492c0.071,0.103,1.529-0.84,1.77-0.956
				c1.379-0.661,2.836-1.55,4.356-1.692c3.26-0.307,6.548,1.098,9.634,2.109c5.577,1.832,10.21,4.698,15.545,7.045
				c9.223,4.059,24.426,6.309,31.106-3.199c-0.22-0.155-0.999-0.191-1.219-0.347c-0.117-0.082-1.086,0.338-1.251,0.519
				c-0.881,0.976-1.64,1.964-2.764,2.644c-2.309,1.398-4.909,1.732-7.578,2.028c-5.457,0.608-9.994,0.313-15.093-1.646
				c-5.111-1.963-10.937-4.822-16.046-6.825c-5.934-2.324-13.364-4.647-19.022-0.727"/>
		</g>
	</g>
	<g>
		<g>
			<path fill="#020202" d="M316.105,125.591c0.376-0.705,0.542-1.563,0.818-2.313c-0.253-0.094-0.385-0.219-0.639-0.312
				c-0.135-0.049-0.65,1.433-0.756,1.647c-0.617,1.238-1.638,2.206-2.394,3.339c0.704,0.617,0.573,0.598,1.25-0.089
				c0.958-0.973,2.181-1.671,3.326-2.412c2.331-1.509,4.955-2.668,7.694-3.183c2.479-0.466,4.875-0.117,6.912,1.458
				c1.194,0.926,2.537,1.646,3.701,2.613c0.176-0.234,0.688-0.576,0.424-0.8c-0.502-0.417-1.24-0.554-1.744-0.972
				c-1.346-1.116-2.479-2.451-4.18-3.004c-4.894-1.59-10.542,1.151-14.418,4.016"/>
		</g>
	</g>
	<g>
		<g>
			<path fill="#020202" d="M326.246,128.796c-1.254,1.137-2.689,2.05-4.128,2.952c-0.804,0.501-1.61,0.99-2.49,1.336
				c-0.048,0.166,0.299,0.76,0.366,0.931c3.688-1.453,6.169-4.326,9.264-6.625c1.292-0.961,2.625-1.899,4.221-2.17
				c0.961-0.162,1.974-0.193,2.94-0.111c1.116,0.096,1.063,0.498,1.229-0.552c-4.771-0.752-8.125,0.985-11.543,4.086"/>
		</g>
	</g>
	<g>
		<g>
			<path fill="#020202" d="M310.198,130.2c0.005,0.163-0.068,0.501,0.035,0.607c0.744-0.019,1.468,0.118,2.211,0.126
				c1.389,0.016,2.754,0.307,4.131,0.471c2.418,0.289,4.967,0.498,7.108,1.689c2.09,1.161,3.572,3.125,4.764,5.193
				c0.697,1.215,1.295,2.473,1.701,3.813c0.229,0.766,0.375,1.563,0.537,2.346c0.127,0.077,0.986-0.208,1.146-0.241
				c-1.021-4.964-3.728-9.465-8.373-11.845c-4.07-2.085-8.786-2.252-13.266-2.141"/>
		</g>
	</g>
	<g>
		<g>
			<path fill="#020202" d="M301.982,138.168c-0.892,0.629-1.78,1.276-2.712,1.844c-0.981,0.598-1.166,0.385-0.646,1.335
				c3.058-1.676,5.644-4.528,9.058-5.496c3.13-0.888,6.705-0.132,9.815,0.619c3.04,0.733,6.06,1.948,8.513,3.941
				c1.04,0.847,2.2,1.678,2.797,2.888c0.317,0.643,0.354,1.409,0.463,2.117c0.086,0.572,0.278,0.323,0.809,0.269
				c-0.581-5.641-6.479-8.312-11.31-9.643c-2.645-0.73-5.405-1.421-8.158-1.35c-3.355,0.085-6.16,1.296-8.83,3.181"/>
		</g>
	</g>
	<g>
		<g>
			<path fill="#020202" d="M280.319,139.465c2.14,4.342,4.241,8.841,5.205,13.618c0.439,2.175,0.384,4.417,0.251,6.636
				c-0.072,1.174-0.22,2.327-0.453,3.479c-0.23,1.143-0.406,1.158,0.659,1.424c2.272-9.091-1.072-17.396-5.045-25.458
				c-0.269,0.132-0.492,0.238-0.761,0.372"/>
		</g>
	</g>
	<g>
		<g>
			<path fill="#020202" d="M287.959,148.705c0.029,0.299,0.056,0.583,0.084,0.882c8.752-0.843,15.217-6.864,15.418-15.851
				c-0.945-0.021-0.873-0.105-0.937,0.894c-0.076,1.147-0.179,2.313-0.474,3.423c-0.504,1.9-1.402,3.724-2.646,5.249
				c-2.79,3.421-7.167,4.892-11.455,5.305"/>
		</g>
	</g>
	<g>
		<g>
			<path fill="#020202" d="M243.667,227.35c-0.164,0.082-0.275,0.252-0.411,0.381c4.086,4.381,11.745,2.293,16.05-0.604
				c-0.309-0.971-2.276,0.492-2.953,0.799c-1.368,0.619-2.787,1.146-4.266,1.416c-2.914,0.532-6.28,0.292-8.414-1.998"/>
		</g>
	</g>
	<g>
		<g>
			<path fill="#020202" d="M252.055,223.787c-1.58,0.748-3.177,1.439-4.86,1.925c-0.923,0.267-1.834,0.663-2.792,0.713
				c-0.608,0.033-1.396-0.479-1.206,0.412c2.496,0.138,4.839-0.578,7.098-1.569c1.268-0.558,2.553-1.074,3.814-1.642
				c0.654-0.293,2.78-0.64,2.171-1.554c-1.446,0.492-2.827,1.103-4.206,1.755"/>
		</g>
	</g>
	<g>
		<g>
			<path fill="#020202" d="M243.012,227.402c-0.133,0.125-0.178,0.299-0.273,0.459c4.609,2.712,9.594-0.145,12.784-3.692
				c-0.579-0.896-1.892,1.106-2.481,1.584c-1.036,0.837-2.161,1.558-3.413,2.022c-2.184,0.812-4.507,0.68-6.536-0.518"/>
		</g>
	</g>
</g>
<path fill="#1083AA" d="M211.376,216.816c1.021,5.851,13.118,31.129,19.451,26.951C228.954,231.368,216.543,227.79,211.376,216.816"
	/>
<g>
	<g>
		<path fill="#020202" d="M209.068,212.784c3.728,5.916,7.996,11.476,12.197,17.063c1.146,1.521,2.413,2.938,3.606,4.426
			c1.054,1.313,2.049,2.675,3.039,4.041c0.579,0.799,1.144,1.608,1.628,2.472c0.286,0.504,0.302,0.675,0.793,0.213
			c-2.476-4.729-6.395-8.845-9.583-13.131c-2.162-2.903-4.529-5.666-6.58-8.649c-0.974-1.414-1.932-2.852-2.87-4.292
			c-0.46-0.704-1.26-3.223-2.17-2.206"/>
	</g>
</g>
<g>
	<g>
		<path fill="#020202" d="M209.652,224.576c4.977,4.313,11.177,7.102,17.23,9.554c0.572-0.76-0.368-0.899-0.939-1.138
			c-0.965-0.4-1.948-0.754-2.902-1.188c-1.895-0.857-3.736-1.813-5.554-2.824c-1.579-0.875-3.197-1.689-4.671-2.73
			c-0.605-0.43-1.236-0.827-1.814-1.289c-0.461-0.367-0.937-1.252-1.324-0.415"/>
	</g>
</g>
<g>
	<path fill="#ECAF8B" d="M295.287,243.486c-1.655-1.387-4.336-1.129-7.245-2.479c-2.91-1.347-5.85-3.771-7.641-3.719
		c-1.79,0.053-7.807,2.741-12.233,4.667c-4.425,1.922-5.473,2.852-5.604,4.469c-0.131,1.616,0.965,2.303,0.965,2.303
		s-0.399-0.578-0.638,2.707c-0.323,4.443,14.329,3.81,15.94,3.76c1.613-0.051-7.939,0.283-10.362,3.227
		c-2.424,2.939,2.195,4.938,2.195,4.938s3.169-0.524,5.558-0.432c0,0-5.764,0.706-4.871,3.178c0.35,0.967,0.236,3.119,1.715,3.021
		c8.234-0.555,15.583-0.24,16.698-0.195c2.514,0.106,8.181-8.309,8.033-13.326C297.649,250.588,295.287,243.486,295.287,243.486z"/>
	<g>
		<path fill="#F3D7C3" d="M267.779,246.986c1.046-3.729-5.723-3.729-4.411,1.539c1.27-0.144,2.66-0.164,3.905-0.444"/>
		<path fill="#F3D7C3" d="M268.971,250.896c-1.458-1.832-3.86-1.789-5.93-1.229c-0.842,4.406,5.237,4.331,5.382,0.888"/>
		<g>
			<g>
				<path fill="#020202" d="M276.479,238.048c-2.538,1.114-5.064,2.134-7.691,3.007c-2.257,0.742-6.808,1.799-6.426,5.039
					c0.751-0.088,0.838,0.15,0.947-0.555c0.121-0.782,0.605-1.286,1.251-1.666c1.789-1.055,3.924-1.432,5.882-2.09
					c2.431-0.821,4.661-2.141,7.012-3.166c1.353-0.592,2.801-1.02,4.229-1.408c0.954-0.261,0.918-0.129,0.959-1.145
					c-2.021-0.084-4.258,1.479-6.039,2.263"/>
			</g>
		</g>
		<g>
			<g>
				<path fill="#020202" d="M271.65,246.801c-2.484,0.139-6.712-0.294-8.354,1.971c0.43,0.563,0.425,0.021,0.832-0.269
					c0.554-0.392,1.348-0.358,2.005-0.491c1.391-0.277,2.782-0.551,4.193-0.63c3.762-0.21,7.563,0.589,11.299,0.245
					c0.111-0.617-0.088-0.587-0.624-0.559c-0.991,0.05-1.995,0.173-2.983,0.111c-2.118-0.133-4.243-0.529-6.362-0.296"/>
			</g>
		</g>
		<g>
			<g>
				<path fill="#020202" d="M262.306,252.771c0.989,1.854,3.361,2.203,5.24,2.17c2.099-0.035,4.188,0.057,6.28,0.228
					c2.015,0.167,4.029,0.335,6.028,0.646c0.791,0.123,1.608,0.125,2.388,0.307c0.536,0.118,1.075,0.477,1.102-0.328
					c-3.875-1.256-8.414-1.539-12.448-1.716c-2.172-0.101-4.924,0.53-6.852-0.687c-0.947-0.598-1.427-1.48-1.289-2.604
					c0.101-0.831,1.426-2.385,0.495-2.727c-0.953,1.334-1.517,3.006-0.68,4.568"/>
			</g>
		</g>
		<g>
			<g>
				<path fill="#020202" d="M267.921,262.104c0.953,1.586,2.782,1.668,4.193,1.451c1.578-0.244,3.164-0.367,4.759-0.423
					c1.539-0.051,3.076-0.101,4.615-0.019c0.609,0.033,1.227-0.043,1.835,0.039c0.417,0.057,0.864,0.324,0.793-0.408
					c-3.061-0.758-6.513-0.557-9.574-0.314c-1.649,0.127-3.652,0.979-5.241,0.063c-0.781-0.45-1.242-1.207-1.265-2.238
					c-0.016-0.767,0.81-2.312,0.068-2.528c-0.569,1.312-0.806,2.885,0,4.229"/>
			</g>
		</g>
		<g>
			<g>
				<path fill="#020202" d="M267.909,258.546c0.686,0.966,0.875-0.7,1.583-1.129c1.124-0.676,2.694-0.646,3.957-0.89
					c1.499-0.289,3.023-0.528,4.543-0.56c0.908-0.016,3.603,0.759,3.323-0.682c-3.953-0.288-13.335-0.455-13.574,3.155"/>
			</g>
		</g>
		<g>
			<g>
				<path fill="#020202" d="M271.157,268.079c0.922,1.369,2.983,1.448,4.256,1.448c1.944,0,5.883-0.021,7.258-0.021
					c0.543-0.002,1.993-0.844,2.536-0.798c0.373,0.028,1.273-0.543,0.618-0.521c-3.235,0.117-4.864,0.133-7.82,0.234
					c-1.472,0.055-4.492,0-4.946-0.174c-0.75-0.286-1.226-0.489-1.296-1.4c-0.05-0.685,0.6-2.149-0.348-2.246
					c-1.266-0.125-1.311,2.113-0.213,3.563"/>
			</g>
		</g>
		<g>
			<g>
				<path fill="#020202" d="M271.285,265.193c0.655,0.688,0.719-0.545,1.329-0.899c0.971-0.56,1.902-1.024,3.463-1.22
					c1.34-0.168,2.714-0.191,4.065-0.282c0.808-0.054-0.058,0.624-0.368-0.44c-3.534-0.033-9.696,0.527-8.643,2.777"/>
			</g>
		</g>
		<g>
			<g>
				<path fill="#020202" d="M275.797,237.598c0.044,0.161,0.133,0.912,0.262,0.998c0.948-0.261,1.909-0.469,2.891-0.517
					c1.787-0.083,3.516,0.291,5.149,1.019c1.611,0.719,3.191,1.562,4.542,2.688c0.841,0.698,1.655,1.45,2.438,2.22
					c0.583,0.571,0.44,0.383,0.945-0.126c-4.426-4.417-9.647-7.911-16.182-6.116"/>
			</g>
		</g>
		<g>
			<g>
				<path fill="#020202" d="M286.381,240.908c2.674,1.088,5.492,2.488,8.447,2.393c0.207-0.848-0.509-0.535-1.101-0.603
					c-1.16-0.132-2.268-0.541-3.359-0.943c-1.258-0.466-2.508-0.957-3.751-1.46c-0.066,0.171-0.238,0.396-0.253,0.574"/>
			</g>
		</g>
		<g>
			<g>
				<path fill="#020202" d="M293.262,242.087c2.76,2.565,3.698,7.142,3.969,10.722c0.157,2.072,0.045,4.219-0.371,6.258
					c-0.193,0.943-0.611,1.841-1.016,2.716c-0.297,0.646-0.879,1.317,0.112,1.646c2.1-3.102,2.057-7.51,1.725-11.107
					c-0.337-3.646-1.177-8.102-3.977-10.705c-0.154,0.164-0.53,0.474-0.633,0.672"/>
			</g>
		</g>
		<g>
			<g>
				<path fill="#020202" d="M263.755,249.723c-1.432,1.729-0.489,4.287,1.879,3.981c1.453-0.188,3.217-1.071,3.622-2.606
					c-0.224,0.004-0.593-0.293-0.69-0.021c-0.309-1.896-3.519-2.771-4.745-1.297 M264.299,252.938
					c-1.183-0.715-0.539-3.293,0.857-3.336c0.746-0.021,1.561,0.184,2.19,0.592c0.597,0.394,0.505,1.267,1.084,1.3
					c-0.703,1.14-2.891,2.296-4.175,1.517"/>
			</g>
		</g>
		<g>
			<g>
				<path fill="#020202" d="M266.005,244.092c-1.912,0.354-2.771,1.402-2.714,3.34c0.871,0.229,0.516-0.605,0.634-1.182
					c0.126-0.604,0.507-1.063,1.07-1.314c0.548-0.246,1.774-0.666,2.294-0.188c0.622,0.565-0.365,2.042,0.778,1.834
					c0.148-1.558-0.23-2.854-2.069-2.519"/>
			</g>
		</g>
		<g>
			<g>
				<path fill="#020202" d="M279.126,249.033c0.359,0.76,0.522,1.623,0.437,2.463c-0.057,0.559-0.444,1.033,0.36,1.104
					c0.476-1.229,0.316-2.66-0.234-3.836c-0.17,0.082-0.394,0.141-0.536,0.262"/>
			</g>
		</g>
		<g>
			<g>
				<path fill="#020202" d="M269.563,261.45c-0.225-0.568-0.317-1.21-0.238-1.828c0.05-0.412,0.326-0.754-0.218-0.824
					c-0.351,0.896-0.274,1.958,0.071,2.841c0.117-0.057,0.27-0.093,0.367-0.181"/>
			</g>
		</g>
		<g>
			<g>
				<path fill="#020202" d="M272.383,249.546c0.441,0.862-0.387,2.486,0.453,2.692c0.536-0.938,0.576-2.006,0.083-2.969
					c-0.167,0.086-0.392,0.146-0.53,0.271"/>
			</g>
		</g>
		<g>
			<g>
				<path fill="#020202" d="M274.733,242.607c0.497,0.76,0.251,2.752,1.099,2.75c0.298-1.045-0.019-2.183-0.603-3.068
					c-0.157,0.102-0.33,0.159-0.453,0.297"/>
			</g>
		</g>
		<g>
			<g>
				<path fill="#020202" d="M284.684,257.58c-0.007,0.184,0.107,0.436,0.15,0.615c1.497-0.354,2.943-0.883,4.348-1.51
					c-0.137-0.889-0.74-0.328-1.297-0.105c-1.041,0.41-2.108,0.74-3.197,1"/>
			</g>
		</g>
	</g>
</g>
<g>
	<g>
		<path fill="#D0D2D8" d="M280.148,310.424c-7.516-0.979-93.858-6.082-93.958,6.32c15.247,5.396,36.286,5.688,52.576,5.684
			c7.362-0.002,20.388-2.59,27.791-2.011c15.393,1.209-1.818,6.699,4.791,7.81c1.135,8.131,10.202,0.806,44.608,14.526
			c15.595,6.221,123.166,1.087,139.628,3.278c0.485-23.157-90.072-29.96-114.859-34.666c-16.385-3.111-33.138-2.941-49.771-2.941"/>
		<path fill="#496B92" d="M504.998,266.795c-5.57,0-11.837,0-19.846,0c-8.012,0-13.021-2.547-27.843-5.327
			c-14.612-2.737-27.52-6.155-36.565-7.233c-9.052-1.073-17.673-0.756-22.896-1.111c-5.22-0.355-6.962-0.355-8.354-0.355
			c-1.395,0-2.635,1.756-2.635,1.756s-8.588,4.387-8.938,15.867c-0.349,11.483,0,14.354,1.396,22.971
			c1.396,8.609,1.396,10.047,1.396,10.047l9.747,16.15c0,0,47.001,7.896,66.149,5.742c19.146-2.15,27.853,0.715,37.946,1.793
			c0,0,11.562-27.695,15.126-40.023C513.249,274.738,504.998,266.795,504.998,266.795z"/>
		<g id="ChestMains">
			<path id="ChestMain" fill="#F3BF98" d="M388.718,253.964c-7.577-1.356-11.342-1.92-30.454-0.899
				c-19.115,1.021-20.938,1.295-32.475,1.295s-20.834,3.75-27.426,6.813c-6.589,3.063-16.104,8.543-20.616,10.975
				c-4.917,2.646-7.497-0.804-10.213-2.271c-3.478-1.885-3.488-10.596-3.708-15.777c-0.224-5.188-1.617-10.502-5.881-9.08
				c-4.2,1.4-4.405-1.711-5.501-1.602c-1.136,0.117-1.2,2.699-1.2,2.699c-1.599-2.1-3.023-3.055-4.001-3.198
				c-0.977-0.147-3.5,4.001-5.401,0.101c-1.143-2.345-3.078-2.812-5.502-0.699c-5.131,4.469-7.202,5.199-12.402,4.604
				c-7.004-0.813-16.668,2.717-19.795,5.594c-2.991,2.754-3.468,13.064-2.809,18.5c0.659,5.438,42.043,35.672,43.691,36.691
				c1.648,1.019,16.077-12.484,27.615-0.568c8.335,8.611,63.917,0.912,78.417,0.571c14.502-0.339,41.111-6.931,41.111-6.931
				s-1.62-4.959-1.948-21.604C389.891,262.52,388.718,253.964,388.718,253.964z"/>
			<path id="ChestMainExpanded" fill="#F3BF98" d="M388.718,254.644c-7.577-1.356-40.235-4.371-48.534-6.394
				c-18.471-1.2,0.891,0.584-11.548-0.189c-11.052-1.941-26.103,7.567-32.931,10.387c-6.716,2.771-13.445,11.947-17.957,14.379
				c-4.917,2.646-7.498-0.801-10.213-2.271c-3.479-1.887-3.488-10.594-3.708-15.779c-0.224-5.188-1.617-10.5-5.881-9.078
				c-4.2,1.399-4.406-1.713-5.5-1.601c-1.137,0.114-1.201,2.696-1.201,2.696c-1.6-2.1-3.023-3.053-4.001-3.195
				c-0.977-0.146-3.5,3.999-5.401,0.102c-1.143-2.347-3.078-2.811-5.502-0.701c-5.131,4.468-7.202,5.199-12.403,4.603
				c-7.004-0.812-16.667,2.718-19.793,5.593c-2.992,2.754-3.469,13.065-2.81,18.5c0.659,5.438,42.042,35.676,43.691,36.694
				c1.647,1.019,16.077-12.485,27.615-0.568c8.335,8.609,63.917,0.91,78.417,0.569c14.502-0.339,41.109-6.93,41.109-6.93
				s-1.621-4.959-1.95-21.604C389.891,263.199,388.718,254.644,388.718,254.644z"/>
		</g>
		<path fill="#CBA387" d="M249.242,243.411c0.102,1.787,0.353,3.923,1.68,5.276c0.341-1.676,0.313-2.776-0.68-4.176"/>
		<path fill="#CBA387" d="M246.824,281.021c-0.858,0.045-2.085,0.492-2.821,1.127c-1.244,1.065-0.423,1.063-0.96,2.178
			c-0.813,1.676,0.435,0.677-1.317,1.349c-1.091,0.418-2.098-0.942-2.381,0.865c1.956,0.774,5.065,4.037,7.276,1.911
			c1.237-1.188,0.927-5.678,0.203-6.832"/>
		<path fill="#707F8F" d="M431.928,316.676l2.703,23.704c0,0-4.601-1.829-12.303-0.601c-4.95,0.788-7.202,5.251-21.68,3.21
			c-14.154-1.996-21.438-1.625-23.414-1.625c-1.979,0-16.094-2.535-20.047-3.214c-3.957-0.684-16.521-1.729-16.521-1.729
			s-3.954,0.451-11.427,0.229c-7.472-0.229-10.397-5.768-19.405-8.028c-9.007-2.263-18.236-5.209-20.432-7.475
			c-2.199-2.268-6.152-2.721-9.229-4.074c-3.077-1.361-6.591-4.077-6.591-4.077s1.946-4.563,6.999-15.89
			c5.051-11.324,27.786-12.551,35.477-11.871c7.691,0.683,20.433,3.174,34.492,6.57c14.063,3.396,34.496,12.229,40.205,15.172
			c5.714,2.941,6.686,1.331,13.71,4.504c7.033,3.172,3.242,1.146,9.144,3.65C421.127,318.326,431.928,316.676,431.928,316.676z"/>
		<path fill="#8091A7" d="M415.063,316.208l7.943,0.944c-4.114-2.116-6.109-5.834-10.432-7.529
			c-4.319-1.696-7.778-3.993-12.305-6.752c-4.521-2.755-9.494-3.008-17.104-5.551s-20.928-9.535-36.146-13.988
			c-15.217-4.449-27.38-6.956-36.021-7.164c-8.634-0.212-19.692-0.286-25.655,4.799c-5.964,5.09-8.973,6.225-11.853,14.704
			c-2.878,8.479-2.554,13.946-2.554,14.582c0,0.638,0.825,2.968,3.497,3.816c2.673,0.848,4.523,2.12,4.523,2.12
			s-2.056,5.935-2.056,8.156c0,2.229,2.469,4.451,3.393,4.138c0.927-0.32,4.567-1.086,5.801-2.356
			c1.234-1.271,2.401-4.05,2.401-4.05s0.435-4.407,0.435-12.989c0-8.585,9.023-14.622,16.425-15.576
			c7.403-0.953,23.365,0.313,23.365,0.313s2.774,3.181,12.336,5.09c9.563,1.905,15.422,4.769,15.422,4.769s5.897-3.162,8.981,1.291
			c3.084,4.45,12.103,4.992,19.505,6.901c7.402,1.907,4.9-3.086,10.146-2.45c5.242,0.635,7.465,0.729,7.465,0.729
			s4.883,2.768,6.619,3.401C412.793,314.886,415.063,316.208,415.063,316.208z"/>
		<path fill="#F3BF98" d="M432.511,318.096c5.811-1.264,4.504-1.87,10.224-1.87c5.713,0,14.499,2.327,16.258,4.143
			c1.759,1.81-8.321,4.502-8.321,4.502s2.539-0.279,5.485,0.979c3.972,1.705,8.798,0.313,9.457,1.896
			c0.655,1.585,1.32,3.214,1.32,3.214l-1.513,0.19c0,0-0.347,0.032-0.567,0.94c0,0-3.854,2.286-8.906,4.326
			c-5.059,2.04-10.106,4.077-15.158,3.623c-5.062-0.45-6.574,0.184-6.574,0.184s-1.368-0.706-3.781-6.595
			C428.013,327.741,428.336,319.002,432.511,318.096z"/>
		<path fill="#5A6774" d="M309.711,292.188c9.646-2.834,14.753,2.461,25.723,1.518c5.971-0.52,7.435,1.271,7.435,1.271
			s13.167-0.646,18.696,2.195c27.235,13.995,23.453,6.883,28.504,10.504c5.061,3.623,1.652,3,1.652,3l-3.9,1.95
			c0,0-2.45-0.382-5.697-1.201c-3.447-0.868-10.525-2.095-14.854-4.352c-3.096-1.609-2.639-3.804-5.25-4.802
			c-1.869-0.713-3.892,1.67-5.104,1.201c-5.271-2.039-7.015-2.387-9.213-3.742c-2.195-1.356-6.238-1.51-6.238-1.51
			s-10.457-2.113-13.53-2.798c-3.078-0.678-10.55-2.032-11.208-2.718C316.063,292.032,309.711,292.188,309.711,292.188z"/>
		<path fill="#5A6774" d="M290.033,311.89c2.439,4.408,15.441,9.118,19.871,11.349c12.606,6.348,24.171,7.072,37.383,8.626
			c7.01,0.813,11.408,4.316,18.105,6.187c9.844,2.747,21.062,1.746,31.246,3.995c2.477,0.546,4.952,0.769,7.322,1.353
			c-30.229,1.105-37.063-4.059-55.563-4.739c-11.816-0.438-25.062-1.917-36.2-5.773c-4.233-1.469-6.514-3.013-10.202-5.102
			c-2.616-1.481-8.771-4.188-10.915-6.036c-2.38-2.048-4.546-2.5-1.714-6.793"/>
		<path fill="#8F7560" d="M209.167,248.395c0,0-13.618,4.729-15.319,15.89c-1.703,11.157-2.837,21.563-2.648,22.128
			c0.189,0.566-1.702-0.377-1.702-0.377l0.565,4.918l-1.733-1.128c0,0,0.416,14.907,5.901,18.503
			c5.484,3.594,6.801,3.398,6.801,3.398l-2.5,1.399c0,0,5.003-0.519,4.204,2.034c-0.302,0.967,1.396,1.563,1.396,1.563l3.4,1.506
			c0,0,2.199-0.121,3.902-0.506c1.7-0.378,4.7,1.308,4.7,1.308s6.093-0.945,14.604-1.701c8.512-0.757,10.393-3.681,12.473-5.003
			c2.081-1.325,5.675-3.783,6.431-4.354c0.756-0.563,2.836-1.512,2.836-1.512s-2.033-3.563-4.492-6.021
			c-2.458-2.459-9.921-6.855-9.921-6.855s-3.563-5.079-2.996-7.538c0.568-2.459,3.215-4.159,4.728-5.485
			c1.512-1.318,0.946-3.021,0.946-3.021s-5.126,0.104-8.774-0.313c-4.125-0.477-0.674-4.43-5.403-4.43s-8.133-2.271-12.105-3.023
			c-3.973-0.756-8.93-2.647-8.93-2.647l3.902-2.019c0,0,0-0.563-1.702-0.754c-1.702-0.189-3.405,0.188-3.405,0.188
			s1.003-1.919,2.504-2.12c3.006-0.396,5.602-0.103,5.602-0.103s0.514-0.491-3.269-1.25c-3.782-0.758-6.998,0.758-6.998,0.758
			s0.941-3.137,1.764-5.012c1.295-2.942,2.602-4.694,2.602-4.694s-2.399,1.647-4.101,2.599
			C202.435,254.712,205.763,251.04,209.167,248.395z"/>
		<g>
			<g>
				<g>
					<g id="ChestOutlines">
						<path id="ChestOutline" fill="#020202" d="M275.349,275.318c-0.296-0.055-0.276-0.422-0.572-0.479
							c0.255-1.397,1.714-2.639,2.797-3.479c1.039-0.807,2.327-1.063,3.48-1.666c1.248-0.646,3.767-1.896,4.995-2.577
							c4.525-2.522,8.37-5.253,13.118-7.331c6.095-2.669,11.44-3.887,17.989-5.126c0.474-0.093,2.262-0.282,4.682-0.509
							c5.364-0.49,13.83-1.131,17.924-1.094c3.901,0.035,7.399,0.041,11.301-0.103c3.852-0.138,8.769-0.24,12.604-0.544
							c7.498-0.592,14.209-0.889,21.604,0.8c0.875,0.198,2.146,0.271,3.022,0.452c0.271,0.052,1.376,0.129,1.334,0.402
							c-0.03,0.25-0.274-0.021-0.313,0.229c-1.49-0.217-2.891-0.289-4.359-0.595c-1.911-0.396-3.881-0.477-5.824-0.646
							c-3.771-0.343-7.562-0.393-11.339-0.179c-3.801,0.216-7.597,0.442-11.396,0.726c-3.896,0.285-7.78,0.627-11.688,0.623
							c-7.576-0.004-15.204-0.043-22.744,0.865c-6.774,0.813-14.188,2.492-20.511,5.021c-5.198,2.078-9.329,4.584-14.235,7.271
							c-2.155,1.185-4.463,2.115-6.695,3.146c-1.883,0.871-3.813,2.059-4.519,4.154c-0.032,0.092-0.241-0.063-0.256,0.029"/>
						<path id="ChestOutlineExpanded" fill="#020202" d="M275.349,275.318c-0.296-0.055-0.276-0.422-0.572-0.479
							c0.255-1.397,1.714-2.639,2.797-3.479c1.039-0.807,2.327-1.063,3.48-1.666c1.248-0.646,4.436-5.482,5.664-6.164
							c4.525-2.522,6.875-5.251,11.623-7.329c6.095-2.669,3.726-3.483,10.274-4.726c0.473-0.09,9.97-3.415,12.389-3.638
							c10.827-2.333,18.161,0.62,22.254,0.657c6.492,0.523,5.657,1.645,9.56,1.501c3.852-0.138,8.397,0.983,12.233,0.68
							c7.499-0.592,12.825,0.847,20.221,2.535c0.873,0.198,2.146,0.271,3.022,0.452c0.271,0.052,1.375,0.129,1.333,0.402
							c-0.031,0.25-0.273-0.021-0.313,0.229c-1.49-0.217-2.894-0.289-4.358-0.595c-1.913-0.396-3.881-0.477-5.827-0.646
							c-3.771-0.343-6.018-1.226-9.796-1.012c-4.123-0.464-9.319-0.896-14.526-0.847c-3.976-1.199-10.05-0.708-14.623-1.925
							c-6.506-1.198-7.98-0.588-16.053-0.775c-6.773,0.813-16.924,5.181-23.245,7.706c-5.198,2.078-9.047,6.511-13.953,9.198
							c-2.155,1.186-4.179,4.098-6.411,5.129c-1.883,0.871-3.813,2.058-4.519,4.154c-0.032,0.092-0.24-0.063-0.257,0.028"/>
					</g>
					<g>
						<path fill="#020202" d="M279.6,329.07c-0.112,0-0.195-0.458-0.195-0.557c0.002-0.271,0.211-0.377,0.486-0.391
							c0.646-0.032,1.256-0.067,1.863-0.289c1.217-0.445,2.796-0.988,3.695-1.909c2.027-2.08,2.898-5.006,3.54-7.813
							c0.382-1.67,0.398-3.332,0.25-5.037c-0.16-1.854-0.384-3.704-0.324-5.57c0.09-2.771,1.349-4.966,3.244-6.934
							c3.588-3.729,8.503-6.218,13.32-7.925c5.895-2.09,12.327-3.422,18.589-2.853c0.06,0.005,0.002,0.069,0.063,0.073
							c-0.016,0.169-0.105,0.292-0.124,0.458c-0.019,0.188-0.351-0.106-0.521-0.117c-0.779-0.06-1.576,0.257-2.359,0.255
							c-1.576-0.007-3.127,0.131-4.69,0.33c-3.313,0.42-6.589,1.129-9.76,2.172c-4.835,1.584-9.89,3.748-13.625,7.274
							c-1.801,1.7-3.343,3.793-3.639,6.31c-0.428,3.658,1.009,7.289,0.338,10.957c-0.902,4.92-1.703,11.719-10.153,11.313"/>
					</g>
					<g>
						<path fill="#020202" d="M281.093,328.606c-1.271,0-2.684-0.386-3.685-1.227c-0.77-0.646-0.879-1.347-0.726-2.293
							c0.335-2.073,1.064-4.055,1.404-6.13c0.476-2.908,0.822-5.839,1.147-8.767c0.164-1.477,0.307-2.942,0.37-4.429
							c0.031-0.719,0.159-1.438,0.156-2.16c-0.001-0.162-0.188-0.684,0.008-0.688c0.17-0.006,0.268,0.045,0.436,0.041
							c0.128,5.711-0.66,11.521-1.693,17.127c-0.191,1.167-0.641,2.313-0.931,3.461c-0.197,0.783-0.833,2.034-0.418,2.813
							c0.624,1.173,2.331,1.476,3.542,1.533c0.699,0.033,1.426,0.033,2.105-0.135c0.155-0.039,0.363-0.271,0.427-0.096
							c0.058,0.159,0.254,0.326,0.311,0.483c-0.773,0.271-1.633,0.423-2.452,0.423"/>
					</g>
					<g>
						<path fill="#020202" d="M277.249,316.325c-1.279-0.72-2.376-1.669-3.7-2.3c-0.68-0.325-1.512-1.118-2.035-1.68
							c-1.265-1.35-0.561-3.838-0.336-5.459c0.485-3.506,0.727-7.135,1.764-10.522c1.085-3.554,3.207-6.351,5.603-9.119
							c0.584-0.672,1.312-1.224,1.888-1.903c0.072-0.084,0.482-0.789,0.516-0.759c0.147,0.119,0.274,0.097,0.423,0.216
							c-2.165,2.654-4.723,5.123-6.428,8.117c-1.757,3.083-2.139,6.669-2.601,10.135c-0.227,1.706-0.721,3.391-0.909,5.103
							c-0.099,0.901,0.024,1.868,0.279,2.761c0.441,1.546,2.341,2.063,3.623,2.67c0.837,0.396,1.65,0.851,2.455,1.307
							c-0.099,0.178-0.259,0.488-0.357,0.661"/>
					</g>
					<g>
						<path fill="#020202" d="M390.949,296.941c-0.531-7.313-1.422-14.61-1.442-21.95c-0.017-6.419,0.597-12.886-0.651-19.233
							c-0.152-0.795-0.092-1.654-0.318-2.433c-0.068-0.235-0.531-0.56-0.257-0.648c0.188-0.06,0.302,0.063,0.483,0.003
							c2.006,6.209,1.905,13.012,1.741,19.446c-0.18,7.08,0.567,14.075,1.187,21.115c0.106,1.208,0.3,2.444,0.388,3.653
							c-0.251,0.018-0.46-0.021-0.707-0.002"/>
					</g>
					<g>
						<path fill="#020202" d="M395.986,253.768c-1.564-0.16-3.113-0.498-4.678-0.687c-0.75-0.092-1.51-0.14-2.267-0.131
							c-0.153,0-0.521,0.116-0.521-0.132c-0.008-0.223-0.037-0.42-0.041-0.646c1.554-0.093,3.109,0.078,4.645,0.309
							c0.786,0.119,1.566,0.274,2.354,0.379c0.156,0.021,0.616-0.043,0.602,0.215c-0.02,0.221-0.071,0.453-0.088,0.68"/>
					</g>
					<g>
						<path fill="#020202" d="M490.241,267.282c-3.641,0-7.332,0.136-10.876-0.72c-1.646-0.398-3.277-0.822-4.921-1.217
							c-3.71-0.896-7.476-1.488-11.212-2.23c-9.617-1.909-18.076-3.643-27.752-5.233c-7.313-1.2-15.18-2.618-22.562-3.327
							c-3.051-0.291-5.438-1.158-8.507-1.229c-1.451-0.034-3.511-0.32-4.931,0c-0.851,0.188-2.188,1.087-3.009,1.373
							c-0.31,0.107-0.648-0.194-0.75-0.471c-0.063-0.179,0.333-0.063,0.271-0.24c3.003-1.086,5.365-2.094,8.539-1.771
							c2.698,0.271,5.894,0.896,8.59,1.188c3.183,0.338,6.357,0.793,9.525,1.263c9.404,1.396,18.746,3.229,28.104,4.922
							c8.272,1.494,16.74,2.282,24.904,4.302c1.229,0.303,2.416,0.787,3.646,1.098c2.807,0.713,5.595,1.371,8.479,1.494
							c5.758,0.24,11.514-0.674,17.271-0.713c0.001,0.25-0.394,0.806-0.391,1.063c0.002,0.265,0.126-0.112-0.099-0.106
							c-0.396,0.008-0.772,0.783-1.166,0.795c-1.467,0.033-2.936-0.229-4.396-0.148c-2.916,0.15-5.847,0.662-8.77,0.662"/>
					</g>
					<g>
						<path fill="#020202" d="M515.591,316.622c-7.716-0.845-15.403-2.006-23.148-2.31c-7.815-0.311-15.548-0.791-23.261-2.155
							c-7.465-1.321-14.662-2.146-21.987-4.106c-7.5-2.005-15.321-4.141-22.896-5.859c-7.908-1.795-15.918-3.172-23.813-5.021
							c0.039-0.165,0.355-0.549,0.396-0.714c0.043-0.189,0.563-0.078,0.745-0.035c0.988,0.229,2.026,0.241,3.016,0.467
							c1.9,0.436,3.438,1.111,5.336,1.533c3.74,0.83,8.362,1.965,12.104,2.803c7.604,1.7,14.652,3.076,22.157,5.179
							c7.329,2.048,14.688,3.861,22.178,5.213c3.866,0.696,7.729,1.454,11.635,1.858c3.864,0.406,7.778,0.157,11.655,0.331
							c8.68,0.396,17.412,0.418,26.055,1.361c-0.02,0.2-0.128,1.223-0.146,1.423"/>
					</g>
					<g>
						<path fill="#020202" d="M433.686,340.041c-3.06-2.877-4.684-7.06-5.119-11.179c-0.396-3.69,0.089-7.83,2.152-10.997
							c0.291,0.188,0.49,0.164,0.291,0.484c-0.245,0.397-0.433,0.851-0.624,1.272c-0.396,0.883-0.521,1.861-0.73,2.804
							c-0.463,2.088-0.73,4.253-0.502,6.376c0.232,2.229,0.836,4.45,1.809,6.472c0.479,0.991,1.213,1.846,1.892,2.716
							c0.321,0.411,0.578,0.873,0.945,1.247c0.107,0.104,0.442,0.297,0.316,0.43c-0.116,0.123-0.243,0.177-0.359,0.301"/>
					</g>
					<g>
						<path fill="#020202" d="M406.478,343.896c-3.361,0-6.494-0.956-9.809-1.37c-1.826-0.23-4.465,0.664-6.297,0.704
							c-1.955,0.044-3.558-0.521-5.505-0.701c-3.863-0.361-7.227-1.317-11.108-1.517c-3.343-0.164-6.69,0.243-9.967-0.521
							c-3.749-0.873-7.323-2.526-10.55-4.614c0.091-0.139,0.363-0.678,0.508-0.715c0.695,0.449,1.354,0.941,2.075,1.348
							c1.321,0.738,2.764,1.339,4.173,1.889c2.881,1.105,6.005,1.485,9.072,1.756c1.803,0.157,3.597,0.401,5.402,0.521
							c1.959,0.123,3.94-0.04,5.891,0.19c3.816,0.457,7.646,1.4,11.496,1.24c1.438-0.063,2.845-0.472,4.288-0.326
							c1.303,0.127,2.601,0.328,3.881,0.589c2.839,0.581,5.647,0.885,8.552,0.599c2.31-0.229,4.568-0.563,6.712-1.423
							c2.498-1,4.884-2.329,7.537-2.849c0.028,0.146,0.178,0.465,0.206,0.607c0.063,0.312,0.112,0.479-0.229,0.547
							c-0.902,0.187-1.439,0.21-2.331,0.479c-1.499,0.453-3.346,1.618-4.802,2.198c-2.989,1.195-5.947,1.941-9.197,1.941"/>
					</g>
					<g>
						<path fill="#020202" d="M352.764,338.519c-3.818,0.229-7.615-0.188-11.406-0.512c-1.844-0.156-3.696-0.055-5.557-0.06
							c-1.871-0.01-3.742-0.073-5.613-0.13c-1.871-0.061-3.664-0.502-5.451-1.129c-1.707-0.596-3.363-1.298-5.034-1.999
							c-2.874-1.219-6.016-1.034-8.974-1.866c-4.54-1.28-8.247-4.701-12.46-6.897c-2.022-1.053-4.125-1.575-6.228-2.327
							c-1.854-0.656-3.4-1.926-4.482-3.936c0.137-0.12,0.314-0.371,0.46-0.356c0.415,0.771,0.99,1.479,1.601,2.013
							c1.12,0.975,2.611,1.246,3.939,1.637c1.72,0.505,3.549,0.604,5.176,1.444c1.631,0.842,2.912,2.55,4.465,3.572
							c1.575,1.05,3.198,2.094,4.882,2.871c1.45,0.668,3.027,1.015,4.56,1.336c1.356,0.29,2.825-0.139,4.186,0.117
							c1.763,0.33,3.247,1.854,4.896,2.618c1.465,0.677,3.021,1.147,4.569,1.521c1.583,0.382,3.245,0.45,4.867,0.467
							c1.642,0.013,3.28,0.048,4.929,0.063c1.705,0.012,3.396-0.033,5.096,0.114c3.233,0.282,6.481,0.74,9.738,0.646
							c1.688-0.05,3.396-0.229,5.085-0.436c0.86-0.104,1.696-0.11,2.558-0.259c0.109,0.144,0.025,0.206,0.047,0.427
							C356.646,337.799,354.729,338.402,352.764,338.519"/>
					</g>
					<g>
						<path fill="#020202" d="M355.248,302.291c-2.628-0.158-5.211-0.965-7.637-1.921c-1.237-0.487-2.448-1.038-3.713-1.453
							c-1.416-0.464-2.877-0.718-4.338-0.999c-2.887-0.557-5.785-0.941-8.547-1.982c-1.305-0.492-2.49-1.281-3.785-1.789
							c-0.705-0.271-1.463-0.433-2.188-0.652c-0.056-0.12,0.188-0.604,0.229-0.739c2.66,0.828,5.104,2.253,7.771,3.063
							c2.782,0.85,5.729,1.103,8.562,1.761c2.729,0.638,5.238,1.743,7.859,2.698c1.258,0.455,2.581,0.705,3.891,0.979
							c0.646,0.132,1.301,0.205,1.959,0.243c0.078,0.09-0.059,0.772-0.063,0.901"/>
					</g>
					<g>
						<path fill="#020202" d="M387.718,312.717c-3.813-0.522-7.569-1.398-11.267-2.45c-1.854-0.521-3.672-1.167-5.521-1.704
							c-1.56-0.451-3.619-0.512-4.851-1.649c-1.304-1.214-1.954-3.462-3.787-4.021c-0.948-0.289-1.998-0.039-2.91,0.28
							c-0.68,0.243-1.317,0.604-1.948,0.962c-0.104,0.059-0.896,0.521-0.912,0.497c-0.111-0.184-0.277-0.337-0.396-0.521
							c-0.017-0.021-0.01,0.021-0.021,0c1.896-1.191,4.533-2.699,6.813-1.684c1.807,0.805,2.45,2.814,3.896,4.022
							c0.623,0.52,1.438,0.533,2.201,0.747c0.938,0.267,1.877,0.549,2.813,0.817c1.838,0.538,3.689,1.014,5.533,1.525
							c1.854,0.517,3.714,1.001,5.592,1.421c0.891,0.201,1.73,0.637,2.628,0.799c0.44,0.082,0.905,0.039,1.354,0.106
							c0.267,0.043,0.912-0.021,0.867,0.307c-0.025,0.194-0.05,0.259-0.074,0.451"/>
					</g>
					<g>
						<path fill="#020202" d="M423.155,317.158c-5.099-4.082-10.573-7.393-16.501-10.106c-2.313-1.061-4.496-2.427-6.771-3.563
							c-1.452-0.726-2.564-1.747-4.111-2.269c-1.717-0.576-3.883-0.283-5.633-0.765c-7.429-2.024-14.326-5.506-21.328-8.633
							c-3.502-1.563-6.865-3.494-10.504-4.71c-3.48-1.164-6.91-2.615-10.438-3.635c-6.438-1.854-13.521-2.721-20.112-3.969
							c-6.356-1.205-12.246-2.021-18.704-2.5c-5.458-0.406-11.338-0.56-16.603,1.102c-2.595,0.818-4.751,2.271-6.944,3.889
							c-1.142,0.843-2.149,1.741-3.132,2.77c-0.521,0.543-0.958,1.107-1.431,1.692c-0.158,0.192-1.023,0.765-1.257,0.579
							c-0.155-0.12,0.816-0.504,0.661-0.625c3.533-4.537,7.711-7.77,13.261-9.236c5.383-1.431,10.987-1.453,16.499-0.992
							c6.275,0.525,12.598,1.219,18.778,2.41c6.563,1.266,13.193,2.418,19.608,4.271c3.543,1.021,7.049,2.299,10.539,3.493
							c3.653,1.246,7.004,3.313,10.524,4.894c3.547,1.591,7.229,2.86,10.82,4.347c3.528,1.461,6.973,3.096,10.656,4.102
							c1.604,0.438,3.484,0.021,5.061,0.563c1.531,0.521,3.128,2.146,4.573,2.86c2.295,1.144,4.371,2.33,6.7,3.401
							c5.938,2.729,10.999,5.9,16.104,10c-0.152,0.19,0.156-0.192,0,0"/>
					</g>
					<g>
						<path fill="#020202" d="M313.788,264.063c-0.835,0-1.222-0.375-1.667-0.978c0.739-0.543,1.677-0.911,2.598-0.979
							c0.982-0.07,1.626,0.311,2.229,1.037c-1,0.438-2.048,0.894-3.159,0.894 M313.027,263.234c0.146,0.176,0.893,0.479,2.892-0.31
							c-0.866-0.569-2.093-0.146-2.916,0.304 M312.85,263.334c0.036,0.03,0.06,0.057,0.097,0.089
							c0.043-0.057,0.078-0.123,0.072-0.19c-0.056,0.031-0.13,0.063-0.187,0.099"/>
					</g>
				</g>
				<g>
					<path fill="#020202" d="M399.181,299.377c-0.063-3.671-0.098-7.354-0.317-11.02c-0.225-3.616-0.94-7.192-1.241-10.805
						c-0.313-3.685-0.542-7.375-0.652-11.068c-0.108-3.76,0.091-7.563-0.499-11.283c-0.021-0.139-0.329-1.137-0.291-1.145
						c0.188-0.037,0.203-0.192,0.395-0.229c0.72,3.726,1.136,7.491,1.256,11.272c0.116,3.709,0.135,7.416,0.421,11.112
						c0.279,3.619,0.92,7.216,1.172,10.834c0.253,3.625,0.274,7.271,0.352,10.905c0.012,0.47,0.012,0.979,0.02,1.453
						c-0.201,0.001-0.642-0.027-0.84-0.024"/>
				</g>
				<g>
					<g>
						<path fill="#020202" d="M452.621,323.992c-0.021-0.134-0.093-0.521,0.06-0.538c0.355-0.047,0.69-0.212,1.042-0.278
							c1.354-0.26,3.063-0.353,4.021-1.455c0.354-0.412,0.653-0.918,0.813-1.438c0.081-0.271,0.101-0.572,0.086-0.856
							c-0.012-0.259-0.484-0.302-0.695-0.32c-1.727-0.188-3.393-0.367-5.044-0.925c-2.522-0.843-5.139-1.001-7.762-1.359
							c-2.049-0.284-4.089-0.369-6.146-0.104c-1.282,0.17-2.566,0.396-3.813,0.753c-0.803,0.234-1.538,0.668-2.322,0.951
							c-0.178,0.063-0.951,0.326-1.021,0.146c-0.059-0.156,0.002-0.239-0.057-0.396c2.804-1.065,5.982-2.281,8.995-2.438
							c2.143-0.113,4.481,0.423,6.602,0.696c1.502,0.197,2.43,0.491,3.9,0.873c1.168,0.308,2.305,0.704,3.497,0.92
							c0.811,0.146,1.627,0.273,2.442,0.355c0.476,0.044,1.394-0.082,1.785,0.251c0.678,0.571-0.226,2.11-0.571,2.662
							c-0.811,1.289-1.929,1.655-3.338,1.979c-0.808,0.188-1.624,0.33-2.438,0.424"/>
					</g>
					<g>
						<path fill="#020202" d="M439.779,341.231c-3.285,0-6.319-1.069-9.597-1.309c-1.775-0.13-3.825,0.267-5.604,0.204
							c-1.047-0.038-1.83-0.369-2.875-0.38c-0.272-0.004-0.821,0.123-0.821-0.21c0-0.195-0.122-0.399-0.122-0.595
							c5.607,0,11.158,0.499,16.745,0.859c2.295,0.151,4.788,0.478,7.041-0.063c0.907-0.216,1.723-0.743,2.571-1.125
							c0.418-0.188,0.906-0.229,1.324-0.414c0.052-0.025,0.216,0.419,0.259,0.512c-1.194,0.54-2.396,1.079-3.659,1.438
							C443.423,340.612,441.451,341.231,439.779,341.231"/>
					</g>
					<g>
						<path fill="#020202" d="M444.741,338.44c-0.022-0.2-0.072-0.392-0.1-0.585c3.008-0.34,6.198-0.116,9.096-1.113
							c1.015-0.351,2.003-0.874,2.77-1.63c0.174-0.171,0.295-0.396,0.438-0.601c0.099-0.137,0.413,0.179,0.533,0.247
							c-0.822,1.367-2.509,2.228-3.977,2.651c-2.854,0.833-5.867,0.721-8.789,1.049"/>
					</g>
					<g>
						<path fill="#020202" d="M454.654,335.019c-1.751,0-3.539-0.179-5.275-0.396c-2.021-0.257-4.072-0.652-6.04-1.229
							c0.052-0.176,0.033-0.474,0.233-0.414c0.4,0.109,0.825,0.164,1.229,0.254c1.003,0.212,2.035,0.279,3.05,0.432
							c1.904,0.279,3.82,0.508,5.74,0.642c2.259,0.156,4.336-0.618,6.49-1.214c1.213-0.335,2.459-0.558,3.646-0.988
							c0.395-0.143,0.812-0.229,1.146-0.479c0.241-0.182,0.396,0.152,0.589,0.359c-1.158,1.09-3.153,1.125-4.616,1.511
							c-2.005,0.531-4.095,1.454-6.19,1.454"/>
					</g>
					<g>
						<path fill="#020202" d="M455.063,332.188c-2.245,0-4.114-1.067-6.086-2.078c-1.063-0.551-2.181-1.012-3.229-1.594
							c-0.546-0.302-1.042-0.69-1.594-0.981c-0.13-0.067-0.451-0.078-0.375-0.238c0.072-0.151,0.174-0.26,0.249-0.412
							c2.625,1.298,5.056,2.986,7.774,4.103c1.82,0.737,3.604,0.49,5.535,0.384c1.464-0.081,2.934-0.16,4.389-0.299
							c0.858-0.081,1.731-0.054,2.595-0.146c0.665-0.072,1.62-0.019,1.618-0.939c-0.009-1.407-1.123-2.172-2.367-2.326
							c-1.452-0.188-2.92-0.264-4.363-0.55c-3.74-0.76-6.97-3.085-10.403-4.673c-1.568-0.729-3.227-1.305-4.85-1.914
							c-0.648-0.242-1.29-0.514-1.956-0.697c-0.255-0.072-0.559-0.022-0.817-0.072c-0.052-0.09,0.126-0.514,0.146-0.626
							c2.323,0.431,4.558,1.555,6.698,2.521c2.53,1.146,4.958,2.489,7.467,3.676c1.531,0.725,3.224,1.04,4.893,1.3
							c1.381,0.215,2.921,0.081,4.265,0.482c1.175,0.354,2.066,1.813,1.956,3.057c-0.137,1.465-2.095,1.161-3.162,1.271
							c-2.78,0.287-5.58,0.642-8.379,0.642"/>
					</g>
				</g>
				<g>
					<path fill="#020202" d="M290.752,315.016c-1.092-0.553-2.221-1.218-2.871-2.278c-0.522-0.858-0.697-1.864-0.931-2.83
						c-0.354-1.468-1.053-2.63-1.98-3.813c-1.012-1.291-2.104-2.556-2.958-3.967c-1.712-2.831,0.189-5.604,1.819-7.938
						c0.782-1.121,2.015-2.623,1.752-4.1c-0.107-0.591-0.621-0.99-1.054-1.396c-0.136-0.127-0.674-0.566-0.572-0.717
						c0.095-0.141,0.195-0.117,0.292-0.26c1.054,0.731,1.978,1.661,1.869,3.018c-0.13,1.617-1.259,3.064-2.146,4.35
						c-0.831,1.189-1.832,2.438-2.073,3.902c-0.25,1.521,0.58,2.699,1.485,3.861c0.988,1.271,2.112,2.449,3.006,3.791
						c0.812,1.215,1.078,2.619,1.408,4.021c0.205,0.869,0.432,1.748,1.047,2.417c0.398,0.435,0.969,0.673,1.471,0.977
						c0.158,0.096,0.648,0.328,0.564,0.495c-0.076,0.15-0.086,0.393-0.163,0.54"/>
				</g>
				<g>
					<path fill="#020202" d="M271.627,302.255c-2.003-3.204-1.697-7.7,0.01-10.958c0.246,0.131,0.577,0.154,0.436,0.438
						c-0.253,0.512-0.453,1.039-0.625,1.582c-0.366,1.146-0.582,2.343-0.592,3.543c-0.01,1.148,0.113,2.313,0.474,3.404
						c0.16,0.485,0.389,0.943,0.639,1.389c0.128,0.232,0.227,0.271,0.001,0.412c-0.115,0.071-0.28,0.152-0.396,0.229"/>
				</g>
				<g>
					<path fill="#020202" d="M355.807,296.035c-15.716-0.533-31.313-3.064-47.042-3.35c-0.794-0.017-1.594,0.438-2.39,0.438
						c-0.167,0-0.474-0.114-0.474-0.314c0-0.168-0.242-0.477-0.242-0.644c15.67,0,31.198,2.642,46.83,3.407
						c0.87,0.043,1.747-0.033,2.618,0c0.166,0.006,0.639-0.215,0.629-0.014c-0.006,0.166,0.074,0.142,0.072,0.309"/>
				</g>
				<g>
					<path fill="#020202" d="M392.977,310.574c-1.884-2.156-4.035-3.191-6.927-3.396c-2.722-0.188-5.208-0.912-7.86-1.705
						c-3.512-1.052-6.748-2.887-9.885-4.729c-3.139-1.85-6.478-3.368-9.971-4.456c-7.298-2.272-14.839-3.626-22.242-5.479
						c-7.461-1.871-14.636-4.996-22.28-6.109c-3.805-0.557-8.125-0.182-11.858,0.818c-1.677,0.448-2.821,1.072-4.407,1.775
						c-0.894,0.396-1.963,0.428-2.842,0.854c-0.438,0.215-0.916,0.451-1.352,0.67c-0.101-0.047-0.266-0.592-0.319-0.698
						c2.796-1.396,5.862-2.317,8.879-3.17c3.074-0.871,6.233-1.183,9.41-0.935c7.677,0.596,14.938,3.359,22.275,5.457
						c7.37,2.104,14.838,3.726,22.252,5.678c3.604,0.949,6.889,2.201,10.137,4.024c3.246,1.823,6.396,3.581,9.785,5.146
						c1.705,0.789,3.614,1.168,5.489,1.354c1.411,0.146,2.802,0.624,4.22,0.679c1.313,0.052,2.459,0.308,3.67,0.821
						c1.662,0.706,3.149,1.604,4.328,2.953c-0.149,0.13,0.104-0.108-0.047,0.022"/>
				</g>
				<g>
					<path fill="#020202" d="M424.445,317.631c-2.979,0-6.146-0.417-8.951-1.396c-1.586-0.56-3.052-1.394-4.562-2.137
						c-1.639-0.813-3.306-1.447-4.992-2.153c-2.819-1.187-5.463-1.975-8.52-1.685c-3.146,0.306-6.169,1.294-8.989,2.655
						c-1.121,0.542-2.281,1.024-3.365,1.629c-0.146,0.081-1.385,0.99-1.401,0.961c-0.122-0.209-0.231-0.502-0.354-0.712
						c5.653-3.29,12.092-6.528,18.813-5.414c1.624,0.271,3.08,1.195,4.592,1.839c1.687,0.718,3.302,1.539,4.941,2.345
						c2.748,1.353,5.681,2.313,8.707,2.843c2.097,0.36,4.228,0.613,6.35,0.468c1.21-0.084,2.067-0.248,3.269-0.443
						c0.614-0.102,1.687-0.479,2.3-0.601c0.102,0.075,0.025,0.854,0.055,0.99c-2.547,0.493-5.283,0.911-7.889,0.911"/>
				</g>
				<g>
					<path fill="#020202" d="M417.768,339.43c-1.468-3.105-2.902-6.418-2.936-9.918c-0.029-3.646,1.447-7.079,3.236-10.166
						c0.104,0.063,0.499,0.215,0.546,0.323c-0.306,0.523-0.505,1.097-0.787,1.633c-0.492,0.938-1.104,1.824-1.486,2.813
						c-0.646,1.662-0.993,3.441-1.002,5.235c-0.007,1.777,0.331,3.542,0.904,5.222c0.334,0.975,0.815,1.89,1.23,2.833
						c0.232,0.525,0.475,1.057,0.721,1.575c0.153,0.33-0.179,0.337-0.464,0.474"/>
				</g>
			</g>
			<g>
				<g>
					<path fill="#020202" d="M275.547,272.982c-2.051,0-4.345-0.354-6.214-1.199c-2.027-0.917-3.447-2.584-4.359-4.608
						c-1.218-2.706-1.518-5.704-1.499-8.622c0.013-1.769,0.249-3.539,0.255-5.311c0.004-1.461-0.137-2.971-0.593-4.369
						c-0.74-2.271-3.215-4.809-5.751-3.544c-0.964,0.481-2.602,1.342-3.423,0.223c-0.385-0.522-0.629-1.772-1.438-1.792
						c-0.367-0.008-0.323,0.352-0.536,0.018c-0.119-0.188-0.321-0.25-0.439-0.437c1.53-0.978,2.411,0.448,3.125,1.584
						c0.539,0.859,2.308-0.251,2.906-0.455c2.573-0.886,5.114,0.996,6.155,3.22c1.36,2.898,0.737,6.502,0.663,9.601
						c-0.071,3.005-0.003,6.173,1.093,9.022c0.879,2.287,2.459,4.172,4.759,5.028c1.352,0.507,2.852,0.656,4.279,0.813
						c0.331,0.035,0.672-0.104,1.004-0.098c0.037,0,0.152,0.965,0.152,1.064"/>
				</g>
				<g>
					<path fill="#020202" d="M250.765,246.874c-0.351-0.847-0.714-1.826-1.243-2.571c-0.335-0.475-0.882-0.76-1.41-0.973
						c-0.107-0.042-0.901-0.298-0.895-0.323c0.05-0.185,0.078-0.387,0.127-0.571c1.064,0.279,2.292,0.771,2.822,1.814
						c0.399,0.786,0.763,1.585,1.12,2.393c-0.184,0.08-0.36,0.147-0.543,0.229"/>
				</g>
				<g>
					<path fill="#020202" d="M251.248,248.846c-1.07-0.597-1.541-1.766-1.757-2.912c-0.102-0.545-0.181-1.086-0.252-1.632
						c-0.021-0.168-0.182-0.618-0.03-0.688c0.153-0.067,0.33-0.143,0.483-0.211c0.23,0.508,0.194,1.146,0.261,1.688
						c0.07,0.563,0.178,1.124,0.372,1.658c0.174,0.481,0.417,0.964,0.811,1.308c0.12,0.104,0.438,0.174,0.351,0.332
						c-0.082,0.146-0.154,0.311-0.236,0.454"/>
				</g>
				<g>
					<path fill="#020202" d="M234.77,255.693c-0.137-0.004-0.273-0.027-0.41-0.033c-0.34-0.008-0.197-0.35-0.205-0.639
						c-0.02-0.707-0.118-1.404-0.284-2.09c-0.171-0.711-0.369-1.414-0.619-2.104c-0.057-0.156-0.358-0.604-0.171-0.672
						c0.158-0.063,0.314-0.104,0.472-0.161c0.692,1.854,1.297,3.679,1.243,5.68"/>
				</g>
				<g>
					<path fill="#020202" d="M251.438,249.029c-0.189-0.028-0.376-0.079-0.565-0.108c-0.03-0.004,0.14-1.206,0.153-1.364
						c0.063-0.705,0.027-1.406-0.019-2.111c-0.03-0.475-0.154-1.092,0.061-1.534c0.205-0.425,0.647-0.743,1.075-0.92
						c0.063,0.151,0.129,0.313,0.194,0.471c0.063,0.146-0.105,0.181-0.23,0.255c-0.517,0.323-0.554,0.635-0.518,1.186
						c0.093,1.396,0.082,2.742-0.132,4.127"/>
				</g>
				<g>
					<path fill="#020202" d="M231.192,252.041c-0.215,0-0.433-0.021-0.647-0.055c0.028-0.188,0.057-0.379,0.084-0.567
						c-0.003,0.022,1.194-0.013,1.33-0.032c0.526-0.082,1.042-0.244,1.519-0.479c0.1,0.044,0.208,0.416,0.261,0.521
						c-0.783,0.393-1.671,0.604-2.546,0.604"/>
				</g>
				<g>
					<path fill="#020202" d="M225.738,253.493c-0.417-1.597-1.424-2.956-1.504-4.646c0.191-0.015,0.359-0.039,0.55-0.053
						c-0.03,0.005,0.259,1.281,0.308,1.43c0.359,1.061,0.937,2.023,1.22,3.113c-0.193,0.053-0.371,0.104-0.564,0.148"/>
				</g>
				<g>
					<path fill="#020202" d="M191.679,290.311c-1.034-3.119-1.013-6.459-1.557-9.676c-0.037-0.221-0.184-0.507,0.052-0.59
						c0.231-0.079,0.444-0.217,0.676-0.297c0.039-0.016,0.144,0.271,0.162,0.305c0.443,0.889,0.884,1.771,1.327,2.66
						c-0.227,0.113-0.463,0.189-0.689,0.303c-0.217,0.108-0.169-0.106-0.265-0.302c0.237,1.966,0.323,3.938,0.777,5.872
						c0.108,0.46,0.285,0.898,0.427,1.35c0.048,0.147-0.711,0.334-0.866,0.383"/>
				</g>
				<g>
					<path fill="#020202" d="M205.631,263.34c-0.093-0.177-0.172-0.309-0.264-0.488c1.65-0.853,3.574-1.131,5.41-1.004
						c-1.922-0.964-4.146-1.287-6.251-0.791c-0.555,0.133-1.102,0.305-1.614,0.561c-0.101,0.051-0.232,0.051-0.33,0.105
						c-0.021,0.019-0.285-0.436-0.32-0.492c2.183-1.347,5.261-1.248,7.584-0.403c0.525,0.188,1.024,0.438,1.516,0.698
						c0.269,0.146,0.523,0.313,0.779,0.479c0.263,0.169,0.241,0.133,0.132,0.389c-0.075,0.174-0.085,0.282-0.267,0.252
						c-0.226-0.043-0.449-0.106-0.676-0.138c-1.915-0.229-4-0.086-5.734,0.813"/>
				</g>
				<g>
					<path fill="#020202" d="M192.109,300.523c-2.832-3.414-4.059-7.801-4.57-12.123c0.729,0.795,1.472,1.584,2.202,2.381
						c-0.127-1.008-0.189-2.027-0.151-3.039c0.001-0.055,0.683-0.051,0.77-0.057c0.252-0.02,0.418,0.809,0.519,1.063
						c0.341,0.871,0.75,1.72,1.279,2.484c0.063,0.093,0.31,0.3,0.205,0.375c-0.222,0.17-0.432,0.291-0.653,0.461
						c-0.406-0.529-0.792-1.063-1.115-1.641c0.028,0.243,0.355,1.62,0.221,1.692c-0.103,0.058-0.668,0.519-0.738,0.438
						c-0.411-0.449-0.766-0.937-1.178-1.383c0.37,1.711,0.885,3.396,1.609,4.991c0.448,0.985,0.956,1.95,1.576,2.838
						c0.152,0.224,0.795,0.796,0.584,0.972c-0.196,0.162-0.327,0.346-0.522,0.504"/>
				</g>
				<g>
					<path fill="#020202" d="M196.761,307.998c-1.001-0.412-2.141-0.365-3.198-0.484c0.032-0.272,0.061-0.57,0.092-0.849
						c0.015-0.124,1.429,0.038,1.646,0.063c-1.292-1.057-2.619-2.089-3.711-3.354c-0.849-0.989-1.332-2.017-1.715-3.238
						c0.841,0.228,1.68,0.349,2.521,0.574c-0.059,0.215-0.169,0.45-0.229,0.663c-0.009,0.027,0.001,0.227-0.029,0.246
						c-0.288-0.077-0.591-0.151-0.883-0.215c0.802,1.539,2.206,2.73,3.525,3.814c0.717,0.588,1.494,1.107,2.188,1.726
						c0.312,0.271,0.299,0.263,0.096,0.574c-0.1,0.156-0.2,0.331-0.299,0.486"/>
				</g>
				<g>
					<path fill="#020202" d="M201.594,311.803c-1.57-0.014-3.155-0.712-4.507-1.439c-1.39-0.753-2.742-1.683-3.885-2.774
						c0.192-0.202,0.369-0.427,0.561-0.627c0.078-0.081,0.779,0.615,0.912,0.72c0.884,0.702,1.854,1.297,2.845,1.835
						c0.956,0.521,1.969,0.979,3.034,1.226c0.163,0.039,1.059,0.138,1.058,0.229c-0.001,0.277-0.017,0.526-0.02,0.808"/>
				</g>
				<g>
					<path fill="#020202" d="M242.622,315.364c-1.329-0.007-2.512-0.613-3.732-1.075c0.916-0.146,1.844-0.224,2.713-0.565
						c1.44-0.567,2.059-2.049,2.962-3.188c1.093-1.385,2.915-2.147,4.5-2.795c0.967-0.396,1.964-0.722,2.91-1.164
						c0.311-0.148,0.399-0.332,0.573-0.009c0.105,0.194,0.225,0.315,0.33,0.517c-2.046,1.101-4.338,1.674-6.307,2.933
						c-1.794,1.146-2.389,3.432-4.328,4.389c0.388,0.032,0.418,0.039,0.417,0.401c-0.002,0.189-0.045,0.346-0.046,0.526"/>
				</g>
				<g>
					<path fill="#020202" d="M218.22,319.661c-1.164-0.222-2.316-0.396-3.469-0.647c-0.746-0.155-1.467-0.475-2.212-0.665
						c-0.37-0.094-0.722-0.191-1.057-0.384c-0.342-0.189-0.385,0.083-0.762,0.161c-2.14,0.447-5.088,0.502-7.023-0.669
						c-0.436-0.263-0.597-0.848-0.79-1.331c-0.22-0.552-0.218-1.386-0.635-1.827c-0.396-0.415-1.174-0.646-1.702-0.711
						c-0.726-0.089-1.527,0.083-2.222-0.166c-0.042-0.063,0.073-0.843,0.128-0.896c0.754-0.044,1.556,0.003,2.272-0.243
						c0.714-0.244,1.281-0.892,1.94-1.255c0.145,0.053,0.446,0.816,0.528,0.965c-0.67,0.372-1.401,0.679-2.123,0.937
						c0.883,0.141,2.031,0.342,2.337,1.291c0.239,0.745-0.03,1.527,0.66,2.057c1.083,0.824,2.644,1.128,3.951,1.128
						c0.723,0.003,1.421-0.329,2.134-0.451c0.272-0.048,0.595,0.14,0.86,0.06c0.281-0.081,0.445-0.366,0.651-0.142
						c0.599,0.659,1.537,0.929,2.327,1.213c0.49,0.178,0.939,0.376,1.467,0.425c0.574,0.056,1.199-0.026,1.771,0.026
						c-0.025-0.229-0.105-0.692-0.13-0.918c1.7-0.074,3.226,0.476,4.895,0.662c-0.369-0.572-0.72-1.104-1.094-1.671
						c2.877-0.036,5.727,0.646,8.595,0.573c3.259-0.075,6.254-1.485,9.529-1.438c-0.005,0.278-0.199,0.427-0.203,0.706
						c-0.001,0.062-1.58,0.011-1.826,0.053c-1.583,0.248-3.037,1.13-4.6,1.471c-1.632,0.354-3.296,0.137-4.958-0.005
						c-1.619-0.135-3.18-0.188-4.806-0.253c0.359,0.583,0.805,1.069,1.19,1.644c-0.657,0.021-1.407-0.052-2.063-0.135
						c-1.217-0.157-2.385-0.439-3.616-0.502c0.033,0.292-0.125,0.521-0.093,0.812"/>
				</g>
				<g>
					<path fill="#020202" d="M240.948,293.745c-3.14,0-5.505-2.201-6.014-5.313c-0.279-1.711,0.099-3.798,1.264-5.134
						c0.12,0.104,0.596,0.392,0.48,0.535c-0.183,0.229-0.366,0.457-0.508,0.716c-0.541,0.982-0.822,2.1-0.747,3.221
						c0.195,2.896,2.495,5.129,5.401,5.252c1.329,0.06,2.438-0.246,3.701-0.642c1.307-0.405,2.517-0.979,3.65-1.761
						c1.933-1.33,3.381-3.313,4.015-5.537c0.374-1.309,0.654-2.867,0.116-4.169c-0.275-0.662-0.822-1.187-1.501-1.429
						c-0.115-0.043-1.092-0.2-1.092-0.193c0.008-0.189,0.079-0.376,0.086-0.568c4.699,0.193,3.487,6.151,2.06,8.933
						c-0.882,1.72-2.285,3.146-4.006,4.063C245.789,292.811,243.303,293.745,240.948,293.745"/>
				</g>
				<g>
					<path fill="#020202" d="M237.917,290.037c-1.351-1.454-1.055-3.686,0.403-4.946c1.525-1.325,3.542-0.901,4.686,0.677
						c-0.262,0.188-0.422,0.469-0.646,0.19c-0.324-0.403-0.71-0.781-1.202-0.965c-0.822-0.304-1.719-0.023-2.377,0.522
						c-0.691,0.568-1.178,1.448-1.169,2.354c0.003,0.514,0.179,1.012,0.472,1.43c0.163,0.233,0.368,0.266,0.149,0.467
						c-0.101,0.094-0.229,0.19-0.329,0.282"/>
				</g>
				<g>
					<path fill="#020202" d="M245.075,289.352c-1.155,0-2.213-0.744-3.149-1.345c-0.496-0.315-1-0.649-1.543-0.883
						c-0.243-0.103-0.021-0.386,0.058-0.608c1.507,0.529,3.935,2.987,5.632,1.705c1.186-0.896,1.038-2.646,1.06-3.964
						c0.012-0.646-0.022-1.286-0.193-1.911c-0.153-0.558-0.452-1.658-1.136-0.898c-0.625,0.695-1.625,0.725-2.374,1.24
						c-0.406,0.281-0.374,0.619-0.048,0.967c-0.021,0.115-0.345,0.324-0.435,0.41c-1.674-1.797,1.683-2.252,2.468-3.099
						c0.439-0.475,1.207-0.559,1.615,0.035c0.342,0.496,0.535,1.14,0.637,1.728c0.2,1.145,0.055,2.461-0.079,3.604
						c-0.164,1.403-0.838,3.024-2.512,3.024"/>
				</g>
				<g>
					<path fill="#020202" d="M205.084,267.259c-0.146-0.138-0.314-0.265-0.459-0.401c1.163-1.227,2.98-1.613,4.609-1.686
						c-1.325-0.451-2.78-0.488-4.159-0.313c-0.345,0.045-0.682,0.121-1.021,0.203c-0.139,0.033-0.187-0.455-0.221-0.58
						c0.84-0.229,1.727-0.354,2.593-0.358c0.78-0.007,1.571,0.062,2.33,0.243c0.412,0.1,0.812,0.255,1.2,0.426
						c0.28,0.122,0.869,0.273,0.75,0.618c-0.13,0.379-0.063,0.379-0.426,0.36c-0.495-0.024-0.991-0.022-1.482,0.02
						c-1.327,0.117-2.801,0.465-3.746,1.468"/>
				</g>
				<g>
					<path fill="#020202" d="M223.191,273.289c-1.61,0-2.74-0.818-3.921-1.779c-1.242-1.013-2.725-0.867-4.248-0.85
						c-1.599,0.02-3.155-0.212-4.545-1.078c-0.618-0.389-1.187-0.885-1.862-1.173c-0.747-0.319-1.576-0.412-2.316-0.749
						c0.048-0.105,0.147-0.485,0.244-0.533c0.488,0.223,1.035,0.273,1.543,0.439c1.104,0.349,1.968,0.992,2.951,1.563
						c2.112,1.223,4.487,0.471,6.756,0.905c1.847,0.358,2.812,2.253,4.667,2.594c0.968,0.181,1.996,0.075,2.895-0.293
						c0.53-0.216,1.05-0.492,1.535-0.795c0.313-0.195,0.312,0.036,0.492,0.312c-1.236,0.81-2.688,1.551-4.191,1.551"/>
				</g>
				<g>
					<path fill="#020202" d="M237.566,277.825c-1.666,0-3.329-0.134-4.993-0.194c-1.293-0.046-2.555,0.025-3.677-0.716
						c-0.933-0.614-1.088-1.425-0.71-2.459c0.223-0.612,0.654-1,0.654-1c-0.157-0.048-0.281-0.024-0.253-0.208
						c0.026-0.169,0.094-0.242,0.121-0.408c2.003,0.311-1.332,2.145,0.101,3.326c1.413,1.165,3.366,0.934,5.087,0.988
						c1.727,0.052,3.46,0.121,5.188,0.066c0.653-0.021,1.312-0.087,1.957-0.188c0.2-0.031,0.379-0.138,0.568-0.216
						c0.11-0.045,0.267,0.465,0.317,0.574c-0.503,0.231-1.101,0.318-1.645,0.363c-0.901,0.072-1.811,0.121-2.715,0.121"/>
				</g>
				<g>
					<path fill="#020202" d="M237.136,282.953c-0.171-0.102-0.333-0.201-0.502-0.305c0.708-1.172,1.874-1.821,2.83-2.754
						c0.908-0.891,0.989-1.949,1.237-3.129c0.165,0.031,0.312,0.045,0.476,0.072c0.178,0.04-0.033,0.71-0.063,0.896
						c-0.108,0.625-0.222,1.254-0.559,1.799c-0.869,1.398-2.567,2.004-3.424,3.42"/>
				</g>
			</g>
			<g>
				<path fill="#020202" d="M270.549,306.204c-2.243-1.621-4.663-3.009-7.397-3.328c-1.752-0.205-3.217-0.562-4.93-0.121
					c-0.934,0.237-2.552,0.628-3.412,1.065c-0.241,0.121-0.645,0.518-0.808,0.242c-0.1-0.17-0.242-0.313-0.342-0.479
					c5.283-3.112,12.387-2.319,17.296,1.224c-0.146,0.201-0.286,0.397-0.431,0.604"/>
			</g>
			<g>
				<path fill="#020202" d="M250.55,304.021c-0.988-2.119-2.998-3.313-5.149-5.121c-0.928-0.779-4.361-2.41-5.226-3.26
					c-0.449-0.441-0.911-0.863-1.382-1.281c-0.259-0.229,0.064-0.396,0.263-0.625c3.276,2.856,10.226,6.074,12.065,10.021
					c-0.182,0.084-0.376,0.175-0.557,0.261"/>
			</g>
			<g>
				<path fill="#020202" d="M252.029,308.664c-0.069-0.779-0.351-1.558-0.964-2.075c-0.417-0.352-0.971-0.546-1.466-0.759
					c0.42-0.085,0.84-0.165,1.254-0.278c-0.434-0.501-0.949-0.918-1.523-1.255c-0.141-0.082-0.527-0.191-0.45-0.363
					c0.071-0.154,0.124-0.33,0.193-0.48c1.262,0.57,2.162,1.531,2.972,2.627c-0.202-0.003-0.411-0.007-0.612-0.018
					c0.763,0.619,1.122,1.599,1.205,2.556c-0.2,0.016-0.396,0.023-0.596,0.045"/>
			</g>
			<g>
				<path fill="#020202" d="M357.02,337.307c-3.052-1.578-5.899-3.521-8.959-5.095c-2.271-1.165-5.22-2.767-7.867-2.313
					c-1.18,0.204-2.113,1.147-2.658,2.211c-0.563,1.088,0.517,1.396,1.4,1.59c1.383,0.302,2.812,0.501,4.219,0.532
					c1.3,0.025,2.791-0.146,4.043,0.271c0.109,0.035,0.227,0.016,0.316,0.073c-0.089,0.145-0.104,0.33-0.191,0.474
					c-0.084,0.134-0.338-0.043-0.482-0.076c-0.751-0.169-1.547-0.126-2.313-0.146c-1.609-0.044-3.236-0.044-4.838-0.26
					c-0.94-0.127-2.556-0.331-2.971-1.354c-0.467-1.146,0.947-2.573,1.786-3.164c2.187-1.545,5.343-0.476,7.521,0.462
					c3.263,1.404,6.246,3.388,9.319,5.143c0.539,0.309,1.078,0.62,1.632,0.913c0.241,0.127,0.449,0.158,0.317,0.408
					c-0.063,0.122-0.172,0.122-0.231,0.242"/>
			</g>
		</g>
	</g>
	<g>
		<g>
			<path fill="#020202" d="M202.689,260.684c-0.182-2.914,1.085-5.713,2.856-7.967c-1.299,0.887-2.421,2.146-3.188,3.521
				c-0.075,0.134-0.228,0.027-0.364-0.018c-0.042-0.016-0.234-0.07-0.26-0.111c0.041-0.254,0.126-0.495,0.194-0.743
				c0.223-0.792,0.558-1.543,1.037-2.21c1.247-1.736,3.22-3.143,5.243-3.829c0.111,0.325,0.333,0.555-0.002,0.687
				c-0.472,0.188-0.955,0.358-1.399,0.604c-1.508,0.825-2.929,2.003-3.792,3.516c0.569-0.674,1.252-1.266,1.97-1.778
				c0.377-0.271,0.751-0.558,1.167-0.765c0.473-0.231,0.501-0.284,0.77,0.136c0.146,0.229,0.071,0.252-0.107,0.443
				c-0.298,0.32-0.57,0.659-0.836,1.008c-0.875,1.135-1.605,2.379-2.091,3.729c-0.292,0.807-0.51,1.631-0.585,2.485
				c-0.037,0.42-0.12,0.834-0.092,1.252c-0.076,0.076-0.486,0.041-0.6,0.047"/>
		</g>
		<g>
			<g>
				<path fill="#020202" d="M210.718,249.973c-0.109-0.277,0.034-0.463-0.075-0.74c3.225-1.26,6.457-2.717,9.931-2.981
					c1.722-0.133,3.392,0.373,5.104,0.519c1.396,0.109,2.823-0.18,4.157-0.631c2.493-0.846,4.395-2.777,6.45-4.313
					c1.059-0.787,2.4-1.591,3.756-1.308c1.143,0.234,1.706,1.32,2.069,2.366c0.173,0.501,0.3,1.077,0.856,1.33
					c0.413,0.188,1.24,0.218,1.81,0.05c0.698-0.203,1.203-0.843,1.705-1.369c0.229-0.242,0.354-0.371,0.639-0.172
					c0.183,0.125,0.227,0.25,0.41,0.375c-0.753,1.088-1.92,1.737-3.206,1.95c-0.941,0.154-2.238,0.2-2.67-1.021
					c-0.249-0.702-0.461-1.49-0.987-2.039c-0.81-0.844-2.079-0.596-3.016-0.109c-1.322,0.686-2.504,1.73-3.649,2.667
					c-0.847,0.696-1.71,1.329-2.686,1.833c-1.132,0.585-2.297,1.146-3.565,1.242c-1.524,0.111-3.025-0.329-4.542-0.402
					c-4.285-0.199-8.326,1.278-12.271,2.818"/>
			</g>
			<path fill="#020202" d="M193.132,266.011c0.161-0.553,0.372-1.093,0.557-1.644c1.309-3.909,2.624-7.865,5.445-10.981
				c2.444-2.698,5.779-4.489,9.234-5.549c0.048,0.16,0.391,0.924,0.329,1.063c-0.812,0.248-1.702,0.332-2.484,0.662
				c-1.316,0.557-2.43,1.51-3.591,2.344c-1.965,1.412-3.522,3.201-4.739,5.289c-1.107,1.902-1.979,3.902-2.678,5.979
				c-0.432,1.284-0.938,2.551-1.359,3.84c-0.643,1.979-1.375,5.934-1.525,9.608c-0.149,3.674,0.351,4.728,0.026,4.95
				c-0.325,0.225-0.825-0.15-0.925-2.229C191.322,277.273,191.215,272.575,193.132,266.011z"/>
		</g>
	</g>
</g>
<g>
	<path fill="#ECAF8B" d="M228.657,246.111c-8.423-1.791-25.986-5.016-31.541-5.733c-5.557-0.716-9.499,0.718-10.216,2.149
		c-0.717,1.435,0,3.584,0,5.197c0,1.609-4.122,0.354-3.942,5.019c0.178,4.659,0.358,5.198-1.255,6.809
		c-1.613,1.615,0.36,3.048-0.179,4.124c-0.538,1.075-3.226,2.15-1.793,6.811c1.435,4.658,3.763,6.634,4.661,6.99
		c0.895,0.355,6.304,2.211,6.304,2.211l0.75-7.127c0,0,0.375-0.227,1.369-0.463c6.782-1.609,7.526-5.195,7.707-6.094
		c0.179-0.895,0.179-2.148,0.179-2.148s3.585,2.148,11.111,0.539c7.527-1.615,6.809-3.584,6.809-4.66
		c0-1.074,0.181-1.973,0.181-1.973s1.433,0.18,5.913-0.717s5.735-3.225,5.555-3.764c-0.178-0.537-1.253-2.15-1.253-2.15
		s3.404-1.072,1.971-3.584C229.554,245.037,228.657,246.111,228.657,246.111z"/>
	<path fill="#F3D7C3" d="M200.878,264.214c-12.583,0.841,2.603,7.271,0.359,0.537"/>
	<path fill="#F3D7C3" d="M218.621,257.584c-0.909,0.033-10.614-1.35-6.813,2.865c2.156,2.392,6.969,0.592,6.993-2.329"/>
	<path fill="#F3D7C3" d="M229.731,251.848c-2.219-0.115-7.813-2.478-8.046,0.909c1.846,1.402,11.693,4.519,7.508-0.729"/>
	<path fill="#F3D7C3" d="M230.09,246.471c-2.068-0.412-4.312-0.453-5.881,1.109c-0.049,0.105-0.063,0.216-0.045,0.33
		c1.876,1.67,6.733,4.445,7.002-0.186"/>
	<g>
		<g>
			<path fill="#020202" d="M191.899,240.061c13.311,1.213,26.439,3.979,39.483,6.799c0.058-0.264,0.269-0.229,0.325-0.487
				c0.037-0.181-1.756-0.095-1.989-0.144c-1.766-0.381-3.438-1.186-5.204-1.559c-3.457-0.732-6.978-1.128-10.447-1.786
				c-7.333-1.394-14.686-2.489-22.122-3.167c-0.029,0.301-0.036,0.239-0.063,0.538"/>
		</g>
	</g>
	<g>
		<g>
			<path fill="#020202" d="M202.567,248.545c-1.652,0.155-3.283,0.338-4.942,0.355c-0.802,0.008-1.6,0.181-2.399,0.127
				c-0.616-0.043-1.516-0.279-1.38,0.646c6.125,0.713,12.209-0.833,18.352-0.099c6.439,0.769,11.071,1.833,17.57,2.029
				c0.301-0.963-0.067-0.346-0.69-0.39c-1.37-0.097-1.851-0.271-3.214-0.437c-2.743-0.342-5.476-0.752-8.207-1.162
				c-5.101-0.771-9.943-1.618-15.095-1.135"/>
		</g>
	</g>
	<g>
		<g>
			<path fill="#020202" d="M227.952,251.223c0.753,0.704,1.977,1.834,1.517,2.998c-0.391,0.988-1.588,1.506-2.513,1.805
				c-1.436,0.468-2.962,0.61-4.46,0.746c-0.822,0.072-2.998-0.25-2.639,0.996c3.785,0,14.816-1.565,8.744-7.24
				c-0.155,0.164-0.526,0.469-0.632,0.664"/>
		</g>
	</g>
	<g>
		<g>
			<path fill="#020202" d="M195.194,256.348c-1.526,0.484-3.024,1.084-4.595,1.402c-0.757,0.152-3.267-0.09-2.971,0.919
				c2.675-0.052,5.284-0.745,7.812-1.55c1.137-0.362,2.242-0.826,3.398-1.12c0.677-0.171,2.671-0.097,2.247-1.086
				c-2.003,0.28-3.982,0.782-5.903,1.394"/>
		</g>
	</g>
	<g>
		<g>
			<path fill="#020202" d="M196.286,256.204c7.391,0.731,14.777,1.373,22.214,1.373c0.277-1.039-1.255-0.56-1.907-0.57
				c-1.497-0.032-2.984-0.159-4.479-0.252c-2.739-0.165-5.498-0.065-8.228-0.335c-2.518-0.252-5.021-0.645-7.538-0.893
				c-0.017,0.183-0.24,0.451-0.201,0.629"/>
		</g>
	</g>
	<g>
		<g>
			<path fill="#020202" d="M218.167,257.366c0.914,4.474-3.579,5.946-7.184,6.397c-1.914,0.234-3.841,0.572-5.765,0.459
				c-0.801-0.05-1.58-0.385-2.375-0.48c-0.674-0.079-1.256-0.375-1.137,0.582c5.24,0.816,18.727,1.64,16.951-7.055
				c-0.22,0.045-0.512,0.03-0.712,0.135"/>
		</g>
	</g>
	<g>
		<g>
			<path fill="#020202" d="M192.246,265.059c-3.348,0.5-6.63,1.205-9.887,2.147c0.019,1.103,2.397-0.005,3.132-0.161
				c1.657-0.354,3.314-0.679,4.99-0.936c3.436-0.531,6.878-1.064,10.259-1.898c0.029-1.105-2.314,0.098-3.038,0.232
				c-1.795,0.338-3.611,0.602-5.417,0.873"/>
		</g>
	</g>
	<g>
		<g>
			<path fill="#020202" d="M200.111,263.799c3.179,7.512-10.87,8.23-14.915,9.939c0.101,0.852,0.485,0.586,1.093,0.391
				c1.073-0.35,2.157-0.699,3.251-0.966c1.881-0.457,3.841-0.653,5.668-1.298c3.659-1.287,7.437-3.889,5.554-8.336
				c-0.208,0.088-0.394,0.1-0.57,0.238"/>
		</g>
	</g>
	<g>
		<g>
			<path fill="#020202" d="M230.579,246.288c0.259,0.974,0.319,2.135-0.236,3.036c-0.442,0.715-1.995,0.861-1.555,1.695
				c2.398-0.494,2.866-2.746,2.298-4.863c-0.179,0.046-0.408,0.052-0.567,0.145"/>
		</g>
	</g>
	<g>
		<g>
			<path fill="#020202" d="M221.735,251.482c-2.804,2.595,3.825,4.039,5.324,3.992c0.245-0.938-1.203-0.623-1.847-0.752
				c-1.009-0.199-2.775-0.541-3.304-1.57c-1.128-2.2,3.923-1.539,4.898-1.482c0.256-0.824-0.538-0.648-1.103-0.682
				c-1.225-0.068-2.936-0.404-3.939,0.525"/>
		</g>
	</g>
	<g>
		<g>
			<path fill="#020202" d="M224.898,246.436c-0.961,0.853-0.585,2.297,0.435,2.858c0.696,0.38,1.499,0.541,2.249,0.778
				c0.531,0.17,0.979,0.541,1.167-0.219c-0.936-0.551-4.621-0.836-3.705-2.707c0.678-1.383,3.476,0.099,3.491-1.078
				c-1.096-0.328-2.713-0.461-3.641,0.356"/>
		</g>
	</g>
	<g>
		<g>
			<path fill="#020202" d="M211.299,258.977c-0.833,1.857,1.589,2.377,2.825,2.396c0.627,0.008,3.544,0.307,3.215-0.773
				c-1.519,0.073-3.444,0.561-4.889-0.013c-1.092-0.431-0.559-1.586,0.209-2.026c0.612-0.349,2.152-0.347,1.79-1.244
				c-1.091,0.111-2.661,0.564-3.15,1.656"/>
		</g>
	</g>
	<g>
		<g>
			<path fill="#020202" d="M195.217,266.389c-0.537,2.135,4.319,1.215,5.085,0.967c-0.049-1.004-1.158-0.303-1.812-0.227
				c-0.776,0.092-1.779,0.184-2.484-0.23c-0.561-0.33,0.048-0.709,0.4-0.903c0.607-0.349,2.18-0.45,1.661-1.354
				c-0.88,0.236-2.664,0.674-2.93,1.729"/>
		</g>
	</g>
	<g>
		<g>
			<path fill="#020202" d="M186.12,243.6c-0.334,1.414,1.201,4.627-0.291,5.551c-0.668,0.412-1.31,0.529-1.899,1.104
				c-0.714,0.69-1.128,1.478-1.223,2.433c-0.133,1.311,0.377,2.295,0.112,3.588c-0.184,0.896-1.398,1.701-1.929,2.41
				c-0.892,1.188-0.653,2.52-0.369,3.86c0.417,1.985-2.165,2.58-2.55,4.399c-0.343,1.613,0.572,3.303,1.241,4.772
				c1.387,3.046,4.882,6.988,10.808,9.24c1.008,0.382-0.421-1.217-1.35-1.729c-0.999-0.551-4.817-2.686-5.624-3.485
				c-1.652-1.646-3.302-3.64-3.882-5.919c-0.237-0.938-0.209-2.135,0.194-3.042c0.474-1.069,1.475-1.681,2.032-2.698
				c0.754-1.383-0.646-2.555-0.32-3.898c0.242-1.009,2.012-1.49,2.395-2.463c0.744-1.882-0.135-4.049,0.487-5.951
				c0.423-1.297,1.151-1.226,2.204-1.781c1.271-0.678,1.447-2.377,1.25-3.612c-0.352-2.222-0.645-4.388,1.539-5.632
				c0.94-0.536,2.072-0.6,3.141-0.686c1.189-0.097,1.433,0.42,1.456-0.809c-3.342-0.063-6.744,0.645-7.615,4.299"/>
		</g>
	</g>
	<g>
		<g>
			<path fill="#020202" d="M205.354,252.32c0.925,0.4,0.719-0.952,0.922-1.574c0.218-0.669,1.438-1.955,0.46-2.252
				c-0.745,1.163-1.191,2.479-1.38,3.841"/>
		</g>
	</g>
	<g>
		<g>
			<path fill="#020202" d="M216.877,253.305c0.144,0.114,0.39,0.155,0.562,0.229c0.333-0.796,0.564-1.634,0.644-2.484
				c-0.961-0.36-0.876,1.587-1.163,2.271"/>
		</g>
	</g>
	<g>
		<g>
			<path fill="#020202" d="M210.375,243.413c-0.359,0.639-0.766,1.317-0.695,2.081c0.789,0.158,1.071-1.602,1.443-2.286
				c-0.363-0.341-0.642-0.298-0.759,0.196"/>
		</g>
	</g>
	<g>
		<g>
			<path fill="#020202" d="M219.461,246.525c0.668,0.746,1.875-1.043,0.924-1.366c-0.306,0.456-0.618,0.897-0.924,1.354"/>
		</g>
	</g>
	<g>
		<g>
			<path fill="#020202" d="M196.481,260.336c0.935,0.207,0.606-0.904,0.763-1.536c0.153-0.614,0.896-1.39,0.018-1.67
				c-0.617,0.914-0.873,2.123-0.808,3.213"/>
		</g>
	</g>
	<g>
		<g>
			<path fill="#020202" d="M205.202,260.061c0.854,0.635,1.81-2.021,0.747-2.074c-0.251,0.703-0.508,1.391-0.759,2.093"/>
		</g>
	</g>
	<g>
		<g>
			<path fill="#020202" d="M185.083,270.202c0.824,0.284,0.613-0.461,0.698-1.046c0.092-0.623,0.747-1.688-0.234-1.693
				c-0.26,0.896-0.409,1.814-0.465,2.745"/>
		</g>
	</g>
</g>
<rect id="HeadBlowTargetFixed_1_" x="217.48" y="137.327" fill="none" width="19.569" height="20.324"/>
<rect id="MouthTarget_1_" x="236.634" y="234.13" fill="none" width="28" height="28.78"/>
<g id="Cursor">
	
		<image overflow="visible" enable-background="new    " width="77" height="76" id="CursorGlow" xlink:href="../../mod3/resized/cursorGlow.png"  transform="matrix(0.9999 0 0 0.9999 428.1201 144.2295)">
	</image>
	
		<image overflow="visible" enable-background="new    " width="44" height="43" id="CursorProper" xlink:href="../../mod3/resized/cursor.png"  transform="matrix(1.0002 0 0 1.0002 444.1172 160.2319)">
	</image>
	<rect id="CursorTarget" x="437.501" y="151.385" fill="#FFFFFF" fill-opacity="0" width="21" height="21"/>
</g>
<g id="HeadBlow" display="none">
	<path display="inline" fill="#ECAF8B" d="M279.091,181.204c0.596,7.453,0,16.688-5.365,24.438
		c-5.364,7.75-7.451,5.662-10.729,10.133c-3.278,4.47-5.067,4.47-6.854,6.261c-1.789,1.786-2.683,3.573-2.683,3.573
		s-5.066,1.492-9.536,1.787c-4.471,0.299-8.345-2.979-8.345-2.979s-2.086-4.77-8.941-9.536c-6.855-4.771-12.516-10.729-14.901-24.44
		c-2.384-13.708-2.384-13.708-2.384-13.708s-4.768-5.662-4.768-8.642c0-2.98,2.98-5.961,6.259-5.961
		c3.279,0,73.613,1.789,73.613,1.789s3.577,0.595,0.597,7.152C282.071,177.628,279.091,181.204,279.091,181.204z"/>
	<path display="inline" fill="#5D4530" d="M250.182,123.089c5.663-5.067,10.134-8.643,18.478-5.961
		c8.346,2.683,21.458,11.326,29.505,11.326c8.046,0,17.286-5.365,17.286-5.365s0.596,1.192,0,2.681
		c-0.596,1.491-0.596,1.491-0.596,1.491s4.768-3.875,11.325-4.77c6.557-0.893,8.641,3.279,8.641,3.279s-4.768,0-7.449,3.278
		c-2.682,3.279-5.064,4.471-5.064,4.471s2.979-0.597,5.064,2.682c2.085,3.278,2.085,11.325,2.085,11.325s-2.383-9.239-13.409-10.729
		c-11.026-1.491-13.114,1.788-13.114,1.788s-1.489,4.769-5.662,7.748c-4.173,2.98-8.345,4.471-16.392,4.77
		C272.832,151.401,250.182,123.089,250.182,123.089z"/>
	<path display="inline" fill="#4F3B28" d="M275.217,131.433c-6.425-5.781-15.498-13.114-32.187-12.814
		c-16.691,0.297-32.486,10.43-34.871,22.054c-2.384,11.623-1.191,17.882-1.191,17.882s-0.298,9.835,1.191,14.901
		c1.491,5.066,7.154,8.644,7.154,8.644l1.49,2.98l3.278-6.26c0,0,0,9.538,8.941,16.691c8.942,7.151,15.498,7.747,15.498,7.747
		s-5.961-5.066-4.769-12.22c0,0,4.471,3.873,10.133,4.771c5.662,0.894,7.75,0.894,7.75,0.894l-4.769-12.816
		c0,0,5.364,2.685,7.749,2.685c2.385,0,4.77-1.788,4.172-2.981c-0.596-1.19-0.596-1.19-0.596-1.19s4.769,2.385,7.75,2.385
		c2.98,0,4.768-2.385,4.768-2.385l2.384,0.596c0,0,1.193-6.557,2.385-11.326c1.191-4.768,3.875-6.556,3.875-6.556
		S290.118,144.844,275.217,131.433z"/>
	<path display="inline" fill="#976E50" d="M266.573,202.363c0-1.191-1.49-2.979-8.643,0.3c-7.152,3.276-8.642,4.47-8.642,4.47
		s4.767-1.49,10.43-2.979C265.383,202.663,266.573,202.363,266.573,202.363z"/>
	<path display="inline" fill="#976E50" d="M232.599,206.24c0,0-3.278-2.387-8.345-3.877c-5.066-1.488-6.557-2.383-6.557-2.383
		s0.298,5.065,6.557,5.959C230.512,206.835,232.599,206.24,232.599,206.24z"/>
	<path display="inline" fill="#4F3B28" d="M281.22,142.181c5.757,3.368,7.658-0.283,13.036-1.449
		c-0.144,1.887-1.338,3.71-2.951,4.862c3.375-0.354,7.012-2.585,9.636-4.469c-0.541,5.878-10.819,9.849-15.854,9.951
		c-0.652-2.166-0.57-4.396-1.317-6.558"/>
	<path display="inline" fill="#5D4530" d="M206.641,150.042c-0.407,7.022,3.27,14.629,8.698,19.015
		c0.547-1.674,0.475-3.682,0.427-5.623c5.156,8.276,10.236,16.525,19.266,20.976c-2.284-4.85-3.573-9.37-4.618-14.306
		c0.599,1.513,3.845,4.251,4.703,5.367c1.52-2.842,1.616-2.641,3.014-5.538c11.782,10.026,23.017-2.306,28.849-12.332
		c3.739,3.017,8.135,2.33,8.289,7.589c1.687-2.408,3.927-4.253,6.374-5.846c1.52,2.169,3.868,3.192,5.286,0.672
		c0.335,1.801-0.1,3.333-1.427,4.397c-0.023-3.499,1.014-6.75,0.818-10.121c-0.298-5.113-2.231-11.048-5.619-16.63
		c-6.428-10.588-21.162-17.376-32.831-19.665c-10.374-2.034-25.728,4.085-33.334,11.232c-5.134,4.825-6.363,13.521-7.527,20.196
		c-0.072,0.345-0.123,0.692-0.155,1.041"/>
	<g display="inline">
		<g>
			<path d="M249.095,217.555c3.289,2.12-4.208,8.131-6.306,8.541c-2.373,0.463-4.462-1.246-5.542-3.156
				c-0.646-1.149-0.994-2.455-1.124-3.769c-0.078-0.786,0.342-2.168-0.825-2.014c-0.647,4.247,3.104,11.647,8.385,9.473
				c2.326-0.957,9.812-6.983,5.755-9.594c-0.122,0.188-0.211,0.245-0.277,0.46"/>
		</g>
	</g>
	<g display="inline">
		<g>
			<path d="M278.236,187.885c0,4.24-0.931,8.523-2.479,12.495c-1.5,3.858-4.181,6.331-7.199,9.077
				c-1.428,1.298-6.681,6.863-7.753,8.533c-1.091,1.691-2.587,2.806-4.306,3.793c-1.713,0.982-2.686,2.432-3.684,4.111
				c0.15,0.09,0.525,0.404,0.617,0.256c0.536-0.879,1.151-1.754,1.769-2.58c0.572-0.762,2.926-1.937,4.516-3.325
				c2.062-1.806,2.898-3.582,4.338-5.104c1.414-1.492,3.193-2.627,4.723-4c3.183-2.852,6-5.712,7.695-9.707
				c1.802-4.25,2.331-8.966,2.331-13.549C278.507,187.885,278.534,187.885,278.236,187.885"/>
		</g>
	</g>
	<g display="inline">
		<g>
			<path d="M209.75,181.91c0.725,3.104,1.182,6.271,1.929,9.369c1.115,4.629,2.285,9.695,4.846,13.775
				c2.806,4.475,7.063,8.678,11.369,11.727c1.865,1.324,4.024,2.451,5.602,4.146c0.425,0.453,0.646,1.041,0.892,1.611
				c0.336,0.786,0.044,0.694,0.85,0.405c-1.324-3.709-4.667-5.438-7.598-7.678c-2.129-1.632-4.323-3.197-6.085-5.217
				c-1.67-1.913-3.521-3.915-4.759-6.148c-3.686-6.653-4.936-14.76-6.65-22.096c-0.288,0.075-0.268-0.068-0.557,0.008"/>
		</g>
	</g>
	<g display="inline">
		<g>
			<path d="M235.146,224.13c0.654,1.097,1.261,2.127,2.382,2.819c2.045,1.262,4.671,1.139,6.938,0.931
				c2.507-0.239,5.018-0.534,7.479-1.06c0.665-0.143,1.321-0.33,1.986-0.475c0.71-0.147,0.476-0.361,0.349-1.054
				c-3.486,0.742-6.931,1.625-10.49,1.927c-1.864,0.16-4.123,0.17-5.813-0.83c-1.032-0.613-1.674-1.572-2.268-2.568
				c-0.254,0.156-0.466,0.1-0.72,0.253"/>
		</g>
	</g>
	<g display="inline">
		<g>
			<path d="M261.757,205.913c-1.476,1.923-3.09,3.151-5.528,3.603c-1.105,0.207-2.211,0.338-3.324,0.202
				c-0.948-0.116-2.148-0.62-3.083-0.353c-0.014,0.898,2.23,0.986,3.013,1.084c1.761,0.22,3.64,0.016,5.312-0.602
				c1.42-0.521,2.67-1.449,3.634-2.603c0.435-0.521,0.813-1.084,1.26-1.591c0.396-0.453,1.116-0.743,0.624-1.404
				c-0.79,0.288-1.391,1.047-1.88,1.684"/>
		</g>
	</g>
	<g display="inline">
		<g>
			<path d="M220.024,204.475c0.577,0.19,0.987,1.658,1.401,2.113c1.025,1.129,2.478,2.042,3.948,2.477
				c0.777,0.228,6.113,0.127,5.204-1.201c-1.782,0.617-3.541,1.232-5.409,0.537c-1.259-0.471-2.415-1.414-3.291-2.428
				c-0.516-0.595-0.916-1.699-1.696-1.959c-0.059,0.178-0.195,0.379-0.206,0.563"/>
		</g>
	</g>
	<g display="inline">
		<g>
			<path d="M252.765,206.139c-1.81,0.68-3.474,0.924-5.197,1.813c0.175,1.118,2.491-0.265,3.078-0.507
				c2.132-0.877,4.252-1.758,6.459-2.426c2.003-0.609,4-1.266,6.027-1.797c0.683-0.176,3.522-0.188,3.103-1.133
				c-1.93,0.239-3.558,0.646-5.424,1.168C258.313,203.953,255.196,205.23,252.765,206.139"/>
		</g>
	</g>
	<g display="inline">
		<g>
			<path d="M253.486,204.49c-1.005,0.537-1.957,1.166-2.984,1.654c-0.583,0.277-2.161,0.396-1.569,1.224
				c3.353-1.19,6.292-3.25,9.542-4.683c1.61-0.709,3.375-1.261,5.142-1.394c0.767-0.056,1.504,0.218,2.246,0.426
				c0.534,0.148,1.088,0.29,1.217-0.5c-4.333-2.063-9.849,1.333-13.57,3.318"/>
		</g>
	</g>
	<g display="inline">
		<g>
			<path d="M216.108,199.846c6.284,2.029,11.732,6.036,18.399,7.004c0.25-0.572,0.026-0.382-0.503-0.476
				c-0.966-0.167-1.924-0.435-2.859-0.718c-1.749-0.537-3.352-1.463-5.02-2.207c-3.236-1.446-6.46-3.036-9.844-4.129
				c-0.056,0.175-0.223,0.459-0.23,0.64"/>
		</g>
	</g>
	<g display="inline">
		<g>
			<path d="M218.543,202.591c3.318,3.403,9.58,4.216,14.094,4.222c0.283-0.979-1.976-0.871-2.667-0.938
				c-1.768-0.171-3.548-0.364-5.264-0.829c-1.706-0.459-3.489-1.059-4.916-2.121c-0.711-0.533-1.364-1.236-1.753-2.041
				c-0.317-0.654-0.037-2.242-0.968-2.001c-0.033,1.378,0.643,2.609,1.597,3.589"/>
		</g>
	</g>
	<g display="inline">
		<g>
			<path d="M234.69,207.256c-0.249,0.883,0.75,0.576,1.326,0.842c0.847,0.389,1.346,1.221,1.684,2.063
				c0.363,0.906,0.513,1.88,0.504,2.855c-0.006,0.604-0.382,1.558,0.537,1.461c0.519-2.828-0.449-7.223-4.049-7.203"/>
		</g>
	</g>
	<g display="inline">
		<g>
			<path d="M283.689,164.401c-0.716,0.161-1.431,0.769-1.793,1.407c0.952,0.539,0.583,0.095,1.489-0.401
				c0.891-0.491,2.064,0.135,2.292,1.158c0.304,1.364-0.573,3.353-1.059,4.652c-0.809,2.178-2.07,4.168-3.343,6.112
				c-0.64,0.976-1.081,2.117-1.867,2.98c-0.675,0.742-0.726,0.648-0.063,1.332c2.694-2.616,4.662-6.272,6.016-9.745
				c0.485-1.243,0.783-2.667,1.087-3.967c0.432-1.847-0.581-4.061-2.769-3.571"/>
		</g>
	</g>
	<g display="inline">
		<g>
			<path d="M220.925,181.037c0.238,12.688,13.61,20.044,24.633,21.992c0.575-1.178-1.796-0.936-2.602-1.137
				c-1.665-0.416-3.246-1.14-4.844-1.765c-3.03-1.181-5.864-2.8-8.438-4.795c-2.43-1.882-4.48-4.166-5.941-6.885
				c-0.748-1.39-1.307-2.822-1.637-4.369c-0.155-0.722-0.417-1.414-0.471-2.149c-0.048-0.656-0.092-1.158-0.94-0.898"/>
		</g>
	</g>
	<g display="inline">
		<g>
			<path d="M239.305,191.486c5.093,2.842,12.955,6.022,18.888,5.627c-0.452-1.559-2.116-5.696-3.255-6.885
				c-0.552,0.291-0.454,0.403-0.136,0.811c0.643,0.82,2.141,4.65,2.48,5.634c-3.087,0.113-6.137-0.757-9.009-1.858
				c-1.391-0.535-5.374-2.188-6.696-2.871c-0.698-0.362-2.021-1.654-2.319-0.405"/>
		</g>
	</g>
	<g display="inline">
		<g>
			<path d="M262.966,182.084c0.382,1.039,0.747,2.954-0.381,3.756c-0.75,0.531-1.879,0.614-2.747,0.525
				c-1.543-0.162-2.977-0.963-4.433-1.479c-0.952-0.337-1.886-0.683-2.81-1.088c-0.581-0.255-0.818-0.22-0.929,0.5
				c2.988,1.349,14.275,5.882,12.143-1.604c3.902,1.478,7.778,2.943,11.991,2.084c0.089-1.28-1.778-0.569-2.608-0.541
				c-1.471,0.051-2.885-0.461-4.31-0.824c-2.177-0.555-4.284-1.355-6.383-2.15c0.094,0.256,0.145,0.651,0.239,0.906"/>
		</g>
	</g>
	<g display="inline">
		<g>
			<path d="M279.954,176.557c-0.717,1.726-1.303,3.63-0.949,5.533c-2.003-0.313-3.962-1.057-5.791-1.931
				c-1.024-0.489-2.085-0.917-3.057-1.504c-0.709-0.428-0.506-0.291-0.887,0.325c3.427,2.122,6.928,3.754,10.957,4.222
				c-0.829-2.343-0.087-4.356,0.826-6.555c-0.274-0.114-0.606-0.164-0.88-0.276c-0.043,0.102-0.059,0.134-0.102,0.236"/>
		</g>
	</g>
	<g display="inline">
		<g>
			<path d="M227.568,120.772c-13.604,5.121-24.375,20.161-21.796,34.996c0.319-0.057,1.97-0.171,1.91-0.542
				c-0.07-0.433-0.284-0.809-0.322-1.244c-0.096-1.092-0.521-2.151-0.475-3.244c0.109-2.558,0.59-5.082,1.284-7.544
				c1.713-6.077,5.431-11.207,10.244-15.321c13.291-11.367,32.58-11.104,47.118-2.846c1.929,1.096,4.283,2.948,6.026,4.319
				c0.831,0.654,1.545,0.922,2.319,1.64c0.826,0.768,0.784,1.501,1.579,0.705C263.339,119.573,243.624,114.729,227.568,120.772"/>
		</g>
	</g>
	<g display="inline">
		<g>
			<path d="M217.032,185.361c0.168,0.414,0.198,0.871,0.365,1.283c0.169-1.057,0.329-2.103,0.667-3.119
				c0.264-0.801,0.587-1.588,1.036-2.301c0.351-0.559,0.792-0.968-0.034-1.347c-0.967,1.125-1.587,2.771-1.975,4.188
				c-0.844-2.246-1.581-4.713-1.581-7.134c0-1.068,0.213-2.155,0.543-3.173c0.235-0.724,1.259-1.506,0.138-1.762
				c-2.332,4.253-0.996,9.221,0.708,13.418"/>
		</g>
	</g>
	<g display="inline">
		<g>
			<path d="M209.599,177.099c1.324,2.447,3.189,4.711,5.941,5.411c0.613-1.047-1.137-1.367-1.854-1.794
				c-1.245-0.739-2.229-1.777-3.016-2.983c-1.56-2.396-2.183-5.241-2.591-8.044c-0.414-2.849-0.413-5.702-0.134-8.565
				c0.122-1.254-0.209-2.585,0.065-3.814c0.172-0.768,1.336-2.155,0.124-2.217c-2.28,6.681-2.131,15.847,1.265,22.115"/>
		</g>
	</g>
	<g display="inline">
		<g>
			<path d="M206.526,173.104c0.487,0.965,0.852,1.994,1.202,3.02c0.312,0.913,0.144,0.805,1.071,0.641
				c-0.499-2.799-2.366-5.144-3.2-7.844c-0.329-1.065-0.555-2.279-0.047-3.321c0.26-0.533,0.721-0.931,1.206-1.261
				c0.014-0.163-0.368-0.521-0.466-0.664c-3.465,2.363-1.337,6.62,0.111,9.493"/>
		</g>
	</g>
	<g display="inline">
		<g>
			<path d="M239.574,197.461c0.741,2.616,2.776,4.609,4.743,6.375c0.42-0.471,0.819-0.577,0.292-1.059
				c-0.739-0.674-1.531-1.307-2.178-2.068c-0.648-0.771-1.233-1.617-1.638-2.543c-0.417-0.962-0.229-0.997-1.204-0.721"/>
		</g>
	</g>
	<g display="inline">
		<g>
			<path d="M254.885,118.72c0.153,0.22,0.016,0.27,0.168,0.489c0.07,0.101,1.518-0.836,1.756-0.95
				c1.371-0.656,2.818-1.538,4.327-1.68c3.239-0.304,6.505,1.089,9.568,2.096c5.541,1.818,10.143,4.667,15.439,6.997
				c9.164,4.031,24.263,6.267,30.899-3.178c-0.218-0.154-0.995-0.188-1.212-0.343c-0.116-0.081-1.079,0.335-1.242,0.516
				c-0.876,0.968-1.629,1.949-2.745,2.625c-2.293,1.389-4.876,1.719-7.527,2.015c-5.421,0.604-9.926,0.31-14.993-1.635
				c-5.076-1.949-10.861-4.79-15.937-6.778c-5.893-2.309-13.274-4.618-18.892-0.723"/>
		</g>
	</g>
	<g display="inline">
		<g>
			<path d="M316.056,126.258c0.375-0.7,0.538-1.552,0.812-2.299c-0.252-0.091-0.384-0.216-0.635-0.309
				c-0.134-0.049-0.645,1.424-0.752,1.637c-0.611,1.229-1.625,2.19-2.377,3.316c0.701,0.613,0.57,0.593,1.241-0.089
				c0.953-0.967,2.167-1.661,3.305-2.397c2.315-1.498,4.922-2.648,7.643-3.16c2.463-0.464,4.841-0.117,6.865,1.448
				c1.188,0.919,2.518,1.634,3.676,2.595c0.173-0.233,0.686-0.573,0.42-0.794c-0.5-0.415-1.232-0.55-1.73-0.966
				c-1.338-1.11-2.463-2.435-4.151-2.985c-4.856-1.578-10.467,1.145-14.321,3.989"/>
		</g>
	</g>
	<g display="inline">
		<g>
			<path d="M326.127,129.44c-1.243,1.13-2.67,2.038-4.098,2.932c-0.799,0.5-1.6,0.983-2.476,1.328
				c-0.045,0.166,0.299,0.754,0.365,0.925c3.663-1.444,6.13-4.296,9.201-6.581c1.281-0.954,2.605-1.887,4.193-2.155
				c0.951-0.161,1.953-0.193,2.916-0.11c1.111,0.096,1.059,0.495,1.224-0.549c-4.734-0.748-8.072,0.979-11.464,4.057"/>
		</g>
	</g>
	<g display="inline">
		<g>
			<path d="M310.188,130.837c0.003,0.162-0.068,0.497,0.035,0.603c0.738-0.018,1.458,0.118,2.195,0.126
				c1.38,0.016,2.736,0.303,4.104,0.468c2.403,0.287,4.933,0.495,7.062,1.677c2.072,1.154,3.549,3.105,4.729,5.16
				c0.693,1.206,1.287,2.456,1.691,3.786c0.23,0.76,0.371,1.552,0.533,2.33c0.126,0.076,0.982-0.206,1.141-0.239
				c-1.015-4.929-3.697-9.401-8.313-11.766c-4.044-2.069-8.728-2.236-13.178-2.125"/>
		</g>
	</g>
	<g display="inline">
		<g>
			<path d="M302.027,138.75c-0.884,0.625-1.767,1.267-2.694,1.832c-0.974,0.595-1.157,0.382-0.642,1.324
				c3.039-1.664,5.607-4.495,8.996-5.457c3.111-0.882,6.66-0.131,9.749,0.614c3.02,0.729,6.019,1.936,8.457,3.915
				c1.03,0.841,2.182,1.668,2.774,2.869c0.317,0.639,0.351,1.399,0.459,2.103c0.088,0.568,0.278,0.32,0.8,0.267
				c-0.576-5.602-6.432-8.254-11.231-9.577c-2.627-0.725-5.369-1.412-8.103-1.341c-3.332,0.085-6.119,1.288-8.771,3.16"/>
		</g>
	</g>
	<g display="inline">
		<g>
			<path d="M280.512,140.039c2.126,4.314,4.213,8.782,5.169,13.527c0.438,2.16,0.384,4.388,0.25,6.59
				c-0.07,1.166-0.217,2.312-0.45,3.456c-0.229,1.135-0.403,1.15,0.654,1.414c2.257-9.029-1.064-17.277-5.011-25.287
				c-0.267,0.132-0.488,0.237-0.754,0.37"/>
		</g>
	</g>
	<g display="inline">
		<g>
			<path d="M288.1,149.216c0.029,0.297,0.055,0.579,0.084,0.876c8.692-0.837,15.114-6.816,15.314-15.743
				c-0.938-0.021-0.866-0.105-0.933,0.887c-0.074,1.14-0.176,2.296-0.469,3.402c-0.501,1.885-1.392,3.697-2.629,5.212
				c-2.771,3.398-7.117,4.859-11.379,5.269"/>
		</g>
	</g>
	<rect id="HeadBlowTarget" x="218.33" y="137.734" display="inline" fill="none" width="19.445" height="20.197"/>
</g>
</svg>
