<?xml version="1.0" encoding="utf-8"?>
<!-- Generator: Adobe Illustrator 15.0.0, SVG Export Plug-In . SVG Version: 6.00 Build 0)  -->
<!DOCTYPE svg PUBLIC "-//W3C//DTD SVG 1.1//EN" "http://www.w3.org/Graphics/SVG/1.1/DTD/svg11.dtd">
<svg version="1.1" id="Layer_1" xmlns="http://www.w3.org/2000/svg" xmlns:xlink="http://www.w3.org/1999/xlink" x="0px" y="0px"
	 width="640px" height="360px" viewBox="0 0 640 360" enable-background="new 0 0 640 360" xml:space="preserve">
<g>
	<g>
		<path fill="#596462" d="M250.024,216.967c-7.922,12.006-6.47,33.274-6.778,52.993c-0.307,19.718,0.309,32.967,1.849,35.124
			c1.541,2.156,89.967-10.167,89.967-10.167s5.544-10.783,10.783-30.194c5.236-19.411,7.085-25.879,8.935-29.578
			c1.848-3.697,3.39-6.162,3.082-14.788c-0.307-8.629-19.72-11.706-19.72-11.706S260.193,201.563,250.024,216.967z"/>
		<path fill="#0892C0" d="M320.787,100.195c-20.13-5.75-28.757-4.518-47.243-2.054c-18.486,2.465-37.792,13.966-45.187,21.772
			c-7.395,7.806-6.574,15.201-2.876,30.81c3.697,15.61,8.627,24.237,6.984,34.097c-1.643,9.86,1.643,15.199,1.643,15.199
			s-1.232,0.822-0.411,3.286c0.822,2.466,2.465,3.698,2.465,3.698s1.643,9.038,2.054,11.915c0.41,2.873-3.287,3.695-2.054,6.57
			c1.232,2.875,6.161,4.108,5.34,8.218c-0.821,4.107-5.067,6.269-2.466,9.449c3.698,4.518,5.752,6.159,5.752,11.088
			c0,4.933-0.411,11.916-0.411,11.916s7.394-5.34,14.378-4.929c6.984,0.41,6.984,0.41,6.984,0.41s-2.465-7.806-2.055-14.377
			c0.412-6.574-2.465-8.219-0.821-18.486c1.643-10.272,1.643-11.915,1.643-11.915s9.037,13.146,31.633,13.146
			c22.593,0,32.863-7.395,32.863-7.395s-1.231,7.804-10.681,21.361c-9.448,13.557-11.502,18.897-11.502,18.897
			s4.108,3.698,9.448,6.573c5.342,2.876,10.682,3.287,10.682,3.287s4.93-15.201,14.788-25.472
			c9.86-10.271,5.75-11.093,14.379-22.593c8.626-11.503,7.804-19.721,8.628-25.061c0.819-5.341,4.517-3.698,2.464-11.913
			c-2.054-8.215-2.877-10.681-3.697-17.254c-0.822-6.572-6.574-30.81-17.255-48.475
			C335.577,104.304,320.787,100.195,320.787,100.195z"/>
		<path fill="#ECAF8B" d="M301.479,95.677c0,0,11.501,8.626,5.751,29.167c-5.751,20.542-20.13,28.756-37.383,25.881
			c-17.254-2.875-17.254-11.091-22.183-16.432c-4.93-5.34-3.698-23.416-2.875-25.059C245.61,107.59,266.561,95.266,301.479,95.677z"
			/>
		<path fill="#FFFFFF" d="M262.658,57.985c1.037-0.693,2.875-0.987,4.02-1.177c1.7,2.134,3.159,5.181,2.714,8.216
			c-2.239-1.508-4.147-4.132-5.501-6.73"/>
		<path fill="#5E4732" d="M267.278,57.985c0,0,5.546-2.773,12.017,1.233c6.469,4.005,16.637,12.632,17.561,20.643
			c0.926,8.011-1.233,11.708-1.539,17.87c-0.31,6.162,8.318,8.318,8.318,8.318s-3.698,5.546-12.941,2.465
			c-9.243-3.081-11.707-12.015-11.398-21.567c0.307-9.551-1.232-17.254-2.773-19.102c-1.541-1.849-6.163-2.773-6.163-2.773
			S268.511,59.834,267.278,57.985z"/>
		<path fill="#ECAF8B" d="M264.506,261.948c3.717,10.779,10.335,17.646,9.504,30.456c-6.454-1.979-7.311-9.323-11.275-13.799
			c-3.519,10.31-5.104,21.431-18.88,21.538c-4.637-10.018,1.405-18.466,2.85-27.941c1.616-10.611,6.586-11.394,17.186-9.945"/>
		<path fill="#ECAF8B" d="M306.408,263.181c-13.716,5.718-16.04,16.541-18.529,29.602c19.152,3.435,32.467-2.673,35.749-21.236
			c-7.378-0.413-14.139-5.284-16.913-10.214"/>
		<path fill="#1083AA" d="M249.409,171.367c-0.371,7.92,0.009,17.338,3.038,24.241c1.416,3.225,2.701,5.121,3.301,8.51
			c0.248,1.4-2.884,3.106,1.109,5.769c0.04-0.047,3.032,16.084,3.268,18.901c0.366,4.381,0.657,9.59,2.772,13.312
			c0.319-9.154-0.077-18.313,2.203-26.99c0.251-0.961,2.252-4.284,2.201-5.504c-0.122-2.866-3.299-3.946-3.363-7.079
			c3.995,0.241,8.952-0.267,11.313-3.375c-7.154,0.123-14.257,0.123-18.448-5.907c-3.987-5.743-0.979-13.387-5.853-18.486"/>
		<path fill="#1083AA" d="M327.668,159.351c-6.948,9.724,13.131,25.265-5.146,35.146c2.584-0.787,5.238-2.504,7.572-3.371
			c0.53,8.096,2.823,10.771-2.76,18.963c11.652,0.602,8.957-0.825,10.807-7.912c0.943-3.603,4.161-5.992,1.848-10.167
			c-4.926-8.911-6.777-30.502-12.016-28.962"/>
		<path fill="#485350" d="M350.16,246.236c-4.366,8.281-4.603,17.569-9.145,25.872c-3.756,6.867-8.386,12.811-12.092,19.647
			c15.532,5.702,17.385-33.995,20.618-42.747"/>
		<path fill="#485350" d="M287.613,236.684c8.11,10.925,3.531,20.41,3.632,32.568c0.397-8.881,6.228-13.772,6.752-26.343
			c-2.415-0.781-4.374-1.979-6.377-3.452"/>
		<path fill="#CC9A7C" d="M263.275,124.023c2.62,9.488-11.179,9.012-17.914,8.555c-5.28-9.444,13.687-10.648,19.555-8.966"/>
		<path fill="#ECAF8B" d="M211.924,99.374c2.877,4.519,1.232,5.752,7.806,9.038c6.572,3.287,8.215,4.107,8.627,9.037
			c0.411,4.931,1.232,6.984,1.232,6.984s1.232,1.232,4.93-0.41c3.697-1.644,4.107,0.41,4.107,0.41v1.644h4.93
			c0,0-0.412,3.286,1.644,3.286c2.054,0,3.285,0,4.93,1.644c1.644,1.644,5.341,1.233,8.217-1.644c2.875-2.875,5.34-6.162,5.34-6.162
			s13.557-13.146,14.379-18.896c0.821-5.751,1.643-6.984-1.643-13.557c-3.287-6.573-6.983-16.022-11.914-18.898
			c-4.929-2.875-26.291-9.038-33.275-4.518c-6.984,4.518-18.487,18.075-19.308,22.184C211.104,93.622,211.924,99.374,211.924,99.374
			z"/>
		<path fill="#CC9A7C" d="M256.803,82.634c-1.331,2.794,0.384,5.377,1.905,7.649c1.162,0.326,2.083,0.292,3.287,0.315
			c0.558-3.137-0.722-5.329-3.904-5.244c0.003-1.038-0.682-3.555-0.672-3.645"/>
		<path fill="#5E4732" d="M273.751,84.79c-2.158-1.231-5.24-2.772-6.472-3.081c-1.233-0.308-4.62-0.616-4.62-0.616
			s-3.391-4.005-7.395-2.157c-4.007,1.849-2.774,5.854-2.465,7.703c0.307,1.848,0,4.313-2.158,4.93
			c-2.155,0.616-2.155,0.616-2.155,0.616s-4.623-3.697-8.937-3.697c-4.313,0-7.701,0.616-11.398,0.616s-8.32-1.232-8.32-1.232
			s0,1.541,1.848,2.156c1.849,0.616,4.313,1.541,4.313,1.541s-1.849,0.309-4.313,0.309c-2.465,0-4.62,0-4.62,0
			s2.155,2.773,4.004,3.697c1.849,0.925,5.856,1.848,5.856,1.848s-2.775,0.616-7.088-0.616c-4.313-1.232-5.853-2.772-5.853-2.772
			s1.54,3.697,3.388,5.854c1.848,2.157,6.161,4.313,6.161,4.313s-4.313,1.541-10.475-1.849c-6.162-3.389-7.701-8.934-7.701-8.934
			s-7.087-2.465-4.929-8.936c2.155-6.471,5.546-7.703,5.546-7.703s0.616-10.783,9.859-18.178
			c9.243-7.395,21.875-11.091,35.431-6.778c13.557,4.313,18.18,12.632,19.102,18.486C271.286,76.164,273.751,84.79,273.751,84.79z"
			/>
		<path fill="#1083AA" d="M249.719,209.059c-3.198,0.355-6.848,0.049-9.506-0.81c4.587-1.419,9.759-3.846,13.673-0.005
			c-0.665,0.184-1.265,0.565-1.702,1.225"/>
		<path fill="#1083AA" d="M365.975,195.912c-3.851,1.832-8.034,2.978-12.137,3.788c2.43,0.759,2.897,2.185,4.203,3.126
			c-1.997,0.22-4.441,1.146-6.275,1.223c6.58-1.765,9.662,2.139,10.512,7.475c2.482-4.747,0.977-9.944,2.465-14.789"/>
	</g>
	<g>
		<g>
			<path fill="#020202" d="M224.863,151.392c1.488,5.948,3.387,11.753,5.051,17.653c0.727,2.579,0.779,5.38,1.172,8.035
				c0.373,2.521-0.357,5.025-0.328,7.559c0.067,5.669-0.023,13.158,4.723,17.137c0.247-0.296,1.131-1.063,0.837-1.342
				c-0.876-0.83-1.388-2.119-1.928-3.192c-1.303-2.591-0.307-5.64-0.433-8.465c-0.13-2.899-0.115-5.724-0.123-8.628
				c-0.014-4.285-1.849-8.625-3.027-12.704c-2.763-9.577-5.86-19.16-6.396-29.191c-0.178-3.367-0.563-6.798,0.267-10.082
				c0.273-1.078,1.009-1.951,1.509-2.948c0.197-0.397,0.254-0.824,0.509-1.189c0.365-0.523-0.693-0.328-1.164-0.699
				c-0.203-0.16-0.339-1.003-0.542-1.162c-2.448,3.115-2.837,7.729-3.006,11.565C221.721,139.728,223.415,145.595,224.863,151.392"
				/>
		</g>
	</g>
	<g>
		<g>
			<path fill="#020202" d="M232.026,203.188c0.193,2.771,3.748,4.286,5.999,5.062c0.11-0.322,0.755-1.499,0.632-1.783
				c-1.518-0.523-3.314-1.129-4.405-2.355c-1.033-1.161-0.027-2.107,1.092-2.743c0.605-0.345-0.247-1.333-0.532-1.889
				c-1.409,0.724-3.038,1.947-2.913,3.719"/>
		</g>
	</g>
	<g>
		<g>
			<path fill="#020202" d="M236.699,216.042c0.221,1.318,0.316,2.638,0.427,3.969c0.123,1.458-0.031,1.503-1.088,2.455
				c-1.713,1.54-1.446,3.85-0.078,5.596c1.244,1.591,4.488,3.059,4.822,5.14c0.187,1.168-0.295,2.018-0.515,3.086
				c-0.251,1.228-1.59,1.814-2.188,2.895c-2.228,4.025,3.138,6.619,5.21,9.379c0.585,0.772,2,2.305,1.748,3.325
				c-0.145,0.579-1.671,1.577-1.378,1.892c0.367,0.396,0.78,0.761,1.147,1.152c1.483-1.377,2.734-3.272,1.491-5.18
				c-0.686-1.051-1.849-1.824-2.607-2.829c-1.24-1.638-4.007-3.221-4.241-5.402c-0.151-1.412,1.594-2.531,2.101-3.735
				c0.259-0.608,0.428-1.077,0.749-1.672c0.248-0.459,0.325-1.071,0.44-1.587c0.659-2.898-2.161-4.915-3.974-6.649
				c-0.679-0.646-2.346-1.931-1.831-3.041c0.481-1.04,1.725-1.476,2.17-2.6c0.47-1.19,0.035-2.859-0.132-4.084
				c-0.227-1.633-0.19-3.302-0.414-4.941c-0.059-0.418-0.678-3.988-0.63-3.983c-0.595-0.042-1.541-0.415-2.133-0.453
				c-0.165,2.399,0.854,4.853,1.25,7.209"/>
		</g>
	</g>
	<g>
		<g>
			<path fill="#020202" d="M244.008,251.475c0,4.104,0.668,8.154,0.723,12.26c0.019,1.566,0.061,3.309-0.681,4.733
				c-0.284,0.547-0.457,0.58,0.025,0.978c0.353,0.29,0.679,0.412,1.03,0.7c2.312-2.804,1.493-7.44,1.151-10.749
				c-0.234-2.278-0.513-4.565-0.634-6.854c-0.037-0.717,0.353-1.102-0.389-1.102c-0.458,0-0.998,0.012-1.453,0.012"/>
		</g>
	</g>
	<g>
		<g>
			<path fill="#020202" d="M262.76,219.434c-0.248,4.292-1.188,8.566-0.673,12.847c0.412,3.405,1.825,6.882,1.488,10.317
				c-0.248,2.517-1.002,4.983-1.234,7.503c-0.403,4.377,0.146,8.607,1.543,12.786c0.563-0.189,1.078-0.713,1.644-0.901
				c-0.017,0.008-1.086-3.81-1.173-4.31c-0.469-2.713-0.205-5.45,0.078-8.176c0.416-3.986,0.548-7.88,0.188-11.895
				c-0.508-5.654-1.123-11.053-0.806-16.773c0.163-2.932,0.106-5.84,0.222-8.775c-0.194-0.002-1.38-0.055-1.383-0.006
				c-0.027,0.732,0.15,1.474,0.122,2.206c-0.067,1.722-0.47,3.427-0.537,5.147"/>
		</g>
	</g>
	<g>
		<g>
			<path fill="#020202" d="M242.184,268.813c0.506,0.623,0.529,1.063,1.21,0.524c0.76-0.598,1.582-1.129,2.38-1.67
				c2.053-1.393,4.357-2.368,6.665-3.286c2.582-1.026,5.274-2.082,8.062-2.056c1.457,0.014,2.961,0.269,4.358,0.674
				c0.23,0.068,1.51,0.779,1.563,0.65c0.147-0.353,0.35-0.724,0.496-1.075c-8.548-3.559-17.874,1.008-24.556,6.439"/>
		</g>
	</g>
	<g>
		<g>
			<path fill="#020202" d="M296.375,97.063c12.168,1.444,25.259,2.504,35.18,10.376c11.049,8.768,19.704,20.857,23.8,34.311
				c3.368,11.05,5.732,22.539,7.907,33.88c0.552,2.87,1.506,5.665,2.033,8.533c0.325,1.768,0.654,3.581,0.355,5.382
				c-0.067,0.395-0.854,3.135-0.937,3.06c0.437,0.405,1.078-0.359,1.514,0.048c1.163-1.256,3.171-2.435,2.748-4.227
				c-0.38-1.63-2.633-2.594-2.993-4.231c-0.51-2.313,0.356-4.953-0.071-7.29c-1.697-9.205-4.791-18.145-7.149-27.204
				c-2.391-9.185-5.283-17.883-10.365-25.968c-3.495-5.563-7.127-11.244-11.995-15.658c-5.467-4.954-11.903-7.669-19.071-9.634
				c-4.587-1.26-9.342-1.552-14.053-2.179c-1.638-0.218-3.133-1.533-4.775-1.727c-0.214-0.025-2.168,0.154-2.186,0.292
				c-0.08,0.589-0.537,1.127-0.616,1.717"/>
		</g>
	</g>
	<g>
		<g>
			<path fill="#020202" d="M364.599,203.411c0,3.015-1.013,6.112-2.208,8.858c-2.668,6.139-7.005,11.367-10.648,16.935
				c-1.506,2.301-3.263,4.464-4.535,6.901c-1.144,2.185-2.305,4.351-3.682,6.403c-1.622,2.423-3.97,4.41-6.461,5.894
				c-0.405,0.241-0.415,1.351-0.854,1.531c-0.04,0.018,0.317,0.912,0.386,1.093c1.975-0.743,3.946-1.977,5.532-3.315
				c2.961-2.499,4.869-5.281,6.557-8.695c3.508-7.091,7.898-13.522,11.849-20.345c2.412-4.168,5.407-8.67,5.845-13.546
				c0.277-3.105-0.445-6.277-0.052-9.383c0.214-1.694,0.055-3.468,0.36-5.146c0.118-0.651,0.898-0.66,0.207-0.797
				c-0.447-0.09-1.155-0.434-1.601-0.522c-0.919,4.595-0.946,9.445-0.946,14.136"/>
		</g>
	</g>
	<g>
		<g>
			<path fill="#020202" d="M333.827,255.481c-2.665,3.374-5.015,6.656-6.62,10.659c-0.784,1.96-1.192,4.087-2.135,5.979
				c-0.444,0.895,0.382,0.866,1.17,1.281c2.015-3.816,3.19-7.996,5.447-11.694c2.477-4.062,5.773-7.482,8.023-11.699
				c-0.807-0.43-1.411-1.243-1.919-0.356c-1.174,2.049-2.513,3.979-3.97,5.827"/>
		</g>
	</g>
	<g>
		<g>
			<path fill="#020202" d="M337.196,199.055c-0.286,0.185-0.468,0.532-0.755,0.716c0.725,0.899,0.962,1.789,1.323,2.908
				c0.208,0.65,0.901,1.33,1.192,1.946c-0.609,0.314-1.472,0.609-1.968,1.081c-2.259,2.142-3.439,5.284-4.665,8.09
				c-1.468,3.356-3.031,6.659-4.658,9.946c-0.674,1.362-1.468,2.619-2.465,3.773c-0.498,0.573,0.646,1.146,1.134,1.615
				c3.791-3.951,5.355-9.928,7.489-14.829c1.031-2.369,2.072-4.98,3.813-6.927c1.089-1.215,2.493-1.474,4.007-1.873
				c-1.275-1.583-1.57-3.287-2.391-5.134c0.32-0.149,2.986-0.925,2.975-0.731c0.036-0.595,0.229-1.132,0.265-1.726
				c-1.813-0.113-3.66,0.326-5.187,1.318"/>
		</g>
	</g>
	<g>
		<g>
			<path fill="#020202" d="M317.337,244.196c-0.726,1.129-1.899,1.995-2.572,3.155c-1.092,1.88-1.597,4.011-2.52,5.962
				c-0.856,1.823-2.003,3.375-3.438,4.775c-0.325,0.315-2.785,2.717-2.764,2.745c0.367,0.469,0.553,1.035,0.92,1.503
				c2.573-2.021,4.922-4.394,6.535-7.287c1.303-2.335,1.751-5.059,3.21-7.316c3.831-5.932,7.983-11.722,11.009-18.12
				c-0.294-0.14-0.957-0.654-1.231-0.56c-0.831,1.753-2.118,3.247-3.091,4.927c-1.983,3.425-4.215,6.691-6.369,10.012"/>
		</g>
	</g>
	<g>
		<g>
			<path fill="#020202" d="M329.622,163.394c1.71,2.518,3.155,5.247,4.044,8.175c0.721,2.374,1.11,4.839,1.513,7.28
				c0.493,3,1.621,5.635,2.829,8.408c0.708,1.629,1.044,3.371,1.223,5.155c0.053,0.528-0.008,1.927,0.579,1.993
				c0.407,0.044,1.149-0.131,1.559-0.085c0.387-3.523-1.688-6.842-3.051-9.967c-0.96-2.209-1.413-4.406-1.801-6.765
				c-0.382-2.32-0.784-4.646-1.515-6.888c-0.946-2.912-2.607-5.479-4.316-8.003c-0.426,0.287-0.573,0.382-0.997,0.67"/>
		</g>
	</g>
	<g>
		<g>
			<path fill="#020202" d="M339.248,195.066c-0.937-0.066-0.72,1.575-0.662,2.17c0.171,1.718,1.134,3.223,2.41,4.341
				c0.272-0.31,0.509-0.728,0.78-1.037c0.389-0.441-0.465-0.934-0.772-1.363c-0.447-0.623-0.757-1.317-0.832-2.082
				c-0.102-1.02,0.638-0.875,1.468-1.178c2.765-1.001,5.263-2.914,5.975-5.871c-0.297-0.07-1.435-0.54-1.692-0.421
				c-0.217,0.892-0.477,1.814-1.057,2.526c-1.368,1.681-3.552,2.478-5.616,2.924"/>
		</g>
	</g>
	<g>
		<g>
			<path fill="#020202" d="M341.732,203.096c0.068,0.406,0.132,0.733,0.202,1.138c7.439-1.27,14.482-3.797,21.407-6.721
				c-0.147-0.35-0.121-0.782-0.27-1.132c-0.063-0.154-2.12,0.653-2.388,0.763c-1.966,0.815-3.937,1.604-5.937,2.325
				c-4.247,1.536-8.559,2.876-13.011,3.635"/>
		</g>
	</g>
	<g>
		<g>
			<path fill="#020202" d="M344.35,201.771c4.367,2.22,9.136,4.352,14.123,4.395c0.002-0.306-0.049-0.591-0.049-0.896
				c0.005-0.631-1.203-0.24-1.736-0.302c-1.824-0.211-3.562-0.915-5.293-1.518c-1.697-0.596-3.357-1.28-4.978-2.063
				c-0.203-0.099-1.494-0.76-1.571-0.608c-0.173,0.34-0.304,0.633-0.479,0.971"/>
		</g>
	</g>
	<g>
		<g>
			<path fill="#020202" d="M237.634,202.694c-0.24-0.013-0.339,0.114-0.579,0.149c0.971,2.784,2.967,3.344,5.747,3.412
				c1.016,0.022,2.028,0.248,3.044,0.275c0.996,0.027,0.767-0.314,0.851-1.286c-2.306-0.064-6.229,0.63-7.862-1.3
				c6.368-0.718,12.793-0.016,19.133,0.636c0.127-1.256,0.278-1.223-0.983-1.35c-1.819-0.188-3.66-0.136-5.482-0.293
				c-4.601-0.399-9.282-0.923-13.872-0.269"/>
		</g>
	</g>
	<g>
		<g>
			<path fill="#020202" d="M248.961,208.894c-0.979-0.009-1.996-0.035-2.976-0.044c0,0.33-0.166,1.317,0.222,1.32
				c0.852,0.008,1.701,0.056,2.553,0.063c3.425,0.025,6.91,0.212,10.311-0.262c-0.052-0.377-0.152-0.85-0.205-1.227
				c-0.016-0.122-2.554,0.099-2.889,0.117c-2.337,0.122-4.678,0.246-7.017,0.221"/>
		</g>
	</g>
	<g>
		<g>
			<path fill="#020202" d="M238.156,157.863c0.215,2.803,2.826,5.125,4.549,7.159c2.177,2.573,4.554,5,6.527,7.738
				c2.076,2.882,3.114,5.983,3.792,9.478c0.489,2.524,1.069,5.01,1.916,7.45c1.954,5.622,7.44,10.02,13.319,10.545
				c5.271,0.472,10.648-1.893,14.689-5.124c-0.675-0.846-0.882-1.364-1.775-0.7c-0.933,0.694-1.794,1.49-2.809,2.053
				c-2.585,1.424-5.478,2.726-8.448,2.789c-6.175,0.125-12.6-4.383-14.448-10.312c-0.801-2.565-1.194-5.254-1.772-7.872
				c-0.868-3.939-2.74-6.934-5.156-10.117c-2.047-2.698-3.827-5.583-5.95-8.219c-0.902-1.121-2.333-2.039-2.873-3.385
				c-0.084-0.213-0.015-1.763-0.109-1.756c-0.379,0.029-1.139,0.19-1.518,0.22"/>
		</g>
	</g>
	<g>
		<g>
			<path fill="#020202" d="M261.371,216.142c10.017,6.279,20.038,14.033,32.272,14.618c6.091,0.291,12.204-0.892,18.15-2.142
				c5.597-1.178,11.611-2.196,16.619-5.042c-0.203-0.356-0.47-0.798-0.673-1.156c-0.263-0.464-0.458,0.371-0.862,0.578
				c-1.142,0.584-2.519,0.715-3.713,1.174c-2.986,1.157-5.932,2.629-9.041,3.369c-6.171,1.468-12.744,2.199-19.104,2.103
				c-12.491-0.193-23.202-7.542-33.383-13.921c-0.27,0.439-0.534,0.419-0.806,0.858"/>
		</g>
	</g>
	<g>
		<g>
			<path fill="#020202" d="M261.692,200.25c1.119,3.203,3.102,6.084,5.062,8.823c-1.964,0.805-2.122,2.555-1.993,4.445
				c0.073,1.127-0.037,2.345-0.629,3.359c0.115,0.274,1.075,0.626,1.347,0.785c1.154-1.97,0.251-3.95,0.646-6.009
				c0.264-1.385,2.017-1.459,3.145-1.672c-1.31-1.818-2.572-3.703-3.744-5.615c-0.813-1.324-1.563-2.673-2.128-4.123
				c-0.326-0.841-0.985-0.238-1.748,0.029"/>
		</g>
	</g>
	<g>
		<g>
			<path fill="#020202" d="M299.152,95.246c5.597,4.875,10.26,10.455,10.072,18.078c-0.102,4.214-1.364,8.388-2.557,12.407
				c-1.088,3.672-2.499,7.069-4.342,10.439c-4.275,7.816-12.022,11.968-20.548,13.914c-9.272,2.117-17.698-0.279-25.269-5.894
				c-2.446-1.815-4.57-3.734-6.233-6.289c-0.887-1.363-1.878-2.639-2.592-4.101c-0.451-0.921-0.561-2.064-0.98-3
				c-0.195-0.064-1.452,0.713-1.659,0.806c1.512,3.387,3.639,6.42,6.022,9.293c2.489,3,5.556,5.24,8.917,7.176
				c8.518,4.91,18.027,5.468,27.146,2.174c7.937-2.865,12.934-7.026,17.017-14.469c2.208-4.028,3.238-8.437,4.269-12.174
				c1.086-3.94,1.322-8.056,1.14-12.163c-0.321-7.224-3.646-13.284-8.95-17.904c-0.269,0.31-0.521,0.659-0.791,0.967"/>
		</g>
	</g>
	<g>
		<g>
			<path fill="#020202" d="M330.903,148.562c-0.973,3.522-1.774,7.359-3.498,10.603c-1.366,2.566-2.883,4.448-1.938,7.486
				c0.289-0.09,0.666-0.172,0.956-0.262c0.597-0.186-0.194-1.208-0.236-1.762c-0.102-1.302,0.605-2.387,1.271-3.457
				c1.013-1.78,1.752-3.569,2.397-5.518c0.885-2.662,1.726-5.336,2.487-8.035c0.256-0.904,0.349-1.855,0.603-2.761
				c0.208-0.743-0.422-0.718-1.105-0.92c-0.418,1.48-0.862,3.05-1.281,4.53"/>
		</g>
	</g>
	<g>
		<g>
			<path fill="#020202" d="M264.128,263.661c3.97,3.336,3.43,10.127,5.503,14.53c1.072,2.277,1.951,4.582,2.396,7.055
				c0.065,0.366,0.489,3.476,0.583,3.462c0.588-0.087,1.317-0.295,1.904-0.381c-0.34-2.325-0.668-4.729-1.33-6.988
				c-0.653-2.228-2.079-4.172-2.745-6.391c-1.255-4.187-1.6-9.659-5.168-12.658c-0.394,0.473-0.664,0.859-1.059,1.329"/>
		</g>
	</g>
	<g>
		<g>
			<path fill="#020202" d="M262.697,279.711c2.111,1.492,2.669,3.671,3.279,6.054c0.628,2.451,1.758,4.615,3.839,6.176
				c0.204-0.271,1.122-1.144,1.095-1.455c-1.413-1.062-2.175-2.556-2.673-4.226c-0.935-3.141-1.571-6.078-4.437-8.106
				c-0.355,0.505-0.667,0.958-1.022,1.461"/>
		</g>
	</g>
	<g>
		<g>
			<path fill="#020202" d="M258.608,288.382c-0.306,1.046-0.666,2.078-0.97,3.126c-0.263,0.905,0.786,0.807,1.566,1.061
				c0.722-2.491,1.431-4.98,2.19-7.461c0.629-2.049,1.233-4.171,2.293-6.044c0.213-0.377,1.232-1.309,0.898-1.588
				c-0.414-0.345-0.898-0.74-1.312-1.085c-2.718,3.262-3.79,7.936-4.893,11.928"/>
		</g>
	</g>
	<g>
		<g>
			<path fill="#020202" d="M241.555,284.824c0.553,0.271,1.074,0.543,1.629,0.818c2.917-5.868,4.271-12.361,5.657-18.728
				c-0.903-0.196-1.735-0.804-1.959,0.224c-0.448,2.041-0.803,4.104-1.319,6.128c-1.009,3.953-2.283,7.853-4.104,11.515"/>
		</g>
	</g>
	<g>
		<g>
			<path fill="#020202" d="M241.694,282.172c1.107,5.254-1.41,11.268,1.339,16.194c0.278-0.155,1.538-0.6,1.614-0.873
				c-0.752-1.349-1.122-2.914-1.159-4.43c-0.093-3.739,0.773-7.552-0.006-11.257c-0.603,0.128-1.035,0.244-1.638,0.372"/>
		</g>
	</g>
	<g>
		<g>
			<path fill="#020202" d="M252.395,286.163c0.079,1.605,0.004,3.228-0.129,4.83c-0.02,0.248-0.302,1.809-0.14,1.824
				c0.379,0.045,0.696,0.106,1.074,0.15c0.263-2.281,0.493-4.571,0.38-6.868c-0.41,0.021-0.769,0.055-1.18,0.075"/>
		</g>
	</g>
	<g>
		<g>
			<path fill="#020202" d="M247.28,293.073c0.076,0.639,0.124,1.283,0.203,1.924c0.085,0.709,0.614,0.354,1.259,0.304
				c-0.1-0.814-0.146-1.596-0.251-2.406c-0.18-1.214-0.292-2.438-0.261-3.668c-0.178-0.146-0.989-0.009-1.234-0.016
				c-0.034,1.301,0.145,2.568,0.333,3.854"/>
		</g>
	</g>
	<g>
		<g>
			<path fill="#020202" d="M243.836,290.604c0,1.511,0.003,3.022,0.003,4.529c0,0.855,0.041,1.71,0.041,2.565
				c0,0.449,1.021,0.602,1.265,0.348c0.145-0.151-0.054-1.201-0.054-1.398c0-1.061,0.039-2.122,0.039-3.181
				c0-0.854-0.107-1.711-0.107-2.563c0-0.577-0.677-0.296-1.161-0.296"/>
		</g>
	</g>
	<g>
		<g>
			<path fill="#020202" d="M252.077,286.461c0.106,0.594,0.898,0.093,1.335-0.04c-0.301-0.983-0.712-2.038-0.641-3.085
				c0.036-0.517,0.447-0.767-0.021-1.06c-0.258-0.161-0.544-0.329-0.801-0.49c-0.886,1.413-0.272,3.204,0.174,4.662"/>
		</g>
	</g>
	<g>
		<g>
			<path fill="#020202" d="M304.22,261.537c4.461,2.956,8.038,7.161,12.895,9.526c2.281,1.111,4.602,1.421,7.098,1.213
				c1.254-0.105,2.482-0.153,3.74-0.108c0.884,0.03,0.685-0.762,0.741-1.56c-2.059-0.146-4.139,0.314-6.189,0.354
				c-2.334,0.046-4.496-0.512-6.483-1.687c-4.071-2.409-7.171-6.191-11.106-8.792c-0.227,0.342-0.475,0.718-0.7,1.061"/>
		</g>
	</g>
	<g>
		<g>
			<path fill="#020202" d="M299.003,266.848c-1.489,1.332-3.09,2.624-4.967,3.386c-0.694,0.281-1.438,0.129-1.297,0.963
				c0.078,0.451,0.039,0.954,0.115,1.404c3.544-0.601,6.021-3.369,8.626-5.598c1.25-1.071,2.643-1.991,4.215-2.541
				c0.869-0.304,0.229-1.207,0.007-2.015c-2.65,0.729-4.764,2.53-6.768,4.325"/>
		</g>
	</g>
	<g>
		<g>
			<path fill="#020202" d="M290.709,276.716c-1.328,2.594-1.844,5.1-1.873,8c-0.012,1.161-0.254,2.244-0.612,3.346
				c-0.228,0.699-0.916,1.437-0.093,1.751c0.427,0.161,0.716,0.249,1.143,0.409c0.619-1.628,1.365-3.224,1.433-4.983
				c0.046-1.231-0.061-2.483,0.178-3.701c0.38-1.947,1.529-3.645,2.394-5.403c0.983-2.001,2.016-4.041,2.79-6.128
				c-0.428-0.162-1.039-0.372-1.47-0.531c-0.884-0.329-0.942,1.433-1.238,2.155c-0.724,1.771-1.749,3.399-2.62,5.103"/>
		</g>
	</g>
	<g>
		<g>
			<path fill="#020202" d="M316.851,285.614c0.372,0.491,0.657,0.882,1.03,1.371c4.436-3.365,6.738-9.278,6.805-14.708
				c-0.332-0.004-1.583-0.2-1.806,0c-0.02,1.701-0.392,3.389-0.855,5.023c-0.891,3.131-2.615,6.239-5.246,8.239"/>
		</g>
	</g>
	<g>
		<g>
			<path fill="#020202" d="M292.005,284.045c-0.798,1.742-1.548,3.499-2.399,5.215c-0.14,0.277-1.126,2.113-0.99,2.185
				c0.333,0.182,0.501,0.443,0.835,0.624c1.827-3.373,3.301-6.9,4.934-10.371c0.8-1.699,1.65-3.388,2.563-5.03
				c0.148-0.266,1.347-1.946,1.224-2.022c-0.322-0.201-0.542-0.461-0.864-0.664c-2.016,3.222-3.755,6.601-5.337,10.048"/>
		</g>
	</g>
	<g>
		<g>
			<path fill="#020202" d="M299.175,285.551c-1.314,1.475-2.818,2.957-3.531,4.834c0.734,0.279,1.028,0.687,1.396-0.071
				c0.633-1.307,1.585-2.447,2.54-3.526c0.806-0.909,1.585-1.825,2.369-2.756c-0.478-0.354-0.765-0.923-1.196-0.413
				c-0.537,0.634-1.118,1.23-1.655,1.868"/>
		</g>
	</g>
	<g>
		<g>
			<path fill="#020202" d="M305.281,287.327c0.251,0.325,0.483,0.661,0.735,0.982c0.786-0.681,1.604-1.353,2.39-2.033
				c-0.583-0.606-0.688-1.098-1.351-0.522c-0.604,0.521-1.172,1.089-1.776,1.612"/>
		</g>
	</g>
	<g>
		<g>
			<path fill="#020202" d="M356.442,230.179c0.088,1.421,0.095,2.643-0.86,3.791c-0.771,0.925-1.8,1.619-2.714,2.395
				c-0.776,0.657-0.042,0.94,0.536,1.628c2.46-2.063,4.862-3.801,4.704-7.215c-0.051-1.113-0.097-2.222-0.125-3.336
				c-0.031-1.35-0.239-0.989-1.594-1.026c0.031,1.279,0.013,2.485,0.043,3.764"/>
		</g>
	</g>
	<g>
		<g>
			<path fill="#020202" d="M350.783,243.319c-1.132,2.817-2.562,5.511-3.336,8.456c-1.295,4.926-1.372,10.156-2.699,15.081
				c-0.943,3.489-1.859,7.006-2.875,10.474c-0.778,2.667-1.706,5.386-2.93,7.885c-0.162,0.331-2.319,3.132-2.289,3.151
				c0.5,0.324,1.391,0.604,1.892,0.924c3.35-5.2,5.06-11.368,6.567-17.295c0.822-3.125,0.971-6.427,1.697-9.574
				c1.192-5.179,2.232-10.364,4.219-15.321c1.834-4.577,3.795-9.085,4.527-14.001c-0.45-0.068-0.492,0.143-0.944,0.076
				c-0.927-0.14-0.605,1.452-0.807,2.233c-0.71,2.731-2.226,5.189-3.317,7.787"/>
		</g>
	</g>
	<g>
		<g>
			<path fill="#020202" d="M297.565,242.722c0.205,6.017-1.922,11.549-3.793,17.156c-1.838,5.514-3.081,11.163-3.81,16.935
				c1.294,0.164,1.225,0.284,1.425-1.128c0.253-1.787,0.825-3.509,1.201-5.275c0.629-2.964,1.173-5.938,2.107-8.821
				c1.997-6.177,4.758-12.317,4.535-18.937c-0.411,0.014-1.321,0.038-1.733,0.049"/>
		</g>
	</g>
	<g>
		<g>
			<path fill="#020202" d="M283.705,234.119c3.989,4.048,8.892,8.021,14.302,9.897c0.125-0.357,0.245-0.855,0.371-1.216
				c0.042-0.131-1.644-0.667-1.891-0.78c-1.879-0.858-3.684-1.921-5.385-3.092c-1.69-1.161-3.31-2.454-4.84-3.821
				c-0.619-0.558-1.115-1.265-1.698-1.855c-0.197,0.005-0.816,0.822-0.972,0.975"/>
		</g>
	</g>
	<g>
		<g>
			<path fill="#020202" d="M296.525,243.577c0.21,0.22,0.529,0.449,0.738,0.672c0.421,0.442,0.903-0.301,1.269-0.641
				c1.333-1.23,2.708-2.406,4.136-3.528c1.523-1.199,3.113-2.297,4.804-3.247c0.25-0.141,1.973-1.085,1.919-1.205
				c-0.155-0.347-0.276-0.615-0.43-0.963c-4.678,2.078-8.775,5.395-12.452,8.888"/>
		</g>
	</g>
	<g>
		<g>
			<path fill="#020202" d="M243.024,265.562c-0.129,2.683-0.136,5.371-0.264,8.052c-0.077,1.614-0.472,3.212-0.549,4.825
				c-0.068,1.42-0.05,1.108,1.469,1.199c0.215-4.48,0.626-8.887,0.837-13.371c0.081-1.632,0.351-3.251,0.424-4.881
				c0.061-1.398-0.275-2.811-0.213-4.21c0.049-1.104-0.062-0.689-1.157-0.744c-0.136,3.066-0.592,6.054-0.73,9.121"/>
		</g>
	</g>
	<g>
		<g>
			<path fill="#020202" d="M330.153,176.286c1.22,6.403-1.57,12.241-6.837,15.857c-2.879,1.978-6.212,2.852-9.761,2.762
				c-3.991-0.103-7.759-1.479-11.411-2.939c-0.141,0.353-0.083,0.885-0.224,1.237c-0.065,0.165,2.062,1.214,2.386,1.337
				c2,0.758,4.1,1.416,6.212,1.801c4.459,0.817,8.751-0.173,12.574-2.566c6.127-3.839,9.622-10.442,8.233-17.715
				c-0.401,0.078-0.881,0.172-1.284,0.249"/>
		</g>
	</g>
	<g>
		<g>
			<path fill="#020202" d="M327.208,205.743c-1.873,2.597-3.55,5.294-4.952,8.175c2.128-0.581,4.109-1.368,5.833-2.811
				c-0.244-0.291-0.395-0.531-0.637-0.82c-0.017-0.021-2.37,1.238-2.682,1.379c3.132-5.421,8.157-10.146,9.427-16.478
				c-0.233-0.046-0.991-0.359-1.186-0.255c-0.262,1.308-0.567,2.625-1.141,3.826c-1.21,2.53-3.052,4.698-4.688,6.964"/>
		</g>
	</g>
	<g>
		<g>
			<path fill="#020202" d="M212.161,102.115c1.673,2.585,3.453,5.195,5.94,7.04c2.203,1.633,5.254,2.215,7.155,4.225
				c3.083,3.257,3.344,8.448,4.344,12.644c0.86-0.231,1.815-0.134,1.591-1.074c-0.227-0.945-0.38-1.905-0.593-2.854
				c-0.734-3.266-1.763-6.657-4-9.261c-2.227-2.595-5.637-3.596-8.235-5.755c-1.357-1.129-2.524-2.434-3.573-3.852
				c-0.179-0.24-1.358-1.926-1.468-1.856c-0.407,0.265-0.936,0.584-1.343,0.848"/>
		</g>
	</g>
	<g>
		<g>
			<path fill="#020202" d="M233.913,123.49c-1.086,0.546-2.458,1.282-3.7,0.804c-0.456-0.176-0.601-0.659-0.959-0.238
				c-0.266,0.313-0.522,0.568-0.79,0.881c1.304,1.109,2.885,1.301,4.449,0.736c0.98-0.355,2.986-1.978,4.01-1.452
				c0.635,0.327,0.795,1.349,0.942,1.959c0.112,0.465,0.023,1.15,0.612,1.057c0.405-0.063,0.776-0.143,1.184-0.208
				c-0.197-1.25-0.37-2.764-1.245-3.742c-1.254-1.401-3.084-0.446-4.478,0.256"/>
		</g>
	</g>
	<g>
		<g>
			<path fill="#020202" d="M256.441,129.912c-2.827,1.818-5.285,2.292-7.455-0.567c-0.412-0.633-1.041-0.99-1.853-1.075
				c-0.66-0.07-1.139,0.067-1.763,0.141c-1.714,0.203-1.66-1.476-1.456-2.833c-0.942,0.167-2.017,0.235-2.964,0.363
				c-0.621,0.084-1.209,0.435-1.83,0.518c-0.129,0.018-0.012,1.108-0.002,1.287c1.104-0.148,2.346-0.554,3.444-0.746
				c0.056,1.309,0.646,2.256,1.622,2.938c0.676,0.472,1.654-0.12,2.349-0.369c0.944-0.336,1.405,0.309,1.891,0.988
				c0.647,0.901,1.471,1.936,2.556,2.189c2.647,0.619,5.559-1.567,7.498-3.153c2.467-2.018,4.53-4.499,6.48-7.005
				c-0.689-0.536-0.912-1.118-1.526-0.342c-0.874,1.107-1.499,2.426-2.445,3.47c-1.367,1.511-3.023,2.775-4.745,3.882"/>
		</g>
	</g>
	<g>
		<g>
			<path fill="#020202" d="M218.718,86.832c0.983,2.287,4.029,2.901,6.258,3.12c3.129,0.31,6.3-0.239,9.413-0.586
				c1.632-0.183,3.292,0.039,4.933-0.026c1.683-0.068,3.398-0.217,4.983,0.451c1.767,0.744,2.38,2.579,4.034,3.449
				c0.177-0.337,0.521-0.641,0.7-0.978c-0.018,0.034-1.78-1.768-1.961-1.997c-1.287-1.636-3.129-2.333-5.148-2.468
				c-2.278-0.156-4.577,0.185-6.841,0.418c-3.339,0.379-6.748,0.604-10.108,0.259c-1.286-0.133-2.84-0.006-3.935-0.739
				c-0.475-0.317-0.951-0.806-1.178-1.334c-0.199-0.066-0.781,0.266-0.991,0.356"/>
		</g>
	</g>
	<g>
		<g>
			<path fill="#020202" d="M253.414,86.64c0.006,2.138-2.266,3.669-4.018,4.367c-0.806,0.32-1.689,0.494-2.556,0.556
				c-0.611,0.044-0.351,0.647-0.35,1.203c3.267-0.005,8.158-2.364,8.152-6.126c-0.411,0-0.884-0.032-1.294-0.031"/>
		</g>
	</g>
	<g>
		<g>
			<path fill="#020202" d="M255.6,77.895c-3.842,1.352-4.407,6.024-3.045,9.424c0.351-0.14,0.741-0.129,1.096-0.27
				c-0.015,0.006-0.451-2.652-0.458-3.01c-0.04-1.888,0.585-3.832,2.363-4.676c3.139-1.488,5.215,0.723,6.997,3.013
				c2.023,2.318,2.776,6.224,2.402,9.216c-0.184,1.467-0.831,2.88-2.223,3.586c-0.654,0.332-1.364,0.395-2.092,0.379
				c-0.141,0.148,0.009,1.163,0.003,1.388c6.412,0.124,6.221-7.7,4.618-12.013c-1.417-3.813-5.063-8.444-9.597-6.849"/>
		</g>
	</g>
	<g>
		<g>
			<path fill="#020202" d="M255.699,86.81c0.043,1.619,0.865,2.752,2.611,2.383c0.05,0.246,0.199,2.229,0.149,2.215
				c0.367,0.104,0.706,0.211,1.071,0.314c0.381-1.351,0.068-2.682-0.338-3.983c-0.493,0.178-1.642,0.74-1.992,0.114
				c-0.12-0.216-0.2-1.109-0.335-1.106c-0.381,0.011-0.771,0.045-1.151,0.055"/>
		</g>
	</g>
	<g>
		<g>
			<path fill="#020202" d="M258.203,80.669c-2.324,0.511-3.503,3.203-3.345,5.374c0.805-0.061,1.175,0.221,1.215-0.628
				c0.061-1.253,0.643-2.553,1.73-3.245c1.062-0.675,1.981-0.195,2.545,0.822c0.471,0.853,0.575,0.533,1.483,0.192
				c-0.575-1.534-1.858-3.001-3.649-2.607"/>
		</g>
	</g>
	<g>
		<g>
			<path fill="#020202" d="M256.117,85.133c0.586,0.992,0.477,1.157,1.564,0.685c1.278-0.557,2.712-0.583,3.413,0.807
				c0.497,0.987,0.979,3.364,0.006,4.076c-1.348,0.987-0.267,2.111,0.827,2.647c0.167-0.342,0.396-0.646,0.563-0.988
				c0.097-0.196-0.694-0.398-0.818-0.648c2.053-0.342,1.083-4.469,0.459-5.662c-1.266-2.432-3.939-2.099-5.969-0.903"/>
		</g>
	</g>
	<g>
		<g>
			<path fill="#020202" d="M263.243,80.556c0.016,0.381-0.05,0.838-0.037,1.22c0.004,0.104,1.663,0.201,1.913,0.246
				c1.673,0.291,3.317,0.86,4.798,1.681c1.473,0.815,2.781,1.928,3.981,3.114c0.174,0.172,1.106,1.196,1.209,1.119
				c0.304-0.228,0.781-0.421,1.085-0.649c-2.779-3.714-8.208-6.853-12.942-6.681"/>
		</g>
	</g>
	<g>
		<g>
			<path fill="#020202" d="M233.042,48.892c-15.138,2.092-26.527,15.998-29.142,30.644c1.044,0.186,1.371,0.638,1.607-0.497
				c0.249-1.208,1.012-2.31,1.388-3.484c0.881-2.738,2.084-5.368,3.507-7.866c3.368-5.917,8.27-10.966,14.478-13.891
				c13.491-6.356,33.535-3.352,41.821,9.803c2.227,3.538,3.146,7.839,4.118,11.861c1.086,4.489,1.46,9.231,3.815,13.291
				c0.275-0.16,1.578-0.61,1.65-0.883c-0.815-1.406-1.519-2.814-1.908-4.387c-0.675-2.718-1.142-5.481-1.793-8.204
				c-1.301-5.443-2.993-10.68-6.595-15.074c-7.904-9.64-21-12.58-32.894-10.935"/>
		</g>
	</g>
	<g>
		<g>
			<path fill="#020202" d="M262.867,57.722c0.174,0.175,0.565,0.748,0.794,0.778c0.476-0.475,1.171-0.811,1.856-0.559
				c1.177,0.438,1.951,1.877,2.438,2.934c0.633,1.376,1.093,2.858,1.438,4.332c0.109,0.473,0.192,0.958,0.229,1.442
				c0.153,0.124,1.048-0.068,1.267-0.085c-0.234-3.102-3.567-13.345-8.057-8.87"/>
		</g>
	</g>
	<g>
		<g>
			<path fill="#020202" d="M265.415,58.017c0.428,0.508,1.105,1.828,1.696,1.386c1.059-0.788,2.189-1.439,3.498-1.519
				c3.041-0.186,6.193,0.922,8.822,2.323c5.792,3.088,10.755,7.706,13.841,13.567c1.71,3.249,3.284,6.92,3.256,10.615
				c-0.019,2.42-1.613,4.738-2.034,7.112c-0.58,3.283,0.152,7.105,0.652,10.435c0.555,3.709,2.929,6.042,5.532,8.695
				c0.64-0.629,0.334-0.468-0.351-1.206c-1.216-1.31-2.157-2.829-2.904-4.458c-1.384-3.018-1.883-6.308-1.49-9.553
				c0.318-2.615,1.043-5.188,1.5-7.782c0.637-3.595,0.718-7.423-0.462-10.861c-2.325-6.783-7.428-12.29-13.34-16.205
				c-4.898-3.246-12.643-6.835-17.991-2.291"/>
		</g>
	</g>
	<g>
		<g>
			<path fill="#020202" d="M271.753,63.738c0,1.103-0.295,1.335,0.749,1.553c0.915,0.193,1.894,0.597,2.48,1.307
				c1.597,1.93,1.996,4.815,2.445,7.216c1.154,6.133,0.809,12.373,1.154,18.572c0.336,6.051,3.69,12.308,8.941,15.498
				c2.563,1.56,5.42,2.456,8.407,2.347c2.715-0.099,6.081-1.008,7.621-3.527c-0.351-0.215-0.396-0.666-0.748-0.882
				c-0.44-0.27-0.572,0.719-0.922,1.029c-0.97,0.858-2.364,1.472-3.61,1.723c-3.06,0.617-6.287-0.048-9.072-1.477
				c-5.272-2.705-8.401-8.817-8.751-14.631c-0.367-6.096-0.17-12.225-1.215-18.269c-0.68-3.932-2.37-10.58-7.486-10.569"/>
		</g>
	</g>
	<g>
		<g>
			<path fill="#020202" d="M269.311,65.171c1.896,0.938,4.021,1.332,6.094,1.675c0.285,0.046,1.973,0.538,2.219,0.329
				c0.162-0.138,0.17-0.88,0.205-1.108c-1.659-0.252-3.294-0.593-4.924-0.997c-1.039-0.256-2.066-0.581-3.026-1.058
				c-0.196,0.081-0.456,0.935-0.558,1.139"/>
		</g>
	</g>
	<g>
		<g>
			<path fill="#020202" d="M292.442,96.874c0.399,3.412,1.85,6.682,5,8.31c2.636,1.363,5.762,1.406,8.671,1.29
				c-0.029-0.733,0.251-1.326-0.572-1.307c-1.126,0.025-2.244,0.043-3.364-0.093c-1.757-0.213-3.559-0.582-5.033-1.593
				c-1.315-0.901-2.234-2.229-2.802-3.711c-0.322-0.843-0.581-1.717-0.711-2.611c-0.099-0.687-0.53-0.357-1.146-0.285"/>
		</g>
	</g>
	<g>
		<g>
			<path fill="#020202" d="M272.715,85.303c1.079,3.026,2.817,7.042,6.053,8.27c0.465-1.22,0.499-1.068-0.521-1.8
				c-1.031-0.74-1.845-1.75-2.493-2.828c-0.618-1.028-1.165-2.105-1.605-3.22c-0.403-1.017-0.499-0.778-1.499-0.422"/>
		</g>
	</g>
	<g>
		<g>
			<path fill="#020202" d="M210.071,100.968c2.083,1.865,4.552,3.148,7.27,3.785c1.429,0.335,2.866,0.702,4.333,0.712
				c1.016,0.006,3.396,0.264,3.498-0.924c0.014-0.17,0.268-0.899,0.183-1.055c-0.741-0.242-1.596-0.246-2.31-0.555
				c-1.271-0.551-2.571-1.171-3.688-1.998c-0.922-0.684-1.524-1.736-2.172-2.688c-0.612-0.904-0.827-0.354-1.761,0.138
				c1.326,2.52,3.721,4.289,6.227,5.49c-5.094-0.051-10.117-2.221-13.043-6.491c-1.367-1.993-2.051-4.371-2.446-6.75
				c-0.202-1.231-0.2-2.461-0.176-3.709c0.013-0.71-1.071-0.439-1.693-0.461c-0.198,5.426,1.473,11.025,5.593,14.715"/>
		</g>
	</g>
	<g>
		<g>
			<path fill="#020202" d="M217.127,90.847c-0.38,0.019-0.673-0.062-1.055-0.042c2.202,3.008,4.841,5.023,8.267,6.467
				c-2.286-0.241-4.649-0.671-6.68-1.797c-0.971-0.535-1.764-1.365-2.311-2.345c-0.511-0.919-0.487-0.662-1.492-0.326
				c1.489,4.447,7.36,5.453,11.383,5.758c0.936,0.071,1.878-0.024,2.816-0.024c0.395,0,0.229-0.125,0.287-0.493
				c0.13-0.823-0.091-0.61-0.895-0.896c-3.196-1.14-6.54-2.657-8.916-5.158c2.801-0.008,5.647,0.324,8.441,0.51
				c0.008-0.17,0.117-1.191,0.008-1.199c-0.739-0.049-1.478-0.128-2.217-0.178c-2.543-0.172-5.082-0.335-7.634-0.205"/>
		</g>
	</g>
	<g>
		<g>
			<path fill="#020202" d="M199.946,88.001c0.255,2.97,2,5.296,4.621,6.642c0.13-0.253,0.731-1.034,0.666-1.285
				c-1.127-0.581-2.086-1.438-2.783-2.511c-1.316-2.027-1.157-4.513-0.512-6.75c0.731-2.527,2.109-4.829,3.792-6.838
				c0.736-0.882,1.351-1.913,2.245-2.636c0.601-0.484-0.155-1.009-0.567-1.557c-4.296,3.235-7.956,9.376-7.48,14.937"/>
		</g>
	</g>
	<g>
		<g>
			<path fill="#020202" d="M229.095,109.772c0.174,0.373,0.383,0.818,0.556,1.191c2.195-1.011,4.475-2.278,6.167-4.034
				c-0.273-0.264-0.499-0.551-0.774-0.815c-0.077-0.074-1.397,1.129-1.614,1.283c-1.335,0.957-2.805,1.743-4.294,2.428"/>
		</g>
	</g>
	<g>
		<g>
			<path fill="#020202" d="M232.482,108.191c0.338,0.507,0.725,0.996,1.04,1.52c-0.249-0.078-1.599-0.808-1.61-0.797
				c-0.272,0.265-0.536,0.534-0.809,0.799c0.778,0.799,1.846,1.241,2.939,1.392c0.662,0.091,0.434-0.457,0.858-0.88
				c0.471-0.468-1.294-2.526-1.546-2.893c-0.287,0.292-0.592,0.54-0.878,0.833"/>
		</g>
	</g>
	<g>
		<g>
			<path fill="#020202" d="M222.212,107.73c0.29,0.088,0.554,0.119,0.845,0.207c0.585,0.175,0.54-0.799,0.737-1.273
				c0.442-1.069,1.102-2.094,2.038-2.805c0.859-0.654,1.919-0.898,2.986-0.925c0.213-0.005,1.208,0.084,1.224-0.065
				c0.044-0.377,0.139-0.765,0.181-1.144c-4.318-0.486-6.874,2.094-8.046,5.999"/>
		</g>
	</g>
	<g>
		<g>
			<path fill="#020202" d="M242.106,125.831c0.153,0.381,0.297,0.766,0.451,1.146c1.461-0.588,2.815-1.413,4.027-2.422
				c-0.358-0.429-0.606-1.125-1.1-0.729c-1.032,0.825-2.154,1.517-3.38,2.01"/>
		</g>
	</g>
	<g>
		<g>
			<path fill="#020202" d="M261.689,124.478c0.096,0.769-0.164,1.186,0.669,1.153c1.47-0.061,2.923,0.278,4.233,0.907
				c1.174,0.563,2.264,1.292,3.333,2.032c1.037,0.717,0.853,0.6,1.522-0.351c-2.852-2.005-6.123-4.346-9.795-3.881"/>
		</g>
	</g>
</g>
<g>
	<g>
		<g>
			<path fill="#D0D2D8" d="M195.195,332.363c-9.22-0.099-37.954-5.11-43.412,4.482c11.342,3.275,25.405,1.084,37.547,1.049
				c11.1-0.028,18.758,4.36,29.847,4.514c-10.833,16.625,10.584,13.622,23.99,14.29c17.761,0.889,35.579,1.302,53.422,2.215
				c26.042,1.336,71.418,10.792,96.299-1.106c-5.401-4.723-14.511-2.402-19.56-7.085c15.776-1.575,29.356-0.756,44.533,1.442
				c20.679,2.994,39.697-2.209,60.203-3.349c15.233-0.85,41.625,1.004,53.806-6.524c-4.998-4.739-13.46-6.087-17.195-9.956
				c1.018-0.672,2.263-0.995,3.225-1.604c-0.014-0.016-0.11-1.624-0.133-1.605c-60.923-2.344-121.626-6.286-182.435-12.392
				c-33.391-3.354-69.82-4.648-103.086,0.08c-14.278,2.031-27.638,9.266-41.882,10.568"/>
			<path fill="#F3BF98" d="M500.31,310.422c2.951-1.104,8.322-4.426,12.078-8.573c3.759-4.153,4.026-4.153,5.906-5.261
				c1.878-1.104,2.146-2.488,2.952-2.211c0.806,0.276,4.027,2.766,5.1,5.809c1.074,3.046-0.267,4.703-0.536,6.089
				c-0.267,1.385-0.536,1.385-0.536,3.044c0,1.66-0.805,4.428-3.222,7.473c-2.416,3.043-3.758,1.938-8.322,7.192
				c-4.562,5.257-5.635,6.643-7.517,6.92c-1.877,0.275-1.877,0.275-1.877,0.275L500.31,310.422z"/>
			<path fill="#F3BF98" d="M480.557,305.729c2.415-1.383,8.856-6.64,13.153-7.471c4.294-0.83,8.589-4.427,9.396-5.812
				c0.806-1.383,2.682-4.98,2.682-4.98l2.952,1.659l1.073-1.938c0,0,3.223,2.767,0.537,6.365c-2.683,3.597-3.22,4.98-3.489,6.916
				c-0.267,1.938-3.22,4.704-7.517,6.642c-4.294,1.938-18.789,4.981-18.789,4.981L480.557,305.729L480.557,305.729z"/>
			<path fill="#496888" d="M426.889,307.809c-7.223-2.416,13.96-3.6,22.817-4.152c8.856-0.553,6.172,0.553,9.126,2.215
				c2.952,1.661,5.636,0.553,7.247-0.553c1.609-1.108,11.004-1.938,13.419-1.938c2.418,0,2.418,0,2.418,0s0.536,4.428,0.803,7.472
				C482.988,313.896,436.819,311.128,426.889,307.809z"/>
			<path fill="#496B92" d="M497.802,305.463c0,0-12.504,2.397-21.361,2.673c-8.857,0.276-6.65,0.984-16.314,0.984
				c-9.663,0-11.273-0.276-22.548-2.491c-11.273-2.214-22.278-6.643-26.573-6.643c-4.296,0-9.127,0-15.302,0
				s-10.037-1.966-21.464-4.107c-11.271-2.11-21.214-4.746-28.194-5.576c-6.979-0.83-13.626-0.585-17.651-0.861
				c-4.027-0.274-5.37-0.274-6.443-0.274s-2.03,1.353-2.03,1.353s-6.622,3.38-6.891,12.235c-0.268,8.854,0,11.067,1.072,17.708
				c1.074,6.641,1.074,7.748,1.074,7.748l7.516,12.452c0,0,36.235,6.088,51,4.426c14.763-1.659,21.471,0.554,29.256,1.384
				c7.786,0.83,24.426,0.552,38.653,0c14.227-0.556,23.083-0.83,37.58-1.66c14.493-0.83,20.055-0.325,20.055-0.325
				s2.907-4.978,4.517-7.188c1.611-2.214,1.611-2.214,1.611-2.214s0.268-3.597-1.343-10.24c-1.61-6.642,0-9.13-0.805-12.45
				C502.41,309.072,498.875,305.187,497.802,305.463z"/>
			<path fill="#375773" d="M322.693,329.042c5.97,3.516,13.732,3.337,20.424,4.701c8.806,1.799,18.11,3.494,27.112,5.268
				c13.652,2.69,28.232,3.866,42.143,3.866c19.627,0,38.93,1.889,57.957-1.952c10.52-2.125,22.085-0.201,32.751-1.078
				c0.411-0.033-0.463,0.047,0,0l-3.838,4.643c0,0-13.883,0.602-24.889,0.602c-11.005,0-27.917,1.66-42.946,1.66
				c-15.032,0-28.722-0.555-34.091-1.106c-5.367-0.554-8.856-1.383-12.882-1.383c-4.028,0-13.156,0.553-13.156,0.553
				s-11.81,0-28.989-0.829C325.11,343.155,322.693,329.042,322.693,329.042z"/>
			<path fill="#F3BF98" d="M321.853,291.169c-6.175-1.107-8.323-2.491-23.89-1.659c-15.569,0.829-16.557,0.55-25.952,0.55
				c-9.394,0-16.968,3.055-22.337,5.546c-5.368,2.49-13.116,6.957-16.791,8.934c-4.006,2.158-5.099-1.848-8.319-1.848
				c-3.219,0-2.841-8.626-3.02-12.851c-0.181-4.226-1.139-6.887-4.753-6.31c-3.616,0.577-3.552-1.652-5.186-1.616
				c-1.633,0.034-2.247,0.502-3.043,0.385c-0.796-0.121-2.33,1.049-3.716-0.56c-1.388-1.606-4.38-2.806-5.545-0.462
				c-1.165,2.343-1.666,3.301-7.406,3.557c-5.737,0.258-16.304,3.092-19.246,4.605c-2.942,1.52-2.54,9.748-2.003,14.175
				c0.537,4.429,34.243,29.057,35.586,29.886c1.343,0.829,13.095-10.167,22.492-0.461c6.79,7.012,52.06,0.74,63.87,0.463
				c11.81-0.274,31.676-5.535,31.676-5.535s-1.613-4.979-1.881-18.537C322.12,295.873,321.853,291.169,321.853,291.169z"/>
			<path fill="#707F8F" d="M356.741,341.204l0.462,17.716c0,0-3.275-1.153-9.553-0.152c-4.031,0.642-10.118,3.697-14.667,3.481
				c-11.631-0.553-17.46-1.323-19.07-1.323c-1.61,0-13.109-2.066-16.329-2.62c-3.22-0.553-13.453-1.407-13.453-1.407
				s-3.222,0.369-9.306,0.185c-6.084-0.185-8.469-4.693-15.805-6.538c-7.338-1.845-14.854-4.241-16.642-6.089
				c-1.79-1.845-5.01-2.213-7.517-3.318c-2.504-1.107-5.367-3.323-5.367-3.323s1.584-3.716,5.7-12.939
				c4.114-9.225,22.631-10.22,28.896-9.666c6.264,0.553,16.643,2.582,28.096,5.348c11.452,2.77,28.094,9.964,32.747,12.36
				c4.652,2.397,5.438,1.083,11.167,3.664c5.726,2.586,2.253,3.529,7.442,2.977C348.732,339.004,356.741,341.204,356.741,341.204z"
				/>
			<path fill="#8091A7" d="M344.725,340.435l6.47,0.77c-3.351-1.725-4.955-4.009-8.474-5.392c-3.519-1.38-6.351-2.123-10.035-4.371
				c-3.684-2.246-8.375-3.625-14.57-5.697c-6.198-2.07-16.414-8.461-28.807-12.085c-12.395-3.625-21.94-6.043-28.976-6.216
				c-7.032-0.172-16.747-0.347-21.603,3.799c-4.857,4.142-6.365,5.349-8.71,12.258c-2.345,6.907-2.68,11.565-2.68,12.085
				c0,0.518,0.671,2.418,2.85,3.108c2.175,0.688,3.684,1.728,3.684,1.728s-1.675,4.832-1.675,6.644c0,1.813,2.011,3.625,2.763,3.369
				c0.754-0.263,3.518-3.369,4.522-4.403c1.005-1.04,1.005-1.04,1.005-1.04s1.507-3.362,1.507-10.355
				c0-6.994,7.349-11.91,13.379-12.688c6.029-0.776,19.028,0.257,19.028,0.257s2.261,2.589,10.048,4.143
				c7.788,1.554,12.561,3.887,12.561,3.887s2.762-2.592,5.275,1.036c2.511,3.626,6.781,3.885,12.811,5.438
				c6.031,1.553,9.106-2.314,13.378-1.798c4.271,0.52,6.078,0.596,6.078,0.596s3.979,2.253,5.393,2.775
				C342.876,339.357,344.725,340.435,344.725,340.435z"/>
			<path fill="#F3BF98" d="M356.125,341.358c4.729-1.029,1.188-0.388,5.843-0.388c4.655,0,14.293,0.76,15.725,2.235
				c1.431,1.476-6.777,3.668-6.777,3.668s2.067-0.228,4.467,0.803c3.235,1.383,7.167,0.249,7.705,1.538
				c0.535,1.291,1.076,2.62,1.076,2.62l-1.23,0.154c0,0-0.283,0.031-0.463,0.77c0,0-3.142,1.865-7.256,3.524
				c-4.117,1.66-8.233,3.32-12.351,2.95c-4.115-0.367-5.35,0.147-5.35,0.147s-1.113-1.979-3.083-6.775
				C352.462,347.809,352.726,342.098,356.125,341.358z"/>
			<path fill="#5A6774" d="M258.918,320.869c7.856-2.31,12.015,2.001,20.951,1.231c4.861-0.419,6.052,1.038,6.052,1.038
				s7.465-0.886,11.971,1.428c22.184,11.401,20.775,5.771,24.892,8.721c4.116,2.952,2.684,2.217,2.684,2.217l-3.699,1.233
				c0,0,3.34-0.315-3.103-0.499c-6.44-0.187-17.356-2.399-21.652-4.058c-4.293-1.659-5.366-4.06-7.156-5.165
				c-1.789-1.107-3.581,0.368-3.581,0.368s-10.019-3.321-12.525-3.875c-2.506-0.551-8.59-1.658-9.126-2.214
				C264.091,320.741,258.918,320.869,258.918,320.869z"/>
			<path fill="#5A6774" d="M242.888,336.917c1.986,3.587,12.578,7.423,16.187,9.24c10.266,5.168,19.686,5.765,30.448,7.023
				c5.708,0.666,9.293,3.519,14.748,5.041c8.019,2.237,17.152,1.421,25.453,3.254c2.013,0.442,4.031,0.622,5.964,1.099
				c-24.62,0.904-30.187-3.304-45.252-3.859c-9.628-0.357-19.951-2.055-29.026-5.196c-3.449-1.194-5.792-2.847-8.796-4.549
				c-2.131-1.204-7.119-2.524-8.865-4.028c-1.938-1.669-3.702-2.036-1.396-5.536"/>
		</g>
		<path fill="#8F7560" d="M177.27,286.053c0,0-11.092,3.854-12.479,12.942c-1.386,9.089-2.311,17.563-2.156,18.024
			c0.153,0.463-1.388-0.309-1.388-0.309l0.462,4.006l-2.002,0.771c0,0,1.54,8.781,6.008,11.709c4.467,2.925,4.467,2.925,4.467,2.925
			l-1.694,1.233c0,0,1.387,2.773,3.543,3.081s2.157,0.308,2.157,0.308l0.307,1.387c0,0,3.39-0.616,4.776-0.924
			c1.386-0.309,3.081-0.309,3.081-0.309s4.006,1.541,10.938,0.924c6.933-0.615,10.014-2.619,11.708-3.697
			c1.694-1.079,4.622-3.081,5.237-3.544c0.617-0.461,2.311-1.231,2.311-1.231s-0.463-3.39-2.465-5.392
			c-2.002-2.003-5.238-5.547-5.238-5.547s-3.543-3.851-3.081-5.853c0.462-2.003,2.619-3.389,3.852-4.468
			c1.232-1.079,0.771-2.466,0.771-2.466s-3.852,2.156-6.779,0.463c-2.926-1.694-4.313-4.16-8.164-4.16
			c-3.853,0-6.625-1.849-9.859-2.466c-3.236-0.616-5.084-0.615-5.084-0.615l1.386-1.232c0,0,0-0.463-1.386-0.617
			c-1.388-0.153-2.773,0.154-2.773,0.154s0.924-2.155,3.389-2.311c2.465-0.152,3.852,1.542,3.852,1.542s-0.616-3.391-3.698-4.007
			c-3.081-0.614-5.699,0.616-5.699,0.616s0.462-2.466,1.848-3.391c1.387-0.924,2.003-1.385,2.003-1.385s-2.003-0.154-3.389,0.615
			C172.033,292.831,174.497,288.211,177.27,286.053z"/>
	</g>
	<g>
		<g>
			<g>
				<path fill="#020202" d="M231.769,306.859c-0.606-0.109-1.573,0.209-2.179,0.099c0.479-2.555,3.476-3.241,5.513-4.305
					c2.987-1.561,5.858-3.322,8.869-4.837c7.78-3.925,15.958-7.429,24.68-8.322c4.917-0.502,9.905-0.755,14.84-0.716
					c5.375,0.042,10.718,0.549,16.074,0.113c4.805-0.396,9.65-1.539,14.463-1.094c2.243,0.204,4.278,1.511,6.46,2.057
					c0.709,0.175,1.951-0.477,1.827,0.367c-0.064,0.451-0.406,0.634-0.472,1.088c-1.712-0.253-3.29-0.851-4.998-1.133
					c-2.395-0.394-4.868-0.535-7.295-0.55c-4.616-0.03-9.192,1.07-13.792,1.41c-9.171,0.677-18.462-0.599-27.6,0.474
					c-7.867,0.921-15.615,3.233-22.689,6.71c-2.574,1.266-4.962,2.916-7.467,4.313c-1.789,1.001-6.395,2.252-6.718,4.686"/>
			</g>
			<g>
				<path fill="#020202" d="M233.539,351.344c-0.304-0.592-0.676-0.857-0.022-1.212c1.008-0.546,1.797-1.439,2.697-2.147
					c1.966-1.547,3.779-3.416,4.646-5.799c0.976-2.684,0.315-5.387,0.231-8.14c-0.077-2.482,0.594-4.65,2.251-6.479
					c2.877-3.178,7.112-5.214,11.087-6.647c4.862-1.751,10.219-2.664,15.393-2.161c-0.068,0.719,0.189,1.119-0.614,1.062
					c-1.415-0.107-2.84,0.012-4.252,0.128c-3.081,0.25-6.189,0.784-9.124,1.738c-4.205,1.367-8.866,3.544-11.773,6.995
					c-1.742,2.07-1.829,4.372-1.559,7c0.298,2.892,0.519,5.659-0.839,8.326c-1.651,3.247-4.822,5.738-8.022,7.378"/>
			</g>
			<g>
				<path fill="#020202" d="M235.211,350.396c-1.529,0-4.135-0.642-4.032-2.626c0.092-1.796,0.821-3.532,1.113-5.305
					c0.436-2.667,0.844-5.338,1.104-8.028c0.136-1.414,0.257-2.821,0.254-4.242c-0.002-0.889,0.595-0.62,1.386-0.637
					c0.105,4.76-0.604,10.026-1.832,14.638c-0.35,1.313-1.561,3.709,0.085,4.511c0.954,0.468,2.126,0.596,3.145,0.36
					c0.704-0.169,0.673,0.411,0.9,1.052c-0.662,0.234-1.424,0.369-2.125,0.369"/>
			</g>
			<g>
				<path fill="#020202" d="M232.164,339.855c-1.512-0.854-4.16-1.416-5.112-3.009c-1.113-1.859-0.003-5.015,0.256-6.96
					c0.441-3.32,0.886-6.72,2.794-9.561c1.064-1.584,2.318-3.037,3.565-4.475c0.149-0.173,1.075-1.301,1.204-1.195
					c0.294,0.24,0.632,0.421,0.927,0.664c-1.746,2.137-3.831,4.127-5.171,6.563c-1.495,2.719-1.773,5.822-2.182,8.843
					c-0.193,1.418-1.196,4.193-0.247,5.535c0.891,1.26,3.179,1.929,4.461,2.65c-0.201,0.357-0.32,0.632-0.522,0.988"/>
			</g>
			<g>
				<path fill="#020202" d="M323.066,324.777c-0.485-6.658-1.512-13.255-1.353-19.948c0.082-3.273,0.142-6.559-0.157-9.826
					c-0.137-1.482-0.323-2.965-0.696-4.409c-0.341-1.317,0.064-1.147,1.281-1.538c1.674,5.18,1.154,10.91,1.039,16.274
					c-0.162,6.475,0.689,12.897,1.157,19.342c-0.513,0.039-0.869,0.075-1.38,0.111"/>
			</g>
			<g>
				<path fill="#020202" d="M327.226,290.429c-1.615-0.173-3.214-0.484-4.839-0.603c-1.252-0.088-1.046-0.048-1.074-1.244
					c1.427-0.02,2.839,0.21,4.247,0.415c0.223,0.034,1.805,0.15,1.788,0.316c-0.041,0.38-0.087,0.748-0.129,1.127"/>
			</g>
			<g>
				<path fill="#020202" d="M402.816,301.898c-6.557,0-12.785-2.31-19.16-3.619c-6.743-1.385-13.499-2.744-20.284-3.902
					c-6.201-1.064-12.42-2.086-18.654-2.934c-2.63-0.356-5.317-0.29-7.942-0.665c-1.952-0.28-3.879-0.536-5.848-0.267
					c-1.132,0.154-2.27,0.246-3.34,0.635c-0.238-0.13-0.761-1.047-0.854-1.315c-0.027-0.073,0.257-0.299,0.23-0.373
					c4.39-1.589,8.407-0.899,12.894-0.415c2.169,0.233,4.356,0.369,6.519,0.674c6.438,0.911,12.75,2.627,19.153,3.736
					c6.667,1.158,13.302,2.424,19.922,3.816c2.309,0.487,4.736,0.47,7.021,1.078c4.59,1.224,9.036,1.784,13.776,1.575
					c2.817-0.128,5.649-0.608,8.468-0.628c0.004,0.459,0.103,1.068,0.104,1.522c0.008,0.962-1.976,0.86-2.775,0.892
					c-3.069,0.119-6.148,0.269-9.223,0.269"/>
			</g>
			<g>
				<path fill="#020202" d="M472.582,309.575c-2.658,0-5.194-0.775-7.827-1.024c-2.95-0.277-5.928,1.003-8.882,1.04
					c-5.772,0.078-11.375-1.735-17.056-2.588c-3.03-0.456-6.001-0.758-8.975-1.526c-2.946-0.765-6.056-0.963-8.944-1.909
					c-2.899-0.944-5.673-2.35-8.672-2.922c-0.531-0.101-2.803-0.136-2.764-0.555c0.05-0.538-0.138-0.458-0.089-0.994
					c8.465,0.774,16.094,3.943,24.407,5.418c4.041,0.715,8.062,1.706,12.115,2.335c4.054,0.626,8.165,0.852,12.268,0.551
					c2.047-0.149,4.021-0.05,6.087,0.079c1.782,0.11,3.488,0.481,5.25,0.752c4.306,0.656,8.352-0.87,12.601-1.313
					c4.16-0.431,8.273-1.242,12.419-1.782c1.937-0.253,3.862-0.553,5.793-0.833c0.961-0.139,0.641,0.815,0.763,1.653
					c-4.558,0.67-8.979,1.892-13.561,2.413c-2.573,0.291-5.194,0.225-7.746,0.655c-2.381,0.405-4.762,1.272-7.188,1.272"/>
			</g>
			<g>
				<path fill="#020202" d="M504.625,336.23c-1.226-0.454-1.072-0.335-0.676-1.676c0.448-1.504,0.688-3.089,0.59-4.662
					c-0.173-2.775-1.257-5.406-1.968-8.066c-0.421-1.58-0.889-3.114-0.834-4.754c0.062-1.794,0.518-3.604,0.328-5.396
					c-0.362-3.458-3.654-5.014-6.252-6.738c0.676-1.017,0.591-1.15,1.708-0.437c1.269,0.804,2.667,1.504,3.73,2.575
					c2.779,2.803,1.868,6.44,1.738,10.011c-0.121,3.36,1.319,6.526,2.119,9.73c0.79,3.181,0.622,6.254-0.521,9.331"/>
			</g>
			<g>
				<path fill="#020202" d="M496.843,346.089c-0.379-0.658-0.832-0.906-0.138-1.36c1.107-0.722,2.098-1.626,2.986-2.602
					c2.091-2.309,3.724-5.027,5.919-7.244c0.573,0.57,1.101,0.685,0.489,1.342c-1.138,1.217-2.129,2.564-3.151,3.879
					c-1.74,2.229-3.588,4.564-6.08,5.999"/>
			</g>
			<g>
				<path fill="#020202" d="M419.972,348.531c-7.729,0-15.413-1.224-23.116-1.774c-3.586-0.256-7.209,0.011-10.797-0.214
					c-1.411-0.093-2.81-0.454-4.224-0.535c-0.364-0.019-0.528,0.232-0.505-0.202c0.027-0.536-0.536-0.698-0.509-1.237
					c15.346,0.794,30.706,2.342,46.085,1.783c10.896-0.397,21.772-0.84,32.678-1.091c11.141-0.252,22.274-0.699,33.397-1.386
					c2.223-0.137,4.462-0.024,6.678-0.21c1.07-0.091,0.802,1.148,0.885,2.088c-13.358,1.166-26.849,1.06-40.244,1.358
					C446.854,347.413,433.414,348.531,419.972,348.531"/>
			</g>
			<g>
				<path fill="#020202" d="M462.09,307.003c-2.433,0-3.662-1.539-5.515-2.699c-1.855-1.161-4.59,0.351-6.59,0.432
					c-5.635,0.218-11.266,0.352-16.909,0.352c0-0.484-0.076-0.902-0.076-1.387c0-0.136,3.612,0.041,4.039,0.022
					c2.815-0.083,5.608-0.632,8.417-0.778c2.651-0.138,5.229-0.07,7.854-0.443c1.131-0.161,2.313-0.313,3.395,0.125
					c1.133,0.458,1.803,1.453,2.769,2.138c1.783,1.262,3.212,0.908,4.939-0.08c1.946-1.112,4.126-1.317,6.335-1.566
					c2.473-0.274,4.943-0.584,7.429-0.63c1.331-0.024,2.635,0.238,3.963,0.201c0.178,0.193,0.05,0.937,0.059,1.225
					c-3.611,0.089-7.218,0.181-10.816,0.542c-1.581,0.155-3.271,0.191-4.769,0.757c-1.53,0.577-2.81,1.934-4.521,1.934"/>
			</g>
			<g>
				<path fill="#020202" d="M481.056,306.728c-0.008-1.552-0.325-3.078-0.498-4.618c0.686-0.074,1.198-0.416,1.298,0.354
					c0.183,1.415,0.416,2.82,0.424,4.252c-0.411,0.003-0.803,0.011-1.214,0.014"/>
			</g>
			<g>
				<path fill="#020202" d="M480.961,305.856c-0.664-1.051-0.916-1.026,0.14-1.696c1.332-0.851,2.781-1.506,4.15-2.301
					c3.552-2.055,7.334-3.34,11.166-4.755c1.401-0.518,2.521-1.323,3.604-2.359c1.229-1.177,2.332-2.797,3.861-3.606
					c1.7-0.894,3.232-0.985,4.505-2.619c0.33-0.423,0.547-0.938,0.785-1.419c0.192-0.057,1.021,0.526,1.217,0.624
					c-0.46,0.921-1.169,1.713-1.913,2.425c-1.19,1.132-2.437,1.405-3.849,2.08c-1.332,0.638-2.266,2.094-3.288,3.116
					c-1.103,1.103-2.33,1.996-3.776,2.592c-3.271,1.353-6.711,2.187-9.88,3.81c-2.36,1.212-4.551,2.722-6.787,4.146"/>
			</g>
			<g>
				<path fill="#020202" d="M501.113,307.293c-0.121-0.239-0.681-1.008-0.424-1.152c0.915-0.51,1.79-1.13,2.568-1.827
					c1.102-0.987,2.166-2.126,2.468-3.626c0.265-1.314,0.404-2.54,1.014-3.765c1.162-2.322,4.614-3.849,3.831-6.849
					c-0.216-0.827-0.721-1.59-1.534-1.853c-0.503-0.164-0.185-0.73-0.112-1.211c1.902,0.294,3.156,2.112,3.156,3.94
					c0,2.806-2.654,3.921-3.976,6.03c-1.259,2.01-0.781,4.503-2.281,6.4c-1.218,1.54-2.928,3.037-4.701,3.925"/>
			</g>
			<g>
				<path fill="#020202" d="M501.987,293.938c-0.373-0.175-0.717-0.339-1.088-0.513c0.796-1.712,2.07-3.149,3.367-4.498
					c0.72-0.749,1.474-1.472,2.14-2.272c0.229,0.006,0.76,0.634,0.947,0.791c-1.784,2.141-4.168,3.919-5.369,6.497"/>
			</g>
			<g>
				<path fill="#020202" d="M507.44,289.181c-0.938-0.368-1.902-0.664-2.872-0.934c-0.089-0.208,0.27-0.971,0.336-1.204
					c1.01,0.282,2.002,0.619,2.98,1.003c-0.15,0.382-0.295,0.761-0.448,1.144"/>
			</g>
			<g>
				<path fill="#020202" d="M499.272,311.313c-0.306-0.687-0.978-1.194-0.21-1.554c1.349-0.637,2.642-1.397,3.892-2.212
					c2.59-1.689,5.051-3.666,7.164-5.929c2.085-2.233,4.021-4.184,6.467-6.016c1.157-0.866,2.235-1.826,3.333-2.772
					c0.699-0.608,0.893,0.184,1.438,0.799c-1.684,1.484-3.367,2.909-5.178,4.235c-1.895,1.387-3.428,3.031-5.023,4.738
					c-3.338,3.568-7.441,6.823-11.912,8.815"/>
			</g>
			<g>
				<path fill="#020202" d="M516.552,302.999c-0.326-0.248-0.661-0.469-0.988-0.717c2.015-2.651,4.997-4.753,7.725-6.598
					c0.127,0.188,0.736,0.838,0.708,1.046c-0.918,0.622-1.805,1.294-2.685,1.967c-1.677,1.283-3.509,2.611-4.796,4.307"/>
			</g>
			<g>
				<path fill="#020202" d="M521.898,295.986c-0.234-0.831-0.822-1.516-1.582-1.932c-0.631-0.346-0.201-0.706,0.051-1.341
					c1.303,0.522,2.325,1.584,2.711,2.943c-0.396,0.108-0.796,0.22-1.194,0.332"/>
			</g>
			<g>
				<path fill="#020202" d="M524.588,308.61c-0.188-0.329-0.465-0.61-0.651-0.941c-0.002-0.003,1.392-1.246,1.56-1.509
					c0.497-0.779,0.449-1.658-0.153-2.356c-0.19-0.667-0.251-0.045-0.031-0.733c0.979-1.261,0.878-2.771-0.612-3.53
					c-0.5-0.254-0.151-0.138-0.242-0.578c0.202-0.907-0.55-1.571-0.849-2.365c1.023-0.386,1.026-0.562,1.605,0.392
					c0.341,0.561,0.532,1.136,0.475,1.812c0.681,0.444,1.297,1.064,1.478,1.865c0.165,0.741,0.034,1.543-0.284,2.222
					c-0.418,0.891,0.165,1.178,0.194,2.152c0.043,1.597-1.236,2.894-2.527,3.622"/>
			</g>
			<g>
				<path fill="#020202" d="M519.745,303.323c-0.26-0.317-0.501-0.627-0.76-0.944c2.112-1.729,4.384-3.521,7.005-4.387
					c0.12,0.36,0.235,0.699,0.355,1.063c0.03,0.095-1.698,0.839-1.938,0.973c-1.668,0.918-3.209,2.062-4.678,3.266"/>
			</g>
			<g>
				<path fill="#020202" d="M521.521,307.007c-0.285-0.296-0.573-0.626-0.86-0.922c1.225-1.174,2.714-2.037,4.11-2.985
					c0.236-0.158,1.781-1.345,1.862-1.25c0.247,0.285,0.461,0.571,0.709,0.855c-1.819,1.581-4.069,2.596-5.813,4.271"/>
			</g>
			<g>
				<path fill="#020202" d="M520.548,312.271c-0.285-0.297-0.573-0.625-0.857-0.921c1.888-1.829,3.951-3.585,6.502-4.402
					c0.091,0.291,0.206,0.557,0.301,0.847c0.188,0.586-1.017,0.727-1.498,0.979c-1.671,0.885-3.062,2.19-4.409,3.498"/>
			</g>
			<g>
				<path fill="#020202" d="M503.863,333.574c-0.172-0.374-0.313-0.762-0.486-1.136c-0.259-0.559,1.062-0.736,1.513-0.997
					c1.564-0.896,2.878-2.159,4.184-3.395c2.777-2.63,5.227-5.561,8.268-7.912c2.095-1.623,3.519-2.588,4.521-5.045
					c0.657-1.607,1.842-3.021,2.351-4.681c0.061-0.205,0.118-1.49,0.082-1.464c0.394-0.279,0.76-0.621,1.156-0.903
					c1.689,2.396-1.398,6.112-2.26,8.326c-0.854,2.219-2.718,3.179-4.574,4.555c-5.279,3.908-8.61,9.767-14.734,12.609"/>
			</g>
			<g>
				<path fill="#020202" d="M423.165,340.299c-8.039-0.019-12.737,0.104-20.466-0.328c-7.997-0.444-18.5-2.884-26.339-4.498
					c-7.423-1.529-14.702-3.582-22.074-5.321c-7.774-1.835-15.689-3.087-23.467-4.91c0.072-0.295,0.222-0.727,0.291-1.023
					c0.153-0.646,1.473,0.127,2.001,0.25c1.989,0.455,4.045,0.622,6.036,1.066c4.073,0.904,8.087,2.054,12.15,2.983
					c7.826,1.794,15.503,4.201,23.344,5.897c7.937,1.719,15.959,3.249,24.073,3.761c8.179,0.513,16.415,0.171,24.569,1.064
					C423.239,339.646,423.21,339.892,423.165,340.299"/>
			</g>
			<g>
				<path fill="#020202" d="M413.76,340.32c-0.02-0.412,0.081-0.957,0.061-1.37c16.573-0.817,33.179,0.45,49.749-0.544
					c6.701-0.402,13.41-0.65,20.098-1.241c4.187-0.37,8.392-0.578,12.58-0.868c3.835-0.267,7.515,0.195,11.307,0.701
					c-0.056,0.408-0.01,0.444-0.063,0.853c-3.672-0.495-7.385-1.282-11.096-1.038c-4.13,0.267-8.234,1.143-12.356,1.511
					c-6.715,0.601-13.457,0.806-20.188,1.212c-16.646,1.002-33.292,0.354-49.943,1.169"/>
			</g>
			<g>
				<path fill="#020202" d="M357.246,359.572c-4.544-4.283-5.86-12.873-2.374-18.206c0.197,0.129,0.904,0.424,0.967,0.632
					c-0.474,0.725-0.858,1.519-1.109,2.341c-0.579,1.9-0.633,3.955-0.42,5.919c0.208,1.938,0.738,3.859,1.671,5.576
					c0.494,0.911,1.162,1.7,1.885,2.442c0.501,0.513-0.161,0.815-0.603,1.285"/>
			</g>
			<g>
				<path fill="#020202" d="M335.704,363.304c-3.291,0-6.41-1.474-9.687-1.51c-2.142-0.024-4.23,0.087-6.376-0.08
					c-2.111-0.167-4.245-0.096-6.349-0.332c-3.674-0.417-7.413-0.292-11.049-1.011c-3.389-0.67-6.375-2.365-9.268-4.235
					c0.248-0.385,0.262-0.654,0.51-1.038c0.492-0.764,1.433,0.545,2.103,0.914c2.083,1.147,4.436,1.662,6.765,2.156
					c2.646,0.563,5.262,0.741,7.945,0.921c3.032,0.202,6.025,0.809,9.051,1.067c2.752,0.235,5.545-0.42,8.284-0.133
					c2.506,0.264,4.897,1.425,7.431,1.507c4.91,0.157,8.94-2.902,13.635-3.823c0.064,0.331,0.601,1.877,0.443,2.146
					c-1.599,0.313-3.197,0.631-4.71,1.223c-2.868,1.122-5.597,2.037-8.728,2.037"/>
			</g>
			<g>
				<path fill="#020202" d="M292.857,358.447c-5.026,0-9.958-0.928-14.963-1.107c-2.447-0.086-4.883-0.486-7.254-1.166
					c-2.463-0.705-4.754-1.949-7.289-2.411c-1.934-0.404-3.944-0.457-5.823-1.095c-2.478-0.839-4.598-2.443-6.866-3.713
					c-3.693-2.068-9.176-2.648-11.63-6.442c0.453-0.292,0.811-0.272,1.262-0.565c0.191-0.125,1.896,1.275,2.387,1.541
					c2.562,1.379,5.332,2.195,7.918,3.566c2.546,1.35,5.021,2.877,7.785,3.772c2.472,0.808,5.189,0.706,7.638,1.581
					c2.856,1.018,5.313,2.429,8.388,2.682c3.032,0.251,6.034,0.411,9.06,0.771c3.131,0.374,6.286,0.636,9.443,0.636
					c0.459,0,4.722-0.244,4.725-0.208c0.056,0.594,0.014,1.257,0.069,1.847c-1.601,0.15-3.24,0.432-4.848,0.432"/>
			</g>
			<g>
				<path fill="#020202" d="M294.612,329.57c-4.512-0.271-8.629-2.946-13.068-3.768c-2.649-0.488-5.199-0.881-7.705-1.904
					c-1.182-0.484-2.347-1.029-3.567-1.411c-0.101-0.27,0.378-1.138,0.47-1.435c2.384,0.745,4.592,1.98,7.023,2.582
					c2.463,0.607,4.997,0.822,7.441,1.533c1.944,0.566,3.83,1.289,5.749,1.934c1.22,0.413,2.452,0.888,3.743,0.967
					c0.162,0.208-0.066,1.266-0.083,1.556"/>
			</g>
			<g>
				<path fill="#020202" d="M320.606,337.814c-3.253-0.449-6.421-1.3-9.573-2.202c-1.415-0.404-2.872-0.669-4.285-1.077
					c-1.374-0.398-2.856-0.635-3.89-1.708c-0.975-1.011-1.677-2.689-3.292-2.766c-1.114-0.052-2.271,0.344-3.203,0.885
					c-0.861,0.501-0.765-0.072-1.245-0.832c1.738-1.096,4.065-2.302,6.09-1.194c1.453,0.789,2.145,3.013,3.711,3.443
					c3.216,0.884,6.417,1.81,9.647,2.647c1.656,0.429,3.295,0.959,4.985,1.247c1.508,0.256,1.232,0.252,1.04,1.65"/>
			</g>
			<g>
				<path fill="#020202" d="M349.149,340.857c-3.702-2.972-7.665-5.741-11.942-7.792c-3.567-1.71-7.538-3.051-11.306-4.225
					c-4.937-1.538-9.535-3.492-14.288-5.59c-5.017-2.211-10.081-4.413-15.314-6.09c-7.563-2.42-15.314-4.633-23.112-6.127
					c-8.287-1.591-17.634-2.87-26.039-1.232c-2.769,0.542-5.696,0.907-8.026,2.512c-1.238,0.854-1.889,2.391-2.898,3.509
					c-0.339,0.373-0.79,0.741-1.265,0.373c-0.325-0.255-0.716,0.069-1.041-0.184c5.231-6.718,13.024-9.375,21.201-9.114
					c8.96,0.285,17.922,2.875,26.583,5.111c8.091,2.091,16.158,4.187,23.803,7.584c5,2.224,10.107,4.247,15.351,5.856
					c2.356,0.721,4.583,1.784,6.902,2.627c2.074,0.755,3.983,1.9,6.012,2.772c5.731,2.466,11.362,5.013,16.242,8.931
					c-0.321,0.398-0.835,1.075-1.159,1.477"/>
			</g>
			<g>
				<path fill="#020202" d="M261.413,298.8c-0.587,0-1.892-0.455-1.366-1.338c0.07-0.19,0.153-0.412,0.36-0.366
					c0.79,0.165,1.658-0.641,2.525-0.54c0.734,0.082,1.222,0.723,1.637,1.273C263.575,298.271,262.523,298.8,261.413,298.8"/>
			</g>
		</g>
		<g>
			<g>
				<path fill="#020202" d="M178.384,287.944c-0.172-0.48-0.305-1.063-0.478-1.546c3.792-1.341,7.937-2.694,12.027-2.029
					c1.905,0.309,3.921-0.295,5.659-1.103c1.598-0.74,2.499-1.884,3.681-3.124c1.185-1.244,3.082-1.007,4.327,0.175
					c0.418,0.398,0.646,0.835,0.852,1.367c0.302,0.776,1.412,0.12,1.955-0.226c0.729-0.462,1-1.05,1.909-1.005
					c1.457,0.07,2.383,1.16,2.69,2.528c-0.403,0.09-0.689,0.337-1.092,0.428c-0.565,0.127-0.497-1.174-1.097-1.464
					c-0.534-0.259-0.838,0.259-1.255,0.557c-0.728,0.519-1.54,0.979-2.438,1.05c-2.021,0.16-1.388-1.784-2.692-2.523
					c-1.678-0.953-2.414,0.93-3.451,1.964c-2.827,2.831-6.662,2.992-10.352,2.776c-3.476-0.203-7.005,0.874-10.22,2.012"/>
			</g>
			<g>
				<path fill="#020202" d="M230.207,306.422c-2.913-0.567-5.891-1.903-7.638-4.358c-2.601-3.662-2.114-8.031-1.727-12.251
					c0.196-2.15,0.181-5.42-2.735-5.568c-0.982-0.05-1.872,0.318-2.795,0.563c-1.271,0.342-1.607-0.367-2.544-1.044
					c-0.404-0.294-1.342-0.413-1.527-0.786c-0.241-0.482-0.547-0.899-0.788-1.38c0.853-0.426,1.819-0.154,2.604,0.278
					c0.592,0.326,1.355,1.366,1.995,1.157c1.855-0.615,3.478-1.024,5.291-0.03c2.868,1.573,2.554,5.58,2.187,8.295
					c-0.517,3.854-0.261,8.497,3.037,11.121c1.302,1.035,2.877,1.675,4.476,2.091c0.902,0.232,0.221,1.179,0.062,1.998"/>
			</g>
			<g>
				<path fill="#020202" d="M162.226,314.992c-0.721-10.67,1.864-27.543,14.726-29.879c0.043,0.234,0.378,1.677,0.247,1.706
					c-0.69,0.15-1.375,0.431-2.024,0.702c-3.138,1.327-5.729,3.79-7.381,6.773c-2.251,4.062-3.376,8.657-3.772,13.261
					c-0.172,1.994-0.126,3.99-0.044,5.989c0.029,0.704,0.278,1.192-0.516,1.244c-0.454,0.029-0.854,0.174-1.31,0.205"/>
			</g>
			<g>
				<path fill="#020202" d="M160.677,320.551c-0.248-0.991-0.309-2.021-0.315-3.039c-0.007-0.874-0.35-1.778,0.604-1.955
					c0.745-0.141,1.074-0.462,1.453,0.206c0.525,0.927,1.271,1.713,1.908,2.561c-0.289,0.213-0.593,0.449-0.88,0.663
					c-0.705,0.531-0.594,0.496-1.179-0.232c0.062,0.721,0.527,1.246-0.253,1.442c-0.443,0.109-0.894,0.249-1.337,0.358"/>
			</g>
			<g>
				<path fill="#020202" d="M169.338,337.188c-6.341-3.003-10.437-10.232-10.315-17.156c0.538,0.011,1.102,0,1.64,0.011
					c0.422,0.012,0.215,0.589,0.24,0.96c0.161,2.55,0.845,5.122,2.092,7.366c1.251,2.251,3.047,4.174,5.103,5.711
					c0.202,0.152,2.087,1.433,2.069,1.466c-0.253,0.536-0.557,1.101-0.812,1.639"/>
			</g>
			<g>
				<path fill="#020202" d="M172.087,340.32c-2.698,0-4.556-1.065-5.777-3.438c1.087-0.193,2.159-0.317,3.269-0.296
					c0.483,0.011,1.502-0.262,1.502,0.328c0,0.411,0.012,0.805,0.012,1.217c-0.647,0-1.268-0.021-1.914-0.022
					c0.932,0.551,2.085,0.699,3.148,0.673c0.477-0.015,0.319,1.095,0.357,1.513c-0.204,0.017-0.392,0.028-0.598,0.028"/>
			</g>
			<g>
				<path fill="#020202" d="M171.522,342.098c-0.034-0.41-0.053-0.822-0.089-1.23c-0.046-0.55,0.771-0.426,1.239-0.609
					c0.489-0.188,1.271-0.99,1.59-0.481c0.22,0.347,0.448,0.694,0.667,1.044c-1.031,0.647-2.173,1.173-3.401,1.276"/>
			</g>
			<g>
				<path fill="#020202" d="M185.411,343.114c-1.745,0-3.261-0.917-4.913-1.313c-0.148-0.278,0.393-1.485,0.472-1.824
					c1.538,0.367,3.12,1.385,4.745,1.185c1.566-0.197,3.149-0.193,4.726-0.262c2.815-0.119,5.654-0.273,8.42-0.868
					c3.318-0.713,5.41-2.252,7.656-4.658c1.148-1.227,2.69-1.287,4.024-2.152c0.716-0.464,1.045,0.443,1.613,1.042
					c-0.875,0.831-1.896,1.188-2.992,1.603c-1.332,0.501-1.896,1.773-2.893,2.708c-1.86,1.747-4.303,2.68-6.774,3.246
					c-2.228,0.513-4.5,0.693-6.776,0.776c-2.424,0.087-4.898,0.646-7.309,0.646"/>
			</g>
			<g>
				<path fill="#020202" d="M174.021,343.299c0-1.055,0.002-2.107,0.692-2.988c0.246,0.191,1.302,0.823,1.139,1.08
					c1.221-0.313,2.417-0.715,3.667-0.896c0.047,0.306,0.086,0.602,0.132,0.908c0.129,0.888-0.231,0.643-1.089,0.855
					c-1.514,0.375-2.986,0.814-4.529,1.066"/>
			</g>
			<g>
				<path fill="#020202" d="M207.223,323.099c-4.844,0-7.355-4.854-5.246-8.98c0.357,0.182,1.235,0.377,1.053,0.801
					c-0.528,1.236-0.836,2.691-0.395,3.992c0.913,2.682,4.404,3.629,6.786,2.486c2.222-1.064,4.148-3.438,5.475-5.473
					c0.859-1.317,0.925-2.924-0.248-4.05c-0.179-0.17-1.402-0.896-1.361-0.977c0.171-0.34,0.372-0.629,0.542-0.968
					c3.623,1.81,3.368,5.001,1.097,7.879c-1.924,2.426-4.322,5.282-7.702,5.282"/>
			</g>
			<g>
				<path fill="#020202" d="M172.803,293.094c-0.594-0.163-1.189-0.321-1.784-0.485c0.666-2.421,2.318-4.791,4.644-5.861
					c0.15,0.326,0.3,0.619,0.45,0.945c0.393,0.854,0.269,0.616-0.505,1.172c-1.38,0.992-2.378,2.603-2.823,4.229"/>
			</g>
			<g>
				<path fill="#020202" d="M180.857,300.349c-1.118-2.852-4.5-4.068-7.365-3.519c-0.66,0.125-2.25,0.951-2.398-0.438
					c0.917-1.246,1.31-2.707,2.589-3.687c0.23,0.301,0.494,0.603,0.725,0.906c-0.041-0.054-1.3,1.713-1.439,1.984
					c3.517-0.791,7.689,0.795,9.067,4.295c-0.383,0.15-0.806,0.318-1.189,0.466"/>
			</g>
			<g>
				<path fill="#020202" d="M180.083,300.565c-0.84-1.288-2.557-1.7-3.979-1.246c-0.246,0.081-1.526,0.863-1.534,0.859
					c-0.288-0.246-0.573-0.466-0.861-0.711c1.909-2.237,5.796-2.07,7.416,0.417c-0.344,0.225-0.671,0.437-1.015,0.66"/>
			</g>
			<g>
				<path fill="#020202" d="M189.123,306.381c-2.687,0-5.009-1.488-7.564-2.135c-1.952-0.497-3.934-0.633-5.939-0.684
					c0.269-0.506,0.519-1.166,0.955-1.561c-0.228-0.078-2.07-0.166-1.977-0.049c-0.241-0.297-0.565-0.619-0.804-0.916
					c1.127-0.914,2.644-0.414,3.845,0.09c0.893,0.375,0.911,0.225,0.703,1.166c2.586,0.215,5.063,0.918,7.431,1.975
					c2.496,1.115,4.633,0.815,7.268,0.569c0.02,0.215,0.233,1.032,0.11,1.184c-1.344,0.122-2.676,0.326-4.029,0.326"/>
			</g>
			<g>
				<path fill="#020202" d="M201.742,311.458c-1.866,0-3.352-0.896-4.743-2.05c-0.794-0.658-1.627-1.282-2.532-1.783
					c-0.042-0.214,0.53-0.942,0.645-1.147c2.226,1.237,3.86,3.806,6.631,3.806c1.215,0,2.483-0.243,3.613-0.675
					c1.07-0.406,0.872-0.318,1.402,0.661c-1.487,0.803-3.329,1.226-5.016,1.226"/>
			</g>
			<g>
				<path fill="#020202" d="M212.85,333.65c-0.727-0.053-1.155,0.156-1.173-0.623c-0.037-1.355-0.672-2.615-1.421-3.723
					c-1.284-1.902-3.015-3.443-4.679-5.004c0.35-0.369,0.675-1.099,1.108-0.694c0.88,0.824,1.741,1.671,2.578,2.536
					c1.939,2.013,3.76,4.526,3.548,7.471"/>
			</g>
			<g>
				<path fill="#020202" d="M212.414,332.197c-0.485-0.381-1.012-0.784-1.498-1.163c3.399-4.319,12.901-4.407,16.264,0
					c-0.292,0.224-1.169,1.148-1.512,1.143c-0.958-1.257-2.587-1.803-4.089-2.104c-2.863-0.571-7.161-0.357-9.138,2.153"/>
			</g>
			<g>
				<path fill="#020202" d="M197.176,292.729c-0.102-1.755-1.249-3.225-1.94-4.781c1.055-0.468,0.977-0.665,1.544,0.423
					c0.71,1.362,1.517,2.718,1.608,4.291c-0.411,0.022-0.813,0.04-1.224,0.065"/>
			</g>
			<g>
				<path fill="#020202" d="M190.352,289.957c-0.93-0.929-1.411-2.096-1.514-3.399c0.303-0.022,0.594-0.043,0.898-0.063
					c0.596-0.049,0.436,0.914,0.66,1.418c0.094,0.212,0.823,1.18,0.763,1.239c-0.268,0.27-0.532,0.523-0.801,0.792"/>
			</g>
			<g>
				<path fill="#020202" d="M210.921,286.157c-0.417-1.169-1.016-2.303-1.155-3.55c0.251-0.028,1.01-0.253,1.216-0.132
					c0.126,1.145,0.697,2.197,1.085,3.267c-0.387,0.14-0.771,0.293-1.157,0.431"/>
			</g>
			<g>
				<path fill="#020202" d="M205.697,318.843c-3.976-1.089,0.404-8.047,3.035-4.105c-0.226,0.15-0.747,0.672-1.005,0.672
					c-0.49-0.733-1.146-0.83-1.756-0.175c-0.459,0.49-1.055,1.69-0.338,2.233c0.544,0.412,0.263,0.66,0.068,1.375"/>
			</g>
			<g>
				<path fill="#020202" d="M209.985,318.594c-1.306,0-4.45-1.725-3.684-3.425c0.158,0.072,1.143,0.542,1.143,0.455
					c0.041,0.868,1.825,1.762,2.545,1.762c0.917,0,0.747-1.371,0.867-1.983c0.061-0.314,0.577-3.219,0.062-2.911
					c-0.314,0.201-0.551,1.452-0.667,1.456c-0.381,0.017-0.731-0.017-1.113,0.004c-0.042-1.006,0.516-2.429,1.597-2.672
					c1.388-0.312,1.829,1.083,1.749,2.136c-0.125,1.635-0.214,5.154-2.5,5.154"/>
			</g>
		</g>
		<g>
			<path fill="#020202" d="M329.346,326.724c-0.116-6.709-0.639-13.335-1.09-20.022c-0.23-3.378-0.45-6.747-0.627-10.129
				c-0.086-1.674,0.017-3.375-0.234-5.033c-0.21-1.363-0.428-1.174,0.823-1.416c1.16,6.001,0.649,12.244,1.131,18.321
				c0.483,6.102,1.306,12.14,1.415,18.267c-0.412,0.005-0.945,0.004-1.355,0.012"/>
		</g>
		<g>
			<g>
				<path fill="#020202" d="M372.715,346.814c-0.131-1.158-0.293-1.116,0.823-1.332c1.553-0.298,3.347-0.706,3.62-2.566
					c-3.923-0.495-7.708-1.61-11.667-2.018c-1.647-0.17-3.304-0.107-4.928,0.22c-1.264,0.257-2.466,0.763-3.675,1.201
					c-0.912,0.329-0.741-0.116-1.047-0.923c5.223-1.988,10.694-2.218,16.089-0.732c1.199,0.33,2.301,0.864,3.547,1.015
					c1.224,0.149,3.228-0.211,2.934,1.576c-0.45,2.717-3.321,3.277-5.654,3.535"/>
			</g>
			<g>
				<path fill="#020202" d="M362.58,360.227c-2.92,0-5.845-0.201-8.756-0.394c-1.782-0.119-3.562-0.231-5.349-0.255
					c-0.48-0.01-1.439,0.249-1.439-0.381c0-0.412,0.107-0.817,0.107-1.227c4.723,0,9.382,0.511,14.091,0.753
					c1.801,0.091,3.822,0.289,5.547-0.311c0.443-0.155,1.99-1.336,2.357-1.199c0.221,0.083,0.48,1.22,0.59,1.461
					c-2.414,1.095-4.472,1.665-7.147,1.665"/>
			</g>
			<g>
				<path fill="#020202" d="M366.372,358.398c-0.047-0.41-0.078-0.798-0.124-1.205c2.496-0.279,5.256-0.047,7.617-1.033
					c0.725-0.306,1.438-0.769,1.922-1.401c0.189-0.246,0.902,0.382,1.15,0.533c-2.016,3.328-7.27,2.732-10.558,3.101"/>
			</g>
			<g>
				<path fill="#020202" d="M374.308,355.618c-2.993,0-6.346-0.335-9.215-1.167c0.063-0.219,0.191-1.112,0.369-1.225
					c0.863,0.252,1.778,0.28,2.666,0.422c1.784,0.291,3.574,0.634,5.379,0.758c2.04,0.138,3.938-0.748,5.888-1.234
					c0.91-0.226,1.939-0.317,2.752-0.821c0.408-0.252,0.817,0.453,1.13,0.79c-0.911,0.855-2.436,0.974-3.595,1.261
					c-1.748,0.438-3.551,1.265-5.376,1.265"/>
			</g>
			<g>
				<path fill="#020202" d="M374.643,353.308c-2.176,0-4.074-0.995-5.952-2c-1.004-0.539-1.97-1.146-2.979-1.679
					c-0.499-0.262,0.043-0.809,0.261-1.251c2.745,1.357,5.56,3.644,8.747,3.633c1.717-0.007,3.438-0.072,5.148-0.232
					c0.626-0.062,2.678,0.011,3.113-0.4c0.452-0.422-0.584-1.477-0.927-1.582c-1.84-0.557-3.868-0.353-5.736-0.932
					c-1.953-0.608-3.77-1.669-5.606-2.554c-1.753-0.842-3.459-1.819-5.286-2.49c-0.624-0.232-1.287-0.389-1.942-0.51
					c-0.109-0.166,0.179-0.978,0.221-1.192c5.607,1.041,10.067,5.438,15.738,6.192c1.178,0.158,2.644,0.065,3.641,0.812
					c0.846,0.634,1.682,2.044,0.972,3.03c-0.726,1.01-3.238,0.76-4.344,0.864c-1.684,0.156-3.376,0.233-5.068,0.233"/>
			</g>
		</g>
		<g>
			<path fill="#020202" d="M242.809,339.535c-2.016-1.017-2.652-2.299-3.166-4.381c-0.706-2.855-3.673-4.356-4.455-7.098
				c-0.715-2.513,1.156-4.633,2.406-6.578c0.542-0.844,1.119-1.846,0.391-2.768c-0.749-0.945-0.684-0.746,0.031-1.778
				c2.553,1.765,1.53,4.201,0.057,6.31c-0.775,1.11-1.947,2.316-1.932,3.743c0.015,1.364,1.269,2.382,2.084,3.36
				c0.822,0.988,1.586,2.048,2.084,3.247c0.373,0.897,0.584,1.816,0.898,2.73c0.297,0.854,0.824,1.527,1.594,1.977
				c0.734,0.429,0.309,0.692-0.043,1.389"/>
		</g>
		<g>
			<path fill="#020202" d="M227.333,329.206c-1.687-2.7-1.47-6.385-0.029-9.132c0.669,0.351,1.143,0.266,0.81,1.02
				c-0.507,1.146-0.702,2.413-0.706,3.666c-0.004,1.165,0.199,2.351,0.732,3.396c0.338,0.662-0.238,0.688-0.821,1.052"/>
		</g>
		<g>
			<path fill="#020202" d="M293.973,356.283c-3.3-1.415-6.45-3.216-9.862-4.361c-2.238-0.752-5.92-1.751-7.216,1.033
				c1.218,0.112,2.396,0.133,3.615,0.112c0.872-0.015,2.098-0.316,2.941,0.021c-0.507,1.268-0.477,1.121-1.873,1.135
				c-1.558,0.016-3.135,0.133-4.689,0.016c-0.569-0.042-1.058-0.168-1.434-0.618c-0.638-0.76,1.366-2.643,1.968-2.995
				c2.822-1.658,6.792-0.045,9.497,1.067c1.847,0.761,3.634,1.664,5.448,2.497c0.26,0.119,2.144,0.85,2.081,0.997
				c-0.15,0.349-0.303,0.683-0.453,1.032"/>
		</g>
		<g>
			<path fill="#020202" d="M295.076,324.446c-7.407-0.251-14.786-0.956-22.168-1.576c-3.538-0.296-7.067-0.722-10.614-0.891
				c-1.788-0.083-3.586,0.144-5.377,0.118c-0.254-0.005-1.817-0.119-1.817-0.287c0-0.382-0.207-0.887-0.207-1.266
				c7.365,0,14.71,0.813,22.041,1.459c3.566,0.311,7.131,0.673,10.704,0.924c1.809,0.124,3.633,0.002,5.445,0.083
				c0.255,0.012,1.961,0.118,1.957,0.286c-0.013,0.381,0.043,0.568,0.03,0.947"/>
		</g>
		<g>
			<path fill="#020202" d="M324.541,335.983c-2.089-2.392-4.157-3.021-7.199-3.056c-3.665-0.044-6.671-1.327-9.83-3.116
				c-3.333-1.888-6.63-3.852-10.302-5.041c-3.859-1.253-7.899-1.852-11.868-2.667c-3.814-0.785-7.583-1.789-11.302-2.961
				c-3.884-1.225-7.727-2.556-11.75-3.261c-3.519-0.617-7.157-1.162-10.605-0.127c-1.493,0.452-2.706,1.636-4.117,2.302
				c-0.271,0.127-2.524,0.922-2.596,0.781c-0.17-0.34,0.169-0.548,0-0.887c2.847-1.423,5.604-2.884,8.761-3.452
				c3.562-0.638,7.15-0.271,10.656,0.512c3.84,0.857,7.629,1.875,11.387,3.021c3.866,1.181,7.778,2.124,11.731,2.933
				c3.78,0.774,7.853,1.069,11.463,2.464c3.678,1.418,6.89,3.868,10.344,5.731c2.945,1.587,5.496,2.706,8.821,2.745
				c3.068,0.04,5.599,0.685,7.648,3.031c-0.31,0.268-0.927,0.796-1.235,1.066"/>
		</g>
		<g>
			<path fill="#020202" d="M350.264,341.771c-2.942,0-5.819-0.604-8.541-1.708c-3.228-1.309-6.133-3.287-9.616-3.906
				c-2.874-0.512-5.79-0.326-8.486,0.719c-1.671,0.647-3.207,1.637-4.771,2.511c-0.419,0.232-0.835,0.84-1.149,0.3
				c-0.207-0.356-0.671-0.762-0.879-1.118c3.366-1.958,7.081-3.729,10.993-4.235c3.908-0.505,7.449,0.678,10.861,2.489
				c3.142,1.669,6.46,2.953,10.038,3.225c1.724,0.13,3.464,0.312,5.173,0.077c0.295-0.043,2.229-0.585,2.257-0.453
				c0.091,0.477,0.324,1.083,0.417,1.561c-2.052,0.402-4.201,0.627-6.296,0.627"/>
		</g>
		<g>
			<path fill="#020202" d="M344.385,358.984c-1.211-2.563-2.481-5.302-2.488-8.191c-0.008-2.962,1.384-5.701,2.839-8.211
				c0.329,0.189,0.602,0.396,0.93,0.587c0.098,0.055-1.097,2.357-1.248,2.698c-0.7,1.565-1.304,3.213-1.3,4.939
				c0.007,1.717,0.581,3.373,1.203,4.96c0.355,0.913,0.736,1.815,1.157,2.704c-0.1,0.201-0.912,0.431-1.131,0.533"/>
		</g>
	</g>
</g>
</svg>
