<?xml version="1.0" encoding="utf-8"?>
<!-- Generator: Adobe Illustrator 15.0.0, SVG Export Plug-In . SVG Version: 6.00 Build 0)  -->
<!DOCTYPE svg PUBLIC "-//W3C//DTD SVG 1.1//EN" "http://www.w3.org/Graphics/SVG/1.1/DTD/svg11.dtd">
<svg version="1.1" id="Layer_1" xmlns="http://www.w3.org/2000/svg" xmlns:xlink="http://www.w3.org/1999/xlink" x="0px" y="0px"
	 width="640px" height="360px" viewBox="0 0 640 360" enable-background="new 0 0 640 360" xml:space="preserve">
<g>
	<path fill="#D0D2D8" d="M46.775,171.727c2.174,5.284,1.427,11.501,3.688,17.441c4.989,13.109,17.102,18.498,27.049,25.708
		c18.36,13.312,25.48,17.591,47.782,20.379c12.495,1.57,34.296,3.644,34.783,17.915c0.461,13.529-20.589,32.699-28.234,41.398
		c-8.288,9.427-16.513,19.715-25.91,27.446c-3.667,3.025-8.281,4.468-11.341,7.979c6.458,2.941,18.418,9.087,21.744,14.98
		c3.877,6.862,1.261,17.094,7.191,24.598c17.527,22.183,239.159-2.043,236.235-19.357c-5.854-34.659-34.748-50.527-61.099-69.865
		c-41.228-30.242-83.875-55.754-127.451-81.957c-17.911-10.773-29.284-20.927-50.999-21.326c-9.458-0.173-17.575,1.292-25.838-0.681
		c-16.3-3.893-30.581-11.598-47-15.452"/>
	<g>
		<path fill="#496B92" d="M426.859,239.771c0,0-6.602,2.638-18.705,25.521c-11.731,22.188-23.327,35.118-33.217,56.541
			c-9.889,21.422-34.39,50.655-34.39,50.655l205.545,0.479l0.402-82.326c0,0-13.808-8.64-20.636-13.248
			c-9.461-6.381-32.779-10.342-32.779-10.342s-3.71-4.012-12.496-6.211c-8.791-2.193-12.638-4.939-17.579-9.338
			c-4.946-4.393-11.537-6.591-14.829-7.138c-3.3-0.554-10.438-1.649-13.734-2.749C431.146,240.52,426.859,239.771,426.859,239.771z"
			/>
		<path fill="#5A6774" d="M168.533,231.148c-1.854,6.059-10.126,9.437-15.015,12.815c-6.635,4.582-11.23,8.979-16.55,14.582
			c9.13,0.42,19.097,1.437,27.876-1.474c25.844-8.563,50.479-34.079,68.127-53.68c16.939-18.812,15.453-31.426,10.591-53.502
			c-7.37,2.18-5.705,6.327-11.846,11.332c-0.928,0.758-16.694,2.072-17.6,2.861c-15.834,13.762-22.804,36.392-34.595,53.51"/>
		<path fill="#F3BF98" d="M121.875,101.357c-20.539-0.936-19.408-0.002-34.79,5.857c-15.383,5.86-24.538,17.212-26.369,33.327
			c-1.832,16.115,9.155,30.396,16.481,47.973c7.323,17.577,15.015,27.471,31.859,28.2c16.845,0.731,43.581-2.196,46.878-2.562
			c3.295-0.368,9.153-1.469,11.35,0.729c2.199,2.196,5.249,8.761,4.15,11.687c-1.1,2.931-0.586,5.949-1.32,11.438
			c-0.734,5.492-7.261,16.505-7.261,16.505s-13.88,40.205,49.11,72.437c62.989,32.228,134.814,39.104,134.814,39.104
			s31.916-44.914,45.097-71.285c13.186-26.365,23.706-42.896,28.466-48.394c4.759-5.493,6.593-8.06,6.593-8.06
			s-2.93-12.084-24.168-24.533c-21.243-12.448-80.571-52.733-99.248-57.493c-18.678-4.763-29.66-7.521-47.603-0.563
			c-17.945,6.959-22.45,14.008-30.143,14.742c-7.688,0.731-16.007-2.462-18.204-3.927c-2.196-1.465-2.196-1.465-2.196-1.465
			s-6.821-3.902-13.187-9.885c-5.15-4.845-5.738-4.718-6.104-10.578c-0.368-5.86-0.68-12.611-8.467-19.454
			c-6.445-5.666-11.668-10.232-17.776-13.675c-3.159-1.779-9.792-4.297-16.016-4.297
			C137.598,107.188,129.931,101.723,121.875,101.357z"/>
		<path fill="#E1A980" d="M163.946,212.872c8.351,4.752,15.553,11.974,14.456,21.889c-0.64,5.765-8.226,21.427-15.568,20.249
			c1.364-5.43,5.521-9.869,7.07-15.068c1.643-5.539,0.687-12.573,0.687-18.471"/>
		<path fill="#E1A980" d="M244.938,305.412c13.943,3.809,28.91-0.244,42.805,3.325c9.967,2.562,10.516,4.203,21.105,4.789
			c7.732,0.427,16.975,3.838,21.679,9.15c4.271,4.829,7.14,7.265,12.6,11.306c4.189,3.102,12.003,5.37,15.497,8.498
			c5.879,5.26-11.567,15.929-12.079,25.027c-5.465-6.18-10.57-16.328-18.669-20.681c-4.983-2.672-12.488-3.524-16.807-6.999
			c-3.223-2.593-4.528-7.242-6.907-10.415c-13.067-17.44-27.588-0.953-65.19-19.872"/>
		<path fill="#8F7560" d="M79.943,113.832c-5.859,6.055-7.334,7.631-10.21,13.482c-2.877,5.856-0.339,16.209-0.143,20.898
			c0.196,4.689,0.782,8.986,0.782,8.986s0.194,7.424,0.194,8.01s3.968-5.209,4.328-2.018c0.361,3.188,1.335,10.416,7.001,13.349
			c5.666,2.929,4.69,3.319,6.644,7.423c1.953,4.103,5.468,6.837,6.836,7.031c1.369,0.196-5.469,1.761-7.424,4.493
			c-1.951,2.736-4.491,17.188,11.136,19.927c15.629,2.733,20.317-1.761,22.466-4.493c2.148-2.732,2.735-4.886,5.666-4.492
			c2.929,0.391,10.714-0.457,11.608,0.748c0.894,1.202-1.256,2.379,4.998,2.77c6.25,0.39,10.742,0.191,13.673,0.978
			c2.93,0.781,8.398,3.711,10.158,5.47c1.759,1.76-3.909,6.059-10.743,7.229c-6.838,1.169-19.731,2.931-19.731,2.931
			s-3.502,0.118-7.123,0.354c-3.621,0.229-9.872-0.938-12.022-0.745c-2.15,0.194-2.342,3.321-5.469,1.368
			c-3.126-1.955-9.182-3.518-12.11-3.907c-2.932-0.392-7.621-2.343-8.597-2.343c-0.977,0-3.125,2.537-7.228-0.586
			c-4.104-3.131-9.377-8.793-10.746-12.506c-1.367-3.707-3.711-1.951-4.493-3.127c-0.781-1.172-4.882-5.078-5.275-12.891
			c-0.391-7.814-0.779-8.984-5.272-21.298c-4.496-12.306-7.62-18.751-5.081-27.348c2.54-8.596,16.215-29.888,18.559-31.061
			C74.671,111.29,79.943,113.832,79.943,113.832z"/>
		<path fill="#E1A980" d="M102.32,196.355c-5.19-0.889-13.545-0.883-11.626,5.576c6.258-4.857,16.972,11.944,18.184-0.662
			c-1.526,0.328-1.807-2.965-3.445-2.645c0.212-1.744-2.84-1.229-2.746-2.643"/>
		<path fill="#CD8875" d="M151.291,123.37c-13.347,1.395-15.909,11.209-17.349,21.269c5.362-5.211,9.969-17.431,16.98-20.538"/>
		<path fill="#FFFFFF" d="M153.981,121.841c-15.015-5.127-21.486,9.961-22.464,24.417c2.426-1.62,2.981-11.86,6.806-16.282
			c2.583-2.989,5.875-5.97,11.164-7.202"/>
		<path fill="#707F8F" d="M127.655,271.23c-7.771,3.455-13.283,4.422-12.542,16.277c0.411,6.563-0.257,12.12-0.879,16.94
			c-0.497,3.831-3.85,6.501-3.85,6.501s-5.54-1.768,4.348-1.768c9.886,0,16.66-9.576,16.66-9.576s1.981-4.396,3.741-9.021
			c0.517-1.354,2.771,0.948,4.621,1.103c6.593,0.547,6.159,16.063,6.159,16.063s3.3,12.104,20.021,26.402
			c11.499,9.832,51.376,38.498,51.376,38.498l132.608-1.625c0,0-19.273-31.586-50.661-38.637
			c-25.351-5.69-60.927-22.106-78.505-34.744c-17.579-12.635-34.606-37.352-47.791-39.553c-13.185-2.193-19.584-4.418-32.22-1.119
			C128.108,260.273,127.655,271.23,127.655,271.23z"/>
		<path fill="#4A555F" d="M139.454,259.745c-7.509,5.073-10.712,26.435-11.632,35.687c-6.705-11.01-5.434-33.231,9.434-36.232"/>
		<path fill="#4A555F" d="M130.698,285.104c2.16,5.533,10.715,11.158,13.897,2.852c3.96-10.344-9.679-9.021-2.103-13.813
			c-2.194-1.666-4.883-3.242-7.167-4.705c-0.763,5.603-1.73,11.313-5.051,16.094"/>
		<path fill="#5A6774" d="M130.224,284.361c10.932,0.217-1.69-9.166,17.671-10.487c2.534-0.173,0.344-5.931,2.861-7.04
			c13.095-5.789,29.523,13.611,38.173,20.182c14.109,10.711,24.743,23.817,39.617,33.458c18.97,12.294,41.389,14.837,63.613,14.905
			c-15.307-12.535-33.716-11.667-50.584-20.922c-14.623-8.023-31.576-20.891-43.652-32.557
			c-16.642-16.084-33.034-26.883-57.183-24.918c-11.546,11.394-10.319,15.884-11.548,26.134"/>
		<path fill="#8091A7" d="M333.799,368.475c-14.834-18.13-14.885-36.089-42.9-44.883c-28.018-8.785-44.35-7.503-60.28-28.377
			c-15.931-20.875-37.585-41.343-67.325-39.604c-33.88,1.98-35.531,4.518-36.082,9.464c-0.549,4.944,1.981,10.122,1.981,10.122
			s4.969-15.846,19.8-16.943c14.832-1.098,21.77-0.152,38.799,16.876c17.029,17.029,36.038,31.869,62.402,42.304
			c26.37,10.438,44.229,16.065,49.723,21.563c5.495,5.493,19.346,32.963,19.346,32.963L333.799,368.475z"/>
		<path fill="#707F8F" d="M261.857,148.03c0,0,11.66-9.681,35.638-0.662c23.448,8.821,46.539,17.932,51.483,19.582
			c4.939,1.646,32.47,20.47,49.495,29.26c17.03,8.788,39.953,22.334,56.982,26.181c17.031,3.844,21.977,3.428,31.461,16.723
			c6.367,8.924,8.802,21.117,8.802,21.117s-4.697-14.219-20.631-21.908c-15.931-7.688-34.058-8.788-50.539-12.086
			c-16.477-3.299-45.593-14.832-58.227-23.616c-12.637-8.788-17.026-23.073-35.157-29.116
			c-18.128-6.043-50.537-14.831-58.778-17.029C264.149,154.273,261.857,148.03,261.857,148.03z"/>
		<path fill="#545F6C" d="M354.24,196.023c0,0,38.451,22.521,52.73,30.763c14.283,8.237,15.848,12.435,21.428,15.625
			c6.158,3.521,13.875,0.012,23.762,6.604c9.889,6.584,6.601,10.114,25.129,11.28c7.209,0.451,19.775,5.49,19.775,5.49
			s-4.396-20.326-12.639-26.364c-8.233-6.049-22.521-8.238-31.854-8.793c-9.347-0.548-48.346-10.438-62.627-17.574
			C375.662,205.913,354.24,196.023,354.24,196.023z"/>
		<path fill="#8091A7" d="M238.444,163.949c0,0-1.098-4.945,10.439-4.395c11.536,0.549,38.748,4.334,66.216,18.617
			c27.463,14.283,31.015,21.485,67.819,38.515c16.98,7.857,23.038,13.735,33.38,17.367c12.072,4.234,27.783,4.912,38.03,6.803
			c13.229,2.438,17.852,9.479,25.771,22.238l21.779,5.938c-3.841-6.041-21.464-32.562-32.999-36.958
			c-11.533-4.396-16.2-2.756-31.032-3.305c-14.828-0.55-28.563-8.789-37.35-11.533c-8.791-2.75-14.833-8.24-26.371-12.637
			c-11.535-4.392-15.249-12.349-27.351-21.809c-9.728-7.604-23.683-19.479-48.4-25.519c-24.718-6.043-31.367-8.702-41.256-8.702
			c-9.888,0-15.726,1-15.726,1s-2.751,3.088-5.499,8.581c-2.747,5.496-2.395,9.098-2.395,9.098L238.444,163.949z"/>
		<g>
			<g>
				<path fill="#020202" d="M313.103,361.251c-4.83-9.723-10.58-19.185-20.047-25.053c-5.615-3.479-11.48-7.082-17.628-9.407
					c-6.338-2.4-12.968-4.023-19.265-6.528c-12.933-5.138-26.397-10.332-37.674-18.604c-10.625-7.798-19.721-17.435-28.99-26.729
					c-8.094-8.113-16.277-14.336-27.837-16.152c-9.905-1.56-20.692-0.241-27.792,7.387c-9.72,10.438,3.025,23.771-2.718,35.48
					c-4.657,9.499-18.082,11.246-27.055,8.096c0.144-2,3.104-0.673,4.377-0.41c2.443,0.492,5.037-0.296,7.52-0.518
					c4.7-0.412,9.348-1.979,12.215-5.867c8.32-11.282-4.743-24.979,4.384-35.979c6.758-8.146,16.989-12.173,27.164-11.078
					c12.058,1.297,20.9,8.477,29.389,16.846c9.345,9.216,18.556,18.553,29.05,26.514c11.086,8.407,24.124,13.836,36.966,19
					c12.371,4.979,26.511,8.051,38.153,14.59c10.394,5.835,16.572,17.104,21.725,27.47c-0.352,0.177-0.84,0.397-1.188,0.571"/>
			</g>
			<g>
				<path fill="#020202" d="M113.563,303.378c-0.546-0.022-1.058-0.048-1.605-0.077c-0.31-1.818,1.463-0.837,2.677-0.926
					c2.06-0.146,4.115-0.831,5.938-1.807c3.858-2.064,6.565-5.832,7.897-9.948c3.584-11.101-4.48-22.175-1.316-33.354
					c2.076,0.076,0.368,2.471,0.257,3.823c-0.251,3.022,0.426,6.054,0.982,9.029c1.085,5.782,2.897,11.725,2.01,17.669
					c-1.257,8.404-8.026,15.531-16.84,15.531"/>
			</g>
			<g>
				<path fill="#020202" d="M140.573,256.545c-0.462-0.281-0.849-0.779-1.221-1.179c4.404-4.14,9.493-7.445,14.324-11.046
					c2.699-2.008,5.34-4.112,7.682-6.541c1.313-1.358,2.656-5.028,4.509-2.76c-6.532,9.242-17.194,14.063-25.285,21.664"/>
			</g>
			<g>
				<path fill="#020202" d="M175.126,227.143c-2.627-3.547-4.849-7.519-8.078-10.567c-1.729-1.64-3.775-2.925-5.97-3.854
					c-1.436-0.609-6.151-0.937-5.305-2.781c5.056,0.92,9.533,3.164,13.059,6.935c1.588,1.694,2.988,3.546,4.332,5.438
					c0.798,1.119,3.993,3.979,2.017,4.758"/>
			</g>
			<g>
				<path fill="#020202" d="M163.808,254.241c-2.648-0.701,0.614-4.072,1.341-5.603c1.719-3.63,3.083-7.435,4.15-11.297
					c0.98-3.542,1.778-7.158,2.009-10.824c0.112-1.729-1.372-6.566,1.213-6.045c0.806,11.875-2.92,23.563-8.626,33.825"/>
			</g>
			<g>
				<path fill="#020202" d="M142.292,292.661c-2.378,0-4.48-1.134-5.891-3.04c1.146-1.446,1.709,0.443,2.808,1.088
					c1.322,0.775,4.178,0.007,3.844,1.887c-0.262,0.014-0.497,0.014-0.761,0.022"/>
			</g>
			<g>
				<path fill="#020202" d="M192.784,286.221c-6.503-1.421-13.106-2.15-19.757-2.088c-5.612,0.051-11.346,1.162-16.928,0.947
					c-5.121-0.195-22.977-4.189-15.688-12.393c1.806,0.897-0.525,2.563-0.343,4.207c0.204,1.836,2.101,3.088,3.574,3.859
					c3.439,1.813,7.53,2.946,11.384,3.293c5.3,0.479,10.938-0.979,16.27-1.104c7.313-0.174,14.644,0.309,21.8,1.871
					c-0.085,0.383-0.223,1.02-0.305,1.396"/>
			</g>
			<g>
				<path fill="#020202" d="M137.68,282.357c-0.303-4.047,0.224-8.617,5.248-8.576c5.264,0.046,6.249-0.424,5.986-5.826
					c-0.352-7.296,9.471-7.916,14.72-7.428c0.112,2.014-4.282,1.203-5.928,1.396c-4.476,0.522-7.915,2.218-7.425,7.22
					c0.658,6.717-3.731,5.362-8.439,5.942c-3.997,0.495-2.344,7.673-4.298,7.321"/>
			</g>
			<g>
				<path fill="#020202" d="M133.46,297.389c-2.202,0.162-0.474-4.869-0.23-6.339c0.518-3.106,1.292-6.166,1.94-9.251
					c1.375-6.48,3.191-13.037,6.787-18.677c1.948,0.631-1.223,4.604-1.822,6.021c-1.256,2.976-2.415,6.006-3.194,9.141
					c-1.581,6.334-2.471,12.816-3.608,19.24"/>
			</g>
			<g>
				<path fill="#020202" d="M315.453,381.669c-5.037-1.879-9.764-6.313-14.133-9.289c-7.888-5.372-15.523-11.267-22.769-17.499
					c-5.468-4.704-10.121-9.81-14.701-15.336c-4.987-6.019-11.077-10.173-18.478-12.578c-9.216-3.007-15.436-9.574-22.995-15.096
					c-8.182-5.969-18.577-9.816-27.938-13.51c-4.384-1.73-8.967-2.952-13.382-4.59c-2.308-0.855-4.733-1.364-7.046-2.188
					c-1.232-0.438-4.748-0.842-3.555-2.623c8.661,3.013,17.366,5.688,25.888,9.067c9.455,3.755,20.509,6.619,28.6,12.939
					c7.61,5.948,12.875,12.823,22.242,16.112c7.434,2.608,13.565,6.289,18.503,12.399c10.484,12.965,22.892,22.215,36.631,31.571
					c3.733,2.541,6.973,5.896,10.851,8.217c1.124,0.679,3.963,0.798,2.938,2.305"/>
			</g>
			<g>
				<path fill="#020202" d="M202.968,302.96c-7.005-1.542-14.241-1.579-21.332-2.521c-0.251-2.104,6.278-0.657,7.904-0.515
					c4.586,0.416,9.19,0.87,13.693,1.86c-0.083,0.377-0.187,0.848-0.271,1.229"/>
			</g>
			<g>
				<path fill="#020202" d="M479.9,262.213c-5.369-9.65-12.362-17.66-23.243-20.883c-10.834-3.203-22.417-2.559-33.473-4.605
					c-12.695-2.346-22.768-10.514-34.059-16.384c-12.633-6.563-25.881-11.94-38.333-18.842
					c-9.641-5.339-17.945-12.267-27.152-18.224c-7.473-4.833-15.599-8.72-23.978-11.57c-10.95-3.739-20.924-6.879-32.234-9.378
					c-5.562-1.231-12.21-2.572-17.905-2.864c-2.828-0.148-5.822-0.765-8.643-0.487c-1.536,0.155-4.563,1.944-4.383-0.497
					c20.993-4.201,44.798,5.69,64.335,12.345c8.88,3.025,16.631,7.224,24.476,12.439c9.26,6.158,17.896,12.803,27.684,18.182
					c11.921,6.548,24.814,11.229,36.879,17.498c11.495,5.979,21.462,15.176,34.438,17.414c11.067,1.908,22.703,0.795,33.49,4.213
					c10.83,3.429,17.223,11.666,22.604,21.332c-0.396,0.219-1.093,0.914-1.527,1.02"/>
			</g>
			<g>
				<path fill="#020202" d="M238.897,166.114c-0.388-0.059-0.745-0.12-1.129-0.178c0.484-3.283,2.033-6.376,3.927-9.059
					c1.929,0.756-0.266,2.444-0.883,3.608c-0.926,1.747-1.641,3.655-1.929,5.62"/>
			</g>
			<g>
				<path fill="#020202" d="M211.734,167.729c-0.409-0.197-0.66-0.7-1.011-0.995c2.445-2.934,6.054-3.661,9.688-4.007
					c3.131-0.301,6.065-0.397,9.023-1.631c1.588-0.661,4.445-3.526,5.33-1.074c-5.035,3.458-9.837,3.539-15.651,4.298
					c-2.771,0.358-5.485,1.078-7.339,3.301"/>
			</g>
			<g>
				<path fill="#020202" d="M501.347,267.535c-7.958-8.951-13.315-19.501-22.047-27.782c-8.521-8.089-20.673-10.327-31.973-10.167
					c-25.794,0.382-52.043-10.453-73.423-24.411c-9.229-6.021-16.869-14.112-25.842-20.493
					c-10.912-7.759-23.186-13.657-35.273-19.41c-13.354-6.355-27.551-10.862-42.125-13.552c-6.363-1.177-12.741-3.029-19.224-2.946
					c-2.773,0.035-5.351,2.037-8.094,2.446c-1.809,0.268-6.748,1.083-7.305-0.765c-0.037-0.12,0.337-1.625,0.3-1.745
					c12.097-3.651,26.205-1.644,38.336,0.93c14.58,3.094,28.958,8.262,42.291,14.865c11.919,5.905,23.24,13.417,33.976,21.267
					c8.875,6.487,16.726,14.021,26.08,19.85c21.969,13.684,47.057,21.152,73.002,20.988c11.063-0.07,23.218,5.004,31.032,13.283
					c3.981,4.228,7.945,8.221,10.799,13.254c1.036,1.836,10.063,15.521,10.148,15.438c-0.271,0.242-2.056,0.257-2.323,0.498"/>
			</g>
			<g>
				<path fill="#020202" d="M233.623,167.532c-2.467,0.039,0.846-8.719,1.545-10.358c2.42-5.664,7.193-9.421,12.758-11.754
					c1.226,1.641-3.626,3.13-4.949,4.032c-2.282,1.559-4.216,3.543-5.632,5.928c-2.196,3.712-2.824,8.009-3.616,12.178"/>
			</g>
			<g>
				<path fill="#020202" d="M365.096,174.033c-7.969-3.566-16.105-6.648-24.41-9.365c-7.558-2.471-15.265-4.515-22.621-7.573
					c-10.483-4.361-20.704-10.358-31.904-12.7c-4.425-0.924-8.926-0.131-13.337,0.837c-2.702,0.591-5.577,0.681-8.117,1.778
					c-1.649,0.715-3.296,3.071-3.854,0.414c9.222-4.691,18.817-6.536,28.872-3.71c10.081,2.833,19.483,7.496,29.115,11.502
					c6.992,2.909,14.219,5.067,21.411,7.377c8.71,2.798,17.114,6.264,25.46,10.003c-0.222,0.5-0.242,0.956-0.587,1.38"/>
			</g>
			<g>
				<path fill="#020202" d="M478.944,228.879c-12.19-5.199-25.479-5.396-37.787-9.967c-12.425-4.62-24.61-11.042-35.864-18.032
					c-10.311-6.405-20.822-12.438-31.21-18.721c-5.188-3.139-10.062-6.812-15.319-9.825c-2.273-1.304-4.688-2.383-7.033-3.558
					c-1.445-0.726-3.469-0.398-1.977-2.266c9.905,4.08,19.176,10.039,28.313,15.557c10.361,6.26,20.324,13.181,30.713,19.391
					c10.758,6.438,22.938,11.458,34.774,15.623c11.905,4.188,24.14,5.609,35.888,10.615c-0.22,0.506-0.487,1.617-0.825,2.047"/>
			</g>
			<g>
				<path fill="#020202" d="M434.233,226.146c-19.858-8.644-37.604-21.41-56.161-32.438c-8.506-5.058-17.238-9.711-25.707-14.826
					c-4.609-2.782-9.334-5.346-14.221-7.611c-2.082-0.968-4.203-1.806-6.367-2.585c-1.324-0.477-5.457-0.875-4.412-2.775
					c9.738,2.583,18.641,7.614,27.173,12.833c8.956,5.472,18.101,10.604,27.086,16.025c9.149,5.515,18.063,11.418,27.262,16.851
					c4.809,2.837,9.604,5.698,14.562,8.28c2.111,1.102,4.5,1.662,6.653,2.688c1.271,0.604,5.484,1.677,4.141,3.438"/>
			</g>
			<g>
				<path fill="#020202" d="M347.125,365.966c-2.171-0.873,0.146-3.102,1.021-4.281c1.521-2.048,3.521-3.766,4.979-5.856
					c3.38-4.871,6.175-10.146,9.382-15.132c7.146-11.118,13.957-22.438,20.822-33.73c6.999-11.521,13.555-23.166,20.005-35.004
					c6.319-11.593,13.594-23.468,23.756-32.188c2.08,1.394-1.313,2.42-2.406,3.545c-2.113,2.172-4.112,4.469-5.938,6.889
					c-3.967,5.296-6.957,11.23-10.212,16.977c-6.969,12.303-13.886,24.549-21.232,36.64c-12.642,20.811-25.101,42.216-40.098,61.459
					"/>
			</g>
			<g>
				<path fill="#020202" d="M552.402,292.723c-6.482-1.699-12.623-6.22-18.284-9.588c-7.17-4.264-14.201-7.885-22.251-10.318
					c-7.526-2.271-15.183-3.807-22.79-5.705c-6.286-1.563-11.414-5.185-17.892-5.99c-7.832-0.975-12.376-2.586-17.385-8.637
					c-2.16-2.602-4.378-5.613-7.765-6.42c-3.961-0.94-8.267,0.756-12.268,0.127c-3.027-0.475-4.97-2.944-7.436-4.623
					c-1.216-0.83-2.875-0.471-4.324-0.736c-1.292-0.236-3.588-0.667-3.146-2.609c6.529-0.158,10.539,5.561,16.916,6.002
					c3.669,0.254,7.396,0.262,10.99,1.28c3.829,1.093,6.896,4.083,9.315,7.076c4.755,5.877,9.496,6.229,16.651,7.342
					c3.598,0.56,6.548,1.851,9.688,3.563c3.496,1.904,7.385,2.591,11.252,3.387c7.063,1.449,14.111,3.023,20.971,5.313
					c8.177,2.731,15.08,7.463,22.48,11.741c3.992,2.312,7.814,5.078,12.034,6.951c1.227,0.54,4.023,0.162,3.101,1.858"/>
			</g>
			<g>
				<path fill="#020202" d="M369.247,370.594c-2.022-0.755,0.571-3.483,1.317-4.592c3.14-4.683,6.617-9.133,9.735-13.826
					c6.9-10.363,13.445-20.959,20.229-31.4c7.063-10.881,13.961-21.846,20.219-33.209c3.323-6.039,7.093-11.86,10.063-18.084
					c1.45-3.049,1.998-6.514,3.367-9.601c0.703-1.587,3.402-8.715,5.136-7.438c-8.878,21.244-19.661,41.555-31.763,61.085
					c-12.087,19.513-25.61,38.185-38.427,57.165"/>
			</g>
			<g>
				<path fill="#020202" d="M392.414,278.807c-2.742-1.563-4.729-2.394-3.395-5.979c0.332-0.891,4.258-0.741,4.231,0.863
					c-1.418,0.187-3.382-0.709-3.575,1.121c-0.178,1.715,2.178,2.345,3.307,2.992c-0.189,0.338-0.371,0.697-0.567,1.035"/>
			</g>
			<g>
				<path fill="#020202" d="M242.329,267.652c-4.994,0-6.646-5.715-4.961-9.672c1.517,0.233,0.12,5.095,1.719,6.941
					c2.181,2.534,5.522,1.393,7.651-0.557c2.462-2.25,3.239-6.176-0.181-7.979c-1.667-0.875-3.623-0.758-5.25,0.115
					c-1.214,0.652-2.248,2.91-3.39,1.27c2.933-3.379,9.05-4.842,11.574-0.078c2.375,4.486-2.641,9.945-7.163,9.945"/>
			</g>
			<g>
				<path fill="#020202" d="M320.627,186.5c-4.736,0-8.237-3.341-7.686-8.187c1.457-0.203,1.598,4.83,3.775,6.065
					c1.737,0.987,6.816,0.048,6.782,1.698c-0.958,0.23-1.885,0.334-2.871,0.337"/>
			</g>
			<g>
				<path fill="#020202" d="M299.073,222.471c-3.093-1.84-6.168-3.701-9.261-5.537c-1.551-0.925-8.873-3.865-7.615-5.438
					c3.379,1.581,6.615,3.431,9.804,5.361c1.456,0.877,8.544,4.064,7.028,5.604"/>
			</g>
			<g>
				<path fill="#020202" d="M177.434,244.811c-0.343-0.188-0.59-0.512-0.932-0.699c7.983-14.739,21.541-23.846,35.541-32.313
					c1.479,1.472-6.06,4.856-7.574,5.836c-3.672,2.371-7.177,5.009-10.579,7.752c-6.646,5.366-12.408,11.697-16.481,19.224"/>
			</g>
			<g>
				<path fill="#020202" d="M236.179,190.716c-1.833-0.899,0.966-3.221,1.612-4.522c1.127-2.274,1.796-4.748,2.435-7.197
					c1.35-5.188,2.519-10.614,6.006-14.858c1.86,0.875-1.067,3.516-1.704,4.835c-1.121,2.315-1.83,4.825-2.475,7.307
					c-1.329,5.106-2.41,10.419-5.933,14.542"/>
			</g>
			<g>
				<path fill="#020202" d="M349.62,372.345c-4.587-6.979-9.638-13.715-15.868-19.333c-2.866-2.592-5.932-4.961-9.109-7.142
					c-2-1.374-3.988-2.774-6.042-4.062c-1.201-0.757-5.548-2.093-4.001-3.714c-0.994,0.54,0.266-0.129,0.052-0.165
					c2.577,1.585,5.05,3.336,7.584,4.988c3.934,2.557,7.777,5.263,11.324,8.343c6.752,5.87,12.073,13.055,16.967,20.492
					c-0.327,0.214-0.533,0.344-0.861,0.559"/>
			</g>
			<g>
				<path fill="#020202" d="M107.222,216.816c-6.607,0-13.972-1.227-18.593-6.375c-4.839-5.396-3.908-12.855,0.397-18.262
					c2.346,1.028-0.613,3.635-1.269,5.258c-1.083,2.677-1.437,5.695-0.376,8.408c2.119,5.44,8.108,8.223,13.565,9.075
					c5.135,0.81,11.314,1.114,16.129-1.149c2.629-1.237,4.695-3.763,5.235-6.619c0.393-2.063-2.067-5.143-0.183-6.107
					c2.989,3.169,1.438,8.366-1.167,11.284c-3.392,3.797-8.94,4.506-13.737,4.506"/>
			</g>
			<g>
				<path fill="#020202" d="M93.127,205.876c-7.433-5.14-0.35-11.125,6.438-9.937c0.12,1.492-6.261,1.188-7.923,3.133
					c-2.546,2.979,3.161,5.359,1.479,6.822"/>
			</g>
			<g>
				<path fill="#020202" d="M153.174,211.805c-5.016,0-8.431-2.354-13.476-1.962c0.506-1.071-0.87-2.669-0.87-2.669
					c-4.817,0.516-10.603,1.225-15.101-1.059c0.328-1.629,5.403,0.221,7.067,0.27c3.219,0.086,6.461-0.421,9.656-0.766
					c0,0,0.973,1.738,0.841,2.91c2.896-0.051,5.771,0.496,8.617,0.959c1.708,0.279,3.457,0.422,5.192,0.363
					c0.32,0.627,0.115,1.279-0.522,1.279"/>
			</g>
			<g>
				<path fill="#020202" d="M137.014,227.367c-0.943-3.077,4.968-1.891,6.997-2.098c3.522-0.362,7.031-1.024,10.454-1.936
					c2.806-0.74,5.599-1.676,8.16-3.049c1.583-0.85,3.489-3.657,4.525-1.115c-8.216,6.549-19.994,7.82-30.097,8.182"/>
			</g>
			<g>
				<path fill="#020202" d="M224.956,174.21c-7.196-0.528-14.349-4.652-20.434-8.21c-5.887-3.446-12.713-7.349-17.07-12.748
					c1.596-2.275,2.378,0.328,5.857,3.052c3.665,2.871,7.533,5.466,11.534,7.839c3.867,2.29,7.815,4.48,11.983,6.172
					c1.887,0.765,3.762,1.667,5.751,2.111c1.525,0.345,3.158-0.218,2.36,1.913"/>
			</g>
			<g>
				<path fill="#020202" d="M215.487,172.044c-0.302-0.002-0.67-0.081-0.972-0.083c-0.63-2.624,4.972-1.488,6.802-1.714
					c3.034-0.378,6.036-1.139,8.875-2.273c5.621-2.249,10.498-6.102,16.359-7.788c1.336,2.264-2.946,2.497-4.498,3.23
					c-2.789,1.316-5.357,3.064-8.116,4.438c-5.786,2.879-11.996,3.997-18.45,3.997"/>
			</g>
			<g>
				<path fill="#020202" d="M97.756,151.298c-0.39-0.002-0.819-0.002-1.211-0.005c0.043-6.244,1.991-17.213,9.555-18.741
					c0.612,1.499-4.015,3.857-5.061,5.507c-2.556,4.036-3.238,8.523-3.27,13.239"/>
			</g>
			<g>
				<path fill="#020202" d="M130.188,110.879c-0.352-0.176-0.671-0.364-1.021-0.542c1.118-2.208,3.417-3.476,5.87-3.41
					c0.387,1.464-3.869,1.985-4.852,3.928"/>
			</g>
			<g>
				<path fill="#020202" d="M124.38,125.327c-4.883,0-2.116-5.623,0.33-6.955c1.714,1.794-3.546,2.813-1.663,5.128
					c2.483,3.045,2.961-2.206,3.316-2.912c2.674,1.207,0.151,4.726-1.981,4.726"/>
			</g>
			<g>
				<path fill="#020202" d="M134.863,116.358c-2.259,0-2.529-2.935-2.02-4.513c0.374,0.11,0.741,0.23,1.114,0.343
					c-0.293,0.769-0.381,2.329,0.431,2.865c1.869,1.231,1.37-2.756,3.327-1.942c-0.194,1.511-1.111,3.268-2.852,3.268"/>
			</g>
			<g>
				<path fill="#020202" d="M115.439,114.816c-1.178-2.137,9.183-6.464,11.35-6.631c4.808-0.368,10.922,1,13.041,5.848
					c-1.35,1.102-2.805-2.235-4.162-3.058c-2.081-1.263-4.693-1.863-7.118-1.868c-2.317,0-4.675,0.439-6.672,1.719
					c-2.218,1.419-3.813,3.245-6.509,3.902"/>
			</g>
			<g>
				<path fill="#020202" d="M134.198,146.163c-1.672-0.893,3.52-6.264,4.554-7.814c2.083-3.111,4.042-6.284,6.327-9.259
					c4.326-5.638,9.233-8.559,16.218-9.726c0.778,1.733-5.271,2.425-6.858,3.11c-2.696,1.158-4.863,3.067-6.77,5.268
					c-5.017,5.789-8.364,12.736-13.512,18.451"/>
			</g>
			<g>
				<path fill="#020202" d="M132.176,146.188c-0.389-0.001-0.733-0.066-1.123-0.068c0.019-12.979,6.288-30.659,22.555-25.512
					c-0.102,1.694-6.117,0.018-8.001,0.331c-3.526,0.585-6.465,2.848-8.475,5.734c-3.836,5.51-5.009,12.868-5.02,19.451"/>
			</g>
			<g>
				<path fill="#020202" d="M133.608,144.138c-2.388-0.146,2.062-10.111,2.885-11.782c2.677-5.422,7.137-9.346,13.422-9.581
					c0.564,1.828-3.439,1.629-4.854,2.263c-2.479,1.111-4.397,3.055-5.88,5.296c-2.742,4.147-4.198,9.002-5.652,13.702"/>
			</g>
			<g>
				<path fill="#020202" d="M188.328,154.592c-2.336-3.554-2.318-6.304-2.905-10.638c-0.487-3.582-1.139-8.075-2.92-11.414
					c-3.98-7.471-12.88-14.615-19.925-19.116c-7.599-4.854-16.363-4.368-24.674-7.11c-4.542-1.498-8.656-3.731-13.505-4.091
					c-4.627-0.341-9.414,0.677-14.046,0.677c-0.854-3.062,6.99-2.047,9.14-2.09c5.289-0.104,10.371,0.43,15.289,2.472
					c8.661,3.597,18.357,3.205,26.594,7.771c7.942,4.401,17.373,12.133,22.049,19.981c2.547,4.276,3.431,8.385,4.129,13.064
					c0.357,2.399,0.783,4.694,1.25,6.908c0.349,1.66,1.646,3.067-0.711,3.806"/>
			</g>
			<g>
				<path fill="#020202" d="M93.533,194.219c-1.822-0.85-3.602-2.053-4.986-3.519c0.893-1.462,6.094,2.165,4.981,3.503"/>
			</g>
			<g>
				<path fill="#020202" d="M86.103,223.789c-1.65-3.479-5.492-4.852-8.154-7.385c-3.19-3.032-4.565-7.479-6.388-11.359
					c-0.229,0.781-0.168,1.416-0.253,2.221c-5.818-4.063-9.478-13.177-8.983-20.158c2.698-0.599,2.313,4.967,2.887,6.996
					c0.986,3.506,2.381,7.256,4.89,9.978c0.463-1.459,0.549-2.728,0.781-4.228c2.002,3.776,3.605,7.729,5.661,11.472
					c2.729,4.968,8.836,6.6,11.243,11.668c-0.493,0.229-1.178,0.755-1.709,0.849"/>
			</g>
			<g>
				<path fill="#020202" d="M83.343,147.226c-3.33-10.627,1.612-21.533,12.86-23.889c0.875,1.755-3.662,2.308-5.037,3.074
					c-2.285,1.278-4.205,3.116-5.533,5.379c-1.525,2.604-2.296,5.621-2.284,8.622c0.008,1.676,2.003,6.65,0.057,6.766"/>
			</g>
			<g>
				<path fill="#020202" d="M112.256,108.587c-0.365-0.131-0.778-0.284-1.147-0.415c2.105-5.892,10.776-5.802,15.855-5.707
					c0.481,1.89-5.942,1.303-7.583,1.593c-2.778,0.491-6.115,1.584-7.163,4.506"/>
			</g>
			<g>
				<path fill="#020202" d="M67.859,160.028c-0.292-3.627,0.938-7.243,0.871-10.896c-0.072-3.946-0.744-7.718-1.304-11.607
					c-0.984-6.835,0.872-11.734,5.791-16.603c2.183,1.286-2.566,4.611-3.485,6.392c-1.595,3.104-1.512,6.524-1.034,9.902
					c0.418,2.96,3.152,23.409-0.877,22.654"/>
			</g>
			<g>
				<path fill="#020202" d="M97.502,191.411c-7.317,0-7.798-7.636-12.238-11.581c-2.832-2.521-6.579-4.087-9.026-7.043
					c-2.315-2.793-0.839-6.356-1.343-9.6c-1.588,2.465-3.528,4.359-5.733,6.249c1.318-4.652,0.894-9.051,0.805-13.833
					c2.759-0.837,1.974,7.605,1.808,9.413c1.311-1.599,2.28-3.256,3.42-4.975c1.754,3.21,0.796,6.148,1.327,9.56
					c0.666,4.254,7.127,6.387,9.986,8.966c2.851,2.567,3.476,6.705,6.02,9.472c0.982,1.068,2.364,1.625,3.801,1.829
					c0.705,0.101,2.138,1.518,1.172,1.518"/>
			</g>
			<g>
				<path fill="#020202" d="M114.699,205.909c-1.745,0.366-0.93-1.121-1.24-2.255c-0.365-1.338-2.209-1.064-3.233-1.334
					c-1.772-0.463-9.517-5.826-8.003-7.122c2.535,1.771,5.282,5.212,8.33,5.985c2.989,0.756,4.329,0.99,4.102,4.666"/>
			</g>
			<g>
				<path fill="#020202" d="M103.981,211.843c-6.774,0-11.919-11.737-2.465-10.825c0.406,2.436-4.248,0.047-4.344,3.188
					c-0.09,2.935,3.264,5.976,5.948,6.485c6.155,1.164,1.919-8.145,8.5-7.555c0.242,1.309-3.048,1.465-3.293,4.152
					c-0.245,2.654-1.363,4.632-4.346,4.632"/>
			</g>
			<g>
				<path fill="#020202" d="M496.643,268.588c-0.4-8.418-4.192-18.67-8.348-25.939c-4.911-8.615-12.99-12.547-19.468-19.598
					c0.938-1.516,1.3-1.084,2.379-0.029c1.834,1.804,3.927,3.307,5.964,4.865c4.246,3.256,7.888,6.674,10.822,11.188
					c5.26,8.091,9.646,19.728,10.109,29.438c-0.548,0.023-0.902,0.168-1.436,0.051"/>
			</g>
			<g>
				<path fill="#020202" d="M349.984,381.281c-10.965-7.135-19.014-16.505-26.176-27.488c-4.993-7.656-9.475-14.375-16.555-20.47
					c-18.004-15.498-44.189-11.983-64.055-24.151c-10.649-6.521-16.903-17.436-25.572-26.104
					c-8.085-8.084-18.04-15.895-28.387-20.813c-10.933-5.197-24.281-5.747-36.161-4.611c-6.3,0.602-12.576,1.018-18.893,1.455
					c-1.191,0.082-6.751,1.799-7.57,0.836c-1.001-1.183,1.114-2.693,1.942-3.178c1.48,1.296,0.935,0.096,0.204,1.049
					c11.638,0.559,23.095-2.414,34.789-2.313c12.798,0.108,24.759,2.196,35.457,9.391c9.425,6.341,18.792,13.819,26.232,22.406
					c8.083,9.328,14.731,19.159,26.253,24.247c10.949,4.841,23.362,5.486,34.905,8.371c10.126,2.528,19.692,7.563,26.924,15.1
					c6.218,6.479,9.156,15.592,14.4,22.78c3.729,5.104,8.012,9.378,12.785,13.545c2.125,1.856,3.82,4.243,6.145,5.845
					c1.521,1.047,5.607,2.202,3.344,4.214"/>
			</g>
			<g>
				<path fill="#020202" d="M117.33,314.504c-3.883-1.588-3.815-6.195-3.367-9.703c0.695-5.441,1.172-10.138,0.825-15.656
					c-0.266-4.219-0.676-9.896,2.287-13.406c2.096-2.484,5.558-3.438,8.5-4.454c0.129,0.368,0.298,0.778,0.428,1.146
					c-2.648,0.91-6.104,1.483-8.085,3.609c-2.982,3.195-2.173,9.118-1.926,13.051c0.336,5.278-0.03,9.771-0.82,14.979
					c-0.306,2.028-0.326,4.182,0.208,6.203c0.494,1.854,2.806,2.507,1.961,4.074"/>
			</g>
			<g>
				<path fill="#020202" d="M214.666,370.781c-19.433-10.56-37.591-24.461-54.007-39.212c-7.476-6.723-13.303-15.679-15.963-25.442
					c-1.749-6.425-2.988-18.338,1.777-23.9c2.25,1.01-0.81,5.816-1.123,7.981c-0.614,4.229-0.499,8.55,0.332,12.745
					c1.973,9.992,8.065,18.778,15.384,25.718c8.641,8.196,18.309,15.612,27.814,22.771c4.751,3.573,9.654,6.919,14.653,10.146
					c2.486,1.609,4.806,3.479,7.363,4.965c1.625,0.952,5.955,1.889,3.822,4.118"/>
			</g>
			<g>
				<path fill="#020202" d="M555.753,368.965c-17.718-5.616-34.333-14.738-51.589-21.595c-10.68-4.245-29.218-7.5-27.571-22.817
					c1.824-0.287,1.354,1.461,1.426,2.681c0.115,1.896,0.527,3.638,1.474,5.294c1.661,2.938,4.21,5.173,7.116,6.791
					c5.979,3.32,12.839,4.707,19.151,7.265c9.612,3.892,19.014,8.33,28.489,12.531c4.667,2.063,9.17,4.52,13.886,6.463
					c1.656,0.685,8.4,1.563,7.5,3.398"/>
			</g>
			<g>
				<path fill="#020202" d="M115.29,229.189c-4.008,0-7.151-3.256-11.018-3.996c-5.107-0.453-10.005-1.146-14.75-3.207
					c0.381-2.635,2.218-0.912,3.92-0.375c2.486,0.789,5.043,1.305,7.63,1.58c1.68,0.182,3.529,0.031,5.174,0.507
					c2.901,0.842,5.209,3.09,8.198,3.635c2.237,0.405,1.713-1.631,3.85-1.995c2.065-0.355,4.029,1.045,6.039,1.258
					c1.846,0.285,3.861,0.483,5.724,0.307c1.86-0.182,3.751-2.266,4.806-0.036c-2.644,2.38-7.46,1.933-10.706,1.423
					c-1.804-0.188-3.696-1.313-5.529-0.995c-1.403,0.241-1.581,2.002-3.342,2.002"/>
			</g>
		</g>
	</g>
</g>
<g>
	<g>
		<path fill="#0892C0" d="M118.715-6.521c-1.597,7.193-5.196,17.984-6.794,23.181c-1.598,5.194-5.595,13.187-11.191,18.784
			c-5.594,5.592-5.994,7.193-5.994,7.193s7.992,9.193,23.18,18.783c15.188,9.593,18.784,9.194,18.784,9.194
			s9.591-16.388,17.985-23.98c8.393-7.595,12.389-8.394,18.785-13.189c6.392-4.795,19.945-32.354,19.945-32.354L118.715-6.521z"/>
		<path fill="#ECAF8B" d="M97.533,45.033c0,0-5.996,13.588-13.989,23.98c-7.993,10.392-9.193,11.989-20.782,18.784
			c-11.591,6.797-13.588,10.791-19.982,15.986c-6.397,5.196-9.194,5.595-9.194,5.595s2.797,21.981,5.195,37.17
			c2.398,15.188,3.597,25.178,7.995,36.769c4.395,11.588,6.793,12.39,6.793,12.39s4.396-2.794,5.594-5.195
			c1.2-2.396,1.2-2.396,1.2-2.396s1.998-7.596-1.2-17.585c-3.196-9.993-5.995-14.787-5.995-14.787s9.591-7.594,10.392-19.185
			c0.8-11.591,7.595-17.186,12.389-17.586c4.796-0.4,22.781-9.591,25.579-13.586c2.796-3.999,2.796-3.999,2.796-3.999
			s10.792-0.797,11.59-9.991c0.799-9.193,7.993-17.586,9.192-19.583c1.199-1.999,3.997-4.397,3.997-4.397
			S104.324,54.225,97.533,45.033z"/>
		<path fill="#F2D7C5" d="M46.375,144.151c-0.583,4.428-1.6,17.186,6.894,11.688c5.73-3.708,2.725-17.55-6.094-12.087"/>
		<path fill="#F2D7C5" d="M50.771,180.121c4.853,0.313,5.998,3.595,7.126,8.33c-2.613-1.143-4.983-3.549-6.326-6.332"/>
		<path fill="#F2D7C5" d="M47.974,186.518c3.637,1.619,6.163,4.404,5.943,8.377c-1.463-1.91-3.179-3.791-4.346-5.979"/>
	</g>
	<g>
		<g>
			<g>
				<path fill="#020202" d="M84.091,66.113c-1.726,2.625-3.487,5.231-5.213,7.859c-3.58,5.442-8.71,8.489-14.455,11.375
					c-3.353,1.682-6.436,3.594-9.312,6.058c-2.791,2.39-4.805,5.526-7.267,8.238c-2.638,2.906-6.103,4.74-9.331,6.961
					c-2.426,1.668-6.184,3.953-6.489,7.289c0.444,0.04,0.89-0.364,1.334-0.322c0.711,0.065,0.894,0.392,1.198-0.2
					c0.939-1.835,2.378-3.74,4.012-4.855c4.188-2.854,7.749-5.872,11.116-9.659c2.981-3.357,6.603-6.057,10.53-8.344
					c3.769-2.198,7.588-4.211,11.274-6.593c3.539-2.291,6.273-5.395,8.481-9.02c1.075-1.663,3.089-2.726,4.178-4.379
					c4.051-6.159,8.195-12.294,11.862-18.694c1.103-1.929,1.578-4.151,2.524-6.162c-0.403-0.19-0.766,0.04-1.169-0.151
					c-0.81-0.38-1.242,0.523-1.582,1.187c-1.14,2.232-1.755,4.755-3.052,6.899c-2.624,4.332-5.715,8.379-8.55,12.575"/>
			</g>
		</g>
		<g>
			<g>
				<path fill="#020202" d="M32.938,110.041c-1.461,5.349,1.197,11.535,2.166,16.769c1.44,7.771,2.421,15.692,2.823,23.596
					c0.14,2.77,0.676,5.244,1.61,7.888c1.266,3.584,2.328,7.28,3.841,10.764c2.691,6.199,6.274,11.806,10.298,17.288
					c1.476,2.01,3.17,3.771,4.901,5.571c0.204-0.192,1.121-0.83,0.961-1.003c-0.514-0.542-1.606-0.602-2.089-1.175
					c-2.229-2.632-4.175-5.625-5.998-8.552c-3.371-5.402-5.232-11.708-7.738-17.541c-1.396-3.252-3.118-6.649-3.654-10.181
					c-0.376-2.496,0.452-5.196,0.216-7.716c-0.813-8.756-2.762-17.334-4.485-25.947c-0.466-2.324-0.501-4.727-0.366-7.117
					c0.071-1.319-0.123-2.684,0.172-3.964c-0.573-0.095-1.045-0.938-1.614-1.032c-0.142-0.025-0.312,2.307-0.363,2.537"/>
			</g>
		</g>
		<g>
			<g>
				<path fill="#020202" d="M40.296,161.128c1.81,7.704,3.063,15.617,6.437,22.823c1.666,3.56,3.858,6.886,5.422,10.496
					c0.312,0.728,0.526,1.5,0.828,2.229c0.204,0.492,0.755-0.053,1.153-0.212c-2.006-5.08-4.477-9.938-6.634-14.946
					c-2.853-6.625-4.345-13.69-5.992-20.688c-0.487,0.115-1.049,0.364-1.534,0.479"/>
			</g>
		</g>
		<g>
			<g>
				<path fill="#020202" d="M57.729,104.06c-0.512,6.731-4.164,12.151-7.498,17.839c-1.289,2.197-2.43,4.518-3.276,6.936
					c-0.853,2.447-0.609,4.879-0.689,7.438c-0.186,6.057-2.658,12.335-1.986,18.399c1.262-0.141,1.869-0.009,1.797-1.358
					c-0.095-1.742-0.16-3.516,0-5.252c0.34-3.753,1.339-7.454,1.496-11.222c0.123-2.987-0.402-5.907,0.776-8.71
					c0.979-2.328,2.784-4.266,4.032-6.455c2.035-3.564,4.398-7.071,5.681-10.997c0.658-2.016,0.856-4.138,1.019-6.247
					c0.104-1.348-0.367-2.938,0.171-4.198c0.2-0.467,1.671-1.27,1.208-1.6c-0.326-0.234-1.101-0.375-1.428-0.607
					c-1.247,1.746-1.388,3.931-1.549,6.018"/>
			</g>
		</g>
		<g>
			<g>
				<path fill="#020202" d="M63.741,131.567c-0.676,6.769-2.537,14.834-7.144,20.116c-1.629,1.868-3.655,3.545-6.242,3.585
					c-1.5,0.022-2.96-0.183-4.246-0.921c-0.265-0.152-1.973-1.404-2.027-1.334c-0.29,0.369-0.473,0.637-0.766,1.006
					c4.245,3.353,9.097,4.28,13.277,0.604c4.372-3.842,6.658-10.06,7.981-15.556c1.285-5.34,0.681-10.939,4.5-15.302
					c1.681-1.923,3.806-3.215,6.058-4.392c1.358-0.711,2.689-1.392,4.124-1.929c0.432-0.162,1.132-0.439,0.943-0.982
					c-0.132-0.377-0.406-0.852-0.535-1.229c-7.607,2.644-14.699,7.72-15.565,16.369"/>
			</g>
		</g>
		<g>
			<g>
				<path fill="#020202" d="M52.571,157.631c0.938,3.425,3.003,6.542,4.333,9.832c1.515,3.754,2.855,7.744,3.442,11.765
					c0.362,2.477,0.384,5.418-1.049,7.603c-0.587,0.894-1.583,1.377-2.518,1.89c-0.184,0.098-0.948,0.594-0.902,0.713
					c0.167,0.439,0.208,0.996,0.374,1.438c6.816-2.595,5.896-10.079,4.353-15.903c-1.01-3.803-2.388-7.454-4.004-11.04
					c-0.74-1.651-1.265-3.398-1.943-5.078c-0.085-0.212-0.666-1.75-0.783-1.72c-0.456,0.125-1.122,0.373-1.576,0.497"/>
			</g>
		</g>
		<g>
			<g>
				<path fill="#020202" d="M51.644,195.159c0.071,0.39,0.156,0.771,0.229,1.163c3.829-0.697,7.434-3.23,7.713-7.374
					c-0.706-0.05-1.22-0.355-1.33,0.403c-0.147,1.037-0.498,2.03-1.143,2.855c-1.309,1.686-3.388,2.673-5.445,3.046"/>
			</g>
		</g>
		<g>
			<g>
				<path fill="#020202" d="M91.437,112.292c-3.828,2.435-7.929,4.668-12.387,5.63c-0.917,0.196-1.862,0.238-2.804,0.287
					c-0.823,0.043-0.49,0.793-0.525,1.578c5.738,0.279,11.862-3.349,16.483-6.29c5.976-3.804,11.798-7.919,13.998-14.952
					c-0.245-0.075-1.248-0.626-1.449-0.52c-0.199,0.639,0.088,1.513-0.169,2.13c-0.58,1.383-1.683,2.501-2.615,3.676
					c-2.808,3.54-6.718,6.131-10.487,8.528"/>
			</g>
		</g>
		<g>
			<g>
				<path fill="#020202" d="M115.654,87.328c-0.86,3.688-1.848,7.707-4.463,10.541c-0.961,1.038-2.219,1.766-3.55,2.268
					c-0.611,0.229-1.114,0.174-0.956,0.86c0.101,0.434,0.296,0.558,0.396,0.992c7.602-1.754,9.25-10.34,11.145-16.634
					c1.216-4.03,3.622-7.41,6.238-10.699c1.458-1.835,2.596-3.952,4.205-5.658c0.253-0.269,2.505-2.215,2.429-2.288
					c-0.417-0.403-0.949-1.161-1.365-1.563c-6.292,6.534-11.925,13.141-14.036,22.19"/>
			</g>
		</g>
		<g>
			<g>
				<path fill="#020202" d="M48.557,142.264c-2.779,0.937-2.906,4.677-2.723,7.103c0.793-0.059,1.235,0.224,1.199-0.66
					c-0.045-1.107-0.08-2.256,0.287-3.313c0.627-1.817,2.297-2.507,4.034-1.713c2.11,0.962,3.597,3.378,3.463,5.711
					c-0.073,1.217-0.506,2.41-1.255,3.356c-0.531,0.675-0.134,0.664,0.449,1.201c2.075-2.254,2.758-5.435,1.239-8.162
					c-1.201-2.159-4.021-4.273-6.646-3.388"/>
			</g>
		</g>
		<g>
			<g>
				<path fill="#020202" d="M91.944,40.553c6.233,5.992,12.756,11.723,19.563,17.056c4.071,3.188,8.325,6.464,12.993,8.738
					c2.901,1.416,5.829,2.831,8.859,3.938c1.479,0.54,3.11,0.673,4.55,1.313c0.422,0.186,1.065,0.807,1.318,0.28
					c0.173-0.361,0.364-1.037,0.537-1.396c-5.633-2.709-11.881-3.945-17.254-7.217c-4.388-2.674-8.31-5.996-12.293-9.231
					c-3.861-3.134-7.687-6.281-11.362-9.633c-1.354-1.235-2.805-2.363-4.14-3.625c-0.473-0.447-0.916-0.923-1.385-1.374
					c-0.292-0.279-1.024,0.78-1.277,1.043"/>
			</g>
		</g>
		<g>
			<g>
				<path fill="#020202" d="M180.582,20.626c-1.496,3.1-3.104,6.224-5.157,9.001c-2.196,2.97-5.125,5.336-8.137,7.443
					c-2.95,2.061-6.244,3.628-9.147,5.759c-3.227,2.37-5.871,5.247-8.426,8.317c-4.049,4.872-7.866,9.928-11.572,15.063
					c-1.122,1.555-1.978,3.306-3.102,4.862c-0.313,0.436-0.581,0.898-0.894,1.333c-0.022,0.03,1.427,1.098,1.576,1.21
					c1.712-2.373,2.895-5.148,4.601-7.525c4.787-6.723,9.968-13.83,16.2-19.324c5.899-5.203,13.397-8.352,18.654-14.332
					c2.408-2.737,3.849-6.095,5.451-9.35c0.542-1.108,13.01-21.013,13.548-22.124c0.242-0.504-0.038-0.125-0.474-0.338
					C193.44,1.162,180.842,20.088,180.582,20.626"/>
			</g>
		</g>
		<g>
			<g>
				<path fill="#020202" d="M117.349-7.992c0.112,4.908-0.931,10.026-2.563,14.576c-1.886,5.242-3.661,10.493-5.473,15.754
					c-1.238,3.591-3.963,6.717-6.317,9.657c-3.465,4.327-8.085,7.943-10.975,12.706c0.445,0.273,1.012,1.094,1.458,1.365
					c0.336,0.206,1.967-2.67,2.295-3.105c1.908-2.53,4.389-4.588,6.447-6.996c2.863-3.358,5.943-7.216,7.789-11.263
					c1.133-2.477,1.988-5.106,2.883-7.672c1.014-2.898,1.235-6.08,2.292-8.963c1.88-5.123,4.065-10.51,3.938-16.054
					c-0.601,0.014-0.392,0.017-0.992,0.029"/>
			</g>
		</g>
		<g>
			<g>
				<path fill="#020202" d="M46.583,118.181c1.368,0.203,2.646,0.861,3.574,1.897c0.141,0.157,0.763,1.081,0.865,1.032
					c0.327-0.169,0.616-0.334,0.946-0.501c-1.014-1.998-3.02-3.345-5.208-3.667c-0.058,0.394-0.101,0.783-0.16,1.178"/>
			</g>
		</g>
		<g>
			<g>
				<path fill="#020202" d="M51.003,180.598c1.546,0.314,2.96,1.143,3.954,2.381c0.151,0.188,0.832,1.131,0.923,1.229
					c1.018,1.126,1.335,1.438,1.721,1.266c-1.033-2.338-4.026-5.396-6.404-5.523c-0.454-0.024-0.077,0.139-0.167,0.585"/>
			</g>
		</g>
		<g>
			<g>
				<path fill="#020202" d="M48.985,187.415c1.469,0.577,2.717,1.636,3.483,3.028c0.115,0.207,0.625,1.256,0.697,1.369
					c0.808,1.28,1.064,1.642,1.474,1.541c-0.612-2.479-3.031-6.012-5.351-6.547c-0.444-0.104-0.099,0.118-0.267,0.545"/>
			</g>
		</g>
		<g>
			<g>
				<path fill="#020202" d="M116.282,50.19c-0.626,1-1.344,1.947-1.973,2.951c-0.781,1.248-1.11,1.301,0.146,2.148
					c0.93-1.483,1.944-2.987,2.864-4.475c1.21-2.011,2.307-4.098,3.708-5.982c0.695-0.938,1.422-1.857,2.224-2.706
					c0.609-0.646,0.074-0.801-0.491-1.359c-2.685,2.72-4.586,6.123-6.548,9.377"/>
			</g>
		</g>
		<g>
			<g>
				<path fill="#020202" d="M113.731,44.383c-1.194,1.74-2.397,3.488-3.805,5.063c-0.58,0.649-1.283,1.191-1.971,1.728
					c-0.012,0.204,0.731,0.924,0.869,1.101c2.468-1.925,4.12-4.74,5.897-7.265c0.467-0.662,0.922-1.327,1.389-1.988
					c0.507-0.725,0.105-0.623-0.575-1.133c-0.601,0.854-1.221,1.63-1.821,2.48"/>
			</g>
		</g>
		<g>
			<g>
				<path fill="#020202" d="M105.971,47.244c-0.407,0.575-0.738,1.203-1.145,1.778c-0.511,0.726-0.124,0.642,0.558,1.161
					c0.758-1.069,1.49-2.115,2.238-3.194c0.849-1.219,1.734-2.447,2.808-3.481c0.888-0.855,0.816-0.671,0.093-1.596
					c-1.847,1.453-3.164,3.464-4.477,5.381"/>
			</g>
		</g>
		<g>
			<g>
				<path fill="#020202" d="M125.669,46.199c-3.124,3.917-6.223,7.851-9.136,11.931c0.302,0.215,0.524,0.435,0.825,0.65
					c0.121,0.087,1.667-2.384,1.887-2.677c1.431-1.92,3.009-3.734,4.496-5.616c1.612-2.041,3.367-4.018,4.992-6.054
					c-0.635-0.504-0.911-1.032-1.439-0.368c-0.559,0.7-1.054,1.444-1.61,2.144"/>
			</g>
		</g>
		<g>
			<g>
				<path fill="#020202" d="M130.726,47.291c-1.746,2.688-3.656,5.27-5.639,7.789c-1.479,1.879-3.285,3.629-4.35,5.792
					c0.695,0.342,1.029,0.774,1.442,0.031c0.744-1.336,1.811-2.458,2.782-3.63c1.416-1.726,2.824-3.462,4.083-5.307
					c1.178-1.729,2.18-3.572,3.328-5.322c0.354-0.543,0.582-1.17,0.937-1.713c0.178-0.273-0.522-0.522-0.758-0.68
					c-0.649,0.99-1.278,1.987-1.925,2.977"/>
			</g>
		</g>
		<g>
			<g>
				<path fill="#020202" d="M135.134,49.901c-1.696,2.494-3.411,5.002-5.44,7.24c-1.552,1.71-3.661,3.085-4.653,5.224
					c0.215,0.1,0.893,0.523,1.109,0.471c0.561-1.211,1.642-2.092,2.573-3.03c1.563-1.578,2.887-3.322,4.219-5.104
					c1.545-2.063,2.986-4.193,4.455-6.304c0.848-1.217,1.962-2.234,2.891-3.39c0.584-0.725-0.078-0.914-0.714-1.445
					c-1.645,1.979-3.079,4.16-4.524,6.284"/>
			</g>
		</g>
		<g>
			<g>
				<path fill="#020202" d="M137.533,55.881c-1.148,1.358-2.438,2.591-3.607,3.93c-0.867,0.997-1.539,2.163-2.409,3.159
					c-0.782,0.896-0.774,0.711,0.134,1.561c5.951-6.819,12.813-13.643,16.896-21.761c-1.074-0.54-1.105-0.741-1.729,0.397
					c-0.862,1.564-1.561,3.248-2.606,4.696c-2.031,2.821-4.291,5.489-6.537,8.135"/>
			</g>
		</g>
		<g>
			<g>
				<path fill="#020202" d="M141.263,59.037c-2.048,2.478-4.348,4.824-6.149,7.488c0.677,0.46,0.984,0.987,1.513,0.228
					c0.847-1.217,1.776-2.368,2.7-3.528c1.73-2.186,3.376-4.439,5.119-6.616c3.269-4.076,6.205-8.417,7.802-13.442
					c-0.353-0.113-0.436-0.305-0.785-0.417c-0.125-0.039-0.914,1.913-1.025,2.177c-0.716,1.73-1.457,3.454-2.449,5.037
					c-2,3.193-4.562,5.981-6.958,8.879"/>
			</g>
		</g>
	</g>
</g>
<g>
	<g>
		<path fill="#D0D2D8" d="M344.954,65.652c6.631,46.416,64.976,29.179,97.742,29.242c32.302,0.061,19.438,33.33,32.681,51.871
			c20.181,28.248,59.059,13.374,82.268,1.709c17.584-8.84,35.646-14.766,51.505-27.73c7.709-6.299,15.901-14.149,18.941-23.455
			c3.841-11.764-0.604-29.069-0.804-41.238c-0.119-7.19,2.781-20.374,0.043-27.074c-5.765-14.104-19.016-10.041-33.717-10.102
			c-43.563-0.174-87.737-2.606-131.256-0.537c-43.902,2.091-80.541,19.446-117.402,41.318"/>
		<path fill="#596462" d="M331.766-7.486c-2.396,16.786-7.795,37.169-5.396,49.758c2.396,12.589,7.194,25.779,13.188,31.773
			c5.99,5.995,28.176,16.787,43.762,15.587c15.585-1.2,21.582-9.592,36.566-14.387c14.988-4.795,24.579-10.191,24.579-10.191
			s0.603,4.195,0.603,7.193s0,2.998,0,2.998s-0.603,12.59,5.991,32.372c6.597,19.783,12.595,43.763,28.181,46.761
			c15.588,2.996,18.583,11.391,50.955-6.594c32.378-17.985,33.571-28.178,42.563-44.364c8.989-16.185,15.586-30.573,25.778-43.165
			c10.194-12.589,10.194-12.589,10.194-12.589l-3.599-46.16L331.766-7.486z"/>
		<path fill="#485350" d="M443.27,65.053c-9.292,4.597-21.104,5.536-31.321,9.445c-11.997,4.588-9.478,6.406-18.263,14.095
			c16.444-10.125,38.196-12.598,52.579-22.941"/>
		<path fill="#485350" d="M551.18,125.601c-1.299,9.592-12.04,10.514-16.229,19.092c13.88-0.201,24.659-13.713,28.221-25.685"/>
	</g>
	<g>
		<g>
			<path fill="#020202" d="M325.621,40.404c0.441-0.048,1.164,0.117,1.607,0.07c0.853-0.093,0.037-1.391-0.024-2.104
				c-0.188-2.113-0.483-4.244-0.531-6.366c-0.097-4.347,1.026-8.665,1.437-12.996c0.453-4.729,0.983-9.424,1.769-14.109
				c0.465-2.792,0.376-5.681,0.896-8.462c0.101-0.528,1.063-2.888,0.617-2.972c-0.518-0.098-0.567-0.328-1.084-0.428
				c-2.994,15.621-5.854,31.36-4.129,47.301"/>
		</g>
	</g>
	<g>
		<g>
			<path fill="#020202" d="M322.758,32.218c1.395,5.33,3.405,10.496,4.818,15.818c2.224,8.379,3.199,17.991,8.822,24.888
				c4.695,5.767,11.354,9.909,18.229,12.439c7.535,2.772,15.971,5.085,24.006,5.634c14.357,0.98,26.874-9.017,39.605-14.35
				c6.688-2.802,14.285-3.976,20.612-7.557c3.078-1.748,6.077-4.016,8.676-6.395c-0.251-0.274-1.648-1.992-1.946-1.718
				c-0.83,0.764-0.896,2.37-1.731,3.135c-1.69,1.552-3.976,2.396-6.001,3.527c-3.82,2.14-8.311,3.01-12.371,4.635
				c-4.245,1.705-8.453,3.533-12.645,5.383c-8.148,3.6-15.901,9.294-24.729,11.068c-8.177,1.646-16.211-1.877-24.088-4.117
				c-11.332-3.224-23.154-7.452-28.523-18.818c-1.533-3.241-3.713-6.21-4.658-9.649c-1.08-3.927-0.77-8.224-1.803-12.161
				c-1.1-4.196-3.813-7.855-4.916-12.049c-0.576,0.165-0.449-0.015-1.024,0.149"/>
		</g>
	</g>
	<g>
		<g>
			<path fill="#020202" d="M448.615,52.928c-2.287,5.343-5.06,11.676-4.935,17.639c0.029,1.355,0.968,2.555,1.479,3.809
				c0.2,0.491-0.275,1.281-0.053,1.759c0.481,1.042,1.103,0.208,2.048-0.213c-1.378-2.978-2.159-5.639-1.55-8.953
				c1.407-7.669,5.59-14.951,8.838-21.974c3.813-8.246,7.506-16.589,11.758-24.615c2.082-3.928,4.468-7.704,6.667-11.563
				c0.965-1.688,2.594-2.98,3.59-4.646c0.215-0.358,0.742-1.65,0.347-1.891c-0.445-0.271-0.494-0.318-0.939-0.588
				c-10.001,16.502-18.68,33.917-26.281,51.651"/>
		</g>
	</g>
	<g>
		<g>
			<path fill="#020202" d="M449.938,104.299c1.052,3.502,1.868,7.055,2.601,10.642c0.592,2.947,1.532,5.787,2.212,8.723
				c1.278,5.509,2.353,11.354,5.329,16.167c5.903,9.541,16.174,17.047,27.741,17.346c0.013-0.442-0.555-1.404-0.538-1.847
				c0.015-0.795-0.083-0.938-0.774-0.993c-1.941-0.148-3.786-0.43-5.654-0.997c-3.496-1.067-7.287-1.934-10.148-4.205
				c-5.943-4.722-9.984-11.825-12.684-18.862c-1.365-3.569-2.354-7.333-2.895-11.115c-0.688-4.825-1.993-9.35-3.379-14.022
				c-2.455-8.27-5.235-17.616-3.515-26.359c0.354-1.817,0.617-3.693,1.581-5.283c0.228-0.372,1.264-1.292,0.925-1.564
				c-0.404-0.327-1.142-1.051-1.546-1.381c-7.521,9.333-2.955,23.853,0.058,33.955"/>
		</g>
	</g>
	<g>
		<g>
			<path fill="#020202" d="M577.345,89.639c-4.351,8.758-8.021,17.824-13.064,26.206c-4.759,7.899-9.326,16.844-16.251,23.03
				c-6.44,5.76-15.721,7.536-23.754,10.378c-6.653,2.35-13.019,6.851-19.963,8.148c-4.627,0.863-9.608,0.935-14.286,0.381
				c-2.469-0.292-4.601-2.343-6.992-2.995c-0.451-0.124-1.697,0.152-1.835,0.585c-0.155,0.503-1.15,0.967-1.308,1.469
				c9.462,2.998,19.404,3.52,29.009,0.982c6.68-1.768,13.323-4.4,19.783-6.828c7.93-2.975,15.283-7.535,21.252-13.718
				c6.651-6.884,12.198-14.528,17.016-22.775c6.951-11.908,13.46-24.022,19.816-36.242c3.229-6.193,6.348-12.453,10.155-18.31
				c1.932-2.961,4.21-5.67,6.384-8.461c1.075-1.38,2.364-2.629,3.516-3.952c-0.031-0.293-0.967-0.745-1.208-0.956
				c-11.311,13.051-20.643,27.704-28.271,43.057"/>
		</g>
	</g>
	<g>
		<g>
			<path fill="#020202" d="M576.31,96.751c-4.921,7.867-10.327,15.555-16.878,22.198c-3.081,3.115-6.438,5.95-10.428,7.816
				c-1.832,0.857-3.665,1.765-5.652,2.138c-1.005,0.19-2.051,0.079-3.071,0.126c-1.12,0.053-0.862,0.041-0.859,1.092
				c12.104-0.076,21.168-9.297,27.9-18.351c3.503-4.712,6.77-9.579,9.913-14.533c0.877-1.385,1.901-2.678,2.781-4.065
				c0.389-0.601,0.831-1.167,1.217-1.77c0.29-0.463-0.86-0.912-1.245-1.167c-1.33,2.098-2.399,4.381-3.729,6.479"/>
		</g>
	</g>
	<g>
		<g>
			<path fill="#020202" d="M523.42,137.861c-0.011,0.4-0.041,0.748-0.051,1.147c7.144,0.196,14.323-1.138,20.731-4.484
				c6.527-3.409,11.451-8.904,15.558-14.916c-0.188-0.124-0.563-0.552-0.768-0.526c-0.577,0.847-0.917,1.875-1.529,2.695
				c-1.237,1.654-3.027,2.855-4.438,4.356c-2.422,2.576-4.826,5.281-7.888,7.063c-6.512,3.785-14.188,4.615-21.615,4.412"/>
		</g>
	</g>
	<g>
		<g>
			<path fill="#020202" d="M553.725,131.1c0.335,0.216,0.603,0.389,0.938,0.605c2.889-4.497,4.407-9.758,4.942-15.039
				c-1.234-0.128-1.169-0.248-1.342,1.092c-0.225,1.723-0.508,3.45-0.964,5.128c-0.78,2.888-1.886,5.744-3.509,8.264"/>
		</g>
	</g>
	<g>
		<g>
			<path fill="#020202" d="M418.332,68.033c-3.359-0.084-6.781-0.52-10.134-0.241c0.026,0.371,0.146,0.996,0.179,1.363
				c0.013,0.148,1.887,0.208,2.16,0.197c1.966-0.066,3.934-0.542,5.897-0.5c3.534,0.078,7.068,0.633,10.604,0.503
				c6.255-0.227,13.529-1.207,17.962-6.085c-0.5-0.455-1.104-1.335-1.631-0.798c-0.755,0.779-1.414,1.691-2.328,2.278
				c-2.009,1.29-4.429,1.682-6.754,2.174c-5.243,1.111-10.638,1.322-15.961,1.187"/>
		</g>
	</g>
	<g>
		<g>
			<path fill="#020202" d="M404.179,75.266c-3.236,0.853-6.392,1.859-9.577,2.899c0.392,1.191,0.188,1.116,1.495,0.708
				c1.591-0.497,3.215-0.884,4.827-1.322c3.213-0.874,6.348-2.045,9.547-2.966c6.081-1.75,12.057-3.895,17.229-7.625
				c-0.14-0.19-0.311-0.65-0.512-0.706c-0.945,0.684-2.141,0.953-3.146,1.544c-1.995,1.17-3.896,2.521-6.042,3.382
				c-4.464,1.788-9.134,3.019-13.779,4.239"/>
		</g>
	</g>
</g>
<g id="Hand">
	<g>
		<path fill="#0892C0" d="M635.516-85.668c-14.869,9.793-9.43,11.245-15.6,21.039c-6.164,9.793-9.426,7.616-18.495,18.498
			c-9.07,10.882-24.304,26.477-29.382,31.195c-5.077,4.714-5.439,9.066-6.53,12.331c-1.087,3.267-4.351,3.267-7.978,8.343
			c-3.628,5.079-9.432,11.605-15.601,15.233c-6.166,3.628-9.428,4.353-8.339,6.892c1.084,2.54,7.15,10.334,14.456,17.681
			c7.308,7.348,16.009,10.612,18.547,10.975c2.541,0.363,2.541-4.353,8.706-8.705c6.168-4.354,12.332-6.529,22.488-13.422
			c10.157-6.892,12.697-15.596,16.688-19.223c3.991-3.627,12.694-3.627,28.289-20.313c15.602-16.686,57.676-62.749,57.676-62.749
			L635.516-85.668z"/>
		<path fill="#ECAF8B" d="M534.766,29.187c0,0-8.919,5.947-13.877,12.226c-4.956,6.276-10.238,9.25-20.15,12.555
			c-9.914,3.305-16.854,2.972-21.147,10.573c-4.295,7.599-11.235,10.904-18.173,16.521c-6.939,5.616-11.235,7.928-10.246,9.581
			c0.992,1.653,1.324,4.625,6.28,3.963c4.955-0.658,7.27-1.319,7.27-1.319s-4.294,7.267-11.563,20.815
			c-7.27,13.547-9.581,19.494-7.27,21.807c2.313,2.313,5.946,1.324,5.946,1.324s-1.653,3.302-1.653,5.615s0.332,5.616,3.638,5.616
			c3.304,0,6.606-2.644,6.606-2.644s2.972,3.634,5.944,3.304c2.976-0.327,15.862-13.877,15.862-13.877s1.65,5.617,8.261,2.646
			c6.604-2.977,14.209-12.559,23.79-20.158c9.579-7.599,19.164-15.531,24.446-28.086c5.293-12.555,3.309-11.896,12.889-22.137
			c9.582-10.241,11.239-12.557,11.239-12.557S545.34,48.35,534.766,29.187z"/>
		<path fill="#F2D7C5" d="M458.111,84.2c7.475-0.715-1.391,8.035-7.147,7.15c1.138-2.712,4.256-4.125,6.403-6.157"/>
		<path fill="#F2D7C5" d="M444.979,132.277c2.415-2.777,4.495-7.189,8.639-6.848c0.704,2.559,1.709,6.65-0.153,9.142
			c-1.841,2.463-6.62,3.674-6.751-0.807"/>
		<path fill="#F2D7C5" d="M455.385,138.226c-3.843,2.277-8.445,11.553,0,10.16c6.818-1.126,5.574-14.494,0.249-9.666"/>
		<path fill="#F2D7C5" d="M461.584,144.667c1.071-4.226,9.471-8.557,9.668-1.982c0.14,4.564-7.979,9.316-9.175,3.224"/>
		<path fill="#F2D7C5" d="M482.894,134.753c1.521-2.345,7.642-6.127,7.931-0.993c0.182,3.221-6.956,7.156-8.174,2.476"/>
	</g>
	<g>
		<g>
			<g>
				<path fill="#020202" d="M621.189-69.855c-1.225,3.326-2.352,6.679-4.771,9.288c-2.521,2.722-6.525,3.96-9.323,6.396
					c-2.909,2.539-4.695,6.313-7.511,8.959c-1.499,1.404-2.66,2.762-3.9,4.389c-6.044,7.926-13.717,14.354-20.513,21.652
					c-2.934,3.147-6.771,6.236-8.854,10.024c-1.399,2.539-0.776,6.141-2.923,8.224c-1.985,1.932-4.132,2.44-5.916,4.585
					c-2.486,2.999-4.95,6.983-7.723,9.765c-2.275,2.286-4.458,4.742-7.13,6.55c-2.139,1.449-5.087,1.728-7.056,3.396
					c-1.744,1.478-2.604,4.042-4.428,5.42c-0.403,0.309-0.154-0.054,0.099,0.286c1.668-1.256,3.236-2.338,4.851-3.664
					c1.994-1.639,4.854-1.876,7.011-3.313c2.567-1.715,4.824-4.029,7.082-6.142c2.898-2.709,4.369-6.42,6.76-9.55
					c1.741-2.285,4.433-3.588,6.562-5.504c1.132-1.018,2.287-2.203,3.086-3.506c0.812-1.322,0.553-3.21,1.225-4.601
					c1.864-3.865,5.766-6.566,8.659-9.672c6.821-7.327,13.869-14.417,19.94-22.379c1.085-1.427,1.96-2.912,3.229-4.183
					c2.711-2.72,4.742-6.194,7.643-8.704c2.956-2.557,6.909-4.102,9.614-6.93c2.532-2.651,3.934-5.934,5.216-9.378
					c1.182-3.171,2.457-6.14,4.466-8.904c1.22-1.679,1.85-3.984,3.455-5.294c0.282-0.229,4.023-2.061,4.018-2.079
					c-0.262-0.402-1.104,0.098-1.361-0.302c-3.145,2.029-5.302,4.726-7.389,7.852c-1.599,2.396-2.735,4.766-3.727,7.458"/>
			</g>
		</g>
		<g>
			<g>
				<path fill="#020202" d="M699.198-67.046c-3.206,3.341-6.129,6.148-9.655,9.641l0.091,0.093
					c-4.655,4.652-8.634,9.981-13.286,14.636c-10.965,10.961-21.418,22.261-31.922,33.631c-4.175,4.522-7.158,9.556-12.186,13.124
					c-4.869,3.453-11.219,5.799-16.42,8.707c-2.563,1.435-5.258,2.673-7.768,4.203c-0.536,0.329-1.383,0.909-1.835,1.36
					c0.309,0.327,0.853,0.941,1.313,0.629c0.452-0.308,1.703,0.646,2.169,0.362c3.516-2.125,7.096-4.062,10.686-6.05
					c6.637-3.672,12.113-5.444,17.8-10.532c5.868-5.25,11.498-13.861,16.551-19.881c8.168-9.739,16.139-19.564,25.132-28.555
					c6.762-6.758,13.546-13.494,20.272-20.28c0.111-0.114,0.229-0.227,0.341-0.339C700.019-66.493,699.586-66.746,699.198-67.046z"
					/>
			</g>
		</g>
		<g>
			<g>
				<path fill="#020202" d="M608.969,21.532c-3.024,3.91-6.245,7.673-10.207,10.685c-3.966,3.01-8.759,4.257-13.104,6.573
					c-4.296,2.291-8.046,5.595-11.609,8.934c-3.304,3.095-6.865,6.789-7.594,11.388c0.289,0.045,0.815,0.387,1.104,0.431
					c0.666,0.107,0.981-0.035,1.131-0.72c0.291-1.303,0.206-2.75,0.846-3.917c1.377-2.524,3.438-4.719,5.543-6.657
					c4.472-4.118,10.043-7.059,15.604-9.488c5.956-2.604,11.165-5.836,15.438-10.769c2-2.308,3.545-5.004,5.427-7.408
					c1.21-1.546,2.271-3.222,3.552-4.702c0.4-0.457,1.246-0.614,0.697-1.109c-0.271-0.246-0.377-0.728-0.646-0.974
					c-2.217,2.449-3.908,5.315-5.93,7.925"/>
			</g>
		</g>
		<g>
			<g>
				<path fill="#020202" d="M531.662,26.867c4.79,6.866,9.641,13.87,15.92,19.47c6.313,5.631,13.843,9.668,21.987,11.85
					c0.165-0.609,0.661-1.502-0.024-1.69c-1.235-0.34-2.368-0.984-3.576-1.396c-2.245-0.767-4.533-1.389-6.656-2.445
					c-3.899-1.938-7.4-4.507-10.654-7.398c-3.291-2.926-6.286-6.14-9.005-9.6c-1.477-1.875-2.773-3.872-4.167-5.809
					c-0.731-1.024-1.576-1.966-2.299-2.998c-0.642-0.914-0.948-0.404-1.784,0.182"/>
			</g>
		</g>
		<g>
			<g>
				<path fill="#020202" d="M515.224,46.896c-4.286,4.286-10.073,5.519-15.692,7.107c-3.354,0.948-6.783,1.626-10.11,2.655
					c-7.215,2.232-10.455,8.606-15.292,13.747c-2.624,2.788-5.887,4.49-8.829,6.885c-2.261,1.84-4.854,3.372-6.86,5.477
					c-1.989,2.09-3.87,4.042-6.177,5.786c-1.011,0.764-2.011,1.5-3.049,2.224c-0.577,0.404,0.583,1.522,0.918,2.016
					c3.804-2.599,6.799-5.978,9.976-9.314c2.284-2.405,5.191-4.109,7.903-6.046c1.533-1.097,3.184-1.967,4.728-3.036
					c1.58-1.096,2.75-2.681,3.965-4.158c2.47-2.997,4.638-6.227,7.458-8.931c2.178-2.086,4.634-2.963,7.491-3.762
					c3.148-0.878,6.272-1.829,9.42-2.716c3.752-1.06,7.08-2.759,10.429-4.85c3.668-2.288,7.123-5.046,10.26-7.992
					c3.197-3.001,6.229-6.194,9.526-9.083c1.234-1.082,2.813-1.76,4.086-2.796c0.465-0.378,1.393-0.364,1.875-0.718
					c0.04-0.205-1.33-1.535-1.472-1.729c-3.431,2.519-7.032,4.963-10.178,7.819c-3.797,3.443-6.665,7.874-10.29,11.498"/>
			</g>
		</g>
		<g>
			<g>
				<path fill="#020202" d="M450.029,89.219c0.812,8.33,11.389,6.508,16.547,3.683c-0.104-0.19-0.365-0.941-0.56-1.001
					c-0.938,0.516-1.966,0.86-2.983,1.206c-1.939,0.654-4.021,1.032-6.073,0.922c-1.758-0.094-3.51-0.658-4.58-2.147
					c-0.52-0.713-1-1.483-1.133-2.351c-0.105-0.683-0.614-0.381-1.24-0.321"/>
			</g>
		</g>
		<g>
			<g>
				<path fill="#020202" d="M469.994,82.341c-2.411,5.476-5.441,10.538-8.604,15.628c-2.868,4.613-5.192,9.561-7.829,14.31
					c-2.836,5.112-6.308,10.288-8.056,15.894c-0.686,2.188-1.594,5.198-0.517,7.369c1.134,2.282,4.213,2.295,6.487,1.979
					c-0.054-0.384-0.574-0.629-0.631-1.014c-0.003-0.032-1.397,0.296-1.671,0.267c-1.18-0.142-2.422-0.963-2.9-2.093
					c-1.018-2.396,0.423-5.594,1.302-7.844c1.488-3.812,3.946-7.203,5.896-10.788c1.744-3.205,3.178-6.583,5.019-9.733
					c3.787-6.483,7.487-12.89,10.611-19.738c0.912-2.004,1.608-4.11,2.524-6.111c0.405-0.884,1.326-1.529,1.73-2.414
					c0.345-0.755-0.557-1.066-1.27-1.422c-0.816,1.782-1.653,3.766-2.466,5.547"/>
			</g>
		</g>
		<g>
			<g>
				<path fill="#020202" d="M553.851,63.614c-3.006,3.03-5.759,6.315-8.651,9.453c-2.563,2.783-4.466,5.71-5.501,9.295
					c-0.913,3.177-1.635,6.321-2.997,9.342c-1.728,3.822-3.386,7.604-6.119,10.773c-4.868,5.643-11.07,9.712-16.891,14.296
					c-6.212,4.889-11.462,10.852-17.571,15.854c-2.57,2.105-5.68,4.961-9.039,5.684c-1.401,0.302-2.744-0.382-3.109-2
					c-0.268-1.215-0.799-2.439-0.434-3.591c0.259-0.798-1.055-1.12-1.762-1.366c-1.014,2.908-0.885,7.226,3.001,8.071
					c0.986,0.213,1.97,0.603,2.943,0.343c3.412-0.901,6.847-3.173,9.522-5.341c6.051-4.919,10.938-11.184,17.058-16.028
					c5.77-4.565,11.379-9.136,16.286-14.669c4.131-4.654,8.354-9.242,10.375-15.138c1.691-4.946,2.19-10.083,5.85-14.049
					c5.073-5.508,9.389-11.697,14.631-17.048c-0.404-0.389-0.721-1.211-1.188-0.727c-0.768,0.781-0.699,2.384-1.466,3.167
					c-1.417,1.45-3.104,2.637-4.526,4.085"/>
			</g>
		</g>
		<g>
			<g>
				<path fill="#020202" d="M498.178,115.64c-6.248,8.035-13.512,15.141-20.379,22.643c-1.533,1.677-2.959,3.457-4.522,5.106
					c-1.601,1.683-3.146,3.954-5.309,4.928c-1.599,0.722-3.919,0.563-5.188-0.686c-1.201-1.18-1.151-3.402-0.847-4.993
					c0.037-0.194,0.834-1.926,0.813-1.943c-0.326-0.218-1.126-0.345-1.451-0.561c-1.906,2.858-0.603,7.495,2.546,8.967
					c1.769,0.825,3.617,0.945,5.292-0.02c2.511-1.447,4.393-4.011,6.333-6.116c1.475-1.593,3.269-2.89,4.732-4.491
					c3.735-4.08,7.536-8.118,11.158-12.301c3.878-4.482,6.982-9.575,10.731-14.158c1.861-2.272,4.122-4.159,6.565-5.819
					c1.118-0.76,2.102-1.752,3.375-2.2c0.192-0.068,1.224-0.263,1.199-0.361c-0.094-0.38,0.035-1.096-0.057-1.475
					c-6.896,1.666-11.371,7.802-15.474,13.113"/>
			</g>
		</g>
		<g>
			<g>
				<path fill="#020202" d="M482.561,115.413c-3.117,4.023-6.561,7.772-9.869,11.635c-3.815,4.451-6.694,9.295-9.698,14.324
					c-2.135,3.583-5.305,7.699-10.228,6.321c-1.372-0.382-2.772-0.927-3.26-2.267c-0.115-0.317-0.442-0.677-0.479-1.011
					c-0.02-0.155-0.925-0.05-1.117-0.04c0.22,4.066,5.295,6.21,8.799,5.055c3.063-1.011,4.988-4.319,6.57-6.923
					c2.184-3.589,4.006-7.349,6.604-10.661c4.553-5.799,10.076-10.812,14.641-16.606c4.473-5.667,8.645-12.044,14.271-16.603
					c0.714-0.58,2.017-0.356,2.795-0.847c0.678-0.428,0.101-0.678-0.271-1.317c-3.354,1.943-6.569,4.262-9.229,7.036
					c-3.513,3.666-6.303,7.98-9.412,11.994"/>
			</g>
		</g>
		<g>
			<g>
				<path fill="#020202" d="M472.883,106.005c-5.302,6.296-9.939,12.926-14.386,19.832c-2.341,3.63-4.854,8.209-6.826,12.057
					c-1.534,2.985-2.081,5.544-1.475,8.973c0.17-0.027,0.174,0.056,0.265-0.068c-0.063-0.348,0.418-0.704,0.396-1.055
					c-0.041-0.827,0.262-1.527,0.428-2.337c0.451-2.198,0.591-4.557,1.64-6.528c2.437-4.581,6.202-8.394,9.009-12.753
					c3.004-4.663,5.744-9.392,9.237-13.703c4.773-5.885,10.199-11.679,12.531-19.049c0.386-1.221-0.174-2.519,0.008-3.789
					c-0.483-0.069-0.328-0.419-0.413,0.126c-0.129,0.791-0.188,1.625-0.406,2.396c-0.462,1.692-1.248,3.327-2.016,4.904
					c-1.979,4.084-5.119,7.493-8.033,10.953"/>
			</g>
		</g>
		<g>
			<g>
				<path fill="#020202" d="M484.379,132.427c-0.847,0.62-0.812,0.534-0.209,1.393c1.003-0.731,1.987-1.54,3.118-2.069
					c1.194-0.555,3.054-0.254,3.217,1.388c0.146,1.447-1.304,2.846-2.247,3.735c-0.638,0.601-1.34,1.122-2.051,1.638
					c-0.521,0.377-0.08,0.57,0.249,1.042c1.948-1.357,4.633-3.354,5.015-5.875c0.261-1.709-1.301-3.28-2.979-3.224
					c-1.55,0.052-2.943,1.069-4.128,1.953"/>
			</g>
		</g>
		<g>
			<g>
				<path fill="#020202" d="M461.357,145.076c0.764,0.431,0.637,0.584,1.131-0.205c0.642-1.025,1.488-1.912,2.325-2.789
					c1.146-1.206,3.153-3.219,5.021-2.56c2.315,0.818,1.357,3.768,0.569,5.4c-0.455,0.939-0.974,1.882-1.729,2.609
					c-0.659,0.637-0.567,0.497-0.079,1.31c2.613-1.577,5.722-7.813,2.165-9.903c-3.736-2.2-7.851,3.458-9.377,6.172"/>
			</g>
		</g>
		<g>
			<g>
				<path fill="#020202" d="M455.464,137.467c-2.479,1.17-4.928,4.033-5.401,6.78c0.77,0.134,0.863,0.367,1.106-0.386
					c0.299-0.938,0.85-1.778,1.44-2.564c1.067-1.424,3.609-4.224,5.642-3.071c1.876,1.066,1.27,3.663,0.633,5.284
					c-0.376,0.959-0.823,1.902-1.384,2.764c-0.563,0.868-0.604,0.758,0.203,1.38c1.453-1.893,2.741-4.446,2.808-6.87
					c0.076-2.841-2.474-4.605-5.075-3.378"/>
			</g>
		</g>
		<g>
			<g>
				<path fill="#020202" d="M451.352,124.767c-2.796,1-4.752,4.145-5.952,6.711c0.52,0.246,0.716,0.604,1.006,0.031
					c0.526-1.057,1.185-2.054,1.915-2.981c1.185-1.499,3.348-3.802,5.473-2.782c1.366,0.841,0.809,3.266,0.505,4.502
					c-0.291,1.18-0.727,2.319-1.221,3.429c-0.435,0.977-0.415,0.79,0.476,1.227c0.861-1.752,1.646-3.576,1.959-5.512
					c0.434-2.706-0.736-5.822-4.149-4.604"/>
			</g>
		</g>
		<g>
			<g>
				<path fill="#020202" d="M464.146,103.15c1.239,0.685,2.385,1.568,3.326,2.63c0.121,0.135,0.742,0.98,0.836,0.918
					c0.257-0.168,0.501-0.284,0.758-0.452c-1.104-1.676-2.69-3.025-4.435-3.985c-0.164,0.291-0.302,0.565-0.463,0.853"/>
			</g>
		</g>
		<g>
			<g>
				<path fill="#020202" d="M455.905,117.881c1.205,0.696,2.409,1.393,3.595,2.125c0.08-0.134,0.593-0.87,0.486-0.936
					c-0.372-0.231-0.771-0.414-1.148-0.63c-0.84-0.483-1.667-0.974-2.498-1.457c-0.145,0.299-0.272,0.578-0.413,0.875"/>
			</g>
		</g>
		<g>
			<g>
				<path fill="#020202" d="M472.438,113.562c1.16,1.541,2.769,2.68,4.454,3.585c0.096-0.173,0.498-0.674,0.467-0.855
					c-0.839-0.45-1.646-0.962-2.391-1.557c-0.646-0.52-1.23-1.118-1.731-1.78c-0.165-0.015-0.701,0.528-0.847,0.639"/>
			</g>
		</g>
		<g>
			<g>
				<path fill="#020202" d="M471.818,116.028c0.711,0.284,1.377,0.75,1.864,1.344c0.382,0.457,0.573,0.068,1.03-0.247
					c-0.621-0.899-1.533-1.577-2.545-1.979c-0.123,0.306-0.235,0.587-0.354,0.896"/>
			</g>
		</g>
		<g>
			<g>
				<path fill="#020202" d="M461.419,130.786c1.001,0.332,1.985,0.742,2.878,1.309c0.774,0.489,0.671,0.322,1.222-0.369
					c-1.107-0.88-2.446-1.452-3.781-1.894c-0.104,0.314-0.188,0.589-0.292,0.902"/>
			</g>
		</g>
		<g>
			<g>
				<path fill="#020202" d="M485.851,116.139c0.638,0.48,1.309,0.914,1.944,1.396c0.754,0.571,1.529,1.08,2.172,1.791
					c0.479,0.525,0.556,0.167,1.073-0.235c-0.896-1.157-2.13-1.913-3.28-2.783c-0.396-0.298-0.828-0.557-1.227-0.858
					c-0.073-0.055-0.602,0.552-0.688,0.654"/>
			</g>
		</g>
		<g>
			<g>
				<path fill="#020202" d="M474.43,132.085c1.012,0.442,1.901,1.125,2.652,1.92c0.646,0.679,0.536,0.514,1.196-0.068
					c-0.984-1.122-2.061-2.187-3.439-2.797c-0.135,0.303-0.282,0.638-0.413,0.94"/>
			</g>
		</g>
		<g>
			<g>
				<path fill="#020202" d="M502.5,116.024c1.056,0.529,1.932,1.378,2.598,2.348c0.586,0.854,0.506,0.752,1.394,0.296
					c-0.769-1.494-2.036-2.796-3.541-3.551c-0.147,0.297-0.315,0.633-0.463,0.928"/>
			</g>
		</g>
		<g>
			<g>
				<path fill="#020202" d="M459.398,85.023c3.002,1.231-1.771,3.724-2.905,4.267c-1.313,0.626-2.716,1.153-4.142,1.45
					c-0.518,0.106-1.07,0.232-1.6,0.19c-0.333-0.028-0.26,0.525-0.309,0.827c2.527,0.399,5.632-1.188,7.74-2.405
					c1.911-1.101,5.146-3.782,1.584-5.239c-0.125,0.308-0.2,0.527-0.326,0.831"/>
			</g>
		</g>
		<g>
			<g>
				<path fill="#020202" d="M476.051,80.733c0.31,0.003,0.684,0.054,0.987,0.055c0.033,0,0.388-1.439,0.467-1.653
					c0.471-1.238,1.29-2.314,2.281-3.17c1.034-0.889,2.199-1.664,3.459-2.175c0.601-0.243,1.266-0.321,1.906-0.428
					c0.088-0.157-0.164-0.888-0.198-1.079c-3.854,0.656-8.754,4.147-8.773,8.445"/>
			</g>
		</g>
		<g>
			<g>
				<path fill="#020202" d="M492.206,87.642c-0.236,1.145-0.387,1.215,0.765,1.485c0.222-1.031,0.334-2.116,0.614-3.133
					c0.198-0.706,0.483-1.412,0.919-2.008c-0.043-0.176-0.663-0.499-0.814-0.613c-0.899,1.231-1.158,2.812-1.443,4.273"/>
			</g>
		</g>
		<g>
			<g>
				<path fill="#020202" d="M499.604,90.9c-1.182,0.666-2.326,1.376-3.413,2.188c0.18,0.244,0.357,0.431,0.538,0.675
					c0.055,0.074,1.786-1.02,2.02-1.156c1.6-0.932,3.284-1.777,4.792-2.856c-0.355-0.5-0.439-1.004-1.011-0.623
					c-0.947,0.637-1.944,1.188-2.941,1.746"/>
			</g>
		</g>
		<g>
			<g>
				<path fill="#020202" d="M546.427,18.993c-3.644,2.426-7.416,4.746-10.504,7.881c0.464,0.458,0.571,0.91,1.094,0.396
					c0.941-0.926,1.926-1.793,2.955-2.615c1.963-1.564,3.889-3.192,5.976-4.585c4.228-2.821,8.622-5.486,12.083-9.257
					c-0.741-0.678-0.402-0.555-1.164,0.218c-1.014,1.034-2.195,1.906-3.324,2.813c-2.276,1.834-4.744,3.428-7.178,5.047"/>
			</g>
		</g>
		<g>
			<g>
				<path fill="#020202" d="M544.313,26.194c-2.313,1.615-4.604,3.21-6.812,4.96c0.606,0.769,0.33,0.686,1.18,0.032
					c1.158-0.889,2.512-1.519,3.701-2.364c2.44-1.73,4.823-3.537,7.235-5.304c4.469-3.271,9.077-6.803,12.083-11.527
					c-0.159-0.099-0.69-0.56-0.861-0.535c-0.551,0.865-1.104,1.735-1.757,2.527c-1.269,1.541-2.793,2.866-4.281,4.189
					c-3.292,2.926-6.82,5.59-10.429,8.112"/>
			</g>
		</g>
		<g>
			<g>
				<path fill="#020202" d="M547.555,29.061c-2.11,1.676-4.308,3.294-6.275,5.138c0.169,0.177,0.404,0.451,0.574,0.63
					c0.346,0.368,0.744-0.513,1.055-0.786c1.041-0.919,2.082-1.856,3.16-2.724c1.909-1.529,4.075-2.731,5.975-4.275
					c4.458-3.639,8.452-7.766,12.365-11.988c-0.514-0.476-0.377-0.717-0.918-0.136c-0.836,0.895-1.861,1.601-2.729,2.467
					c-1.571,1.573-2.991,3.305-4.649,4.785c-2.732,2.437-5.611,4.707-8.485,6.978"/>
			</g>
		</g>
		<g>
			<g>
				<path fill="#020202" d="M554.739,27.891c-2.086,2.282-4.151,4.498-6.536,6.474c-1.079,0.892-1.971,2.016-3.083,2.865
					c-0.202,0.153-1.683,1.039-1.604,1.143c0.188,0.247,0.315,0.603,0.498,0.85c2.273-1.678,4.417-3.553,6.525-5.435
					c2.271-2.03,4.447-4.178,6.51-6.415c2.055-2.223,4.183-4.392,6.614-6.217c0.997-0.752,1.922-1.65,3.075-2.149
					c0.188-0.082,1.352-0.373,1.332-0.466c-0.079-0.296-0.055-0.671-0.128-0.967c-5.365,1.348-9.565,6.495-13.123,10.386"/>
			</g>
		</g>
		<g>
			<g>
				<path fill="#020202" d="M557.969,30.933c-2.048,2.231-4.203,4.369-6.438,6.406c-1.169,1.062-2.392,2.088-3.685,2.995
					c-0.193,0.136-1.65,0.965-1.596,1.063c0.159,0.261,0.262,0.361,0.424,0.621c4.982-3.028,8.874-7.397,12.781-11.648
					c1.929-2.1,3.895-4.185,6.05-6.056c1.06-0.917,2.104-1.893,3.269-2.669c0.193-0.13,1.581-0.691,1.525-0.79
					c-0.15-0.267-0.232-0.719-0.386-0.986c-4.763,2.701-8.604,6.788-12.26,10.783"/>
			</g>
		</g>
		<g>
			<g>
				<path fill="#020202" d="M552.323,41.898c-0.604,0.64-0.921,1.552-1.53,2.191c-0.744,0.792-0.982,0.472-0.182,1.238
					c3.265-3.453,6.648-6.762,10.003-10.129c2.368-2.374,4.664-4.831,7.222-6.998c1.211-1.028,2.422-2.068,3.703-3.007
					c0.609-0.447,1.242-0.861,1.873-1.281c0.021-0.17-0.341-0.535-0.445-0.691c-7.741,5.133-14.239,12.027-20.572,18.741"/>
			</g>
		</g>
		<g>
			<g>
				<path fill="#020202" d="M564.946,36.856c-3.86,3.325-7.77,6.604-11.005,10.553c0.796,0.653,0.661,0.706,1.393-0.146
					c0.989-1.151,2.142-2.135,3.223-3.203c2.147-2.125,4.367-4.163,6.653-6.133c4.43-3.818,8.625-7.887,12.22-12.533
					c-0.245-0.186-0.252-0.301-0.497-0.489c-0.093-0.073-1.313,1.308-1.475,1.497c-1.078,1.275-2.188,2.506-3.372,3.681
					c-2.328,2.312-4.857,4.402-7.342,6.542"/>
			</g>
		</g>
		<g>
			<g>
				<path fill="#020202" d="M569.009,39.367c-3.766,3.189-8.206,6.407-10.76,10.69c0.264,0.155,0.554,0.368,0.818,0.523
					c0.086,0.053,0.857-1.129,0.987-1.293c1.022-1.305,2.167-2.516,3.394-3.628c1.513-1.378,3.231-2.519,4.791-3.84
					c4.47-3.781,9.19-7.543,12.467-12.468c-0.206-0.135-0.45-0.405-0.656-0.541c-0.427-0.283-0.996,0.62-1.252,0.959
					c-0.938,1.268-1.782,2.609-2.884,3.737c-2.113,2.162-4.455,4.084-6.762,6.029"/>
			</g>
		</g>
		<g>
			<g>
				<path fill="#020202" d="M572.679,41.923c-1.063,1.227-2.308,2.296-3.368,3.522c-2.312,2.673-5.438,4.515-7.569,7.364
					c0.245,0.183,0.581,0.36,0.823,0.543c0.057,0.043,1.417-1.452,1.615-1.647c1.291-1.272,2.801-2.304,4.151-3.508
					c1.468-1.31,2.638-2.885,3.919-4.37c1.546-1.779,3.124-3.518,4.722-5.248c1.189-1.284,2.43-2.49,3.795-3.584
					c0.728-0.582,1.361-1.278,2.158-1.763c0.026-0.173-0.401-0.667-0.503-0.829c-3.918,2.377-6.829,6.048-9.744,9.518"/>
			</g>
		</g>
		<g>
			<g>
				<path fill="#020202" d="M576.979,42.738c-4.252,3.625-8.617,7.301-12.052,11.746c0.497,0.384,0.502,0.688,0.943,0.136
					c0.798-1.001,1.945-1.703,2.829-2.631c1.881-1.969,3.71-3.994,5.764-5.781c4.128-3.596,8.346-7.074,12.11-11.068
					c-0.466-0.437-0.313-0.653-0.807-0.134c-0.915,0.949-1.946,1.779-2.918,2.673c-1.896,1.755-3.892,3.401-5.855,5.077"/>
			</g>
		</g>
	</g>
	<polyline id="FingersClick" fill="#FFFFFF" fill-opacity="0" points="414.335,121.85 503.538,23.222 577.43,62.84 482.648,172.044 
			"/>
	<rect id="FingersTarget" x="469.384" y="54.848" fill="none" width="60.96" height="58.621"/>
</g>
<line id="NippleLine" fill="none" stroke="#374C9D" stroke-width="3" x1="182.269" y1="335.315" x2="357.021" y2="137.004"/>
<rect id="CompressionsTarget" x="274.628" y="206.98" fill="none" width="38.257" height="28.512"/>
<rect id="FingersTargetFixed" x="469.384" y="54.848" fill="none" width="60.96" height="58.62"/>
</svg>
