<?xml version="1.0" encoding="utf-8"?>
<!-- Generator: Adobe Illustrator 15.0.0, SVG Export Plug-In . SVG Version: 6.00 Build 0)  -->
<!DOCTYPE svg PUBLIC "-//W3C//DTD SVG 1.1//EN" "http://www.w3.org/Graphics/SVG/1.1/DTD/svg11.dtd">
<svg version="1.1" id="Layer_1" xmlns="http://www.w3.org/2000/svg" xmlns:xlink="http://www.w3.org/1999/xlink" x="0px" y="0px"
	 width="640px" height="360px" viewBox="0 0 640 360" enable-background="new 0 0 640 360" xml:space="preserve">
<g>
	<path fill="#596462" d="M188.028-5.911c1.24,16.744,6.201,48.991,6.822,104.185c0.619,55.192,0.416,63.201,0.619,66.356
		c3.007,46.267-11.039,39.879,48.495,41.738c59.534,1.86,69.333-55.382,69.333-55.382s-1.863-27.287,4.961-50.233
		c6.821-22.945,4.96-31.627,6.201-34.728c1.241-3.1,1.859-4.961,1.859-4.961s3.723,52.092,8.679,73.797
		c4.961,21.704,6.202,37.826,6.819,40.929c0.621,3.101,31.009,14.885,60.151,12.401c29.146-2.479,31.007-34.107,39.069-63.253
		c8.058-29.147,12.398-45.891,17.364-70.696c4.961-24.806,13.021-60.773,13.021-60.773L188.028-5.911z"/>
	<g>
		<g>
			<path fill="#020202" d="M186.94-5.393c3.684,12.882,4.248,26.962,5.41,40.517c1.667,19.364,2.917,38.853,3.023,58.42
				c0.096,17.777-0.468,35.61-0.399,53.389c0.015,4.154,0.507,28.966,0.981,33.062c0.81-0.175,2.456-0.146,2.365-1.114
				c-0.1-1.019,0.001-22.613-0.033-23.641c-0.124-3.377-0.145-6.738-0.157-10.124c-0.011-3.801-0.543-7.558-0.563-11.356
				c-0.06-10.755-0.398-21.345-0.456-32.101c-0.168-30.437-1.597-61.151-6.371-90.855c-0.894-5.559-0.637-11.543-2.168-16.896
				c-0.578,0.229-0.369,0.24-0.945,0.47"/>
		</g>
	</g>
	<g>
		<g>
			<path fill="#020202" d="M322.165,78.619c-0.494,4.616-0.483,9.369-1.827,13.831c-0.548,1.77-1.033,3.567-1.613,5.324
				c-2.401,7.302-5.566,14.436-5.194,22.25c0.912-0.041,2.052,0.244,2.023-0.777c-0.046-1.699-0.097-3.379,0.102-5.069
				c0.381-3.257,1.484-6.328,2.456-9.455c1.165-3.716,2.129-7.496,3.346-11.196c1.817-5.517,2.032-11.396,2.681-17.131
				c0.369-3.26,0.541-6.608,1.354-9.79c0.414-1.627,1.144-3.203,1.782-4.76c0.18-0.45,1.029-1.127,0.469-1.383
				c-0.379-0.171-0.771-0.168-1.146-0.339c-2.646,5.852-3.666,12.185-4.348,18.504"/>
		</g>
	</g>
	<g>
		<g>
			<path fill="#020202" d="M325.886,21.079c-0.624,12.464-1.019,25.006,0.495,37.434c0.749,6.151,0.898,12.268,1.1,18.46
				c0.197,5.955,0.871,11.863,2.482,17.633c0.396-0.111,0.45-0.038,0.855-0.149c0.604-0.168-0.082-1.471-0.199-1.98
				c-0.533-2.302-1.033-4.63-1.266-6.98c-0.457-4.581-0.408-9.205-0.564-13.804c-0.313-9.357-1.458-18.583-1.568-27.958
				c-0.143-11.383,0.164-22.768,0.672-34.138c-0.938-0.033-1.793-0.454-1.846,0.539c-0.05,1.26,0.645,2.556,0.589,3.817
				c-0.106,2.382-0.028,4.774-0.137,7.157"/>
		</g>
	</g>
	<g>
		<g>
			<path fill="#020202" d="M326.5,8.766c0.967,0.256,1.107,0.521,1.457-0.457c0.413-1.168,1.23-2.166,1.964-3.157
				c1.567-2.11,3.58-3.858,5.728-5.354c2.209-1.539,4.569-2.857,7.047-3.921c1.033-0.442,2.07-0.898,3.146-1.241
				c1.211-0.386,1.102-0.291,0.776-1.482c-4.232,1.149-8.257,3.241-11.831,5.766c-3.458,2.433-7.035,5.639-8.151,9.862"/>
		</g>
	</g>
	<g>
		<g>
			<path fill="#020202" d="M303.907-6.12c4.594,0.902,9.073,3.12,12.978,5.653c1.968,1.279,3.84,2.772,5.508,4.432
				c0.737,0.743,1.396,1.584,2.021,2.436c0.646,0.881,0.788,0.54,1.653-0.018c-2.356-3.662-6.278-6.27-9.965-8.486
				c-3.7-2.226-7.718-4.306-11.977-5.142c-0.081,0.406-0.181,0.936-0.258,1.343"/>
		</g>
	</g>
	<g>
		<g>
			<path fill="#020202" d="M286.267,121.108c0.063,0.408,0.104,0.803,0.169,1.21c7.522-1.158,14.723-5.134,20.951-9.371
				c6.145-4.179,12.55-9.616,15.486-16.628c-0.219-0.094-0.704-0.396-0.919-0.331c-0.312,0.753-0.709,1.447-1.114,2.156
				c-0.934,1.671-2.17,3.207-3.411,4.666c-2.67,3.14-5.908,5.799-9.246,8.203c-6.413,4.615-14.098,8.39-21.996,9.604"/>
		</g>
	</g>
	<g>
		<g>
			<path fill="#020202" d="M458.01,49.246c-1.649,8.505-2.411,17.209-4.313,25.665c-1.832,8.134-5.151,15.884-7.236,23.952
				c-1.963,7.593-3.827,15.238-5.379,22.924c-0.739,3.654-1.822,7.085-3.181,10.562c-0.606,1.541-2.932,12.412-3.718,13.874
				c-0.357,0.674,0.313,0.571,0.902,0.901c4.73-8.431,8.085-24.996,10.174-34.278c2.198-9.761,7.186-21.223,9.546-30.94
				c5.264-21.57,6.955-43.95,12.271-65.506c0.854-3.466,1.747-6.956,2.729-10.39c0.123-0.445,1.544-4.965,1.451-4.996
				c-0.574-0.176-1.229,0.442-1.802,0.266c-4.817,15.738-8.17,31.854-11.305,47.992"/>
		</g>
	</g>
</g>
<g>
	<g>
		<path fill="#D0D2D8" d="M223.598,270.339c-15.532-2.03-193.979-12.573-194.186,13.063c31.511,11.156,74.993,11.748,108.659,11.742
			c15.217-0.004,42.136-5.355,57.438-4.15c31.813,2.502-3.757,13.849,9.901,16.144c2.345,16.797,21.085,1.656,92.191,30.021
			c32.23,12.854,254.555,2.248,288.577,6.774c1-47.856-186.15-61.92-237.389-71.65c-33.862-6.43-68.479-6.078-102.859-6.078"/>
		<path fill="#496B92" d="M688.304,180.17c-11.512,0-24.462,0-41.014,0c-16.551,0-26.909-5.266-57.533-11.005
			c-30.214-5.657-56.875-12.728-75.58-14.955c-18.708-2.227-36.521-1.564-47.314-2.305c-10.793-0.74-14.394-0.74-17.273-0.74
			c-2.874,0-5.44,3.631-5.44,3.631s-17.753,9.058-18.474,32.793c-0.719,23.733,0,29.672,2.879,47.476
			c2.877,17.795,2.877,20.771,2.877,20.771l20.146,33.378c0,0,97.141,16.315,136.711,11.87c39.58-4.448,57.563,1.479,78.433,3.706
			c0,0,23.889-57.25,31.264-82.728C705.356,196.58,688.304,180.17,688.304,180.17z"/>
		<g id="ChestMains">
			<path id="ChestMainExpanded" fill="#F3BF98" d="M447.988,153.649c-15.663-2.805-23.438-3.968-62.938-1.861
				c-39.514,2.108-43.284,2.679-67.119,2.679c-23.84,0-43.816,10.798-56.681,14.074c-13.619,6.317-33.282,17.652-42.608,22.674
				c-10.165,5.475-15.493-1.652-21.108-4.691c-7.189-3.894-7.208-21.892-7.664-32.604c-0.462-10.721-3.342-21.705-12.155-18.766
				c-8.682,2.893-9.104-3.541-11.369-3.309c-2.349,0.242-2.481,5.582-2.481,5.582c-3.308-4.341-6.249-6.313-8.269-6.615
				c-2.019-0.302-7.235,8.269-11.163,0.206c-2.361-4.846-6.361-5.807-11.369-1.445c-10.605,9.23-14.884,10.748-25.632,9.507
				c-14.479-1.671-34.449,5.617-40.91,11.562c-6.181,5.69-7.169,26.999-5.807,38.234c1.363,11.232,86.89,73.729,90.298,75.832
				c3.405,2.107,33.229-25.798,57.073-1.169c17.228,17.794,132.1,1.883,162.069,1.181c29.967-0.703,84.969-14.316,84.969-14.316
				s-3.352-10.248-4.027-44.65C450.409,171.335,447.988,153.649,447.988,153.649z"/>
			<path id="ChestMain" fill="#F3BF98" d="M447.988,153.649c-15.663-2.805-23.768,4.448-47.579,17.583
				c-31.566,14.652-49.63,16.125-73.466,16.125c-23.839,0-55.333-2.651-70.417-4.117c-14.304-0.54-28.564,2.953-37.89,7.975
				c-10.164,5.475-15.494-1.65-21.108-4.691c-7.188-3.893-7.207-21.894-7.664-32.604c-0.462-10.721-3.342-21.704-12.156-18.767
				c-8.682,2.893-9.104-3.54-11.368-3.307c-2.351,0.241-2.482,5.581-2.482,5.581c-3.307-4.342-6.249-6.312-8.269-6.614
				c-2.019-0.302-7.234,8.267-11.162,0.205c-2.36-4.847-6.362-5.807-11.369-1.445c-10.606,9.231-14.885,10.747-25.633,9.508
				c-14.479-1.671-34.449,5.616-40.909,11.562c-6.182,5.69-7.168,26.999-5.807,38.234c1.363,11.231,86.889,73.729,90.297,75.831
				c3.405,2.109,33.228-25.797,57.073-1.167c17.229,17.794,132.103,1.883,162.067,1.18c29.969-0.706,84.972-14.315,84.972-14.315
				s-3.354-10.248-4.029-44.65C450.409,171.335,447.988,153.649,447.988,153.649z"/>
		</g>
		<path fill="#CBA387" d="M159.725,131.84c0.211,3.693,0.73,8.104,3.473,10.907c0.702-3.465,0.642-5.741-1.406-8.632"/>
		<path fill="#CBA387" d="M154.724,209.568c-1.773,0.097-4.308,1.021-5.829,2.334c-2.57,2.211-0.874,2.203-1.985,4.496
			c-1.68,3.468,0.896,1.397-2.722,2.791c-2.254,0.869-4.336-1.949-4.92,1.789c4.042,1.6,10.471,8.34,15.038,3.951
			c2.554-2.453,1.915-11.734,0.418-14.121"/>
		<path fill="#707F8F" d="M537.288,283.26l5.582,48.991c0,0-9.502-3.785-25.427-1.235c-10.23,1.624-14.887,10.851-44.808,6.637
			c-29.257-4.127-44.305-3.363-48.39-3.363c-4.086,0-33.268-5.233-41.438-6.645c-8.174-1.398-34.142-3.563-34.142-3.563
			s-8.173,0.934-23.61,0.467c-15.436-0.467-21.491-11.914-40.104-16.585c-18.617-4.682-37.69-10.771-42.229-15.444
			c-4.544-4.686-12.716-5.621-19.072-8.43c-6.357-2.813-13.622-8.426-13.622-8.426s4.02-9.434,14.464-32.836
			c10.441-23.405,57.423-25.934,73.322-24.528c15.895,1.404,42.229,6.556,71.292,13.57c29.063,7.021,71.291,25.28,83.096,31.36
			c11.808,6.084,13.805,2.752,28.335,9.304c14.535,6.554,6.701,2.377,18.888,7.555C514.964,286.671,537.288,283.26,537.288,283.26z"
			/>
		<path fill="#8091A7" d="M502.431,282.294l16.419,1.951c-8.508-4.379-12.639-12.06-21.563-15.563
			c-8.928-3.507-17.784-5.767-27.135-11.466c-9.352-5.69-17.166-3.26-32.889-8.513c-15.729-5.264-44.625-16.023-76.068-25.219
			c-31.449-9.202-56.983-12.385-74.83-12.817c-17.845-0.437-37.209-2.065-50.438,4.136c-14.671,6.879-24.393,14.057-26.079,25.047
			c-2.804,18.291-5.28,28.818-5.28,30.133c0,1.316,1.703,6.139,7.228,7.894c5.523,1.748,9.348,4.38,9.348,4.38
			s-4.25,12.271-4.25,16.864c0,4.604,5.104,9.203,7.013,8.545c1.916-0.658,9.439-2.247,11.988-4.872
			c2.551-2.634,4.961-8.372,4.961-8.372s0.9-9.104,0.9-26.843c0-17.744,18.649-30.223,33.948-32.193
			c15.3-1.971,48.284,0.646,48.284,0.646s5.734,6.576,25.503,10.517c19.759,3.944,31.868,9.856,31.868,9.856
			s12.188-6.535,18.563,2.672c6.382,9.199,25.015,10.316,40.313,14.258c15.304,3.947,10.132-6.378,20.972-5.061
			c10.842,1.313,15.428,1.51,15.428,1.51s10.093,5.72,13.688,7.035C497.74,279.561,502.431,282.294,502.431,282.294z"/>
		<path fill="#F3BF98" d="M538.488,286.193c12.005-2.608,9.313-3.858,21.125-3.858c11.807,0,29.967,4.806,33.604,8.547
			c3.627,3.744-17.2,9.306-17.2,9.306s5.242-0.58,11.335,2.03c8.209,3.519,18.186,0.636,19.545,3.909
			c1.358,3.278,2.734,6.645,2.734,6.645l-3.124,0.396c0,0-0.719,0.077-1.174,1.951c0,0-7.972,4.729-18.416,8.938
			c-10.448,4.218-20.888,8.432-31.33,7.488c-10.448-0.934-13.582,0.38-13.582,0.38s-2.831-1.461-7.823-13.632
			C529.192,306.127,529.864,288.064,538.488,286.193z"/>
		<path fill="#5A6774" d="M284.696,232.65c19.938-5.861,30.494,5.08,53.167,3.127c12.335-1.064,15.354,2.638,15.354,2.638
			s27.215-1.337,38.651,4.54c56.282,28.923,48.468,14.222,58.908,21.704c10.445,7.489,3.406,6.2,3.406,6.2l-8.057,4.031
			c0,0-5.071-0.789-11.784-2.479c-7.125-1.793-21.763-4.334-30.692-8.994c-6.396-3.328-5.452-7.86-10.854-9.921
			c-3.863-1.473-8.041,3.449-10.541,2.477c-10.904-4.211-14.506-4.927-19.045-7.729c-4.544-2.807-12.898-3.118-12.898-3.118
			s-21.608-4.372-27.969-5.774c-6.36-1.398-21.797-4.205-23.158-5.615C297.825,232.328,284.696,232.65,284.696,232.65z"/>
		<path fill="#5A6774" d="M244.028,273.369c5.041,9.105,31.915,18.844,41.071,23.445c26.049,13.114,49.953,14.628,77.26,17.827
			c14.488,1.689,23.58,8.937,37.425,12.798c20.344,5.673,43.521,3.598,64.583,8.25c5.104,1.133,10.229,1.59,15.133,2.784
			c-62.47,2.301-76.596-8.379-114.825-9.793c-24.431-0.902-51.794-3.962-74.823-11.936c-8.749-3.034-13.463-6.224-21.084-10.547
			c-5.405-3.062-18.128-8.646-22.559-12.478c-4.917-4.234-9.396-5.168-3.543-14.041"/>
		<path fill="#8F7560" d="M76.9,142.138c0,0-28.146,9.772-31.662,32.832c-3.521,23.065-5.865,44.565-5.475,45.738
			c0.392,1.175-3.517-0.783-3.517-0.783l1.171,10.164l-3.583-2.333c0,0,0.86,30.816,12.196,38.243
			c11.335,7.426,14.057,7.026,14.057,7.026l-5.168,2.896c0,0,10.34-1.065,8.687,4.204c-0.626,1.998,2.888,3.236,2.888,3.236
			l7.029,3.103c0,0,4.543-0.253,8.062-1.034c3.515-0.783,9.714,2.688,9.714,2.688s12.592-1.95,30.181-3.517
			c17.592-1.563,21.479-7.604,25.779-10.338c4.301-2.74,11.728-7.826,13.292-8.992c1.563-1.174,5.863-3.137,5.863-3.137
			s-4.201-7.361-9.284-12.441c-5.08-5.084-20.507-14.17-20.507-14.17s-7.361-10.496-6.19-15.578
			c1.173-5.079,6.644-8.604,9.771-11.336c3.126-2.737,1.955-6.248,1.955-6.248s-10.595,0.219-18.134-0.648
			c-8.524-0.982-1.393-9.15-11.165-9.15c-9.773,0-16.809-4.688-25.017-6.25c-8.209-1.563-18.455-5.479-18.455-5.479l8.067-4.155
			c0,0,0-1.174-3.519-1.563c-3.515-0.392-7.035,0.39-7.035,0.39s2.073-3.968,5.174-4.382c6.213-0.829,11.575-0.207,11.575-0.207
			s1.063-1.021-6.755-2.583c-7.816-1.562-14.462,1.562-14.462,1.562s1.943-6.478,3.646-10.348c2.677-6.091,5.375-9.715,5.375-9.715
			s-4.958,3.417-8.476,5.374C62.983,155.201,69.864,147.607,76.9,142.138z"/>
		<g>
			<g>
				<g>
					<g>
						<g id="ChestOutlines">
							<path id="ChestOutline" fill="#020202" d="M213.677,197.784c-0.61-0.111-0.569-0.874-1.179-0.982
								c0.528-2.892,3.542-5.456,5.782-7.192c2.147-1.664,4.808-2.205,7.193-3.439c2.577-1.339,7.282-2.4,16.753-3.464
								c13.384-1.494,10.421-2.669,20.798,0c13.091,3.362,37.557,7.946,50.146,5.269c15.186-3.232,28.12,0.293,45.191-3.545
								c8.063,0.071,25.221-7.685,32.664-10.792c8.267-3.45,11.754-4.503,18.081-9.326c14.483-11.042,25.271-9.249,37.968-13.319
								c1.806,0.41-1.785,1.672,0.024,2.045c0.553,0.112,2.844,0.264,2.768,0.834c-0.08,0.516-0.58-0.035-0.656,0.481
								c-3.078-0.448-6.11-0.056-10.944,1.823c-4.983,1.217-9.717,1.474-14.563,3.625c-7.354,3.334-9.602,2.909-16.797,8.5
								c-6.21,4.825-14.159,6.253-22.178,10.154c-7.259,3.527-5.746,2.756-21.287,7.626c-14.942,4.674-30.735,1.894-52.043,4.055
								c-14.027,1.433-35.283-1.569-50.735-5.112c-11.278-2.584-11.289,0-22.832-0.594c-5.072-0.261-8.845,1.344-13.455,3.475
								c-3.894,1.795-7.88,4.25-9.338,8.58c-0.065,0.188-0.498-0.131-0.531,0.063"/>
							<path id="ChestOutlineExpanded" fill="#020202" d="M213.677,197.784c-0.61-0.111-0.569-0.874-1.179-0.982
								c0.528-2.892,3.542-5.456,5.782-7.192c2.147-1.664,4.808-2.205,7.193-3.439c2.577-1.339,7.785-3.918,10.322-5.333
								c9.352-5.216,17.299-10.849,27.111-15.155c12.601-5.517,23.644-8.023,37.178-10.591c15.256-2.896,31.257-3.448,46.719-3.309
								c8.067,0.073,15.297,0.085,23.357-0.206c7.954-0.286,18.115-0.5,26.049-1.127c15.497-1.224,29.367-1.834,44.649,1.654
								c1.806,0.412,4.438,0.561,6.251,0.933c0.552,0.111,2.838,0.261,2.761,0.834c-0.073,0.516-0.578-0.036-0.654,0.479
								c-3.08-0.448-5.968-0.595-9.01-1.227c-3.952-0.821-8.021-0.978-12.039-1.341c-7.797-0.704-15.629-0.807-23.438-0.365
								c-7.854,0.444-15.701,0.918-23.543,1.494c-8.047,0.592-16.086,1.297-24.151,1.29c-15.663-0.009-31.425-0.09-47.012,1.79
								c-13.998,1.686-29.327,5.153-42.388,10.375c-10.744,4.296-19.283,9.472-29.421,15.037c-4.452,2.438-9.224,4.365-13.834,6.496
								c-3.893,1.799-7.881,4.254-9.337,8.584c-0.066,0.185-0.499-0.133-0.532,0.063"/>
						</g>
					</g>
					<g>
						<path fill="#020202" d="M222.467,308.877c-0.233,0-0.405-0.947-0.404-1.145c0.004-0.563,0.435-0.775,1.003-0.806
							c1.332-0.06,2.598-0.143,3.85-0.6c2.515-0.927,5.779-2.042,7.639-3.951c4.189-4.293,5.988-10.34,7.316-16.146
							c0.791-3.444,0.821-6.887,0.516-10.409c-0.33-3.827-0.793-7.655-0.669-11.519c0.185-5.724,2.786-10.256,6.705-14.326
							c7.418-7.705,17.572-12.844,27.533-16.375c12.18-4.313,25.473-7.067,38.42-5.892c0.12,0.011,0.006,0.142,0.126,0.151
							c-0.032,0.345-0.22,0.599-0.255,0.947c-0.035,0.381-0.722-0.224-1.068-0.248c-1.618-0.121-3.262,0.527-4.877,0.521
							c-3.259-0.008-6.461,0.273-9.693,0.684c-6.848,0.871-13.617,2.34-20.172,4.485c-9.993,3.272-20.439,7.755-28.159,15.038
							c-3.723,3.518-6.911,7.845-7.52,13.04c-0.885,7.563,2.085,15.073,0.697,22.651c-1.863,10.168-3.518,24.214-20.982,23.37"/>
					</g>
					<g>
						<path fill="#020202" d="M225.55,307.918c-2.626,0-5.548-0.79-7.616-2.537c-1.591-1.336-1.817-2.771-1.5-4.736
							c0.693-4.287,2.2-8.381,2.903-12.668c0.984-6.015,1.699-12.063,2.371-18.125c0.34-3.037,0.635-6.084,0.765-9.138
							c0.063-1.495,0.329-2.975,0.32-4.464c0-0.339-0.387-1.415,0.018-1.426c0.351-0.01,0.554,0.094,0.902,0.087
							c0.263,11.8-1.365,23.812-3.498,35.39c-0.396,2.415-1.326,4.777-1.924,7.158c-0.407,1.617-1.723,4.205-0.868,5.813
							c1.292,2.429,4.819,3.048,7.322,3.176c1.444,0.07,2.947,0.072,4.353-0.279c0.319-0.081,0.75-0.563,0.88-0.197
							c0.117,0.328,0.524,0.674,0.641,1.001c-1.597,0.57-3.375,0.87-5.067,0.87"/>
					</g>
					<g>
						<path fill="#020202" d="M452.596,242.477c-1.099-15.107-2.938-30.197-2.977-45.367c-0.036-13.267,1.229-26.628-1.354-39.75
							c-0.319-1.643-0.188-3.418-0.664-5.024c-0.146-0.49-1.1-1.16-0.524-1.343c0.381-0.124,0.615,0.13,1.002,0.005
							c4.146,12.834,3.933,26.895,3.596,40.191c-0.375,14.631,1.175,29.082,2.45,43.64c0.217,2.502,0.607,5.058,0.794,7.556
							c-0.517,0.038-0.949-0.045-1.459-0.003"/>
					</g>
					<g>
						<path fill="#020202" d="M463.009,153.247c-3.229-0.333-6.436-1.032-9.661-1.418c-1.559-0.186-3.111-0.292-4.678-0.276
							c-0.326,0.002-1.075,0.246-1.087-0.271c-0.009-0.458-0.068-0.87-0.081-1.329c3.205-0.196,6.435,0.161,9.597,0.636
							c1.625,0.246,3.234,0.571,4.861,0.78c0.327,0.043,1.28-0.084,1.239,0.44c-0.038,0.458-0.146,0.945-0.185,1.406"/>
					</g>
					<g>
						<path fill="#020202" d="M657.809,181.175c-7.523,0-15.152,0.283-22.482-1.486c-3.396-0.822-6.771-1.701-10.167-2.52
							c-7.666-1.843-15.438-3.071-23.172-4.605c-19.879-3.945-37.361-7.528-57.36-10.814c-15.104-2.484-31.364-5.414-46.619-6.879
							c-6.302-0.604-11.242-2.393-17.58-2.547c-3.001-0.072-7.26-0.665-10.187,0c-1.754,0.397-4.521,2.246-6.214,2.84
							c-0.645,0.227-1.354-0.405-1.56-0.969c-0.133-0.364,0.695-0.134,0.565-0.498c6.203-2.244,11.083-4.323,17.645-3.668
							c5.574,0.56,12.182,1.854,17.753,2.446c6.579,0.697,13.145,1.643,19.688,2.612c19.445,2.882,38.748,6.674,58.092,10.17
							c17.1,3.089,34.598,4.717,51.473,8.892c2.546,0.629,4.993,1.63,7.532,2.271c5.79,1.469,11.557,2.832,17.521,3.082
							c11.899,0.501,23.798-1.389,35.69-1.472c0.004,0.525-0.81,1.666-0.803,2.19c0.003,0.547,0.258-0.229-0.201-0.22
							c-0.813,0.008-1.596,1.62-2.412,1.639c-3.026,0.077-6.061-0.469-9.082-0.311c-6.028,0.314-12.083,1.373-18.126,1.373"/>
					</g>
					<g>
						<path fill="#020202" d="M710.197,283.148c-15.944-1.75-31.837-4.147-47.851-4.774c-16.154-0.634-32.133-1.636-48.067-4.455
							c-15.435-2.729-30.309-4.437-45.45-8.479c-15.5-4.146-31.669-8.559-47.319-12.112c-16.353-3.711-32.897-6.554-49.223-10.376
							c0.082-0.342,0.744-1.137,0.826-1.479c0.089-0.392,1.164-0.162,1.535-0.074c2.051,0.479,4.188,0.5,6.233,0.97
							c3.926,0.896,7.104,2.295,11.027,3.168c7.729,1.714,17.283,4.062,25.016,5.786c15.717,3.521,30.284,6.359,45.797,10.699
							c15.147,4.234,30.364,7.985,45.832,10.775c7.989,1.439,15.974,3,24.056,3.848c7.98,0.838,16.066,0.323,24.091,0.688
							c17.932,0.814,35.98,0.857,53.845,2.813c-0.043,0.406-0.259,2.523-0.303,2.938"/>
					</g>
					<g>
						<path fill="#020202" d="M540.916,331.55c-6.315-5.951-9.676-14.591-10.581-23.104c-0.811-7.63,0.182-16.188,4.465-22.729
							c0.601,0.393,1.003,0.342,0.6,1.012c-0.513,0.822-0.896,1.746-1.288,2.631c-0.818,1.82-1.096,3.846-1.523,5.789
							c-0.959,4.318-1.513,8.789-1.035,13.183c0.494,4.598,1.728,9.204,3.739,13.369c0.991,2.049,2.505,3.812,3.912,5.609
							c0.664,0.853,1.197,1.812,1.952,2.574c0.219,0.227,0.911,0.61,0.646,0.893c-0.235,0.255-0.499,0.368-0.733,0.618"/>
					</g>
					<g>
						<path fill="#020202" d="M484.688,339.517c-6.953,0-13.432-1.975-20.271-2.833c-3.783-0.478-9.228,1.369-13.016,1.459
							c-4.038,0.093-7.353-1.065-11.366-1.443c-7.99-0.747-14.943-2.729-22.962-3.133c-6.909-0.348-13.827,0.508-20.603-1.071
							c-7.744-1.813-15.136-5.229-21.797-9.538c0.184-0.286,0.744-1.397,1.049-1.48c1.438,0.936,2.801,1.948,4.283,2.787
							c2.729,1.525,5.709,2.771,8.628,3.896c5.954,2.289,12.403,3.067,18.747,3.624c3.728,0.325,7.434,0.839,11.168,1.075
							c4.047,0.254,8.153-0.083,12.175,0.396c7.892,0.942,15.807,2.897,23.76,2.563c2.979-0.128,5.887-0.972,8.856-0.676
							c2.697,0.269,5.376,0.676,8.024,1.224c5.862,1.193,11.676,1.832,17.671,1.229c4.771-0.47,9.439-1.167,13.867-2.938
							c5.166-2.064,10.092-4.813,15.569-5.889c0.063,0.311,0.378,0.966,0.438,1.266c0.125,0.637,0.224,0.979-0.479,1.125
							c-1.878,0.381-2.979,0.433-4.813,0.982c-3.104,0.938-6.92,3.347-9.922,4.549c-6.188,2.477-12.297,4.018-19.016,4.018"/>
					</g>
					<g>
						<path fill="#020202" d="M373.682,328.407c-7.894,0.478-15.74-0.397-23.58-1.063c-3.81-0.327-7.646-0.112-11.479-0.126
							c-3.871-0.015-7.729-0.146-11.602-0.269c-3.871-0.118-7.57-1.034-11.271-2.327c-3.525-1.23-6.956-2.678-10.408-4.137
							c-5.938-2.517-12.433-2.141-18.546-3.858c-9.382-2.641-17.044-9.715-25.753-14.252c-4.179-2.186-8.525-3.264-12.871-4.807
							c-3.831-1.364-7.027-3.981-9.263-8.141c0.283-0.246,0.649-0.771,0.954-0.729c0.857,1.588,2.046,3.047,3.306,4.146
							c2.313,2.02,5.396,2.571,8.14,3.385c3.553,1.047,7.335,1.252,10.696,2.979c3.372,1.746,6.018,5.271,9.226,7.398
							c3.256,2.161,6.611,4.318,10.09,5.926c2.997,1.385,6.256,2.087,9.425,2.767c2.805,0.598,5.84-0.288,8.65,0.238
							c3.644,0.682,6.708,3.828,10.115,5.408c3.024,1.398,6.249,2.376,9.447,3.144c3.275,0.785,6.709,0.938,10.061,0.963
							c3.396,0.023,6.787,0.102,10.188,0.128c3.524,0.028,7.021-0.063,10.521,0.238c6.688,0.582,13.4,1.53,20.141,1.333
							c3.49-0.103,7.021-0.474,10.508-0.896c1.773-0.215,3.504-0.229,5.271-0.54c0.235,0.295,0.063,0.429,0.103,0.881
							C381.7,326.917,377.74,328.161,373.682,328.407"/>
					</g>
					<g>
						<path fill="#020202" d="M378.813,253.531c-5.432-0.327-10.771-1.996-15.777-3.973c-2.561-1.011-5.069-2.148-7.682-3.002
							c-2.932-0.957-5.951-1.488-8.973-2.07c-5.955-1.146-11.951-1.944-17.662-4.096c-2.688-1.019-5.146-2.645-7.824-3.689
							c-1.458-0.575-3.024-0.896-4.523-1.362c-0.107-0.245,0.391-1.246,0.476-1.524c5.496,1.713,10.549,4.662,16.06,6.338
							c5.756,1.748,11.842,2.271,17.694,3.637c5.645,1.313,10.828,3.607,16.252,5.582c2.596,0.938,5.332,1.455,8.029,2.018
							c1.334,0.278,2.689,0.428,4.049,0.51c0.158,0.184-0.113,1.601-0.137,1.871"/>
					</g>
					<g>
						<path fill="#020202" d="M445.915,275.075c-7.878-1.091-15.644-2.901-23.283-5.063c-3.826-1.084-7.587-2.41-11.398-3.525
							c-3.23-0.938-7.487-1.051-10.024-3.41c-2.695-2.514-4.04-7.157-7.824-8.314c-1.953-0.602-4.13-0.08-6.017,0.588
							c-1.412,0.498-2.728,1.25-4.028,1.979c-0.215,0.115-1.854,1.081-1.887,1.031c-0.239-0.377-0.581-0.692-0.816-1.069
							c-0.029-0.048-0.018,0.048-0.05-0.003c3.921-2.473,9.367-5.583,14.085-3.479c3.731,1.659,5.067,5.821,8.055,8.313
							c1.286,1.065,2.977,1.101,4.545,1.547c1.941,0.543,3.881,1.13,5.815,1.699c3.795,1.108,7.628,2.084,11.44,3.149
							c3.831,1.063,7.668,2.068,11.55,2.937c1.837,0.413,3.575,1.312,5.43,1.647c0.919,0.168,1.879,0.082,2.797,0.221
							c0.55,0.087,1.89-0.034,1.8,0.638c-0.058,0.405-0.104,0.533-0.155,0.935"/>
					</g>
					<g>
						<path fill="#020202" d="M293.123,174.521c-1.727,0-2.53-0.771-3.446-2.017c1.527-1.126,3.463-1.889,5.368-2.027
							c2.028-0.149,3.363,0.638,4.609,2.147c-2.065,0.895-4.236,1.834-6.53,1.834 M291.55,172.813
							c0.303,0.36,1.846,0.995,5.978-0.637c-1.789-1.181-4.327-0.299-6.028,0.62 M291.185,173.018
							c0.081,0.064,0.125,0.118,0.201,0.183c0.087-0.114,0.162-0.253,0.149-0.398c-0.115,0.064-0.269,0.133-0.381,0.197"/>
					</g>
				</g>
				<g>
					<path fill="#020202" d="M469.61,247.509c-0.145-7.589-0.209-15.198-0.678-22.776c-0.452-7.472-1.938-14.862-2.563-22.328
						c-0.644-7.606-1.117-15.237-1.349-22.869c-0.231-7.774,0.188-15.632-1.033-23.325c-0.048-0.283-0.682-2.348-0.605-2.362
						c0.394-0.077,0.419-0.397,0.811-0.472c1.485,7.696,2.345,15.479,2.595,23.294c0.244,7.665,0.28,15.329,0.869,22.979
						c0.578,7.479,1.901,14.903,2.429,22.392c0.521,7.495,0.571,15.026,0.719,22.539c0.021,0.968,0.021,2.028,0.037,3.001
						c-0.41,0.01-1.321-0.049-1.729-0.045"/>
				</g>
				<g>
					<g>
						<path fill="#020202" d="M580.057,298.38c-0.028-0.274-0.193-1.069,0.122-1.112c0.73-0.098,1.433-0.438,2.151-0.574
							c2.802-0.539,6.336-0.729,8.313-3.004c0.739-0.852,1.354-1.896,1.688-2.973c0.176-0.554,0.208-1.189,0.181-1.771
							c-0.021-0.533-1.008-0.627-1.438-0.672c-3.562-0.381-7.013-0.76-10.433-1.901c-5.209-1.741-10.604-2.065-16.023-2.813
							c-4.237-0.59-8.451-0.766-12.711-0.218c-2.653,0.349-5.297,0.818-7.87,1.562c-1.657,0.477-3.185,1.377-4.808,1.959
							c-0.364,0.134-1.97,0.674-2.113,0.304c-0.118-0.325,0.012-0.497-0.114-0.823c5.79-2.212,12.371-4.715,18.592-5.042
							c4.423-0.231,9.271,0.876,13.638,1.449c3.105,0.409,5.03,1.015,8.063,1.806c2.416,0.629,4.765,1.459,7.229,1.899
							c1.678,0.301,3.361,0.565,5.058,0.731c0.973,0.092,2.869-0.172,3.688,0.521c1.398,1.183-0.465,4.358-1.181,5.502
							c-1.672,2.666-3.982,3.423-6.9,4.094c-1.664,0.382-3.349,0.671-5.049,0.868"/>
					</g>
					<g>
						<path fill="#020202" d="M553.517,334.007c-6.791,0-13.063-2.208-19.826-2.694c-3.679-0.265-7.907,0.546-11.595,0.427
							c-2.155-0.081-3.788-0.773-5.945-0.787c-0.563-0.005-1.688,0.247-1.688-0.437c0-0.409-0.255-0.83-0.255-1.229
							c11.592,0,23.063,1.033,34.613,1.787c4.73,0.312,9.892,0.97,14.55-0.146c1.874-0.44,3.559-1.536,5.313-2.318
							c0.866-0.384,1.871-0.471,2.736-0.858c0.11-0.048,0.449,0.87,0.537,1.062c-2.47,1.119-4.942,2.235-7.563,2.972
							C561.041,332.728,556.971,334.007,553.517,334.007"/>
					</g>
					<g>
						<path fill="#020202" d="M563.77,328.24c-0.05-0.41-0.147-0.796-0.194-1.207c6.205-0.695,12.808-0.234,18.791-2.301
							c2.096-0.725,4.142-1.81,5.725-3.361c0.356-0.354,0.607-0.817,0.896-1.231c0.207-0.277,0.86,0.354,1.106,0.512
							c-1.705,2.824-5.182,4.596-8.215,5.479c-5.896,1.72-12.126,1.487-18.167,2.166"/>
					</g>
					<g>
						<path fill="#020202" d="M584.26,321.17c-3.625,0-7.322-0.377-10.9-0.833c-4.187-0.527-8.416-1.348-12.481-2.529
							c0.104-0.359,0.067-0.979,0.478-0.861c0.838,0.229,1.703,0.346,2.552,0.521c2.07,0.44,4.202,0.585,6.301,0.896
							c3.936,0.576,7.894,1.046,11.866,1.317c4.661,0.325,8.956-1.275,13.401-2.507c2.514-0.689,5.087-1.146,7.534-2.043
							c0.812-0.293,1.672-0.476,2.36-1c0.508-0.374,0.819,0.316,1.221,0.745c-2.394,2.247-6.511,2.33-9.534,3.124
							c-4.146,1.092-8.465,3.001-12.804,3.001"/>
					</g>
					<g>
						<path fill="#020202" d="M585.1,315.318c-4.646,0-8.513-2.212-12.581-4.306c-2.206-1.134-4.507-2.084-6.674-3.288
							c-1.126-0.619-2.146-1.432-3.292-2.027c-0.268-0.146-0.938-0.17-0.772-0.496c0.153-0.313,0.355-0.542,0.513-0.854
							c5.429,2.688,10.448,6.174,16.078,8.471c3.758,1.528,7.448,1.017,11.438,0.793c3.023-0.171,6.055-0.328,9.067-0.616
							c1.776-0.171,3.579-0.104,5.359-0.296c1.368-0.146,3.353-0.037,3.341-1.947c-0.011-2.909-2.319-4.479-4.896-4.805
							c-3.001-0.383-6.038-0.545-9.017-1.143c-7.729-1.562-14.407-6.369-21.501-9.648c-3.256-1.508-6.669-2.689-10.025-3.956
							c-1.336-0.507-2.67-1.058-4.045-1.444c-0.521-0.146-1.147-0.049-1.688-0.146c-0.115-0.188,0.254-1.064,0.299-1.297
							c4.807,0.896,9.427,3.221,13.847,5.213c5.231,2.361,10.245,5.15,15.438,7.594c3.166,1.49,6.665,2.148,10.107,2.686
							c2.857,0.441,6.039,0.162,8.812,1.004c2.426,0.729,4.274,3.744,4.042,6.309c-0.276,3.026-4.326,2.401-6.536,2.635
							c-5.749,0.594-11.531,1.322-17.313,1.322"/>
					</g>
				</g>
				<g>
					<path fill="#020202" d="M245.514,279.828c-2.256-1.135-4.592-2.51-5.93-4.71c-1.08-1.775-1.442-3.854-1.924-5.845
						c-0.733-3.035-2.177-5.438-4.093-7.894c-2.091-2.672-4.347-5.29-6.109-8.198c-3.538-5.848,0.39-11.58,3.759-16.41
						c1.617-2.313,4.165-5.422,3.619-8.463c-0.221-1.229-1.284-2.058-2.18-2.89c-0.282-0.26-1.394-1.177-1.183-1.479
						c0.198-0.287,0.405-0.242,0.604-0.533c2.179,1.511,4.085,3.429,3.863,6.23c-0.268,3.342-2.6,6.344-4.436,8.979
						c-1.716,2.479-3.787,5.03-4.285,8.063c-0.516,3.153,1.2,5.584,3.07,7.986c2.042,2.624,4.364,5.063,6.212,7.834
						c1.676,2.514,2.228,5.418,2.91,8.316c0.424,1.795,0.893,3.611,2.166,4.996c0.821,0.896,2.001,1.396,3.039,2.02
						c0.325,0.193,1.339,0.686,1.165,1.025c-0.159,0.313-0.181,0.805-0.338,1.115"/>
				</g>
				<g>
					<path fill="#020202" d="M205.987,253.454c-4.139-6.611-3.508-15.912,0.019-22.646c0.51,0.265,1.195,0.316,0.903,0.9
						c-0.527,1.051-0.938,2.146-1.296,3.266c-0.756,2.379-1.201,4.84-1.223,7.322c-0.021,2.383,0.233,4.777,0.979,7.036
						c0.331,1.001,0.804,1.951,1.32,2.87c0.267,0.479,0.47,0.556,0.005,0.844c-0.239,0.15-0.579,0.321-0.82,0.479"/>
				</g>
				<g>
					<path fill="#020202" d="M379.962,240.604c-32.481-1.104-64.72-6.34-97.229-6.92c-1.644-0.024-3.295,0.908-4.939,0.899
						c-0.346,0-0.978-0.239-0.978-0.655c0-0.346-0.502-0.976-0.502-1.324c32.389,0,64.485,5.457,96.79,7.037
						c1.793,0.086,3.614-0.072,5.414-0.004c0.344,0.016,1.316-0.438,1.297-0.025c-0.01,0.353,0.154,0.293,0.148,0.646"/>
				</g>
				<g>
					<path fill="#020202" d="M456.784,270.652c-3.895-4.457-8.347-6.603-14.32-7.021c-5.621-0.396-10.758-1.887-16.243-3.525
						c-7.258-2.166-13.944-5.951-20.428-9.77c-6.488-3.816-13.386-6.956-20.609-9.203c-15.082-4.708-30.668-7.496-45.97-11.336
						c-15.424-3.861-30.249-10.32-46.047-12.626c-7.865-1.146-16.794-0.373-24.506,1.697c-3.467,0.932-5.831,2.215-9.109,3.672
						c-1.848,0.817-4.057,0.871-5.875,1.765c-0.904,0.442-1.892,0.938-2.793,1.385c-0.209-0.102-0.55-1.229-0.659-1.445
						c5.779-2.887,12.114-4.79,18.352-6.553c6.353-1.793,12.882-2.438,19.449-1.926c15.861,1.229,30.874,6.945,46.035,11.276
						c15.237,4.354,30.666,7.701,45.983,11.731c7.446,1.961,14.242,4.552,20.951,8.322c6.708,3.771,13.22,7.396,20.222,10.631
						c3.529,1.625,7.479,2.412,11.347,2.799c2.934,0.297,5.794,1.285,8.729,1.396c2.705,0.104,5.075,0.636,7.581,1.693
						c3.438,1.463,6.511,3.315,8.939,6.104c-0.311,0.276,0.218-0.217-0.094,0.052"/>
				</g>
				<g>
					<path fill="#020202" d="M521.821,285.234c-6.151,0-12.699-0.86-18.499-2.898c-3.275-1.15-6.312-2.87-9.418-4.404
						c-3.392-1.684-6.832-3.002-10.317-4.459c-5.831-2.443-11.292-4.07-17.604-3.468c-6.492,0.618-12.745,2.67-18.583,5.484
						c-2.313,1.116-4.709,2.116-6.957,3.364c-0.288,0.166-2.864,2.047-2.898,1.984c-0.251-0.438-0.476-1.033-0.734-1.472
						c11.69-6.804,24.995-13.492,38.886-11.188c3.354,0.555,6.359,2.479,9.485,3.803c3.479,1.479,6.825,3.18,10.222,4.844
						c5.68,2.785,11.734,4.783,17.989,5.867c4.339,0.752,8.742,1.277,13.121,0.968c2.508-0.179,4.277-0.513,6.752-0.916
						c1.276-0.208,3.481-0.992,4.756-1.241c0.203,0.154,0.063,1.766,0.113,2.049c-5.266,1.031-10.93,1.887-16.311,1.887"/>
				</g>
				<g>
					<path fill="#020202" d="M508.023,330.287c-3.036-6.428-6.018-13.271-6.076-20.5c-0.063-7.535,3.001-14.63,6.688-21.014
						c0.226,0.129,1.035,0.444,1.133,0.674c-0.625,1.082-1.043,2.265-1.629,3.367c-1.021,1.936-2.273,3.771-3.063,5.811
						c-1.347,3.434-2.053,7.12-2.07,10.822c-0.017,3.673,0.676,7.33,1.86,10.784c0.688,2.012,1.692,3.903,2.551,5.854
						c0.479,1.096,0.975,2.181,1.484,3.263c0.315,0.683-0.363,0.688-0.959,0.973"/>
				</g>
			</g>
			<g>
				<g>
					<path fill="#020202" d="M214.09,192.956c-4.239,0-8.978-0.733-12.841-2.479c-4.192-1.891-7.127-5.332-9.011-9.521
						c-2.517-5.593-3.135-11.79-3.095-17.821c0.025-3.661,0.512-7.315,0.524-10.975c0.009-3.018-0.282-6.135-1.226-9.03
						c-1.529-4.695-6.644-9.933-11.886-7.323c-1.993,0.993-5.377,2.773-7.075,0.46c-0.795-1.081-1.301-3.665-2.972-3.703
						c-0.761-0.019-0.668,0.724-1.108,0.034c-0.246-0.387-0.662-0.513-0.908-0.901c3.164-2.017,4.981,0.93,6.458,3.277
						c1.115,1.773,4.772-0.519,6.008-0.943c5.317-1.827,10.571,2.061,12.722,6.652c2.81,5.996,1.522,13.44,1.37,19.836
						c-0.147,6.215-0.008,12.763,2.258,18.658c1.816,4.728,5.083,8.614,9.836,10.394c2.792,1.043,5.893,1.354,8.845,1.682
						c0.681,0.076,1.388-0.212,2.073-0.195c0.079,0.002,0.315,1.985,0.315,2.199"/>
				</g>
				<g>
					<path fill="#020202" d="M162.868,138.998c-0.724-1.746-1.473-3.771-2.569-5.316c-0.693-0.979-1.823-1.566-2.915-2.007
						c-0.222-0.087-1.861-0.619-1.848-0.669c0.1-0.381,0.16-0.797,0.263-1.18c2.199,0.581,4.739,1.584,5.833,3.746
						c0.823,1.627,1.575,3.281,2.313,4.947c-0.379,0.166-0.743,0.306-1.123,0.473"/>
				</g>
				<g>
					<path fill="#020202" d="M163.871,143.069c-2.211-1.229-3.184-3.644-3.634-6.02c-0.21-1.119-0.373-2.24-0.519-3.368
						c-0.045-0.344-0.376-1.282-0.063-1.422c0.316-0.146,0.682-0.296,1-0.438c0.475,1.045,0.4,2.367,0.54,3.491
						c0.143,1.161,0.369,2.32,0.767,3.426c0.36,1.002,0.862,1.994,1.676,2.695c0.248,0.214,0.905,0.362,0.726,0.687
						c-0.169,0.307-0.316,0.637-0.487,0.941"/>
				</g>
				<g>
					<path fill="#020202" d="M129.813,157.225c-0.283-0.008-0.565-0.061-0.847-0.068c-0.702-0.019-0.407-0.721-0.424-1.32
						c-0.04-1.46-0.243-2.901-0.585-4.322c-0.353-1.468-0.763-2.921-1.279-4.336c-0.116-0.324-0.739-1.243-0.353-1.388
						c0.328-0.121,0.649-0.214,0.976-0.336c1.43,3.83,2.682,7.607,2.571,11.74"/>
				</g>
				<g>
					<path fill="#020202" d="M164.26,143.451c-0.392-0.06-0.777-0.164-1.167-0.224c-0.062-0.009,0.289-2.491,0.318-2.816
						c0.129-1.457,0.054-2.905-0.04-4.364c-0.063-0.986-0.319-2.254,0.126-3.178c0.423-0.874,1.339-1.537,2.219-1.901
						c0.134,0.32,0.268,0.646,0.402,0.968c0.128,0.311-0.218,0.369-0.477,0.531c-1.068,0.666-1.146,1.303-1.07,2.438
						c0.191,2.889,0.17,5.669-0.274,8.535"/>
				</g>
				<g>
					<path fill="#020202" d="M122.42,149.677c-0.447,0-0.897-0.048-1.338-0.109c0.058-0.392,0.12-0.788,0.178-1.179
						c-0.008,0.048,2.468-0.025,2.746-0.068c1.084-0.17,2.154-0.503,3.138-0.992c0.207,0.097,0.431,0.864,0.54,1.082
						c-1.619,0.807-3.456,1.255-5.264,1.255"/>
				</g>
				<g>
					<path fill="#020202" d="M111.147,152.679c-0.863-3.297-2.943-6.107-3.108-9.603c0.394-0.019,0.742-0.081,1.136-0.099
						c-0.058,0.001,0.538,2.649,0.638,2.944c0.743,2.191,1.936,4.195,2.522,6.442c-0.4,0.105-0.768,0.207-1.166,0.313"/>
				</g>
				<g>
					<path fill="#020202" d="M40.753,228.771c-2.137-6.449-2.092-13.354-3.216-20c-0.078-0.457-0.38-1.049,0.107-1.224
						c0.478-0.164,0.916-0.44,1.395-0.612c0.083-0.028,0.3,0.564,0.336,0.642c0.916,1.831,1.826,3.659,2.742,5.496
						c-0.469,0.235-0.958,0.394-1.425,0.626c-0.448,0.226-0.351-0.229-0.546-0.621c0.492,4.063,0.668,8.141,1.605,12.135
						c0.225,0.939,0.589,1.854,0.881,2.788c0.099,0.31-1.471,0.687-1.79,0.792"/>
				</g>
				<g>
					<path fill="#020202" d="M69.59,173.028c-0.19-0.366-0.358-0.642-0.547-1.007c3.412-1.765,7.386-2.342,11.181-2.078
						c-3.972-1.99-8.565-2.661-12.917-1.635c-1.148,0.271-2.278,0.627-3.338,1.151c-0.209,0.103-0.479,0.104-0.68,0.225
						c-0.044,0.025-0.586-0.902-0.662-1.024c4.511-2.776,10.872-2.573,15.675-0.838c1.086,0.392,2.119,0.902,3.133,1.451
						c0.556,0.301,1.081,0.644,1.61,0.982c0.543,0.349,0.5,0.271,0.276,0.793c-0.155,0.362-0.177,0.591-0.553,0.519
						c-0.467-0.087-0.926-0.221-1.396-0.276c-3.958-0.468-8.267-0.177-11.851,1.678"/>
				</g>
				<g>
					<path fill="#020202" d="M41.646,249.876c-5.854-7.06-8.389-16.119-9.446-25.056c1.508,1.646,3.043,3.277,4.551,4.923
						c-0.263-2.082-0.389-4.183-0.312-6.281c0.004-0.116,1.413-0.106,1.59-0.119c0.523-0.03,0.866,1.677,1.074,2.208
						c0.706,1.795,1.552,3.551,2.644,5.137c0.131,0.188,0.641,0.608,0.422,0.772c-0.458,0.347-0.892,0.604-1.348,0.952
						c-0.839-1.1-1.638-2.189-2.302-3.396c0.055,0.512,0.732,3.355,0.455,3.504c-0.212,0.115-1.379,1.065-1.524,0.908
						c-0.85-0.929-1.584-1.928-2.435-2.854c0.765,3.535,1.829,7.018,3.327,10.314c0.926,2.033,1.974,4.027,3.253,5.862
						c0.316,0.458,1.643,1.646,1.208,2.008c-0.402,0.339-0.673,0.714-1.078,1.046"/>
				</g>
				<g>
					<path fill="#020202" d="M51.258,265.324c-2.07-0.848-4.423-0.75-6.609-1.002c0.067-0.573,0.125-1.184,0.19-1.756
						c0.029-0.254,2.955,0.084,3.402,0.129c-2.67-2.18-5.414-4.313-7.672-6.938c-1.755-2.048-2.751-4.157-3.545-6.69
						c1.74,0.459,3.475,0.705,5.21,1.188c-0.122,0.438-0.351,0.934-0.473,1.37c-0.016,0.063,0.001,0.467-0.06,0.511
						c-0.595-0.164-1.222-0.313-1.827-0.438c1.656,3.185,4.559,5.646,7.286,7.884c1.482,1.217,3.086,2.289,4.522,3.563
						c0.642,0.565,0.618,0.535,0.198,1.19c-0.205,0.319-0.414,0.687-0.618,1.005"/>
				</g>
				<g>
					<path fill="#020202" d="M61.247,273.184c-3.246-0.021-6.522-1.467-9.317-2.979c-2.873-1.553-5.665-3.469-8.029-5.732
						c0.397-0.408,0.761-0.88,1.159-1.295c0.16-0.167,1.61,1.273,1.885,1.491c1.828,1.447,3.83,2.679,5.879,3.792
						c1.977,1.072,4.07,2.018,6.271,2.527c0.334,0.08,2.188,0.279,2.186,0.471c-0.003,0.574-0.037,1.09-0.04,1.663"/>
				</g>
				<g>
					<path fill="#020202" d="M146.04,280.55c-2.746-0.015-5.19-1.262-7.711-2.217c1.892-0.31,3.812-0.461,5.604-1.172
						c2.978-1.179,4.255-4.231,6.121-6.599c2.26-2.869,6.024-4.438,9.3-5.772c2-0.815,4.062-1.49,6.016-2.413
						c0.644-0.302,0.823-0.682,1.185-0.012c0.218,0.402,0.465,0.656,0.683,1.063c-4.231,2.28-8.965,3.463-13.036,6.064
						c-3.705,2.365-4.937,7.085-8.941,9.058c0.8,0.079,0.862,0.082,0.858,0.843c-0.003,0.392-0.092,0.699-0.095,1.088"/>
				</g>
				<g>
					<path fill="#020202" d="M95.608,289.434c-2.406-0.459-4.788-0.824-7.171-1.341c-1.541-0.331-3.031-0.981-4.573-1.378
						c-0.764-0.197-1.49-0.398-2.182-0.788c-0.707-0.403-0.797,0.177-1.575,0.333c-4.421,0.926-10.518,1.034-14.514-1.381
						c-0.901-0.543-1.236-1.757-1.635-2.754c-0.453-1.135-0.45-2.866-1.312-3.775c-0.816-0.856-2.425-1.328-3.515-1.461
						c-1.5-0.187-3.158,0.168-4.595-0.351c-0.084-0.128,0.152-1.736,0.265-1.853c1.559-0.088,3.218,0.006,4.696-0.506
						c1.477-0.51,2.649-1.837,4.01-2.592c0.3,0.109,0.923,1.688,1.091,1.993c-1.384,0.771-2.895,1.397-4.386,1.938
						c1.826,0.274,4.198,0.695,4.83,2.67c0.493,1.537-0.062,3.156,1.363,4.246c2.238,1.709,5.464,2.33,8.168,2.334
						c1.496,0,2.938-0.685,4.411-0.938c0.563-0.103,1.231,0.289,1.778,0.128c0.583-0.174,0.92-0.77,1.348-0.3
						c1.237,1.358,3.178,1.92,4.811,2.512c1.012,0.365,1.941,0.771,3.03,0.877c1.184,0.114,2.478-0.057,3.662,0.054
						c-0.05-0.477-0.217-1.431-0.269-1.898c3.514-0.148,6.668,0.982,10.116,1.369c-0.761-1.18-1.488-2.275-2.259-3.451
						c5.946-0.076,11.835,1.343,17.764,1.195c6.735-0.164,12.926-3.082,19.695-2.979c-0.01,0.574-0.41,0.885-0.419,1.459
						c-0.002,0.133-3.264,0.021-3.776,0.105c-3.271,0.519-6.276,2.343-9.507,3.035c-3.373,0.729-6.813,0.277-10.245-0.008
						c-3.348-0.275-6.573-0.397-9.934-0.521c0.742,1.2,1.666,2.21,2.458,3.39c-1.359,0.047-2.909-0.094-4.264-0.271
						c-2.515-0.333-4.93-0.915-7.473-1.04c0.066,0.604-0.26,1.064-0.193,1.678"/>
				</g>
				<g>
					<path fill="#020202" d="M142.582,235.869c-6.489,0-11.38-4.549-12.43-10.979c-0.577-3.533,0.202-7.854,2.608-10.611
						c0.247,0.214,1.235,0.807,0.994,1.104c-0.377,0.479-0.757,0.941-1.05,1.477c-1.12,2.033-1.7,4.339-1.543,6.658
						c0.401,5.984,5.156,10.599,11.16,10.856c2.748,0.116,5.039-0.515,7.651-1.324c2.701-0.838,5.2-2.022,7.543-3.64
						c3.995-2.748,6.988-6.854,8.299-11.438c0.77-2.703,1.35-5.934,0.238-8.615c-0.568-1.367-1.699-2.45-3.102-2.957
						c-0.24-0.082-2.256-0.414-2.256-0.396c0.017-0.396,0.162-0.779,0.178-1.179c9.712,0.405,7.208,12.717,4.257,18.458
						c-1.827,3.553-4.722,6.502-8.281,8.39C152.585,233.936,147.446,235.869,142.582,235.869"/>
				</g>
				<g>
					<path fill="#020202" d="M136.317,228.203c-2.793-3.004-2.182-7.607,0.83-10.223c3.153-2.736,7.322-1.864,9.686,1.397
						c-0.54,0.396-0.871,0.972-1.333,0.396c-0.672-0.838-1.469-1.619-2.486-1.994c-1.7-0.631-3.549-0.047-4.912,1.084
						c-1.428,1.185-2.435,2.996-2.417,4.865c0.01,1.063,0.372,2.094,0.977,2.955c0.339,0.48,0.759,0.543,0.308,0.971
						c-0.208,0.186-0.473,0.396-0.68,0.584"/>
				</g>
				<g>
					<path fill="#020202" d="M151.112,226.789c-2.389,0-4.574-1.543-6.509-2.771c-1.024-0.651-2.067-1.347-3.189-1.817
						c-0.503-0.218-0.045-0.806,0.118-1.267c3.116,1.101,8.134,6.182,11.644,3.525c2.45-1.852,2.141-5.466,2.189-8.193
						c0.024-1.33-0.049-2.656-0.402-3.951c-0.315-1.151-0.936-3.429-2.346-1.853c-1.292,1.435-3.36,1.491-4.906,2.563
						c-0.838,0.582-0.774,1.274-0.102,1.998c-0.043,0.232-0.711,0.672-0.897,0.844c-3.461-3.719,3.478-4.653,5.1-6.404
						c0.908-0.979,2.492-1.154,3.337,0.073c0.708,1.026,1.106,2.353,1.318,3.567c0.411,2.354,0.112,5.09-0.164,7.441
						c-0.339,2.903-1.732,6.254-5.19,6.254"/>
				</g>
				<g>
					<path fill="#020202" d="M68.46,181.126c-0.299-0.283-0.649-0.544-0.95-0.834c2.403-2.536,6.159-3.334,9.526-3.488
						c-2.74-0.934-5.745-1.008-8.596-0.64c-0.712,0.089-1.413,0.247-2.112,0.415c-0.289,0.068-0.387-0.936-0.457-1.196
						c1.736-0.469,3.569-0.726,5.359-0.74c1.613-0.016,3.248,0.121,4.817,0.51c0.85,0.205,1.677,0.525,2.479,0.871
						c0.577,0.253,1.795,0.573,1.551,1.278c-0.271,0.781-0.129,0.786-0.881,0.751c-1.021-0.051-2.049-0.051-3.066,0.04
						c-2.741,0.242-5.786,0.964-7.741,3.03"/>
				</g>
				<g>
					<path fill="#020202" d="M105.882,193.593c-3.327,0-5.664-1.69-8.103-3.681c-2.566-2.092-5.632-1.794-8.778-1.756
						c-3.307,0.041-6.523-0.434-9.398-2.229c-1.277-0.799-2.45-1.827-3.848-2.422c-1.542-0.657-3.258-0.854-4.787-1.55
						c0.1-0.217,0.308-1.002,0.505-1.1c1.006,0.455,2.14,0.566,3.189,0.901c2.282,0.728,4.065,2.052,6.101,3.229
						c4.365,2.531,9.273,0.975,13.961,1.879c3.818,0.736,5.814,4.652,9.647,5.363c2.003,0.371,4.124,0.147,5.983-0.606
						c1.095-0.445,2.173-1.017,3.173-1.644c0.647-0.41,0.643,0.069,1.016,0.64c-2.554,1.664-5.553,3.205-8.662,3.205"/>
				</g>
				<g>
					<path fill="#020202" d="M135.593,202.965c-3.443,0-6.881-0.275-10.32-0.402c-2.671-0.095-5.28,0.059-7.6-1.477
						c-1.927-1.273-2.247-2.947-1.467-5.092c0.459-1.262,1.353-2.059,1.353-2.059c-0.322-0.104-0.581-0.057-0.522-0.437
						c0.053-0.349,0.193-0.5,0.247-0.843c4.142,0.644-2.752,4.434,0.211,6.878c2.919,2.403,6.955,1.926,10.511,2.03
						c3.571,0.115,7.151,0.259,10.723,0.146c1.35-0.042,2.709-0.177,4.044-0.391c0.414-0.065,0.784-0.288,1.172-0.44
						c0.229-0.092,0.554,0.962,0.658,1.188c-1.038,0.479-2.277,0.666-3.398,0.754c-1.862,0.148-3.743,0.246-5.612,0.246"/>
				</g>
				<g>
					<path fill="#020202" d="M134.707,213.564c-0.354-0.211-0.688-0.41-1.042-0.629c1.465-2.42,3.875-3.767,5.85-5.693
						c1.876-1.829,2.045-4.021,2.558-6.465c0.341,0.072,0.643,0.089,0.984,0.158c0.37,0.082-0.066,1.461-0.132,1.842
						c-0.223,1.295-0.456,2.589-1.155,3.724c-1.793,2.894-5.302,4.144-7.076,7.069"/>
				</g>
			</g>
			<g>
				<path fill="#020202" d="M203.758,261.617c-4.635-3.35-9.636-6.215-15.286-6.875c-3.623-0.424-6.651-1.165-10.189-0.254
					c-1.931,0.496-5.275,1.305-7.052,2.205c-0.499,0.252-1.334,1.074-1.672,0.502c-0.207-0.346-0.499-0.637-0.705-0.988
					c10.916-6.438,25.599-4.795,35.744,2.529c-0.303,0.418-0.589,0.826-0.892,1.242"/>
			</g>
			<g>
				<path fill="#020202" d="M162.427,257.109c-2.042-4.385-6.196-6.844-10.642-10.584c-1.919-1.611-9.011-4.984-10.8-6.739
					c-0.928-0.908-1.881-1.789-2.856-2.647c-0.535-0.472,0.131-0.813,0.542-1.287c6.771,5.905,21.135,12.547,24.936,20.717
					c-0.375,0.182-0.778,0.354-1.153,0.523"/>
			</g>
			<g>
				<path fill="#020202" d="M165.481,266.701c-0.139-1.605-0.721-3.219-1.989-4.287c-0.863-0.727-2.007-1.128-3.031-1.563
					c0.869-0.182,1.736-0.348,2.591-0.574c-0.896-1.035-1.962-1.9-3.147-2.598c-0.291-0.173-1.089-0.396-0.931-0.757
					c0.146-0.313,0.254-0.676,0.4-0.996c2.609,1.188,4.467,3.163,6.141,5.429c-0.417-0.01-0.847-0.019-1.263-0.025
					c1.576,1.285,2.318,3.297,2.489,5.27c-0.412,0.037-0.821,0.063-1.233,0.096"/>
			</g>
			<g>
				<path fill="#020202" d="M382.473,325.898c-6.308-3.269-12.199-7.288-18.518-10.533c-4.696-2.411-10.785-5.726-16.262-4.777
					c-2.438,0.42-4.373,2.378-5.5,4.567c-1.157,2.248,1.063,2.889,2.904,3.293c2.854,0.619,5.803,1.032,8.715,1.098
					c2.676,0.063,5.763-0.297,8.354,0.556c0.217,0.071,0.458,0.035,0.648,0.155c-0.181,0.298-0.211,0.674-0.396,0.971
					c-0.171,0.278-0.697-0.078-1.001-0.146c-1.56-0.351-3.201-0.266-4.783-0.313c-3.332-0.084-6.694-0.084-10.002-0.53
					c-1.948-0.267-5.274-0.688-6.137-2.805c-0.97-2.375,1.95-5.313,3.688-6.546c4.516-3.188,11.039-0.979,15.547,0.97
					c6.742,2.896,12.906,6.989,19.26,10.61c1.117,0.646,2.23,1.28,3.369,1.891c0.51,0.268,0.936,0.335,0.664,0.854
					c-0.129,0.247-0.355,0.247-0.479,0.502"/>
			</g>
		</g>
	</g>
	<g>
		<path fill="#020202" d="M217.605,282.536c-2.644-1.433-4.911-3.312-7.648-4.563c-1.403-0.642-3.126-2.217-4.204-3.32
			c-2.614-2.676-1.162-7.619-0.696-10.84c1.001-6.938,1.502-14.144,3.646-20.877c2.242-7.047,6.625-12.598,11.581-18.088
			c1.207-1.332,2.711-2.43,3.902-3.779c0.149-0.17,0.995-1.563,1.065-1.51c0.305,0.241,0.568,0.19,0.875,0.438
			c-4.473,5.267-9.757,10.155-13.286,16.104c-3.628,6.112-4.418,13.229-5.374,20.099c-0.47,3.39-1.488,6.719-1.879,10.118
			c-0.205,1.791,0.05,3.711,0.576,5.469c0.913,3.07,4.837,4.104,7.488,5.301c1.729,0.78,3.408,1.688,5.072,2.588
			c-0.201,0.346-0.534,0.969-0.736,1.315"/>
	</g>
	<g>
		<path fill="#020202" d="M519.163,284.229c-11.179-7.984-23.124-14.326-35.954-19.42c-5.001-1.982-9.761-4.608-14.696-6.767
			c-3.146-1.367-5.611-3.382-8.938-4.312c-3.698-1.041-8.279-0.246-12.027-1.076c-15.952-3.535-30.919-10.105-46.076-15.953
			c-7.569-2.92-14.893-6.608-22.725-8.799c-7.497-2.098-14.91-4.791-22.492-6.58c-13.844-3.266-28.959-4.43-43.066-6.424
			c-13.616-1.922-26.187-3.094-39.944-3.519c-11.628-0.358-24.128-0.155-35.157,3.733c-5.437,1.92-9.884,5.105-14.393,8.637
			c-2.347,1.835-4.405,3.787-6.399,5.982c-1.055,1.164-1.933,2.383-2.886,3.625c-0.316,0.41-2.104,1.658-2.618,1.308
			c-0.339-0.235,1.686-1.108,1.346-1.354c7.092-9.685,15.67-16.715,27.322-20.25c11.303-3.424,23.203-3.972,34.947-3.494
			c13.372,0.541,26.861,1.398,40.096,3.32c14.052,2.035,28.229,3.832,42.028,7.103c7.613,1.804,15.172,4.132,22.693,6.28
			c7.875,2.254,15.172,6.229,22.798,9.185c7.66,2.967,15.604,5.267,23.362,8.021c7.63,2.705,15.088,5.772,23.005,7.526
			c3.449,0.763,7.404-0.26,10.798,0.71c3.299,0.941,6.847,4.146,9.975,5.51c4.978,2.153,9.496,4.426,14.539,6.432
			c12.861,5.125,23.891,11.229,35.101,19.24c-0.313,0.41,0.313-0.416,0,0"/>
	</g>
</g>
<g id="Meters">
	
		<rect id="OneThird" x="-69.667" y="154.294" opacity="0.4" fill="#2A3378" enable-background="new    " width="808.06" height="56.942"/>
	<line id="OneThird_1_" fill="none" stroke="#001783" stroke-miterlimit="10" x1="-79.5" y1="191.5" x2="738.393" y2="191.5"/>
</g>
<g id="Diagram">
	<path id="Brain" opacity="0.6" fill="#EEA8CA" stroke="#FADDE8" stroke-width="2" enable-background="new    " d="M79.511,155.542
		c-21.452,0-35.722,30.007-35.009,58.938c0.715,28.938,15.003,54.303,37.509,56.802c22.504,2.497,38.81-11.886,38.81-28.208
		s-8.102-27.18-17.051-41.721C95.773,188.354,100.96,155.542,79.511,155.542z"/>
	<path id="Lungs" opacity="0.6" fill="#EEA8CA" stroke="#FADDE8" stroke-width="2" enable-background="new    " d="M364.121,187.434
		c-4.684-13.033-40.826-5.262-61.28-0.076c-20.46,5.188-34.139,9.793-34.061,15.914c0.08,6.115,12.442,5.961,47.742,4.119
		C351.822,205.552,367.771,197.592,364.121,187.434z"/>
	<g id="Arrows">
		<path opacity="0.6" fill="#EB6767" enable-background="new    " d="M303.741,192.602l-0.9-5.244
			c-0.333,0.188-162.61,33.642-194.458,25.897l-0.312-2.673l-15.084,4.412l15.946,5.99l-0.431-3.023
			C143.469,229.402,303.399,192.799,303.741,192.602z"/>
		<path id="ArrowOne" opacity="0.6" fill="#EB6767" enable-background="new    " d="M294.076,203.009
			c3.279-1.329,8.08-3.632,12.344-7.038l-2.68-3.369c-3.011,2.4-7.01,4.676-11.269,6.405l-1.216-3.052l-10.449,9.949l14.47,0.158
			L294.076,203.009z"/>
	</g>
	<path id="Heart" opacity="0.6" fill="#EC6767" stroke="#FADDE8" stroke-width="2" enable-background="new    " d="M311.434,194.395
		c0,0-6.321-4.392-2.99-8.977c3.327-4.577,10.125-0.691,17.951,8.977c-7.823,9.668-14.622,13.563-17.951,8.979
		C305.112,198.785,311.434,194.395,311.434,194.395z"/>
</g>
<g>
	<g>
		<path fill="#020202" d="M63.512,167.544c-0.375-6.025,2.243-11.813,5.9-16.47c-2.686,1.833-5.001,4.436-6.587,7.274
			c-0.153,0.277-0.468,0.06-0.75-0.031c-0.086-0.029-0.485-0.149-0.535-0.232c0.083-0.527,0.258-1.025,0.401-1.541
			c0.459-1.635,1.15-3.186,2.142-4.566c2.577-3.589,6.654-6.494,10.835-7.915c0.229,0.673,0.688,1.144-0.005,1.419
			c-0.975,0.386-1.973,0.743-2.892,1.245c-3.116,1.711-6.054,4.144-7.836,7.268c1.177-1.392,2.589-2.616,4.072-3.678
			c0.779-0.561,1.552-1.147,2.412-1.573c0.975-0.481,1.034-0.594,1.591,0.274c0.302,0.469,0.144,0.522-0.221,0.916
			c-0.617,0.662-1.177,1.365-1.729,2.079c-1.808,2.35-3.317,4.921-4.322,7.712c-0.601,1.664-1.055,3.373-1.21,5.135
			c-0.074,0.867-0.246,1.727-0.19,2.593c-0.156,0.149-1.006,0.084-1.24,0.099"/>
	</g>
	<g>
		<g>
			<path fill="#020202" d="M80.105,145.401c-0.227-0.578,0.069-0.954-0.156-1.531c6.666-2.601,13.344-5.615,20.524-6.167
				c3.559-0.275,7.008,0.773,10.551,1.06c2.885,0.235,5.833-0.362,8.593-1.298c5.15-1.744,9.081-5.744,13.327-8.914
				c2.188-1.635,4.96-3.286,7.762-2.704c2.362,0.489,3.525,2.738,4.275,4.899c0.361,1.037,0.621,2.226,1.771,2.749
				c0.853,0.389,2.564,0.443,3.741,0.101c1.441-0.423,2.486-1.742,3.525-2.835c0.474-0.497,0.73-0.764,1.32-0.354
				c0.378,0.263,0.471,0.519,0.849,0.777c-1.558,2.248-3.968,3.594-6.628,4.032c-1.945,0.319-4.626,0.418-5.518-2.105
				c-0.512-1.458-0.955-3.086-2.04-4.216c-1.673-1.739-4.296-1.229-6.233-0.228c-2.732,1.414-5.177,3.581-7.541,5.516
				c-1.751,1.434-3.535,2.744-5.552,3.785c-2.339,1.205-4.749,2.372-7.367,2.568c-3.15,0.234-6.251-0.68-9.386-0.829
				c-8.853-0.417-17.208,2.638-25.362,5.82"/>
		</g>
		<path fill="#020202" d="M43.757,178.546c0.388-1.126,0.771-2.259,1.151-3.396c2.708-8.078,5.423-16.253,11.254-22.695
			c5.052-5.581,11.943-9.282,19.084-11.468c0.101,0.332,0.808,1.907,0.678,2.199c-1.679,0.515-3.516,0.682-5.133,1.368
			c-2.721,1.152-5.022,3.119-7.421,4.842c-4.061,2.922-7.28,6.618-9.793,10.935c-2.288,3.93-4.091,8.065-5.535,12.365
			c-0.891,2.65-1.886,5.281-2.808,7.927C43.969,184.259,43.757,178.546,43.757,178.546z"/>
	</g>
</g>
<g id="Hand">
	<g>
		<path fill="#0892C0" d="M389.244-92.511c-4.135,7.854-32.867,106.916-34.108,118.492c-1.239,11.575-9.096,9.507-13.229,21.912
			c-4.136,12.401,0.001,18.604-3.31,25.219c-3.31,6.614-6.201,12.815-10.339,25.631c-4.134,12.818-5.37,14.884-8.268,17.364
			c-2.9,2.481-2.9,5.79-2.9,5.79s7.442-3.721,14.479-1.654c7.027,2.065,16.947,5.788,27.281,9.508
			c10.334,3.72,12.813,9.096,12.813,9.096s0.828-15.298,6.613-21.499c5.787-6.202,11.16-12.402,16.121-25.631
			c4.967-13.231,10.753-26.045,10.753-26.045s11.984-5.789,19.018-27.288c7.029-21.498,25.641-128.532,25.641-128.532
			L389.244-92.511z"/>
		<g>
			<g>
				<path fill="#ECAF8B" d="M320.822,118.59c-3.799-0.331-1.242,7.028-2.896,8.681c-1.657,1.654-1.657,1.654-1.657,1.654
					s-7.026-1.654-12.403-2.067c-5.372-0.414-8.679,2.895-8.679,2.895s-3.723,2.067-5.375,5.375
					c-1.655,3.309-4.959,6.201-7.438,9.096c-2.483,2.894-4.549,2.481-6.202,6.614c-1.653,4.134-4.961,7.028-4.961,7.028
					s1.24,5.375,7.029,6.203c5.789,0.826,8.682-2.067,8.682-2.067s-0.415,5.375,4.957,8.683c5.376,3.305,9.099,2.065,9.099,2.065
					s1.655,4.961,5.375,5.789c3.721,0.83,6.199,1.24,7.029-0.411c0.829-1.656,1.239-3.305,1.239-3.305s3.722,5.374,7.443,5.79
					c3.721,0.412,6.201-3.305,7.854-5.79c1.655-2.481,3.725-6.2,3.725-6.2s3.301,5.79,7.438,5.372
					c4.136-0.409,8.271-4.133,10.749-6.612c2.479-2.482,4.549-4.549,5.79-4.962c1.234-0.414,7.439-2.482,7.029-8.683
					c-0.418-6.201-1.24-7.854-1.24-7.854s0.408-5.787,0.822-8.682c0.418-2.896,0.418-4.961,0.418-4.961
					S339.838,120.244,320.822,118.59z"/>
			</g>
		</g>
		<path fill="#12728F" d="M363.818,132.232c4.182,0.955,6.959,3.675,6.965,7.784c-2.432,1.349-3.907,1.278-6.555,0.483
			c-0.24-3.112-1.859-6.07-1.24-9.096"/>
		<path fill="#F2D7C5" d="M275.447,151.248c1.253-0.18,2.653,0.003,3.922-0.032c-1.514,2.732-4.112,4.936-7.299,5.897
			c0.935-1.734,2.18-4.06,3.377-5.557"/>
		<path fill="#F2D7C5" d="M293.123,161.48c-2.595,3.679-2.39,12.218,4.105,9.068c5.847-2.826,2.281-10.003-3.486-9.378"/>
		<path fill="#F2D7C5" d="M307.076,167.683c-5.54,0.771-2.147,7.888,2.619,7.374c6.981-0.757,2.214-8.361-3.548-8.3"/>
		<path fill="#F2D7C5" d="M322.27,168.922c-5.686,0.719-4.313,8.158,0.619,7.128c4.592-0.959,5.456-7.962-0.313-7.749"/>
		<path fill="#F2D7C5" d="M345.213,165.821c-1.678,3.224-5.602,3.977-8.381,1.566c-0.007-0.217-0.012-0.436-0.018-0.652
			c2.213-2.338,5.396-3.261,8.092-1.535"/>
		<path fill="#1083AA" d="M409.396,62.258c-6.505,5.035-14.539,6.563-16.742,14.651c-2.166,7.945-0.021,17.914-3.066,25.62
			c3.146-12.576,10.877-23.611,15.159-35.31"/>
	</g>
	<g>
		<g>
			<g>
				<path fill="#020202" d="M354.75,22.233c-0.652,4.122-1.354,8.214-3.816,11.698c-1.815,2.563-4.138,4.762-5.957,7.328
					c-2.607,3.701-5.492,7.878-6.137,12.437c-0.328,2.348,0.943,4.745,1.053,7.094c0.114,2.461-0.469,4.88-0.871,7.313
					c-0.311,1.818-0.889,3.45-1.713,5.107c-0.775,1.578-1.416,2.901-2.348,4.331c-1.48,2.248-2.398,5.264-3.059,7.851
					c-2.133,8.35-5.396,16.493-9.244,24.185c-1.268,2.531-1.908,5.557-3.661,7.794c-1.244,1.585-4.036,2.942-3.657,5.271
					c0.836-0.137,3.246-0.277,3.318-1.146c0.083-0.976-0.564-2.094,0.068-2.727c0.902-0.903,2.043-1.534,2.728-2.608
					c3.978-6.236,6.317-13.478,8.981-20.343c1.412-3.637,2.815-7.217,3.713-11.017c0.641-2.723,1.813-4.854,3.898-6.905
					c2.657-2.608,3.029-7.292,3.457-10.863c0.574-4.781-0.661-9.676,0.428-14.368c2.198-9.545,11.565-15.221,13.825-24.646
					c1.056-4.407,0.675-9.133,1.665-13.559c0.579-2.585,2.169-4.916,2.975-7.442c0.146-0.439,28.928-99.498,28.852-99.526
					c-0.564-0.207,5.77,3.485-1.119-0.451C385.718-86.393,355.498,15.284,354.4,22.18"/>
			</g>
		</g>
		<g>
			<g>
				<path fill="#020202" d="M429.423,14.286c-1.722,7.886-3.688,15.787-6.28,23.446c-2.354,7.004-5.483,14.379-10.695,19.765
					c-5.229,5.4-11.609,10.093-18.424,13.322c-1.56,0.739-3.277,1.14-4.937,1.641c-1.354,0.408-0.976,1.017-0.672,2.542
					c3.75-0.747,7.573-2.911,10.81-4.841c7.438-4.428,14.935-9.137,19.472-16.583c4.596-7.536,6.854-17.641,9.005-26.139
					c0.684-2.691,24.998-117.58,24.972-117.588c-0.569-0.176-2.285,0.176-2.855,0c-1.458,4.765-20.438,99.331-21.494,104.192"/>
			</g>
		</g>
		<g>
			<g>
				<path fill="#020202" d="M397.03,82.491c-2.417,6.592-4.726,13.379-8.115,19.553c-2.774,5.054-6.485,9.322-10.021,13.824
					c-3.813,4.854-6.793,9.932-8.365,15.854c-0.396,1.498,0.449,3.262,0.197,4.79c-0.146,0.892-0.752,1.653-1.351,2.368
					c0.043,0.308,0.813,0.621,1.073,0.836c1.438-1.723,1.415-4.399,1.943-6.534c0.955-3.842,2.391-7.698,4.268-11.2
					c3.527-6.606,9.521-11.548,13.285-18.044c4.729-8.166,6.792-17.705,10.1-26.497c1.568-4.159,3.854-8.058,5.854-12.032
					c0.853-1.694,1.688-3.41,2.759-4.978c0.391-0.576,0.709-0.579,0.142-0.996c-0.372-0.271-0.216-0.185-0.586-0.456
					c-5.138,7.005-8.008,15.522-10.973,23.589"/>
			</g>
		</g>
		<g>
			<g>
				<path fill="#020202" d="M318.969,120.26c-1.132,0.744-1.689,2.05-1.822,3.398c0.378,0.038,0.714,0.142,1.096,0.18
					c-0.017-0.001,0.444-1.691,0.621-1.907c0.747-0.883,2.069-1.303,3.168-1.5c2.604-0.47,5.393,0.047,7.975,0.472
					c5.198,0.855,10.112,2.802,15.126,4.378c4.792,1.507,9.697,2.6,14.328,4.575c2.816,1.202,5.823,2.231,7.982,4.429
					c1.168,1.19,1.887,2.773,2.688,4.233c0.4,0.727,0.771,1.475,1.085,2.242c0.192,0.071,1.232-0.516,1.442-0.601
					c-4.117-10.125-14.665-12.737-24.233-15.492c-4.739-1.364-9.397-2.968-14.212-4.08c-4.371-1.008-10.9-2.693-15.022,0.007"/>
			</g>
		</g>
		<g>
			<g>
				<path fill="#020202" d="M367.354,140.474c0.114,0.397,0.246,0.785,0.357,1.181c2.115-0.623,3.954-1.99,5.314-3.683
					c-0.969-0.782-0.864-0.891-1.781,0.051c-1.082,1.111-2.391,2.017-3.885,2.456"/>
			</g>
		</g>
		<g>
			<g>
				<path fill="#020202" d="M319.666,119.994c-0.263,1.845-0.507,3.756-1.331,5.45c-0.355,0.732-0.782,1.441-1.399,1.976
					c-0.002,0.212,0.635,0.738,0.78,0.913c1.806-1.561,2.498-3.932,2.906-6.202c0.146-0.845,0.295-1.69,0.415-2.539
					c0.033-0.23-1.028-0.292-1.261-0.328c-0.032,0.209-0.058,0.535-0.028,0.742"/>
			</g>
		</g>
		<g>
			<g>
				<path fill="#020202" d="M294.837,129.27c0.323,0.257,0.663,0.407,0.988,0.667c0.441,0.354,1.309-0.897,1.767-1.253
					c1.354-1.043,2.954-1.349,4.653-1.28c4.161,0.166,7.855,2.197,11.934,2.771c3.984,0.564,7.706-0.852,11.661-0.683
					c1.559,0.067,3.049,0.463,4.229,1.504c0.26,0.225,1.595,1.796,1.611,1.779c0.41-0.262,0.762-0.222,1.172-0.485
					c-1.869-2.916-4.447-4.832-7.922-4.697c-3.721,0.143-7.361,1.856-11.1,1.099c-6.574-1.33-13.703-6.216-19.106,0.499"/>
			</g>
		</g>
		<g>
			<g>
				<path fill="#020202" d="M338.197,135.905c0.197,0.328,0.469,0.767,0.669,1.097c0.056,0.1,1.192-0.533,1.405-0.598
					c1.438-0.444,3.058-0.472,4.543-0.19c3.99,0.758,3.762,5.218,6.631,7.312c1.438,1.055,3.219,1.186,4.953,1.453
					c0.841,0.131,1.733,0.388,2.475,0.86c0.839,0.544,1.273,1.53,1.463,2.472c0.171,0.822,0.214,1.664,0.243,2.5
					c0.169,0.135,0.837-0.026,1.067-0.032c-0.068-2.226-0.231-5.25-2.506-6.339c-2.197-1.049-4.685-0.604-6.764-2.105
					c-2.673-1.933-2.625-5.611-6.011-6.952c-2.451-0.971-5.771-0.665-8.058,0.678"/>
			</g>
		</g>
		<g>
			<g>
				<path fill="#020202" d="M363.357,136.303c-0.019,2.648,0.164,5.337-0.59,7.898c-0.117,0.379-1.408,3.373-1.401,3.376
					c0.538,0.262,1.181,0.535,1.723,0.795c1.906-3.959,2.193-7.876,2.267-12.197c0.021-1.14-0.027-2.284-0.01-3.425
					c0.018-0.921-1.117-0.602-1.916-0.633c-0.025,1.381,0.027,2.807,0.002,4.185"/>
			</g>
		</g>
		<g>
			<g>
				<path fill="#020202" d="M361.27,144.843c1.771,3.578,3.681,8.283,2.448,12.351c-0.534,1.756-1.712,3.147-3.308,4.004
					c-0.932,0.497-1.936,0.851-2.958,1.1c-0.868,0.211-0.49,0.488-0.327,1.271c3.65-0.76,6.991-2.738,7.879-6.608
					c0.979-4.277-0.759-8.924-2.618-12.679c-0.37,0.183-0.682,0.358-1.052,0.54"/>
			</g>
		</g>
		<g>
			<g>
				<path fill="#020202" d="M352.516,164.767c-2.299,3.645-5.521,6.67-9.646,8.221c-1.952,0.734-4.183,0.905-5.774-0.645
					c-0.253-0.246-1.728-2.467-1.65-2.5c-0.547,0.238-0.912,0.484-1.465,0.72c1.477,3.434,4.289,5.524,8.065,4.673
					c3.013-0.68,5.647-2.694,7.92-4.718c2.739-2.439,4.138-5.801,6.689-8.354c1.122-1.115,2.417-2.046,4-2.14
					c0.715-0.041,1.003,0.449,1.043-0.297c0.024-0.458,0.06-0.794,0.088-1.253c-4.625-0.263-7.269,2.554-9.528,6.136"/>
			</g>
		</g>
		<g>
			<g>
				<path fill="#020202" d="M343.805,153.426c-2.904,3.534-5.047,7.475-7.854,11.062c-2.036,2.61-3.735,5.164-5.33,8.094
					c-1.969,3.612-4.324,7.744-9.055,7.375c-1.872-0.146-3.57-1.208-4.396-2.891c-0.146-0.287-0.637-2.615-0.671-2.609
					c-0.476,0.08-1.001,0.382-1.484,0.462c0.76,4.568,4.404,7.104,9.048,6.048c5.343-1.215,7.271-6.73,9.899-10.825
					c2.216-3.455,5.021-6.397,6.978-10.062c2.686-5.022,7.896-8.565,9.594-14.158c-0.398-0.119-0.996-0.43-1.396-0.55
					c-0.543-0.166-1.195,1.577-1.455,2.094c-1.074,2.142-2.164,4.295-3.682,6.137"/>
			</g>
		</g>
		<g>
			<g>
				<path fill="#020202" d="M337.51,166.231c0.229,0.135,0.704,0.577,0.963,0.56c0.439-0.75,1.252-1.222,2.055-1.509
					c0.674-0.246,4.83-0.853,4.363,0.758c-0.35,1.21-2.217,2.745-3.51,2.283c-1.765-0.632-3.179-1.185-5.115-0.952
					c0.104,0.858-0.164,1.243,0.771,1.194c1.184-0.061,2.245,0.186,3.326,0.653c2.011,0.867,3.33,0.011,4.83-1.481
					c1.967-1.97,0.481-3.814-1.896-4.036c-2.128-0.197-4.666,0.589-5.813,2.529"/>
			</g>
		</g>
		<g>
			<g>
				<path fill="#020202" d="M333.034,142.2c-2.792,2.603-5.638,5.237-7.117,8.837c-1.394,3.403-2.772,6.668-4.544,9.919
					c-2.05,3.752-4.474,7.289-5.98,11.314c-0.636,1.688-1.311,3.421-2.324,4.934c-0.408,0.614-1.033,0.981-1.668,1.374
					c-0.039,0.199,0.676,0.968,0.798,1.159c3.482-2.172,4.156-7.109,6.024-10.46c2.249-4.043,4.74-7.889,6.64-12.131
					c1.688-3.76,2.621-7.42,5.464-10.563c1.849-2.045,3.89-3.944,5.886-5.847c-0.578-0.579-0.854-1.243-1.479-0.65
					c-0.646,0.617-0.976,1.574-1.621,2.192"/>
			</g>
		</g>
		<g>
			<g>
				<path fill="#020202" d="M310.389,137.661c0.238,2.015,0.592,4.128,0.125,6.126c-0.609,2.588-2.21,4.814-3.351,7.176
					c-1.638,3.394-2.467,7.083-3.47,10.697c-1.225,4.391-3.653,9.71-1.289,14.18c2.232,4.215,7.389,4.53,11.506,3.354
					c-0.078-0.254-0.124-1.12-0.338-1.232c-1.187,0.341-2.428,0.771-3.656,0.756c-2.183-0.022-4.771-0.738-6.151-2.544
					c-2.935-3.821,0.214-9.905,1.324-13.875c0.994-3.562,1.885-7.197,3.493-10.544c1.18-2.459,2.87-4.756,3.534-7.438
					c0.553-2.22-0.148-4.521-0.415-6.764c-0.514,0.063-0.708,0.057-1.221,0.119"/>
			</g>
		</g>
		<g>
			<g>
				<path fill="#020202" d="M291.327,138.693c0.469,2.92,0.307,5.778-0.213,8.704c-0.603,3.401-1.983,6.597-2.844,9.929
					c-1.198,4.653-0.903,9.868,2.478,13.663c2.627,2.948,7.049,3.46,10.24,1.063c-0.288-0.39-0.473-0.785-0.766-1.176
					c-0.002-0.002-2,1.082-2.278,1.155c-2.191,0.562-4.37-0.342-5.899-1.998c-3.278-3.542-2.902-8.388-1.722-12.711
					c0.853-3.134,1.655-6.271,2.245-9.473c0.584-3.169,0.478-6.164,0.001-9.329c-0.508,0.08-0.927,0.196-1.433,0.277"/>
			</g>
		</g>
		<g>
			<g>
				<path fill="#020202" d="M276.341,164.774c4.442,1.151,11.225,0.367,14.506-3.274c-0.243-0.217-0.956-1.123-1.248-1.109
					c-0.737,0.815-1.815,1.379-2.814,1.793c-3.063,1.272-6.741,1.599-9.969,0.762c-2.307-0.599-3.981-2.32-4.506-4.639
					c-0.104-0.468-0.3-0.959-0.296-1.44c0-0.081-1.54-0.096-1.754-0.101c-0.138,3.737,2.494,7.145,6.064,8.071"/>
			</g>
		</g>
		<g>
			<g>
				<path fill="#020202" d="M296.406,128.794c-1.76,0.429-3.364,0.85-4.412,2.448c-1.182,1.806-1.924,3.98-3.657,5.37
					c-1.92,1.543-3.726,2.53-5.305,4.563c-1.249,1.606-2.361,3.336-3.143,5.218c0.438,0.18,1.354,0.896,1.583,0.384
					c0.584-1.289,1.18-2.576,1.983-3.741c1.091-1.58,2.385-2.937,4.058-3.914c1.121-0.653,2.181-1.32,3.024-2.336
					c1.336-1.614,1.985-5.001,4.04-5.851c1.794-0.739,3.92-0.992,5.799-1.478c-0.228-0.816-0.07-1.571-0.972-1.339
					c-0.992,0.256-1.989,0.493-2.98,0.748"/>
			</g>
		</g>
		<g>
			<g>
				<path fill="#020202" d="M281.39,145.864c-1.381,0.315-2.748,0.722-3.787,1.741c-1.378,1.347-1.75,3.426-2.864,4.978
					c-1.816,2.533-4.258,3.629-4.402,7.089c0.233,0.01,1.106,0.182,1.276,0.047c0.041-0.996,0.234-1.997,0.806-2.837
					c0.951-1.393,2.446-2.341,3.42-3.741c1.196-1.721,1.597-4.278,3.56-5.325c1.196-0.64,2.708-0.826,4.013-1.181
					c-0.515-1.417-0.595-1.147-2.022-0.761"/>
			</g>
		</g>
		<g>
			<g>
				<path fill="#020202" d="M274.126,152.456c0.597,0.601,0.609,1.057,1.308,0.472c0.981-0.821,2.161-1.387,3.453-1.354
					c-1.56,2.789-5.165,3.599-7.275,5.854c0.522,0.493,0.62,0.968,1.195,0.443c1.088-0.987,2.458-1.635,3.694-2.417
					c1.951-1.227,3.497-2.56,4.119-4.846c-2.482-0.568-4.691,0.035-6.519,1.848"/>
			</g>
		</g>
		<g>
			<g>
				<path fill="#020202" d="M294.195,160.865c-3.061,1.549-3.462,7.769-0.81,9.839c2.587,2.021,5.539,0.813,7.037-1.84
					c-0.456-0.257-0.785-0.75-1.119-0.267c-0.527,0.777-1.321,1.47-2.215,1.803c-2.969,1.115-4.355-2.388-4.017-4.672
					c0.459-3.079,2.141-4.988,5.162-2.972c1.024,0.681,1.593,1.731,1.602,2.967c0.001,0.282-0.237,1.781-0.162,1.804
					c0.37,0.111,0.66,0.27,1.029,0.38c0.552-1.854,0.543-3.862-0.836-5.34c-1.295-1.395-3.755-2.48-5.589-1.555"/>
			</g>
		</g>
		<g>
			<g>
				<path fill="#020202" d="M308.622,166.454c-3.398-0.048-5.121,1.993-5.004,5.254c0.089,2.494,2.828,3.277,4.789,3.933
					c1.46,0.482,3.529,0.921,4.771-0.304c0.898-0.883,1.093-2.433,1.117-3.634c0.053-2.866-3-5.238-5.5-5.865
					c-0.051,0.202-0.109,0.521-0.157,0.721 M308.843,174.343c-1.248-0.415-3.924-0.853-4.071-2.532
					c-0.17-1.974,0.542-3.598,2.695-3.93c1.397-0.215,2.745-0.192,3.791,0.733c0.829,0.736,1.656,1.835,1.656,3.002
					c0,0.762-0.085,1.667-0.407,2.353c-0.653,1.384-2.618,0.838-3.7,0.476"/>
			</g>
		</g>
		<g>
			<g>
				<path fill="#020202" d="M318.464,171.021c-0.504,0.981-1.566,2.306-0.887,3.411c0.52,0.846,1.727,1.14,2.607,1.424
					c1.567,0.497,3.192,0.936,4.841,0.644c0.656-0.115,2.021-1.102,2.553-0.919c0.204-0.501,0.654-0.607,0.982-1.045
					c-0.918-0.332-0.521-0.828-0.521-1.525c0-0.919-0.102-1.859-0.549-2.667c-0.749-1.351-2.139-2.067-3.602-2.428
					c-2.644-0.654-4.367,0.845-5.48,3.081 M321.588,175.076c-0.798-0.217-1.589-0.518-2.335-0.884
					c-1.019-0.501-0.519-1.211-0.091-2.034c0.622-1.24,1.363-2.823,2.876-3.139c2.198-0.458,4.608,1.18,4.86,3.376
					c0.142,1.217-0.073,2.205-1.267,2.612c-1.3,0.444-2.735,0.438-4.05,0.078"/>
			</g>
		</g>
		<g>
			<g>
				<path fill="#020202" d="M312.262,148.116c0.083,0.604-0.103,1.232,0.574,1.17c1.167-0.107,2.388-0.07,3.533,0.213
					c0.969,0.24,1.989,0.742,2.52,1.637c0.481,0.809,0.471,0.575,1.46,0.364c-0.715-3.361-5.35-3.757-8.085-3.389"/>
			</g>
		</g>
		<g>
			<g>
				<path fill="#020202" d="M296.773,145.454c0.219,0.489,0.281,1.195,0.834,1.021c1.07-0.334,2.295-0.251,3.377-0.049
					c1.013,0.188,1.999,0.597,2.878,1.144c0.841,0.52,0.798,0.201,1.468-0.534c-1.996-1.813-6.022-2.652-8.525-1.53"/>
			</g>
		</g>
		<g>
			<g>
				<path fill="#020202" d="M328.725,151.44c0.147,0.59,0.041,1.228,0.705,1.092c0.985-0.204,2.026-0.275,3.022-0.113
					c0.971,0.159,1.932,0.576,2.622,1.298c0.765,0.792,0.646,0.642,1.624,0.08c-1.578-2.717-5.185-3.027-7.956-2.326"/>
			</g>
		</g>
		<g>
			<g>
				<path fill="#020202" d="M324.688,161.746c0.029,0.304,0.039,0.631,0.065,0.936c0.05,0.61,1.229,0.252,1.784,0.339
					c0.277,0.044,2.083,0.684,2.096,0.654c0.192-0.33,0.371-0.675,0.564-1.006c-1.34-0.776-2.967-1.03-4.504-0.891"/>
			</g>
		</g>
		<g>
			<g>
				<path fill="#020202" d="M309.557,161.717c1.294,0.23,2.545,0.629,3.79,1.053c0.936,0.318,0.766-0.136,1.066-0.961
					c-1.511-0.556-3.058-0.976-4.643-1.259c-0.072,0.406-0.153,0.815-0.228,1.223"/>
			</g>
		</g>
		<g>
			<g>
				<path fill="#020202" d="M296.834,155.526c1.369,0.019,2.713,0.432,3.91,1.103c0.767,0.428,0.767-0.094,1.211-0.772
					c-1.504-0.99-3.306-1.538-5.107-1.563c-0.008,0.413,0.002,0.817-0.002,1.229"/>
			</g>
		</g>
		<g>
			<g>
				<path fill="#020202" d="M344.361,156.224c1.449,0.056,2.896,0.315,4.242,0.848c1.25,0.492,1.08,0.509,1.676-0.622
					c-1.789-0.942-3.846-1.411-5.862-1.491c-0.017,0.412-0.024,0.772-0.041,1.185"/>
			</g>
		</g>
		<g>
			<g>
				<path fill="#020202" d="M341.293,158.569c-0.889,1.831-1.822,3.678-3.121,5.254c-0.662,0.804-1.466,1.487-2.331,2.068
					c-0.692,0.464-0.19,0.769,0.202,1.424c3.117-1.853,4.87-5.031,6.402-8.185c0.797-1.645,1.476-3.391,2.638-4.817
					c0.546-0.673,1.271-1.185,1.997-1.663c0.025-0.215-0.639-0.939-0.77-1.134c-2.485,1.646-3.869,4.4-5.129,7.001"/>
			</g>
		</g>
		<g>
			<g>
				<path fill="#020202" d="M328.961,101.353c-0.986,3.198-2.025,6.382-3.222,9.511c-0.591,1.558-1.081,3.17-1.804,4.672
					c-0.104,0.222-1.065,1.616-0.922,1.691c0.336,0.18,0.607,0.25,0.948,0.43c3.159-5.96,5.165-12.411,7.188-18.813
					c0.979-3.105,1.75-6.304,3.048-9.295c0.634-1.473,1.394-2.904,2.182-4.304c0.668-1.184,0.671-1.001-0.403-1.648
					c-3.305,5.479-5.301,11.635-7.182,17.708"/>
			</g>
		</g>
		<g>
			<g>
				<path fill="#020202" d="M334.686,100.933c-2.276,5.166-4.725,10.455-5.472,16.102c0.838,0.109,1.429,0.47,1.576-0.463
					c0.263-1.684,0.36-3.426,0.86-5.056c0.994-3.273,2.396-6.434,3.771-9.562c2.636-5.984,5.735-11.982,6.256-18.583
					c-0.312-0.024-0.805-0.022-1.104-0.045c-0.646-0.05-0.469,1.28-0.545,1.817c-0.267,1.853-0.531,3.724-1.067,5.513
					C337.878,94.208,336.18,97.542,334.686,100.933"/>
			</g>
		</g>
		<g>
			<g>
				<path fill="#020202" d="M335.904,110.578c-0.51,1.527-1.184,2.997-1.689,4.523c-0.285,0.85-0.441,1.74-0.729,2.591
					c-0.233,0.703,0.361,0.563,1.005,0.785c1.312-3.95,2.817-7.809,4.122-11.759c1.427-4.288,3.066-8.487,4.752-12.678
					c0.865-2.144,1.602-4.332,2.607-6.416c0.439-0.926,1.03-1.808,1.514-2.716c-0.086-0.206-1.119-0.563-1.332-0.677
					c-4.415,8.34-7.023,17.504-9.945,26.448"/>
			</g>
		</g>
		<g>
			<g>
				<path fill="#020202" d="M344.074,103.128c-1.002,3.488-2.034,6.958-3.237,10.383c-0.627,1.779-1.364,3.5-2.13,5.224
					c-0.1,0.228-0.561,1.652-0.411,1.724c0.347,0.168,0.742,0.546,1.093,0.714c2.983-6.179,4.84-12.835,6.733-19.405
					c1-3.458,1.896-6.94,3.137-10.32c0.599-1.625,1.421-3.148,2.126-4.728c0.106-0.229,0.707-1.985,0.565-2.056
					c-0.345-0.167-0.593-0.128-0.938-0.296c-2.932,6.021-5.031,12.359-6.867,18.781"/>
			</g>
		</g>
		<g>
			<g>
				<path fill="#020202" d="M345.122,120.762c0.298,0.05,0.413-0.091,0.722-0.042c0.627,0.103,0.469-0.892,0.57-1.401
					c0.361-1.859,0.954-3.661,1.463-5.485c1.012-3.623,2.237-7.169,3.594-10.673c1.329-3.403,2.807-6.734,4.322-10.055
					c0.654-1.433,1.379-2.826,2.057-4.247c0.111-0.236,0.637-1.693,0.48-1.769c-0.344-0.167-0.742-0.529-1.094-0.696
					c-5.252,10.864-10.564,22.317-12.532,34.309"/>
			</g>
		</g>
		<g>
			<g>
				<path fill="#020202" d="M355.408,107.256c-1.096,3.75-2.083,7.54-3.256,11.269c-0.547,1.746-1.446,3.379-2.039,5.109
					c-0.084,0.22-0.53,1.423-0.369,1.481c0.359,0.128,0.441,0.357,0.8,0.487c2.442-6.793,4.729-13.633,6.765-20.555
					c1.043-3.551,1.739-7.212,2.875-10.733c0.493-1.539,1.062-3.061,1.604-4.583c0.071-0.218,0.821-1.509,0.661-1.568
					c-0.358-0.133-0.854-0.341-1.213-0.474c-2.365,6.375-4.227,12.955-6.135,19.478"/>
			</g>
		</g>
		<g>
			<g>
				<path fill="#020202" d="M364.628,98.826c-1.164,4.266-2.537,8.262-4.558,12.191c-2.103,4.076-4.508,8.192-5.006,12.848
					c0.375,0.041,0.855-0.081,1.229-0.039c0.113,0.011,0.458-1.882,0.538-2.175c0.501-1.936,1.397-3.719,2.313-5.497
					c1.094-2.147,2.344-4.217,3.439-6.359c1.604-3.104,2.368-6.618,3.292-9.969c0.563-2.044,1.252-4.047,1.92-6.061
					c0.337-1.021,0.631-2.063,1.042-3.055c-0.111-0.202-0.879-0.334-1.104-0.43c-1.172,2.805-1.873,5.737-2.676,8.664"/>
			</g>
		</g>
		<g>
			<g>
				<path fill="#020202" d="M361.047,124.091c-0.42,0.846-0.389,1.01,0.45,1.429c0.56,0.278,1.292-1.394,1.513-1.836
					c1.575-3.171,3.078-6.385,4.543-9.609c2.973-6.531,5.596-13.335,6.977-20.395c-0.817-0.161-1.129-0.512-1.316,0.409
					c-0.297,1.439-1.007,2.783-1.396,4.203c-0.83,3.02-1.854,5.962-3.006,8.875c-2.278,5.783-4.946,11.384-7.722,16.944"/>
			</g>
		</g>
		<g>
			<g>
				<path fill="#020202" d="M370.236,114.144c-0.902,3.006-1.9,5.976-3.047,8.902c-0.506,1.301-1.017,2.586-1.653,3.827
					c-0.61,1.18-0.567,0.948,0.505,1.557c3.176-5.592,4.629-11.9,6.572-17.977c0.938-2.981,1.938-6.009,3.359-8.803
					c0.661-1.312,1.738-2.394,2.61-3.579c0.14-0.183,1.104-1.47,0.989-1.572c-0.289-0.25-0.9-0.47-1.188-0.72
					c-4.409,5.091-6.256,12.05-8.159,18.36"/>
			</g>
		</g>
		<g>
			<g>
				<path fill="#020202" d="M371.926,118.766c-0.879,2.154-1.8,4.282-2.785,6.389c-0.533,1.135-1.115,2.26-1.729,3.351
					c0.085,0.212,1.07,0.569,1.279,0.69c2.979-5.298,4.658-11.204,7.246-16.686c1.205-2.548,2.729-4.954,4.412-7.219
					c0.793-1.071,1.729-2.012,2.67-2.96c0.936-0.951,0.644-1.054-0.197-1.961c-5.317,4.949-8.2,11.805-10.891,18.398"/>
			</g>
		</g>
		<g>
			<g>
				<path fill="#020202" d="M377.652,114.774c-0.512,1.296-0.938,2.632-1.526,3.896c-0.526,1.132-0.461,0.907,0.574,1.448
					c1.852-3.527,3.001-7.332,4.851-10.86c0.758-1.443,1.696-2.802,2.883-3.932c0.519-0.491,1.086-0.907,1.729-1.214
					c0.063-0.184-0.543-1.097-0.638-1.292c-4.34,2.077-6.25,7.816-7.893,11.946"/>
			</g>
		</g>
	</g>
	<rect id="FingersTarget" x="295.191" y="140.266" fill="#EEA8CA" fill-opacity="0" width="47.583" height="36.38"/>
	<polyline id="FingersClick" fill="#2A3378" fill-opacity="0" points="265.669,159.116 294.205,127.151 321.549,120.684 
		382.693,140.364 372.648,159.116 335.95,183.012 288.824,175.165 	"/>
</g>
<rect id="FingersTargetFixed" x="295.191" y="140.266" fill="#EEA8CA" fill-opacity="0" width="47.583" height="36.38"/>
<rect id="CompressionsTarget" x="295.191" y="174.505" fill="#EEA8CA" fill-opacity="0" width="47.583" height="36.382"/>
<image overflow="visible" enable-background="new    " width="72" height="37" id="ArrowProper" xlink:href="../../mod3/arrow.png"  transform="matrix(1.0002 0 0 1.0002 150.7173 133.0679)">
</image>
<g id="LeftHand">
	<path fill="#78343C" d="M68.754-2.038c-1.734,8.204-3.868,13.264-4.567,29.639c-0.701,16.376-0.996,22.8-4.831,34.144
		c-3.834,11.343-6.423,21.572-5.229,31.001c1.194,9.43,4.358,10.307,4.796,13.765s-1.178,12.603-1.281,18.364
		c-0.101,5.763-0.403,9.951-1.529,12.009c-1.127,2.06-1.906,2.478-1.906,2.478s11.377-6.551,18.6-4.273
		c5.297,1.672,11.189,5.099,15.857,8.496c0.376-1.824,1.699-3.415,4.102-3.719c0.154-0.02,0.298-0.021,0.445-0.028
		c0.565-0.387,1.255-0.664,2.077-0.788c0.466-0.225,0.997-0.386,1.6-0.462c0.102-0.013,0.194-0.008,0.293-0.015
		c0.482-0.235,1.033-0.405,1.659-0.484c0.353-0.045,0.686-0.052,1.007-0.035c0.305-0.096,0.627-0.172,0.978-0.217
		c0.406-0.051,0.791-0.059,1.154-0.029c0.333-0.114,0.688-0.205,1.078-0.254c0.535-0.068,1.03-0.055,1.492,0.016
		c2.146-11.812,6.458-15.178,8.366-18.738c2.02-3.769,6.497-7.848,6.087-15.461c-0.41-7.613,2.617-14.383,9.193-36.931
		c6.576-22.549,9.408-28.658,10.609-47.65c1.201-18.994,4.096-31.177,4.096-31.177L68.754-2.038z"/>
	<path fill="#5B2A32" d="M118.57-2.876c-1.92,11.466-6.468,24.268-5.169,36.227c1.24,11.415,6.092,20.12,0.628,30.866
		C110.215,71.72,99.1,77.067,99.171,86.562c0.057,7.846,8.437,14.324,8.619,22.149c0.253,10.985-10.792,23.225-6.375,33.751
		c0.106-0.042,0.212-0.083,0.324-0.119c0.765-9.254,1.914-13.817,7.214-20.434c6.592-8.231,2.81-23.791,5.047-34.451
		c4.151-19.78,11.647-31.201,10.963-48.05c-0.345-8.481-2.983-16.719-1.741-25.058c0.817-5.479,3.776-10.741,2.827-16.498
		L118.57-2.876z"/>
	<g>
		<path fill="#EDAF8B" d="M94.667,126.49c-10.135-2.534-14.702-0.987-15.534,1.41c-0.834,2.398-2.721,3.711-2.721,3.711
			s-3.745-0.047-16.054,0.065c-12.303,0.114-12.373,5.461-11.614,8.95c0.759,3.486-2.486,6.119-4.113,7.971
			c-1.629,1.854-3.808,5.036-1.457,9.346c2.354,4.307,3.675,5.664,3.675,5.664s-5.775,12.498-6.082,15.438
			c-0.306,2.939,3.705,3.256,3.705,3.256s-2.212,5.588,1.96,14.202c4.171,8.613,5.79,7.563,5.79,7.563s4.044-2.623,4.107-7.438
			c0.06-4.814-2.56-9.129-2.56-9.129l11.751,1.486c0,0,3.271-4.774-2.56-9.129c-5.829-4.351-7.04-4.696-7.04-4.696l1.802-4.194
			l17.006,9.041c0,0,4.309-2.353,2.242-8.266c-1.533-4.391-3.833-6.426-4.915-7.183l10.012,6.179c0,0,7.009-4.189-0.376-12.577
			c-7.384-8.387-8.445-9.203-8.445-9.203s3.546-2.851,6.933-4.733c2.107-1.172,3.456-1.179,5.978-2.297
			c1.532-0.68,3.024-2.478,4.511-2.794c0.336-0.071,0.655-0.139,0.964-0.204c0.58-0.263,1.255-0.414,2.021-0.426
			c0.415-0.087,0.792-0.165,1.152-0.238c0.376-0.126,0.787-0.209,1.23-0.244c0.258-0.049,0.505-0.095,0.737-0.136
			c0.208-0.047,0.422-0.086,0.648-0.108c0.636-0.101,1.201-0.168,1.769-0.215c0.259-0.037,0.526-0.063,0.81-0.063
			c0.034,0,0.065,0.004,0.098,0.005c1.008-0.044,2.137-0.037,3.764-0.017c5.351,0.069,7.178-0.109,7.178-0.109
			S104.799,129.027,94.667,126.49z"/>
		<path fill="#F3D7C3" d="M74.168,165.25c0.024-4.782,6.24-3.097,7.093,0.276c0.485,1.93-0.598,3.668-2.167,3.233
			c-1.606-0.445-2.196-2.999-4.351-3.503"/>
		<path fill="#F3D7C3" d="M67.335,175.128c-0.767-5.266,6.038-4.444,7.299-0.48c2.017,6.338-5.388,1.634-7.694,1.241"/>
		<path fill="#F3D7C3" d="M55.488,187.438c0.374-7.459,8.69-5.184,7.957,1.603c-2.492,0.204-4.654-1.315-6.993-1.976"/>
		<path fill="#F3D7C3" d="M46.363,196.714c6.377-7.803,8.784,4.802,4.178,5.97c-1.438-2.045-2.048-4.451-3.596-6.348"/>
		<path fill="#F3D7C3" d="M76.304,132.696c1.442-0.879,3.385-2.2,5.168-1.782c0.501,4.556-3.581,6.292-7.311,6.532
			c0.12-1.859,1.616-2.879,2.333-4.557"/>
	</g>
	<g>
		<g>
			<g>
				<path fill="#231F20" d="M82.165,171.425c-0.457-0.555-1.473-0.504-1.21-1.173c1.979-1.619,3.395-3.15,3.484-4.898
					c0.192-3.81-4.063-7.939-8.805-12.708c-3.853-3.873-8.126-8.285-10.79-13.274c-0.171-0.698,0.878-1.361,1.367-0.834
					c2.566,4.801,6.501,9.449,10.282,13.251c4.985,5.011,9.24,9.172,9.016,13.62c-0.11,2.174-1.12,4.114-3.428,6.006
					C82.059,171.432,82.165,171.425,82.165,171.425z"/>
			</g>
			<g>
				<path fill="#231F20" d="M82.453,171.072c-1.19-0.722-1.415-0.354-2.604-1.076c-11.237-6.823-20.847-12.816-28.855-23.73
					c-0.362-0.623,0.435-1.184,0.918-0.652c7.842,10.686,17.468,16.59,28.574,23.334c1.189,0.724,1.971-0.089,2.697,1.1
					c0.373,0.611-0.302,0.86-0.676,1.472C82.416,171.671,82.453,171.072,82.453,171.072z"/>
			</g>
			<g>
				<path fill="#231F20" d="M75.723,180.032c-0.426-0.58-1.164-0.431-1.013-1.135c1.292-0.944,1.95-2.466,1.935-4.325
					c-0.025-3.67-2.512-7.752-7.21-11.084c-0.471-0.545,0.122-1.466,0.786-1.193c5.081,3.603,8.054,8.127,8.084,12.264
					c0.017,2.3-0.954,4.374-2.605,5.581C75.668,180.167,75.723,180.032,75.723,180.032z"/>
			</g>
			<g>
				<path fill="#231F20" d="M75.01,179.98c-12.356-5.69-19.801-9.995-29.633-18.927c-0.476-0.537,0.676-1.768,1.259-1.346
					c9.706,8.819,16.7,13.507,28.902,19.13c0.617,0.369-0.055,0.777-0.354,1.43C75.142,180.353,75.01,179.98,75.01,179.98z"/>
			</g>
			<g>
				<path fill="#231F20" d="M55.224,187.418c-0.563-0.188-1.24-0.043-1.805-0.24c-0.319-0.109-0.349-0.018-0.669-0.131
					c-2.376-0.818-4.447-2.363-6.53-3.654c-1.981-1.225-4.199-2.334-6.439-3.163c-0.447-0.562-0.077-1.388,0.633-1.506
					c2.374,0.879,4.511,2.196,6.553,3.458c2.109,1.305,4.15,2.381,6.376,3.148c0.319,0.109,0.326,0.094,0.646,0.203
					c3.998,1.389,7.436,2.588,12.825,2.695c0.689,0.196,0.549,1.242-0.142,1.434c-4.811-0.096-8.115-0.995-11.474-2.127
					C55.072,187.48,55.224,187.418,55.224,187.418z"/>
			</g>
			<g>
				<path fill="#231F20" d="M65.166,188.689c2.042-6.469-2.926-9.194-8.836-12.5c-2.417-1.352-5.055-2.749-7.163-4.475
					c-0.279-0.663,0.347-1.127,1.056-0.999c2.008,1.647,4.449,2.896,6.813,4.218c5.916,3.308,12.015,6.628,9.62,14.214
					c-0.333,0.636-0.611-0.242-1.297-0.461C65.269,188.66,65.166,188.689,65.166,188.689z"/>
			</g>
			<g>
				<path fill="#231F20" d="M51.032,204.1c-1.293-2.287-2.467-4.236-3.613-5.879c-3.399-4.863-5.815-8.052-3.167-15.197
					c0.371-0.617,1.416-0.187,1.311,0.523c-2.387,6.442-0.367,9.303,2.884,13.957c1.166,1.669,2.569,3.523,3.895,5.873
					c0.018,0.719-0.6,0.458-1.223,0.813C51.104,204.195,51.032,204.1,51.032,204.1z"/>
			</g>
			<g>
				<path fill="#231F20" d="M51.949,204.398c-0.263-0.67-1.181-1.021-0.588-1.424c5.817-2.291,4.571-6.64,3.292-10.925
					c-0.319-1.067-0.747-2.187-0.925-3.137c0.513-0.504,0.858-0.42,1.527-0.162c0.162,0.876,0.476,1.851,0.783,2.884
					c1.258,4.215,2.909,9.877-4.137,12.648C51.898,204.284,51.949,204.398,51.949,204.398z"/>
			</g>
			<g>
				<path fill="#231F20" d="M89.689,140.667c0.231-0.377,0.513-0.722,0.849-1.021c1.779-2.441,2.583-5.835,1.102-9.965
					c-0.381-0.608-1.265-0.312-1.194,0.404c1.922,5.356-0.718,9.365-3.866,11.216c-3.639,2.14-9.003,2.237-12.448-1.345
					c1.855-4.496,4.751-9.739,8.944-16.611c0.26-0.669-0.977-1.411-1.449-0.871c-4.368,7.153-7.387,12.645-9.267,17.304
					c-0.085,0.204,0.129,0.243,0.164,0.461c0.037,0.218-0.047,0.233,0.1,0.4c1.286,1.47,2.874,2.422,4.521,2.978
					c0,0-0.042,0.087-0.033,0.089c3.398,1.143,7.34,0.536,10.208-1.151C88.169,142.056,88.976,141.42,89.689,140.667z"/>
			</g>
			<g>
				<path fill="#231F20" d="M41.47,183.52c-3.144-4.154,0.075-9.432,2.401-14.184c1.335-2.725,2.004-5.479,2.152-7.586
					c-1.084-0.967-3.713-4.294-3.937-7.982c-0.109-1.805,0.346-3.055,1.713-4.473c0.626-0.65,0.768-1.794,1.463-2.25
					c1.215-0.792,2.147-1.369,2.762-3.053c0.428-1.176,0.743-2.259,0.503-3.548c-0.34-1.836-0.94-3.975,0.688-6.023
					c3.065-3.854,11.787-3.646,18.696-3.25c2.218,0.128,4.267,0.637,5.761,0.574c0.592,0.629,0.33,0.776-0.226,1.435
					c-1.578,0.066-3.321,0.661-5.681,0.527c-6.167-0.358-14.527-1.236-17.036,1.918c-1.14,1.434-0.578,2.774-0.265,4.462
					c0.257,1.39-0.161,2.905-0.75,4.523c-0.813,2.225-1.66,3.806-2.991,4.673c-0.644,0.419-1.804,0.111-2.296,0.619
					c-1.032,1.071-1.188,2.471-1.109,3.794c0.217,3.564,4.359,6.769,4.398,6.802c0.158,0.13,0.6-0.006,0.687,0.18
					c0.087,0.185-0.524,0.438-0.523,0.643c-0.004,2.572-1.242,5.557-2.748,8.634c-2.212,4.516-5.006,9.202-2.502,12.511
					c0.216,0.835-0.01,0.858-0.698,1.38C41.863,183.896,41.47,183.52,41.47,183.52z"/>
			</g>
			<g>
				<path fill="#231F20" d="M109.439,136.692c-3.166-4.418-12.648-10.02-20.5-11.257c-3.612-0.568-6.431-0.603-8.397,0.848
					c-0.713,0.076-1.238-0.301-0.916-0.941c2.287-1.691,5.593-2.377,9.601-1.747c8.433,1.325,17.739,7.738,21.08,12.392
					c0.264,0.668-0.246,0.426-0.831,0.847C109.454,136.848,109.439,136.692,109.439,136.692z"/>
			</g>
		</g>
		<path fill="#231F20" d="M81.614,168.571c-0.429-0.382-0.666-0.221-0.799-0.783c0.537-0.605,0.662-1.236,0.553-1.961
			c-0.207-1.334-1.377-2.531-2.142-2.99c-0.823-0.494-1.667-0.593-2.38-0.255c-0.735,0.346-1.276,1.126-1.409,2.023
			c-0.5,0.286-0.814,0.35-1.132-0.129c0.189-1.272,0.979-2.41,2.059-2.919c1.057-0.503,2.293-0.379,3.445,0.31
			c1.14,0.684,2.524,2.157,2.773,3.774c0.161,1.053-0.194,2.082-0.95,2.937C81.628,168.58,81.614,168.571,81.614,168.571z"/>
		<path fill="#231F20" d="M74.431,178.787c-0.411-0.4-0.854-0.183-0.942-0.752c0.608-0.628,1.047-1.39,1.02-2.241
			c-0.039-1.214-0.838-2.521-1.978-3.559c-1.354-1.23-2.24-0.64-2.42-0.515c-0.898,0.634-1.548,1.156-1.847,2.452
			c-0.465,0.339-0.816,0.289-1.025-0.248c0.381-1.642,1.098-2.455,2.168-3.206c0.839-0.593,2.386-0.794,3.939,0.618
			c1.367,1.243,2.195,2.906,2.245,4.425c0.034,1.155-0.409,2.181-1.231,3.031C74.343,178.808,74.431,178.787,74.431,178.787z"/>
		<path fill="#231F20" d="M56.319,186.324c0.326-2.618,1.667-3.555,2.445-3.867c1.212-0.494,2.715-0.227,3.872,0.703
			c1.348,1.087,1.897,2.796,1.586,4.59c-0.385,0.425-0.848,0.367-1.132-0.132c0.239-1.379-0.144-2.763-1.162-3.585
			c-0.826-0.666-1.911-0.861-2.74-0.529c-0.937,0.377-1.562,1.434-1.749,2.939c-0.402,0.412-0.556,0.01-1.127-0.062L56.319,186.324z
			"/>
		<path fill="#231F20" d="M52.658,202.617c-0.307-0.484-0.785-0.385-0.721-0.954c0.779-0.492,1.051-2.008,0.692-3.808
			c-0.36-1.793-1.189-3.416-2.001-3.539c-0.609-0.104-1.186,0.66-1.549,1.275c-0.575,0.012-1.061,0.006-1.058-0.57
			c0.995-1.676,2.108-1.951,2.8-1.832c1.528,0.246,2.679,2.433,3.074,4.412c0.366,1.828,0.219,4.188-1.236,5.107
			C52.638,202.719,52.658,202.617,52.658,202.617z"/>
		<path fill="#231F20" d="M74.852,139.467c-0.537-0.209-0.938,0.137-1.039-0.429c0.686-1.777,2.18-2.218,3.508-2.652
			c0.846-0.277,1.648-0.563,2.296-1.11c1.263-1.063,1.888-2.279,1.856-3.615c-0.628,0.036-1.242,0.352-1.649,0.828
			c-0.562-0.116-0.832-0.191-0.877-0.765c0.748-0.878,1.906-1.314,3.088-1.168c0.22,0.028,0.256-0.073,0.412,0.084
			c0.156,0.155-0.013,0.2,0.018,0.42c0.257,1.93-0.411,3.635-2.124,5.075c-0.818,0.691-1.747,1.055-2.658,1.354
			c-1.295,0.422-2.239,0.739-2.729,2.009C74.953,139.501,74.852,139.467,74.852,139.467z"/>
		<path fill="#231F20" d="M91.786,136.73c-0.237-0.523-0.865-0.672-0.492-1.109c2.235-1.002,3.213-2.855,2.693-5.617
			c0.117-0.566,0.756-0.705,1.041-0.204c0.612,3.256-0.536,5.63-3.239,6.846C91.771,136.654,91.786,136.73,91.786,136.73z"/>
	</g>
	<path d="M138.034-9.565c0.897,23.355-4.322,47.521-9.953,70.075c-3.196,12.807-7.191,25.394-9.767,38.353
		c-2.372,11.936-9.313,21.75-13.938,32.806c-0.499,1.193,1.358,1.936,1.855,0.748c4.199-10.038,10.717-19.152,13.29-29.838
		c3.221-13.378,6.667-26.662,10.078-39.997c5.959-23.294,11.341-48.282,10.414-72.438C139.963-11.145,137.985-10.839,138.034-9.565z
		"/>
	<path d="M68.327-5.746c-3.675,11.103-4.377,22.601-4.764,34.209c-0.408,12.241-1.527,23.75-4.527,35.643
		c-2.581,10.227-4.317,20.015-2.766,30.548c1.007,6.838,1.313,13.017,0.522,19.928c-0.633,5.539-1.217,10.972-0.69,16.543
		c0.121,1.285,2.107,1.048,1.986-0.234c-1.047-11.07,2.478-21.91,0.817-32.988c-0.859-5.732-1.631-11.066-1.168-16.899
		c0.4-5.048,1.649-10.022,2.857-14.924c2.796-11.357,4.42-22.188,4.833-33.895c0.443-12.555,0.745-25.09,4.731-37.131
		C70.563-6.162,68.732-6.969,68.327-5.746z"/>
</g>
</svg>
