<?xml version="1.0" encoding="utf-8"?>
<!-- Generator: Adobe Illustrator 15.1.0, SVG Export Plug-In . SVG Version: 6.00 Build 0)  -->
<!DOCTYPE svg PUBLIC "-//W3C//DTD SVG 1.1//EN" "http://www.w3.org/Graphics/SVG/1.1/DTD/svg11.dtd">
<svg version="1.1" id="Layer_1" xmlns="http://www.w3.org/2000/svg" xmlns:xlink="http://www.w3.org/1999/xlink" x="0px" y="0px"
	 width="720px" height="450px" viewBox="0 0 720 450" enable-background="new 0 0 720 450" xml:space="preserve">
<path fill="#77303C" d="M269.277,123.975c-12.001,6.001-28.503,14.252-31.503,43.505c-3,29.253-1.875,54.006-6.001,66.383
	c-4.125,12.377-6,14.627-7.501,21.377c-1.5,6.752-1.5,18.752,13.502,23.254c15.001,4.5,19.877-0.75,23.627-12.002
	s4.25-23.877,6.376-34.129c2.125-10.252,4.875-15.001,4.875-15.001L269.277,123.975z"/>
<path fill="#77303C" d="M224.646,259.742c-4.748,1.104-4.5,5.625-4.5,5.625s-4.5,3.375-6.375,8.625
	c-1.875,5.252-1.875,11.252-6.751,16.879c-4.875,5.625-7.126,7.875-8.626,9.75s6.751,12.002,11.251,13.877
	s30.003-8.252,30.003-8.252s12.376-18.752,15.752-24.752S268.152,249.615,224.646,259.742z"/>
<path fill="#77303C" d="M385.416,114.599c5,2.25,17.752,0.75,25.628,30.003s15.752,53.256,11.626,83.636
	c-4.125,30.379-7.875,55.881-15.001,57.381s-23.253-4.875-29.629-17.252s-2.625-20.252,0-22.877s0-18.752,0-21.753
	C378.04,220.737,385.416,114.599,385.416,114.599z"/>
<path fill="#F0F1D9" d="M649.95,407.635c-11.504-20.502-36.506-55.008-40.505-56.508c-4.003-1.5-53.509-1-95.514-1
	c-42.004,0-358.542,0-378.044-0.5c-19.502-0.498-22.503-1.5-31.504,9c-9.001,10.502-35.004,49.008-35.004,49.008H649.95z"/>
<path fill="#D3D7B9" d="M228.898,369.629c-12.93,2.227-30.479-0.926-42.402,4.604c-0.041-0.061-0.037,1.846-0.025,1.822
	c16.895,2.664,34.566,3.338,51.903,3.965c11.474,0.416,21.978-1.445,32.661-0.346c17.788,1.826,34.753,5.748,52.864,6.461
	c17.12,0.67,35.111,5.559,52.029,4.498c8.495-0.533,11.648-1.898,18.991-4.502c22.759-8.061,38.78-11.096,63.007-10
	c12.946,0.586,39.899-0.664,52.691-1.889c15.304-1.465,27.895-0.674,28.319-6.611c0.425-5.939-58.552-6.566-85.511-9
	c-51.567-4.66-103.747,2.732-155.52,0.998c-15.325-0.512-63.924-5.238-73.008,12.002"/>
<path fill="#5D4530" d="M343.348,49.905c0,0,9.188,5.25,11.438,14.626s0.75,20.065,2.063,24.94
	c1.313,4.875,3.751,7.501,10.127,6.938c6.375-0.563,6.938-2.25,6.938-2.25s-1.313,26.815-27.94,9.001
	C319.345,85.346,333.972,58.344,343.348,49.905z"/>
<path fill="#77303C" d="M268.402,123.099c0,0-2.499,8.503-4,29.505c-1.5,21.002-0.5,27.003,0,32.002
	c0.5,5.001-3.501,19.502,0.999,28.503s4.5,9.001,4.5,9.001s0.501,5.002,4.001,18.002c3.5,13.004,2.001,27.504-0.5,36.506
	c-2.5,9-5,22.002-6,29.502s-0.501,36.004-0.501,36.004l126.015,4.002c0,0,12.002-28.502,6.001-47.006s-13.502-26.502-15.501-43.004
	c-2-16.502-0.5-33.004,0-36.505c0.499-3.502,6.5-10,6.5-17.501c0-7.5-3.5-16.004-2-20.504s8.001-17,9.501-32.503
	c1.5-15.502-12.002-34.504-12.002-34.504s-22.003-5.5-33.004-5.001C341.411,110.099,285.903,118.599,268.402,123.099z"/>
<path fill="#EDAF8B" d="M291.592,114.599c-9.376,3.375-16.502,2.625-15.002,8.626c1.5,6.001,7.126,26.065,40.505,28.691
	c33.379,2.625,47.818-11.064,53.819-23.065s4.501-16.689,4.501-16.689s-22.503-3.938-28.879-12.188
	c-6.375-8.251-8.251-20.065-9.188-26.816c-0.938-6.75-16.127-10.313-23.44,0.563C306.594,84.596,300.968,111.224,291.592,114.599z"
	/>
<path fill="#EDAF8B" d="M276.59,19.901c-9.938,6.376-10.313,11.251-9.188,22.69c1.125,11.438,3.375,13.689,5.25,21.752
	c1.875,8.063,1.688,11.814,11.251,23.44s11.251,20.064,25.315,17.814c14.064-2.25,18.377-14.439,21.752-22.877
	c3.375-8.438,6.188-13.689,6.001-15.752c-0.188-2.063-0.188-2.063-0.188-2.063s6.188-2.063,6.751-9.563
	c0.563-7.501,2.438-13.501-7.126-21.377C326.846,26.09,276.59,19.901,276.59,19.901z"/>
<path fill="#5D4530" d="M277.153,13.338c0,0-13.876,2.625-16.127,12.376c-2.25,9.751,6.376,18.752,6.376,18.752
	s-6.751-14.251,9.376-21.002c0,0,3.75,12.001,9.376,16.127c5.626,4.125,10.876,3.75,10.876,3.75l-1.125-4.5l9.001,0.75
	c0,0-4.125-1.125-7.126-6.751c0,0,9.751,7.126,19.877,6.376c0,0-3.75-4.125-4.5-7.876c0,0,4.5,3.375,8.626,4.875
	s5.626,9.001,7.126,9.751c1.5,0.75,3.375,0.75,3.375,0.75s-0.375-3.75,2.25-6.751c2.625-3,6.376-0.75,6.376-0.75
	s0-18.377-9.001-27.753c-9.001-9.376-25.503-12.001-34.879-9.376C287.654,4.712,282.028,9.588,277.153,13.338z"/>
<path fill="#D3A184" d="M334.534,45.967c0.202,4.011,1.858,6.121,2.308,10.097c3.11-2.804,3.682-7.29-0.019-9.628
	c1.515-0.41,2.263-0.674,3.648-0.517c-0.144-0.888-0.836-2.204-0.741-2.896c-1.817,0.082-3.86,0.788-5.195,1.819"/>
<path fill="#F3BE99" d="M370.164,311.498c-10.876-0.375-27.003-3-43.88-1.5s-25.503,0.375-34.879,6.375
	c-9.376,6-15.002,10.127-16.502,11.252c-1.5,1.125-6.376-1.875-9.376-9.752c-3-7.875-2.625-16.127-7.125-16.127
	s-5.626,1.125-6.376-0.75s0.375-2.25-3-1.5c-3.375,0.75-4.875-2.625-4.875-2.625s-4.5,1.5-5.625-0.375s-2.25-3.375-3.75-1.125
	c-1.5,2.25-4.125,5.25-9.751,5.25c-5.625,0-8.251-1.5-10.876,0.75c-2.625,2.25,9.376,51.756,14.626,62.633
	c5.251,10.877,11.251,7.875,11.251,7.875s7.126-1.875,10.876-4.875s3-5.625,10.876-4.125c7.876,1.5,9.751,6.375,14.252,8.25
	c4.5,1.877,19.502,6.002,37.879,8.627c18.377,2.625,16.127,6,33.754,6.75s25.878,1.125,30.379,1.877
	c4.501,0.75,13.127,1.5,19.502-1.127c6.376-2.625,10.127-6,10.127-6l2.25-6c0,0,21.002-3,31.504-6.377
	c10.501-3.375,15.752-4.875,19.502-3.75c3.751,1.125,19.128,4.125,26.253,3.75s10.876-1.5,10.876-1.5s4.125-12.377,2.625-16.127
	s-5.625-3.75-5.625-3.75s-7.126-4.5-21.752-9.377c-14.627-4.875-21.003-4.875-25.503-4.125c-4.501,0.75-21.003,1.875-21.003,1.875
	L370.164,311.498z"/>
<path fill="#E9B292" d="M424.171,328.75c0,0,5.25-3.75,17.627-1.5c12.376,2.25,14.252,6.75,14.252,6.75l-27.379,1.875
	L424.171,328.75z"/>
<path fill="#B5D1E3" d="M484.552,343.752c0,0,4.126-7.127,11.251-10.502c7.126-3.375,10.876,0,11.251,4.125
	c0.375,4.127,0.375,4.127,0.375,4.127s-6.376,4.5-11.626,4.5S484.552,343.752,484.552,343.752z"/>
<path fill="#D8E7F0" d="M493.177,346.752c0,0,10.502-2.625,21.003-6.75c10.501-4.127,16.127-6.377,19.502-2.252
	c3.376,4.127,3.001,22.129-11.251,28.129s-21.003,9.752-27.753,8.252c-6.751-1.5-10.501-4.877-10.501-4.877s1.125-1.125,6.751-1.5
	c5.625-0.375,8.25-6.375,7.5-11.25C497.678,351.627,493.177,346.752,493.177,346.752z"/>
<path fill="#FFFFFF" d="M363.413,307.748c1.289,8.043,7.05,25.725,1.119,32.922c3.022,0.715,6.235,1.102,9.323,1.266
	c0.405,7.627-1.146,19.668-4.028,26.59c7.077,2.508,12.124,2.625,19.452,3.336c5.014,0.488,9.344-1.049,7.12,6.271
	c3.127-2.541,8.412-3.027,12.421-2.643c-2.277-9.611-12.028-29.488-8.461-33.529c8.351-9.457,19.104-5.553,28.247-6.984
	c5.535-16.939-54.88-27.604-65.568-27.604"/>
<path fill="#D8E7F0" d="M216.77,297.621c-7.125,1.5-12.751,3.75-14.251,6s-14.252,10.127-16.502,23.629
	c-2.25,13.502-5.625,35.254,15.752,44.629c21.377,9.377,35.629,4.877,37.129,4.127s2.625,4.125,3-0.375
	c0.375-4.502,1.875-22.129-5.251-37.881c-7.125-15.752-14.626-26.252-16.502-31.504C218.271,300.996,216.77,297.621,216.77,297.621z
	"/>
<path fill="#B5D1E3" d="M185.892,355.627c19.064,14.6,34.713,15.254,54.03,10.168c0.639,3.012,1.121,6.902,1.399,9.773
	c-19.977,1.094-40.789,5.375-52.428-13.941"/>
<path fill="#B5D1E3" d="M513.931,368.631c-9.353,1.418-20.959-3.129-28.075,2.514c2.556,0.744,5.503,2.766,8.822,2.986
	c4.784,0.316,10.064-1.48,13.753-2.5"/>
<path fill="#D7DADF" d="M371.915,362.629c8.305,2.652,33.505,3.002,33.505,3.002s2.407,5.549,3.324,8.924
	c-4.313-0.141-8.655,0.303-12.75,1c-0.734-5.975-20.188-6.002-26.504-7c0.012-0.086-0.125-1.451-0.125-1.453
	c1.229-0.947,0.816-1.664,1.551-2.971"/>
<path fill="#EDAF8B" d="M201.644,301.873c0,0-4.249-2.748-10.75-1.998c-6.501,0.75-6,3.5-6,6s0,4.248,0,4.248
	s-3.75,0.502-9.751,3.502c-6,3-6,4.75-4.751,7.75s0.249,5.002-0.25,6.252c-0.5,1.248,0.252,5,2.001,7
	c1.75,2.002,2.75,3.498,2.75,5.252c0,1.748-0.25,7.25,1.5,8.5c1.75,1.25,3,0,3,0s1,7.25,5,8.752c4.001,1.5,5.001,2.25,5.001,2.25
	s2.25-2.25,1.25-5.002c-1-2.748-4.5-5.748-4.5-5.748l7.751-3.002c0,0-0.501-3.5-4.751-4.25s-7.25-0.75-7.25-0.75l-0.75-4.252
	l16.001,1.5c0,0,0.75-2.25-0.5-4.5c-1.25-2.252-4.751-3.752-4.751-3.752h7.001c0,0,0.25-4.998-3.75-6.75c-4.001-1.75-6-3.25-6-3.25
	s2.75-5.748,5-8.5c2.25-2.75,7.252-6.252,7.252-6.252L201.644,301.873z"/>
<g>
	<g>
		<g>
			<path fill="#231F20" d="M375.381,108.338c0.266,24.146-19.865,40.561-42.143,44.217c-13.066,2.145-26.633-1.271-37.966-8.242
				c-5.749-3.534-10.683-8.072-14.13-13.915c-1.531-2.593-3.816-4.952-4.555-7.876c-0.448-1.767,0.546-7.114-1.901-6.35
				c0.822,29.101,36.557,42.345,60.833,37.61c22.289-4.346,41.568-21.357,41.303-45.463c-0.464,0.006-0.932-0.111-1.374,0.018"/>
		</g>
	</g>
	<g>
		<g>
			<path fill="#231F20" d="M276.404,119.601c-11.676,4.462-26.414,11.843-32.504,23.502c-7.693,14.729-8.576,30.768-9.846,47.044
				c-1.118,14.311-1.005,28.797-3.629,42.931c-1.259,6.779-4.782,12.145-7.208,18.541c-0.546,1.436,0.642,3.539,1.099,5.125
				c0.445,1.529-0.458,1.264,0.906,0.922c-1.978-3.107,3.438-9.379,4.465-12.059c2.687-7.004,3.352-14.795,4.314-22.193
				c2.117-16.308,1.365-32.928,3.465-49.236c2.18-16.912,7.375-34.858,22.738-44.735c12.346-7.938,28.492-10.05,38.068-21.999
				c-1.214-0.975-4.673,3.475-7.118,4.905C286.168,115.259,281.805,117.623,276.404,119.601"/>
		</g>
	</g>
	<g>
		<g>
			<path fill="#231F20" d="M334.997,68.638c1.181,7.611,1.782,15.723,4.155,23.076c3.499,10.835,13.147,14.011,23.729,17.084
				c14.269,4.146,32.292,6.754,40.587,21.018c4.664,8.022,7.357,17.832,9.452,26.789c2.396,10.244,5.051,20.124,6.409,30.549
				c2.384,18.289,3.676,36.323,1.23,54.646c-1.158,8.684-3.128,17.322-4.956,25.9c-1.007,4.715-2.633,10.115-4.561,14.545
				c-0.841,1.934-2.789,3.42-4.087,5.09c-1.223,1.57,0.22,0.07,1.623,1.432c6.047-6.219,7.566-15.494,9.131-23.674
				c1.502-7.867,3.395-15.691,4.455-23.625c2.422-18.152,2.835-36.11,0.492-54.226c-2.458-19.019-7.052-41.985-16.239-59.14
				c-8.089-15.101-25.424-15.98-40.505-20c-10.178-2.712-20.173-5.59-23.871-16.094c-2.654-7.542-3.163-15.545-4.383-23.413
				c-0.738,0.132-0.28,0.391-1.018,0.523"/>
		</g>
	</g>
	<g>
		<g>
			<path fill="#231F20" d="M268.51,221.935c2.404,13.081,6.237,26.262,5.805,39.625c-0.421,12.973-5.759,25.711-8.487,38.285
				c0.443,0.096,2.631,0.887,3.014,0.705c0.675-3.109,0.867-6.379,1.678-9.451c0.826-3.145,2.004-6.191,2.839-9.334
				c1.717-6.477,3.994-12.842,4.271-19.596c0.428-10.5-2.498-20.961-4.418-31.223c-0.374-1.998-0.344-4.068-0.713-6.071
				c-0.529-2.889-0.185-2.833-3.156-2.297"/>
		</g>
	</g>
	<g>
		<g>
			<path fill="#231F20" d="M385.939,186.13c2.267,8.04,3.838,16.804,1.02,24.941c-1.749,5.039-5.217,8.764-9.97,11.157
				c-3.563,1.793-7.221,3.684-11.209,3.997c-2.233,0.176-7.767-1.84-7.506,1.348c12.619,2.467,27.545-4.269,31.146-17.257
				c2.266-8.167,1.084-16.895-1.163-24.868c-0.554,0.158-1.837,0.39-2.334,0.674"/>
		</g>
	</g>
	<g>
		<g>
			<path fill="#231F20" d="M274.539,223.969c6.071,3.057,12.734,4.657,19.461,3.34c0.259-3.135-3.853-1.637-5.927-1.688
				c-4.477-0.111-8.688-1.354-12.675-3.361c-5.34-2.692-9.329-6.994-10.844-12.777c-1.245-4.753-1.099-9.804-0.331-14.618
				c0.337-2.104,1.011-4.14,1.55-6.203c0.437-1.667,0.816-3.17-1.603-3.241c-3.885,13.789-4.963,31.67,10.03,39.224"/>
		</g>
	</g>
	<g>
		<g>
			<path fill="#231F20" d="M337.248,37.431c-3.701,0.537-7,5.008-5.98,8.665c1.908,0.038,0.928-1.169,1.244-2.491
				c0.521-2.174,2.537-4.688,4.902-5.028c4.118-0.598,5.016,5.478,5.309,8.375c0.379,3.736,0.104,7.708-0.987,11.313
				c-0.571,1.89-1.349,4.024-3.008,5.211c-1.417,1.014-4.082,0.195-3.627,2.462c12.605,1.068,12.347-30.518,2.073-29.031"/>
		</g>
	</g>
	<g>
		<g>
			<path fill="#231F20" d="M344.816,51.888c11.403,8.264,11.245,22.028,10.659,34.771c-0.249,5.424,1.505,9.289,7.196,10.488
				c4.595,0.968,11.697,0.485,13.25-4.95c-2.187-1.38-1.814,1.257-3.432,2.293c-2.148,1.375-5.121,1.288-7.599,1.068
				c-6.219-0.552-8.027-3.929-7.659-9.731c0.831-13.103-0.24-26.429-11.777-34.791c-0.33,0.457-0.39,0.281-0.584,0.809"/>
		</g>
	</g>
	<g>
		<g>
			<path fill="#231F20" d="M371.364,92.661c0.646,2.517,0.991,5.319,0.305,7.872c-0.553,2.048-4.077,3.884-2.753,5.485
				c5.368-2.295,5.127-8.982,3.905-13.734c-0.451,0.116-0.982,0.145-1.386,0.374"/>
		</g>
	</g>
	<g>
		<g>
			<path fill="#231F20" d="M296.394,43.951c0.347,0.141,0.763,0.154,1.138,0.207c-0.097-1.339-0.401-2.723-1.033-3.925
				c1.622,0.633,3.244,1.017,4.994,0.943c0.687-2.821-2.933-1.935-4.874-2.785c-1.273-0.56-1.85-1.599-2.835-0.457
				c-1.072,1.242,0.694,2.445,1.285,3.838c-5.38-1.191-10.601-4.294-13.947-8.683c-1.638-2.147-2.604-4.758-3.055-7.436
				c-0.35-2.081,0.059-2.79-2.339-2.497c-0.125,10.838,10.584,19.491,20.654,20.876"/>
		</g>
	</g>
	<g>
		<g>
			<path fill="#231F20" d="M295.926,32.656c6.484,5.175,14.973,7.848,23.237,6.757c0.306-2.171-1.52-1.332-3.003-1.28
				c-2.724,0.092-5.424-0.549-8.059-1.243c-2.675-0.702-5.306-1.603-7.68-3.021c-1.389-0.83-3.387-3.663-4.386-1.331"/>
		</g>
	</g>
	<g>
		<g>
			<path fill="#231F20" d="M312.501,32.051c3.821,3.381,9.795,3.683,12.272,8.55c1.904,3.739,3.201,7.662,8.075,7.85
				c0.75-2.234-2.486-1.299-3.73-2.736c-1.37-1.583-1.973-4.027-2.92-5.89c-1.377-2.702-3.742-4.168-6.437-5.417
				c-1.42-0.656-2.784-1.42-4.134-2.217c-1.237-0.732-2.168-2.095-3.066-0.22"/>
		</g>
	</g>
	<g>
		<g>
			<path fill="#231F20" d="M303.41,0.122c-6.96,0.126-13.149,2.795-19.094,6.168c-1.553,0.882-3.147,1.69-4.708,2.561
				c-1.427,0.797-0.475,1.571,0.258,2.94c5.127-2.861,10.155-6.389,15.796-8.132c8.68-2.684,19.202-1.509,27.299,2.352
				c7.016,3.343,11.955,9.707,14.587,16.915c1.27,3.478,1.764,7.299,2.013,10.995c0.116,1.709-0.286,3.417-0.447,5.126
				c-0.141,1.506,1.084,1.128,2.441,1.307c1.22-9.332-1.443-19.869-6.96-27.441c-6.979-9.582-19.768-13.111-31.187-12.903"/>
		</g>
	</g>
	<g>
		<g>
			<path fill="#231F20" d="M266.523,49.196c2.423-0.425,0.275-3.256-0.037-4.896c-0.556-2.908-0.519-5.904,0.4-8.715
				c0.823-2.519,2.209-4.833,3.982-6.799c1.233-1.365,5.655-3.389,3.827-5.098c-8.652,5.205-12.91,16.317-8.362,25.641"/>
		</g>
	</g>
	<g>
		<g>
			<path fill="#231F20" d="M259.036,28.927c-1.137,7.202,3.469,13.213,9.06,17.263c0.259-0.356,1.169-1.146,1.146-1.555
				c-2.171-1.572-4.108-3.49-5.601-5.725c-2.3-3.447-3.162-7.601-1.906-11.59c1.219-3.872,4.174-6.878,7.434-9.196
				c2.095-1.487,4.21-3.028,6.616-3.919c1.821-0.674,1.182-0.976,0.646-2.631c-7.861,2.555-15.982,8.649-17.356,17.359"/>
		</g>
	</g>
	<g>
		<g>
			<path fill="#231F20" d="M265.177,35.228c1.09,7.631,2.601,15.301,5.286,22.576c1.715,4.65,2.982,8.695,3.671,13.658
				c0.677,4.881,1.635,9.486,5.324,12.949c6.865,6.443,11.19,17.945,20.447,21.438c8.544,3.227,17.693-2.522,23.329-8.354
				c-0.307-0.296-1.064-1.411-1.458-1.434c-1.655,1.714-3.572,3.118-5.514,4.506c-3.579,2.552-7.539,3.526-11.937,3.651
				c-9.977,0.281-15.648-13.204-21.423-19.516c-3.494-3.818-5.642-6.777-6.539-12.035c-0.817-4.791-2.168-8.816-4.225-13.288
				c-3.437-7.466-2.916-16.581-4.061-24.627c-0.743,0.111-1.884,0.792-2.627,0.904"/>
		</g>
	</g>
	<g>
		<g>
			<path fill="#231F20" d="M302.039,87.635c-2.426,0.772-4.818,1.683-7.301,2.249c-1.467,0.334-3.518-0.088-2.642,1.966
				c4.294-0.573,8.346-2.234,12.491-3.434c1.509-0.437,6.099-0.365,4.744-2.675c-2.44,0.707-4.811,1.312-7.252,2.018"/>
		</g>
	</g>
	<g>
		<g>
			<path fill="#231F20" d="M287.216,66.945c1.002,4.294,1.235,8.879-0.923,12.872c3.51,1.748,7.201,1.592,10.887,0.564
				c-0.003-1.529-0.557-1.6-1.818-1.315c-2.337,0.53-4.855,0.801-7.136-0.067c1.667-3.963,1.45-8.313,0.497-12.409
				c-0.454,0.105-1.165,0.146-1.572,0.366"/>
		</g>
	</g>
	<g>
		<g>
			<path fill="#231F20" d="M296.333,59.653c0.779,2.435,3.881-0.565,5.513-1.169c1.801-0.662,7.473-0.644,6.588-3.031
				c-4.298,0.363-8.538,1.837-12.145,4.221"/>
		</g>
	</g>
	<g>
		<g>
			<path fill="#231F20" d="M276.51,66.955c1.235,1.743,2.217-0.146,3.62-0.772c1.55-0.688,5.041-0.337,4.228-2.622
				c-2.771,0.161-6.182,1.066-7.968,3.346"/>
		</g>
	</g>
	<g>
		<g>
			<path fill="#231F20" d="M291.012,50.06c0.778,1.951,1.79,0.618,2.969-0.205c1.575-1.102,3.213-2.157,5.063-2.724
				c1.816-0.558,3.729-0.658,5.615-0.587c1.55,0.059,4.256,1.384,3.85-1.05c-6.985-0.742-11.952,0.159-17.57,4.455"/>
		</g>
	</g>
	<g>
		<g>
			<path fill="#231F20" d="M268.387,56.058c1.248,1.261,3.378-0.8,5.401-0.47c1.881,0.308,3.692,0.737,5.564,1.115
				c1.148-2.792-9.332-3.83-11.046-0.656"/>
		</g>
	</g>
	<g>
		<g>
			<path fill="#231F20" d="M300.798,56.965c0.387,2.209,3.581,0.275,2.505,3.257c-2.91,0.315-2.009-2.989-4.342-2.481
				c-0.177,2.221,3.135,5.696,5.47,3.861c2.624-2.061-0.814-6.008-3.63-4.594"/>
		</g>
	</g>
	<g>
		<g>
			<path fill="#231F20" d="M281.805,65.992c1.442,1.685-0.526,2.334-1.482,0.831c-0.58-0.908-0.558-1.5-1.893-0.838
				c0.971,5.549,8.005,3.215,4.48-0.928c-0.354,0.302-0.872,0.555-1.133,0.937"/>
		</g>
	</g>
	<g>
		<g>
			<path fill="#231F20" d="M386.215,184.961c0.36,0.287,0.812,0.354,1.239,0.536c2.086-4.881,3.763-9.947,5.076-15.089
				c-2.372-1.354-2.554,3.615-3.063,5.242c-0.984,3.138-2.061,6.252-3.354,9.279"/>
		</g>
	</g>
	<g>
		<g>
			<path fill="#231F20" d="M354.28,124.119c-7.29,0.439-16.675,0.246-22.612,5.181c0.962,2.212,3.611-0.238,5.173-0.865
				c2.839-1.14,5.886-1.605,8.91-1.963c6.83-0.806,13.988-0.363,20.713-1.917c0.103-2.15-1.566-1.119-3.017-0.908
				c-3.021,0.445-6.105,0.568-9.152,0.75"/>
		</g>
	</g>
	<g>
		<g>
			<path fill="#231F20" d="M289.4,127.04c2.713,0.214,5.414,0.642,8.129,0.814c3.276,0.205,6.609,0.141,9.812,0.896
				c1.734,0.407,5.71,3.118,6.129,0.534c-5.511-2.514-11.445-2.986-17.384-3.452c-1.703-0.132-7.138-1.55-6.64,1.195"/>
		</g>
	</g>
	<g>
		<g>
			<path fill="#231F20" d="M334.529,52.433c1.858,1.584,1.276,3.405,0.716,5.488c2.189,1.239,2.357-2.321,2.108-3.828
				c-0.278-1.681-1.468-2.272-2.423-3.465c-0.826-1.03,0.408-2.086-1.613-2.177c-0.57,1.653-0.006,2.851,1.254,3.929"/>
		</g>
	</g>
	<g>
		<g>
			<path fill="#231F20" d="M335.79,47.183c1.888,0.596,3.708,2.294,3.708,4.383c-0.003,1.465-1.594,2.332,0.352,3.044
				c2.521-3.414,0.045-7.708-3.605-8.862c-0.139,0.442-0.429,0.952-0.444,1.412"/>
		</g>
	</g>
	<g>
		<g>
			<path fill="#231F20" d="M339.504,40.901c-2.918,0.1-5.135,2.398-5.754,5.153c1.985,1.11,2.073-1.659,3.466-2.683
				c3.421-2.514,1.024,2.981,4.08,2.448c0.1-1.171-0.344-4.855-1.789-4.904"/>
		</g>
	</g>
</g>
<g>
	<g>
		<path fill="#231F20" d="M198.528,304.254c1.688,1.324,1.554,1.645,3.184,0.291c1.926-1.605,4.294-2.594,6.664-3.334
			c2.716-0.848,5.509-1.482,8.342-1.721c2.511-0.213,2.334-0.053,2.287-2.443c-6.666,0.131-16.082,1.586-20.474,7.176"/>
	</g>
</g>
<g>
	<g>
		<path fill="#231F20" d="M213.461,296.332c5.577,12.086,12.272,23.668,18.614,35.363c4.124,7.605,6.694,15.959,7.434,24.609
			c0.524,6.131,0.719,12.363,0.661,18.518c2.816,0.715,1.492-2.195,1.509-4.109c0.034-3.457,0.94-6.914,0.867-10.371
			c-0.212-10.217-3.627-20.152-8.493-29.127c-2.078-3.834-4.534-7.457-6.612-11.291c-2.369-4.371-4.039-9.115-6.332-13.525
			c-1.407-2.713-2.382-5.633-3.701-8.391c-0.797-1.668-1.399-3.596-3.409-1.898"/>
	</g>
</g>
<g>
	<g>
		<path fill="#231F20" d="M197.982,302.49c6.744,5.176,12.073,12.209,16.613,19.236c4.878,7.547,9.159,15.5,12.961,23.662
			c2.549,5.475,3.885,11.047,4.861,16.988c0.797,4.855,2.649,17.262,10.047,16.074c0.245-1.848-2.81-2.479-4.008-4.26
			c-2.021-3.006-3.321-6.574-3.942-10.07c-1.106-6.223-2.39-11.91-4.982-17.738c-3.818-8.582-9.167-16.307-14.256-24.18
			c-4.774-7.383-8.729-16.232-15.818-21.672c-0.284,0.369-0.535,0.604-0.708,1.031"/>
	</g>
</g>
<g>
	<g>
		<path fill="#231F20" d="M188.897,361.621c10.166,16.436,30.474,20.775,48.149,15.348c-0.505-1.646-0.05-2.168-1.917-1.646
			c-2.946,0.824-5.958,1.527-9.005,1.793c-5.233,0.461-10.481-0.445-15.521-1.957c-4.76-1.426-9.613-3.164-13.371-6.42
			c-2.04-1.766-3.63-4.074-5.2-6.27c-1.484-2.072-1.333-2.002-3.393-0.727"/>
	</g>
</g>
<g>
	<g>
		<path fill="#231F20" d="M189.088,317.223c2.369,1.328,1.907,0.926,3.506-1.443c1.545-2.293,3.476-4.303,5.56-6.121
			c1.204-1.049,2.398-2.145,3.792-2.93c0.936-0.529-0.015-1.391-0.439-2.24c-5.305,2.65-9.507,7.668-12.362,12.756"/>
	</g>
</g>
<g>
	<g>
		<path fill="#231F20" d="M219.349,298.787c-0.286,0.691-0.647,1.609-0.935,2.301c5.892,2.432,15.403,0.182,18.374-5.85
			c-0.413-0.201-1.734-1.168-2.162-1.09c-0.823,1.67-2.261,2.934-3.885,3.768c-3.329,1.715-7.905,2.557-11.457,1.092"/>
	</g>
</g>
<g>
	<g>
		<path fill="#231F20" d="M235.398,294.506c2.754,1.395,5.756,8.178,9.143,2.461c-0.417-0.248-0.762-0.494-1.178-0.74
			c-1.251-0.744-0.838,0.727-2.209,0.639c-1.69-0.115-2.985-3.639-4.7-4.498c-0.338,0.672-0.628,1.375-0.967,2.045"/>
	</g>
</g>
<g>
	<g>
		<path fill="#231F20" d="M243.655,297.905c1.241,1.49,2.938,3.037,4.178,4.525c2.908-4.971,3.824,2.35,5.533,1.154
			c6.522-4.557,8.972,5.268,9.728,9.275c1.79,9.484,5.054,17.584,16.227,16.928c-0.149-2.535-0.013-1.787-2.628-1.969
			c-2.543-0.176-4.871-1.357-6.728-3.162c-3.545-3.451-4.377-8.818-5.268-13.422c-1.225-6.318-3.578-12.215-11.165-10.193
			c-1.122-1.146-1.245-2.6-2.509-3.033c-1.128-0.105-2.365-0.063-3.311,0.551c-0.688-0.826-1.351-1.65-2.039-2.477
			c-0.578,0.48-1.238,1.1-1.814,1.58"/>
	</g>
</g>
<g>
	<g>
		<path fill="#231F20" d="M228.268,302.121c0.176,1.729-0.914,6.379,1.673,5.768c0.072-1.977,0.012-3.953-0.185-5.916
			c-0.465,0.047-1.052-0.012-1.486,0.152"/>
	</g>
</g>
<g>
	<g>
		<path fill="#231F20" d="M242.363,330.305c2.301,2.365,1.496,5.154-0.955,6.998c-1.653,1.242-6.5,1.443-5.865,3.643
			c5.669-0.01,13.244-6.09,7.844-11.631c-0.334,0.326-0.725,0.557-0.959,0.955"/>
	</g>
</g>
<g>
	<g>
		<path fill="#231F20" d="M252.863,364.373c-3.917,3.443-8.474,4.492-13.361,5.918c0.416,1.316,0.226,2.381,1.673,1.959
			c2.453-0.717,4.907-1.439,7.259-2.451c3.091-1.326,5.264-3.635,7.88-5.648c2.379-1.832,3.6-0.949,2.776-3.936
			c-2.475,0.68-4.363,2.482-6.246,4.139"/>
	</g>
</g>
<g>
	<g>
		<path fill="#231F20" d="M260.246,362.217c0.038,0.67-0.001,1.373,0.035,2.045c0.015,0.279,3.913,0.443,4.536,0.555
			c1.799,0.316,3.704,0.797,5.126,1.988c0.378-0.055,1.089-1.297,1.358-1.617c-2.977-2.5-7.278-3.191-11.043-2.988"/>
	</g>
</g>
<g>
	<g>
		<path fill="#231F20" d="M277.142,373.764c11.933,3.877,24.582,6.094,37.104,6.912c0.11-1.686,0.744-2.225-1.16-2.371
			c-2.79-0.213-5.542-0.674-8.313-1.057c-6.314-0.879-12.705-1.539-18.875-3.133c-5.393-1.391-10.738-2.816-14.067-7.703
			c-1.386-2.033-2.344-4.313-2.661-6.756c-0.328-2.559-0.294-2.555-2.824-2.695c-0.371,6.664,4.191,14.811,10.75,16.941"/>
	</g>
</g>
<g>
	<g>
		<path fill="#231F20" d="M284.03,345.43c-0.665,2.494,1.194,0.889,3.014,1c3.518,0.213,6.834,1.857,10.236,2.771
			c6.353,1.705,12.482,3.977,18.474,6.652c7.111,3.176,14.849,8.777,22.702,9.063c0.7-2.117-0.592-1.502-2.174-1.865
			c-3.141-0.717-6.065-2.361-8.925-3.803c-2.564-1.291-5.094-2.697-7.716-3.871c-11.322-5.059-23.017-10.012-35.695-9.873"/>
	</g>
</g>
<g>
	<g>
		<path fill="#231F20" d="M331.621,363.35c-0.292,1.791,0.256,1.615,1.813,1.49c3.176-0.262,6.383,0.527,9.565,0.699
			c6.348,0.344,12.671,0.967,18.87,2.344c6.936,1.545,13.786,3.432,20.681,5.158c1.393-2.646-1.882-2.105-3.807-2.588
			c-3.389-0.848-6.815-1.545-10.208-2.383c-12.061-2.984-24.34-5.379-36.816-4.031"/>
	</g>
</g>
<g>
	<g>
		<path fill="#231F20" d="M393.238,370.606c-5.433,0.223-11.398,0.369-16.464,2.596c0.405,3.035,5.528,0.363,7.738,0.082
			c3.296-0.422,6.587-0.664,9.903-0.803c0.243-1.096,0.141-2.139-1.169-1.723"/>
	</g>
</g>
<g>
	<g>
		<path fill="#231F20" d="M394.667,372.362c4.048,1.619-4.535,3.91-5.358,4.25c-2.118,0.867-4.109,2.096-6.33,2.693
			c-1.435,0.387-1.953,0.529-1.156,2.107c4.244-0.838,7.938-3.256,12.11-4.285c2.994-0.738,5.573-4.795,1.403-6.467
			c-0.211,0.527-0.689,1.289-0.758,1.854"/>
	</g>
</g>
<g>
	<g>
		<path fill="#231F20" d="M401.047,379.299c-1.764,0.965-3.575,2.186-5.658,2.045c-1.307-0.088-1.745-0.275-1.746,1.4
			c3.645,1.061,6.531-0.797,9.65-2.352c1.289-0.646,2.772-1.279,4.189-0.658c1.112,0.484,1.567,0.666,2.147-0.811
			c-2.801-2.172-5.678-0.889-8.447,0.623"/>
	</g>
</g>
<g>
	<g>
		<path fill="#231F20" d="M403.885,382.127c-5.177,3.916-9.959,5.023-16.191,5.803c-2.982,0.375-6.016,0.643-9.03,0.105
			c-1.878-0.336-3.538-1.174-4.705-2.701c-0.402-0.018-1.352,1.053-1.695,1.316c4.886,6.396,16.04,3.502,22.923,2.301
			c4.275-0.748,7.275-3.449,10.715-5.875c1.118-0.791,2.213-1.617,3.332-2.408c0.766-0.543-0.144-1.045-0.564-1.721
			c-1.588,1.119-3.34,1.863-4.93,2.986"/>
	</g>
</g>
<g>
	<g>
		<path fill="#231F20" d="M313.384,380.395c4.883,0.041,9.405,2.16,13.959,3.68c5.334,1.781,10.93,1.908,16.495,2.488
			c9.895,1.027,19.728,1.678,29.678,1.695c0.002-1.637,0.654-2.314-1.201-2.326c-2.648-0.02-5.302,0.414-7.949,0.305
			c-5.774-0.234-11.579-0.264-17.331-0.814c-5.916-0.564-11.9-1.816-17.601-3.586c-5.23-1.623-10.442-3.346-16.024-3.393
			c-0.006,0.75,0.088,0.873,0.082,1.623"/>
	</g>
</g>
<g>
	<g>
		<path fill="#231F20" d="M394.53,378.18c1.857,0.611,1.355,3.135,3.428,2.402c-0.083-1.822-1.216-3.328-2.944-3.896
			c-0.146,0.441-0.437,0.98-0.459,1.441"/>
	</g>
</g>
<g>
	<g>
		<path fill="#231F20" d="M400.311,375.932c-1.771,0.516-2.775,0.334-2.025,2.447c2.175-0.621,4.352-1.586,6.583-1.955
			c2.61-0.434,2.586,2.133,4.825,1.393c-0.161-4.992-6.618-2.91-9.417-1.99"/>
	</g>
</g>
<g>
	<g>
		<path fill="#231F20" d="M307.842,310.457c-8.881,1.27-17.113,5.254-24.691,9.865c-2.265,1.377-4.515,2.779-6.782,4.156
			c-2.24,1.361-2.466,1.127-1.258,3.451c5.296-3.211,10.817-6.086,16.323-8.934c9.054-4.686,17.962-6.936,28.005-8.041
			c14.711-1.617,29.236,1.738,43.935,0.76c-0.187-2.846-0.441-3.074-3.184-3.029c-5.589,0.09-11.102-0.176-16.666-0.689
			c-12.176-1.119-23.599,0.715-35.685,2.441"/>
	</g>
</g>
<g>
	<g>
		<path fill="#231F20" d="M363.845,307.754c0.534,4.514,1.456,9.006,1.788,13.539c0.296,4,0.028,8.063-0.569,12.037
			c-0.293,1.945-3.283,7.365-0.726,7.664c2.96-7.381,3.32-15.336,2.524-23.115c-0.265-2.574-0.687-5.139-0.992-7.709
			c-0.167-1.4,0.027-3.164-1.98-2.297"/>
	</g>
</g>
<g>
	<g>
		<path fill="#231F20" d="M363.155,341.701c2.036,0.195,4.083,0.26,6.122,0.424c2.137,0.176,4.306,0.27,6.414,0.68
			c1.452,0.285,3.034,1.844,3.38-0.293c-3.387-1.631-7.501-1.641-11.159-1.994c-1.545-0.15-5.07-1.469-4.669,1.078"/>
	</g>
</g>
<g>
	<g>
		<path fill="#231F20" d="M374.586,337.223c-0.66,4.736-1.78,9.402-2.439,14.135c-0.236,1.711-0.239,3.455-0.445,5.17
			c-0.223,1.871-0.451,3.758-1.197,5.52c-0.59,1.402-2.358,1.701-0.908,3.152c3.671-1.967,3.615-7.014,4.112-10.578
			c0.539-3.873,1.171-7.734,1.711-11.607c0.315-2.268,0.02-4.621,0.318-6.895c0.231-1.75,2.742-9.195-0.114-8.699
			c-0.428,3.248-0.838,6.525-1.266,9.773"/>
	</g>
</g>
<g>
	<g>
		<path fill="#231F20" d="M378.233,310.344c0.491,5.924,1.723,12.07-0.118,17.855c5.22,0.43,10.508,1.242,15.707,0.293
			c2.023-0.369-0.486-14.475-1.022-16.406c-2.462-0.008-0.853,2.572-0.61,4.121c0.437,2.783,0.537,5.604,0.467,8.418
			c-0.045,1.781,0.641,2.508-1.407,2.697c-1.489,0.139-2.999,0.063-4.495,0.023c-2.276-0.055-4.581-0.27-6.851-0.453
			c1.019-4.221,0.65-8.512,0.298-12.775c-0.125-1.498,0.379-4.688-1.944-3.824"/>
	</g>
</g>
<g>
	<g>
		<path fill="#231F20" d="M395.037,327.092c3.502,8.195,3.807,17.164,4.985,25.9c0.445,3.307,1.045,6.438,2.311,9.572
			c1.055,2.609,2.218,5.16,3.251,7.777c0.596,1.508,0.534,4.629,2.75,3.504c-0.996-4.957-3.874-9.07-5.428-13.838
			c-0.84-2.576-0.833-5.387-1.194-8.055c-1.16-8.621-2.208-17.186-5.665-25.271c-0.431,0.184-0.794,0.178-1.159,0.463"/>
	</g>
</g>
<g>
	<g>
		<path fill="#231F20" d="M363.061,306.432c0.006,0.672,0.078,1.646,0.084,2.32c0.003,0.398,4.086,0.451,4.71,0.48
			c4.168,0.188,8.387,0.111,12.504,0.773c7.786,1.248,15.287,3.924,22.765,6.418c6.285,2.098,10.812,5.744,16.609,8.625
			c2.682,1.33,5.369,2.549,6.866,5.324c0.679,1.254,1.491,2.523,1.681,3.93c0.3,0.213,1.794-0.127,2.195-0.182
			c-0.806-6.002-5.124-8.154-10.167-10.715c-5.402-2.744-9.309-7.012-15.172-9.018c-13.485-4.613-27.758-8.283-42.064-8.18"/>
	</g>
</g>
<g>
	<g>
		<path fill="#231F20" d="M397.943,340.682c0.965,2.434,3.44-0.93,4.866-1.791c2.336-1.412,4.825-2.6,7.505-3.162
			c2.35-0.492,4.771-0.447,7.162-0.324c1.771,0.094,6.87,1.658,6.513-1.02c-10.054-1.389-18-0.08-26.222,6.146"/>
	</g>
</g>
<g>
	<g>
		<path fill="#231F20" d="M427.745,334.789c-3.642,0.568-7.217,1.6-10.876,2.041c-0.606,0.074-4.129,0.256-4.092,0.672
			c0.057,0.668-0.342,1.086-0.284,1.754c10.438-0.881,20.658-3.371,31.089-4.314c5.078-0.457,10.308-0.621,15.381-0.039
			c2.498,0.285,5.065,0.721,7.486,1.4c2.023,0.566,1.449,0.525,2.012-1.244c-13.188-4.203-27.277-1.791-40.628,0.289"/>
	</g>
</g>
<g>
	<g>
		<path fill="#231F20" d="M465.089,336.723c6,0.91,11.256,4.979,16.461,7.926c2.759,1.561,5.883,2.34,8.937,3.127
			c2.519,0.668,2.697,0.711,3.403-1.789c-4.373-1.162-8.682-2.199-12.639-4.441c-4.997-2.834-10.007-6.115-15.805-6.99
			c-0.111,0.74-0.278,1.42-0.39,2.162"/>
	</g>
</g>
<g>
	<g>
		<path fill="#231F20" d="M457.67,363.444c5.892,4.531,13.099,5.381,20.295,5.328c3.822-0.027,7.648-0.133,11.471-0.006
			c0.601,0.02,4.17,0.516,4.217,0.146c0.085-0.666,0.343-1.137,0.425-1.803c-7.233-0.914-14.462-0.354-21.712-0.904
			c-3.465-0.264-6.846-0.82-9.981-2.369c-2.73-1.348-3.198-2.508-5.126,0.004"/>
	</g>
</g>
<g>
	<g>
		<path fill="#231F20" d="M458.812,361.733c-7.867,3.189-15.903,5.43-24.143,7.373c-3.346,0.791-6.544,2.174-9.842,3.139
			c-3.258,0.955-6.646,1.479-10.029,1.807c-0.621,0.059-4.442,0.105-4.454,0.434c-0.026,0.672-0.162,0.879-0.188,1.551
			c10.33,0.398,20.185-3.24,30.102-5.58c5.475-1.289,10.882-3.096,16.111-5.209c2.034-0.822,4.315-1.033,6.349-1.852
			c1.724-0.695,3.402-1.635,5.267-1.787c0.23-0.344-0.106-2.107-0.142-2.549c-3.1,0.252-6.232,1.438-9.041,2.68"/>
	</g>
</g>
<g>
	<g>
		<path fill="#231F20" d="M432.319,325.606c-1.367,0.006-2.737-0.363-4.105-0.357c-1.072,0.004-0.669,1.744-0.697,2.67
			c3.883-0.018,7.866-0.439,11.733-0.104c3.357,0.291,6.664,1.076,9.671,2.613c0.58,0.299,4.02,2.729,4.204,2.471
			c0.393-0.545,0.768-1.402,1.16-1.949c-6.666-4.781-13.973-5.627-21.969-5.451"/>
	</g>
</g>
<g>
	<g>
		<path fill="#231F20" d="M494.513,348.584c2.444,4.678,3.9,8.688,1.905,13.775c-0.779,1.988-1.872,4.539-3.771,5.764
			c-1.646,1.059-3.576-1.025-4.024,1.295c5.407,2.787,8.247-3.605,9.612-7.652c1.702-5.057,0.144-9.408-2.235-13.965
			c-0.413,0.217-0.908,0.352-1.248,0.666"/>
	</g>
</g>
<g>
	<g>
		<path fill="#231F20" d="M483.208,370.596c6.276,3.889,10.228,5.533,17.427,2.797c-0.155-0.41-0.507-2.008-0.861-2.211
			c-1.96,0.744-4.072,1.666-6.203,1.695c-3.361,0.049-6.431-2.559-9.144-4.238c-0.396,0.639-0.905,1.154-1.298,1.793"/>
	</g>
</g>
<g>
	<g>
		<path fill="#231F20" d="M528.977,333.994c9.268,7.094,5.886,25.51-4.082,30.26c-3.949,1.881-8.644,2.514-12.833,3.785
			c-3.317,1.008-6.569,2.135-9.954,2.906c-1.978,0.447-3.853,1.424-5.883,1.523c-0.24,0.34,0.026,1.797,0.047,2.242
			c6.493-0.314,12.59-3.244,18.749-5.117c4.615-1.4,9.915-1.895,13.856-4.807c9.139-6.754,11.131-25.537,1.62-32.814
			c-0.457,0.596-1.201,1.588-1.658,2.186"/>
	</g>
</g>
<g>
	<g>
		<path fill="#231F20" d="M530.571,334.739c-7.343,0.773-13.646,3.123-20.414,5.879c-6.1,2.48-13.311,2.25-18.847,5.961
			c0.26,0.387,0.744,1.674,1.158,1.82c2.354-1.58,4.952-2.875,7.7-3.375c3.865-0.707,7.65-0.807,11.278-2.283
			c3.24-1.318,6.205-3.389,9.52-4.521c5.35-1.828,11.087-1.115,16.508-2.479c-0.103-0.412-0.223-1.793-0.542-2.018
			c-2.072,0.523-4.322,0.002-6.443,0.223"/>
	</g>
</g>
<g>
	<g>
		<path fill="#231F20" d="M484.245,341.369c1.845,1.697,1.57,1.662,3.454-0.229c2.471-2.477,5.068-4.863,8.017-6.756
			c1.878-1.207,4.122-2.471,6.439-2.383c0.61,0.023,2.893,1.082,2.91,1.066c0.527-0.416,1.271-0.91,1.799-1.326
			c-6.098-7.73-18.487,5.264-22.593,9.725"/>
	</g>
</g>
<g>
	<g>
		<path fill="#231F20" d="M502.173,331.096c1.82,2.096,3.385,4.721,3.745,7.52c0.366,2.846-1.096,2.816,1.664,4.082
			c2.068-4.514-0.721-9.736-3.662-13.121c-0.568,0.492-1.102,0.979-1.671,1.471"/>
	</g>
</g>
<g>
	<g>
		<path fill="#231F20" d="M100.975,349.342c-0.899,2.559,4.017,1.898,5.442,1.898c5.088,0,10.176-0.826,15.264-0.826
			c13.37,0,26.741,0.545,40.112,0.545c4.771,0,9.543,0.18,14.314,0.18c1.114,0,2.229,0.346,3.342,0.346
			c0.956,0,0.647-1.418,0.457-1.418c-8.304,0-16.606-0.818-24.908-0.818c-17.911,0-35.822,0.543-53.734,0.543"/>
	</g>
</g>
<g>
	<g>
		<path fill="#231F20" d="M539.61,349.457c-0.896,2.557,3.687,1.008,5.11,1.008c5.086,0,10.176,0.768,15.263,0.768
			c13.369,0,26.742-0.152,40.114-0.152c4.771,0,9.541,0.166,14.313,0.166c1.113,0,2.228-0.006,3.344-0.006
			c0.955,0,0.645-1.271,0.457-1.271c-8.304,0-16.607-0.541-24.911-0.541c-17.909,0-35.82-0.18-53.731-0.18"/>
	</g>
</g>
<g>
	<g>
		<path fill="#231F20" d="M89.18,377.283c-8.75,11.586-17.646,23.338-25.194,35.762c1.852,1.934,3.128-1.92,4.001-3.289
			c2.014-3.158,4.271-6.176,6.41-9.25c4.307-6.193,9.423-11.799,13.961-17.82c8.761-11.633,16.897-23.627,24.702-35.938
			c-1.816-1.971-2.5,2.055-3.395,3.408c-2.079,3.139-3.923,6.447-6.109,9.512c-4.395,6.162-9.489,11.818-14.053,17.861"/>
	</g>
</g>
<g>
	<g>
		<path fill="#231F20" d="M605.427,347.092c7.803,12.309,16.766,23.859,25.529,35.488c4.214,5.594,8.813,10.908,12.837,16.641
			c2.156,3.07,4.529,6.016,6.566,9.164c0.949,1.463,2.432,6.871,4.368,4.844c-7.278-11.98-15.597-23.357-24.038-34.533
			c-4.544-6.021-8.857-12.201-13.264-18.324c-2.204-3.063-4.34-6.145-6.44-9.277c-0.97-1.443-2.939-6.404-4.838-4.342"/>
	</g>
</g>
<g>
	<g>
		<path fill="#231F20" d="M261.896,180.672c2.646,1.608,0.664,6.115,3.706,5.881c0.56-2.804-0.205-5.846-2.776-7.404
			c-0.293,0.48-0.86,1.084-1.009,1.626"/>
	</g>
</g>
<g>
	<g>
		<path fill="#231F20" d="M210.011,280.752c-1.167,4.211-2.58,8.43-5.244,11.982c-1.409,1.877-2.884,3.832-4.933,4.982
			c-1.629,0.922-1.112,0.707-0.378,2.252c7.671-3.654,10.455-10.977,12.583-18.654c1.019-3.67,2.312-7.357,4.591-10.48
			c1.106-1.518,2.173-3.188,3.828-4.08c1.568-0.848,0.942-1.182,0.29-2.705c-6.802,2.906-8.819,10.156-10.642,16.73"/>
	</g>
</g>
<g>
	<g>
		<path fill="#231F20" d="M264.659,240.125c-0.891,5.359-0.489,10.953-1.538,16.285c-0.601,3.057-2.126,5.918-2.844,8.947
			c-0.573,2.422-1.912,3.658-1.874,6.359c0.053,3.818-2.568,7.178-4.464,10.264c-2.545,4.143-5.22,8.297-7.23,12.725
			c0.407,0.186,1.541,0.867,1.95,0.768c1.024-2.252,2.889-4.025,4.052-6.209c1.694-3.178,2.826-6.676,4.723-9.732
			c1.016-1.639,2.451-3.045,3.005-4.904c0.497-1.666,0.211-3.57,0.832-5.096c2.095-5.129,3.134-10.256,4.162-15.762
			c1.188-6.361,1.689-12.842,2.81-19.215c0.437-2.479,1.228-4.893,1.663-7.369c0.375-2.127,0.417-1.734-1.781-2.163
			c-0.895,5.092-2.27,10.059-3.165,15.151"/>
	</g>
</g>
<g>
	<g>
		<path fill="#231F20" d="M218.666,269.074c3.033-0.443,1.762-0.965,2.169-3.775c0.23-1.582,0.995-3.043,2.483-3.791
			c0.045-0.486-0.858-1.684-1.087-2.141c-3.583,1.795-4.205,6.164-3.683,9.738"/>
	</g>
</g>
<g>
	<g>
		<path fill="#231F20" d="M179.339,317.153c3.874,1.48,7.91,2.619,11.631,4.459c2.363,1.166,4.944,2.77,6.363,5.096
			c1.169,1.92-0.699,4.188,2.011,4.637c3.036-6.279-5.246-10.537-9.755-12.498c-2.343-1.02-4.791-1.775-7.176-2.684
			c-1.77-0.674-2.333-1.318-2.853,0.93"/>
	</g>
</g>
<g>
	<g>
		<path fill="#231F20" d="M172.823,324.961c5.778,3.203,12.116,4.586,18.611,5.271c1.893,0.199,3.827,0,5.718,0.199
			c1.844,0.193,2.205,0.795,2.156-1.342c-3.89-0.408-7.765-0.672-11.637-1.219c-3.04-0.432-5.996-1.313-8.893-2.344
			c-1.92-0.686-5.368-3.494-6.09-0.42"/>
	</g>
</g>
<g>
	<g>
		<path fill="#231F20" d="M190.664,330.557c2.185,0.221,4.193,1.619,5.215,3.572c0.941,1.799-0.458,3.773,1.981,4.313
			c2.499-4.482-2.93-9.256-7.012-9.666c-0.059,0.563-0.303,1.359-0.208,1.91"/>
	</g>
</g>
<g>
	<g>
		<path fill="#231F20" d="M173.774,335.16c7.647,2.412,15.165,3.543,23.181,3.543c0.686-2.473-1.152-1.482-2.97-1.529
			c-2.659-0.068-5.338-0.264-7.974-0.637c-2.561-0.359-5.104-0.949-7.601-1.619c-1.846-0.496-4.624-2.52-4.729,0.471"/>
	</g>
</g>
<g>
	<g>
		<path fill="#231F20" d="M189.92,346.114c-5.007,1.803-9.197,0.207-14.255,0.604c-0.354,1.768,0.214,1.928,1.704,1.98
			c2.726,0.092,5.422,0.727,8.162,0.455c2.197-0.221,4.257-1.082,6.326-1.783c1.647-0.559,3.367-0.545,2.316-2.709
			c-1.446,0.252-2.946,0.768-4.322,1.262"/>
	</g>
</g>
<g>
	<g>
		<path fill="#231F20" d="M178.985,340.963c3.365,0.873,7.07,0.049,10.358,1.168c2.423,0.824,3.358,5.23,5.618,3.426
			c-1.417-3.422-3.957-5.119-7.573-5.566c-1.775-0.223-3.545-0.439-5.327-0.625c-1.711-0.18-3.088-0.918-3.03,1.471"/>
	</g>
</g>
<g>
	<g>
		<path fill="#231F20" d="M178.712,348.772c0.507,6.58,4.792,9.004,10.443,11.266c1.368-1.764,0.082-1.852-1.439-2.502
			c-1.608-0.689-3.224-1.535-4.518-2.744c-1.197-1.109-1.816-2.574-2.15-4.156c-0.322-1.535-0.185-2.613-2.19-1.863"/>
	</g>
</g>
<g>
	<g>
		<path fill="#231F20" d="M185.878,349.51c0.836,2.279,3.21,3.43,4.063,5.602c0.841,2.143-2.593,3.363,0.272,4.641
			c1.84-2.191,2.48-4.617,0.561-6.932c-1.296-1.564-2.718-4.85-4.843-3.275"/>
	</g>
</g>
<g>
	<g>
		<path fill="#231F20" d="M183.831,314.698c0.229,2.875,7.327,0.158,8.688-0.842c3.844-2.818,4.19-7.639,0.881-11.01
			c-2.466,1.33,0.195,2.434,0.555,4.363c0.574,3.064-2.168,5.668-4.887,6.439c-1.685,0.48-3.337,0.939-3.337-1.154
			c0-1.604-0.062-3.211,0.051-4.809c0.144-2.027,1.948-6.697-1.32-6.193c-0.506,4.342-0.824,8.828-0.613,13.201"/>
	</g>
</g>
<g>
	<g>
		<path fill="#231F20" d="M179.157,310.897c-3.396,1.336-8.822,2.49-10.571,6.061c-0.879,1.795-0.149,3.574,0.914,5.076
			c1.84,2.605,0.354,3.764,0.215,6.432c-0.236,4.443,1.614,5.482,3.641,8.881c2.421,4.063-0.79,9.906,4.216,12.588
			c1.731-1.766-0.33-1.766-0.987-3.34c-0.979-2.344,0.12-5.166-0.463-7.609c-0.984-4.119-6.771-6.59-5.092-11.375
			c0.929-2.65,2.144-4.424,0.379-6.924c-1.525-2.156-1.2-3.664,0.866-5.063c3.309-2.244,7.549-3.252,11.22-4.809
			c-0.836-2.639-2.556-1.277-4.543-0.436"/>
	</g>
</g>
<g>
	<g>
		<path fill="#231F20" d="M187.939,299.438c-2.452,0.695-4.659,2.25-5.914,4.539c1.586,1.59,1.742,0.236,2.964-0.797
			c1.617-1.365,3.777-1.91,5.845-2.139c2.409-0.268,4.873,0.029,7.183,0.779c1.512,0.492,2.546,1.096,3.052-1.025
			c-3.752-2.137-8.94-2.201-13.042-1.043"/>
	</g>
</g>
<g>
	<g>
		<path fill="#231F20" d="M377.931,225.273c1.046,2.022,0.594,4.026,0.164,6.09c-0.412,1.984-0.384,3.479,0.1,5.393
			c0.548,2.174-0.483,7.424,2.572,6.941c0.316-2.605,0.16-5.928-0.794-8.389c-1.418-3.648,1.795-7.287-0.149-11.039
			c-0.504,0.261-1.395,0.574-1.811,0.956"/>
	</g>
</g>
<g>
	<g>
		<path fill="#231F20" d="M373.92,252.082c1.498,0.262,1.868-0.166,1.917-1.389c0.083-2.057,1.14-3.832,2.774-5.027
			c1.4-1.025,3.063-1.729,4.727-2.186c1.535-0.426,2.695-0.363,1.729-2.281c-5.542,1.053-11.706,4.256-10.961,10.842"/>
	</g>
</g>
<g>
	<g>
		<path fill="#231F20" d="M228.608,259.985c2.749,0.1,5.512,0.461,8.184,1.117c1.585,0.389,4.421,2.656,4.822,0.23
			c-3.998-1.918-8.563-2.525-12.95-2.684c-0.015,0.469-0.173,1.037-0.07,1.488"/>
	</g>
</g>
<g>
	<g>
		<path fill="#231F20" d="M229.663,261.758c7.169,1.156,13.091,7.545,18.77,11.77c2.13-1.717-2.606-3.891-3.931-4.879
			c-4.454-3.316-8.95-7.252-14.628-8.172c-0.075,0.461-0.275,0.938-0.226,1.398"/>
	</g>
</g>
<g>
	<path fill="#231F20" d="M388.752,278.406l1.081,2c3.977,7.293,9.986,18.316,9.148,31.299l2.245,0.145
		c0.881-13.631-5.316-25-9.415-32.521l-1.072-1.98L388.752,278.406z"/>
</g>
<g>
	<g>
		<path fill="#77303C" d="M383.666,255.24c-4.926-0.275-7.876-0.75-12.002,1.875c-4.125,2.627-6.001,1.502-9.376,1.502
			s-5.251,2.625-13.126,3.75c-7.876,1.125-13.126,1.125-17.627,1.875s-9.751,4.5-12.752,4.875c-3,0.375-10.501,0.75-16.126,1.875
			c-5.626,1.125-16.502,3.377-16.502,3.377l10.876,30.002l16.877-3.75c0,0,7.876,4.125,18.377,3.75
			c10.501-0.375,24.752,0.375,41.254-3.75s31.879-12.752,35.255-14.627C412.169,284.119,417.045,257.115,383.666,255.24z"/>
		<path fill="#EDAF8B" d="M286.906,275.619c-9.001,0.252-12.501,2.502-19.502,3.75c-7.001,1.252-9.5,5.252-11.251,8.252
			c-1.75,3-1.251,7.752-1.251,7.752s-1.751,3,0.75,6.002c2.501,3,4.5,0.498,4.5,0.498s-2.131,3.605,0,5.502
			c2.876,2.557,7.001-0.75,7.001-0.75s-0.249,4.248,3.251,5.5c3.5,1.25,6.75-0.75,6.75-0.75s3,2.25,7.25,1.25
			c4.25-1.002,11.001-7.5,12.001-8.502c1-1,1-1,1-1s3.75-5.002-1-15.752S286.906,275.619,286.906,275.619z"/>
	</g>
	<g>
		<g>
			<g>
				<path fill="#231F20" d="M384.352,257.174c6.347,6.25,6.419,16.518,13.529,22.195c1.729-1.236,0.056-1.854-0.899-2.959
					c-1.726-1.994-2.868-4.395-3.905-6.801c-2.048-4.758-3.886-9.748-7.671-13.475c-0.327,0.33-0.694,0.498-0.917,0.902"/>
			</g>
		</g>
		<g>
			<g>
				<path fill="#231F20" d="M389.401,257.727c1.687,2.572,3.412,5.139,5.231,7.4c1.358,1.686,2.868,3.49,4.87,4.404
					c0.609,0.277,4.058,1.162,4.034-0.004c-0.073-3.486-3.472-5.061-6.353-6.027c-2.303-0.773-2.804-1.148-4.207-3.311
					c-0.741-1.137-1.567-2.197-2.314-3.334c-0.376,0.266-0.83,0.521-1.114,0.879 M396.267,264.776
					c2.401,0.758,5.052,1.951,5.693,3.754C399.922,268.436,398.01,266.836,396.267,264.776z"/>
			</g>
		</g>
		<g>
			<g>
				<g>
					<path fill="#231F20" d="M272.459,276.721c-1.688,0.625-3.46,1.014-5.138,1.664c-2.053,0.797-4.13,1.439-6.353,1.486
						c-1.378,0.029-1.75,0.123-1.444,1.777c4.032,0.387,7.516-1.191,11.197-2.551c3.92-1.451,7.88-2.332,12.075-2.453
						c1.466-0.043,7.848,0.381,4.498-1.711c-5.029-0.002-9.959,0.369-14.804,1.891"/>
				</g>
			</g>
			<g>
				<g>
					<path fill="#231F20" d="M253.82,295.567c0.108,1.852,0.539,0.896,1.674,0.82c0,0-0.598-3.07,0.265-5.414
						c0.737-2.004,2.356-4.166,3.578-5.895c1.156-1.635,4.707-4.484,1.689-5.697c-3.843,5.053-7.85,9.596-7.371,16.197"/>
				</g>
			</g>
			<g>
				<g>
					<path fill="#231F20" d="M292.512,306.414c-1.956,1.855-4.033,3.598-6.599,4.551c-1.696,0.627-3.539,0.975-5.335,1.119
						c-1.767,0.143-3.548-0.451-2.877,1.939c4.946,0,9.779-1.111,13.659-4.324c1.657-1.375,3.128-2.951,4.789-4.32
						c1.438-1.186,4.118-1.648,2.127-3.6c-2.209,1.254-4.187,2.621-6.02,4.361"/>
				</g>
			</g>
			<g>
				<g>
					<path fill="#231F20" d="M280.853,307.791c-2.338,1.523-6.124,4.717-9.162,3.619c-2.4-0.871-1.585-4.502-4.306-2.734
						c1.526,4.953,4.684,5.883,9.505,3.604c2.541-1.201,4.903-2.697,7.296-4.15c1.544-0.941,3.707-1.111,2.246-3.242
						c-2.01,0.662-3.827,1.756-5.585,2.898"/>
				</g>
			</g>
			<g>
				<g>
					<path fill="#231F20" d="M272.415,301.768c-2.987,1.758-6.375,5.926-9.978,6.021c-1.881,0.051-2.549-3.049-1.666-4.279
						c1.12-1.553,3.909-2.408,1.726-4.256c-2.327,1.566-6.312,5.182-3.976,8.154c2.105,2.684,6.247,1.801,8.717,0.604
						c2.675-1.295,5.189-3.895,7.79-5.334c1.595-0.879,3.85-1.438,2.156-3.477c-1.55,0.852-3.097,1.916-4.647,2.768"/>
				</g>
			</g>
			<g>
				<g>
					<path fill="#231F20" d="M257.81,291.58c-1.922,2.227-5.523,5.791-4.642,9.027c1.074,3.939,5.261,3.369,8.062,1.262
						c2.625-1.971,4.854-4.451,7.469-6.443c1.722-1.313,7.076-2.836,4.877-5.213c-3.599,1.844-6.761,4.223-9.799,6.869
						c-1.479,1.289-6.071,6.744-7.938,3.529c-1.958-3.375,1.831-5.777,3.501-7.711c2.508-2.906,6.619-9.264,6.619-9.264
						c-1.258-0.369-2.172,0.506-3.145,2.012c-1.489,2.303-3.103,3.955-4.89,6.031"/>
				</g>
			</g>
			<g>
				<g>
					<path fill="#231F20" d="M271.047,297.155c2.801,0.467,0.85,3.166,3.04,2.646c0.101-1.775-1.054-3.531-2.539-3.609
						c0.464,0.023-0.437,0.518-0.495,0.975"/>
				</g>
			</g>
			<g>
				<g>
					<path fill="#231F20" d="M263.704,290.502c2.609,0.609,1.906,2.875,3.274,2.35c1.66-0.637-1.382-3.418-2.866-3.355
						c0.463-0.021-0.388,0.557-0.403,1.018"/>
				</g>
			</g>
			<g>
				<g>
					<path fill="#231F20" d="M263.475,302.992c2.554,0.119,2.833,1.725,0.453,2.719c-0.523-1.189-0.822-3.252-1.992-2.705
						c-1.632,0.762,1.449,1.598,1.305,3.701c4.096-1.053,4.354-4.682,0.325-4.572c0.467-0.014-0.188,0.418-0.085,0.865"/>
				</g>
			</g>
			<g>
				<g>
					<path fill="#231F20" d="M255.872,297.717c-1.14,1.268,2.533,3.43,4.265,2.301C263.56,297.787,257.701,293.59,255.872,297.717
						 M258.907,297.01c1.485,0.402,1.441,1.869,0.431,2.334c-1.342,0.619-4.279-2.102-0.434-2.322"/>
				</g>
			</g>
			<g>
				<g>
					<path fill="#231F20" d="M284.372,275.619c6.804,1.031,8.4,5.289,10.815,11.031c1.288,3.063,2.786,6.008,3.155,9.354
						c0.237,2.141-0.047,4.236-0.684,6.299c-0.504,1.635-1.557,2.729,0.792,3.168c3.627-7.252,0.856-13.902-2.03-20.777
						c-2.526-6.01-4.823-10.002-11.757-11.059c-0.085,0.561-0.3,1.162-0.231,1.719"/>
				</g>
			</g>
			<g>
				<g>
					<path fill="#231F20" d="M373.644,254.496c-1.289,0.451-2.591,0.771-3.609,1.697c-1.901,1.729-4.278,1.881-6.681,1.951
						c-4.016,0.117-7.668,2.066-11.499,3.094c-7.143,1.92-14.771,0.961-22.009,2.066c-4.793,0.732-6.556,4.1-10.784,5.555
						c-2.834,0.979-5.961,0.65-8.859,0.609c-3.114-0.047-6.299,0.65-9.37,1.123c-4.249,0.652-8.632,0.51-12.869,1.238
						c-1.918,0.332-5.723,1.295-4.413,4.109c8.378-1.445,16.868-3.854,25.323-4.797c6.127-0.684,9.65,1.016,14.809-3.625
						c4.087-3.672,9.757-2.852,14.96-3.18c7.495-0.471,14.096-2.168,21.204-4.693c2.475-0.881,5.357,0.76,7.905,0.379
						c2.349-0.352,3.24-2.238,5.247-3.004c1.226-0.691,2.727-1.705,4.097-1.928c1.798-0.291,3.178,1.535,3.137-1.146
						c-2.604-0.705-4.094-0.311-6.524,0.695"/>
				</g>
			</g>
			<g>
				<g>
					<path fill="#231F20" d="M396.686,289.809c-7.472,3.502-14.971,8.123-23.046,10.051c-9.25,2.207-18.89,2.379-28.361,2.816
						c-4.518,0.205-9.027,0.65-13.548,0.846c-3.367,0.146-6.684-0.793-10.024-1.342c-3.351-0.551-5.311-2.205-8.354-3.328
						c-1.828,2.479,4.477,5.197,6.634,5.713c4.404,1.061,9.121,0.596,13.604,0.367c7.943-0.355,15.993,0.541,23.915-0.164
						c11.832-1.059,22.333-4.342,33.11-9.256c5.678-2.59,11.079-5.785,16.792-8.301c2.355-1.041,3.799-1.223,6.231-2.072
						c1.516-0.529,3.543-0.664,2.4-2.473c-6.675,1.945-13.244,3.855-19.516,6.795"/>
				</g>
			</g>
			<g>
				<g>
					<path fill="#231F20" d="M312.237,299.637c-4.867,0.75-10.395,1.447-14.543,4.33c0.664,1.949,1.789,0.713,3.081,0.115
						c2.004-0.924,4.149-1.592,6.303-2.033c2.993-0.613,6.179-0.748,9.194-1.24c0.287-2.426-2.564-1.42-4.036-1.18"/>
				</g>
			</g>
			<g>
				<g>
					<path fill="#231F20" d="M298.75,273.541c-1.624,0.297-3.273,0.652-4.896,0.951c-0.123,2.193,1.744,1.162,3.147,0.904
						c2.662-0.482,5.438-0.664,8.028-1.469c-0.082-2.609-4.53-0.621-6.273-0.363"/>
				</g>
			</g>
			<g>
				<g>
					<path fill="#231F20" d="M300.687,276.58c-1.705,0.508-6.789,0.414-5.674,2.836c3.031-0.512,5.879-1.385,8.838-2.186
						c1.718-0.463,6.336-0.029,5.516-2.469c-2.993,0.164-5.804,1.033-8.66,1.889"/>
				</g>
			</g>
			<g>
				<g>
					<path fill="#231F20" d="M305.246,279.416c-2.464,0.537-4.88,1.002-7.346,1.539c-0.139,2.781,4.85,0.316,6.388-0.018
						c2.842-0.621,5.628-1.225,8.471-1.844c0.132-2.818-5.842-0.299-7.565,0.076"/>
				</g>
			</g>
			<g>
				<g>
					<path fill="#231F20" d="M297.648,284.088c-0.042,0.459,0.22,1.084,0.302,1.543c5.932-1.08,11.782-2.332,17.477-4.342
						c-0.204-2.734-4.639-0.088-6.331,0.363c-3.771,1.006-7.536,2.066-11.375,2.766"/>
				</g>
			</g>
			<g>
				<g>
					<path fill="#231F20" d="M306.447,285.561c-2.48,0.281-4.861,0.619-7.237,1.434c0.154,2.557,4.203,0.287,5.965,0.072
						c3.239-0.395,6.543-0.535,9.599-1.777c-0.168-1.494-0.587-1.305-1.783-0.932c-2.125,0.664-4.341,0.951-6.544,1.201"/>
				</g>
			</g>
			<g>
				<g>
					<path fill="#231F20" d="M309.781,287.957c-2.763,0.434-5.639,0.742-8.187,1.957c0.252,1.475,0.706,1.291,1.867,0.863
						c2.101-0.777,4.336-1.092,6.537-1.439c1.7-0.309,3.463-0.619,5.16-0.949c0.097-2.619-3.812-0.742-5.377-0.438"/>
				</g>
			</g>
			<g>
				<g>
					<path fill="#231F20" d="M301.886,292.297c-0.088,0.451,0.089,1.076,0.127,1.539c4.7-0.385,9.583-0.967,14.057-2.506
						c-0.13-2.578-4.681-0.271-6.411,0.027c-2.571,0.445-5.161,0.85-7.76,1.063"/>
				</g>
			</g>
			<g>
				<g>
					<path fill="#231F20" d="M311.064,293.877c-3.195,0.387-6.377,0.762-9.457,1.742c0.05,1.471,0.416,1.305,1.615,0.99
						c2.18-0.564,4.416-0.908,6.646-1.186c1.839-0.229,3.644-0.469,5.481-0.713c0.36-2.498-2.782-1.086-4.291-0.887"/>
				</g>
			</g>
			<g>
				<g>
					<path fill="#231F20" d="M301.643,299.254c0.229,2.643,4.3,0.193,5.979-0.193c1.875-0.432,8.349-0.186,7.428-2.717
						c-4.533,0.387-9.127,1.256-13.399,2.848"/>
				</g>
			</g>
			<g>
				<g>
					<path fill="#231F20" d="M267.613,282.688c0.914,1.102,2.444-0.752,4.061-1.289c1.654-0.545,4.515-0.092,4.275-1.604
						c0,0-6.503-0.023-8.414,2.881"/>
				</g>
			</g>
			<g>
				<g>
					<path fill="#231F20" d="M283.278,301.723c0.125,0.271,0.576,0.521,0.81,0.734c1.572-1.096,3.232-2.277,4.353-3.654
						c-1.313-0.959-3.736,1.953-5.135,2.93"/>
				</g>
			</g>
			<g>
				<g>
					<path fill="#231F20" d="M282.342,297.348c-0.422,0.801-0.676,1.645-0.774,2.545c2.069,0.75,2.88-2.998,2.948-4.596
						c-1.796-0.611-1.597,0.791-2.168,2.051"/>
				</g>
			</g>
		</g>
	</g>
</g>
</svg>
