<?xml version="1.0" encoding="utf-8"?>
<!-- Generator: Adobe Illustrator 15.1.0, SVG Export Plug-In . SVG Version: 6.00 Build 0)  -->
<!DOCTYPE svg PUBLIC "-//W3C//DTD SVG 1.1//EN" "http://www.w3.org/Graphics/SVG/1.1/DTD/svg11.dtd">
<svg version="1.1" id="Layer_1" xmlns="http://www.w3.org/2000/svg" xmlns:xlink="http://www.w3.org/1999/xlink" x="0px" y="0px"
	 width="720px" height="450px" viewBox="0 0 720 450" enable-background="new 0 0 720 450" xml:space="preserve">
<g id="HeadBlow" display="none">
	<path display="inline" fill="#F4BF9A" d="M288.531,247.016c0.614,7.691,0,17.229-5.537,25.229
		c-5.539,7.998-7.69,5.846-11.076,10.459c-3.383,4.611-5.229,4.611-7.073,6.461c-1.847,1.844-2.771,3.688-2.771,3.688
		s-5.229,1.539-9.843,1.848c-4.615,0.31-8.614-3.073-8.614-3.073s-2.153-4.922-9.229-9.849
		c-7.074-4.922-12.919-11.071-15.381-25.229c-2.461-14.146-2.461-14.146-2.461-14.146s-4.921-5.846-4.921-8.922
		c0-3.074,3.076-6.149,6.46-6.149c3.385,0,75.983,1.846,75.983,1.846s3.69,0.615,0.614,7.385
		C291.607,243.323,288.531,247.016,288.531,247.016z"/>
	<path display="inline" fill="#5D4530" d="M258.691,187.029c5.845-5.229,10.459-8.921,19.073-6.151
		c8.613,2.769,22.148,11.689,30.455,11.689s17.842-5.538,17.842-5.538s0.615,1.229,0,2.77c-0.614,1.538-0.614,1.538-0.614,1.538
		s4.922-3.999,11.688-4.922c6.769-0.923,8.922,3.384,8.922,3.384s-4.923,0-7.69,3.384c-2.769,3.384-5.229,4.614-5.229,4.614
		s3.075-0.615,5.229,2.769c2.153,3.385,2.153,11.69,2.153,11.69s-2.461-9.536-13.844-11.075
		c-11.383-1.538-13.535,1.846-13.535,1.846s-1.539,4.922-5.846,7.999c-4.308,3.076-8.613,4.614-16.919,4.921
		C282.07,216.254,258.691,187.029,258.691,187.029z"/>
	<path display="inline" fill="#4F3B28" d="M284.531,195.643c-6.631-5.968-15.996-13.536-33.223-13.228
		c-17.228,0.307-33.532,10.767-35.993,22.764c-2.46,11.998-1.23,18.458-1.23,18.458s-0.307,10.152,1.23,15.38
		c1.539,5.229,7.383,8.922,7.383,8.922l1.538,3.076l3.384-6.461c0,0,0,9.844,9.229,17.229c9.229,7.385,15.997,7.996,15.997,7.996
		s-6.152-5.229-4.922-12.609c0,0,4.613,4,10.458,4.922c5.846,0.923,7.998,0.923,7.998,0.923l-4.921-13.228
		c0,0,5.537,2.769,7.997,2.769c2.461,0,4.923-1.847,4.31-3.076c-0.617-1.229-0.617-1.229-0.617-1.229s4.923,2.461,7.999,2.461
		c3.075,0,4.923-2.461,4.923-2.461l2.461,0.615c0,0,1.229-6.771,2.46-11.688c1.23-4.927,3.999-6.771,3.999-6.771
		S299.913,209.486,284.531,195.643z"/>
	<path display="inline" fill="#966E50" d="M275.61,268.857c0-1.229-1.538-3.076-8.921,0.31c-7.384,3.383-8.921,4.612-8.921,4.612
		s4.921-1.536,10.767-3.075C274.38,269.166,275.61,268.857,275.61,268.857z"/>
	<path display="inline" fill="#5D4530" d="M213.749,214.85c-0.419,7.249,3.376,15.102,8.979,19.626
		c0.564-1.729,0.489-3.805,0.44-5.809c5.322,8.541,10.566,17.061,19.886,21.646c-2.354-5.008-3.688-9.674-4.767-14.77
		c0.619,1.563,3.969,4.389,4.854,5.539c1.568-2.935,1.668-2.726,3.111-5.715c12.159,10.348,23.757-2.38,29.776-12.729
		c3.86,3.113,8.396,2.403,8.556,7.833c1.742-2.484,4.056-4.396,6.578-6.039c1.568,2.244,3.994,3.294,5.457,0.693
		c0.345,1.858-0.104,3.44-1.473,4.54c-0.025-3.606,1.046-6.97,0.844-10.448c-0.308-5.277-2.303-11.403-5.8-17.165
		c-6.636-10.929-21.843-17.936-33.888-20.298c-10.707-2.1-26.556,4.216-34.409,11.594c-5.299,4.979-6.566,13.956-7.769,20.846
		c-0.075,0.355-0.127,0.715-0.161,1.075"/>
	<g display="inline">
		<g>
			<path fill="#231F20" stroke="#231F20" stroke-miterlimit="10" d="M257.57,284.537c3.394,2.188-4.345,8.391-6.51,8.815
				c-2.449,0.479-4.605-1.285-5.721-3.266c-0.668-1.187-1.025-2.525-1.159-3.89c-0.08-0.813,0.352-2.235-0.854-2.079
				c-0.667,4.385,3.205,12.021,8.656,9.772c2.401-0.981,10.126-7.207,5.938-9.897c-0.125,0.188-0.217,0.256-0.285,0.479"/>
		</g>
	</g>
	<g display="inline">
		<g>
			<path stroke="#231F20" stroke-miterlimit="10" d="M287.648,253.912c0,4.375-0.961,8.797-2.559,12.897
				c-1.55,3.979-4.315,6.527-7.432,9.361c-1.474,1.344-6.895,7.092-8.003,8.813c-1.126,1.752-2.67,2.896-4.443,3.918
				c-1.769,1.017-2.771,2.511-3.803,4.242c0.155,0.094,0.543,0.42,0.637,0.267c0.556-0.908,1.188-1.813,1.828-2.662
				c0.59-0.787,3.02-1.998,4.66-3.433c2.129-1.864,2.99-3.701,4.479-5.271c1.459-1.541,3.297-2.713,4.875-4.127
				c3.282-2.945,6.192-5.896,7.94-10.021c1.861-4.387,2.406-9.254,2.406-13.979C287.928,253.912,287.956,253.912,287.648,253.912"/>
		</g>
	</g>
	<g display="inline">
		<g>
			<path fill="#231F20" stroke="#231F20" stroke-miterlimit="10" d="M216.959,247.744c0.748,3.204,1.22,6.477,1.991,9.674
				c1.151,4.774,2.358,10.008,5.001,14.219c2.897,4.617,7.292,8.953,11.736,12.104c1.926,1.366,4.152,2.528,5.782,4.274
				c0.438,0.471,0.668,1.071,0.921,1.666c0.346,0.813,0.044,0.715,0.877,0.418c-1.367-3.826-4.817-5.608-7.843-7.931
				c-2.197-1.688-4.463-3.299-6.28-5.383c-1.725-1.979-3.637-4.044-4.912-6.354c-3.805-6.867-5.095-15.229-6.864-22.81
				c-0.298,0.077-0.277-0.067-0.576,0.011"/>
		</g>
	</g>
	<g display="inline">
		<g>
			<path fill="#231F20" stroke="#231F20" stroke-miterlimit="10" d="M243.171,291.322c0.675,1.132,1.303,2.197,2.459,2.91
				c2.111,1.301,4.822,1.179,7.163,0.959c2.589-0.242,5.179-0.549,7.722-1.094c0.686-0.146,1.361-0.346,2.051-0.488
				c0.732-0.153,0.49-0.373,0.359-1.086c-3.598,0.767-7.153,1.681-10.828,1.99c-1.925,0.156-4.257,0.174-5.999-0.859
				c-1.065-0.631-1.728-1.623-2.342-2.647c-0.262,0.16-0.48,0.1-0.743,0.262"/>
		</g>
	</g>
	<g display="inline">
		<g>
			<path fill="#231F20" stroke="#231F20" stroke-miterlimit="10" d="M270.64,272.521c-1.524,1.979-3.19,3.254-5.708,3.719
				c-1.142,0.209-2.281,0.349-3.433,0.205c-0.977-0.121-2.215-0.643-3.181-0.362c-0.015,0.928,2.302,1.02,3.109,1.121
				c1.819,0.225,3.759,0.012,5.483-0.621c1.466-0.539,2.756-1.498,3.75-2.689c0.449-0.535,0.84-1.115,1.301-1.643
				c0.409-0.468,1.152-0.767,0.644-1.447c-0.814,0.297-1.437,1.08-1.939,1.738"/>
		</g>
	</g>
	<g display="inline">
		<g>
			<path fill="#231F20" stroke="#231F20" stroke-miterlimit="10" d="M227.563,271.035c0.596,0.198,1.019,1.711,1.445,2.184
				c1.059,1.164,2.558,2.107,4.076,2.555c0.802,0.234,6.31,0.129,5.371-1.233c-1.84,0.635-3.653,1.271-5.583,0.551
				c-1.298-0.479-2.492-1.457-3.396-2.502c-0.532-0.609-0.946-1.756-1.75-2.021c-0.062,0.185-0.202,0.396-0.213,0.582"/>
		</g>
	</g>
	<g display="inline">
		<g>
			<path fill="#231F20" stroke="#231F20" stroke-miterlimit="10" d="M261.356,272.754c-1.868,0.701-3.584,0.953-5.363,1.871
				c0.181,1.155,2.57-0.271,3.176-0.521c2.202-0.897,4.388-1.813,6.665-2.506c2.07-0.627,4.132-1.305,6.226-1.852
				c0.705-0.185,3.635-0.195,3.2-1.173c-1.989,0.248-3.672,0.671-5.598,1.207C267.085,270.498,263.866,271.814,261.356,272.754"/>
		</g>
	</g>
	<g display="inline">
		<g>
			<path fill="#231F20" stroke="#231F20" stroke-miterlimit="10" d="M262.104,271.053c-1.038,0.553-2.021,1.201-3.082,1.707
				c-0.603,0.287-2.23,0.406-1.619,1.264c3.458-1.229,6.494-3.354,9.849-4.832c1.662-0.729,3.483-1.299,5.309-1.438
				c0.792-0.062,1.552,0.225,2.318,0.436c0.552,0.156,1.121,0.306,1.257-0.514c-4.474-2.127-10.166,1.373-14.009,3.424"/>
		</g>
	</g>
	<g display="inline">
		<g>
			<path fill="#231F20" stroke="#231F20" stroke-miterlimit="10" d="M223.521,266.258c6.485,2.096,12.11,6.231,18.991,7.229
				c0.258-0.59,0.026-0.396-0.52-0.491c-0.997-0.175-1.985-0.447-2.951-0.742c-1.805-0.556-3.46-1.508-5.182-2.275
				c-3.341-1.496-6.669-3.135-10.161-4.262c-0.058,0.182-0.229,0.471-0.238,0.66"/>
		</g>
	</g>
	<g display="inline">
		<g>
			<path fill="#231F20" stroke="#231F20" stroke-miterlimit="10" d="M226.035,269.09c3.424,3.516,9.888,4.352,14.547,4.356
				c0.292-1.01-2.039-0.897-2.752-0.967c-1.824-0.184-3.663-0.377-5.434-0.854c-1.76-0.476-3.602-1.093-5.075-2.189
				c-0.734-0.549-1.407-1.271-1.809-2.104c-0.328-0.681-0.038-2.313-0.999-2.063c-0.035,1.424,0.662,2.689,1.646,3.699"/>
		</g>
	</g>
	<g display="inline">
		<g>
			<path fill="#231F20" stroke="#231F20" stroke-miterlimit="10" d="M242.701,273.906c-0.257,0.912,0.774,0.597,1.37,0.869
				c0.872,0.396,1.388,1.261,1.736,2.127c0.376,0.938,0.528,1.941,0.52,2.945c-0.006,0.627-0.395,1.605,0.556,1.512
				c0.535-2.918-0.465-7.455-4.18-7.438"/>
		</g>
	</g>
	<g display="inline">
		<g>
			<path fill="#231F20" stroke="#231F20" stroke-miterlimit="10" d="M293.275,229.672c-0.737,0.166-1.479,0.793-1.852,1.451
				c0.983,0.557,0.604,0.1,1.536-0.414c0.92-0.506,2.131,0.141,2.367,1.194c0.314,1.41-0.592,3.461-1.092,4.804
				c-0.836,2.248-2.138,4.303-3.453,6.309c-0.66,1.006-1.116,2.188-1.926,3.076c-0.697,0.766-0.751,0.67-0.066,1.375
				c2.781-2.699,4.813-6.473,6.209-10.057c0.501-1.285,0.81-2.755,1.123-4.097c0.446-1.908-0.601-4.19-2.857-3.688"/>
		</g>
	</g>
	<g display="inline">
		<g>
			<path fill="#231F20" stroke="#231F20" stroke-miterlimit="10" d="M228.492,246.842c0.246,13.098,12.049,22.551,25.427,22.703
				c1.353,0.016-1.854-0.967-2.685-1.174c-1.718-0.431-3.351-1.177-5-1.818c-3.126-1.223-6.052-2.893-8.71-4.951
				c-2.507-1.938-4.624-4.301-6.132-7.104c-0.771-1.438-1.351-2.914-1.689-4.515c-0.159-0.742-0.43-1.461-0.486-2.221
				c-0.05-0.678-0.094-1.195-0.971-0.928"/>
		</g>
	</g>
	<g display="inline">
		<g>
			<path fill="#231F20" stroke="#231F20" stroke-miterlimit="10" d="M247.463,257.629c5.258,2.934,11.49,7.934,19.497,5.807
				c-1.618,0.435,1.466-0.936-3.36-7.104c-0.397-0.511-0.47,0.414-0.141,0.836c0.664,0.848,2.034,4.561,2.386,5.574
				c-3.187,0.116-6.159-0.544-9.125-1.681c-1.435-0.549-5.547-2.258-6.911-2.965c-0.72-0.371-2.086-1.705-2.395-0.416"/>
		</g>
	</g>
	<g display="inline">
		<g>
			<path fill="#231F20" stroke="#231F20" stroke-miterlimit="10" d="M271.887,247.924c0.396,1.072,0.771,3.049-0.395,3.877
				c-0.773,0.549-1.939,0.635-2.835,0.541c-1.593-0.166-3.074-0.99-4.576-1.523c-0.981-0.35-1.946-0.707-2.899-1.125
				c-0.602-0.262-1.583,0.101-0.961,0.521c5.364,3.646,14.734,6.063,12.534-1.652c4.027,1.521,8.027,3.035,12.377,2.148
				c0.095-1.324-1.834-0.592-2.691-0.563c-1.52,0.055-2.979-0.479-4.447-0.854c-2.249-0.571-4.423-1.397-6.589-2.222
				c0.096,0.265,0.149,0.675,0.246,0.938"/>
		</g>
	</g>
	<g display="inline">
		<g>
			<path fill="#231F20" stroke="#231F20" stroke-miterlimit="10" d="M289.422,242.219c-0.739,1.781-1.344,3.746-0.979,5.711
				c-2.068-0.322-4.092-1.092-5.979-1.992c-1.056-0.504-2.152-0.94-3.154-1.553c-0.733-0.443-0.522-0.301-0.916,0.334
				c3.539,2.188,7.149,3.877,11.311,4.354c-0.854-2.413-0.092-4.493,0.854-6.762c-0.283-0.119-0.625-0.17-0.911-0.287
				c-0.043,0.104-0.06,0.14-0.104,0.244"/>
		</g>
	</g>
	<g display="inline">
		<g>
			<path fill="#231F20" stroke="#231F20" stroke-miterlimit="10" d="M235.349,184.639c-14.042,5.285-25.161,20.81-22.498,36.122
				c0.331-0.058,2.033-0.177,1.971-0.56c-0.071-0.446-0.293-0.834-0.332-1.283c-0.099-1.127-0.539-2.222-0.491-3.35
				c0.113-2.64,0.609-5.246,1.327-7.787c1.769-6.271,5.605-11.567,10.573-15.814c13.719-11.732,33.627-11.462,48.634-2.938
				c1.991,1.132,4.42,3.042,6.221,4.459c0.856,0.675,1.597,0.952,2.394,1.693c0.854,0.792,0.809,1.55,1.631,0.728
				C272.271,183.401,251.922,178.402,235.349,184.639"/>
		</g>
	</g>
	<g display="inline">
		<g>
			<path fill="#231F20" stroke="#231F20" stroke-miterlimit="10" d="M224.474,251.309c0.174,0.426,0.205,0.896,0.378,1.322
				c0.174-1.09,0.338-2.168,0.687-3.221c0.273-0.82,0.608-1.638,1.07-2.371c0.363-0.578,0.818-1-0.036-1.392
				c-0.999,1.162-1.637,2.855-2.037,4.324c-0.872-2.318-1.632-4.865-1.632-7.363c0-1.104,0.22-2.229,0.561-3.274
				c0.243-0.748,1.3-1.554,0.143-1.82c-2.407,4.396-1.027,9.521,0.73,13.854"/>
		</g>
	</g>
	<g display="inline">
		<g>
			<path fill="#231F20" stroke="#231F20" stroke-miterlimit="10" d="M213.63,238.654c0.502,0.996,0.881,2.06,1.24,3.117
				c0.321,0.938,0.148,0.832,1.104,0.662c-0.514-2.896-2.441-5.313-3.305-8.102c-0.339-1.104-0.572-2.354-0.047-3.433
				c0.269-0.553,0.743-0.963,1.244-1.307c0.014-0.166-0.38-0.535-0.48-0.687c-3.577,2.439-1.381,6.834,0.114,9.802"/>
		</g>
	</g>
	<g display="inline">
		<g>
			<path fill="#231F20" stroke="#231F20" stroke-miterlimit="10" d="M263.547,182.521c0.156,0.228,0.015,0.278,0.173,0.504
				c0.071,0.104,1.567-0.862,1.813-0.979c1.413-0.677,2.908-1.588,4.466-1.735c3.342-0.313,6.714,1.126,9.876,2.164
				c5.721,1.877,10.469,4.816,15.937,7.222c9.458,4.162,25.043,6.469,31.894-3.279c-0.226-0.159-1.024-0.196-1.252-0.354
				c-0.116-0.084-1.112,0.346-1.28,0.532c-0.904,1-1.683,2.012-2.834,2.71c-2.366,1.433-5.033,1.775-7.769,2.08
				c-5.597,0.623-10.248,0.32-15.478-1.688c-5.238-2.012-11.212-4.942-16.449-6.995c-6.082-2.385-13.7-4.768-19.5-0.746"/>
		</g>
	</g>
	<g display="inline">
		<g>
			<path fill="#231F20" stroke="#231F20" stroke-miterlimit="10" d="M326.686,190.301c0.388-0.723,0.558-1.604,0.839-2.372
				c-0.26-0.095-0.396-0.224-0.654-0.318c-0.139-0.052-0.668,1.47-0.775,1.688c-0.632,1.27-1.68,2.261-2.454,3.424
				c0.724,0.632,0.589,0.612,1.281-0.092c0.982-0.998,2.235-1.714,3.409-2.475c2.39-1.546,5.08-2.734,7.89-3.263
				c2.543-0.478,5.001-0.121,7.088,1.495c1.228,0.949,2.601,1.688,3.793,2.679c0.184-0.239,0.71-0.592,0.436-0.819
				c-0.517-0.43-1.271-0.568-1.787-0.997c-1.38-1.146-2.54-2.514-4.285-3.081c-5.015-1.629-10.806,1.181-14.781,4.117"/>
		</g>
	</g>
	<g display="inline">
		<g>
			<path fill="#231F20" stroke="#231F20" stroke-miterlimit="10" d="M337.082,193.587c-1.284,1.165-2.758,2.103-4.231,3.025
				c-0.82,0.516-1.649,1.016-2.553,1.371c-0.049,0.17,0.306,0.778,0.375,0.954c3.781-1.49,6.326-4.434,9.498-6.792
				c1.323-0.984,2.69-1.948,4.326-2.225c0.984-0.167,2.021-0.199,3.016-0.113c1.146,0.099,1.09,0.51,1.263-0.565
				c-4.888-0.771-8.332,1.011-11.834,4.188"/>
		</g>
	</g>
	<g display="inline">
		<g>
			<path fill="#231F20" d="M320.63,195.027c0.004,0.167-0.07,0.515,0.034,0.623c0.763-0.019,1.507,0.121,2.267,0.13
				c1.424,0.018,2.824,0.313,4.238,0.481c2.479,0.297,5.091,0.512,7.286,1.732c2.143,1.189,3.666,3.204,4.885,5.324
				c0.715,1.245,1.326,2.535,1.742,3.908c0.239,0.786,0.386,1.603,0.552,2.406c0.13,0.078,1.017-0.214,1.179-0.248
				c-1.049-5.087-3.816-9.703-8.583-12.145c-4.172-2.137-9.008-2.308-13.602-2.193"/>
		</g>
	</g>
	<g display="inline">
		<g>
			<path fill="#231F20" stroke="#231F20" stroke-miterlimit="10" d="M312.207,203.195c-0.913,0.646-1.824,1.31-2.782,1.891
				c-1.005,0.613-1.193,0.396-0.662,1.369c3.138-1.719,5.787-4.642,9.286-5.635c3.212-0.909,6.873-0.135,10.063,0.635
				c3.118,0.752,6.214,1.997,8.728,4.042c1.067,0.867,2.257,1.72,2.866,2.96c0.326,0.66,0.361,1.443,0.476,2.17
				c0.093,0.586,0.287,0.331,0.826,0.275c-0.596-5.782-6.644-8.521-11.596-9.886c-2.712-0.748-5.542-1.456-8.361-1.384
				c-3.44,0.088-6.317,1.33-9.056,3.262"/>
		</g>
	</g>
	<g display="inline">
		<g>
			<path fill="#231F20" stroke="#231F20" stroke-miterlimit="10" d="M290,204.526c2.193,4.452,4.348,9.064,5.334,13.961
				c0.449,2.231,0.396,4.53,0.258,6.805c-0.073,1.204-0.225,2.385-0.464,3.565c-0.236,1.17-0.417,1.188,0.676,1.459
				c2.33-9.318-1.101-17.833-5.173-26.104c-0.274,0.136-0.505,0.245-0.778,0.382"/>
		</g>
	</g>
	<g display="inline">
		<g>
			<path fill="#231F20" stroke="#231F20" stroke-miterlimit="10" d="M297.83,213.999c0.028,0.306,0.058,0.597,0.086,0.902
				c8.975-0.863,15.602-7.036,15.809-16.25c-0.97-0.021-0.896-0.106-0.963,0.917c-0.077,1.177-0.184,2.37-0.483,3.51
				c-0.518,1.947-1.438,3.816-2.712,5.381c-2.861,3.508-7.349,5.016-11.746,5.438"/>
		</g>
	</g>
	
		<rect id="HeadBlowTarget" x="230.463" y="211.083" display="inline" fill="#FFFFFF" fill-opacity="0" width="21.112" height="20.914"/>
</g>
<path fill="#77303C" d="M389.814,250.578c-2.487-10.396-15.918-52.477-22.386-73.269s-13.432-25.741-20.396-24.752
	c-6.965,0.989-13.929,32.672-13.432,52.97c0.497,20.298,9.95,35.149,11.442,39.604c1.493,4.456,1.493,4.456,1.493,4.456
	L389.814,250.578z"/>
<path fill="#77303C" d="M198.288,160.479c-2.016,10.496-3.485,31.683,10.447,49.504c13.93,17.822,24.377,29.209,24.377,29.209
	s35.816,27.228,39.796,28.713c3.98,1.484,53.229-17.822,53.229-17.822s13.929-17.822,19.401-37.129s10.944-58.416,10.944-58.416
	s-26.862-24.258-59.198-29.208c-32.336-4.95-80.466,13.118-87.182,16.831S199.905,152.064,198.288,160.479z"/>
<path fill="#77303C" d="M208.735,141.666c-6.964,5.941-23.877,14.852-24.873,29.704c-0.995,14.852-1.991,24.258-0.995,40.595
	c0.995,16.337-0.994,35.149-1.99,40.1c-0.995,4.95,7.956,12.87,15.918,14.355c7.96,1.485,25.62-22.154,25.62-22.154
	s0.25-18.936,0.25-20.915C222.665,221.369,208.735,141.666,208.735,141.666z"/>
<path fill="#F0F1D9" d="M649.992,344.638c-11.443-20.298-36.316-54.458-40.295-55.943c-3.981-1.485-53.23-0.989-95.019-0.989
	c-41.786,0-356.684,0-376.085-0.496c-19.401-0.493-22.386-1.484-31.34,8.911c-8.955,10.396-34.822,48.518-34.822,48.518H649.992z"/>
<path fill="#D3D7B9" d="M231.123,307.013c-12.863,2.203-30.322-0.917-42.183,4.556c-0.041-0.06-0.036,1.828-0.024,1.806
	c16.807,2.637,34.386,3.304,51.633,3.924c11.415,0.412,21.864-1.43,32.492-0.342c17.696,1.807,34.573,5.691,52.59,6.395
	c17.031,0.666,34.928,5.504,51.759,4.454c8.451-0.528,11.588-1.881,18.893-4.455c22.641-7.98,38.579-10.985,62.681-9.9
	c12.879,0.578,39.692-0.658,52.419-1.871c15.224-1.45,27.749-0.667,28.172-6.545c0.423-5.879-58.248-6.499-85.068-8.911
	c-51.3-4.612-103.209,2.708-154.713,0.99c-15.246-0.509-63.593-5.187-72.629,11.881"/>
<path fill="#F3BE99" d="M371.656,249.463c-10.819-0.371-26.863-2.971-43.652-1.485s-25.371,0.371-34.698,6.312
	c-9.328,5.941-14.924,10.025-16.417,11.139c-1.493,1.114-6.343-1.856-9.328-9.653s-2.612-15.965-7.089-15.965
	c-4.478,0-5.597,1.113-6.343-0.743s0.373-2.228-2.985-1.485c-3.358,0.743-4.851-2.599-4.851-2.599s-4.477,1.485-5.596-0.371
	c-1.12-1.856-2.239-3.342-3.731-1.114c-1.493,2.228-4.104,5.198-9.701,5.198c-5.597,0-8.208-1.485-10.82,0.742
	c-2.612,2.229,9.327,51.238,14.551,62.006c5.223,10.768,11.193,7.797,11.193,7.797s7.089-1.856,10.82-4.827
	c3.731-2.97,2.985-5.569,10.82-4.084c7.835,1.485,9.701,6.313,14.178,8.169s19.401,5.94,37.683,8.539
	c18.282,2.6,16.043,5.94,33.579,6.684c17.536,0.742,25.744,1.113,30.222,1.856c4.477,0.742,13.059,1.485,19.4-1.114
	c6.343-2.599,10.074-5.94,10.074-5.94l2.238-5.94c0,0,20.894-2.971,31.341-6.313c10.447-3.341,15.67-4.826,19.401-3.713
	c3.73,1.114,19.028,4.085,26.117,3.713c7.088-0.371,10.819-1.484,10.819-1.484s4.104-12.253,2.611-15.966s-5.597-3.713-5.597-3.713
	s-7.088-4.455-21.639-9.282s-20.894-4.827-25.371-4.084c-4.478,0.742-20.894,1.856-20.894,1.856L371.656,249.463z"/>
<path fill="#E9B292" d="M425.383,266.542c0,0,5.224-3.713,17.536-1.485s14.178,6.684,14.178,6.684l-27.236,1.856L425.383,266.542z"
	/>
<path fill="#B5D1E3" d="M485.452,281.394c0,0,4.104-7.055,11.192-10.396c7.089-3.341,10.82,0,11.193,4.085
	c0.373,4.084,0.373,4.084,0.373,4.084s-6.343,4.455-11.566,4.455C491.422,283.621,485.452,281.394,485.452,281.394z"/>
<path fill="#D8E7F0" d="M494.033,284.365c0,0,10.447-2.6,20.894-6.684c10.447-4.084,16.043-6.312,19.401-2.228
	c3.357,4.084,2.984,21.906-11.193,27.847s-20.894,9.653-27.609,8.168c-6.715-1.485-10.446-4.826-10.446-4.826
	s1.12-1.114,6.716-1.485s8.208-6.313,7.462-11.139C498.51,289.191,494.033,284.365,494.033,284.365z"/>
<path fill="#FFFFFF" d="M364.94,245.75c1.283,7.961,7.014,25.468,1.114,32.591c3.006,0.707,6.202,1.092,9.274,1.253
	c0.402,7.552-1.14,19.474-4.008,26.323c7.042,2.483,12.062,2.601,19.352,3.305c4.987,0.481,9.296-1.037,7.083,6.207
	c3.11-2.515,8.369-2.996,12.356-2.615c-2.265-9.514-11.966-29.192-8.417-33.192c8.308-9.363,19.005-5.497,28.101-6.915
	c5.507-16.769-54.595-27.327-65.229-27.327"/>
<path fill="#D8E7F0" d="M219.058,235.725c-7.089,1.485-12.685,3.713-14.178,5.941c-1.492,2.228-14.178,10.024-16.417,23.391
	c-2.238,13.366-5.596,34.901,15.67,44.184s35.444,4.827,36.937,4.084c1.492-0.742,2.612,4.084,2.985-0.371s1.865-21.906-5.224-37.5
	c-7.089-15.595-14.551-25.99-16.417-31.188C220.551,239.067,219.058,235.725,219.058,235.725z"/>
<path fill="#B5D1E3" d="M188.34,293.151c18.966,14.454,34.534,15.1,53.749,10.063c0.637,2.982,1.117,6.836,1.394,9.679
	c-19.874,1.081-40.578,5.318-52.157-13.802"/>
<path fill="#B5D1E3" d="M514.678,306.024c-9.304,1.404-20.85-3.1-27.929,2.488c2.541,0.737,5.473,2.738,8.775,2.956
	c4.76,0.313,10.013-1.465,13.683-2.475"/>
<path fill="#D7DADF" d="M373.398,300.083c8.262,2.625,33.331,2.97,33.331,2.97s2.395,5.494,3.307,8.836
	c-4.29-0.141-8.61,0.299-12.684,0.989c-0.73-5.915-20.083-5.942-26.366-6.93c0.012-0.085-0.124-1.438-0.124-1.439
	c1.223-0.937,0.812-1.647,1.542-2.941"/>
<path fill="#F3BE99" d="M278.754,139.561c15.297,3.713,29.475,11.881,29.475,33.417c0,21.534-8.582,34.529-19.028,36.757
	c-10.447,2.229-27.609,2.6-36.564-1.856C243.683,203.423,278.754,139.561,278.754,139.561z"/>
<path fill="#F3BE99" d="M279.127,162.581c1.12,5.198,0.747,25.99-8.954,38.985s-13.432,15.966-20.147,15.966
	s-11.566-7.798-15.67-10.396s-14.551-11.51-18.655-21.535c-4.104-10.024-6.343-20.421-5.596-24.876
	c0.746-4.455,19.028-13.366,39.922-11.139C270.919,151.814,279.127,162.581,279.127,162.581z"/>
<path fill="#5D4530" d="M276.142,118.027c-9.272-7.809-32.086-20.05-47.757-11.51c-15.67,8.54-20.894,15.594-20.894,27.475
	s0,15.223,0.373,21.535c0.373,6.313,1.119,7.797,3.731,10.396c2.612,2.599,5.597,2.599,5.597,2.599l0.373,2.6l2.985-5.941
	c0,0,0.373,8.911,8.581,14.48c8.208,5.569,14.551,7.426,14.551,7.426s-3.358-2.599-3.358-7.055c0-4.455,1.119-1.856,9.327,0.743
	c8.208,2.599,8.208,2.599,8.208,2.599s-2.612-6.312-2.985-10.024s-0.373-3.713-0.373-3.713s5.97,2.97,8.208,1.856
	c2.239-1.114,1.493-3.342,1.493-3.342l9.701,1.485l2.238-1.856l3.731,0.371c0,0,0.746-3.713,2.238-5.569
	c1.493-1.856,5.597-6.312,4.851-19.678C286.216,129.536,280.993,122.111,276.142,118.027z"/>
<path fill="#5D4530" d="M315.318,109.115c0,0-6.343,6.684-18.282,4.456c-11.939-2.228-16.417-7.426-24.625-10.025
	c-8.208-2.599-10.82-1.856-13.805-0.742c-2.985,1.114-8.208,6.312-8.208,6.312l32.086,27.104c0,0,8.955-0.372,13.059-2.971
	c4.104-2.599,6.343-8.54,6.343-8.54s5.597-4.084,14.178-2.97c8.582,1.114,13.805,8.168,13.805,8.168s0.373-4.827-1.119-7.055
	c-1.492-2.228-5.597-4.084-5.597-4.084s2.985-3.713,5.597-5.198c2.612-1.485,5.597-2.228,5.597-2.228s-2.239-5.569-9.328-3.713
	s-11.193,5.569-11.193,5.569L315.318,109.115z"/>
<path fill="#966E50" d="M266.069,186.715c0,0-2.985-2.228-8.581,0.742c-5.597,2.971-7.089,4.827-7.089,4.827
	s6.716-1.856,9.327-3.342C262.338,187.457,266.069,186.715,266.069,186.715z"/>
<path fill="#956D50" d="M232.863,191.17c0,0-7.462,0-9.7-1.484c-2.239-1.485-5.224-4.456-5.224-4.456L232.863,191.17z"/>
<path fill="#F3BE99" d="M204.507,240.181c0,0-4.104-2.228-10.074-2.228s-6.716,2.599-6.716,2.599l-0.746,6.312
	c0,0-7.089,2.229-11.193,5.569c-4.104,3.342-4.477,4.085-3.358,5.941c1.12,1.856,2.239,3.341,1.12,5.569
	c-1.12,2.228-0.746,4.826,0.373,6.683s3.358,5.198,3.731,7.797c0.373,2.6,0.746,6.684,1.866,7.055
	c1.119,0.371,1.119,0.371,1.119,0.371s2.985,5.569,5.223,7.798c2.239,2.228,6.343,2.97,6.343,2.97s1.866-3.713,0.373-5.94
	c-1.492-2.228-4.104-4.827-4.104-4.827l6.716-2.228c0,0,0-4.455-2.985-4.826c-2.985-0.372-8.954-0.372-8.954-0.372l-1.493-4.455
	c0,0,4.478,1.485,9.701,1.485c5.224,0,7.835,0,7.835,0s1.12-2.6-0.373-4.456c-1.492-1.856-7.462-4.084-7.462-4.084l8.955,0.371
	c0,0-0.373-5.569-3.731-7.054c-3.358-1.485-4.478-2.6-4.478-2.6s2.612-5.94,5.97-9.282s5.597-5.569,5.597-5.569L204.507,240.181z"/>
<path fill="#DFA583" d="M295.544,254.289c0,0-7.089-2.97-10.074-3.713c-2.985-0.742-5.97-2.599-5.97-2.599s-3.358-4.827-5.596-5.569
	c-2.239-0.742-13.432-5.94-13.432-5.94s-1.866-0.371-2.239,1.113c-0.373,1.485-0.373,1.485-0.373,1.485s5.223,2.228,5.97,4.456
	c0.746,2.228,2.238,7.426,3.731,12.252c1.492,4.827,4.85,8.54,6.343,8.911c1.492,0.371,4.477-1.856,9.327-4.084
	C288.082,258.374,295.544,254.289,295.544,254.289z"/>
<g>
	<g>
		<path fill="#231F20" d="M103.784,286.9c-0.892,2.532,4.073,1.708,5.492,1.708c5.06,0,10.123-0.496,15.183-0.496
			c13.304,0,26.604-0.192,39.906-0.192c4.747,0,9.492,0.596,14.241,0.596c1.107,0,2.215-0.191,3.324-0.191
			c0.952,0,0.643-1.582,0.455-1.582c-8.259,0-16.52,0.378-24.781,0.378c-17.817,0-35.636,0.456-53.454,0.456"/>
	</g>
</g>
<g>
	<g>
		<path fill="#231F20" d="M540.289,287.065c-0.895,2.532,3.6,1.973,5.02,1.973c5.06,0,10.123-0.926,15.184-0.926
			c13.3,0,26.604,0.194,39.904,0.194c4.748,0,9.493,0.592,14.238,0.592c1.111,0,2.219-0.29,3.326-0.29
			c0.95,0,0.645-1.181,0.455-1.181c-8.261,0-16.519,0.193-24.779,0.193c-17.818,0-35.637-0.597-53.456-0.597"/>
	</g>
</g>
<g>
	<g>
		<path fill="#231F20" d="M92.46,314.839c-8.705,11.469-16.886,23.249-24.392,35.548c1.838,1.916,2.367-2.132,3.235-3.487
			c2.002-3.124,4.296-6.064,6.424-9.109c4.285-6.131,8.669-12.19,13.184-18.15c8.717-11.517,18.005-22.763,25.767-34.948
			c-1.804-1.95-3.234,1.734-4.125,3.072c-2.066,3.106-4.649,5.856-6.824,8.889c-4.375,6.102-8.273,12.55-12.812,18.531"/>
	</g>
</g>
<g>
	<g>
		<path fill="#231F20" d="M263.937,119.963c2.632,1.591,0.637,5.992,3.659,5.76c0.557-2.776-0.143-5.802-2.699-7.345
			c-0.292,0.476-0.846,1.099-0.997,1.634"/>
	</g>
</g>
<g>
	<g>
		<path fill="#231F20" d="M181.885,254.884c3.855,1.465,7.835,2.708,11.537,4.528c2.349,1.154,4.844,2.831,6.255,5.134
			c1.163,1.9-0.606,4.163,2.09,4.606c3.018-6.216-5.376-10.222-9.861-12.162c-2.329-1.01-4.702-1.892-7.074-2.794
			c-1.761-0.667-2.349-1.439-2.868,0.785"/>
	</g>
</g>
<g>
	<g>
		<path fill="#231F20" d="M175.268,262.913c5.748,3.168,12.139,4.259,18.601,4.938c1.881,0.197,3.75,0.526,5.633,0.724
			c1.833,0.194,2.375,0.194,2.329-1.92c-3.871-0.403-7.882-0.37-11.734-0.912c-3.022-0.427-5.97-1.326-8.851-2.347
			c-1.911-0.679-5.143-3.668-5.862-0.625"/>
	</g>
</g>
<g>
	<g>
		<g>
			<path fill="#231F20" d="M201.129,242.376c1.679,1.312,1.317,1.532,2.936,0.188c1.918-1.588,4.257-2.632,6.615-3.366
				c2.702-0.84,5.513-1.289,8.332-1.527c2.498-0.208,2.314-0.149,2.268-2.516c-6.631,0.13-15.909,1.637-20.28,7.172"/>
		</g>
	</g>
	<g>
		<g>
			<path fill="#231F20" d="M215.846,234.411c5.547,11.965,12.062,23.504,18.371,35.082c4.103,7.53,7.297,15.713,8.034,24.277
				c0.52,6.07-0.27,12.456-0.328,18.546c2.801,0.709,3.148-2.325,3.166-4.219c0.032-3.423-0.962-6.846-1.035-10.269
				c-0.21-10.112-2.048-20.456-6.891-29.341c-2.067-3.794-4.632-7.317-6.699-11.111c-2.358-4.326-5.022-8.487-7.3-12.854
				c-1.402-2.686-2.076-5.726-3.386-8.455c-0.793-1.65-1.221-3.569-3.223-1.89"/>
		</g>
	</g>
	<g>
		<g>
			<path fill="#231F20" d="M200.905,239.846c6.707,5.124,10.821,13.205,15.338,20.159c4.853,7.474,9.992,14.823,13.774,22.904
				c2.536,5.417,4.359,10.924,5.33,16.805c0.791,4.81,1.994,17.422,9.356,16.247c0.245-1.833-3.556-2.219-4.745-3.982
				c-2.012-2.977-2.521-6.979-3.14-10.439c-1.099-6.161-2.008-11.986-4.585-17.754c-3.801-8.498-8.983-16.328-14.047-24.122
				c-4.75-7.31-9.829-14.907-16.883-20.292c-0.28,0.365-0.245,0.105-0.417,0.529"/>
		</g>
	</g>
	<g>
		<g>
			<path fill="#231F20" d="M191.058,298.487c9.873,16.544,30.495,21.146,48.153,15.75c-0.501-1.621-0.151-2.516-2-2.001
				c-2.909,0.81-5.806,1.451-8.814,1.725c-5.532,0.499-11.219,0.527-16.513-1.191c-4.638-1.505-8.865-4.187-12.484-7.45
				c-1.972-1.778-3.945-3.633-5.451-5.815c-1.43-2.074-0.734-2.26-2.8-1.04"/>
		</g>
	</g>
	<g>
		<g>
			<path fill="#231F20" d="M191.386,255.171c2.362,1.315,2.005,0.927,3.594-1.423c1.541-2.279,3.389-4.365,5.467-6.175
				c1.203-1.045,2.443-2.099,3.833-2.879c0.936-0.522,0.021-1.306-0.405-2.151c-5.296,2.636-9.482,7.614-12.324,12.67"/>
		</g>
	</g>
	<g>
		<g>
			<path fill="#231F20" d="M221.571,237.08c-0.283,0.684-0.589,1.383-0.875,2.069c5.862,2.406,15.308,0.184,18.263-5.787
				c-0.413-0.201-1.742-1.173-2.167-1.092c-0.819,1.65-2.282,2.801-3.898,3.629c-3.311,1.696-7.799,2.64-11.334,1.188"/>
		</g>
	</g>
	<g>
		<g>
			<path fill="#231F20" d="M237.605,232.604c2.749,1.381,5.686,8.125,9.067,2.468c-0.417-0.245-0.73-0.507-1.147-0.753
				c-1.245-0.734-0.845,0.702-2.207,0.612c-1.688-0.11-2.979-3.467-4.691-4.313c-0.333,0.664-0.718,1.293-1.051,1.958"/>
		</g>
	</g>
	<g>
		<g>
			<path fill="#231F20" d="M245.805,236.002c1.233,1.475,2.636,2.673,3.871,4.148c2.9-4.916,4.122,2.722,5.83,1.538
				c6.493-4.499,8.692,5.181,9.447,9.158c1.781,9.39,5.145,17.127,16.259,16.477c-0.146-2.51,0.049-1.379-2.554-1.559
				c-2.53-0.177-4.938-1.385-6.783-3.174c-3.527-3.415-4.279-8.828-5.165-13.385c-1.219-6.253-3.539-12.144-11.085-10.146
				c-1.119-1.131-1.239-2.512-2.495-2.941c-1.122-0.104-2.367,0.054-3.308,0.662c-0.687-0.817-1.364-1.628-2.049-2.445
				c-0.574,0.476-1.221,0.924-1.794,1.399"/>
		</g>
	</g>
	<g>
		<g>
			<path fill="#231F20" d="M230.474,240.182c0.171,1.712-0.869,6.334,1.707,5.728c0.071-1.955-0.056-3.916-0.254-5.862
				c-0.463,0.047-0.991-0.026-1.421,0.137"/>
		</g>
	</g>
	<g>
		<g>
			<path fill="#231F20" d="M244.426,268.171c2.291,2.338,1.603,5.047-0.835,6.871c-1.644,1.23-6.44,1.251-5.808,3.426
				c5.64-0.01,13.12-5.875,7.748-11.361c-0.332,0.321-0.825,0.616-1.058,1.011"/>
		</g>
	</g>
	<g>
		<g>
			<path fill="#231F20" d="M254.747,301.57c-3.893,3.41-8.146,4.798-13.009,6.212c0.417,1.301,0.151,2.224,1.588,1.806
				c2.44-0.708,4.981-1.192,7.322-2.191c3.075-1.313,5.209-3.731,7.812-5.725c2.37-1.813,3.489-0.982,2.666-3.938
				c-2.46,0.676-4.409,2.306-6.283,3.944"/>
		</g>
	</g>
	<g>
		<g>
			<path fill="#231F20" d="M262.361,299.784c0.037,0.664-0.035,1.247,0.003,1.911c0.015,0.275,3.874,0.433,4.495,0.541
				c1.79,0.313,3.646,0.853,5.06,2.035c0.376-0.054,1.248-1.465,1.515-1.781c-2.96-2.475-7.365-2.959-11.11-2.759"/>
		</g>
	</g>
	<g>
		<g>
			<path fill="#231F20" d="M279.183,310.9c11.871,3.838,24.368,5.956,36.826,6.766c0.111-1.666,0.723-1.427-1.175-1.572
				c-2.775-0.213-5.553-0.575-8.312-0.955c-6.285-0.871-12.371-2.821-18.514-4.399c-5.362-1.378-11.107-1.907-14.42-6.748
				c-1.379-2.014-2.618-4.364-2.929-6.785c-0.33-2.53,0.316-2.559-2.2-2.699c-0.37,6.6,4.097,14.586,10.624,16.695"/>
		</g>
	</g>
	<g>
		<g>
			<path fill="#231F20" d="M285.823,282.353c-0.662,2.467,1.315,1.881,3.125,1.991c3.499,0.212,7.019,0.795,10.403,1.699
				c6.32,1.691,12.171,4.775,18.134,7.423c7.073,3.145,14.74,8.24,22.549,8.52c0.697-2.094-0.403-1.598-1.978-1.958
				c-3.125-0.71-6.029-2.082-8.874-3.51c-2.551-1.279-5.092-2.648-7.701-3.809c-11.26-5.016-22.994-10.219-35.602-10.084"/>
		</g>
	</g>
	<g>
		<g>
			<path fill="#231F20" d="M333.336,300.906c-0.29,1.771,0.238,1.589,1.789,1.465c3.16-0.259,6.385-0.37,9.55-0.199
				c6.315,0.34,12.439,2.301,18.604,3.667c6.902,1.525,13.843,2.867,20.701,4.575c1.382-2.619-1.824-2.315-3.739-2.794
				c-3.37-0.84-6.67-1.973-10.043-2.803c-11.999-2.956-24.408-4.953-36.819-3.618"/>
		</g>
	</g>
	<g>
		<g>
			<path fill="#231F20" d="M394.62,308.222c-5.404,0.221-11.237,0.22-16.276,2.424c0.399,3.007,5.387,0.23,7.584-0.048
				c3.276-0.416,6.564-0.596,9.864-0.733c0.241-1.085,0.141-2.047-1.163-1.632"/>
		</g>
	</g>
	<g>
		<g>
			<path fill="#231F20" d="M395.924,309.98c4.029,1.603-4.364,3.7-5.184,4.035c-2.11,0.86-4.133,1.964-6.341,2.556
				c-1.428,0.383-1.929,0.472-1.136,2.032c4.224-0.83,7.879-3.183,12.028-4.202c2.979-0.73,5.514-4.565,1.365-6.221
				c-0.21,0.522-0.535,1.058-0.601,1.613"/>
		</g>
	</g>
	<g>
		<g>
			<path fill="#231F20" d="M402.408,316.64c-1.755,0.954-3.578,1.964-5.647,1.825c-1.302-0.088-1.885,0.051-1.885,1.711
				c3.628,1.05,6.644-0.944,9.748-2.486c1.282-0.637,2.763-1.322,4.172-0.709c1.106,0.48,1.591,0.666,2.166-0.795
				c-2.786-2.15-5.831-1.101-8.586,0.396"/>
		</g>
	</g>
	<g>
		<g>
			<path fill="#231F20" d="M405.006,319.126c-5.15,3.878-9.771,4.759-15.971,5.531c-2.968,0.37-5.999,1.526-8.998,0.993
				c-1.869-0.332-3.521-1.504-4.683-3.017c-0.398-0.017-1.121,0.867-1.465,1.127c4.861,6.334,15.812,3.565,22.66,2.375
				c4.25-0.74,7.267-3.37,10.688-5.772c1.113-0.783,2.408-1.311,3.521-2.091c0.766-0.536-0.438-1.645-0.859-2.314
				c-1.582,1.111-3.086,2.358-4.666,3.468"/>
		</g>
	</g>
	<g>
		<g>
			<path fill="#231F20" d="M315.17,317.616c4.859,0.039,9.342,2.237,13.869,3.743c5.308,1.765,10.834,2.382,16.373,2.954
				c9.841,1.019,19.766,1.646,29.665,1.662c0.003-1.618,0.557-1.792-1.289-1.806c-2.635-0.021-5.26-0.802-7.894-0.908
				c-5.743-0.231-11.521-0.115-17.244-0.662c-5.884-0.562-11.901-1.566-17.572-3.318c-5.202-1.607-10.395-4.014-15.947-4.059
				c-0.004,0.743,0.004,2.129-0.001,2.872"/>
		</g>
	</g>
	<g>
		<g>
			<path fill="#231F20" d="M395.91,315.432c1.846,0.606,1.309,3.126,3.369,2.4c-0.083-1.805-1.182-3.273-2.904-3.836
				c-0.144,0.437-0.47,1.02-0.49,1.475"/>
		</g>
	</g>
	<g>
		<g>
			<path fill="#231F20" d="M401.63,313.201c-1.761,0.511-2.69,0.274-1.941,2.364c2.163-0.614,4.297-1.324,6.515-1.69
				c2.598-0.429,2.427,1.93,4.655,1.195c-0.16-4.941-6.447-2.79-9.231-1.879"/>
		</g>
	</g>
	<g>
		<g>
			<path fill="#231F20" d="M309.619,248.193c-8.833,1.256-16.604,6.069-24.144,10.634c-2.253,1.363-5.255,1.501-7.51,2.864
				c-2.225,1.348-2.195,0.833-0.997,3.135c5.27-3.18,10.716-5.448,16.193-8.268c9.007-4.638,18.006-6.838,27.997-7.932
				c14.636-1.602,29.131,2.071,43.752,1.101c-0.184-2.815-0.452-3.108-3.179-3.063c-5.561,0.091-11.116,0.606-16.653,0.099
				c-12.113-1.107-23.574-1.232-35.596,0.477"/>
		</g>
	</g>
	<g>
		<g>
			<path fill="#231F20" d="M365.057,245.793c0.532,4.469,1.247,8.916,1.58,13.404c0.293,3.96,0.545,7.945-0.052,11.879
				c-0.29,1.926-3.201,7.346-0.654,7.643c2.944-7.308,2.747-15.188,1.953-22.889c-0.263-2.55-0.121-5.146-0.424-7.691
				c-0.165-1.387-0.086-3.207-2.083-2.35"/>
		</g>
	</g>
	<g>
		<g>
			<path fill="#231F20" d="M364.679,279.389c2.024,0.197,4.06,0.285,6.09,0.448c2.126,0.173,4.233,0.493,6.329,0.901
				c1.443,0.279,3.072,1.547,3.413-0.567c-3.368-1.616-7.453-1.675-11.092-2.026c-1.538-0.147-5.057-1.403-4.657,1.114"/>
		</g>
	</g>
	<g>
		<g>
			<path fill="#231F20" d="M376.139,274.943c-0.655,4.688-1.548,9.339-2.203,14.024c-0.236,1.694-0.89,3.335-1.092,5.031
				c-0.225,1.854,0.03,3.823-0.707,5.566c-0.589,1.39-2.459,1.934-1.018,3.369c3.654-1.946,3.441-7.269,3.936-10.797
				c0.536-3.835,1.128-7.663,1.664-11.497c0.314-2.245,0.358-4.528,0.659-6.779c0.227-1.731,2.842-8.87,0-8.38
				c-0.426,3.217-1.298,6.18-1.723,9.396"/>
		</g>
	</g>
	<g>
		<g>
			<path fill="#231F20" d="M379.591,248.328c0.49,5.862,1.819,11.936-0.013,17.66c5.192,0.428,10.457,1.334,15.631,0.396
				c2.014-0.365-0.479-14.463-1.012-16.376c-2.448-0.009-0.852,2.58-0.609,4.112c0.435,2.755,0.516,5.553,0.446,8.338
				c-0.044,1.764,0.638,2.515-1.399,2.702c-1.483,0.136-2.99,0.088-4.478,0.051c-2.265-0.056-4.511-0.338-6.768-0.522
				c1.013-4.176,0.319-8.389-0.035-12.609c-0.125-1.482,0.713-4.535-1.601-3.68"/>
		</g>
	</g>
	<g>
		<g>
			<path fill="#231F20" d="M396.109,265.023c3.486,8.112,4.085,16.868,5.257,25.517c0.444,3.272,1.19,6.313,2.453,9.416
				c1.046,2.582,2.714,4.909,3.742,7.5c0.595,1.493,0.597,4.993,2.802,3.88c-0.99-4.911-4.679-9.1-6.224-13.819
				c-0.836-2.55-0.679-5.368-1.037-8.012c-1.154-8.531-2.326-16.972-5.766-24.978c-0.429,0.183-0.777,0.162-1.14,0.445"/>
		</g>
	</g>
	<g>
		<g>
			<path fill="#231F20" d="M364.573,244.086c0.006,0.666-0.353,1.994-0.35,2.66c0.003,0.396,4.492,0.912,5.116,0.941
				c4.143,0.185,8.214,0.565,12.309,1.221c7.745,1.239,15.571,2.313,23.01,4.783c6.254,2.076,10.736,5.95,16.503,8.798
				c2.667,1.317,5.213,2.875,6.706,5.622c0.673,1.241,1.445,2.526,1.633,3.919c0.299,0.21,1.467-0.099,1.866-0.151
				c-0.802-5.943-4.806-8.11-9.819-10.644c-5.375-2.717-9.126-7.341-14.959-9.327c-13.414-4.568-27.755-7.771-41.985-7.67"/>
		</g>
	</g>
	<g>
		<g>
			<path fill="#231F20" d="M399.176,278.252c0.956,2.41,3.572-0.765,4.987-1.617c2.326-1.398,4.783-2.562,7.452-3.118
				c2.336-0.487,4.738-0.696,7.116-0.574c1.762,0.092,6.876,1.697,6.521-0.953c-10.001-1.375-18.063-0.087-26.239,6.077"/>
		</g>
	</g>
	<g>
		<g>
			<path fill="#231F20" d="M429.016,273.026c-3.625,0.563-7.239,1.226-10.883,1.665c-0.601,0.072-4.316,0.121-4.281,0.53
				c0.055,0.664-0.129,1.874-0.072,2.537c10.382-0.873,20.593-3.5,30.971-4.434c5.053-0.453,10.128-0.702,15.176-0.125
				c2.487,0.281,5.017,0.463,7.426,1.134c2.013,0.56,1.589,0.081,2.148-1.668c-13.118-4.162-27.216-1.789-40.497,0.271"/>
		</g>
	</g>
	<g>
		<g>
			<path fill="#231F20" d="M466.089,274.413c5.97,0.902,11.351,4.678,16.529,7.596c2.744,1.546,5.794,2.229,8.832,3.005
				c2.504,0.661,2.32,1.331,3.026-1.145c-4.353-1.15-8.365-2.457-12.302-4.678c-4.97-2.803-9.965-6.085-15.73-6.954
				c-0.11,0.734-0.279,1.465-0.392,2.199"/>
		</g>
	</g>
	<g>
		<g>
			<path fill="#231F20" d="M458.353,301.343c5.864,4.484,13.388,5.229,20.547,5.178c3.802-0.027,7.613-0.727,11.416-0.602
				c0.597,0.018,4.591,0.805,4.635,0.439c0.085-0.66-0.146-1.008-0.061-1.667c-7.199-0.904-14.391-0.022-21.602-0.568
				c-3.448-0.261-6.786-1.287-9.905-2.819c-2.716-1.334-2.833-2.729-4.751-0.245"/>
		</g>
	</g>
	<g>
		<g>
			<path fill="#231F20" d="M460.076,299.751c-7.825,3.157-16.159,4.377-24.353,6.302c-3.33,0.781-6.542,2.123-9.824,3.077
				c-3.241,0.945-6.46,2.083-9.826,2.406c-0.618,0.06-4.021-0.029-4.034,0.297c-0.023,0.665-0.665,1.745-0.689,2.409
				c10.276,0.395,20.022-4.733,29.888-7.049c5.444-1.276,11.198-1.878,16.401-3.971c2.023-0.815,3.897-1.991,5.924-2.801
				c1.714-0.688,3.594-1.031,5.447-1.182c0.23-0.341-0.163-1.97-0.201-2.408c-3.084,0.25-6.137,1.243-8.931,2.472"/>
		</g>
	</g>
	<g>
		<g>
			<path fill="#231F20" d="M433.486,263.26c-1.361,0.006-2.717,0.301-4.078,0.306c-1.066,0.005-0.587,0.888-0.614,1.803
				c3.86-0.017,7.759-0.276,11.604,0.057c3.344,0.287,6.563,1.358,9.552,2.882c0.577,0.295,3.805,2.42,3.988,2.164
				c0.389-0.541,0.833-1,1.224-1.541c-6.633-4.733-13.728-5.99-21.681-5.816"/>
		</g>
	</g>
	<g>
		<g>
			<path fill="#231F20" d="M495.453,286.127c2.434,4.633,3.652,8.597,1.67,13.635c-0.775,1.969-1.63,4.699-3.524,5.91
				c-1.635,1.049-3.861-0.961-4.308,1.333c5.378,2.761,8.287-3.815,9.642-7.82c1.697-5.009,0.286-9.28-2.081-13.791
				c-0.414,0.213-1.084,0.433-1.422,0.742"/>
		</g>
	</g>
	<g>
		<g>
			<path fill="#231F20" d="M484.17,307.877c6.244,3.85,10.023,5.357,17.186,2.648c-0.154-0.406-0.42-1.825-0.772-2.026
				c-1.95,0.738-4.043,1.674-6.162,1.703c-3.344,0.049-6.342-2.665-9.043-4.327c-0.392,0.633-0.951,1.3-1.344,1.933"/>
		</g>
	</g>
	<g>
		<g>
			<path fill="#231F20" d="M529.408,272.042c9.22,7.021,5.955,24.655-3.965,29.356c-3.929,1.862-8.33,3.196-12.499,4.457
				c-3.299,0.997-6.59,2.007-9.96,2.77c-1.967,0.444-4.02,0.498-6.036,0.595c-0.242,0.337,0.14,2.48,0.163,2.923
				c6.456-0.311,12.537-3.267,18.664-5.12c4.588-1.388,9.735-2.075,13.658-4.959c9.089-6.686,10.966-24.795,1.502-32
				c-0.455,0.589-0.959,1.224-1.411,1.814"/>
		</g>
	</g>
	<g>
		<g>
			<path fill="#231F20" d="M531.194,272.113c-7.305,0.767-13.598,3.306-20.331,6.032c-6.068,2.457-13.429,2.057-18.935,5.732
				c0.257,0.381,0.714,1.447,1.122,1.594c2.344-1.565,5.25-2.057,7.983-2.553c3.845-0.699,7.541-1.118,11.149-2.579
				c3.225-1.305,6.259-3.122,9.556-4.243c5.319-1.811,10.819-1.709,16.218-3.059c-0.102-0.408-0.128-1.727-0.446-1.947
				c-2.061,0.517-4.232,0.564-6.343,0.783"/>
		</g>
	</g>
	<g>
		<g>
			<path fill="#231F20" d="M485.248,279.051c1.834,1.68,1.307,1.476,3.181-0.395c2.456-2.452,5.19-4.667,8.126-6.541
				c1.871-1.193,4.109-2.589,6.415-2.501c0.604,0.022,2.811,1.14,2.825,1.125c0.527-0.412,1.104-0.67,1.629-1.082
				c-6.068-7.652-18.299,4.94-22.382,9.354"/>
		</g>
	</g>
	<g>
		<g>
			<path fill="#231F20" d="M502.929,268.912c1.81,2.073,3.494,4.614,3.854,7.387c0.364,2.814-1.064,2.945,1.682,4.198
				c2.055-4.467-0.834-9.771-3.761-13.121c-0.565,0.487-1.028,0.923-1.594,1.409"/>
		</g>
	</g>
	<g>
		<g>
			<path fill="#231F20" d="M193.081,268.402c2.171,0.216,4.221,1.509,5.235,3.443c0.936,1.782-0.513,3.74,1.914,4.273
				c2.486-4.438-2.902-9.144-6.962-9.55c-0.055,0.557-0.267,1.232-0.172,1.777"/>
		</g>
	</g>
</g>
<g>
	<g>
		<path fill="#231F20" d="M176.236,273.042c7.607,2.389,15.242,3.728,23.214,3.728c0.682-2.446-1.239-2.266-3.049-2.312
			c-2.645-0.066-5.296-0.018-7.919-0.385c-2.547-0.356-5.059-0.924-7.543-1.588c-1.835-0.49-4.583-2.428-4.682,0.537"/>
	</g>
</g>
<g>
	<g>
		<path fill="#231F20" d="M192.297,283.597c-4.981,1.784-9.036,0.505-14.07,0.895c-0.347,1.749,0.15,1.771,1.631,1.822
			c2.711,0.091,5.397,0.713,8.121,0.443c2.186-0.218,4.188-1.224,6.248-1.917c1.637-0.555,3.298-0.277,2.253-2.421
			c-1.438,0.249-2.814,0.688-4.185,1.178"/>
	</g>
</g>
<g>
	<g>
		<path fill="#231F20" d="M181.529,278.398c3.347,0.864,6.923,0.42,10.196,1.528c2.411,0.815,3.408,5.046,5.656,3.258
			c-1.409-3.387-3.941-5.225-7.535-5.668c-1.768-0.22-3.572-0.039-5.345-0.223c-1.702-0.177-2.935-1.223-2.877,1.141"/>
	</g>
</g>
<g>
	<g>
		<path fill="#231F20" d="M181.27,286.357c0.504,6.515,4.686,9.025,10.309,11.264c1.36-1.745,0.095-1.954-1.418-2.598
			c-1.6-0.682-3.191-1.531-4.479-2.726c-1.189-1.099-2.002-2.487-2.333-4.054c-0.322-1.52-0.114-2.644-2.11-1.901"/>
	</g>
</g>
<g>
	<g>
		<path fill="#231F20" d="M188.223,287.131c0.832,2.257,3.33,3.344,4.181,5.491c0.836,2.12-2.609,3.407,0.244,4.67
			c1.829-2.168,2.464-4.635,0.555-6.927c-1.29-1.551-2.787-4.832-4.9-3.276"/>
	</g>
</g>
<g>
	<g>
		<path fill="#231F20" d="M186.3,252.627c0.223,2.846,7.323,0.22,8.676-0.769c3.827-2.792,4.11-7.588,0.819-10.925
			c-2.453,1.316,0.172,2.378,0.533,4.288c0.571,3.034-2.113,5.655-4.818,6.419c-1.676,0.475-3.46,0.882-3.46-1.193
			c0-1.585,0.233-3.166,0.344-4.747c0.143-2.007,1.865-6.569-1.385-6.071c-0.504,4.299-0.857,8.663-0.647,12.995"/>
	</g>
</g>
<g>
	<g>
		<path fill="#231F20" d="M181.43,248.334c-3.38,1.321-8.136,3.211-9.873,6.743c-0.877,1.776-0.297,3.125,0.761,4.613
			c1.831,2.58-0.065,3.919-0.204,6.562c-0.233,4.4,2.001,5.28,4.015,8.646c2.409,4.021-1.084,10.212,3.896,12.866
			c1.726-1.748,0.09-2.158-0.563-3.716c-0.971-2.32-0.27-4.954-0.85-7.372c-0.978-4.077-6.464-6.433-4.791-11.169
			c0.924-2.626,1.663-4.334-0.09-6.809c-1.517-2.135-0.95-3.707,1.102-5.091c3.291-2.22,7.197-3.463,10.852-5
			c-0.833-2.614-2.168-0.818-4.145,0.013"/>
	</g>
</g>
<g>
	<g>
		<path fill="#231F20" d="M190.446,237.767c-2.441,0.688-4.722,1.986-5.974,4.251c1.578,1.577,1.736,0.217,2.951-0.808
			c1.609-1.354,3.769-1.922,5.825-2.147c2.397-0.265,4.855,0.07,7.155,0.813c1.504,0.484,2.362,1.218,2.865-0.884
			c-3.732-2.112-8.797-2.563-12.878-1.417"/>
	</g>
</g>
<g>
	<g>
		<path fill="#231F20" d="M200.92,145.975c-5.621,4.113-10.95,8.475-14.313,14.619c-5.859,10.701-6.813,23.289-6.422,35.188
			c0.369,11.197,2.638,21.902,1.768,33.155c-0.376,4.857-0.025,9.807-0.592,14.646c-0.328,2.807-2.126,3.05,0.809,3.465
			c1.121-7.433,1.166-14.998,1.676-22.49c0.711-10.463-0.854-20.633-1.026-31.063c-0.187-11.496,1.481-22.877,7.654-32.958
			c3.405-5.558,7.927-9.543,13.1-13.387c-0.717-0.931-1.659-2.771-2.74-1.331"/>
	</g>
</g>
<g>
	<g>
		<g>
			<path fill="#231F20" d="M249.16,202.833c2.524,1.621-4.447,7.511-6.258,7.656c-2.794,0.229-4.605-2.415-5.366-4.788
				c-0.574-1.794,0.213-4.195-2.44-3.842c-0.682,4.479,3.118,11.954,8.656,10.361c2.976-0.857,11.149-7.898,6.404-10.927
				c-0.305,0.47-0.869,1.035-1.038,1.566"/>
		</g>
	</g>
	<g>
		<g>
			<path fill="#231F20" d="M209.223,167.275c2.005,8.54,3.434,17.94,8.812,25.13c3.174,4.247,6.028,9.236,10.604,12.124
				c2.014,1.269,4.113,2.454,5.817,4.133c1.626,1.604,0.52,1.796,2.333,0.331c-2.965-3.627-6.375-4.798-9.701-7.982
				c-3.11-2.982-5.605-6.822-8.022-10.396c-4.763-6.201-5.36-16.639-7.104-24.081c-0.723,0.191-1.765,0.62-2.486,0.811"/>
		</g>
	</g>
	<g>
		<g>
			<path fill="#231F20" d="M261.851,190.667c-1.478,1.919-3.184,3.188-5.645,3.568c-1.972,0.304-4.385-0.958-6.216-0.438
				c0.023,2.902,6.293,1.988,8.048,1.472c1.845-0.542,7.482-4.234,5.783-6.479c-0.88,0.319-1.434,1.169-1.978,1.874"/>
		</g>
	</g>
	<g>
		<g>
			<path fill="#231F20" d="M220.277,189.98c0.301,0.093,0.772,1.072,0.947,1.298c1.143,1.474,2.89,2.821,4.718,3.27
				c1.402,0.342,6.627,0.291,4.894-2.182c-1.729,0.648-3.507,1.159-5.304,0.394c-2-0.851-2.992-3.685-4.763-4.271
				c-0.149,0.44-0.461,0.973-0.491,1.432"/>
		</g>
	</g>
	<g>
		<g>
			<path fill="#231F20" d="M253.289,191.059c-1.808,0.75-3.479,0.799-5.286,1.549c0.466,2.692,5.459-0.953,7.275-1.55
				c2.559-0.842,5.203-1.428,7.809-2.115c1.458-0.386,4.326-0.183,3.378-2.288C262.068,187.199,257.421,189.516,253.289,191.059"/>
		</g>
	</g>
	<g>
		<g>
			<path fill="#231F20" d="M253.652,188.697c-1.507,0.708-5.854,1.215-4.478,3.339c3.632-1.093,6.879-3.197,10.45-4.46
				c1.609-0.568,3.348-0.965,5.072-0.84c1.39,0.102,2.457,1.125,2.862-0.807c-4.375-2.341-9.94,0.929-13.896,2.786"/>
		</g>
	</g>
	<g>
		<g>
			<path fill="#231F20" d="M216.423,185.236c6.296,2.024,11.752,6.23,18.434,7.196c1.011-2.287-4.897-2.913-6.667-3.646
				c-3.792-1.569-7.383-3.725-11.301-4.98c-0.14,0.438-0.449,0.954-0.466,1.408"/>
		</g>
	</g>
	<g>
		<g>
			<path fill="#231F20" d="M218.828,187.694c3.39,3.466,9.602,4.433,14.222,4.438c0.539-1.847-0.717-1.063-2.051-1.172
				c-1.995-0.162-3.794-0.439-5.722-0.981c-1.851-0.52-4.161-1.775-5.53-3.177c-1.167-1.192-0.586-3.525-2.671-2.966
				c-0.038,1.491,0.579,2.93,1.616,3.988"/>
		</g>
	</g>
	<g>
		<g>
			<path fill="#231F20" d="M235.11,191.745c-0.602,2.064,1.726,1.54,2.513,3.242c0.74,1.602-0.388,4.705,1.964,4.456
				c0.571-3.081-0.6-7.698-4.502-7.676"/>
		</g>
	</g>
	<g>
		<g>
			<path fill="#231F20" d="M283.849,149.249c-0.898,0.197-1.784,0.648-2.236,1.445c1.399,0.79,1.364,0.682,2.648,0.393
				c2.26-0.484,0.341,4.25,0.026,5.101c-1.019,2.756-2.563,5.401-4.385,7.711c-1.494,1.894-1.545,1.627,0.093,3.307
				c1.758-1.7,12.874-20.032,3.837-18.021"/>
		</g>
	</g>
	<g>
		<path fill="#231F20" enable-background="new    " d="M208.646,125.935"/>
	</g>
	<g>
		<g>
			<path fill="#231F20" d="M220.641,166.166c0.246,12.865,13.923,20.387,25.178,22.369c1.383-2.807-3.448-2.368-5.375-3.008
				c-3.681-1.223-7.306-3.012-10.371-5.4c-2.58-2.011-4.897-4.611-6.279-7.592c-0.944-2.039-0.324-7.26-3.177-6.382"/>
		</g>
	</g>
	<g>
		<g>
			<path fill="#231F20" d="M242.002,178.129c5.461,3.031,10.979,5.104,17.31,4.638c-0.51-1.859-1.184-3.825-2.551-5.244
				c-2.059,1.066-0.665,1.994,0,3.551c-3.17-0.021-6.302-0.901-9.199-2.14c-1.81-0.774-4.865-3.787-5.589-0.744"/>
		</g>
	</g>
	<g>
		<g>
			<path fill="#231F20" d="M262.698,167.406c1.179,3.184-0.969,3.62-3.646,3.069c-2.171-0.447-6.765-3.786-7.271-0.546
				c3.107,1.396,13.628,5.695,12.658-1.429c3.708,1.381,7.521,2.357,11.497,1.553c0.224-3.019-3.781-1.309-5.929-1.764
				c-2.811-0.595-5.477-1.88-8.16-2.888c0.235,0.635,0.445,1.432,0.679,2.066"/>
		</g>
	</g>
	<g>
		<g>
			<path fill="#231F20" d="M279.745,161.517c-0.644,1.546-1.412,2.993-1.333,4.693c-2.479-0.511-4.687-1.516-6.868-2.773
				c-1.657-0.955-1.395-0.215-2.292,1.23c3.848,2.369,7.703,3.941,12.202,4.429c-0.955-2.398-0.802-4.389,0.195-6.772
				c-0.219-0.606-1.25-1.132-1.873-0.771"/>
		</g>
	</g>
	<g>
		<g>
			<path fill="#231F20" d="M227.878,106.073c-13.854,5.189-24.216,19.959-21.596,34.982c0.816-0.139,2.067,0.093,1.936-0.84
				c-0.166-1.184,0.254-2.366,0.28-3.559c0.07-3.052,0.716-5.922,1.648-8.826c2.431-7.556,6.694-14.724,13.707-18.544
				c9.36-5.098,21.139-5.421,31.306-2.654c4.821,1.314,8.989,4.264,13.169,7.001c1.918,1.256,3.737,2.496,5.411,4.061
				c1.2,1.121,1.245,0.208,2.293-0.837c-12.257-12.2-32.177-17.575-48.422-11.491"/>
		</g>
	</g>
	<g>
		<g>
			<path fill="#231F20" d="M216.752,170.743c0.418,1.027,0.86,1.927,1.28,2.953c0.236-1.466,0.306-2.937,0.708-4.371
				c0.513-1.848,2.836-3.349,0.377-4.463c-0.65,0.751-1.2,1.605-1.579,2.517c-0.772-2.399-1.146-5.004-0.57-7.51
				c0.358-1.571,1.224-2.627-0.987-3.112c-2.411,4.383-0.867,9.606,0.898,13.935"/>
		</g>
	</g>
	<g>
		<g>
			<path fill="#231F20" d="M209.349,162.638c1.393,2.565,3.644,4.782,6.543,5.516c1.424-2.407-1.877-2.858-3.272-4.415
				c-2.139-2.389-3.144-5.593-3.622-8.69c-0.484-3.142-0.587-6.361-0.192-9.516c0.244-1.942,2.361-5.024-0.567-5.169
				c-2.32,6.765-2.456,15.988,0.999,22.334"/>
		</g>
	</g>
	<g>
		<g>
			<path fill="#231F20" d="M206.39,158.596c1.363,2.688,0.78,3.788,3.731,3.269c-0.555-3.13-3.027-5.679-3.588-8.816
				c-0.21-1.17-0.044-2.303,0.978-2.996c-0.042-0.514-0.935-1.441-1.234-1.88c-3.809,2.586-1.522,7.235,0.099,10.431"/>
		</g>
	</g>
	<g>
		<g>
			<path fill="#231F20" d="M239.412,182.602c0.775,2.726,2.772,4.798,4.833,6.637c2.017-2.237,0.793-1.899-1.055-4.141
				c-1.851-2.242-0.904-3.298-3.821-2.478"/>
		</g>
	</g>
	<g>
		<g>
			<path fill="#231F20" d="M254.208,103.16c1.676,2.402,1.9,1.397,4.579,0.542c3.279-1.042,7.044-0.851,10.304,0.021
				c5.777,1.546,10.776,4.976,16.102,7.563c9.558,4.644,24.704,6.779,31.769-3.231c-2.262-1.581-1.406-0.821-3.399,0.937
				c-1.919,1.695-4.218,2.861-6.704,3.418c-5.658,1.263-11.653-0.115-17.055-2.019c-10.531-3.716-23.562-14.26-34.871-6.459"/>
		</g>
	</g>
	<g>
		<g>
			<path fill="#231F20" d="M317.669,110.009c0.179-0.458-1.311-0.928-1.743-1.086c-0.115-0.042-2.5,4.198-3.007,4.765
				c0.692,3.359,4.154-0.665,5.078-1.276c3.148-2.083,7.278-4.261,11.151-3.577c2.517,0.447,4.467,2.686,6.365,4.252
				c0.32-0.423,1.591-1.549,1.143-1.917c-1.123-0.931-2.4-1.703-3.568-2.577c-4.696-3.516-10.91-1.246-15.389,1.46"/>
		</g>
	</g>
	<g>
		<g>
			<path fill="#231F20" d="M325.698,114.36c-1.533,1.384-3.131,2.69-4.984,3.636c-1.737,0.885-1.092,1.003-0.432,2.667
				c3.988-1.562,6.516-4.718,9.992-6.98c1.752-1.14,3.649-1.758,5.73-1.617c1.892,0.128,1.472-0.434,1.743-2.152
				c-4.914-0.771-8.523,1.268-12.048,4.45"/>
		</g>
	</g>
	<g>
		<g>
			<path fill="#231F20" d="M310.322,115.407c0.015,0.666-0.022,1.48-0.006,2.146c0.009,0.354,4.13,0.127,4.81,0.177
				c2.991,0.221,5.981,1.075,8.583,2.638c2.265,1.363,4.009,3.295,5.045,5.697c0.611,1.417,0.963,2.936,1.277,4.444
				c0.36,0.187,1.8-0.376,2.226-0.463c-2.353-11.371-11.251-14.956-21.926-14.695"/>
		</g>
	</g>
	<g>
		<g>
			<path fill="#231F20" d="M301.701,123.47c-1.026,0.66-1.809,1.687-2.837,2.347c-0.982,0.631-0.244,0.956,0.253,1.859
				c5.436-3.487,9.58-6.325,16.417-5.143c3.54,0.612,7.405,1.729,10.247,4c1.348,1.078,2.511,2.64,2.928,4.341
				c0.321,1.318,0.621,0.766,1.92,0.632c-0.586-5.678-6.088-9.009-11.002-10.447c-6.458-1.89-12.379-1.568-17.964,2.357"/>
		</g>
	</g>
	<g>
		<g>
			<path fill="#231F20" d="M279.96,125.876c2.276,4.601,4.529,9.329,5.318,14.446c0.414,2.709,0.248,5.412-0.268,8.105
				c-0.385,2.017,0.283,1.578,2.072,2.023c2.294-9.128-0.915-17.561-4.926-25.662c-0.667,0.328-1.236,0.637-1.905,0.964"/>
		</g>
	</g>
	<g>
		<g>
			<path fill="#231F20" d="M288.264,133.867c0.071,0.74,0.15,1.614,0.222,2.354c9.026-0.865,15.517-7.14,15.726-16.353
				c-1.502-0.035-2.058-0.612-2.188,1.019c-0.181,2.289-0.819,4.532-2.027,6.501c-2.517,4.099-7.087,6-11.734,6.444"/>
		</g>
	</g>
	<g>
		<g>
			<path fill="#231F20" d="M289.356,143.76c18.815,6.059,20.564,29.442,15.833,45.376c-1.924,6.485-4.884,13.249-10.374,17.543
				c-3.504,2.741-8.191,3.507-12.581,4.098c-2.889,0.387-5.801,0.85-8.701,0.604c-2.089-0.179-6.811-3.13-6.557,0.121
				c10.297,2.047,21.809,2.489,29.985-4.931c5.108-4.639,8.118-10.974,10.02-17.437c4.954-16.832,2.48-40.67-17.09-46.971
				c-0.172,0.528-0.428,0.76-0.446,1.313"/>
		</g>
	</g>
	<g>
		<g>
			<path fill="#231F20" d="M284.208,187.077c-2.078,0.798-7.068,2.113-6.596,3.574c0,0,5.838-1.381,8.629-2.408
				c2.019-0.742,6.47-0.299,5.601-3.176c-2.696,0.046-5.193,0.947-7.675,1.902"/>
		</g>
	</g>
</g>
<g>
	<g>
		<path fill="#231F20" d="M307.037,127.814c11.4,4.771,23.032,9.305,33.759,15.49c6.739,3.887,12.189,8.899,17.288,14.718
			c1.585,1.81,2.034,5.107,4.551,3.597c-0.996-2.643-3.259-4.915-5.106-6.915c-5.663-6.124-11.329-11.313-18.728-15.235
			c-7.36-3.901-15.097-7.165-22.814-10.286c-2.122-0.873-8.01-4.554-8.654-1.12"/>
	</g>
</g>
<g>
	<g>
		<path fill="#231F20" d="M352.425,149.189c9.22,13.814,15.413,28.647,20.556,44.421c4.034,12.378,6.826,25.12,9.943,37.756
			c0.953,3.866,2.294,7.635,3.158,11.519c0.449,2.019,0.528,3.275,2.95,2.419c-4.137-19.733-10.768-39.03-17.329-58.092
			c-3.262-9.468-5.808-19.336-10.621-28.148c-1.31-2.401-2.968-4.609-4.478-6.891c-1.148-1.742-1.843-4.744-3.972-2.72"/>
	</g>
</g>
<g>
	<g>
		<path fill="#231F20" d="M338.243,229.725c-1.456,3.915-3.687,7.65-6.255,10.952c-1.173,1.507-2.702,2.273-0.56,3.643
			c6.029-5.998,8.723-14.617,11.537-22.395c3.334-9.217,6.87-18.554,9.528-27.993c-2.524-1.514-2.987,1.997-3.567,3.802
			c-1.157,3.605-2.227,7.24-3.472,10.817c-2.451,7.039-4.89,14.085-7.49,21.071"/>
	</g>
</g>
<g>
	<g>
		<path fill="#231F20" d="M336.803,227.432c2.304,6.36,4.722,12.677,7.026,19.036c2.119-0.413,1.759-0.807,1.165-2.444
			c-0.886-2.447-1.889-4.854-2.776-7.302c-0.92-2.538-1.931-5.045-2.853-7.583c-0.653-1.801-0.283-2.754-2.402-1.654"/>
	</g>
</g>
<g>
	<g>
		<path fill="#231F20" d="M196.213,186.689c3.6,7.754,6.703,15.858,11.081,23.219c3.539,5.952,8.564,10.845,13.382,15.778
			c2.443,2.504,4.699,5.172,7.025,7.788c1.219,1.371,2.288,3.784,3.964,1.58c-7.541-10.008-18.046-17.22-24.161-28.376
			c-3.676-6.707-5.99-14.155-9.212-21.087c-0.503,0.267-1.316,0.852-1.733,1.234"/>
	</g>
</g>
<g>
	<g>
		<path fill="#231F20" d="M221.031,228.347c0,0.693-0.598,7.976,1.862,5.598c0.413-0.399,0.032-3.318,0.032-3.907
			c0-1.497,0.048-2.218-1.871-1.686"/>
	</g>
</g>
<g>
	<g>
		<path fill="#231F20" d="M266.63,241.424c2.854,3.6,6.611,6.209,10.358,8.775c1.275,0.873,3.926,3.787,4.771,1.341
			c-2.065-1.416-4.084-2.849-6.15-4.262c-1.795-1.226-3.536-2.532-5.145-3.995c-1.163-1.057-2.463-3.784-3.889-1.832"/>
	</g>
</g>
<g>
	<g>
		<path fill="#231F20" d="M263.04,242.092c-1.527,6.022,8.817,14.154,12.913,17.439c1.921-1.323-0.676-2.418-1.769-3.445
			c-2.14-2.006-4.063-4.222-5.912-6.498c-1.414-1.744-3.463-3.77-3.786-6.073c-0.341-2.419,3.268-1.928,2.144-4.108
			c-1.488,0.287-3,1.164-3.4,2.735"/>
	</g>
</g>
<g>
	<g>
		<path fill="#231F20" d="M260.076,236.735c2.961,2.579,6.741,4.018,10.377,5.352c1.389,0.525,3.86,2.298,4.092-0.108
			c-1.943-0.741-3.967-1.483-5.908-2.232c-1.969-0.757-3.956-1.52-5.75-2.637c-1.2-0.745-2.019-2.111-2.884-0.275"/>
	</g>
</g>
<g>
	<g>
		<path fill="#231F20" d="M257.241,238.698c1.835,0.715,1.176-0.72,2.234-1.522c1.087-0.827,2.502,0.078,2.068-1.907
			c-2.23-0.161-4.119,1.13-4.31,3.43"/>
	</g>
</g>
<g>
	<g>
		<path fill="#231F20" d="M270.437,240.642c-0.456,2.248,3.046,1.359,4.542,2.785c1.393,1.329,2.386,3.148,3.455,4.743
			c1.449,2.163,3.53,3.344,5.498,4.991c1.612,1.349,1.46,4.727,3.393,4.562c1.052-5.118-5.404-7.233-7.777-10.777
			c-2.338-3.496-4.329-6.791-9.182-6.397"/>
	</g>
</g>
<g>
	<g>
		<path fill="#231F20" d="M282.028,250.65c1.731,0.686,3.498,1.289,5.224,1.979c1.475,0.589,5.067,3.14,5.413,0.538
			c-1.708-0.684-3.445-1.387-5.155-2.063c-1.477-0.587-5.202-3.161-5.515-0.534"/>
	</g>
</g>
<g>
	<g>
		<path fill="#231F20" d="M266.452,241.831c2.01,1.21-0.096,4.091,2.395,4.086c0.574-1.945,0.228-4.224-1.638-5.344
			c-0.238,0.395-0.679,0.878-0.802,1.318"/>
	</g>
</g>
<g>
	<g>
		<path fill="#231F20" d="M279.487,171.029c-1.171,13.933-6.262,26.927-16.327,37.075c-3.826,3.857-7.936,9.094-13.735,8.812
			c-2.836-0.139-5.712-1.705-7.888-3.513c-1.329-1.104-2.51-2.21-3.674-3.478c-0.396,0.018-0.972,0.885-1.287,1.172
			c4.664,5.064,11.037,9.536,18.252,6.939c5.394-1.943,10.146-8.116,13.613-12.53c5.032-6.405,8.861-13.739,10.744-21.664
			c0.801-3.374,1.186-6.789,1.524-10.236c0.274-2.782,1.256-3.544-1.583-3.79c-0.026,0.299,0.416,0.917,0.389,1.216"/>
	</g>
</g>
<g>
	<g>
		<path fill="#231F20" d="M252.795,209.416c-2.011,0.736-4.034,1.146-6.142,1.597c-2.07,0.442-6.07-0.721-5.649,2.231
			c3.829,0.522,7.582-0.498,11.14-1.801c2.131-0.78,6.898-2.486,6.299-3.8C258.444,207.644,254.608,208.673,252.795,209.416"/>
	</g>
</g>
<g>
	<g>
		<path fill="#231F20" d="M244.598,213.889c-0.325,0.351-0.23,1.28-0.659,1.211c5.97,0.971,10.614-2.018,12.452-4.891
			c-1.795-0.886-2.583,0.487-3.987,1.638c-2.677,2.192-5.524,2.356-7.825,2.049"/>
	</g>
</g>
</svg>
