<?xml version="1.0" encoding="utf-8"?>
<!-- Generator: Adobe Illustrator 15.0.0, SVG Export Plug-In . SVG Version: 6.00 Build 0)  -->
<!DOCTYPE svg PUBLIC "-//W3C//DTD SVG 1.1 Basic//EN" "http://www.w3.org/Graphics/SVG/1.1/DTD/svg11-basic.dtd">
<svg version="1.1" baseProfile="basic" id="Layer_1"
	 xmlns="http://www.w3.org/2000/svg" xmlns:xlink="http://www.w3.org/1999/xlink" x="0px" y="0px" width="720px" height="450px"
	 viewBox="0 0 720 450" xml:space="preserve">
<path fill="#F1F2DA" d="M672.063,435.043c-12.082-21.535-38.343-57.781-42.545-59.355c-4.204-1.576-56.202-1.051-100.322-1.051
	c-44.121,0-376.598,0-397.083-0.525c-20.484-0.521-23.636-1.575-33.09,9.453c-9.455,11.032-36.766,51.479-36.766,51.479H672.063z"/>
<path fill="#D3D7B8" d="M229.807,395.12c-13.581,2.341-32.015-0.97-44.539,4.836c-0.042-0.063-0.037,1.939-0.025,1.917
	c17.745,2.797,36.306,3.504,54.516,4.163c12.053,0.437,23.085-1.52,34.307-0.364c18.684,1.917,36.503,6.038,55.525,6.785
	c17.983,0.707,36.879,5.838,54.652,4.726c8.922-0.56,12.232-1.998,19.946-4.728c23.904-8.466,40.731-11.655,66.18-10.505
	c13.598,0.615,41.908-0.696,55.346-1.983c16.073-1.538,29.294-0.709,29.744-6.944c0.443-6.237-61.5-6.896-89.816-9.456
	c-54.165-4.893-108.973,2.874-163.352,1.052c-16.098-0.54-67.144-5.502-76.684,12.606"/>
<path fill="#5D4530" d="M350.021,59.296c0,0,9.652,5.515,12.015,15.363c2.363,9.848,0.788,21.075,2.167,26.196
	s3.94,7.878,10.636,7.288c6.697-0.591,7.288-2.363,7.288-2.363s-1.379,28.166-29.348,9.455
	C324.81,96.522,340.173,68.16,350.021,59.296z"/>
<path fill="#0090C0" d="M271.301,136.178c0,0-2.624,8.929-4.199,30.989c-1.576,22.061-0.526,28.363,0,33.616
	c0.523,5.251-3.68,20.484,1.048,29.938c4.728,9.453,4.728,9.453,4.728,9.453s0.527,5.254,4.202,18.907
	c3.676,13.66,2.102,28.891-0.522,38.347c-2.628,9.454-5.254,23.107-6.304,30.988c-1.052,7.877-0.527,37.817-0.527,37.817
	l132.362,4.204c0,0,12.604-29.939,6.301-49.375c-6.301-19.437-14.18-27.837-16.281-45.17c-2.098-17.333-0.522-34.667,0-38.342
	c0.525-3.679,6.828-10.506,6.828-18.384c0-7.88-3.677-16.809-2.102-21.537c1.577-4.727,8.405-17.857,9.98-34.141
	c1.574-16.282-12.605-36.241-12.605-36.241s-23.112-5.778-34.667-5.252C347.987,122.522,289.683,131.451,271.301,136.178z"/>
<path fill="#0090C0" d="M392.632,126.723c0,0,20.484,4.203,28.362,26.788c7.879,22.585,8.933,48.322,11.559,73.008
	c2.624,24.686,2.624,27.837,4.199,31.516c1.576,3.677,4.205,6.828,2.104,9.981c-2.104,3.151-1.576,6.303-1.576,10.503
	s-2.103,20.483-7.355,33.089c-5.25,12.606-12.607,35.194-15.232,37.818c-2.622,2.626-24.16-6.303-24.16-6.303
	s9.454-32.563,9.454-38.867c0-6.303-0.526-11.03,2.102-14.709c2.626-3.675,1.054-7.352,0.527-8.929
	c-0.527-1.574-1.054-5.251-0.527-7.354c0.527-2.098-1.048-22.059-2.102-35.19c-1.051-13.13-4.729-32.565-5.777-39.918
	C393.16,190.804,392.632,126.723,392.632,126.723z"/>
<path fill="#0090C0" d="M283.381,132.502c-8.929,2.101-28.889,6.302-37.292,25.737c-8.402,19.434-5.775,44.646-9.979,76.16
	c-4.203,31.514-7.353,31.514-11.554,35.192c-4.204,3.675,0,4.201,2.099,8.401c2.101,4.204,2.101,12.083,3.676,22.588
	c1.576,10.503,5.778,24.686,5.778,24.686l37.817,27.84l1.576,0.521c0,0-7.353-24.158-8.402-41.491
	c-1.053-17.333-3.152-24.163-4.728-26.788c-1.575-2.628,2.624-2.103,2.624-5.252c0-3.151-1.048-5.255-1.048-8.406
	s3.678-29.938,4.728-39.916C269.725,221.793,283.381,132.502,283.381,132.502z"/>
<path fill="#ECAF8B" d="M295.659,127.25c-9.849,3.545-17.333,2.757-15.758,9.061c1.576,6.303,7.485,27.378,42.544,30.135
	c35.061,2.757,50.227-11.621,56.53-24.227c6.302-12.606,4.727-17.53,4.727-17.53s-23.636-4.136-30.333-12.803
	c-6.696-8.666-8.667-21.075-9.651-28.166c-0.985-7.09-16.938-10.833-24.62,0.592C311.416,95.735,305.507,123.704,295.659,127.25z"/>
<path fill="#ECAF8B" d="M279.901,27.781c-10.439,6.697-10.833,11.819-9.651,23.833c1.182,12.015,3.546,14.378,5.515,22.848
	c1.97,8.469,1.773,12.408,11.818,24.62c10.045,12.212,11.818,21.076,26.589,18.712c14.773-2.363,19.303-15.167,22.849-24.03
	c3.545-8.863,6.499-14.378,6.302-16.545c-0.197-2.167-0.197-2.167-0.197-2.167s6.501-2.167,7.091-10.045
	c0.591-7.879,2.561-14.182-7.485-22.454S279.901,27.781,279.901,27.781z"/>
<path fill="#5D4530" d="M280.492,20.888c0,0-14.576,2.758-16.939,13c-2.364,10.243,6.696,19.696,6.696,19.696
	s-7.09-14.969,9.848-22.06c0,0,3.94,12.606,9.849,16.939c5.91,4.333,11.424,3.939,11.424,3.939l-1.182-4.727l9.454,0.788
	c0,0-4.333-1.182-7.485-7.091c0,0,10.243,7.485,20.878,6.697c0,0-3.938-4.333-4.727-8.272c0,0,4.727,3.545,9.061,5.122
	c4.333,1.575,5.908,9.454,7.484,10.242c1.577,0.788,3.546,0.788,3.546,0.788s-0.394-3.939,2.363-7.091
	c2.757-3.151,6.698-0.788,6.698-0.788s0-19.302-9.455-29.15S311.218,6.312,301.37,9.07
	C291.522,11.827,285.613,16.948,280.492,20.888z"/>
<path fill="#D4A285" d="M340.763,55.16c0.213,4.212,1.952,6.43,2.424,10.604c3.267-2.944,3.866-7.657-0.02-10.112
	c1.59-0.43,2.374-0.708,3.831-0.543c-0.149-0.932-0.878-2.314-0.777-3.042c-1.91,0.086-4.056,0.829-5.458,1.912"/>
<path fill="#F4BF9A" d="M378.187,334.062c-11.423-0.393-28.363-3.151-46.089-1.574c-17.728,1.574-26.787,0.394-36.635,6.697
	c-9.849,6.303-15.758,10.636-17.333,11.816c-1.576,1.182-6.697-1.97-9.848-10.239c-3.152-8.274-2.758-16.939-7.485-16.939
	s-5.909,1.181-6.697-0.789s0.394-2.362-3.151-1.576c-3.545,0.788-5.122-2.756-5.122-2.756s-4.727,1.574-5.909-0.396
	c-1.182-1.968-2.364-3.546-3.939-1.182c-1.575,2.365-4.333,5.517-10.242,5.517c-5.909,0-8.667-1.577-11.424,0.786
	s9.848,54.363,15.363,65.786c5.515,11.426,11.818,8.274,11.818,8.274s7.484-1.972,11.424-5.123s3.151-5.909,11.424-4.333
	c8.272,1.575,10.242,6.696,14.969,8.668c4.728,1.97,20.484,6.303,39.788,9.061c19.303,2.756,16.939,6.3,35.453,7.089
	c18.515,0.788,27.182,1.181,31.909,1.97c4.727,0.788,13.787,1.578,20.484-1.182c6.696-2.758,10.636-6.303,10.636-6.303l2.364-6.303
	c0,0,22.06-3.15,33.09-6.697c11.03-3.546,16.545-5.121,20.483-3.939c3.94,1.182,20.091,4.333,27.576,3.939
	c7.484-0.395,11.424-1.576,11.424-1.576s4.333-12.998,2.757-16.936c-1.575-3.941-5.908-3.941-5.908-3.941s-7.484-4.729-22.849-9.848
	c-15.363-5.12-22.061-5.12-26.786-4.334c-4.728,0.788-22.061,1.97-22.061,1.97L378.187,334.062z"/>
<path fill="#E8B293" d="M434.913,352.183c0,0,5.515-3.938,18.515-1.574c12.999,2.362,14.97,7.091,14.97,7.091l-28.757,1.97
	L434.913,352.183z"/>
<path fill="#B5D1E2" d="M498.336,367.941c0,0,4.333-7.484,11.818-11.028c7.484-3.549,11.424,0,11.818,4.332
	c0.393,4.333,0.393,4.333,0.393,4.333s-6.696,4.726-12.211,4.726C504.639,370.304,498.336,367.941,498.336,367.941z"/>
<path fill="#D9E8F1" d="M507.396,371.092c0,0,11.031-2.758,22.062-7.091c11.029-4.332,16.938-6.695,20.484-2.362
	c3.545,4.332,3.151,23.242-11.817,29.544c-14.97,6.305-22.062,10.244-29.151,8.668c-7.091-1.575-11.03-5.123-11.03-5.123
	s1.183-1.182,7.091-1.575c5.909-0.395,8.666-6.697,7.879-11.816C512.124,376.215,507.396,371.092,507.396,371.092z"/>
<path fill="#FFFFFF" d="M371.096,330.122c1.356,8.449,7.406,27.024,1.178,34.58c3.174,0.752,6.548,1.159,9.792,1.328
	c0.424,8.016-1.204,20.661-4.233,27.931c7.435,2.634,12.736,2.761,20.433,3.504c5.267,0.512,9.814-1.1,7.479,6.588
	c3.282-2.671,8.835-3.18,13.046-2.774c-2.392-10.096-12.634-30.975-8.887-35.218c8.771-9.935,20.065-5.832,29.669-7.337
	c5.813-17.791-57.644-28.994-68.87-28.994"/>
<path fill="#D9E8F1" d="M217.069,319.489c-7.485,1.574-13.394,3.938-14.969,6.301c-1.576,2.364-14.969,10.639-17.333,24.818
	c-2.363,14.182-5.909,37.03,16.545,46.879c22.454,9.847,37.423,5.121,38.999,4.333c1.576-0.789,2.757,4.332,3.152-0.394
	c0.394-4.728,1.969-23.242-5.515-39.788c-7.485-16.545-15.364-27.577-17.333-33.091
	C218.645,323.033,217.069,319.489,217.069,319.489z"/>
<path fill="#B5D1E2" d="M184.636,380.413c20.024,15.337,36.462,16.021,56.749,10.678c0.673,3.166,1.179,7.254,1.472,10.271
	c-20.983,1.149-42.844,5.641-55.069-14.644"/>
<path fill="#B5D1E2" d="M529.195,394.073c-9.824,1.489-22.015-3.29-29.49,2.64c2.684,0.78,5.78,2.905,9.268,3.138
	c5.023,0.332,10.571-1.555,14.444-2.626"/>
<path fill="#D7DADE" d="M380.025,387.771c8.725,2.785,35.193,3.151,35.193,3.151s2.527,5.828,3.491,9.375
	c-4.528-0.151-9.092,0.315-13.394,1.049c-0.77-6.274-21.203-6.305-27.838-7.354c0.014-0.088-0.13-1.523-0.13-1.526
	c1.291-0.993,0.856-1.747,1.629-3.118"/>
<g>
	<g>
		<g>
			<g>
				<path d="M383.997,120.553c0.278,25.364-20.228,41.459-43.628,45.302c-13.722,2.252-29.179,0.44-41.085-6.882
					c-6.04-3.713-11.647-8.629-15.268-14.767c-1.608-2.725-3.195-5.685-3.971-8.754c-0.467-1.856,0.114-7.497-2.456-6.691
					c0.862,30.568,38.534,42.844,64.032,37.872c23.414-4.565,43.526-20.765,43.249-46.083c-0.487,0.005,0.068-0.141-0.396-0.005"/>
			</g>
		</g>
		<g>
			<g>
				<path d="M277.866,132.633c-10.383,3.968-21.538,7.542-28.466,16.719c-9.228,12.22-11.056,30.163-12.693,44.882
					c-1.259,11.33-1,22.796-1.699,34.175c-0.394,6.447-2.599,12.679-3.47,19.081c-0.523,3.854-0.44,7.75-1.205,11.562
					c-0.433,2.165,0.192,4.481-0.309,6.635c0.303,0.351,1.977,0.548,2.456,0.66c6.881-29.483,3.754-60.462,9.585-90.147
					c1.563-7.958,5.135-15.774,9.688-22.607c4.51-6.768,10.063-13.304,17.413-16.579c11.53-5.14,27.089-5.97,35.368-16.304
					c-1.275-1.023-1.845-2.144-3.044-0.822c-2.006,2.211-3.984,4.286-6.554,5.786C289.702,128.731,283.539,130.556,277.866,132.633"
					/>
			</g>
		</g>
		<g>
			<g>
				<path d="M223.66,274.072c-0.059,3.157,2.908,4.936,5.587,5.863c0.867-2.506,0.793-1.665-1.398-3.082
					c-2.356-1.52-1.741-3.881-0.291-5.881c1.77-2.442,4.262-4.502,6.887-5.94c2.444-1.342,2.864-0.623,2.039-3.343
					c-4.881,1.483-12.523,6.674-12.628,12.385"/>
			</g>
		</g>
		<g>
			<g>
				<path d="M225.825,273.813c0.199,13.994,3.268,27.771,6.656,41.309c0.687-0.171,1.252-0.227,1.938-0.396
					c0.414-0.105-1.236-5.874-1.424-6.693c-1.12-4.919-2.232-9.854-3.01-14.837c-0.678-4.374-1.165-8.792-1.448-13.206
					c-0.132-2.067,0.286-4.192,0.257-6.264c-0.298-0.261-2.296,0.073-2.729,0.081"/>
			</g>
		</g>
		<g>
			<g>
				<path d="M341.68,78.811c1.175,7.579,2.535,15.333,4.718,22.703c3.376,11.407,11.525,16.447,22.682,19.871
					c14.963,4.591,35.856,5.515,44.936,20.358c4.854,7.942,7.914,17.624,10.146,26.566c2.622,10.519,2.322,21.728,3.786,32.461
					c2.65,19.479,3.654,39.155,7.479,58.465c2.652-0.527,2.295-0.36,1.842-2.919c-0.848-4.759-1.084-9.599-1.689-14.392
					c-1.433-11.361-2.785-22.708-4.159-34.078c-2.499-20.674-3.509-43.718-12.426-62.777c-7.547-16.133-24.707-18.355-40.807-22.286
					c-10.725-2.62-23.088-6.302-27.837-17.333c-3.589-8.334-4.979-17.594-6.359-26.482c-0.029-0.185,0.026,0.185,0,0
					c-0.776,0.138-0.132,0.015-0.908,0.152"/>
			</g>
		</g>
		<g>
			<g>
				<path d="M431.776,255.566c3.294,2.564,6.593,5.785,5.913,10.255c-0.331,2.177-1.438,4.216-2.459,6.146
					c-1.329,2.507-1.586,2.308,0.719,3.662c4.928-8.395,5.762-15.801-2.498-22.235c-0.484,0.621-1,1.321-1.486,1.945"/>
			</g>
		</g>
		<g>
			<g>
				<path d="M434.219,267.039c5.751,11.171-0.664,23.978-3.568,35.187c-1.762,6.798-2.977,13.786-5.32,20.411
					c-1.186,3.345-3.117,6.416-4.456,9.702c-0.255,0.625-1.844,4.153-1.429,4.33c0.647,0.277,1.486,1.219,2.134,1.497
					c5.337-12.454,9.019-25.244,12.639-38.265c3.05-10.978,7.199-22.706,1.561-33.652c-0.698,0.36-0.866,0.472-1.567,0.831"/>
			</g>
		</g>
		<g>
			<g>
				<path d="M272.127,239.768c2.527,13.737,6.817,27.716,6.363,41.75c-0.441,13.624-5.838,27.17-8.704,40.375
					c0.466,0.1,1.892,0.799,2.292,0.609c0.71-3.268,0.904-6.714,1.756-9.944c0.87-3.3,1.354-6.702,2.232-10.002
					c1.806-6.804,4.078-13.358,4.368-20.453c0.451-11.026-2.273-21.92-4.296-32.698c-0.393-2.098-0.727-4.208-1.113-6.308
					c-0.557-3.038,0.418-3.716-2.701-3.151"/>
			</g>
		</g>
		<g>
			<g>
				<path d="M395.407,202.12c2.383,8.443,3.516,17.789,0.557,26.334c-1.839,5.297-5.363,9.419-10.355,11.933
					c-3.739,1.889-7.689,3.663-11.88,3.993c-2.343,0.185-8.054-2.174-7.778,1.175c13.254,2.594,28.572-4.318,32.355-17.958
					c2.38-8.58,1-17.535-1.361-25.908c-0.581,0.165-1.019,0.161-1.541,0.459"/>
			</g>
		</g>
		<g>
			<g>
				<path d="M277.778,242.236c6.376,3.213,13.691,4.975,20.757,3.592c0.271-3.294-4.264-1.302-6.441-1.357
					c-4.705-0.113-9.466-1.441-13.651-3.55c-5.61-2.825-9.553-8.028-11.144-14.103c-1.308-4.99-1.27-10.358-0.462-15.417
					c0.353-2.212,0.992-4.388,1.558-6.554c0.458-1.753,1.123-3.265-1.415-3.338c-4.083,14.485-4.845,32.591,10.899,40.524"/>
			</g>
		</g>
		<g>
			<g>
				<path d="M396.167,294.5c0.541,1.407,1.063,2.823,1.604,4.232c0.418,1.09,1.136,0.259,2.079-0.094
					c-4.178-10.873-6.74-21.689-7.309-33.355c-0.297-6.101,0.332-12.246,0.636-18.346c0.096-1.918,0.197-3.835,0.376-5.75
					c0.198-2.161-0.429-1.984-2.613-2.265c-2.25,17.671-1.751,39.028,4.833,55.731"/>
			</g>
		</g>
		<g>
			<g>
				<path d="M267.298,239.269c-0.614,7.235-1.814,14.41-2.822,21.604c-0.545,3.9-1.237,7.749-2.075,11.599
					c-0.434,2.004-2.178,5.524,1.093,5.481c3.025-11.562,4.247-23.47,5.269-35.346c0.247-2.87,0.485-5.74,0.737-8.608
					c0.174-2.009,1.279-4.361-1.62-3.908c-0.268,3.049-0.624,6.104-0.893,9.153"/>
			</g>
		</g>
		<g>
			<g>
				<path d="M254.848,273.239c1.749,2.478,4.267,4.378,6.777,6.038c-2.418,0.041-4.883-0.013-7.3-0.112
					c-1.53-0.065-3.293-0.768-2.836,1.438c3.966,0.276,7.919,0.301,11.892,0.197c-0.064-2.026,0.179-2.139-1.585-3.361
					c-1.456-1.006-2.874-2.069-4.085-3.367c-0.993-1.063-1.39-2.52-2.697-0.884"/>
			</g>
		</g>
		<g>
			<g>
				<path d="M259.346,284.905c7.541,5.96,6.508,20.152,6.981,28.673c0.541,9.727,2.738,19.108,4.843,28.604
					c0.499,0.01,1.391-0.184,1.84-0.406c-2.031-9.103-3.841-18.212-4.358-27.548c-0.526-9.441,0.083-24.063-8.251-30.652
					c-0.366,0.467-0.793,0.772-1.019,1.313"/>
			</g>
		</g>
		<g>
			<g>
				<path d="M403.184,277.075c-0.936,2.009-1.947,4.406-0.79,6.62c1.873,3.585-0.66,3.53-2.814,6.337
					c-2.193,2.858-0.337,6.922-0.401,10.132c-0.064,3.296-0.882,6.82-1.214,10.132c-0.651,6.478-3.186,12.895-4.799,19.19
					c3.093,1.266,3.429-3.104,4.002-5.53c1.061-4.473,1.997-8.883,2.458-13.471c0.36-3.57,2.044-7.485,1.902-11.044
					c-0.147-3.673-2.044-6.909,1.182-9.59c1.269-1.06,2.53-2.286,2.204-4.156c-0.212-1.212-0.919-2.424-0.779-3.65
					c0.334-2.968,2.549-5.566,3.016-8.53c-2.556-1.216-2.931,1.827-3.779,3.646"/>
			</g>
		</g>
		<g>
			<g>
				<path d="M343.753,46.016c-3.888,0.563-7.147,5.163-6.077,9.005c2.002,0.039,1.134-0.987,1.465-2.374
					c0.548-2.285,2.329-4.882,4.813-5.241c4.328-0.626,5.1,5.642,5.408,8.685c0.399,3.924,0.415,8.128-0.731,11.916
					c-0.6,1.984-1.59,4.159-3.331,5.406c-1.49,1.064-4.169-0.18-3.693,2.204c13.24,1.118,12.936-31.201,2.14-29.642"/>
			</g>
		</g>
		<g>
			<g>
				<path d="M351.308,61.821c11.974,8.681,12.494,22.591,11.879,35.974c-0.262,5.697,1.319,9.651,7.298,10.914
					c4.825,1.017,12.15,0.611,13.781-5.099c-2.296-1.447-2.028,0.937-3.728,2.024c-2.256,1.445-5.108,1.369-7.709,1.138
					c-6.533-0.58-8.128-3.75-7.74-9.843c0.871-13.762-0.145-28.45-12.26-37.232c-0.349,0.48-1.22,1.429-1.423,1.98"/>
			</g>
		</g>
		<g>
			<g>
				<path d="M379.653,104.074c0.681,2.644,0.979,5.6,0.258,8.281c-0.579,2.151-4.27,4.152-2.881,5.833
					c5.639-2.411,5.422-9.521,4.139-14.514c-0.474,0.122-1.274,0.194-1.694,0.436"/>
			</g>
		</g>
		<g>
			<g>
				<path d="M300.827,53.073c0.365,0.149,0.841,0.016,1.235,0.071c-0.102-1.406-0.407-2.809-1.07-4.069
					c1.703,0.665,3.355,0.996,5.192,0.918c0.72-2.962-3.113-1.893-5.15-2.786c-1.338-0.585-1.689-1.624-2.723-0.425
					c-1.125,1.304,0.531,2.52,1.153,3.982c-5.651-1.25-11.067-4.692-14.581-9.301c-1.721-2.258-3.084-4.897-3.558-7.71
					c-0.367-2.183,0.682-2.897-1.837-2.592c-0.131,11.385,10.783,20.313,21.358,21.77"/>
			</g>
		</g>
		<g>
			<g>
				<path d="M300.456,40.935c6.811,5.436,15.583,8.248,24.261,7.099c0.324-2.28-1.549-1.295-3.106-1.243
					c-2.86,0.096-5.743-0.378-8.51-1.106c-2.81-0.737-5.532-1.856-8.027-3.344c-1.458-0.872-3.698-3.746-4.748-1.298"/>
			</g>
		</g>
		<g>
			<g>
				<path d="M317.974,40.192c4.017,3.551,10.243,4.02,12.845,9.129c2,3.929,3.178,8.063,8.296,8.259
					c0.784-2.344-2.402-1.457-3.71-2.966c-1.438-1.662-2.507-3.94-3.502-5.897c-1.446-2.839-3.733-4.388-6.564-5.7
					c-1.493-0.69-3.013-1.366-4.431-2.204c-1.299-0.769-2.125-2.448-3.07-0.475"/>
			</g>
		</g>
		<g>
			<g>
				<path d="M308.222,6.964c-7.313,0.133-13.464,3.474-19.707,7.015c-1.632,0.928-3.836,0.838-5.478,1.753
					c-1.497,0.836-0.425,1.548,0.344,2.988c5.386-3.005,10.821-6.126,16.749-7.958c9.118-2.819,19.968-1.428,28.475,2.626
					c7.369,3.512,12.17,10.075,14.935,17.646c1.334,3.653,1.73,7.515,1.992,11.398c0.122,1.795,0.695,3.578,0.526,5.372
					c-0.149,1.583,1.271,1.285,2.696,1.471c1.279-9.801-2.399-20.699-8.193-28.652c-7.331-10.063-20.352-14.345-32.349-14.128"/>
			</g>
		</g>
		<g>
			<g>
				<path d="M269.308,58.563c2.545-0.449,0.143-3.491-0.188-5.215c-0.582-3.054-0.402-6.316,0.563-9.268
					c0.865-2.646,2.287-5.208,4.15-7.273c1.292-1.433,6.165-3.308,4.246-5.102c-9.088,5.467-13.547,17.058-8.772,26.85"/>
			</g>
		</g>
		<g>
			<g>
				<path d="M261.98,37.202c-1.194,7.565,3.293,13.791,9.165,18.044c0.272-0.375,1.447-1.437,1.422-1.866
					c-2.277-1.651-4.444-3.475-6.011-5.825c-2.416-3.62-3.583-7.958-2.262-12.15c1.277-4.066,4.435-7.316,7.86-9.75
					c2.199-1.562,4.512-3.067,7.039-4.003c1.911-0.709,1.243-1.078,0.681-2.816c-8.258,2.682-16.938,9.14-18.38,18.289"/>
			</g>
		</g>
		<g>
			<g>
				<path d="M268.677,43.675c1.144,8.016,0.985,16.577,3.804,24.219c1.802,4.883,2.99,8.89,3.713,14.104
					c0.71,5.127,3.3,9.462,7.172,13.098c7.211,6.768,11.581,19.278,21.305,22.945c8.976,3.386,18.466-2.736,24.386-8.862
					c-0.321-0.311-1.133-1.496-1.547-1.52c-1.737,1.801-3.474,3.664-5.514,5.122c-3.76,2.683-8.16,4.719-12.775,4.849
					c-10.48,0.295-17.117-14.685-23.184-21.313c-3.668-4.01-6.444-7.508-7.383-13.03c-0.859-5.033-0.885-9.567-3.047-14.262
					c-3.608-7.842-3.304-17.307-4.51-25.757c-0.78,0.117-2.024,0.463-2.804,0.58"/>
			</g>
		</g>
		<g>
			<g>
				<path d="M306.865,99.069c-2.548,0.811-5.187,1.317-7.796,1.913c-1.54,0.351-3.646,0.074-2.727,2.232
					c4.511-0.604,8.759-2.335,13.11-3.596c1.585-0.459,6.411-0.373,4.986-2.801c-2.56,0.742-5.061,1.351-7.624,2.093"/>
			</g>
		</g>
		<g>
			<g>
				<path d="M291.279,77.06c1.052,4.509,1.125,9.367-1.143,13.558c3.688,1.836,7.589,1.542,11.462,0.46
					c-0.003-1.607-0.484-1.471-1.81-1.17c-2.453,0.556-5.063,0.733-7.458-0.182c1.749-4.161,1.527-8.745,0.524-13.047
					c-0.477,0.11-1.105,0.15-1.531,0.381"/>
			</g>
		</g>
		<g>
			<g>
				<path d="M300.722,69.382c0.818,2.559,4.165-0.488,5.881-1.121c1.891-0.699,7.819-0.733,6.889-3.242
					c-4.515,0.382-8.977,1.892-12.767,4.395"/>
			</g>
		</g>
		<g>
			<g>
				<path d="M279.881,77.077c1.297,1.833,2.409-0.148,3.885-0.805c1.626-0.724,5.318-0.39,4.464-2.79
					c-2.91,0.168-6.4,1.249-8.277,3.644"/>
			</g>
		</g>
		<g>
			<g>
				<path d="M295.25,59.384c0.816,2.049,1.843,0.628,3.082-0.238c1.654-1.156,3.38-2.222,5.322-2.817
					c1.909-0.585,3.894-0.679,5.876-0.605c1.628,0.062,4.584,1.116,4.157-1.439c-7.333-0.779-12.516,0.62-18.418,5.134"/>
			</g>
		</g>
		<g>
			<g>
				<path d="M271.351,65.635c1.312,1.324,3.629-0.802,5.752-0.457c1.973,0.323,3.876,0.735,5.841,1.131
					c1.208-2.934-9.728-3.979-11.531-0.645"/>
			</g>
		</g>
		<g>
			<g>
				<path d="M305.422,66.576c0.407,2.32,3.836,0.335,2.709,3.469c-3.056,0.33-2.124-3.16-4.576-2.628
					c-0.185,2.333,3.272,5.961,5.726,4.034c2.752-2.164-0.862-6.336-3.821-4.851"/>
			</g>
		</g>
		<g>
			<g>
				<path d="M285.568,76.041c1.513,1.773-0.513,2.432-1.516,0.856c-0.609-0.956-0.627-1.524-2.031-0.827
					c1.022,5.834,8.381,3.358,4.676-0.986c-0.374,0.317-0.955,0.594-1.228,0.996"/>
			</g>
		</g>
		<g>
			<g>
				<path d="M395.074,200.996c0.378,0.303,0.869,0.355,1.318,0.548c2.193-5.129,3.946-10.375,5.325-15.776
					c-2.492-1.421-2.497,3.803-3.033,5.511c-1.034,3.296-2.098,6.607-3.456,9.784"/>
			</g>
		</g>
		<g>
			<g>
				<path d="M361.667,137.427c-7.655,0.463-17.313,0.112-23.549,5.295c1.012,2.324,3.615-0.296,5.255-0.955
					c2.982-1.197,6.142-1.794,9.318-2.169c7.172-0.848,14.426-0.867,21.492-2.499c0.106-2.257-1.45-1.158-2.975-0.935
					c-3.173,0.466-6.38,0.477-9.578,0.67"/>
			</g>
		</g>
		<g>
			<g>
				<path d="M293.489,140.392c2.849,0.223,5.699,0.473,8.552,0.653c3.441,0.217,6.861,0.5,10.225,1.291
					c1.824,0.43,5.827,3.187,6.268,0.473c-5.79-2.641-11.796-3.057-18.036-3.545c-1.784-0.139-7.667-1.922-7.145,0.957"/>
			</g>
		</g>
		<g>
			<g>
				<path d="M340.932,61.804c1.95,1.665,1.294,3.617,0.706,5.805c2.299,1.299,2.404-2.435,2.142-4.017
					c-0.292-1.765-1.554-2.316-2.559-3.569c-0.868-1.081,0.626-2.129-1.497-2.221c-0.599,1.734-0.126,2.88,1.198,4.012"/>
			</g>
		</g>
		<g>
			<g>
				<path d="M342.226,56.337c1.985,0.627,3.867,2.392,3.864,4.586c-0.001,1.538-1.64,2.448,0.403,3.197
					c2.648-3.586,0.064-8.171-3.772-9.382c-0.147,0.465-0.484,1.107-0.5,1.59"/>
			</g>
		</g>
		<g>
			<g>
				<path d="M346.136,49.802c-3.067,0.106-5.378,2.431-6.031,5.324c2.086,1.169,2.117-1.792,3.58-2.868
					c3.591-2.642,1.054,3.063,4.262,2.506c0.105-1.229-0.292-4.985-1.813-5.036"/>
			</g>
		</g>
	</g>
	<g>
		<g>
			<path d="M398.054,226.164c0.558,6.662,1.232,13.316,1.735,19.981c0.549,7.319,1.58,14.764,1.188,22.113
				c-0.259,4.866-2.724,10.798,2.398,13.872c1.532-2.555,0.502-1.351-0.671-3.604c-1.014-1.939,0.125-5.023,0.354-7.082
				c0.834-7.48-0.885-14.83-1.487-22.276c-0.627-7.735-0.976-15.463-1.622-23.193c-0.784,0.083-1.339,0.03-2.121,0.114"/>
		</g>
	</g>
</g>
<g>
	<g>
		<path d="M198.313,326.436c1.774,1.394,1.375,1.629,3.085,0.205c2.025-1.688,4.487-2.801,6.977-3.578
			c2.854-0.891,5.804-1.551,8.782-1.801c2.636-0.225,2.393,0.201,2.343-2.311c-7.001,0.139-16.634,1.632-21.245,7.505"/>
	</g>
</g>
<g>
	<g>
		<path d="M214.179,317.813c5.857,12.694,12.295,25.148,18.955,37.432c4.333,7.991,7.319,16.667,8.094,25.754
			c0.551,6.438,1.101,12.809,1.039,19.27c2.957,0.752,1.609-2.108,1.627-4.12c0.036-3.633,0.299-7.267,0.222-10.896
			c-0.223-10.73-2.578-21.742-7.69-31.17c-2.182-4.027-5.544-7.41-7.726-11.438c-2.488-4.587-4.659-9.35-7.066-13.983
			c-1.479-2.848-3.085-5.643-4.469-8.539c-0.837-1.752-0.266-4.219-2.378-2.435"/>
	</g>
</g>
<g>
	<g>
		<path d="M197.695,324.203c7.083,5.438,12.37,13.167,17.14,20.547c5.127,7.928,9.758,16.202,13.75,24.773
			c2.677,5.749,5.129,11.442,6.154,17.686c0.837,5.099,1.586,18.039,9.357,16.793c0.259-1.941-3.619-1.815-4.876-3.689
			c-2.122-3.155-2.973-7.378-3.625-11.049c-1.162-6.534-2.961-12.244-5.683-18.363c-4.01-9.016-8.207-17.902-13.55-26.173
			c-5.015-7.757-9.949-16.495-17.395-22.207c-0.298,0.387-1.043,1.165-1.225,1.611"/>
	</g>
</g>
<g>
	<g>
		<path d="M181.677,366.792c0.26,12.591,7.346,23.985,17.841,31.011c11.552,7.741,25.904,8.839,38.953,4.832
			c-0.564-1.842-0.041-2.345-2.147-1.762c-3.414,0.938-6.911,1.238-10.445,1.456c-6.581,0.407-12.954-0.796-19.032-3.399
			c-10.968-4.699-19.372-13.898-21.682-25.617c-2.134-10.82,0.3-23.102,5.872-32.646c1.864-3.192,3.666-6.524,6.458-8.957
			c1.137-0.992,2.322-2.022,3.627-2.782c1.388-0.805,0.617-1.31-0.064-2.675c-14.197,7.097-19.188,25.945-18.889,40.532"/>
	</g>
</g>
<g>
	<g>
		<path d="M219.928,320.579c-0.299,0.729-0.587,1.534-0.886,2.261c6.186,2.555,15.894,0.287,19.017-6.048
			c-0.45-0.222-1.6-1.132-2.066-1.057c-0.864,1.754-2.307,3.234-4.012,4.114c-3.498,1.799-8.316,2.332-12.049,0.793"/>
	</g>
</g>
<g>
	<g>
		<path d="M236.796,316.073c2.894,1.463,6.135,8.665,9.693,2.66c-0.439-0.263-0.934-0.518-1.375-0.778
			c-1.313-0.777-0.845,0.673-2.283,0.577c-1.77-0.116-3.155-3.748-4.944-4.65c-0.354,0.706-0.757,1.438-1.111,2.143"/>
	</g>
</g>
<g>
	<g>
		<path d="M245.768,319.405c1.305,1.563,2.682,3.341,3.986,4.907c3.055-5.219,4.167,2.656,5.958,1.401
			c6.848-4.793,8.975,5.531,9.769,9.735c1.881,9.961,5.703,18.41,17.439,17.72c-0.187-3.196-0.886-1.947-3.93-2.386
			c-2.884-0.413-5.275-1.945-7.012-4.314c-3.507-4.78-3.835-11.104-5.358-16.611c-0.767-2.778-1.896-5.826-4.778-6.946
			c-2.714-1.055-7.087,1.557-7.916-2.167c-0.681-0.65,0.38-0.766-0.696-1.137c-1.192-0.094-2.368,0-3.374,0.651
			c-1.939-2.324-1.807-2.638-4.092-0.735"/>
	</g>
</g>
<g>
	<g>
		<path d="M229.321,324.091c0.184,1.817-0.992,6.697,1.727,6.054c0.074-2.069,0.034-4.149-0.173-6.213
			c-0.489,0.049-1.164-0.012-1.621,0.161"/>
	</g>
</g>
<g>
	<g>
		<path d="M244.074,353.725c2.417,2.481,1.62,5.425-0.954,7.357c-1.736,1.306-6.827,1.41-6.158,3.718
			c5.957-0.012,13.998-6.449,8.329-12.271c-0.351,0.342-0.984,0.78-1.229,1.201"/>
	</g>
</g>
<g>
	<g>
		<path d="M255.069,389.419c-4.111,3.615-8.791,4.866-13.924,6.365c0.437,1.377,0.195,2.442,1.709,2.001
			c2.578-0.754,5.182-1.463,7.653-2.526c3.246-1.394,5.583-3.782,8.331-5.895c2.503-1.926,3.614-0.998,2.749-4.136
			c-2.596,0.713-4.521,2.474-6.497,4.215"/>
	</g>
</g>
<g>
	<g>
		<path d="M262.861,387.168c0.04,0.703,0.021,1.491,0.06,2.198c0.018,0.291,4.127,0.364,4.781,0.48
			c1.891,0.334,3.78,1.086,5.272,2.341c0.396-0.06,1.271-1.547,1.554-1.883c-3.127-2.627-7.676-3.263-11.631-3.049"/>
	</g>
</g>
<g>
	<g>
		<path d="M280.627,399.352c12.532,4.069,25.849,6.813,39.002,7.673c0.117-1.771,0.746-2.652-1.254-2.807
			c-2.932-0.227-5.815-0.803-8.727-1.206c-6.635-0.925-13.261-1.927-19.746-3.604c-5.663-1.461-11.387-2.63-14.884-7.763
			c-1.455-2.137-2.206-4.581-2.541-7.148c-0.344-2.685,0.097-2.375-2.559-2.521c-0.39,7.003,3.947,14.74,10.835,16.98"/>
	</g>
</g>
<g>
	<g>
		<path d="M287.762,369.088c-0.699,2.615,1.329,1.865,3.24,1.981c3.694,0.223,7.358,0.941,10.932,1.901
			c6.672,1.792,13.175,4.249,19.469,7.062c7.47,3.335,15.487,10.228,23.735,10.527c0.734-2.227-0.632-2.512-2.293-2.893
			c-3.299-0.756-6.571-1.854-9.574-3.367c-2.694-1.358-5.288-2.949-8.043-4.18c-11.894-5.314-24.134-10.578-37.452-10.434"/>
	</g>
</g>
<g>
	<g>
		<path d="M337.923,388.738c-0.305,1.878,0.267,2.227,1.902,2.095c3.336-0.275,6.653-0.581,9.994-0.399
			c6.668,0.36,13.165,1.878,19.677,3.328c7.284,1.619,14.624,3.172,21.866,4.982c1.462-2.778-1.924-2.64-3.946-3.146
			c-3.561-0.89-7.036-2.107-10.597-2.987c-12.673-3.14-25.81-5.37-38.918-3.954"/>
	</g>
</g>
<g>
	<g>
		<path d="M402.574,396.116c-5.706,0.234-12.097,0.191-17.418,2.53c0.427,3.189,5.92,0.397,8.239,0.102
			c3.463-0.441,7.005-0.395,10.487-0.535c0.253-1.151,0.054-2.671-1.322-2.232"/>
	</g>
</g>
<g>
	<g>
		<path d="M404.013,398.02c4.253,1.7-4.658,4.069-5.522,4.426c-2.228,0.913-4.408,1.921-6.74,2.553
			c-1.508,0.405-2.013,0.764-1.175,2.42c4.457-0.878,8.38-3.316,12.76-4.395c3.147-0.775,5.764-4.962,1.381-6.714
			c-0.222,0.555-0.554,1.06-0.626,1.648"/>
	</g>
</g>
<g>
	<g>
		<path d="M410.899,405.395c-1.851,1.011-3.869,1.889-6.056,1.744c-1.374-0.094-2.009,0.094-2.009,1.855
			c3.829,1.114,7.011-1.067,10.289-2.703c1.351-0.676,2.873-1.22,4.362-0.568c1.168,0.512,1.73,0.568,2.341-0.978
			c-2.942-2.283-6.077-1.049-8.986,0.538"/>
	</g>
</g>
<g>
	<g>
		<path d="M413.55,407.861c-6.065,4.592-11.417,5.205-18.72,6.359c-3.163,0.5-6.633,0.677-9.65-0.737
			c-2.755-1.289-1.948-2.489-4.531-0.517c2.782,3.642,6.92,4.279,11.225,3.882c4.854-0.446,10.616-0.818,15.228-2.328
			c3.575-1.171,6.29-3.699,9.313-5.832c2.573-1.818,3.935-1.165,2.217-3.919c-1.669,1.178-3.217,2.174-4.885,3.351"/>
	</g>
</g>
<g>
	<g>
		<path d="M318.694,406.556c5.128,0.041,9.758,2.394,14.538,3.991c5.605,1.874,11.525,2.377,17.374,2.983
			c10.391,1.082,20.907,1.681,31.357,1.701c0.003-1.717,0.568-2.028-1.377-2.043c-2.784-0.024-5.581-0.143-8.362-0.255
			c-6.065-0.244-12.109-1.12-18.149-1.698c-6.214-0.6-12.563-1.455-18.552-3.314c-5.492-1.703-10.973-3.895-16.835-3.943
			c-0.008,0.788,0.011,1.801,0.005,2.589"/>
	</g>
</g>
<g>
	<g>
		<path d="M403.941,403.942c1.951,0.642,1.438,3.355,3.616,2.585c-0.089-1.915-1.31-3.495-3.124-4.092
			c-0.152,0.464-0.447,0.996-0.471,1.48"/>
	</g>
</g>
<g>
	<g>
		<path d="M409.945,401.445c-1.859,0.54-2.878,0.566-2.089,2.782c2.283-0.651,4.605-1.585,6.949-1.974
			c2.745-0.456,2.628,2.104,4.983,1.322c-0.17-5.243-6.89-3.05-9.829-2.084"/>
	</g>
</g>
<g>
	<g>
		<path d="M312.738,331.891c-9.329,1.328-18.095,6.058-26.056,10.901c-2.38,1.446-4.084,3.997-6.467,5.443
			c-2.353,1.428-2.908,1.114-1.64,3.559c5.561-3.375,10.485-8.527,16.265-11.518c9.513-4.921,19.721-5.232,30.271-6.394
			c15.446-1.697,30.746,1.582,46.192,0.682c-0.194-2.987-0.535-1.906-3.416-1.859c-5.869,0.096-11.746-1.283-17.59-1.821
			c-12.789-1.175-24.805-0.393-37.499,1.422"/>
	</g>
</g>
<g>
	<g>
		<path d="M371.899,329.99c0.563,4.739,1.165,9.494,1.516,14.252c0.31,4.203-0.116,8.413-0.739,12.587
			c-0.31,2.043-2.685,8.144,0.005,8.46c3.108-7.757,2.407-16.408,1.569-24.578c-0.279-2.705-0.291-5.439-0.61-8.141
			c-0.175-1.468,0.182-3.418-1.928-2.511"/>
	</g>
</g>
<g>
	<g>
		<path d="M370.984,365.558c2.138,0.208,4.274,0.416,6.417,0.591c2.243,0.182,4.47,0.54,6.683,0.972
			c1.526,0.297,3.41,1.514,3.771-0.733c-3.558-1.711-8.032-1.687-11.878-2.058c-1.62-0.156-5.382-1.434-4.964,1.234"/>
	</g>
</g>
<g>
	<g>
		<path d="M382.359,360.877c-0.691,4.97-1.127,9.98-1.82,14.951c-0.247,1.799-0.001,3.654-0.217,5.457
			c-0.234,1.966-0.81,3.923-1.591,5.771c-0.622,1.476-2.497,1.977-0.974,3.5c3.856-2.067,3.206-7.651,3.729-11.397
			c0.565-4.067,1.824-8.04,2.393-12.109c0.331-2.386,0.34-4.813,0.653-7.199c0.243-1.839,2.304-9.905-0.694-9.388
			c-0.451,3.411-0.69,7.052-1.139,10.464"/>
	</g>
</g>
<g>
	<g>
		<path d="M387,332.716c0.516,6.223,1.481,12.771-0.454,18.844c5.484,0.456,11.162,1.157,16.627,0.165
			c2.124-0.387-0.352-15.357-0.919-17.386c-2.586-0.006-1.074,2.932-0.821,4.557c0.459,2.923,0.636,5.883,0.563,8.839
			c-0.05,1.867,0.609,2.338-1.54,2.536c-1.563,0.146-3.117,0.152-4.686,0.115c-2.393-0.061-4.913-0.049-7.295-0.246
			c1.068-4.433,0.48-8.942,0.109-13.422c-0.133-1.572,0.741-4.815-1.698-3.906"/>
	</g>
</g>
<g>
	<g>
		<path d="M404.663,350.235c3.682,8.608,4.247,18.056,5.485,27.23c0.468,3.471,0.757,6.781,2.086,10.073
			c1.107,2.739,2.455,5.371,3.543,8.119c0.624,1.585,0.824,5.058,3.154,3.876c-1.047-5.208-4.238-9.738-5.873-14.747
			c-0.881-2.705-1.397-5.521-1.775-8.325c-1.22-9.053-1.737-18.27-5.369-26.765c-0.451,0.194-1.213,0.375-1.596,0.677"/>
	</g>
</g>
<g>
	<g>
		<path d="M370.885,328.835c0.008,0.703-0.087,1.52-0.081,2.225c0.003,0.421,4.486-0.351,5.145-0.322
			c4.375,0.195,8.799,0.772,13.122,1.467c8.18,1.313,16.039,4.26,23.893,6.881c6.603,2.204,11.217,6.331,17.308,9.352
			c2.816,1.399,6.058,2.262,7.633,5.177c0.712,1.315,1.22,2.825,1.419,4.302c0.314,0.222,1.323-0.11,1.744-0.167
			c-0.845-6.305-4.775-8.599-10.065-11.287c-5.678-2.88-9.901-7.005-16.057-9.113c-14.164-4.846-29.028-8.777-44.057-8.672"/>
	</g>
</g>
<g>
	<g>
		<path d="M407.481,364.567c1.013,2.557,3.499-1.191,4.994-2.096c2.455-1.485,5.213-2.516,8.027-3.106
			c2.469-0.518,5.023-0.556,7.535-0.424c1.858,0.096,7.145,2.015,6.769-0.794c-10.56-1.463-19.014-0.469-27.647,6.07"/>
	</g>
</g>
<g>
	<g>
		<path d="M438.977,359.429c-3.826,0.597-7.737,0.651-11.584,1.116c-0.638,0.079-4.768,0.313-4.731,0.747
			c0.062,0.705,0.076,1.277,0.137,1.984c10.964-0.927,21.771-2.905,32.727-3.893c5.335-0.481,10.687-0.887,16.018-0.277
			c2.62,0.304,5.072,1.285,7.617,1.998c2.126,0.593,1.951-0.813,2.542-2.67c-13.85-4.412-28.843-2.101-42.865,0.083"/>
	</g>
</g>
<g>
	<g>
		<path d="M478.041,360.429c6.303,0.957,11.812,5.26,17.279,8.355c2.896,1.64,6.262,2.155,9.467,2.979
			c2.648,0.702,2.712,1.083,3.453-1.544c-4.594-1.219-9.218-2.097-13.372-4.449c-5.251-2.977-10.36-6.817-16.449-7.74
			c-0.118,0.777-0.24,1.464-0.362,2.242"/>
	</g>
</g>
<g>
	<g>
		<path d="M469.909,388.944c6.19,4.756,14.097,5.418,21.656,5.363c4.016-0.028,8.02,0.03,12.033,0.165
			c0.631,0.019,4.865,0.227,4.914-0.163c0.089-0.698-0.007-1.726,0.082-2.426c-7.603-0.96-15.334,0.585-22.95,0.006
			c-3.639-0.277-7.239-1.171-10.532-2.799c-2.868-1.416-3.116-2.909-5.14-0.271"/>
	</g>
</g>
<g>
	<g>
		<path d="M471.675,387.274c-8.26,3.351-16.844,5.512-25.494,7.553c-3.519,0.827-7.146,1.283-10.609,2.296
			c-3.423,1-6.822,1.921-10.377,2.265c-0.656,0.062-4.57,0.373-4.583,0.717c-0.027,0.705-0.311,1.591-0.338,2.296
			c10.854,0.416,21.154-4.593,31.575-7.048c5.744-1.354,11.606-2.574,17.097-4.797c2.135-0.861,4.508-1.135,6.644-1.994
			c1.813-0.731,3.478-2.052,5.437-2.208c0.243-0.39-0.061-1.832-0.103-2.314c-3.257,0.263-6.198,2.155-9.148,3.461"/>
	</g>
</g>
<g>
	<g>
		<path d="M443.618,348.671c-1.436,0.011-2.874-0.234-4.308-0.226c-1.129,0.004-0.691,1.721-0.719,2.69
			c4.072-0.017,8.234-0.272,12.297,0.084c3.527,0.303,6.928,1.154,10.086,2.77c0.608,0.314,4.3,2.701,4.493,2.429
			c0.412-0.57,0.804-1.455,1.215-2.031c-7.004-5.019-14.676-6.219-23.072-6.035"/>
	</g>
</g>
<g>
	<g>
		<path d="M508.858,372.941c2.568,4.916,4.195,9.083,2.099,14.431c-0.816,2.088-1.856,4.949-3.853,6.232
			c-1.73,1.112-4.066-1.075-4.533,1.361c5.678,2.929,8.828-3.986,10.256-8.229c1.79-5.314,0.159-9.863-2.341-14.648
			c-0.434,0.227-1.077,0.42-1.432,0.752"/>
	</g>
</g>
<g>
	<g>
		<path d="M497.063,396.031c6.597,4.084,10.735,5.774,18.301,2.898c-0.166-0.43-0.497-1.988-0.867-2.202
			c-2.061,0.786-4.306,1.392-6.546,1.424c-3.529,0.051-6.781-2.332-9.63-4.101c-0.415,0.675-0.702,1.259-1.117,1.93"/>
	</g>
</g>
<g>
	<g>
		<path d="M545.294,357.383c9.733,7.447,6.106,27.146-4.36,32.134c-4.149,1.976-9.076,2.748-13.479,4.086
			c-3.485,1.058-6.824,2.654-10.379,3.461c-2.077,0.473-4.21,0.764-6.34,0.87c-0.256,0.356,0.047,1.458,0.07,1.927
			c6.817-0.33,13.176-3.043,19.642-5.011c4.847-1.473,10.418-1.917,14.562-4.979c9.599-7.093,11.285-26.118,1.293-33.765
			c-0.479,0.625-0.68,0.859-1.158,1.484"/>
	</g>
</g>
<g>
	<g>
		<path d="M546.762,357.831c-7.709,0.807-14.198,4.003-21.306,6.897c-6.409,2.609-14.32,1.829-20.134,5.73
			c0.273,0.407,0.772,1.572,1.206,1.727c2.474-1.662,5.623-1.674,8.51-2.201c4.061-0.742,7.605-2.354,11.414-3.903
			c3.404-1.387,6.939-2.469,10.418-3.656c5.62-1.925,11.515-1.555,17.211-2.99c-0.108-0.432-0.25-1.962-0.585-2.198
			c-2.18,0.55-4.438,0.988-6.666,1.223"/>
	</g>
</g>
<g>
	<g>
		<path d="M497.857,365.271c1.936,1.78,1.706,1.55,3.683-0.436c2.597-2.602,5.641-4.755,8.739-6.745
			c1.974-1.267,4.265-2.805,6.698-2.713c0.642,0.024,3.191,1.44,3.213,1.424c0.554-0.438,0.887-0.955,1.439-1.394
			c-6.408-8.119-19.089,5.365-23.402,10.051"/>
	</g>
</g>
<g>
	<g>
		<path d="M516.949,354.568c1.911,2.199,3.733,4.9,4.111,7.842c0.386,2.986-1.21,3.086,1.69,4.417
			c2.173-4.742-0.874-10.291-3.962-13.85c-0.597,0.52-1.276,1.073-1.872,1.591"/>
	</g>
</g>
<g>
	<g>
		<path d="M95.452,373.645c-0.945,2.687,4.357,2.017,5.854,2.017c5.346,0,10.688,0.102,16.034,0.102
			c14.043,0,28.086-0.698,42.132-0.698c5.012,0,10.024,0.482,15.036,0.482c1.17,0,2.34-0.43,3.51-0.43c1.003,0,0.68-1.09,0.48-1.09
			c-8.722,0-17.443-0.271-26.163-0.271c-18.813,0-37.626,0.824-56.439,0.824"/>
	</g>
</g>
<g>
	<g>
		<path d="M556.375,373.838c-0.943,2.687,3.812,1.868,5.307,1.868c5.345,0,10.688,0.387,16.035,0.387
			c14.042,0,28.11-0.491,42.155-0.491c5.011,0,9.998-0.644,15.011-0.644c1.169,0,2.338,0.566,3.508,0.566
			c1.007,0,0.681-1.475,0.481-1.475c-8.721,0-17.442,0.554-26.163,0.554C593.896,374.604,575.188,373.838,556.375,373.838"/>
	</g>
</g>
<g>
	<g>
		<path d="M84.237,403.816c-9.193,12.171-18.581,24.132-26.509,37.179c1.945,2.035,2.586-2.225,3.503-3.66
			c2.116-3.316,4.926-6.168,7.172-9.396c4.525-6.507,8.702-13.255,13.47-19.58c9.202-12.216,18.373-24.395,26.567-37.323
			c-1.907-2.069-2.704,2.145-3.645,3.564c-2.181,3.296-4.01,6.853-6.305,10.071c-4.619,6.474-10.013,12.387-14.805,18.729"/>
	</g>
</g>
<g>
	<g>
		<path d="M625.912,371.035c8.196,12.929,17.492,25.088,26.696,37.301c4.425,5.875,9.049,11.623,13.279,17.645
			c2.265,3.227,3.544,7.113,5.685,10.424c0.995,1.531,3.055,6.74,5.089,4.611c-7.645-12.589-16.439-24.285-25.307-36.026
			c-4.773-6.32-8.841-13.167-13.469-19.598c-2.311-3.216-4.433-6.541-6.641-9.83c-1.017-1.516-3.329-6.646-5.324-4.479"/>
	</g>
</g>
<g>
	<g>
		<path d="M264.556,196.622c2.783,1.688,0.732,6.304,3.929,6.057c0.586-2.943-0.202-6.089-2.899-7.728
			c-0.308,0.507-0.82,1.036-0.98,1.603"/>
	</g>
</g>
</svg>
