<?xml version="1.0" encoding="utf-8"?>
<!-- Generator: Adobe Illustrator 15.0.0, SVG Export Plug-In . SVG Version: 6.00 Build 0)  -->
<!DOCTYPE svg PUBLIC "-//W3C//DTD SVG 1.1//EN" "http://www.w3.org/Graphics/SVG/1.1/DTD/svg11.dtd">
<svg version="1.1" id="Layer_1" xmlns="http://www.w3.org/2000/svg" xmlns:xlink="http://www.w3.org/1999/xlink" x="0px" y="0px"
	 width="720px" height="450px" viewBox="0 0 720 450" enable-background="new 0 0 720 450" xml:space="preserve">
<polygon fill="#F1F2DA" points="348.477,-8.61 730.563,470.344 -73.231,470.344 -73.231,-11.537 "/>
<path fill="#D3D7B8" d="M69.49,123.508c-1.411,29.138-8.266,57.581,14.017,81.479c8.43,9.042,20.548,18.534,31.602,23.574
	c6.395,2.916,13.204-1.321,18.549,6.237c5.542,7.837,2.073,41.931-0.334,50.847c-3.986,14.769-12.403,20.645-11.719,36.813
	c1.468,34.674,32.524,52.87,46.713,80.708c10.352,20.313,13.279,52.911,40.19,59.692c27.201,6.854,24.232-16.852,23.774-35.285
	c15.261,13.211,26.377,30.367,46.054,37.659c22.085,8.185,55.219,13.322,75.671-0.205c13.743-9.095,19.936-22.627,37.789-23.386
	c19.185-0.815,43.576,7.982,62.134,12.08c10.105,2.23,41.484,14.928,51.237,8.344c39.213-26.467-72.414-93.071-85.607-112.794
	c16.051-0.137,36.953,12.926,41.38-7.073c5.899-26.675-56.188-54.621-72.26-66.386c-34.623-25.338-74.996-41.588-113.75-59.084
	c-35.949-16.231-66.646-41.266-101.787-57.555c-21.255-9.854-46.331-11.539-67.07-22.422c-10.479-5.5-19.655-13.534-31.055-18.771"
	/>
<path fill="#F4BF9A" d="M240.825,172.461c-7.105-0.789-11.843-11.054-14.212-18.16c-2.369-7.106-2.369-7.106,0.79-8.686
	c3.158-1.578,4.737-10.264,1.58-14.211c-3.159-3.948-5.527-20.529-11.844-22.897c-6.316-2.369-15.792-13.423-20.529-16.582
	c-4.738-3.158-48.953-22.897-90.01,3.948c-41.057,26.844-37.11,45.795-32.372,70.271c4.737,24.476,25.266,24.476,25.266,24.476
	s-7.105,8.686,4.738,17.37c11.843,8.686,13.423,10.264,18.159,10.264c4.738,0,5.528-3.947,5.528-3.947s12.633,3.158,15.79,3.947
	c3.159,0.791,7.896-0.789,7.896,1.581c0,2.368-8.685,11.841-18.95,35.528c-10.265,23.688-18.95,48.955-3.947,70.272
	c15,21.316,20.529,23.687,30.002,42.636c9.475,18.951,31.583,49.742,43.426,66.324c11.843,16.581,11.843,20.528,11.843,20.528
	l40.269-2.37c0,0-6.316-23.687-15.792-44.214c-9.474-20.528-12.633-27.636-12.633-27.636s40.268,33.162,46.583,40.269
	c6.318,7.106,30.794,36.32,30.794,36.32l127.909-2.369l0.787-26.057c0,0,18.951,3.157,42.64,9.477
	c23.687,6.316,26.055,14.21,26.055,14.21l48.165,0.791c0,0-1.582-33.951-42.639-63.953c-41.059-30.004-75.797-45.797-75.797-45.797
	l5.525-3.159l0.79-2.366c0,0,9.476,8.684,11.843,6.316c2.369-2.368,3.159-6.316,3.159-6.316s11.055,1.58,10.265-0.789
	c-0.79-2.371-0.79-6.318-0.79-6.318s7.896-4.736,1.58-12.633c-6.316-7.896-8.687-13.424-8.687-13.424s-5.527-7.893-15.002-15
	c-9.475-7.106-26.055-2.369-37.899-17.369c-11.844-15.002-19.736-21.318-35.529-32.373c-15.792-11.055-31.582-24.478-38.688-40.267
	c-7.106-15.792-22.897-28.424-41.057-30.793C267.67,166.934,240.825,172.461,240.825,172.461z"/>
<path fill="#D9E8F1" d="M213.98,106.138c0-3.159-7.106-8.686-10.264-15.792c-3.158-7.105-16.581-9.474-16.581-9.474
	s-12.634-14.212-32.372-19.739c-19.739-5.527-49.742-6.318-75.008,15.79c-25.266,22.108-20.529,45.005-16.582,55.271
	c3.948,10.264,5.528,17.369,6.317,23.686c0.79,6.317,0,22.108,10.265,27.635c10.264,5.527,10.264,5.527,10.264,5.527
	s-5.527-45.795-2.369-58.428c3.158-12.633,35.531-30.003,59.217-38.688c23.687-8.685,41.058,1.579,48.954,4.737
	c7.895,3.158,15.791,10.265,15.791,10.265L213.98,106.138z"/>
<path fill="#FFFFFF" d="M386.894,308.266c-9.474-8.684-10.264-26.057-10.264-26.057s-30.792,29.214-55.269,49.743
	c-24.477,20.528-37.899,32.372-55.271,41.849c-17.37,9.475-29.214,19.738-29.214,19.738l11.055,7.895c0,0-8.686,2.368,2.368,14.213
	c11.054,11.845,34.741,38.688,34.741,38.688l21.318,3.949l129.487-7.896c0,0,15.002-18.16,7.105-37.896
	c-7.896-19.74-10.264-29.215-14.211-41.85c-3.949-12.633-3.158-18.949-3.158-18.949l13.422-2.367c0,0-15.001-11.055-17.369-12.635
	c-2.37-1.578-7.108-13.422-18.95-18.158C390.842,313.793,386.894,308.266,386.894,308.266z"/>
<path fill="#D9A988" d="M444.533,309.057c-12.717-2.271-19.393-4.654-29.09,4.875c0.402,2.51,3.119,10.582,4.638,13.2
	c10.325-0.552,23.629-5.762,26.031-15.709"/>
<g>
	<g>
		<path d="M338.487-8.14c12.828,15.548,97.511,123.143,128.238,160.392c37.009,44.856,177.095,209.053,208.759,247.427
			c14.684,17.804,28.764,36.107,43.448,53.91c0.095,0.115,3.429,1.911,3.523,2.023c2.468-2.035-1.398-3.893-3.24-6.117
			c-2.396-2.909-0.833-9.084-3.229-11.992c-9.117-11.05-20.648-20.108-29.765-31.157C655.8,369.471,516.791,207.563,479.8,162.723
			C447.865,124.014,355.842,9.597,340.591-8.891c-0.887-1.079-0.301-1.32-1.456-0.368"/>
	</g>
</g>
<g>
	<g>
		<g>
			<g>
				<path d="M138.821,158.823c2.38,1.225,5.403,1.131,7.494-0.625c-0.918-2.104-4.448,0.436-6.779-0.764
					c-2.119-1.091-1.453-4.447-3.766-3.963c-0.184,2.334,0.984,4.272,3.057,5.341"/>
			</g>
		</g>
		<g>
			<g>
				<path d="M143.13,149.513c-1.487,0.847-2.873,4.09-1.139,4.721c1.593,0.141,5.533-1.913,2.788-3.267
					c-0.44,0.603-1.104,1.301-1.825,1.534c0.712-3.837,4.272,0.407,5.102-2.485c-1.405-0.886-3.417-1.453-4.965-0.575"/>
			</g>
		</g>
		<g>
			<g>
				<path d="M152.996,141.381c-1.41,0.846-1.939,2.587-1.802,4.146c2.424,0.489,1.059-1.804,2.638-2.754
					c1.869-1.123,0.793,2.551,3.1,2.181c0.273-2.201-1.208-5.262-3.957-3.611"/>
			</g>
		</g>
		<g>
			<g>
				<path d="M159.556,138.557c3.158,2.507-1.302,5.802,1.027,7.253c2.5-2.229,2.671-6.38-0.027-8.521
					c-0.306,0.384-0.879,0.863-1.071,1.311"/>
			</g>
		</g>
		<g>
			<g>
				<path d="M176.923,157.357c-6.597,0.453-10.901,2.178-16.05,6.322c-2.514,2.023-5.724,4.096-6.969,7.181
					c-0.634,1.576-0.159,3.117-0.28,4.743c-0.117,1.58-1.936,2.258,0.037,3.286c2.563-2.701,0.797-6.422,3.088-9.379
					c1.841-2.372,4.21-4.299,6.535-6.16c4.664-3.733,9.287-4.402,15.073-4.807c0.275-1.277-0.165-1.652-1.431-1.213"/>
			</g>
		</g>
		<g>
			<g>
				<path d="M166.508,167.063c-1.446,1.161-7.576,4.313-5.153,6.053c2.054-1.646,4.111-3.178,6.161-4.83
					c1.389-1.117,6.624-3.722,4.239-5.415c-1.75,1.414-3.476,2.805-5.226,4.22"/>
			</g>
		</g>
		<g>
			<g>
				<path d="M159.815,157.296c-1.201,2.89-3.856,2.264-5.979,3.719c-2.924,1.463-2.351,6.559-2.007,9.133
					c2.707,0.364,1.156-4.228,1.834-6.201c0.627-1.822,2.41-1.739,3.987-2.37c2.532-1.012,2.976-4.479,5.234-5.192
					c2.242-0.709,5.097,0.375,7.365,0.725c0.971-2.169-1.503-2.03-3.001-2.259C164.544,154.436,161.079,154.266,159.815,157.296"/>
			</g>
		</g>
		<g>
			<g>
				<path d="M125.607,147.462c-4.711,2.928-7.321,6.82-10.247,11.438c-0.867,1.365-4.702,5.271-2.076,6.335
					c1.948-2.293,3.459-5.177,5.02-7.731c1.648-2.703,3.288-5.24,5.863-7.139c1.62-1.195,4.62-2.122,5.371-4.13
					c-1.546-1.186-2.484,0.613-3.804,1.432"/>
			</g>
		</g>
		<g>
			<g>
				<path d="M169.831,113.557c-5.765,2.472-11.854,4.982-15.578,10.302c1.582,1.952,2.984-0.764,4.199-1.892
					c2.246-2.079,4.846-3.976,7.667-5.185c3.517-1.509,7.258-2.883,10.363-5.144c-0.885-2.407-5.005,0.858-6.791,1.578"/>
			</g>
		</g>
		<g>
			<g>
				<path d="M107.632,132.42c-6.404,6.939-14.373,15.333-14.202,25.457c2.506,0.672,1.719-3.261,2.211-4.998
					c0.854-3.016,2.254-5.85,3.978-8.452c3.036-4.583,6.787-8.601,10.494-12.637c-1.068-1.743-1.658-0.544-2.619,0.503"/>
			</g>
		</g>
		<g>
			<g>
				<path d="M145.621,104.161c1.308,2.084,2.393-0.612,3.661-1.604c2.385-1.866,5.229-3.175,8.071-4.2
					c2.459-0.886,5.063-1.373,7.671-1.583c1.741-0.14,5.55,0.915,5.198-1.669c-8.625-1.257-18.834,2.518-24.655,9.017"/>
			</g>
		</g>
		<g>
			<g>
				<path d="M95.25,196.141c-2.063,8.759,8.535,12.657,14.239,16.139c3.015,1.842,5.883,3.884,8.72,5.986
					c1.869,1.382,1.806,0.959,3.287-0.91c-5.479-4.291-11.44-8.241-17.662-11.352c-3.035-1.516-6.199-3.947-6.541-7.525
					c-0.108-1.117,0.012-2.847,0.991-3.582c0.91-0.684,0.817-1.197,0.817-2.492c-2.058,0-3.537,1.873-3.973,3.709"/>
			</g>
		</g>
		<g>
			<g>
				<path d="M210.304,106.574c-1.82,0.764-3.308,2.771-3.628,4.686c2.136,0.358,2.197,0.619,3.244-1.102
					c1.678-2.767,4.403-1.034,6.292,0.534c5.365,4.458,6.628,11.226,8.949,17.39c1.489,3.956,8.364,11.744,2.656,14.952
					c-1.863,1.047-4.043,1.614-6.141,1.487c-1.554-0.093-1.335,0.84-1.585,2.346c3.111,0.525,7.131,0.027,9.772-1.762
					c5.855-3.967,1.174-10.73-1.104-15.325c-2.333-4.702-3.693-9.678-6.152-14.354c-2.091-3.968-7.118-11.429-12.447-9.194"/>
			</g>
		</g>
		<g>
			<g>
				<path d="M216.056,133.895c4.552,7.496,7.253,16.281,10.572,24.359c3.029,7.374,5.86,16.792,12.025,22.2
					c0.308-0.352,1.728-1.632,1.746-2.066c-1.29-1.132-2.441-2.46-3.41-3.868c-2.823-4.096-4.843-8.771-6.814-13.32
					c-4.06-9.365-6.627-19.88-11.948-28.631c-0.673,0.408-1.058,0.736-1.731,1.146"/>
			</g>
		</g>
		<g>
			<g>
				<path d="M94.199,186.831c10.044,10.771,17.616,24.549,32.723,28.825c6.204,1.755,12.683,3.659,19.076,4.407
					c6.805,0.797,14.698,1.053,21.279-1.294c-0.986-2.756-1.325-2.365-4.153-1.817c-3.646,0.706-7.38,0.823-11.074,0.615
					c-7.076-0.397-14.071-1.671-21.008-3.068c-16.747-3.372-24.677-17.319-35.485-28.912c-0.579,0.54-0.832,0.79-1.409,1.329"/>
			</g>
		</g>
		<g>
			<g>
				<path d="M161.125,217.288c-0.009,0.585,0.451,1.724,0.603,2.296c24.584-6.54,48.903-22.858,59.639-46.675
					c-2.48-2.094-3.065,2.026-4.062,3.818c-1.671,3.001-3.622,5.787-5.733,8.495c-4.446,5.692-9.291,11.167-15.083,15.47
					c-10.458,7.776-22.9,12.768-35.49,16.118"/>
			</g>
		</g>
	</g>
	<g>
		<g>
			<path d="M212.961,115.063c-1.566,3.263,0.246,7.45,1.42,10.531c0.699,1.834,1.093,6.937,3.295,6.778
				c0.95-4.245-2.756-8.936-3.446-13.032c-0.307-1.82-0.19-3.88,1.384-5.061c1.151-0.864,2.846-0.727,1.667-2.472
				c-1.702,0.547-3.298,1.701-4.096,3.363"/>
		</g>
	</g>
	<g>
		<g>
			<path d="M216.54,122.299c3.698,1.528,4.769,4.622,4.818,8.361c0.046,3.546-0.439,3.519,2.981,4.469
				c0.85-1.623-0.431-1.125-0.688-1.812c-0.272-0.075-0.352-0.222-0.624-0.298c0.021-1.272-0.077-2.526-0.167-3.798
				c-0.273-3.855-2.047-6.784-5.727-8.305c-0.188,0.452-0.555,0.932-0.614,1.414"/>
		</g>
	</g>
</g>
<g>
	<g>
		<path d="M141.069,239.145c-7.303,10.271-15.089,22.797-18.283,35.172c-2.515,9.748-0.641,23.186,0.395,33.16
			c2.388,23.033,14.591,37.719,33.904,49.967c1.54-2.432,1.502-2.896-1.036-4.612c-3.299-2.231-6.913-4.146-9.891-6.792
			c-5.042-4.477-20.213-16.059-21.626-48.456c-0.606-13.868,0.967-27.881,7.729-40.243c3.634-6.646,21.664-30.324,23.634-37.712
			c-0.404-0.107-2.638-1.054-2.967-0.87c-0.629,2.362-1.088,4.798-2.242,6.948C148.075,230.57,144.262,234.657,141.069,239.145"/>
	</g>
</g>
<g>
	<g>
		<path d="M152.361,358.979c5.542,18.797,17.742,35.563,28.561,51.629c5.131,7.619,11.889,13.95,17.529,21.185
			c3.197,4.105,6.335,8.373,8.561,13.092c1.034,2.199,1.61,4.613,2.287,6.95c0.589,2.038,1.759,1.202,3.585,0.739
			c-4.509-17.8-20.252-30.739-30.213-45.523c-5.897-8.742-11.979-17.364-17.16-26.559c-2.681-4.752-4.621-9.834-6.707-14.878
			c-0.883-2.137-1.926-4.168-2.623-6.374c-0.586-1.849-2.03-0.851-3.686-0.363"/>
	</g>
</g>
<g>
	<g>
		<path d="M255.402,169.496c-5.806,0.949-11.622,2.328-17.531,1.949c-2.397-0.152-4.609-0.628-6.798-1.648
			c-2.313-1.081-1.931-0.941-3.356,1.131c6.872,4.724,15.909,3.695,23.632,2.513c7.498-1.148,14.952-2.478,22.551-2.772
			c7.507-0.292,14.996,0.475,21.933,3.477c4.126,1.787,8.492,3.523,11.913,6.438c1.968,1.675,2.835,4.631,4.559,6.557
			c0.456-0.041,1.376-1.395,1.74-1.72c-7.766-8.682-17.261-15.575-28.846-17.301C275.307,166.644,265.179,167.899,255.402,169.496"
			/>
	</g>
</g>
<g>
	<g>
		<path d="M283.585,187.033c9.819,2.196,17.041,12.414,22.159,20.174c6.754,10.247,13.34,19.917,21.711,28.975
			c8.627,9.336,17.469,18.434,26.143,27.724c4.157,4.452,7.837,9.282,11.465,14.183c1.777,2.407,4.381,4.271,5.939,6.826
			c1.041,1.706,0.508,5.673,2.742,3.508c-11.728-21.744-31.16-37.458-47.395-55.576c-7.956-8.875-13.946-18.751-20.596-28.563
			c-5.177-7.638-12.057-16.899-21.708-19.057c-0.129,0.578-0.093-0.382-0.059,0.205"/>
	</g>
</g>
<g>
	<g>
		<path d="M161.447,302.496c7.556,6.263,17.432,8.701,22.505,17.636c5.179,9.128,8.565,18.832,14.342,27.694
			c11.424,17.521,25.42,33.699,41.834,46.566c1.49-1.097,1.915-2.537,0.657-3.541c-2.511-2-5.874-2.99-8.3-5.097
			c-4.345-3.78-8.375-7.991-12.401-12.11c-7.832-8.013-14.08-17.431-20.204-26.821c-6.03-9.25-10.077-19.192-15.833-28.515
			c-2.878-4.662-6.681-7.735-11.251-10.648c-2.566-1.639-4.494-4.223-6.984-5.977c-1.514-1.066-2.614-2.129-3.658,0.235"/>
	</g>
</g>
<g>
	<g>
		<path d="M332.349,318.745c-17.705,16.094-32.742,31.509-52.438,45.185c-7.001,4.861-16.473,10.791-24.131,14.495
			c-8.981,4.349-18.178,9.624-23.411,18.567c2.739,1.601,1.831,0.378,3.792-2.021c2.219-2.712,4.79-5.146,7.683-7.107
			c5.289-3.584,10.724-7.112,16.45-9.916c14.375-7.037,26.992-16.264,39.166-26.547c14.374-12.146,28.509-24.519,42.456-37.144
			c7.137-6.461,14.66-12.479,21.967-18.746c3.427-2.937,5.771-7.183,9.269-10.036c1.733-1.41,5.175-0.957,6.93-2.347
			c-0.015-0.461-2.683-3.185-2.987-3.565c-15.523,12.285-29.472,26.564-44.113,39.873"/>
	</g>
</g>
<g>
	<g>
		<path d="M236.644,393.316c2.935,2.146,5.72,4.503,8.666,6.638c3.328,2.409,6.521,4.976,9.546,7.763
			c0.479,0.44,3.323,3.213,3.617,2.94c0.52-0.483,1.222-0.951,1.739-1.433c-4.823-5.193-10.599-9.266-16.296-13.425
			c-1.553-1.135-3.111-2.26-4.667-3.393c-1.627-1.19-1.363-0.442-2.572,1.155"/>
	</g>
</g>
<g>
	<g>
		<path d="M278.516,402.283c-7.897,5.613-14.576,9.471-24.355,8.927c-2.971-0.164-6.696-1.006-9.155-2.899
			c-3.772-2.909,3.566-6.135,0.767-7.707c-12.173,12.223,12.855,12.795,19.751,11.069c6.671-1.67,12.55-6.741,18.141-10.475
			c3.093-2.069,6.085-4.23,9.614-5.442c1.755-0.604,3.51-1.197,5.336-1.514c1.567-0.271,3.797-0.256,2.966-2.477
			c-8.812,0.817-16.27,5.12-23.331,10.145"/>
	</g>
</g>
<g>
	<g>
		<path d="M358.712,353.492c-7.563,5.531-15.61,10.408-23.094,16.042c-7.398,5.567-13.785,12.526-21.451,17.724
			c-4.462,3.027-9.646,4.91-14.344,7.559c-2.695,1.521-4.954,3.868-7.729,5.242c-1.521,0.752-5.694,0.983-3.913,3.122
			c21.293-9.809,39.916-23.982,58.523-37.993c14.492-10.914,28.579-22.115,42.074-34.287c-1.224-2.477-2.834,1.779-4.12,2.881
			c-2.595,2.218-4.801,4.945-7.493,7.043c-5.881,4.576-12.347,8.4-18.369,12.787"/>
	</g>
</g>
<g>
	<g>
		<path d="M386.799,330.744c3.673,11.298,9.906,23.273,19.658,30.597c-17.847,11.317-33.366,26.209-50.072,39.078
			c-8.063,6.211-16.658,11.877-25.435,17.049c-4.365,2.569-9.502,3.643-14.106,5.75c-2.303,1.054-3.994,3.557-6.358,4.466
			c-1.475,0.572-3.729,0.659-2.373,2.601c39.117-13.91,66.497-47.195,101.022-68.66c-4.646-3.203-8.306-7.88-11.369-12.616
			c-2.174-3.357-5.129-6.367-6.697-10.043c-0.777-1.826-1.538-3.711-2.207-5.578c-0.531-1.5-0.443-3.938-2.45-2.629"/>
	</g>
</g>
<g>
	<g>
		<path d="M374.027,278.754c0.294,7.518,2.864,14.557,5.833,21.355c1.654,3.798,3.545,7.502,4.68,11.496
			c0.177,0.627,0.936,4.479,1.297,4.422c0.7-0.114,1.689-0.028,2.389-0.142c-1.201-7.438-5.108-14.041-7.965-20.934
			c-1.538-3.706-2.907-7.563-3.596-11.529c-0.112-0.649-0.129-4.914-0.483-4.899c-0.706,0.026-1.292,0.207-2.001,0.235"/>
	</g>
</g>
<g>
	<g>
		<path d="M380.835,300.698c5.326,9.878,15.246,15.229,24.281,21.243c4.325,2.879,8.309,6.359,11.636,10.396
			c1.652,2.012,2.997,4.207,4.018,6.602c0.769,1.805,1.264,0.99,2.93,0.379c-3.795-10.344-13.41-16.055-22.21-21.791
			c-4.558-2.967-9.079-6.158-12.917-10.041c-1.946-1.969-3.411-4.364-4.837-6.739c-1.046-1.742-1.666-0.79-3.272,0.077"/>
	</g>
</g>
<g>
	<g>
		<path d="M430.721,350.673c-8.27,2.042-16.609,4.129-24.396,7.675c0.26,1.621,0.537,0.987,1.843,0.432
			c2.38-1.014,4.946-1.584,7.414-2.374c4.594-1.476,9.244-2.788,13.928-3.947c3.604-0.892,7.221-1.704,10.817-2.627
			c0.123-3.024-7.678,0.405-9.591,0.896"/>
	</g>
</g>
<g>
	<g>
		<path d="M385.538,310.648c0.309,3.664,0.657,7.338,0.735,11.02c0.054,2.52,0.104,5.1-0.387,7.578
			c-0.332,1.682-2.567,4.42,0.008,4.781c2.178-4.975,1.968-10.639,1.612-15.952c-0.104-1.581,0.584-8.687-2.13-7.63"/>
	</g>
</g>
<g>
	<g>
		<path d="M287.916,403.458c8.301,7.778,11.991,19.278,20.207,27.107c2.236-1.328-0.598-3.047-1.656-4.323
			c-2.192-2.654-3.975-5.608-5.831-8.504c-3.466-5.405-7.044-10.861-11.767-15.286c-0.335,0.357-0.609,0.482-0.836,0.913"/>
	</g>
</g>
<g>
	<g>
		<path d="M304.75,442.338c-3.716,4.379-7.352,8.99-9.971,14.139c2.052,1.879,3.629-2.82,4.679-4.316
			c2.092-2.985,4.233-5.945,6.591-8.72c4.361-5.144,9.031-10.276,11.751-16.515c-2.138-1.729-4.385,4.174-5.504,5.83
			c-2.287,3.38-4.495,6.825-7.131,9.932"/>
	</g>
</g>
<g>
	<g>
		<path d="M424.464,355.658c4.351,11.229,2.836,23.525,6.453,34.933c1.87-0.595,1.982,0.036,1.399-2.104
			c-0.995-3.662-1.391-7.49-1.75-11.262c-0.72-7.57-0.764-15.396-3.539-22.572c-0.738,0.287-1.83,0.685-2.563,0.971"/>
	</g>
</g>
<g>
	<g>
		<path d="M426.355,382.932c3.733,13.404,14.588,23.694,17.835,37.275c2.961,12.38-5.556,19.122-10.126,29.556
			c2.616,1.148,2.007,0.72,3.427-1.938c1.636-3.062,4.111-5.602,5.95-8.537c3.479-5.566,3.89-11.391,2.631-17.913
			c-1.601-8.291-5.306-15.841-9.523-23.01c-2.23-3.795-4.163-7.7-5.848-11.777c-0.244-0.591-1.897-4.076-2.25-3.979
			c-0.684,0.189-1.933,0.224-2.611,0.41"/>
	</g>
</g>
<g>
	<g>
		<path d="M243.287,408.572c10.368,17.423,25.403,33.872,41.468,46.179c1.503-1.964,2.033-2.319-0.031-3.976
			c-2.357-1.889-5.117-3.304-7.349-5.338c-4.863-4.434-9.387-9.263-13.796-14.145c-4.321-4.781-8.4-9.8-12.218-14.991
			c-1.687-2.3-2.93-4.891-4.45-7.303c-1.351-2.141-1.381-1.744-3.423-0.529"/>
	</g>
</g>
<g>
	<g>
		<path d="M442.063,350.041c17.944,11.548,36.445,22.175,54.016,34.314c8.13,5.621,15.687,11.944,22.734,18.884
			c3.43,3.382,6.652,6.892,9.686,10.631c1.56,1.92,3.635,3.441,5.076,5.458c1.24,1.726,1.791,0.677,3.319-0.391
			c-11.522-16.513-27.528-29.242-44.247-40.242c-8.354-5.496-16.639-11.166-25.251-16.24c-5.183-3.053-10.85-5.293-15.979-8.432
			c-2.375-1.45-5.036-2.455-7.383-3.95c-1.945-1.241-1.577-0.813-2.651,0.858"/>
	</g>
</g>
<g>
	<g>
		<path d="M532.271,413.72c3.283,8.116,7.263,15.923,10.617,24.008c1.748,4.215,2.862,8.662,3.987,13.087
			c0.526,2.066,1.094,4.131,1.435,6.235c0.41,0.212,1.594-0.287,2.072-0.364c-1.452-8.908-4.271-17.374-7.994-25.556
			c-1.871-4.125-4.031-8.118-5.88-12.256c-0.864-1.938-1.791-3.816-2.586-5.781c-0.438-0.12-1.838,0.667-2.287,0.851"/>
	</g>
</g>
<g>
	<g>
		<path d="M414.636,334.896c8.068,5.114,16.205,10.119,24.243,15.28c0.188-0.297,1.496-2.085,1.277-2.224
			c-1.352-0.865-2.742-1.665-4.093-2.531c-1.665-1.072-3.438-1.968-5.107-3.025c-5.018-3.185-9.838-6.737-14.857-9.92
			c-0.414,0.672-0.715,1.676-1.127,2.346"/>
	</g>
</g>
<g>
	<g>
		<path d="M447.049,433.439c9.479,2.702,19.397,3.599,28.997,5.795c4.206,0.962,8.309,2.549,12.216,4.41
			c1.537,0.735,3.244,1.23,4.541,2.35c0.429-0.079,1.1-1.215,1.404-1.571c-6.242-5.396-15.726-7.403-23.545-8.907
			c-4.957-0.951-10.054-1.157-15.012-2.083c-2.313-0.432-4.504-1.382-6.782-1.969c-1.748-0.451-1.563,0.882-2.007,2.438"/>
	</g>
</g>
<g>
	<g>
		<path d="M422.983,284.189c13.402,2.914,21.143,14.551,31.813,22.002c0.407-0.58,0.949-0.848,1.354-1.428
			c0.227-0.32-3.478-2.873-3.975-3.291c-3.052-2.547-5.988-5.229-8.925-7.896c-5.782-5.254-11.991-10.176-19.754-11.863
			c-0.17,0.771-0.334,1.686-0.502,2.458"/>
	</g>
</g>
<g>
	<g>
		<path d="M419.754,305.273c0.469,2.332,4.787-0.271,6.854-0.148c4.467,0.27,8.707,2.287,12.938,3.621
			c5.329,1.686,13.832,4.423,17.009-2.201c-1.745-1.579-2.855,1.874-4.812,2.441c-2.859,0.83-6.228-0.061-8.98-0.854
			c-7.038-2.027-16.094-6.949-23.293-3.217"/>
	</g>
</g>
<g>
	<g>
		<path d="M456.219,310.428c2.631,3.92,5.607,7.828,7.314,12.26c0.605,1.574,2.316,6.373-0.03,6.771
			c-2.436,0.408-2.282-0.207-2.567,2.299c2.072,0.236,5.099,0.201,6.011-1.554c0.412-3.819-0.755-7.628-2.48-11
			c-1.411-2.755-3.105-5.357-4.826-7.92c-1.487-2.215-1.401-2.167-3.605-0.738"/>
	</g>
</g>
<g>
	<g>
		<path d="M447.139,315.874c2.167,2.756,4.535,5.364,6.669,8.146c2.043,2.662,3.815,5.543,4.84,8.769
			c0.584,1.835-0.182,6.104,2.37,5.586c0.507-6.97-3.553-12.854-7.718-17.976c-1.218-1.494-4.189-6.961-5.955-4.646"/>
	</g>
</g>
<g>
	<g>
		<path d="M439.393,322.216c2.764,5.778,10.361,21.097,18.731,18.136c-0.106-2.17-1.903-1.019-3.418-1.528
			c-2.448-0.829-4.543-2.823-6.17-4.739c-2.048-2.41-3.77-5.126-5.351-7.859c-0.851-1.47-1.674-5.797-3.681-3.996"/>
	</g>
</g>
<g>
	<g>
		<path d="M431.926,328.816c2.439,5.349,5.864,12.564,11.629,15.099c5.79,2.546,8.104-1.765,5.413-7.017
			c-3.294,0.627,1.595,5.287-1.298,5.936c-1.901,0.43-3.667-0.473-5.188-1.6c-2.292-1.689-4.136-3.975-5.601-6.381
			c-1.032-1.701-2.695-7.885-4.899-6.063"/>
	</g>
</g>
<g>
	<g>
		<path d="M433.654,335.217c0.998,1.955,2.296,6.18-1.15,6.452c-2.848,0.228-2.578-0.887-3.46,1.956
			c6.939,2.15,9.817-3.677,6.816-9.545c-0.703,0.361-1.47,0.752-2.172,1.111"/>
	</g>
</g>
<g>
	<g>
		<path d="M425.692,337.904c2.229,0.839,1.648-1.656,2.552-3.041c1.038-1.596,4.318-1.83,3.017-3.902
			c-3.231,0.922-5.32,3.598-5.576,6.92"/>
	</g>
</g>
<g>
	<g>
		<path d="M430.675,322.367c-3.714,2.087-7.454,4.145-11.167,6.232c0.671,2.993,7.616-2.494,9.241-3.408
			c6.588-3.703,13.372-7.146,19.722-11.262c-0.902-2.783-5.06,1.008-6.638,1.941c-3.704,2.191-7.375,4.443-11.149,6.509"/>
	</g>
</g>
<g>
	<g>
		<path d="M306.396,178.937c4.066,3.762,7.969,7.717,11.868,11.657c5.842,5.903,10,13.238,15.308,19.623
			c5.551,6.681,12.002,12.367,17.789,18.797c3.41,3.789,6.194,8.672,10.672,11.153c14.597,8.093,23.199,18.672,28.954,24.457
			c11.003,11.058,23.828,20.458,40.017,21.396c0.04-0.705,0.398-0.238,0.442-0.944c0.02-0.332-4.786-1.61-5.507-1.751
			c-4.266-0.822-8.497-1.579-12.354-3.567c-7.259-3.737-12.76-9.868-18.576-15.543c-6.244-6.089-12.559-12.219-19.213-17.873
			c-3.794-3.222-8.995-4.505-12.26-8.207c-13.356-15.14-24.484-22.853-30.165-29.841c-5.501-6.768-8.513-15.36-14.781-21.476
			c-2.652-2.588-5.3-5.206-8.02-7.72c-2.122-1.964-2.599-2.114-4.591-0.002"/>
	</g>
</g>
<g>
	<g>
		<path d="M410.324,295.432c-1.366,2.155-2.642,4.514-4.637,6.151c-1.494,1.229-5.08,1.085-4.29,3.362
			c4.581-0.232,7.41-4.117,9.681-7.653c0.919-1.426,4.167-4.342,1.609-5.267c-0.756,1.125-1.485,2.355-2.242,3.482"/>
	</g>
</g>
<g>
	<g>
		<path d="M218.236,373.718c15.933,22.735,23.634,49.574,34.288,74.881c3.21-0.414,0.642-3.389-0.12-5.271
			c-1.426-3.533-2.268-7.295-3.625-10.854c-2.588-6.793-5.685-13.387-8.364-20.146c-5.522-13.924-10.829-28.24-19.455-40.553
			c-0.488,0.344-1.556,0.937-1.931,1.393"/>
	</g>
</g>
<g>
	<g>
		<path d="M148.389,215.658c2.858,3.51,4.687,7.728,5.593,12.162c0.464,2.267,0.69,4.565,0.622,6.875
			c0.334,0.283,2.042,0.052,2.51,0.066c0.219-7.449-2.323-14.66-7.038-20.453c-0.613,0.499-1.151,0.901-1.763,1.401"/>
	</g>
</g>
<g>
	<g>
		<path d="M190.657,278.074c2.384,1.307,4.909,0.216,4.429,3.678c-1.292,1.3-4.019,0.034-5.648-0.27
			c-1,2.887,5.815,3.233,7.084,0.979c2.319-4.122-5.14-7.371-5.79-4.444"/>
	</g>
</g>
<g>
	<g>
		<path d="M286.021,213.194c0.088,0.157,0.155,0.289,0.241,0.446c-0.191-0.207-0.404-0.34-0.594-0.544
			c-1.474,0.466-1.3,5.093-1.256,6.277c0.056,1.465,1.8,0.892,2.965,0.879c2.665-0.032,3.914,0.496,3.428-2.888
			c-0.261-1.821-3.05-5.366-4.871-4.192 M286.61,214.265c0.948,1.232,2.65,1.966,2.65,3.739c0,1.21-2.331,0.723-3.334,0.707
			c0.028-1.448,0.295-2.991,0.664-4.392"/>
	</g>
</g>
<g>
	<g>
		<path d="M316.476,330.805c2.108,1.024,1.533-1.363,3.111-2.125c1.354-0.656,3.091,0.379,2.699-1.83
			c-2.806-0.32-5.369,1.021-5.854,3.955"/>
	</g>
</g>
<g>
	<g>
		<path d="M143.999,91.672c-22.264,7.537-42.059,22.211-59.879,37.108c1.141,2.511,2.594,0.765,4.092-0.47
			c2.545-2.099,4.895-4.476,7.486-6.517c5.474-4.313,12.309-6.784,18.089-10.675c10.558-7.109,21.318-14.262,33.529-18.044
			c10.569-3.272,21.991-5.144,32.857-2.695c5.909,1.332,10.906,5.228,16.125,8.289c2.666,1.564,5.979,2.134,8.421,4.027
			c1.62,1.256,3.759,4.631,5.166,1.709C191.212,88.067,167.409,83.749,143.999,91.672"/>
	</g>
</g>
<g>
	<g>
		<path d="M93.313,193.754c2.584-1.198-0.478-2.327-1.326-4.171c-1.188-2.586-1.089-5.627-1.73-8.394
			c-1.732-7.481-3.407-15.087-3.571-22.751c-0.16-7.42,0.5-14.943,1.752-22.269c0.498-2.92,0.684-6.027,1.708-8.813
			c0.734-1.997,3.649-4.623,0.887-5.671c-6.73,9.453-5.829,25.264-5.625,36.268c0.133,7.242,0.757,14.47,2.199,21.576
			c1.003,4.951,1.486,11.128,4.772,15.132"/>
	</g>
</g>
<g>
	<g>
		<path d="M86.925,101.464c-9.1,9.266-12.048,22.64-13.722,35.267c-0.887,6.694-1.129,13.404-1.209,20.15
			c-0.04,3.098-0.225,6.188-0.22,9.287c0.001,1.46,0.203,3.365,2.333,2.726c-0.008-13.807-0.554-27.861,2.786-41.362
			c3.936-15.917,14.005-26.619,27.141-35.947c11.944-8.481,25.275-14.009,39.926-15.094c7.306-0.54,14.722-1.379,21.933-0.123
			c4.124,0.719,8.299,1.598,12.317,2.769c1.873,0.546,3.849,0.892,5.695,1.521c1.488,0.508,3.225,2.065,3.419-0.276
			c-17.12-6.251-35.945-7.708-53.969-3.88C115.729,80.247,99.428,88.735,86.925,101.464"/>
	</g>
</g>
<g>
	<g>
		<path d="M184.944,81.695c7.668,0.638,12.811,3.587,17.255,9.756c2.578,3.577,4.895,7.335,8.163,10.323
			c1.407,1.285,2.737,2.143,2.623,4.198c-0.032,0.585,1.997,0.625,2.546,0.714c0.589-3.619-2.403-5.433-4.701-7.692
			c-2.872-2.823-4.929-6.298-7.298-9.533c-4.669-6.379-10.51-9.031-18.411-9.688c-0.064,0.788-0.097,1.158-0.162,1.946"/>
	</g>
</g>
<g>
	<g>
		<path d="M95.487,65.088c-16.056,7.298-30.009,23.168-35.057,40.051c-2.871,9.603-1.399,19.01,1.946,28.265
			c1.704,4.715,4.931,8.996,6.235,13.847c0.664,2.474,0.555,5.258,0.747,7.816c0.167,2.191-0.875,1.538,1.076,1.481
			c-0.524-17.945-13.27-32.408-7.563-50.928c4.636-15.043,16.498-29.091,30.189-36.733c14.292-7.979,31.429-11.638,47.666-9.445
			c8.419,1.137,16.763,4.496,24.445,8.077c4.325,2.016,9.198,3.041,13.263,5.54c1.94,1.191,3.044,3.947,4.933,5.223
			c0.441-0.161,1.811-2.921,2.089-3.332c-13.331-9.006-29.818-15.532-45.952-17.541C123.884,55.462,109.69,58.634,95.487,65.088"/>
	</g>
</g>
<g>
	<g>
		<path d="M94.766,193.089c0.648-0.182,1.045-1.458,1.437-2.307c-6.243-2.874-12.793-5.839-17.722-10.774
			c-2.526-2.529-4.704-5.433-5.422-8.961c-0.401-1.971-0.184-4.024,0.037-6.021c-0.261-0.298-2.15-0.222-2.581-0.271
			c-1.719,15.383,12.561,22.408,24.447,27.891"/>
	</g>
</g>
<g id="Hand">
	<path fill="#0090C0" d="M723.423,4.055c0,0-21.297-4.057-34.986-0.507c-13.689,3.55-24.846,5.578-50.199,5.578
		s-53.24,1.521-55.775,2.028c-2.535,0.507-5.07,1.014-5.07,1.014s2.535,19.268,6.086,38.029c3.549,18.762,7.098,29.41,7.098,32.452
		s0,5.07,0,5.07s4.057-2.028,15.719-10.648s20.281-1.521,26.367,1.014c6.086,2.536,13.689-1.014,16.732-2.535
		s9.127,4.057,18.762,5.071c9.635,1.014,17.24,0.507,23.324-5.071c6.084-5.577,17.746-1.014,24.846-1.014
		C723.423,74.534,723.423,4.055,723.423,4.055z"/>
	<path fill="#ECAF8B" d="M577.56,14.703c0,0-9.465,1.69-21.971,7.437c-12.508,5.747-24.002,7.099-34.48,12.169
		c-10.479,5.07-9.129,9.127-15.889,19.268c-6.76,10.141-15.211,21.635-21.297,30.762c-6.084,9.127-13.184,14.198-13.521,18.254
		c-0.338,4.056,1.354,4.732,1.354,4.732s-7.436,9.803-5.746,11.831c1.688,2.029,8.113,3.38,21.297-5.747s23.662-17.24,29.746-22.648
		c6.084-5.409,15.549-9.465,12.508-3.719c-3.043,5.747-0.34,13.522,5.07,14.197c5.408,0.677,13.184-6.084,14.535-6.422
		c1.352-0.337,5.07,6.085,12.508,6.085c7.436,0,13.859-4.733,18.254-9.127s10.479-7.099,10.479-7.099s0-5.408-4.057-22.31
		C582.292,45.463,577.56,14.703,577.56,14.703z"/>
	<path fill="#F2D7C5" d="M473.106,121.185c3.779-2.267,6.76-7.099,3.719-10.141c-3.043-3.042-9.127,2.705-10.479,4.733
		c-1.352,2.028-1.352,2.028-1.352,2.028S468.036,124.227,473.106,121.185z"/>
	<path fill="#F2D7C5" d="M471.755,107.324c0-2.366-1.352-5.071,0.338-8.451c1.689-3.379,5.408-2.704,6.762-1.69
		c1.352,1.014,1.689,2.367,1.689,2.367L471.755,107.324z"/>
	<g>
		<g>
			<g>
				<path d="M674.962,4.468c-7.723,1.909-15.25,4.178-23.271,3.824c-9.863-0.436-20.916-0.77-30.846-0.457
					c-15.639,0.493-29.406,1.072-44.932,2.932c0.182,1.531-0.553,2.646,0.9,2.478c2.166-0.253,4.287-0.909,6.457-1.147
					c7.219-0.793,13.971-1.262,21.213-1.819c6.049-0.476,12.619-0.079,18.686-0.234c7.688-0.194,15.131,0.111,22.758,0.931
					c11.82,1.271,22.422-2.374,33.895-4.951c7.457-1.676,15.078-3.69,22.736-3.707c4.025-0.009,7.971,1.847,11.949,2.45
					c2.131,0.323,4.387-0.06,6.48,0.435c1.979,0.466,2.26,0.52,2.746-1.328C707.655-0.38,690.919,0.521,674.962,4.468"/>
			</g>
		</g>
		<g>
			<g>
				<path d="M576.685,9.071c0.355,14.858,3.867,29.406,6.639,43.922c1.336,7,3.502,13.683,5.24,20.6
					c0.816,3.24,1.76,6.624,1.801,9.978c0.021,1.685-1.123,3.294-1.469,4.943c-0.256,1.216-0.693,2.454,1.072,2.511
					c2.158-6.895,0.873-14.019-0.918-20.781c-1.918-7.235-4.01-14.384-5.502-21.711c-1.438-7.06-1.891-14.31-3.117-21.409
					c-0.613-3.545-1.617-7.031-1.973-10.613c-0.178-1.774-0.648-3.542-0.732-5.323c-0.059-1.243,1.131-2.585-0.564-2.074"/>
			</g>
		</g>
		<g>
			<g>
				<path d="M689.673,75.88c-5.447,4.75-11.67,5.9-18.523,3.539c-7.145-2.461-13.734-6.728-21.58-6.414
					c0.014,0.317-1.631,2.815-1.443,3.05c2.031-0.082,4.014,0.406,5.994,0.868c3.67,0.858,7.184,2.168,10.629,3.659
					c5.43,2.351,12.586,2.755,18.416,0.608c3.42-1.26,5.896-3.443,8.895-5.342c2.285-1.448,4.951-1.779,7.613-2.078
					c3.383-0.381,6.748-0.457,10.129-0.134c2.004,0.192,4.018,0.258,6.008,0.545c1.455,0.21,1.152-0.302,1.34-1.557
					c-8.514-1.276-20.549-3.292-27.727,2.966"/>
			</g>
		</g>
		<g>
			<g>
				<path d="M650.747,73.371c-5.117,3.504-11.408,6.652-17.754,4.038c-5.814-2.395-9.967-6.328-16.813-5.498
					c-6.117,0.743-10.992,4.472-15.426,8.314c-2.271,1.968-4.414,4.181-7.096,5.572c-1.314,0.683-2.59,1.852-4.035,2.186
					c-1.256,0.29-1.002-0.549-0.807,0.603c7.701-1.298,13.205-6.829,19.076-11.352c2.703-2.083,5.461-3.752,8.936-4.023
					c4.119-0.32,7.402,1.297,10.771,3.426c2.691,1.7,5.66,3.054,8.91,3.293c3.977,0.292,8.057-0.911,11.393-2.939
					c3.197-1.944,6.182-4.123,9.527-5.822c1.582-0.802,2.918-2.109,4.65-2.485c1.824-0.396,2.014-0.564,1.818-2.341
					c-5.039,0.546-9.469,3.644-13.557,6.442"/>
			</g>
		</g>
		<g>
			<g>
				<path d="M580.013,14.585c-0.123,1.835,2.33,0.22,3.42,0.022c2.148-0.39,4.369-0.354,6.525-0.694
					c4.426-0.696,8.859-1.281,13.314-1.724c4.111-0.409,8.234-0.413,12.363-0.544c1.787-0.058,3.563-0.182,5.35-0.175
					c1.098,0.004,3.9,0.607,3.463-1.137c-14.912-0.424-29.813,1.51-44.428,4.335"/>
			</g>
		</g>
		<g>
			<g>
				<path d="M579.847,18.77c-0.104,1.804,2.688,0.767,3.768,0.554c2.104-0.415,4.305-0.267,6.418-0.609
					c4.727-0.768,9.441-1.452,14.205-1.921c4.316-0.426,8.6-1.493,12.934-1.65c1.988-0.073,3.996,0.338,5.984,0.344
					c1.129,0.003,4.375,0.939,3.941-0.821c-15.68-0.583-31.863,0.904-47.164,4.277"/>
			</g>
		</g>
		<g>
			<g>
				<path d="M601.841,21.931c-4.125,0.477-8.314,0.303-12.449,0.661c-1.889,0.163-3.762,0.431-5.656,0.516
					c-1.045,0.047-3.09-0.491-2.605,1.133c8.061-0.123,16.104-0.578,24.1-1.488c4.27-0.486,8.459-1.863,12.746-2.156
					c2-0.137,4.039,0.444,6.041,0.412c1.129-0.018,4.148,0.755,3.723-1.015c-8.672-0.309-17.336,0.646-25.932,1.64"/>
			</g>
		</g>
		<g>
			<g>
				<path d="M602.776,28.458c-3.828,0.604-7.689,1.002-11.523,1.577c-1.727,0.259-3.473,0.38-5.197,0.623
					c-1.07,0.151-3.604-0.394-2.91,1.255c8.393-1.122,16.775-2.095,25.139-3.403c4.316-0.674,8.557-1.884,12.885-2.484
					c2.139-0.296,4.342-0.113,6.482-0.375c1.082-0.133,3.729-0.305,3.066-1.989c-9.359,1.047-18.691,2.994-27.992,4.462"/>
			</g>
		</g>
		<g>
			<g>
				<path d="M610.794,34.505c-5.193,0.894-10.49,1.289-15.766,1.54c-3.738,0.177-7.955,0.08-11.553,1.191
					c0.018,1.594,1.986,0.615,3.039,0.506c2.096-0.219,4.227,0.179,6.328,0.079c3.924-0.188,7.779-0.918,11.666-1.518
					c5.301-0.819,10.508-2.298,15.824-3.009c2.799-0.375,5.686,0.136,8.508,0.04c1.273-0.044,5.482,1,5.111-0.808
					c-7.834-0.489-15.502,0.483-23.189,1.806"/>
			</g>
		</g>
		<g>
			<g>
				<path d="M612.04,40.198c-5.004,1.266-10.209,2.287-15.393,2.506c-3.66,0.156-7.541,0.07-11.141,0.779
					c-0.145,1.741,2.703,1.118,3.83,1.046c1.535-0.097,3.053-0.438,4.59-0.503c3.457-0.148,6.814-0.518,10.221-1.208
					c5.127-1.038,10.094-2.792,15.213-3.876c2.379-0.504,4.875-0.303,7.301-0.515c1.281-0.112,5.557,0.094,5.186-1.669
					c-6.707-0.389-13.348,1.869-19.793,3.499"/>
			</g>
		</g>
		<g>
			<g>
				<path d="M609.38,47.006c-4.16,0.787-8.334,1.536-12.545,1.994c-2.133,0.231-4.277,0.205-6.422,0.227
					c-1.203,0.013-4.838-0.464-4.494,1.367c8.295,0.626,16.566-1.41,24.678-2.938c3.92-0.739,7.92-0.875,11.893-1.288
					c2.189-0.229,4.344-0.927,6.545-0.928c1.121-0.002,3.875,0.532,3.523-1.248c-7.768-0.51-15.525,1.667-23.123,3.104"/>
			</g>
		</g>
		<g>
			<g>
				<path d="M587.917,55.858c-0.121,1.619,1.609,1.109,2.604,0.91c1.939-0.389,3.848-0.918,5.793-1.28
					c4.256-0.793,8.492-1.68,12.777-2.284c4.063-0.573,8.16-0.752,12.256-1.037c2.1-0.146,4.184-0.386,6.289-0.412
					c1.1-0.014,3.93,0.274,3.498-1.458c-14.465-0.436-29.061,2.882-43.168,5.772"/>
			</g>
		</g>
		<g>
			<g>
				<path d="M590.171,60.877c0.135,1.701,2.045,0.731,3.053,0.413c1.789-0.563,3.49-1.406,5.316-1.83
					c4.088-0.951,8.221-1.822,12.389-2.292c3.816-0.432,7.674-0.553,11.51-0.736c1.83-0.088,3.658-0.118,5.488-0.167
					c1.094-0.029,3.998,0.618,3.479-1.117c-13.768,0.235-28.072,1.233-41.131,6.008"/>
			</g>
		</g>
		<g>
			<g>
				<path d="M588.306,68.099c0.236,1.731,2.162-0.167,3.166-0.555c1.762-0.681,3.555-1.281,5.361-1.829
					c3.834-1.163,7.705-2.348,11.658-2.992c4.344-0.707,8.779-0.903,13.176-1.128c2.375-0.122,4.758,0.227,7.135,0.217
					c1.174-0.005,4.748,0.379,4.295-1.461c-15.189-0.309-31.004,1.079-45.051,7.239"/>
			</g>
		</g>
		<g>
			<g>
				<path d="M588.485,72.604c0.471,1.553,1.566-0.133,2.473-0.622c1.711-0.924,3.529-1.702,5.361-2.355
					c3.977-1.419,8.215-1.975,12.393-2.557c4.561-0.634,9.152-0.755,13.754-0.882c2.383-0.065,4.758-0.427,7.143-0.417
					c1.154,0.004,4.553,1.146,4.09-0.683c-14.789-0.227-32.488-1.149-45.434,7.191"/>
			</g>
		</g>
		<g>
			<g>
				<path d="M586.581,79.675c0.697,1.696,3.063-0.447,4.008-1.095c2.061-1.413,3.994-3.053,6.211-4.211
					c4.047-2.118,8.391-3.702,12.816-4.83c4.412-1.125,8.98-1.189,13.535-1.263c2.482-0.04,4.988-0.657,7.455-0.398
					c1.223,0.126,4.949,2.075,4.777,0.232c-17.313-3.104-34.758,0.961-48.66,11.717"/>
			</g>
		</g>
		<g>
			<g>
				<path d="M610.763,70.512c-3.768,0.63-7.051,2.048-10.045,4.355c-1.641,1.265-3.289,2.516-4.967,3.733
					c-0.969,0.702-4.086,1.647-2.857,2.962c3.529-1.864,6.514-4.361,9.738-6.662c3.473-2.476,7.135-3.667,11.379-3.966
					c6.105-0.43,12.342,0.696,18.426,1.221c0.695-1.813-4.447-1.485-5.66-1.59c-5.369-0.464-10.705-1.291-16.07-0.395"/>
			</g>
		</g>
		<g>
			<g>
				<path d="M557.278,20.11c-4.527,2.188-9.254,5.362-14.197,6.423c-4.268,0.915-7.582,1.818-11.744,3.137
					c-8.406,2.659-16.711,6.464-22.131,13.629c0.232,0.177,1.465,1.402,1.734,1.39c1.027-1.359,1.309-3.492,2.545-4.663
					c2.23-2.108,5.473-2.908,8.154-4.386c5.795-3.19,11.934-5.57,18.34-7.07c7.293-1.708,13.578-4.42,20.334-7.649
					c3.211-1.535,6.373-2.215,9.811-3.176c1.889-0.528,4.07-1.182,6.025-1.338c1.404-0.113,0.719-1.917,0.664-3.162
					C569.987,13.543,563.327,17.189,557.278,20.11"/>
			</g>
		</g>
		<g>
			<g>
				<path d="M496.429,64.394c-5.703,7.601-9.158,16.478-15.898,23.225c-3.871,3.872-15.383,13.808-8.961,19.745
					c0.229-0.247,0.824-0.709,0.879-1.026c-1.014-0.938-0.664-2.378-0.531-3.728c0.291-3.005,1.801-5.849,3.631-8.131
					c4.465-5.569,9.959-10.053,13.621-16.277c7.875-13.38,19.738-24.23,24.016-39.583c-0.438-0.122-0.531,0.162-0.969,0.04
					c-0.229-0.063-1.412,3.631-1.588,4.101c-1.002,2.686-2.563,4.392-3.963,6.89C503.735,54.87,500.017,59.615,496.429,64.394"/>
			</g>
		</g>
		<g>
			<g>
				<path d="M501.688,80.99c-4.162,3.041-7.543,5.911-11.004,9.676c-2.781,3.027-5.979,5.543-9.178,8.097
					c-7.285,5.82-13.209,12.567-18.557,20.146c1.625,1.78,2.814-2.278,3.721-3.521c2.139-2.941,4.418-5.837,6.932-8.471
					c4.609-4.834,10.146-8.454,15.064-12.907c2.389-2.161,4.314-4.635,6.545-6.929c2.551-2.625,5.572-4.853,8.508-7.018
					c5.867-4.332,11.332-8.922,15.758-14.755c-1.258-1.648-2.336,0.407-3.18,1.412c-1.648,1.956-3.158,3.988-5.029,5.732
					c-3.133,2.918-6.23,5.875-9.684,8.396"/>
			</g>
		</g>
		<g>
			<g>
				<path d="M515.226,90.713c-7.367,6.802-15.824,12.334-23.555,18.715c-4.625,3.817-9.521,7.474-15.139,9.72
					c-2.377,0.953-5.049,2.366-7.543,1.367c-1.346-0.539-1.99-1.838-2.684-3.091c-0.859-1.554-1.479-1.275-3.107-0.682
					c5.703,15.685,26.727-4.248,33.479-9.472c5.732-4.433,12.211-7.996,17.691-12.736c3.307-2.858,5.879-6.792,9.857-8.726
					c1.674-0.813,3.814-1.164,5.699-0.974c1.977,0.198,1.539,1.978,2.705,0.174c-5.943-3.851-13.389,1.725-17.541,5.557"/>
			</g>
		</g>
		<g>
			<g>
				<path d="M529.298,84.287c0.389,4.078-3.078,7.552-2.479,11.564c0.596,3.957,4.461,6.385,8.184,6.516
					c3.85,0.134,7.324-2.403,10.271-4.609c1.729-1.292,3.184-2.533,5.285-3.149c1.982-0.583,2.537,0.402,2.727-1.757
					c-7.447-0.655-11.357,8.634-18.857,7.881c-2.973-0.298-6.129-2.463-6.133-5.791c-0.008-3.755,3.174-6.923,2.801-10.857
					c-0.506,0.048-1.166,0.163-1.672,0.21"/>
			</g>
		</g>
		<g>
			<g>
				<path d="M581.169,90.337c-4.586,3.892-9.367,8.757-15.486,9.922c-3.066,0.584-6.16,0.208-8.904-1.25
					c-1.611-0.858-2.943-2.151-4.299-3.371c-1.48-1.329-1.328-1.656-2.676-0.337c6.627,6.774,14.691,9.027,23.016,4.071
					c3.5-2.083,6.313-5.162,9.408-7.787c2.152-1.828,3.555-2.642,5.836-4.314c1.098-0.804,2.396-1.33,3.566-2.026
					c0.039-0.275,0-2.375-0.152-2.631c-3.676,2.184-7.035,4.995-10.285,7.752"/>
			</g>
		</g>
		<g>
			<g>
				<path d="M536.538,86.076c-0.018,1.002,0.02,2.022-0.291,2.985c-0.309,0.952-1.404,1.625-0.016,2.063
					c1.326-2.036,1.115-4.047,1.314-6.341c0.08-0.902,0.441-1.732,0.938-2.497c0.539-0.834,1.645-1.343,0.4-2.099
					c-1.762,1.644-2.391,3.558-2.428,5.888"/>
			</g>
		</g>
		<g>
			<g>
				<path d="M549.827,93.47c1.652,0.289,3.303,0.727,4.803,1.486c1.041,0.527,2.488,2.507,3.373,1.179
					c-1.881-2.23-5.217-3.198-7.99-3.686c-0.055,0.31-0.209,0.655-0.176,0.964"/>
			</g>
		</g>
		<g>
			<g>
				<path d="M470.155,111.732c-1.605,1.489-3.059,3.119-4.561,4.713c0.883,1.515,2.039-0.697,2.758-1.443
					c1.572-1.634,3.266-3.621,5.508-4.308c2.447-0.751,3.965,1.474,3.721,3.749c-0.148,1.375-0.994,2.605-1.846,3.647
					c-0.66,0.81-2.461,1.757-1.014,2.57c2.492-2.471,5.086-5.697,3.146-9.313c-1.799-3.353-5.68-1.656-7.791,0.3"/>
			</g>
		</g>
		<g>
			<g>
				<path d="M472.511,96.975c0.658,1.45,2.795-0.698,4.344-0.236c1.395,0.414,1.967,2.888,3.234,2.061
					c-1.018-3.415-5.01-3.899-7.506-1.788"/>
			</g>
		</g>
		<g>
			<g>
				<path d="M496.269,90.603c1.086,1.005,2.184,2.01,3.115,3.165c0.682,0.846,1.23,2.957,2.43,1.803
					c-1.188-2.212-3.037-4-4.867-5.692c-0.213,0.231-0.553,0.458-0.695,0.736"/>
			</g>
		</g>
		<g>
			<g>
				<path d="M494.407,91.652c0.74,0.989,2.27,4.756,3.539,3.451c-0.826-1.413-1.697-2.795-2.676-4.104
					c-0.254,0.189-0.633,0.381-0.826,0.628"/>
			</g>
		</g>
		<g>
			<g>
				<path d="M480.604,104.792c1.021,0.82,2.93,4.172,4.027,2.871c-0.939-1.381-2.092-2.613-3.395-3.658
					c-0.197,0.246-0.516,0.509-0.643,0.795"/>
			</g>
		</g>
		<g>
			<g>
				<path d="M493.187,79.125c1.254,1.559,2.646,3.01,4.127,4.355c1.463-0.928-0.646-2.012-1.389-2.8
					c-0.744-0.789-1.67-2.98-2.688-1.572"/>
			</g>
		</g>
		<g>
			<g>
				<path d="M491.753,81.723c0.967,0.796,2.025,1.504,3.133,2.096c1.137-1.188-2.445-3.603-3.105-2.101"/>
			</g>
		</g>
		<g>
			<g>
				<path d="M484.552,90.762c0.754,1.053,1.65,2.014,2.629,2.864c1.355-0.892-1.598-4.144-2.615-2.874"/>
			</g>
		</g>
		<g>
			<g>
				<path d="M538.241,92.725c-0.098,0.295-0.025,0.693-0.043,1.007c2.752,0.13,5.357-0.88,7.641-2.347
					c-0.475-1.492-1.404-0.23-2.346,0.224c-1.629,0.787-3.43,1.17-5.248,1.084"/>
			</g>
		</g>
		<g>
			<g>
				<path d="M517.298,50.434c0.035,1.699,2.771,0.392,3.969,0.354c1.592-0.051,3.203,0.113,4.795,0.134
					c0.402-1.353-0.689-1.022-1.637-1.034c-2.381-0.033-4.824-0.131-7.131,0.568"/>
			</g>
		</g>
	</g>
	<rect id="FingersTarget" x="444.561" y="84.469" opacity="0" fill="#D9A988" width="52.177" height="46.658"/>
</g>
<rect id="CompressionsTarget" x="219.685" y="242.77" fill="#D9A988" fill-opacity="0" width="34.415" height="29.678"/>
<rect id="FingersTargetFixed" x="444.561" y="84.469" opacity="0" fill="#D9A988" width="52.177" height="46.658"/>
</svg>
