<?xml version="1.0" encoding="utf-8"?>
<!-- Generator: Adobe Illustrator 15.0.0, SVG Export Plug-In . SVG Version: 6.00 Build 0)  -->
<!DOCTYPE svg PUBLIC "-//W3C//DTD SVG 1.1//EN" "http://www.w3.org/Graphics/SVG/1.1/DTD/svg11.dtd">
<svg version="1.1" id="Layer_1" xmlns="http://www.w3.org/2000/svg" xmlns:xlink="http://www.w3.org/1999/xlink" x="0px" y="0px"
	 width="720px" height="450px" viewBox="0 0 720 450" enable-background="new 0 0 720 450" xml:space="preserve">
<g>
	<path fill="#0090C0" d="M139.553,30.045c-4.137,30.336-8.273,63.43-8.273,89.629s-4.137,32.404-6.895,37.919
		c-2.757,5.516-9.652,0-7.583,12.41c2.068,12.41,4.137,13.1,4.137,15.168c0,2.068,1.379,23.441,6.894,46.192
		c5.516,22.752,12.41,63.431,14.479,68.257c2.069,4.826,53.777-8.273,53.777-8.273s-6.895-36.541-8.962-63.431
		c-2.069-26.888-7.584-39.988-9.653-41.367c-2.068-1.378,2.758-4.826,2.758-8.963s4.826-39.298,7.584-64.808
		c2.758-25.51,7.584-70.324,7.584-70.324L139.553,30.045z"/>
	<path fill="#0090C0" d="M182.988,34.871c3.447,6.205,3.447,16.547,1.378,31.025c-2.068,14.479-2.758,23.442,4.826,33.094
		s7.584,13.1,7.584,13.1s14.479,48.261,8.963,83.423c-5.515,35.163-11.721,40.677-14.478,63.429
		c-2.758,22.753,1.378,54.468,1.378,54.468h224.073c0,0,6.204-39.988-3.448-86.872c-9.653-46.882-19.994-68.945-17.236-94.454
		c2.757-25.51,4.826-28.957,4.826-28.957s11.03-22.063,5.516-42.057c-5.516-19.994-5.516-24.131-5.516-24.131L182.988,34.871z"/>
	<path fill="#0082A9" d="M186.435,174.83c-14.061-7.583-31.063-11.099-46.792-12.407c8.927,5.343,17.237,12.321,26.141,16.914
		c-3.473,0.416-8.319,1.07-12.427,1.249c7.771,5.539,17.246,6.75,27.457,6.446c0.134-4.405,0.482-9.148,0.105-13.581"/>
	<path fill="#0082A9" d="M122.235,178.966c-0.024,43.8,30.279,74.894,33.078,117.057c-23.035,3.18-28.127-58.332-29.64-81.206"/>
	<path fill="#0082A9" d="M182.758,76.008c-0.104,32.713-2.975,64.749-1.838,97.442c5.572-27.227,15.542-59.184,5.516-85.492"/>
	<path fill="#0089B5" d="M408.49,70.438c-0.702,27.707-22.671,32.75-45.714,33.76c-13.613,0.597-46.742,0.398-21.102,12.522
		c31.612,14.947,67.647-4.952,66.815-39.217"/>
	<path fill="#0089B5" d="M183.057,70.438c0.702,27.707,22.671,32.75,45.714,33.76c13.612,0.597,46.741,0.398,21.101,12.522
		c-31.612,14.947-67.647-4.952-66.815-39.217"/>
</g>
<rect x="22.062" y="339.609" fill="#F1F2DA" width="682.557" height="88.25"/>
<path fill="#D3D7B8" d="M127.547,376.84c-13.872,0.139-46.436,1.098-55.098,12.828c45.486,10.459,95.02-2.994,139.846-1.055
	c2.743,18.4,86.067,13.168,101.073,13.703c36.438,1.299,73.243,3.707,109.457,5.701c7.027,0.387,24.173,3.369,29.447-3.605
	c5.477-7.236-5.372-14.09,0.198-20.539c4.518-5.229,51.625-0.793,58.502-0.828c11.88-0.061,24.418-0.777,36.295,0
	c11.619,0.76,23.522,6.516,34.914,6.115c9.808-0.344,15.467-4.711,24.54-6.996c8.771-2.209,67.356,2.828,71.039-8.738
	c7.363-23.131-264.114-33.217-280.62-33.836c-29.393-1.102-285.526-23.678-275.798,23.461"/>
<g>
	<path fill="#0090C0" d="M453.593,22.935c0,10.138,7.24,34.763,4.827,70.973c-2.413,36.209,0.481,60.352-1.932,69.524
		c-2.413,9.173-45.866,8.208-54.557,8.691c-8.69,0.482-11.104-23.177-11.104-28.004c0-4.828,5.309-21.726,6.276-29.451
		c0.966-7.726-4.345-74.354-4.345-77.733C392.759,33.557,453.593,22.935,453.593,22.935z"/>
	<path fill="#0082A9" d="M404.938,98.531c-0.002,10.835,4.254,35.315-2.196,45.065c-5.458,8.249-11.912,4.435-11.741-4.693
		c0.229-12.186,6.959-28.241,13.477-38.073"/>
</g>
<g>
	<g>
		<g>
			<path d="M136.928,48.381c-1.705,15.666-1.523,31.432-2.503,47.167c-0.625,10.048-2.945,19.94-4.292,29.921
				c-0.8,5.931-0.392,12.065-1.533,17.941c-0.641,3.299-2.319,6.389-3.055,9.669c-0.607,2.697-1.03,2.869,1.492,3.458
				c5.882-25.21,8.414-50.363,10.263-76.08c0.657-9.137-0.083-18.405,0.909-27.51c0.419-3.846,0.784-7.694,1.192-11.54
				c0.413-3.882,1.841-7.658,2.311-11.533c0.238-1.957-0.234-3.892,0.027-5.846c-0.269-0.277-0.64-0.199-1.049-0.254
				c-1.099,8.219-1.273,16.53-2.128,24.778"/>
		</g>
	</g>
	<g>
		<g>
			<path d="M115.816,170.065c-0.092,4.858,4.232,7.491,8.31,8.898c0.517-1.497,1.08-1.363-0.545-2.02
				c-1.986-0.803-4.013-2.134-5.161-4.024c-1.927-3.177,0.39-6.771,2.413-9.315c2.73-3.432,5.961-6.644,9.696-8.903
				c1.521-0.919,3.309-1.353,4.962-2.01c1.714-0.682,1.237-0.734,0.716-2.444c-7.843,2.386-20.599,10.596-20.77,19.811"/>
		</g>
	</g>
	<g>
		<g>
			<path d="M119.34,169.586c0.335,23.423,4.781,46.581,10.453,69.239c0.598-0.149,1.131-0.914,1.73-1.063
				c0.39-0.098-0.907-3.197-1.042-3.766c-0.899-3.718-1.979-7.405-2.79-11.143c-1.559-7.185-2.825-14.465-3.926-21.735
				c-0.926-6.125-1.696-12.308-2.164-18.483c-0.222-2.914,0.106-5.867,0.004-8.787c-0.05-1.432,0.532-2.971,0.511-4.402
				c-0.26-0.229-1.663,0.137-2.044,0.142"/>
		</g>
	</g>
	<g>
		<g>
			<path d="M197.334,112.15c3.319,18.062,8.277,36.098,9.937,54.399c1.259,13.886-1.065,27.273-4.56,40.753
				c-3.719,14.347-7.091,28.686-10.232,43.177c0.602,0.131,0.002,0.794,0.605,0.925c0.387,0.085,2.477-4.237,2.611-4.81
				c0.983-4.251,0.352-8.892,1.471-13.112c2.041-7.711,5.216-15.122,7.263-22.832c3.819-14.389,5.322-28.5,4.044-43.383
				c-1.184-13.779-7.671-46.473-8.177-49.231c-0.334-1.813-1.197-3.529-1.531-5.345c-0.232-1.263-0.667-0.818-1.838-0.607"/>
		</g>
	</g>
	<g>
		<g>
			<path d="M402.969,49.165c3.894,13.814,6.702,28.884,2.504,42.995c-2.708,9.103-8.515,16.681-16.779,21.365
				c-5.876,3.332-12.456,5.929-19.145,6.897c-3.488,0.505-7.119,0.881-10.631,0.6c-1.862-0.149-5.686-2.713-5.448,0.235
				c22.127,4.325,47.99-7.056,54.01-29.902c3.718-14.111,0.362-28.708-3.512-42.447c-0.51,0.144-0.527-0.006-0.984,0.256"/>
		</g>
	</g>
	<g>
		<g>
			<path d="M205.741,115.578c10.55,5.312,22.401,8.521,34.096,6.236c0.218-2.72-2.617-1.322-4.366-1.133
				c-3.498,0.381-7.008-0.553-10.501-0.961c-7.154-0.836-14.525-2.281-20.786-5.83c-8.531-4.835-14.901-12.895-17.506-22.335
				c-2.301-8.334-1.582-17.356-0.31-25.844c0.538-3.588,1.469-7.099,2.35-10.616c0.476-1.891,2.718-6.286-0.186-6.372
				c-6.741,23.912-8.918,53.898,17.123,67.021"/>
		</g>
	</g>
	<g>
		<g>
			<path d="M394.641,135.841c-0.704,19.159,3.584,39.497,7.796,58.044c3.146,13.842,9.562,26.964,12.093,40.931
				c1.249,6.889,1.501,13.975,1.814,20.969c0.145,3.248-0.311,6.497-0.378,9.749c-0.013,0.552,0.067,4.169,0.458,4.187
				c0.618,0.031,2.737,0.139,3.353,0.17c0.815-16.28-1.51-33.328-6.005-49.006c-4.749-16.575-11.127-32.637-13.888-49.682
				c-1.724-10.641-1.211-21.667-1.371-32.465c-0.086-5.854-1.326-11.772-1.014-17.616c0.126-2.36,2.233-4.578,2.434-6.933
				c0.196-2.303,0.295-2.153-2.093-2.458c-1.033,8.101-2.477,15.758-2.776,23.906"/>
		</g>
	</g>
	<g>
		<g>
			<path d="M187.956,111.648c-0.972,11.479-1.96,22.957-3.49,34.377c-0.771,5.754-1.884,11.442-3.003,17.138
				c-0.559,2.85-0.675,5.791-1.348,8.615c-0.413,1.734-1.877,4.878,0.976,4.84c4.792-18.321,6.476-37.41,8.129-56.229
				c0.454-5.159,1.19-10.295,1.645-15.454c0.201-2.282,0.372-4.566,0.571-6.849c0.132-1.514,0.182-1.834-1.709-1.665
				c-0.451,5.124-1.143,10.12-1.594,15.243"/>
		</g>
	</g>
	<g>
		<g>
			<path d="M167.414,168.159c1.525,2.163,3.373,4.049,5.359,5.792c1.417,1.243,6.102,3.688,6.201,5.388
				c-3.735,0.076-7.437,0.006-11.171-0.114c-1.653-0.053-7.159-1.403-6.65,1.102c6.426,0.447,12.85,0.663,19.29,0.505
				c-0.027-0.754,0.274-2.152-0.008-2.809c-0.488-1.131-3.82-2.402-4.847-3.199c-1.862-1.445-3.656-3.031-5.221-4.796
				c-0.928-1.047-1.796-3.491-3.162-1.792"/>
		</g>
	</g>
	<g>
		<g>
			<path d="M174.339,188.165c7.149,5.65,9.629,15.962,10.765,24.447c1.135,8.499,0.046,17.177,0.522,25.728
				c0.396,7.126,2.505,13.872,3.919,20.885c1.109,5.509,2.065,11.051,3.279,16.537c0.469,2.119,1.89,4.023,2.361,6.141
				c0.378,1.699-0.824,2.828,1.142,2c-3.423-15.373-7.309-30.7-8.186-46.462c-0.472-8.573-0.321-17.215-1.495-25.732
				c-1.214-8.81-3.882-18.987-11.266-24.822c-0.32,0.406-0.385,0.246-0.581,0.72"/>
		</g>
	</g>
	<g>
		<g>
			<path d="M402.834,47.615c0.332,0.264,0.659,0.276,1.053,0.444c3.668-8.582,6.747-17.443,9.054-26.482
				c-1.845-1.043-1.613,1.048-1.979,2.397c-0.752,2.757-1.73,5.45-2.6,8.172c-1.665,5.217-3.347,10.447-5.501,15.483"/>
		</g>
	</g>
</g>
<g>
	<g>
		<path d="M16.258,338.201c-0.796,2.34,2.987,1.553,4.317,1.553c4.285,0,8.571,0.021,12.857,0.021c4.554,0,9.11,0.02,13.665,0.02
			c0.964,0,6.251,0.58,6.962-0.137c1.873-1.887-4.398-1.775-4.704-1.775c-4.286,0-8.571,0.486-12.856,0.486
			c-6.824,0-13.647-0.434-20.471-0.434"/>
	</g>
</g>
<g>
	<g>
		<path d="M684.17,338.219c-0.808,2.381,3.295,1.279,4.639,1.279c4.557,0,9.11-0.266,13.666-0.266c4.76,0,9.525,0.25,14.288,0.25
			c0.829,0,5.853,0.508,6.419-0.145c1.738-2.016-4.276-1.477-4.735-1.477c-4.556,0-9.11-0.023-13.666-0.023
			c-6.965,0-13.931-0.021-20.896-0.021"/>
	</g>
</g>
<g>
	<g>
		<path d="M183.505,39.225c2.176,1.32,3.444,3.563,3.775,6.068c0.243,1.838-1.179,4.911,1.553,4.686
			c0.921-4.605-0.227-9.608-4.459-12.18c-0.268,0.443-0.689,0.884-0.828,1.38"/>
	</g>
</g>
<g>
	<g>
		<path d="M406.831,133.785c-4.636,3.736-11.924,5.479-14.429,11.412c1.656,1.338,2.141-1.262,3.148-2.333
			c1.618-1.722,3.696-3.082,5.727-4.251c4.543-2.614,8.697-5.729,13.275-8.261c4.028-2.229,8.426-3.646,12.942-4.521
			c2.386-0.463,4.792-0.563,7.217-0.688c1.563-0.082,5.704,0.932,5.119-1.473c-12.043-0.349-23.555,2.489-33.01,10.104"/>
	</g>
</g>
<g>
	<g>
		<path d="M452.528,20.071c3.38,21.663,4.954,43.632,5.329,65.569c0.156,9.307-0.759,18.58-1.231,27.875
			c-0.25,4.973-0.774,9.91-1.15,14.875c-0.181,2.38-0.635,4.73-0.836,7.11c-0.208,2.489,0.61,2.486,2.917,2.686
			c1.595-18.441,1.751-36.89,1.294-55.405c-0.52-21.074-1.454-42.162-4.702-62.978c-0.681,0.106-2.287,0.365-2.968,0.472"/>
	</g>
</g>
<g>
	<g>
		<g id="ChestMains">
			<path id="ChestMainExpanded" fill="#F4BF9A" d="M388.941,270.158c-13.323-0.46-31.114-2.834-50.712-3.355
				c-8.618-0.229-17.586-0.101-26.678,0.707c-29.763,2.648-44.977,0.662-61.512,11.244c-16.537,10.586-26.458,17.861-29.105,19.844
				c-2.645,1.984-11.244-3.305-16.535-17.195c-5.291-13.893-4.629-28.445-12.568-28.445c-7.939,0-9.923,1.986-11.244-1.319
				c-1.323-3.311,0.663-3.971-5.293-2.647c-5.953,1.323-8.596-4.63-8.596-4.63s-7.938,2.645-9.923-0.661
				c-1.983-3.308-3.969-5.953-6.615-1.986c-2.645,3.972-7.274,9.262-17.197,9.262c-9.92,0-14.553-2.647-19.182,1.324
				c-4.629,3.967,16.538,91.277,25.797,110.461c9.262,19.18,19.843,13.889,19.843,13.889s12.567-3.309,19.182-8.6
				c6.614-5.289,5.289-9.92,19.182-7.277c13.89,2.648,17.195,11.248,25.134,14.553c7.938,3.309,34.396,10.586,66.804,15.217
				c32.41,4.627,28.442,10.58,59.53,11.904c31.087,1.322,45.639,1.984,53.577,3.305c7.935,1.324,23.149,2.648,34.393-1.982
				c11.245-4.631,17.859-10.584,17.859-10.584l3.971-10.582c0,0,37.039-5.291,55.561-11.244c18.519-5.953,27.781-8.598,34.396-6.613
				c6.613,1.984,33.73,7.275,46.297,6.613c12.568-0.662,19.184-2.646,19.184-2.646s7.273-21.826,4.632-28.439
				c-2.647-6.615-9.923-6.615-9.923-6.615s-12.567-7.939-38.365-16.537c-25.796-8.6-37.039-8.6-44.977-7.277
				c-7.935,1.324-37.041,3.309-37.041,3.309L388.941,270.158z"/>
			<path id="ChestMain" fill="#F4BF9A" d="M388.941,270.158c-13.323-0.46-23.637-1.767-43.236-2.288
				c-8.618-0.229-22.705,13.112-31.796,13.92c-29.763,2.648-44.66,2.504-62.91,6.71c-19.134,4.41-27.418,8.115-30.065,10.098
				c-2.645,1.984-11.244-3.305-16.535-17.195c-5.291-13.893-4.629-28.445-12.568-28.445c-7.939,0-9.923,1.986-11.244-1.319
				c-1.323-3.311,0.663-3.971-5.293-2.647c-5.953,1.323-8.596-4.63-8.596-4.63s-7.938,2.645-9.923-0.661
				c-1.983-3.308-3.969-5.953-6.615-1.986c-2.645,3.972-7.274,9.262-17.197,9.262c-9.92,0-14.553-2.647-19.182,1.324
				c-4.629,3.967,16.538,91.277,25.797,110.461c9.262,19.18,19.843,13.889,19.843,13.889s12.567-3.309,19.182-8.6
				c6.614-5.289,5.289-9.92,19.182-7.277c13.89,2.648,17.195,11.248,25.134,14.553c7.938,3.309,34.396,10.586,66.804,15.217
				c32.41,4.627,28.442,10.58,59.53,11.904c31.087,1.322,45.639,1.984,53.577,3.305c7.935,1.324,23.149,2.648,34.393-1.982
				c11.245-4.631,17.859-10.584,17.859-10.584l3.971-10.582c0,0,37.039-5.291,55.561-11.244c18.519-5.953,27.781-8.598,34.396-6.613
				c6.613,1.984,33.73,7.275,46.297,6.613c12.568-0.662,19.184-2.646,19.184-2.646s7.273-21.826,4.632-28.439
				c-2.647-6.615-9.923-6.615-9.923-6.615s-12.567-7.939-38.365-16.537c-25.796-8.6-37.039-8.6-44.977-7.277
				c-7.935,1.324-37.041,3.309-37.041,3.309L388.941,270.158z"/>
		</g>
		<path fill="#E8B293" d="M484.188,300.582c0,0,9.259-6.613,31.086-2.646c21.83,3.971,25.135,11.906,25.135,11.906l-48.283,3.309
			L484.188,300.582z"/>
		<path fill="#B5D1E2" d="M590.679,327.041c0,0,7.275-12.566,19.843-18.521c12.567-5.951,19.183,0,19.844,7.277
			c0.661,7.273,0.661,7.273,0.661,7.273s-11.242,7.938-20.505,7.938C601.262,331.008,590.679,327.041,590.679,327.041z"/>
		<path fill="#D9E8F1" d="M605.894,332.332c0,0,18.52-4.629,37.039-11.904c18.521-7.277,28.441-11.244,34.393-3.971
			c5.956,7.275,5.297,39.023-19.84,49.609c-25.134,10.582-37.042,17.195-48.948,14.549c-11.905-2.643-18.521-8.596-18.521-8.596
			s1.985-1.984,11.906-2.646c9.923-0.662,14.552-11.244,13.228-19.844C613.828,340.932,605.894,332.332,605.894,332.332z"/>
		<path fill="#FFFFFF" d="M377.033,263.542c2.277,14.183,12.436,45.37,1.979,58.062c5.326,1.26,10.993,1.943,16.439,2.23
			c0.714,13.451-2.021,34.691-7.105,46.895c12.48,4.424,21.385,4.633,34.306,5.889c8.841,0.854,16.481-1.85,12.558,11.057
			c5.516-4.482,14.835-5.338,21.905-4.66c-4.015-16.947-21.213-52.006-14.922-59.131c14.728-16.68,33.692-9.791,49.817-12.318
			c9.762-29.873-96.786-48.685-115.637-48.685"/>
		<path fill="#D9E8F1" d="M118.411,245.685c-12.567,2.643-22.487,6.614-25.135,10.581c-2.643,3.968-25.133,17.859-29.101,41.67
			c-3.969,23.814-9.358,64.352,28.343,80.887c37.702,16.533,62.274,6.426,64.918,5.104c2.648-1.324,4.632,7.275,5.291-0.664
			c0.663-7.938,3.307-39.023-9.258-66.805c-12.567-27.779-25.796-46.299-29.102-55.562
			C121.059,251.638,118.411,245.685,118.411,245.685z"/>
		<path fill="#B5D1E2" d="M62.05,339.609c21.471,33.848,53.335,35.615,86.712,26.941c3.298,6.449,8.982,7.438,12.72,1.531
			c0.607,5.594,0.637,11.773,0.436,17.617c-26.096,2.172-70.221,13.893-95.73-35.748"/>
		<path fill="#B5D1E2" d="M633.605,373.393c-12.819,8.359-28.652-4.957-43.349-2.635c7.673,12.225,27.03,14.547,37.832,4.703"/>
		<path fill="#E4E5E9" d="M451.59,365.119c-20.104,2.867-41.64,2.959-61.946,3.705c-0.251,1.9-0.135,3.922-0.043,5.83
			c11.806,2.711,51.121-4.135,46.185,12.23c6.989-0.953,13.766-3.068,21.214-3.254c-0.787-5.658-2.747-11.307-4.72-16.443"/>
		<path fill="#D4A184" d="M306.805,353.398c11.114,0.994,84.749,1.398,82.629,19.891c-25.563-3.1-51.745-10.637-77.114-15.754"/>
		<path fill="#D4A184" d="M453.658,371.324c31.755,0,60.038-8.752,90.165-11.875c16.735-1.734,31.837,4.816,48.108,11.945
			c-16.099-0.234-26.132-2.371-40.544-5.414c-12.316-2.602-16.825,0.451-29.816,3.811c-10.967,2.836-67.497,21.842-67.913,3.602"/>
		<path fill="#D4A184" d="M211.661,366.498c0.535-33.77-33.093,0-48.847-1.965c-2.172,23.338,12.781,0.045,27.474-4.24
			c6.852-1.998,14.504,0.807,18.615,4.826"/>
	</g>
	<g>
		<g>
			<g>
				<path d="M87.693,257.943c0.331,0.261,1.371,1.375,1.765,1.381c1.088-1.384,2.395-2.604,3.834-3.606
					c3.325-2.319,7.211-3.782,11.074-4.94c4.027-1.207,8.201-1.801,12.374-2.288c1.832-0.213,3.651-0.367,5.496-0.433
					c1.314-0.046,0.803-1.143,0.78-2.314c-11.376,0.227-27.619,2.769-35.139,12.337"/>
			</g>
		</g>
		<g>
			<g>
				<path d="M115.874,242.213c9.899,21.453,19.44,43.131,30.697,63.893c7.466,13.77,13.606,28.68,14.72,44.346
					c0.735,10.369,1.201,20.707,1.103,31.102c1.984,0.373,1.145-0.125,1.158-1.703c0.024-2.371,0.146-4.74,0.17-7.109
					c0.06-6.512-0.093-13.031-0.387-19.541c-0.757-16.836-5.444-32.92-13.46-47.703c-3.61-6.658-8.179-16.125-11.82-22.498
					c-3.944-6.904-6.449-12.441-10.143-19.48c-2.189-4.17-8.836-16.802-9.874-19.009c-0.728-1.548-2.026-3.166-3.896-1.591"/>
			</g>
		</g>
		<g>
			<g>
				<path d="M86.63,254.168c11.666,8.955,18.786,21.85,26.642,34.006c7.919,12.254,16.723,24.156,23.211,37.248
					c2.988,6.029,5.697,12.01,7.906,18.371c2.133,6.133,2.819,12.357,3.929,18.734c1.357,7.799,4.223,26.719,15.878,24.854
					c0.27-2.059-3.228-2.314-4.722-2.998c-2.252-1.031-3.417-1.518-4.553-3.645c-2.885-5.381-4.589-12.23-5.63-18.182
					c-1.135-6.494-1.888-12.781-4.059-19.027c-2.224-6.406-5.219-12.449-8.228-18.523c-6.516-13.156-13.758-25.822-21.716-38.137
					c-7.945-12.293-16.451-24.889-28.249-33.944c-0.26,0.338-0.791,0.717-0.948,1.109"/>
			</g>
		</g>
		<g>
			<g>
				<path d="M61.01,325.289c0.431,20.879,10.502,41.373,27.927,52.992c19.149,12.77,43.896,12.699,65.492,6.066
					c-0.5-1.629-0.183-2.668-2.063-2.121c-2.669,0.777-5.043,2.57-7.773,3.098c-5.25,1.014-11.866,2.027-17.214,2.016
					c-10.496-0.02-19.542-3.113-29.011-7.689c-17.625-8.518-31.205-24.527-34.776-43.775c-3.26-17.572,0.38-37.791,8.915-53.514
					c3.086-5.689,7.767-10.215,12.514-14.631c1.771-1.65,2.731-4.296,4.747-5.638c0.854-0.566,1.955-0.785,2.857-1.273
					c1.23-0.667,0.971-0.054,0.387-1.222C69.502,271.348,60.515,301.166,61.01,325.289"/>
			</g>
		</g>
		<g>
			<g>
				<path d="M123.256,248.755c-0.263,0.637-0.524,1.322-0.788,1.959c9.841,4.058,26.087,0.455,31.063-9.643
					c-0.377-0.187-1.402-0.932-1.787-0.856c-0.623,1.257-1.399,2.488-2.388,3.48c-2.174,2.184-5.199,3.337-8.066,4.409
					c-5.575,2.084-12.501,3.257-18.139,0.933"/>
			</g>
		</g>
		<g>
			<g>
				<path d="M152.39,239.324c3.162,1.586,3.65,4.636,6.183,6.718c2.93,2.411,6.858,1.179,8.725-1.964
					c-0.378-0.224-1.414-1.15-1.83-1.116c-1.133,1.91-3.196,2.901-5.161,1.539c-1.799-1.248-2.339-3.432-3.908-4.918
					c-0.903-0.856-1.912-1.694-3.028-2.252c-0.309,0.617-0.708,1.31-1.016,1.927"/>
			</g>
		</g>
		<g>
			<g>
				<path d="M167.994,244.952c1.934,2.319,3.505,4.979,5.439,7.298c0.773-1.145,1.564-2.554,2.918-3.004
					c2.881-0.959,2.845,1.971,4.615,3.896c2.794,3.037,4.76,1.007,8.636,1.064c9.859,0.146,10.195,13.468,11.581,20.62
					c1.261,6.52,2.891,13.617,6.982,19.021c4.961,6.559,13.444,8.555,21.346,8.09c-0.137-2.35-0.182-2.748-2.667-2.756
					c-2.426-0.006-4.94,0.445-7.286-0.199c-3.729-1.031-6.706-3.586-9.079-6.656c-4.977-6.436-6.719-14.924-8.229-22.656
					c-0.962-4.936-1.585-10.651-5.12-14.488c-1.615-1.755-3.65-2.4-6.011-2.708c-1.758-0.229-6.664,0.308-7.591-0.569
					c-1.36-1.287-3.342-2.323-3.729-4.175c-0.176-0.842-1.94-1.03-2.573-0.915c-1,0.182-2.003,0.843-2.883,1.365
					c-1.426,0.848-0.887,0.195-1.905-1.025c-0.968-1.161-1.97-2.605-2.938-3.767c-0.53,0.441-1.164,1.579-1.694,2.021"/>
			</g>
		</g>
		<g>
			<g>
				<path d="M140.036,253.562c0.239,2.419,0.268,4.854,0.276,7.287c0.004,1.408-0.719,3.398,1.366,2.919
					c0.125-3.45-0.06-6.884-0.403-10.319c-0.428,0.044-0.814-0.029-1.213,0.12"/>
			</g>
		</g>
		<g>
			<g>
				<path d="M164.521,303.053c4.255,4.365,3.13,9.674-1.437,13.145c-2.012,1.529-4.424,2.525-6.863,3.158
					c-1.458,0.377-4.608-0.135-3.98,2.008c9.46-0.016,22.516-10.045,13.399-19.398c-0.307,0.301-0.868,0.676-1.086,1.041"/>
			</g>
		</g>
		<g>
			<g>
				<path d="M183.159,363.896c-7.016,6.17-14.857,8.424-23.619,10.982c0.825,2.594,1.209,2.021,3.777,1.271
					c4.187-1.223,8.358-2.533,12.327-4.381c4.527-2.105,7.739-5.867,11.555-8.979c1.823-1.486,4.003-1.939,6.224-2.766
					c1.568-0.582,0.96-1.482,0.548-2.973c-4.212,1.16-7.613,4.012-10.82,6.834"/>
			</g>
		</g>
		<g>
			<g>
				<path d="M195.854,358.906c0.074,2.141-0.4,3.371,1.106,3.311c2.548-0.102,5.131-0.105,7.633,0.668
					c2.501,0.773,5.004,2.092,7.193,4.193c1.931,1.855,1.574,2.121,2.998-0.553c-5.033-6.672-12.59-8.205-18.94-7.662"/>
			</g>
		</g>
		<g>
			<g>
				<path d="M225.95,380.514c20.97,6.813,43.109,9.83,65.116,11.27c0.025-0.383,0.272-1.539,0.057-1.816
					c-2.488-0.162-4.943-0.307-7.425-0.555c-4.802-0.484-9.643-0.998-14.412-1.742c-10.267-1.604-20.378-4.338-30.419-7.01
					c-8.307-2.211-16.812-4.023-22.454-11.037c-2.587-3.215-3.977-7.188-5.015-11.182c-0.563-2.17-1.739-4.305-1.723-6.547
					c0.012-1.623,0.18-1.086-1.292-1.166C207.748,362.082,214.768,376.883,225.95,380.514"/>
			</g>
		</g>
		<g>
			<g>
				<path d="M237.46,329.143c-0.612,2.307,1.29,2.359,2.973,2.404c2.816,0.078,5.711-0.143,8.503,0.227
					c5.551,0.734,10.806,3.098,16.161,4.717c10.766,3.256,21.12,7.59,31.369,12.176c3.829,1.711,7.945,2.811,11.703,4.674
					c8.026,3.979,16.39,10.141,25.608,10.477c0.637-1.943-0.611-0.953-2.098-1.17c-2.314-0.34-4.42-1.877-6.615-2.674
					c-5.055-1.83-9.559-4.844-14.325-7.303c-3.761-1.939-7.887-3.207-11.752-4.934c-19.472-8.703-39.643-18.33-61.431-18.098"/>
			</g>
		</g>
		<g>
			<g>
				<path d="M321.679,361.949c-0.268,1.637,0.276,1.637,1.713,1.531c2.443-0.18,4.997,1.293,7.451,1.268
					c5.358-0.053,10.679-0.205,16.018,0.375c10.668,1.16,21.248,3.07,31.671,5.699c11.088,2.795,22.09,5.941,33.132,8.93
					c0.766-1.711,0.526-2.42-0.94-2.818c-2.442-0.662-5.139-0.316-7.581-0.977c-6.223-1.686-12.531-3.006-18.763-4.652
					c-20.472-5.408-41.47-10.811-62.607-8.957"/>
			</g>
		</g>
		<g>
			<g>
				<path d="M421.235,376.564c-6.547,0.426-13.498,0.52-19.595,3.197c0.291,2.148,1.289,1.07,2.781,0.582
					c2.786-0.912,5.77-1.006,8.681-1.334c6.457-0.727,13.073-0.75,19.507-1.721c0.289-2.316-1.438-1.951-3.088-1.766
					c-2.766,0.309-5.54,0.385-8.317,0.564"/>
			</g>
		</g>
		<g>
			<g>
				<path d="M433.125,376.781c1.905,0.764,2.836,2.918,1.661,4.746c-1.544,2.404-5.238,3.227-7.777,4.018
					c-5.341,1.664-11.046,3.002-15.371,6.758c1.176,2.52,3.362-0.318,5.024-1.162c3.467-1.76,7.19-2.844,10.888-3.994
					c2.855-0.889,6.399-1.668,8.358-4.146c2.164-2.736,0.897-6.098-2.281-7.373c-0.194,0.484-0.537,0.863-0.595,1.377"/>
			</g>
		</g>
		<g>
			<g>
				<path d="M444.515,390.533c-2.48,1.354-4.923,3.082-7.748,3.539c-2,0.326-5.663-1.588-5.688,1.209
					c5.685,1.654,10.556-1.355,15.421-3.957c2.325-1.244,5.07-2.363,7.794-1.822c1.806,0.361,3.451,2.668,4.446,0.205
					c-4.671-3.621-9.43-1.334-14.032,1.178"/>
			</g>
		</g>
		<g>
			<g>
				<path d="M449.483,395.244c-3.716,2.811-7.461,5.477-11.895,7.055c-5.721,2.037-11.937,2.34-17.892,3.318
					c-5.043,0.826-10.451,2.02-15.547,1.064c-2.345-0.438-4.17-2.178-6.028-3.689c-2.087-1.697-2.144-2.354-4.367-0.66
					c8.444,11.059,24.956,4.975,36.359,4.131c6.188-0.457,11.45-3.199,16.502-6.734c2.677-1.873,5.678-3.279,8.329-5.184
					c1.414-1.016,2.483-2.48,3.961-3.402c0.038-0.389-0.895-1.574-1.115-1.928c-2.887,1.801-5.176,4.533-7.887,6.584"/>
			</g>
		</g>
		<g>
			<g>
				<path d="M289.488,390.945c8.839-0.1,17.064,3.164,25.312,5.734c9.075,2.83,18.378,4.59,27.838,5.396
					c17.578,1.5,35.346,1.902,53.024,1.588c0.001-0.4,0.147-1.514-0.089-1.795c-2.049,0.035-4.003-1.355-6.054-1.35
					c-4.273,0.01-8.603,1.648-12.873,1.535c-9.707-0.256-19.37-1.561-29.039-2.314c-10.178-0.797-20.668-1.66-30.473-4.533
					c-9.069-2.654-17.988-6.834-27.669-6.727c-0.005,0.691,0.061,1.609,0.055,2.297"/>
			</g>
		</g>
		<g>
			<g>
				<path d="M432.81,387.109c1.53,0.506,2.789,1.545,3.386,3.074c0.459,1.176,0.106,2.461,1.843,1.865
					c-0.14-2.971-1.982-5.283-4.804-6.209c-0.133,0.404-0.401,0.832-0.418,1.252"/>
			</g>
		</g>
		<g>
			<g>
				<path d="M442.943,384.273c-1.702,0.559-4.912,0.438-3.773,2.863c4.14-0.656,7.862-2.73,12.047-3.295
					c1.56-0.211,3.866-0.234,4.872,1.293c0.822,1.248,0.238,2.641,2.326,1.961c-0.255-8.021-11.001-3.979-15.377-2.539"/>
			</g>
		</g>
		<g id="ChestOutlines">
			<path id="ChestOutlineExpanded" d="M279.845,269.273c-8.845,1.264-17.225,4.261-25.255,8.055c-3.34,1.578-6.62,3.294-9.847,5.08
				c-4.826,2.674-19.088,11.223-21.499,12.668c-2.202,1.32-2.563,1.811-1.388,4.074c7.423-3.851,14.362-8.465,21.486-12.778
				c5.369-3.251,10.843-6.33,16.708-8.782c6.507-2.721,13.254-4.543,20.122-5.842c8.623-1.63,17.436-2.434,26.201-3.15
				c1.784-0.146,3.566-0.254,5.347-0.331c6.857-0.295,13.696-0.119,20.53,0.216c15.092,0.739,30.156,2.256,45.321,1.191
				c-0.111-1.723,0.276-2.203-1.353-2.133c-2.272,0.096-4.555-0.422-6.828-0.412c-9.967,0.037-19.832-1.15-29.745-2.156
				c-2.956-0.3-5.892-0.466-8.813-0.521c-6.893-0.13-13.705,0.354-20.503,1.139c-10.078,1.164-20.128,2.988-30.376,4.453"/>
			<path id="ChestOutline" d="M286.695,281.58c-8.845,1.264-12.299,2.047-21.332,2.714c-3.684,0.272-15.136,1.92-18.363,3.706
				c-4.826,2.674-21.346,5.631-23.757,7.076c-2.202,1.32-2.563,1.811-1.388,4.074c7.423-3.851,16.537-6.498,24.645-8.4
				c10.235-2.401,14.03-2.655,18.863-3.25c7.783-0.958,17.354-1.907,24.221-3.206c8.623-1.63,15.561,0.112,24.326-0.604
				c1.784-0.146-1.781,0.077,0,0c6.856-0.295,16.15-11.225,23.424-13.189c14.587-3.94,25.073,0.238,40.238-0.826
				c-0.111-1.723,0.276-2.203-1.353-2.133c-2.272,0.096-4.555-0.422-6.828-0.412c-9.967,0.037-20.267-5.228-29.745-2.156
				c-3.152,1.021-2.405,0.806-4.813,2.463c-5.765,3.969-15.481,11.732-22.28,12.518C302.476,281.117,296.943,280.115,286.695,281.58
				"/>
		</g>
		<g>
			<g>
				<path d="M379.472,263.453c0.962,8.131,1.847,16.295,2.426,24.465c0.451,6.381,0.396,12.824-0.401,19.182
					c-0.397,3.162-1.308,6.213-2.186,9.277c-0.444,1.547-3.105,5.285-0.631,5.578c4.896-12.211,4.847-25.252,3.646-38.158
					c-0.447-4.789-0.795-9.578-1.359-14.354c-0.177-1.48,0.616-6.756-1.765-5.708"/>
			</g>
		</g>
		<g>
			<g>
				<path d="M377.394,322.369c3.239,0.316,6.46,0.818,9.704,1.078c3.892,0.309,7.768,0.867,11.614,1.559
					c1.659,0.295,6.068,2.584,6.428,0.383c-5.839-2.809-13.008-2.934-19.318-3.547c-1.718-0.168-9.153-1.756-8.718,0.844"/>
			</g>
		</g>
		<g>
			<g>
				<path d="M397.908,315.547c-1.356,10.561-3.742,21.016-5.006,31.582c-0.371,3.109-0.562,6.236-1.234,9.297
					c-0.421,1.908-1.047,3.662-2.267,5.221c-0.854,1.092-2.58,1.184-1.174,2.607c5.626-3.016,5.343-10.582,5.997-16.074
					c1.061-8.898,2.393-17.787,3.545-26.678c0.591-4.563,1.424-9.092,2.025-13.652c0.305-2.307,0.717-4.596,1.021-6.902
					c0.165-1.248,1.519-2.752-0.495-2.387c-0.753,5.711-1.249,11.328-2.003,17.041"/>
			</g>
		</g>
		<g>
			<g>
				<path d="M404.506,268.096c0.848,10.207,2.922,21.061-0.177,31.033c8.691,0.723,17.715,1.934,26.375,0.363
					c1.997-1.559,0.712-10.334,0.57-13.111c-0.255-5.125-0.701-10.346-2.077-15.297c-1.977-0.006-1.448,1.561-1.147,2.869
					c0.48,2.055,0.869,4.105,1.141,6.197c0.66,5.047,1.136,10.127,0.938,15.211c-0.036,0.939-0.181,1.865-0.235,2.803
					c-1.289,0.215-2.564,0.576-3.866,0.672c-2.271,0.164-4.573,0.141-6.85,0.08c-4.37-0.113-8.826-0.654-13.18-1.014
					c1.99-7.406,1.337-15.223,0.62-22.744c-0.145-1.645,0.425-7.926-2.038-7.01"/>
			</g>
		</g>
		<g>
			<g>
				<path d="M434.405,297.271c6.001,14.031,6.143,27.65,8.052,42.625c1.007,7.895,3.252,16.756,6.562,24.033
					c1.527,3.363,5.672,17.516,7.836,16.43c-1.386-6.898-4.171-13.4-6.914-19.807c-2.893-6.756-5.085-13.313-5.987-20.553
					c-1.819-14.615-2.805-29.428-8.656-43.109c-0.396,0.17-0.868,0.252-1.205,0.516"/>
			</g>
		</g>
		<g>
			<g>
				<path d="M377.089,262.317c0.021,2.565,0.283,2.711,3.018,2.742c3.447,0.041,6.94-0.694,10.376-0.445
					c7.202,0.521,14.171,2.938,21.275,4.22c12.211,2.203,24.065,5.529,35.838,9.443c5.213,1.732,11.307,1.539,15.93,4.576
					c4.751,3.123,8.43,7.734,13.531,10.318c4.559,2.309,8.66,4.549,11.596,8.998c1.155,1.746,1.954,3.471,2.453,5.498
					c0.616,2.521,0.7,3.01,3.315,2.66c-0.561-4.16-2.51-7.947-5.297-11.156c-3.45-3.973-7.99-5.582-12.48-8.016
					c-4.469-2.42-8.097-6.111-12.309-8.918c-4.518-3.016-9.692-4.227-14.811-5.953c-23.299-7.852-47.723-13.75-72.399-13.576"/>
			</g>
		</g>
		<g>
			<g>
				<path d="M438.689,321.875c0.865,2.172,2.499-0.58,3.68-1.41c1.852-1.301,4.125-1.93,6.09-3.047
					c3.631-2.066,7.347-3.855,11.433-4.766c4.107-0.914,8.284-1.137,12.477-0.953c2.266,0.098,4.52,0.244,6.775,0.494
					c1.53,0.168,5.47,1.863,5.146-0.615c-8.022-1.107-16.309-2.541-24.318-0.863c-7.958,1.67-15.146,5.953-21.555,10.807"/>
			</g>
		</g>
		<g>
			<g>
				<path d="M491.591,313.957c-5.791,0.904-11.78,0.443-17.592,1.189c-2.864,0.367-5.675,1.16-8.552,1.428
					c-1.961,0.18-1.388,0.172-1.244,1.871c17.845-1.51,35.424-4.74,53.24-6.49c8.452-0.828,16.98-2.09,25.458-1.408
					c4.168,0.336,8.303,1.326,12.391,2.234c2.275,0.506,4.635,0.535,6.854,1.242c0.326-0.232,0.657-1.738,0.785-2.143
					c-23.106-7.369-48.163-2.959-71.556,0.686"/>
			</g>
		</g>
		<g>
			<g>
				<path d="M557.254,313.18c11.526,1.748,20.61,10.402,30.785,15.42c4.576,2.256,9.592,3.42,14.499,4.721
					c1.209,0.32,2.465,0.467,3.677,0.787c0.893,0.238,0.745-0.904,0.958-1.656c-7.482-1.986-14.544-4.445-21.362-8.26
					c-8.956-5.014-17.884-11.104-28.293-12.684c-0.105,0.684-0.296,1.619-0.4,2.301"/>
			</g>
		</g>
		<g>
			<g>
				<path d="M544.32,361.287c9.413,7.234,21.055,8.717,32.615,8.82c6.11,0.055,12.212-0.26,18.321-0.264
					c3.279-0.002,6.598,0.098,9.867,0.385c2.644,0.23,2.799,0.748,3.111-1.725c-12.123-1.531-22.615,0.996-34.773,0.342
					c-5.602-0.301-11.287-1.449-16.556-3.439c-2.669-1.008-6.799-2.83-9.172-4.412c-2.122-1.414-2.288-1.242-3.758,0.672"/>
			</g>
		</g>
		<g>
			<g>
				<path d="M546.537,360.104c-14.134,6.238-29.591,8.6-44.573,12.131c-5.511,1.299-26.617,7.752-31.945,8.393
					c-2.813,0.338-5.551,0.527-8.387,0.49c-1.98-0.025-1.568,1.758-1.636,3.488c16.613,0.639,31.622-7.486,47.439-11.213
					c8.343-1.969,16.719-3.799,24.981-6.088c6.112-1.691,12.087-3.201,17.899-5.701c3-1.289,6.114-1.877,9.326-2.523
					c2.551-0.516,2.565-1.178,2.364-3.66c-5.353,0.436-10.38,3.086-15.23,5.229"/>
			</g>
		</g>
		<g>
			<g>
				<path d="M499.247,295.426c-1.981,0.008-3.956,0.023-5.938,0.033c-2.371,0.01-2.451,0.213-2.521,2.623
					c6.55-0.031,13.253-0.48,19.787-0.023c5.111,0.357,10.159,1.25,14.896,3.225c2.816,1.172,5.543,2.59,8.102,4.248
					c2.278,1.477,2.221,1.99,3.716-0.094c-11.578-8.301-24.16-10.309-38.041-10.006"/>
			</g>
		</g>
		<g>
			<g>
				<path d="M609.944,335.037c3.784,7.242,6.114,14.217,3.516,22.34c-1.308,4.088-3.18,8.734-6.212,11.877
					c-1.268,1.314-2.642,2.395-4.513,2.309c-1.546-0.074-3.614-1.83-4.063,0.361c9.236,4.76,13.797-7.176,16.006-14.027
					c2.754-8.539,0.24-15.74-3.748-23.375c-0.38,0.197-1.212,0.496-1.524,0.785"/>
			</g>
		</g>
		<g>
			<g>
				<path d="M589.479,373.594c4.065,2.518,8.189,5.523,12.771,7.027c5.697,1.869,11.658-0.443,17.004-2.477
					c-0.219-0.576-0.453-1.139-0.673-1.715c-0.124-0.326-4.159,1.072-4.819,1.279c-2.715,0.85-5.5,1.469-8.358,1.094
					c-5.387-0.703-10.351-4.133-14.84-6.914c-0.361,0.588-0.724,0.904-1.084,1.492"/>
			</g>
		</g>
		<g>
			<g>
				<path d="M670.047,309.398c14.311,10.951,12.546,37.6,1.083,49.662c-6.861,7.221-17.726,7.986-26.794,10.811
					c-6.576,2.053-15.932,4.207-22.621,5.875c-3.269,0.816-3.614,2.359-6.968,2.711c-2.65,0.279-2.946-0.262-2.825,2.252
					c12.854-0.623,24.857-6.852,37.079-10.359c9.5-2.727,19.01-4.627,25.258-12.967c10.012-13.369,11.868-39.131-2.559-50.172
					c-0.419,0.547-1.479,1.912-1.896,2.461"/>
			</g>
		</g>
		<g>
			<g>
				<path d="M672.625,312.098c-7.532,0.787-14.764,0.883-21.858,3.604c-4.441,1.703-8.863,3.52-13.272,5.314
					c-4.257,1.732-7.948,4.432-12.5,5.318c-7.346,1.43-15.608,1.16-21.99,5.441c0.231,0.346,1.029,1.801,1.4,1.924
					c1.748-1.172,3.799-1.824,5.775-2.541c4.033-1.459,8.229-2.598,12.436-3.338c5.98-1.057,11.325-2.41,16.892-4.674
					c6.05-2.463,12.063-5.049,18.313-6.979c8.673-2.68,17.898-1.998,26.646-4.203c-0.541-2.15-0.451-2.523-2.759-2.109
					c-3.052,0.551-5.985,2.08-9.066,2.402"/>
			</g>
		</g>
		<g>
			<g>
				<path d="M591.597,323.633c0.757,0.697,1.163,1.758,1.951,0.912c1.042-1.111,1.648-2.643,2.73-3.715
					c3.344-3.303,6.998-6.348,10.773-9.148c3.522-2.609,7.581-4.779,11.868-5.891c2.19-0.566,4.488-0.795,6.563,0.26
					c2.399,1.223,1.657,2.539,3.911,0.76c-10.183-12.906-31.494,9.068-38.281,16.439"/>
			</g>
		</g>
		<g>
			<g>
				<path d="M623.046,304.205c3.098,3.563,5.963,7.73,6.922,12.406c0.438,2.135,0.642,4.447-0.051,6.531
					c-0.499,1.496,0.094,1.283,1.442,1.902c3.483-7.604-1.783-16.518-6.721-22.201c-0.522,0.453-1.053,0.871-1.573,1.324"/>
			</g>
		</g>
	</g>
</g>
<g id="Diagram">
	<path opacity="0.6" fill="#F0A8CA" stroke="#FBDDEA" stroke-width="2" d="M111.583,263.578c-21.339,0-35.536,29.852-34.825,58.637
		c0.71,28.783,14.925,54.014,37.313,56.502s38.607-11.822,38.607-28.063s-8.06-27.037-16.962-41.502
		C127.761,296.223,132.923,263.578,111.583,263.578z"/>
	<g>
		<path id="Oval" opacity="0.6" fill="#F0A8CA" stroke="#FBDDEA" stroke-width="2" d="M348.423,292.317
			c-5.256-14.623-45.8-5.902-68.751-0.086c-22.953,5.818-38.298,10.99-38.209,17.854c0.089,6.865,13.958,6.686,53.56,4.621
			C334.626,312.646,352.519,303.716,348.423,292.317z"/>
		<path id="Heart" opacity="0.6" fill="#EE6767" stroke="#FBDDEA" stroke-width="2" d="M287.746,289.712
			c0,0,6.678-9.613,13.652-4.549c6.972,5.064,1.049,15.402-13.652,27.301c-14.702-11.898-20.625-22.236-13.651-27.301
			C281.069,280.099,287.746,289.712,287.746,289.712z"/>
		<path opacity="0.6" fill="#EE6767" d="M271.555,298.937l-1.674-2.861c-0.255,0.148-25.974,15.045-53.51,18.436l-0.379-2.51
			l-9.656,5.549l10.822,2.764l-0.353-2.514C245.002,314.319,271.292,299.091,271.555,298.937z"/>
		<path opacity="0.6" fill="#EE6767" d="M265.719,309.759c2.531-1.027,6.239-2.805,9.532-5.434l-2.069-2.594
			c-2.324,1.857-5.414,3.617-8.701,4.951l-0.939-2.359l-8.067,7.678l11.171,0.123L265.719,309.759z"/>
	</g>
</g>
<g id="Hand">
	<g>
		<path fill="#0090C0" d="M416.416,140.739c-9.173-0.482-15.934,2.413-26.555,7.242c-10.622,4.829-13.521,4.828-16.9,4.345
			c-3.377-0.482-13.999,3.863-26.069,5.794c-12.071,1.931-25.106,2.413-32.833,12.07c-7.724,9.656-9.171,12.554-9.171,12.554
			s43.451,31.866,47.796,33.796c4.345,1.931,18.347,3.861,28.968,2.413c10.623-1.448,13.52-5.793,27.521-8.207
			c14.002-2.415,23.658-12.553,32.349-17.864c8.69-5.311,12.072-9.656,14.485-16.898c2.413-7.242,1.449-10.621,3.38-13.518
			c1.931-2.898,4.346-15.934-2.415-20.762C450.212,136.878,416.416,140.739,416.416,140.739z"/>
		<path fill="#D3A184" d="M316.688,243.315c0.774,6.445,4.669,10.676,7.354,16.088c5.756-2.84,6.704-13.167,5.033-18.754
			c-4.739-15.844-24.049-14.731-16.984,3.586"/>
		<path fill="#ECAF8B" d="M341.047,186.781c-12.265-9.726-23.44-14.25-34.012-4.137s-16.547,19.764-17.466,24.82
			c-0.92,5.056,0.459,4.597,0,23.902c-0.459,19.305-0.92,32.633-0.92,36.771c0,4.137,0.92,8.273,0.92,8.273s11.492,2.297,22.982,0
			c0,0,5.054-15.627,5.974-23.901c0.92-8.273,1.838-18.846,1.838-18.846s3.678,15.629,10.573,15.629
			c6.895,0,8.733-5.977,9.652-13.33c0,0,12.869-10.572,14.248-19.305C356.216,207.925,354.375,197.351,341.047,186.781z"/>
		<path fill="#F3D6C3" d="M298.301,277.328c3.241-4.365,0.233-11.731-5.975-7.352c-5.205,3.67-0.185,8.563,5.516,7.352"/>
		<path fill="#F3D6C3" d="M302.438,277.328c-0.918-20.224,17.551,0.514,0.919-0.918"/>
		<path fill="#0082A9" d="M353.917,210.683c5.43-3.52,13.114-2.154,19.742-1.737c11.763,0.742,15.616-0.677,25.701-5.02
			c11.669-5.024,25.146-4.328,37.231-7.781c-6.258,8.068-21.327,12.509-34.873,16.835c-4.598,1.468-6.915,5.186-11.489,5.976
			c-13.474,2.327-25.116,0.884-34.404-2.369c-0.08-1.549-0.327-3.431-0.069-4.986"/>
	</g>
	<g>
		<g>
			<g>
				<path d="M301.22,187.415c-6.36,7.583-14.695,15.595-14.522,26.232c1.718,0,1.84,0.557,1.939-1.236
					c0.144-2.672,0.753-5.293,1.931-7.685c1.755-3.564,4.446-6.493,6.978-9.509c1.777-2.12,3.302-4.452,5.079-6.571
					c1.834-2.184,3.927-4.146,5.803-6.294c0.378-0.432,2.713-2.883,2.435-3.143c-0.451-0.423-0.599-0.948-1.05-1.371
					c-2.939,3.136-5.984,6.159-8.708,9.484"/>
			</g>
		</g>
		<g>
			<g>
				<path d="M287.995,205.384c0.826,10.733,0.685,21.312,0.412,32.075c-0.199,7.865,0.222,15.696-0.3,23.554
					c-0.33,4.961-2.122,15.153,2.403,18.94c1.501-1.768,1.422-1.904,0.578-3.787c-1.854-4.141-0.874-9.176-0.602-13.562
					c0.528-8.492,0.086-16.955,0.301-25.453c0.152-6.01-0.005-11.94-0.401-17.949c-0.223-3.382-0.742-6.734-1.004-10.111
					c-0.216-2.755,0.942-4.348-1.899-4.348"/>
			</g>
		</g>
		<g>
			<g>
				<path d="M318.415,243.077c-0.957,7.332-1.959,14.67-3.54,21.892c-0.569,2.605-1.461,5.148-2.219,7.705
					c-0.381,1.295,0.341,0.998,1.57,1.408c2.743-8.066,4.178-16.848,5.47-25.248c0.907-5.903,1.021-11.999,2.569-17.786
					c0.516-1.924,1.607-3.709,2.479-5.506c0.79-1.625,0.065-1.72-1.446-2.6c-3.415,5.862-4.477,13.478-5.335,20.076"/>
			</g>
		</g>
		<g>
			<g>
				<path d="M306.214,219.347c0.758,11.376-1.344,21.916-3.713,32.896c-1.655,7.667-2.039,15.496-2.64,23.297
					c1.184,0.068,1.815,0.623,1.914-0.648c0.14-1.828,0.497-3.637,0.637-5.463c0.339-4.4,0.043-8.898,0.785-13.256
					c0.829-4.874,2.098-9.709,3.201-14.527c1.672-7.307,2.482-14.991,1.983-22.453c-0.688,0.046-1.886,0.085-2.575,0.131"/>
			</g>
		</g>
		<g>
			<g>
				<path d="M289.079,276c0.261,0.693,0.972,0.563,1.364,0.139c0.208-2.117,0.357-5.43,2.565-6.547
					c2.243-1.135,4.382,0.314,4.81,2.576c0.341,1.82-1.643,5.512,0.496,5.859c1.787-3.787,1.17-11.029-4.618-10.07
					c-3.769,0.627-4.256,4.957-4.561,8.051"/>
			</g>
		</g>
		<g>
			<g>
				<path d="M306.359,267.436c-2.504,0.299-6.322,8.344-3.472,8.621c0.705-2.197,1.343-7.83,4.518-7.316
					c4.361,0.705,0.712,8.887,3.594,8.752c0.845-3.449,0.516-10.631-4.636-10.016"/>
			</g>
		</g>
		<g>
			<g>
				<path d="M292.527,245.024c1.705,0.007,7.275,1.582,7.039-0.836c-2.297-0.415-4.713-0.547-7.042-0.557
					c-0.003,0.429-0.112,1.059-0.002,1.469"/>
			</g>
		</g>
		<g>
			<g>
				<path d="M308.153,246.654c2.329,0.374,4.709,0.955,7.062,1.021c0.663-2.139-2.211-1.628-3.663-1.921
					c-1.089-0.183-2.185-0.278-3.28-0.452c-0.033,0.422-0.207,0.938-0.12,1.347"/>
			</g>
		</g>
		<g>
			<g>
				<path d="M292.823,262.173c1.309,0.061,2.634,0.108,3.944,0.167c0.702-2.22-4.411-2.467-3.917-0.193"/>
			</g>
		</g>
		<g>
			<g>
				<path d="M306.285,263.393c1.627,0.052,3.246,0.067,4.871,0.155c0.833-2.316-3.458-1.521-4.904-1.566
					c0.008,0.423-0.122,1.018,0.007,1.414"/>
			</g>
		</g>
		<g>
			<g>
				<path d="M339.009,233.158c-0.074,5.281-0.632,17.328-9.017,15.669c-4.979-0.985-5.708-7.794-6.789-11.849
					c-1.092,0.362-1.937,0.074-1.612,1.296c0.571,2.147,1.341,4.243,2.059,6.345c1.894,5.542,7.853,8.714,12.83,4.413
					c4.622-3.993,4.362-11.666,4.461-17.159c0.053-2.901,0.182-5.81,1.031-8.607c0.808-2.662,1.993-2.946-0.475-4.453
					c-2.625,4.301-2.431,9.461-2.503,14.345"/>
			</g>
		</g>
		<g>
			<g>
				<path d="M323.962,232.197c2.375,0.616,1.329-3.365,1.472-4.905c0.148-1.595,1.976-4.693-0.219-5.028
					c-1.412,3.074-1.4,6.662-1.339,9.969"/>
			</g>
		</g>
		<g>
			<g>
				<path d="M327.467,251.193c1.215,2.115,0.365,4.351-1.48,5.746c-1.954,1.476-2.257,0.725-1.379,3.029
					c3.98-1.516,7-5.599,4.593-9.777c-0.597,0.344-1.259,0.7-1.856,1.044"/>
			</g>
		</g>
		<g>
			<g>
				<path d="M319.523,252.07c0.798,2.746,2.095,5.491,3.674,7.875c2.314-1.537,1.303-1.731,0.104-4.191
					c-0.674-1.383-1.396-2.761-1.824-4.24c-0.332-0.149-1.482,0.43-1.86,0.54"/>
			</g>
		</g>
		<g>
			<g>
				<path d="M352.367,205.394c2.369,7.437,1.747,12.574-2.593,19.025c-1.786,2.655-3.771,5.192-5.966,7.523
					c-0.997,1.058-2.14,1.986-3.247,2.928c-0.008,0.35,1.099,1.243,1.347,1.534c4.281-3.645,8.061-8.088,10.983-12.874
					c3.839-6.295,3.69-11.885,1.492-18.789c-0.657,0.208-1.484,0.47-2.143,0.678"/>
			</g>
		</g>
		<g>
			<g>
				<path d="M292.989,211.06c2.354,0.33,1.115-4.04,1.339-5.696c0.179-1.34,0.59-2.646,1.436-3.721
					c0.802-1.019,2.188-1.425,0.788-2.669c-4.072,2.571-4.038,7.777-3.451,12.022"/>
			</g>
		</g>
		<g>
			<g>
				<path d="M313.573,212.071c2.104,0.083,1.01-1.654,0.896-3.065c-0.122-1.499,0.852-4.885-1.498-4.285
					c-0.031,2.47,0.054,4.965,0.613,7.383"/>
			</g>
		</g>
		<g>
			<g>
				<path d="M319.602,215.061c0.267,0.331,0.873,0.645,1.217,0.898c2.319-3.165,3.842-6.892,4.33-10.795
					c-2.079-0.873-1.72,1.975-2.15,3.372c-0.726,2.36-1.835,4.609-3.289,6.598"/>
			</g>
		</g>
		<g>
			<g>
				<path d="M345.947,220.463c2.038,0.358,1.261-1.38,1.202-2.756c-0.061-1.393,0.625-3.214-1.401-2.797
					c-0.121,1.858,0.039,3.72,0.209,5.571"/>
			</g>
		</g>
		<g>
			<g>
				<path d="M302.501,181.827c0.447,0.427,1.216,0.905,1.664,1.332c0.16,0.151,3.054-1.925,3.579-2.264
					c2.637-1.689,5.51-3.021,8.622-3.299c7.022-0.625,13.486,1.894,19.04,5.951c5.833,4.263,11.322,9.463,15.201,15.632
					c1.513,2.405,2.928,4.973,3.658,7.723c0.379,1.427,0.017,3.042,0.122,4.515c0.307,0.217,2.049-0.205,2.452-0.233
					c-0.875-12.532-11.137-21.89-20.68-28.85c-9.878-7.203-24.248-10.24-33.581-0.453"/>
			</g>
		</g>
		<g>
			<g>
				<path d="M397.278,142.496c-6.497,3.96-11.88,8.904-19.938,8.422c-9.313-0.561-17.363,4.421-26.43,5.208
					c-10.879,0.944-22.804,2.93-31.903,9.403c-4.52,3.215-8.217,7.525-11.993,11.549c-1.99,2.12-1.782,1.541-4.141,3.258
					c-1.87,1.362-1.251,2.346-0.178,4.312c5.678-3.096,6.059-7.137,10.608-11.594c5.145-5.045,12.391-9.26,19.286-11.413
					c10.154-3.168,20.423-1.594,30.414-5.166c2.937-1.05,5.688-3.211,8.787-3.623c3.446-0.457,7.003,0.862,10.436,0.329
					c5.284-0.823,9.729-3.482,14.142-6.28c2.72-1.725,5.134-4.482,8.199-5.532c2.211-0.756,4.777-0.319,7.104-0.32
					c1.691-0.001,3.436,0.896,5.121,1.055c0.268-0.29,0.192-3.042,0.23-3.459c-7.268-0.683-12.715,1.424-18.891,5.242"/>
			</g>
		</g>
		<g>
			<g>
				<path d="M453.524,177.431c-2.294,4.373-4.336,8.696-8.161,11.93c-4.453,3.764-9.395,6.5-13.902,10.274
					c-7.596,6.358-16.768,10.429-26.7,11.248c-9.066,0.746-15.792,8.387-25.186,8.446c-4.396,0.028-8.667-1.309-12.984-2.231
					c-2.226-0.475-4.462-0.853-6.625-1.555c-1.161-0.377-1.282,1.232-1.654,2.28c7.787,2.731,17.285,3.836,25.535,2.422
					c5.816-0.995,10.627-4.317,15.955-6.561c3.63-1.528,7.357-2.052,11.156-2.907c5.91-1.332,11.913-3.098,16.874-6.64
					c4.65-3.319,8.439-7.264,13.548-9.966c5.168-2.732,10.087-5.773,13.01-10.794c1.024-1.758,1.77-3.702,2.727-5.497
					c1.025-1.923,0.505-2.949-1.384-3.987c-0.514,0.965-1.751,2.542-2.265,3.508"/>
			</g>
		</g>
		<g>
			<g>
				<path d="M359.475,212.615c-1.84,0.952-4.376,1.21-2.935,3.48c1.66-0.858,3.303-1.708,4.942-2.604
					c1.876-1.026,3.858-1.853,5.999-2.148c1.296-0.179,1.759-0.409,1.299-1.944c-3.402,0.05-6.428,1.566-9.323,3.188"/>
			</g>
		</g>
		<g>
			<g>
				<path d="M443.783,143.116c3.169,3.483,6.796,6.748,9.439,10.655c1.938,2.858,3.541,6.218,3.893,9.675
					c0.172,1.691-1.744,7.061,0.87,6.581c0.833-7.542-0.704-13.92-5.579-19.812c-1.549-1.873-3.215-3.654-4.848-5.451
					c-0.947-1.041-2.472-3.652-3.723-1.713"/>
			</g>
		</g>
		<g>
			<g>
				<path d="M452.383,129.562c4.409,6.369,5.768,14.693,6.734,22.181c0.43,3.325,1.191,6.524-0.634,9.571
					c-1.229,2.049-3.185,3.861-4.537,5.836c2.454,1.451,2.601,0.301,4.151-1.963c2.249-3.283,4.062-6.232,3.544-10.41
					c-1.096-8.862-2.133-18.948-7.364-26.511c-0.566,0.392-0.961,0.656-1.528,1.048"/>
			</g>
		</g>
		<g>
			<g>
				<path d="M326.06,174.729c1.043,1.605,1.567,0.148,2.504-0.776c1.742-1.72,3.621-3.333,5.699-4.627
					c2.076-1.292,4.323-2.445,6.697-3.062c1.406-0.366,4.05,0.463,3.377-1.633c-7.063,0.228-13.966,4.814-18.46,9.977"/>
			</g>
		</g>
		<g>
			<g>
				<path d="M333.475,174.018c-1.424,1.034-7.157,3.591-5.35,5.33c3.666-2.211,6.983-4.897,10.547-7.26
					c1.845-1.221,3.727-2.42,5.762-3.296c1.381-0.596,4.584-0.606,3.475-2.635c-5.405,1.267-9.93,4.773-14.347,7.979"/>
			</g>
		</g>
		<g>
			<g>
				<path d="M332.832,180.172c0.824,1.796,1.81,0.24,2.831-0.579c1.72-1.378,3.647-2.476,5.478-3.702
					c2.035-1.36,4.066-2.767,6.321-3.732c1.338-0.574,4.243-0.535,3.279-2.484c-6.622,1.159-12.798,6.314-17.779,10.572"/>
			</g>
		</g>
		<g>
			<g>
				<path d="M337.433,180.169c0.391,2.019,1.691,0.636,2.923,0.029c2.054-1.01,4.175-1.877,6.251-2.841
					c2.101-0.978,4.211-1.926,6.353-2.814c1.28-0.531,3.191-0.865,1.953-2.54c-5.995,2.319-11.715,5.374-17.469,8.229"/>
			</g>
		</g>
		<g>
			<g>
				<path d="M343.192,183.424c0.81,1.629,1.474,0.421,2.494-0.338c1.549-1.152,3.328-1.978,5.039-2.868
					c1.775-0.922,3.592-1.767,5.461-2.483c1.3-0.5,3.853-0.496,2.671-2.346c-5.478,1.638-11.343,4.169-15.591,8.078"/>
			</g>
		</g>
		<g>
			<g>
				<path d="M347.244,187.44c0.814,1.436,1.239,0.614,2.153-0.137c1.583-1.304,3.232-2.558,5.021-3.549
					c1.836-1.013,3.753-1.951,5.734-2.64c1.246-0.433,3.125-0.24,2.248-2.004c-5.322,0.942-11.421,4.488-15.175,8.365"/>
			</g>
		</g>
		<g>
			<g>
				<path d="M349.312,190.659c1.212,1.546,1.917-0.251,2.954-1.096c1.563-1.271,3.469-2.104,5.318-2.881
					c1.815-0.765,3.684-1.481,5.627-1.837c1.268-0.233,2.825,0.401,2.271-1.425c-5.385,0.037-12.936,2.718-16.13,7.219"/>
			</g>
		</g>
		<g>
			<g>
				<path d="M351.679,196.363c1.244,1.453,1.672-0.205,2.692-1.035c1.548-1.261,3.329-2.276,5.152-3.062
					c1.926-0.83,3.996-1.281,6.012-1.858c1.27-0.365,3.215-0.494,2.225-2.269c-5.307,1.22-12.951,3.404-16.091,8.254"/>
			</g>
		</g>
		<g>
			<g>
				<path d="M354.795,199.843c1.023,1.895,4.74-1.655,6.391-2.308c1.696-0.672,6.65-0.312,6.342-2.316
					c-4.313-0.579-9.602,1.647-12.642,4.647"/>
			</g>
		</g>
		<g>
			<g>
				<path d="M355.487,202.981c1.034,1.4,3.96-0.902,5.766-1.003c1.565-0.087,5.601,1.235,5.312-1.074
					c-3.348-0.544-8.672-0.996-11.013,2.126"/>
			</g>
		</g>
		<g>
			<g>
				<path d="M355.34,208.422c0.781,2.107,2.793-0.263,4.173-0.803c1.559-0.613,4.114,0.502,4.393-1.425
					c-2.885-1.334-6.188,0.591-8.47,2.292"/>
			</g>
		</g>
		<g>
			<g>
				<path d="M357.215,210.326c0.379,1.891,4.752,1.262,4.495-0.685c-1.543-0.223-3.102-0.053-4.494,0.665"/>
			</g>
		</g>
		<g>
			<g>
				<path d="M318.772,174.166c0.996,1.804,2.198,0.167,3.2-0.716c1.883-1.661,3.676-3.469,5.789-4.825
					c2.094-1.343,4.401-2.442,6.781-3.197c1.406-0.447,4.223-0.01,3.6-2.063c-7.168,0.054-14.338,6.139-19.144,10.975"/>
			</g>
		</g>
		<g>
			<g>
				<path d="M313.519,174.926c1.229,1.495,1.675-0.088,2.523-1.107c1.315-1.577,2.854-2.982,4.439-4.289
					c1.65-1.363,3.437-2.577,5.296-3.638c1.188-0.679,3.018-0.937,1.687-2.466c-5.389,2.58-10.543,6.515-13.965,11.45"/>
			</g>
		</g>
		<g>
			<g>
				<path d="M283.897,275.652c-0.038,0.688-0.097,1.92-0.135,2.607c12.863,0.699,25.647-0.16,38.169-3.279
					c-0.15-0.6-0.6-1.303-0.748-1.902c-0.096-0.381-2.988,0.754-3.517,0.871c-3.663,0.797-7.436,1.027-11.162,1.455
					c-7.511,0.861-15.07,1.025-22.611,0.615"/>
			</g>
		</g>
	</g>
	<rect id="FingersTarget" x="275.851" y="253.488" opacity="0" fill="#ECAF8B" width="48.02" height="39.023"/>
</g>
<rect id="FingersTargetFixed" x="277.666" y="256.206" opacity="0" fill="#ECAF8B" width="48.02" height="39.023"/>
<rect id="CompressionsTarget" x="277.702" y="288.896" opacity="0" fill="#F4BF9A" width="43.365" height="31.066"/>
</svg>
