<?xml version="1.0" encoding="utf-8"?>
<!-- Generator: Adobe Illustrator 15.0.0, SVG Export Plug-In . SVG Version: 6.00 Build 0)  -->
<!DOCTYPE svg PUBLIC "-//W3C//DTD SVG 1.1//EN" "http://www.w3.org/Graphics/SVG/1.1/DTD/svg11.dtd">
<svg version="1.1" id="Layer_1" xmlns="http://www.w3.org/2000/svg" xmlns:xlink="http://www.w3.org/1999/xlink" x="0px" y="0px"
	 width="720px" height="450px" viewBox="0 0 720 450" enable-background="new 0 0 720 450" xml:space="preserve">
<g>
	<path fill="#0090C0" d="M139.553,30.045c-4.137,30.336-8.273,63.43-8.273,89.629c0,26.199-4.137,32.404-6.895,37.919
		c-2.757,5.516-9.652,0-7.583,12.41c2.068,12.41,4.137,13.1,4.137,15.168c0,2.068,1.379,23.441,6.894,46.192
		c5.516,22.752,12.41,63.431,14.479,68.257c2.069,4.825,53.777-8.272,53.777-8.272s-6.895-36.541-8.962-63.432
		c-2.069-26.888-7.584-39.988-9.653-41.367c-2.068-1.378,2.758-4.826,2.758-8.963c0-4.137,4.826-39.298,7.584-64.808
		c2.758-25.51,7.584-70.324,7.584-70.324L139.553,30.045z"/>
	<path fill="#0090C0" d="M182.988,34.871c3.447,6.205,3.447,16.547,1.378,31.025c-2.068,14.479-2.758,23.442,4.826,33.094
		c7.584,9.652,7.584,13.1,7.584,13.1s14.479,48.261,8.963,83.423c-5.515,35.163-11.721,40.676-14.478,63.428
		c-2.758,22.754,1.378,54.469,1.378,54.469h224.073c0,0,6.204-39.988-3.448-86.872c-9.647-46.882-19.988-68.945-17.23-94.454
		c2.757-25.51,4.826-28.957,4.826-28.957s11.024-22.063,5.516-42.057c-5.516-19.994-5.516-24.131-5.516-24.131L182.988,34.871z"/>
	<path fill="#0082A9" d="M186.435,174.83c-14.061-7.583-31.063-11.099-46.792-12.407c8.927,5.343,17.237,12.321,26.141,16.914
		c-3.473,0.416-8.319,1.07-12.427,1.249c7.771,5.539,17.246,6.75,27.457,6.446c0.134-4.405,0.482-9.148,0.105-13.581"/>
	<path fill="#0082A9" d="M122.235,178.966c-0.024,43.8,30.279,74.894,33.078,117.058c-23.035,3.185-28.127-58.332-29.64-81.207"/>
	<path fill="#0082A9" d="M182.758,76.008c-0.104,32.713-2.975,64.749-1.838,97.442c5.572-27.227,15.542-59.184,5.516-85.492"/>
	<path fill="#0089B5" d="M408.49,70.438c-0.702,27.707-22.671,32.75-45.714,33.76c-13.613,0.597-46.742,0.398-21.104,12.521
		c31.612,14.947,67.647-4.952,66.815-39.217"/>
	<path fill="#0089B5" d="M183.057,70.438c0.702,27.707,22.671,32.75,45.714,33.76c13.612,0.597,46.741,0.398,21.101,12.521
		c-31.612,14.947-67.647-4.952-66.815-39.217"/>
</g>
<rect x="22.062" y="339.609" fill="#F1F2DA" width="682.557" height="88.25"/>
<path fill="#D3D7B8" d="M127.547,376.84c-13.872,0.139-46.436,1.098-55.098,12.828c45.486,10.459,95.02-2.994,139.846-1.055
	c2.743,18.396,86.067,13.168,101.073,13.703c36.438,1.299,73.243,3.707,109.457,5.695c7.021,0.393,24.173,3.369,29.446-3.604
	c5.478-7.236-5.371-14.094,0.193-20.539c4.521-5.229,51.625-0.793,58.502-0.828c11.88-0.063,24.418-0.773,36.295,0
	c11.619,0.764,23.522,6.52,34.914,6.115c9.813-0.348,15.473-4.713,24.54-6.996c8.771-2.209,67.356,2.826,71.039-8.738
	c7.363-23.131-264.114-33.217-280.62-33.836c-29.393-1.104-285.526-23.678-275.798,23.461"/>
<g>
	<path fill="#0090C0" d="M453.593,22.935c0,10.138,7.24,34.763,4.827,70.973c-2.413,36.209,2.618,73.928,0.205,83.101
		c-2.413,9.173-51.278,15.341-59.97,15.824c-8.689,0.482-7.828-43.887-7.828-48.714c0-4.828,5.309-21.726,6.271-29.451
		c0.972-7.726-4.345-74.354-4.345-77.733C392.759,33.557,453.593,22.935,453.593,22.935z"/>
	<path fill="#0082A9" d="M404.938,98.531c-0.002,10.835,4.26,35.315-2.19,45.065c-5.458,8.249-11.912,4.435-11.741-4.693
		c0.229-12.186,6.959-28.241,13.479-38.073"/>
</g>
<g>
	<g>
		<g>
			<path d="M136.928,48.381c-1.705,15.666-1.523,31.432-2.503,47.167c-0.625,10.048-2.945,19.94-4.292,29.921
				c-0.8,5.931-0.392,12.065-1.533,17.941c-0.641,3.299-2.319,6.389-3.055,9.669c-0.607,2.697-1.03,2.869,1.492,3.458
				c5.882-25.21,8.414-50.363,10.263-76.08c0.657-9.137-0.083-18.405,0.909-27.51c0.419-3.846,0.784-7.694,1.192-11.54
				c0.413-3.882,1.841-7.658,2.311-11.533c0.238-1.957-0.234-3.892,0.027-5.846c-0.269-0.277-0.64-0.199-1.049-0.254
				c-1.099,8.219-1.273,16.53-2.128,24.778"/>
		</g>
	</g>
	<g>
		<g>
			<path d="M115.816,170.065c-0.092,4.858,4.232,7.491,8.31,8.898c0.517-1.497,1.08-1.363-0.545-2.02
				c-1.986-0.803-4.013-2.134-5.161-4.024c-1.927-3.177,0.39-6.771,2.413-9.315c2.73-3.432,5.961-6.644,9.696-8.903
				c1.521-0.919,3.309-1.353,4.962-2.01c1.714-0.682,1.237-0.734,0.716-2.444c-7.843,2.386-20.599,10.596-20.77,19.811"/>
		</g>
	</g>
	<g>
		<g>
			<path d="M119.34,169.586c0.335,23.423,4.781,46.581,10.453,69.239c0.598-0.149,1.131-0.914,1.73-1.063
				c0.39-0.098-0.907-3.197-1.042-3.766c-0.899-3.719-1.979-7.405-2.79-11.143c-1.559-7.185-2.825-14.465-3.926-21.735
				c-0.926-6.125-1.696-12.308-2.164-18.483c-0.222-2.914,0.106-5.867,0.004-8.787c-0.05-1.432,0.532-2.971,0.511-4.402
				c-0.26-0.229-1.663,0.137-2.044,0.142"/>
		</g>
	</g>
	<g>
		<g>
			<path d="M197.334,112.15c3.319,18.062,8.277,36.098,9.937,54.399c1.259,13.886-1.065,27.273-4.56,40.753
				c-3.719,14.347-7.091,28.688-10.232,43.177c0.602,0.131,0.002,0.795,0.605,0.931c0.387,0.085,2.477-4.237,2.611-4.813
				c0.983-4.251,0.352-8.892,1.471-13.109c2.041-7.711,5.216-15.125,7.263-22.833c3.819-14.389,5.322-28.5,4.044-43.383
				c-1.184-13.779-7.671-46.473-8.177-49.231c-0.334-1.813-1.197-3.529-1.531-5.345c-0.232-1.263-0.667-0.818-1.838-0.607"/>
		</g>
	</g>
	<g>
		<g>
			<path d="M402.969,49.165c3.896,13.814,6.702,28.884,2.504,42.995c-2.708,9.103-8.515,16.681-16.773,21.365
				c-5.876,3.332-12.456,5.929-19.146,6.897c-3.486,0.505-7.119,0.881-10.631,0.6c-1.862-0.149-5.686-2.713-5.448,0.235
				c22.127,4.325,47.99-7.056,54.016-29.902c3.718-14.111,0.356-28.708-3.518-42.447c-0.51,0.144-0.521-0.006-0.979,0.256"/>
		</g>
	</g>
	<g>
		<g>
			<path d="M205.741,115.578c10.55,5.312,22.401,8.521,34.096,6.236c0.218-2.72-2.617-1.322-4.366-1.133
				c-3.498,0.381-7.008-0.553-10.501-0.961c-7.154-0.836-14.525-2.281-20.786-5.83c-8.531-4.835-14.901-12.895-17.506-22.335
				c-2.301-8.334-1.582-17.356-0.31-25.844c0.538-3.588,1.469-7.099,2.35-10.616c0.476-1.891,2.718-6.286-0.186-6.372
				c-6.741,23.912-8.918,53.898,17.123,67.021"/>
		</g>
	</g>
	<g>
		<g>
			<path d="M394.641,135.841c-0.704,19.159,3.584,39.497,7.796,58.044c3.146,13.842,9.563,26.964,12.099,40.932
				c1.249,6.894,1.501,13.979,1.813,20.974c0.146,3.248-0.311,6.497-0.378,9.749c-0.013,0.552,0.067,4.169,0.458,4.188
				c0.618,0.028,2.737,0.141,3.354,0.17c0.813-16.277-1.516-33.328-6.007-49.004c-4.747-16.575-11.131-32.637-13.892-49.682
				c-1.724-10.641-1.211-21.667-1.371-32.465c-0.086-5.854-1.325-11.772-1.014-17.616c0.126-2.36,2.233-4.578,2.434-6.933
				c0.196-2.303,0.295-2.153-2.093-2.458c-1.033,8.101-2.477,15.758-2.771,23.906"/>
		</g>
	</g>
	<g>
		<g>
			<path d="M187.956,111.648c-0.972,11.479-1.96,22.957-3.49,34.377c-0.771,5.754-1.884,11.442-3.003,17.138
				c-0.559,2.85-0.675,5.791-1.348,8.615c-0.413,1.734-1.877,4.878,0.976,4.84c4.792-18.321,6.476-37.41,8.129-56.229
				c0.454-5.159,1.19-10.295,1.645-15.454c0.201-2.282,0.372-4.566,0.571-6.849c0.132-1.514,0.182-1.834-1.709-1.665
				c-0.451,5.124-1.143,10.12-1.594,15.243"/>
		</g>
	</g>
	<g>
		<g>
			<path d="M167.414,168.159c1.525,2.163,3.373,4.049,5.359,5.792c1.417,1.243,6.102,3.688,6.201,5.388
				c-3.735,0.076-7.437,0.006-11.171-0.114c-1.653-0.053-7.159-1.403-6.65,1.102c6.426,0.447,12.85,0.663,19.29,0.505
				c-0.027-0.754,0.274-2.152-0.008-2.809c-0.488-1.131-3.82-2.402-4.847-3.199c-1.862-1.445-3.656-3.031-5.221-4.796
				c-0.928-1.047-1.796-3.491-3.162-1.792"/>
		</g>
	</g>
	<g>
		<g>
			<path d="M174.339,188.165c7.149,5.65,9.629,15.962,10.765,24.447c1.135,8.499,0.046,17.177,0.522,25.728
				c0.396,7.126,2.505,13.872,3.919,20.885c1.109,5.51,2.065,11.051,3.279,16.537c0.469,2.119,1.89,4.023,2.361,6.141
				c0.378,1.699-0.824,2.828,1.142,2c-3.423-15.367-7.309-30.694-8.186-46.461c-0.472-8.568-0.321-17.21-1.495-25.729
				c-1.214-8.81-3.882-18.987-11.266-24.822c-0.32,0.406-0.385,0.246-0.581,0.72"/>
		</g>
	</g>
	<g>
		<g>
			<path d="M402.834,47.615c0.332,0.264,0.659,0.276,1.053,0.444c3.668-8.582,6.747-17.443,9.06-26.482
				c-1.851-1.043-1.613,1.048-1.979,2.397c-0.752,2.757-1.729,5.45-2.6,8.172c-1.665,5.217-3.353,10.447-5.501,15.483"/>
		</g>
	</g>
</g>
<g>
	<g>
		<path d="M16.258,338.201c-0.796,2.34,2.987,1.553,4.317,1.553c4.285,0,8.571,0.021,12.857,0.021c4.554,0,9.11,0.02,13.665,0.02
			c0.964,0,6.251,0.58,6.962-0.137c1.873-1.887-4.398-1.775-4.704-1.775c-4.286,0-8.571,0.486-12.856,0.486
			c-6.824,0-13.647-0.434-20.471-0.434"/>
	</g>
</g>
<g>
	<g>
		<path d="M684.17,338.219c-0.808,2.381,3.295,1.279,4.639,1.279c4.563,0,9.11-0.266,13.666-0.266c4.766,0,9.525,0.25,14.288,0.25
			c0.829,0,5.854,0.508,6.419-0.146c1.738-2.018-4.271-1.479-4.729-1.479c-4.562,0-9.11-0.021-13.666-0.021
			c-6.965,0-13.937-0.021-20.896-0.021"/>
	</g>
</g>
<g>
	<g>
		<path d="M183.505,39.225c2.176,1.32,3.444,3.563,3.775,6.068c0.243,1.838-1.179,4.911,1.553,4.686
			c0.921-4.605-0.227-9.608-4.459-12.18c-0.268,0.443-0.689,0.884-0.828,1.38"/>
	</g>
</g>
<g>
	<g>
		<path d="M406.831,133.785c-4.636,3.736-11.924,5.479-14.429,11.412c1.65,1.338,2.141-1.262,3.146-2.333
			c1.618-1.722,3.696-3.082,5.729-4.251c4.543-2.614,8.691-5.729,13.271-8.261c4.028-2.229,8.426-3.646,12.942-4.521
			c2.386-0.463,4.792-0.563,7.217-0.688c1.563-0.082,5.704,0.932,5.119-1.473c-12.043-0.349-23.555,2.489-33.01,10.104"/>
	</g>
</g>
<g>
	<g>
		<path d="M452.528,20.071c3.38,21.663,4.954,43.632,5.329,65.569c0.15,9.307,0.776,18.564,0.31,27.859
			c-0.25,4.973-0.24,10.368-0.616,15.333c-0.181,2.38,1.275,45.796,1.074,48.176c-0.208,2.489-1.163-0.209,1.145-0.009
			c1.6-18.441-0.462-75.704-0.919-94.219c-0.52-21.074-1.448-42.162-4.696-62.979c-0.687,0.106-2.287,0.365-2.974,0.472"/>
	</g>
</g>
<g>
	<g>
		<g id="ChestMains">
			<path id="ChestMainExpanded" fill="#F4BF9A" d="M388.941,270.158c-13.323-0.46-31.114-2.834-50.718-3.355
				c-8.612-0.229-17.586-0.101-26.678,0.707c-29.763,2.648-44.977,0.662-61.512,11.244c-16.537,10.586-26.458,17.861-29.105,19.844
				c-2.645,1.984-11.244-3.305-16.535-17.195c-5.291-13.893-4.629-28.439-12.568-28.439s-9.923,1.98-11.244-1.314
				c-1.323-3.313,0.663-3.976-5.293-2.646c-5.953,1.322-8.596-4.631-8.596-4.631s-7.938,2.646-9.923-0.66
				c-1.983-3.309-3.969-5.953-6.615-1.986c-2.645,3.974-7.274,9.262-17.197,9.262c-9.92,0-14.553-2.646-19.182,1.324
				c-4.629,3.967,16.538,91.277,25.797,110.461c9.262,19.182,19.843,13.891,19.843,13.891s12.567-3.311,19.182-8.602
				c6.614-5.289,5.289-9.92,19.182-7.276c13.89,2.647,17.195,11.247,25.134,14.558c7.938,3.313,34.396,10.586,66.804,15.219
				c32.41,4.627,28.442,10.578,59.53,11.902c31.087,1.32,45.639,1.98,53.577,3.305c7.935,1.324,23.146,2.648,34.393-1.979
				c11.245-4.632,17.859-10.583,17.859-10.583l3.971-10.582c0,0,37.039-5.291,55.563-11.244c18.519-5.953,27.777-8.599,34.396-6.612
				c6.613,1.983,33.73,7.274,46.297,6.612c12.568-0.662,19.188-2.646,19.188-2.646s7.271-21.826,4.632-28.438
				c-2.646-6.612-9.923-6.612-9.923-6.612s-12.567-7.938-38.365-16.537c-25.796-8.603-37.039-8.603-44.977-7.272
				c-7.938,1.321-37.041,3.31-37.041,3.31L388.941,270.158z"/>
			<path id="ChestMain" fill="#F4BF9A" d="M388.441,269.824c-13.323-0.46-11.773-1.014-29.941,2.676
				c-6.822,5.521-21.5,13-34.167,21.667c-27.833,14.689-50.318,13.868-66.399,10.742c-14.682-2.909-34.857-8.628-37.504-6.646
				c-2.645,1.979-11.244-3.313-16.535-17.195c-5.291-13.896-4.629-28.44-12.568-28.44s-9.923,1.981-11.244-1.315
				c-1.323-3.313,0.663-3.975-5.293-2.646c-5.953,1.322-8.596-4.631-8.596-4.631s-7.938,2.646-9.923-0.66
				c-1.983-3.31-3.969-5.953-6.615-1.985c-2.645,3.979-7.274,9.262-17.197,9.262c-9.92,0-14.553-2.646-19.182,1.324
				c-4.629,3.967,16.538,91.276,25.797,110.461c9.262,19.188,19.843,13.896,19.843,13.896s12.567-3.313,19.182-8.604
				c6.614-5.287,5.289-9.922,19.182-7.271c13.89,2.646,17.195,11.247,25.134,14.557c7.938,3.313,34.396,10.586,66.804,15.223
				c32.41,4.629,28.442,10.574,59.53,11.898c31.087,1.32,45.642,1.98,53.577,3.308c7.935,1.321,23.146,2.646,34.393-1.979
				c11.245-4.632,17.859-10.583,17.859-10.583l3.971-10.582c0,0,37.039-5.291,55.563-11.244c18.519-5.953,27.775-8.599,34.396-6.609
				c6.613,1.98,33.73,7.271,46.297,6.609c12.568-0.662,19.188-2.646,19.188-2.646s7.271-21.824,4.632-28.438
				c-2.646-6.609-9.923-6.609-9.923-6.609s-12.567-7.938-38.365-16.534c-25.796-8.604-37.039-8.604-44.977-7.271
				c-7.938,1.32-37.041,3.313-37.041,3.313L388.441,269.824z"/>
		</g>
		<path fill="#E8B293" d="M484.188,300.582c0,0,9.265-6.613,31.092-2.646c21.824,3.977,25.135,11.906,25.135,11.906l-48.283,3.309
			L484.188,300.582z"/>
		<path fill="#B5D1E2" d="M590.679,327.041c0,0,7.275-12.566,19.849-18.521c12.563-5.951,19.183,0,19.844,7.277
			c0.661,7.273,0.661,7.273,0.661,7.273s-11.242,7.938-20.505,7.938C601.262,331.008,590.679,327.041,590.679,327.041z"/>
		<path fill="#D9E8F1" d="M605.894,332.332c0,0,18.521-4.629,37.039-11.904c18.521-7.277,28.441-11.244,34.396-3.971
			c5.956,7.275,5.297,39.023-19.84,49.609c-25.14,10.582-37.042,17.195-48.948,14.549c-11.905-2.643-18.521-8.596-18.521-8.596
			s1.985-1.984,11.906-2.646c9.923-0.662,14.552-11.244,13.229-19.844C613.828,340.932,605.894,332.332,605.894,332.332z"/>
		<path fill="#FFFFFF" d="M377.033,263.542c2.271,14.183,12.436,45.37,1.979,58.062c5.326,1.266,10.993,1.943,16.439,2.23
			c0.714,13.451-2.021,34.691-7.105,46.895c12.48,4.424,21.391,4.633,34.312,5.895c8.841,0.854,16.479-1.854,12.558,11.059
			c5.518-4.479,14.835-5.34,21.905-4.656c-4.021-16.947-21.213-52.008-14.922-59.133c14.728-16.684,33.688-9.791,49.813-12.316
			c9.768-29.873-96.786-48.688-115.637-48.688"/>
		<path fill="#D9E8F1" d="M118.411,245.686c-12.567,2.646-22.487,6.613-25.135,10.58c-2.643,3.969-25.133,17.859-29.101,41.67
			c-3.969,23.814-9.358,64.354,28.343,80.887c37.702,16.533,62.274,6.432,64.918,5.104c2.648-1.323,4.632,7.275,5.291-0.663
			c0.663-7.938,3.307-39.021-9.258-66.806c-12.567-27.778-25.796-46.299-29.102-55.562
			C121.059,251.639,118.411,245.686,118.411,245.686z"/>
		<path fill="#B5D1E2" d="M62.05,339.609c21.471,33.848,53.335,35.615,86.712,26.938c3.298,6.449,8.982,7.438,12.72,1.531
			c0.607,5.594,0.637,11.771,0.436,17.615c-26.096,2.174-70.221,13.895-95.73-35.746"/>
		<path fill="#B5D1E2" d="M633.605,373.393c-12.819,8.359-28.652-4.957-43.354-2.635c7.673,12.225,27.03,14.547,37.832,4.703"/>
		<path fill="#E4E5E9" d="M451.59,365.119c-20.104,2.867-41.64,2.959-61.946,3.705c-0.251,1.9-0.135,3.922-0.043,5.83
			c11.812,2.711,51.121-4.135,46.188,12.229c6.989-0.951,13.766-3.066,21.214-3.254c-0.787-5.656-2.747-11.309-4.72-16.441"/>
		<path fill="#D4A184" d="M306.805,353.398c11.114,0.994,84.749,1.396,82.629,19.891c-25.563-3.1-51.739-10.637-77.108-15.754"/>
		<path fill="#D4A184" d="M453.658,371.324c31.755,0,60.038-8.752,90.165-11.875c16.729-1.734,31.837,4.816,48.104,11.945
			c-16.099-0.234-26.132-2.371-40.544-5.414c-12.313-2.604-16.822,0.451-29.813,3.811c-10.972,2.836-67.497,21.842-67.913,3.602"/>
		<path fill="#D4A184" d="M211.661,366.498c0.535-33.77-33.093,0-48.847-1.965c-2.172,23.338,12.781,0.045,27.474-4.24
			c6.852-1.998,14.504,0.807,18.615,4.826"/>
	</g>
	<g>
		<g>
			<g>
				<path d="M87.693,257.943c0.331,0.261,1.371,1.375,1.765,1.381c1.088-1.385,2.395-2.604,3.834-3.606
					c3.325-2.319,7.211-3.782,11.074-4.94c4.027-1.207,8.201-1.801,12.374-2.282c1.832-0.218,3.651-0.367,5.496-0.438
					c1.314-0.046,0.803-1.143,0.78-2.313c-11.376,0.229-27.619,2.77-35.139,12.337"/>
			</g>
		</g>
		<g>
			<g>
				<path d="M115.874,242.213c9.899,21.453,19.44,43.131,30.697,63.893c7.466,13.771,13.606,28.686,14.72,44.352
					c0.735,10.363,1.201,20.707,1.103,31.104c1.984,0.371,1.145-0.125,1.158-1.703c0.024-2.371,0.146-4.738,0.17-7.107
					c0.06-6.514-0.093-13.031-0.387-19.541c-0.757-16.836-5.444-32.92-13.46-47.703c-3.61-6.656-8.179-16.125-11.82-22.498
					c-3.944-6.902-6.449-12.439-10.143-19.479c-2.189-4.17-8.836-16.803-9.874-19.008c-0.728-1.549-2.026-3.166-3.896-1.594"/>
			</g>
		</g>
		<g>
			<g>
				<path d="M86.63,254.168c11.666,8.955,18.786,21.85,26.642,34.006c7.919,12.254,16.723,24.156,23.211,37.248
					c2.988,6.029,5.697,12.01,7.906,18.371c2.133,6.133,2.819,12.357,3.929,18.734c1.357,7.799,4.223,26.719,15.878,24.854
					c0.27-2.059-3.228-2.314-4.722-2.998c-2.252-1.031-3.417-1.518-4.553-3.645c-2.885-5.381-4.589-12.23-5.63-18.182
					c-1.135-6.494-1.888-12.781-4.059-19.027c-2.224-6.406-5.219-12.449-8.228-18.523c-6.516-13.156-13.758-25.822-21.716-38.137
					c-7.945-12.293-16.451-24.889-28.249-33.944c-0.26,0.339-0.791,0.718-0.948,1.109"/>
			</g>
		</g>
		<g>
			<g>
				<path d="M61.01,325.289c0.431,20.879,10.502,41.373,27.927,52.992c19.149,12.77,43.896,12.699,65.492,6.066
					c-0.5-1.635-0.183-2.668-2.063-2.121c-2.669,0.771-5.043,2.564-7.773,3.098c-5.25,1.014-11.866,2.027-17.214,2.016
					c-10.496-0.02-19.542-3.113-29.011-7.689c-17.625-8.518-31.205-24.521-34.776-43.771c-3.26-17.567,0.38-37.791,8.915-53.519
					c3.086-5.688,7.767-10.215,12.514-14.631c1.771-1.646,2.731-4.295,4.747-5.639c0.854-0.564,1.955-0.783,2.857-1.271
					c1.23-0.668,0.971-0.055,0.387-1.223C69.502,271.348,60.515,301.166,61.01,325.289"/>
			</g>
		</g>
		<g>
			<g>
				<path d="M123.256,248.755c-0.263,0.638-0.524,1.322-0.788,1.959c9.841,4.058,26.087,0.455,31.063-9.644
					c-0.377-0.188-1.402-0.932-1.787-0.855c-0.623,1.258-1.399,2.488-2.388,3.48c-2.174,2.184-5.199,3.337-8.066,4.408
					c-5.575,2.084-12.501,3.258-18.139,0.934"/>
			</g>
		</g>
		<g>
			<g>
				<path d="M152.39,239.324c3.162,1.586,3.65,4.636,6.183,6.718c2.93,2.411,6.858,1.179,8.725-1.964
					c-0.378-0.225-1.414-1.15-1.83-1.116c-1.133,1.91-3.196,2.901-5.161,1.539c-1.799-1.248-2.339-3.433-3.908-4.918
					c-0.903-0.856-1.912-1.694-3.028-2.252c-0.309,0.617-0.708,1.31-1.016,1.927"/>
			</g>
		</g>
		<g>
			<g>
				<path d="M167.994,244.952c1.934,2.319,3.505,4.979,5.439,7.298c0.773-1.145,1.564-2.555,2.918-3.004
					c2.881-0.959,2.845,1.971,4.615,3.896c2.794,3.031,4.76,1.006,8.636,1.063c9.859,0.146,10.195,13.468,11.581,20.62
					c1.261,6.521,2.891,13.616,6.982,19.021c4.961,6.559,13.444,8.555,21.346,8.09c-0.137-2.351-0.182-2.748-2.667-2.756
					c-2.426-0.007-4.94,0.444-7.286-0.199c-3.729-1.026-6.706-3.586-9.079-6.651c-4.977-6.438-6.719-14.929-8.229-22.656
					c-0.962-4.938-1.585-10.646-5.12-14.483c-1.615-1.758-3.65-2.399-6.011-2.707c-1.758-0.229-6.664,0.308-7.591-0.57
					c-1.36-1.286-3.342-2.322-3.729-4.174c-0.176-0.844-1.94-1.03-2.573-0.916c-1,0.183-2.003,0.844-2.883,1.363
					c-1.426,0.85-0.887,0.192-1.905-1.023c-0.968-1.16-1.97-2.604-2.938-3.77c-0.53,0.439-1.164,1.577-1.694,2.021"/>
			</g>
		</g>
		<g>
			<g>
				<path d="M140.036,253.563c0.239,2.418,0.268,4.854,0.276,7.287c0.004,1.407-0.719,3.397,1.366,2.918
					c0.125-3.449-0.06-6.884-0.403-10.313c-0.428,0.044-0.814-0.029-1.213,0.114"/>
			</g>
		</g>
		<g>
			<g>
				<path d="M164.521,303.053c4.255,4.365,3.13,9.674-1.437,13.146c-2.012,1.527-4.424,2.523-6.863,3.156
					c-1.458,0.377-4.608-0.135-3.98,2.009c9.46-0.017,22.516-10.046,13.399-19.397c-0.307,0.303-0.868,0.678-1.086,1.041"/>
			</g>
		</g>
		<g>
			<g>
				<path d="M183.159,363.896c-7.016,6.17-14.857,8.424-23.619,10.979c0.825,2.598,1.209,2.021,3.777,1.271
					c4.187-1.227,8.358-2.531,12.327-4.381c4.527-2.104,7.739-5.867,11.555-8.979c1.823-1.486,4.003-1.938,6.224-2.769
					c1.568-0.582,0.96-1.479,0.548-2.976c-4.212,1.16-7.613,4.015-10.82,6.834"/>
			</g>
		</g>
		<g>
			<g>
				<path d="M195.854,358.906c0.074,2.141-0.4,3.371,1.106,3.311c2.548-0.102,5.131-0.105,7.633,0.668
					c2.501,0.773,5.004,2.092,7.193,4.193c1.931,1.855,1.574,2.121,2.998-0.553c-5.033-6.672-12.59-8.205-18.94-7.662"/>
			</g>
		</g>
		<g>
			<g>
				<path d="M225.95,380.514c20.97,6.813,43.109,9.83,65.116,11.271c0.025-0.385,0.272-1.539,0.057-1.816
					c-2.488-0.16-4.943-0.307-7.425-0.555c-4.802-0.482-9.643-0.998-14.412-1.742c-10.267-1.604-20.378-4.338-30.419-7.01
					c-8.307-2.211-16.812-4.021-22.454-11.037c-2.587-3.215-3.977-7.188-5.015-11.184c-0.563-2.17-1.739-4.305-1.723-6.547
					c0.012-1.623,0.18-1.086-1.292-1.166C207.748,362.082,214.768,376.883,225.95,380.514"/>
			</g>
		</g>
		<g>
			<g>
				<path d="M237.46,329.143c-0.612,2.313,1.29,2.359,2.973,2.404c2.816,0.078,5.711-0.143,8.503,0.227
					c5.551,0.734,10.806,3.104,16.161,4.723c10.766,3.256,21.12,7.59,31.369,12.176c3.829,1.711,7.945,2.813,11.703,4.676
					c8.026,3.979,16.39,10.145,25.608,10.479c0.637-1.943-0.611-0.953-2.104-1.172c-2.313-0.34-4.42-1.877-6.609-2.674
					c-5.061-1.83-9.563-4.848-14.325-7.307c-3.766-1.938-7.887-3.207-11.752-4.938c-19.472-8.699-39.643-18.326-61.431-18.098"/>
			</g>
		</g>
		<g>
			<g>
				<path d="M321.679,361.949c-0.268,1.637,0.276,1.637,1.713,1.531c2.443-0.186,4.997,1.293,7.451,1.268
					c5.358-0.053,10.679-0.205,16.021,0.375c10.668,1.16,21.248,3.07,31.671,5.699c11.088,2.795,22.09,5.941,33.132,8.93
					c0.766-1.711,0.526-2.42-0.94-2.818c-2.438-0.662-5.139-0.313-7.581-0.977c-6.223-1.686-12.525-3.006-18.763-4.652
					c-20.472-5.408-41.47-10.811-62.604-8.957"/>
			</g>
		</g>
		<g>
			<g>
				<path d="M421.235,376.564c-6.553,0.426-13.498,0.52-19.601,3.191c0.291,2.146,1.289,1.07,2.781,0.582
					c2.786-0.906,5.771-1.006,8.681-1.334c6.457-0.729,13.073-0.75,19.513-1.721c0.289-2.313-1.438-1.951-3.094-1.771
					c-2.766,0.313-5.535,0.387-8.313,0.564"/>
			</g>
		</g>
		<g>
			<g>
				<path d="M433.125,376.781c1.905,0.764,2.836,2.918,1.661,4.746c-1.544,2.404-5.238,3.227-7.777,4.018
					c-5.341,1.664-11.046,3.002-15.371,6.758c1.182,2.521,3.362-0.318,5.024-1.162c3.467-1.76,7.188-2.844,10.888-3.994
					c2.855-0.889,6.399-1.668,8.358-4.146c2.164-2.735,0.896-6.099-2.281-7.373c-0.194,0.484-0.537,0.863-0.595,1.377"/>
			</g>
		</g>
		<g>
			<g>
				<path d="M444.515,390.533c-2.479,1.354-4.923,3.082-7.748,3.539c-2,0.326-5.657-1.588-5.688,1.209
					c5.685,1.648,10.556-1.355,15.421-3.957c2.325-1.244,5.07-2.363,7.794-1.822c1.806,0.361,3.451,2.668,4.446,0.205
					c-4.671-3.621-9.43-1.334-14.032,1.178"/>
			</g>
		</g>
		<g>
			<g>
				<path d="M449.483,395.244c-3.722,2.811-7.461,5.477-11.896,7.055c-5.721,2.037-11.937,2.34-17.892,3.318
					c-5.043,0.826-10.451,2.02-15.547,1.063c-2.351-0.438-4.176-2.178-6.028-3.688c-2.087-1.697-2.146-2.354-4.367-0.66
					c8.444,11.059,24.956,4.975,36.359,4.131c6.188-0.457,11.45-3.199,16.502-6.734c2.677-1.867,5.678-3.273,8.329-5.184
					c1.414-1.016,2.479-2.48,3.961-3.402c0.038-0.389-0.896-1.574-1.115-1.928c-2.887,1.801-5.176,4.533-7.887,6.584"/>
			</g>
		</g>
		<g>
			<g>
				<path d="M289.488,390.945c8.839-0.1,17.064,3.164,25.312,5.729c9.075,2.83,18.378,4.59,27.838,5.396
					c17.578,1.5,35.352,1.896,53.024,1.588c0.001-0.4,0.146-1.516-0.089-1.795c-2.049,0.035-4.003-1.355-6.054-1.354
					c-4.273,0.016-8.604,1.648-12.873,1.535c-9.707-0.256-19.37-1.561-29.039-2.313c-10.184-0.799-20.668-1.66-30.479-4.533
					c-9.063-2.653-17.988-6.834-27.669-6.729c-0.005,0.688,0.061,1.606,0.055,2.297"/>
			</g>
		</g>
		<g>
			<g>
				<path d="M432.81,387.109c1.53,0.506,2.789,1.545,3.392,3.074c0.459,1.176,0.104,2.461,1.843,1.859
					c-0.14-2.971-1.982-5.277-4.804-6.209c-0.139,0.402-0.401,0.832-0.418,1.252"/>
			</g>
		</g>
		<g>
			<g>
				<path d="M442.943,384.273c-1.702,0.559-4.912,0.438-3.773,2.863c4.14-0.656,7.862-2.73,12.047-3.301
					c1.563-0.211,3.866-0.229,4.872,1.293c0.822,1.248,0.238,2.646,2.326,1.967c-0.255-8.021-11.001-3.979-15.377-2.539"/>
			</g>
		</g>
		<g id="ChestOutlines">
			<path id="ChestOutlineExpanded" d="M279.845,269.273c-8.845,1.264-17.225,4.261-25.255,8.055c-3.34,1.578-6.62,3.294-9.847,5.08
				c-4.826,2.674-19.088,11.223-21.499,12.668c-2.202,1.32-2.563,1.811-1.388,4.074c7.423-3.854,14.362-8.465,21.486-12.778
				c5.369-3.251,10.843-6.33,16.708-8.782c6.507-2.721,13.254-4.543,20.122-5.842c8.623-1.63,17.436-2.434,26.201-3.15
				c1.784-0.146,3.566-0.254,5.347-0.33c6.857-0.295,13.696-0.119,20.53,0.215c15.092,0.74,30.156,2.262,45.321,1.191
				c-0.111-1.723,0.271-2.203-1.354-2.133c-2.271,0.096-4.555-0.422-6.828-0.412c-9.967,0.037-19.832-1.15-29.745-2.156
				c-2.95-0.3-5.892-0.466-8.813-0.521c-6.896-0.13-13.705,0.354-20.503,1.139c-10.078,1.164-20.128,2.988-30.376,4.453"/>
			<path id="ChestOutline" d="M294.385,304.223c-8.845,1.266-17.526,0.021-26.559,0.688c-3.684,0.271-18.493-4.224-22.326-4.647
				c-4.667-1.109-19.846-6.631-22.257-5.186c-2.202,1.318-2.563,1.813-1.388,4.072c7.423-3.854,15.488,5.352,24.979,5.352
				c10.535-1.1,16.158,3.514,20.992,2.916c7.783-0.958,23.886,0.435,32.942-1.918c12.162-4.734,13.804-5.503,22.345-8.611
				c8.267-5.371,0.742-0.625,10.833-7.014c8.118-6.748,13.218-8.798,21.678-13.75c10.54-4.551,6.784-5.383,21.949-6.447
				c-0.111-1.723,0.271-2.199-1.354-2.133c-2.271,0.1-2.971-0.381-8.37,0.751c-8.588,3.333,0,0-9.476,3.076
				c-3.152,1.021-6.375,3.003-12.75,6.878c-10.114,7.49-4.625,2.875-15.375,11C320.373,295.625,304.633,302.758,294.385,304.223"/>
		</g>
		<g>
			<g>
				<path d="M379.472,263.453c0.962,8.131,1.853,16.295,2.432,24.465c0.445,6.381,0.396,12.824-0.401,19.182
					c-0.396,3.162-1.308,6.213-2.188,9.277c-0.439,1.547-3.104,5.285-0.632,5.578c4.896-12.211,4.853-25.252,3.646-38.158
					c-0.447-4.789-0.795-9.578-1.359-14.354c-0.177-1.48,0.616-6.756-1.765-5.709"/>
			</g>
		</g>
		<g>
			<g>
				<path d="M377.394,322.369c3.239,0.316,6.46,0.818,9.704,1.078c3.896,0.309,7.771,0.867,11.614,1.559
					c1.659,0.295,6.068,2.584,6.428,0.383c-5.839-2.809-13.008-2.934-19.313-3.547c-1.718-0.168-9.153-1.756-8.718,0.844"/>
			</g>
		</g>
		<g>
			<g>
				<path d="M397.908,315.547c-1.356,10.561-3.742,21.016-5.006,31.582c-0.371,3.109-0.563,6.236-1.234,9.297
					c-0.421,1.908-1.047,3.662-2.267,5.221c-0.854,1.098-2.58,1.188-1.18,2.607c5.626-3.016,5.349-10.582,5.997-16.074
					c1.063-8.896,2.396-17.787,3.545-26.678c0.597-4.563,1.43-9.092,2.025-13.652c0.305-2.307,0.717-4.596,1.021-6.902
					c0.164-1.242,1.521-2.752-0.491-2.387c-0.753,5.711-1.249,11.328-2.003,17.041"/>
			</g>
		</g>
		<g>
			<g>
				<path d="M404.506,268.096c0.848,10.207,2.922,21.063-0.177,31.033c8.688,0.723,17.715,1.934,26.375,0.363
					c1.997-1.559,0.712-10.334,0.57-13.111c-0.261-5.125-0.701-10.346-2.077-15.297c-1.979-0.006-1.448,1.561-1.147,2.869
					c0.48,2.055,0.869,4.105,1.146,6.197c0.654,5.047,1.136,10.127,0.938,15.211c-0.036,0.938-0.181,1.865-0.231,2.803
					c-1.287,0.215-2.563,0.576-3.864,0.672c-2.271,0.164-4.573,0.141-6.854,0.08c-4.369-0.113-8.821-0.654-13.18-1.014
					c1.99-7.406,1.337-15.223,0.62-22.744c-0.146-1.645,0.425-7.926-2.038-7.01"/>
			</g>
		</g>
		<g>
			<g>
				<path d="M434.405,297.271c6.001,14.025,6.143,27.646,8.052,42.625c1.007,7.895,3.252,16.756,6.562,24.033
					c1.527,3.357,5.678,17.516,7.842,16.43c-1.392-6.898-4.177-13.4-6.914-19.813c-2.896-6.756-5.085-13.313-5.987-20.553
					c-1.819-14.615-2.805-29.434-8.656-43.104c-0.396,0.17-0.868,0.252-1.205,0.516"/>
			</g>
		</g>
		<g>
			<g>
				<path d="M377.089,262.316c0.021,2.563,0.283,2.711,3.021,2.742c3.441,0.041,6.938-0.693,10.376-0.444
					c7.196,0.521,14.171,2.938,21.271,4.22c12.211,2.203,24.065,5.529,35.838,9.443c5.213,1.729,11.313,1.539,15.936,4.576
					c4.751,3.123,8.43,7.729,13.525,10.313c4.563,2.313,8.66,4.549,11.602,8.998c1.149,1.746,1.954,3.477,2.453,5.498
					c0.61,2.521,0.694,3.01,3.313,2.658c-0.561-4.158-2.51-7.945-5.297-11.154c-3.45-3.979-7.99-5.582-12.479-8.021
					c-4.47-2.42-8.098-6.105-12.31-8.918c-4.518-3.016-9.692-4.227-14.811-5.949c-23.305-7.854-47.729-13.75-72.399-13.574"/>
			</g>
		</g>
		<g>
			<g>
				<path d="M438.689,321.875c0.859,2.172,2.493-0.58,3.68-1.41c1.852-1.301,4.125-1.93,6.09-3.047
					c3.631-2.066,7.347-3.855,11.433-4.766c4.107-0.914,8.284-1.137,12.479-0.953c2.266,0.098,4.52,0.244,6.771,0.494
					c1.53,0.168,5.476,1.863,5.146-0.615c-8.022-1.107-16.311-2.541-24.318-0.863c-7.958,1.67-15.146,5.953-21.555,10.807"/>
			</g>
		</g>
		<g>
			<g>
				<path d="M491.591,313.957c-5.791,0.904-11.78,0.443-17.592,1.189c-2.864,0.367-5.675,1.16-8.552,1.428
					c-1.961,0.18-1.394,0.172-1.244,1.871c17.845-1.51,35.424-4.74,53.24-6.49c8.446-0.828,16.979-2.09,25.458-1.408
					c4.168,0.336,8.303,1.326,12.391,2.234c2.275,0.506,4.635,0.535,6.854,1.242c0.32-0.232,0.651-1.738,0.779-2.146
					c-23.104-7.365-48.163-2.959-71.556,0.688"/>
			</g>
		</g>
		<g>
			<g>
				<path d="M557.254,313.18c11.526,1.748,20.61,10.402,30.785,15.42c4.576,2.256,9.592,3.42,14.499,4.721
					c1.209,0.32,2.465,0.473,3.677,0.787c0.896,0.238,0.745-0.898,0.958-1.65c-7.479-1.984-14.544-4.445-21.362-8.266
					c-8.95-5.014-17.884-11.104-28.293-12.684c-0.104,0.684-0.296,1.619-0.396,2.301"/>
			</g>
		</g>
		<g>
			<g>
				<path d="M544.32,361.287c9.413,7.234,21.055,8.717,32.609,8.82c6.11,0.055,12.217-0.26,18.321-0.27
					c3.279-0.002,6.599,0.104,9.867,0.391c2.644,0.229,2.799,0.748,3.11-1.729c-12.122-1.526-22.614,0.996-34.772,0.343
					c-5.603-0.302-11.287-1.445-16.556-3.438c-2.669-1.008-6.803-2.829-9.176-4.411c-2.118-1.414-2.284-1.242-3.76,0.672"/>
			</g>
		</g>
		<g>
			<g>
				<path d="M546.537,360.104c-14.134,6.238-29.591,8.604-44.573,12.131c-5.511,1.305-26.617,7.752-31.945,8.396
					c-2.813,0.338-5.551,0.527-8.387,0.49c-1.979-0.023-1.563,1.758-1.636,3.484c16.613,0.643,31.622-7.482,47.438-11.213
					c8.349-1.971,16.725-3.801,24.981-6.088c6.112-1.691,12.087-3.201,17.899-5.701c3-1.289,6.108-1.877,9.32-2.521
					c2.557-0.52,2.565-1.182,2.364-3.66c-5.354,0.438-10.38,3.086-15.229,5.229"/>
			</g>
		</g>
		<g>
			<g>
				<path d="M499.247,295.426c-1.981,0.008-3.956,0.023-5.938,0.033c-2.365,0.01-2.445,0.213-2.521,2.623
					c6.55-0.031,13.253-0.48,19.787-0.023c5.105,0.357,10.159,1.25,14.896,3.229c2.816,1.172,5.543,2.59,8.104,4.247
					c2.272,1.479,2.221,1.986,3.716-0.098c-11.578-8.302-24.16-10.31-38.041-10.006"/>
			</g>
		</g>
		<g>
			<g>
				<path d="M609.944,335.037c3.778,7.242,6.108,14.217,3.516,22.34c-1.308,4.088-3.18,8.734-6.212,11.877
					c-1.268,1.314-2.643,2.395-4.513,2.309c-1.546-0.074-3.614-1.83-4.063,0.361c9.236,4.76,13.797-7.176,16.006-14.027
					c2.754-8.539,0.24-15.734-3.748-23.375c-0.38,0.197-1.212,0.496-1.521,0.785"/>
			</g>
		</g>
		<g>
			<g>
				<path d="M589.479,373.594c4.065,2.518,8.189,5.523,12.771,7.027c5.697,1.869,11.658-0.443,17.004-2.477
					c-0.219-0.576-0.453-1.145-0.673-1.715c-0.124-0.326-4.159,1.066-4.819,1.273c-2.715,0.854-5.5,1.469-8.354,1.094
					c-5.389-0.697-10.354-4.133-14.84-6.908c-0.361,0.588-0.729,0.898-1.084,1.486"/>
			</g>
		</g>
		<g>
			<g>
				<path d="M670.047,309.398c14.313,10.951,12.546,37.6,1.083,49.662c-6.861,7.221-17.726,7.98-26.794,10.811
					c-6.576,2.053-15.932,4.207-22.621,5.875c-3.269,0.816-3.614,2.359-6.968,2.711c-2.65,0.279-2.946-0.262-2.825,2.252
					c12.854-0.623,24.857-6.852,37.079-10.359c9.5-2.727,19.01-4.627,25.258-12.967c10.013-13.369,11.868-39.131-2.559-50.172
					c-0.419,0.547-1.479,1.912-1.896,2.461"/>
			</g>
		</g>
		<g>
			<g>
				<path d="M672.625,312.098c-7.532,0.787-14.764,0.883-21.858,3.604c-4.438,1.702-8.857,3.521-13.271,5.313
					c-4.257,1.729-7.948,4.433-12.5,5.313c-7.346,1.435-15.608,1.159-21.99,5.438c0.231,0.35,1.029,1.805,1.4,1.926
					c1.748-1.174,3.799-1.822,5.771-2.541c4.033-1.459,8.229-2.601,12.438-3.34c5.979-1.058,11.325-2.406,16.892-4.674
					c6.055-2.464,12.063-5.05,18.313-6.979c8.673-2.683,17.896-1.998,26.646-4.203c-0.541-2.147-0.45-2.521-2.759-2.106
					c-3.052,0.551-5.984,2.079-9.063,2.399"/>
			</g>
		</g>
		<g>
			<g>
				<path d="M591.597,323.633c0.757,0.697,1.163,1.758,1.951,0.912c1.042-1.111,1.648-2.643,2.73-3.715
					c3.344-3.303,6.998-6.348,10.771-9.148c3.522-2.609,7.581-4.779,11.868-5.891c2.188-0.566,4.488-0.795,6.563,0.26
					c2.398,1.223,1.656,2.539,3.91,0.76c-10.183-12.906-31.494,9.068-38.275,16.439"/>
			</g>
		</g>
		<g>
			<g>
				<path d="M623.046,304.205c3.099,3.563,5.963,7.73,6.922,12.406c0.438,2.135,0.646,4.447-0.051,6.531
					c-0.499,1.496,0.094,1.277,1.442,1.896c3.479-7.604-1.783-16.521-6.727-22.201c-0.521,0.453-1.053,0.871-1.567,1.324"/>
			</g>
		</g>
	</g>
</g>
<g id="Diagram">
	<image id="DiagramGlow" overflow="visible" width="337" height="178" xlink:href="mod3/diagramGlow.png"  transform="matrix(1 0 0 1 45.5 232.5)" />
	<path id="Brain" opacity="0.6" fill="#F0A8CA" stroke="#FBDDEA" stroke-width="2" enable-background="new    " d="M111.583,263.578
		c-21.339,0-35.536,29.852-34.825,58.637c0.71,28.783,14.925,54.014,37.313,56.502c22.388,2.488,38.607-11.822,38.607-28.063
		c0-16.241-8.06-27.037-16.962-41.502C127.761,296.223,132.923,263.578,111.583,263.578z"/>
	<g>
		<path id="Lungs" opacity="0.6" fill="#F0A8CA" stroke="#FBDDEA" stroke-width="2" enable-background="new    " d="
			M350.217,307.384c-5.256-14.622-45.8-5.901-68.751-0.086c-22.953,5.818-38.298,10.99-38.209,17.854
			c0.089,6.861,13.958,6.687,53.56,4.621C336.42,327.714,354.313,318.783,350.217,307.384z"/>
		<path id="Heart" opacity="0.6" fill="#EE6767" stroke="#FBDDEA" stroke-width="2" enable-background="new    " d="M283.092,316.43
			c0,0-8.029-5.578-3.799-11.402c4.229-5.815,12.864-0.877,22.803,11.402c-9.938,12.279-18.572,17.229-22.803,11.401
			C275.063,322.007,283.092,316.43,283.092,316.43z"/>
		<g id="Arrows">
			<path opacity="0.6" fill="#EE6767" enable-background="new    " d="M274.019,310.893l-1.674-2.854
				c-0.255,0.146-98.678,26.967-123.271,20.99l-0.24-2.063l-11.647,3.408L149.5,335l-0.333-2.333
				C176.167,341.5,273.755,311.046,274.019,310.893z"/>
			<path id="ArrowOne" opacity="0.6" fill="#EE6767" enable-background="new    " d="M268.182,321.714
				c2.531-1.026,6.239-2.805,9.532-5.435l-2.069-2.598c-2.324,1.854-5.414,3.611-8.701,4.945l-0.939-2.354l-8.067,7.679
				l11.171,0.123L268.182,321.714z"/>
		</g>
	</g>
</g>
<g id="Meters">
	<rect id="OneThird" x="-30.833" y="311.947" opacity="0.7" fill="#001783" width="770" height="14.388"/>
	<rect id="OneFifth" x="-30.833" y="292.561" opacity="0.53" fill="#001783" width="770" height="19.387"/>
	<rect id="OneEighth" x="-30.833" y="278.1" opacity="0.35" fill="#001783" width="770" height="14.461"/>
	<rect id="Zero" x="-30.833" y="262.898" opacity="0.25" fill="#001783" width="770" height="15.201"/>
	<image overflow="visible" width="34" height="13" xlink:href="mod3/13.png"  transform="matrix(1.0002 0 0 1.0002 12.0239 303.1982)"/>
	<image overflow="visible" width="34" height="14" xlink:href="mod3/15.png"  transform="matrix(1.0002 0 0 1.0002 12.3569 285.5596)"/>
	<image overflow="visible" width="34" height="14" xlink:href="mod3/18.png"  transform="matrix(1.0002 0 0 1.0002 12.0239 268.0576)"/>
</g>
<g id="Hand">
	<image id="FingersGlow" overflow="visible" width="247" height="225" xlink:href="mod3/fingersGlowComp.png"  transform="matrix(1 0 0 1 246.5 89.5)"/>
	<image overflow="visible" width="187" height="166" xlink:href="mod3/hand.png"  transform="matrix(1 0 0 1 276.5 122.5)"/>
	<rect id="FingersTarget" x="277.42" y="248.157" opacity="0" fill="#F4BF9A" width="48.02" height="39.023"/>
</g>
<g id="Arrow">
	<image id="ArrowGlow" overflow="visible" width="103" height="68" xlink:href="mod3/arrowGlow.png"  transform="matrix(1 0 0 1 153.5 224.833)"/>
	<image id="ArrowProper" overflow="visible" width="72" height="37" xlink:href="mod3/arrow.png"  transform="matrix(1.0002 0 0 1.0002 169.3032 240.6475)"/>
</g>
<rect id="FingersTargetFixed" x="277.42" y="248.157" fill="#F4BF9A" fill-opacity="0" width="48.021" height="39.022"/>
<rect id="CompressionsTarget" x="279.749" y="284.273" fill="#F4BF9A" fill-opacity="0" width="43.365" height="31.063"/>
</svg>