<?xml version="1.0" encoding="utf-8"?>
<!-- Generator: Adobe Illustrator 15.0.0, SVG Export Plug-In . SVG Version: 6.00 Build 0)  -->
<!DOCTYPE svg PUBLIC "-//W3C//DTD SVG 1.1//EN" "http://www.w3.org/Graphics/SVG/1.1/DTD/svg11.dtd">
<svg version="1.1" id="Layer_1" xmlns="http://www.w3.org/2000/svg" xmlns:xlink="http://www.w3.org/1999/xlink" x="0px" y="0px"
	 width="640px" height="360px" viewBox="0 0 640 360" enable-background="new 0 0 640 360" xml:space="preserve">
<path fill="#78343C" d="M265.11,131.139c-9.927,4.963-23.576,11.788-26.058,35.984c-2.481,24.195-1.551,44.67-4.963,54.907
	c-3.413,10.237-4.963,12.098-6.205,17.682c-1.24,5.584-1.24,15.511,11.168,19.231c12.408,3.723,16.441-0.619,19.543-9.926
	c3.102-9.311,3.516-19.75,5.274-28.229c1.758-8.479,4.032-12.408,4.032-12.408L265.11,131.139z"/>
<path fill="#78343C" d="M228.195,243.436c-3.928,0.914-3.722,4.652-3.722,4.652s-3.723,2.792-5.274,7.135
	c-1.551,4.344-1.551,9.307-5.583,13.961c-4.033,4.651-5.895,6.518-7.135,8.064c-1.241,1.551,5.583,9.927,9.306,11.477
	c3.722,1.553,24.816-6.822,24.816-6.822s10.237-15.512,13.029-20.475C256.424,256.464,264.179,235.061,228.195,243.436z"/>
<path fill="#78343C" d="M361.172,123.383c4.135,1.861,14.682,0.621,21.195,24.817c6.515,24.196,13.027,44.05,9.617,69.176
	c-3.412,25.128-6.52,46.222-12.408,47.462c-5.895,1.241-19.233-4.031-24.508-14.27c-5.273-10.236-2.172-16.752,0-18.922
	c2.173-2.172,0-15.516,0-17.994C355.068,211.173,361.172,123.383,361.172,123.383z"/>
<path fill="#F2F3DC" d="M579.972,365.761c-9.513-16.958-30.188-45.499-33.502-46.739c-3.31-1.237-44.257-0.821-79-0.821
	s-296.559,0-312.69-0.416c-16.13-0.411-18.612-1.24-26.057,7.441c-7.445,8.688-28.953,40.535-28.953,40.535H579.972L579.972,365.761
	z"/>
<path fill="#D3D8B9" d="M231.711,334.326c-10.695,1.842-25.21-0.771-35.071,3.808c-0.034-0.052-0.031,1.528-0.021,1.507
	c13.975,2.204,28.591,2.766,42.93,3.28c9.49,0.343,18.179-1.195,27.014-0.286c14.713,1.508,28.745,4.754,43.725,5.343
	c14.161,0.561,29.041,4.604,43.035,3.726c7.024-0.44,9.633-1.572,15.706-3.728c18.824-6.668,32.076-9.179,52.11-8.271
	c10.708,0.484,33.008-0.55,43.585-1.563c12.657-1.211,23.07-0.557,23.427-5.469c0.352-4.912-48.434-5.43-70.729-7.445
	c-42.652-3.854-85.811,2.268-128.633,0.827c-12.677-0.425-52.874-4.333-60.387,9.932"/>
<path fill="#5E4732" d="M326.375,69.872c0,0,7.602,4.343,9.463,12.098c1.861,7.755,0.62,16.597,1.707,20.629
	c1.086,4.033,3.102,6.205,8.376,5.74c5.272-0.465,5.739-1.862,5.739-1.862s-1.087,22.181-23.111,7.446
	C306.523,99.188,318.62,76.852,326.375,69.872z"/>
<path fill="#78343C" d="M264.386,130.414c0,0-2.067,7.033-3.308,24.404c-1.241,17.373-0.414,22.335,0,26.472
	c0.413,4.136-2.896,16.131,0.826,23.576c3.722,7.444,3.723,7.444,3.723,7.444s0.414,4.138,3.309,14.891
	c2.895,10.756,1.655,22.75-0.414,30.193c-2.069,7.441-4.136,18.193-4.963,24.398c-0.827,6.204-0.415,29.78-0.415,29.78l104.23,3.311
	c0,0,9.927-23.571,4.964-38.881c-4.964-15.305-11.168-21.921-12.822-35.565c-1.654-13.649-0.412-27.299,0-30.193
	c0.413-2.896,5.377-8.271,5.377-14.477c0-6.207-2.896-13.238-1.654-16.96c1.24-3.722,6.617-14.063,7.859-26.884
	c1.24-12.821-9.928-28.539-9.928-28.539s-18.2-4.55-27.298-4.137C324.773,119.661,278.861,126.691,264.386,130.414z"/>
<path fill="#ECAF8B" d="M283.566,123.383c-7.755,2.792-13.649,2.171-12.408,7.135c1.24,4.963,5.894,21.56,33.502,23.731
	c27.609,2.171,39.552-9.151,44.516-19.078c4.965-9.927,3.723-13.805,3.723-13.805s-18.607-3.258-23.887-10.082
	c-5.271-6.825-6.824-16.597-7.601-22.18c-0.776-5.584-13.339-8.532-19.388,0.465C295.974,98.567,291.322,120.591,283.566,123.383z"
	/>
<path fill="#ECAF8B" d="M271.159,45.055c-8.221,5.273-8.532,9.307-7.601,18.768c0.931,9.462,2.792,11.323,4.343,17.992
	c1.551,6.669,1.396,9.772,9.306,19.389c7.91,9.616,9.307,16.597,20.939,14.735c11.633-1.861,15.2-11.943,17.992-18.923
	c2.792-6.979,5.12-11.323,4.963-13.029c-0.156-1.706-0.156-1.707-0.156-1.707s5.119-1.707,5.584-7.911s2.017-11.167-5.896-17.682
	C312.725,50.174,271.159,45.055,271.159,45.055z"/>
<path fill="#5E4732" d="M271.624,39.627c0,0-11.478,2.172-13.339,10.237c-1.861,8.065,5.273,15.51,5.273,15.51
	s-5.584-11.788,7.755-17.372c0,0,3.102,9.926,7.755,13.339c4.653,3.412,8.996,3.102,8.996,3.102l-0.931-3.723l7.445,0.621
	c0,0-3.412-0.931-5.894-5.584c0,0,8.065,5.894,16.441,5.274c0,0-3.103-3.413-3.723-6.515c0,0,3.723,2.792,7.135,4.033
	c3.412,1.241,4.653,7.445,5.894,8.065c1.241,0.62,2.792,0.621,2.792,0.621s-0.311-3.103,1.861-5.584
	c2.171-2.481,5.273-0.62,5.273-0.62s0-15.201-7.445-22.956c-7.444-7.755-21.094-9.927-28.85-7.755
	C280.31,32.492,275.657,36.525,271.624,39.627z"/>
<path fill="#D5A387" d="M319.086,66.615c0.167,3.318,1.536,5.063,1.908,8.352c2.572-2.319,3.044-6.029-0.016-7.963
	c1.252-0.339,1.871-0.558,3.017-0.428c-0.119-0.735-0.692-1.823-0.613-2.396c-1.502,0.068-3.193,0.651-4.296,1.504"/>
<path fill="#F3BF98" d="M348.557,286.244c-8.996-0.311-22.336-2.48-36.292-1.241c-13.96,1.241-21.094,0.312-28.85,5.272
	c-7.755,4.965-12.408,8.377-13.649,9.307c-1.241,0.932-5.273-1.55-7.755-8.064c-2.482-6.515-2.172-13.338-5.895-13.338
	c-3.722,0-4.653,0.93-5.273-0.621c-0.62-1.551,0.311-1.857-2.481-1.24c-2.792,0.619-4.033-2.172-4.033-2.172
	s-3.723,1.24-4.653-0.312c-0.931-1.551-1.861-2.791-3.102-0.931c-1.241,1.861-3.413,4.344-8.066,4.344
	c-4.653,0-6.824-1.24-8.996,0.621c-2.171,1.859,7.755,42.808,12.098,51.804c4.343,8.996,9.307,6.52,9.307,6.52
	s5.894-1.556,8.996-4.033c3.103-2.481,2.482-4.652,8.996-3.412c6.515,1.241,8.065,5.271,11.788,6.825
	c3.723,1.551,16.131,4.963,31.331,7.135c15.201,2.171,13.339,4.963,27.917,5.583c14.58,0.62,21.404,0.932,25.125,1.552
	c3.726,0.62,10.855,1.241,16.135-0.932c5.271-2.171,8.376-4.962,8.376-4.962l1.858-4.964c0,0,17.369-2.481,26.06-5.273
	c8.687-2.792,13.029-4.033,16.131-3.103c3.104,0.931,15.821,3.407,21.715,3.103c5.896-0.311,8.996-1.241,8.996-1.241
	s3.413-10.231,2.172-13.339c-1.239-3.103-4.649-3.103-4.649-3.103s-5.896-3.728-17.992-7.757c-12.102-4.03-17.371-4.03-21.094-3.414
	c-3.727,0.621-17.375,1.555-17.375,1.555L348.557,286.244z"/>
<path fill="#E8B294" d="M393.227,300.514c0,0,4.348-3.103,14.579-1.24c10.237,1.86,11.789,5.584,11.789,5.584l-22.646,1.555
	L393.227,300.514z"/>
<path fill="#B5D1E2" d="M443.17,312.922c0,0,3.412-5.895,9.307-8.686c5.896-2.793,8.996,0,9.312,3.412
	c0.31,3.407,0.31,3.407,0.31,3.407s-5.271,3.728-9.611,3.728C448.133,314.783,443.17,312.922,443.17,312.922z"/>
<path fill="#D9E8F0" d="M450.305,315.403c0,0,8.688-2.171,17.372-5.584c8.688-3.412,13.339-5.273,16.131-1.86
	c2.791,3.412,2.481,18.302-9.307,23.266c-11.788,4.968-17.372,8.064-22.955,6.824c-5.584-1.24-8.687-4.033-8.687-4.033
	s0.932-0.93,5.584-1.235c4.648-0.313,6.819-5.273,6.204-9.312C454.027,319.435,450.305,315.403,450.305,315.403z"/>
<path fill="#FFFFFF" d="M342.973,283.143c1.066,6.651,5.832,21.279,0.926,27.229c2.502,0.591,5.156,0.914,7.711,1.048
	c0.334,6.309-0.943,16.271-3.33,21.994c5.854,2.073,10.027,2.171,16.092,2.759c4.146,0.402,7.729-0.865,5.891,5.188
	c2.59-2.104,6.955-2.504,10.273-2.188c-1.889-7.946-9.949-24.388-6.998-27.729c6.904-7.823,15.802-4.597,23.357-5.776
	c4.577-14.01-45.392-22.832-54.229-22.832"/>
<path fill="#B5D1E2" d="M467.47,333.499c-7.731,1.173-17.335-2.588-23.222,2.08c2.113,0.615,4.552,2.29,7.296,2.47
	c3.956,0.262,8.325-1.224,11.377-2.063"/>
<path fill="#D7DADE" d="M350.004,328.535c6.87,2.189,27.712,2.479,27.712,2.479s1.99,4.595,2.75,7.387
	c-3.567-0.116-7.159,0.251-10.546,0.822c-0.607-4.938-16.697-4.965-21.923-5.791c0.011-0.064-0.103-1.194-0.103-1.195
	c1.019-0.783,0.674-1.377,1.277-2.459"/>
<g>
	<g>
		<g>
			<path fill="#020202" d="M352.87,118.205c0.221,19.972-16.431,33.548-34.856,36.573c-10.808,1.775-22.028-1.053-31.402-6.817
				c-4.755-2.924-8.836-6.676-11.687-11.509c-1.267-2.146-3.157-4.097-3.767-6.514c-0.371-1.463,0.451-5.884-1.573-5.252
				c0.68,24.071,30.236,35.025,50.316,31.108c18.437-3.596,34.381-17.665,34.164-37.604c-0.385,0.005-0.771-0.092-1.138,0.015"/>
		</g>
	</g>
	<g>
		<g>
			<path fill="#020202" d="M271.004,127.519c-9.658,3.691-21.848,9.797-26.885,19.439c-6.363,12.184-7.093,25.448-8.144,38.914
				c-0.925,11.836-0.832,23.815-3.001,35.51c-1.041,5.604-3.955,10.043-5.962,15.334c-0.451,1.188,0.531,2.927,0.91,4.237
				c0.368,1.265-0.379,1.046,0.749,0.765c-1.637-2.571,2.844-7.757,3.693-9.976c2.223-5.792,2.772-12.236,3.568-18.354
				c1.751-13.492,1.129-27.238,2.866-40.729c1.803-13.988,6.1-28.833,18.808-37.001c10.211-6.565,23.565-8.313,31.487-18.197
				c-1.004-0.806-3.866,2.875-5.888,4.058C279.082,123.929,275.472,125.883,271.004,127.519"/>
		</g>
	</g>
	<g>
		<g>
			<path fill="#020202" d="M319.469,85.367c0.977,6.295,1.475,13.005,3.438,19.086c2.894,8.962,10.875,11.589,19.626,14.132
				c11.804,3.43,26.711,5.586,33.568,17.384c3.855,6.635,6.086,14.749,7.815,22.158c1.979,8.473,4.181,16.646,5.301,25.268
				c1.978,15.129,3.041,30.043,1.021,45.197c-0.959,7.186-2.59,14.328-4.104,21.424c-0.832,3.899-2.178,8.365-3.771,12.031
				c-0.696,1.6-2.309,2.827-3.383,4.208c-1.013,1.3,0.185,0.06,1.344,1.188c5.003-5.146,6.26-12.815,7.555-19.582
				c1.243-6.508,2.811-12.979,3.688-19.541c2.002-15.012,2.346-29.867,0.406-44.854c-2.033-15.732-5.834-34.727-13.435-48.917
				c-6.688-12.491-21.026-13.219-33.502-16.544c-8.419-2.243-16.688-4.622-19.745-13.311c-2.193-6.238-2.617-12.858-3.626-19.366
				c-0.608,0.11-0.229,0.324-0.843,0.433"/>
		</g>
	</g>
	<g>
		<g>
			<path fill="#020202" d="M264.476,212.162c1.989,10.818,5.159,21.725,4.801,32.775c-0.347,10.729-4.764,21.27-7.02,31.666
				c0.366,0.082,2.177,0.731,2.492,0.582c0.559-2.567,0.718-5.273,1.388-7.816c0.683-2.6,1.658-5.119,2.349-7.719
				c1.42-5.357,3.303-10.62,3.532-16.209c0.354-8.688-2.066-17.338-3.654-25.825c-0.309-1.651-0.285-3.365-0.59-5.021
				c-0.438-2.396-0.153-2.347-2.61-1.898"/>
		</g>
	</g>
	<g>
		<g>
			<path fill="#020202" d="M361.604,182.549c1.877,6.65,3.174,13.899,0.849,20.629c-1.446,4.17-4.313,7.249-8.245,9.229
				c-2.948,1.483-5.979,3.048-9.271,3.306c-1.849,0.146-6.426-1.521-6.209,1.116c10.438,2.039,22.781-3.532,25.765-14.274
				c1.872-6.756,0.896-13.976-0.962-20.568c-0.459,0.135-1.521,0.32-1.936,0.561"/>
		</g>
	</g>
	<g>
		<g>
			<path fill="#020202" d="M269.463,213.846c5.021,2.53,10.532,3.854,16.097,2.764c0.214-2.594-3.187-1.354-4.903-1.396
				c-3.703-0.093-7.186-1.121-10.484-2.776c-4.417-2.229-7.716-5.787-8.97-10.566c-1.03-3.936-0.909-8.107-0.274-12.094
				c0.279-1.736,0.836-3.424,1.282-5.131c0.362-1.379,0.675-2.623-1.326-2.682c-3.214,11.405-4.105,26.195,8.295,32.443"/>
		</g>
	</g>
	<g>
		<g>
			<path fill="#020202" d="M321.33,59.555c-3.06,0.443-5.79,4.142-4.946,7.166c1.578,0.031,0.767-0.967,1.029-2.06
				c0.432-1.798,2.1-3.878,4.055-4.158c3.406-0.495,4.149,4.53,4.392,6.928c0.313,3.089,0.086,6.375-0.813,9.358
				c-0.477,1.563-1.113,3.329-2.484,4.31c-1.176,0.839-3.375,0.161-3,2.036c10.425,0.884,10.212-25.242,1.714-24.011"/>
		</g>
	</g>
	<g>
		<g>
			<path fill="#020202" d="M327.59,71.514c9.434,6.835,9.303,18.219,8.817,28.76c-0.207,4.486,1.243,7.683,5.95,8.675
				c3.803,0.8,9.674,0.401,10.959-4.095c-1.813-1.142-1.5,1.04-2.838,1.896c-1.776,1.138-4.236,1.066-6.287,0.883
				c-5.146-0.456-6.643-3.25-6.334-8.048c0.688-10.838-0.199-21.86-9.741-28.776c-0.272,0.378-0.322,0.232-0.482,0.669"/>
		</g>
	</g>
	<g>
		<g>
			<path fill="#020202" d="M349.55,105.237c0.534,2.082,0.818,4.4,0.252,6.511c-0.456,1.694-3.372,3.212-2.278,4.536
				c4.44-1.898,4.242-7.429,3.231-11.36c-0.373,0.096-0.812,0.12-1.147,0.309"/>
		</g>
	</g>
	<g>
		<g>
			<path fill="#020202" d="M287.539,64.948c0.287,0.116,0.631,0.127,0.941,0.171c-0.08-1.108-0.331-2.253-0.854-3.246
				c1.341,0.523,2.683,0.841,4.131,0.78c0.568-2.333-2.426-1.601-4.032-2.304c-1.053-0.463-1.531-1.322-2.344-0.378
				c-0.887,1.027,0.574,2.022,1.063,3.175c-4.45-0.985-8.769-3.551-11.536-7.182c-1.355-1.776-2.154-3.936-2.526-6.151
				c-0.29-1.72,0.049-2.307-1.935-2.064c-0.103,8.964,8.755,16.121,17.083,17.267"/>
		</g>
	</g>
	<g>
		<g>
			<path fill="#020202" d="M287.151,55.605c5.363,4.28,12.385,6.491,19.22,5.588c0.253-1.796-1.256-1.102-2.484-1.059
				c-2.252,0.076-4.485-0.454-6.666-1.027c-2.212-0.581-4.389-1.326-6.352-2.499c-1.149-0.686-2.802-3.029-3.628-1.101"/>
		</g>
	</g>
	<g>
		<g>
			<path fill="#020202" d="M300.862,55.104c3.16,2.797,8.102,3.047,10.15,7.072c1.576,3.092,2.648,6.337,6.679,6.493
				c0.621-1.848-2.056-1.075-3.084-2.264c-1.134-1.309-1.632-3.331-2.415-4.871c-1.139-2.234-3.095-3.447-5.325-4.481
				c-1.174-0.543-2.303-1.174-3.42-1.833c-1.022-0.605-1.793-1.733-2.536-0.182"/>
		</g>
	</g>
	<g>
		<g>
			<path fill="#020202" d="M293.342,28.695c-5.757,0.104-10.876,2.312-15.793,5.102c-1.285,0.729-2.602,1.398-3.895,2.119
				c-1.181,0.659-0.393,1.298,0.213,2.432c4.241-2.366,8.4-5.284,13.065-6.726c7.18-2.22,15.883-1.249,22.581,1.945
				c5.802,2.766,9.887,8.029,12.064,13.991c1.051,2.877,1.459,6.038,1.665,9.095c0.097,1.414-0.236,2.826-0.369,4.24
				c-0.117,1.245,0.896,0.933,2.02,1.081c1.008-7.719-1.189-16.434-5.753-22.697c-5.773-7.925-16.351-10.844-25.796-10.672"/>
		</g>
	</g>
	<g>
		<g>
			<path fill="#020202" d="M262.832,69.285c2.004-0.351,0.227-2.693-0.031-4.05c-0.459-2.405-0.429-4.883,0.331-7.208
				c0.681-2.083,1.827-3.998,3.293-5.624c1.02-1.129,4.677-2.802,3.165-4.217c-7.156,4.306-10.678,13.496-6.917,21.208"/>
		</g>
	</g>
	<g>
		<g>
			<path fill="#020202" d="M256.64,52.521c-0.941,5.957,2.869,10.928,7.493,14.277c0.214-0.294,0.967-0.948,0.948-1.286
				c-1.796-1.3-3.397-2.886-4.632-4.735c-1.902-2.852-2.615-6.287-1.577-9.586c1.008-3.203,3.452-5.688,6.149-7.606
				c1.732-1.23,3.482-2.505,5.472-3.241c1.507-0.557,0.978-0.808,0.534-2.176c-6.502,2.113-13.219,7.154-14.355,14.358"/>
		</g>
	</g>
	<g>
		<g>
			<path fill="#020202" d="M261.719,57.733c0.902,6.312,2.151,12.655,4.372,18.672c1.418,3.846,2.467,7.192,3.037,11.298
				c0.56,4.038,1.353,7.846,4.403,10.711c5.678,5.329,9.255,14.843,16.913,17.731c7.067,2.669,14.634-2.086,19.296-6.91
				c-0.253-0.245-0.879-1.167-1.206-1.186c-1.369,1.418-2.954,2.578-4.562,3.728c-2.96,2.111-6.236,2.917-9.874,3.019
				c-8.252,0.233-12.943-10.922-17.719-16.142c-2.891-3.157-4.667-5.605-5.409-9.955c-0.676-3.962-1.793-7.292-3.496-10.991
				c-2.843-6.175-2.411-13.714-3.359-20.369c-0.615,0.091-1.559,0.655-2.172,0.748"/>
		</g>
	</g>
	<g>
		<g>
			<path fill="#020202" d="M292.208,101.08c-2.007,0.639-3.986,1.393-6.04,1.861c-1.212,0.276-2.909-0.073-2.185,1.626
				c3.551-0.474,6.903-1.848,10.332-2.84c1.248-0.362,5.044-0.303,3.923-2.213c-2.019,0.584-3.98,1.084-5.998,1.668"/>
		</g>
	</g>
	<g>
		<g>
			<path fill="#020202" d="M279.947,83.966c0.829,3.551,1.022,7.344-0.763,10.646c2.903,1.446,5.956,1.317,9.004,0.466
				c-0.002-1.265-0.461-1.323-1.504-1.088c-1.933,0.438-4.015,0.663-5.903-0.055c1.379-3.278,1.2-6.876,0.412-10.264
				c-0.375,0.087-0.964,0.121-1.3,0.303"/>
		</g>
	</g>
	<g>
		<g>
			<path fill="#020202" d="M287.489,77.935c0.644,2.014,3.209-0.468,4.559-0.967c1.489-0.548,6.182-0.532,5.449-2.507
				c-3.555,0.3-7.062,1.52-10.046,3.49"/>
		</g>
	</g>
	<g>
		<g>
			<path fill="#020202" d="M271.092,83.975c1.021,1.441,1.833-0.121,2.995-0.639c1.282-0.569,4.17-0.279,3.498-2.168
				c-2.292,0.133-5.114,0.881-6.591,2.768"/>
		</g>
	</g>
	<g>
		<g>
			<path fill="#020202" d="M283.087,70c0.644,1.614,1.481,0.511,2.456-0.17c1.303-0.912,2.657-1.783,4.188-2.252
				c1.502-0.461,3.084-0.544,4.645-0.485c1.282,0.049,3.52,1.145,3.185-0.869c-5.777-0.613-9.885,0.132-14.533,3.685"/>
		</g>
	</g>
	<g>
		<g>
			<path fill="#020202" d="M264.374,74.962c1.032,1.043,2.794-0.662,4.468-0.389c1.556,0.255,3.053,0.61,4.602,0.922
				c0.949-2.31-7.719-3.167-9.137-0.543"/>
		</g>
	</g>
	<g>
		<g>
			<path fill="#020202" d="M291.182,75.711c0.32,1.827,2.961,0.228,2.072,2.693c-2.406,0.261-1.661-2.472-3.591-2.052
				c-0.147,1.837,2.593,4.711,4.525,3.194c2.171-1.705-0.674-4.969-3.003-3.8"/>
		</g>
	</g>
	<g>
		<g>
			<path fill="#020202" d="M275.472,83.179c1.192,1.394-0.435,1.93-1.226,0.688c-0.479-0.751-0.461-1.241-1.566-0.693
				c0.803,4.591,6.621,2.66,3.706-0.767c-0.293,0.25-0.722,0.459-0.937,0.774"/>
		</g>
	</g>
	<g>
		<g>
			<path fill="#020202" d="M361.83,181.582c0.299,0.236,0.674,0.292,1.025,0.441c1.728-4.041,3.108-8.229,4.199-12.48
				c-1.967-1.119-2.113,2.991-2.533,4.336c-0.813,2.596-1.705,5.174-2.774,7.676"/>
		</g>
	</g>
	<g>
		<g>
			<path fill="#020202" d="M335.419,131.256c-6.03,0.365-13.794,0.205-18.704,4.286c0.795,1.83,2.986-0.196,4.278-0.715
				c2.349-0.942,4.87-1.328,7.37-1.624c5.646-0.668,11.57-0.3,17.13-1.586c0.088-1.777-1.293-0.925-2.494-0.75
				c-2.497,0.368-5.049,0.469-7.569,0.621"/>
		</g>
	</g>
	<g>
		<g>
			<path fill="#020202" d="M281.754,133.673c2.244,0.176,4.478,0.531,6.724,0.672c2.709,0.171,5.466,0.118,8.115,0.743
				c1.434,0.336,4.724,2.579,5.07,0.441c-4.559-2.081-9.466-2.47-14.379-2.854c-1.408-0.11-5.904-1.283-5.492,0.988"/>
		</g>
	</g>
	<g>
		<g>
			<path fill="#020202" d="M319.081,71.964c1.536,1.309,1.056,2.815,0.592,4.539c1.812,1.025,1.95-1.919,1.744-3.167
				c-0.229-1.389-1.214-1.879-2.004-2.865c-0.684-0.852,0.337-1.726-1.334-1.801c-0.471,1.367-0.004,2.358,1.038,3.25"/>
		</g>
	</g>
	<g>
		<g>
			<path fill="#020202" d="M320.124,67.621c1.563,0.493,3.067,1.897,3.067,3.625c-0.002,1.211-1.318,1.929,0.291,2.518
				c2.084-2.823,0.037-6.375-2.982-7.33c-0.115,0.366-0.354,0.788-0.367,1.168"/>
		</g>
	</g>
	<g>
		<g>
			<path fill="#020202" d="M323.197,62.425c-2.415,0.083-4.248,1.983-4.761,4.261c1.643,0.919,1.715-1.371,2.869-2.218
				c2.828-2.08,0.846,2.466,3.373,2.025c0.084-0.968-0.283-4.015-1.479-4.056"/>
		</g>
	</g>
</g>
<g id="HeadCap">
	<path fill="#F3BF98" d="M224.745,275.982c-5.987,1.262-8.575,1.604-12.4,3.961c-1.26,1.895-12.031,7.813-13.921,19.154
		c-1.89,11.342-4.726,29.608,13.231,37.488c17.957,7.875,29.93,4.096,31.188,3.465c1.262-0.631,2.594-1.459,2.908-5.236
		c0.316-3.781,1.189-13.664-4.797-26.896c-5.986-13.229-12.287-22.055-13.862-26.463
		C225.518,277.045,224.745,275.982,224.745,275.982z"/>
	<g>
		<g>
			<g>
				<path fill="#020202" d="M194.776,311.823c0.208,10.068,5.875,19.186,14.268,24.802c9.239,6.189,19.844,7.239,30.28,4.036
					c6.313-2.188,7.279-3.646,10.688-6.813c4.375-4.062,9.933-3.915,9.933-3.915l-0.118-1.768c-4.83,0.061-9.71,2.767-12.751,5.808
					s-6.231,4.262-9.467,5.278c-2.729,0.75-4.655,0.817-7.479,0.989c-5.264,0.328-10.361-0.636-15.222-2.717
					c-8.771-3.761-15.492-11.115-17.34-20.485c-1.707-8.652,0.22-18.812,4.676-26.438c1.491-2.554,2.952-4.886,5.185-6.83
					c0.909-0.793,2.18-1.938,3.223-2.549c1.11-0.646,0.171-0.728-0.374-1.816c-11.354,5.679-15.345,20.75-15.106,32.417"/>
			</g>
		</g>
		<path fill="#020202" d="M233.191,315.165c-2.334,0-6.177-1.441-6.554-5.066c-0.203-1.939,0.188-5.749,3.029-6.462
			c1.971,0.774-4.439,5.825,0.124,8.807c1.54,1.005,3.302,1.208,5.003,0.998c1.424-0.179,5.51-2.688,5.703-0.493
			c-2.197,1.02-4.824,2.166-7.182,2.166"/>
		<path fill="#020202" d="M233.898,311.688c-2.15-0.084-4.543-2.392-3.35-4.609c1.496-2.78,5.549-2.084,7.75-0.668
			c-0.777,1.211-0.843,0.537-2.018,0.172c-1.223-0.379-2.654-0.596-3.82,0.061c-0.975,0.543-1.47,1.71-0.854,2.729
			c0.864,1.434,2.245,0.477,2.18,2.178"/>
		<path fill="#020202" d="M238.781,310.304c-1.709,0.13-4.924-0.957-3.152-3.122c1.186,0.974,0.281,2.229,2.574,2.235
			c1.991,0.01,3.031-1.506,2.992-3.385c-0.027-1.271-0.088-1.02,0.955-1.126c0.089,0.871-0.096,1.822-0.318,2.677
			c-0.404,1.541-1.434,2.686-3.043,2.809"/>
	</g>
	<g>
		<g>
			<path fill="#020202" d="M243.965,304.236c1.934,1.98,1.296,4.339-0.763,5.884c-0.946,0.711-5.34,2.218-5.34,2.218
				s0.245,0.17,0.415,0.756c4.764-0.01,11.194-5.156,6.661-9.812c-0.281,0.272-0.787,0.622-0.983,0.961"/>
		</g>
	</g>
</g>
<path fill="#020202" d="M236.449,271.895c-0.681,1.381-1.87,2.424-3.214,3.115c-2.054,1.061-4.681,1.713-7.104,1.475
	c-0.099-0.084-0.218-0.151-0.365-0.196c-0.67-0.205-1.335-0.338-1.996-0.411l0.043-0.146c-0.019,0.045-0.04,0.099-0.059,0.146
	c-4.599-0.505-8.96,1.902-13.27,3.412c-1.209,0.423-0.689,2.354,0.531,1.928c4.086-1.431,8.408-3.943,12.828-3.301
	c4.894,1.521,12.067-0.396,14.395-5.118C237.897,272.628,236.803,271.827,236.449,271.895z"/>
<g>
	<g>
		<path fill="#020202" d="M237.087,272.189c2.278,1.149,4.761,6.766,7.563,2.035c-0.345-0.205-0.631-0.408-0.975-0.611
			c-1.035-0.614-0.693,0.603-1.828,0.527c-1.398-0.098-2.469-3.014-3.887-3.724c-0.279,0.562-0.519,1.142-0.8,1.688"/>
	</g>
</g>
<g>
	<g>
		<path fill="#020202" d="M243.917,275c1.026,1.23,2.43,2.512,3.456,3.742c2.406-4.11,3.162,1.943,4.577,0.953
			c5.395-3.771,7.422,4.354,8.047,7.673c1.481,7.845,4.181,14.544,13.421,14.002c-0.123-2.097-0.01-1.478-2.174-1.63
			c-2.103-0.145-4.029-1.121-5.564-2.614c-2.933-2.854-3.621-7.295-4.358-11.103c-1.013-5.229-2.959-10.104-9.235-8.438
			c-0.928-0.941-1.03-2.146-2.075-2.507c-0.933-0.087-1.956-0.054-2.739,0.458c-0.569-0.688-1.118-1.366-1.687-2.055
			c-0.478,0.396-1.024,0.91-1.5,1.313"/>
	</g>
</g>
<g>
	<g>
		<path fill="#020202" d="M231.19,278.486c0.146,1.432-0.756,5.277,1.384,4.771c0.06-1.634,0.01-3.271-0.153-4.894
			c-0.383,0.039-0.87-0.012-1.228,0.125"/>
	</g>
</g>
<g>
	<g>
		<path fill="#020202" d="M257.641,328.193c0.031,0.556,0,1.138,0.029,1.688c0.013,0.229,3.237,0.365,3.751,0.458
			c1.488,0.266,3.063,0.659,4.24,1.646c0.313-0.047,0.9-1.074,1.123-1.336c-2.462-2.068-6.019-2.644-9.134-2.476"/>
	</g>
</g>
<g>
	<g>
		<path fill="#020202" d="M271.615,337.745c9.87,3.207,20.333,5.041,30.69,5.716c0.091-1.392,0.616-1.838-0.959-1.959
			c-2.308-0.178-4.585-0.558-6.876-0.877c-5.223-0.725-10.509-1.271-15.612-2.59c-4.46-1.15-8.882-2.327-11.635-6.372
			c-1.146-1.687-1.939-3.564-2.2-5.589c-0.271-2.114-0.244-2.111-2.336-2.229c-0.306,5.519,3.467,12.252,8.892,14.017"/>
	</g>
</g>
<g>
	<g>
		<path fill="#020202" d="M277.312,314.311c-0.55,2.063,0.988,0.733,2.493,0.825c2.909,0.183,5.652,1.538,8.467,2.294
			c5.254,1.41,10.323,3.287,15.28,5.502c5.882,2.626,12.282,7.264,18.777,7.494c0.579-1.749-0.489-1.24-1.798-1.541
			c-2.599-0.593-5.017-1.952-7.383-3.146c-2.12-1.068-4.213-2.231-6.382-3.201c-9.364-4.188-19.038-8.282-29.524-8.167"/>
	</g>
</g>
<g>
	<g>
		<path fill="#020202" d="M316.675,329.132c-0.241,1.481,0.211,1.337,1.5,1.231c2.628-0.215,5.279,0.436,7.912,0.58
			c5.252,0.278,10.479,0.798,15.606,1.938c5.738,1.276,11.404,2.838,17.104,4.264c1.153-2.188-1.557-1.733-3.146-2.139
			c-2.805-0.701-5.637-1.277-8.44-1.972c-9.979-2.469-20.133-4.447-30.453-3.333"/>
	</g>
</g>
<g>
	<g>
		<path fill="#020202" d="M367.643,335.132c-4.496,0.188-9.428,0.306-13.619,2.147c0.336,2.512,4.574,0.301,6.399,0.064
			c2.728-0.35,5.447-0.549,8.19-0.665c0.201-0.902,0.117-1.771-0.967-1.426"/>
	</g>
</g>
<g>
	<g>
		<path fill="#020202" d="M368.823,336.585c3.348,1.34-3.75,3.235-4.431,3.516c-1.754,0.723-3.398,1.733-5.235,2.229
			c-1.188,0.321-1.616,0.438-0.957,1.741c3.511-0.692,6.565-2.691,10.016-3.543c2.478-0.61,4.609-3.972,1.162-5.354
			c-0.175,0.438-0.569,1.068-0.627,1.531"/>
	</g>
</g>
<g>
	<g>
		<path fill="#020202" d="M374.1,342.323c-1.459,0.797-2.957,1.808-4.679,1.688c-1.083-0.067-1.442-0.227-1.444,1.16
			c3.02,0.877,5.399-0.659,7.98-1.947c1.064-0.528,2.294-1.056,3.465-0.543c0.919,0.4,1.296,0.555,1.776-0.671
			c-2.317-1.797-4.698-0.729-6.988,0.521"/>
	</g>
</g>
<g>
	<g>
		<path fill="#020202" d="M376.448,344.661c-4.284,3.242-8.239,4.155-13.394,4.803c-2.47,0.313-4.979,0.53-7.472,0.087
			c-1.554-0.274-2.926-0.973-3.896-2.231c-0.33-0.02-1.113,0.866-1.396,1.087c4.041,5.293,13.27,2.896,18.96,1.898
			c3.534-0.613,6.021-2.851,8.862-4.854c0.926-0.654,1.826-1.336,2.756-1.991c0.635-0.446-0.119-0.862-0.467-1.423
			c-1.313,0.928-2.767,1.542-4.076,2.468"/>
	</g>
</g>
<g>
	<g>
		<path fill="#020202" d="M301.592,343.23c4.038,0.026,7.779,1.779,11.545,3.042c4.412,1.475,9.041,1.573,13.644,2.059
			c8.185,0.849,16.318,1.39,24.548,1.401c0-1.354,0.539-1.913-0.993-1.93c-2.189-0.016-4.387,0.348-6.574,0.257
			c-4.777-0.189-9.578-0.221-14.337-0.676c-4.893-0.467-9.843-1.5-14.558-2.965c-4.326-1.342-8.637-2.77-13.254-2.808
			c-0.005,0.62,0.073,0.721,0.068,1.341"/>
	</g>
</g>
<g>
	<g>
		<path fill="#020202" d="M368.709,341.398c1.537,0.506,1.121,2.592,2.837,1.98c-0.067-1.508-1.006-2.752-2.437-3.222
			c-0.119,0.36-0.36,0.81-0.379,1.188"/>
	</g>
</g>
<g>
	<g>
		<path fill="#020202" d="M373.491,339.538c-1.464,0.428-2.293,0.276-1.673,2.021c1.799-0.514,3.599-1.311,5.438-1.611
			c2.159-0.36,2.144,1.765,3.991,1.146c-0.135-4.128-5.479-2.401-7.789-1.645"/>
	</g>
</g>
<g>
	<g>
		<path fill="#020202" d="M297.007,285.383c-7.345,1.051-14.154,4.346-20.422,8.161c-1.874,1.138-3.735,2.297-5.61,3.437
			c-1.853,1.123-2.039,0.938-1.04,2.854c4.38-2.657,8.947-5.035,13.501-7.392c7.489-3.875,14.857-5.738,23.164-6.651
			c12.169-1.338,24.182,1.438,36.339,0.63c-0.153-2.354-0.363-2.543-2.633-2.505c-4.623,0.074-9.188-0.147-13.787-0.569
			c-10.069-0.926-19.521,0.592-29.519,2.021"/>
	</g>
</g>
<g>
	<g>
		<path fill="#020202" d="M343.331,283.146c0.438,3.729,1.203,7.443,1.479,11.193c0.244,3.313,0.021,6.674-0.477,9.956
			c-0.239,1.604-2.716,6.092-0.604,6.34c2.451-6.104,2.748-12.685,2.092-19.114c-0.221-2.129-0.568-4.25-0.82-6.377
			c-0.143-1.156,0.021-2.617-1.639-1.899"/>
	</g>
</g>
<g>
	<g>
		<path fill="#020202" d="M342.76,311.226c1.684,0.161,3.379,0.22,5.063,0.354c1.767,0.145,3.563,0.224,5.305,0.562
			c1.2,0.235,2.509,1.526,2.795-0.236c-2.802-1.354-6.204-1.357-9.228-1.649c-1.279-0.122-4.195-1.216-3.863,0.894"/>
	</g>
</g>
<g>
	<g>
		<path fill="#020202" d="M352.212,307.522c-0.543,3.908-1.471,7.771-2.017,11.688c-0.192,1.415-0.196,2.856-0.368,4.273
			c-0.185,1.55-0.373,3.107-0.988,4.563c-0.489,1.16-1.948,1.407-0.751,2.607c3.037-1.627,2.99-5.807,3.4-8.751
			c0.445-3.204,0.969-6.396,1.416-9.604c0.259-1.878,0.017-3.817,0.263-5.702c0.19-1.445,2.269-7.604-0.097-7.195
			c-0.354,2.688-0.691,5.396-1.047,8.087"/>
	</g>
</g>
<g>
	<g>
		<path fill="#020202" d="M355.23,285.289c0.406,4.9,1.426,9.984-0.102,14.77c4.314,0.357,8.688,1.026,12.991,0.242
			c1.671-0.305-0.397-11.972-0.849-13.568c-2.033-0.006-0.707,2.127-0.506,3.406c0.361,2.303,0.443,4.637,0.389,6.965
			c-0.035,1.477,0.527,2.076-1.161,2.231c-1.229,0.114-2.479,0.054-3.724,0.017c-1.881-0.045-3.787-0.223-5.664-0.375
			c0.845-3.49,0.537-7.041,0.244-10.563c-0.104-1.239,0.313-3.878-1.604-3.163"/>
	</g>
</g>
<g>
	<g>
		<path fill="#020202" d="M369.13,299.141c2.896,6.779,3.147,14.198,4.122,21.429c0.367,2.729,0.865,5.32,1.913,7.918
			c0.872,2.151,1.834,4.269,2.688,6.431c0.492,1.25,0.438,3.83,2.271,2.896c-0.82-4.102-3.204-7.504-4.492-11.441
			c-0.689-2.132-0.688-4.455-0.982-6.666c-0.959-7.128-1.824-14.219-4.688-20.902c-0.354,0.153-0.653,0.148-0.96,0.387"/>
	</g>
</g>
<g>
	<g>
		<path fill="#020202" d="M342.682,282.053c0.004,0.557,0.064,1.361,0.069,1.92c0.002,0.33,3.38,0.373,3.896,0.396
			c3.447,0.154,6.938,0.091,10.348,0.639c6.438,1.032,12.646,3.244,18.826,5.309c5.195,1.733,8.941,4.754,13.736,7.138
			c2.219,1.103,4.439,2.104,5.678,4.399c0.563,1.037,1.233,2.086,1.396,3.25c0.248,0.182,1.484-0.104,1.816-0.146
			c-0.668-4.965-4.239-6.745-8.41-8.862c-4.474-2.27-7.701-5.802-12.554-7.46c-11.148-3.813-22.961-6.85-34.793-6.767"/>
	</g>
</g>
<g>
	<g>
		<path fill="#020202" d="M371.534,310.38c0.796,2.021,2.844-0.767,4.022-1.479c1.935-1.168,3.985-2.149,6.209-2.614
			c1.939-0.406,3.941-0.37,5.922-0.271c1.465,0.076,5.683,1.37,5.388-0.845c-8.315-1.146-14.888-0.063-21.688,5.085"/>
	</g>
</g>
<g>
	<g>
		<path fill="#020202" d="M396.183,305.508c-3.014,0.471-5.969,1.323-8.995,1.689c-0.502,0.06-3.414,0.21-3.385,0.555
			c0.049,0.553-0.283,0.899-0.234,1.452c8.639-0.73,17.091-2.79,25.719-3.569c4.199-0.379,8.521-0.514,12.722-0.033
			c2.066,0.236,4.189,0.604,6.193,1.158c1.672,0.469,1.192,0.438,1.662-1.027c-10.909-3.477-22.563-1.479-33.604,0.24"/>
	</g>
</g>
<g>
	<g>
		<path fill="#020202" d="M427.071,307.106c4.963,0.755,9.31,4.116,13.609,6.557c2.282,1.293,4.867,1.938,7.396,2.586
			c2.085,0.553,2.229,0.59,2.813-1.478c-3.616-0.965-7.185-1.817-10.454-3.678c-4.137-2.343-8.275-5.056-13.071-5.779
			c-0.092,0.608-0.231,1.179-0.323,1.785"/>
	</g>
</g>
<g>
	<g>
		<path fill="#020202" d="M420.935,329.209c4.873,3.746,10.835,4.45,16.786,4.406c3.16-0.021,6.326-0.109,9.488-0.005
			c0.498,0.017,3.45,0.427,3.488,0.12c0.064-0.556,0.284-0.939,0.352-1.49c-5.979-0.755-11.961-0.294-17.959-0.748
			c-2.866-0.219-5.662-0.68-8.254-1.959c-2.26-1.116-2.646-2.074-4.242,0.002"/>
	</g>
</g>
<g>
	<g>
		<path fill="#020202" d="M421.879,327.794c-6.506,2.638-13.153,4.493-19.969,6.098c-2.771,0.654-5.413,1.804-8.141,2.603
			c-2.695,0.787-5.498,1.224-8.295,1.493c-0.52,0.051-3.679,0.087-3.688,0.356c-0.021,0.561-0.14,0.729-0.156,1.283
			c8.544,0.329,16.697-2.681,24.898-4.615c4.526-1.063,9.001-2.563,13.323-4.311c1.686-0.68,3.565-0.854,5.255-1.529
			c1.425-0.576,2.813-1.354,4.354-1.479c0.189-0.287-0.089-1.743-0.119-2.109c-2.563,0.209-5.148,1.19-7.477,2.218"/>
	</g>
</g>
<g>
	<g>
		<path fill="#020202" d="M399.967,297.913c-1.131,0.004-2.264-0.302-3.396-0.297c-0.888,0.005-0.559,1.444-0.577,2.209
			c3.212-0.017,6.506-0.362,9.705-0.086c2.771,0.241,5.512,0.889,7.998,2.161c0.479,0.248,3.326,2.259,3.478,2.045
			c0.325-0.452,0.636-1.16,0.96-1.612c-5.513-3.954-11.559-4.653-18.172-4.509"/>
	</g>
</g>
<g>
	<g>
		<path fill="#020202" d="M451.409,316.917c2.021,3.87,3.225,7.187,1.575,11.394c-0.646,1.646-1.554,3.76-3.12,4.771
			c-1.361,0.875-2.956-0.847-3.328,1.071c4.474,2.305,6.823-2.982,7.951-6.328c1.402-4.188,0.12-7.782-1.854-11.551
			c-0.341,0.179-0.752,0.291-1.026,0.549"/>
	</g>
</g>
<g>
	<g>
		<path fill="#020202" d="M442.058,335.126c5.189,3.216,8.46,4.574,14.413,2.313c-0.126-0.344-0.419-1.659-0.71-1.828
			c-1.622,0.613-3.369,1.377-5.131,1.396c-2.781,0.042-5.319-2.115-7.563-3.504c-0.327,0.528-0.748,0.956-1.073,1.484"/>
	</g>
</g>
<g>
	<g>
		<path fill="#020202" d="M479.914,304.852c7.665,5.867,4.87,21.104-3.375,25.026c-3.267,1.557-7.149,2.079-10.614,3.132
			c-2.745,0.834-5.435,1.771-8.229,2.402c-1.643,0.373-3.188,1.179-4.866,1.261c-0.198,0.281,0.021,1.486,0.039,1.854
			c5.37-0.264,10.414-2.688,15.509-4.231c3.813-1.157,8.201-1.567,11.46-3.977c7.563-5.588,9.207-21.12,1.34-27.146
			c-0.377,0.494-0.994,1.316-1.37,1.812"/>
	</g>
</g>
<g>
	<g>
		<path fill="#020202" d="M481.233,305.467c-6.074,0.644-11.287,2.584-16.892,4.862c-5.045,2.052-11.008,1.861-15.588,4.931
			c0.216,0.319,0.616,1.383,0.958,1.506c1.947-1.309,4.098-2.38,6.369-2.794c3.197-0.585,6.326-0.668,9.327-1.887
			c2.681-1.091,5.133-2.804,7.875-3.74c4.426-1.511,9.17-0.922,13.65-2.05c-0.086-0.341-0.186-1.482-0.444-1.67
			c-1.714,0.436-3.575,0.002-5.329,0.186"/>
	</g>
</g>
<g>
	<g>
		<path fill="#020202" d="M442.916,310.95c1.524,1.403,1.297,1.374,2.855-0.188c2.045-2.05,4.188-4.021,6.631-5.591
			c1.555-0.997,3.41-2.043,5.322-1.97c0.509,0.018,2.396,0.895,2.405,0.882c0.438-0.344,1.052-0.752,1.49-1.097
			c-5.044-6.396-15.292,4.354-18.688,8.045"/>
	</g>
</g>
<g>
	<g>
		<path fill="#020202" d="M457.744,302.454c1.506,1.733,2.801,3.903,3.098,6.221c0.303,2.354-0.906,2.327,1.376,3.373
			c1.712-3.729-0.597-8.052-3.024-10.85c-0.475,0.405-0.913,0.811-1.386,1.218"/>
	</g>
</g>
<g>
	<g>
		<path fill="#020202" d="M125.903,317.544c-0.744,2.117,3.323,1.571,4.502,1.571c4.208,0,8.417-0.687,12.625-0.687
			c11.059,0,22.119,0.448,33.177,0.448c3.947,0,7.894,0.149,11.84,0.149c0.921,0,1.843,0.286,2.764,0.286
			c0.79,0,0.535-1.178,0.378-1.178c-6.869,0-13.735-0.674-20.603-0.674c-14.814,0-29.629,0.447-44.445,0.447"/>
	</g>
</g>
<g>
	<g>
		<path fill="#020202" d="M488.711,317.64c-0.744,2.117,3.047,0.834,4.227,0.834c4.205,0,8.416,0.64,12.622,0.64
			c11.063,0,22.12-0.125,33.184-0.125c3.941,0,7.893,0.14,11.841,0.14c0.92,0,1.842-0.006,2.763-0.006
			c0.791,0,0.534-1.052,0.378-1.052c-6.863,0-13.73-0.449-20.601-0.449c-14.815,0-29.628-0.149-44.446-0.149"/>
	</g>
</g>
<g>
	<g>
		<path fill="#020202" d="M116.147,340.656c-7.238,9.583-14.595,19.303-20.838,29.58c1.532,1.6,2.587-1.588,3.309-2.726
			c1.666-2.606,3.532-5.104,5.302-7.646c3.563-5.121,7.794-9.759,11.548-14.739c7.246-9.62,13.977-19.542,20.431-29.726
			c-1.502-1.635-2.067,1.696-2.807,2.814c-1.72,2.597-3.246,5.332-5.053,7.867c-3.636,5.097-7.849,9.773-11.624,14.771"/>
	</g>
</g>
<g>
	<g>
		<path fill="#020202" d="M543.148,315.683c6.455,10.188,13.862,19.734,21.108,29.355c3.485,4.626,7.291,9.021,10.62,13.763
			c1.783,2.539,3.746,4.979,5.43,7.58c0.783,1.211,2.017,5.688,3.614,4.007c-6.021-9.909-12.899-19.313-19.883-28.563
			c-3.76-4.98-7.328-10.09-10.972-15.156c-1.822-2.533-3.59-5.083-5.326-7.671c-0.803-1.195-2.436-5.299-4.003-3.592"/>
	</g>
</g>
<g>
	<g>
		<path fill="#020202" d="M259.005,178.032c2.189,1.332,0.549,5.062,3.065,4.864c0.463-2.318-0.169-4.833-2.296-6.125
			c-0.242,0.397-0.711,0.896-0.834,1.346"/>
	</g>
</g>
<g>
	<g>
		<path fill="#020202" d="M216.089,260.813c-0.966,3.483-2.134,6.979-4.337,9.91c-1.166,1.555-2.386,3.17-4.08,4.123
			c-1.348,0.76-0.92,0.581-0.313,1.86c6.345-3.022,8.647-9.08,10.408-15.429c0.842-3.036,1.913-6.086,3.798-8.668
			c0.915-1.258,1.797-2.637,3.167-3.375c1.296-0.7,0.779-0.979,0.239-2.236c-5.625,2.402-7.294,8.398-8.802,13.838"/>
	</g>
</g>
<g>
	<g>
		<path fill="#020202" d="M261.29,227.209c-0.736,4.434-0.404,9.059-1.271,13.471c-0.497,2.526-1.758,4.896-2.352,7.4
			c-0.474,2.002-1.582,3.023-1.55,5.26c0.044,3.156-2.125,5.936-3.692,8.488c-2.104,3.427-4.317,6.863-5.98,10.525
			c0.336,0.149,1.275,0.717,1.613,0.635c0.847-1.863,2.389-3.326,3.352-5.133c1.4-2.631,2.338-5.525,3.907-8.058
			c0.84-1.354,2.028-2.517,2.485-4.054c0.411-1.379,0.174-2.951,0.688-4.221c1.733-4.237,2.592-8.479,3.443-13.032
			c0.983-5.265,1.397-10.622,2.325-15.896c0.361-2.052,1.015-4.049,1.375-6.096c0.31-1.761,0.344-1.435-1.473-1.789
			c-0.74,4.215-1.877,8.323-2.617,12.532"/>
	</g>
</g>
<g>
	<g>
		<path fill="#020202" d="M223.248,251.152c2.508-0.363,1.457-0.797,1.794-3.12c0.19-1.31,0.823-2.517,2.054-3.136
			c0.037-0.402-0.709-1.396-0.899-1.771c-2.964,1.484-3.478,5.098-3.047,8.057"/>
	</g>
</g>
<g>
	<g>
		<path fill="#020202" d="M200.067,302.113"/>
		<path fill="#020202" d="M200.087,302.009"/>
	</g>
</g>
<g>
	<g>
		<path fill="#020202" d="M196.171,317.717"/>
		<path fill="#020202" d="M196.128,317.684c0.692,1.89,2.655,2.844,3.36,4.64c0.696,1.771-2.145,2.776,0.225,3.838"/>
	</g>
</g>
<g>
	<g>
		<path fill="#020202" d="M354.98,214.925c0.865,1.673,0.49,3.33,0.136,5.038c-0.341,1.643-0.318,2.876,0.083,4.459
			c0.455,1.801-0.398,6.143,2.128,5.742c0.261-2.154,0.133-4.905-0.656-6.939c-1.173-3.017,1.483-6.022-0.124-9.127
			c-0.417,0.213-1.152,0.473-1.498,0.787"/>
	</g>
</g>
<g>
	<g>
		<path fill="#020202" d="M351.661,237.1c1.239,0.217,1.546-0.139,1.586-1.146c0.069-1.699,0.942-3.168,2.296-4.157
			c1.158-0.852,2.532-1.43,3.907-1.813c1.271-0.352,2.229-0.301,1.432-1.887c-4.585,0.871-9.683,3.521-9.065,8.967"/>
	</g>
</g>
<g>
	<g>
		<path fill="#020202" d="M231.472,243.635c2.273,0.083,4.559,0.381,6.769,0.924c1.311,0.323,3.657,2.198,3.988,0.189
			c-3.307-1.585-7.083-2.087-10.711-2.221c-0.012,0.389-0.143,0.854-0.058,1.229"/>
	</g>
</g>
<g>
	<g>
		<path fill="#020202" d="M232.344,245.104c5.93,0.955,10.828,6.239,15.525,9.733c1.762-1.421-2.156-3.219-3.251-4.034
			c-3.684-2.744-7.403-5.998-12.099-6.76c-0.062,0.381-0.228,0.775-0.187,1.155"/>
	</g>
</g>
<g>
	<path fill="#020202" d="M363.93,258.873l0.896,1.652c3.29,6.035,8.26,15.147,7.564,25.891l1.854,0.12
		c0.729-11.277-4.396-20.679-7.788-26.9l-0.89-1.638L363.93,258.873z"/>
</g>
<g>
	<g>
		<path fill="#78343C" d="M359.725,239.713c-4.074-0.229-6.516-0.621-9.928,1.551s-4.963,1.24-7.755,1.24s-4.343,2.172-10.856,3.104
			c-6.515,0.935-10.854,0.935-14.581,1.556c-3.723,0.616-8.065,3.722-10.547,4.028c-2.481,0.313-8.686,0.619-13.339,1.555
			c-4.653,0.931-13.649,2.792-13.649,2.792l8.996,24.813l13.959-3.103c0,0,6.515,3.412,15.201,3.103
			c8.685-0.311,20.474,0.313,34.124-3.103c13.65-3.414,26.367-10.548,29.159-12.099C383.3,263.6,387.332,241.264,359.725,239.713z"
			/>
		<path fill="#ECAF8B" d="M279.69,256.566c-7.445,0.209-10.34,2.065-16.131,3.104s-7.858,4.344-9.307,6.823
			c-1.447,2.481-1.035,6.414-1.035,6.414s-1.448,2.479,0.621,4.962c2.068,2.482,3.723,0.413,3.723,0.413s-1.763,2.983,0,4.551
			c2.378,2.114,5.79-0.62,5.79-0.62s-0.206,3.514,2.689,4.549c2.894,1.035,5.583-0.621,5.583-0.621s2.482,1.862,5.998,1.035
			c3.516-0.828,9.1-6.203,9.927-7.031c0.827-0.828,0.827-0.828,0.827-0.828s3.102-4.137-0.827-13.024
			C283.619,257.396,279.69,256.566,279.69,256.566z"/>
	</g>
	<g>
		<g>
			<g>
				<path fill="#020202" d="M360.292,241.313c5.25,5.168,5.31,13.66,11.188,18.356c1.431-1.022,0.047-1.532-0.742-2.448
					c-1.43-1.646-2.373-3.635-3.23-5.623c-1.693-3.937-3.214-8.063-6.346-11.146c-0.27,0.272-0.572,0.409-0.758,0.743"/>
			</g>
		</g>
		<g>
			<g>
				<path fill="#020202" d="M364.468,241.768c1.396,2.129,2.821,4.254,4.327,6.121c1.121,1.396,2.372,2.887,4.025,3.641
					c0.505,0.23,3.359,0.968,3.34-0.002c-0.063-2.883-2.874-4.185-5.258-4.979c-1.904-0.644-2.318-0.944-3.479-2.733
					c-0.61-0.94-1.295-1.818-1.915-2.764c-0.311,0.227-0.688,0.436-0.92,0.729 M370.146,247.6c1.981,0.627,4.179,1.613,4.707,3.104
					C373.168,250.625,371.588,249.302,370.146,247.6z"/>
			</g>
		</g>
		<g>
			<g>
				<g>
					<path fill="#020202" d="M267.742,257.479c-1.396,0.521-2.862,0.838-4.25,1.377c-1.697,0.66-3.415,1.189-5.254,1.229
						c-1.14,0.022-1.448,0.101-1.194,1.47c3.334,0.32,6.216-0.984,9.262-2.109c3.242-1.198,6.518-1.93,9.987-2.026
						c1.212-0.034,6.491,0.313,3.72-1.414c-4.161-0.003-8.237,0.308-12.245,1.563"/>
				</g>
			</g>
			<g>
				<g>
					<path fill="#020202" d="M252.324,273.066c0.089,1.531,0.446,0.74,1.384,0.678c0,0-0.494-2.539,0.22-4.479
						c0.61-1.658,1.948-3.445,2.958-4.877c0.957-1.354,3.894-3.709,1.398-4.715c-3.179,4.182-6.493,7.938-6.097,13.396"/>
				</g>
			</g>
			<g>
				<g>
					<path fill="#020202" d="M284.328,282.039c-1.618,1.533-3.336,2.977-5.458,3.763c-1.403,0.521-2.927,0.81-4.413,0.929
						c-1.461,0.117-2.935-0.377-2.38,1.604c4.091,0,8.089-0.918,11.298-3.575c1.371-1.137,2.587-2.439,3.961-3.57
						c1.189-0.979,3.407-1.36,1.76-2.979c-1.828,1.039-3.464,2.168-4.979,3.607"/>
				</g>
			</g>
			<g>
				<g>
					<path fill="#020202" d="M274.685,283.178c-1.935,1.26-5.065,3.901-7.578,2.992c-1.985-0.72-1.312-3.725-3.562-2.261
						c1.262,4.096,3.874,4.866,7.862,2.983c2.101-0.996,4.056-2.232,6.035-3.438c1.277-0.778,3.065-0.917,1.857-2.681
						c-1.662,0.548-3.165,1.451-4.619,2.396"/>
				</g>
			</g>
			<g>
				<g>
					<path fill="#020202" d="M267.706,278.195c-2.471,1.453-5.273,4.9-8.253,4.979c-1.557,0.04-2.109-2.521-1.378-3.537
						c0.926-1.287,3.233-1.992,1.428-3.521c-1.924,1.298-5.221,4.286-3.289,6.743c1.741,2.222,5.167,1.49,7.21,0.5
						c2.212-1.071,4.291-3.223,6.443-4.408c1.319-0.729,3.185-1.189,1.783-2.881c-1.282,0.707-2.562,1.588-3.843,2.291"/>
				</g>
			</g>
			<g>
				<g>
					<path fill="#020202" d="M255.626,269.77c-1.591,1.844-4.568,4.791-3.84,7.465c0.889,3.265,4.351,2.789,6.669,1.051
						c2.171-1.637,4.014-3.688,6.177-5.329c1.424-1.087,5.853-2.353,4.034-4.313c-2.977,1.522-5.592,3.49-8.105,5.678
						c-1.224,1.066-5.021,5.578-6.566,2.922c-1.62-2.789,1.515-4.775,2.896-6.379c2.075-2.4,5.475-7.662,5.475-7.662
						c-1.042-0.309-1.797,0.422-2.602,1.669c-1.231,1.901-2.566,3.271-4.045,4.983"/>
				</g>
			</g>
			<g>
				<g>
					<path fill="#020202" d="M266.573,274.38c2.316,0.388,0.703,2.617,2.515,2.188c0.084-1.469-0.871-2.922-2.101-2.987
						c0.384,0.021-0.361,0.431-0.409,0.81"/>
				</g>
			</g>
			<g>
				<g>
					<path fill="#020202" d="M260.5,268.877c2.158,0.504,1.576,2.377,2.708,1.943c1.373-0.526-1.142-2.825-2.37-2.774
						c0.383-0.017-0.321,0.463-0.333,0.845"/>
				</g>
			</g>
			<g>
				<g>
					<path fill="#020202" d="M260.312,279.208c2.111,0.099,2.343,1.429,0.374,2.249c-0.433-0.982-0.68-2.689-1.647-2.238
						c-1.35,0.631,1.198,1.322,1.079,3.063c3.389-0.87,3.602-3.873,0.269-3.782c0.386-0.009-0.156,0.348-0.07,0.718"/>
				</g>
			</g>
			<g>
				<g>
					<path fill="#020202" d="M254.022,274.846c-0.943,1.047,2.095,2.836,3.527,1.904
						C260.381,274.904,255.535,271.432,254.022,274.846 M256.533,274.259c1.229,0.334,1.192,1.546,0.356,1.933
						c-1.11,0.516-3.54-1.735-0.359-1.922"/>
				</g>
			</g>
			<g>
				<g>
					<path fill="#020202" d="M277.596,256.566c5.627,0.854,6.948,4.373,8.945,9.125c1.065,2.533,2.304,4.969,2.61,7.73
						c0.196,1.771-0.039,3.51-0.566,5.217c-0.417,1.354-1.288,2.256,0.655,2.615c3-6,0.708-11.497-1.679-17.188
						c-2.089-4.973-3.989-8.272-9.724-9.146c-0.071,0.466-0.248,0.962-0.191,1.421"/>
				</g>
			</g>
			<g>
				<g>
					<path fill="#020202" d="M351.436,239.098c-1.063,0.373-2.144,0.637-2.98,1.402c-1.573,1.432-3.537,1.555-5.527,1.613
						c-3.318,0.098-6.341,1.707-9.509,2.558c-5.911,1.588-12.226,0.797-18.206,1.711c-3.965,0.604-5.423,3.39-8.92,4.595
						c-2.344,0.813-4.931,0.539-7.328,0.504c-2.576-0.039-5.21,0.537-7.75,0.933c-3.514,0.541-7.14,0.422-10.644,1.021
						c-1.586,0.271-4.733,1.071-3.65,3.396c6.93-1.191,13.952-3.188,20.946-3.967c5.067-0.565,7.982,0.84,12.249-2.997
						c3.38-3.037,8.07-2.359,12.375-2.632c6.198-0.395,11.659-1.793,17.538-3.881c2.049-0.729,4.433,0.629,6.537,0.313
						c1.94-0.291,2.683-1.852,4.341-2.484c1.017-0.57,2.258-1.41,3.392-1.595c1.485-0.239,2.627,1.269,2.594-0.948
						c-2.152-0.584-3.385-0.256-5.395,0.574"/>
				</g>
			</g>
			<g>
				<g>
					<path fill="#020202" d="M370.493,268.307c-6.181,2.896-12.386,6.717-19.062,8.313c-7.65,1.821-15.627,1.968-23.459,2.325
						c-3.738,0.172-7.472,0.537-11.208,0.701c-2.784,0.121-5.527-0.655-8.291-1.107c-2.771-0.457-4.392-1.826-6.91-2.754
						c-1.512,2.051,3.704,4.298,5.487,4.727c3.642,0.881,7.544,0.493,11.252,0.305c6.57-0.295,13.226,0.449,19.782-0.139
						c9.783-0.873,18.471-3.592,27.384-7.656c4.697-2.144,9.165-4.778,13.892-6.862c1.947-0.858,3.146-1.013,5.154-1.716
						c1.254-0.438,2.928-0.549,1.981-2.045c-5.521,1.608-10.955,3.188-16.144,5.619"/>
				</g>
			</g>
			<g>
				<g>
					<path fill="#020202" d="M300.643,276.434c-4.025,0.621-8.597,1.197-12.029,3.582c0.549,1.609,1.48,0.588,2.548,0.094
						c1.658-0.766,3.431-1.313,5.213-1.683c2.476-0.507,5.112-0.618,7.604-1.024c0.237-2.008-2.12-1.176-3.338-0.979"/>
				</g>
			</g>
			<g>
				<g>
					<path fill="#020202" d="M289.488,254.848c-1.343,0.246-2.707,0.541-4.05,0.786c-0.102,1.814,1.441,0.964,2.603,0.749
						c2.202-0.4,4.498-0.551,6.64-1.213c-0.068-2.162-3.747-0.516-5.188-0.301"/>
				</g>
			</g>
			<g>
				<g>
					<path fill="#020202" d="M291.089,257.361c-1.41,0.421-5.615,0.342-4.693,2.347c2.508-0.424,4.862-1.147,7.311-1.81
						c1.421-0.383,5.24-0.022,4.562-2.041c-2.477,0.136-4.801,0.854-7.163,1.562"/>
				</g>
			</g>
			<g>
				<g>
					<path fill="#020202" d="M294.861,259.708c-2.039,0.444-4.036,0.829-6.076,1.272c-0.115,2.299,4.011,0.261,5.283-0.02
						c2.351-0.513,4.655-1.013,7.006-1.521c0.109-2.33-4.833-0.246-6.257,0.063"/>
				</g>
			</g>
			<g>
				<g>
					<path fill="#020202" d="M288.577,263.57c-0.035,0.381,0.182,0.896,0.25,1.277c4.906-0.896,9.745-1.932,14.455-3.597
						c-0.169-2.259-3.837-0.067-5.236,0.306c-3.12,0.825-6.233,1.709-9.408,2.289"/>
				</g>
			</g>
			<g>
				<g>
					<path fill="#020202" d="M295.854,264.791c-2.051,0.232-4.02,0.51-5.985,1.186c0.127,2.119,3.477,0.236,4.934,0.063
						c2.68-0.327,5.412-0.438,7.94-1.474c-0.139-1.232-0.486-1.08-1.475-0.771c-1.757,0.552-3.59,0.788-5.413,0.993"/>
				</g>
			</g>
			<g>
				<g>
					<path fill="#020202" d="M298.612,266.773c-2.286,0.354-4.664,0.607-6.772,1.619c0.208,1.219,0.584,1.063,1.544,0.711
						c1.738-0.646,3.587-0.901,5.407-1.19c1.405-0.255,2.865-0.513,4.268-0.785c0.081-2.168-3.153-0.612-4.447-0.36"/>
				</g>
			</g>
			<g>
				<g>
					<path fill="#020202" d="M292.082,270.361c-0.072,0.373,0.074,0.89,0.105,1.271c3.887-0.315,7.926-0.797,11.626-2.069
						c-0.107-2.133-3.872-0.228-5.303,0.021c-2.126,0.37-4.269,0.705-6.418,0.88"/>
				</g>
			</g>
			<g>
				<g>
					<path fill="#020202" d="M299.672,271.667c-2.643,0.319-5.274,0.633-7.822,1.442c0.041,1.217,0.344,1.08,1.335,0.82
						c1.803-0.473,3.652-0.757,5.498-0.981c1.521-0.189,3.014-0.39,4.533-0.593c0.298-2.066-2.301-0.897-3.549-0.73"/>
				</g>
			</g>
			<g>
				<g>
					<path fill="#020202" d="M291.881,276.115c0.189,2.187,3.557,0.16,4.945-0.159c1.551-0.356,6.906-0.151,6.144-2.245
						c-3.749,0.318-7.549,1.038-11.082,2.355"/>
				</g>
			</g>
			<g>
				<g>
					<path fill="#020202" d="M263.733,262.412c0.756,0.912,2.021-0.621,3.359-1.064c1.368-0.451,3.735-0.076,3.535-1.328
						c0,0-5.378-0.02-6.959,2.385"/>
				</g>
			</g>
			<g>
				<g>
					<path fill="#020202" d="M276.69,278.159c0.104,0.224,0.477,0.431,0.67,0.604c1.3-0.906,2.672-1.888,3.6-3.021
						c-1.086-0.794-3.09,1.615-4.247,2.424"/>
				</g>
			</g>
			<g>
				<g>
					<path fill="#020202" d="M275.916,274.54c-0.349,0.663-0.558,1.36-0.639,2.104c1.71,0.619,2.382-2.479,2.438-3.806
						c-1.485-0.505-1.321,0.654-1.793,1.697"/>
				</g>
			</g>
		</g>
	</g>
</g>
<g>
	<path fill="#F3BF99" d="M234.647,275.29c0,0-0.151-3.365-3.91-6.756c-3.759-3.39-5.713-2.166-5.713-2.166l-4.071,3.569
		c0,0-5.734-2.617-10.225-2.834c-4.492-0.215-5.149,0.041-5.505,1.854c-0.354,1.809-0.499,3.387-2.472,4.156
		c-1.974,0.771-3.224,2.633-3.577,4.438c-0.354,1.811-0.854,5.198-2.101,7.055c-1.25,1.856-3.343,4.651-2.851,5.521
		c0.494,0.869,0.494,0.869,0.494,0.869s-1.3,5.221-1.162,7.9c0.139,2.682,2.3,5.479,2.3,5.479s3.293-1.291,3.624-3.547
		c0.331-2.259,0.171-5.386,0.171-5.386l5.499,2.404c0,0,2.542-2.816,0.872-4.744c-1.668-1.93-5.426-5.317-5.426-5.317l1.604-3.668
		c0,0,1.969,3.483,5.257,6.448c3.289,2.968,4.933,4.449,4.933,4.449s2.188-1.009,2.308-3.031c0.118-2.021-2.368-6.819-2.368-6.819
		l5.427,5.315c0,0,2.944-3.735,1.679-6.582c-1.267-2.848-1.336-4.188-1.336-4.188s-2.703-2.927,1.318-3.13
		c4.022-0.209,14.069-0.593,14.069-0.593L234.647,275.29z"/>
	<g>
		<g>
			<path fill="#010101" d="M213.177,272.12c1.591,3.116,3.388,6.164,4.68,9.416c0.823,2.063,1.438,4.539,1.009,6.801
				c-0.349,1.858-2.756,2.289-1.313,4.103c5.447-2.217,2.449-9.521,0.73-13.295c-0.889-1.961-1.882-3.863-2.859-5.783
				c-0.729-1.422-0.662-2.238-2.254-1.133"/>
		</g>
	</g>
	<g>
		<g>
			<path fill="#010101" d="M204.43,273.443c1.813,5.267,5.213,9.589,8.897,13.685c1.073,1.188,2.062,2.459,3.135,3.654
				c1.045,1.161,1.386,1.471,2.562,0.106c-2.21-2.451-4.751-4.707-6.866-7.24c-1.661-1.983-3.001-4.229-4.234-6.51
				c-0.815-1.514-1.15-5.234-3.333-3.725"/>
		</g>
	</g>
	<g>
		<g>
			<path fill="#010101" d="M199.257,280.402c3.427,5.83,7.464,11.017,12.485,15.546c1.831-1.166,0.514-2.14-0.599-3.195
				c-1.628-1.545-3.323-3.021-4.762-4.745c-1.405-1.669-2.657-3.457-3.844-5.287c-0.875-1.353-1.5-4.14-3.254-2.318"/>
		</g>
	</g>
	<g>
		<g>
			<path fill="#010101" d="M203.348,296.2c-4.155-1.699-5.977-4.813-9.368-7.425c-1.217,0.91-0.917,1.205-0.013,2.078
				c1.654,1.599,2.99,3.517,4.856,4.896c1.506,1.101,3.334,1.604,5.033,2.33c1.347,0.58,2.229,1.703,2.796-0.246
				c-1.048-0.658-2.161-1.168-3.306-1.633"/>
		</g>
	</g>
	<g>
		<g>
			<path fill="#010101" d="M199.536,286.796c1.613,2.445,4.122,4.192,5.547,6.757c1.053,1.885-0.735,5.129,1.706,5.27
				c1.044-2.941,0.496-5.539-1.511-7.863c-0.985-1.146-2.229-2.049-3.237-3.176c-0.973-1.078-1.155-2.438-2.463-0.912"/>
		</g>
	</g>
	<g>
		<g>
			<path fill="#010101" d="M194.83,291.684c-3.403,4.412-2.2,8.371,0.061,12.981c1.851-0.332,1.173-1.183,0.589-2.447
				c-0.619-1.338-1.132-2.784-1.265-4.268c-0.121-1.371,0.158-2.711,0.843-3.89c0.665-1.146,1.438-1.737-0.243-2.401"/>
		</g>
	</g>
	<g>
		<g>
			<path fill="#010101" d="M198.767,296.122c-0.758,1.894,0.186,4.011-0.5,5.849c-0.686,1.819-3.584,0.672-2.511,3.094
				c2.386-0.332,4.197-1.533,4.301-4.064c0.068-1.707,1-4.639-1.215-4.855"/>
		</g>
	</g>
	<g>
		<g>
			<path fill="#010101" d="M217.244,273.2c-1.484,1.928,4.481,4.303,5.897,4.444c4.002,0.407,6.918-2.469,6.75-6.449
				c-2.298-0.561-1.249,1.604-2.111,3.017c-1.372,2.244-4.556,2.375-6.696,1.326c-1.324-0.653-2.683-1.408-1.494-2.724
				c0.906-1.008,1.949-1.866,2.926-2.81c1.234-1.188,4.928-3.103,2.598-4.634c-2.775,2.439-5.482,4.994-7.818,7.852"/>
		</g>
	</g>
	<g>
		<g>
			<path fill="#010101" d="M216.626,267.719c-2.88-1.083-6.954-2.587-10.065-1.339c-1.565,0.627-1.97,1.81-2.151,3.353
				c-0.318,2.67-2.279,2.441-3.874,4.035c-2.652,2.647-1.754,4.479-2.402,7.748c-0.78,3.914-6.51,5.846-4.888,10.354
				c2.083-0.125,1.289-1.314,1.767-2.67c0.713-2.02,2.657-3.287,3.67-5.146c1.708-3.132-0.4-7.738,3.353-9.783
				c2.079-1.136,3.519-1.797,3.828-4.357c0.263-2.211,1.517-2.887,3.601-2.6c3.337,0.467,6.505,1.896,9.686,2.998
				c0.968-2.129-0.897-1.748-2.618-2.345"/>
		</g>
	</g>
	<g>
		<g>
			<path fill="#010101" d="M228.333,266.152c-1.93-0.95-4.106-1.426-6.188-0.7c0.093,1.896,0.969,1.123,2.318,1.166
				c1.785,0.056,3.473,0.922,4.892,1.95c1.664,1.189,3.021,2.795,4.046,4.57c0.671,1.159,0.792,2.111,2.309,1.066
				c-1.145-3.455-4.076-6.617-7.297-8.211"/>
		</g>
	</g>
</g>
<path d="M216.637,291.828c-0.516,0.99-0.949,2.158-1.71,2.99c-0.699,0.767-2.022-0.43-2.588-0.85
	c-1.038-0.769-2.034,0.969-1.01,1.727c1.281,0.949,2.814,1.844,4.383,1.035c1.349-0.694,2-2.644,2.651-3.894
	C218.959,291.695,217.233,290.686,216.637,291.828z"/>
</svg>
