<?xml version="1.0" encoding="utf-8"?>
<!-- Generator: Adobe Illustrator 15.0.0, SVG Export Plug-In . SVG Version: 6.00 Build 0)  -->
<!DOCTYPE svg PUBLIC "-//W3C//DTD SVG 1.1//EN" "http://www.w3.org/Graphics/SVG/1.1/DTD/svg11.dtd">
<svg version="1.1" id="Layer_1" xmlns="http://www.w3.org/2000/svg" xmlns:xlink="http://www.w3.org/1999/xlink" x="0px" y="0px"
	 width="640px" height="360px" viewBox="0 0 640 360" enable-background="new 0 0 640 360" xml:space="preserve">
<path fill="#F2F3DC" d="M582.131,359.809c-9.662-17.223-30.665-46.21-34.025-47.468c-3.36-1.261-44.945-0.842-80.229-0.842
	c-35.285,0-301.179,0-317.561-0.419c-16.382-0.417-18.903-1.26-26.463,7.56c-7.562,8.821-29.403,41.17-29.403,41.17L582.131,359.809
	L582.131,359.809z"/>
<path fill="#D3D8B9" d="M228.443,327.88c-10.861,1.872-25.604-0.774-35.619,3.867c-0.034-0.051-0.03,1.551-0.02,1.533
	c14.191,2.236,29.035,2.803,43.598,3.329c9.64,0.35,18.462-1.217,27.437-0.29c14.942,1.531,29.192,4.827,44.405,5.426
	c14.382,0.564,29.494,4.669,43.707,3.779c7.135-0.447,9.781-1.6,15.951-3.781c19.115-6.771,32.572-9.321,52.927-8.401
	c10.875,0.492,33.515-0.557,44.262-1.585c12.854-1.23,23.428-0.566,23.787-5.553c0.355-4.989-49.184-5.515-71.828-7.563
	c-43.317-3.913-87.149,2.301-130.639,0.844c-12.874-0.435-53.698-4.4-61.327,10.08"/>
<path fill="#5E4732" d="M324.582,59.309c0,0,7.719,4.41,9.609,12.287c1.889,7.875,0.629,16.854,1.731,20.949
	c1.104,4.096,3.15,6.3,8.507,5.829c5.355-0.473,5.828-1.891,5.828-1.891s-1.104,22.526-23.471,7.562
	C304.42,89.08,316.707,66.399,324.582,59.309z"/>
<path fill="#78343C" d="M261.627,120.794c0,0-2.099,7.141-3.358,24.783c-1.26,17.643-0.42,22.683,0,26.884
	c0.418,4.199-2.943,16.381,0.838,23.943c3.781,7.56,3.781,7.56,3.781,7.56s0.422,4.202,3.361,15.119
	c2.94,10.925,1.681,23.106-0.417,30.668c-2.102,7.562-4.202,18.479-5.042,24.783c-0.842,6.3-0.422,30.241-0.422,30.241
	l105.854,3.361c0,0,10.08-23.941,5.039-39.486c-5.039-15.543-11.341-22.262-13.02-36.123c-1.68-13.861-0.418-27.726,0-30.664
	c0.419-2.941,5.459-8.401,5.459-14.701c0-6.303-2.939-13.444-1.682-17.225c1.262-3.78,6.723-14.281,7.981-27.303
	c1.259-13.021-10.081-28.983-10.081-28.983s-18.484-4.621-27.725-4.2C322.956,109.873,276.328,117.015,261.627,120.794z"/>
<path fill="#78343C" d="M358.66,113.234c0,0,16.382,3.361,22.682,21.423c6.303,18.062,7.145,38.645,9.244,58.388
	c2.1,19.742,2.1,22.262,3.357,25.204c1.261,2.938,3.363,5.461,1.683,7.981c-1.683,2.52-1.26,5.041-1.26,8.399
	c0,3.356-1.683,16.38-5.882,26.462c-4.198,10.08-10.082,28.145-12.18,30.244c-2.099,2.1-19.322-5.041-19.322-5.041
	s7.561-26.043,7.561-31.083s-0.421-8.819,1.682-11.765c2.101-2.938,0.844-5.879,0.422-7.141c-0.422-1.259-0.845-4.199-0.422-5.882
	c0.422-1.678-0.84-17.641-1.682-28.142s-3.781-26.044-4.62-31.925C359.082,164.482,358.66,113.234,358.66,113.234z"/>
<path fill="#78343C" d="M271.288,117.854c-7.141,1.68-23.104,5.04-29.824,20.583c-6.719,15.542-4.619,35.705-7.98,60.909
	c-3.361,25.201-5.88,25.201-9.24,28.143c-3.362,2.939,0,3.359,1.679,6.72c1.681,3.36,1.681,9.662,2.939,18.063
	c1.261,8.398,4.621,19.742,4.621,19.742l30.244,22.266l1.26,0.416c0,0-5.88-19.32-6.719-33.182
	c-0.842-13.863-2.521-19.324-3.781-21.424c-1.26-2.102,2.098-1.683,2.098-4.199c0-2.52-0.838-4.203-0.838-6.724
	s2.941-23.942,3.781-31.922C260.367,189.264,271.288,117.854,271.288,117.854z"/>
<path fill="#ECAF8B" d="M281.107,113.654c-7.876,2.835-13.862,2.205-12.602,7.247c1.26,5.041,5.986,21.895,34.023,24.1
	c28.041,2.206,40.167-9.293,45.208-19.375s3.781-14.019,3.781-14.019s-18.901-3.308-24.259-10.239
	c-5.354-6.931-6.931-16.854-7.718-22.525c-0.788-5.67-13.546-8.664-19.69,0.473C293.708,88.451,288.983,110.819,281.107,113.654z"/>
<path fill="#ECAF8B" d="M268.505,34.106c-8.349,5.355-8.664,9.452-7.719,19.06c0.945,9.609,2.836,11.499,4.411,18.272
	c1.576,6.773,1.418,9.923,9.451,19.689c8.033,9.767,9.452,16.855,21.265,14.965c11.814-1.89,15.437-12.13,18.273-19.218
	c2.835-7.088,5.197-11.499,5.04-13.231c-0.158-1.733-0.158-1.733-0.158-1.733s5.2-1.733,5.671-8.034
	c0.473-6.301,2.048-11.342-5.986-17.957C310.719,39.305,268.505,34.106,268.505,34.106z"/>
<path fill="#5E4732" d="M268.978,28.594c0,0-11.657,2.206-13.547,10.396c-1.891,8.191,5.355,15.751,5.355,15.751
	s-5.67-11.971,7.876-17.642c0,0,3.15,10.082,7.876,13.547s9.136,3.15,9.136,3.15l-0.945-3.78l7.561,0.63
	c0,0-3.465-0.945-5.986-5.671c0,0,8.192,5.986,16.697,5.355c0,0-3.149-3.465-3.78-6.615c0,0,3.78,2.835,7.247,4.096
	c3.464,1.26,4.724,7.561,5.985,8.191c1.261,0.63,2.836,0.63,2.836,0.63s-0.315-3.151,1.89-5.671c2.204-2.52,5.356-0.63,5.356-0.63
	s0-15.437-7.561-23.313c-7.562-7.875-21.423-10.083-29.299-7.877C277.798,21.347,273.073,25.443,268.978,28.594z"/>
<path fill="#D5A387" d="M317.178,56.002c0.17,3.368,1.562,5.142,1.938,8.48c2.612-2.354,3.092-6.124-0.016-8.087
	c1.272-0.343,1.899-0.566,3.063-0.434c-0.118-0.745-0.701-1.851-0.62-2.433c-1.528,0.069-3.244,0.663-4.366,1.529"/>
<path fill="#F3BF98" d="M347.107,279.05c-9.137-0.315-22.684-2.521-36.859-1.259c-14.178,1.259-21.422,0.314-29.298,5.354
	c-7.876,5.043-12.602,8.508-13.862,9.451c-1.261,0.944-5.356-1.574-7.876-8.188c-2.521-6.616-2.205-13.546-5.986-13.546
	c-3.781,0-4.726,0.943-5.356-0.631c-0.63-1.574,0.315-1.89-2.52-1.263c-2.835,0.632-4.096-2.202-4.096-2.202
	s-3.78,1.258-4.726-0.317c-0.944-1.573-1.89-2.835-3.15-0.945c-1.259,1.892-3.465,4.413-8.191,4.413s-6.931-1.26-9.136,0.627
	c-2.205,1.891,7.876,43.477,12.287,52.613c4.411,9.138,9.451,6.616,9.451,6.616s5.985-1.579,9.136-4.098
	c3.152-2.52,2.521-4.726,9.137-3.465c6.616,1.26,8.191,5.354,11.971,6.932c3.781,1.575,16.382,5.041,31.82,7.247
	c15.438,2.204,13.546,5.038,28.353,5.668c14.808,0.632,21.737,0.945,25.519,1.577c3.78,0.631,11.026,1.263,16.383-0.945
	c5.354-2.206,8.506-5.041,8.506-5.041l1.891-5.04c0,0,17.645-2.521,26.463-5.355c8.822-2.837,13.232-4.096,16.381-3.15
	c3.151,0.945,16.068,3.466,22.054,3.15c5.985-0.316,9.138-1.261,9.138-1.261s3.465-10.396,2.205-13.544
	c-1.26-3.152-4.727-3.152-4.727-3.152s-5.984-3.781-18.272-7.875c-12.285-4.096-17.645-4.096-21.42-3.466
	c-3.782,0.629-17.646,1.573-17.646,1.573L347.107,279.05z"/>
<path fill="#E8B294" d="M392.475,293.541c0,0,4.409-3.148,14.807-1.257c10.396,1.888,11.974,5.67,11.974,5.67l-23,1.575
	L392.475,293.541z"/>
<path fill="#B5D1E2" d="M443.195,306.145c0,0,3.465-5.984,9.451-8.819c5.983-2.839,9.136,0,9.449,3.465
	c0.315,3.466,0.315,3.466,0.315,3.466s-5.354,3.778-9.767,3.778C448.233,308.034,443.195,306.145,443.195,306.145z"/>
<path fill="#D9E8F0" d="M450.44,308.664c0,0,8.82-2.205,17.645-5.672c8.819-3.465,13.546-5.354,16.382-1.889
	c2.835,3.465,2.52,18.588-9.45,23.627c-11.973,5.044-17.645,8.192-23.313,6.933c-5.672-1.259-8.821-4.096-8.821-4.096
	s0.947-0.947,5.671-1.261c4.728-0.315,6.932-5.355,6.302-9.449C454.223,312.761,450.44,308.664,450.44,308.664z"/>
<path fill="#FFFFFF" d="M341.438,275.898c1.084,6.756,5.922,21.613,0.941,27.653c2.539,0.603,5.237,0.929,7.832,1.063
	c0.339,6.411-0.964,16.523-3.386,22.338c5.946,2.104,10.187,2.207,16.342,2.803c4.213,0.409,7.849-0.88,5.979,5.269
	c2.625-2.138,7.065-2.542,10.435-2.218c-1.913-8.075-10.104-24.772-7.106-28.164c7.015-7.947,16.045-4.666,23.728-5.869
	c4.647-14.229-46.101-23.188-55.077-23.188"/>
<path fill="#B5D1E2" d="M467.874,327.042c-7.856,1.192-17.607-2.631-23.584,2.111c2.146,0.624,4.623,2.322,7.412,2.51
	c4.017,0.265,8.454-1.243,11.552-2.101"/>
<path fill="#D7DADE" d="M348.578,322.004c6.979,2.225,28.145,2.519,28.145,2.519s2.021,4.661,2.791,7.497
	c-3.621-0.119-7.271,0.253-10.711,0.84c-0.617-5.018-16.957-5.042-22.265-5.882c0.013-0.069-0.104-1.219-0.104-1.222
	c1.033-0.794,0.686-1.396,1.303-2.493"/>
<g>
	<g>
		<g>
			<g>
				<path fill="#020202" d="M351.754,108.299c0.223,20.285-16.177,33.156-34.891,36.229c-10.974,1.801-23.335,0.352-32.857-5.503
					c-4.831-2.97-9.315-6.901-12.21-11.81c-1.286-2.179-2.555-4.546-3.176-7.001c-0.374-1.484,0.091-5.996-1.964-5.351
					c0.689,24.446,30.816,34.263,51.208,30.287c18.726-3.651,34.81-16.606,34.588-36.854c-0.39,0.004,0.055-0.113-0.315-0.004"/>
			</g>
		</g>
		<g>
			<g>
				<path fill="#020202" d="M266.877,117.959c-8.303,3.174-17.225,6.031-22.765,13.371c-7.38,9.773-8.842,24.122-10.151,35.894
					c-1.007,9.061-0.8,18.231-1.359,27.331c-0.315,5.156-2.079,10.141-2.775,15.262c-0.418,3.082-0.352,6.197-0.963,9.244
					c-0.346,1.732,0.154,3.586-0.247,5.309c0.242,0.281,1.581,0.438,1.964,0.527c5.503-23.578,3.002-48.354,7.666-72.094
					c1.25-6.364,4.106-12.615,7.748-18.08c3.607-5.412,8.048-10.639,13.926-13.258c9.221-4.111,21.664-4.775,28.285-13.039
					c-1.02-0.818-1.476-1.715-2.435-0.657c-1.604,1.768-3.186,3.427-5.242,4.627C276.343,114.839,271.415,116.299,266.877,117.959"
					/>
			</g>
		</g>
		<g>
			<g>
				<path fill="#020202" d="M223.527,231.074c-0.047,2.523,2.326,3.945,4.468,4.688c0.694-2.003,0.634-1.33-1.118-2.463
					c-1.884-1.217-1.392-3.105-0.232-4.703c1.416-1.955,3.408-3.603,5.508-4.752c1.954-1.072,2.291-0.498,1.631-2.673
					c-3.904,1.187-10.016,5.337-10.1,9.904"/>
			</g>
		</g>
		<g>
			<g>
				<path fill="#020202" d="M225.259,230.866c0.159,11.19,2.613,22.209,5.323,33.034c0.549-0.135,1.001-0.18,1.55-0.315
					c0.332-0.082-0.988-4.696-1.139-5.351c-0.896-3.936-1.785-7.881-2.407-11.866c-0.542-3.497-0.932-7.03-1.158-10.562
					c-0.105-1.654,0.229-3.354,0.206-5.011c-0.238-0.209-1.836,0.06-2.183,0.063"/>
			</g>
		</g>
		<g>
			<g>
				<path fill="#020202" d="M317.912,74.917c0.939,6.062,2.027,12.262,3.771,18.157c2.7,9.123,9.217,13.153,18.141,15.891
					c11.967,3.672,28.675,4.411,35.937,16.281c3.884,6.352,6.329,14.095,8.114,21.246c2.098,8.413,1.857,17.377,3.027,25.96
					c2.119,15.577,2.923,31.313,5.982,46.756c2.119-0.422,1.836-0.287,1.473-2.334c-0.678-3.808-0.866-7.679-1.351-11.51
					c-1.146-9.087-2.228-18.161-3.325-27.254c-1.998-16.534-2.808-34.963-9.938-50.205c-6.035-12.902-19.759-14.68-32.638-17.823
					c-8.575-2.096-18.461-5.04-22.26-13.862c-2.871-6.666-3.981-14.071-5.085-21.179c-0.023-0.148,0.021,0.148,0,0
					c-0.621,0.111-0.105,0.012-0.727,0.122"/>
			</g>
		</g>
		<g>
			<g>
				<path fill="#020202" d="M389.965,216.273c2.635,2.05,5.271,4.627,4.729,8.201c-0.264,1.741-1.149,3.373-1.967,4.914
					c-1.063,2.006-1.271,1.848,0.575,2.928c3.94-6.713,4.607-12.635-1.997-17.779c-0.389,0.497-0.802,1.056-1.188,1.554"/>
			</g>
		</g>
		<g>
			<g>
				<path fill="#020202" d="M391.918,225.449c4.6,8.933-0.531,19.177-2.852,28.141c-1.41,5.438-2.383,11.024-4.256,16.323
					c-0.949,2.676-2.492,5.13-3.563,7.758c-0.204,0.5-1.477,3.322-1.145,3.463c0.519,0.222,1.188,0.976,1.707,1.198
					c4.27-9.961,7.213-20.188,10.108-30.604c2.438-8.779,5.756-18.158,1.249-26.912c-0.559,0.289-0.691,0.377-1.253,0.666"/>
			</g>
		</g>
		<g>
			<g>
				<path fill="#020202" d="M262.288,203.641c2.021,10.984,5.452,22.166,5.089,33.389c-0.353,10.896-4.669,21.729-6.961,32.289
					c0.372,0.08,1.513,0.641,1.833,0.486c0.568-2.613,0.723-5.369,1.404-7.953c0.696-2.639,1.083-5.357,1.785-7.998
					c1.444-5.44,3.261-10.683,3.493-16.354c0.361-8.819-1.818-17.531-3.436-26.151c-0.314-1.678-0.582-3.363-0.89-5.043
					c-0.445-2.432,0.334-2.974-2.16-2.521"/>
			</g>
		</g>
		<g>
			<g>
				<path fill="#020202" d="M360.879,173.531c1.906,6.752,2.813,14.227,0.446,21.06c-1.472,4.236-4.289,7.533-8.281,9.544
					c-2.989,1.51-6.147,2.93-9.501,3.192c-1.874,0.147-6.441-1.738-6.22,0.94c10.599,2.073,22.85-3.455,25.875-14.361
					c1.901-6.861,0.8-14.023-1.089-20.72c-0.465,0.132-0.815,0.129-1.231,0.367"/>
			</g>
		</g>
		<g>
			<g>
				<path fill="#020202" d="M266.807,205.613c5.099,2.57,10.949,3.979,16.6,2.873c0.217-2.635-3.41-1.043-5.151-1.086
					c-3.763-0.092-7.57-1.151-10.917-2.84c-4.486-2.26-7.64-6.42-8.912-11.277c-1.046-3.99-1.016-8.285-0.37-12.33
					c0.282-1.77,0.793-3.51,1.246-5.242c0.366-1.401,0.898-2.611-1.131-2.669c-3.266,11.585-3.875,26.063,8.716,32.409"/>
			</g>
		</g>
		<g>
			<g>
				<path fill="#020202" d="M361.486,247.41c0.434,1.125,0.852,2.258,1.283,3.386c0.334,0.871,0.907,0.206,1.662-0.075
					c-3.342-8.695-5.391-17.346-5.846-26.676c-0.238-4.879,0.266-9.793,0.508-14.672c0.078-1.534,0.157-3.066,0.301-4.6
					c0.158-1.729-0.343-1.586-2.088-1.813c-1.801,14.132-1.399,31.212,3.864,44.568"/>
			</g>
		</g>
		<g>
			<g>
				<path fill="#020202" d="M258.426,203.241c-0.491,5.784-1.451,11.524-2.256,17.276c-0.436,3.118-0.989,6.196-1.66,9.276
					c-0.347,1.604-1.742,4.418,0.874,4.384c2.419-9.248,3.396-18.771,4.214-28.269c0.197-2.296,0.388-4.589,0.589-6.884
					c0.139-1.606,1.023-3.485-1.295-3.127c-0.214,2.441-0.499,4.884-0.714,7.322"/>
			</g>
		</g>
		<g>
			<g>
				<path fill="#020202" d="M248.47,230.407c1.398,1.981,3.412,3.502,5.419,4.829c-1.934,0.033-3.905-0.012-5.838-0.09
					c-1.224-0.053-2.633-0.614-2.268,1.15c3.172,0.219,6.333,0.24,9.51,0.155c-0.051-1.62,0.143-1.711-1.268-2.687
					c-1.164-0.806-2.298-1.656-3.267-2.692c-0.794-0.853-1.111-2.017-2.157-0.708"/>
			</g>
		</g>
		<g>
			<g>
				<path fill="#020202" d="M252.066,239.736c6.031,4.768,5.205,16.115,5.583,22.932c0.433,7.779,2.189,15.28,3.873,22.876
					c0.399,0.008,1.112-0.147,1.472-0.323c-1.625-7.281-3.072-14.564-3.485-22.033c-0.421-7.549,0.066-19.244-6.599-24.513
					c-0.293,0.374-0.634,0.616-0.815,1.05"/>
			</g>
		</g>
		<g>
			<g>
				<path fill="#020202" d="M367.1,233.477c-0.75,1.605-1.558,3.521-0.634,5.295c1.498,2.865-0.526,2.82-2.25,5.065
					c-1.754,2.286-0.269,5.536-0.319,8.104c-0.051,2.636-0.707,5.453-0.972,8.102c-0.519,5.184-2.548,10.314-3.838,15.35
					c2.474,1.012,2.743-2.483,3.2-4.425c0.848-3.577,1.598-7.104,1.966-10.772c0.288-2.854,1.636-5.985,1.521-8.832
					c-0.116-2.938-1.635-5.525,0.945-7.67c1.016-0.848,2.023-1.827,1.764-3.321c-0.17-0.972-0.735-1.938-0.625-2.92
					c0.269-2.375,2.039-4.451,2.414-6.821c-2.045-0.973-2.345,1.46-3.021,2.915"/>
			</g>
		</g>
		<g>
			<g>
				<path fill="#020202" d="M319.57,48.689c-3.109,0.45-5.716,4.129-4.86,7.202c1.601,0.031,0.906-0.789,1.172-1.899
					c0.438-1.828,1.862-3.904,3.849-4.191c3.46-0.5,4.078,4.512,4.326,6.945c0.318,3.139,0.332,6.5-0.586,9.53
					c-0.479,1.587-1.271,3.326-2.664,4.323c-1.19,0.851-3.333-0.144-2.954,1.763c10.588,0.894,10.345-24.953,1.711-23.706"/>
			</g>
		</g>
		<g>
			<g>
				<path fill="#020202" d="M325.611,61.328c9.576,6.942,9.992,18.067,9.5,28.77c-0.211,4.556,1.055,7.718,5.837,8.729
					c3.858,0.813,9.717,0.488,11.021-4.078c-1.836-1.157-1.621,0.749-2.982,1.619c-1.805,1.156-4.084,1.095-6.164,0.91
					c-5.227-0.464-6.5-2.999-6.189-7.872c0.696-11.006-0.117-22.752-9.806-29.776c-0.279,0.384-0.976,1.143-1.138,1.583"/>
			</g>
		</g>
		<g>
			<g>
				<path fill="#020202" d="M348.279,95.121c0.546,2.114,0.781,4.479,0.207,6.623c-0.463,1.72-3.416,3.32-2.305,4.665
					c4.51-1.928,4.336-7.614,3.311-11.607c-0.379,0.097-1.02,0.155-1.354,0.348"/>
			</g>
		</g>
		<g>
			<g>
				<path fill="#020202" d="M285.24,54.333c0.292,0.12,0.672,0.013,0.988,0.057c-0.082-1.125-0.325-2.247-0.856-3.254
					c1.362,0.532,2.684,0.796,4.152,0.734c0.576-2.369-2.489-1.514-4.119-2.228c-1.07-0.468-1.351-1.299-2.178-0.34
					c-0.899,1.043,0.425,2.015,0.922,3.185c-4.52-1-8.851-3.752-11.661-7.438c-1.377-1.806-2.467-3.917-2.846-6.167
					c-0.294-1.746,0.545-2.317-1.469-2.073c-0.105,9.105,8.624,16.245,17.081,17.411"/>
			</g>
		</g>
		<g>
			<g>
				<path fill="#020202" d="M284.944,44.626c5.446,4.347,12.462,6.596,19.402,5.678c0.258-1.824-1.239-1.036-2.484-0.995
					c-2.288,0.077-4.593-0.302-6.806-0.885c-2.247-0.589-4.424-1.484-6.419-2.674c-1.166-0.697-2.958-2.996-3.797-1.038"/>
			</g>
		</g>
		<g>
			<g>
				<path fill="#020202" d="M298.954,44.031c3.212,2.84,8.192,3.215,10.272,7.301c1.6,3.143,2.542,6.448,6.635,6.605
					c0.627-1.875-1.921-1.166-2.967-2.372c-1.15-1.329-2.005-3.151-2.8-4.716c-1.157-2.271-2.986-3.509-5.25-4.559
					c-1.194-0.552-2.41-1.093-3.543-1.763c-1.039-0.615-1.699-1.957-2.455-0.38"/>
			</g>
		</g>
		<g>
			<g>
				<path fill="#020202" d="M291.154,17.458c-5.849,0.106-10.768,2.778-15.76,5.61c-1.305,0.742-3.068,0.669-4.381,1.401
					c-1.197,0.668-0.339,1.238,0.275,2.39c4.308-2.403,8.654-4.899,13.395-6.364c7.292-2.254,15.969-1.142,22.772,2.1
					c5.893,2.809,9.733,8.057,11.944,14.112c1.067,2.921,1.382,6.01,1.593,9.115c0.098,1.436,0.555,2.861,0.42,4.296
					c-0.119,1.266,1.016,1.027,2.156,1.176c1.021-7.838-1.92-16.554-6.553-22.914c-5.863-8.048-16.276-11.472-25.87-11.298"/>
			</g>
		</g>
		<g>
			<g>
				<path fill="#020202" d="M260.033,58.723c2.036-0.359,0.114-2.792-0.15-4.17c-0.465-2.442-0.321-5.051,0.451-7.412
					c0.692-2.116,1.829-4.165,3.319-5.816c1.033-1.146,4.93-2.646,3.396-4.081c-7.268,4.372-10.834,13.642-7.015,21.473"/>
			</g>
		</g>
		<g>
			<g>
				<path fill="#020202" d="M254.173,41.641c-0.955,6.05,2.633,11.029,7.33,14.43c0.217-0.3,1.158-1.149,1.137-1.492
					c-1.821-1.32-3.554-2.779-4.807-4.658c-1.932-2.896-2.866-6.364-1.809-9.717c1.021-3.252,3.547-5.851,6.286-7.797
					c1.759-1.25,3.608-2.453,5.629-3.202c1.528-0.567,0.994-0.862,0.544-2.252c-6.604,2.145-13.546,7.31-14.699,14.626"/>
			</g>
		</g>
		<g>
			<g>
				<path fill="#020202" d="M259.529,46.816c0.915,6.411,0.788,13.257,3.042,19.369c1.441,3.905,2.391,7.11,2.97,11.28
					c0.568,4.1,2.639,7.567,5.736,10.475c5.767,5.413,9.262,15.417,17.038,18.35c7.178,2.708,14.768-2.188,19.502-7.087
					c-0.256-0.248-0.905-1.196-1.236-1.215c-1.39,1.44-2.778,2.931-4.41,4.096c-3.007,2.146-6.526,3.774-10.217,3.877
					c-8.381,0.236-13.689-11.744-18.541-17.044c-2.934-3.207-5.153-6.004-5.904-10.42c-0.688-4.025-0.708-7.651-2.437-11.406
					c-2.885-6.271-2.642-13.841-3.606-20.598c-0.624,0.093-1.619,0.37-2.243,0.464"/>
			</g>
		</g>
		<g>
			<g>
				<path fill="#020202" d="M290.069,91.117c-2.038,0.649-4.149,1.053-6.235,1.53c-1.231,0.28-2.916,0.059-2.181,1.785
					c3.607-0.483,7.005-1.867,10.484-2.875c1.268-0.367,5.127-0.298,3.988-2.24c-2.047,0.593-4.048,1.081-6.097,1.674"/>
			</g>
		</g>
		<g>
			<g>
				<path fill="#020202" d="M277.604,73.516c0.841,3.606,0.899,7.492-0.914,10.843c2.949,1.468,6.069,1.233,9.167,0.368
					c-0.002-1.285-0.387-1.177-1.447-0.936c-1.962,0.444-4.049,0.586-5.965-0.146c1.398-3.328,1.221-6.994,0.419-10.434
					c-0.381,0.088-0.884,0.12-1.224,0.304"/>
			</g>
		</g>
		<g>
			<g>
				<path fill="#020202" d="M285.156,67.375c0.654,2.047,3.331-0.39,4.704-0.896c1.512-0.559,6.253-0.586,5.509-2.593
					c-3.611,0.306-7.18,1.514-10.21,3.515"/>
			</g>
		</g>
		<g>
			<g>
				<path fill="#020202" d="M268.489,73.53c1.037,1.466,1.926-0.119,3.107-0.644c1.3-0.579,4.253-0.312,3.57-2.231
					c-2.327,0.134-5.119,0.999-6.619,2.915"/>
			</g>
		</g>
		<g>
			<g>
				<path fill="#020202" d="M280.78,59.379c0.652,1.639,1.474,0.503,2.465-0.19c1.323-0.924,2.703-1.777,4.256-2.253
					c1.526-0.468,3.114-0.543,4.699-0.483c1.302,0.049,3.667,0.892,3.324-1.151c-5.864-0.623-10.009,0.496-14.729,4.105"/>
			</g>
		</g>
		<g>
			<g>
				<path fill="#020202" d="M261.667,64.378c1.049,1.059,2.902-0.641,4.6-0.365c1.578,0.258,3.1,0.588,4.671,0.904
					c0.966-2.346-7.78-3.182-9.222-0.516"/>
			</g>
		</g>
		<g>
			<g>
				<path fill="#020202" d="M288.916,65.132c0.325,1.855,3.068,0.268,2.166,2.774c-2.444,0.265-1.698-2.526-3.66-2.102
					c-0.148,1.866,2.617,4.768,4.579,3.227c2.201-1.731-0.689-5.067-3.056-3.879"/>
			</g>
		</g>
		<g>
			<g>
				<path fill="#020202" d="M273.037,72.701c1.21,1.418-0.41,1.945-1.212,0.685c-0.487-0.765-0.501-1.219-1.624-0.662
					c0.817,4.666,6.703,2.686,3.74-0.789c-0.299,0.253-0.764,0.476-0.982,0.797"/>
			</g>
		</g>
		<g>
			<g>
				<path fill="#020202" d="M360.613,172.632c0.303,0.242,0.693,0.284,1.053,0.438c1.754-4.102,3.156-8.297,4.26-12.616
					c-1.994-1.136-1.998,3.042-2.427,4.408c-0.826,2.636-1.679,5.284-2.763,7.824"/>
			</g>
		</g>
		<g>
			<g>
				<path fill="#020202" d="M333.896,121.793c-6.123,0.371-13.848,0.09-18.833,4.235c0.809,1.858,2.891-0.237,4.202-0.764
					c2.385-0.958,4.912-1.435,7.452-1.735c5.736-0.678,11.537-0.693,17.188-1.999c0.084-1.805-1.159-0.926-2.379-0.748
					c-2.539,0.372-5.103,0.381-7.659,0.536"/>
			</g>
		</g>
		<g>
			<g>
				<path fill="#020202" d="M279.372,124.166c2.278,0.178,4.558,0.378,6.839,0.522c2.752,0.174,5.487,0.4,8.178,1.032
					c1.458,0.344,4.66,2.549,5.013,0.378c-4.631-2.112-9.434-2.445-14.424-2.835c-1.427-0.111-6.132-1.538-5.714,0.766"/>
			</g>
		</g>
		<g>
			<g>
				<path fill="#020202" d="M317.313,61.315c1.56,1.332,1.035,2.893,0.564,4.643c1.839,1.039,1.922-1.947,1.713-3.213
					c-0.233-1.411-1.243-1.852-2.046-2.854c-0.694-0.865,0.501-1.703-1.198-1.776c-0.479,1.387-0.1,2.303,0.958,3.208"/>
			</g>
		</g>
		<g>
			<g>
				<path fill="#020202" d="M318.349,56.942c1.587,0.501,3.092,1.913,3.09,3.667c-0.002,1.23-1.313,1.958,0.321,2.558
					c2.118-2.868,0.052-6.535-3.016-7.504c-0.118,0.372-0.387,0.886-0.4,1.272"/>
			</g>
		</g>
		<g>
			<g>
				<path fill="#020202" d="M321.477,51.716c-2.454,0.085-4.302,1.944-4.824,4.258c1.669,0.935,1.693-1.433,2.863-2.293
					c2.873-2.113,0.843,2.449,3.409,2.004c0.084-0.983-0.233-3.987-1.45-4.027"/>
			</g>
		</g>
	</g>
	<g>
		<g>
			<path fill="#020202" d="M362.996,192.76c0.447,5.328,0.984,10.649,1.388,15.979c0.438,5.852,1.265,11.808,0.949,17.685
				c-0.206,3.891-2.179,8.637,1.918,11.094c1.226-2.045,0.401-1.08-0.536-2.883c-0.813-1.552,0.102-4.018,0.283-5.664
				c0.668-5.981-0.708-11.859-1.188-17.813c-0.502-6.185-0.781-12.366-1.297-18.548c-0.629,0.066-1.07,0.021-1.697,0.09"/>
		</g>
	</g>
</g>
<g>
	<g>
		<path fill="#020202" d="M220.543,268.268c-0.239,0.582-0.47,1.228-0.709,1.809c4.947,2.043,12.711,0.229,15.208-4.838
			c-0.36-0.178-1.28-0.904-1.652-0.846c-0.69,1.403-1.845,2.586-3.208,3.289c-2.797,1.44-6.65,1.865-9.636,0.635"/>
	</g>
</g>
<g>
	<g>
		<path fill="#020202" d="M234.033,264.662c2.314,1.17,4.906,6.931,7.751,2.129c-0.351-0.212-0.747-0.416-1.1-0.622
			c-1.05-0.622-0.676,0.537-1.826,0.46c-1.416-0.091-2.523-2.997-3.954-3.719c-0.283,0.564-0.606,1.15-0.889,1.716"/>
	</g>
</g>
<g>
	<g>
		<path fill="#020202" d="M241.208,267.328c1.044,1.249,2.145,2.673,3.188,3.925c2.443-4.176,3.333,2.122,4.765,1.119
			c5.477-3.833,7.178,4.424,7.813,7.785c1.504,7.966,4.561,14.723,13.946,14.172c-0.149-2.558-0.708-1.558-3.143-1.909
			c-2.307-0.329-4.218-1.557-5.607-3.45c-2.805-3.821-3.067-8.88-4.285-13.282c-0.613-2.223-1.516-4.66-3.821-5.556
			c-2.17-0.844-5.667,1.244-6.331-1.731c-0.544-0.521,0.304-0.613-0.557-0.909c-0.953-0.077-1.894,0-2.699,0.52
			c-1.551-1.858-1.445-2.11-3.272-0.587"/>
	</g>
</g>
<g>
	<g>
		<path fill="#020202" d="M228.055,271.074c0.147,1.453-0.793,5.357,1.381,4.843c0.06-1.653,0.027-3.315-0.139-4.969
			c-0.391,0.04-0.931-0.009-1.296,0.128"/>
	</g>
</g>
<g>
	<g>
		<path fill="#020202" d="M254.878,321.521c0.032,0.563,0.017,1.19,0.048,1.757c0.014,0.232,3.301,0.293,3.823,0.384
			c1.513,0.268,3.023,0.869,4.216,1.873c0.317-0.049,1.017-1.238,1.243-1.508c-2.501-2.101-6.139-2.607-9.302-2.438"/>
	</g>
</g>
<g>
	<g>
		<path fill="#020202" d="M269.085,331.265c10.022,3.253,20.672,5.448,31.191,6.139c0.094-1.417,0.597-2.121-1.003-2.248
			c-2.344-0.181-4.65-0.642-6.979-0.963c-5.306-0.74-10.605-1.541-15.791-2.883c-4.529-1.168-9.107-2.104-11.904-6.209
			c-1.164-1.709-1.764-3.662-2.032-5.717c-0.275-2.147,0.078-1.898-2.046-2.017c-0.312,5.603,3.156,11.788,8.665,13.58"/>
	</g>
</g>
<g>
	<g>
		<path fill="#020202" d="M274.792,307.063c-0.559,2.092,1.063,1.49,2.591,1.584c2.955,0.178,5.885,0.752,8.743,1.519
			c5.335,1.435,10.536,3.399,15.57,5.649c5.974,2.668,12.385,8.18,18.981,8.418c0.589-1.78-0.505-2.01-1.833-2.313
			c-2.638-0.604-5.254-1.481-7.656-2.693c-2.155-1.084-4.229-2.357-6.433-3.343c-9.512-4.249-19.301-8.459-29.951-8.346"/>
	</g>
</g>
<g>
	<g>
		<path fill="#020202" d="M314.907,322.776c-0.244,1.501,0.214,1.779,1.521,1.675c2.668-0.22,5.321-0.464,7.993-0.318
			c5.332,0.287,10.529,1.503,15.736,2.661c5.823,1.295,11.694,2.536,17.485,3.984c1.17-2.223-1.537-2.111-3.154-2.518
			c-2.848-0.712-5.627-1.685-8.475-2.387c-10.136-2.513-20.643-4.296-31.125-3.164"/>
	</g>
</g>
<g>
	<g>
		<path fill="#020202" d="M366.609,328.677c-4.563,0.188-9.674,0.151-13.928,2.023c0.34,2.549,4.733,0.316,6.588,0.082
			c2.771-0.354,5.604-0.317,8.387-0.429c0.201-0.923,0.044-2.138-1.059-1.785"/>
	</g>
</g>
<g>
	<g>
		<path fill="#020202" d="M367.762,330.199c3.401,1.357-3.725,3.254-4.416,3.54c-1.781,0.73-3.523,1.537-5.39,2.042
			c-1.206,0.324-1.608,0.609-0.938,1.935c3.563-0.701,6.701-2.649,10.205-3.514c2.516-0.621,4.608-3.968,1.104-5.371
			c-0.178,0.445-0.443,0.849-0.502,1.317"/>
	</g>
</g>
<g>
	<g>
		<path fill="#020202" d="M373.27,336.097c-1.481,0.812-3.095,1.513-4.845,1.396c-1.099-0.075-1.606,0.076-1.606,1.482
			c3.063,0.892,5.606-0.854,8.229-2.16c1.08-0.541,2.298-0.978,3.488-0.455c0.935,0.409,1.382,0.455,1.872-0.782
			c-2.354-1.826-4.86-0.839-7.186,0.431"/>
	</g>
</g>
<g>
	<g>
		<path fill="#020202" d="M375.391,338.069c-4.852,3.673-9.133,4.163-14.973,5.084c-2.529,0.398-5.305,0.543-7.719-0.588
			c-2.201-1.031-1.557-1.99-3.622-0.415c2.226,2.914,5.534,3.423,8.978,3.104c3.881-0.354,8.489-0.654,12.18-1.861
			c2.857-0.938,5.029-2.958,7.447-4.663c2.058-1.454,3.146-0.932,1.771-3.136c-1.334,0.943-2.572,1.74-3.906,2.682"/>
	</g>
</g>
<g>
	<g>
		<path fill="#020202" d="M299.529,337.025c4.101,0.031,7.804,1.915,11.626,3.191c4.482,1.498,9.217,1.9,13.895,2.385
			c8.31,0.865,16.72,1.346,25.077,1.36c0.002-1.373,0.454-1.621-1.104-1.634c-2.226-0.02-4.463-0.114-6.686-0.205
			c-4.852-0.193-9.686-0.895-14.516-1.356c-4.969-0.479-10.046-1.164-14.836-2.649c-4.391-1.363-8.775-3.115-13.463-3.154
			c-0.006,0.632,0.009,1.442,0.004,2.072"/>
	</g>
</g>
<g>
	<g>
		<path fill="#020202" d="M367.704,334.935c1.56,0.516,1.149,2.684,2.892,2.068c-0.07-1.532-1.048-2.796-2.498-3.274
			c-0.121,0.372-0.356,0.798-0.377,1.185"/>
	</g>
</g>
<g>
	<g>
		<path fill="#020202" d="M372.506,332.938c-1.486,0.432-2.301,0.451-1.672,2.225c1.826-0.521,3.684-1.269,5.559-1.579
			c2.194-0.364,2.102,1.684,3.984,1.058c-0.136-4.191-5.511-2.438-7.861-1.667"/>
	</g>
</g>
<g>
	<g>
		<path fill="#020202" d="M294.766,277.313c-7.461,1.063-14.471,4.847-20.838,8.717c-1.903,1.158-3.266,3.199-5.172,4.354
			c-1.882,1.142-2.326,0.89-1.312,2.847c4.448-2.698,8.385-6.819,13.008-9.211c7.607-3.935,15.771-4.186,24.208-5.115
			c12.353-1.355,24.589,1.267,36.939,0.549c-0.152-2.391-0.428-1.525-2.73-1.487c-4.693,0.077-9.395-1.026-14.067-1.457
			c-10.227-0.938-19.836-0.313-29.989,1.138"/>
	</g>
</g>
<g>
	<g>
		<path fill="#020202" d="M342.078,275.793c0.449,3.79,0.934,7.593,1.213,11.398c0.248,3.36-0.092,6.727-0.591,10.064
			c-0.248,1.635-2.147,6.514,0.004,6.768c2.485-6.205,1.925-13.123,1.255-19.656c-0.225-2.164-0.232-4.35-0.486-6.512
			c-0.141-1.174,0.146-2.732-1.543-2.008"/>
	</g>
</g>
<g>
	<g>
		<path fill="#020202" d="M341.348,304.236c1.709,0.168,3.418,0.334,5.131,0.475c1.795,0.146,3.576,0.434,5.347,0.778
			c1.219,0.237,2.728,1.211,3.016-0.587c-2.847-1.368-6.423-1.35-9.499-1.646c-1.296-0.125-4.304-1.146-3.97,0.987"/>
	</g>
</g>
<g>
	<g>
		<path fill="#020202" d="M350.443,300.494c-0.553,3.975-0.9,7.981-1.454,11.957c-0.198,1.438-0.001,2.924-0.175,4.365
			c-0.188,1.569-0.647,3.137-1.272,4.613c-0.496,1.182-1.996,1.582-0.778,2.799c3.084-1.65,2.563-6.117,2.981-9.112
			c0.45-3.252,1.459-6.431,1.914-9.685c0.265-1.908,0.272-3.85,0.521-5.759c0.195-1.47,1.844-7.92-0.555-7.507
			c-0.359,2.729-0.55,5.639-0.911,8.368"/>
	</g>
</g>
<g>
	<g>
		<path fill="#020202" d="M354.154,277.973c0.414,4.979,1.186,10.215-0.362,15.07c4.386,0.365,8.927,0.926,13.299,0.133
			c1.697-0.31-0.282-12.281-0.735-13.904c-2.067-0.004-0.859,2.348-0.655,3.646c0.366,2.337,0.509,4.704,0.448,7.067
			c-0.039,1.492,0.488,1.871-1.23,2.029c-1.251,0.115-2.493,0.118-3.748,0.09c-1.914-0.049-3.928-0.039-5.834-0.196
			c0.854-3.544,0.385-7.15,0.087-10.734c-0.106-1.255,0.593-3.849-1.358-3.121"/>
	</g>
</g>
<g>
	<g>
		<path fill="#020202" d="M368.281,291.982c2.945,6.884,3.396,14.44,4.387,21.776c0.374,2.776,0.605,5.423,1.669,8.057
			c0.884,2.19,1.963,4.295,2.833,6.492c0.499,1.269,0.658,4.046,2.521,3.102c-0.838-4.166-3.389-7.788-4.697-11.795
			c-0.705-2.164-1.115-4.416-1.418-6.657c-0.977-7.239-1.389-14.609-4.294-21.405c-0.361,0.153-0.972,0.3-1.276,0.542"/>
	</g>
</g>
<g>
	<g>
		<path fill="#020202" d="M341.27,274.868c0.006,0.563-0.069,1.218-0.065,1.78c0.002,0.336,3.588-0.28,4.114-0.256
			c3.5,0.152,7.039,0.615,10.494,1.172c6.543,1.052,12.828,3.408,19.108,5.504c5.281,1.762,8.972,5.063,13.843,7.479
			c2.252,1.118,4.846,1.809,6.104,4.143c0.569,1.049,0.976,2.258,1.135,3.438c0.249,0.179,1.058-0.088,1.396-0.133
			c-0.678-5.043-3.819-6.878-8.05-9.027c-4.541-2.304-7.92-5.603-12.843-7.286c-11.327-3.877-23.215-7.021-35.233-6.938"/>
	</g>
</g>
<g>
	<g>
		<path fill="#020202" d="M370.535,303.445c0.811,2.045,2.799-0.953,3.994-1.678c1.963-1.187,4.169-2.012,6.419-2.481
			c1.975-0.416,4.018-0.446,6.024-0.339c1.485,0.076,5.715,1.609,5.413-0.637c-8.444-1.172-15.206-0.375-22.108,4.854"/>
	</g>
</g>
<g>
	<g>
		<path fill="#020202" d="M395.723,299.335c-3.059,0.479-6.187,0.522-9.264,0.894c-0.511,0.063-3.813,0.252-3.783,0.598
			c0.051,0.564,0.063,1.021,0.109,1.588c8.77-0.743,17.412-2.323,26.175-3.113c4.267-0.385,8.546-0.71,12.809-0.222
			c2.097,0.244,4.059,1.026,6.094,1.598c1.699,0.476,1.561-0.649,2.032-2.136c-11.076-3.527-23.066-1.682-34.281,0.064"/>
	</g>
</g>
<g>
	<g>
		<path fill="#020202" d="M426.964,300.136c5.041,0.767,9.447,4.208,13.819,6.683c2.315,1.313,5.008,1.725,7.569,2.382
			c2.118,0.563,2.171,0.868,2.764-1.233c-3.674-0.975-7.372-1.678-10.694-3.557c-4.199-2.383-8.285-5.452-13.155-6.19
			c-0.094,0.62-0.191,1.171-0.289,1.792"/>
	</g>
</g>
<g>
	<g>
		<path fill="#020202" d="M420.461,322.94c4.949,3.804,11.273,4.333,17.319,4.288c3.212-0.021,6.414,0.023,9.623,0.132
			c0.504,0.017,3.89,0.183,3.929-0.13c0.072-0.558-0.005-1.382,0.066-1.939c-6.08-0.77-12.265,0.466-18.354,0.004
			c-2.91-0.221-5.788-0.938-8.421-2.238c-2.294-1.132-2.492-2.326-4.113-0.216"/>
	</g>
</g>
<g>
	<g>
		<path fill="#020202" d="M421.873,321.605c-6.605,2.68-13.471,4.406-20.388,6.038c-2.814,0.663-5.716,1.026-8.484,1.839
			c-2.737,0.799-5.455,1.534-8.299,1.811c-0.524,0.05-3.654,0.298-3.664,0.574c-0.022,0.563-0.251,1.271-0.271,1.836
			c8.68,0.333,16.915-3.675,25.25-5.638c4.594-1.083,9.281-2.058,13.675-3.836c1.707-0.688,3.604-0.908,5.313-1.594
			c1.451-0.586,2.783-1.643,4.351-1.767c0.192-0.313-0.052-1.466-0.085-1.853c-2.604,0.213-4.954,1.727-7.313,2.77"/>
	</g>
</g>
<g>
	<g>
		<path fill="#020202" d="M399.436,290.732c-1.148,0.009-2.299-0.188-3.446-0.181c-0.902,0.003-0.552,1.376-0.574,2.15
			c3.257-0.015,6.585-0.218,9.834,0.067c2.821,0.242,5.543,0.922,8.067,2.215c0.484,0.25,3.438,2.16,3.592,1.943
			c0.33-0.457,0.646-1.164,0.973-1.625c-5.602-4.015-11.737-4.974-18.451-4.826"/>
	</g>
</g>
<g>
	<g>
		<path fill="#020202" d="M451.61,310.144c2.052,3.932,3.354,7.264,1.678,11.54c-0.652,1.67-1.483,3.958-3.081,4.984
			c-1.383,0.887-3.252-0.859-3.625,1.087c4.541,2.342,7.061-3.187,8.202-6.58c1.432-4.25,0.127-7.888-1.872-11.715
			c-0.348,0.182-0.861,0.336-1.146,0.602"/>
	</g>
</g>
<g>
	<g>
		<path fill="#020202" d="M442.176,328.609c5.277,3.266,8.585,4.614,14.639,2.314c-0.134-0.344-0.397-1.588-0.693-1.761
			c-1.649,0.629-3.443,1.114-5.235,1.14c-2.821,0.041-5.423-1.864-7.701-3.279c-0.331,0.54-0.562,1.007-0.894,1.545"/>
	</g>
</g>
<g>
	<g>
		<path fill="#020202" d="M480.749,297.701c7.784,5.955,4.884,21.71-3.486,25.697c-3.316,1.58-7.258,2.196-10.779,3.268
			c-2.787,0.847-5.457,2.123-8.301,2.771c-1.66,0.379-3.366,0.61-5.069,0.694c-0.204,0.283,0.037,1.164,0.055,1.542
			c5.452-0.264,10.539-2.434,15.709-4.009c3.877-1.178,8.332-1.534,11.646-3.982c7.678-5.672,9.024-20.888,1.033-27.002
			c-0.383,0.5-0.544,0.687-0.925,1.187"/>
	</g>
</g>
<g>
	<g>
		<path fill="#020202" d="M481.923,298.059c-6.165,0.646-11.353,3.201-17.039,5.515c-5.125,2.087-11.452,1.464-16.102,4.583
			c0.217,0.326,0.616,1.258,0.965,1.381c1.979-1.327,4.497-1.339,6.805-1.758c3.249-0.594,6.082-1.885,9.129-3.122
			c2.724-1.109,5.55-1.976,8.332-2.925c4.494-1.539,9.208-1.243,13.765-2.392c-0.086-0.346-0.2-1.567-0.469-1.757
			c-1.742,0.439-3.549,0.79-5.33,0.979"/>
	</g>
</g>
<g>
	<g>
		<path fill="#020202" d="M442.813,304.01c1.549,1.422,1.363,1.237,2.945-0.351c2.077-2.081,4.512-3.804,6.988-5.396
			c1.579-1.014,3.411-2.242,5.355-2.168c0.515,0.019,2.553,1.15,2.57,1.139c0.443-0.351,0.709-0.766,1.15-1.115
			c-5.126-6.493-15.269,4.29-18.715,8.037"/>
	</g>
</g>
<g>
	<g>
		<path fill="#020202" d="M458.081,295.45c1.528,1.756,2.984,3.916,3.287,6.271c0.31,2.389-0.968,2.469,1.351,3.532
			c1.738-3.793-0.697-8.229-3.168-11.077c-0.478,0.416-1.021,0.857-1.497,1.274"/>
	</g>
</g>
<g>
	<g>
		<path fill="#020202" d="M120.995,310.706c-0.756,2.149,3.484,1.613,4.682,1.613c4.275,0,8.547,0.082,12.823,0.082
			c11.23,0,22.461-0.558,33.694-0.558c4.008,0,8.017,0.383,12.025,0.383c0.936,0,1.871-0.344,2.807-0.344
			c0.802,0,0.544-0.871,0.384-0.871c-6.976,0-13.95-0.217-20.924-0.217c-15.045,0-30.091,0.658-45.136,0.658"/>
	</g>
</g>
<g>
	<g>
		<path fill="#020202" d="M489.611,310.86c-0.754,2.149,3.049,1.491,4.244,1.491c4.274,0,8.548,0.311,12.822,0.311
			c11.229,0,22.481-0.393,33.713-0.393c4.009,0,7.996-0.515,12.006-0.515c0.935,0,1.869,0.452,2.806,0.452
			c0.807,0,0.545-1.18,0.385-1.18c-6.975,0-13.95,0.441-20.924,0.441C519.618,311.473,504.656,310.86,489.611,310.86"/>
	</g>
</g>
<g>
	<g>
		<path fill="#020202" d="M112.025,334.835c-7.352,9.732-14.86,19.298-21.2,29.732c1.556,1.628,2.068-1.779,2.801-2.928
			c1.692-2.651,3.94-4.933,5.736-7.514c3.619-5.205,6.959-10.602,10.772-15.659c7.359-9.771,14.694-19.51,21.247-29.849
			c-1.525-1.654-2.162,1.714-2.915,2.85c-1.744,2.639-3.207,5.481-5.042,8.054c-3.694,5.18-8.008,9.906-11.84,14.979"/>
	</g>
</g>
<g>
	<g>
		<path fill="#020202" d="M545.223,308.619c6.555,10.339,13.988,20.063,21.351,29.83c3.538,4.699,7.235,9.295,10.619,14.111
			c1.812,2.58,2.834,5.688,4.547,8.336c0.796,1.225,2.442,5.391,4.068,3.688c-6.112-10.069-13.146-19.422-20.238-28.811
			c-3.816-5.056-7.071-10.53-10.771-15.677c-1.849-2.569-3.545-5.229-5.312-7.857c-0.813-1.214-2.662-5.315-4.259-3.584"/>
	</g>
</g>
<g>
	<g>
		<path fill="#020202" d="M256.233,169.134c2.226,1.35,0.585,5.042,3.143,4.844c0.468-2.354-0.162-4.87-2.319-6.181
			c-0.246,0.406-0.655,0.829-0.784,1.282"/>
	</g>
</g>
<path fill="#F3BF98" d="M220.912,269.192c-5.987,1.262-8.575,1.604-12.4,3.961c-1.26,1.895-12.031,7.814-13.921,19.154
	c-1.89,11.342-4.726,29.61,13.231,37.49c17.957,7.875,29.93,4.096,31.188,3.465c1.262-0.631,2.594-1.459,2.908-5.238
	c0.316-3.781,1.189-13.664-4.797-26.896c-5.986-13.229-12.287-22.054-13.862-26.463
	C221.684,270.255,220.912,269.192,220.912,269.192z"/>
<g>
	<path fill="#020202" d="M255.992,321.377c-4.83,0.061-9.71,2.767-12.751,5.808s-6.231,4.26-9.467,5.278
		c-2.729,0.75-4.655,0.817-7.479,0.989c-5.264,0.328-10.361-0.636-15.222-2.717c-8.771-3.759-15.492-11.115-17.34-20.485
		c-1.707-8.652,0.22-18.811,4.676-26.44c1.491-2.552,2.952-4.884,5.185-6.83c0.588-0.513,1.326-1.163,2.057-1.73
		c4.994-2.991,10.659-5.413,16.516-4.749c1.28,0.146,1.267-1.856,0-2c-7.098-0.805-14.058,2.702-19.838,6.47
		c-0.311,0.202-0.444,0.491-0.456,0.782c-7.858,6.972-10.739,19.35-10.535,29.279l-0.395,0.002
		c0.208,10.07,5.875,19.186,14.268,24.802c9.239,6.189,19.844,7.239,30.28,4.036c6.313-2.188,7.279-3.646,10.688-6.812
		c4.375-4.062,9.933-3.915,9.933-3.915L255.992,321.377z"/>
	<path fill="#020202" d="M229.357,308.375c-2.334,0-6.177-1.441-6.554-5.066c-0.203-1.941,0.188-5.75,3.029-6.462
		c1.971,0.774-4.439,5.825,0.124,8.805c1.54,1.005,3.302,1.208,5.003,0.998c1.424-0.177,5.51-2.688,5.703-0.493
		c-2.197,1.02-4.824,2.166-7.182,2.166"/>
	<path fill="#020202" d="M230.064,304.898c-2.15-0.084-4.543-2.392-3.35-4.611c1.496-2.78,5.549-2.084,7.75-0.668
		c-0.777,1.211-0.843,0.537-2.018,0.172c-1.223-0.379-2.654-0.594-3.82,0.061c-0.975,0.543-1.47,1.71-0.854,2.729
		c0.864,1.434,2.245,0.477,2.18,2.178"/>
	<path fill="#020202" d="M234.947,303.514c-1.709,0.13-4.924-0.957-3.152-3.122c1.186,0.972,0.281,2.228,2.574,2.235
		c1.991,0.01,3.031-1.506,2.992-3.385c-0.027-1.271-0.088-1.018,0.955-1.125c0.089,0.87-0.096,1.823-0.318,2.676
		c-0.404,1.541-1.434,2.686-3.043,2.809"/>
</g>
<g>
	<g>
		<path fill="#020202" d="M240.132,297.447c1.934,1.981,1.296,4.338-0.763,5.883c-0.946,0.711-5.34,2.218-5.34,2.218
			s0.245,0.17,0.415,0.756c4.764-0.01,11.194-5.156,6.661-9.812c-0.281,0.272-0.787,0.623-0.983,0.961"/>
	</g>
</g>
</svg>
