<?xml version="1.0" encoding="utf-8"?>
<!-- Generator: Adobe Illustrator 15.1.0, SVG Export Plug-In . SVG Version: 6.00 Build 0)  -->
<!DOCTYPE svg PUBLIC "-//W3C//DTD SVG 1.1//EN" "http://www.w3.org/Graphics/SVG/1.1/DTD/svg11.dtd">
<svg version="1.1" xmlns="http://www.w3.org/2000/svg" xmlns:xlink="http://www.w3.org/1999/xlink" x="0px" y="0px" width="640px"
	 height="360px" viewBox="0 0 640 360" enable-background="new 0 0 640 360" xml:space="preserve">
<g id="Layer_2">
	<g id="Layer_2_1_">
		<path fill="#576260" d="M396.772,6.745c-6.288,8.214-13.273,19.414-16.767,36.588c-3.492,17.173-3.492,17.173-3.492,17.173
			l132.031,169.499c0,0,18.162-3.734,37.723-16.426c19.562-12.697,25.149-23.896,25.149-23.896L396.772,6.745z"/>
		<path fill="#77303C" d="M394.677-0.723c-1.397,11.2-4.191,53.761,32.136,102.295c36.325,48.536,67.063,77.655,103.39,86.616
			c36.326,8.96,53.092,2.239,59.379-4.479c6.286-6.721,9.78-11.201,9.78-11.201s25.148-14.935,33.531-26.879
			c8.383-11.949,9.779-20.162,9.779-20.162V-0.723H394.677z"/>
		<g>
			<g>
				<path fill="#231F20" d="M394.495-3.665c0,20.457,0.298,41.277,6.922,60.518c6.907,20.063,20.063,36.052,32.855,52.436
					c9.782,12.529,19.227,25.31,29.721,37.153c8.237,9.296,18.172,16.271,28.345,22.995c29.689,19.625,84.643,44.093,107.552,1.453
					c-1.313-1.442-1.251-0.031-1.982,1.216c-1.035,1.75-3.154,2.552-4.392,4.146c-2.577,3.315-4.132,7.897-7.524,10.231
					c-6.76,4.647-15.219,5.327-23.188,5.804c-16.122,0.967-32.9-1.979-47.528-8.793c-14.183-6.604-27.021-16.873-39.091-27.238
					c-7.768-6.674-14.292-14.709-21.139-22.412c-17.71-19.928-35.718-39.863-46.396-65.159c-4.945-11.72-10.063-23.87-12.404-36.494
					c-1.157-6.251,1.727-13.135,1.254-19.487c-0.247-3.331-1.515-6.541-1.605-9.881c-0.048-1.845,1.843-7.152-0.865-6.347"/>
			</g>
		</g>
		<g>
			<g>
				<path fill="#231F20" d="M523.534,222.631c0.127,0.639,0.249,1.173,0.377,1.812c21.087-4.812,37.521-20.746,52.069-36.776
					c-1.437-1.487-1.314-1.527-2.82,0.119c-1.952,2.133-3.883,4.284-5.889,6.359c-4.12,4.266-8.41,8.318-12.936,12.09
					c-9.135,7.607-19.228,14.563-30.643,17.165"/>
			</g>
		</g>
		<g>
			<g>
				<path fill="#231F20" d="M380.259,39.81c0.35,0.05,1.146,0.358,1.418,0.173c0.255-2.009,0.986-3.903,1.506-5.852
					c1.025-3.848,2.646-7.451,4.388-10.986c1.685-3.42,3.33-6.869,5.347-10.075c0.945-1.505,1.866-3.031,2.838-4.517
					c0.828-1.264,0.164-1.168-0.878-1.949c-6.581,10.047-13.078,20.768-14.65,33.204"/>
			</g>
		</g>
		<g>
			<g>
				<path fill="#231F20" d="M591.333,176.912c-1.067,0.758-1.711,2.026-2.78,2.786c0.178,0.281,0.531,1.326,0.769,1.157
					c0.997-0.705,1.978-1.436,2.975-2.143c3.426-2.432,6.855-4.852,10.26-7.314c7.526-5.445,15.394-10.458,22.479-16.546
					c14.331-12.312,26.413-27.59,34.663-45.337c-0.318-0.169-1.207-0.986-1.526-0.906c-0.955,2.053-2.063,4.044-3.149,6.021
					c-2.149,3.918-4.183,7.861-6.772,11.464c-5.172,7.192-10.803,13.995-17.135,20.026c-12.248,11.666-25.748,21.739-39.392,31.414"
					/>
			</g>
		</g>
		<g>
			<g>
				<path fill="#231F20" d="M400.778-5.025c1.217,40.339,14.929,78.208,39.507,108.652c20.37,25.234,47.697,43.276,75.621,57.795
					c23.852,12.398,57.288,27.069,82.42,10.691c-0.468-1.85-0.418,1.775-1.449,2.359c-1.354,0.767-3.941-1.188-5.37-0.594
					c-3.134,1.307-6.264,1.867-9.587,2.41c-6.782,1.112-13.412,1.025-20.186-0.017c-14.454-2.221-27.965-8.039-41.178-14.534
					c-25.805-12.681-52.216-27.111-72.167-48.802c-13.465-14.637-24.223-32.355-32.768-50.729
					c-4.852-10.434-7.158-22.04-9.63-33.383c-1.293-5.938-1.594-11.988-2.284-18.04c-0.354-3.083-2.922-5.941-3.125-9.038
					c-0.103-1.613,1.387-7.489-0.798-6.778"/>
			</g>
		</g>
		<g>
			<g>
				<path fill="#231F20" d="M397.707,1.44c-2.25,4.894-4.636,9.825-5.754,15.182c1.849,1.047,1.604-2.145,2.032-3.482
					c0.821-2.566,1.995-4.994,3.081-7.44c1.094-2.467,2.094-4.91,3.21-7.366c-1.573-1.535-2.154,1.819-2.706,3.036"/>
			</g>
		</g>
		<g>
			<g>
				<path fill="#231F20" d="M396.482,19.568c0.275,0.269,0.604,0.316,0.94,0.494c2.206-4.77,4.571-9.555,5.904-14.701
					c-1.857-1.2-2.422,3.762-2.979,5.215c-1.163,3.059-2.603,5.985-3.971,8.944"/>
			</g>
		</g>
		<g>
			<g>
				<path fill="#231F20" d="M402.884,18.475c0.031,6.558-3.986,12.278-5.04,18.617c1.201,0.606,1.218,0.073,1.482-1.11
					c0.49-2.196,1.502-4.22,2.248-6.328c1.265-3.568,2.327-7.306,2.308-11.177c-0.379,0.001-0.925-0.123-1.288-0.017"/>
			</g>
		</g>
		<g>
			<g>
				<path fill="#231F20" d="M401.137,44.008c-0.237,0.584,0.188,0.849,0.839,0.987c1.687-3.453,3.521-6.941,4.598-10.678
					c-1.584-1.071-1.644,0.928-2.107,2.165c-0.966,2.577-2.145,5.058-3.345,7.518"/>
			</g>
		</g>
		<g>
			<g>
				<path fill="#231F20" d="M402.501,58.666c0.261,0.288,0.813,0.522,1.141,0.729c2.945-5.339,5.915-11.112,6.502-17.389
					c-1.939-0.798-2.258,4.512-2.794,6.112c-1.241,3.701-2.876,7.243-4.736,10.619"/>
			</g>
		</g>
		<g>
			<g>
				<path fill="#231F20" d="M406.944,66.9c0.282,0.261,0.75,0.373,1.093,0.542c2.363-5.446,4.714-11.009,6.248-16.793
					c-1.924-1.226-2.842,4.573-3.385,6.123c-1.198,3.43-2.415,6.859-3.856,10.178"/>
			</g>
		</g>
		<g>
			<g>
				<path fill="#231F20" d="M410.896,74.369c0.25,0.298,0.561,0.388,0.88,0.607c2.928-4.875,6.096-10.063,6.915-15.896
					c-1.882-0.895-2.465,4.3-3.091,5.854c-1.325,3.282-3.082,6.322-4.883,9.323"/>
			</g>
		</g>
		<g>
			<g>
				<path fill="#231F20" d="M416.863,82.013c1.853,0.972,2.227-3.766,2.857-5.256c0.625-1.475,1.265-2.944,2.024-4.344
					c0.615-1.133,1.925-2.369,0.152-2.912c-2.21,3.899-4.258,8.013-5.047,12.552"/>
			</g>
		</g>
		<g>
			<g>
				<path fill="#231F20" d="M422.113,86.504c-0.832,2.068-1.429,4.156-2.038,6.313c1.855,1.239,2.267-3.113,2.826-4.523
					c1.304-3.289,2.814-6.606,3.466-10.133c-1.661-0.88-1.657,1.021-2.021,2.289c-0.598,2.08-1.279,4.126-2.083,6.123"/>
			</g>
		</g>
		<g>
			<g>
				<path fill="#231F20" d="M423.401,96.584c1.823,1.342,2.8-4.143,3.472-5.627c0.651-1.438,1.461-2.795,2.251-4.152
					c0.625-1.076,1.771-2.074,0.131-2.696c-2.507,3.793-4.438,8.064-5.884,12.432"/>
			</g>
		</g>
		<g>
			<g>
				<path fill="#231F20" d="M432.421,95.123c-0.887,1.843-1.646,3.773-2.699,5.515c-0.654,1.083-2.079,1.874-0.445,2.616
					c1.835-2.459,3.139-5.219,4.513-7.98c0.581-1.169,2.604-3.381,0.581-3.859c-0.628,1.261-1.175,2.527-1.804,3.788"/>
			</g>
		</g>
		<g>
			<g>
				<path fill="#231F20" d="M433.775,106.649c-0.276,0.218-0.451,0.706-0.667,0.997c1.02,1.511,1.59-0.059,2.3-1.026
					c1.631-2.221,3.244-4.541,4.177-7.208c-1.407-1.104-1.513,0.477-2.087,1.598c-1.037,2.028-2.319,3.891-3.657,5.696"/>
			</g>
		</g>
		<g>
			<g>
				<path fill="#231F20" d="M440.787,111.855c-0.773,1.082-1.5,2.22-2.272,3.303c1.189,1.624,2.019-0.559,2.742-1.577
					c1.679-2.348,3.478-4.634,4.717-7.295c-0.954-0.915-1.099-0.469-1.646,0.532c-0.991,1.817-2.288,3.419-3.513,5.06"/>
			</g>
		</g>
		<g>
			<g>
				<path fill="#231F20" d="M445.095,119.98c-0.388,0.532-0.752,1.09-1.14,1.623c0.974,1.461,1.471,0.167,2.156-0.771
					c2.037-2.773,4.172-5.592,5.662-8.753c-1.356-1.312-1.657,0.539-2.308,1.654c-1.285,2.21-2.888,4.188-4.389,6.232"/>
			</g>
		</g>
		<g>
			<g>
				<path fill="#231F20" d="M454.551,124.002c-1.082,1.235-2.125,2.475-3.209,3.707c1.034,1.694,1.842-0.316,2.669-1.256
					c1.871-2.131,3.911-4.108,5.563-6.445c-1.313-1.82-3.912,2.859-4.991,4.027"/>
			</g>
		</g>
		<g>
			<g>
				<path fill="#231F20" d="M461.434,130.381c-1.096,1.59-2.265,3.125-3.591,4.511c-0.862,0.899-2.311,1.45-0.933,2.632
					c2.222-1.704,3.838-4.091,5.439-6.422c0.927-1.34,4.809-4.694,3.021-5.857c-1.51,1.52-2.67,3.393-3.896,5.17"/>
			</g>
		</g>
		<g>
			<g>
				<path fill="#231F20" d="M464.081,143.025c0.703,1.17,0.868,0.713,1.64-0.169c1.383-1.579,2.941-2.971,4.438-4.424
					c1.143-1.112,2.205-2.33,3.42-3.354c0.938-0.791,2.459-1.253,1.078-2.429c-3.874,2.994-7.431,6.54-10.634,10.326"/>
			</g>
		</g>
		<g>
			<g>
				<path fill="#231F20" d="M474.369,145.187c-2.002,1.563-3.979,3.106-5.753,4.967c1.048,2.005,4.188-2.265,5.431-3.241
					c2.576-2.022,5.226-3.943,7.436-6.432c-0.934-1.659-1.63-0.066-2.545,0.795c-1.468,1.376-3.021,2.639-4.597,3.868"/>
			</g>
		</g>
		<g>
			<g>
				<path fill="#231F20" d="M479.427,152.467c-1.187,1.146-2.26,2.32-3.445,3.465c0.975,2.023,2.602-1.016,3.55-1.932
					c2.806-2.701,5.771-5.207,8.033-8.472c-1.241-1.708-2.194,0.921-3.089,1.922c-1.584,1.78-3.294,3.431-5.022,5.048"/>
			</g>
		</g>
		<g>
			<g>
				<path fill="#231F20" d="M482.615,162.022c0.148,0.367,0.493,0.636,0.731,0.951c2.826-2.463,5.704-4.849,8.641-7.161
					c1.622-1.277,3.229-2.587,4.926-3.754c1.021-0.703,2.733-0.85,1.43-2.191c-5.581,3.541-10.666,7.834-15.687,12.209"/>
			</g>
		</g>
		<g>
			<g>
				<path fill="#231F20" d="M491.877,166.241c0.948,1.503,1.453,0.198,2.253-0.709c1.486-1.681,3.059-3.265,4.783-4.661
					c1.69-1.365,3.434-2.714,5.383-3.615c1.151-0.531,3.383-0.521,2.474-2.313c-5.904,1.385-11.19,6.438-14.987,11.258"/>
			</g>
		</g>
		<g>
			<g>
				<path fill="#231F20" d="M507.77,163.324c-1.576,1.346-3.169,2.672-4.771,3.98c-1.022,0.833-3.723,1.955-2.102,3.369
					c3.076-2.325,6.041-4.91,9.007-7.396c1.017-0.852,4.829-2.971,2.993-4.371c-1.724,1.444-3.429,2.942-5.15,4.387"/>
			</g>
		</g>
		<g>
			<g>
				<path fill="#231F20" d="M506.11,176.907c0.145,0.368,0.583,0.753,0.817,1.066c4.7-4.039,9.425-8.407,12.941-13.683
					c-0.78-1.028-1.019-0.689-1.657,0.209c-1.173,1.644-2.534,3.121-3.878,4.604c-2.553,2.813-5.211,5.541-8.067,7.998"/>
			</g>
		</g>
		<g>
			<g>
				<path fill="#231F20" d="M514.429,179.4c-0.713,0.574-1.599,1.105-2.309,1.68c0.793,2.282,4.961-2.179,5.95-2.98
					c3.877-3.149,7.745-6.374,11.291-9.947c-0.603-1.21-0.875-0.843-1.694-0.039c-1.481,1.449-3.133,2.692-4.687,4.049
					c-2.819,2.455-5.598,4.971-8.502,7.309"/>
			</g>
		</g>
		<g>
			<g>
				<path fill="#231F20" d="M531.029,177.741c-1.58,1.614-3.192,3.148-4.771,4.765c1.045,2.129,3.44-1.623,4.374-2.577
					c2.808-2.869,5.642-5.718,8.26-8.789c-0.997-1.675-1.663,0.138-2.525,1.08c-1.732,1.891-3.646,3.584-5.453,5.388"/>
			</g>
		</g>
		<g>
			<g>
				<path fill="#231F20" d="M532.707,185.408c0.083,0.391,0.465,0.93,0.644,1.286c5.468-3.134,10.411-7.382,15.055-11.755
					c-0.595-1.275-0.964-0.991-1.85-0.175c-1.58,1.452-3.102,2.979-4.757,4.33c-2.87,2.338-5.896,4.502-9.079,6.329"/>
			</g>
		</g>
		<g>
			<g>
				<path fill="#231F20" d="M542.797,188.896c0.157,0.365,0.594,0.761,0.837,1.074c4.406-3.926,8.629-8.157,12.506-12.682
					c-1.193-2.037-3.907,2.623-4.956,3.726c-2.649,2.792-5.53,5.327-8.391,7.873"/>
			</g>
		</g>
		<g>
			<g>
				<path fill="#231F20" d="M559.686,183.226c-1.973,2.026-3.868,4.104-5.403,6.543c0.81,1.017,0.909,0.621,1.549-0.277
					c1.154-1.62,2.572-2.997,3.938-4.411c2.363-2.449,4.883-4.897,6.672-7.888c-1.228-1.456-1.74,0.345-2.524,1.364
					c-1.287,1.678-2.793,3.144-4.254,4.644"/>
			</g>
		</g>
		<g>
			<g>
				<path fill="#231F20" d="M566.172,186.662c-2.347,1.938-4.797,3.922-6.641,6.43c1.022,1.496,1.688,0.117,2.522-0.784
					c1.269-1.382,2.617-2.663,4.042-3.851c3.129-2.604,6.628-5.166,8.668-8.898c-1.348-1.501-2.179,0.851-3.028,1.871
					c-1.653,1.979-3.582,3.652-5.538,5.27"/>
			</g>
		</g>
		<g>
			<g>
				<path fill="#231F20" d="M569.98,190.594c0.104,0.383,0.421,0.707,0.622,1.047c4.314-2.934,8.12-6.66,11.628-10.608
					c-1.175-2.052-4.031,2.581-5.151,3.685c-2.202,2.169-4.525,4.24-7.054,5.959"/>
			</g>
		</g>
		<g>
			<g>
				<path fill="#231F20" d="M588.738,179.44c-1.547,1.751-3.17,3.429-4.916,4.957c-1.012,0.885-3.501,1.7-2.074,3.214
					c2.361-1.438,4.429-3.375,6.311-5.445c0.874-0.961,3.022-2.428,1.238-3.43c-0.191,0.219-0.423,0.43-0.614,0.646"/>
			</g>
		</g>
	</g>
	<polygon fill="#F0F1D9" points="358.403,29.986 636.65,357.105 -24.645,357.105 -25.41,29.521 	"/>
	<polygon fill="#F1F2DB" points="324.209,-20.618 664.5,390.5 4.024,390.5 -6.052,-26.271 	"/>
	<g>
		<g>
			<path fill="#231F20" d="M311.435-26.212c7.916,9.595,17.034,18.198,24.95,27.793c19.892,24.11,197.8,229.685,224.284,261.787
				c21.107,25.584,38.099,50.549,59.204,76.131c9.941,12.049,15.738,27.517,25.682,39.563c0.17,0.209,0.388-2.643,0.559-2.434
				c1.709-1.412,1.663,1.49,0.423-0.012c-1.458-1.771-0.04-5.922-1.501-7.693c-5.648-6.846-4.708-14.865-10.355-21.711
				C615.016,323.382,366.509,32.04,345.199,6.209c-10.29-12.473-22.213-19.541-32.503-32.014c-0.236-0.287,1.137-5.131,0.899-5.419
				c-0.443,0.365-3.047,0.651-3.49,1.017"/>
		</g>
	</g>
</g>
<g id="Layer_1">
	<path fill="#D3D8B9" d="M115.458,108.847c-1.127,23.294-6.607,46.033,11.206,65.14c6.741,7.229,16.427,14.818,25.264,18.846
		c5.113,2.332,10.557-1.056,14.831,4.985c4.43,6.267,1.657,33.521-0.267,40.648c-3.187,11.809-9.916,16.508-9.371,29.432
		c1.175,27.726,26.002,42.271,37.346,64.521c8.276,16.238,10.617,42.303,32.131,47.723c21.747,5.48,19.372-13.475,19.006-28.209
		c12.2,10.563,21.088,24.277,36.818,30.107c17.655,6.545,44.146,10.65,60.496-0.162c10.986-7.273,15.939-18.092,30.211-18.699
		c15.34-0.647,34.838,6.383,49.675,9.656c8.08,1.783,33.165,11.938,40.961,6.672c31.354-21.16-57.893-74.404-68.438-90.174
		c12.834-0.109,29.542,10.334,33.084-5.65c4.713-21.328-44.923-43.67-57.771-53.076c-27.681-20.254-59.957-33.246-90.938-47.235
		c-28.74-12.975-53.281-32.99-81.375-46.011c-16.992-7.879-37.04-9.226-53.621-17.926c-8.377-4.396-15.713-10.82-24.827-15.006"/>
	<path fill="#F3BF98" d="M252.366,148.605c-5.68-0.632-9.468-8.838-11.361-14.519c-1.894-5.68-1.894-5.68,0.631-6.943
		c2.523-1.262,3.788-8.206,1.263-11.361c-2.525-3.156-4.418-16.413-9.469-18.306c-5.049-1.893-20.877-23.66-24.666-26.187
		c-3.788-2.523-39.842-22.794-72.667-1.333c-29.456,19.155-24.325,55.039-17.833,68.833c3.786,19.568,21.112,24.335,21.112,24.335
		s-5.681,6.943,3.789,13.887c9.467,6.943,10.73,8.207,14.517,8.207c3.788,0,4.419-3.155,4.419-3.155s10.099,2.524,12.624,3.155
		c2.526,0.632,6.312-0.631,6.312,1.263c0,1.896-6.944,9.47-15.15,28.405c-8.206,18.938-15.149,39.136-3.155,56.179
		c11.992,17.041,16.412,18.938,23.986,34.086c7.576,15.149,25.25,39.771,34.717,53.022c9.469,13.259,9.469,16.412,9.469,16.412
		l32.194-1.894c0,0-5.05-18.938-12.625-35.353c-7.574-16.409-10.1-22.094-10.1-22.094s32.192,26.51,37.241,32.192
		c5.051,5.681,24.619,29.037,24.619,29.037l102.256-1.896l0.632-20.832c0,0,15.147,2.521,34.09,7.578
		c18.938,5.049,20.831,11.359,20.831,11.359l38.505,0.631c0,0-1.267-27.146-34.088-51.129
		c-32.827-23.984-60.598-36.611-60.598-36.611l4.414-2.526l0.631-1.89c0,0,7.577,6.941,9.47,5.049
		c1.896-1.896,2.524-5.049,2.524-5.049s8.841,1.262,8.21-0.631c-0.636-1.896-0.636-5.055-0.636-5.055s6.313-3.785,1.267-10.102
		c-5.051-6.313-6.944-10.729-6.944-10.729s-4.42-6.313-11.994-11.994s-20.831-1.892-30.301-13.885
		c-9.469-11.994-15.776-17.043-28.401-25.882c-12.624-8.84-25.248-19.569-30.931-32.191c-5.68-12.626-18.304-22.725-32.822-24.62
		C273.827,144.185,252.366,148.605,252.366,148.605z"/>
	<path fill="#FFFFFF" d="M369.212,256.557c-7.575-6.941-8.207-20.834-8.207-20.834s-24.614,23.354-44.186,39.77
		c-19.571,16.41-30.298,25.881-44.188,33.457c-13.886,7.576-23.355,15.779-23.355,15.779l8.838,6.313c0,0-6.944,1.895,1.893,11.365
		c8.837,9.469,27.775,30.932,27.775,30.932l17.042,3.156l103.518-6.314c0,0,11.995-14.518,5.682-30.297
		c-6.313-15.777-8.207-23.355-11.359-33.459c-3.155-10.1-2.525-15.146-2.525-15.146l10.732-1.894c0,0-11.993-8.838-13.887-10.102
		c-1.896-1.263-5.684-10.729-15.149-14.517C372.368,260.973,369.212,256.557,369.212,256.557z"/>
	<path fill="#D9A988" d="M415.293,257.188c-10.168-1.814-15.508-3.722-23.258,3.897c0.317,2.006,2.492,8.457,3.708,10.554
		c8.255-0.44,18.89-4.605,20.812-12.56"/>
	<g>
		<g>
			<g>
				<g>
					<path fill="#020202" d="M170.885,137.08c1.903,0.979,4.321,0.903,5.992-0.499c-0.733-1.683-3.556,0.348-5.419-0.611
						c-1.695-0.873-1.162-3.557-3.011-3.168c-0.148,1.866,0.787,3.415,2.443,4.271"/>
				</g>
			</g>
			<g>
				<g>
					<path fill="#020202" d="M174.331,129.637c-1.189,0.677-2.296,3.271-0.91,3.773c1.272,0.113,4.423-1.529,2.229-2.611
						c-0.353,0.48-0.884,1.039-1.46,1.227c0.57-3.067,3.416,0.324,4.079-1.986c-1.123-0.71-2.731-1.162-3.969-0.46"/>
				</g>
			</g>
			<g>
				<g>
					<path fill="#020202" d="M182.219,123.135c-1.128,0.677-1.55,2.068-1.441,3.315c1.938,0.392,0.848-1.443,2.11-2.203
						c1.494-0.896,0.633,2.04,2.479,1.744c0.217-1.76-0.966-4.207-3.164-2.888"/>
				</g>
			</g>
			<g>
				<g>
					<path fill="#020202" d="M187.463,120.877c2.524,2.003-1.041,4.639,0.821,5.799c1.998-1.783,2.135-5.101-0.021-6.813
						c-0.246,0.307-0.704,0.689-0.857,1.049"/>
				</g>
			</g>
			<g>
				<g>
					<path fill="#020202" d="M201.347,135.907c-5.274,0.362-8.715,1.742-12.832,5.055c-2.009,1.617-4.576,3.274-5.57,5.741
						c-0.508,1.259-0.128,2.492-0.224,3.793c-0.094,1.262-1.547,1.805,0.03,2.627c2.049-2.16,0.636-5.135,2.469-7.5
						c1.472-1.896,3.366-3.437,5.226-4.923c3.728-2.984,7.423-3.52,12.049-3.845c0.22-1.021-0.131-1.32-1.143-0.97"/>
				</g>
			</g>
			<g>
				<g>
					<path fill="#020202" d="M193.02,143.667c-1.156,0.929-6.056,3.448-4.119,4.839c1.641-1.315,3.285-2.541,4.925-3.862
						c1.11-0.892,5.295-2.975,3.39-4.327c-1.4,1.13-2.78,2.242-4.18,3.374"/>
				</g>
			</g>
			<g>
				<g>
					<path fill="#020202" d="M187.67,135.859c-0.96,2.311-3.083,1.811-4.781,2.974c-2.337,1.17-1.878,5.243-1.604,7.301
						c2.164,0.292,0.923-3.38,1.466-4.958c0.501-1.456,1.927-1.39,3.187-1.894c2.025-0.81,2.38-3.582,4.185-4.152
						c1.792-0.566,4.075,0.301,5.888,0.58c0.777-1.734-1.202-1.623-2.399-1.805C191.451,133.573,188.68,133.436,187.67,135.859"/>
				</g>
			</g>
			<g>
				<g>
					<path fill="#020202" d="M160.322,127.997c-3.766,2.341-5.853,5.453-8.192,9.144c-0.694,1.092-3.759,4.215-1.66,5.066
						c1.557-1.835,2.766-4.139,4.013-6.182c1.318-2.161,2.628-4.188,4.688-5.706c1.295-0.955,3.693-1.697,4.293-3.304
						c-1.236-0.948-1.985,0.491-3.041,1.146"/>
				</g>
			</g>
			<g>
				<g>
					<path fill="#020202" d="M195.677,100.89c-4.608,1.976-9.477,3.984-12.455,8.237c1.265,1.562,2.387-0.611,3.357-1.513
						c1.796-1.661,3.875-3.178,6.13-4.145c2.811-1.207,5.802-2.306,8.285-4.113c-0.708-1.925-4.001,0.685-5.429,1.26"/>
				</g>
			</g>
			<g>
				<g>
					<path fill="#020202" d="M145.951,115.971c-5.12,5.547-11.491,12.258-11.354,20.352c2.004,0.537,1.375-2.605,1.768-3.995
						c0.683-2.413,1.803-4.678,3.181-6.758c2.427-3.665,5.426-6.876,8.39-10.103c-0.854-1.393-1.326-0.435-2.094,0.402"/>
				</g>
			</g>
			<g>
				<g>
					<path fill="#020202" d="M176.323,93.379c1.045,1.667,1.913-0.489,2.927-1.282c1.906-1.492,4.181-2.538,6.452-3.357
						c1.966-0.708,4.048-1.098,6.132-1.266c1.392-0.112,4.436,0.732,4.156-1.334c-6.896-1.005-15.057,2.014-19.711,7.208"/>
				</g>
			</g>
			<g>
				<g>
					<path fill="#020202" d="M136.052,166.915c-1.649,7.002,6.824,10.117,11.384,12.902c2.412,1.471,4.704,3.104,6.971,4.785
						c1.495,1.104,1.444,0.769,2.628-0.729c-4.38-3.432-9.146-6.59-14.121-9.074c-2.426-1.211-4.956-3.156-5.229-6.016
						c-0.084-0.893,0.01-2.277,0.793-2.863c0.727-0.549,0.653-0.959,0.653-1.994c-1.645,0-2.828,1.498-3.176,2.967"/>
				</g>
			</g>
			<g>
				<g>
					<path fill="#020202" d="M228.034,95.309c-1.455,0.61-2.644,2.215-2.901,3.745c1.708,0.286,1.757,0.495,2.595-0.88
						c1.341-2.213,3.52-0.827,5.03,0.426c4.289,3.564,5.299,8.975,7.154,13.903c1.19,3.163,6.686,9.389,2.124,11.953
						c-1.491,0.837-3.233,1.29-4.91,1.189c-1.243-0.074-1.067,0.67-1.268,1.876c2.487,0.419,5.702,0.021,7.812-1.409
						c4.681-3.171,0.939-8.579-0.882-12.253c-1.866-3.759-2.953-7.737-4.919-11.476c-1.672-3.172-5.69-9.137-9.951-7.35"/>
				</g>
			</g>
			<g>
				<g>
					<path fill="#020202" d="M232.632,117.15c3.64,5.993,5.799,13.016,8.453,19.474c2.421,5.896,4.685,13.425,9.613,17.75
						c0.246-0.283,1.382-1.307,1.396-1.652c-1.03-0.905-1.951-1.969-2.726-3.094c-2.256-3.275-3.871-7.012-5.447-10.648
						c-3.244-7.487-5.298-15.894-9.551-22.889c-0.539,0.326-0.846,0.588-1.384,0.916"/>
				</g>
			</g>
			<g>
				<g>
					<path fill="#020202" d="M135.212,159.47c8.03,8.611,14.083,19.626,26.161,23.046c4.96,1.402,10.14,2.926,15.25,3.521
						c5.44,0.637,11.751,0.84,17.012-1.035c-0.788-2.203-1.059-1.893-3.319-1.453c-2.916,0.563-5.9,0.658-8.854,0.492
						c-5.657-0.314-11.25-1.336-16.795-2.453c-13.389-2.697-19.728-13.846-28.368-23.114c-0.463,0.432-0.665,0.632-1.127,1.062"/>
				</g>
			</g>
			<g>
				<g>
					<path fill="#020202" d="M188.717,183.82c-0.008,0.468,0.36,1.38,0.481,1.837c19.655-5.23,39.096-18.275,47.681-37.316
						c-1.983-1.675-2.452,1.619-3.248,3.051c-1.337,2.4-2.896,4.627-4.583,6.793c-3.555,4.55-7.428,8.927-12.059,12.369
						c-8.36,6.217-18.308,10.205-28.373,12.885"/>
				</g>
			</g>
		</g>
		<g>
			<g>
				<path fill="#020202" d="M230.158,102.095c-1.251,2.608,0.197,5.956,1.136,8.42c0.558,1.465,0.873,5.546,2.634,5.419
					c0.76-3.394-2.202-7.145-2.754-10.419c-0.246-1.456-0.152-3.102,1.106-4.045c0.921-0.689,2.275-0.583,1.333-1.976
					c-1.36,0.437-2.636,1.36-3.274,2.688"/>
			</g>
		</g>
		<g>
			<g>
				<path fill="#020202" d="M233.02,107.88c2.957,1.222,3.813,3.695,3.852,6.684c0.036,2.836-0.351,2.814,2.384,3.574
					c0.68-1.297-0.344-0.899-0.55-1.449c-0.218-0.059-0.282-0.176-0.499-0.238c0.017-1.016-0.062-2.019-0.133-3.036
					c-0.219-3.082-1.636-5.424-4.58-6.64c-0.15,0.362-0.442,0.746-0.49,1.131"/>
			</g>
		</g>
	</g>
	<g>
		<g>
			<path fill="#020202" d="M172.683,201.294c-5.838,8.213-12.063,18.226-14.616,28.119c-2.01,7.791-0.512,18.537,0.315,26.508
				c1.91,18.416,11.666,30.156,27.105,39.951c1.231-1.947,1.201-2.315-0.829-3.688c-2.638-1.785-5.526-3.313-7.907-5.43
				c-4.03-3.58-16.159-12.842-17.289-38.738c-0.483-11.088,0.772-22.293,6.179-32.174c2.906-5.313,17.319-24.242,18.895-30.15
				c-0.324-0.084-2.109-0.842-2.372-0.692c-0.504,1.894-0.871,3.836-1.792,5.553C178.285,194.438,175.237,197.706,172.683,201.294"
				/>
		</g>
	</g>
	<g>
		<g>
			<path fill="#020202" d="M181.71,297.1c4.431,15.026,14.185,28.432,22.833,41.274c4.103,6.09,9.506,11.147,14.015,16.938
				c2.555,3.28,5.065,6.692,6.843,10.469c0.828,1.758,1.289,3.688,1.83,5.555c0.471,1.631,1.406,0.963,2.865,0.592
				c-3.604-14.229-16.19-24.57-24.154-36.393c-4.715-6.99-9.578-13.879-13.718-21.232c-2.144-3.799-3.695-7.859-5.362-11.896
				c-0.706-1.71-1.54-3.329-2.097-5.097c-0.468-1.479-1.623-0.683-2.947-0.289"/>
		</g>
	</g>
	<g>
		<g>
			<path fill="#020202" d="M264.088,145.612c-4.642,0.759-9.292,1.862-14.016,1.558c-1.917-0.12-3.685-0.502-5.436-1.316
				c-1.848-0.865-1.542-0.753-2.682,0.904c5.494,3.776,12.718,2.952,18.893,2.008c5.994-0.918,11.954-1.982,18.028-2.216
				c6.002-0.234,11.989,0.38,17.535,2.78c3.298,1.429,6.789,2.816,9.523,5.146c1.574,1.339,2.267,3.702,3.644,5.241
				c0.366-0.032,1.101-1.115,1.391-1.374c-6.208-6.942-13.798-12.452-23.061-13.831
				C280.001,143.331,271.903,144.335,264.088,145.612"/>
		</g>
	</g>
	<g>
		<g>
			<path fill="#020202" d="M286.62,159.632c7.85,1.755,13.625,9.923,17.716,16.128c5.399,8.193,10.664,15.924,17.355,23.164
				c6.896,7.465,13.966,14.74,20.897,22.168c3.325,3.557,6.271,7.418,9.167,11.338c1.42,1.924,3.507,3.414,4.749,5.457
				c0.833,1.363,0.405,4.535,2.189,2.805c-9.375-17.381-24.908-29.944-37.89-44.428c-6.361-7.096-11.147-14.992-16.467-22.833
				c-4.139-6.105-9.64-13.51-17.355-15.235c-0.103,0.461-0.074-0.306-0.047,0.162"/>
		</g>
	</g>
	<g>
		<g>
			<path fill="#020202" d="M188.975,251.939c6.041,5.009,13.936,6.957,17.992,14.101c4.14,7.299,6.847,15.058,11.465,22.142
				c9.133,14.008,20.322,26.94,33.444,37.229c1.191-0.879,1.531-2.027,0.525-2.834c-2.007-1.601-4.695-2.392-6.637-4.076
				c-3.472-3.021-6.695-6.385-9.913-9.681c-6.263-6.407-11.257-13.938-16.154-21.438c-4.82-7.396-8.055-15.346-12.657-22.799
				c-2.301-3.728-5.342-6.185-8.994-8.51c-2.052-1.313-3.594-3.382-5.585-4.781c-1.209-0.853-2.09-1.701-2.923,0.187"/>
		</g>
	</g>
	<g>
		<g>
			<path fill="#020202" d="M325.604,264.934c-14.151,12.862-26.173,25.188-41.919,36.121c-5.597,3.887-13.169,8.629-19.292,11.59
				c-7.181,3.479-14.532,7.694-18.716,14.846c2.19,1.277,1.464,0.303,3.032-1.615c1.774-2.168,3.83-4.115,6.142-5.682
				c4.229-2.865,8.574-5.687,13.152-7.928c11.493-5.627,21.579-13.007,31.312-21.226c11.491-9.713,22.792-19.604,33.941-29.697
				c5.707-5.165,11.724-9.977,17.563-14.985c2.741-2.351,4.614-5.74,7.414-8.021c1.381-1.131,4.137-0.771,5.539-1.877
				c-0.015-0.369-2.146-2.547-2.391-2.853c-12.405,9.822-23.563,21.234-35.262,31.879"/>
		</g>
	</g>
	<g>
		<g>
			<path fill="#020202" d="M249.092,324.548c2.347,1.718,4.574,3.604,6.928,5.312c2.661,1.924,5.212,3.979,7.631,6.203
				c0.383,0.354,2.656,2.567,2.893,2.354c0.416-0.387,0.976-0.76,1.39-1.148c-3.855-4.147-8.474-7.403-13.028-10.731
				c-1.243-0.906-2.487-1.808-3.732-2.711c-1.299-0.951-1.09-0.354-2.055,0.924"/>
		</g>
	</g>
	<g>
		<g>
			<path fill="#020202" d="M282.567,331.716c-6.314,4.49-11.653,7.574-19.472,7.142c-2.374-0.133-5.353-0.808-7.319-2.316
				c-3.015-2.326,2.851-4.906,0.614-6.164c-9.732,9.773,10.277,10.23,15.791,8.85c5.333-1.334,10.033-5.389,14.503-8.371
				c2.474-1.655,4.865-3.385,7.688-4.354c1.402-0.48,2.805-0.959,4.266-1.211c1.253-0.215,3.034-0.205,2.371-1.979
				c-7.045,0.649-13.007,4.094-18.651,8.108"/>
		</g>
	</g>
	<g>
		<g>
			<path fill="#020202" d="M346.682,292.71c-6.045,4.422-12.479,8.319-18.464,12.824c-5.913,4.45-11.021,10.014-17.147,14.172
				c-3.567,2.418-7.712,3.924-11.469,6.041c-2.154,1.215-3.96,3.094-6.179,4.188c-1.216,0.604-4.553,0.787-3.129,2.496
				c17.022-7.84,31.913-19.172,46.786-30.371c11.588-8.729,22.851-17.68,33.637-27.41c-0.979-1.981-2.265,1.423-3.291,2.302
				c-2.077,1.776-3.84,3.952-5.991,5.633c-4.7,3.656-9.87,6.715-14.686,10.224"/>
		</g>
	</g>
	<g>
		<g>
			<path fill="#020202" d="M369.135,274.523c2.938,9.031,7.92,18.604,15.717,24.461c-14.271,9.05-26.676,20.953-40.03,31.238
				c-6.444,4.969-13.314,9.496-20.334,13.633c-3.488,2.056-7.596,2.916-11.275,4.599c-1.841,0.846-3.193,2.846-5.081,3.569
				c-1.181,0.457-2.98,0.525-1.896,2.082c31.273-11.121,53.166-37.731,80.762-54.895c-3.714-2.563-6.643-6.301-9.091-10.086
				c-1.736-2.684-4.101-5.09-5.353-8.027c-0.623-1.457-1.229-2.969-1.766-4.457c-0.426-1.201-0.354-3.147-1.958-2.104"/>
		</g>
	</g>
	<g>
		<g>
			<path fill="#020202" d="M358.924,232.96c0.234,6.008,2.287,11.638,4.664,17.072c1.32,3.036,2.835,5.997,3.742,9.19
				c0.143,0.502,0.748,3.578,1.035,3.533c0.563-0.092,1.351-0.021,1.91-0.113c-0.957-5.947-4.08-11.227-6.366-16.735
				c-1.229-2.964-2.326-6.048-2.875-9.218c-0.091-0.52-0.104-3.932-0.391-3.914c-0.563,0.019-1.029,0.164-1.599,0.187"/>
		</g>
	</g>
	<g>
		<g>
			<path fill="#020202" d="M364.367,250.505c4.259,7.896,12.188,12.172,19.412,16.981c3.457,2.302,6.644,5.082,9.303,8.312
				c1.32,1.606,2.396,3.363,3.213,5.279c0.615,1.442,1.012,0.791,2.345,0.303c-3.033-8.269-10.722-12.836-17.757-17.422
				c-3.646-2.371-7.258-4.922-10.326-8.026c-1.556-1.574-2.729-3.485-3.866-5.388c-0.836-1.392-1.332-0.631-2.614,0.063"/>
		</g>
	</g>
	<g>
		<g>
			<path fill="#020202" d="M404.249,290.456c-6.611,1.633-13.274,3.301-19.502,6.137c0.207,1.298,0.428,0.791,1.473,0.347
				c1.903-0.812,3.955-1.269,5.93-1.896c3.672-1.185,7.391-2.229,11.137-3.153c2.879-0.72,5.771-1.363,8.646-2.103
				c0.104-2.414-6.138,0.321-7.666,0.719"/>
		</g>
	</g>
	<g>
		<g>
			<path fill="#020202" d="M368.129,258.458c0.246,2.931,0.523,5.867,0.586,8.81c0.043,2.02,0.085,4.078-0.311,6.061
				c-0.267,1.346-2.054,3.533,0.006,3.822c1.742-3.979,1.576-8.506,1.288-12.752c-0.081-1.269,0.468-6.943-1.701-6.103"/>
		</g>
	</g>
	<g>
		<g>
			<path fill="#020202" d="M290.083,332.657c6.636,6.217,9.586,15.411,16.154,21.67c1.788-1.063-0.479-2.438-1.325-3.455
				c-1.752-2.121-3.178-4.483-4.662-6.799c-2.77-4.322-5.631-8.687-9.406-12.224c-0.268,0.283-0.487,0.387-0.667,0.732"/>
		</g>
	</g>
	<g>
		<g>
			<path fill="#020202" d="M303.541,363.739c-2.972,3.5-5.878,7.188-7.972,11.303c1.641,1.506,2.901-2.25,3.741-3.449
				c1.673-2.385,3.385-4.75,5.27-6.969c3.486-4.115,7.219-8.217,9.393-13.207c-1.709-1.381-3.504,3.336-4.398,4.662
				c-1.828,2.7-3.593,5.457-5.702,7.938"/>
		</g>
	</g>
	<g>
		<g>
			<path fill="#020202" d="M399.248,294.441c3.479,8.978,2.267,18.808,5.159,27.929c1.495-0.479,1.584,0.026,1.118-1.687
				c-0.8-2.924-1.113-5.983-1.399-9.002c-0.578-6.053-0.612-12.309-2.83-18.047c-0.591,0.23-1.462,0.551-2.05,0.777"/>
		</g>
	</g>
	<g>
		<g>
			<path fill="#020202" d="M400.759,316.245c2.982,10.717,11.661,18.94,14.259,29.801c2.367,9.897-4.442,15.287-8.095,23.629
				c2.087,0.921,1.604,0.578,2.739-1.549c1.309-2.446,3.285-4.479,4.756-6.826c2.783-4.446,3.111-9.104,2.104-14.315
				c-1.282-6.627-4.244-12.664-7.614-18.398c-1.781-3.033-3.329-6.154-4.674-9.412c-0.195-0.473-1.521-3.258-1.802-3.184
				c-0.549,0.148-1.547,0.182-2.089,0.328"/>
		</g>
	</g>
	<g>
		<g>
			<path fill="#020202" d="M254.402,336.747c8.289,13.926,20.309,27.076,33.153,36.916c1.202-1.57,1.626-1.854-0.025-3.179
				c-1.884-1.516-4.09-2.645-5.875-4.271c-3.886-3.545-7.505-7.405-11.03-11.309c-3.455-3.824-6.715-7.837-9.768-11.986
				c-1.349-1.838-2.342-3.907-3.557-5.838c-1.081-1.711-1.105-1.396-2.738-0.422"/>
		</g>
	</g>
	<g>
		<g>
			<path fill="#020202" d="M413.316,289.952c14.346,9.231,29.136,17.728,43.186,27.432c6.501,4.494,12.54,9.548,18.173,15.101
				c2.745,2.699,5.318,5.51,7.745,8.498c1.246,1.533,2.907,2.75,4.063,4.363c0.988,1.379,1.432,0.538,2.647-0.313
				c-9.211-13.203-22.006-23.378-35.375-32.173c-6.679-4.396-13.299-8.928-20.186-12.981c-4.146-2.442-8.677-4.229-12.774-6.739
				c-1.896-1.16-4.028-1.964-5.902-3.16c-1.556-0.992-1.262-0.648-2.117,0.688"/>
		</g>
	</g>
	<g>
		<g>
			<path fill="#020202" d="M485.438,340.857c2.62,6.488,5.807,12.73,8.482,19.193c1.396,3.373,2.288,6.926,3.189,10.465
				c0.42,1.648,0.874,3.303,1.146,4.982c0.327,0.17,1.278-0.229,1.657-0.289c-1.161-7.121-3.415-13.891-6.396-20.432
				c-1.492-3.297-3.219-6.49-4.695-9.801c-0.691-1.55-1.437-3.052-2.067-4.621c-0.352-0.099-1.47,0.533-1.829,0.684"/>
		</g>
	</g>
	<g>
		<g>
			<path fill="#020202" d="M391.389,277.846c6.45,4.086,12.956,8.088,19.386,12.213c0.147-0.238,1.192-1.668,1.021-1.775
				c-1.083-0.693-2.194-1.332-3.271-2.025c-1.333-0.854-2.75-1.572-4.085-2.414c-4.014-2.551-7.864-5.389-11.881-7.934
				c-0.329,0.536-0.568,1.342-0.896,1.877"/>
		</g>
	</g>
	<g>
		<g>
			<path fill="#020202" d="M417.304,356.626c7.577,2.158,15.505,2.875,23.184,4.631c3.36,0.771,6.646,2.041,9.766,3.527
				c1.231,0.584,2.595,0.979,3.63,1.879c0.348-0.063,0.882-0.972,1.124-1.256c-4.99-4.314-12.572-5.921-18.824-7.121
				c-3.963-0.761-8.036-0.925-12.001-1.666c-1.851-0.345-3.602-1.106-5.423-1.574c-1.396-0.36-1.248,0.705-1.604,1.947"/>
		</g>
	</g>
	<g>
		<g>
			<path fill="#020202" d="M398.063,237.307c10.715,2.332,16.901,11.633,25.435,17.588c0.326-0.461,0.761-0.681,1.084-1.14
				c0.182-0.256-2.78-2.299-3.18-2.633c-2.44-2.037-4.788-4.179-7.139-6.313c-4.623-4.203-9.587-8.135-15.793-9.479
				c-0.135,0.612-0.265,1.348-0.397,1.965"/>
		</g>
	</g>
	<g>
		<g>
			<path fill="#020202" d="M395.482,254.161c0.373,1.864,3.824-0.218,5.479-0.119c3.57,0.215,6.962,1.83,10.342,2.896
				c4.265,1.352,11.062,3.537,13.6-1.758c-1.396-1.263-2.278,1.497-3.848,1.95c-2.286,0.664-4.979-0.051-7.179-0.683
				c-5.627-1.618-12.867-5.557-18.621-2.569"/>
		</g>
	</g>
	<g>
		<g>
			<path fill="#020202" d="M424.634,258.282c2.104,3.133,4.483,6.258,5.852,9.801c0.479,1.258,1.85,5.094-0.025,5.41
				c-1.946,0.33-1.824-0.162-2.052,1.842c1.656,0.188,4.077,0.158,4.809-1.244c0.328-3.051-0.604-6.098-1.98-8.793
				c-1.132-2.2-2.482-4.282-3.86-6.329c-1.188-1.771-1.117-1.731-2.879-0.593"/>
		</g>
	</g>
	<g>
		<g>
			<path fill="#020202" d="M417.374,262.639c1.732,2.2,3.627,4.286,5.33,6.512c1.634,2.127,3.051,4.432,3.873,7.014
				c0.466,1.467-0.147,4.879,1.894,4.467c0.405-5.572-2.843-10.273-6.171-14.371c-0.975-1.193-3.349-5.566-4.761-3.717"/>
		</g>
	</g>
	<g>
		<g>
			<path fill="#020202" d="M411.183,267.706c2.211,4.619,8.282,16.867,14.977,14.5c-0.085-1.733-1.521-0.813-2.733-1.222
				c-1.956-0.661-3.63-2.256-4.931-3.789c-1.638-1.926-3.016-4.098-4.279-6.278c-0.681-1.179-1.339-4.64-2.94-3.196"/>
		</g>
	</g>
	<g>
		<g>
			<path fill="#020202" d="M405.213,272.982c1.949,4.271,4.688,10.045,9.296,12.068c4.629,2.037,6.481-1.41,4.328-5.605
				c-2.634,0.498,1.274,4.224-1.039,4.744c-1.519,0.347-2.932-0.379-4.146-1.276c-1.832-1.353-3.312-3.183-4.479-5.103
				c-0.827-1.36-2.157-6.309-3.917-4.85"/>
		</g>
	</g>
	<g>
		<g>
			<path fill="#020202" d="M406.595,278.102c0.799,1.563,1.836,4.938-0.92,5.157c-2.274,0.183-2.063-0.711-2.766,1.563
				c5.548,1.719,7.848-2.938,5.448-7.631c-0.563,0.289-1.18,0.602-1.736,0.889"/>
		</g>
	</g>
	<g>
		<g>
			<path fill="#020202" d="M400.229,280.249c1.782,0.672,1.314-1.326,2.039-2.435c0.831-1.274,3.45-1.461,2.413-3.119
				c-2.581,0.736-4.251,2.878-4.458,5.533"/>
		</g>
	</g>
	<g>
		<g>
			<path fill="#020202" d="M404.212,267.827c-2.97,1.67-5.958,3.313-8.927,4.979c0.535,2.394,6.09-1.992,7.387-2.723
				c5.271-2.963,10.691-5.715,15.771-9.006c-0.721-2.227-4.044,0.805-5.309,1.551c-2.961,1.75-5.896,3.553-8.914,5.201"/>
		</g>
	</g>
	<g>
		<g>
			<path fill="#020202" d="M304.857,153.161c3.249,3.007,6.369,6.169,9.485,9.319c4.671,4.719,7.996,10.582,12.24,15.688
				c4.438,5.34,9.596,9.887,14.222,15.027c2.729,3.029,4.948,6.934,8.531,8.916c11.669,6.471,18.547,14.928,23.147,19.555
				c8.797,8.838,19.049,16.354,31.989,17.104c0.032-0.563,0.317-0.188,0.354-0.75c0.016-0.268-3.826-1.291-4.403-1.399
				c-3.413-0.658-6.792-1.267-9.877-2.854c-5.805-2.981-10.2-7.887-14.852-12.426c-4.992-4.869-10.041-9.768-15.359-14.289
				c-3.032-2.574-7.189-3.602-9.805-6.561c-10.677-12.104-19.572-18.268-24.113-23.855c-4.396-5.412-6.806-12.283-11.817-17.17
				c-2.119-2.069-4.235-4.162-6.412-6.171c-1.695-1.571-2.079-1.691-3.669-0.002"/>
		</g>
	</g>
	<g>
		<g>
			<path fill="#020202" d="M387.941,246.292c-1.093,1.726-2.112,3.608-3.707,4.92c-1.191,0.981-4.063,0.869-3.429,2.688
				c3.657-0.188,5.922-3.291,7.737-6.119c0.733-1.139,3.332-3.469,1.288-4.209c-0.605,0.9-1.188,1.881-1.792,2.781"/>
		</g>
	</g>
	<g>
		<g>
			<path fill="#020202" d="M234.375,308.88c12.738,18.177,18.895,39.636,27.412,59.865c2.566-0.332,0.513-2.709-0.096-4.213
				c-1.14-2.826-1.813-5.835-2.897-8.683c-2.069-5.43-4.546-10.699-6.687-16.104c-4.416-11.131-8.658-22.576-15.555-32.422
				c-0.39,0.275-1.243,0.752-1.542,1.115"/>
		</g>
	</g>
	<g>
		<g>
			<path fill="#020202" d="M178.536,182.518c2.284,2.807,3.747,6.178,4.47,9.727c0.372,1.813,0.551,3.646,0.498,5.492
				c0.266,0.229,1.631,0.041,2.006,0.053c0.175-5.953-1.856-11.719-5.625-16.352c-0.491,0.396-0.922,0.723-1.411,1.119"/>
		</g>
	</g>
	<g>
		<g>
			<path fill="#020202" d="M212.327,232.415c1.906,1.047,3.923,0.174,3.54,2.942c-1.032,1.037-3.212,0.023-4.515-0.219
				c-0.799,2.312,4.648,2.584,5.664,0.781c1.854-3.295-4.109-5.895-4.629-3.553"/>
		</g>
	</g>
	<g>
		<g>
			<path fill="#020202" d="M288.567,180.548c0.07,0.125,0.124,0.229,0.193,0.356c-0.153-0.165-0.323-0.271-0.476-0.438
				c-1.177,0.373-1.038,4.07-1.004,5.021c0.045,1.17,1.44,0.713,2.371,0.701c2.132-0.025,3.13,0.396,2.743-2.31
				c-0.21-1.457-2.441-4.291-3.895-3.353 M289.038,181.402c0.758,0.986,2.119,1.574,2.119,2.988c0,0.969-1.863,0.576-2.667,0.566
				c0.024-1.16,0.237-2.396,0.532-3.516"/>
		</g>
	</g>
	<g>
		<g>
			<path fill="#020202" d="M312.914,274.57c1.686,0.82,1.226-1.088,2.488-1.698c1.082-0.522,2.471,0.305,2.157-1.463
				c-2.241-0.252-4.292,0.817-4.681,3.161"/>
		</g>
	</g>
	
		<line id="NippleLine" fill="none" stroke="#364B9E" stroke-width="3" stroke-miterlimit="10" x1="128.061" y1="293.714" x2="363.766" y2="133.316"/>
	<g id="Hand">
		<rect id="FingersGlow" fill-opacity="0" width="100" height="100"/>
		
			<image overflow="visible" enable-background="new    " width="280" height="131" id="Fingers" xlink:href="fingers.png"  transform="matrix(1.0002 0 0 1.0002 -8026.0322 -7861.5156)">
		</image>
		<rect id="FingersTarget" x="419.912" y="74.089" fill="#D9A988" fill-opacity="0" width="41.716" height="37.302"/>
		<polygon id="FingersClick" fill="#D9A988" fill-opacity="0" points="422.939,95.458 474.776,37.434 494.247,74.34 
			441.477,122.728 		"/>
	</g>
	<rect id="CompressionsTarget" x="246.534" y="204.191" fill="#D9A988" fill-opacity="0" width="27.513" height="23.728"/>
	<rect id="FingersTargetFixed" x="419.913" y="74.089" fill="#D9A988" fill-opacity="0" width="41.715" height="37.3"/>
	<g>
		<g>
			<path fill="#020202" d="M142.581,64.036c-12.306,5.443-23.591,17.482-28.366,30.382c-2.716,7.336-4.887,19.812-3.521,28.22
				c1.379,8.485,6.095,18.696,10.67,26.157c4.575,7.463,15.285,14.69,15.285,14.69l0.381-2.024
				c-17.942-12.111-21.871-26.813-23.731-36.713c-1.105-12.743-2.136-17.214,2.687-29.938c4.357-11.492,13.985-22.154,24.566-27.884
				c11.044-5.984,23.922-8.627,35.77-6.791c6.143,0.951,13.288,2.327,19.163,5.248c3.307,1.644,10.188,6.146,11.615,7.18
				c4.82,4.229,12.803,8.567,20.241,21.284c0,0,1.337,0.77,1.243-0.371c-0.093-1.141-7.557-11.898-20.161-23.164
				c-10.089-7.294-18.856-10.247-30.64-11.942C166.374,56.731,153.464,59.22,142.581,64.036"/>
		</g>
	</g>
	<path fill="#D8E7F0" d="M231.046,94.927c0-2.537-5.707-6.975-8.243-12.682s-13.315-7.609-13.315-7.609
		s-10.145-11.413-25.996-15.851c-15.851-4.438-39.945-5.072-60.235,12.681s-16.485,36.141-13.315,44.384
		c3.171,8.243,4.438,13.949,5.072,19.022c0.635,5.072,0,17.753,8.243,22.192c8.243,4.438,8.243,4.438,8.243,4.438
		s-4.438-36.775-1.902-46.92c2.536-10.145,28.533-24.093,47.554-31.068c19.021-6.975,32.971,1.269,39.311,3.805
		c6.341,2.536,12.681,8.243,12.681,8.243L231.046,94.927z"/>
	<g>
		<g>
			<path fill="#231F20" d="M174.848,83.31c-17.88,6.052-33.776,17.836-48.086,29.798c0.916,2.016,2.084,0.615,3.287-0.376
				c2.043-1.687,3.93-3.595,6.011-5.234c4.396-3.462,9.885-5.446,14.526-8.572c8.478-5.709,17.119-11.454,26.925-14.49
				c8.488-2.628,17.661-4.131,26.386-2.165c4.745,1.069,8.758,4.199,12.95,6.657c2.14,1.256,4.801,1.713,6.761,3.234
				c1.302,1.009,3.02,3.718,4.149,1.373C212.762,80.415,193.646,76.947,174.848,83.31"/>
		</g>
	</g>
	<g>
		<g>
			<path fill="#231F20" d="M134.145,165.286c2.076-0.961-0.384-1.869-1.064-3.35c-0.954-2.077-0.875-4.519-1.39-6.74
				c-1.391-6.009-2.736-12.115-2.869-18.27c-0.128-5.959,0.403-12.001,1.408-17.884c0.4-2.345,0.548-4.84,1.371-7.077
				c0.589-1.604,2.932-3.713,0.712-4.554c-5.404,7.591-4.68,20.287-4.516,29.125c0.106,5.815,0.608,11.621,1.766,17.328
				c0.806,3.975,1.192,8.936,3.833,12.151"/>
		</g>
	</g>
	<g>
		<g>
			<path fill="#231F20" d="M129.015,91.173c-7.308,7.44-9.675,18.181-11.019,28.32c-0.712,5.376-0.906,10.764-0.971,16.183
				c-0.033,2.487-0.181,4.969-0.177,7.458c0.001,1.174,0.162,2.703,1.874,2.189c-0.007-11.087-0.445-22.374,2.237-33.216
				c3.16-12.783,11.247-21.375,21.795-28.867c9.591-6.811,20.297-11.25,32.063-12.12c5.867-0.434,11.822-1.108,17.612-0.099
				c3.312,0.577,6.665,1.283,9.891,2.224c1.503,0.439,3.091,0.716,4.573,1.222c1.195,0.408,2.59,1.658,2.746-0.222
				c-13.749-5.02-28.866-6.19-43.34-3.116C152.146,74.134,139.055,80.951,129.015,91.173"/>
		</g>
	</g>
	<g>
		<g>
			<path fill="#231F20" d="M207.729,75.298c6.158,0.512,10.287,2.881,13.856,7.834c2.071,2.872,3.931,5.891,6.556,8.29
				c1.129,1.032,2.197,1.721,2.106,3.372c-0.026,0.47,1.604,0.502,2.044,0.574c0.473-2.906-1.929-4.363-3.774-6.177
				c-2.307-2.268-3.959-5.058-5.861-7.656c-3.75-5.122-8.439-7.252-14.784-7.78c-0.054,0.633-0.078,0.93-0.13,1.563"/>
		</g>
	</g>
	<g>
		<g>
			<path fill="#231F20" d="M135.891,61.962c-12.894,5.86-24.099,18.604-28.152,32.163c-2.306,7.711-1.124,15.265,1.562,22.698
				c1.37,3.787,3.96,7.224,5.008,11.119c0.532,1.987,0.446,4.223,0.599,6.276c0.134,1.761-0.702,1.236,0.864,1.19
				c-0.421-14.411-10.656-26.025-6.073-40.898c3.722-12.079,13.248-23.361,24.242-29.499c11.478-6.408,25.24-9.345,38.279-7.584
				c6.76,0.912,13.461,3.61,19.631,6.485c3.472,1.619,7.386,2.442,10.65,4.449c1.558,0.957,2.444,3.17,3.962,4.194
				c0.354-0.129,1.455-2.345,1.678-2.675c-10.706-7.233-23.946-12.474-36.901-14.087C158.694,54.231,147.298,56.778,135.891,61.962"
				/>
		</g>
	</g>
	<g>
		<g>
			<path fill="#231F20" d="M135.311,164.751c0.52-0.146,0.84-1.17,1.154-1.853c-5.013-2.306-10.273-4.688-14.231-8.652
				c-2.028-2.031-3.777-4.364-4.354-7.195c-0.322-1.583-0.147-3.232,0.029-4.835c-0.209-0.239-1.726-0.178-2.073-0.217
				c-1.38,12.352,10.088,17.994,19.632,22.397"/>
		</g>
	</g>
</g>
</svg>
