<?xml version="1.0" encoding="utf-8"?>
<!-- Generator: Adobe Illustrator 15.0.2, SVG Export Plug-In . SVG Version: 6.00 Build 0)  -->
<!DOCTYPE svg PUBLIC "-//W3C//DTD SVG 1.1//EN" "http://www.w3.org/Graphics/SVG/1.1/DTD/svg11.dtd">
<svg version="1.1" id="Layer_1" xmlns="http://www.w3.org/2000/svg" xmlns:xlink="http://www.w3.org/1999/xlink" x="0px" y="0px"
	 width="640px" height="360px" viewBox="0 0 640 360" enable-background="new 0 0 640 360" xml:space="preserve">
<g>
	<path fill="#78343D" d="M24.554-19.89c0,0,18.354,61.182,11.362,105.758c-6.993,44.575-14.858,51.567-18.354,80.412
		c-3.496,28.842,1.748,69.048,1.748,69.048h284.061c0,0,7.866-50.694-4.371-110.129c-12.236-59.434-25.347-87.403-21.85-119.742
		c3.496-32.339,6.118-36.708,6.118-36.708L24.554-19.89z"/>
	<g>
		<g>
			<path fill="#231F20" d="M25.26-19.813C29.469,3.083,35.754,25.949,37.857,49.15c1.597,17.604-1.35,34.576-5.78,51.664
				c-4.715,18.188-8.99,36.364-12.972,54.736c0.763,0.167,0.004,1.007,0.769,1.173c0.489,0.107,3.138-5.372,3.31-6.097
				c1.246-5.39,0.446-11.272,1.865-16.622c2.587-9.777,6.613-19.171,9.208-28.947c4.841-18.24,6.745-36.13,5.126-54.997
				C37.88,32.591,29.658-8.855,29.017-12.351c-0.424-2.3-1.519-4.475-1.941-6.776c-0.294-1.601-0.846-1.038-2.33-0.77"/>
		</g>
	</g>
	<g>
		<g>
			<path fill="#231F20" d="M275.39,10.221c-0.892,24.288,4.544,50.07,9.884,73.583c3.987,17.547,12.12,34.183,15.33,51.889
				c0.297,1.638,1.221,7.695,1.438,9.348l2.856-0.856c-1.275-7.397-3.225-19.072-5.254-26.152
				c-6.022-21.012-14.107-41.375-17.607-62.984c-2.184-13.489-1.534-27.468-1.737-41.157c-0.109-7.42-1.681-14.922-1.286-22.331
				c0.162-2.993,2.833-5.806,3.085-8.791c0.25-2.919,0.376-2.729-2.653-3.115c-1.309,10.269-3.139,19.976-3.52,30.306"/>
		</g>
	</g>
</g>
<g>
	<rect x="-11.236" y="217.157" fill="#F0F1D9" width="665.718" height="148.386"/>
	<path fill="#D3D7B9" d="M91.647,253.469c-13.53,0.137-45.29,1.071-53.739,12.512c44.364,10.201,92.675-2.918,136.395-1.022
		c2.676,17.94,83.944,12.841,98.58,13.36c35.54,1.271,71.438,3.615,106.756,5.562c6.854,0.378,23.577,3.286,28.728-3.52
		c5.34-7.06-5.242-13.741,0.188-20.029c4.407-5.102,50.354-0.771,57.062-0.811c11.588-0.061,23.812-0.758,35.396,0
		c11.334,0.742,22.941,6.354,34.057,5.965c9.562-0.334,15.086-4.596,23.936-6.822c8.554-2.152,65.694,2.758,69.286-8.521
		c7.184-22.562-257.601-32.396-273.695-33.002c-28.67-1.074-278.483-23.095-268.996,22.881"/>
	<polygon fill="#231F20" points="19.799,216.346 -17.139,216.346 -17.139,215 19.799,215 	"/>
	<polygon fill="#231F20" points="672.753,216.346 634.239,216.346 634.239,215 672.753,215 	"/>
</g>
<path id="bodyfill" fill="#F3BE99" d="M569.786,217.802c-2.582-6.45-9.678-6.45-9.678-6.45s-12.263-7.742-37.418-16.131
	c-25.16-8.385-36.127-8.385-43.868-7.097c-7.738,1.291-36.126,3.228-36.126,3.228l-97.412-41.933
	c-18.709-0.646-46.45-5.16-75.48-2.582c-29.029,2.582-45.284,3.508-61.411,13.829c-16.129,10.325-24.389,14.559-26.971,16.492
	c-1.576,1.183-2.622,1.742-4.374-1.091c-4.166,8.259-10.327,15.328-14.002,23.887c-5.085,11.841-0.153,12.812-1.936,25.399
	c0.95,0.119,8.173-0.17,7.074,2.305c0.397,9.4,7.433,21.111,15.175,24.336c7.742,3.225,33.547,10.322,65.155,14.838
	c31.612,4.516,27.741,10.32,58.062,11.611c30.32,1.291,44.514,1.938,52.256,3.225c7.74,1.292,22.578,2.582,33.545-1.934
	c10.966-4.521,17.418-10.322,17.418-10.322l3.873-10.32c0,0,36.125-5.162,54.189-10.968c18.062-5.808,27.096-8.386,33.547-6.45
	c6.452,1.936,32.896,7.096,45.156,6.45c12.258-0.646,18.709-2.582,18.709-2.582S572.365,224.253,569.786,217.802z"/>
<path fill="#E9B292" d="M438.182,179.093c0,0,9.03-6.451,30.319-2.58c21.291,3.871,24.516,11.611,24.516,11.611l-47.093,3.228
	L438.182,179.093z"/>
<path fill="#B5D1E3" d="M542.044,204.898c0,0,7.098-12.256,19.354-18.062c12.258-5.807,18.71,0,19.354,7.098
	c0.646,7.094,0.646,7.094,0.646,7.094s-10.971,7.742-20,7.742C552.366,208.77,542.044,204.898,542.044,204.898z"/>
<path fill="#D8E7F0" d="M556.884,210.059c0,0,18.062-4.515,36.126-11.605c18.064-7.102,27.739-10.971,33.544-3.873
	c5.812,7.098,5.164,38.062-19.351,48.386c-24.514,10.32-36.129,16.771-47.741,14.188c-11.611-2.574-18.062-8.385-18.062-8.385
	s1.937-1.938,11.607-2.58c9.678-0.646,14.192-10.967,12.902-19.354C564.622,218.445,556.884,210.059,556.884,210.059z"/>
<path fill="#FFFFFF" d="M333.671,142.968c2.22,13.831,12.128,44.25,1.931,56.628c5.193,1.229,10.725,1.896,16.032,2.176
	c0.696,13.121-1.971,33.836-6.93,45.736c12.173,4.315,20.856,4.518,33.46,5.743c8.622,0.834,16.074-1.803,12.247,10.784
	c5.38-4.371,14.472-5.206,21.364-4.544c-3.914-16.53-20.689-50.724-14.558-57.673c14.364-16.271,32.861-9.549,48.589-12.021
	c9.521-29.135-94.396-47.481-112.781-47.481"/>
<path fill="#B5D1E3" d="M583.912,250.105c-12.503,8.149-27.944-4.832-42.277-2.568c7.482,11.923,26.361,14.188,36.897,4.586"/>
<path fill="#E5E6E9" d="M406.387,242.036c-19.604,2.798-40.611,2.888-60.418,3.614c-0.244,1.854-0.293,2.492-0.203,4.354
	c5.243,1.203,14.283,2.135,24.088,2.79c11.713,0.788,23.74,1.781,21.119,10.472c6.816-0.932,13.431-2.992,20.69-3.175
	c-0.771-5.521-2.68-11.026-4.604-16.039"/>
<path fill="#D3A083" d="M265.174,230.605c10.84,0.969,82.658,1.365,80.59,19.396c-22.535-7.521-50.467-10.373-75.208-15.362"/>
<path fill="#D3A083" d="M408.404,248.089c30.972,0,58.556-8.534,87.938-11.581c16.325-1.691,31.059,4.696,46.922,11.651
	c-15.697-0.228-25.48-2.313-39.544-5.282c-12.012-2.537-16.41,0.441-29.08,3.717c-10.694,2.766-65.832,21.303-66.233,3.512"/>
<g>
	<g>
		<g>
			<path fill="#231F20" d="M185.357,256.996c20.453,6.646,42.046,9.587,63.51,10.993c0.024-0.373,0.265-1.5,0.055-1.771
				c-2.427-0.159-4.821-0.3-7.242-0.544c-4.684-0.471-9.405-0.972-14.057-1.699c-10.011-1.562-19.875-4.229-29.667-6.834
				c-8.104-2.156-16.398-3.926-21.902-10.766c-2.523-3.137-3.878-7.012-4.891-10.906c-0.549-2.117-1.695-4.197-1.68-6.385
				c0.012-1.584,0.175-1.059-1.261-1.139C167.604,239.021,174.451,253.458,185.357,256.996"/>
		</g>
	</g>
	<g>
		<g>
			<path fill="#231F20" d="M196.583,206.895c-0.598,2.248,1.258,2.301,2.9,2.35c2.746,0.07,5.57-0.145,8.294,0.22
				c5.414,0.72,10.539,3.021,15.762,4.604c10.5,3.177,20.599,7.397,30.595,11.875c3.735,1.668,7.749,2.738,11.415,4.56
				c7.827,3.881,15.984,9.892,24.976,10.216c0.621-1.894-0.597-0.927-2.046-1.14c-2.256-0.332-4.311-1.831-6.452-2.608
				c-4.93-1.783-9.322-4.723-13.971-7.121c-3.668-1.893-7.692-3.127-11.461-4.812c-18.992-8.487-38.666-17.876-59.915-17.649"/>
		</g>
	</g>
	<g>
		<g>
			<path fill="#231F20" d="M278.725,238.891c-0.26,1.602,0.269,1.602,1.671,1.494c2.383-0.176,4.874,1.262,7.267,1.236
				c5.226-0.053,10.416-0.199,15.623,0.365c10.404,1.132,20.724,2.994,30.89,5.559c10.814,2.727,21.545,5.794,32.314,8.708
				c0.746-1.666,0.514-2.358-0.918-2.747c-2.383-0.645-5.012-0.309-7.396-0.951c-6.066-1.645-12.222-2.933-18.299-4.539
				c-19.966-5.271-40.446-10.543-61.063-8.729"/>
		</g>
	</g>
	<g>
		<g>
			<path fill="#231F20" d="M375.825,253.145c-6.386,0.416-13.164,0.508-19.11,3.121c0.283,2.094,1.258,1.043,2.711,0.564
				c2.719-0.891,5.631-0.979,8.467-1.301c6.299-0.709,12.752-0.729,19.026-1.678c0.281-2.265-1.401-1.901-3.012-1.728
				c-2.697,0.306-5.404,0.376-8.112,0.556"/>
		</g>
	</g>
	<g>
		<g>
			<path fill="#231F20" d="M387.422,253.357c1.857,0.744,2.768,2.845,1.621,4.629c-1.506,2.343-5.109,3.146-7.586,3.918
				c-5.209,1.623-10.773,2.931-14.992,6.591c1.146,2.459,3.276-0.31,4.898-1.134c3.384-1.717,7.015-2.771,10.621-3.896
				c2.785-0.863,6.24-1.628,8.146-4.045c2.11-2.672,0.878-5.945-2.227-7.189c-0.188,0.476-0.521,0.846-0.577,1.342"/>
		</g>
	</g>
	<g>
		<g>
			<path fill="#231F20" d="M398.53,266.771c-2.419,1.313-4.802,3.004-7.558,3.451c-1.949,0.312-5.523-1.553-5.552,1.18
				c5.546,1.611,10.296-1.321,15.039-3.859c2.271-1.214,4.946-2.307,7.604-1.777c1.762,0.354,3.363,2.604,4.337,0.199
				c-4.561-3.533-9.195-1.301-13.688,1.148"/>
		</g>
	</g>
	<g>
		<g>
			<path fill="#231F20" d="M403.377,271.364c-3.623,2.741-7.276,5.343-11.602,6.882c-5.58,1.984-11.646,2.279-17.45,3.232
				c-4.917,0.81-10.193,1.971-15.163,1.041c-2.288-0.434-4.066-2.125-5.879-3.603c-2.037-1.651-2.092-2.297-4.262-0.646
				c8.233,10.785,24.34,4.854,35.463,4.027c6.037-0.443,11.17-3.117,16.095-6.566c2.611-1.823,5.538-3.194,8.124-5.059
				c1.379-0.988,2.422-2.418,3.863-3.316c0.037-0.377-0.872-1.531-1.088-1.881c-2.815,1.76-5.052,4.422-7.692,6.422"/>
		</g>
	</g>
	<g>
		<g>
			<path fill="#231F20" d="M247.328,267.172c8.621-0.098,16.643,3.087,24.686,5.592c8.852,2.762,17.926,4.479,27.152,5.266
				c17.145,1.466,34.473,1.854,51.716,1.551c0.001-0.393,0.144-1.479-0.087-1.749c-1.999,0.03-3.904-1.321-5.902-1.312
				c-4.17,0.008-8.391,1.604-12.557,1.494c-9.467-0.25-18.893-1.521-28.323-2.261c-9.928-0.771-20.159-1.618-29.722-4.421
				c-8.844-2.59-17.544-6.664-26.985-6.562c-0.005,0.672,0.059,1.567,0.054,2.239"/>
		</g>
	</g>
	<g>
		<g>
			<path fill="#231F20" d="M387.113,263.432c1.494,0.49,2.722,1.506,3.303,2.996c0.448,1.148,0.105,2.401,1.798,1.821
				c-0.137-2.899-1.935-5.153-4.687-6.058c-0.129,0.394-0.389,0.812-0.407,1.221"/>
		</g>
	</g>
	<g>
		<g>
			<path fill="#231F20" d="M396.999,260.663c-1.66,0.547-4.793,0.429-3.681,2.795c4.038-0.642,7.667-2.663,11.75-3.216
				c1.52-0.205,3.77-0.229,4.75,1.264c0.803,1.217,0.229,2.574,2.27,1.91c-0.247-7.822-10.729-3.88-14.998-2.475"/>
		</g>
	</g>
	<g>
		<g>
			<path fill="#231F20" d="M237.923,148.5c-12.214,1.744-23.521,6.878-34.237,12.812c-4.707,2.606-18.617,10.944-20.967,12.354
				c-2.147,1.289-2.501,1.767-1.353,3.974c12.695-6.586,23.94-15.462,37.252-21.029c14.313-5.985,29.821-7.515,45.178-8.771
				c23.229-1.897,46.215,2.681,69.443,1.051c-0.109-1.679,0.27-2.15-1.32-2.082c-2.217,0.093-4.44-0.41-6.66-0.4
				c-9.72,0.035-19.342-1.122-29.01-2.103c-19.771-2.006-38.625,2.144-58.219,4.943"/>
		</g>
	</g>
	<g>
		<g>
			<path fill="#231F20" d="M335.092,142.824c0.938,7.932,1.803,15.893,2.365,23.861c0.439,6.224,0.387,12.509-0.391,18.709
				c-0.393,3.084-1.275,6.06-2.133,9.047c-0.438,1.512-3.027,5.156-0.613,5.438c4.775-11.912,4.727-24.63,3.556-37.218
				c-0.437-4.67-0.774-9.341-1.327-13.998c-0.172-1.444,0.604-6.589-1.721-5.567"/>
		</g>
	</g>
	<g>
		<g>
			<path fill="#231F20" d="M333.064,200.288c3.16,0.308,6.301,0.797,9.465,1.05c3.797,0.303,7.576,0.848,11.328,1.521
				c1.617,0.289,5.918,2.521,6.271,0.373c-5.694-2.739-12.688-2.861-18.843-3.461c-1.676-0.162-8.928-1.709-8.503,0.824"/>
		</g>
	</g>
	<g>
		<g>
			<path fill="#231F20" d="M353.073,193.634c-1.322,10.302-3.649,20.496-4.882,30.802c-0.362,3.032-0.549,6.082-1.205,9.066
				c-0.409,1.863-1.021,3.573-2.209,5.094c-0.834,1.063-2.521,1.155-1.146,2.543c5.487-2.938,5.211-10.32,5.85-15.679
				c1.033-8.679,2.334-17.347,3.457-26.019c0.576-4.448,1.395-8.866,1.979-13.315c0.298-2.249,0.7-4.483,0.997-6.732
				c0.16-1.217,1.479-2.685-0.479-2.328c-0.734,5.571-1.223,11.05-1.953,16.62"/>
		</g>
	</g>
	<g>
		<g>
			<path fill="#231F20" d="M359.51,147.352c0.826,9.955,2.848,20.542-0.174,30.27c8.479,0.704,17.278,1.886,25.727,0.353
				c1.945-1.52,0.691-10.079,0.56-12.787c-0.249-5-0.688-10.092-2.024-14.921c-1.93-0.003-1.41,1.522-1.115,2.799
				c0.467,2.004,0.846,4.004,1.107,6.045c0.646,4.923,1.104,9.877,0.913,14.835c-0.035,0.917-0.176,1.819-0.229,2.734
				c-1.256,0.208-2.5,0.562-3.771,0.655c-2.215,0.16-4.46,0.137-6.685,0.079c-4.262-0.112-8.604-0.639-12.854-0.99
				c1.939-7.222,1.307-14.847,0.604-22.183c-0.142-1.604,0.414-7.729-1.983-6.836"/>
		</g>
	</g>
	<g>
		<g>
			<path fill="#231F20" d="M388.67,175.809c5.854,13.686,5.991,26.968,7.854,41.573c0.979,7.7,3.172,16.343,6.396,23.441
				c1.49,3.28,5.532,17.084,7.646,16.022c-1.354-6.729-4.068-13.068-6.744-19.316c-2.821-6.59-4.96-12.984-5.84-20.047
				c-1.774-14.254-2.736-28.7-8.441-42.044c-0.387,0.164-0.85,0.246-1.176,0.501"/>
		</g>
	</g>
	<g>
		<g>
			<path fill="#231F20" d="M332.768,141.717c0.021,2.502,0.275,2.644,2.944,2.675c3.36,0.039,6.769-0.678,10.119-0.435
				c7.024,0.508,13.821,2.864,20.751,4.115c11.909,2.15,23.473,5.393,34.954,9.21c5.084,1.69,11.027,1.501,15.536,4.464
				c4.634,3.044,8.22,7.542,13.192,10.062c4.445,2.252,8.446,4.437,11.312,8.778c1.125,1.703,1.905,3.385,2.391,5.362
				c0.604,2.459,0.688,2.936,3.234,2.593c-0.546-4.057-2.447-7.75-5.166-10.88c-3.365-3.875-7.793-5.444-12.173-7.818
				c-4.358-2.36-7.896-5.96-12.003-8.698c-4.407-2.941-9.457-4.123-14.447-5.805c-22.728-7.66-46.543-13.411-70.608-13.241"/>
		</g>
	</g>
	<g>
		<g>
			<path fill="#231F20" d="M392.85,199.807c0.844,2.118,2.438-0.563,3.595-1.377c1.805-1.268,4.021-1.882,5.938-2.973
				c3.541-2.016,7.165-3.759,11.149-4.646c4.008-0.894,8.08-1.104,12.17-0.933c2.209,0.097,4.409,0.239,6.604,0.483
				c1.492,0.162,5.335,1.812,5.021-0.604c-7.823-1.075-15.906-2.479-23.718-0.84c-7.768,1.628-14.771,5.808-21.023,10.54"/>
		</g>
	</g>
	<g>
		<g>
			<path fill="#231F20" d="M444.446,192.083c-5.648,0.881-11.49,0.433-17.158,1.159c-2.794,0.357-5.536,1.133-8.342,1.393
				c-1.912,0.176-1.354,0.167-1.213,1.824c17.398-1.471,34.549-4.622,51.926-6.328c8.245-0.811,16.562-2.038,24.83-1.374
				c4.062,0.327,8.1,1.294,12.085,2.179c2.221,0.494,4.521,0.521,6.687,1.213c0.316-0.227,0.645-1.691,0.77-2.09
				c-22.536-7.187-46.979-2.887-69.791,0.668"/>
		</g>
	</g>
	<g>
		<g>
			<path fill="#231F20" d="M508.488,191.325c11.242,1.704,20.102,10.146,30.021,15.039c4.463,2.2,9.357,3.334,14.146,4.604
				c1.181,0.312,2.402,0.455,3.587,0.769c0.869,0.23,0.727-0.883,0.934-1.612c-7.297-1.938-14.186-4.334-20.836-8.06
				c-8.729-4.89-17.438-10.832-27.595-12.371c-0.104,0.666-0.289,1.58-0.391,2.244"/>
		</g>
	</g>
	<g>
		<g>
			<path fill="#231F20" d="M495.873,238.244c9.182,7.058,20.536,8.503,31.811,8.604c5.961,0.053,11.911-0.255,17.87-0.257
				c3.197-0.004,6.438,0.095,9.623,0.373c2.579,0.226,2.73,0.729,3.035-1.682c-11.822-1.495-22.057,0.973-33.915,0.333
				c-5.464-0.295-11.008-1.413-16.146-3.354c-2.604-0.981-6.636-2.761-8.945-4.303c-2.07-1.379-2.232-1.214-3.666,0.653"/>
		</g>
	</g>
	<g>
		<g>
			<path fill="#231F20" d="M498.037,237.09c-13.786,6.087-28.861,8.389-43.479,11.831c-5.375,1.269-25.962,7.563-31.151,8.188
				c-2.746,0.328-5.417,0.512-8.187,0.479c-1.93-0.025-1.523,1.717-1.594,3.4c16.202,0.623,30.841-7.301,46.271-10.938
				c8.139-1.917,16.308-3.702,24.361-5.938c5.962-1.646,11.789-3.118,17.46-5.561c2.927-1.256,5.962-1.83,9.099-2.461
				c2.482-0.505,2.502-1.146,2.307-3.57c-5.221,0.426-10.124,3.01-14.854,5.104"/>
		</g>
	</g>
	<g>
		<g>
			<path fill="#231F20" d="M451.913,174.009c-1.938,0.007-3.859,0.022-5.792,0.031c-2.313,0.011-2.391,0.208-2.458,2.558
				c6.388-0.03,12.926-0.468,19.297-0.022c4.985,0.35,9.909,1.22,14.53,3.145c2.746,1.145,5.4,2.527,7.896,4.144
				c2.227,1.439,2.166,1.939,3.623-0.092c-11.293-8.095-23.562-10.053-37.102-9.758"/>
		</g>
	</g>
	<g>
		<g>
			<path fill="#231F20" d="M559.878,212.643c3.692,7.064,5.965,13.865,3.43,21.789c-1.271,3.988-3.101,8.521-6.059,11.584
				c-1.235,1.279-2.577,2.336-4.401,2.252c-1.507-0.066-3.521-1.785-3.964,0.354c9.01,4.642,13.457-6.999,15.613-13.683
				c2.686-8.328,0.229-15.354-3.657-22.801c-0.37,0.191-1.182,0.483-1.486,0.769"/>
		</g>
	</g>
	<g>
		<g>
			<path fill="#231F20" d="M539.918,250.248c3.966,2.456,7.988,5.389,12.456,6.854c5.557,1.822,11.37-0.432,16.585-2.414
				c-0.214-0.562-0.442-1.106-0.656-1.674c-0.121-0.318-4.057,1.047-4.701,1.248c-2.646,0.827-5.358,1.432-8.147,1.066
				c-5.253-0.688-10.094-4.029-14.478-6.743c-0.354,0.573-0.7,0.883-1.059,1.456"/>
		</g>
	</g>
	<g>
		<g>
			<path fill="#231F20" d="M618.497,187.636c13.959,10.683,12.237,36.673,1.057,48.438c-6.688,7.042-17.288,7.787-26.132,10.543
				c-6.415,2.003-15.538,4.104-22.062,5.732c-3.188,0.793-3.524,2.299-6.795,2.642c-2.587,0.272-2.874-0.255-2.761,2.196
				c12.536-0.606,24.245-6.688,36.164-10.104c9.271-2.658,18.541-4.51,24.64-12.646c9.767-13.041,11.57-38.166-2.496-48.938
				c-0.407,0.534-1.441,1.866-1.854,2.399"/>
		</g>
	</g>
	<g>
		<g>
			<path fill="#231F20" d="M621.012,190.27c-7.345,0.771-14.396,0.86-21.312,3.518c-4.334,1.664-8.646,3.438-12.945,5.188
				c-4.153,1.688-7.752,4.318-12.192,5.187c-7.16,1.396-15.223,1.134-21.443,5.31c0.226,0.338,1.005,1.758,1.365,1.877
				c1.7-1.146,3.703-1.779,5.634-2.479c3.933-1.425,8.022-2.532,12.13-3.259c5.831-1.027,11.046-2.352,16.476-4.561
				c5.899-2.398,11.77-4.923,17.858-6.806c8.459-2.615,17.457-1.949,25.989-4.103c-0.528-2.101-0.439-2.461-2.689-2.059
				c-2.978,0.535-5.839,2.025-8.845,2.342"/>
		</g>
	</g>
	<g>
		<g>
			<path fill="#231F20" d="M541.984,201.52c0.732,0.685,1.133,1.715,1.898,0.895c1.02-1.084,1.608-2.578,2.664-3.623
				c3.26-3.225,6.824-6.188,10.507-8.924c3.438-2.549,7.396-4.659,11.574-5.744c2.136-0.557,4.378-0.775,6.4,0.254
				c2.341,1.188,1.616,2.479,3.812,0.74c-9.932-12.587-30.719,8.844-37.339,16.029"/>
		</g>
	</g>
	<g>
		<g>
			<path fill="#231F20" d="M572.658,182.57c3.019,3.476,5.812,7.539,6.752,12.103c0.426,2.079,0.624,4.336-0.052,6.369
				c-0.486,1.459,0.093,1.251,1.401,1.854c3.398-7.416-1.733-16.11-6.553-21.653c-0.51,0.44-1.028,0.851-1.536,1.293"/>
		</g>
	</g>
</g>
<g id="head">
	<path id="headfill" fill="#F3BE99" d="M201.331,256.253c-0.915-0.806,7.263-9.248,7.264-10.837
		c0.004-7.166,1.139-4.281,2.974-11.242c-1.447-1.084,1.211-7.396,1.629-9.636c0.544-2.913,0.503-6.649,1.15-9.538
		c-1.177-0.786-0.02-6.24,0-8.105c0.044-3.979-34.276-20.453-33.625-24.356c-2.1,1.312-3.569-4.569-8.195-16.713
		c-5.16-13.549,2.034-24.628-5.594-25.96c-7.626-1.333-9.867,0.243-10.582-3.155c-0.715-3.403,1.304-3.704-4.642-3.433
		c-5.941,0.273-7.482-5.891-7.482-5.891s-8.07,1.209-9.422-2.299c-1.351-3.512-2.814-6.386-6.022-3.019
		c-3.208,3.37-8.544,7.677-18.077,6.012c-9.532-1.664-12.673-3.587-18.622-3.556c-20.442,0.109-47.862,13.484-56.333,41.128
		c-7.89,25.75-13.685,57.05,17.247,79.016c30.933,21.967,68.425,8.609,68.425,8.609s12.257-3.228,18.709-8.389
		c6.451-5.156,5.16-9.674,18.708-7.098c13.049,2.486,16.522,10.357,23.68,13.816c-0.405-0.506,4.992,3.836,4.854,3.15
		C199.569,257.57,194.886,257.35,201.331,256.253z"/>
	<path id="headshadow" fill="#D3A083" d="M124.46,252.32c5.53-1.688,15.045-8.699,23.513-9.75
		c6.907-0.856,21.222-0.225,24.554,4.283l2.522,0.672c-9.246-30.426-36.358-5.9-54.738-2.396c-18.38,3.512-57.381,6.61-84.479-19.57
		c0,0,15.233,26.53,48.496,31.463C117.591,261.95,124.46,252.32,124.46,252.32z"/>
	<g>
		<path fill="#EFA7C9" d="M141.532,192.523c-14.436-6.045-15.008-10.857-15.395-16.585c-0.385-5.728-4.891-6.492-7.978-15.004
			c-3.228-8.906,7.332-29.391,9.139-33.808l5.023-3.647l6.444,6.669l1.814,0.478c0.185,1.303-9.674,18.846-4.387,39.512
			c0.849,3.311,4.502,4.869,5.154,3.876c0.651-0.995-3.391-5.803-2.293-16.346c0.934-8.937,7.381-24.954,7.381-24.954l1.586,2.184
			l5.25-0.946l2.625,4.902c0,0,4.18,10.107,1.874,11.648c-2.306,1.542-0.87-7.246-5.168-6.303c-3.5,0.767-9.641,6.216-8.43,18.883
			c0.588,6.164,7.192,14.536,10.941,17.744L141.532,192.523z"/>
		<path fill="#EFA7C9" d="M167.76,193.926c0.693-1.951,1.949-3.585,3.656-4.363c-1.584-0.008-3.191,0.416-5.438,0.526
			c-3.12,0.156-7.545-0.009-7.068-2.978c0.48-2.975,2.997,0.861,4.271-1.92c0.594-1.301,0.399-0.66-4.142-1.979
			c-3.78-1.102-6.09-4.199-6.09-4.199l-12.856,13.14c0,0,11.549,5.877,22.898,11.632
			C164.764,200.585,166.542,197.355,167.76,193.926z"/>
		<path fill="#EC748A" d="M158.709,147.715c-0.182,2.127-2.323,4.306-3.579-0.74c-1.412-5.675-10.493,1.958-11.016,11.421
			c-0.587,10.625,3.799,14.165,7.941,19.375c4.142,5.209,7.364,5.894,9.687,6.066c1.154,0.085-1.898-7.823-2.937-16.809
			C157.753,157.912,158.709,147.715,158.709,147.715z"/>
	</g>
	<g id="lines">
		<g>
			<path fill="#FFFFFF" d="M170.396,190.169c-4.805-0.157-11.091-0.221-11.666-2.755c0.791-1.084,3.567,0.084,4.56-1.571
				c1.192-1.981-1.195-2.612-2.45-2.575c-2.229,0.066-4.813-1.898-6.333-3.271c-5.753-5.193-10.465-13.798-9.785-21.797
				c0.429-5.058,8.816-20.324,10.359-8.942c0.451,3.326,5.328,2.269,4.017-1.61c-0.664-1.963-1.843-6.104-3.717-7.023
				c-1.092,1.958,3.923,7.745,2.469,9.192c-2.578,0.336-1.139-4.089-3.998-5.248c-2.75-1.127-4.357,0.706-5.847,2.669
				c-4.167,5.491-5.907,11.842-3.739,18.475c2.139,6.545,6.152,12.827,12.09,16.533c3.356,2.095,8.701,2.238,2.773,4.111
				c-3.408,1.078,1.598,4.195,2.628,4.543c2.451,0.824,5.133,0.287,7.716,0.113C169.756,190.705,170.062,190.417,170.396,190.169z"
				/>
		</g>
		<g>
			<path fill="#FFFFFF" d="M139.528,174.659c-10.169-5.282-6.229-26.869-1.443-39.752c0.734-1.971-2.415,13.003-2.749,14.895
				c-0.605,3.421-0.963,7.783-0.71,11.25c0.313,4.311,1.32,9.457,5.149,12.196c2.652,1.9-0.205-3.492-0.457-4.333
				c-1.038-3.463-1.66-7.129-1.179-10.748c0.706-5.311,4.476-16.009,6.547-20.783c0.655-1.509-0.456,5.07-4.652,18.96
				c-1.081,3.581-0.493,6.911,0.423,10.507C140.842,168.351,144.193,177.083,139.528,174.659"/>
		</g>
		<g>
			<path fill="#FFFFFF" d="M162.992,203.788c-7.144-3.788-14.529-7.412-22.076-11.556c-4.865-2.672-11.833-6.156-13.354-12.104
				c-1.58-6.185-3.436-9.873-7.233-14.987c-3.574-4.816-2.109-11.704-0.763-17.124c0.541-2.184,7.039-18.208,6.049-16.597
				c-9.692,15.778-11.05,29.608-5.62,36.258c3.823,4.68,5.125,8.629,7.272,13.947c2.156,5.344,6.585,8.837,11.288,11.417
				c7.926,4.353,15.927,8.103,23.709,12.065C162.506,204.668,162.746,204.229,162.992,203.788z"/>
		</g>
	</g>
	<g id="outline">
		<path fill="#231F20" d="M81.298,257.359c-25.026-4.049-46.611-21.526-52.063-46.732c-4.546-21.016,1.55-47.286,14.67-64.268
			c7.636-9.884,18.548-15.209,30.152-19.517c12.239-4.546,23.267-1.085,35.712-0.066c4.704,0.386,10.156,0.116,14.589-1.727
			c2.399-0.997,5.591-5.135,7.649-2.859c-7.913,11.126-26.906,5.507-37.635,4.36c-11.51-1.232-21.773,1.031-31.653,6.517
			c-19.831,11.018-29.008,34.066-32.036,55.58C25.99,221.98,49.503,251,82.261,255.968c15.009,2.277,32.636,0.89,46.298-6.097
			c17.408-8.902,31.357-14.497,42.486-4.155c-1.352,2.632-2.675-0.053-4.568-0.88c-3.208-1.402-11.992-2.262-15.464-2.215
			c-7.394,0.095-13.76,4.374-20.008,7.932C116.256,258.953,97.864,260.04,81.298,257.359"/>
		<path fill="#231F20" d="M138.272,128.928c-3.172-0.514-9.097-8.646-7.007-10.724c2.663,1.902,2.997,4.22,4.527,6.87
			c2.637,4.565,5.595-1.399,7.761,1.71c-1.319,1.58-3.208,2.665-5.31,2.325"/>
		<path fill="#231F20" d="M173.929,175.8c0.497-0.022,1.019,0.035,1.563,0.185c0.553,0.152,1.09,0.432,1.58,0.797
			c-0.131-0.432-0.299-0.894-0.509-1.374c-3.431-7.834-2.872-16.38-3.546-24.657c-0.412-5.045-1.474-10.704-6.751-12.642
			c-4.907-1.802-9.989,1.491-10.819-5.518c-1.49-1.411-4.04-1.6-6.599-0.023c-1.164-0.504-2.639-4.458-3.322-5.61
			c-3.637,1.136,1.687,5.962,2.943,8.084c1.025-1.229,2.311-1.003,3.925-1.083c2.13-0.104,1.687,0.817,2.607,2.447
			c1.874,3.315,1.75,2.747,5.33,2.603c11.089-0.448,10.603,10.504,10.717,18.943C171.136,164.337,171.504,170.742,173.929,175.8z"/>
		<path fill="#231F20" d="M115.9,141.674c-2.165,0.058-0.708-10.624,1.372-10.022c-0.205,3.361-0.689,6.751-1.348,10.056"/>
		<path fill="#231F20" d="M108.592,216.973c-13.903-2.25-17.865-21.451-6.763-29.459c2.243,1.824-3.68,7.409-4.245,10.678
			c-1.083,6.287,2.256,12.312,7.741,15.32c6.254,3.43,12.281-0.253,17.549-3.634c4.857-3.117,12.351-4.729,8.501-11.194
			c3.394-3.099,4.079,5.381,0.317,7.895c-6.145,4.104-15.305,11.841-23.128,10.57"/>
		<path fill="#231F20" d="M105.916,208.268c-5.266-4.147-5.766-10.677-0.509-15.101c4.333-3.647,9.045-0.974,12.657,2.31
			c-2.19,1.912-6.791-4.891-11.333-1.399c-2.627,2.017-4.602,5.233-3.409,8.593c0.862,2.426,3.905,3.488,2.603,5.589"/>
		<path fill="#231F20" d="M112.854,206.997c-4.539-0.733-5.179-6.806-3.745-10.146c2.014,1.133-0.371,11.738,6.565,7.744
			c2.349-1.354,5.812-2.945,7.681-4.97c1.728-1.868-1.74-2.483,0.17-4.146c4.637,4.299-6.518,12.049-10.649,11.381"/>
		<path id="stretch" fill="#231F20" d="M232.28,210.471c-11.889-4.058-42.398-17.227-49.877-27.191
			c-2.731-3.637-4.914-5.637-6.451-8.789c0.39,0.878-1.644,0.526-1.784,1.375c2.904,4.532,9.441,12.066,15.784,16.346
			c8.127,5.479,35.096,17.383,42.753,19.789C232.501,211.386,232.265,211.121,232.28,210.471z"/>
	</g>
	<g id="rightarm">
		<path fill="#78343D" d="M23.198-21.575c6.238,7.6,18.601,26.482,22.427,42.129c3.826,15.648,6.741,26.537,10.247,30.84
			c3.506,4.302,11.412,9.19,10.274,14.576c-1.136,5.386-4.55,9.007-5.14,10.061c-0.59,1.053,6.166,15.05,6.792,17.167
			c0.625,2.117,19.336,22.265,19.336,22.265l-58.559,17.545l-71.11-94.055l62.076-61.435L23.198-21.575z"/>
		<g>
			<path fill="#231F20" d="M77.9,127.571c-0.311,0.305-0.912,0.92-1.302,1.103c-3.859-7.775-3.254-7.767-7.014-15.586
				c-2.003-4.161-3.964-8.349-6.046-12.475c-0.907-1.796-5.287-6.783-2.73-7.129C68.418,107.427,70.854,113.372,77.9,127.571"/>
		</g>
		<g>
			<path fill="#231F20" d="M72.876,131.825c-1.371,1.194-1.868-0.207-2.51-1.635c-0.972-2.158-1.916-4.331-2.895-6.483
				c-2.173-4.778-4.031-9.683-6.251-14.439c-1.975-4.238-4.3-8.33-6.384-12.523c-0.857-1.723-3.799-5.618-1.756-6.432
				c4.408,5.51,7.077,14.239,10.014,20.562c3.25,6.999,6.385,14.029,9.538,21.062"/>
		</g>
		<g>
			<path fill="#231F20" d="M66.288,129.075c-0.291,0.316-0.594,0.358-0.979,0.543c-6.365-12.329-13.646-24.525-19.212-37.194
				c1.775-1.555,3.219,3.081,4.047,4.737c2.152,4.299,4.017,8.734,6.206,13.016c3.248,6.357,6.801,12.574,10.091,18.91"/>
		</g>
		<g>
			<path fill="#231F20" d="M59.285,129.851c-1.434,1.997-2.558-1.82-3.421-3.259c-2.363-3.942-4.748-7.869-7.108-11.808
				c-3.664-6.111-7.632-12.139-11.298-18.249c1.435-1.994,3.05,1.727,3.915,3.168c2.364,3.94,4.825,7.822,7.188,11.759
				c3.663,6.112,7.259,12.261,10.922,18.372"/>
		</g>
		<g>
			<path fill="#231F20" d="M53.646,135.119c-0.256,0.358-0.837,0.849-1.195,1.088c-3.761-5.893-7.095-12.095-10.797-18.032
				c-3.346-5.368-8.493-11.507-10.615-17.486c1.505-1.072,1.782,0.745,2.577,2.142c1.694,2.964,3.416,5.923,5.202,8.833
				c4.88,7.941,9.966,15.752,14.977,23.608"/>
		</g>
		<g>
			<path fill="#231F20" d="M50.078,137.684c-0.238,0.375-0.639,0.344-0.985,0.594c-7.345-10.981-15.758-21.554-22.523-32.917
				c1.21-1.601,1.875,0.374,2.752,1.704c1.981,2.994,4.247,5.787,6.236,8.771c4.835,7.253,9.702,14.481,14.549,21.724"/>
		</g>
		<g>
			<path fill="#231F20" d="M45.894,141.72c-0.231,0.382-0.776,0.751-1.113,1.021c-4.123-5.755-8.033-11.698-12.138-17.471
				c-3.398-4.783-8.375-9.874-10.974-15.184c1.242-1.323,1.987,0.153,2.859,1.414c1.925,2.788,3.991,5.467,5.948,8.227
				c5.19,7.331,10.16,14.833,15.387,22.134"/>
		</g>
		<g>
			<path fill="#231F20" d="M44.087,148.746c-0.243,0.369-0.752,0.711-1.097,0.971c-5.202-7.591-10.419-15.175-15.637-22.755
				c-2.076-3.017-3.914-6.215-6.004-9.224c-0.944-1.359-2.896-2.97-0.953-3.696c8.553,10.892,16.072,23.185,23.934,34.657"/>
		</g>
		<g>
			<g>
				<path fill="#EDAF8B" d="M98.479,125.677c-3.039-3.248-9.169-9.508-15.438-11.675c-11.549-3.991-17.028-2.656-18.244,0.051
					c-1.218,2.71-3.549,4.046-3.549,4.046s-4.36-0.439-18.713-1.568c-14.347-1.128-14.975,5.096-14.448,9.238
					c0.527,4.14-3.524,6.875-5.608,8.868c-2.089,1.993-4.953,5.478-2.654,10.74c2.302,5.26,3.703,6.975,3.703,6.975
					s-8.009,13.971-8.667,17.366c-0.656,3.392,3.982,4.173,3.982,4.173s-3.149,6.282,0.83,16.748
					c3.979,10.461,5.972,9.405,5.972,9.405s4.981-2.646,5.547-8.246c0.563-5.604-2.048-10.897-2.048-10.897l13.54,2.937
					c0,0,4.299-5.228-2.048-10.9c-6.347-5.665-7.721-6.193-7.721-6.193l2.529-4.703l18.89,12.278c0,0,5.261-2.301,3.458-9.401
					c-1.8-7.099-5.658-9.371-5.658-9.371l11.699,8.722c0,0,8.594-4.165,0.848-14.691c-7.744-10.528-8.896-11.588-8.896-11.588
					s1.929-4.604,7.302-5.023c2.575-1.15,5.409-0.801,8.461-1.845c1.855-0.635,4.806-4.26,6.57-4.478c0,0,3.233-0.661,9.667-1.615
					C93.972,124.108,98.479,125.677,98.479,125.677z"/>
				<path fill="#F3D7C3" d="M55.188,157.062c0.519-5.568,7.587-2.968,8.236,1.049c0.367,2.301-1.072,4.214-2.856,3.545
					c-1.826-0.684-2.251-3.72-4.712-4.527"/>
				<path fill="#F3D7C3" d="M46.216,167.873c-0.354-6.215,7.489-4.561,8.552,0.187c1.701,7.591-6.444,1.352-9.092,0.657"/>
				<path fill="#F3D7C3" d="M31.153,181.001c1.199-8.652,10.656-5.149,9.106,2.683c-2.924-0.018-5.287-2.01-7.946-3.016"/>
				<path fill="#F3D7C3" d="M19.57,190.875c8.229-8.438,9.743,6.494,4.256,7.381c-1.467-2.525-1.93-5.395-3.539-7.76"/>
				<path fill="#F3D7C3" d="M61.01,119.351c1.77-0.877,4.171-2.216,6.206-1.547c0.116,5.358-4.817,6.964-9.188,6.862
					c0.329-2.155,2.178-3.189,3.186-5.07"/>
			</g>
			<g>
				<g>
					<g>
						<path fill="#231F20" d="M63.875,165.076c-0.476-0.693-1.665-0.738-1.29-1.492c2.471-1.684,4.277-3.323,4.561-5.349
							c0.614-4.421-3.92-9.667-8.958-15.709c-4.091-4.906-8.62-10.484-11.212-16.57c-0.129-0.833,1.162-1.496,1.677-0.833
							c2.497,5.858,6.607,11.676,10.623,16.493c5.295,6.348,9.828,11.632,9.11,16.792c-0.352,2.521-1.726,4.678-4.609,6.646
							C63.75,165.074,63.875,165.076,63.875,165.076z"/>
					</g>
					<g>
						<path fill="#231F20" d="M64.246,164.694c-1.312-0.962-1.612-0.556-2.925-1.52c-12.393-9.1-22.976-17.067-31.19-30.603
							c-0.357-0.762,0.628-1.335,1.138-0.667c8.042,13.254,18.653,21.119,30.903,30.114c1.311,0.965,2.306,0.097,3.03,1.559
							c0.372,0.748-0.44,0.97-0.939,1.646C64.14,165.389,64.246,164.694,64.246,164.694z"/>
					</g>
					<g>
						<path fill="#231F20" d="M55.487,174.447c-0.436-0.724-1.312-0.623-1.064-1.427c1.601-0.969,2.524-2.673,2.697-4.843
							c0.347-4.278-2.134-9.289-7.266-13.652c-0.493-0.682,0.292-1.695,1.038-1.309c5.552,4.715,8.551,10.293,8.164,15.115
							c-0.215,2.681-1.559,5.001-3.607,6.236C55.409,174.595,55.487,174.447,55.487,174.447z"/>
					</g>
					<g>
						<path fill="#231F20" d="M54.662,174.313c-13.815-7.896-22.048-13.674-32.589-25.088c-0.5-0.674,0.968-1.991,1.604-1.439
							c10.406,11.268,18.074,17.447,31.715,25.25c0.681,0.493-0.143,0.898-0.559,1.629C54.775,174.76,54.662,174.313,54.662,174.313
							z"/>
					</g>
					<g>
						<path fill="#231F20" d="M30.846,180.953c-0.637-0.277-1.441-0.178-2.079-0.465c-0.359-0.161-0.404-0.058-0.767-0.223
							c-2.684-1.197-4.938-3.209-7.233-4.928c-2.181-1.627-4.652-3.148-7.177-4.341c-0.464-0.701,0.052-1.625,0.891-1.69
							c2.676,1.269,5.031,3.02,7.282,4.698c2.323,1.734,4.591,3.198,7.105,4.322c0.36,0.16,0.37,0.145,0.73,0.303
							c4.517,2.027,8.399,3.777,14.667,4.453c0.783,0.301,0.513,1.504-0.312,1.658c-5.595-0.604-9.354-1.992-13.151-3.654
							C30.662,181.01,30.846,180.953,30.846,180.953z"/>
					</g>
					<g>
						<path fill="#231F20" d="M42.298,183.449c3.042-7.326-2.467-11.01-9.014-15.466c-2.678-1.821-5.609-3.72-7.89-5.946
							c-0.256-0.802,0.521-1.277,1.333-1.056c2.17,2.125,4.886,3.831,7.504,5.613c6.554,4.458,13.321,8.952,9.753,17.547
							c-0.453,0.707-0.687-0.347-1.464-0.67C42.422,183.43,42.298,183.449,42.298,183.449z"/>
					</g>
					<g>
						<path fill="#231F20" d="M24.254,199.959c-1.273-2.799-2.44-5.188-3.61-7.219c-3.46-6.018-5.951-9.975-2.132-18.033
							c0.494-0.676,1.669-0.071,1.473,0.746c-3.44,7.262-1.38,10.803,1.931,16.559c1.187,2.062,2.632,4.367,3.938,7.238
							c-0.053,0.844-0.746,0.473-1.509,0.824C24.328,200.078,24.254,199.959,24.254,199.959z"/>
					</g>
					<g>
						<path fill="#231F20" d="M25.292,200.4c-0.237-0.812-1.271-1.311-0.539-1.721c7.013-2.072,6.006-7.266,4.955-12.395
							c-0.263-1.276-0.646-2.625-0.758-3.749c0.65-0.53,1.042-0.397,1.796-0.032c0.099,1.038,0.365,2.203,0.616,3.439
							c1.035,5.035,2.38,11.809-6.114,14.312C25.246,200.262,25.292,200.4,25.292,200.4z"/>
					</g>
					<g>
						<path fill="#231F20" d="M60.871,132.163c-1.862-0.816-3.616-2.089-4.963-3.933c-0.154-0.208-0.055-0.218-0.076-0.476
							c-0.019-0.256-0.263-0.323-0.144-0.554c2.667-5.236,6.748-11.325,12.569-19.212c0.604-0.581,1.97,0.41,1.598,1.164
							c-5.588,7.577-9.5,13.39-12.122,18.438c3.646,4.526,9.906,4.962,14.366,2.841c3.857-1.834,7.343-6.236,5.653-12.671
							c-0.01-0.842,1.052-1.096,1.433-0.349c1.954,7.431-1.887,12.435-6.351,14.559c-3.514,1.669-8.168,1.975-12.01,0.295
							C60.812,132.26,60.871,132.163,60.871,132.163z"/>
					</g>
					<g>
						<path fill="#231F20" d="M15.221,175c-3.237-5.163,1.054-10.98,4.249-16.279c1.834-3.038,2.897-6.179,3.285-8.62
							c-1.165-1.237-3.887-5.382-3.77-9.702c0.058-2.114,0.715-3.524,2.454-5.036c0.797-0.693,1.079-2.012,1.936-2.472
							c1.497-0.797,2.641-1.374,3.532-3.274c0.619-1.327,1.097-2.558,0.949-4.083c-0.207-2.173-0.688-4.727,1.418-6.947
							c3.967-4.177,14.107-3.042,22.117-1.872c2.569,0.376,4.906,1.178,6.653,1.257c0.625,0.794,0.306,0.939-0.41,1.65
							c-1.845-0.084-3.937,0.428-6.673,0.031c-7.148-1.048-16.799-2.928-20.044,0.49c-1.475,1.554-0.958,3.173-0.766,5.172
							c0.158,1.646-0.484,3.368-1.338,5.193c-1.174,2.51-2.323,4.265-3.963,5.139c-0.792,0.421-2.113-0.055-2.738,0.485
							c-1.312,1.143-1.638,2.756-1.682,4.308c-0.112,4.174,4.388,8.332,4.429,8.375c0.17,0.169,0.699,0.054,0.782,0.28
							c0.083,0.224-0.656,0.457-0.676,0.695c-0.268,2.996-2.017,6.349-4.085,9.778c-3.04,5.034-6.775,10.208-4.196,14.322
							c0.166,0.993-0.099,0.999-0.955,1.534C15.641,175.481,15.221,175,15.221,175z"/>
					</g>
					<g>
						<path fill="#231F20" d="M99.208,127.4c-3.235-5.473-13.71-12.97-22.733-15.215c-4.151-1.033-7.431-1.36-9.872,0.127
							c-0.839,0.016-1.41-0.477-0.969-1.189c2.836-1.737,6.76-2.199,11.364-1.052c9.69,2.406,19.877,10.833,23.292,16.597
							c0.239,0.806-0.331,0.471-1.055,0.902C99.209,127.584,99.208,127.4,99.208,127.4z"/>
					</g>
				</g>
				<path fill="#231F20" d="M63.524,161.696c-0.461-0.491-0.753-0.327-0.851-0.994c0.688-0.651,0.899-1.374,0.847-2.231
					c-0.104-1.574-1.346-3.088-2.191-3.702c-0.907-0.659-1.881-0.861-2.746-0.541c-0.892,0.327-1.603,1.181-1.848,2.213
					c-0.613,0.281-0.985,0.324-1.306-0.266c0.35-1.464,1.388-2.709,2.697-3.192c1.283-0.478,2.709-0.208,3.982,0.713
					c1.258,0.916,2.72,2.773,2.846,4.682c0.08,1.244-0.44,2.406-1.407,3.324C63.541,161.706,63.524,161.696,63.524,161.696z"/>
				<path fill="#231F20" d="M54.108,172.861c-0.438-0.507-0.976-0.3-1.02-0.973c0.772-0.669,1.361-1.513,1.418-2.506
					c0.079-1.419-0.718-3.024-1.94-4.351c-1.452-1.572-2.545-0.973-2.766-0.847c-1.112,0.648-1.921,1.19-2.405,2.669
					c-0.575,0.348-0.979,0.252-1.168-0.394c0.612-1.875,1.531-2.748,2.855-3.513c1.039-0.606,2.862-0.681,4.527,1.124
					c1.464,1.587,2.26,3.61,2.16,5.385c-0.079,1.349-0.698,2.5-1.745,3.405C54.005,172.879,54.108,172.861,54.108,172.861z"/>
				<path fill="#231F20" d="M32.235,179.789c0.647-3.019,2.307-3.969,3.244-4.258c1.464-0.45,3.186,0.015,4.44,1.215
					c1.459,1.406,1.923,3.457,1.379,5.512c-0.493,0.457-1.026,0.344-1.305-0.273c0.418-1.575,0.115-3.231-0.987-4.293
					c-0.895-0.858-2.138-1.201-3.139-0.895c-1.129,0.341-1.966,1.511-2.337,3.246c-0.511,0.438-0.649-0.047-1.307-0.188
					L32.235,179.789z"/>
				<path fill="#231F20" d="M26.301,198.398c-0.309-0.602-0.876-0.529-0.743-1.188c0.958-0.494,1.429-2.229,1.197-4.361
					c-0.236-2.131-1.035-4.104-1.97-4.332c-0.699-0.186-1.449,0.648-1.935,1.326c-0.672-0.045-1.237-0.102-1.174-0.77
					c1.331-1.854,2.657-2.061,3.452-1.85c1.754,0.445,2.871,3.105,3.129,5.459c0.239,2.162-0.174,4.896-1.963,5.816
					C26.267,198.514,26.301,198.398,26.301,198.398z"/>
				<path fill="#231F20" d="M58.626,127.091c-0.606-0.298-1.109,0.063-1.168-0.605c0.982-2.001,2.768-2.36,4.36-2.731
					c1.014-0.236,1.979-0.487,2.789-1.059c1.581-1.108,2.433-2.463,2.534-4.021c-0.737-0.023-1.484,0.283-2.008,0.796
					c-0.642-0.193-0.949-0.309-0.943-0.982c0.961-0.946,2.356-1.334,3.718-1.044c0.255,0.056,0.306-0.059,0.471,0.141
					c0.166,0.196-0.036,0.231-0.022,0.491c0.103,2.274-0.851,4.193-2.993,5.695c-1.026,0.722-2.145,1.05-3.235,1.305
					c-1.553,0.359-2.686,0.632-3.387,2.061C58.74,127.143,58.626,127.091,58.626,127.091z"/>
				<path fill="#231F20" d="M78.635,125.637c-0.222-0.633-0.938-0.872-0.458-1.343c2.707-0.938,4.036-2.997,3.712-6.268
					c0.195-0.647,0.954-0.745,1.236-0.133c0.38,3.857-1.201,6.505-4.476,7.646C78.625,125.546,78.635,125.637,78.635,125.637z"/>
				<path fill="#231F20" d="M-7.009,70.088c-0.796-0.268-1.769,0.665-1.602-0.159C-4.278,57.008,3.405,49.39,14.733,45.584
					c7.166-2.413,16.978-1.68,25.696,3.15c6.855,3.8,11.365,9.144,12.505,13.928c-0.08,0.837-1.198,1.209-1.668,0.513
					c-1.034-4.331-5.134-9.521-11.584-13.093c-8.311-4.608-17.94-5.953-24.679-3.693C4.057,50.068-2.541,58.007-6.752,70.568
					C-6.811,70.746-7.009,70.088-7.009,70.088z"/>
				<path fill="#231F20" d="M75.678,107.734c-3.91-4.545-6.351-11.179-9.018-17.373c-1.762-4.085-3.63-7.892-5.587-11.235
					c-0.05-1.007,0.966-1.542,1.814-0.995c2.019,3.451,3.941,7.457,5.649,11.419c2.608,6.058,6.324,12.512,10.033,16.825
					c0.365,0.942-1.869,0.58-2.633,1.239C75.834,107.705,75.678,107.734,75.678,107.734z"/>
				<path fill="#231F20" d="M23.412,126.626c-4.747-3.665-8.474-9.67-12.336-15.198C8.527,107.781,0.449,98.839-2.141,95.959
					c-0.252-0.978,0.2-2.437,1.141-2.072c2.674,2.971,11.28,12.832,13.751,16.368c3.778,5.405,8.718,10.98,13.222,14.458
					c0.547,0.846-1.715,0.944-2.332,1.743C23.56,126.564,23.412,126.626,23.412,126.626z"/>
				<path fill="#231F20" d="M62.231,71.998c-0.642-0.778-2.083-0.402-1.871-1.388c1.978-1.631,3.774-3.142,3.826-4.79
					c0.098-3.168-3.818-6.485-6.874-9.346c-1.388-1.299-2.839-2.397-3.862-3.62c-3.366-4.032-4.307-10.299-5.08-16.896
					C47.169,25.706,34.014-3.473,28.02-9.306c-0.722-0.703,0.811-1.727,1.657-1.178c4.757,5.4,19.165,30.997,20.285,46.197
					c0.466,6.336,2.247,12.065,5.254,15.666c0.944,1.131,2.064,2.442,3.405,3.698c3.369,3.153,7.193,6.71,7.066,10.791
					c-0.071,2.231-1.18,4.54-3.596,6.532C61.951,72.516,62.231,71.998,62.231,71.998z"/>
				<path fill="#231F20" d="M22.086,77.686c-0.674-0.503-1.54-0.37-1.146-1.113c6.373-8.505,23.861-6.334,31.087-2.755
					c0.662,0.522,0.035,1.719-0.782,1.516c-7.067-3.439-23.641-5.399-29.234,2.063C21.955,77.472,22.086,77.686,22.086,77.686z"/>
			</g>
		</g>
	</g>
	<g id="leftarm">
		<g>
			<path fill="#EDAF8B" d="M333.576,4.731c-3.697,5.716-30.26,37.321-44.717,56.149c-14.458,18.828-26.225,51.106-32.277,59.175
				c-6.052,8.069-8.406,8.069-13.113,8.069s-23.872,8.406-24.88,8.742c-1.009,0.336-2.69,4.035-4.035,3.699
				c-1.345-0.336-4.371-1.345-4.371-1.345l-37.993,13.448c0,0-1.008-4.37-0.336-6.387c0.672-2.018,0.672-2.018,0.672-2.018
				s-0.672-3.362,3.026-6.388c3.699-3.026,13.449-6.052,13.449-6.052l-17.147-8.742c0,0,3.698-5.379,8.069-5.715
				c4.371-0.336,13.785,4.707,13.785,4.707l-8.069-11.768c0,0,7.733-3.698,13.449,2.69c5.716,6.389,10.759,7.397,10.759,7.397
				s8.406-8.405,12.104-10.759c3.699-2.354,3.362-4.707,4.371-6.388c1.008-1.681,5.379-14.793,5.379-14.793
				s-2.354-12.44,6.724-25.553c9.078-13.113,16.196-17.944,21.577-20.97c5.379-3.026,9.356-17.023,18.098-41.567L333.576,4.731z"/>
			<path fill="#F3D7C3" d="M218.085,136.362c1.487-2.375,3.425-5.814,0.638-7.859c-2.303-1.69-5.126-0.604-7.059,0.891
				c-3.101,2.398-3.127,5.191-1.013,8.499c0.646,1.011,1.642,2.162,2.862,2.378c2.523,0.447,2.974-2.477,4.572-4.245"/>
			<path fill="#F3D7C3" d="M183.118,148.97c-3.525-3.391-7.384-0.809-9.4,2.995c3.759,0.093,7.125-1.648,10.745-2.154"/>
			<path fill="#78343D" d="M278.738-3.041c0,3.351-1.522,7.306-8.83,19.792c-7.308,12.484-9.133,13.398-8.525,14.311
				c0.608,0.913,36.232,22.532,37.146,23.14c0.914,0.608,39.889-49.632,42.323-51.762C343.287,0.31,278.738-3.041,278.738-3.041z"/>
		</g>
		<g>
			<g>
				<g>
					<path fill="#231F20" d="M249.478,129.251c-0.396-0.544-0.535-1.104-0.931-1.647c2.557-1.704,4.062-4.149,5.649-6.756
						c4.639-7.624,8.827-15.555,12.822-23.528c7.528-15.022,15.726-28.878,26.254-42.038c0.324,0.26,1.436,0.81,1.534,1.188
						c-1.65,2.062-2.875,4.458-4.442,6.584c-2.286,3.101-4.734,6.06-6.892,9.25c-5.093,7.532-9.874,14.95-13.944,23.087
						c-4.32,8.633-7.713,17.816-12.665,26.11c-1.842,3.086-4.485,5.214-7.503,7.226"/>
				</g>
				<g>
					<path fill="#231F20" d="M170.922,154.396c-0.436-1.744-0.957-1.681,0.683-2.219c3.545-1.167,6.882-2.929,10.442-4.053
						c8.753-2.763,17.31-5.918,26.001-8.826c0.124,0.369,0.669,1.397,0.537,1.733c-1.905,0.638-3.698,1.512-5.572,2.238
						c-4.278,1.658-8.466,3.452-12.847,4.826c-6.407,2.011-12.907,4.549-19.42,6.119"/>
				</g>
				<g>
					<path fill="#231F20" d="M221.393,137.246c-0.121-0.375-0.788-1.833-0.655-2.175c1.974-0.638,4.158-0.755,6.114-1.447
						c3.97-1.407,7.632-3.651,11.611-4.996c3.282-1.11,6.59-1.702,10.016-1.98c2.025-0.164,4.116,0.019,6.06-0.591
						c1.854-0.581,1.513-0.231,2.13,1.384c-5.296,2.028-11.175,0.988-16.562,2.556c-6.341,1.845-12.237,5.435-18.559,7.479"/>
				</g>
				<g>
					<path fill="#231F20" d="M214.466,142.998c-1.654-1.47-1.682-1.1-0.131-2.902c1.941-2.25,3.571-4.776,5.546-6.997
						c3.969-4.462,8.495-8.327,12.293-12.94c6.407-7.783,13.002-14.946,22.438-19.075c0.312,0.712,1.251,1.882,0.437,2.254
						c-1.651,0.751-3.377,1.383-4.92,2.334c-4.869,3-8.973,6.845-12.612,11.221c-7.468,8.981-15.092,17.787-22.862,26.521"/>
				</g>
				<g>
					<path fill="#231F20" d="M216.359,143.204c-2.984-0.354-6.293-2.061-8.222-4.316c-4.487-5.25-2.238-12.34,1.375-17.541
						c3.923-5.645,9.838-9.252,13.83-14.646c4.956-6.697,6.069-15.382,10.687-22.306c0.307,0.205,1.454,0.624,1.536,0.949
						c-1.056,1.584-2.404,3.072-3.147,4.82c-1.842,4.333-2.743,9.062-4.703,13.346c-3.131,6.85-9.983,10.389-14.787,15.949
						c-4.236,4.904-8.348,12.896-3.171,18.579c1.332,1.462,3.396,2.518,5.281,3.076c1.73,0.511,1.328-0.121,1.086,1.859"/>
				</g>
				<g>
					<path fill="#231F20" d="M172.581,154.434c-6.06-8.553,2.695-14.944,9.711-18.015c5.053-2.213,10.489-3.371,15.476-5.764
						c1.984-0.951,4.11-1.698,5.982-2.861c1.111-0.691,1.5-1.032,2.234,0.431c-7.047,5.868-17.197,6.967-25.204,10.993
						c-2.887,1.451-5.831,3.475-7.602,6.278c-0.91,1.443-1.378,3.055-1.013,4.748c0.378,1.755,2.748,3.232,0.273,4.115"/>
				</g>
				<g>
					<path fill="#231F20" d="M209.255,136.646c-3.283-4.913,3.164-11.066,8.179-8.845c2.277,1.009,3.474,2.858,2.629,5.239
						c-0.45,1.27-1.147,3.861-2.704,2.327c1.493-2.745,2.683-7.081-2.261-6.878c-1.946,0.08-4.27,1.881-5.127,3.596
						c-0.878,1.76,1.402,3.795-0.667,4.452"/>
				</g>
				<g>
					<path fill="#231F20" d="M175.416,151.898c-0.394-0.125-0.788-0.56-1.137-0.787c1.339-2.062,7.02-6.747,9.061-2.964
						c-1.208,1.042-1.122-0.047-2.375-0.047c-2.216,0-4.335,2.058-5.468,3.799"/>
				</g>
				<g>
					<path fill="#231F20" d="M228.728,122.625c-0.683-1.882-2.457-3.143-3.643-4.687c1.488-2.029,4.339,2.817,4.854,4.241
						c-0.393,0.142-0.848,0.439-1.261,0.472"/>
				</g>
				<g>
					<path fill="#231F20" d="M192.536,145.717c-0.403-0.494-0.583-1.056-0.521-1.694c1.586-0.319,1.886,1.032,0.515,1.705"/>
				</g>
				<g>
					<path fill="#231F20" d="M232.204,88.267c-0.665-0.097-1.509-0.05-2.175-0.147c1.619-11.087,4.828-21.702,11.489-30.843
						c3.311-4.543,6.96-9.049,11.535-12.375c1.896-1.378,4.143-2.096,6.243-3.125c1.143-0.56,1.992-1.821,3.131-2.387
						c0.305,0.111,0.83,1.783,0.987,2.105c-4.287,2.13-8.454,4.101-12.026,7.372c-3.478,3.185-6.119,7.3-8.793,11.181
						c-5.884,8.534-8.668,18.258-10.15,28.415"/>
				</g>
				<g>
					<path fill="#231F20" d="M172.808,142.385c-0.5-0.038-0.939-0.208-1.414-0.38c2.351-6.47,11.093-9.929,17.11-11.391
						c4.036-0.981,7.908-1.705,11.688-3.51c1.761-0.84,6.141-4.448,7.078-1.719c-5.653,3.959-11.87,5.514-18.471,7.165
						c-5.32,1.329-13.672,4.284-15.773,10.063"/>
				</g>
				<g>
					<path fill="#231F20" d="M172.458,123.774c-0.491-0.1-1.313-0.445-1.763-0.677c3.333-6.458,10.058-7.402,16.622-5.271
						c2.646,0.859,7.108,4.635,9.922,3.852c3.785-1.048,7.784-0.765,11.658-0.588c0.691,2.904-4.272,1.185-6.121,1.23
						c-1.721,0.043-3.455,0.398-5.122,0.863c-2.372,0.652-4.903-0.998-6.905-2.022c-6.449-3.299-14.511-4.609-18.337,2.803"/>
				</g>
				<g>
					<path fill="#231F20" d="M186.601,131.328c-5.581-2.417-10.906-5.456-15.992-8.794c0.434-1.377,0.805-1.365,1.861-0.694
						c2.163,1.375,4.393,2.641,6.652,3.854c1.932,1.037,3.924,1.952,5.913,2.876c1.447,0.672,3,1.012,1.596,2.739"/>
				</g>
				<g>
					<path fill="#231F20" d="M208.198,121.01c-5.613-1.109-7.402-6.973-12.165-9.831c-3.057-1.832-6.443-1.524-9.527,0.11
						c-1.489,0.788-2.752,2.239-3.853,0.122c4.733-4.388,11.613-4.186,16.479-0.104c2.361,1.982,4.461,4.198,6.329,6.625
						c1.111,1.442,3.888,0.444,2.619,2.917"/>
				</g>
				<g>
					<path fill="#231F20" d="M190.987,119.211c-1.547-2.108-2.927-4.34-4.534-6.404c-1.06-1.362-3.774-2.757-1.41-3.99
						c1.854,1.973,3.443,4.092,5.021,6.29c0.992,1.38,3.442,3.239,0.942,4.175"/>
				</g>
			</g>
			<g>
				<path fill="#231F20" d="M297.078,57c-0.505-0.443-1.537-0.766-2.042-1.208c9.079-10.355,18.055-20.813,26.69-31.543
					c4.338-5.39,8.998-10.53,13.205-16.024c2.176-2.844,3.654-6.209,5.795-9.083c0.316-0.431,2.561-2.849,2.883-2.612
					c0.48,0.356,1.425,0.845,1.91,1.202c-15.203,20.662-32.004,40.128-48.917,59.414"/>
			</g>
			<g>
				<path fill="#231F20" d="M261.127,42.751c-2.701-0.826-0.036-3.073,0.874-4.572c0.912-1.503,1.789-5.004,3.78-2.984
					c-1.492,2.57-3.044,5.143-4.636,7.654"/>
			</g>
			<g>
				<path fill="#231F20" d="M299.421,55.861c-3.836-1.684-6.74-4.731-10.294-6.864c-3.329-1.998-6.681-3.947-10.042-5.887
					c-6.621-3.823-13.528-7.543-19.702-12.072c0.584-1.575,1.353-1.48,2.437-0.732c1.816,1.253,3.692,2.408,5.568,3.568
					c4.19,2.587,8.391,5.152,12.654,7.613c3.891,2.247,7.948,4.381,11.627,6.965c1.904,1.338,3.782,2.682,5.679,4.028
					c1.364,0.969,3.711,1.766,2.127,3.672"/>
			</g>
			<g>
				<path fill="#231F20" d="M260.84,33.338c-0.481-0.148-0.877-0.255-1.302-0.529c2.821-4.355,5.761-8.614,8.253-13.171
					c3.436-6.283,5.854-13.059,9.28-19.344c2.896,0.667-0.172,4.095-0.958,5.74c-1.717,3.59-3.398,7.202-5.218,10.743
					c-3.014,5.861-6.718,11.223-10.299,16.743"/>
			</g>
			<g>
				<path fill="#231F20" d="M298.439,48.947c-0.385-0.142-0.888-0.775-1.222-1.021c3.926-5.31,8.432-10.203,12.44-15.451
					c2.133-2.795,4.305-5.568,6.373-8.412c0.898-1.237,2.459-6.091,4.006-4.252c-6.696,10.047-14.371,19.343-21.542,29.041"/>
			</g>
			<g>
				<path fill="#231F20" d="M293.979,46.612c-1.589-0.678-0.781-1.484-0.027-2.408c1.14-1.4,2.305-2.779,3.438-4.184
					c2.511-3.113,5.275-6.025,7.75-9.167c2.206-2.799,4.125-5.815,6.24-8.682c0.869-1.181,2.33-4.608,3.969-3.302
					c-1.941,5.037-7.184,9.734-10.479,13.9c-3.646,4.607-7.375,9.143-11.097,13.689"/>
			</g>
			<g>
				<path fill="#231F20" d="M289.764,43.389c-0.385-0.123-0.57-0.34-0.903-0.577c6.103-8.609,11.646-17.872,18.405-25.979
					c2.063,0.875-0.707,3.39-1.541,4.527c-2.162,2.951-4.569,5.724-6.699,8.697c-3.164,4.414-6.067,9.015-9.195,13.455"/>
			</g>
			<g>
				<path fill="#231F20" d="M284.856,39.751c-2.227-0.479,0.086-2.502,0.739-3.599c1.785-3.001,3.551-6.014,5.336-9.015
					c2.767-4.653,5.32-9.513,8.088-14.166c2.226,0.479,0.229,2.847-0.423,3.944c-1.785,3.001-3.476,6.059-5.259,9.06
					c-2.769,4.653-5.602,9.267-8.369,13.92"/>
			</g>
			<g>
				<path fill="#231F20" d="M279.06,38.066c-0.397-0.084-1.062-0.378-1.423-0.577c2.557-4.661,5.561-9.093,8.18-13.722
					c2.368-4.185,4.412-9.972,7.855-13.417c1.565,0.819,0.333,1.584-0.319,2.616c-1.386,2.195-2.754,4.407-4.049,6.655
					c-3.538,6.139-6.877,12.393-10.284,18.605"/>
			</g>
			<g>
				<path fill="#231F20" d="M274.318,35.144c-0.399-0.066-0.578-0.382-0.942-0.569c4.593-8.94,8.341-18.57,13.513-27.187
					c1.817,0.431,0.66,1.54,0.099,2.614c-1.265,2.419-2.231,4.995-3.483,7.422c-3.04,5.894-6.049,11.803-9.076,17.703"/>
			</g>
			<g>
				<path fill="#231F20" d="M270.987,32.74c-0.405-0.059-0.955-0.36-1.329-0.533c2.269-4.896,4.788-9.685,7.082-14.57
					c1.899-4.046,3.238-9.388,5.938-12.988c1.622,0.542,0.884,1.557,0.371,2.607c-1.135,2.316-2.117,4.706-3.218,7.038
					c-2.92,6.186-6.084,12.259-8.963,18.465"/>
			</g>
			<g>
				<path fill="#231F20" d="M266.951,30.723c-0.403-0.072-0.915-0.355-1.286-0.539c3.113-6.277,6.212-12.562,9.309-18.846
					c1.234-2.501,2.72-4.876,3.94-7.382c0.552-1.133,0.787-3.111,2.311-1.857c-3.92,9.835-9.414,19.308-14.119,28.793"/>
			</g>
		</g>
	</g>
</g>
<g id="throat">
</g>
<g id="line_block">
	<path fill="#F3BE99" d="M233.471,214.467l-20.273-7.47l-39.48-25.076l29.719-14.748c0,0,23.797-12.789,25.754-11.443
		s12.476-3.761,12.476-3.761L233.471,214.467z"/>
</g>
<g id="NeckPivot">
	<circle id="NPivot" fill="#D81212" fill-opacity="0" cx="108.427" cy="191.293" r="4.404"/>
</g>
<g id="CircGuide">
	<circle id="circ" fill="#28348E" cx="74.88" cy="148.725" r="16.398"/>
</g>
<g id="dotted">
	<g id="dline">
		<path fill="none" stroke="#020202" stroke-width="3" stroke-miterlimit="10" d="M115.721,20.048c0,3.711,0,7.422,0,11.133"/>
		<path fill="none" stroke="#020202" stroke-width="3" stroke-miterlimit="10" d="M115.721,33.386c0,3.711,0,7.422,0,11.133"/>
		<path fill="none" stroke="#020202" stroke-width="3" stroke-miterlimit="10" d="M115.721,46.782c0,3.711,0,7.422,0,11.133"/>
		<path fill="none" stroke="#020202" stroke-width="3" stroke-miterlimit="10" d="M115.721,60.12c0,3.711,0,7.422,0,11.133"/>
		<path fill="none" stroke="#020202" stroke-width="3" stroke-miterlimit="10" d="M115.721,73.351c0,3.711,0,7.422,0,11.133"/>
		<path fill="none" stroke="#020202" stroke-width="3" stroke-miterlimit="10" d="M115.721,86.688c0,3.711,0,7.422,0,11.133"/>
		<path fill="none" stroke="#020202" stroke-width="3" stroke-miterlimit="10" d="M115.721,100.083c0,3.711,0,7.422,0,11.133"/>
		<path fill="none" stroke="#020202" stroke-width="3" stroke-miterlimit="10" d="M115.721,113.422c0,3.711,0,7.422,0,11.133"/>
	</g>
	<rect id="dlineHigh" x="112.635" y="18.751" fill="#EF1122" width="6.176" height="107.169"/>
</g>
<g id="dragTarget">
	<rect id="dTarg" x="45.612" y="215.673" fill="#ED0061" fill-opacity="0" width="9.173" height="8.13"/>
</g>
<g id="dragcuelayer">
	
		<rect id="dragCue" x="48.405" y="128.299" opacity="0.1" fill="#ED0061" enable-background="new    " width="54.139" height="42.596"/>
</g>
</svg>
