<?xml version="1.0" encoding="utf-8"?>
<!-- Generator: Adobe Illustrator 15.0.0, SVG Export Plug-In . SVG Version: 6.00 Build 0)  -->
<!DOCTYPE svg PUBLIC "-//W3C//DTD SVG 1.1//EN" "http://www.w3.org/Graphics/SVG/1.1/DTD/svg11.dtd">
<svg version="1.1" id="Layer_1" xmlns="http://www.w3.org/2000/svg" xmlns:xlink="http://www.w3.org/1999/xlink" x="0px" y="0px"
	 width="720px" height="450px" viewBox="0 0 720 450" enable-background="new 0 0 720 450" xml:space="preserve">
<g>
	<path fill="#576260" d="M273.47,264.65c0,0-1.611,14.509-2.764,40.07c-1.149,25.563-1.381,28.556-0.92,33.853
		c0.462,5.298,56.422,10.132,70.239,10.362c13.817,0.231,33.852-8.98,33.852-8.98s5.066-13.127,13.127-37.309
		c8.059-24.181,13.588-29.938,11.053-35.922c-2.531-5.988-4.143-8.754-4.143-8.754s-19.115-4.604-57.343-3.914
		C298.341,254.75,273.47,264.65,273.47,264.65z"/>
	<path fill="#0090C0" d="M267.713,149.968c-5.989,3.915-11.515,7.831-14.508,17.272c-2.993,9.441,0.46,13.355,9.672,28.094
		c9.21,14.74,11.286,17.273,13.588,27.176c2.302,9.9,1.611,11.975,4.604,14.506c2.995,2.534,2.763,3.686,2.072,4.838
		c-0.691,1.15-6.447,5.983-6.217,9.9c0.232,3.916-1.841,6.909-2.531,8.752c-0.691,1.844-0.923,4.145-0.923,4.145
		s12.438,0.92,28.558,1.843c16.119,0.923,39.147,2.305,52.735-1.15c13.586-3.454,15.661-3.684,21.877-3.454
		c6.217,0.23,6.908,0.92,13.816-0.921c6.91-1.843,7.6-2.304,6.221-3.686c-1.383-1.382-2.764-5.759-2.764-8.291
		s-2.764-2.304-4.838-4.144c-2.072-1.844-2.533-6.449-4.607-8.752c-2.072-2.305-4.605-12.665-4.605-15.661
		c0-2.993-0.92-34.082-4.604-53.427c-3.688-19.344-1.613-25.561-13.588-30.167c-11.975-4.606-20.956-5.988-35.005-6.448
		C312.62,129.934,267.713,149.968,267.713,149.968z"/>
	<path fill="#0090C0" d="M251.825,169.773c-0.922,5.527-2.994,9.902-6.448,32.009c-3.455,22.107-3.456,24.182-4.378,25.332
		c-0.918,1.151-5.295,3.456-6.217,7.37c-0.919,3.914,0.463,5.526-1.84,7.828c-2.305,2.303-5.527,7.83-8.291,16.811
		c-2.764,8.982-7.138,11.286-11.514,17.732c-4.376,6.449-1.154,11.056-4.608,12.438c-3.455,1.382-10.747,2.418-10.286,8.867
		c0.459,6.445-2.112,7.693-3.033,8.386c-0.921,0.69,1.116,2.321,1.116,2.321l12.666,10.36c0,0,7.136-0.689,21.645-17.038
		c14.508-16.353,29.71-39.611,30.861-43.986c1.151-4.377,3.915-16.58,8.75-27.865c4.836-11.284,4.604-15.659,4.604-16.35
		C274.852,213.297,251.825,169.773,251.825,169.773z"/>
	<path fill="#ECAF8B" d="M342.556,132.005c2.996,3.225,8.522,10.823,3.226,27.634c-5.299,16.812-16.35,29.707-36.616,29.016
		c-20.266-0.69-29.707-12.665-32.701-22.567c-2.996-9.903-3.225-15.199-2.305-17.962c0.923-2.763,36.847-17.041,40.762-17.272
		C318.839,130.623,342.556,132.005,342.556,132.005z"/>
	<path fill="#ECAF8B" d="M242.613,112.892c-0.691,9.902,5.066,16.813,10.822,20.496c5.759,3.684,9.904,5.988,10.826,11.745
		c0.919,5.756,0.46,6.907,3.455,6.447c2.991-0.46,3.913-2.762,5.755-0.92c1.844,1.842,1.843,2.993,4.146,2.993
		c2.304,0,2.304,0,2.304,0s-0.69,2.074,1.382,2.534c2.072,0.46,3.685-0.231,4.376,1.151c0.691,1.381,4.375,2.074,6.909,1.612
		c2.533-0.461,7.599-6.217,10.823-8.291c3.222-2.073,14.047-11.514,17.039-13.126c2.996-1.612,10.363-7.599,10.363-7.599
		s-9.441-8.062-13.817-16.352c-4.374-8.291-9.9-20.266-19.803-21.417c-9.904-1.15-38.227-1.149-46.748,5.989
		C241.922,105.292,242.613,112.892,242.613,112.892z"/>
	<path fill="#5D4530" d="M307.028,76.783c0,0,6.217-3.109,13.471,1.382c7.255,4.491,18.654,14.163,19.69,23.144
		s-1.382,13.127-1.728,20.035c-0.346,6.909,9.327,9.327,9.327,9.327s-4.145,6.218-14.508,2.764
		c-10.363-3.455-13.126-13.472-12.781-24.18c0.346-10.708-1.381-19.344-3.108-21.417c-1.728-2.072-6.909-3.109-6.909-3.109
		S308.41,78.855,307.028,76.783z"/>
	<path fill="#5D4530" d="M314.282,106.835c-2.418-1.382-5.873-3.109-7.254-3.454c-1.382-0.346-5.182-0.691-5.182-0.691
		s-3.8-4.491-8.291-2.418c-4.491,2.073-3.109,6.563-2.764,8.636c0.345,2.073,0,4.836-2.418,5.527s-2.418,0.691-2.418,0.691
		s-5.182-4.146-10.018-4.146s-8.636,0.691-12.781,0.691s-9.327-1.382-9.327-1.382s0,1.728,2.073,2.418
		c2.072,0.691,4.836,1.728,4.836,1.728s-2.073,0.345-4.836,0.345c-2.763,0-5.182,0-5.182,0s2.418,3.109,4.491,4.145
		c2.073,1.037,6.563,2.073,6.563,2.073s-3.109,0.691-7.945-0.69c-4.835-1.382-6.563-3.109-6.563-3.109s1.728,4.145,3.8,6.563
		c2.073,2.418,6.908,4.836,6.908,4.836s-4.835,1.727-11.745-2.073c-6.908-3.8-8.636-10.017-8.636-10.017s-7.945-2.764-5.526-10.018
		c2.417-7.254,6.217-8.636,6.217-8.636s0.691-12.09,11.054-20.38c10.363-8.291,24.526-12.436,39.725-7.6
		c15.199,4.836,20.38,14.163,21.417,20.726C311.519,97.163,314.282,106.835,314.282,106.835z"/>
	<path fill="#46514E" d="M389.855,289.121c-4.896,9.283-5.158,19.697-10.252,29.005c-4.213,7.701-9.402,14.364-13.558,22.029
		c17.414,6.392,19.49-38.116,23.117-47.927"/>
	<path fill="#46514E" d="M319.732,278.412c9.092,12.248,3.958,22.882,4.07,36.512c0.448-9.955,6.984-15.439,7.571-29.533
		c-2.708-0.875-4.903-2.22-7.15-3.867"/>
	<path fill="#0082A9" d="M270.158,207.078c-2.137,18.401-9.662,34.344-10.983,53.227c0.309-15.564,25.504-38.278,12.555-52.182"/>
	<path fill="#0082A9" d="M343.907,243.688c-4.546,0.299-8.95-2.063-12.064-2.971c7.225,10.793,30.798,9.872,28.275-6.021
		c-3.855,5.857-12.296,7.615-19.35,8.472"/>
	<path fill="#0090C0" d="M365.125,138.453c4.146,2.534,21.418,13.355,21.879,25.562c0.459,12.207,0.691,23.722-2.305,39.15
		c-2.992,15.428-4.836,29.478-12.664,44.905c-7.83,15.43-11.055,23.488-12.208,23.721c-1.149,0.229-35.463,15.199-52.735,19.113
		s-17.503,3.686-21.417,3.686c-3.916,0-8.061,1.383-8.061,1.383l-8.521-22.57c0,0,4.377-2.533,12.207-5.066
		c7.829-2.531,9.44-5.525,13.585-4.375c4.145,1.153,8.752,0,11.516-1.609c2.764-1.613,11.054-2.996,14.737-4.379
		c3.687-1.382,7.603-3.224,11.286-6.906c3.684-3.686,9.211-1.842,9.211-1.842s0.691-4.838,1.381-5.067
		c0.691-0.229,1.153-0.229,1.153-0.229s-1.611-8.521,2.072-18.424c3.683-9.901,9.903-22.336,15.198-32.7
		c5.295-10.363,11.054-26.714,11.054-28.096S365.125,138.453,365.125,138.453z"/>
	<g>
		<g>
			<g>
				<path d="M396.307,265.387c0.902,2.047,1.853,4.391,1.17,6.658c-0.436,1.454-1.502,2.671-2.637,3.643
					c-0.535,0.459-0.404,0.254-0.023,0.73c0.232,0.293,0.406,0.611,0.64,0.902c3.178-2.534,4.586-5.857,3.316-9.801
					c-0.55-1.709-1.355-3.311-1.921-5.011c-0.137-0.405-0.336-2.603-0.512-2.629c-0.514-0.073-1.174-0.037-1.688-0.11
					c-0.281,1.965,0.799,3.905,1.569,5.655"/>
			</g>
		</g>
		<g>
			<g>
				<path d="M392.629,284.956c-3.395,8.741-7.527,17.378-9.971,26.437c-1.014,3.759-0.971,7.815-2.045,11.555
					c-0.879,3.055-1.996,6.125-3.375,8.995c-0.174,0.362-2.096,3.129-2.119,3.113c0.572,0.367,0.492,0.938,1.061,1.308
					c5.662-8.783,7.141-19.404,10.297-29.208c1.967-6.118,4.144-12.208,6.476-18.198c1.961-5.031,4.848-9.979,5.649-15.359
					c-0.577-0.089-1.754,0.102-2.329,0.014c-0.431-0.063-0.214-0.428-0.312,0.166c-0.137,0.816-0.619,1.551-0.82,2.354
					c-0.736,2.977-2.02,5.729-3.168,8.564"/>
			</g>
		</g>
		<g>
			<g>
				<path d="M330.852,284.621c0.232,6.824-2.408,13.027-4.519,19.389c-2.029,6.109-3.31,12.439-4.117,18.831
					c0.386,0.048,0.827,0.3,1.212,0.349c0.438,0.056,0.534-1.802,0.597-2.225c0.282-1.896,0.196-3.87,0.601-5.743
					c0.684-3.172,1.595-6.322,2.59-9.409c2.248-6.979,5.705-13.785,5.452-21.262c-0.46,0.014-1.352,0.037-1.813,0.053"/>
			</g>
		</g>
		<g>
			<g>
				<path d="M269.422,310.216c-0.146,3.084-0.097,6.176-0.243,9.259c-0.086,1.8-0.162,3.599-0.248,5.396
					c-0.017,0.364,0.154,0.736,0.136,1.101c-0.003,0.058,1.361,0.109,1.55,0.121c0.242-5.066,0.644-10.126,0.885-15.191
					c0.092-1.913-0.085-3.841-0.001-5.753c0.067-1.479,0.455-2.939,0.523-4.42c0.003-0.113-0.197-0.549-0.271-0.642
					c-0.147-0.187-1.29-0.147-1.564-0.159c-0.152,3.436-0.302,6.868-0.455,10.306"/>
			</g>
		</g>
		<g>
			<g>
				<path d="M248.507,177.809c-1.374,5.919-1.997,11.978-2.808,17.997c-0.412,3.032-0.457,6.13-0.982,9.145
					c-0.61,3.5-2.321,6.808-2.837,10.324c-0.446,3.066-1.019,6.063-1.972,9.028c-0.36,1.124,0.484,2.96-0.272,3.875
					c-0.851,1.027-2.346,1.411-3.142,2.502c-1.992,2.733-2.839,6.359-2.414,9.689c0.372-0.047,1.429-0.043,1.649-0.305
					c-0.063-0.521,0.009-0.992,0.018-1.515c0.031-2.465,0.545-5.284,2.093-7.263c0.914-1.168,2.835-1.471,3.68-2.713
					c0.953-1.401,1.821-3.128,2.208-4.767c0.891-3.764,0.05-7.888,0.895-11.664c3.273-14.643,3.06-30.423,8.946-44.409
					c1.522-3.619,4.373-6.59,6.85-9.649c1.07-1.322,1.825-2.94,3.155-4.003c0.569-0.455,1.028-0.375,0.595-0.979
					c-0.298-0.415-0.834-1.006-1.133-1.422c-8.143,5.831-12.423,16.773-14.593,26.11"/>
			</g>
		</g>
		<g>
			<g>
				<path d="M267.144,203.539c3.832,5.292,7.349,11.075,8.358,17.693c0.761,4.969,0.788,10.11,3.608,14.522
					c3.34,5.223,9.549,9.17,15.751,8.988c4.732-0.141,9.349-2.496,13.23-5.125c-0.217-0.322-0.644-0.561-0.861-0.883
					c-0.222-0.325-0.274,0.33-0.557,0.51c-1.119,0.703-2.388,1.222-3.591,1.766c-2.946,1.334-6.24,1.706-9.49,1.561
					c-6.856-0.307-13.307-5.213-14.955-11.932c-0.726-2.963-0.719-6.021-1.119-9.032c-0.548-4.136-2.04-7.758-4.225-11.282
					c-1.969-3.174-4.293-6.118-6.457-9.16c-0.989-1.391-2.107-2.713-2.82-4.271c-0.274-0.599-0.768-1.162-0.884-1.811
					c-0.145-0.818,0.295-0.836-0.563-0.838c-0.231,0-0.327-0.08-0.559-0.08c-0.011,3.607,2.625,7.001,4.615,9.749"/>
			</g>
		</g>
		<g>
			<g>
				<path d="M344.475,135.978c3.013,5.917,3.4,12.046,1.718,18.332c-1.702,6.358-3.684,13.289-7.151,18.906
					c-3.266,5.291-8.133,9.703-13.897,12.098c-6.864,2.852-14.916,3.018-22.286,1.701c-8.227-1.471-16.715-5.829-21.722-12.532
					c-2.226-2.982-3.083-6.731-4.332-10.215c-0.757-2.118-1.225-4.188-1.57-6.414c-0.2-1.295-0.724-2.547-0.813-3.854
					c-0.22-0.145-1.365,0.101-1.645,0.12c0.444,6.548,2.887,12.997,6.302,18.631c3.283,5.414,8.207,10.164,13.747,13.116
					c6.327,3.373,13.597,4.13,20.676,3.201c7.022-0.922,14.639-2.801,20.114-7.435c6.089-5.16,9.016-12.994,11.763-20.301
					c3.193-8.494,4.833-17.555,0.509-26.043c-0.41,0.208-0.116,0.048-0.526,0.258"/>
			</g>
		</g>
		<g>
			<g>
				<path d="M341.482,243.652c-0.734-0.114-1.474-0.27-2.217-0.459c-2.398-0.619-4.761-1.351-6.995-2.404
					c-0.307-0.146-2.721-1.316-2.667-1.426c0.194-0.396,0.252-1.139,0.448-1.535c4.152,2.054,8.383,4.607,13.091,4.908
					L341.482,243.652z"/>
			</g>
		</g>
		<g>
			<g>
				<path d="M225.684,254.568c-1.306,4.033-2.602,7.787-4.904,11.41c-3.492,5.498-8.212,10.095-10.576,16.244
					c-1.049,2.727-1.644,5.498-3.985,7.4c-2.43,1.973-6.238,1.752-8.033,4.619c-1.741,2.781,0.122,6.783-1.306,9.623
					c-0.47,0.938-1.682,1.768-2.681,2.054c-0.701,0.201-0.746-0.478-0.623,0.223c0.065,0.366,0.058,1.373,0.123,1.739
					c3.003-0.529,4.479-3.232,4.961-6.113c0.578-3.44,0.186-7.395,3.759-9.117c1.541-0.744,3.368-0.965,4.694-2.06
					c1.445-1.196,3.062-2.272,3.899-3.942c1.136-2.272,1.317-4.985,2.471-7.252c3.397-6.695,9.229-11.979,11.582-19.235
					c1.348-4.155,3.059-8.613,5.415-12.312c0.884-1.39,1.659-2.879,2.94-3.908c0.45-0.361,1.785-0.729,1.394-1.287
					c-0.26-0.37-0.956-0.422-1.214-0.791c-4.538,3.178-6.206,7.625-7.721,12.763"/>
			</g>
		</g>
		<g>
			<g>
				<path d="M255.994,266.127c-3.045,4.178-5.885,8.35-8.38,12.885c-1.574,2.856-3.232,5.699-4.955,8.469
					c-4.821,7.754-12.437,13.527-18.776,20.031c0.155,0.145,1.61,1.551,1.682,1.478c0.456-0.471,0.623-1.222,1.081-1.69
					c1.437-1.475,3.138-2.688,4.576-4.16c4.712-4.834,9.184-9.668,12.715-15.488c2.132-3.516,4.719-6.781,6.742-10.36
					c1.615-2.856,3.25-5.651,5.187-8.304c1.673-2.291,3.393-4.592,4.896-7.002c1.154-1.846,2.035-3.955,2.618-6.061
					c-0.496-0.137-1.159-0.148-1.657-0.287c-0.237-0.063-0.808,2.579-1.025,3.018c-1.291,2.63-3.418,4.795-5.163,7.135"/>
			</g>
		</g>
		<g>
			<g>
				<path d="M273.448,216.324c0.099,4.835-1.874,9.669-3.647,14.066c-1.417,3.512-3.204,6.857-4.307,10.479
					c-1.984,6.511-3.662,13.11-5.171,19.748c0.504,0.114,0.624,0.271,1.127,0.386c0.327,0.072,0.525-2.781,0.647-3.242
					c0.733-2.744,1.711-5.429,2.571-8.135c0.741-2.335,1.669-4.605,2.384-6.947c1.058-3.481,1.886-7.021,3.259-10.396
					c2.062-5.079,4.534-10.358,4.42-15.954c-0.576,0.012-0.433,0.029-1.009,0.042"/>
			</g>
		</g>
		<g>
			<g>
				<path d="M234.05,245.676c-0.514,0.121-1.109,0.473-1.624,0.594c4.065,2.736,8.382,6.025,13.194,7.287
					c0.064-0.248,0.56-1.481,0.454-1.688c-1.221-0.319-2.49-0.599-3.621-1.155c-2.266-1.113-4.358-2.527-6.459-3.923
					c3.244-0.712,6.491-1.472,9.795-1.81c1.659-0.172,3.344-0.012,5.012-0.026c0.375-0.002,1.539,0.147,1.551-0.304
					c0.011-0.387-0.071-0.662-0.061-1.053c-6.123-0.16-12.26,0.855-18.202,2.246"/>
			</g>
		</g>
		<g>
			<g>
				<path d="M230.787,249.33c3.958,2.427,7.785,5.24,11.957,7.275c0.169-0.352,0.285-0.803,0.457-1.152
					c0.176-0.37-1.676-1.15-2.085-1.383c-1.696-0.959-3.375-1.938-5.039-2.957c-1.559-0.957-3.083-1.959-4.644-2.916
					c-0.228,0.4-0.507,0.748-0.735,1.15"/>
			</g>
		</g>
		<g>
			<g>
				<path d="M241.294,235.109c0.093,0.449,0.182,0.803,0.275,1.252c9.22-1.912,17.965-5.229,26.345-9.502
					c-0.203-0.394-0.07-0.697-0.272-1.09c-0.042-0.08-3.384,1.334-3.732,1.5c-2.486,1.179-4.935,2.418-7.501,3.408
					c-4.909,1.893-9.899,3.65-15.05,4.721"/>
			</g>
		</g>
		<g>
			<g>
				<path d="M385.758,154.192c0.936,4.978-0.314,10.336-0.43,15.373c-0.164,7.271,0.729,14.629,0.117,21.877
					c-0.656,7.766-3.209,15.371-4.369,23.081c-1.201,7.976-2.313,16.009-5.314,23.479c-3.213,7.996-7.619,15.689-11.896,23.182
					c-2.091,3.656-3.354,7.93-5.931,11.27c-0.538,0.697-2.387,0.338-2.959,1.008c-0.259,0.305,2.006,1.994,2.296,2.25
					c6.875-7.818,10.682-17.826,15.076-27.169c3.188-6.781,5.989-13.653,8.147-20.836c1.871-6.242,3.782-12.367,4.504-18.829
					c1.043-9.295,1.838-18.629,2.418-27.965c0.317-5.097,0.467-10.212,0.465-15.321c0-3.871-1.028-7.464-1.745-11.283
					c-0.679,0.127,0.204-0.181-0.472-0.054"/>
			</g>
		</g>
		<g>
			<g>
				<path d="M330.069,131.214c3.74,0.354,7.42,1.398,11.128,1.997c7.057,1.141,14.324,2.599,21.034,5.139
					c6.014,2.277,11.338,6.22,15.653,10.918c3.283,3.579,6.595,8,7.853,12.799c0.043,0.18,0.508,1.286,0.5,1.286
					c0.68,0,1.449,0.465,2.127,0.465c0-4.625-3.848-9.088-6.564-12.54c-4.012-5.095-8.932-9.411-14.607-12.579
					c-6.146-3.43-13.186-5.13-20.029-6.444c-5.216-1.004-10.457-1.878-15.737-2.458c-0.404-0.043-0.432,0.117-0.837,0.079
					c-0.063,0.688-0.076,1.046-0.138,1.734"/>
			</g>
		</g>
		<g>
			<g>
				<path d="M321.034,286.389c-5.945,1.976-12.009,4.264-18.13,5.59c-4.15,0.9-8.463-0.633-12.67-0.41
					c-3.394,0.182-6.508,1.859-9.756,2.858c0.105,0.339,0.197,1.948,0.478,2.095c0.753-0.229,1.61-0.369,2.375-0.555
					c2.746-0.66,5.455-0.779,8.273-0.869c3.087-0.098,6.211-0.164,9.285-0.557c2.684-0.342,5.012-2.236,7.581-3.063
					c11.361-3.656,22.986-6.623,34-11.224c6.734-2.812,13.322-6.002,19.796-9.368c-0.264-0.506-0.744-2.089-1.309-1.798
					c-1.39,0.72-2.53,1.942-3.935,2.628c-3.493,1.705-7.094,3.215-10.654,4.771c-8.297,3.625-16.746,7.027-25.354,9.839"/>
			</g>
		</g>
		<g>
			<g>
				<path d="M330.423,251.832c-1.301,2.857-4.618,3.729-7.358,4.582c-1.719,0.535-3.583,0.652-5.29,1.221
					c-2.5,0.836-4.836,2.469-7.497,2.574c-1.786,0.07-3.032,0.555-4.58,1.482c-1.633,0.98-3.176,2.445-5.031,2.97
					c-1.549,0.438-3.495,0.04-5.034-0.472c-0.85-0.284-1.608-0.77-2.515-0.852c-2.77-0.251-5.688,1.245-8.116,2.294
					c-4.99,2.158-9.981,4.474-15.219,5.916c-0.833,0.229-0.163,0.985,0.021,1.675c4.704-1.238,9.143-3.209,13.667-4.994
					c1.495-0.59,2.965-1.133,4.414-1.838c1.296-0.633,2.912-1.502,4.373-1.666c0.653-0.07,1.367,0.586,1.966,0.828
					c1.463,0.59,2.902,1.155,4.485,1.082c1.719-0.078,3.236-0.988,4.756-1.773c1.606-0.828,3.122-1.979,4.823-2.604
					c1.144-0.421,2.504-0.39,3.708-0.564c1.354-0.194,2.715-0.269,4.017-0.68c2.136-0.68,4.227-1.511,6.364-2.188
					c2.647-0.838,5.13-1.98,7.369-3.711c1.837-1.42,2.668-3.973,5.059-4.578c2.325-0.592,5.017-0.289,7.354-0.002
					c0.03-0.256,0.336-1.781,0.21-1.797c-1.275-0.158-2.565-0.303-3.845-0.409c-3.09-0.254-6.06,0.621-7.494,3.776"/>
			</g>
		</g>
		<g>
			<g>
				<path d="M364.244,184.72c-2.219,6.017-4.199,12.062-7.798,17.401c-3.482,5.169-6.196,10.698-8.314,16.559
					c-1.682,4.655-3.619,9.298-3.961,14.253c-0.184,2.68-0.426,5.34-0.552,8.019c-0.028,0.603,0.634,1.717,0.062,2.08
					c-0.471,0.302-0.07,1.126,0.126,1.633c2.498-0.961,1.375-5.067,1.366-7.153c-0.012-3.049,0.711-6.053,1.285-9.05
					c1.279-6.683,2.846-12.089,6.002-18.099c1.811-3.444,4.244-7.2,6.217-10.537c1.946-3.281,4.172-7.233,5.542-10.789
					c1.359-3.535,2.152-7.314,3.703-10.774c0.652-1.457,1.969-2.544,2.912-3.837c0.121-0.167,0.646-1.431,0.602-1.474
					c-0.311-0.312-0.324-0.534-0.635-0.846c-3.354,3.352-4.865,8.323-6.459,12.651"/>
			</g>
		</g>
		<g>
			<g>
				<path d="M346.645,242.531c-2.356,0.628-7.73,1.809-6.578,5.363c0.646,1.998,2.378,3.664,3.891,5.018
					c0.257,0.23,1.691,1.863,2.029,1.794c0.255-0.054,0.618-0.88,0.799-1.089c-1.382-1.172-2.608-2.493-3.831-3.833
					c-0.649-0.712-1.95-1.785-1.845-2.858c0.137-1.38,2.541-1.955,3.591-2.299c1.209-0.398,2.401-0.824,3.624-1.166
					c-0.071-0.229-0.185-1.205-0.375-1.305c-0.189-0.102-1.071,0.337-1.3,0.4"/>
			</g>
		</g>
		<g>
			<g>
				<path d="M343.794,248.027c-0.45,0.13-0.917,0.056-1.366,0.186c3.726,2.737,8.166,3.889,12.692,4.65
					c0.073-0.436,0.061-0.715,0.136-1.15c0.01-0.066-2.655-0.693-2.963-0.771c-2.165-0.532-4.412-1.2-6.414-2.188
					c4.942-0.661,9.924,0.604,14.873,0.489c-0.008-0.315-0.182-0.456-0.188-0.771c-0.018-0.668-0.118-0.505-0.763-0.516
					c-1.879-0.031-3.768-0.018-5.633-0.193c-3.427-0.326-7.07-0.902-10.433,0.067"/>
			</g>
		</g>
		<g>
			<g>
				<path d="M340.806,254.014c4.456,2.362,9.667,2.885,14.635,2.883c1.984-0.002,3.965-0.217,5.946-0.291
					c0.59-0.021,1.186,0.121,1.771,0.101c0.084-0.002-0.008-1.438-0.012-1.61c-3.67,0.137-7.354,0.334-11.023,0.113
					c-2.374-0.139-4.7-0.591-6.978-1.298c-1.22-0.381-2.433-0.778-3.563-1.378c-0.236,0.105-0.438,0.861-0.567,1.105"/>
			</g>
		</g>
		<g>
			<g>
				<path d="M245.357,126.172c1.848,2.854,4.002,5.478,6.736,7.533c2.434,1.831,5.473,2.89,7.628,5.061
					c3.605,3.635,4.125,9.398,5.262,14.169c0.437-0.119,0.978-0.063,1.413-0.179c0.485-0.131,0.287-0.378,0.17-0.858
					c-0.247-1.043-0.371-2.116-0.605-3.162c-0.843-3.752-1.869-7.715-4.476-10.681c-2.487-2.83-6.508-3.637-9.378-6.013
					c-1.484-1.229-2.53-2.933-3.684-4.475c-0.275-0.368-1.472-2.215-1.743-2.04c-0.433,0.281-1.176,0.528-1.609,0.808"/>
			</g>
		</g>
		<g>
			<g>
				<path d="M269.686,150.031c-1.302,0.653-2.902,1.635-4.352,0.894c-0.683-0.349-0.565-0.597-1.062-0.013
					c-0.243,0.283-0.398,0.564-0.64,0.848c1.322,1.127,2.894,1.323,4.53,0.826c1.425-0.434,3.234-2.042,4.732-1.88
					c0.886,0.096,1.222,1.652,1.388,2.311c0.14,0.565-0.071,1.514,0.618,1.404c0.447-0.072,0.838-0.243,1.283-0.313
					c-0.221-1.4-0.526-2.999-1.507-4.094c-1.406-1.571-3.384-0.686-4.947,0.103"/>
			</g>
		</g>
		<g>
			<g>
				<path d="M294.774,156.986c-1.565,1.007-3.637,2.573-5.603,2.125c-1.201-0.274-1.844-1.449-2.521-2.406
					c-0.494-0.758-1.236-1.248-2.221-1.281c-0.658-0.021-1.248-0.035-1.88,0.075c-0.491,0.085-0.35,0.381-0.799,0.188
					c-0.388-0.255-0.847-0.501-1.022-0.96c-0.25-0.66-0.115-1.269-0.014-1.944c-1.049,0.185-2.009-0.057-3.066,0.086
					c-0.682,0.093-1.362,0.197-2.043,0.289c-0.284,0.039-0.032,1.253-0.018,1.532c1.238-0.166,2.527-0.309,3.757-0.525
					c0.06,1.398,1.031,1.928,2.085,2.665c0.901,0.629,1.565,0.039,2.51-0.298c0.908-0.324,1.295,1.238,1.742,1.863
					c0.737,1.029,2.117,1.939,3.364,2.18c2.931,0.568,6.257-1.653,8.407-3.411c2.76-2.261,4.991-5.195,7.175-8.001
					c-0.597-0.464-0.734-0.956-1.264-0.282c-0.999,1.27-2.366,2.232-3.449,3.432c-1.554,1.727-3.168,3.423-5.133,4.686"/>
			</g>
		</g>
		<g>
			<g>
				<path d="M253.238,108.81c1.081,2.517,3.85,3.68,6.304,3.938c3.415,0.362,6.901-0.502,10.298-0.875
					c1.927-0.212,3.868-0.528,5.805-0.607c2.007-0.083,4.319-0.131,6.182,0.751c1.826,0.866,2.345,3.175,4.119,4.106
					c0.204-0.389,0.225-0.822,0.43-1.212c-0.051,0.097-1.582-1.663-1.742-1.872c-1.494-1.943-3.579-2.797-5.967-2.949
					c-2.629-0.169-5.275,0.469-7.889,0.765c-3.62,0.409-7.347,0.441-10.991,0.078c-1.49-0.15-3.042-0.434-4.295-1.312
					c-0.496-0.351-1.083-0.625-1.325-1.189c-0.22-0.074-0.927,0.378-1.159,0.478"/>
			</g>
		</g>
		<g>
			<g>
				<path d="M291.521,108.825c0.006,2.328-2.375,3.913-4.281,4.71c-0.988,0.413-2.041,0.743-3.113,0.801
					c-0.539,0.028-0.295,0.939-0.295,1.421c3.665-0.007,9.214-2.722,9.206-6.941c-0.46,0.001-0.915,0.034-1.375,0.035"/>
			</g>
		</g>
		<g>
			<g>
				<path d="M294.148,99.282c-4.307,1.518-5.006,6.477-3.48,10.29c0.409-0.163,0.707-0.455,1.115-0.62
					c-0.092,0.038-0.452-2.693-0.459-3.044c-0.043-2.028,0.722-3.938,2.588-4.928c3.587-1.898,5.785,0.467,7.879,3.03
					c2.163,2.648,3.197,6.594,2.908,9.971c-0.141,1.64-0.868,3.288-2.329,4.225c-0.805,0.518-1.673,0.929-2.618,0.911
					c-0.16,0.175-0.027,0.857-0.033,1.116c7.147,0.138,6.997-8.405,5.234-13.235c-1.571-4.309-5.767-9.75-10.888-7.95"/>
			</g>
		</g>
		<g>
			<g>
				<path d="M294.223,109.015c0.049,1.813,0.911,3.105,2.874,2.69c0.046,0.228,0.252,2.522,0.116,2.484
					c0.426,0.12,0.805,0.2,1.229,0.32c0.43-1.523,0.11-3.001-0.335-4.469c-0.537,0.181-1.825,0.836-2.246,0.199
					c-0.247-0.374-0.063-1.231-0.497-1.221c-0.388,0.011-0.764-0.008-1.152,0.002"/>
			</g>
		</g>
		<g>
			<g>
				<path d="M296.977,102.144c-2.605,0.572-3.96,3.599-3.781,6.033c0.314-0.023,0.599,0.023,0.914,0
					c0.655-0.049,0.361-0.327,0.421-0.962c0.123-1.321,0.823-2.666,1.963-3.406c1.155-0.748,2.244-0.29,2.889,0.833
					c0.171,0.298,0.204,0.826,0.575,0.687c0.363-0.137,0.715-0.234,1.08-0.371c-0.646-1.72-2.074-3.345-4.079-2.904"/>
			</g>
		</g>
		<g>
			<g>
				<path d="M294.702,107.182c0.159,0.27,0.288,0.576,0.448,0.847c0.367,0.624,0.706,0.021,1.306-0.231
					c1.398-0.584,2.977-0.519,3.746,0.969c0.517,0.997,1.146,3.836,0.098,4.555c-1.599,1.101-0.417,2.301,0.867,2.93
					c0.17-0.35,0.341-0.589,0.513-0.938c0.217-0.447-0.608-0.382-0.804-0.774c2.318-0.386,1.261-5.295,0.495-6.618
					c-1.48-2.556-4.454-1.995-6.644-0.703"/>
			</g>
		</g>
		<g>
			<g>
				<path d="M302.638,102.119c0.015,0.389,0.104,0.742,0.122,1.131c0.013,0.383,1.348,0.236,1.762,0.3
					c1.882,0.292,3.665,1.094,5.333,1.997c1.676,0.907,3.358,1.903,4.727,3.232c0.173,0.166,1.32,1.621,1.36,1.591
					c0.352-0.265,0.75-0.497,1.104-0.762c-3.115-4.164-9.106-7.781-14.414-7.587"/>
			</g>
		</g>
		<g>
			<g>
				<path d="M268.813,66.848c-16.971,2.345-29.333,17.657-32.264,34.079c0.356,0.063,1.152,0.392,1.425,0.208
					c0.163-0.911,1.127-1.582,1.363-2.478c0.54-2.053,0.373-4.353,1.201-6.31c1.983-4.684,4.616-9.361,8.081-13.097
					c9.026-9.728,23.155-13.071,35.972-10.626c8.69,1.659,16.143,7.53,20.894,15.153c2.467,3.959,4.392,8.141,5.474,12.631
					c1.205,5.011,2.012,10.115,4.641,14.644c0.321-0.186,0.671-0.147,0.769-0.471c-0.863-1.487-1.541-3.146-1.973-4.808
					c-0.749-2.896-0.726-5.993-1.4-8.907c-1.315-5.673-2.644-11.479-6.095-16.264c-7.264-10.073-19.895-14.806-31.966-14.492
					c-2.043,0.052-4.045,0.827-6.069,1.106"/>
			</g>
		</g>
		<g>
			<g>
				<path d="M302.139,76.355c0.193,0.194,0.734,0.943,0.989,0.974c0.494-0.493,1.216-0.938,1.947-0.704
					c1.34,0.426,2.237,2.02,2.787,3.191c0.71,1.514,1.262,3.139,1.657,4.763c0.132,0.552,0.12,1.143,0.18,1.708
					c0.033,0.289,1.161,0.051,1.449,0.03c-0.262-3.481-3.908-14.916-8.938-9.901"/>
			</g>
		</g>
		<g>
			<g>
				<path d="M305.287,76.976c0.262,0.308,0.528,0.867,0.897,0.935c1.05-0.891,2.663-0.495,4.022-0.692
					c2.828-0.413,5.837-0.393,8.397,0.74c5.315,2.348,10.065,6.492,13.752,10.99c4.638,5.658,8.379,13.118,7.142,20.53
					c-0.804,5.019-2.178,9.965-1.669,15.084c0.45,4.535,2.468,8.227,5.631,11.452c0.283-0.277,1.541-1.051,1.576-1.417
					c-1.338-1.365-3.407-2.34-4.31-4.03c-1.475-2.766-1.106-6.107-0.978-9.217c0.224-5.403,2.25-10.713,2.027-16.135
					c-0.303-7.378-4.008-14.786-9.016-20.071c-4.274-4.506-10.753-7.469-16.723-9.266c-3.758-1.132-7.486-1.404-10.628,1.262"/>
			</g>
		</g>
		<g>
			<g>
				<path d="M312.151,83.006c0.001,0.673-0.259,1.255,0.469,1.325c0.868,0.085,1.61,0.976,2.264,1.547
					c1.574,1.378,2.637,3.462,3.197,5.418c1.54,5.348,0.971,11.174,1.149,16.703c0.095,3.016,0.002,6.154,0.425,9.146
					c0.388,2.761,1.739,5.481,3.061,7.929c2.833,5.243,7.99,9.616,14.076,10.148c3.65,0.32,8.616-0.554,10.751-4.043
					c-0.318-0.195-0.163-0.286-0.481-0.48c-0.524-0.321-0.363-0.165-0.755,0.3c-0.834,0.987-2.266,1.339-3.48,1.685
					c-2.669,0.764-5.76,1.085-8.431,0.287c-6.022-1.803-9.583-7.349-11.354-13.205c-0.923-3.055-1.897-5.991-1.977-9.158
					c-0.07-2.756,0.828-5.558,0.643-8.309c-0.348-5.158-1.483-10.912-4.173-15.469c-1.212-2.049-2.897-3.315-5.376-3.312"/>
			</g>
		</g>
		<g>
			<g>
				<path d="M309.459,84.693c2.136,1.057,4.49,1.616,6.824,2c0.284,0.047,2.341,0.643,2.569,0.423
					c0.189-0.183,0.089-1.102,0.132-1.378c-1.881-0.285-3.763-0.567-5.61-1.027c-1.143-0.286-2.269-0.679-3.326-1.204
					c-0.226,0.099-0.505,1.012-0.622,1.25"/>
			</g>
		</g>
		<g>
			<g>
				<path d="M335.448,120.287c0.45,3.847,2.012,7.533,5.572,9.349c2.943,1.505,6.439,1.599,9.685,1.471
					c-0.024-0.627,0.238-1.253-0.475-1.233c-1.291,0.035-2.596-0.025-3.877-0.174c-2.001-0.232-4.066-0.798-5.747-1.951
					c-1.412-0.968-2.495-2.387-3.136-3.969c-0.383-0.943-0.495-1.98-0.65-2.984c-0.09-0.575-0.018-0.812-0.591-0.745
					c-0.311,0.036-0.52,0.209-0.833,0.245"/>
			</g>
		</g>
		<g>
			<g>
				<path d="M313.274,107.314c0.981,2.754,2.521,5.349,4.014,7.849c1.8,3.012,3.748,6.153,6.403,8.489
					c0.324-0.368,1.063-0.82,0.652-1.198c-0.749-0.691-1.353-1.522-1.994-2.312c-1.458-1.791-2.908-3.612-4.09-5.596
					c-1.062-1.781-2.08-3.614-2.959-5.492c-0.3-0.644-0.352-1.395-0.603-2.062c-0.124-0.336-1.152,0.224-1.465,0.336"/>
			</g>
		</g>
		<g>
			<g>
				<path d="M242.899,125.011c2.4,2.15,5.355,3.545,8.497,4.238c1.581,0.351,3.186,0.573,4.807,0.573
					c0.927-0.003,1.861,0.021,2.782-0.081c0.816-0.092,0.726-0.036,0.789-0.791c0.03-0.345,0.394-0.664,0.424-1.009
					c0.011-0.12-2.105-0.88-2.353-0.985c-1.571-0.666-3.079-1.462-4.435-2.501c-1.018-0.78-2.174-1.522-2.865-2.607
					c-0.369-0.576-0.159-0.796-0.748-0.486c-0.331,0.173-0.423,0.405-0.752,0.579c1.487,2.826,4.161,4.905,6.971,6.253
					c-5.732-0.058-11.5-2.495-14.777-7.308c-1.55-2.278-2.38-5.034-2.805-7.749c-0.229-1.469-0.382-2.961-0.323-4.445
					c-0.193-0.196-1.256-0.057-1.561-0.067c-0.222,6.083,1.738,12.244,6.357,16.379"/>
			</g>
		</g>
		<g>
			<g>
				<path d="M250.921,113.521c-0.428,0.021-0.77-0.038-1.196-0.016c2.468,3.372,5.396,5.666,9.236,7.286
					c-2.561-0.271-5.084-0.947-7.362-2.208c-1.067-0.591-1.974-1.387-2.588-2.457c-0.177-0.308-0.316-0.799-0.7-0.67
					c-0.369,0.123-0.726,0.154-1.094,0.275c1.667,4.977,8.281,6.002,12.784,6.348c1.017,0.078,2.028,0.253,3.045,0.258
					c0.549,0.001,0.513-0.176,0.598-0.702c0.15-0.945-0.35-0.765-1.243-1.085c-3.55-1.273-7.342-2.961-9.981-5.741
					c3.139-0.008,6.409,0.221,9.537,0.431c0.015-0.255,0.221-1.415-0.026-1.432c-0.772-0.051-1.554,0.072-2.325,0.02
					c-2.892-0.195-5.783-0.432-8.684-0.282"/>
			</g>
		</g>
		<g>
			<g>
				<path d="M231.739,110.344c0.284,3.33,2.21,5.831,5.147,7.339c0.135-0.266,0.785-1.077,0.705-1.331
					c-1.244-0.64-2.251-1.615-3.034-2.79c-1.507-2.267-1.369-5.022-0.646-7.544c0.818-2.86,2.09-5.691,3.997-7.964
					c0.85-1.012,1.95-1.82,2.986-2.642c0.524-0.415-0.465-1.245-0.82-1.716c-4.816,3.628-9.003,10.424-8.469,16.658"/>
			</g>
		</g>
		<g>
			<g>
				<path d="M264.382,134.803c0.193,0.418,0.383,0.854,0.577,1.272c2.46-1.134,5.097-2.484,6.994-4.453
					c-0.317-0.307-0.719-0.625-1.034-0.93c-0.021-0.021-1.625,1.369-1.839,1.519c-1.462,1.027-3.056,1.895-4.678,2.642"/>
			</g>
		</g>
		<g>
			<g>
				<path d="M268.156,132.972c0.38,0.569,0.792,1.129,1.144,1.716c-0.225-0.07-1.811-0.858-1.758-0.908
					c-0.317,0.307-0.633,0.602-0.948,0.909c0.852,0.875,2.023,1.444,3.219,1.61c0.396,0.054,0.481,0.143,0.584-0.251
					c0.076-0.284,0.465-0.719,0.492-0.908c0.141-0.921-1.317-2.453-1.778-3.125c-0.324,0.328-0.613,0.659-0.937,0.986"/>
			</g>
		</g>
		<g>
			<g>
				<path d="M256.507,132.447c0.372,0.11,0.824,0.185,1.198,0.297c0.403,0.121,0.648-1.008,0.797-1.376
					c0.483-1.171,1.085-2.328,2.085-3.132c0.908-0.729,2.011-1.113,3.162-1.18c0.216-0.014,1.649,0.064,1.656,0.006
					c0.049-0.438,0.146-0.847,0.194-1.286c-4.841-0.543-7.689,2.312-9.004,6.689"/>
			</g>
		</g>
		<g>
			<g>
				<path d="M278.923,152.756c0.171,0.428,0.34,0.882,0.511,1.31c1.639-0.66,3.098-1.63,4.454-2.762
					c-0.558-0.667-0.613-1.249-1.357-0.668c-1.106,0.867-2.328,1.547-3.632,2.07"/>
			</g>
		</g>
		<g>
			<g>
				<path d="M300.868,151.25c0.039,0.313,0.085,0.514,0.125,0.826c0.081,0.652,0.265,0.286,0.904,0.284
					c1.479-0.005,2.968,0.431,4.299,1.047c1.365,0.63,2.608,1.516,3.841,2.368c0.297,0.204,0.977,1.005,1.232,0.642
					c0.224-0.319,0.303-0.609,0.527-0.928c-3.195-2.25-6.843-4.935-10.959-4.414"/>
			</g>
		</g>
		<g>
			<g>
				<path d="M287.124,251.064c7.509,0.588,11.783,8.594,19.109,9.955c0.08-0.433,0.246-0.723,0.327-1.154
					c-0.002,0.007-2.443-0.833-2.718-0.952c-2.002-0.868-3.789-2.131-5.512-3.451c-3.319-2.544-6.759-5.376-11.104-5.715
					c-0.036,0.46-0.033,0.741-0.071,1.205"/>
			</g>
		</g>
		<g>
			<g>
				<path d="M279.362,245.914c-1.296,0.961-2.726,2.074-3.067,3.721c-0.378,1.815-0.072,3.771-0.631,5.538
					c-1.018,3.214-3.563,6.728-2.895,10.279c0.309-0.06,0.706-0.104,1.015-0.163c0.667-0.125,0.244-0.391,0.229-1.038
					c-0.021-0.961,0.512-1.821,0.776-2.729c0.269-0.92,0.534-1.821,0.93-2.698c0.703-1.56,1.321-3.142,1.45-4.886
					c0.24-2.285,0.109-4.314,1.889-6.021c0.729-0.696,1.61-1.205,2.334-1.908c1.015-0.983,1.565-2.306,2.044-3.624
					c-0.296-0.107-0.558-0.115-0.854-0.223c-0.722-0.264-0.5,0.508-0.794,1.102c-0.559,1.121-1.572,1.725-2.564,2.463"/>
			</g>
		</g>
		<g>
			<g>
				<path d="M277.859,263.956c-1.927,0.126-3.85,0.224-5.782,0.155c-0.387-0.012-1.433-0.234-1.475,0.213
					c-0.037,0.388-0.243,0.898-0.279,1.285c3.048,0.291,6.141-0.004,9.186-0.178c1.509-0.088,3.018-0.318,4.528-0.246
					c0.653,0.032,0.937,0.36,0.999-0.326c0.026-0.313,0.104-0.664,0.132-0.978c-2.429-0.211-4.878-0.034-7.307,0.122"/>
			</g>
		</g>
		<g>
			<g>
				<path d="M272.798,265.992c-0.043,0.992-0.051,1.984-0.094,2.976c-0.006,0.134-0.13,0.829-0.036,0.933
					c0.151,0.171,1.152,0.113,1.399,0.136c0.058-1.345,0.108-2.702,0.166-4.05c-0.46,0.003-0.937-0.016-1.396-0.016"/>
			</g>
		</g>
		<g>
			<g>
				<path d="M384.563,237.49c1.063,1.275,1.861,2.725,2.797,4.098c0.586,0.819,0.877,1.43,0.548,2.426
					c0.129,0.211,1.155,0.401,1.409,0.485c0.593-1.783-0.254-2.962-1.217-4.38c-1.127-1.652-2.338-3.195-3.553-4.775
					c-0.998-1.294-1.873-2.65-2.102-4.285c-0.137-0.985-0.098-1.998-0.004-2.99c-0.187-0.178-1.191-0.137-1.465-0.166
					c-0.371,3.902,0.961,6.822,3.396,9.744"/>
			</g>
		</g>
		<g>
			<g>
				<path d="M386.08,242.954c0.885,1.813,2.283,2.487,4.113,2.953c0.942,0.239,2.055,0.63,2.404,1.616
					c0.188,0.537-0.05,1.207-0.019,1.772c0.106,1.886,0.666,3.212,1.646,4.854c0.619,1.033,1.271,2.11,1.219,3.354
					c0.205,0.168,1.117,0.042,1.4,0.053c0.099-2.436-1.502-4.219-2.43-6.306c-0.57-1.28-0.281-2.539-0.604-3.849
					c-0.564-2.303-2.707-2.631-4.584-3.258c-0.906-0.303-1.468-0.965-1.882-1.819c-0.241-0.058-1.198,0.579-1.44,0.696"/>
			</g>
		</g>
		<g>
			<g>
				<path d="M386.611,260.822c-1.973,0.214-4.025,0.332-5.797,1.305c0.213,0.387,0.471,0.719,0.68,1.104
					c-0.037-0.067,2.582-0.748,2.887-0.801c1.879-0.32,3.781-0.433,5.648-0.81c3.84-0.776,6.588-3.088,8.34-6.597
					c-0.279-0.143-0.457-0.178-0.74-0.315c-0.686-0.345-0.762,0.36-1.115,0.926c-0.748,1.192-1.563,2.413-2.736,3.2
					c-2.106,1.415-4.715,1.611-7.18,1.878"/>
			</g>
		</g>
		<g>
			<g>
				<path d="M367.484,262.164c4.539,0,9.063,0.088,13.559,0.773c2.332,0.354,4.664,0.686,6.896,1.449
					c1.164,0.399,2.303,0.891,3.42,1.413c0.238-0.128,0.521-1.122,0.643-1.382c-7.707-3.602-16.154-3.617-24.506-3.617
					c0,0.461-0.012,0.771-0.012,1.23"/>
			</g>
		</g>
	</g>
</g>
<g>
	<g>
		<g>
			<g>
				<path fill="#CFD2D8" d="M220.338,366.293c-10.337-0.112-42.553-5.73-48.672,5.027c12.716,3.672,28.485,1.214,42.097,1.177
					c12.445-0.033,21.03,4.886,33.462,5.058c-12.146,18.641,11.866,15.274,26.896,16.023c19.913,0.994,39.89,1.457,59.895,2.48
					c29.197,1.497,80.074,12.102,107.968-1.239c-6.06-5.294-16.271-2.693-21.933-7.945c17.688-1.766,32.916-0.847,49.931,1.617
					c23.182,3.358,44.506-2.476,67.498-3.753c17.079-0.952,46.668,1.124,60.321-7.315c-5.602-5.313-15.09-6.823-19.276-11.163
					c1.141-0.754,2.537-1.114,3.614-1.797c-0.018-0.018-0.125-1.82-0.149-1.8c-68.306-2.632-136.359-7.049-204.537-13.896
					c-37.437-3.758-78.279-5.21-115.577,0.094c-16.007,2.273-30.987,10.388-46.956,11.847"/>
				<path fill="#F4BF9A" d="M562.422,341.693c3.312-1.24,9.328-4.963,13.541-9.616c4.215-4.654,4.516-4.654,6.621-5.896
					c2.107-1.239,2.406-2.79,3.311-2.48c0.902,0.311,4.515,3.104,5.72,6.515c1.203,3.412-0.304,5.274-0.603,6.826
					c-0.303,1.552-0.604,1.552-0.604,3.412c0,1.859-0.902,4.963-3.611,8.377c-2.707,3.412-4.213,2.171-9.328,8.063
					c-5.115,5.894-6.32,7.445-8.426,7.757c-2.107,0.312-2.107,0.312-2.107,0.312L562.422,341.693z"/>
				<path fill="#F4BF9A" d="M540.273,336.431c2.709-1.552,9.932-7.444,14.745-8.378c4.816-0.93,9.632-4.963,10.533-6.513
					c0.904-1.552,3.013-5.585,3.013-5.585l3.309,1.86l1.203-2.172c0,0,3.611,3.102,0.604,7.136
					c-3.012,4.033-3.612,5.585-3.912,7.756c-0.303,2.171-3.612,5.272-8.428,7.447c-4.813,2.171-21.065,5.585-21.065,5.585
					L540.273,336.431L540.273,336.431z"/>
				<path fill="#476687" d="M480.104,338.763c-8.096-2.709,15.65-4.036,25.582-4.654c9.933-0.619,6.921,0.618,10.23,2.48
					s6.32,0.622,8.127-0.619c1.805-1.243,12.338-2.171,15.047-2.171s2.709,0,2.709,0s0.603,4.964,0.9,8.375
					C543.002,345.588,491.238,342.485,480.104,338.763z"/>
				<path fill="#476990" d="M559.609,336.133c0,0-14.021,2.688-23.949,2.998c-9.932,0.31-7.459,1.103-18.291,1.103
					c-10.836,0-12.641-0.31-25.279-2.792c-12.641-2.482-24.979-7.445-29.793-7.445c-4.813,0-10.231,0-17.156,0
					c-6.92,0-11.252-2.204-24.063-4.604c-12.635-2.366-23.785-5.321-31.609-6.253c-7.826-0.933-15.279-0.655-19.791-0.968
					c-4.516-0.309-6.021-0.309-7.225-0.309s-2.275,1.519-2.275,1.519s-7.426,3.789-7.727,13.718c-0.301,9.929,0,12.409,1.205,19.854
					c1.205,7.444,1.205,8.688,1.205,8.688l8.425,13.961c0,0,40.629,6.823,57.18,4.961c16.553-1.859,24.074,0.621,32.803,1.555
					c8.729,0.93,27.386,0.619,43.337,0c15.948-0.621,25.881-0.934,42.131-1.862c16.25-0.933,22.485-0.361,22.485-0.361
					s3.263-5.581,5.066-8.063c1.804-2.482,1.805-2.481,1.805-2.481s0.302-4.032-1.506-11.479c-1.805-7.445,0-10.238-0.899-13.96
					C564.781,340.184,560.813,335.824,559.609,336.133z"/>
				<path fill="#355673" d="M363.285,362.57c6.693,3.939,15.395,3.739,22.898,5.27c9.872,2.018,20.307,3.919,30.396,5.907
					c15.307,3.015,31.654,4.335,47.25,4.335c22.004,0,43.646,2.116,64.977-2.188c11.793-2.383,24.763-0.228,36.722-1.208
					c0.457-0.039-0.521,0.05,0,0l-4.308,5.206c0,0-15.563,0.671-27.903,0.671c-12.338,0-31.297,1.861-48.148,1.861
					c-16.854,0-32.199-0.619-38.219-1.241c-6.021-0.62-9.933-1.552-14.445-1.552c-4.516,0-14.748,0.622-14.748,0.622
					s-13.24,0-32.502-0.933C365.994,378.391,363.285,362.57,363.285,362.57z"/>
				<path fill="#F4BF9A" d="M362.34,320.105c-6.92-1.241-9.33-2.793-26.783-1.86c-17.455,0.931-18.562,0.617-29.094,0.617
					c-10.534,0-19.024,3.425-25.044,6.218c-6.018,2.792-14.705,7.8-18.826,10.017c-4.491,2.418-5.716-2.07-9.327-2.07
					s-3.184-9.675-3.385-14.407c-0.204-4.737-3.002-7.747-7.022-6.917c-4.021,0.829-5.199-2.208-5.742-0.458
					c-1.439,4.67-2.896-1.108-3.795-1.201c-0.896-0.093-2.298,1.988-3.932,0.258c-1.635-1.729-5.048-2.918-6.234-0.238
					c-1.186,2.686-1.7,3.778-8.115,4.359c-6.412,0.58-18.104,4.287-21.321,6.134c-3.219,1.853-1.506,8.543-0.904,13.507
					c0.602,4.967,38.392,32.577,39.897,33.508c1.504,0.931,14.681-11.398,25.216-0.519c7.612,7.861,58.367,0.831,71.608,0.521
					c13.241-0.31,35.513-6.204,35.513-6.204s-1.809-5.583-2.108-20.786C362.641,325.38,362.34,320.105,362.34,320.105z"/>
				<path fill="#6E7D8F" d="M401.457,376.204l0.52,19.862c0,0-3.672-1.294-10.711-0.173c-4.52,0.72-11.344,4.145-16.442,3.903
					c-13.041-0.619-19.576-1.484-21.381-1.484s-14.697-2.316-18.308-2.938c-3.611-0.62-15.083-1.576-15.083-1.576
					s-3.613,0.414-10.434,0.209c-6.821-0.209-9.495-5.265-17.721-7.332c-8.226-2.066-16.652-4.757-18.657-6.826
					c-2.008-2.066-5.619-2.48-8.428-3.721c-2.808-1.243-6.018-3.725-6.018-3.725s1.777-4.168,6.391-14.509
					c4.613-10.343,25.373-11.459,32.396-10.838s18.659,2.896,31.499,5.997c12.841,3.104,31.5,11.17,36.714,13.856
					c5.217,2.688,6.1,1.214,12.52,4.11c6.422,2.896,2.527,3.955,8.346,3.335C392.479,373.738,401.457,376.204,401.457,376.204z"/>
				<path fill="#7F90A7" d="M387.984,375.34l7.256,0.864c-3.758-1.937-5.559-4.496-9.502-6.046
					c-3.943-1.549-7.119-2.382-11.25-4.899c-4.131-2.517-9.391-4.063-16.336-6.39c-6.949-2.322-18.403-9.485-32.297-13.55
					c-13.896-4.064-24.599-6.775-32.485-6.968c-7.884-0.193-18.776-0.386-24.221,4.259c-5.446,4.646-7.137,6-9.765,13.743
					c-2.629,7.743-3.005,12.97-3.005,13.549c0,0.582,0.752,2.711,3.194,3.486c2.439,0.773,4.13,1.936,4.13,1.936
					s-1.877,5.418-1.877,7.45c0,2.033,2.254,4.065,3.098,3.774c0.846-0.291,3.944-3.774,5.071-4.935
					c1.127-1.164,1.127-1.164,1.127-1.164s1.689-3.773,1.689-11.613c0-7.839,8.241-13.35,14.999-14.225
					c6.76-0.868,21.334,0.289,21.334,0.289s2.534,2.901,11.266,4.646c8.732,1.74,14.083,4.354,14.083,4.354s3.099-2.904,5.915,1.158
					c2.816,4.066,7.605,4.357,14.364,6.1c6.761,1.741,10.212-2.594,15-2.016c4.787,0.58,6.815,0.666,6.815,0.666
					s4.461,2.528,6.045,3.109C385.912,374.133,387.984,375.34,387.984,375.34z"/>
				<path fill="#F4BF9A" d="M400.766,376.376c5.306-1.152,1.334-0.435,6.554-0.435c5.215,0,16.022,0.854,17.627,2.509
					c1.604,1.651-7.597,4.112-7.597,4.112s2.316-0.259,5.007,0.895c3.627,1.557,8.034,0.282,8.637,1.729
					c0.602,1.448,1.209,2.937,1.209,2.937l-1.381,0.172c0,0-0.318,0.035-0.519,0.864c0,0-3.522,2.092-8.139,3.951
					c-4.615,1.862-9.229,3.726-13.844,3.311c-4.615-0.414-6,0.166-6,0.166s-1.248-2.222-3.455-7.6
					C396.66,383.609,396.955,377.205,400.766,376.376z"/>
				<path fill="#586572" d="M291.782,353.406c8.809-2.593,13.472,2.245,23.489,1.382c5.451-0.47,6.786,1.161,6.786,1.161
					s8.371-0.994,13.422,1.603c24.871,12.781,23.293,6.467,27.908,9.774c4.615,3.311,3.008,2.485,3.008,2.485l-4.145,1.383
					c0,0,3.744-0.354-3.478-0.559c-7.223-0.207-19.461-2.69-24.277-4.549c-4.814-1.862-6.017-4.554-8.023-5.792
					c-2.006-1.241-4.014,0.412-4.014,0.412s-11.233-3.723-14.043-4.345c-2.81-0.619-9.63-1.859-10.232-2.479
					S291.782,353.406,291.782,353.406z"/>
				<path fill="#586572" d="M273.811,371.397c2.228,4.023,14.103,8.321,18.147,10.357c11.51,5.797,22.071,6.465,34.137,7.877
					c6.4,0.747,10.418,3.945,16.535,5.651c8.989,2.511,19.229,1.594,28.535,3.646c2.258,0.498,4.521,0.699,6.688,1.232
					c-27.604,1.016-33.846-3.703-50.735-4.326c-10.794-0.401-22.368-2.304-32.542-5.825c-3.867-1.341-6.494-3.193-9.862-5.101
					c-2.388-1.354-7.981-2.83-9.939-4.52c-2.173-1.871-4.151-2.282-1.565-6.206"/>
			</g>
			<path fill="#8F745E" d="M198.814,316.515c0,0-12.232,4.864-13.336,15.113c-1.101,10.249-1.716,19.785-1.519,20.297
				c0.194,0.509-1.569-0.276-1.569-0.276l0.716,4.463l-2.206,0.963c0,0,2.163,9.757,7.313,12.813
				c5.147,3.058,5.147,3.058,5.147,3.058l-1.835,1.466c0,0,1.69,3.037,4.122,3.274c2.43,0.24,2.43,0.24,2.43,0.24l0.414,1.533
				c0,0,3.766-0.859,5.303-1.271c1.538-0.414,3.435-0.498,3.435-0.498s4.564,1.524,12.297,0.49
				c7.734-1.032,11.083-3.429,12.931-4.721c1.843-1.291,5.022-3.681,5.691-4.229c0.667-0.55,2.526-1.496,2.526-1.496
				s-0.687-3.773-3.028-5.916c-2.343-2.144-6.143-5.953-6.143-5.953s-4.16-4.135-3.741-6.402c0.418-2.266,2.764-3.926,4.091-5.195
				s0.741-2.799,0.741-2.799s-4.206,2.605-7.568,0.855c-3.364-1.755-5.04-4.445-9.351-4.254c-4.315,0.19-7.513-1.741-11.167-2.271
				c-3.653-0.531-5.724-0.438-5.724-0.438l1.492-1.448c0,0-0.024-0.518-1.585-0.623c-1.559-0.104-3.099,0.311-3.099,0.311
				s0.929-2.462,3.683-2.757c2.754-0.296,4.391,1.536,4.391,1.536s-0.858-3.77-4.341-4.303c-3.481-0.538-6.354,0.97-6.354,0.97
				s0.396-2.781,1.903-3.886s2.173-1.652,2.173-1.652s-2.25-0.072-3.764,0.859C193.284,324.368,195.815,319.069,198.814,316.515z"/>
		</g>
		<g>
			<g>
				<g>
					<path d="M261.343,337.7c-0.68-0.126-1.763,0.232-2.443,0.109c0.537-2.862,3.898-3.637,6.182-4.828
						c3.349-1.75,6.567-3.724,9.943-5.425c8.723-4.398,17.891-8.329,27.669-9.328c5.514-0.562,11.105-0.846,16.638-0.802
						c6.026,0.044,12.017,0.614,18.021,0.123c5.387-0.439,10.817-1.721,16.215-1.223c2.514,0.23,4.797,1.693,7.245,2.305
						c0.793,0.196,2.188-0.533,2.047,0.412c-0.071,0.507-0.455,0.712-0.526,1.219c-1.919-0.28-3.69-0.952-5.604-1.267
						c-2.686-0.443-5.458-0.601-8.179-0.617c-5.176-0.035-10.306,1.201-15.463,1.58c-10.282,0.763-20.699-0.668-30.943,0.531
						c-8.821,1.032-17.508,3.626-25.438,7.523c-2.887,1.417-5.565,3.268-8.371,4.833c-2.007,1.124-7.171,2.526-7.534,5.255"/>
				</g>
				<g>
					<path d="M263.328,387.572c-0.34-0.663-0.759-0.963-0.024-1.359c1.129-0.613,2.013-1.613,3.022-2.407
						c2.205-1.733,4.238-3.828,5.209-6.5c1.095-3.01,0.354-6.041,0.259-9.129c-0.086-2.781,0.667-5.212,2.523-7.264
						c3.226-3.563,7.975-5.846,12.43-7.45c5.452-1.964,11.458-2.986,17.258-2.424c-0.077,0.804,0.212,1.258-0.688,1.188
						c-1.587-0.12-3.185,0.013-4.769,0.143c-3.454,0.282-6.938,0.882-10.229,1.95c-4.714,1.531-9.94,3.972-13.2,7.844
						c-1.953,2.319-2.051,4.902-1.748,7.849c0.335,3.242,0.582,6.347-0.941,9.334c-1.851,3.643-5.406,6.438-8.995,8.272"/>
				</g>
				<g>
					<path d="M265.204,386.51c-1.715,0-4.635-0.721-4.521-2.943c0.103-2.016,0.92-3.961,1.247-5.946
						c0.49-2.991,0.947-5.984,1.239-9.004c0.153-1.582,0.287-3.162,0.285-4.756c-0.002-0.994,0.667-0.692,1.555-0.712
						c0.117,5.336-0.678,11.239-2.054,16.41c-0.391,1.474-1.749,4.159,0.096,5.06c1.069,0.521,2.384,0.667,3.526,0.399
						c0.79-0.185,0.754,0.467,1.01,1.183c-0.743,0.265-1.597,0.414-2.382,0.414"/>
				</g>
				<g>
					<path d="M261.787,374.689c-1.696-0.954-4.665-1.587-5.732-3.369c-1.248-2.088-0.003-5.625,0.288-7.804
						c0.494-3.725,0.993-7.534,3.133-10.72c1.193-1.773,2.599-3.405,3.997-5.017c0.167-0.194,1.205-1.459,1.349-1.34
						c0.331,0.269,0.71,0.474,1.039,0.741c-1.957,2.398-4.294,4.627-5.796,7.361c-1.676,3.046-1.987,6.524-2.446,9.912
						c-0.216,1.589-1.341,4.701-0.278,6.204c1,1.415,3.566,2.162,5.003,2.971c-0.225,0.401-0.36,0.708-0.585,1.108"/>
				</g>
				<g>
					<path d="M363.703,357.787c-0.543-7.467-1.695-14.863-1.516-22.366c0.092-3.67,0.155-7.351-0.179-11.016
						c-0.151-1.662-0.36-3.325-0.778-4.943c-0.383-1.475,0.071-1.285,1.436-1.726c1.877,5.808,1.295,12.231,1.168,18.247
						c-0.186,7.26,0.771,14.458,1.295,21.685c-0.574,0.045-0.975,0.084-1.549,0.126"/>
				</g>
				<g>
					<path d="M368.367,319.276c-1.813-0.196-3.605-0.544-5.426-0.675c-1.404-0.1-1.174-0.056-1.205-1.396
						c1.6-0.024,3.182,0.236,4.76,0.465c0.25,0.038,2.027,0.17,2.006,0.354c-0.045,0.426-0.096,0.84-0.143,1.264"/>
				</g>
				<g>
					<path d="M453.117,332.137c-7.353,0-14.336-2.589-21.484-4.06c-7.557-1.552-15.133-3.074-22.74-4.377
						c-6.95-1.19-13.926-2.336-20.914-3.286c-2.949-0.399-5.961-0.326-8.905-0.747c-2.188-0.313-4.351-0.6-6.558-0.298
						c-1.268,0.172-2.543,0.274-3.744,0.71c-0.268-0.146-0.852-1.173-0.961-1.474c-0.028-0.08,0.289-0.337,0.26-0.419
						c4.923-1.779,9.427-1.009,14.457-0.465c2.435,0.266,4.886,0.415,7.31,0.756c7.217,1.021,14.293,2.945,21.478,4.19
						c7.471,1.296,14.909,2.718,22.329,4.277c2.591,0.547,5.313,0.526,7.871,1.21c5.146,1.373,10.132,2.002,15.447,1.766
						c3.156-0.141,6.33-0.681,9.494-0.703c0.004,0.515,0.113,1.197,0.115,1.706c0.01,1.08-2.216,0.968-3.111,1.001
						c-3.443,0.137-6.895,0.3-10.342,0.3"/>
				</g>
				<g>
					<path d="M531.334,340.744c-2.979,0-5.824-0.871-8.771-1.148c-3.309-0.311-6.647,1.124-9.961,1.166
						c-6.473,0.086-12.752-1.945-19.12-2.902c-3.398-0.512-6.73-0.85-10.063-1.71c-3.301-0.857-6.787-1.082-10.029-2.139
						c-3.25-1.061-6.358-2.639-9.723-3.276c-0.596-0.112-3.141-0.15-3.1-0.624c0.057-0.603-0.15-0.513-0.097-1.113
						c9.488,0.869,18.039,4.422,27.363,6.074c4.525,0.803,9.035,1.913,13.582,2.618c4.543,0.7,9.154,0.954,13.754,0.616
						c2.293-0.167,4.512-0.057,6.822,0.089c2,0.125,3.912,0.54,5.891,0.845c4.826,0.733,9.359-0.978,14.123-1.473
						c4.664-0.484,9.275-1.394,13.924-1.999c2.172-0.284,4.332-0.619,6.496-0.935c1.078-0.157,0.719,0.912,0.855,1.854
						c-5.111,0.751-10.068,2.122-15.203,2.704c-2.885,0.328-5.822,0.253-8.685,0.738c-2.67,0.452-5.34,1.424-8.061,1.424"/>
				</g>
				<g>
					<path d="M567.26,370.628c-1.373-0.509-1.201-0.375-0.756-1.878c0.5-1.686,0.769-3.465,0.66-5.228
						c-0.193-3.11-1.41-6.06-2.205-9.044c-0.475-1.771-1-3.488-0.936-5.329c0.067-2.011,0.58-4.039,0.368-6.051
						c-0.405-3.877-4.098-5.622-7.01-7.555c0.756-1.138,0.658-1.287,1.914-0.487c1.42,0.901,2.99,1.687,4.18,2.888
						c3.117,3.141,2.097,7.221,1.951,11.224c-0.139,3.767,1.479,7.316,2.373,10.909c0.89,3.565,0.699,7.011-0.584,10.463"/>
				</g>
				<g>
					<path d="M558.535,381.679c-0.426-0.735-0.935-1.014-0.154-1.521c1.244-0.813,2.353-1.823,3.346-2.918
						c2.347-2.588,4.179-5.637,6.64-8.12c0.645,0.637,1.233,0.765,0.549,1.503c-1.275,1.362-2.387,2.874-3.535,4.347
						c-1.947,2.501-4.021,5.117-6.813,6.726"/>
				</g>
				<g>
					<path d="M472.35,384.418c-8.668,0-17.28-1.37-25.916-1.987c-4.022-0.287-8.084,0.014-12.106-0.239
						c-1.582-0.104-3.148-0.513-4.734-0.601c-0.41-0.021-0.59,0.262-0.563-0.228c0.03-0.603-0.603-0.784-0.57-1.387
						c17.205,0.892,34.424,2.628,51.666,1.999c12.217-0.442,24.412-0.94,36.639-1.224c12.488-0.282,24.974-0.782,37.445-1.554
						c2.49-0.154,5-0.026,7.484-0.238c1.198-0.099,0.899,1.292,0.991,2.344c-14.979,1.31-30.1,1.188-45.122,1.522
						C502.49,383.167,487.422,384.418,472.35,384.418"/>
				</g>
				<g>
					<path d="M519.57,337.858c-2.728,0-4.104-1.727-6.183-3.025c-2.08-1.301-5.146,0.395-7.389,0.482
						c-6.318,0.243-12.633,0.395-18.959,0.395c0-0.542-0.082-1.012-0.082-1.554c0-0.152,4.049,0.042,4.525,0.025
						c3.155-0.095,6.288-0.71,9.436-0.875c2.975-0.151,5.865-0.079,8.809-0.496c1.263-0.179,2.593-0.351,3.804,0.142
						c1.268,0.512,2.021,1.629,3.104,2.396c2.002,1.417,3.603,1.019,5.539-0.089c2.185-1.247,4.623-1.479,7.1-1.756
						c2.773-0.312,5.544-0.657,8.33-0.708c1.492-0.026,2.953,0.267,4.443,0.229c0.201,0.216,0.059,1.049,0.066,1.369
						c-4.05,0.103-8.095,0.203-12.127,0.606c-1.773,0.177-3.67,0.216-5.349,0.851c-1.715,0.648-3.149,2.167-5.067,2.167"/>
				</g>
				<g>
					<path d="M540.836,337.55c-0.01-1.741-0.365-3.451-0.559-5.175c0.768-0.086,1.342-0.47,1.455,0.395
						c0.205,1.586,0.465,3.158,0.477,4.767c-0.463,0.002-0.902,0.011-1.363,0.015"/>
				</g>
				<g>
					<path d="M540.727,336.576c-0.743-1.183-1.022-1.153,0.16-1.904c1.492-0.952,3.117-1.689,4.652-2.579
						c3.984-2.303,8.223-3.744,12.518-5.331c1.57-0.58,2.826-1.484,4.039-2.645c1.379-1.32,2.613-3.137,4.33-4.043
						c1.906-1.005,3.623-1.106,5.053-2.937c0.369-0.474,0.611-1.054,0.882-1.591c0.211-0.063,1.141,0.588,1.36,0.698
						c-0.518,1.034-1.311,1.92-2.146,2.718c-1.334,1.271-2.732,1.573-4.313,2.332c-1.492,0.716-2.541,2.35-3.688,3.495
						c-1.236,1.236-2.611,2.237-4.234,2.907c-3.67,1.517-7.522,2.451-11.076,4.27c-2.647,1.357-5.104,3.055-7.61,4.65"/>
				</g>
				<g>
					<path d="M563.322,338.185c-0.138-0.269-0.765-1.13-0.478-1.288c1.025-0.573,2.011-1.271,2.881-2.053
						c1.232-1.105,2.431-2.385,2.769-4.065c0.295-1.471,0.451-2.849,1.137-4.22c1.305-2.604,5.172-4.314,4.295-7.677
						c-0.24-0.93-0.807-1.785-1.719-2.078c-0.563-0.185-0.209-0.821-0.125-1.356c2.129,0.328,3.537,2.367,3.537,4.417
						c0,3.145-2.978,4.395-4.457,6.76c-1.412,2.254-0.875,5.047-2.557,7.176c-1.367,1.727-3.283,3.405-5.271,4.399"/>
				</g>
				<g>
					<path d="M564.301,323.211c-0.418-0.196-0.801-0.379-1.219-0.573c0.893-1.92,2.324-3.532,3.775-5.043
						c0.807-0.84,1.653-1.649,2.397-2.548c0.258,0.007,0.854,0.712,1.064,0.887c-2.002,2.399-4.672,4.396-6.021,7.281"/>
				</g>
				<g>
					<path d="M570.416,317.877c-1.053-0.412-2.133-0.745-3.221-1.047c-0.103-0.231,0.305-1.089,0.377-1.349
						c1.133,0.314,2.244,0.691,3.338,1.122c-0.166,0.43-0.33,0.854-0.498,1.281"/>
				</g>
				<g>
					<path d="M561.258,342.692c-0.342-0.771-1.094-1.341-0.236-1.743c1.513-0.712,2.966-1.565,4.363-2.479
						c2.906-1.894,5.666-4.109,8.033-6.646c2.338-2.504,4.508-4.69,7.25-6.744c1.299-0.973,2.508-2.048,3.736-3.11
						c0.785-0.679,1,0.207,1.61,0.897c-1.887,1.664-3.774,3.262-5.807,4.749c-2.121,1.555-3.84,3.398-5.631,5.313
						c-3.742,4.002-8.342,7.652-13.355,9.886"/>
				</g>
				<g>
					<path d="M580.631,333.371c-0.365-0.279-0.74-0.526-1.106-0.805c2.26-2.972,5.602-5.326,8.659-7.398
						c0.146,0.212,0.824,0.943,0.793,1.175c-1.028,0.696-2.021,1.45-3.01,2.204c-1.881,1.439-3.934,2.927-5.377,4.829"/>
				</g>
				<g>
					<path d="M586.625,325.51c-0.264-0.935-0.922-1.701-1.771-2.164c-0.706-0.391-0.227-0.794,0.058-1.504
						c1.463,0.582,2.604,1.772,3.037,3.298c-0.445,0.123-0.896,0.249-1.338,0.372"/>
				</g>
				<g>
					<path d="M589.643,339.661c-0.211-0.37-0.521-0.684-0.733-1.053c0-0.006,1.563-1.397,1.75-1.695
						c0.559-0.873,0.506-1.855-0.172-2.641c-0.213-0.749-0.281-0.052-0.035-0.821c1.098-1.418,0.983-3.108-0.688-3.959
						c-0.559-0.286-0.17-0.154-0.271-0.65c0.229-1.014-0.619-1.763-0.951-2.647c1.15-0.434,1.15-0.632,1.801,0.438
						c0.384,0.628,0.599,1.273,0.531,2.029c0.764,0.496,1.457,1.191,1.658,2.092c0.184,0.831,0.039,1.73-0.318,2.49
						c-0.467,0.999,0.187,1.323,0.217,2.414c0.052,1.792-1.385,3.242-2.836,4.06"/>
				</g>
				<g>
					<path d="M584.213,333.735c-0.291-0.357-0.563-0.706-0.854-1.062c2.366-1.938,4.914-3.949,7.854-4.922
						c0.135,0.406,0.262,0.787,0.396,1.19c0.034,0.107-1.904,0.94-2.177,1.091c-1.869,1.028-3.596,2.313-5.241,3.663"/>
				</g>
				<g>
					<path d="M586.203,337.863c-0.322-0.331-0.646-0.701-0.967-1.034c1.373-1.317,3.043-2.285,4.608-3.346
						c0.265-0.179,1.996-1.508,2.088-1.403c0.277,0.321,0.519,0.639,0.796,0.963c-2.041,1.772-4.563,2.909-6.519,4.789"/>
				</g>
				<g>
					<path d="M585.111,343.766c-0.32-0.331-0.644-0.7-0.963-1.03c2.116-2.054,4.43-4.021,7.291-4.937
						c0.104,0.324,0.233,0.624,0.338,0.948c0.211,0.654-1.142,0.813-1.679,1.098c-1.872,0.989-3.434,2.455-4.944,3.921"/>
				</g>
				<g>
					<path d="M566.406,367.648c-0.193-0.417-0.354-0.854-0.547-1.272c-0.289-0.623,1.188-0.826,1.696-1.117
						c1.752-1.005,3.228-2.422,4.689-3.809c3.117-2.946,5.861-6.23,9.271-8.869c2.351-1.817,3.947-2.9,5.068-5.655
						c0.736-1.803,2.064-3.388,2.637-5.25c0.07-0.229,0.131-1.67,0.091-1.64c0.444-0.313,0.854-0.696,1.299-1.012
						c1.895,2.685-1.57,6.853-2.533,9.334c-0.961,2.487-3.049,3.565-5.131,5.105c-5.918,4.382-9.654,10.952-16.521,14.141"/>
				</g>
				<g>
					<path d="M475.93,375.19c-9.012-0.022-14.278,0.113-22.942-0.368c-8.97-0.498-20.742-3.233-29.529-5.043
						c-8.322-1.715-16.484-4.017-24.752-5.97c-8.718-2.059-17.59-3.462-26.31-5.505c0.078-0.331,0.248-0.813,0.324-1.146
						c0.172-0.726,1.648,0.144,2.242,0.276c2.232,0.515,4.535,0.703,6.77,1.199c4.566,1.013,9.066,2.299,13.625,3.344
						c8.771,2.011,17.38,4.711,26.171,6.612c8.897,1.926,17.893,3.644,26.989,4.214c9.171,0.575,18.402,0.191,27.543,1.194
						C476.014,374.456,475.98,374.731,475.93,375.19"/>
				</g>
				<g>
					<path d="M465.387,375.215c-0.022-0.463,0.09-1.076,0.066-1.536c18.582-0.915,37.197,0.504,55.777-0.612
						c7.512-0.452,15.034-0.729,22.532-1.392c4.693-0.414,9.41-0.646,14.104-0.974c4.301-0.298,8.424,0.22,12.676,0.788
						c-0.059,0.457-0.008,0.496-0.07,0.955c-4.114-0.557-8.278-1.438-12.438-1.166c-4.629,0.302-9.23,1.284-13.855,1.693
						c-7.526,0.673-15.086,0.904-22.633,1.36c-18.662,1.124-37.324,0.395-55.992,1.31"/>
				</g>
				<g>
					<path d="M402.023,396.799c-5.099-4.803-6.568-14.43-2.662-20.412c0.221,0.145,1.014,0.478,1.082,0.708
						c-0.527,0.812-0.961,1.699-1.242,2.622c-0.648,2.13-0.709,4.434-0.473,6.638c0.233,2.173,0.829,4.328,1.875,6.253
						c0.555,1.021,1.305,1.905,2.112,2.738c0.563,0.575-0.182,0.913-0.678,1.439"/>
				</g>
				<g>
					<path d="M377.873,400.981c-3.691,0-7.189-1.653-10.859-1.692c-2.402-0.026-4.746,0.097-7.151-0.093
						c-2.366-0.187-4.758-0.108-7.118-0.372c-4.119-0.466-8.31-0.326-12.388-1.133c-3.798-0.754-7.146-2.649-10.39-4.75
						c0.278-0.431,0.293-0.734,0.571-1.164c0.552-0.854,1.607,0.612,2.358,1.026c2.334,1.285,4.974,1.864,7.583,2.418
						c2.967,0.63,5.901,0.831,8.91,1.033c3.398,0.227,6.753,0.906,10.146,1.195c3.085,0.264,6.218-0.472,9.285-0.148
						c2.813,0.296,5.492,1.6,8.332,1.688c5.506,0.179,10.024-3.253,15.289-4.284c0.072,0.372,0.672,2.104,0.494,2.404
						c-1.787,0.351-3.582,0.707-5.279,1.371c-3.213,1.256-6.275,2.282-9.783,2.282"/>
				</g>
				<g>
					<path d="M329.833,395.535c-5.634,0-11.165-1.04-16.776-1.243c-2.742-0.097-5.473-0.544-8.131-1.305
						c-2.762-0.791-5.33-2.188-8.173-2.704c-2.167-0.454-4.422-0.515-6.528-1.229c-2.778-0.938-5.156-2.738-7.698-4.163
						c-4.142-2.318-10.289-2.969-13.041-7.223c0.507-0.326,0.908-0.307,1.414-0.635c0.214-0.137,2.125,1.431,2.676,1.728
						c2.873,1.545,5.978,2.464,8.876,4.001c2.855,1.515,5.631,3.225,8.729,4.229c2.773,0.902,5.818,0.791,8.563,1.771
						c3.203,1.141,5.956,2.723,9.405,3.007c3.399,0.279,6.766,0.461,10.158,0.865c3.511,0.417,7.048,0.713,10.587,0.71
						c0.515,0,5.294-0.272,5.298-0.232c0.063,0.666,0.015,1.409,0.077,2.073c-1.795,0.167-3.632,0.482-5.435,0.482"/>
				</g>
				<g>
					<path d="M331.801,363.161c-5.059-0.308-9.675-3.304-14.651-4.221c-2.97-0.553-5.828-0.99-8.639-2.14
						c-1.325-0.542-2.631-1.153-4-1.58c-0.113-0.302,0.424-1.275,0.526-1.605c2.673,0.835,5.149,2.22,7.875,2.892
						c2.761,0.685,5.603,0.921,8.342,1.719c2.181,0.639,4.295,1.446,6.446,2.169c1.368,0.464,2.75,0.996,4.197,1.082
						c0.181,0.236-0.075,1.423-0.094,1.744"/>
				</g>
				<g>
					<path d="M360.945,372.404c-3.646-0.502-7.198-1.457-10.732-2.47c-1.587-0.453-3.22-0.751-4.804-1.21
						c-1.54-0.444-3.202-0.712-4.361-1.912c-1.093-1.136-1.88-3.016-3.691-3.102c-1.249-0.06-2.547,0.384-3.592,0.994
						c-0.965,0.56-0.858-0.082-1.395-0.936c1.948-1.228,4.558-2.58,6.828-1.343c1.63,0.89,2.405,3.379,4.161,3.864
						c3.606,0.989,7.195,2.027,10.815,2.967c1.858,0.48,3.696,1.075,5.59,1.396c1.691,0.289,1.382,0.281,1.167,1.85"/>
				</g>
				<g>
					<path d="M392.945,375.816c-4.15-3.335-8.592-6.438-13.389-8.737c-4.002-1.915-8.449-3.418-12.675-4.736
						c-5.536-1.724-10.694-3.914-16.021-6.266c-5.624-2.479-11.302-4.948-17.169-6.826c-8.479-2.713-17.169-5.194-25.912-6.872
						c-9.291-1.78-19.772-3.218-29.194-1.38c-3.104,0.604-6.387,1.015-8.999,2.815c-1.387,0.955-2.117,2.68-3.249,3.932
						c-0.379,0.419-0.885,0.835-1.418,0.419c-0.364-0.284-0.803,0.077-1.167-0.205c5.866-7.533,14.603-10.511,23.771-10.218
						c10.047,0.319,20.094,3.225,29.804,5.729c9.07,2.341,18.115,4.692,26.687,8.503c5.605,2.492,11.332,4.764,17.211,6.565
						c2.642,0.809,5.14,2.004,7.738,2.947c2.326,0.844,4.465,2.129,6.74,3.106c6.426,2.765,12.738,5.62,18.211,10.012
						c-0.361,0.448-0.939,1.21-1.299,1.658"/>
				</g>
				<g>
					<path d="M294.579,328.661c-0.657,0-2.121-0.511-1.53-1.498c0.078-0.212,0.171-0.461,0.403-0.412
						c0.885,0.185,1.859-0.719,2.831-0.604c0.823,0.095,1.37,0.809,1.835,1.426C297.004,328.07,295.824,328.661,294.579,328.661"/>
				</g>
			</g>
			<g>
				<g>
					<path d="M200.154,318.578c-0.215-0.531-0.394-1.175-0.611-1.71c4.181-1.688,8.756-3.41,13.37-2.872
						c2.15,0.253,4.377-0.522,6.284-1.515c1.754-0.903,2.707-2.232,3.967-3.679c1.267-1.455,3.403-1.281,4.856-0.019
						c0.488,0.422,0.765,0.901,1.02,1.482c0.379,0.857,1.585,0.068,2.178-0.348c0.793-0.554,0.582-1.063,1.604-1.056
						c1.634,0.006,2.56,1.201,2.974,2.72c-0.446,0.119-0.31,0.356-0.758,0.465c-0.534,0.132-0.895-1.241-1.579-1.538
						c-0.611-0.263-0.438,0.172-0.892,0.526c-0.791,0.615-1.677,1.173-2.68,1.296c-2.255,0.277-1.642-1.929-3.14-2.691
						c-1.927-0.983-2.659,1.16-3.768,2.372c-3.026,3.309-7.313,3.677-11.456,3.619c-3.903-0.056-7.803,1.329-11.349,2.764"/>
				</g>
				<g>
					<path d="M259.729,336.847c-3.291-0.49-6.691-1.84-8.772-4.507c-3.096-3.97-2.766-8.889-2.542-13.634
						c0.113-2.418-0.066-6.081-3.341-6.099c-1.103-0.01-2.079,0.446-3.1,0.77c-1.409,0.442-1.821-0.331-2.903-1.047
						c-0.467-0.307-1.523-0.396-1.75-0.805c-0.293-0.524-0.367-1.071-0.367-1.071c0.935-0.84,1.447-0.696,2.348-0.251
						c0.679,0.339,1.585,1.465,2.291,1.193c2.047-0.777,3.843-1.314,5.924-0.293c3.292,1.617,3.139,6.12,2.863,9.183
						c-0.39,4.342,0.13,9.532,3.953,12.305c1.511,1.096,3.304,1.737,5.117,2.12c1.022,0.219,0.306,1.313,0.17,2.235"/>
				</g>
				<g>
					<path d="M183.4,349.675c-1.337-11.913,0.72-30.941,15.011-34.198c0.059,0.264,0.506,1.86,0.36,1.898
						c-0.767,0.205-1.519,0.551-2.231,0.888c-3.449,1.644-6.23,4.529-7.933,7.954c-2.319,4.659-3.352,9.863-3.565,15.04
						c-0.095,2.239,0.055,4.478,0.248,6.712c0.066,0.786,0.37,1.317-0.516,1.419c-0.509,0.057-0.95,0.236-1.458,0.291"/>
				</g>
				<g>
					<path d="M181.939,355.978c-0.327-1.1-0.444-2.247-0.503-3.388c-0.051-0.979-0.48-1.972,0.582-2.219
						c0.826-0.194,1.178-0.573,1.636,0.158c0.634,1.012,1.51,1.854,2.266,2.774c-0.312,0.253-0.64,0.531-0.955,0.784
						c-0.764,0.626-0.641,0.584-1.332-0.2c0.105,0.803,0.653,1.368-0.21,1.626c-0.491,0.146-0.989,0.322-1.48,0.471"/>
				</g>
				<g>
					<path d="M192.469,374.183c-7.252-3.048-12.198-10.941-12.405-18.702c0.601-0.016,1.232-0.054,1.835-0.07
						c0.474-0.009,0.27,0.647,0.317,1.063c0.306,2.851,1.199,5.697,2.708,8.15c1.514,2.457,3.62,4.521,6,6.141
						c0.233,0.16,2.405,1.498,2.39,1.538c-0.257,0.615-0.568,1.264-0.826,1.878"/>
				</g>
				<g>
					<path d="M195.701,377.555c-3.021,0.136-5.156-0.967-6.64-3.563c1.207-0.271,2.402-0.463,3.647-0.496
						c0.541-0.013,1.668-0.368,1.697,0.296c0.021,0.46,0.053,0.901,0.073,1.359c-0.725,0.032-1.419,0.042-2.144,0.069
						c1.071,0.571,2.369,0.683,3.559,0.597c0.535-0.035,0.414,1.214,0.477,1.682c-0.228,0.03-0.438,0.051-0.669,0.06"/>
				</g>
				<g>
					<path d="M195.156,379.574c-0.058-0.459-0.1-0.919-0.161-1.375c-0.077-0.613,0.844-0.515,1.357-0.743
						c0.54-0.238,1.375-1.175,1.757-0.622c0.265,0.377,0.537,0.759,0.801,1.138c-1.123,0.775-2.377,1.422-3.748,1.599"/>
				</g>
				<g>
					<path d="M210.766,380.023c-1.957,0.086-3.7-0.866-5.568-1.229c-0.179-0.304,0.368-1.682,0.438-2.064
						c1.741,0.335,3.563,1.396,5.375,1.089c1.746-0.297,3.52-0.372,5.281-0.526c3.146-0.273,6.316-0.586,9.388-1.391
						c3.681-0.963,5.946-2.79,8.344-5.6c1.224-1.43,2.949-1.575,4.4-2.608c0.78-0.559,1.192,0.444,1.858,1.089
						c-0.939,0.975-2.064,1.424-3.272,1.94c-1.467,0.629-2.035,2.083-3.105,3.18c-1.997,2.05-4.686,3.213-7.425,3.974
						c-2.471,0.686-5.007,0.998-7.552,1.203c-2.709,0.219-5.454,0.968-8.155,1.089"/>
				</g>
				<g>
					<path d="M198.016,380.795c-0.053-1.184-0.103-2.36,0.627-3.381c0.286,0.205,1.498,0.854,1.329,1.152
						c1.352-0.409,2.672-0.919,4.064-1.187c0.067,0.342,0.125,0.668,0.191,1.01c0.19,0.989-0.227,0.731-1.177,1.015
						c-1.676,0.494-3.304,1.061-5.021,1.419"/>
				</g>
				<g>
					<path d="M234.201,356.521c-5.426,0.239-8.478-5.069-6.321-9.803c0.411,0.189,1.401,0.361,1.22,0.85
						c-0.532,1.409-0.804,3.055-0.244,4.491c1.155,2.955,5.113,3.845,7.722,2.446c2.436-1.305,4.477-4.056,5.861-6.402
						c0.896-1.52,0.891-3.318-0.479-4.522c-0.209-0.183-1.614-0.935-1.572-1.026c0.174-0.391,0.384-0.721,0.559-1.11
						c4.145,1.845,4.017,5.436,1.618,8.77c-2.034,2.813-4.579,6.132-8.366,6.3"/>
				</g>
				<g>
					<path d="M194.161,324.624c-0.675-0.154-1.348-0.305-2.021-0.457c0.625-2.743,2.356-5.483,4.909-6.797
						c0.184,0.356,0.367,0.679,0.551,1.038c0.483,0.938,0.332,0.679-0.506,1.338c-1.498,1.182-2.536,3.033-2.953,4.878"/>
				</g>
				<g>
					<path d="M203.542,332.349c-1.396-3.141-5.244-4.333-8.427-3.579c-0.731,0.175-2.474,1.18-2.708-0.369
						c0.964-1.439,1.334-3.098,2.716-4.257c0.275,0.326,0.584,0.652,0.859,0.979c-0.05-0.058-1.373,1.98-1.517,2.294
						c3.902-1.06,8.656,0.509,10.373,4.362c-0.421,0.185-0.888,0.392-1.308,0.579"/>
				</g>
				<g>
					<path d="M202.684,332.629c-1.006-1.402-2.948-1.776-4.521-1.195c-0.271,0.103-1.667,1.043-1.674,1.036
						c-0.336-0.262-0.665-0.493-1.001-0.754c2.029-2.601,6.39-2.604,8.328,0.101c-0.373,0.267-0.73,0.521-1.105,0.789"/>
				</g>
				<g>
					<path d="M213.099,338.694c-3.009,0.134-5.685-1.415-8.578-2.016c-2.21-0.459-4.437-0.516-6.685-0.472
						c0.274-0.58,0.521-1.334,0.989-1.794c-0.26-0.077-2.327-0.084-2.216,0.042c-0.283-0.32-0.662-0.666-0.945-0.985
						c1.216-1.085,2.941-0.596,4.312-0.091c1.019,0.375,1.031,0.205,0.845,1.272c2.909,0.108,5.717,0.774,8.421,1.842
						c2.85,1.124,5.229,0.684,8.168,0.274c0.033,0.24,0.311,1.146,0.181,1.32c-1.496,0.205-2.98,0.496-4.495,0.564"/>
				</g>
				<g>
					<path d="M227.486,343.755c-2.091,0.092-3.801-0.84-5.416-2.062c-0.921-0.696-1.885-1.354-2.925-1.871
						c-0.057-0.235,0.547-1.082,0.665-1.315c2.556,1.273,4.515,4.068,7.619,3.933c1.361-0.061,2.768-0.396,4.013-0.936
						c1.177-0.509,0.958-0.403,1.602,0.668c-1.625,0.976-3.667,1.538-5.555,1.622"/>
				</g>
				<g>
					<path d="M241.028,368.061c-0.816-0.023-1.284,0.233-1.347-0.642c-0.106-1.517-0.881-2.894-1.774-4.098
						c-1.533-2.067-3.549-3.707-5.488-5.373c0.373-0.429,0.701-1.261,1.207-0.831c1.026,0.88,2.035,1.785,3.013,2.716
						c2.275,2.157,4.437,4.882,4.346,8.188"/>
				</g>
				<g>
					<path d="M240.469,366.453c-0.563-0.4-1.174-0.826-1.735-1.229c3.592-5.005,14.231-5.573,18.215-0.805
						c-0.314,0.265-1.251,1.347-1.636,1.354c-1.133-1.357-2.986-1.89-4.685-2.153c-3.233-0.493-8.038-0.044-10.127,2.865"/>
				</g>
				<g>
					<path d="M221.441,323.004c-0.201-1.962-1.56-3.549-2.412-5.259c1.159-0.575,1.063-0.794,1.752,0.397
						c0.862,1.49,1.832,2.97,2.012,4.725c-0.457,0.046-0.908,0.086-1.365,0.135"/>
				</g>
				<g>
					<path d="M213.659,320.237c-1.088-0.993-1.684-2.276-1.865-3.733c0.34-0.042,0.664-0.077,1.002-0.116
						c0.667-0.084,0.534,1.005,0.811,1.559c0.116,0.232,0.982,1.279,0.916,1.349c-0.286,0.315-0.569,0.613-0.858,0.929"/>
				</g>
				<g>
					<path d="M232.281,351.83c-4.507-1.022,0.053-9.032,3.194-4.748c-0.243,0.179-0.8,0.789-1.091,0.803
						c-0.585-0.798-1.323-0.873-1.977-0.109c-0.488,0.572-1.097,1.947-0.268,2.52c0.63,0.434,0.327,0.725,0.145,1.534"/>
				</g>
				<g>
					<path d="M237.071,351.341c-1.464,0.063-5.07-1.715-4.297-3.653c0.181,0.071,1.307,0.549,1.303,0.451
						c0.09,0.973,2.133,1.885,2.94,1.848c1.028-0.044,0.768-1.569,0.872-2.265c0.054-0.354,0.487-3.635-0.074-3.265
						c-0.343,0.243-0.545,1.653-0.674,1.662c-0.427,0.04-0.82,0.021-1.247,0.06c-0.098-1.119,0.457-2.744,1.657-3.069
						c1.54-0.42,2.104,1.121,2.066,2.306c-0.059,1.838,0.017,5.785-2.546,5.897"/>
				</g>
			</g>
			<g>
				<path d="M370.742,359.97c-0.131-7.521-0.717-14.952-1.221-22.447c-0.258-3.786-0.508-7.568-0.703-11.357
					c-0.101-1.878,0.021-3.786-0.262-5.643c-0.234-1.527-0.48-1.317,0.924-1.59c1.301,6.731,0.729,13.729,1.268,20.542
					c0.543,6.842,1.463,13.609,1.584,20.479c-0.459,0.009-1.059,0.006-1.518,0.013"/>
			</g>
			<g>
				<g>
					<path d="M419.367,382.494c-0.146-1.298-0.328-1.252,0.922-1.494c1.744-0.335,3.754-0.791,4.063-2.876
						c-4.401-0.554-8.645-1.808-13.084-2.264c-1.844-0.189-3.702-0.121-5.522,0.247c-1.416,0.287-2.764,0.854-4.121,1.347
						c-1.023,0.37-0.83-0.13-1.172-1.034c5.854-2.229,11.99-2.488,18.037-0.824c1.348,0.373,2.576,0.971,3.977,1.141
						c1.371,0.167,3.619-0.238,3.287,1.77c-0.5,3.044-3.723,3.672-6.338,3.963"/>
				</g>
				<g>
					<path d="M408.006,397.532c-3.272,0-6.555-0.228-9.815-0.443c-2-0.132-3.995-0.26-5.999-0.286
						c-0.536-0.009-1.612,0.277-1.612-0.426c0-0.462,0.119-0.914,0.119-1.377c5.295,0,10.52,0.573,15.799,0.844
						c2.02,0.104,4.283,0.324,6.217-0.346c0.496-0.174,2.234-1.499,2.644-1.345c0.25,0.095,0.541,1.363,0.664,1.636
						c-2.707,1.226-5.015,1.869-8.015,1.869"/>
				</g>
				<g>
					<path d="M412.256,395.48c-0.051-0.459-0.088-0.894-0.139-1.353c2.801-0.313,5.891-0.048,8.539-1.159
						c0.813-0.339,1.612-0.858,2.156-1.565c0.211-0.278,1.012,0.427,1.29,0.597c-2.264,3.729-8.149,3.063-11.84,3.476"/>
				</g>
				<g>
					<path d="M421.152,392.364c-3.354,0-7.113-0.375-10.332-1.311c0.071-0.244,0.217-1.247,0.414-1.371
						c0.971,0.28,1.996,0.313,2.987,0.478c2.004,0.324,4.011,0.707,6.033,0.844c2.287,0.156,4.414-0.838,6.603-1.382
						c1.02-0.256,2.178-0.357,3.088-0.921c0.455-0.282,0.914,0.509,1.264,0.884c-1.02,0.961-2.732,1.091-4.027,1.415
						c-1.963,0.491-3.981,1.417-6.028,1.417"/>
				</g>
				<g>
					<path d="M421.527,389.774c-2.439,0-4.568-1.115-6.675-2.244c-1.122-0.603-2.209-1.282-3.336-1.88
						c-0.561-0.295,0.043-0.905,0.289-1.404c3.078,1.525,6.232,4.087,9.808,4.073c1.926-0.007,3.854-0.079,5.772-0.261
						c0.699-0.067,3.002,0.014,3.49-0.446c0.508-0.478-0.656-1.657-1.041-1.774c-2.063-0.624-4.336-0.395-6.434-1.047
						c-2.188-0.681-4.226-1.869-6.283-2.861c-1.965-0.942-3.879-2.038-5.926-2.792c-0.699-0.258-1.443-0.435-2.179-0.567
						c-0.121-0.188,0.201-1.099,0.246-1.338c6.289,1.17,11.289,6.099,17.646,6.943c1.319,0.178,2.963,0.07,4.078,0.91
						c0.948,0.708,1.887,2.29,1.092,3.396c-0.813,1.133-3.627,0.854-4.871,0.97c-1.887,0.175-3.783,0.263-5.68,0.263"/>
				</g>
			</g>
			<g>
				<path d="M273.722,374.333c-2.262-1.142-2.974-2.576-3.551-4.911c-0.791-3.202-4.116-4.884-4.994-7.96
					c-0.802-2.814,1.297-5.189,2.697-7.373c0.607-0.947,1.255-2.071,0.438-3.101c-0.839-1.062-0.767-0.838,0.035-1.995
					c2.862,1.978,1.715,4.712,0.063,7.073c-0.869,1.244-2.184,2.596-2.166,4.195c0.017,1.529,1.422,2.671,2.337,3.768
					c0.921,1.107,1.778,2.297,2.337,3.641c0.418,1.008,0.656,2.039,1.008,3.063c0.333,0.961,0.924,1.713,1.787,2.218
					c0.823,0.481,0.347,0.772-0.048,1.556"/>
			</g>
			<g>
				<path d="M256.371,362.751c-1.892-3.026-1.647-7.156-0.033-10.237c0.75,0.393,1.281,0.297,0.909,1.145
					c-0.569,1.285-0.789,2.706-0.792,4.109c-0.004,1.308,0.223,2.635,0.821,3.808c0.378,0.74-0.267,0.769-0.92,1.177"/>
			</g>
			<g>
				<path d="M331.085,393.108c-3.7-1.584-7.231-3.605-11.056-4.892c-2.51-0.842-6.638-1.959-8.089,1.16
					c1.364,0.125,2.685,0.149,4.052,0.125c0.977-0.016,2.352-0.353,3.298,0.024c-0.568,1.422-0.534,1.259-2.1,1.272
					c-1.746,0.021-3.515,0.15-5.258,0.02c-0.637-0.047-1.185-0.188-1.607-0.692c-0.715-0.854,1.533-2.965,2.208-3.361
					c3.163-1.859,7.615-0.051,10.646,1.197c2.071,0.854,4.074,1.864,6.108,2.799c0.29,0.136,2.403,0.954,2.333,1.119
					c-0.169,0.392-0.34,0.769-0.509,1.157"/>
			</g>
			<g>
				<path d="M332.321,357.415c-8.304-0.28-16.578-1.071-24.854-1.768c-3.965-0.331-7.923-0.81-11.9-0.999
					c-2.005-0.096-4.021,0.162-6.029,0.133c-0.284-0.005-2.037-0.133-2.037-0.319c0-0.428-0.233-0.997-0.233-1.424
					c8.259,0,16.493,0.914,24.712,1.635c3.999,0.354,7.995,0.759,12,1.041c2.03,0.139,4.074,0.002,6.106,0.095
					c0.286,0.014,2.199,0.133,2.194,0.319c-0.014,0.425,0.047,0.635,0.034,1.063"/>
			</g>
			<g>
				<path d="M365.355,370.351c-2.342-2.681-4.66-3.384-8.071-3.426c-4.108-0.048-7.479-1.489-11.021-3.497
					c-3.734-2.115-7.434-4.314-11.549-5.65c-4.328-1.404-8.857-2.074-13.306-2.988c-4.277-0.88-8.502-2.006-12.67-3.319
					c-4.354-1.376-8.663-2.862-13.173-3.655c-3.947-0.692-8.025-1.304-11.892-0.141c-1.673,0.505-3.033,1.834-4.615,2.577
					c-0.304,0.143-2.83,1.033-2.911,0.875c-0.19-0.38,0.191-0.613,0-0.992c3.193-1.596,6.283-3.232,9.822-3.87
					c3.994-0.717,8.018-0.307,11.949,0.573c4.304,0.961,8.553,2.101,12.766,3.385c4.333,1.325,8.719,2.384,13.153,3.291
					c4.237,0.868,8.804,1.196,12.852,2.761c4.125,1.593,7.725,4.337,11.597,6.427c3.304,1.78,6.162,3.032,9.889,3.079
					c3.441,0.041,6.279,0.765,8.578,3.396c-0.349,0.303-1.039,0.896-1.387,1.197"/>
			</g>
			<g>
				<path d="M394.195,376.839c-3.299,0-6.523-0.679-9.576-1.915c-3.619-1.466-6.877-3.686-10.781-4.38
					c-3.223-0.575-6.492-0.365-9.516,0.805c-1.873,0.729-3.594,1.836-5.348,2.814c-0.471,0.263-0.937,0.942-1.29,0.337
					c-0.232-0.398-0.752-0.854-0.985-1.252c3.774-2.194,7.939-4.181,12.326-4.749c4.382-0.564,8.353,0.758,12.175,2.79
					c3.521,1.871,7.241,3.309,11.258,3.614c1.933,0.146,3.883,0.351,5.801,0.086c0.328-0.046,2.498-0.652,2.525-0.507
					c0.104,0.533,0.367,1.215,0.471,1.748c-2.301,0.451-4.711,0.702-7.062,0.702"/>
			</g>
			<g>
				<path d="M387.605,396.14c-1.357-2.874-2.783-5.945-2.789-9.185c-0.008-3.321,1.553-6.395,3.182-9.208
					c0.371,0.214,0.676,0.447,1.045,0.661c0.107,0.062-1.23,2.643-1.4,3.022c-0.787,1.755-1.461,3.603-1.457,5.537
					c0.008,1.924,0.65,3.784,1.349,5.563c0.399,1.021,0.827,2.034,1.299,3.029c-0.11,0.229-1.022,0.48-1.269,0.599"/>
			</g>
		</g>
	</g>
	<g>
		<g>
			<path d="M237.419,310.238c-1.247,0.36-1.196,2.887-1.196,2.887s-0.341-2.043-1.104-2.332c-0.532-0.198-1.014-0.537-1.564-0.658
				c-0.078,0.363,0.084-0.044,0.006,0.319c0.003-0.021,0.868,1.063,1.236,1.684c0.382,0.645,0.684,2.931,1.51,2.893
				c0.825-0.037,1.028-2.201,1.231-2.771c0.131-0.84,1.148-1.316,1.777-1.81c-0.54-0.403-0.953-1.009-1.508-0.265"/>
		</g>
	</g>
</g>
<g>
	<path fill="#ECAF8B" d="M274.802,272.148c0,0-7.6,2.764-15.43,5.295c-7.831,2.535-10.364,8.062-11.976,8.981
		c-1.611,0.923-2.302,5.988-3.224,8.292c-0.921,2.303-0.921,3.914-0.921,3.914s1.381,3.225,5.066-0.921
		c3.685-4.144,1.152-6.446,3.685-7.14c2.533-0.689,3.454-0.92,3.454-0.92s-5.757,6.677-8.521,12.205
		c-2.764,5.526,0.69,9.44,0.69,9.44s-0.229,2.074,0.922,3.915c1.151,1.842,1.151,1.842,1.151,1.842l8.75-8.521
		c0,0,2.994,0.461,5.757-1.382c2.764-1.844,2.074-1.381,5.758-1.611s5.297-0.46,7.6-3.225c2.302-2.765,5.065-6.909,5.065-6.909
		S282.401,282.051,274.802,272.148z"/>
	<g>
		<g>
			<path d="M262.28,275.48c-4.298,1.396-8.378,2.879-11.564,6.281c-1.24,1.326-2.221,2.92-3.622,4.086
				c-0.92,0.768-1.92,1.51-3.01,2.02c-0.548,0.256,0.001,1.07,0.182,1.566c2.423-0.875,4.137-3.153,5.843-5
				c2.289-2.479,4.456-4.736,7.678-6.007c2.531-0.995,5.335-1.397,7.927-2.22c2.254-0.716,4.452-1.739,6.786-2.134
				c1.312-0.22,2.619-0.407,3.947-0.48c0.15-0.22,0-0.905-0.015-1.188c-4.872,0.264-9.411,1.986-14.01,3.508"/>
		</g>
	</g>
	<g>
		<g>
			<path d="M245.028,287.411c0,3.45-0.952,5.526-1.905,8.834c-0.309,1.071-0.462,2.222-0.941,3.229
				c-0.196,0.418,0.62,0.578,0.958,0.771c0.89-1.51,1.375-3.355,1.794-5.031c0.75-2.992,1.418-5.706,1.418-8.801
				c-0.46,0-1.037,0.979-1.497,0.979"/>
		</g>
	</g>
	<g>
		<g>
			<path d="M251.261,290.215c-1.357,0.756-1.401,2.439-1.855,3.756c-0.536,1.551-1.526,3.264-2.997,4.1
				c-1.051,0.596-2.25,0.719-3.374,0.34c-0.904-0.299-0.866,0.167-1.343,1.045c3.584,1.957,6.947-0.575,8.51-3.835
				c0.336-0.696,0.7-1.39,0.896-2.134c0.177-0.67,0.21-1.606,0.889-1.983c0.693-0.567,1.553-1.056,2.333-1.503
				c-0.24-0.4-0.416-1.27-0.898-0.992c-0.719,0.407-1.414,0.852-2.13,1.262"/>
		</g>
	</g>
	<g>
		<g>
			<path d="M250.922,294.49c-2.178,3.216-4.429,6.449-5.56,10.205c-0.802,2.662-1.011,6.031,2.188,7.288
				c0.147-0.361,0.426-0.631,0.571-0.991c0.147-0.354-0.472-0.562-0.742-0.803c-0.742-0.663-1.204-1.166-1.196-2.141
				c0.024-2.775,1.308-5.699,2.619-8.063c1.452-2.623,3.295-5.047,4.959-7.539c1.155-1.728,2.506-3.543,2.924-5.635
				c-0.457-0.09-1.123-0.531-1.259-0.028c-0.155,0.563-0.327,1.12-0.607,1.631c-1.155,2.104-2.623,4.045-3.965,6.028"/>
		</g>
	</g>
	<g>
		<g>
			<path d="M259.203,295.118c-2.391,2.854-4.99,5.599-7.019,8.726c-1.221,1.883-2.274,3.871-3.464,5.775
				c-0.421,0.672-0.877,1.322-1.296,1.994c-0.19,0.305,0.711,0.675,0.973,0.851c2.75-4.4,5.267-8.901,8.605-12.889
				c1.137-1.36,2.474-2.556,3.604-3.921c0.715-0.864,1.281-1.852,1.994-2.717c0.714-0.86,0.384-0.732-0.441-1.494
				c-1.009,1.218-2.006,2.404-3.016,3.621"/>
		</g>
	</g>
	<g>
		<g>
			<path d="M262.981,301.807c-2.749,3.829-6.036,7.032-9.287,10.422c-1.569,1.639-3.21,3.263-4.487,5.15
				c1.296,0.866,1.082,0.939,1.974-0.161c1.576-1.942,3.31-3.74,5.072-5.514c2.45-2.465,4.852-4.937,6.937-7.729
				c0.815-1.092,1.475-2.343,2.425-3.326c0.265-0.272,1.021-0.586,0.84-0.92c-0.185-0.346-0.295-0.608-0.48-0.951
				c-1.297,0.699-2.105,1.899-2.941,3.065"/>
		</g>
	</g>
	<g>
		<g>
			<path d="M250.73,318.238c0.151-0.275,0.283-0.612,0.434-0.891c0.34-0.624-0.218-0.533-0.697-0.961
				c-0.83-0.74-1.332-1.801-1.478-2.893c-0.093-0.698-0.015-1.428,0.128-2.117c0.076-0.373-0.94-0.431-1.267-0.519
				c-0.753,2.787,0.331,5.899,2.913,7.309"/>
		</g>
	</g>
	<g>
		<g>
			<path d="M264.12,306.267c-1.233,0.941-2.252,1.494-3.728,1.834c-0.128,0.028-1.095,0.131-1.065,0.259
				c0.097,0.427,0.294,0.772,0.392,1.203c0.736-0.171,1.458-0.238,2.195-0.41c1.467-0.337,2.668-1.443,3.845-2.314
				c1.219-0.898,2.45-1.805,3.882-2.313c0.396-0.143,1.828-0.229,1.748-0.631c-0.078-0.381-0.164-0.836-0.24-1.218
				c-2.674,0.536-4.856,2.005-6.993,3.638"/>
		</g>
	</g>
	<g>
		<g>
			<path d="M278.785,298.839c-1.194,2.235-2.122,4.938-4.839,5.545c-1.073,0.24-2.138,0.517-3.215,0.745
				c-1.005,0.212-2.012,0.51-3.049,0.51c-0.157,0.182-0.021,0.982-0.021,1.24c1.895,0,3.831-0.652,5.681-1.047
				c1.911-0.407,3.365-0.895,4.494-2.572c0.901-1.342,1.761-2.74,2.51-4.172c0.645-1.234,1.137-2.701,2.114-3.721
				c0.369-0.383,0.429-0.217,0.143-0.676c-0.167-0.266-0.276-0.537-0.443-0.803c-1.64,1.024-2.558,3.293-3.411,4.93"/>
		</g>
	</g>
	<g>
		<g>
			<path d="M271.992,271.868c3.763,3.183,6.301,7.512,7.965,12.151c0.885,2.467,1.623,4.979,1.923,7.58
				c0.154,1.33,0.001,2.67,0.028,4.006c0.013,0.644,0.035,0.828,0.697,0.826c0.315,0,0.553,0.084,0.868,0.084
				c-0.014-9.699-3.058-19.289-10.619-25.682c-0.296,0.354-0.575,0.705-0.872,1.057"/>
		</g>
	</g>
</g>
<g>
	<path fill="#ECAF8B" d="M216.702,302.574c-3.931-1.917-4.075,0.443-11.254-0.232c-7.174-0.677-9.595-0.282-10.448,1.085
		c-0.853,1.366-1.096,1.757-1.096,1.757s-2.368-0.12-4.22,4.155c-1.851,4.271-1.311,5.151-2.799,6.667
		c-1.489,1.513-4.023,6.45-4.096,8.304c-0.068,1.854,3.942,9.785,4.286,10.54c0.341,0.755,2.267-3.2,1.872-7.789
		c-0.394-4.59-1.184-9.421-1.184-9.421s0.202,4.465,3.038,9.491c2.837,5.027,3.938,7.615,3.938,7.615s2.706-1.297,2.974-3.032
		c0.268-1.733,0.268-1.733,0.268-1.733s1.734,2.44,2.344,1.463c0.609-0.977,2.044-6.322,1.995-7.982
		c-0.052-1.66-0.343-2.929-0.343-2.929s2.317,0.632,7.245-3.353c4.927-3.984,5.75-4.217,6.58-4.242
		c1.197,0.356,3.863-0.474,3.863-0.474C219.728,312.42,228.531,308.346,216.702,302.574z"/>
	<g>
		<g>
			<path d="M214.172,301.406c2.729,1.706,6.134,3.695,7.399,6.82c0.495,1.223,0.444,2.538,0.1,3.809
				c-0.221,0.814-0.394,1.651-0.819,2.376c0.057,0.209,0.782,0.469,0.99,0.592c2.012-3.435,1.912-7.131-0.69-10.139
				c-1.096-1.267-2.464-2.294-3.834-3.242c-0.645-0.445-1.39-0.74-2.055-1.157c-0.604-0.378-0.636,0.237-0.967,0.764"/>
		</g>
	</g>
	<g>
		<g>
			<path d="M207.34,306.741c-1.909,2.553-4.126,4.814-5.716,7.592c-0.568,0.99-1.147,1.974-1.725,2.963
				c-0.089,0.145-0.535,0.784-0.49,0.955c0.06,0.215,0.669,0.544,0.881,0.676c0.602-1.023,1.286-1.96,1.885-2.979
				c0.5-0.85,1.108-1.63,1.635-2.461c0.778-1.229,1.756-2.222,2.62-3.369c0.754-1.002,1.492-2.027,2.197-3.065
				c0.682-1.003,1.323-2.229,2.328-2.943c0.451-0.323,0.711-0.155,0.533-0.692c-0.096-0.298-0.321-0.523-0.419-0.822
				c-1.765,0.581-3.005,2.531-3.98,3.974"/>
		</g>
	</g>
	<g>
		<g>
			<path d="M214.703,312.714c-3.886,0.067-5.231,3.545-7.901,5.705c-1.485,1.196-3.166,1.41-4.766,0.306
				c-0.916-0.634-1.655-1.499-2.349-2.364c-0.52-0.648-0.88,0.011-1.467,0.46c1.303,1.701,3.003,3.647,5.244,4.008
				c1.869,0.302,3.685-0.673,4.929-2.006c1.195-1.28,2.246-2.771,3.55-3.936c1.758-1.571,4.365-0.292,6.154-1.888
				c-0.294-0.328-0.607-0.78-0.901-1.11c0.189,0.209-2.257,0.729-2.493,0.731"/>
		</g>
	</g>
	<g>
		<g>
			<path d="M200.93,320.57c1.471,2.098,1.503,4.921,0.79,7.304c-0.357,1.187-0.868,2.334-1.672,3.285
				c-0.233,0.272-0.824,0.592-0.551,0.905c0.257,0.292,0.401,0.553,0.659,0.846c3.542-3.096,4.69-9.206,1.93-13.146
				c-0.378,0.267-0.739,0.515-1.116,0.78"/>
		</g>
	</g>
	<g>
		<g>
			<path d="M203.997,308.389c-1.577,1.857-3.001,3.704-3.759,6.053c0.268,0.088,1.044,0.499,1.29,0.414
				c0.376-1.162,0.959-2.225,1.646-3.229c0.871-1.272,1.883-2.45,2.873-3.631c-0.184-0.149-0.857-0.93-1.068-0.906
				c-0.251,0.026-0.874,1.023-1.053,1.237"/>
		</g>
	</g>
	<g>
		<g>
			<path d="M194.288,308.199c-1.813,8.593,1.35,16.879,4.314,24.841c0.585-0.217,1.221-0.133,0.972-0.799
				c-0.446-1.196-0.896-2.396-1.32-3.6c-0.9-2.541-1.514-5.168-2.085-7.806c-0.543-2.49-1.087-5-1.037-7.555
				c0.027-1.305,0.12-2.624,0.345-3.912c0.11-0.63,0.432-0.702-0.207-0.838c-0.309-0.066-0.582-0.246-0.888-0.312"/>
		</g>
	</g>
	<g>
		<g>
			<path d="M188.691,313.317c-1.555,4.216-0.808,8.564,0.913,12.587c0.917,2.143,2.215,4.105,3.252,6.192
				c0.579,1.163,1.04,2.392,1.522,3.601c0.29,0.726,0.762,0.223,1.409-0.023c-1.667-4.372-4.285-8.32-5.71-12.789
				c-0.614-1.92-1.139-3.93-0.936-5.945c0.108-1.076,0.446-2.131,0.819-3.146c-0.119-0.211-1.074-0.408-1.322-0.5"/>
		</g>
	</g>
	<g>
		<g>
			<path d="M196.59,330.383c0.686,1.254,0.177,2.731-0.806,3.683c-0.285,0.274-1.08,0.568-0.923,0.939
				c0.153,0.357,0.297,0.656,0.449,1.014c2.371-1.006,3.78-3.946,2.493-6.301c-0.404,0.221-0.787,0.446-1.189,0.663"/>
		</g>
	</g>
	<g>
		<g>
			<path d="M186.689,318.524c-0.783,4.25,1.994,8.171,1.56,12.427c-0.118,1.159-0.492,2.424-1.483,3.123
				c-0.282,0.2-0.549,0.385-0.866,0.518c-0.08,0.206,0.39,1.061,0.484,1.287c3.115-1.293,3.496-4.758,3.121-7.791
				c-0.272-2.176-1.223-4.205-1.556-6.365c-0.15-0.97-0.16-1.978,0.019-2.942c-0.162-0.192-0.968-0.198-1.231-0.247"/>
		</g>
	</g>
	<g>
		<g>
			<path d="M185.713,335.48c0.152,0.469,0.365,0.915,0.518,1.382c0.035,0.107,1.323-0.36,1.501-0.419
				c-1.227-3.735-2.908-7.441-3.317-11.375c-0.213-2.06,0.011-4.322,0.985-6.201c0.452-0.872,1.177-1.516,1.99-2.065
				c0.493-0.33,0.486-0.259,0.208-0.788c-0.145-0.279-0.17-0.614-0.315-0.895c-7.282,3.817-3.457,14.49-1.516,20.344"/>
		</g>
	</g>
	<g>
		<g>
			<path d="M201.3,301.138c-1.444-0.203-3.042-0.262-4.454,0.276c-0.676,0.257-1.443,0.442-1.923,0.974
				c-0.314,0.35-0.485,0.839-0.745,1.23c-0.352,0.531-0.485,1.477-1.146,1.372c-2.728-0.436-3.457,2.393-3.949,4.512
				c-0.281,1.214-0.758,2.411-1.272,3.558c-0.244,0.542,0.819,0.898,1.293,1.184c1.184-1.979,0.881-9.421,4.603-7.995
				c0.517,0.199,0.571,0.45,0.828-0.038c0.346-0.662,0.52-1.423,0.94-2.042c0.583-0.861,1.328-1.618,2.398-1.773
				c2.149-0.308,4.552,0.697,6.707,0.873c3.671,0.304,7.356-0.198,11-0.69c-0.052-0.386,0.13-0.703,0.079-1.089
				c-0.059-0.434-1.845,0.236-2.271,0.278c-1.727,0.179-3.485-0.077-5.222-0.077c-2.312-0.002-4.591-0.141-6.878-0.462"/>
		</g>
	</g>
</g>
</svg>
