<?xml version="1.0" encoding="utf-8"?>
<!-- Generator: Adobe Illustrator 15.0.0, SVG Export Plug-In . SVG Version: 6.00 Build 0)  -->
<!DOCTYPE svg PUBLIC "-//W3C//DTD SVG 1.1//EN" "http://www.w3.org/Graphics/SVG/1.1/DTD/svg11.dtd">
<svg version="1.1" id="Layer_1" xmlns="http://www.w3.org/2000/svg" xmlns:xlink="http://www.w3.org/1999/xlink" x="0px" y="0px"
	 width="720px" height="450px" viewBox="0 0 720 450" enable-background="new 0 0 720 450" xml:space="preserve">
<path fill="#576260" d="M456.689,234.742c0,0,6.276,10.537,10.314,26.158c4.04,15.619,3.233,36.084-2.689,46.05
	c-5.928,9.965-96.144,5.925-96.144,5.925s12.39-35.279,34.739-38.779C405.105,273.752,456.689,234.742,456.689,234.742z"/>
<path fill="#0090C0" d="M201.924,183.167c-21.539,24.167-28.216,22.629-11.404,49.947c16.812,27.317,19.439,47.807,19.964,49.384
	c0.525,1.575,23.478,43.208,73.911,46.885c34.646,2.526,93.475-33.475,119.595-56.096c13.682-11.848,34.74-18.043,34.74-18.043
	l17.96-20.502c0,0-3.489-10.083-6.98-16.288c-0.767-1.364-11.045-4.289-11.244-5.816c-0.953-7.344-5.331-8.847-9.691-14.736
	c-17.803-24.029-44.396-25.204-71.714-42.541c-27.318-17.336-47.807-18.387-71.448-14.185
	C261.968,145.38,201.924,183.167,201.924,183.167z"/>
<path fill="#0090C0" d="M222.042,173.575c-21.015,10.507-38.877,23.116-42.029,38.875c-3.151,15.761,0.197,34.312,12.217,61.456
	c11.708,26.436,11.634,31.033,11.634,38.388c0,7.355,20.94,17.063,20.94,17.063s1.441-41.781,1.966-52.289
	C227.294,266.563,222.042,173.575,222.042,173.575z"/>
<path fill="#ECAF8B" d="M303.661,164.405c5.253,3.677,21.539,14.71,19.438,38.351c-2.101,23.643-9.697,50.965-19.678,61.471
	c-16.782,17.666-27.659,2.57-37.972-0.555c-17.336-5.253-11.697-68.797-0.665-82.456
	C275.816,167.557,303.661,164.405,303.661,164.405z"/>
<g>
	<path d="M197.754,151.587"/>
</g>
<g>
	<g>
		<path d="M298.136,233.525c-1.91,0.738-3.815,1.496-5.815,1.957c-1.074,0.246-3.686,0.056-3.139,1.66
			c3.769-0.213,7.349-1.711,10.834-3.021c1.651-0.623,3.297-1.204,5.033-1.543c1.077-0.209,3.523,0.188,3.042-1.432
			c-3.48,0.06-6.775,1.067-9.982,2.308"/>
	</g>
</g>
<path fill="#0090C0" d="M400.851,181.616c0,0,20.164,24.428,39.554,50.796c19.391,26.37,25.594,41.882,26.758,54.29
	c1.163,12.407-1.164,19.774-1.164,19.774l-153.557,6.98l-0.776-29.085c0,0,0.388-1.162,18.226-2.327
	c17.837-1.163,13.269,7.105,26.217,3.749c12.949-3.358,13.335,0.906,23.031,0.13c9.692-0.773,15.121-3.104,18.225-3.104
	c3.103,0,5.281,0.664,5.162-0.831c-0.121-1.495-5.938-10.802-11.365-13.903c-5.43-3.102-14.736-8.143-16.676-22.488
	c-1.938-14.35-5.428-51.963-2.325-60.495C375.259,176.575,400.851,181.616,400.851,181.616z"/>
<path fill="#0082A9" d="M410.403,288.02c11.536-0.442,23.229-0.209,34.81-0.427c3.949-0.071,14.197-2.245,14.813,3.785
	c-10.371,4.724-24.692-1.451-35.451-1.979c2.346,2.052,6.336,3.8,6.425,7.313c-7.284,2.865-17.167-5.995-22.086-10.819"/>
<path fill="#0082A9" d="M376.118,255.012c-0.108,8.655,7.737,14.536,8.108,23.028c0.092,2.174-0.184,4.229-0.429,6.325
	c7.45,0.15,6.544-0.955,11.06-4.99c2.106-1.885,4.524-2.441,6.851-3.48c-5.473-3.483-11.052-5.899-16.017-10.252
	c-3.396-2.975-6.155-7.508-10.213-9.565"/>
<g>
	<g>
		<g>
			<path d="M323.156,284.365c-2.054,0.333-4.042,0.955-6.109,1.184c-1.572,0.176-1.83-0.632-1.739,0.971
				c5.318-0.302,10.438,0.119,15.732-0.428c2.323-0.242,4.663-1.915,6.991-1.656c0.957,0.107,1.991,0.909,2.843,1.397
				c1.107,0.63,2.246,1.17,3.265,1.918c3.211,2.358,8.546,0.175,12.05-0.498c3.476-0.671,7.086-1.202,10.643-1.056
				c1.809,0.074,3.609,1.05,5.345,1.548c2.789,0.798,5.644,0.104,8.488-0.401c3.108-0.553,6.017-1.867,9.09-2.57
				c4.673-1.067,9.962-1.812,14.738-1.063c2.604,0.406,4.145,2.805,6.238,4.393c1.858,1.412,4.219,1.771,6.629,1.818
				c0.004-0.229,0.123-0.563-0.01-0.727c-1.065-0.021-2.452,0.226-3.406-0.252c-1.834-0.922-3.029-2.941-4.863-3.868
				c-4.084-2.064-9.112-2.902-13.535-2.376c-8.013,0.958-15.662,5.98-23.771,3.806c-7.201-1.931-14.087-0.304-21.201,0.739
				c-2.012,0.293-4.889,1.49-6.576,0.05c-1.821-1.558-2.546-3.776-5.044-4.157c-5.136-0.779-10.602,1.219-15.667,2.036"/>
		</g>
	</g>
	<g>
		<g>
			<path d="M325.082,287.139c-1.868,0.17-3.715,0.609-5.586,0.74c-0.973,0.07-4.511-0.408-4.086,0.998
				c3.779-0.111,7.609-0.505,11.372-0.84c1.894-0.169,3.782-0.372,5.681-0.479c0.91-0.052,3.685,0.26,3.28-1.145
				c-3.547,0.063-7.134,0.352-10.665,0.673"/>
		</g>
	</g>
	<g>
		<g>
			<path d="M323.958,289.514c-1.833,0.151-3.661,0.342-5.493,0.454c-0.897,0.056-3.538-0.534-3.115,0.854
				c3.451-0.105,6.889-0.184,10.329-0.463c1.936-0.154,3.859-0.489,5.799-0.573c0.917-0.041,3.726,0.478,3.344-0.937
				c-3.622,0.004-7.266,0.282-10.873,0.582"/>
		</g>
	</g>
	<g>
		<g>
			<path d="M327.59,291.756c-3.696,0.362-7.457,0.727-11.129,1.287c-0.137,1.232,1.092,0.998,1.893,0.891
				c1.697-0.23,3.368-0.688,5.071-0.867c1.732-0.185,3.454-0.461,5.185-0.646c2.356-0.253,4.678-0.405,7.034-0.657
				c0.268-1.439-2.381-0.453-3.19-0.365c-1.617,0.174-3.228,0.385-4.844,0.559"/>
		</g>
	</g>
	<g>
		<g>
			<path d="M327.543,295.199c-1.948,0.222-3.896,0.441-5.852,0.593c-1.002,0.077-4.577-0.556-4.198,0.849
				c3.681-0.013,7.329-0.229,10.981-0.647c1.687-0.192,3.355-0.552,5.048-0.681c0.928-0.069,3.8,0.485,3.392-0.92
				c-3.14,0.063-6.279,0.234-9.396,0.594"/>
		</g>
	</g>
	<g>
		<g>
			<path d="M318.338,298.805c-0.063,0.23-0.004,0.704-0.005,0.951c6.141,0.02,12.462-0.441,18.446-1.869
				c0.05-1.326-1.581-0.796-2.385-0.636c-1.768,0.349-3.515,0.822-5.304,1.036c-3.563,0.428-7.161,0.627-10.75,0.617"/>
		</g>
	</g>
	<g>
		<g>
			<path d="M318.566,301.555c-0.256,1.467,2.527,0.566,3.44,0.494c2.051-0.163,4.1-0.359,6.155-0.49
				c1.627-0.103,3.264-0.072,4.895-0.146c0.893-0.041,3.7,0.399,3.266-0.97c-5.919,0.188-11.847,0.57-17.746,1.076"/>
		</g>
	</g>
	<g>
		<g>
			<path d="M318.35,305.574c-0.361,1.199,0.946,0.69,1.679,0.67c1.912-0.055,3.827,0.017,5.739-0.041
				c1.927-0.059,3.852-0.257,5.781-0.314c0.422-0.013,2.688,0.352,2.993,0.029c0.977-1.029-1.576-0.715-1.745-0.709
				c-1.912,0.057-3.822,0.158-5.734,0.214c-2.91,0.089-5.825,0.062-8.735,0.149"/>
		</g>
	</g>
	<g>
		<g>
			<path d="M320.29,309.008c-1.014,0.019-2.103-0.146-3.117-0.13c-0.368,1.389,2.256,0.872,3.124,0.861
				c3.542-0.035,7.264,0.046,10.707-0.906c-0.002-1.379-3.097-0.238-4.086-0.14c-2.2,0.22-4.42,0.234-6.627,0.259"/>
		</g>
	</g>
	<g>
		<g>
			<path d="M315.263,312.19c-0.441,1.479,3.715,0.67,4.58,0.644c1.381-0.039,2.766,0.007,4.148-0.035
				c0.29-0.01,2.012,0.037,2.209-0.191c0.758-0.896-0.69-0.658-0.982-0.649c-1.22,0.035-2.446-0.102-3.666-0.066
				c-2.128,0.063-4.253,0.169-6.38,0.23"/>
		</g>
	</g>
</g>
<g>
	<g>
		<path d="M396.688,177.19c11.684,13.172,23.354,26.497,33.478,40.861c12.164,17.256,25.483,35.368,32.752,55.418
			c2.644,7.293,3.747,14.907,4.53,22.621c0.256,2.531-0.548,5.926-0.594,8.471c-0.021,1.499-0.621,0.929,0.969,1.092
			c0.687-6.715,0.938-13.645-0.476-20.166c-1.889-8.717-4.854-16.555-8.964-24.465c-4.892-9.41-9.782-18.438-15.761-27.188
			c-7.202-10.538-16.021-21.22-23.444-31.603c-6.537-9.142-12.466-18.955-19.929-27.372c-0.296,0.262-1.221,1.153-1.517,1.415"/>
	</g>
</g>
<g>
	<g>
		<path d="M372.873,250.762c4.925,7.766,12.443,14.096,19.578,19.754c2.986,2.367,6.53,4.229,9.253,6.896
			c0.436,0.426,1.086,1.146,1.146,1.804c0.073,0.742-1.23,1.406-1.545,2.044c-1.075,2.203,1.8,4.251,3.378,5.237
			c0.475-0.756,0.905-0.843,0.102-1.407c-0.838-0.59-2.69-1.818-2.265-3.098c0.554-1.647,2.101-2.258,0.729-4.141
			c-2.319-3.186-6.188-5.429-9.271-7.849c-4.052-3.179-8.037-6.472-11.721-10.075c-1.971-1.927-3.598-4.164-5.339-6.303
			c-0.739-0.91-1.927-1.491-2.591-2.46c-0.71-1.039-0.04-1.256-1.042-0.621"/>
	</g>
</g>
<g>
	<g>
		<path d="M442.622,286.964c-2.617,0.224-5.234,0.368-7.857,0.496c-2.889,0.142-5.78-0.162-8.675-0.151
			c-1.657,0.006-3.31,0.168-4.961,0.035c-0.921-0.074-3.657-0.637-3.512,0.799c7.07,1.15,14.429-0.013,21.544-0.358
			c4.715-0.229,10.742-1.78,15.101,0.582c2.328,1.26,2.343,2.778-0.146,3.233c-2.604,0.479-5.321,0.105-7.944-0.074
			c-4.867-0.332-9.735-0.904-14.574-1.516c-0.474,1.223,1.309,1.014,2.101,1.113c2.119,0.268,4.256,0.341,6.379,0.589
			c4.459,0.519,9.142,1.187,13.625,0.519c1.004-0.149,2.264-0.139,2.917-1.016c1.125-1.511-0.741-3.55-1.996-4.145
			c-3.546-1.684-8.246-0.469-11.996-0.084"/>
	</g>
</g>
<g>
	<g>
		<path d="M379.566,266.447c1.297-0.012-0.599-1.012-0.813-1.784c-0.353-1.263,0.142-2.752-0.183-4.021
			c-0.704-2.757-1.984-5.377-2.559-8.16c-1.128-5.504-2.039-11.082-2.666-16.664c-0.678-6.034-1.094-12.124-1.298-18.188
			c-0.106-3.162,0.31-12.809,0.326-14.464c0.011-0.917-0.024-3.824-1.474-3.47c-0.435,22.573,1.854,45.166,8.186,66.929"/>
	</g>
</g>
<g>
	<g>
		<path d="M308.264,167.443c7.451,4.545,11.095,12.01,13.199,20.292c2.715,10.686,1.519,22.681-0.394,33.491
			c-2.046,11.564-5.69,24.111-11.229,34.476c-2.147,4.019-3.933,7.327-7.25,10.522c-3.136,3.021-7.355,5.127-11.645,5.51
			c-4.488,0.4-9.375-0.215-13.621-1.719c-2.002-0.711-3.725-2.287-5.62-3.244c-1.126-0.566-2.274-1.113-3.38-1.722
			c-0.699-0.381-0.79-2.28-1.08-1.112c9.533,5.299,20.541,10.168,31.152,4.615c3.859-2.021,8.881-7.729,14.792-23.49
			c4.099-10.934,7.459-23.195,8.274-34.87c0.726-10.387,1.165-19.793-3.138-29.396c-2.51-5.6-6.226-10.209-11.495-13.423
			c-0.126,0.207-0.505,0.635-0.57,0.866"/>
	</g>
</g>
<g>
	<g>
		<path d="M186.389,199.928c-1.834,3.303-6.513,5.045-7.001,9.013c-0.508,4.116,0.471,8.331-0.002,12.501
			c-0.653,5.744-0.313,11.3,0.688,17.026c1.503,8.595,3.993,17.116,7.071,25.259c1.278,3.387,2.84,6.662,3.918,10.121
			c0.601,1.928,1.943,3.678,2.411,5.645c0.312,1.307,0.174,2.688,0.441,4.007c0.21,0.101,0.999-0.157,1.24-0.205
			c-3.529-17.407-13.993-33.213-15.072-51.175c-0.169-2.816,0.824-5.582,1.131-8.383c0.486-4.449-0.021-8.713-0.045-13.16
			c-0.025-4.582,3.709-6.667,5.754-10.349c0.612-1.103,0.805-2.515,1.697-3.414c0.75-0.757,1.806-1.228,2.642-1.885
			c0.9-0.706,0.682-0.357,0.082-1.15c-2.244,1.701-3.975,3.463-5.347,5.935"/>
	</g>
</g>
<g>
	<g>
		<path d="M399.839,176.268c2.812,3.18,6.759,5.199,10.324,7.382c4.096,2.513,7.623,5.797,11.222,8.969
			c5.396,4.757,10.464,9.499,14.517,15.44c1.539,2.255,2.923,6.708,5.724,7.502c0.817,0.231,1.801-0.065,2.638-0.032
			c1.04,0.041,1.843,0.348,2.604,0.996c1.438,1.216,2.395,2.869,3.354,4.481c2.92,4.904,4.85,10.391,6.627,15.78
			c0.844-0.306,0.741,0.071,0.456-0.789c-0.36-1.104-0.621-2.245-0.984-3.349c-1.048-3.174-1.491-6.617-2.877-9.667
			c-1.396-3.072-4.453-7.839-7.961-8.935c-2.033-0.634-3.616,0.438-5.261-1.326c-1.275-1.376-2.019-3.196-3.074-4.742
			c-4.396-6.444-9.211-12.243-15.095-17.381c-3.873-3.383-7.944-6.558-12.374-9.189c-2.009-1.194-4.295-1.996-6.164-3.404
			c-0.987-0.744-1.974-1.537-2.794-2.465c-0.222,0.014-0.946,0.737-1.127,0.894"/>
	</g>
</g>
<g>
	<g>
		<path d="M448.331,242.607c0.077,0.228,0.225,0.313,0.366,0.512c4.178-2.965,9.036-8.307,9.764-13.557
			c-1.146-0.521-1.014,1.47-1.357,2.274c-0.62,1.463-1.525,2.791-2.454,4.078c-1.772,2.463-3.895,4.84-6.38,6.604"/>
	</g>
</g>
<g>
	<g>
		<path d="M455.811,236.523c0.656,3.082,2.891,5.494,4.372,8.186c0.651,1.178,1.336,2.439,1.396,3.805
			c0.06,1.4-0.424,1.336,0.943,1.594c0.6-3.193-1.231-5.979-2.905-8.521c-0.83-1.26-1.634-2.563-2.193-3.967
			c-0.526-1.328-0.191-1.372-1.55-1.082"/>
	</g>
</g>
<g>
	<g>
		<path d="M453.818,245.634c2.671,1.64,5.472,3.214,7.708,5.441c1.155,1.153,2.182,2.463,2.718,4.016
			c0.313,0.913,0.411,1.882,0.438,2.845c0.021,0.752-0.371,1.525,0.704,1.317c0.331-3.926-1.443-7.094-4.364-9.603
			c-1.362-1.17-2.771-2.28-4.296-3.232c-0.688-0.432-2.543-2.18-2.915-0.83"/>
	</g>
</g>
<g>
	<g>
		<path d="M461.792,253.973c4.062,4.93,5.949,11.17,6.564,17.43c0.317,3.246,0.352,6.521,0.251,9.781
			c-0.051,1.613-0.218,3.225-0.314,4.836c-0.089,1.408-0.081,1.373,1.224,1.459c0.785-11.532,1.152-24.944-6.637-34.404
			c-0.305,0.249-0.669,0.557-0.973,0.808"/>
	</g>
</g>
<g>
	<g>
		<path d="M390.047,282.723c-1.529,1.189-3.038,2.411-4.611,3.545c-0.742,0.532-3.354,1.556-2.275,2.53
			c3.255-2.079,6.285-4.528,9.348-6.875c1.495-1.144,3.039-2.21,4.606-3.251c0.752-0.499,3.157-1.477,2.162-2.49
			c-3.292,1.834-6.288,4.205-9.255,6.508"/>
	</g>
</g>
<g id="Head">
	<path fill="#ECAF8B" d="M291.518,205.402c0.788,9.851,0.132,23.245-6.96,33.489c-7.092,10.243-5.122,7.617-9.457,13.526
		c-4.334,5.911-4.729,7.487-7.092,9.853c-2.363,2.364-5.647,5.252-5.647,5.252s-4.992,1.576-10.901,1.973
		c-5.911,0.395-15.629-6.567-15.629-6.567s-4.599-6.694-13.661-13c-9.063-6.304-16.549-14.185-19.701-32.309
		c-3.152-18.125-3.152-18.125-3.152-18.125s-6.305-7.486-6.305-11.426s3.94-7.88,8.274-7.88s97.321,2.364,97.321,2.364
		s4.729,0.788,0.788,9.456C295.458,200.674,291.518,205.402,291.518,205.402z"/>
	<path fill="#5D4530" d="M253.298,128.57c7.486-6.699,13.396-11.427,24.428-7.881c11.033,3.546,28.369,14.973,39.008,14.973
		c10.638,0,22.853-7.092,22.853-7.092s0.788,1.576,0,3.545c-0.788,1.97-0.788,1.97-0.788,1.97s6.304-5.122,14.973-6.304
		c8.667-1.182,11.425,4.334,11.425,4.334s-6.304,0-9.85,4.334c-3.546,4.334-6.698,5.91-6.698,5.91s3.94-0.788,6.698,3.546
		c2.758,4.334,2.758,14.973,2.758,14.973s-3.152-12.214-17.731-14.185c-14.578-1.97-17.336,2.364-17.336,2.364
		s-1.97,6.304-7.486,10.245c-5.516,3.94-11.032,5.91-21.67,6.304C283.243,166.001,253.298,128.57,253.298,128.57z"/>
	<path fill="#4F3B28" d="M286.396,139.602c-8.493-7.644-20.489-17.336-42.554-16.942c-22.064,0.394-42.947,13.791-46.1,29.157
		c-3.151,15.367-1.576,23.641-1.576,23.641s-0.394,13.003,1.576,19.701c1.971,6.698,9.457,11.426,9.457,11.426l1.97,3.941
		l4.333-8.274c0,0,0,12.608,11.821,22.063c11.82,9.457,20.489,10.244,20.489,10.244s-7.88-6.697-6.305-16.154
		c0,0,5.911,5.123,13.396,6.306c7.487,1.182,10.245,1.182,10.245,1.182l-6.304-16.941c0,0,7.092,3.546,10.244,3.546
		c3.152,0,6.305-2.364,5.516-3.941c-0.788-1.576-0.788-1.576-0.788-1.576s6.305,3.153,10.245,3.153s6.304-3.153,6.304-3.153
		l3.153,0.789c0,0,1.576-8.668,3.152-14.973c1.576-6.304,5.122-8.668,5.122-8.668S306.096,157.333,286.396,139.602z"/>
	<path fill="#976E50" d="M274.969,233.377c0-1.576-1.97-3.939-11.427,0.395c-9.456,4.334-11.426,5.91-11.426,5.91
		s6.304-1.969,13.79-3.938C273.393,233.771,274.969,233.377,274.969,233.377z"/>
	<path fill="#976E50" d="M230.051,238.499c0,0-4.333-3.149-11.032-5.122c-6.699-1.97-8.668-3.15-8.668-3.15s0.394,6.696,8.668,7.879
		C227.293,239.287,230.051,238.499,230.051,238.499z"/>
	<path fill="#4F3B28" d="M294.332,153.811c7.611,4.452,10.124-0.374,17.235-1.916c-0.19,2.495-1.769,4.906-3.901,6.428
		c4.462-0.466,9.27-3.417,12.737-5.907c-0.714,7.771-14.303,13.021-20.958,13.155c-0.862-2.863-0.754-5.812-1.741-8.671"/>
	<path fill="#5D4530" d="M195.734,164.203c-0.537,9.285,4.324,19.341,11.498,25.139c0.725-2.212,0.628-4.867,0.566-7.434
		c6.815,10.942,13.533,21.847,25.47,27.732c-3.017-6.412-4.723-12.388-6.104-18.914c0.792,2,5.083,5.62,6.217,7.094
		c2.01-3.757,2.137-3.49,3.986-7.321c15.575,13.255,30.43-3.048,38.139-16.303c4.945,3.987,10.755,3.08,10.96,10.033
		c2.229-3.183,5.192-5.623,8.426-7.729c2.008,2.869,5.113,4.221,6.988,0.889c0.44,2.381-0.132,4.406-1.888,5.813
		c-0.031-4.625,1.341-8.925,1.082-13.382c-0.392-6.758-2.947-14.605-7.428-21.985c-8.498-13.998-27.977-22.973-43.405-25.999
		c-13.714-2.688-34.013,5.4-44.071,14.851c-6.788,6.377-8.411,17.875-9.951,26.7c-0.095,0.455-0.162,0.914-0.205,1.376"/>
	<g>
		<g>
			<path d="M251.86,253.462c4.347,2.802-5.563,10.747-8.337,11.29c-3.135,0.615-5.899-1.645-7.326-4.174
				c-0.856-1.518-1.315-3.244-1.485-4.98c-0.103-1.037,0.451-2.865-1.093-2.664c-0.854,5.615,4.104,15.401,11.087,12.525
				c3.074-1.268,12.971-9.234,7.606-12.686c-0.16,0.25-0.278,0.326-0.365,0.606"/>
		</g>
	</g>
	<g>
		<g>
			<path d="M290.39,214.288c0.602,5.571-1.055,11.14-2.525,16.582c-1.428,5.284-3.561,9.106-7.139,13.144
				c-1.693,1.908-7.807,9.971-8.981,12.314c-1.194,2.384-7.018,9.619-9.381,11.523c-0.181,0.146,0.661,0.388,0.848,0.25
				c2.959-2.154,5.533-6.6,7.425-8.652c2.455-2.664,3.3-5.12,4.979-7.326c1.646-2.162,3.825-3.908,5.642-5.926
				c3.777-4.2,6.036-8.555,7.698-14.047c1.766-5.842,2.832-11.917,2.183-17.941C290.747,214.25,290.782,214.246,290.39,214.288"/>
		</g>
	</g>
	<g>
		<g>
			<path d="M199.846,206.336c0.958,4.104,1.562,8.293,2.55,12.388c1.474,6.119,3.021,12.821,6.405,18.211
				c3.71,5.914,9.34,11.469,15.032,15.504c2.467,1.75,5.319,3.237,7.406,5.478c0.562,0.603,0.855,1.377,1.179,2.133
				c0.444,1.037,0.057,0.917,1.124,0.536c-1.75-4.902-6.17-7.186-10.044-10.152c-2.815-2.158-5.716-4.226-8.045-6.896
				c-2.208-2.531-4.656-5.177-6.292-8.13c-4.873-8.797-6.525-19.512-8.791-29.212c-0.381,0.102-0.354-0.088-0.736,0.012"/>
		</g>
	</g>
	<g>
		<g>
			<path d="M268.601,238.068c-1.952,2.543-4.084,4.168-7.31,4.764c-1.46,0.27-2.921,0.447-4.394,0.264
				c-1.253-0.156-2.838-0.818-4.075-0.466c-0.02,1.188,2.949,1.31,3.982,1.437c2.331,0.289,4.813,0.018,7.023-0.797
				c1.878-0.689,3.53-1.916,4.805-3.44c0.574-0.688,1.073-1.433,1.664-2.104c0.524-0.598,1.476-0.981,0.825-1.854
				c-1.043,0.379-1.839,1.384-2.485,2.229"/>
		</g>
	</g>
	<g>
		<g>
			<path d="M213.428,236.167c0.764,0.253,1.305,2.192,1.853,2.797c1.354,1.49,3.273,2.697,5.221,3.271
				c1.027,0.303,8.08,0.166,6.878-1.588c-2.355,0.814-4.68,1.629-7.149,0.709c-1.664-0.623-3.192-1.867-4.351-3.205
				c-0.682-0.787-1.211-2.25-2.242-2.594c-0.078,0.232-0.258,0.504-0.273,0.746"/>
		</g>
	</g>
	<g>
		<g>
			<path d="M256.713,238.369c-2.394,0.898-4.593,1.221-6.872,2.396c0.231,1.479,3.293-0.351,4.069-0.668
				c2.819-1.16,5.621-2.324,8.538-3.209c2.65-0.806,5.289-1.674,7.97-2.371c0.904-0.235,4.657-0.254,4.101-1.502
				c-2.551,0.316-4.703,0.857-7.168,1.545C264.048,235.479,259.926,237.165,256.713,238.369"/>
		</g>
	</g>
	<g>
		<g>
			<path d="M257.666,236.188c-1.327,0.709-2.587,1.539-3.946,2.188c-0.771,0.369-2.857,0.521-2.072,1.616
				c4.431-1.572,8.318-4.299,12.615-6.188c2.128-0.937,4.462-1.666,6.799-1.843c1.013-0.075,1.988,0.287,2.97,0.56
				c0.705,0.196,1.436,0.383,1.608-0.658c-5.729-2.725-13.021,1.759-17.941,4.385"/>
		</g>
	</g>
	<g>
		<g>
			<path d="M208.25,230.047c8.308,2.682,15.513,7.982,24.326,9.262c0.331-0.757,0.034-0.508-0.665-0.631
				c-1.276-0.224-2.542-0.572-3.78-0.951c-2.312-0.707-4.432-1.929-6.637-2.914c-4.279-1.914-8.542-4.017-13.013-5.457
				c-0.076,0.231-0.296,0.604-0.305,0.849"/>
		</g>
	</g>
	<g>
		<g>
			<path d="M211.47,233.676c4.386,4.501,12.665,5.573,18.632,5.58c0.373-1.294-2.611-1.15-3.525-1.238
				c-2.336-0.228-4.692-0.48-6.96-1.097c-2.255-0.606-4.613-1.396-6.5-2.804c-0.94-0.702-1.803-1.635-2.318-2.699
				c-0.42-0.865-0.048-2.962-1.278-2.646c-0.046,1.824,0.849,3.451,2.109,4.746"/>
		</g>
	</g>
	<g>
		<g>
			<path d="M232.817,239.844c-0.328,1.166,0.992,0.764,1.755,1.112c1.117,0.511,1.778,1.612,2.224,2.726
				c0.481,1.199,0.678,2.486,0.666,3.773c-0.008,0.8-0.505,2.063,0.712,1.938c0.684-3.74-0.595-9.552-5.354-9.521"/>
		</g>
	</g>
	<g>
		<g>
			<path d="M297.596,183.187c-0.946,0.213-1.894,1.016-2.371,1.86c1.259,0.713,0.772,0.125,1.967-0.53
				c1.179-0.648,2.732,0.178,3.032,1.532c0.401,1.804-0.759,4.433-1.399,6.15c-1.072,2.88-2.738,5.512-4.421,8.08
				c-0.847,1.289-1.43,2.8-2.468,3.941c-0.892,0.981-0.961,0.857-0.085,1.76c3.563-3.457,6.164-8.291,7.954-12.882
				c0.642-1.643,1.036-3.525,1.438-5.245c0.572-2.442-0.768-5.369-3.66-4.722"/>
		</g>
	</g>
	<g>
		<g>
			<path d="M214.619,205.18c0.315,16.776,17.994,26.5,32.565,29.077c0.76-1.557-2.373-1.237-3.438-1.503
				c-2.201-0.549-4.291-1.506-6.404-2.33c-4.005-1.563-7.753-3.703-11.157-6.339c-3.21-2.49-5.921-5.509-7.854-9.104
				c-0.989-1.84-1.729-3.732-2.164-5.776c-0.203-0.955-0.551-1.872-0.624-2.844c-0.063-0.865-0.12-1.531-1.243-1.187"/>
		</g>
	</g>
	<g>
		<g>
			<path d="M238.916,218.996c6.733,3.757,17.128,7.963,24.973,7.438c-0.599-2.059-2.798-7.525-4.305-9.101
				c-0.731,0.385-0.601,0.533-0.179,1.071c0.85,1.086,2.83,6.152,3.278,7.448c-4.082,0.151-8.113-1-11.912-2.457
				c-1.838-0.705-7.104-2.895-8.853-3.798c-0.922-0.477-2.67-2.185-3.065-0.533"/>
		</g>
	</g>
	<g>
		<g>
			<path d="M270.199,206.566c0.505,1.373,0.988,3.906-0.505,4.964c-0.992,0.704-2.485,0.814-3.631,0.695
				c-2.041-0.214-3.937-1.269-5.862-1.953c-1.256-0.446-2.492-0.905-3.713-1.44c-0.769-0.336-1.082-0.291-1.23,0.663
				c3.951,1.784,18.873,7.771,16.054-2.122c5.16,1.951,10.283,3.891,15.854,2.756c0.119-1.694-2.349-0.757-3.448-0.718
				c-1.943,0.067-3.815-0.61-5.696-1.09c-2.88-0.735-5.664-1.793-8.44-2.843c0.125,0.337,0.192,0.862,0.316,1.2"/>
		</g>
	</g>
	<g>
		<g>
			<path d="M292.66,199.258c-0.949,2.281-1.722,4.799-1.255,7.316c-2.647-0.417-5.239-1.399-7.656-2.554
				c-1.354-0.646-2.758-1.214-4.041-1.988c-0.939-0.566-0.67-0.384-1.173,0.428c4.532,2.805,9.159,4.964,14.486,5.58
				c-1.094-3.093-0.116-5.757,1.094-8.663c-0.363-0.151-0.802-0.215-1.166-0.366c-0.056,0.135-0.077,0.178-0.133,0.313"/>
		</g>
	</g>
	<g>
		<g>
			<path d="M223.401,125.508c-17.985,6.769-32.226,26.654-28.817,46.265c0.424-0.074,2.605-0.227,2.525-0.717
				c-0.091-0.571-0.375-1.069-0.426-1.643c-0.126-1.444-0.689-2.845-0.628-4.29c0.145-3.381,0.781-6.719,1.699-9.974
				c2.265-8.034,7.18-14.816,13.543-20.257c17.572-15.027,43.072-14.681,62.292-3.762c2.55,1.45,5.661,3.896,7.966,5.712
				c1.098,0.863,2.044,1.219,3.066,2.168c1.093,1.014,1.034,1.985,2.088,0.931C270.693,123.923,244.627,117.519,223.401,125.508"/>
		</g>
	</g>
	<g>
		<g>
			<path d="M209.472,210.901c0.222,0.544,0.262,1.149,0.483,1.694c0.223-1.397,0.433-2.777,0.881-4.126
				c0.349-1.053,0.778-2.098,1.369-3.038c0.465-0.739,1.048-1.279-0.045-1.78c-1.28,1.486-2.098,3.663-2.61,5.537
				c-1.116-2.97-2.091-6.232-2.091-9.432c0-1.414,0.283-2.848,0.72-4.194c0.31-0.959,1.663-1.991,0.181-2.331
				c-3.081,5.624-1.315,12.192,0.937,17.739"/>
		</g>
	</g>
	<g>
		<g>
			<path d="M199.645,199.976c1.751,3.234,4.216,6.229,7.855,7.154c0.812-1.384-1.503-1.811-2.449-2.374
				c-1.646-0.977-2.947-2.347-3.987-3.943c-2.063-3.167-2.887-6.929-3.426-10.635c-0.547-3.768-0.545-7.538-0.177-11.324
				c0.162-1.657-0.277-3.416,0.086-5.042c0.227-1.016,1.768-2.849,0.163-2.931c-3.014,8.832-2.818,20.951,1.671,29.238"/>
		</g>
	</g>
	<g>
		<g>
			<path d="M195.582,194.692c0.644,1.276,1.128,2.637,1.589,3.993c0.411,1.207,0.19,1.065,1.415,0.848
				c-0.657-3.701-3.127-6.8-4.231-10.371c-0.435-1.408-0.734-3.014-0.062-4.392c0.343-0.703,0.951-1.23,1.593-1.668
				c0.019-0.214-0.486-0.687-0.617-0.878c-4.581,3.125-1.767,8.753,0.147,12.552"/>
		</g>
	</g>
	<g>
		<g>
			<path d="M239.273,226.893c0.979,3.461,3.669,6.102,6.271,8.434c0.557-0.619,1.083-0.768,0.388-1.401
				c-0.979-0.893-2.025-1.726-2.881-2.737c-0.858-1.019-1.631-2.14-2.164-3.361c-0.555-1.27-0.305-1.318-1.593-0.952"/>
		</g>
	</g>
	<g>
		<g>
			<path d="M259.515,122.794c0.202,0.29,0.021,0.356,0.222,0.646c0.093,0.134,2.008-1.104,2.323-1.255
				c1.81-0.868,3.724-2.035,5.72-2.222c4.281-0.402,8.6,1.442,12.651,2.771c7.324,2.404,13.408,6.168,20.413,9.25
				c12.112,5.33,32.075,8.284,40.847-4.201c-0.288-0.203-1.312-0.251-1.601-0.454c-0.154-0.108-1.427,0.443-1.643,0.681
				c-1.158,1.281-2.153,2.578-3.629,3.472c-3.032,1.836-6.447,2.273-9.951,2.664c-7.167,0.798-13.124,0.41-19.82-2.162
				c-6.712-2.577-14.36-6.332-21.07-8.961c-7.791-3.053-17.548-6.104-24.977-0.955"/>
		</g>
	</g>
	<g>
		<g>
			<path d="M340.388,132.76c0.494-0.925,0.711-2.052,1.073-3.038c-0.333-0.122-0.506-0.287-0.838-0.408
				c-0.177-0.065-0.854,1.881-0.993,2.163c-0.81,1.626-2.15,2.896-3.144,4.385c0.925,0.81,0.753,0.784,1.642-0.118
				c1.258-1.278,2.863-2.195,4.367-3.168c3.06-1.98,6.507-3.503,10.105-4.179c3.256-0.613,6.403-0.155,9.077,1.914
				c1.572,1.216,3.33,2.161,4.859,3.431c0.231-0.308,0.909-0.757,0.556-1.05c-0.66-0.548-1.63-0.728-2.29-1.277
				c-1.766-1.465-3.254-3.218-5.488-3.945c-6.423-2.087-13.84,1.513-18.933,5.274"/>
		</g>
	</g>
	<g>
		<g>
			<path d="M353.703,136.969c-1.646,1.493-3.531,2.693-5.42,3.876c-1.054,0.659-2.115,1.299-3.271,1.755
				c-0.062,0.218,0.393,0.997,0.481,1.222c4.843-1.908,8.102-5.68,12.165-8.7c1.696-1.261,3.445-2.494,5.543-2.849
				c1.261-0.213,2.587-0.254,3.859-0.145c1.467,0.126,1.396,0.653,1.614-0.726c-6.259-0.988-10.67,1.294-15.157,5.365"/>
		</g>
	</g>
	<g>
		<g>
			<path d="M332.63,138.813c0.006,0.215-0.09,0.658,0.046,0.798c0.975-0.024,1.928,0.155,2.902,0.166
				c1.824,0.021,3.617,0.402,5.426,0.618c3.175,0.38,6.522,0.654,9.335,2.218c2.743,1.524,4.694,4.104,6.254,6.82
				c0.916,1.595,1.7,3.247,2.234,5.006c0.306,1.005,0.492,2.051,0.705,3.081c0.167,0.1,1.3-0.274,1.509-0.317
				c-1.343-6.517-4.889-12.428-10.994-15.554c-5.345-2.737-11.538-2.957-17.42-2.811"/>
		</g>
	</g>
	<g>
		<g>
			<path d="M321.842,149.276c-1.172,0.826-2.337,1.676-3.562,2.421c-1.29,0.786-1.531,0.506-0.849,1.753
				c4.016-2.2,7.411-5.945,11.894-7.216c4.111-1.166,8.804-0.173,12.888,0.812c3.993,0.963,7.957,2.559,11.178,5.176
				c1.367,1.112,2.889,2.204,3.673,3.792c0.417,0.845,0.461,1.85,0.606,2.78c0.116,0.751,0.367,0.424,1.058,0.353
				c-0.762-7.407-8.509-10.914-14.851-12.662c-3.473-0.958-7.097-1.866-10.712-1.773c-4.406,0.112-8.089,1.703-11.595,4.178"/>
		</g>
	</g>
	<g>
		<g>
			<path d="M293.397,150.979c2.81,5.703,5.569,11.609,6.834,17.882c0.576,2.857,0.505,5.801,0.33,8.713
				c-0.094,1.542-0.288,3.056-0.594,4.569c-0.303,1.5-0.534,1.521,0.865,1.87c2.983-11.938-1.408-22.842-6.625-33.431
				c-0.353,0.175-0.646,0.314-0.999,0.489"/>
		</g>
	</g>
	<g>
		<g>
			<path d="M303.428,163.112c0.038,0.393,0.073,0.765,0.111,1.158c11.493-1.107,19.982-9.013,20.247-20.813
				c-1.241-0.028-1.146-0.138-1.232,1.174c-0.099,1.507-0.233,3.036-0.621,4.495c-0.663,2.495-1.841,4.889-3.475,6.892
				c-3.664,4.493-9.41,6.424-15.042,6.966"/>
		</g>
	</g>
	<g>
		<g>
			<path d="M245.268,266.379c-0.215,0.111-0.362,0.335-0.539,0.502c5.365,5.753,15.422,3.01,21.075-0.796
				c-0.406-1.272-2.989,0.646-3.877,1.048c-1.796,0.815-3.659,1.502-5.602,1.857c-3.826,0.701-8.246,0.385-11.049-2.621"/>
		</g>
	</g>
	<g>
		<g>
			<path d="M256.282,261.704c-2.074,0.981-4.172,1.892-6.382,2.526c-1.212,0.35-2.408,0.871-3.667,0.938
				c-0.799,0.043-1.834-0.628-1.583,0.541c3.277,0.18,6.355-0.76,9.321-2.063c1.665-0.73,3.352-1.41,5.009-2.154
				c0.858-0.385,3.651-0.84,2.851-2.04c-1.9,0.647-3.712,1.446-5.523,2.305"/>
		</g>
	</g>
	<g>
		<g>
			<path d="M244.407,266.451c-0.175,0.167-0.233,0.393-0.358,0.604c6.052,3.559,12.598-0.186,16.786-4.85
				c-0.76-1.176-2.484,1.454-3.259,2.08c-1.36,1.101-2.837,2.045-4.481,2.656c-2.867,1.064-5.917,0.893-8.583-0.676"/>
		</g>
	</g>
</g>
<path fill="#0082A9" d="M202.865,252.551c1.341,7.682,17.225,40.877,25.542,35.391C225.948,271.659,209.65,266.96,202.865,252.551"
	/>
<g>
	<g>
		<path d="M199.835,247.257c4.895,7.767,10.5,15.068,16.016,22.404c1.504,1.999,3.168,3.86,4.735,5.812
			c1.385,1.728,2.691,3.512,3.991,5.305c0.76,1.052,1.501,2.117,2.138,3.246c0.374,0.662,0.396,0.891,1.042,0.279
			c-3.251-6.211-8.397-11.615-12.584-17.242c-2.838-3.813-5.948-7.438-8.64-11.355c-1.279-1.859-2.537-3.745-3.769-5.639
			c-0.603-0.924-1.653-4.229-2.849-2.897"/>
	</g>
</g>
<g>
	<g>
		<path d="M200.601,262.74c6.536,5.66,14.677,9.324,22.627,12.546c0.75-0.999-0.485-1.183-1.235-1.494
			c-1.267-0.528-2.559-0.989-3.811-1.56c-2.488-1.127-4.905-2.381-7.293-3.707c-2.073-1.151-4.197-2.221-6.133-3.59
			c-0.795-0.563-1.623-1.084-2.382-1.691c-0.605-0.482-1.23-1.645-1.738-0.545"/>
	</g>
</g>
<g>
	<path fill="#ECAF8B" d="M313.051,287.57c-2.173-1.819-5.694-1.48-9.514-3.252c-3.82-1.771-7.681-4.951-10.033-4.883
		c-2.352,0.069-10.252,3.6-16.063,6.127c-5.812,2.524-7.188,3.742-7.36,5.867c-0.172,2.122,1.267,3.021,1.267,3.021
		s-0.524-0.76-0.838,3.557c-0.425,5.835,18.815,4.997,20.931,4.936c2.118-0.063-10.425,0.373-13.607,4.234
		c-3.183,3.861,2.884,6.488,2.884,6.488s4.161-0.694,7.298-0.566c0,0-7.569,0.929-6.397,4.169c0.46,1.272,0.311,4.097,2.252,3.968
		c10.813-0.725,20.461-0.316,21.927-0.257c3.3,0.14,10.743-10.911,10.548-17.499C316.153,296.896,313.051,287.57,313.051,287.57z"/>
	<g>
		<path fill="#F3D6C3" d="M276.93,292.168c1.373-4.896-7.514-4.895-5.791,2.021c1.667-0.186,3.493-0.217,5.127-0.586"/>
		<path fill="#F3D6C3" d="M278.495,297.305c-1.916-2.408-5.07-2.352-7.788-1.613c-1.105,5.785,6.878,5.688,7.068,1.162"/>
		<g>
			<g>
				<path d="M288.354,280.43c-3.333,1.463-6.65,2.801-10.099,3.95c-2.965,0.972-8.94,2.36-8.438,6.617
					c0.987-0.116,1.1,0.196,1.245-0.729c0.158-1.026,0.795-1.688,1.642-2.188c2.349-1.385,5.153-1.88,7.724-2.746
					c3.193-1.077,6.121-2.807,9.208-4.156c1.777-0.777,3.678-1.338,5.554-1.85c1.251-0.342,1.205-0.168,1.259-1.502
					c-2.654-0.108-5.59,1.943-7.93,2.972"/>
			</g>
		</g>
		<g>
			<g>
				<path d="M282.012,291.925c-3.261,0.181-8.813-0.385-10.969,2.587c0.563,0.741,0.557,0.026,1.092-0.352
					c0.727-0.516,1.769-0.473,2.632-0.646c1.826-0.365,3.654-0.722,5.506-0.826c4.941-0.274,9.931,0.771,14.838,0.322
					c0.145-0.81-0.117-0.77-0.821-0.734c-1.301,0.067-2.618,0.229-3.917,0.148c-2.78-0.171-5.571-0.695-8.353-0.385"/>
			</g>
		</g>
		<g>
			<g>
				<path d="M269.742,299.766c1.299,2.436,4.414,2.894,6.881,2.848c2.756-0.047,5.5,0.074,8.246,0.301
					c2.646,0.219,5.291,0.438,7.916,0.845c1.039,0.161,2.112,0.167,3.137,0.399c0.703,0.156,1.411,0.621,1.446-0.432
					c-5.088-1.649-11.048-2.021-16.345-2.254c-2.852-0.129-6.467,0.702-8.997-0.896c-1.243-0.785-1.873-1.95-1.693-3.419
					c0.134-1.094,1.874-3.131,0.65-3.58c-1.251,1.753-1.992,3.947-0.894,6.003"/>
			</g>
		</g>
		<g>
			<g>
				<path d="M277.117,312.018c1.251,2.085,3.653,2.189,5.505,1.904c2.073-0.321,4.155-0.484,6.249-0.555
					c2.021-0.065,4.039-0.131,6.062-0.025c0.801,0.045,1.611-0.056,2.41,0.052c0.547,0.073,1.133,0.429,1.041-0.535
					c-4.02-0.992-8.553-0.729-12.573-0.414c-2.165,0.169-4.796,1.287-6.881,0.085c-1.026-0.59-1.631-1.587-1.661-2.94
					c-0.021-1.007,1.063-3.033,0.089-3.32c-0.747,1.721-1.059,3.788,0,5.55"/>
			</g>
		</g>
		<g>
			<g>
				<path d="M277.1,307.347c0.9,1.269,1.149-0.92,2.079-1.48c1.476-0.892,3.538-0.853,5.196-1.171
					c1.968-0.379,3.97-0.692,5.965-0.729c1.193-0.021,4.731,0.992,4.364-0.896c-5.191-0.379-17.51-0.598-17.825,4.149"/>
			</g>
		</g>
		<g>
			<g>
				<path d="M281.365,319.866c1.211,1.796,3.917,1.899,5.588,1.899c2.554,0,7.727-0.025,9.531-0.027
					c0.713-0.002,2.616-1.105,3.331-1.046c0.489,0.039,1.672-0.715,0.811-0.686c-4.249,0.154-6.387,0.177-10.269,0.313
					c-1.933,0.064-5.899,0-6.495-0.229c-0.987-0.376-1.611-0.644-1.703-1.845c-0.066-0.896,0.788-2.824-0.457-2.949
					c-1.662-0.165-1.722,2.78-0.28,4.682"/>
			</g>
		</g>
		<g>
			<g>
				<path d="M281.533,316.076c0.861,0.909,0.944-0.715,1.745-1.183c1.275-0.733,2.498-1.348,4.547-1.602
					c1.76-0.22,3.565-0.252,5.338-0.37c1.062-0.071-0.076,0.819-0.484-0.579c-4.64-0.043-12.731,0.694-11.348,3.648"/>
			</g>
		</g>
		<g>
			<g>
				<path d="M287.458,279.838c0.058,0.211,0.176,1.198,0.344,1.311c1.246-0.342,2.506-0.614,3.797-0.678
					c2.348-0.109,4.618,0.381,6.762,1.338c2.116,0.941,4.191,2.045,5.963,3.525c1.104,0.92,2.173,1.909,3.201,2.915
					c0.765,0.75,0.578,0.499,1.24-0.165c-5.812-5.8-12.668-10.389-21.249-8.032"/>
			</g>
		</g>
		<g>
			<g>
				<path d="M301.355,284.186c3.512,1.429,7.212,3.268,11.092,3.142c0.272-1.112-0.668-0.702-1.445-0.791
					c-1.524-0.175-2.977-0.711-4.411-1.239c-1.652-0.609-3.295-1.254-4.925-1.917c-0.088,0.226-0.313,0.521-0.332,0.755"/>
			</g>
		</g>
		<g>
			<g>
				<path d="M310.391,285.732c3.625,3.371,4.856,9.377,5.212,14.08c0.205,2.722,0.059,5.539-0.487,8.217
					c-0.253,1.239-0.802,2.413-1.333,3.563c-0.39,0.852-1.155,1.732,0.147,2.16c2.758-4.073,2.702-9.861,2.265-14.589
					c-0.443-4.79-1.545-10.636-5.222-14.058c-0.202,0.217-0.696,0.619-0.831,0.881"/>
			</g>
		</g>
		<g>
			<g>
				<path d="M271.646,295.76c-1.882,2.264-0.643,5.631,2.466,5.229c1.908-0.247,4.224-1.406,4.756-3.425
					c-0.294,0.006-0.78-0.383-0.906-0.031c-0.405-2.486-4.62-3.643-6.23-1.7 M272.36,299.98c-1.553-0.939-0.707-4.326,1.126-4.381
					c0.979-0.029,2.05,0.235,2.877,0.777c0.783,0.512,0.663,1.657,1.423,1.702c-0.923,1.496-3.797,3.017-5.483,1.993"/>
			</g>
		</g>
		<g>
			<g>
				<path d="M274.6,288.366c-2.51,0.463-3.638,1.842-3.563,4.384c1.143,0.295,0.676-0.798,0.833-1.551
					c0.165-0.79,0.666-1.395,1.404-1.727c0.721-0.324,2.33-0.875,3.013-0.252c0.817,0.747-0.48,2.682,1.021,2.408
					c0.195-2.041-0.301-3.746-2.716-3.301"/>
			</g>
		</g>
		<g>
			<g>
				<path d="M291.83,294.854c0.471,1,0.686,2.131,0.574,3.236c-0.074,0.733-0.584,1.357,0.472,1.45
					c0.626-1.616,0.415-3.499-0.308-5.037c-0.223,0.104-0.516,0.183-0.703,0.341"/>
			</g>
		</g>
		<g>
			<g>
				<path d="M279.273,311.161c-0.296-0.749-0.416-1.59-0.313-2.402c0.066-0.542,0.427-0.989-0.287-1.083
					c-0.46,1.177-0.361,2.572,0.092,3.729c0.154-0.072,0.354-0.121,0.483-0.234"/>
			</g>
		</g>
		<g>
			<g>
				<path d="M282.976,295.527c0.578,1.133-0.508,3.265,0.595,3.535c0.703-1.229,0.756-2.633,0.109-3.896
					c-0.218,0.111-0.515,0.191-0.695,0.354"/>
			</g>
		</g>
		<g>
			<g>
				<path d="M286.06,286.419c0.653,0.998,0.33,3.612,1.444,3.61c0.391-1.371-0.025-2.863-0.791-4.03
					c-0.206,0.133-0.434,0.208-0.596,0.39"/>
			</g>
		</g>
		<g>
			<g>
				<path d="M299.127,306.076c-0.009,0.242,0.141,0.572,0.198,0.81c1.965-0.465,3.864-1.159,5.708-1.981
					c-0.18-1.162-0.971-0.43-1.703-0.139c-1.367,0.537-2.768,0.973-4.198,1.313"/>
			</g>
		</g>
	</g>
</g>
<g>
	<g>
		<path fill="#CFD2D8" d="M293.172,375.469c-9.869-1.293-123.247-7.987-123.379,8.3c20.021,7.091,47.648,7.467,69.038,7.463
			c9.668-0.004,26.771-3.402,36.493-2.642c20.212,1.589-2.387,8.798,6.291,10.257c1.49,10.672,13.396,1.053,58.575,19.073
			c20.477,8.168,161.732,1.429,183.349,4.306c0.636-30.406-118.275-39.343-150.825-45.521c-21.514-4.085-43.513-3.862-65.357-3.862"
			/>
		<path fill="#476990" d="M588.428,318.178c-7.314,0-15.546,0-26.061,0c-10.517,0-17.1-3.346-36.555-6.994
			c-19.195-3.595-36.138-8.084-48.021-9.5c-11.887-1.414-23.208-0.994-30.064-1.465c-6.855-0.471-9.144-0.471-10.973-0.471
			c-1.828,0-3.459,2.307-3.459,2.307s-11.275,5.759-11.736,20.837c-0.457,15.081,0,18.852,1.829,30.162
			c1.83,11.311,1.83,13.194,1.83,13.194l12.8,21.209c0,0,61.72,10.368,86.86,7.541c25.146-2.828,36.575,0.94,49.834,2.355
			c0,0,15.177-36.373,19.861-52.563C599.26,328.606,588.428,318.178,588.428,318.178z"/>
		<g id="ChestMains">
			<path id="ChestMain" fill="#F4BF9A" d="M435.737,301.328c-9.95-1.782-14.895-2.52-39.991-1.182
				c-25.1,1.34-27.498,1.701-42.643,1.701c-15.146,0-27.357,4.926-36.013,8.941c-8.653,4.015-21.146,11.216-27.071,14.405
				c-6.458,3.478-9.845-1.051-13.412-2.979c-4.567-2.474-4.58-13.91-4.869-20.72c-0.294-6.813-2.123-13.79-7.723-11.925
				c-5.516,1.841-5.785-2.248-7.223-2.102c-1.492,0.154-1.576,3.547-1.576,3.547c-2.101-2.758-3.97-4.011-5.254-4.203
				c-1.282-0.191-4.596,5.254-7.092,0.131c-1.5-3.076-4.042-3.688-7.224-0.918c-6.738,5.863-9.457,6.828-16.286,6.041
				c-9.198-1.063-21.887,3.567-25.992,7.347c-3.928,3.614-4.555,17.154-3.69,24.291c0.866,7.138,55.207,46.845,57.372,48.183
				c2.164,1.339,21.111-16.394,36.262-0.746c10.945,11.307,83.931,1.196,102.97,0.749c19.042-0.444,53.984-9.098,53.984-9.098
				s-2.128-6.51-2.56-28.368C437.276,312.565,435.737,301.328,435.737,301.328z"/>
			<path id="ChestMainExpanded" fill="#F4BF9A" d="M435.737,301.328c-9.95-1.782-13.953-4.432-39.05-3.094
				c-24.838-1.527-28.517-2.718-44.849-3.068c-14.512-2.549-31.208,6.969-40.174,10.667c-8.819,3.636-15.72,16.174-21.645,19.363
				c-6.458,3.478-9.845-1.049-13.412-2.979c-4.567-2.474-4.58-13.91-4.869-20.72c-0.294-6.813-2.123-13.79-7.723-11.924
				c-5.516,1.84-5.785-2.248-7.223-2.101c-1.492,0.152-1.576,3.545-1.576,3.545c-2.101-2.758-3.97-4.011-5.254-4.201
				c-1.282-0.193-4.596,5.252-7.092,0.131c-1.5-3.078-4.042-3.689-7.224-0.92c-6.738,5.865-9.457,6.828-16.286,6.041
				c-9.198-1.063-21.887,3.567-25.992,7.347c-3.928,3.614-4.555,17.154-3.69,24.291c0.866,7.138,55.207,46.845,57.372,48.183
				c2.164,1.339,21.111-16.394,36.262-0.746c10.945,11.307,83.931,1.196,102.97,0.749c19.042-0.444,53.986-9.098,53.986-9.098
				s-2.13-6.51-2.562-28.368C437.276,312.565,435.737,301.328,435.737,301.328z"/>
		</g>
		<path fill="#CCA387" d="M252.588,287.473c0.134,2.346,0.464,5.15,2.206,6.928c0.447-2.199,0.409-3.646-0.893-5.481"/>
		<path fill="#CCA387" d="M249.412,336.857c-1.126,0.062-2.737,0.648-3.704,1.482c-1.632,1.401-0.555,1.398-1.261,2.856
			c-1.067,2.202,0.57,0.89-1.729,1.771c-1.432,0.549-2.755-1.236-3.126,1.139c2.568,1.016,6.652,5.298,9.554,2.508
			c1.624-1.563,1.217-7.456,0.266-8.972"/>
		<path fill="#6E7D8F" d="M492.477,383.678l3.549,31.126c0,0-6.038-2.4-16.154-0.788c-6.499,1.034-9.457,6.896-28.469,4.217
			c-18.586-2.621-28.147-2.136-30.744-2.136c-2.595,0-21.133-3.329-26.324-4.222c-5.193-0.892-21.689-2.266-21.689-2.266
			s-5.191,0.593-15.002,0.295c-9.807-0.295-13.653-7.568-25.481-10.54c-11.828-2.975-23.946-6.842-26.829-9.814
			c-2.888-2.976-8.079-3.567-12.118-5.354c-4.04-1.786-8.655-5.354-8.655-5.354s2.555-5.992,9.19-20.861
			c6.633-14.871,36.485-16.479,46.585-15.588c10.099,0.895,26.83,4.163,45.295,8.624c18.463,4.461,45.295,16.063,52.793,19.927
			c7.502,3.865,8.772,1.748,18.004,5.912c9.233,4.162,4.256,1.509,12,4.798C478.293,385.845,492.477,383.678,492.477,383.678z"/>
		<path fill="#7F90A7" d="M470.33,383.065l10.431,1.239c-5.4-2.781-8.023-7.663-13.695-9.889
			c-5.675-2.227-10.216-5.245-16.154-8.865c-5.94-3.618-12.474-3.949-22.459-7.289c-9.994-3.341-27.479-12.521-47.461-18.368
			c-19.981-5.844-35.958-9.134-47.3-9.407c-11.337-0.277-25.858-0.375-33.688,6.304c-7.832,6.682-11.783,8.171-15.564,19.306
			c-3.779,11.139-3.354,18.314-3.354,19.148c0,0.837,1.083,3.896,4.592,5.013c3.509,1.112,5.939,2.782,5.939,2.782
			s-2.7,7.794-2.7,10.717c0,2.922,3.242,5.844,4.455,5.428c1.217-0.419,5.998-1.426,7.617-3.095
			c1.621-1.671,3.152-5.316,3.152-5.316s0.572-5.784,0.572-17.058c0-11.272,11.849-19.2,21.568-20.453
			c9.721-1.252,30.68,0.41,30.68,0.41s3.646,4.178,16.199,6.685c12.555,2.505,20.249,6.262,20.249,6.262s7.746-4.151,11.796,1.695
			c4.051,5.845,15.891,6.557,25.61,9.063c9.722,2.505,6.437-4.052,13.322-3.216c6.885,0.834,9.8,0.959,9.8,0.959
			s6.415,3.633,8.694,4.471C467.351,381.326,470.33,383.065,470.33,383.065z"/>
		<path fill="#F4BF9A" d="M493.241,385.541c7.626-1.657,5.917-2.455,13.42-2.455c7.502,0,19.04,3.057,21.349,5.437
			c2.311,2.378-10.927,5.91-10.927,5.91s3.334-0.366,7.203,1.289c5.216,2.238,11.553,0.403,12.418,2.485
			c0.866,2.083,1.738,4.223,1.738,4.223l-1.986,0.249c0,0-0.455,0.048-0.746,1.24c0,0-5.063,3.004-11.699,5.681
			c-6.637,2.679-13.271,5.354-19.903,4.76c-6.641-0.595-8.633,0.238-8.633,0.238s-1.797-0.927-4.968-8.658
			C487.335,398.207,487.759,386.732,493.241,385.541z"/>
		<path fill="#586572" d="M331.991,351.521c12.667-3.726,19.373,3.229,33.778,1.985c7.84-0.675,9.756,1.674,9.756,1.674
			s17.291-0.85,24.555,2.885c35.766,18.378,30.798,9.033,37.432,13.792c6.64,4.759,2.168,3.938,2.168,3.938l-5.123,2.563
			c0,0-3.222-0.503-7.484-1.576c-4.524-1.143-13.824-2.753-19.503-5.715c-4.063-2.114-3.464-4.994-6.896-6.305
			c-2.454-0.937-5.104,2.192-6.696,1.576c-6.922-2.676-9.211-3.13-12.1-4.913c-2.885-1.784-8.191-1.979-8.191-1.979
			s-13.731-2.777-17.771-3.672c-4.04-0.891-13.849-2.673-14.715-3.566C340.332,351.317,331.991,351.521,331.991,351.521z"/>
		<path fill="#586572" d="M306.151,377.393c3.203,5.788,20.277,11.972,26.094,14.896c16.552,8.336,31.739,9.293,49.089,11.326
			c9.204,1.075,14.98,5.674,23.777,8.127c12.926,3.605,27.652,2.291,41.032,5.244c3.247,0.718,6.503,1.008,9.615,1.771
			c-39.689,1.457-48.668-5.324-72.955-6.224c-15.521-0.576-32.909-2.519-47.54-7.582c-5.559-1.929-8.553-3.956-13.396-6.699
			c-3.435-1.944-11.519-5.495-14.333-7.926c-3.124-2.689-5.969-3.283-2.251-8.921"/>
		<path fill="#8F745E" d="M199.965,294.016c0,0-17.882,6.207-20.116,20.86c-2.236,14.654-3.726,28.313-3.479,29.059
			c0.25,0.746-2.234-0.497-2.234-0.497l0.744,6.457l-2.276-1.479c0,0,0.546,19.578,7.749,24.297
			c7.202,4.719,8.931,4.466,8.931,4.466l-3.283,1.839c0,0,6.57-0.681,5.52,2.671c-0.397,1.271,1.834,2.058,1.834,2.058l4.466,1.973
			c0,0,2.887-0.16,5.123-0.659c2.233-0.497,6.172,1.71,6.172,1.71s8-1.239,19.176-2.232c11.177-0.993,13.646-4.832,16.378-6.569
			c2.732-1.74,7.452-4.969,8.445-5.715c0.993-0.744,3.726-1.986,3.726-1.986s-2.67-4.679-5.899-7.903
			c-3.227-3.229-13.029-9.003-13.029-9.003s-4.677-6.669-3.934-9.898c0.746-3.229,4.222-5.464,6.209-7.204
			c1.986-1.736,1.242-3.973,1.242-3.973s-6.732,0.142-11.522-0.409c-5.417-0.624-0.885-5.816-7.094-5.816
			s-10.679-2.979-15.895-3.974c-5.216-0.992-11.726-3.479-11.726-3.479l5.125-2.646c0,0,0-0.744-2.235-0.991
			c-2.234-0.25-4.47,0.247-4.47,0.247s1.317-2.521,3.288-2.784c3.947-0.524,7.355-0.131,7.355-0.131s0.674-0.647-4.292-1.642
			c-4.966-0.994-9.188,0.992-9.188,0.992s1.236-4.113,2.316-6.574c1.701-3.87,3.416-6.174,3.416-6.174s-3.15,2.172-5.385,3.414
			C191.124,302.313,195.496,297.49,199.965,294.016z"/>
		<g>
			<g>
				<g>
					<g id="ChestOutlines">
						<path id="ChestOutline" d="M286.869,329.371c-0.388-0.071-0.362-0.555-0.75-0.626c0.335-1.836,2.25-3.467,3.673-4.568
							c1.364-1.059,3.055-1.4,4.57-2.188c1.638-0.852,4.947-2.489,6.559-3.389c5.942-3.313,10.991-6.896,17.226-9.628
							c8.004-3.506,15.021-5.099,23.621-6.729c0.621-0.118,2.97-0.372,6.148-0.665c7.044-0.647,18.159-1.485,23.534-1.438
							c5.124,0.047,9.718,0.055,14.841-0.132c5.053-0.181,11.51-0.317,16.55-0.716c9.847-0.777,18.657-1.165,28.368,1.051
							c1.147,0.262,2.819,0.354,3.973,0.594c0.354,0.068,1.809,0.168,1.752,0.527c-0.046,0.33-0.364-0.021-0.414,0.307
							c-1.959-0.281-3.794-0.379-5.727-0.778c-2.511-0.521-5.096-0.62-7.648-0.853c-4.953-0.447-9.929-0.514-14.892-0.23
							c-4.988,0.279-9.975,0.582-14.959,0.947c-5.112,0.375-10.219,0.824-15.346,0.82c-9.95-0.006-19.965-0.059-29.868,1.137
							c-8.894,1.07-18.632,3.273-26.932,6.593c-6.826,2.729-12.251,6.018-18.692,9.552c-2.83,1.551-5.861,2.776-8.791,4.129
							c-2.473,1.145-5.007,2.701-5.933,5.455c-0.042,0.119-0.316-0.084-0.338,0.04"/>
						<path id="ChestOutlineExpanded" d="M286.869,329.371c-0.388-0.071-0.362-0.555-0.75-0.626c0.335-1.836,2.25-3.467,3.673-4.568
							c1.364-1.059,0.523-1.624,2.038-2.411c1.638-0.852,4.942-8.008,6.554-8.907c5.99-5.418,8.982-6.524,15.217-9.257
							c8.004-3.506,14.713-7.577,23.313-9.209c0.621-0.118,10.836-0.272,14.014-0.565c7.044-0.648,19.175,0.959,24.55,1.008
							c5.124,0.047,16.086,3.586,21.209,3.399c5.054-0.181,2.277,0.104,7.317-0.295c13.134-1.233,17.494,0.188,27.205,2.404
							c1.147,0.262,2.819,0.354,3.973,0.594c0.354,0.068,1.809,0.168,1.752,0.527c-0.046,0.33-0.364-0.021-0.412,0.307
							c-1.96-0.281-3.796-0.379-5.729-0.778c-2.511-0.521-5.096-0.62-7.649-0.853c-4.952-0.447-5.735-0.667-10.698-0.384
							c-4.988,0.279-16.254-1.022-21.238-0.657c-4.813-0.825-4.813-0.825-11.191-1.985c-9.95-0.006-23.663-2.211-33.565-1.019
							c-8.894,1.071-19.278,3.477-27.579,6.796c-6.826,2.729-11.958,6.28-17.421,10.188c-5.002,4.323-4.855,8.656-7.785,10.009
							c-2.473,1.145-5.007,2.701-5.933,5.455c-0.042,0.119-0.316-0.084-0.338,0.04"/>
					</g>
					<g>
						<path d="M292.453,399.954c-0.148,0-0.257-0.604-0.257-0.729c0.003-0.356,0.277-0.493,0.638-0.511
							c0.847-0.044,1.649-0.09,2.446-0.382c1.598-0.586,3.672-1.296,4.854-2.508c2.661-2.729,3.805-6.571,4.648-10.257
							c0.502-2.192,0.522-4.376,0.328-6.614c-0.21-2.435-0.504-4.863-0.425-7.314c0.117-3.642,1.771-6.521,4.259-9.104
							c4.712-4.896,11.165-8.16,17.493-10.402c7.738-2.744,16.185-4.491,24.41-3.744c0.077,0.008,0.003,0.091,0.081,0.098
							c-0.02,0.222-0.141,0.382-0.162,0.602c-0.023,0.247-0.46-0.139-0.682-0.155c-1.025-0.074-2.071,0.339-3.099,0.335
							c-2.07-0.006-4.106,0.175-6.16,0.436c-4.351,0.551-8.652,1.481-12.817,2.852c-6.348,2.081-12.986,4.923-17.89,9.555
							c-2.366,2.231-4.391,4.979-4.778,8.283c-0.563,4.807,1.325,9.572,0.443,14.39c-1.184,6.461-2.236,15.386-13.332,14.852"/>
					</g>
					<g>
						<path d="M294.412,399.345c-1.669,0-3.525-0.502-4.839-1.604c-1.011-0.854-1.154-1.77-0.953-3.014
							c0.44-2.723,1.398-5.323,1.844-8.049c0.625-3.816,1.08-7.666,1.506-11.512c0.216-1.933,0.404-3.865,0.486-5.81
							c0.04-0.946,0.208-1.894,0.203-2.838c-0.001-0.214-0.246-0.896,0.012-0.902c0.222-0.006,0.351,0.06,0.572,0.056
							c0.167,7.498-0.867,15.128-2.224,22.486c-0.25,1.535-0.841,3.038-1.222,4.547c-0.259,1.027-1.094,2.671-0.551,3.693
							c0.82,1.539,3.061,1.937,4.651,2.017c0.918,0.044,1.872,0.044,2.765-0.177c0.204-0.052,0.477-0.355,0.56-0.124
							c0.075,0.208,0.333,0.428,0.408,0.636c-1.015,0.36-2.145,0.555-3.22,0.555"/>
					</g>
					<g>
						<path d="M289.364,383.218c-1.679-0.946-3.12-2.19-4.859-3.021c-0.892-0.425-1.985-1.47-2.671-2.199
							c-1.661-1.772-0.738-5.04-0.442-7.17c0.636-4.604,0.954-9.366,2.316-13.822c1.425-4.665,4.21-8.339,7.358-11.972
							c0.766-0.884,1.723-1.607,2.479-2.501c0.095-0.11,0.632-1.035,0.676-0.998c0.194,0.158,0.361,0.127,0.556,0.285
							c-2.842,3.485-6.2,6.728-8.441,10.657c-2.306,4.05-2.808,8.76-3.415,13.31c-0.298,2.241-0.946,4.447-1.194,6.696
							c-0.129,1.187,0.032,2.454,0.366,3.624c0.58,2.031,3.074,2.714,4.758,3.506c1.099,0.518,2.166,1.117,3.223,1.715
							c-0.128,0.229-0.34,0.642-0.468,0.87"/>
					</g>
					<g>
						<path d="M438.668,357.765c-0.699-9.6-1.867-19.186-1.895-28.821c-0.021-8.43,0.781-16.921-0.857-25.258
							c-0.204-1.045-0.121-2.174-0.422-3.193c-0.091-0.311-0.697-0.734-0.337-0.854c0.246-0.078,0.395,0.082,0.64,0.004
							c2.634,8.152,2.501,17.089,2.287,25.535c-0.236,9.298,0.746,18.482,1.557,27.728c0.142,1.586,0.39,3.21,0.504,4.798
							c-0.328,0.022-0.604-0.025-0.928-0.002"/>
					</g>
					<g>
						<path d="M445.282,301.072c-2.054-0.213-4.089-0.656-6.143-0.901c-0.984-0.119-1.977-0.185-2.973-0.174
							c-0.208,0.001-0.683,0.153-0.688-0.173c-0.008-0.292-0.047-0.553-0.053-0.846c2.039-0.123,4.087,0.103,6.101,0.402
							c1.029,0.155,2.056,0.363,3.089,0.497c0.208,0.024,0.813-0.056,0.788,0.278c-0.023,0.291-0.095,0.6-0.115,0.894"/>
					</g>
					<g>
						<path d="M569.051,318.818c-4.776,0-9.63,0.179-14.283-0.945c-2.156-0.521-4.303-1.08-6.462-1.6
							c-4.87-1.174-9.81-1.951-14.722-2.928c-12.63-2.508-23.736-4.784-36.443-6.873c-9.601-1.576-19.927-3.438-29.619-4.369
							c-4.005-0.383-7.145-1.521-11.17-1.617c-1.907-0.047-4.611-0.422-6.476,0c-1.111,0.252-2.869,1.428-3.944,1.806
							c-0.406,0.144-0.857-0.258-0.986-0.616c-0.086-0.232,0.439-0.086,0.355-0.316c3.943-1.426,7.044-2.748,11.213-2.33
							c3.542,0.355,7.738,1.178,11.279,1.556c4.18,0.442,8.348,1.044,12.508,1.659c12.354,1.831,24.616,4.242,36.907,6.462
							c10.862,1.963,21.983,2.997,32.704,5.647c1.615,0.398,3.172,1.034,4.784,1.441c3.683,0.937,7.342,1.801,11.135,1.961
							c7.562,0.316,15.118-0.884,22.678-0.936c0.002,0.331-0.515,1.058-0.511,1.391c0.001,0.349,0.165-0.145-0.127-0.141
							c-0.521,0.008-1.016,1.028-1.534,1.043c-1.924,0.047-3.849-0.297-5.771-0.197c-3.831,0.199-7.679,0.871-11.518,0.871"/>
					</g>
					<g>
						<path d="M602.335,383.607c-10.13-1.108-20.225-2.635-30.399-3.033c-10.264-0.401-20.412-1.039-30.541-2.83
							c-9.801-1.734-19.253-2.818-28.875-5.394c-9.851-2.632-20.121-5.436-30.065-7.692c-10.385-2.357-20.903-4.165-31.273-6.593
							c0.054-0.218,0.476-0.723,0.524-0.938c0.058-0.25,0.738-0.103,0.977-0.047c1.301,0.301,2.663,0.316,3.964,0.613
							c2.494,0.564,4.509,1.459,7.007,2.014c4.91,1.089,10.979,2.579,15.893,3.677c9.985,2.234,19.241,4.042,29.098,6.797
							c9.622,2.689,19.291,5.074,29.119,6.847c5.077,0.917,10.149,1.908,15.281,2.444c5.072,0.532,10.21,0.205,15.303,0.438
							c11.397,0.519,22.862,0.547,34.213,1.787c-0.025,0.263-0.166,1.604-0.191,1.866"/>
					</g>
					<g>
						<path d="M494.782,414.359c-4.016-3.779-6.148-9.271-6.728-14.681c-0.516-4.845,0.117-10.281,2.835-14.438
							c0.382,0.247,0.644,0.215,0.382,0.642c-0.322,0.522-0.568,1.108-0.82,1.67c-0.521,1.159-0.688,2.442-0.964,3.682
							c-0.606,2.742-0.96,5.584-0.66,8.374c0.312,2.921,1.098,5.844,2.375,8.491c0.631,1.308,1.592,2.424,2.483,3.566
							c0.424,0.539,0.762,1.146,1.242,1.636c0.142,0.145,0.581,0.39,0.415,0.564c-0.15,0.162-0.317,0.231-0.472,0.396"/>
					</g>
					<g>
						<path d="M459.056,419.421c-4.418,0-8.53-1.255-12.879-1.8c-2.399-0.303-5.861,0.873-8.27,0.926
							c-2.567,0.06-4.669-0.679-7.228-0.919c-5.073-0.475-9.489-1.729-14.588-1.986c-4.388-0.22-8.785,0.318-13.088-0.686
							c-4.922-1.146-9.615-3.319-13.852-6.06c0.117-0.183,0.478-0.891,0.666-0.938c0.912,0.589,1.775,1.236,2.726,1.769
							c1.735,0.973,3.626,1.762,5.48,2.478c3.779,1.458,7.884,1.955,11.91,2.305c2.367,0.206,4.725,0.534,7.098,0.685
							c2.569,0.162,5.177-0.052,7.732,0.253c5.012,0.599,10.042,1.842,15.097,1.628c1.894-0.081,3.733-0.612,5.629-0.43
							c1.711,0.167,3.415,0.432,5.099,0.775c3.728,0.762,7.42,1.162,11.229,0.785c3.029-0.299,6-0.744,8.813-1.867
							c3.281-1.313,6.413-3.059,9.896-3.74c0.039,0.192,0.233,0.609,0.271,0.804c0.081,0.402,0.146,0.626-0.301,0.717
							c-1.192,0.24-1.896,0.271-3.062,0.625c-1.97,0.597-4.396,2.124-6.305,2.889c-3.928,1.573-7.812,2.554-12.079,2.554"/>
					</g>
					<g>
						<path d="M388.527,412.362c-5.02,0.301-10.002-0.252-14.98-0.675c-2.421-0.205-4.859-0.07-7.296-0.078
							c-2.459-0.012-4.914-0.096-7.371-0.17c-2.459-0.074-4.812-0.658-7.16-1.479c-2.24-0.78-4.42-1.701-6.614-2.628
							c-3.773-1.596-7.9-1.357-11.784-2.451c-5.961-1.682-10.829-6.172-16.362-9.058c-2.655-1.382-5.417-2.067-8.178-3.056
							c-2.434-0.867-4.465-2.528-5.886-5.169c0.181-0.155,0.413-0.487,0.606-0.464c0.544,1.012,1.3,1.937,2.101,2.637
							c1.47,1.279,3.428,1.635,5.172,2.147c2.258,0.665,4.66,0.793,6.796,1.896c2.143,1.104,3.824,3.349,5.863,4.695
							c2.069,1.374,4.199,2.746,6.411,3.77c1.904,0.878,3.975,1.329,5.988,1.756c1.78,0.38,3.71-0.185,5.497,0.152
							c2.314,0.434,4.263,2.431,6.426,3.438c1.922,0.891,3.971,1.509,6.003,1.996c2.079,0.498,4.261,0.594,6.391,0.609
							c2.157,0.018,4.313,0.063,6.472,0.085c2.237,0.016,4.461-0.044,6.687,0.148c4.25,0.372,8.516,0.971,12.793,0.846
							c2.222-0.063,4.461-0.299,6.679-0.568c1.129-0.137,2.227-0.146,3.351-0.341c0.15,0.188,0.04,0.271,0.063,0.561
							C393.621,411.415,391.104,412.206,388.527,412.362"/>
					</g>
					<g>
						<path d="M391.787,364.79c-3.449-0.208-6.842-1.269-10.027-2.524c-1.626-0.64-3.216-1.362-4.877-1.906
							c-1.859-0.608-3.777-0.943-5.695-1.313c-3.787-0.729-7.597-1.236-11.224-2.604c-1.709-0.646-3.269-1.682-4.969-2.348
							c-0.928-0.363-1.923-0.567-2.875-0.863c-0.069-0.156,0.247-0.792,0.303-0.972c3.492,1.089,6.705,2.96,10.205,4.025
							c3.653,1.111,7.524,1.443,11.24,2.309c3.584,0.836,6.881,2.296,10.325,3.546c1.646,0.601,3.386,0.928,5.103,1.284
							c0.847,0.174,1.71,0.271,2.572,0.321c0.103,0.116-0.074,1.016-0.085,1.187"/>
					</g>
					<g>
						<path d="M434.423,378.479c-5.008-0.69-9.938-1.841-14.794-3.216c-2.435-0.688-4.82-1.534-7.248-2.237
							c-2.05-0.6-4.756-0.673-6.371-2.172c-1.711-1.594-2.563-4.547-4.974-5.278c-1.243-0.381-2.623-0.053-3.819,0.372
							c-0.895,0.314-1.73,0.794-2.559,1.259c-0.139,0.077-1.18,0.687-1.2,0.655c-0.149-0.24-0.368-0.441-0.521-0.683
							c-0.021-0.028-0.014,0.025-0.029-0.002c2.49-1.566,5.952-3.547,8.95-2.21c2.366,1.059,3.218,3.698,5.113,5.283
							c0.816,0.683,1.892,0.701,2.891,0.98c1.233,0.35,2.465,0.723,3.693,1.08c2.413,0.705,4.85,1.324,7.27,2.002
							c2.436,0.68,4.874,1.314,7.34,1.867c1.169,0.264,2.273,0.833,3.449,1.047c0.582,0.106,1.19,0.051,1.774,0.142
							c0.351,0.056,1.2-0.021,1.145,0.403c-0.036,0.255-0.067,0.339-0.103,0.593"/>
					</g>
					<g>
						<path d="M480.955,384.313c-6.688-5.36-13.884-9.702-21.666-13.271c-3.036-1.393-5.902-3.187-8.889-4.68
							c-1.908-0.954-3.374-2.296-5.401-2.979c-2.254-0.758-5.1-0.374-7.396-1.001c-9.751-2.662-18.811-7.229-28.007-11.337
							c-4.598-2.054-9.015-4.588-13.791-6.185c-4.574-1.527-9.074-3.435-13.707-4.77c-8.455-2.438-17.755-3.574-26.409-5.21
							c-8.352-1.582-16.08-2.651-24.56-3.283c-7.168-0.532-14.889-0.732-21.802,1.443c-3.407,1.075-6.239,2.984-9.118,5.104
							c-1.499,1.104-2.822,2.286-4.112,3.632c-0.683,0.712-1.257,1.459-1.879,2.226c-0.207,0.255-1.344,1.001-1.651,0.762
							c-0.203-0.156,1.071-0.662,0.868-0.819c4.639-5.959,10.125-10.198,17.412-12.134c7.069-1.875,14.429-1.909,21.666-1.304
							c8.24,0.694,16.542,1.601,24.659,3.164c8.618,1.661,17.323,3.176,25.748,5.61c4.652,1.345,9.256,3.021,13.838,4.586
							c4.802,1.637,9.198,4.354,13.824,6.426c4.656,2.087,9.492,3.756,14.207,5.707c4.636,1.918,9.156,4.063,13.996,5.382
							c2.104,0.574,4.577,0.031,6.644,0.736c2.011,0.687,4.11,2.813,6.007,3.759c3.015,1.499,5.739,3.059,8.8,4.465
							c7.801,3.59,14.439,7.754,21.146,13.134c-0.205,0.256,0.205-0.255,0,0"/>
					</g>
					<g>
						<path d="M337.345,314.592c-1.097,0-1.606-0.491-2.189-1.283c0.971-0.714,2.203-1.198,3.413-1.286
							c1.289-0.099,2.136,0.402,2.926,1.362c-1.312,0.568-2.69,1.166-4.149,1.166 M336.345,313.504
							c0.193,0.23,1.173,0.632,3.799-0.402c-1.137-0.752-2.749-0.191-3.83,0.395 M336.113,313.634
							c0.047,0.041,0.079,0.074,0.127,0.117c0.057-0.074,0.102-0.162,0.094-0.253c-0.073,0.041-0.171,0.083-0.244,0.125"/>
					</g>
				</g>
				<g>
					<path d="M449.477,360.964c-0.084-4.823-0.128-9.658-0.423-14.472c-0.291-4.749-1.235-9.445-1.631-14.188
						c-0.405-4.834-0.709-9.684-0.855-14.531c-0.147-4.938,0.12-9.934-0.652-14.819c-0.03-0.182-0.434-1.491-0.384-1.501
						c0.247-0.05,0.266-0.253,0.512-0.302c0.947,4.891,1.492,9.837,1.65,14.803c0.152,4.87,0.178,9.738,0.553,14.597
						c0.368,4.754,1.21,9.472,1.541,14.228c0.332,4.762,0.359,9.55,0.457,14.319c0.014,0.617,0.014,1.29,0.023,1.908
						c-0.265,0.004-0.84-0.036-1.102-0.032"/>
				</g>
				<g>
					<g>
						<path d="M519.65,393.285c-0.021-0.175-0.123-0.684,0.078-0.707c0.465-0.063,0.904-0.279,1.365-0.366
							c1.778-0.341,4.022-0.464,5.28-1.911c0.469-0.541,0.858-1.204,1.071-1.89c0.106-0.354,0.127-0.753,0.113-1.125
							c-0.017-0.34-0.643-0.396-0.918-0.427c-2.263-0.241-4.449-0.481-6.625-1.208c-3.312-1.107-6.74-1.315-10.187-1.792
							c-2.69-0.372-5.37-0.483-8.073-0.133c-1.687,0.223-3.37,0.521-5.002,0.988c-1.055,0.307-2.02,0.875-3.054,1.247
							c-0.23,0.081-1.25,0.428-1.34,0.19c-0.077-0.206,0.002-0.315-0.075-0.522c3.681-1.402,7.859-2.994,11.813-3.202
							c2.813-0.146,5.891,0.558,8.668,0.921c1.974,0.259,3.191,0.646,5.122,1.146c1.534,0.398,3.026,0.925,4.594,1.208
							c1.063,0.189,2.137,0.356,3.212,0.465c0.62,0.06,1.824-0.105,2.345,0.331c0.888,0.75-0.295,2.771-0.751,3.497
							c-1.064,1.691-2.53,2.173-4.382,2.599c-1.062,0.244-2.131,0.432-3.21,0.556"/>
					</g>
					<g>
						<path d="M502.786,415.922c-4.313,0-8.299-1.404-12.598-1.713c-2.335-0.17-5.026,0.347-7.364,0.268
							c-1.373-0.048-2.402-0.485-3.776-0.498c-0.354-0.003-1.077,0.16-1.077-0.273c0-0.259-0.161-0.525-0.161-0.781
							c7.364,0,14.653,0.654,21.99,1.135c3.012,0.196,6.285,0.62,9.244-0.089c1.191-0.285,2.263-0.977,3.376-1.476
							c0.551-0.245,1.191-0.296,1.739-0.545c0.068-0.031,0.284,0.551,0.341,0.672c-1.568,0.711-3.144,1.417-4.805,1.888
							C507.569,415.107,504.981,415.922,502.786,415.922"/>
					</g>
					<g>
						<path d="M509.303,412.258c-0.028-0.263-0.097-0.508-0.127-0.767c3.944-0.442,8.141-0.152,11.938-1.464
							c1.332-0.457,2.632-1.146,3.638-2.141c0.229-0.226,0.386-0.519,0.57-0.784c0.128-0.18,0.543,0.229,0.705,0.324
							c-1.085,1.797-3.293,2.921-5.222,3.482c-3.745,1.094-7.705,0.944-11.544,1.376"/>
					</g>
					<g>
						<path d="M522.32,407.764c-2.302,0-4.649-0.233-6.927-0.524c-2.659-0.335-5.351-0.855-7.933-1.606
							c0.067-0.229,0.043-0.623,0.307-0.55c0.529,0.149,1.083,0.22,1.618,0.334c1.317,0.278,2.672,0.371,4.004,0.566
							c2.501,0.368,5.018,0.666,7.538,0.842c2.967,0.206,5.691-0.813,8.521-1.593c1.594-0.44,3.229-0.731,4.788-1.3
							c0.513-0.187,1.062-0.3,1.501-0.632c0.316-0.237,0.519,0.2,0.771,0.475c-1.521,1.429-4.141,1.479-6.061,1.981
							c-2.634,0.696-5.377,1.908-8.133,1.908"/>
					</g>
					<g>
						<path d="M522.854,404.047c-2.95,0-5.405-1.407-7.989-2.734c-1.401-0.719-2.864-1.322-4.239-2.087
							c-0.716-0.396-1.368-0.909-2.093-1.293c-0.169-0.089-0.594-0.104-0.493-0.313c0.1-0.199,0.229-0.343,0.328-0.542
							c3.448,1.706,6.639,3.923,10.216,5.382c2.389,0.975,4.729,0.647,7.268,0.504c1.923-0.105,3.846-0.209,5.763-0.391
							c1.129-0.107,2.274-0.067,3.401-0.188c0.872-0.095,2.128-0.021,2.125-1.236c-0.006-1.851-1.476-2.849-3.106-3.057
							c-1.909-0.243-3.834-0.344-5.729-0.723c-4.914-0.992-9.153-4.048-13.663-6.133c-2.065-0.956-4.235-1.708-6.367-2.515
							c-0.854-0.318-1.693-0.672-2.569-0.917c-0.336-0.094-0.731-0.028-1.072-0.094c-0.067-0.12,0.164-0.677,0.189-0.823
							c3.054,0.564,5.986,2.042,8.798,3.313c3.325,1.501,6.509,3.271,9.804,4.826c2.011,0.947,4.235,1.362,6.425,1.705
							c1.813,0.279,3.835,0.104,5.597,0.636c1.543,0.467,2.718,2.382,2.567,4.01c-0.177,1.925-2.747,1.525-4.152,1.673
							c-3.65,0.377-7.325,0.836-11.001,0.836"/>
					</g>
				</g>
				<g>
					<path d="M307.096,381.497c-1.434-0.725-2.917-1.598-3.769-2.996c-0.686-1.127-0.916-2.448-1.222-3.713
						c-0.466-1.927-1.383-3.456-2.601-5.01c-1.329-1.697-2.762-3.358-3.882-5.212c-2.249-3.715,0.248-7.356,2.388-10.428
						c1.027-1.471,2.646-3.442,2.3-5.377c-0.14-0.775-0.815-1.304-1.384-1.832c-0.179-0.167-0.885-0.747-0.751-0.939
						c0.125-0.184,0.257-0.154,0.383-0.339c1.384,0.961,2.596,2.181,2.454,3.959c-0.17,2.124-1.652,4.028-2.818,5.708
						c-1.09,1.568-2.406,3.199-2.722,5.127c-0.329,2.003,0.76,3.547,1.95,5.072c1.297,1.671,2.773,3.218,3.947,4.979
						c1.065,1.594,1.415,3.438,1.849,5.279c0.269,1.142,0.567,2.295,1.375,3.175c0.522,0.568,1.272,0.883,1.931,1.28
						c0.207,0.122,0.851,0.433,0.741,0.65c-0.1,0.197-0.114,0.513-0.214,0.708"/>
				</g>
				<g>
					<path d="M281.982,364.74c-2.63-4.204-2.229-10.11,0.012-14.39c0.324,0.171,0.759,0.202,0.574,0.574
						c-0.334,0.668-0.596,1.363-0.823,2.076c-0.48,1.507-0.763,3.072-0.777,4.652c-0.014,1.51,0.147,3.036,0.622,4.474
						c0.21,0.636,0.511,1.238,0.838,1.822c0.169,0.303,0.299,0.354,0.003,0.538c-0.152,0.095-0.368,0.202-0.52,0.297"/>
				</g>
				<g>
					<path d="M392.52,356.574c-20.638-0.701-41.122-4.027-61.775-4.397c-1.044-0.017-2.093,0.58-3.137,0.574
						c-0.22,0-0.622-0.15-0.622-0.414c0-0.222-0.318-0.623-0.318-0.845c20.577,0,40.974,3.467,61.497,4.476
						c1.145,0.056,2.295-0.045,3.438-0.002c0.219,0.007,0.836-0.28,0.828-0.017c-0.008,0.222,0.098,0.186,0.092,0.403"/>
				</g>
				<g>
					<path d="M441.327,375.666c-2.472-2.831-5.299-4.19-9.095-4.456c-3.572-0.252-6.839-1.2-10.32-2.242
						c-4.611-1.378-8.863-3.785-12.98-6.205c-4.121-2.424-8.506-4.422-13.093-5.852c-9.584-2.988-19.485-4.763-29.208-7.2
						c-9.796-2.457-19.218-6.56-29.256-8.023c-4.996-0.729-10.669-0.235-15.571,1.079c-2.202,0.592-3.704,1.41-5.787,2.333
						c-1.174,0.522-2.578,0.56-3.732,1.119c-0.575,0.283-1.202,0.598-1.774,0.882c-0.134-0.063-0.35-0.779-0.42-0.92
						c3.672-1.835,7.697-3.044,11.66-4.164c4.036-1.141,8.185-1.549,12.357-1.224c10.08,0.783,19.617,4.414,29.25,7.166
						c9.681,2.767,19.484,4.893,29.219,7.457c4.729,1.246,9.047,2.89,13.311,5.285c4.266,2.396,8.4,4.703,12.85,6.757
						c2.239,1.033,4.75,1.532,7.21,1.775c1.855,0.187,3.679,0.816,5.542,0.89c1.718,0.063,3.228,0.401,4.814,1.079
						c2.188,0.929,4.141,2.104,5.687,3.878c-0.197,0.171,0.135-0.144-0.063,0.031"/>
				</g>
				<g>
					<path d="M482.649,384.933c-3.91,0-8.067-0.547-11.753-1.841c-2.082-0.729-4.008-1.823-5.983-2.799
						c-2.152-1.067-4.341-1.905-6.561-2.834c-3.703-1.552-7.172-2.588-11.185-2.204c-4.126,0.396-8.099,1.696-11.808,3.485
						c-1.472,0.711-2.993,1.344-4.419,2.14c-0.188,0.104-1.82,1.298-1.842,1.261c-0.16-0.273-0.306-0.66-0.468-0.935
						c7.426-4.321,15.88-8.572,24.704-7.109c2.132,0.354,4.042,1.569,6.028,2.414c2.21,0.94,4.337,2.021,6.489,3.078
						c3.607,1.771,7.46,3.039,11.434,3.729c2.754,0.478,5.55,0.811,8.337,0.612c1.59-0.109,2.715-0.325,4.289-0.58
						c0.812-0.135,2.214-0.632,3.021-0.789c0.134,0.099,0.039,1.12,0.072,1.3c-3.347,0.653-6.939,1.2-10.358,1.2"/>
				</g>
				<g>
					<path d="M473.883,413.558c-1.929-4.085-3.815-8.428-3.855-13.023c-0.039-4.788,1.902-9.295,4.252-13.353
						c0.139,0.082,0.654,0.285,0.718,0.428c-0.398,0.688-0.664,1.438-1.034,2.142c-0.647,1.229-1.447,2.397-1.953,3.692
						c-0.854,2.182-1.305,4.521-1.313,6.877c-0.012,2.334,0.434,4.651,1.186,6.852c0.438,1.278,1.077,2.481,1.62,3.719
						c0.306,0.695,0.62,1.39,0.942,2.073c0.204,0.433-0.229,0.438-0.609,0.618"/>
				</g>
			</g>
			<g>
				<g>
					<path d="M287.13,326.304c-2.693,0-5.704-0.466-8.159-1.576c-2.663-1.204-4.527-3.393-5.725-6.051
						c-1.599-3.553-1.993-7.491-1.967-11.323c0.017-2.324,0.327-4.646,0.334-6.973c0.005-1.918-0.18-3.898-0.779-5.738
						c-0.971-2.98-4.221-6.312-7.551-4.65c-1.267,0.631-3.417,1.762-4.496,0.292c-0.505-0.688-0.826-2.329-1.888-2.354
						c-0.483-0.012-0.424,0.461-0.704,0.021c-0.156-0.246-0.421-0.325-0.577-0.572c2.01-1.281,3.166,0.59,4.104,2.082
						c0.708,1.127,3.031-0.329,3.816-0.6c3.379-1.161,6.716,1.31,8.083,4.227c1.785,3.809,0.968,8.54,0.87,12.604
						c-0.094,3.948-0.005,8.108,1.435,11.854c1.154,3.004,3.229,5.479,6.248,6.604c1.774,0.662,3.745,0.859,5.62,1.065
						c0.434,0.049,0.882-0.135,1.318-0.125c0.05,0,0.2,1.266,0.2,1.399"/>
				</g>
				<g>
					<path d="M254.587,292.02c-0.461-1.107-0.937-2.396-1.632-3.375c-0.441-0.625-1.159-0.998-1.852-1.275
						c-0.141-0.057-1.183-0.395-1.175-0.428c0.065-0.239,0.103-0.508,0.167-0.75c1.397,0.369,3.011,1.009,3.706,2.384
						c0.523,1.03,1.002,2.083,1.47,3.141c-0.241,0.104-0.472,0.195-0.713,0.302"/>
				</g>
				<g>
					<path d="M255.222,294.607c-1.405-0.781-2.023-2.315-2.308-3.824c-0.134-0.713-0.237-1.426-0.33-2.141
						c-0.029-0.221-0.239-0.813-0.04-0.904c0.201-0.094,0.433-0.188,0.634-0.278c0.303,0.664,0.255,1.504,0.343,2.218
						c0.091,0.739,0.234,1.475,0.488,2.178c0.229,0.637,0.548,1.268,1.065,1.713c0.158,0.136,0.575,0.229,0.461,0.438
						c-0.108,0.191-0.202,0.402-0.31,0.599"/>
				</g>
				<g>
					<path d="M233.584,303.602c-0.18-0.006-0.359-0.039-0.538-0.045c-0.447-0.012-0.259-0.457-0.269-0.838
						c-0.026-0.928-0.155-1.843-0.372-2.746c-0.224-0.934-0.484-1.854-0.813-2.756c-0.074-0.205-0.47-0.787-0.225-0.882
						c0.208-0.076,0.413-0.138,0.62-0.214c0.909,2.432,1.705,4.833,1.633,7.459"/>
				</g>
				<g>
					<path d="M255.47,294.852c-0.249-0.039-0.493-0.104-0.741-0.144c-0.04-0.007,0.183-1.584,0.201-1.791
						c0.082-0.926,0.035-1.847-0.024-2.772c-0.04-0.625-0.203-1.433,0.08-2.019c0.269-0.554,0.85-0.978,1.411-1.208
						c0.084,0.204,0.17,0.41,0.255,0.615c0.082,0.197-0.139,0.234-0.303,0.337c-0.678,0.424-0.729,0.829-0.68,1.55
						c0.122,1.835,0.108,3.604-0.174,5.423"/>
				</g>
				<g>
					<path d="M228.887,298.805c-0.283,0-0.569-0.029-0.85-0.07c0.037-0.25,0.076-0.5,0.112-0.748
						c-0.004,0.031,1.568-0.016,1.745-0.043c0.69-0.106,1.369-0.317,1.994-0.629c0.131,0.061,0.274,0.547,0.343,0.688
						c-1.028,0.514-2.195,0.796-3.344,0.796"/>
				</g>
				<g>
					<path d="M221.725,300.712c-0.547-2.095-1.87-3.881-1.975-6.101c0.251-0.014,0.471-0.053,0.722-0.063
						c-0.038,0.003,0.341,1.683,0.406,1.871c0.471,1.392,1.229,2.663,1.601,4.093c-0.254,0.066-0.487,0.131-0.741,0.198"/>
				</g>
				<g>
					<path d="M177,349.058c-1.357-4.099-1.329-8.482-2.043-12.706c-0.049-0.288-0.242-0.666,0.068-0.772
						c0.304-0.105,0.583-0.284,0.887-0.391c0.052-0.02,0.19,0.355,0.213,0.402c0.582,1.164,1.161,2.324,1.742,3.489
						c-0.298,0.148-0.608,0.251-0.905,0.396c-0.285,0.146-0.223-0.145-0.348-0.394c0.312,2.58,0.424,5.17,1.02,7.71
						c0.142,0.604,0.374,1.181,0.56,1.771c0.063,0.195-0.934,0.438-1.138,0.504"/>
				</g>
				<g>
					<path d="M195.321,313.641c-0.121-0.229-0.227-0.402-0.347-0.64c2.167-1.121,4.693-1.487,7.104-1.318
						c-2.524-1.266-5.443-1.691-8.208-1.04c-0.729,0.175-1.446,0.398-2.12,0.731c-0.134,0.066-0.305,0.066-0.432,0.144
						c-0.027,0.019-0.374-0.571-0.421-0.647c2.866-1.768,6.909-1.636,9.959-0.532c0.69,0.247,1.346,0.571,1.99,0.921
						c0.353,0.191,0.687,0.409,1.023,0.623c0.346,0.224,0.317,0.175,0.175,0.504c-0.099,0.23-0.113,0.378-0.351,0.332
						c-0.296-0.057-0.589-0.141-0.887-0.176c-2.515-0.298-5.253-0.113-7.53,1.063"/>
				</g>
				<g>
					<path d="M177.566,362.467c-3.719-4.48-5.33-10.241-6.001-15.918c0.958,1.045,1.933,2.081,2.891,3.127
						c-0.167-1.321-0.248-2.661-0.198-3.992c0.003-0.071,0.898-0.067,1.011-0.073c0.332-0.021,0.55,1.063,0.682,1.397
						c0.449,1.144,0.986,2.256,1.68,3.266c0.083,0.117,0.407,0.39,0.269,0.491c-0.291,0.224-0.567,0.384-0.857,0.604
						c-0.533-0.695-1.041-1.393-1.463-2.155c0.036,0.325,0.465,2.132,0.29,2.229c-0.136,0.072-0.878,0.677-0.968,0.577
						c-0.54-0.59-1.007-1.227-1.547-1.813c0.486,2.248,1.162,4.46,2.113,6.555c0.588,1.295,1.255,2.563,2.068,3.727
						c0.201,0.291,1.044,1.048,0.767,1.275c-0.256,0.212-0.428,0.451-0.685,0.663"/>
				</g>
				<g>
					<path d="M183.674,372.283c-1.315-0.54-2.81-0.479-4.199-0.637c0.042-0.363,0.08-0.755,0.121-1.114
						c0.019-0.162,1.877,0.05,2.161,0.082c-1.696-1.388-3.439-2.742-4.873-4.408c-1.115-1.299-1.749-2.646-2.252-4.253
						c1.104,0.293,2.207,0.453,3.31,0.752c-0.077,0.283-0.222,0.592-0.3,0.872c-0.011,0.041,0.002,0.296-0.038,0.324
						c-0.378-0.104-0.776-0.2-1.16-0.279c1.052,2.023,2.896,3.588,4.629,5.012c0.941,0.771,1.96,1.452,2.873,2.261
						c0.409,0.361,0.392,0.345,0.126,0.759c-0.13,0.206-0.263,0.434-0.393,0.639"/>
				</g>
				<g>
					<path d="M190.021,377.277c-2.062-0.018-4.144-0.937-5.92-1.896c-1.825-0.988-3.6-2.205-5.102-3.643
						c0.253-0.266,0.484-0.562,0.737-0.824c0.102-0.105,1.023,0.81,1.197,0.946c1.161,0.921,2.433,1.703,3.735,2.41
						c1.256,0.683,2.587,1.281,3.985,1.604c0.213,0.051,1.39,0.179,1.389,0.3c-0.002,0.364-0.023,0.691-0.026,1.059"/>
				</g>
				<g>
					<path d="M243.894,381.955c-1.745-0.007-3.297-0.805-4.9-1.412c1.203-0.191,2.422-0.292,3.561-0.741
						c1.892-0.75,2.704-2.69,3.89-4.191c1.436-1.818,3.828-2.82,5.909-3.67c1.271-0.521,2.58-0.942,3.822-1.528
						c0.409-0.194,0.523-0.438,0.753-0.01c0.138,0.259,0.295,0.418,0.434,0.677c-2.689,1.445-5.696,2.198-8.283,3.852
						c-2.354,1.503-3.136,4.503-5.682,5.756c0.509,0.048,0.549,0.052,0.546,0.533c-0.002,0.248-0.059,0.447-0.06,0.692"/>
				</g>
				<g>
					<path d="M211.852,387.599c-1.528-0.29-3.042-0.521-4.556-0.851c-0.979-0.21-1.926-0.623-2.904-0.873
						c-0.486-0.125-0.948-0.256-1.387-0.503c-0.449-0.255-0.506,0.109-1.001,0.212c-2.809,0.586-6.682,0.657-9.222-0.878
						c-0.572-0.344-0.784-1.114-1.038-1.748c-0.289-0.725-0.286-1.821-0.834-2.399c-0.519-0.545-1.541-0.848-2.233-0.933
						c-0.953-0.115-2.007,0.108-2.919-0.22c-0.054-0.083,0.096-1.104,0.168-1.181c0.99-0.058,2.044,0.004,2.983-0.318
						c0.938-0.321,1.683-1.164,2.548-1.646c0.19,0.068,0.586,1.075,0.693,1.269c-0.879,0.487-1.839,0.891-2.787,1.229
						c1.16,0.178,2.667,0.444,3.069,1.694c0.313,0.978-0.039,2.005,0.866,2.694c1.422,1.087,3.471,1.479,5.188,1.481
						c0.95,0.002,1.867-0.434,2.803-0.594c0.357-0.063,0.782,0.184,1.129,0.08c0.37-0.108,0.585-0.485,0.856-0.188
						c0.786,0.865,2.019,1.22,3.057,1.594c0.643,0.23,1.233,0.491,1.926,0.559c0.752,0.071,1.574-0.037,2.326,0.035
						c-0.032-0.301-0.138-0.908-0.17-1.207c2.232-0.097,4.236,0.627,6.427,0.87c-0.484-0.752-0.946-1.445-1.436-2.193
						c3.777-0.048,7.52,0.852,11.286,0.759c4.279-0.104,8.213-1.958,12.513-1.892c-0.006,0.365-0.26,0.563-0.267,0.929
						c-0.001,0.08-2.073,0.013-2.398,0.067c-2.078,0.329-3.988,1.483-6.04,1.931c-2.143,0.463-4.329,0.177-6.51-0.004
						c-2.126-0.179-4.176-0.251-6.311-0.333c0.472,0.767,1.058,1.404,1.562,2.152c-0.863,0.028-1.848-0.063-2.708-0.172
						c-1.599-0.214-3.132-0.582-4.749-0.659c0.043,0.384-0.165,0.679-0.122,1.063"/>
				</g>
				<g>
					<path d="M241.697,353.566c-4.123,0-7.229-2.891-7.897-6.978c-0.367-2.248,0.128-4.985,1.658-6.741
						c0.157,0.139,0.784,0.514,0.632,0.703c-0.241,0.306-0.482,0.602-0.668,0.938c-0.71,1.291-1.079,2.758-0.98,4.229
						c0.255,3.806,3.276,6.733,7.091,6.897c1.746,0.075,3.202-0.324,4.861-0.842c1.716-0.532,3.305-1.287,4.792-2.313
						c2.538-1.746,4.44-4.353,5.273-7.27c0.489-1.72,0.858-3.77,0.152-5.477c-0.362-0.869-1.08-1.557-1.972-1.877
						c-0.151-0.054-1.433-0.264-1.433-0.254c0.01-0.252,0.103-0.493,0.113-0.747c6.17,0.256,4.579,8.078,2.704,11.726
						c-1.16,2.261-3,4.134-5.261,5.334C248.053,352.339,244.789,353.566,241.697,353.566"/>
				</g>
				<g>
					<path d="M237.717,348.699c-1.774-1.911-1.386-4.837,0.527-6.496c2.004-1.739,4.652-1.187,6.154,0.889
						c-0.343,0.249-0.554,0.616-0.847,0.251c-0.426-0.532-0.934-1.025-1.579-1.269c-1.08-0.398-2.256-0.029-3.121,0.688
						c-0.907,0.751-1.547,1.903-1.536,3.094c0.006,0.673,0.236,1.326,0.62,1.879c0.215,0.305,0.483,0.344,0.196,0.607
						c-0.132,0.123-0.3,0.252-0.432,0.374"/>
				</g>
				<g>
					<path d="M247.116,347.798c-1.517,0-2.905-0.979-4.135-1.766c-0.651-0.414-1.313-0.854-2.027-1.158
						c-0.319-0.136-0.028-0.506,0.076-0.802c1.979,0.694,5.167,3.925,7.396,2.241c1.557-1.177,1.361-3.476,1.392-5.206
						c0.016-0.848-0.03-1.689-0.255-2.511c-0.2-0.731-0.594-2.177-1.491-1.18c-0.821,0.913-2.134,0.948-3.117,1.629
						c-0.533,0.37-0.491,0.813-0.063,1.271c-0.028,0.148-0.453,0.426-0.571,0.536c-2.199-2.357,2.21-2.956,3.24-4.067
						c0.577-0.623,1.584-0.732,2.121,0.047c0.449,0.65,0.703,1.496,0.837,2.267c0.262,1.498,0.072,3.233-0.104,4.73
						c-0.216,1.846-1.101,3.976-3.298,3.976"/>
				</g>
				<g>
					<path d="M194.603,318.787c-0.191-0.181-0.413-0.347-0.603-0.527c1.526-1.609,3.913-2.122,6.052-2.215
						c-1.74-0.594-3.65-0.642-5.461-0.41c-0.453,0.062-0.897,0.16-1.342,0.269c-0.183,0.044-0.245-0.598-0.29-0.762
						c1.103-0.295,2.268-0.461,3.405-0.47c1.024-0.01,2.063,0.078,3.06,0.319c0.54,0.131,1.065,0.334,1.575,0.557
						c0.367,0.162,1.141,0.362,0.985,0.813c-0.172,0.496-0.082,0.497-0.56,0.476c-0.649-0.034-1.301-0.032-1.947,0.025
						c-1.742,0.151-3.677,0.608-4.918,1.925"/>
				</g>
				<g>
					<path d="M218.38,326.706c-2.114,0-3.599-1.074-5.148-2.337c-1.631-1.329-3.578-1.139-5.578-1.117
						c-2.101,0.026-4.144-0.274-5.97-1.415c-0.812-0.508-1.558-1.161-2.445-1.539c-0.98-0.418-2.069-0.542-3.041-0.982
						c0.063-0.141,0.194-0.639,0.322-0.7c0.639,0.29,1.358,0.36,2.026,0.575c1.449,0.46,2.583,1.304,3.875,2.054
						c2.773,1.604,5.892,0.616,8.871,1.188c2.426,0.471,3.693,2.957,6.129,3.405c1.272,0.236,2.62,0.099,3.801-0.384
						c0.696-0.283,1.38-0.647,2.016-1.045c0.411-0.258,0.409,0.047,0.645,0.407c-1.623,1.06-3.528,2.037-5.503,2.037"/>
				</g>
				<g>
					<path d="M237.257,332.662c-2.188,0-4.372-0.178-6.558-0.256c-1.697-0.062-3.355,0.035-4.828-0.938
						c-1.224-0.808-1.428-1.871-0.932-3.229c0.292-0.804,0.859-1.313,0.859-1.313c-0.205-0.063-0.369-0.033-0.332-0.271
						c0.034-0.223,0.123-0.317,0.157-0.535c2.632,0.408-1.748,2.814,0.134,4.369c1.855,1.526,4.419,1.222,6.679,1.295
						c2.269,0.068,4.544,0.16,6.813,0.089c0.857-0.026,1.722-0.111,2.569-0.247c0.263-0.041,0.498-0.183,0.746-0.281
						c0.145-0.058,0.351,0.609,0.417,0.754c-0.66,0.307-1.446,0.422-2.159,0.479c-1.184,0.095-2.378,0.158-3.565,0.158"/>
				</g>
				<g>
					<path d="M236.692,339.396c-0.225-0.137-0.437-0.267-0.661-0.4c0.931-1.538,2.462-2.394,3.715-3.617
						c1.193-1.165,1.3-2.559,1.626-4.105c0.217,0.044,0.409,0.056,0.626,0.1c0.233,0.051-0.043,0.931-0.084,1.172
						c-0.142,0.819-0.29,1.646-0.734,2.361c-1.14,1.837-3.37,2.632-4.496,4.492"/>
				</g>
			</g>
			<g>
				<path d="M280.566,369.928c-2.944-2.128-6.123-3.951-9.712-4.371c-2.301-0.27-4.225-0.736-6.474-0.158
					c-1.227,0.313-3.351,0.825-4.48,1.399c-0.317,0.159-0.847,0.68-1.061,0.317c-0.132-0.224-0.318-0.406-0.449-0.628
					c6.937-4.089,16.265-3.048,22.711,1.604c-0.192,0.269-0.375,0.522-0.566,0.79"/>
			</g>
			<g>
				<path d="M254.305,367.063c-1.297-2.782-3.936-4.349-6.761-6.725c-1.219-1.025-5.726-3.166-6.862-4.281
					c-0.59-0.579-1.196-1.135-1.815-1.683c-0.34-0.299,0.083-0.521,0.345-0.82c4.302,3.754,13.428,7.979,15.843,13.162
					c-0.238,0.111-0.494,0.228-0.731,0.337"/>
			</g>
			<g>
				<path d="M256.247,373.156c-0.089-1.021-0.459-2.044-1.265-2.725c-0.547-0.461-1.275-0.717-1.925-0.997
					c0.552-0.107,1.103-0.217,1.646-0.363c-0.57-0.659-1.247-1.206-2-1.649c-0.185-0.105-0.692-0.251-0.59-0.478
					c0.092-0.201,0.161-0.434,0.253-0.637c1.657,0.756,2.838,2.017,3.901,3.449c-0.265-0.004-0.538-0.01-0.803-0.017
					c1.001,0.813,1.473,2.094,1.582,3.35c-0.262,0.022-0.521,0.037-0.784,0.062"/>
			</g>
			<g>
				<path d="M394.111,410.768c-4.006-2.071-7.75-4.628-11.764-6.688c-2.984-1.531-6.854-3.633-10.332-3.036
					c-1.551,0.266-2.779,1.511-3.494,2.902c-0.735,1.429,0.678,1.836,1.844,2.088c1.816,0.396,3.688,0.657,5.539,0.698
					c1.703,0.037,3.664-0.188,5.311,0.354c0.141,0.047,0.292,0.021,0.415,0.099c-0.116,0.188-0.136,0.432-0.254,0.62
					c-0.108,0.177-0.442-0.056-0.636-0.1c-0.986-0.222-2.032-0.166-3.039-0.193c-2.115-0.058-4.252-0.058-6.354-0.341
					c-1.236-0.165-3.354-0.435-3.897-1.778c-0.613-1.507,1.243-3.378,2.346-4.154c2.868-2.027,7.013-0.624,9.876,0.607
					c4.281,1.843,8.201,4.442,12.237,6.747c0.709,0.405,1.418,0.814,2.141,1.198c0.32,0.168,0.595,0.214,0.423,0.542
					c-0.084,0.16-0.227,0.16-0.309,0.318"/>
			</g>
		</g>
	</g>
	<g>
		<g>
			<path d="M191.459,310.155c-0.239-3.826,1.425-7.505,3.749-10.464c-1.706,1.164-3.178,2.817-4.185,4.623
				c-0.098,0.176-0.298,0.037-0.477-0.021c-0.054-0.018-0.308-0.094-0.341-0.146c0.053-0.334,0.165-0.65,0.255-0.979
				c0.292-1.038,0.732-2.025,1.361-2.902c1.637-2.279,4.228-4.125,6.884-5.027c0.146,0.43,0.438,0.729-0.003,0.902
				c-0.619,0.245-1.254,0.471-1.837,0.791c-1.98,1.088-3.846,2.631-4.979,4.617c0.747-0.885,1.645-1.662,2.587-2.337
				c0.495-0.356,0.987-0.729,1.532-1c0.62-0.308,0.657-0.375,1.01,0.175c0.192,0.299,0.092,0.332-0.14,0.584
				c-0.392,0.42-0.749,0.865-1.099,1.321c-1.149,1.491-2.107,3.124-2.746,4.897c-0.382,1.059-0.67,2.144-0.769,3.265
				c-0.048,0.552-0.156,1.096-0.121,1.646c-0.099,0.099-0.639,0.056-0.788,0.063"/>
		</g>
		<g>
			<g>
				<path d="M202.001,296.088c-0.143-0.365,0.044-0.607-0.099-0.974c4.235-1.652,8.479-3.566,13.041-3.919
					c2.261-0.174,4.453,0.49,6.703,0.676c1.833,0.148,3.707-0.23,5.46-0.826c3.272-1.107,5.77-3.648,8.468-5.664
					c1.39-1.035,3.151-2.087,4.932-1.717c1.5,0.313,2.24,1.738,2.717,3.111c0.228,0.658,0.394,1.414,1.124,1.746
					c0.542,0.246,1.628,0.283,2.376,0.063c0.916-0.27,1.579-1.104,2.239-1.799c0.3-0.318,0.464-0.487,0.839-0.229
					c0.24,0.166,0.298,0.328,0.539,0.494c-0.99,1.43-2.521,2.285-4.211,2.563c-1.235,0.203-2.939,0.267-3.506-1.34
					c-0.327-0.926-0.606-1.959-1.296-2.679c-1.063-1.104-2.73-0.78-3.96-0.146c-1.735,0.898-3.289,2.277-4.791,3.505
					c-1.112,0.911-2.246,1.743-3.527,2.405c-1.486,0.767-3.017,1.509-4.681,1.631c-2.001,0.147-3.972-0.432-5.964-0.526
					c-5.625-0.267-10.933,1.677-16.114,3.698"/>
			</g>
			<path d="M178.908,317.149c0.212-0.729,0.489-1.438,0.732-2.158c1.72-5.133,3.446-10.328,7.15-14.421
				c3.21-3.545,7.588-5.896,12.125-7.286c0.064,0.211,0.514,1.213,0.431,1.397c-1.066,0.325-2.234,0.435-3.261,0.868
				c-1.728,0.729-3.19,1.981-4.715,3.077c-2.58,1.854-4.625,4.205-6.222,6.945c-1.454,2.498-2.599,5.124-3.517,7.854
				c-0.567,1.688-1.232,3.347-1.784,5.039c-0.845,2.599-1.806,7.79-2.003,12.618c-0.197,4.826,0.46,6.204,0.033,6.501
				c-0.427,0.295-1.084-0.198-1.215-2.923S176.393,325.768,178.908,317.149z"/>
		</g>
	</g>
</g>
<g>
	<path fill="#ECAF8B" d="M225.558,291.02c-11.061-2.354-34.123-6.588-41.418-7.529c-7.296-0.94-12.472,0.941-13.414,2.822
		c-0.942,1.883,0,4.707,0,6.826c0,2.117-5.413,0.469-5.178,6.588c0.235,6.119,0.47,6.826-1.647,8.942
		c-2.118,2.118,0.472,4.001-0.235,5.413c-0.706,1.412-4.235,2.824-2.354,8.942c1.883,6.117,4.942,8.709,6.119,9.179
		c1.177,0.469,8.279,2.901,8.279,2.901l0.985-9.355c0,0,0.492-0.297,1.797-0.607c8.906-2.114,9.883-6.822,10.119-8
		c0.235-1.177,0.235-2.823,0.235-2.823s4.708,2.823,14.59,0.707c9.884-2.119,8.943-4.706,8.943-6.118
		c0-1.413,0.236-2.589,0.236-2.589s1.882,0.234,7.765-0.941c5.882-1.176,7.531-4.234,7.295-4.941
		c-0.235-0.707-1.646-2.824-1.646-2.824s4.47-1.41,2.588-4.707C226.735,289.607,225.558,291.02,225.558,291.02z"/>
	<path fill="#F3D6C3" d="M189.081,314.787c-16.523,1.104,3.417,9.55,0.471,0.707"/>
	<path fill="#F3D6C3" d="M212.379,306.082c-1.195,0.046-13.938-1.77-8.947,3.765c2.831,3.141,9.151,0.776,9.183-3.06"/>
	<path fill="#F3D6C3" d="M226.969,298.55c-2.916-0.153-10.261-3.252-10.565,1.194c2.423,1.843,15.354,5.933,9.859-0.958"/>
	<path fill="#F3D6C3" d="M227.44,291.491c-2.715-0.541-5.662-0.597-7.724,1.457c-0.064,0.138-0.083,0.28-0.06,0.431
		c2.465,2.193,8.843,5.84,9.195-0.24"/>
	<g>
		<g>
			<path d="M177.29,283.072c17.478,1.593,34.718,5.226,51.847,8.929c0.075-0.347,0.352-0.301,0.426-0.646
				c0.049-0.232-2.307-0.119-2.612-0.186c-2.318-0.501-4.514-1.559-6.833-2.048c-4.538-0.961-9.163-1.479-13.719-2.345
				c-9.63-1.828-19.283-3.27-29.049-4.156c-0.037,0.393-0.047,0.313-0.083,0.707"/>
		</g>
	</g>
	<g>
		<g>
			<path d="M191.298,294.213c-2.168,0.204-4.31,0.446-6.49,0.469c-1.052,0.01-2.101,0.236-3.15,0.164
				c-0.809-0.057-1.99-0.367-1.811,0.853c8.043,0.937,16.033-1.095,24.098-0.132c8.457,1.013,14.537,2.408,23.071,2.668
				c0.396-1.262-0.088-0.45-0.904-0.508c-1.799-0.125-2.431-0.349-4.221-0.569c-3.602-0.446-7.191-0.985-10.777-1.527
				c-6.699-1.013-13.057-2.124-19.821-1.485"/>
		</g>
	</g>
	<g>
		<g>
			<path d="M224.631,297.729c0.99,0.926,2.596,2.408,1.993,3.938c-0.514,1.298-2.086,1.976-3.3,2.368
				c-1.886,0.609-3.889,0.803-5.857,0.98c-1.08,0.096-3.937-0.328-3.466,1.31c4.969,0,19.455-2.062,11.482-9.511
				c-0.203,0.217-0.692,0.613-0.83,0.873"/>
		</g>
	</g>
	<g>
		<g>
			<path d="M181.617,304.459c-2.004,0.637-3.971,1.424-6.034,1.843c-0.993,0.2-4.29-0.117-3.902,1.206
				c3.514-0.067,6.939-0.979,10.258-2.035c1.493-0.476,2.944-1.086,4.464-1.47c0.888-0.226,3.507-0.127,2.949-1.426
				c-2.63,0.366-5.229,1.026-7.751,1.827"/>
		</g>
	</g>
	<g>
		<g>
			<path d="M183.05,304.271c9.706,0.959,19.404,1.803,29.169,1.803c0.364-1.365-1.648-0.732-2.504-0.749
				c-1.966-0.041-3.918-0.209-5.882-0.33c-3.595-0.218-7.218-0.089-10.803-0.442c-3.305-0.33-6.593-0.844-9.897-1.17
				c-0.022,0.238-0.316,0.594-0.265,0.824"/>
		</g>
	</g>
	<g>
		<g>
			<path d="M211.782,305.797c1.201,5.875-4.699,7.81-9.433,8.4c-2.513,0.313-5.045,0.754-7.569,0.604
				c-1.052-0.063-2.075-0.501-3.121-0.63c-0.884-0.105-1.649-0.494-1.492,0.761c6.882,1.073,24.591,2.154,22.259-9.261
				c-0.29,0.058-0.673,0.043-0.935,0.177"/>
		</g>
	</g>
	<g>
		<g>
			<path d="M177.745,315.896c-4.396,0.658-8.705,1.581-12.982,2.82c0.025,1.449,3.148-0.006,4.113-0.212
				c2.176-0.464,4.353-0.89,6.552-1.229c4.511-0.699,9.033-1.397,13.472-2.491c0.036-1.454-3.039,0.125-3.989,0.305
				c-2.358,0.445-4.742,0.789-7.114,1.146"/>
		</g>
	</g>
	<g>
		<g>
			<path d="M188.073,314.244c4.175,9.863-14.273,10.809-19.585,13.052c0.133,1.118,0.636,0.771,1.435,0.513
				c1.409-0.457,2.832-0.918,4.271-1.268c2.469-0.602,5.043-0.859,7.443-1.704c4.804-1.692,9.766-5.105,7.294-10.948
				c-0.274,0.117-0.517,0.132-0.749,0.314"/>
		</g>
	</g>
	<g>
		<g>
			<path d="M228.081,291.251c0.34,1.276,0.42,2.804-0.31,3.985c-0.579,0.938-2.619,1.132-2.041,2.228
				c3.149-0.649,3.763-3.606,3.018-6.388c-0.236,0.063-0.535,0.07-0.745,0.191"/>
		</g>
	</g>
	<g>
		<g>
			<path d="M216.468,298.07c-3.682,3.408,5.023,5.305,6.991,5.244c0.321-1.23-1.579-0.818-2.425-0.987
				c-1.324-0.263-3.643-0.712-4.337-2.063c-1.482-2.888,5.151-2.019,6.431-1.947c0.336-1.084-0.707-0.853-1.447-0.895
				c-1.61-0.089-3.855-0.531-5.174,0.689"/>
		</g>
	</g>
	<g>
		<g>
			<path d="M220.622,291.443c-1.262,1.113-0.769,3.016,0.571,3.752c0.914,0.5,1.967,0.712,2.952,1.022
				c0.698,0.224,1.286,0.712,1.534-0.286c-1.229-0.724-6.067-1.099-4.864-3.555c0.891-1.816,4.563,0.129,4.584-1.415
				c-1.439-0.435-3.562-0.604-4.781,0.474"/>
		</g>
	</g>
	<g>
		<g>
			<path d="M202.765,307.91c-1.095,2.439,2.086,3.121,3.709,3.146c0.824,0.013,4.654,0.403,4.223-1.016
				c-1.995,0.099-4.523,0.733-6.421-0.015c-1.433-0.565-0.733-2.082,0.275-2.66c0.803-0.459,2.826-0.455,2.35-1.635
				c-1.433,0.146-3.494,0.74-4.137,2.176"/>
		</g>
	</g>
	<g>
		<g>
			<path d="M181.646,317.643c-0.704,2.807,5.672,1.598,6.678,1.271c-0.063-1.318-1.521-0.396-2.378-0.296
				c-1.019,0.12-2.337,0.239-3.263-0.304c-0.737-0.436,0.063-0.932,0.526-1.191c0.798-0.452,2.863-0.592,2.18-1.772
				c-1.155,0.309-3.498,0.885-3.847,2.267"/>
		</g>
	</g>
	<g>
		<g>
			<path d="M169.701,287.721c-0.439,1.854,1.577,6.075-0.381,7.286c-0.877,0.543-1.72,0.697-2.495,1.452
				c-0.937,0.909-1.48,1.938-1.606,3.193c-0.174,1.718,0.496,3.014,0.148,4.711c-0.241,1.177-1.835,2.233-2.533,3.164
				c-1.171,1.563-0.857,3.308-0.484,5.072c0.548,2.604-2.842,3.39-3.348,5.775c-0.45,2.117,0.75,4.34,1.629,6.272
				c1.821,3.995,6.411,9.176,14.192,12.132c1.324,0.502-0.554-1.597-1.773-2.268c-1.311-0.723-6.326-3.523-7.385-4.58
				c-2.169-2.157-4.336-4.774-5.098-7.772c-0.311-1.229-0.275-2.796,0.255-3.994c0.622-1.404,1.938-2.2,2.667-3.54
				c0.992-1.816-0.847-3.354-0.419-5.127c0.317-1.32,2.641-1.956,3.145-3.233c0.976-2.467-0.178-5.312,0.639-7.814
				c0.555-1.702,1.512-1.603,2.894-2.339c1.669-0.891,1.9-3.121,1.641-4.744c-0.462-2.915-0.846-5.764,2.02-7.396
				c1.234-0.705,2.721-0.787,4.124-0.896c1.562-0.124,1.882,0.55,1.912-1.061c-4.39-0.078-8.855,0.842-9.999,5.647"/>
		</g>
	</g>
	<g>
		<g>
			<path d="M194.957,299.172c1.215,0.526,0.945-1.252,1.211-2.068c0.287-0.879,1.887-2.565,0.604-2.957
				c-0.978,1.527-1.563,3.254-1.813,5.045"/>
		</g>
	</g>
	<g>
		<g>
			<path d="M210.089,300.464c0.19,0.149,0.513,0.203,0.739,0.296c0.435-1.04,0.74-2.141,0.845-3.262
				c-1.263-0.479-1.15,2.082-1.527,2.98"/>
		</g>
	</g>
	<g>
		<g>
			<path d="M201.551,287.475c-0.472,0.84-1.006,1.731-0.914,2.733c1.037,0.207,1.406-2.103,1.895-3.003
				c-0.476-0.447-0.842-0.391-0.996,0.26"/>
		</g>
	</g>
	<g>
		<g>
			<path d="M213.482,291.563c0.878,0.979,2.462-1.369,1.214-1.797c-0.402,0.602-0.813,1.18-1.214,1.78"/>
		</g>
	</g>
	<g>
		<g>
			<path d="M183.307,309.696c1.227,0.271,0.797-1.188,1.002-2.017c0.201-0.808,1.177-1.822,0.024-2.191
				c-0.809,1.2-1.145,2.788-1.06,4.22"/>
		</g>
	</g>
	<g>
		<g>
			<path d="M194.758,309.334c1.122,0.833,2.376-2.653,0.981-2.722c-0.33,0.921-0.668,1.818-0.997,2.741"/>
		</g>
	</g>
	<g>
		<g>
			<path d="M168.338,322.652c1.084,0.373,0.805-0.604,0.918-1.372c0.12-0.818,0.981-2.218-0.308-2.226
				c-0.341,1.178-0.537,2.386-0.611,3.605"/>
		</g>
	</g>
</g>
<g id="HeadBlow">
	<path fill="#ECAF8B" d="M291.173,205.615c0.788,9.846,0,22.053-7.089,32.293s-9.846,7.482-14.178,13.391
		c-4.332,5.906-6.694,5.906-9.057,8.271c-2.363,2.361-3.545,4.725-3.545,4.725s-6.695,1.971-12.602,2.361
		c-5.908,0.396-11.027-3.938-11.027-3.938s-2.757-6.301-11.815-12.602c-9.058-6.302-16.54-14.179-19.691-32.294
		c-3.15-18.116-3.15-18.116-3.15-18.116s-6.301-7.483-6.301-11.421s3.938-7.876,8.271-7.876c4.333,0,97.275,2.363,97.275,2.363
		s4.726,0.787,0.788,9.451C295.111,200.888,291.173,205.615,291.173,205.615z"/>
	<path fill="#5D4530" d="M252.971,128.818c7.483-6.695,13.391-11.42,24.418-7.877c11.027,3.545,28.355,14.966,38.989,14.966
		c10.633,0,22.842-7.089,22.842-7.089s0.788,1.575,0,3.544c-0.788,1.969-0.788,1.969-0.788,1.969s6.301-5.12,14.965-6.302
		c8.666-1.181,11.419,4.333,11.419,4.333s-6.299,0-9.844,4.332c-3.544,4.332-6.695,5.908-6.695,5.908s3.938-0.788,6.695,3.544
		c2.757,4.332,2.757,14.966,2.757,14.966s-3.15-12.209-17.722-14.178c-14.572-1.97-17.329,2.362-17.329,2.362
		s-1.969,6.302-7.483,10.239c-5.513,3.938-11.027,5.908-21.66,6.302C282.903,166.232,252.971,128.818,252.971,128.818z"/>
	<path fill="#4F3B28" d="M286.053,139.845c-8.489-7.64-20.479-17.329-42.533-16.934c-22.055,0.393-42.928,13.783-46.079,29.143
		c-3.15,15.359-1.575,23.63-1.575,23.63s-0.393,12.996,1.575,19.691c1.97,6.696,9.453,11.422,9.453,11.422l1.969,3.938l4.332-8.271
		c0,0,0,12.603,11.815,22.055c11.815,9.452,20.479,10.239,20.479,10.239s-7.877-6.695-6.301-16.147c0,0,5.907,5.12,13.39,6.301
		c7.482,1.181,10.24,1.181,10.24,1.181l-6.301-16.934c0,0,7.088,3.544,10.239,3.544c3.151,0,6.302-2.363,5.514-3.938
		c-0.787-1.576-0.787-1.576-0.787-1.576s6.301,3.151,10.239,3.151s6.302-3.151,6.302-3.151l3.15,0.788c0,0,1.576-8.664,3.151-14.966
		c1.575-6.301,5.12-8.664,5.12-8.664S305.745,157.567,286.053,139.845z"/>
	<path fill="#976E50" d="M274.632,233.576c0-1.576-1.969-3.938-11.42,0.395c-9.452,4.332-11.421,5.906-11.421,5.906
		s6.301-1.969,13.784-3.938C273.058,233.971,274.632,233.576,274.632,233.576z"/>
	<path fill="#976E50" d="M229.736,238.695c0,0-4.332-3.15-11.027-5.119s-8.665-3.15-8.665-3.15s0.394,6.695,8.665,7.877
		C226.979,239.482,229.736,238.695,229.736,238.695z"/>
	<path fill="#4F3B28" d="M293.986,154.047c7.608,4.45,10.12-0.374,17.228-1.915c-0.19,2.493-1.768,4.903-3.899,6.424
		c4.459-0.466,9.265-3.415,12.732-5.905c-0.715,7.768-14.296,13.015-20.949,13.149c-0.861-2.862-0.754-5.809-1.74-8.666"/>
	<path fill="#5D4530" d="M195.435,164.435c-0.538,9.28,4.321,19.332,11.494,25.127c0.723-2.212,0.626-4.865,0.564-7.431
		c6.813,10.936,13.527,21.837,25.458,27.719c-3.017-6.409-4.721-12.382-6.102-18.905c0.792,1.999,5.081,5.618,6.215,7.091
		c2.009-3.755,2.135-3.489,3.984-7.318c15.568,13.249,30.416-3.046,38.121-16.295c4.941,3.985,10.75,3.078,10.954,10.028
		c2.229-3.181,5.19-5.62,8.423-7.725c2.008,2.867,5.111,4.219,6.985,0.888c0.441,2.38-0.132,4.404-1.887,5.811
		c-0.031-4.623,1.34-8.921,1.082-13.375c-0.393-6.756-2.948-14.599-7.425-21.976c-8.495-13.991-27.964-22.962-43.385-25.986
		c-13.708-2.688-33.997,5.398-44.049,14.843c-6.785,6.375-8.408,17.867-9.947,26.688c-0.095,0.455-0.162,0.914-0.205,1.376"/>
	<g>
		<g>
			<path d="M251.535,253.65c4.345,2.801-5.561,10.742-8.334,11.285c-3.134,0.613-5.896-1.646-7.322-4.17
				c-0.855-1.521-1.314-3.244-1.485-4.98c-0.103-1.037,0.451-2.863-1.091-2.662c-0.855,5.615,4.102,15.395,11.081,12.52
				c3.073-1.266,12.964-9.229,7.604-12.678c-0.16,0.248-0.279,0.324-0.366,0.607"/>
		</g>
	</g>
	<g>
		<g>
			<path d="M290.044,214.443c0,5.602-1.23,11.263-3.274,16.512c-1.985,5.1-5.527,8.363-9.515,11.994
				c-1.887,1.713-8.828,9.07-10.246,11.273c-1.441,2.238-3.418,3.711-5.689,5.014c-2.263,1.301-3.55,3.215-4.868,5.432
				c0.199,0.121,0.694,0.539,0.816,0.34c0.708-1.162,1.52-2.316,2.338-3.408c0.756-1.008,3.866-2.557,5.967-4.395
				c2.725-2.385,3.829-4.734,5.733-6.746c1.868-1.973,4.22-3.471,6.241-5.285c4.205-3.768,7.929-7.547,10.168-12.828
				c2.381-5.615,3.08-11.846,3.08-17.903C290.402,214.443,290.438,214.443,290.044,214.443"/>
		</g>
	</g>
	<g>
		<g>
			<path d="M199.544,206.547c0.958,4.101,1.562,8.29,2.549,12.383c1.474,6.114,3.02,12.813,6.403,18.202
				c3.708,5.912,9.334,11.464,15.024,15.496c2.465,1.75,5.317,3.24,7.403,5.476c0.562,0.603,0.854,1.377,1.179,2.131
				c0.444,1.037,0.057,0.918,1.123,0.537c-1.75-4.899-6.167-7.183-10.04-10.147c-2.813-2.153-5.713-4.224-8.041-6.892
				c-2.207-2.528-4.654-5.174-6.289-8.127c-4.871-8.793-6.522-19.501-8.788-29.197c-0.38,0.101-0.354-0.089-0.736,0.012"/>
		</g>
	</g>
	<g>
		<g>
			<path d="M233.103,262.336c0.864,1.449,1.667,2.814,3.147,3.727c2.703,1.666,6.173,1.506,9.17,1.229
				c3.313-0.313,6.63-0.705,9.883-1.399c0.878-0.187,1.746-0.437,2.625-0.625c0.939-0.197,0.628-0.479,0.461-1.392
				c-4.606,0.979-9.159,2.147-13.861,2.545c-2.463,0.211-5.449,0.226-7.681-1.098c-1.364-0.81-2.212-2.078-2.997-3.394
				c-0.336,0.207-0.616,0.129-0.952,0.334"/>
		</g>
	</g>
	<g>
		<g>
			<path d="M268.267,238.266c-1.951,2.541-4.083,4.166-7.306,4.762c-1.459,0.271-2.921,0.447-4.392,0.266
				c-1.252-0.154-2.837-0.818-4.074-0.465c-0.019,1.188,2.948,1.305,3.981,1.432c2.328,0.291,4.81,0.02,7.02-0.795
				c1.877-0.688,3.528-1.914,4.803-3.438c0.573-0.688,1.073-1.434,1.664-2.104c0.523-0.598,1.475-0.98,0.824-1.854
				c-1.044,0.381-1.838,1.383-2.484,2.225"/>
		</g>
	</g>
	<g>
		<g>
			<path d="M213.12,236.363c0.763,0.254,1.304,2.193,1.852,2.795c1.354,1.49,3.273,2.699,5.218,3.27
				c1.026,0.301,8.077,0.168,6.876-1.586c-2.355,0.814-4.679,1.629-7.147,0.709c-1.663-0.621-3.191-1.869-4.349-3.207
				c-0.682-0.785-1.21-2.246-2.241-2.59c-0.078,0.234-0.257,0.502-0.272,0.744"/>
		</g>
	</g>
	<g>
		<g>
			<path d="M256.385,238.564c-2.392,0.898-4.591,1.221-6.868,2.396c0.231,1.479,3.292-0.351,4.067-0.668
				c2.818-1.16,5.619-2.324,8.535-3.209c2.648-0.804,5.287-1.668,7.965-2.371c0.903-0.233,4.655-0.25,4.1-1.498
				c-2.549,0.315-4.701,0.854-7.166,1.543C263.716,235.676,259.597,237.363,256.385,238.564"/>
		</g>
	</g>
	<g>
		<g>
			<path d="M257.338,236.385c-1.328,0.709-2.586,1.539-3.944,2.188c-0.771,0.366-2.855,0.522-2.073,1.616
				c4.43-1.573,8.314-4.295,12.609-6.187c2.127-0.937,4.46-1.666,6.795-1.842c1.013-0.074,1.987,0.287,2.969,0.562
				c0.705,0.194,1.436,0.383,1.608-0.66c-5.726-2.726-13.015,1.761-17.933,4.386"/>
		</g>
	</g>
	<g>
		<g>
			<path d="M207.945,230.246c8.304,2.682,15.504,7.979,24.314,9.256c0.33-0.754,0.034-0.504-0.665-0.627
				c-1.276-0.223-2.542-0.572-3.778-0.951c-2.311-0.709-4.43-1.93-6.634-2.914c-4.276-1.912-8.537-4.012-13.007-5.455
				c-0.075,0.23-0.295,0.605-0.305,0.846"/>
		</g>
	</g>
	<g>
		<g>
			<path d="M211.163,233.875c4.384,4.498,12.659,5.57,18.624,5.578c0.374-1.295-2.61-1.15-3.524-1.24
				c-2.335-0.227-4.689-0.48-6.956-1.094c-2.254-0.607-4.611-1.398-6.497-2.805c-0.939-0.703-1.801-1.633-2.316-2.695
				c-0.42-0.865-0.048-2.963-1.278-2.646c-0.045,1.824,0.848,3.449,2.109,4.742"/>
		</g>
	</g>
	<g>
		<g>
			<path d="M232.5,240.039c-0.329,1.168,0.992,0.762,1.752,1.111c1.118,0.514,1.778,1.613,2.224,2.725
				c0.48,1.201,0.678,2.486,0.666,3.775c-0.008,0.797-0.505,2.057,0.71,1.932c0.686-3.738-0.593-9.547-5.351-9.518"/>
		</g>
	</g>
	<g>
		<g>
			<path d="M297.249,183.41c-0.946,0.212-1.892,1.016-2.369,1.859c1.257,0.712,0.771,0.125,1.965-0.53
				c1.179-0.648,2.73,0.179,3.031,1.53c0.401,1.803-0.759,4.431-1.399,6.147c-1.07,2.878-2.736,5.509-4.418,8.076
				c-0.847,1.289-1.43,2.798-2.467,3.94c-0.893,0.98-0.96,0.855-0.084,1.758c3.561-3.455,6.16-8.287,7.95-12.876
				c0.642-1.643,1.035-3.524,1.436-5.243c0.572-2.441-0.767-5.366-3.657-4.72"/>
		</g>
	</g>
	<g>
		<g>
			<path d="M214.31,205.392c0.315,16.768,17.986,26.487,32.552,29.063c0.758-1.555-2.374-1.234-3.438-1.502
				c-2.201-0.547-4.289-1.504-6.401-2.33c-4.004-1.561-7.75-3.701-11.151-6.335c-3.211-2.489-5.92-5.507-7.851-9.1
				c-0.988-1.839-1.728-3.731-2.163-5.774c-0.204-0.953-0.551-1.87-0.622-2.842c-0.064-0.864-0.122-1.53-1.244-1.186"/>
		</g>
	</g>
	<g>
		<g>
			<path d="M238.597,219.202c6.73,3.755,17.12,7.958,24.96,7.434c-0.598-2.058-2.796-7.524-4.302-9.096
				c-0.73,0.384-0.6,0.532-0.179,1.071c0.849,1.085,2.829,6.146,3.277,7.446c-4.08,0.148-8.109-1.002-11.906-2.458
				c-1.837-0.706-7.101-2.893-8.848-3.796c-0.922-0.478-2.67-2.184-3.064-0.533"/>
		</g>
	</g>
	<g>
		<g>
			<path d="M269.865,206.778c0.505,1.373,0.987,3.902-0.504,4.961c-0.991,0.704-2.484,0.813-3.629,0.694
				c-2.04-0.213-3.935-1.268-5.859-1.952c-1.257-0.446-2.492-0.906-3.712-1.44c-0.769-0.335-1.082-0.29-1.229,0.663
				c3.949,1.783,18.864,7.768,16.046-2.122c5.157,1.95,10.278,3.889,15.846,2.755c0.118-1.694-2.349-0.756-3.447-0.718
				c-1.943,0.067-3.813-0.61-5.694-1.089c-2.878-0.734-5.661-1.792-8.436-2.842c0.124,0.337,0.191,0.862,0.316,1.199"/>
		</g>
	</g>
	<g>
		<g>
			<path d="M292.315,199.473c-0.949,2.28-1.722,4.797-1.255,7.312c-2.646-0.415-5.237-1.397-7.652-2.552
				c-1.353-0.646-2.756-1.212-4.04-1.988c-0.938-0.566-0.669-0.383-1.172,0.429c4.529,2.803,9.155,4.962,14.479,5.577
				c-1.095-3.091-0.116-5.754,1.093-8.659c-0.363-0.151-0.801-0.216-1.165-0.366c-0.056,0.135-0.076,0.178-0.133,0.313"/>
		</g>
	</g>
	<g>
		<g>
			<path d="M223.089,125.757c-17.977,6.766-32.211,26.641-28.803,46.244c0.423-0.075,2.604-0.226,2.523-0.716
				c-0.091-0.571-0.375-1.068-0.425-1.643c-0.127-1.443-0.689-2.843-0.627-4.287c0.144-3.38,0.78-6.716,1.697-9.97
				c2.264-8.03,7.177-14.809,13.537-20.246c17.563-15.021,43.052-14.674,62.263-3.76c2.549,1.448,5.659,3.895,7.963,5.708
				c1.097,0.863,2.043,1.218,3.064,2.167c1.093,1.014,1.035,1.984,2.088,0.931C270.358,124.173,244.305,117.772,223.089,125.757"/>
		</g>
	</g>
	<g>
		<g>
			<path d="M209.166,211.11c0.222,0.545,0.262,1.149,0.483,1.693c0.223-1.396,0.434-2.775,0.881-4.124
				c0.349-1.052,0.776-2.096,1.369-3.036c0.464-0.739,1.047-1.279-0.045-1.78c-1.278,1.486-2.096,3.663-2.609,5.536
				c-1.115-2.969-2.089-6.229-2.089-9.428c0-1.413,0.282-2.847,0.718-4.193c0.31-0.958,1.663-1.99,0.181-2.329
				c-3.08,5.621-1.315,12.186,0.936,17.73"/>
		</g>
	</g>
	<g>
		<g>
			<path d="M199.344,200.19c1.75,3.233,4.215,6.226,7.851,7.151c0.811-1.385-1.503-1.81-2.449-2.373
				c-1.645-0.978-2.946-2.347-3.985-3.941c-2.062-3.166-2.885-6.926-3.424-10.63c-0.547-3.765-0.545-7.534-0.177-11.318
				c0.162-1.657-0.276-3.416,0.086-5.041c0.227-1.015,1.766-2.847,0.163-2.929c-3.013,8.828-2.816,20.941,1.671,29.224"/>
		</g>
	</g>
	<g>
		<g>
			<path d="M195.283,194.91c0.644,1.275,1.126,2.635,1.588,3.991c0.411,1.207,0.19,1.063,1.415,0.847
				c-0.658-3.699-3.126-6.797-4.229-10.366c-0.434-1.408-0.733-3.012-0.062-4.389c0.344-0.704,0.952-1.23,1.593-1.667
				c0.019-0.214-0.486-0.688-0.616-0.877c-4.579,3.123-1.767,8.749,0.147,12.545"/>
		</g>
	</g>
	<g>
		<g>
			<path d="M238.954,227.096c0.979,3.457,3.668,6.094,6.268,8.428c0.556-0.623,1.082-0.768,0.386-1.4
				c-0.977-0.891-2.023-1.725-2.878-2.734c-0.857-1.02-1.63-2.139-2.164-3.361c-0.553-1.27-0.304-1.316-1.592-0.951"/>
		</g>
	</g>
	<g>
		<g>
			<path d="M259.186,123.045c0.202,0.29,0.021,0.356,0.222,0.646c0.094,0.133,2.007-1.104,2.321-1.255
				c1.811-0.867,3.723-2.032,5.717-2.22c4.281-0.402,8.597,1.44,12.645,2.77c7.321,2.403,13.402,6.167,20.402,9.246
				c12.109,5.327,32.061,8.28,40.83-4.2c-0.288-0.203-1.313-0.25-1.601-0.454c-0.153-0.107-1.426,0.443-1.642,0.682
				c-1.158,1.279-2.153,2.575-3.627,3.469c-3.03,1.836-6.443,2.272-9.946,2.663c-7.164,0.798-13.117,0.41-19.812-2.16
				c-6.707-2.576-14.352-6.33-21.059-8.957c-7.787-3.051-17.54-6.102-24.965-0.955"/>
		</g>
	</g>
	<g>
		<g>
			<path d="M340.02,133.006c0.495-0.924,0.711-2.051,1.073-3.037c-0.332-0.122-0.506-0.287-0.838-0.408
				c-0.177-0.065-0.853,1.881-0.993,2.162c-0.809,1.625-2.148,2.894-3.142,4.383c0.926,0.81,0.753,0.784,1.641-0.118
				c1.259-1.278,2.863-2.195,4.366-3.167c3.058-1.98,6.503-3.501,10.099-4.177c3.256-0.613,6.4-0.155,9.074,1.913
				c1.57,1.215,3.328,2.16,4.856,3.43c0.229-0.308,0.906-0.758,0.556-1.05c-0.66-0.548-1.629-0.728-2.291-1.277
				c-1.765-1.466-3.25-3.217-5.484-3.943c-6.42-2.086-13.834,1.512-18.924,5.271"/>
		</g>
	</g>
	<g>
		<g>
			<path d="M353.33,137.212c-1.645,1.492-3.53,2.693-5.418,3.875c-1.053,0.66-2.113,1.299-3.269,1.755
				c-0.06,0.218,0.393,0.996,0.482,1.221c4.84-1.908,8.099-5.677,12.16-8.696c1.694-1.26,3.443-2.493,5.54-2.847
				c1.26-0.213,2.584-0.255,3.854-0.145c1.469,0.127,1.397,0.654,1.616-0.725c-6.258-0.988-10.667,1.293-15.15,5.361"/>
		</g>
	</g>
	<g>
		<g>
			<path d="M332.267,139.057c0.005,0.214-0.09,0.657,0.045,0.797c0.975-0.024,1.927,0.155,2.901,0.166
				c1.823,0.021,3.615,0.401,5.424,0.618c3.173,0.38,6.518,0.654,9.33,2.217c2.74,1.524,4.692,4.103,6.251,6.817
				c0.917,1.594,1.698,3.246,2.234,5.003c0.305,1.005,0.491,2.051,0.703,3.08c0.168,0.1,1.3-0.273,1.508-0.316
				c-1.34-6.513-4.885-12.423-10.987-15.548c-5.342-2.734-11.532-2.954-17.412-2.808"/>
		</g>
	</g>
	<g>
		<g>
			<path d="M321.483,149.514c-1.17,0.826-2.336,1.675-3.561,2.42c-1.288,0.786-1.53,0.506-0.848,1.751
				c4.014-2.199,7.408-5.941,11.888-7.212c4.11-1.166,8.8-0.173,12.882,0.812c3.991,0.963,7.954,2.558,11.172,5.174
				c1.366,1.111,2.887,2.203,3.671,3.79c0.419,0.845,0.462,1.849,0.607,2.779c0.116,0.75,0.366,0.423,1.055,0.353
				c-0.761-7.403-8.502-10.908-14.843-12.656c-3.471-0.958-7.094-1.865-10.706-1.772c-4.404,0.113-8.087,1.702-11.59,4.176"/>
		</g>
	</g>
	<g>
		<g>
			<path d="M293.052,151.217c2.809,5.701,5.567,11.604,6.831,17.875c0.577,2.855,0.505,5.798,0.33,8.709
				c-0.094,1.541-0.287,3.054-0.595,4.566c-0.303,1.5-0.532,1.52,0.865,1.869c2.983-11.932-1.407-22.831-6.621-33.415
				c-0.353,0.174-0.646,0.313-0.999,0.488"/>
		</g>
	</g>
	<g>
		<g>
			<path d="M303.078,163.344c0.038,0.393,0.072,0.765,0.111,1.157c11.487-1.106,19.973-9.007,20.237-20.803
				c-1.241-0.028-1.145-0.138-1.232,1.173c-0.099,1.506-0.233,3.034-0.621,4.494c-0.662,2.492-1.839,4.886-3.473,6.888
				c-3.662,4.491-9.405,6.422-15.036,6.963"/>
		</g>
	</g>
	<rect id="HeadBlowTarget" x="210.881" y="148.172" fill="none" width="25.696" height="26.688"/>
</g>
<rect id="HeadBlowTargetFixed" x="210.881" y="148.172" fill="none" width="25.696" height="26.688"/>
<rect id="MouthTarget" x="236.032" y="275.286" fill="none" width="36.768" height="37.793"/>
</svg>
