<?xml version="1.0" encoding="utf-8"?>
<!-- Generator: Adobe Illustrator 15.0.0, SVG Export Plug-In . SVG Version: 6.00 Build 0)  -->
<!DOCTYPE svg PUBLIC "-//W3C//DTD SVG 1.1//EN" "http://www.w3.org/Graphics/SVG/1.1/DTD/svg11.dtd">
<svg version="1.1" id="Layer_1" xmlns="http://www.w3.org/2000/svg" xmlns:xlink="http://www.w3.org/1999/xlink" x="0px" y="0px"
	 width="720px" height="450px" viewBox="0 0 720 450" enable-background="new 0 0 720 450" xml:space="preserve">
<g>
	<g>
		<path fill="#576260" d="M260.924,236.803c-10.646,16.135-8.694,44.716-9.109,71.215c-0.413,26.498,0.416,44.302,2.484,47.2
			c2.071,2.899,120.901-13.662,120.901-13.662s7.453-14.492,14.492-40.576c7.037-26.085,9.521-34.78,12.006-39.749
			c2.484-4.968,4.556-8.28,4.141-19.873c-0.412-11.594-26.498-15.734-26.498-15.734S274.589,216.101,260.924,236.803z"/>
		<path fill="#0090C0" d="M356.018,79.881c-27.052-7.728-38.645-6.072-63.487-2.76c-24.843,3.313-50.788,18.769-60.725,29.258
			c-9.937,10.49-8.834,20.427-3.865,41.404c4.968,20.978,11.593,32.571,9.385,45.82c-2.208,13.25,2.208,20.426,2.208,20.426
			s-1.656,1.104-0.551,4.416c1.104,3.313,3.312,4.969,3.312,4.969s2.208,12.146,2.761,16.011c0.551,3.862-4.417,4.967-2.761,8.831
			c1.656,3.865,8.279,5.521,7.176,11.043c-1.103,5.519-6.809,8.423-3.313,12.696c4.969,6.073,7.73,8.281,7.73,14.905
			c0,6.625-0.552,16.01-0.552,16.01s9.936-7.176,19.321-6.624c9.385,0.552,9.385,0.552,9.385,0.552s-3.313-10.489-2.761-19.321
			c0.553-8.834-3.313-11.042-1.103-24.842c2.208-13.804,2.208-16.011,2.208-16.011s12.145,17.666,42.509,17.666
			c30.362,0,44.163-9.937,44.163-9.937s-1.656,10.488-14.354,28.706c-12.696,18.218-15.458,25.395-15.458,25.395
			s5.522,4.968,12.698,8.834c7.177,3.864,14.354,4.415,14.354,4.415s6.624-20.426,19.873-34.227
			c13.249-13.803,7.728-14.906,19.321-30.364c11.594-15.457,10.488-26.498,11.594-33.675c1.104-7.176,6.071-4.969,3.312-16.01
			c-2.759-11.04-3.865-14.354-4.968-23.187c-1.104-8.832-8.834-41.403-23.188-65.142C375.892,85.402,356.018,79.881,356.018,79.881z
			"/>
		<path fill="#ECAF8B" d="M330.07,73.809c0,0,15.456,11.592,7.729,39.195c-7.729,27.604-27.052,38.644-50.237,34.78
			c-23.187-3.864-23.187-14.905-29.811-22.082c-6.625-7.176-4.969-31.467-3.864-33.675C254.991,89.818,283.146,73.256,330.07,73.809
			z"/>
		<path fill="#FFFFFF" d="M277.901,23.157c1.393-0.931,3.863-1.326,5.402-1.582c2.284,2.868,4.245,6.962,3.646,11.042
			c-3.007-2.027-5.572-5.553-7.392-9.045"/>
		<path fill="#5D4530" d="M284.11,23.157c0,0,7.452-3.726,16.149,1.657c8.693,5.382,22.358,16.976,23.599,27.741
			c1.244,10.765-1.657,15.733-2.068,24.014c-0.417,8.281,11.177,11.179,11.177,11.179s-4.969,7.453-17.39,3.313
			c-12.421-4.141-15.733-16.147-15.318-28.983c0.413-12.835-1.656-23.187-3.728-25.671c-2.069-2.484-8.281-3.727-8.281-3.727
			S285.766,25.642,284.11,23.157z"/>
		<path fill="#ECAF8B" d="M280.385,297.252c4.995,14.485,13.889,23.714,12.772,40.928c-8.674-2.659-9.825-12.531-15.152-18.543
			c-4.729,13.852-6.86,28.798-25.373,28.941c-6.231-13.462,1.889-24.812,3.83-37.548c2.172-14.259,8.851-15.31,23.094-13.364"/>
		<path fill="#ECAF8B" d="M336.695,298.908c-18.433,7.683-21.556,22.229-24.901,39.779c25.738,4.617,43.631-3.589,48.042-28.537
			c-9.915-0.554-19.001-7.101-22.729-13.726"/>
		<path fill="#0082A9" d="M260.096,175.524c-0.499,10.643,0.013,23.301,4.083,32.576c1.902,4.334,3.629,6.883,4.435,11.437
			c0.333,1.883-3.875,4.173,1.491,7.751c0.054-0.063,4.074,21.616,4.391,25.402c0.492,5.886,0.883,12.883,3.725,17.888
			c0.429-12.301-0.104-24.61,2.96-36.271c0.338-1.292,3.028-5.756,2.958-7.399c-0.163-3.85-4.432-5.3-4.519-9.511
			c5.368,0.324,12.03-0.359,15.203-4.536c-9.613,0.164-19.159,0.165-24.791-7.939c-5.358-7.718-1.316-17.991-7.865-24.843"/>
		<path fill="#0082A9" d="M365.263,159.376c-9.336,13.068,17.646,33.953-6.913,47.23c3.472-1.056,7.038-3.362,10.177-4.528
			c0.709,10.878,3.793,14.472-3.709,25.482c15.658,0.809,12.037-1.107,14.523-10.632c1.266-4.841,5.59-8.051,2.482-13.664
			c-6.619-11.975-9.108-40.99-16.146-38.92"/>
		<path fill="#46514E" d="M395.489,276.137c-5.867,11.129-6.184,23.61-12.287,34.767c-5.049,9.228-11.27,17.215-16.25,26.405
			c20.873,7.661,23.363-45.686,27.709-57.446"/>
		<path fill="#46514E" d="M311.437,263.301c10.899,14.68,4.745,27.428,4.88,43.765c0.535-11.933,8.37-18.508,9.075-35.402
			c-3.246-1.048-5.878-2.659-8.571-4.636"/>
		<path fill="#CC9A7C" d="M278.731,111.901c3.521,12.751-15.023,12.11-24.073,11.496c-7.095-12.691,18.393-14.31,26.279-12.049"/>
		<path fill="#ECAF8B" d="M209.722,78.777c3.866,6.072,1.656,7.729,10.49,12.145c8.833,4.417,11.04,5.52,11.593,12.145
			c0.552,6.625,1.656,9.385,1.656,9.385s1.656,1.656,6.625-0.551c4.969-2.209,5.52,0.551,5.52,0.551v2.208h6.625
			c0,0-0.553,4.417,2.208,4.417c2.76,0,4.415,0,6.625,2.208c2.209,2.209,7.178,1.657,11.042-2.208
			c3.864-3.864,7.176-8.281,7.176-8.281s18.218-17.667,19.323-25.394c1.104-7.729,2.208-9.385-2.208-18.218
			c-4.417-8.834-9.385-21.532-16.01-25.396c-6.625-3.864-35.331-12.145-44.716-6.072c-9.385,6.072-24.844,24.29-25.947,29.811
			C208.619,71.048,209.722,78.777,209.722,78.777z"/>
		<path fill="#CC9A7C" d="M270.033,56.281c-1.789,3.754,0.515,7.226,2.56,10.279c1.561,0.438,2.8,0.391,4.417,0.423
			c0.75-4.215-0.969-7.161-5.246-7.047c0.005-1.395-0.916-4.777-0.903-4.897"/>
		<path fill="#5D4530" d="M292.807,59.179c-2.899-1.656-7.041-3.726-8.696-4.141c-1.656-0.414-6.209-0.828-6.209-0.828
			s-4.556-5.382-9.937-2.898c-5.385,2.484-3.728,7.867-3.313,10.351c0.413,2.484,0,5.797-2.899,6.625
			c-2.897,0.828-2.897,0.828-2.897,0.828s-6.212-4.968-12.009-4.968c-5.797,0-10.35,0.828-15.318,0.828
			c-4.969,0-11.181-1.656-11.181-1.656s0,2.07,2.484,2.898c2.484,0.828,5.796,2.07,5.796,2.07s-2.484,0.415-5.796,0.415
			c-3.313,0-6.209,0-6.209,0s2.896,3.727,5.381,4.968c2.484,1.243,7.869,2.484,7.869,2.484s-3.729,0.828-9.525-0.828
			s-7.865-3.726-7.865-3.726s2.069,4.968,4.553,7.866c2.484,2.899,8.28,5.797,8.28,5.797s-5.796,2.07-14.077-2.485
			c-8.281-4.554-10.349-12.007-10.349-12.007s-9.525-3.312-6.625-12.007c2.896-8.695,7.453-10.351,7.453-10.351
			s0.828-14.491,13.249-24.429c12.421-9.937,29.396-14.905,47.613-9.109c18.218,5.796,24.431,16.976,25.671,24.843
			C289.495,47.585,292.807,59.179,292.807,59.179z"/>
		<path fill="#0082A9" d="M260.513,226.176c-4.298,0.479-9.203,0.065-12.775-1.089c6.165-1.907,13.115-5.168,18.375-0.005
			c-0.893,0.246-1.7,0.759-2.287,1.645"/>
		<path fill="#0082A9" d="M416.743,208.51c-5.176,2.461-10.799,4-16.311,5.088c3.264,1.021,3.895,2.938,5.65,4.202
			c-2.684,0.295-5.969,1.54-8.434,1.642c8.844-2.371,12.986,2.875,14.125,10.047c3.338-6.38,1.316-13.364,3.313-19.875"/>
	</g>
	<g>
		<g>
			<path d="M227.112,148.68c1.999,7.994,4.551,15.795,6.787,23.723c0.977,3.466,1.046,7.23,1.575,10.798
				c0.501,3.387-0.479,6.752-0.44,10.158c0.09,7.618-0.031,17.684,6.347,23.029c0.332-0.396,1.521-1.428,1.125-1.803
				c-1.178-1.115-1.866-2.847-2.591-4.29c-1.751-3.483-0.411-7.578-0.582-11.375c-0.175-3.898-0.154-7.692-0.165-11.595
				c-0.018-5.758-2.485-11.59-4.068-17.072c-3.713-12.87-7.875-25.747-8.596-39.228c-0.239-4.525-0.757-9.135,0.358-13.547
				c0.367-1.449,1.356-2.623,2.028-3.962c0.265-0.534,0.343-1.108,0.684-1.599c0.49-0.702-0.931-0.44-1.565-0.939
				c-0.272-0.214-0.456-1.348-0.728-1.561c-3.29,4.187-3.812,10.386-4.039,15.541C222.888,133.006,225.166,140.89,227.112,148.68"/>
		</g>
	</g>
	<g>
		<g>
			<path d="M236.737,218.286c0.26,3.724,5.038,5.761,8.061,6.801c0.148-0.432,1.014-2.014,0.851-2.397
				c-2.04-0.702-4.455-1.516-5.92-3.163c-1.388-1.561-0.036-2.833,1.467-3.688c0.813-0.463-0.332-1.79-0.714-2.536
				c-1.894,0.969-4.083,2.616-3.914,4.996"/>
		</g>
	</g>
	<g>
		<g>
			<path d="M243.017,235.561c0.297,1.77,0.425,3.545,0.574,5.334c0.165,1.957-0.042,2.019-1.463,3.298
				c-2.302,2.071-1.942,5.171-0.104,7.522c1.671,2.136,6.031,4.107,6.479,6.905c0.251,1.571-0.396,2.711-0.692,4.15
				c-0.338,1.648-2.137,2.435-2.939,3.885c-2.994,5.414,4.216,8.897,7.001,12.606c0.785,1.039,2.688,3.099,2.348,4.47
				c-0.194,0.776-2.246,2.118-1.852,2.543c0.492,0.53,1.048,1.019,1.541,1.547c1.993-1.853,3.675-4.4,2.004-6.961
				c-0.922-1.413-2.485-2.453-3.505-3.801c-1.666-2.202-5.384-4.329-5.698-7.263c-0.204-1.893,2.142-3.4,2.822-5.016
				c0.348-0.82,0.576-1.451,1.006-2.247c0.333-0.619,0.437-1.442,0.592-2.132c0.886-3.895-2.903-6.609-5.34-8.936
				c-0.912-0.87-3.152-2.596-2.46-4.089c0.647-1.396,2.319-1.982,2.917-3.491c0.631-1.602,0.047-3.843-0.178-5.488
				c-0.304-2.197-0.255-4.439-0.556-6.639c-0.078-0.563-0.911-5.361-0.846-5.356c-0.8-0.056-2.071-0.556-2.868-0.61
				c-0.222,3.223,1.149,6.521,1.68,9.688"/>
		</g>
	</g>
	<g>
		<g>
			<path d="M252.839,283.176c0,5.515,0.899,10.958,0.972,16.477c0.026,2.103,0.082,4.445-0.915,6.36
				c-0.382,0.733-0.615,0.777,0.033,1.312c0.474,0.389,0.912,0.554,1.385,0.943c3.107-3.771,2.006-10.001,1.546-14.446
				c-0.315-3.063-0.689-6.134-0.851-9.21c-0.05-0.964,0.474-1.481-0.523-1.481c-0.616,0-1.34,0.013-1.953,0.013"/>
		</g>
	</g>
	<g>
		<g>
			<path d="M278.037,240.116c-0.333,5.772-1.596,11.514-0.904,17.266c0.553,4.577,2.453,9.249,2,13.865
				c-0.333,3.382-1.346,6.699-1.658,10.082c-0.542,5.881,0.197,11.57,2.074,17.182c0.757-0.254,1.449-0.956,2.209-1.21
				c-0.022,0.009-1.459-5.12-1.576-5.791c-0.631-3.645-0.276-7.325,0.105-10.989c0.558-5.356,0.736-10.587,0.252-15.982
				c-0.683-7.597-1.51-14.854-1.083-22.541c0.218-3.941,0.143-7.847,0.298-11.794c-0.262-0.002-1.855-0.073-1.859-0.007
				c-0.037,0.984,0.202,1.98,0.164,2.964c-0.091,2.313-0.631,4.604-0.721,6.918"/>
		</g>
	</g>
	<g>
		<g>
			<path d="M250.386,306.476c0.681,0.837,0.711,1.43,1.627,0.706c1.021-0.804,2.125-1.516,3.199-2.244
				c2.759-1.872,5.855-3.183,8.957-4.417c3.468-1.379,7.087-2.796,10.833-2.761c1.958,0.017,3.979,0.36,5.857,0.906
				c0.31,0.09,2.029,1.045,2.1,0.873c0.197-0.472,0.469-0.973,0.667-1.446c-11.487-4.78-24.021,1.355-32.999,8.652"/>
		</g>
	</g>
	<g>
		<g>
			<path d="M323.213,75.672c16.352,1.941,33.944,3.366,47.277,13.944c14.847,11.783,26.478,28.03,31.983,46.108
				c4.525,14.85,7.703,30.289,10.627,45.529c0.74,3.857,2.021,7.613,2.732,11.467c0.436,2.376,0.879,4.813,0.477,7.232
				c-0.091,0.529-1.15,4.214-1.257,4.112c0.585,0.545,1.446-0.483,2.032,0.062c1.564-1.686,4.262-3.269,3.694-5.677
				c-0.51-2.191-3.54-3.485-4.024-5.687c-0.684-3.108,0.48-6.655-0.096-9.796c-2.279-12.37-6.438-24.385-9.605-36.558
				c-3.214-12.343-7.102-24.032-13.932-34.897c-4.696-7.476-9.576-15.11-16.117-21.041c-7.348-6.657-15.998-10.306-25.629-12.947
				c-6.164-1.692-12.554-2.085-18.885-2.928c-2.201-0.292-4.21-2.06-6.417-2.32c-0.288-0.034-2.912,0.207-2.937,0.391
				c-0.107,0.792-0.721,1.516-0.828,2.308"/>
		</g>
	</g>
	<g>
		<g>
			<path d="M414.894,218.585c0,4.053-1.363,8.216-2.968,11.905c-3.585,8.25-9.412,15.277-14.31,22.757
				c-2.023,3.093-4.384,6.001-6.094,9.276c-1.535,2.936-3.098,5.845-4.947,8.603c-2.181,3.256-5.336,5.929-8.682,7.922
				c-0.546,0.323-0.556,1.816-1.148,2.059c-0.053,0.021,0.426,1.223,0.518,1.466c2.654-1,5.303-2.656,7.434-4.456
				c3.979-3.357,6.543-7.096,8.811-11.684c4.713-9.529,10.614-18.171,15.922-27.34c3.242-5.602,7.266-11.651,7.853-18.203
				c0.372-4.174-0.597-8.436-0.069-12.61c0.288-2.277,0.072-4.659,0.484-6.916c0.159-0.876,1.207-0.886,0.279-1.072
				c-0.601-0.12-1.551-0.581-2.152-0.7c-1.234,6.173-1.271,12.693-1.271,18.994"/>
		</g>
	</g>
	<g>
		<g>
			<path d="M373.54,288.56c-3.58,4.536-6.738,8.946-8.893,14.326c-1.054,2.633-1.605,5.49-2.869,8.033
				c-0.598,1.203,0.512,1.165,1.57,1.724c2.709-5.131,4.289-10.748,7.32-15.718c3.33-5.459,7.76-10.055,10.783-15.72
				c-1.084-0.579-1.896-1.673-2.578-0.479c-1.575,2.754-3.377,5.346-5.336,7.831"/>
		</g>
	</g>
	<g>
		<g>
			<path d="M378.069,212.731c-0.386,0.249-0.629,0.715-1.014,0.964c0.973,1.209,1.293,2.403,1.778,3.907
				c0.28,0.873,1.212,1.787,1.603,2.617c-0.821,0.421-1.977,0.817-2.645,1.452c-3.035,2.878-4.621,7.101-6.27,10.872
				c-1.971,4.509-4.074,8.949-6.26,13.365c-0.904,1.831-1.97,3.522-3.313,5.073c-0.667,0.771,0.869,1.538,1.525,2.17
				c5.096-5.309,7.197-13.341,10.065-19.928c1.386-3.182,2.786-6.694,5.124-9.307c1.463-1.633,3.35-1.983,5.385-2.518
				c-1.715-2.128-2.112-4.417-3.213-6.898c0.43-0.202,4.014-1.244,3.996-0.986c0.049-0.798,0.309-1.519,0.357-2.318
				c-2.436-0.151-4.918,0.439-6.969,1.77"/>
		</g>
	</g>
	<g>
		<g>
			<path d="M351.382,273.396c-0.977,1.516-2.552,2.679-3.457,4.239c-1.468,2.526-2.146,5.391-3.385,8.014
				c-1.152,2.449-2.693,4.534-4.621,6.415c-0.437,0.425-3.743,3.653-3.715,3.689c0.493,0.629,0.743,1.392,1.237,2.021
				c3.459-2.718,6.615-5.906,8.782-9.794c1.751-3.136,2.352-6.798,4.313-9.831c5.149-7.971,10.729-15.752,14.796-24.35
				c-0.395-0.188-1.287-0.88-1.656-0.752c-1.117,2.356-2.846,4.363-4.152,6.62c-2.666,4.603-5.665,8.992-8.561,13.454"/>
		</g>
	</g>
	<g>
		<g>
			<path d="M367.89,164.81c2.297,3.383,4.24,7.05,5.434,10.986c0.967,3.189,1.492,6.502,2.033,9.783
				c0.662,4.032,2.178,7.573,3.801,11.299c0.954,2.19,1.405,4.53,1.644,6.929c0.071,0.707-0.01,2.589,0.776,2.676
				c0.55,0.06,1.547-0.175,2.096-0.115c0.52-4.734-2.268-9.193-4.097-13.392c-1.294-2.969-1.902-5.922-2.422-9.091
				c-0.513-3.117-1.054-6.243-2.036-9.256c-1.271-3.914-3.504-7.363-5.801-10.754c-0.572,0.386-0.769,0.513-1.34,0.899"/>
		</g>
	</g>
	<g>
		<g>
			<path d="M380.827,207.372c-1.261-0.09-0.968,2.117-0.891,2.916c0.229,2.308,1.525,4.333,3.239,5.835
				c0.366-0.417,0.685-0.976,1.05-1.394c0.521-0.595-0.625-1.255-1.04-1.831c-0.601-0.839-1.016-1.771-1.117-2.799
				c-0.136-1.371,0.856-1.176,1.972-1.582c3.715-1.345,7.072-3.918,8.028-7.89c-0.399-0.095-1.927-0.726-2.273-0.566
				c-0.292,1.199-0.64,2.438-1.421,3.394c-1.839,2.257-4.773,3.329-7.545,3.929"/>
		</g>
	</g>
	<g>
		<g>
			<path d="M384.166,218.163c0.091,0.546,0.176,0.986,0.269,1.531c9.998-1.707,19.463-5.104,28.769-9.034
				c-0.198-0.47-0.163-1.05-0.362-1.521c-0.085-0.207-2.849,0.878-3.209,1.027c-2.643,1.093-5.291,2.153-7.979,3.125
				c-5.705,2.064-11.5,3.864-17.484,4.885"/>
		</g>
	</g>
	<g>
		<g>
			<path d="M387.682,216.383c5.87,2.984,12.276,5.849,18.979,5.905c0.003-0.409-0.067-0.795-0.065-1.205
				c0.006-0.846-1.617-0.322-2.334-0.406c-2.452-0.283-4.787-1.228-7.114-2.04c-2.281-0.798-4.511-1.717-6.688-2.769
				c-0.274-0.133-2.009-1.022-2.113-0.817c-0.232,0.456-0.41,0.849-0.641,1.304"/>
		</g>
	</g>
	<g>
		<g>
			<path d="M244.273,217.622c-0.323-0.015-0.456,0.155-0.778,0.201c1.304,3.743,3.988,4.495,7.723,4.584
				c1.366,0.033,2.726,0.336,4.091,0.373c1.339,0.037,1.03-0.422,1.144-1.729c-3.098-0.086-8.372,0.846-10.566-1.747
				c8.557-0.965,17.192-0.022,25.712,0.854c0.171-1.687,0.373-1.642-1.322-1.815c-2.445-0.251-4.918-0.18-7.367-0.393
				c-6.183-0.537-12.474-1.24-18.642-0.361"/>
		</g>
	</g>
	<g>
		<g>
			<path d="M259.494,225.952c-1.315-0.01-2.682-0.046-3.998-0.056c0,0.443-0.223,1.77,0.298,1.774
				c1.144,0.01,2.286,0.075,3.43,0.085c4.602,0.036,9.286,0.286,13.856-0.35c-0.07-0.506-0.204-1.142-0.275-1.649
				c-0.022-0.164-3.432,0.133-3.883,0.157c-3.141,0.165-6.287,0.333-9.429,0.297"/>
		</g>
	</g>
	<g>
		<g>
			<path d="M244.974,157.377c0.288,3.767,3.798,6.887,6.114,9.621c2.925,3.458,6.12,6.72,8.771,10.399
				c2.79,3.874,4.185,8.041,5.096,12.736c0.657,3.392,1.437,6.733,2.575,10.013c2.625,7.555,9.998,13.463,17.898,14.169
				c7.085,0.634,14.31-2.542,19.741-6.885c-0.908-1.135-1.186-1.833-2.386-0.94c-1.253,0.932-2.41,2.001-3.775,2.757
				c-3.474,1.915-7.36,3.665-11.352,3.749c-8.298,0.168-16.932-5.889-19.416-13.857c-1.076-3.449-1.604-7.061-2.381-10.58
				c-1.167-5.293-3.683-9.319-6.929-13.596c-2.751-3.625-5.143-7.501-7.996-11.045c-1.213-1.505-3.135-2.738-3.861-4.548
				c-0.113-0.287-0.02-2.37-0.147-2.36c-0.508,0.039-1.53,0.256-2.04,0.296"/>
		</g>
	</g>
	<g>
		<g>
			<path d="M276.172,235.693c13.461,8.439,26.927,18.859,43.369,19.644c8.186,0.391,16.4-1.199,24.391-2.879
				c7.521-1.581,15.602-2.95,22.334-6.773c-0.273-0.481-0.632-1.073-0.905-1.554c-0.354-0.624-0.616,0.5-1.16,0.777
				c-1.534,0.786-3.382,0.958-4.989,1.579c-4.012,1.553-7.971,3.532-12.15,4.527c-8.293,1.973-17.125,2.955-25.671,2.825
				c-16.787-0.259-31.181-10.135-44.862-18.707c-0.362,0.588-0.718,0.563-1.083,1.152"/>
		</g>
	</g>
	<g>
		<g>
			<path d="M276.604,214.339c1.504,4.305,4.168,8.175,6.802,11.856c-2.639,1.082-2.851,3.433-2.678,5.975
				c0.098,1.515-0.05,3.151-0.846,4.515c0.154,0.367,1.444,0.841,1.81,1.054c1.55-2.647,0.337-5.308,0.868-8.073
				c0.355-1.864,2.71-1.962,4.226-2.248c-1.761-2.445-3.457-4.978-5.031-7.547c-1.093-1.78-2.101-3.592-2.86-5.542
				c-0.438-1.129-1.323-0.319-2.348,0.04"/>
		</g>
	</g>
	<g>
		<g>
			<path d="M326.944,73.229c7.521,6.552,13.787,14.05,13.535,24.293c-0.139,5.664-1.834,11.272-3.436,16.673
				c-1.462,4.935-3.358,9.5-5.835,14.029c-5.745,10.503-16.156,16.083-27.613,18.697c-12.461,2.845-23.783-0.376-33.958-7.921
				c-3.287-2.438-6.141-5.018-8.376-8.451c-1.192-1.832-2.523-3.547-3.484-5.511c-0.605-1.238-0.753-2.773-1.316-4.031
				c-0.263-0.086-1.952,0.958-2.23,1.083c2.031,4.551,4.891,8.628,8.093,12.488c3.346,4.032,7.467,7.042,11.983,9.644
				c11.447,6.599,24.225,7.348,36.479,2.922c10.666-3.851,17.382-9.443,22.868-19.445c2.967-5.412,4.352-11.338,5.737-16.36
				c1.459-5.295,1.777-10.826,1.531-16.344c-0.431-9.708-4.899-17.852-12.026-24.06c-0.362,0.416-0.701,0.885-1.063,1.3"/>
		</g>
	</g>
	<g>
		<g>
			<path d="M369.612,144.877c-1.307,4.734-2.383,9.889-4.702,14.249c-1.835,3.448-3.874,5.978-2.604,10.06
				c0.389-0.122,0.894-0.231,1.284-0.353c0.803-0.25-0.26-1.624-0.317-2.368c-0.136-1.75,0.813-3.208,1.709-4.645
				c1.361-2.392,2.353-4.797,3.222-7.415c1.188-3.578,2.318-7.172,3.342-10.798c0.342-1.216,0.467-2.494,0.809-3.71
				c0.279-0.998-0.567-0.965-1.486-1.237c-0.561,1.989-1.159,4.099-1.721,6.088"/>
		</g>
	</g>
	<g>
		<g>
			<path d="M279.877,299.553c5.335,4.483,4.609,13.609,7.395,19.527c1.441,3.061,2.622,6.158,3.219,9.481
				c0.088,0.491,0.658,4.67,0.784,4.651c0.791-0.116,1.77-0.395,2.559-0.511c-0.456-3.125-0.898-6.353-1.787-9.391
				c-0.877-2.993-2.793-5.608-3.688-8.588c-1.687-5.624-2.151-12.979-6.946-17.009c-0.53,0.635-0.892,1.153-1.423,1.787"/>
		</g>
	</g>
	<g>
		<g>
			<path d="M277.953,321.121c2.838,2.006,3.587,4.934,4.407,8.136c0.844,3.296,2.361,6.202,5.159,8.3
				c0.275-0.365,1.507-1.537,1.472-1.957c-1.9-1.426-2.923-3.434-3.592-5.679c-1.257-4.221-2.113-8.167-5.962-10.892
				c-0.479,0.677-0.897,1.286-1.375,1.962"/>
		</g>
	</g>
	<g>
		<g>
			<path d="M272.459,332.772c-0.411,1.407-0.895,2.795-1.304,4.203c-0.353,1.216,1.056,1.086,2.104,1.424
				c0.972-3.346,1.924-6.693,2.944-10.027c0.845-2.753,1.657-5.605,3.082-8.121c0.286-0.508,1.656-1.759,1.207-2.135
				c-0.557-0.463-1.207-0.995-1.763-1.457c-3.652,4.383-5.093,10.664-6.576,16.029"/>
		</g>
	</g>
	<g>
		<g>
			<path d="M249.542,327.991c0.743,0.367,1.444,0.733,2.19,1.103c3.92-7.887,5.74-16.613,7.602-25.168
				c-1.213-0.264-2.331-1.08-2.633,0.301c-0.601,2.743-1.079,5.513-1.772,8.234c-1.356,5.313-3.068,10.553-5.515,15.475"/>
		</g>
	</g>
	<g>
		<g>
			<path d="M249.729,324.43c1.488,7.057-1.894,15.14,1.799,21.761c0.374-0.21,2.067-0.804,2.17-1.172
				c-1.011-1.815-1.507-3.917-1.558-5.954c-0.125-5.024,1.039-10.15-0.007-15.127c-0.81,0.17-1.391,0.327-2.201,0.5"/>
		</g>
	</g>
	<g>
		<g>
			<path d="M264.11,329.793c0.106,2.158,0.005,4.335-0.173,6.489c-0.027,0.334-0.406,2.43-0.189,2.453
				c0.51,0.059,0.936,0.144,1.444,0.202c0.353-3.066,0.662-6.142,0.51-9.229c-0.55,0.03-1.033,0.074-1.585,0.101"/>
		</g>
	</g>
	<g>
		<g>
			<path d="M257.236,339.078c0.103,0.86,0.167,1.725,0.272,2.585c0.115,0.954,0.826,0.475,1.692,0.409
				c-0.133-1.093-0.196-2.143-0.338-3.234c-0.241-1.631-0.393-3.277-0.35-4.93c-0.239-0.196-1.329-0.011-1.659-0.02
				c-0.045,1.748,0.194,3.454,0.448,5.18"/>
		</g>
	</g>
	<g>
		<g>
			<path d="M252.608,335.759c0,2.029,0.005,4.06,0.005,6.089c0,1.148,0.054,2.297,0.054,3.444c0,0.604,1.372,0.811,1.7,0.469
				c0.194-0.204-0.073-1.615-0.073-1.881c0-1.424,0.052-2.849,0.052-4.274c0-1.147-0.143-2.297-0.143-3.444
				c0-0.775-0.91-0.394-1.561-0.394"/>
		</g>
	</g>
	<g>
		<g>
			<path d="M263.681,330.193c0.143,0.796,1.208,0.122,1.794-0.054c-0.404-1.322-0.957-2.739-0.861-4.146
				c0.049-0.695,0.601-1.03-0.028-1.424c-0.347-0.216-0.731-0.442-1.076-0.66c-1.191,1.902-0.366,4.308,0.234,6.266"/>
		</g>
	</g>
	<g>
		<g>
			<path d="M333.754,296.699c5.995,3.97,10.801,9.624,17.327,12.802c3.067,1.493,6.184,1.908,9.539,1.629
				c1.684-0.141,3.336-0.204,5.027-0.147c1.187,0.041,0.919-1.023,0.996-2.094c-2.766-0.197-5.561,0.423-8.318,0.476
				c-3.138,0.061-6.042-0.687-8.712-2.265c-5.472-3.238-9.637-8.321-14.925-11.818c-0.305,0.461-0.638,0.965-0.94,1.427"/>
		</g>
	</g>
	<g>
		<g>
			<path d="M326.742,303.836c-2,1.789-4.152,3.525-6.675,4.55c-0.933,0.377-1.933,0.173-1.743,1.294
				c0.104,0.604,0.053,1.28,0.155,1.885c4.763-0.806,8.09-4.528,11.591-7.523c1.682-1.439,3.553-2.675,5.665-3.413
				c1.168-0.409,0.308-1.622,0.01-2.708c-3.562,0.982-6.402,3.401-9.095,5.812"/>
		</g>
	</g>
	<g>
		<g>
			<path d="M315.597,317.097c-1.785,3.484-2.479,6.852-2.518,10.751c-0.015,1.558-0.341,3.015-0.823,4.495
				c-0.306,0.939-1.229,1.931-0.125,2.351c0.574,0.217,0.962,0.336,1.537,0.552c0.831-2.188,1.834-4.334,1.924-6.697
				c0.062-1.657-0.081-3.339,0.24-4.975c0.511-2.617,2.055-4.896,3.217-7.26c1.321-2.69,2.709-5.43,3.75-8.237
				c-0.576-0.214-1.397-0.5-1.975-0.712c-1.188-0.443-1.266,1.923-1.664,2.896c-0.973,2.381-2.35,4.569-3.521,6.857"/>
		</g>
	</g>
	<g>
		<g>
			<path d="M350.728,329.055c0.5,0.66,0.883,1.182,1.385,1.842c5.961-4.524,9.054-12.47,9.145-19.764
				c-0.447-0.007-2.127-0.273-2.426,0c-0.027,2.285-0.527,4.553-1.151,6.75c-1.196,4.208-3.512,8.385-7.05,11.071"/>
		</g>
	</g>
	<g>
		<g>
			<path d="M317.339,326.945c-1.073,2.339-2.08,4.703-3.224,7.008c-0.188,0.372-1.514,2.839-1.331,2.936
				c0.448,0.244,0.673,0.594,1.123,0.838c2.455-4.533,4.436-9.275,6.63-13.937c1.075-2.285,2.218-4.552,3.444-6.76
				c0.199-0.356,1.809-2.614,1.644-2.718c-0.433-0.271-0.728-0.618-1.161-0.89c-2.709,4.328-5.047,8.869-7.172,13.502"/>
		</g>
	</g>
	<g>
		<g>
			<path d="M326.973,328.97c-1.766,1.98-3.786,3.973-4.744,6.495c0.985,0.375,1.381,0.923,1.876-0.096
				c0.851-1.754,2.13-3.288,3.413-4.738c1.083-1.222,2.131-2.453,3.184-3.703c-0.642-0.478-1.028-1.241-1.607-0.557
				c-0.722,0.854-1.503,1.656-2.224,2.511"/>
		</g>
	</g>
	<g>
		<g>
			<path d="M335.179,331.357c0.338,0.435,0.65,0.886,0.989,1.321c1.056-0.916,2.156-1.819,3.211-2.734
				c-0.783-0.815-0.925-1.476-1.815-0.705c-0.812,0.704-1.575,1.465-2.387,2.168"/>
		</g>
	</g>
	<g>
		<g>
			<path d="M403.932,254.558c0.118,1.91,0.128,3.552-1.157,5.095c-1.035,1.242-2.418,2.174-3.646,3.215
				c-1.043,0.884-0.057,1.266,0.721,2.19c3.303-2.773,6.533-5.107,6.321-9.694c-0.069-1.498-0.131-2.989-0.167-4.486
				c-0.043-1.813-0.323-1.329-2.145-1.379c0.044,1.72,0.018,3.341,0.059,5.06"/>
		</g>
	</g>
	<g>
		<g>
			<path d="M396.327,272.216c-1.52,3.788-3.443,7.406-4.483,11.363c-1.742,6.622-1.843,13.649-3.628,20.268
				c-1.267,4.69-2.498,9.415-3.864,14.075c-1.048,3.583-2.294,7.238-3.938,10.595c-0.217,0.446-3.115,4.21-3.074,4.236
				c0.672,0.435,1.868,0.81,2.541,1.242c4.502-6.987,6.798-15.277,8.827-23.241c1.104-4.202,1.304-8.637,2.28-12.867
				c1.602-6.959,3-13.929,5.668-20.591c2.467-6.15,5.101-12.209,6.087-18.814c-0.606-0.091-0.663,0.191-1.271,0.101
				c-1.245-0.187-0.813,1.953-1.084,3.001c-0.955,3.672-2.99,6.977-4.459,10.465"/>
		</g>
	</g>
	<g>
		<g>
			<path d="M324.812,271.414c0.275,8.086-2.584,15.519-5.098,23.057c-2.469,7.408-4.14,14.999-5.119,22.755
				c1.739,0.22,1.646,0.381,1.915-1.516c0.341-2.402,1.109-4.714,1.614-7.088c0.844-3.984,1.577-7.979,2.831-11.855
				c2.683-8.301,6.395-16.553,6.094-25.448c-0.551,0.02-1.774,0.05-2.328,0.067"/>
		</g>
	</g>
	<g>
		<g>
			<path d="M306.185,259.854c5.36,5.437,11.949,10.779,19.219,13.301c0.168-0.484,0.33-1.152,0.499-1.636
				c0.058-0.173-2.209-0.896-2.54-1.048c-2.526-1.152-4.951-2.581-7.236-4.153c-2.272-1.563-4.448-3.298-6.505-5.137
				c-0.832-0.747-1.498-1.698-2.282-2.493c-0.265,0.005-1.096,1.104-1.306,1.31"/>
		</g>
	</g>
	<g>
		<g>
			<path d="M323.413,272.563c0.282,0.295,0.712,0.605,0.993,0.903c0.565,0.594,1.213-0.403,1.705-0.86
				c1.791-1.655,3.639-3.236,5.558-4.743c2.046-1.611,4.184-3.084,6.456-4.364c0.337-0.188,2.652-1.459,2.578-1.619
				c-0.207-0.467-0.37-0.826-0.577-1.294c-6.287,2.792-11.792,7.25-16.733,11.943"/>
		</g>
	</g>
	<g>
		<g>
			<path d="M251.516,302.107c-0.173,3.604-0.183,7.216-0.354,10.82c-0.104,2.17-0.634,4.317-0.738,6.485
				c-0.092,1.908-0.068,1.49,1.975,1.612c0.288-6.022,0.841-11.944,1.125-17.97c0.107-2.19,0.471-4.367,0.568-6.558
				c0.083-1.879-0.369-3.777-0.285-5.656c0.065-1.485-0.083-0.928-1.554-1c-0.183,4.119-0.796,8.135-0.981,12.255"/>
		</g>
	</g>
	<g>
		<g>
			<path d="M368.604,182.136c1.639,8.604-2.111,16.449-9.189,21.309c-3.869,2.659-8.348,3.833-13.117,3.711
				c-5.363-0.136-10.426-1.986-15.334-3.95c-0.189,0.474-0.112,1.188-0.301,1.663c-0.089,0.222,2.771,1.631,3.206,1.796
				c2.689,1.019,5.51,1.903,8.348,2.421c5.992,1.097,11.76-0.234,16.898-3.45c8.234-5.158,12.93-14.032,11.065-23.806
				c-0.54,0.104-1.183,0.232-1.725,0.335"/>
		</g>
	</g>
	<g>
		<g>
			<path d="M364.646,221.721c-2.516,3.489-4.771,7.115-6.656,10.983c2.859-0.779,5.523-1.838,7.839-3.774
				c-0.327-0.392-0.53-0.714-0.856-1.105c-0.022-0.027-3.185,1.665-3.605,1.856c4.211-7.285,10.961-13.635,12.668-22.142
				c-0.313-0.064-1.332-0.485-1.591-0.345c-0.353,1.758-0.764,3.529-1.535,5.143c-1.624,3.401-4.1,6.313-6.298,9.358"/>
		</g>
	</g>
	<g>
		<g>
			<path d="M210.042,82.459c2.248,3.476,4.64,6.982,7.983,9.461c2.96,2.195,7.06,2.977,9.615,5.677
				c4.142,4.378,4.493,11.352,5.837,16.991c1.155-0.311,2.439-0.18,2.138-1.443c-0.304-1.27-0.51-2.56-0.796-3.835
				c-0.986-4.389-2.37-8.945-5.375-12.445c-2.994-3.487-7.576-4.833-11.067-7.734c-1.824-1.516-3.392-3.271-4.802-5.175
				c-0.239-0.323-1.824-2.588-1.972-2.495c-0.546,0.355-1.258,0.785-1.805,1.139"/>
		</g>
	</g>
	<g>
		<g>
			<path d="M239.272,111.186c-1.459,0.733-3.303,1.722-4.972,1.079c-0.612-0.236-0.807-0.886-1.289-0.32
				c-0.357,0.42-0.702,0.763-1.061,1.184c1.752,1.491,3.877,1.748,5.978,0.99c1.318-0.476,4.013-2.658,5.389-1.952
				c0.854,0.439,1.069,1.813,1.266,2.633c0.151,0.626,0.031,1.546,0.822,1.42c0.545-0.085,1.044-0.192,1.591-0.279
				c-0.265-1.679-0.497-3.715-1.673-5.029c-1.685-1.883-4.145-0.599-6.017,0.344"/>
		</g>
	</g>
	<g>
		<g>
			<path d="M269.547,119.815c-3.799,2.443-7.102,3.081-10.019-0.761c-0.553-0.851-1.398-1.331-2.489-1.446
				c-0.886-0.094-1.53,0.091-2.369,0.19c-2.305,0.273-2.231-1.984-1.956-3.807c-1.267,0.223-2.711,0.316-3.985,0.487
				c-0.834,0.114-1.624,0.585-2.458,0.697c-0.173,0.024-0.016,1.49-0.003,1.729c1.483-0.199,3.153-0.745,4.629-1.003
				c0.075,1.759,0.867,3.033,2.18,3.949c0.908,0.634,2.222-0.161,3.157-0.496c1.268-0.453,1.888,0.416,2.541,1.328
				c0.869,1.211,1.977,2.601,3.435,2.942c3.557,0.832,7.469-2.106,10.075-4.236c3.315-2.712,6.087-6.047,8.708-9.415
				c-0.925-0.72-1.226-1.502-2.051-0.459c-1.174,1.486-2.014,3.259-3.285,4.663c-1.837,2.03-4.064,3.729-6.378,5.217"/>
		</g>
	</g>
	<g>
		<g>
			<path d="M218.854,61.922c1.321,3.074,5.413,3.899,8.409,4.194c4.205,0.416,8.466-0.322,12.649-0.788
				c2.193-0.246,4.424,0.052,6.629-0.036c2.261-0.091,4.567-0.292,6.696,0.606c2.375,0.999,3.198,3.466,5.421,4.635
				c0.238-0.453,0.701-0.861,0.94-1.313c-0.024,0.045-2.392-2.376-2.635-2.684c-1.73-2.199-4.205-3.135-6.919-3.318
				c-3.062-0.208-6.151,0.25-9.193,0.563c-4.487,0.51-9.069,0.813-13.584,0.348c-1.728-0.178-3.816-0.008-5.288-0.993
				c-0.637-0.427-1.277-1.082-1.583-1.792c-0.268-0.09-1.049,0.357-1.331,0.479"/>
		</g>
	</g>
	<g>
		<g>
			<path d="M265.478,61.665c0.009,2.873-3.045,4.93-5.398,5.868c-1.084,0.429-2.271,0.664-3.435,0.747
				c-0.822,0.059-0.472,0.87-0.471,1.617c4.391-0.007,10.964-3.177,10.955-8.233c-0.552,0.001-1.188-0.043-1.739-0.042"/>
		</g>
	</g>
	<g>
		<g>
			<path d="M268.417,49.912c-5.163,1.817-5.923,8.096-4.093,12.666c0.472-0.189,0.996-0.174,1.473-0.363
				c-0.02,0.008-0.605-3.565-0.616-4.046c-0.054-2.537,0.787-5.149,3.176-6.283c4.218-2.001,7.008,0.971,9.402,4.049
				c2.72,3.115,3.732,8.364,3.229,12.385c-0.248,1.971-1.117,3.87-2.988,4.82c-0.879,0.446-1.832,0.529-2.811,0.509
				c-0.189,0.2,0.012,1.564,0.005,1.866c8.616,0.167,8.36-10.347,6.206-16.143c-1.905-5.124-6.805-11.348-12.896-9.204"/>
		</g>
	</g>
	<g>
		<g>
			<path d="M268.55,61.893c0.058,2.176,1.163,3.698,3.509,3.202c0.068,0.33,0.267,2.996,0.201,2.976
				c0.492,0.14,0.948,0.284,1.439,0.423c0.513-1.816,0.092-3.604-0.454-5.352c-0.663,0.238-2.207,0.994-2.678,0.153
				c-0.162-0.29-0.269-1.491-0.45-1.486c-0.511,0.015-1.036,0.06-1.547,0.074"/>
		</g>
	</g>
	<g>
		<g>
			<path d="M271.914,53.64c-3.123,0.687-4.708,4.305-4.495,7.221c1.082-0.081,1.579,0.297,1.634-0.843
				c0.081-1.685,0.864-3.431,2.326-4.362c1.426-0.906,2.662-0.262,3.419,1.106c0.633,1.146,0.773,0.716,1.993,0.258
				c-0.773-2.062-2.497-4.033-4.904-3.504"/>
		</g>
	</g>
	<g>
		<g>
			<path d="M269.111,59.639c0.788,1.334,0.641,1.555,2.102,0.921c1.718-0.748,3.645-0.783,4.586,1.085
				c0.668,1.326,1.316,4.521,0.009,5.478c-1.812,1.326-0.359,2.836,1.111,3.556c0.225-0.459,0.532-0.868,0.757-1.328
				c0.129-0.263-0.932-0.536-1.1-0.871c2.759-0.459,1.456-6.005,0.618-7.609c-1.701-3.268-5.293-2.821-8.021-1.213"/>
		</g>
	</g>
	<g>
		<g>
			<path d="M278.688,53.489c0.021,0.511-0.068,1.127-0.049,1.639c0.005,0.141,2.234,0.271,2.57,0.331
				c2.248,0.391,4.458,1.156,6.447,2.259c1.98,1.095,3.738,2.591,5.351,4.184c0.233,0.231,1.486,1.608,1.624,1.504
				c0.409-0.305,1.05-0.566,1.459-0.873c-3.734-4.991-11.03-9.209-17.392-8.977"/>
		</g>
	</g>
	<g>
		<g>
			<path d="M238.102,10.937c-20.342,2.811-35.648,21.499-39.162,41.18c1.402,0.25,1.842,0.857,2.159-0.668
				c0.335-1.624,1.361-3.104,1.866-4.682c1.184-3.68,2.801-7.213,4.713-10.571c4.526-7.951,11.113-14.737,19.457-18.667
				c18.129-8.542,45.065-4.504,56.199,13.174c2.993,4.754,4.229,10.533,5.536,15.939c1.459,6.032,1.962,12.405,5.125,17.86
				c0.371-0.214,2.122-0.818,2.219-1.186c-1.096-1.889-2.042-3.782-2.565-5.896c-0.907-3.651-1.534-7.365-2.41-11.024
				c-1.748-7.315-4.022-14.353-8.863-20.258c-10.621-12.955-28.221-16.905-44.204-14.695"/>
		</g>
	</g>
	<g>
		<g>
			<path d="M278.181,22.804c0.235,0.235,0.761,1.005,1.068,1.045c0.639-0.638,1.574-1.09,2.494-0.751
				c1.582,0.589,2.622,2.523,3.277,3.942c0.851,1.85,1.469,3.841,1.933,5.822c0.147,0.635,0.257,1.287,0.307,1.938
				c0.206,0.167,1.409-0.091,1.702-0.114c-0.315-4.169-4.794-17.934-10.827-11.92"/>
		</g>
	</g>
	<g>
		<g>
			<path d="M281.606,23.199c0.576,0.683,1.485,2.457,2.28,1.863c1.423-1.059,2.942-1.934,4.7-2.041
				c4.087-0.25,8.323,1.239,11.855,3.121c7.785,4.15,14.453,10.356,18.6,18.232c2.298,4.367,4.414,9.301,4.376,14.266
				c-0.025,3.251-2.167,6.366-2.733,9.558c-0.779,4.411,0.205,9.548,0.876,14.021c0.746,4.985,3.937,8.12,7.434,11.686
				c0.86-0.846,0.449-0.629-0.471-1.621c-1.635-1.76-2.899-3.802-3.903-5.991c-1.86-4.055-2.53-8.478-2.002-12.837
				c0.427-3.514,1.402-6.972,2.015-10.458c0.856-4.831,0.964-9.976-0.621-14.595c-3.124-9.115-9.982-16.515-17.926-21.776
				c-6.583-4.362-16.99-9.185-24.178-3.078"/>
		</g>
	</g>
	<g>
		<g>
			<path d="M290.124,30.888c0.001,1.481-0.396,1.794,1.006,2.088c1.229,0.259,2.544,0.801,3.333,1.755
				c2.146,2.593,2.682,6.471,3.286,9.697c1.55,8.242,1.087,16.627,1.55,24.958c0.453,8.131,4.96,16.54,12.016,20.828
				c3.444,2.095,7.284,3.3,11.297,3.153c3.649-0.133,8.172-1.355,10.242-4.74c-0.472-0.289-0.533-0.896-1.005-1.186
				c-0.592-0.363-0.77,0.967-1.239,1.383c-1.304,1.154-3.178,1.978-4.852,2.315c-4.112,0.829-8.448-0.065-12.19-1.985
				c-7.085-3.635-11.291-11.848-11.761-19.662c-0.493-8.192-0.228-16.428-1.632-24.55c-0.914-5.284-3.185-14.217-10.06-14.204"/>
		</g>
	</g>
	<g>
		<g>
			<path d="M286.842,32.814c2.547,1.261,5.404,1.79,8.189,2.251c0.383,0.063,2.652,0.722,2.982,0.443
				c0.218-0.186,0.229-1.183,0.276-1.49c-2.229-0.338-4.427-0.797-6.617-1.339c-1.396-0.344-2.777-0.781-4.067-1.421
				c-0.264,0.109-0.613,1.255-0.75,1.531"/>
		</g>
	</g>
	<g>
		<g>
			<path d="M317.927,75.416c0.537,4.585,2.486,8.98,6.719,11.167c3.542,1.832,7.742,1.89,11.653,1.734
				c-0.039-0.986,0.337-1.782-0.769-1.756c-1.514,0.034-3.015,0.058-4.52-0.124c-2.361-0.287-4.782-0.782-6.763-2.141
				c-1.768-1.211-3.003-2.995-3.766-4.986c-0.433-1.134-0.781-2.309-0.956-3.51c-0.133-0.923-0.713-0.48-1.54-0.383"/>
		</g>
	</g>
	<g>
		<g>
			<path d="M291.416,59.868c1.45,4.067,3.786,9.463,8.135,11.114c0.625-1.64,0.67-1.436-0.7-2.419
				c-1.386-0.995-2.479-2.352-3.35-3.8c-0.831-1.382-1.565-2.828-2.157-4.327c-0.541-1.367-0.67-1.046-2.014-0.567"/>
		</g>
	</g>
	<g>
		<g>
			<path d="M207.233,80.919c2.799,2.506,6.117,4.231,9.769,5.086c1.92,0.45,3.851,0.943,5.823,0.956
				c1.365,0.009,4.564,0.355,4.7-1.242c0.019-0.228,0.36-1.209,0.246-1.418c-0.995-0.324-2.143-0.33-3.103-0.746
				c-1.708-0.741-3.456-1.574-4.956-2.685c-1.24-0.918-2.049-2.333-2.919-3.612c-0.822-1.216-1.111-0.476-2.366,0.185
				c1.781,3.386,5,5.763,8.368,7.378c-6.847-0.069-13.596-2.986-17.529-8.723c-1.837-2.678-2.756-5.874-3.286-9.071
				c-0.272-1.654-0.27-3.308-0.238-4.985c0.018-0.955-1.439-0.589-2.275-0.62c-0.266,7.292,1.979,14.817,7.517,19.775"/>
		</g>
	</g>
	<g>
		<g>
			<path d="M216.715,67.318c-0.511,0.026-0.904-0.083-1.417-0.056c2.959,4.043,6.506,6.75,11.109,8.692
				c-3.072-0.325-6.248-0.903-8.978-2.415c-1.304-0.72-2.371-1.836-3.104-3.152c-0.688-1.235-0.655-0.889-2.005-0.438
				c2,5.975,9.89,7.327,15.296,7.738c1.258,0.095,2.523-0.032,3.785-0.032c0.53,0,0.307-0.168,0.385-0.663
				c0.175-1.106-0.123-0.82-1.202-1.204c-4.295-1.532-8.789-3.571-11.982-6.932c3.764-0.01,7.59,0.435,11.344,0.686
				c0.011-0.228,0.157-1.601,0.011-1.611c-0.993-0.066-1.986-0.173-2.979-0.239c-3.419-0.231-6.829-0.45-10.259-0.275"/>
		</g>
	</g>
	<g>
		<g>
			<path d="M193.627,63.494c0.343,3.992,2.687,7.117,6.209,8.925c0.175-0.34,0.983-1.389,0.896-1.727
				c-1.517-0.78-2.804-1.933-3.741-3.374c-1.769-2.724-1.555-6.065-0.688-9.071c0.983-3.397,2.835-6.49,5.097-9.19
				c0.989-1.185,1.814-2.571,3.017-3.542c0.806-0.651-0.208-1.356-0.763-2.093c-5.774,4.348-10.692,12.601-10.052,20.073"/>
		</g>
	</g>
	<g>
		<g>
			<path d="M232.798,92.75c0.234,0.501,0.516,1.1,0.747,1.601c2.95-1.358,6.013-3.062,8.287-5.421
				c-0.367-0.355-0.671-0.741-1.04-1.095c-0.104-0.1-1.879,1.517-2.169,1.724c-1.795,1.286-3.769,2.342-5.771,3.264"/>
		</g>
	</g>
	<g>
		<g>
			<path d="M237.35,90.625c0.454,0.682,0.974,1.338,1.397,2.042c-0.335-0.104-2.149-1.085-2.164-1.071
				c-0.367,0.356-0.721,0.717-1.088,1.073c1.047,1.074,2.481,1.668,3.951,1.871c0.89,0.122,0.583-0.615,1.153-1.184
				c0.633-0.628-1.739-3.394-2.077-3.887c-0.386,0.393-0.796,0.726-1.182,1.119"/>
		</g>
	</g>
	<g>
		<g>
			<path d="M223.548,90.006c0.39,0.118,0.744,0.16,1.136,0.278c0.787,0.236,0.726-1.073,0.991-1.711
				c0.595-1.436,1.481-2.815,2.738-3.77c1.156-0.878,2.58-1.207,4.014-1.243c0.286-0.007,1.624,0.114,1.645-0.087
				c0.059-0.508,0.187-1.029,0.243-1.537c-5.804-0.653-9.238,2.814-10.813,8.061"/>
		</g>
	</g>
	<g>
		<g>
			<path d="M250.282,114.33c0.205,0.513,0.399,1.029,0.605,1.542c1.965-0.791,3.784-1.9,5.412-3.256
				c-0.482-0.577-0.814-1.512-1.478-0.98c-1.386,1.109-2.895,2.038-4.542,2.701"/>
		</g>
	</g>
	<g>
		<g>
			<path d="M276.598,112.512c0.129,1.032-0.219,1.594,0.899,1.55c1.975-0.081,3.929,0.374,5.689,1.218
				c1.577,0.757,3.042,1.738,4.479,2.731c1.394,0.964,1.146,0.807,2.046-0.471c-3.832-2.694-8.228-5.84-13.164-5.216"/>
		</g>
	</g>
</g>
<g>
	<g>
		<g>
			<path fill="#CFD2D8" d="M187.241,391.878c-12.391-0.134-51.004-6.867-58.339,6.026c15.242,4.4,34.142,1.454,50.458,1.409
				c14.917-0.038,25.207,5.858,40.109,6.064c-14.558,22.342,14.223,18.306,32.239,19.205c23.867,1.192,47.812,1.747,71.791,2.977
				c34.996,1.792,95.976,14.502,129.412-1.488c-7.26-6.347-19.502-3.229-26.285-9.522c21.199-2.117,39.449-1.016,59.844,1.938
				c27.789,4.025,53.348-2.967,80.904-4.5c20.471-1.141,55.938,1.348,72.305-8.767c-6.715-6.368-18.088-8.18-23.107-13.38
				c1.367-0.903,3.041-1.339,4.334-2.154c-0.02-0.021-0.15-2.183-0.18-2.157c-81.871-3.153-163.445-8.449-245.162-16.654
				c-44.872-4.506-93.827-6.246-138.532,0.109c-19.187,2.728-37.141,12.451-56.283,14.202"/>
			<path fill="#F4BF9A" d="M597.267,362.393c3.967-1.486,11.182-5.949,16.232-11.525c5.051-5.58,5.41-5.58,7.936-7.067
				c2.525-1.486,2.885-3.345,3.967-2.973s5.412,3.718,6.854,7.809c1.443,4.091-0.359,6.32-0.721,8.181
				c-0.359,1.859-0.721,1.859-0.721,4.09c0,2.231-1.082,5.951-4.33,10.041c-3.246,4.09-5.049,2.603-11.182,9.666
				c-6.131,7.065-7.574,8.925-10.1,9.298c-2.523,0.371-2.523,0.371-2.523,0.371L597.267,362.393z"/>
			<path fill="#F4BF9A" d="M570.722,356.086c3.246-1.86,11.902-8.925,17.676-10.041c5.77-1.116,11.541-5.95,12.625-7.809
				c1.082-1.86,3.605-6.694,3.605-6.694l3.969,2.23l1.441-2.603c0,0,4.33,3.719,0.721,8.553c-3.605,4.834-4.326,6.694-4.688,9.295
				c-0.359,2.604-4.328,6.322-10.1,8.926c-5.771,2.603-25.25,6.694-25.25,6.694V356.086z"/>
			<path fill="#476687" d="M498.601,358.88c-9.705-3.245,18.758-4.836,30.662-5.58c11.902-0.742,8.295,0.744,12.264,2.977
				c3.967,2.232,7.574,0.743,9.74-0.744c2.162-1.488,14.789-2.603,18.033-2.603c3.248,0,3.248,0,3.248,0s0.721,5.95,1.08,10.04
				C573.989,367.061,511.946,363.341,498.601,358.88z"/>
			<path fill="#476990" d="M593.896,355.729c0,0-16.803,3.219-28.705,3.591c-11.904,0.37-8.939,1.322-21.924,1.322
				c-12.986,0-15.15-0.371-30.301-3.348c-15.15-2.975-29.939-8.925-35.711-8.925s-12.264,0-20.561,0s-13.49-2.641-28.844-5.518
				c-15.145-2.837-28.51-6.38-37.889-7.496c-9.379-1.115-18.311-0.785-23.721-1.157c-5.412-0.371-7.216-0.371-8.658-0.371
				s-2.729,1.821-2.729,1.821s-8.899,4.541-9.26,16.441c-0.361,11.898,0,14.873,1.441,23.797c1.444,8.925,1.444,10.412,1.444,10.412
				l10.099,16.734c0,0,48.697,8.18,68.537,5.948c19.84-2.23,28.855,0.744,39.316,1.86c10.463,1.116,32.824,0.743,51.943,0
				c19.119-0.744,31.021-1.116,50.502-2.23c19.477-1.117,26.951-0.436,26.951-0.436s3.906-6.688,6.07-9.661
				c2.166-2.975,2.166-2.975,2.166-2.975s0.359-4.834-1.805-13.759s0-12.271-1.082-16.734S595.339,355.357,593.896,355.729z"/>
			<path fill="#355673" d="M358.579,387.416c8.023,4.725,18.453,4.482,27.447,6.318c11.832,2.415,24.338,4.695,36.434,7.079
				c18.346,3.614,37.939,5.194,56.633,5.194c26.375,0,52.316,2.538,77.883-2.623c14.137-2.855,29.68-0.272,44.014-1.448
				c0.549-0.045-0.623,0.059,0,0l-5.16,6.24c0,0-18.656,0.806-33.445,0.806s-37.516,2.231-57.713,2.231
				c-20.201,0-38.598-0.744-45.813-1.487c-7.213-0.744-11.902-1.86-17.313-1.86c-5.412,0-17.678,0.746-17.678,0.746
				s-15.871,0-38.957-1.117C361.827,406.38,358.579,387.416,358.579,387.416z"/>
			<path fill="#F4BF9A" d="M357.448,336.518c-8.297-1.487-11.184-3.347-32.104-2.23c-20.922,1.115-22.249,0.741-34.874,0.741
				c-12.625,0-22.803,4.105-30.018,7.452c-7.214,3.347-17.626,9.348-22.565,12.006c-5.383,2.9-6.852-2.483-11.179-2.483
				s-3.817-11.593-4.058-17.269c-0.244-5.678-1.53-9.254-6.388-8.479c-4.86,0.775-4.773-2.221-6.969-2.172
				c-2.195,0.045-3.02,0.674-4.09,0.515c-1.069-0.161-3.13,1.411-4.993-0.75c-1.865-2.159-5.887-3.769-7.453-0.621
				c-1.565,3.149-2.238,4.434-9.952,4.78c-7.71,0.346-21.91,4.153-25.863,6.191c-3.954,2.041-3.413,13.098-2.691,19.046
				c0.721,5.951,46.017,39.048,47.822,40.162c1.804,1.115,17.597-13.664,30.225-0.621c9.124,9.424,69.96,0.996,85.831,0.624
				c15.871-0.37,42.566-7.437,42.566-7.437s-2.166-6.692-2.526-24.913C357.808,342.839,357.448,336.518,357.448,336.518z"/>
			<path fill="#6E7D8F" d="M404.333,403.758l0.621,23.808c0,0-4.4-1.551-12.836-0.206c-5.418,0.863-13.598,4.968-19.71,4.678
				c-15.63-0.742-23.464-1.779-25.627-1.779c-2.165,0-17.617-2.776-21.944-3.521c-4.328-0.743-18.079-1.888-18.079-1.888
				s-4.33,0.494-12.505,0.248c-8.176-0.248-11.381-6.31-21.24-8.788c-9.86-2.479-19.96-5.701-22.363-8.182
				c-2.407-2.478-6.734-2.974-10.102-4.461c-3.366-1.487-7.213-4.464-7.213-4.464s2.13-4.992,7.66-17.389
				c5.529-12.396,30.412-13.735,38.831-12.99c8.418,0.743,22.365,3.47,37.755,7.188c15.391,3.719,37.755,13.388,44.007,16.608
				c6.252,3.224,7.309,1.456,15.006,4.927c7.697,3.472,3.028,4.742,10.002,3.997C393.571,400.802,404.333,403.758,404.333,403.758z"
				/>
			<path fill="#7F90A7" d="M388.185,402.724l8.695,1.034c-4.502-2.318-6.66-5.388-11.387-7.245
				c-4.727-1.856-8.534-2.856-13.486-5.874c-4.95-3.018-11.254-4.871-19.58-7.657c-8.328-2.784-22.057-11.369-38.711-16.241
				c-16.656-4.871-29.484-8.121-38.938-8.352c-9.45-0.231-22.505-0.463-29.031,5.104c-6.527,5.568-8.554,7.19-11.705,16.473
				c-3.151,9.281-3.602,15.544-3.602,16.241c0,0.696,0.902,3.249,3.829,4.177c2.924,0.927,4.951,2.32,4.951,2.32
				s-2.251,6.494-2.251,8.931s2.703,4.871,3.713,4.525c1.014-0.35,4.728-4.525,6.078-5.916c1.35-1.394,1.35-1.394,1.35-1.394
				s2.025-4.523,2.025-13.919c0-9.398,9.877-16.005,17.979-17.051c8.103-1.042,25.572,0.345,25.572,0.345s3.038,3.479,13.503,5.568
				c10.466,2.088,16.88,5.221,16.88,5.221s3.713-3.481,7.089,1.392c3.375,4.872,9.114,5.221,17.216,7.309
				c8.104,2.088,12.238-3.111,17.979-2.416c5.738,0.696,8.169,0.8,8.169,0.8s5.347,3.027,7.246,3.726
				C385.701,401.274,388.185,402.724,388.185,402.724z"/>
			<path fill="#F4BF9A" d="M403.505,403.966c6.357-1.382,1.598-0.521,7.853-0.521c6.253,0,19.206,1.021,21.13,3.004
				c1.922,1.983-9.106,4.93-9.106,4.93s2.776-0.307,6.001,1.075c4.348,1.862,9.631,0.336,10.352,2.069
				c0.721,1.736,1.449,3.519,1.449,3.519l-1.656,0.208c0,0-0.379,0.042-0.621,1.034c0,0-4.221,2.506-9.752,4.738
				c-5.531,2.229-11.063,4.462-16.594,3.965c-5.533-0.496-7.191,0.199-7.191,0.199s-1.496-2.662-4.141-9.108
				C398.583,412.635,398.937,404.958,403.505,403.966z"/>
			<path fill="#586572" d="M272.875,376.432c10.558-3.105,16.147,2.69,28.155,1.656c6.534-0.563,8.134,1.394,8.134,1.394
				s10.032-1.192,16.087,1.918c29.811,15.32,27.918,7.753,33.45,11.718c5.533,3.968,3.607,2.981,3.607,2.981l-4.969,1.656
				c0,0,4.487-0.424-4.17-0.67c-8.655-0.249-23.325-3.225-29.098-5.453c-5.77-2.231-7.211-5.455-9.616-6.941
				c-2.405-1.489-4.812,0.495-4.812,0.495s-13.464-4.463-16.832-5.208c-3.367-0.741-11.543-2.229-12.264-2.974
				S272.875,376.432,272.875,376.432z"/>
			<path fill="#586572" d="M251.334,397.997c2.67,4.823,16.903,9.976,21.752,12.417c13.796,6.946,26.455,7.747,40.917,9.439
				c7.671,0.896,12.488,4.729,19.819,6.776c10.776,3.006,23.05,1.908,34.204,4.371c2.706,0.595,5.418,0.838,8.015,1.476
				c-33.085,1.217-40.567-4.437-60.812-5.186c-12.938-0.48-26.811-2.759-39.006-6.981c-4.635-1.607-7.784-3.828-11.821-6.114
				c-2.863-1.62-9.567-3.392-11.914-5.415c-2.604-2.243-4.975-2.736-1.876-7.438"/>
		</g>
		<path fill="#8F745E" d="M163.153,329.645c0,0-14.906,5.176-16.769,17.39c-1.863,12.215-3.105,23.602-2.898,24.223
			c0.207,0.62-1.864-0.415-1.864-0.415l0.621,5.383l-2.691,1.035c0,0,2.07,11.801,8.074,15.734c6.003,3.932,6.003,3.932,6.003,3.932
			l-2.277,1.656c0,0,1.864,3.728,4.762,4.142c2.898,0.413,2.898,0.413,2.898,0.413l0.414,1.863c0,0,4.555-0.828,6.418-1.242
			c1.863-0.413,4.14-0.413,4.14-0.413s5.383,2.069,14.699,1.242c9.316-0.829,13.456-3.52,15.733-4.969s6.211-4.141,7.039-4.762
			s3.105-1.656,3.105-1.656s-0.622-4.555-3.313-7.246c-2.691-2.69-7.039-7.453-7.039-7.453s-4.761-5.175-4.14-7.865
			c0.621-2.692,3.519-4.555,5.175-6.005c1.656-1.448,1.036-3.313,1.036-3.313s-5.176,2.898-9.109,0.621s-5.796-5.589-10.972-5.589
			c-5.176,0-8.902-2.484-13.25-3.313s-6.832-0.828-6.832-0.828l1.863-1.655c0,0,0-0.622-1.863-0.829
			c-1.864-0.206-3.727,0.207-3.727,0.207s1.242-2.898,4.555-3.105c3.312-0.206,5.175,2.071,5.175,2.071s-0.828-4.555-4.969-5.384
			c-4.14-0.827-7.659,0.829-7.659,0.829s0.621-3.313,2.484-4.555s2.691-1.863,2.691-1.863s-2.691-0.207-4.555,0.828
			C156.115,338.754,159.427,332.543,163.153,329.645z"/>
	</g>
	<g>
		<g>
			<g>
				<path d="M236.39,357.605c-0.815-0.148-2.114,0.282-2.929,0.133c0.644-3.433,4.672-4.357,7.409-5.787
					c4.014-2.097,7.872-4.464,11.918-6.501c10.456-5.273,21.445-9.984,33.166-11.182c6.608-0.675,13.311-1.015,19.942-0.962
					c7.223,0.056,14.404,0.738,21.601,0.15c6.457-0.529,12.967-2.065,19.436-1.467c3.014,0.277,5.75,2.031,8.683,2.763
					c0.951,0.236,2.622-0.64,2.454,0.494c-0.086,0.608-0.545,0.854-0.633,1.46c-2.301-0.337-4.422-1.14-6.717-1.518
					c-3.219-0.53-6.542-0.719-9.803-0.741c-6.204-0.042-12.354,1.439-18.536,1.896c-12.324,0.911-24.81-0.804-37.089,0.637
					c-10.573,1.238-20.985,4.344-30.491,9.016c-3.459,1.701-6.669,3.917-10.034,5.796c-2.405,1.346-8.594,3.028-9.029,6.297"/>
			</g>
			<g>
				<path d="M238.77,417.385c-0.408-0.795-0.909-1.154-0.029-1.629c1.354-0.734,2.414-1.935,3.623-2.885
					c2.643-2.081,5.08-4.591,6.244-7.793c1.312-3.607,0.424-7.239,0.311-10.94c-0.103-3.334,0.799-6.247,3.025-8.707
					c3.867-4.27,9.558-7.006,14.899-8.932c6.534-2.352,13.733-3.579,20.686-2.904c-0.092,0.965,0.253,1.507-0.825,1.427
					c-1.902-0.146-3.817,0.014-5.715,0.17c-4.141,0.337-8.317,1.056-12.261,2.337c-5.651,1.837-11.915,4.761-15.822,9.402
					c-2.34,2.781-2.458,5.875-2.095,9.407c0.401,3.885,0.697,7.604-1.127,11.188c-2.219,4.364-6.48,7.712-10.781,9.915"/>
			</g>
			<g>
				<path d="M241.017,416.111c-2.055,0-5.556-0.863-5.418-3.529c0.123-2.415,1.103-4.748,1.495-7.129
					c0.586-3.584,1.135-7.172,1.484-10.79c0.183-1.897,0.345-3.791,0.341-5.701c-0.003-1.192,0.799-0.831,1.863-0.853
					c0.141,6.394-0.812,13.472-2.462,19.67c-0.469,1.764-2.096,4.985,0.115,6.062c1.281,0.627,2.857,0.802,4.226,0.482
					c0.946-0.225,0.904,0.556,1.209,1.416c-0.889,0.316-1.914,0.495-2.855,0.495"/>
			</g>
			<g>
				<path d="M236.922,401.944c-2.033-1.146-5.591-1.902-6.87-4.04c-1.496-2.501-0.005-6.741,0.344-9.353
					c0.592-4.464,1.191-9.031,3.756-12.85c1.43-2.127,3.115-4.08,4.791-6.012c0.201-0.233,1.444-1.748,1.618-1.607
					c0.396,0.323,0.85,0.568,1.245,0.893c-2.345,2.872-5.148,5.545-6.948,8.82c-2.009,3.652-2.383,7.822-2.933,11.882
					c-0.259,1.905-1.607,5.635-0.333,7.437c1.198,1.695,4.274,2.592,5.997,3.561c-0.27,0.48-0.431,0.849-0.702,1.33"/>
			</g>
			<g>
				<path d="M359.081,381.684c-0.652-8.948-2.032-17.815-1.818-26.807c0.111-4.4,0.189-8.813-0.211-13.205
					c-0.184-1.993-0.434-3.985-0.936-5.927c-0.458-1.768,0.087-1.54,1.721-2.066c2.25,6.961,1.553,14.661,1.398,21.869
					c-0.22,8.703,0.926,17.332,1.553,25.995c-0.688,0.051-1.167,0.1-1.854,0.148"/>
			</g>
			<g>
				<path d="M364.671,335.524c-2.172-0.234-4.321-0.651-6.504-0.809c-1.682-0.118-1.405-0.066-1.443-1.672
					c1.917-0.028,3.814,0.282,5.705,0.558c0.301,0.045,2.429,0.203,2.406,0.423c-0.056,0.51-0.118,1.006-0.173,1.515"/>
			</g>
			<g>
				<path d="M466.253,350.939c-8.813,0-17.184-3.105-25.75-4.865c-9.061-1.861-18.141-3.688-27.258-5.247
					c-8.333-1.427-16.69-2.801-25.068-3.94c-3.534-0.479-7.144-0.39-10.674-0.896c-2.622-0.375-5.213-0.718-7.859-0.356
					c-1.519,0.206-3.049,0.331-4.488,0.852c-0.32-0.175-1.02-1.407-1.15-1.767c-0.035-0.097,0.346-0.402,0.311-0.501
					c5.9-2.136,11.298-1.21,17.328-0.557c2.914,0.315,5.854,0.495,8.759,0.906c8.651,1.223,17.134,3.529,25.741,5.021
					c8.957,1.555,17.873,3.258,26.768,5.129c3.105,0.653,6.367,0.631,9.436,1.448c6.168,1.646,12.143,2.398,18.514,2.116
					c3.785-0.169,7.59-0.815,11.379-0.841c0.004,0.615,0.137,1.433,0.141,2.044c0.01,1.294-2.656,1.158-3.73,1.2
					c-4.127,0.161-8.264,0.359-12.396,0.359"/>
			</g>
			<g>
				<path d="M560.005,361.254c-3.57,0-6.979-1.043-10.516-1.377c-3.965-0.371-7.967,1.349-11.938,1.4
					c-7.758,0.104-15.285-2.333-22.92-3.48c-4.072-0.613-8.063-1.016-12.059-2.051c-3.959-1.025-8.139-1.296-12.021-2.563
					c-3.895-1.271-7.623-3.159-11.654-3.928c-0.713-0.135-3.766-0.181-3.713-0.746c0.066-0.722-0.186-0.615-0.119-1.336
					c11.373,1.041,21.625,5.3,32.799,7.281c5.428,0.961,10.832,2.293,16.281,3.138c5.447,0.841,10.971,1.146,16.484,0.741
					c2.752-0.201,5.406-0.068,8.18,0.105c2.395,0.149,4.689,0.647,7.057,1.01c5.785,0.881,11.221-1.169,16.932-1.763
					c5.59-0.58,11.117-1.669,16.689-2.396c2.602-0.341,5.191-0.742,7.785-1.121c1.291-0.187,0.861,1.095,1.025,2.222
					c-6.125,0.901-12.068,2.543-18.223,3.242c-3.457,0.393-6.979,0.303-10.41,0.884c-3.199,0.543-6.398,1.707-9.66,1.707"/>
			</g>
			<g>
				<path d="M603.065,397.075c-1.646-0.611-1.441-0.45-0.906-2.252c0.602-2.021,0.924-4.152,0.791-6.265
					c-0.232-3.73-1.689-7.264-2.643-10.84c-0.568-2.122-1.195-4.183-1.121-6.388c0.084-2.41,0.695-4.843,0.441-7.252
					c-0.486-4.646-4.91-6.739-8.4-9.055c0.906-1.365,0.791-1.545,2.295-0.585c1.703,1.08,3.582,2.021,5.012,3.46
					c3.734,3.765,2.51,8.654,2.336,13.452c-0.164,4.516,1.773,8.771,2.846,13.076c1.064,4.276,0.836,8.403-0.699,12.541"/>
			</g>
			<g>
				<path d="M592.608,410.322c-0.508-0.884-1.119-1.217-0.184-1.829c1.49-0.969,2.82-2.183,4.012-3.496
					c2.809-3.101,5.004-6.755,7.955-9.733c0.771,0.764,1.48,0.919,0.656,1.802c-1.529,1.635-2.859,3.446-4.234,5.211
					c-2.338,2.998-4.822,6.134-8.17,8.062"/>
			</g>
			<g>
				<path d="M489.306,413.605c-10.389,0-20.713-1.645-31.066-2.385c-4.818-0.343-9.686,0.016-14.508-0.287
					c-1.898-0.124-3.777-0.611-5.676-0.719c-0.49-0.026-0.709,0.313-0.678-0.271c0.037-0.723-0.721-0.942-0.684-1.664
					c20.623,1.067,41.264,3.149,61.93,2.397c14.643-0.533,29.26-1.13,43.914-1.466c14.971-0.34,29.934-0.939,44.881-1.862
					c2.986-0.185,5.996-0.033,8.975-0.285c1.436-0.12,1.076,1.546,1.186,2.808c-17.951,1.568-36.078,1.423-54.082,1.826
					C525.433,412.104,507.37,413.605,489.306,413.605"/>
			</g>
			<g>
				<path d="M545.905,357.797c-3.268,0-4.92-2.067-7.41-3.627c-2.494-1.559-6.168,0.472-8.855,0.58
					c-7.574,0.292-15.141,0.472-22.725,0.472c0-0.65-0.102-1.213-0.102-1.863c0-0.181,4.855,0.052,5.428,0.032
					c3.783-0.112,7.537-0.851,11.311-1.048c3.564-0.185,7.027-0.096,10.555-0.596c1.518-0.215,3.107-0.42,4.561,0.169
					c1.52,0.614,2.422,1.952,3.721,2.873c2.396,1.697,4.314,1.221,6.637-0.107c2.617-1.494,5.545-1.772,8.512-2.106
					c3.324-0.372,6.643-0.786,9.982-0.848c1.791-0.031,3.543,0.32,5.328,0.271c0.24,0.26,0.068,1.26,0.078,1.645
					c-4.852,0.122-9.699,0.244-14.535,0.726c-2.125,0.212-4.396,0.261-6.408,1.021c-2.057,0.775-3.777,2.597-6.076,2.597"/>
			</g>
			<g>
				<path d="M571.394,357.427c-0.012-2.086-0.438-4.137-0.67-6.204c0.92-0.103,1.609-0.562,1.744,0.474
					c0.246,1.901,0.557,3.788,0.57,5.712c-0.553,0.004-1.08,0.015-1.631,0.019"/>
			</g>
			<g>
				<path d="M571.265,356.258c-0.893-1.414-1.23-1.379,0.188-2.282c1.791-1.142,3.738-2.024,5.578-3.089
					c4.775-2.763,9.857-4.489,15.006-6.392c1.883-0.695,3.387-1.778,4.842-3.17c1.652-1.581,3.133-3.759,5.189-4.845
					c2.285-1.204,4.344-1.326,6.055-3.519c0.443-0.568,0.734-1.263,1.055-1.908c0.258-0.076,1.369,0.707,1.635,0.839
					c-0.621,1.239-1.572,2.301-2.572,3.258c-1.6,1.522-3.275,1.886-5.172,2.794c-1.789,0.858-3.045,2.815-4.42,4.189
					c-1.48,1.481-3.129,2.682-5.074,3.483c-4.396,1.819-9.018,2.938-13.277,5.119c-3.172,1.627-6.115,3.66-9.121,5.572"/>
			</g>
			<g>
				<path d="M598.347,358.188c-0.162-0.324-0.914-1.356-0.57-1.547c1.229-0.686,2.406-1.521,3.453-2.458
					c1.477-1.326,2.91-2.857,3.316-4.873c0.355-1.765,0.541-3.414,1.361-5.058c1.564-3.122,6.201-5.173,5.15-9.203
					c-0.289-1.112-0.967-2.138-2.061-2.491c-0.676-0.22-0.25-0.982-0.152-1.627c2.555,0.395,4.24,2.839,4.24,5.296
					c0,3.769-3.564,5.266-5.342,8.103c-1.691,2.701-1.049,6.05-3.064,8.6c-1.637,2.069-3.936,4.084-6.318,5.274"/>
			</g>
			<g>
				<path d="M599.521,340.239c-0.5-0.233-0.961-0.454-1.461-0.687c1.07-2.3,2.783-4.233,4.525-6.044
					c0.967-1.008,1.98-1.978,2.875-3.054c0.307,0.009,1.021,0.852,1.273,1.063c-2.396,2.876-5.6,5.266-7.213,8.728"/>
			</g>
			<g>
				<path d="M606.849,333.848c-1.26-0.495-2.555-0.894-3.859-1.256c-0.121-0.278,0.363-1.305,0.451-1.617
					c1.357,0.378,2.691,0.831,4.004,1.346c-0.201,0.514-0.396,1.023-0.6,1.537"/>
			</g>
			<g>
				<path d="M595.872,363.59c-0.41-0.922-1.311-1.605-0.281-2.089c1.813-0.854,3.551-1.877,5.229-2.971
					c3.482-2.268,6.789-4.926,9.629-7.966c2.801-3.002,5.404-5.623,8.691-8.084c1.555-1.165,3.004-2.454,4.477-3.727
					c0.941-0.815,1.201,0.247,1.932,1.074c-2.262,1.995-4.525,3.91-6.959,5.692c-2.545,1.863-4.604,4.074-6.75,6.367
					c-4.484,4.798-10,9.171-16.008,11.848"/>
			</g>
			<g>
				<path d="M619.095,352.417c-0.439-0.333-0.889-0.63-1.328-0.964c2.707-3.561,6.713-6.385,10.379-8.866
					c0.172,0.252,0.99,1.128,0.951,1.407c-1.232,0.836-2.424,1.737-3.607,2.643c-2.254,1.724-4.715,3.508-6.445,5.787"/>
			</g>
			<g>
				<path d="M626.278,342.994c-0.314-1.118-1.105-2.038-2.123-2.594c-0.85-0.466-0.273-0.951,0.066-1.802
					c1.752,0.699,3.125,2.126,3.643,3.953c-0.533,0.147-1.07,0.297-1.604,0.446"/>
			</g>
			<g>
				<path d="M629.894,359.957c-0.252-0.442-0.625-0.818-0.877-1.262c-0.002-0.006,1.871-1.676,2.096-2.031
					c0.668-1.048,0.605-2.225-0.205-3.166c-0.258-0.896-0.338-0.059-0.043-0.984c1.316-1.697,1.18-3.726-0.822-4.745
					c-0.672-0.342-0.205-0.186-0.326-0.779c0.271-1.217-0.74-2.112-1.141-3.176c1.377-0.519,1.379-0.755,2.158,0.526
					c0.459,0.754,0.715,1.527,0.637,2.433c0.916,0.596,1.744,1.431,1.986,2.507c0.223,0.996,0.047,2.073-0.381,2.985
					c-0.561,1.198,0.221,1.585,0.26,2.892c0.059,2.148-1.66,3.888-3.396,4.869"/>
			</g>
			<g>
				<path d="M623.386,352.854c-0.35-0.427-0.672-0.845-1.021-1.271c2.838-2.322,5.891-4.731,9.414-5.896
					c0.16,0.485,0.316,0.941,0.477,1.427c0.041,0.13-2.283,1.127-2.607,1.307c-2.24,1.234-4.311,2.772-6.285,4.39"/>
			</g>
			<g>
				<path d="M625.771,357.803c-0.383-0.398-0.773-0.841-1.156-1.239c1.646-1.579,3.646-2.739,5.525-4.011
					c0.316-0.214,2.393-1.808,2.502-1.682c0.332,0.385,0.619,0.767,0.953,1.152c-2.447,2.125-5.469,3.489-7.811,5.74"/>
			</g>
			<g>
				<path d="M624.464,364.877c-0.383-0.397-0.77-0.841-1.152-1.236c2.537-2.46,5.309-4.819,8.738-5.916
					c0.121,0.389,0.277,0.748,0.404,1.136c0.252,0.786-1.367,0.977-2.012,1.316c-2.246,1.188-4.115,2.943-5.926,4.7"/>
			</g>
			<g>
				<path d="M602.044,393.505c-0.232-0.501-0.422-1.024-0.654-1.527c-0.348-0.748,1.426-0.989,2.031-1.339
					c2.102-1.203,3.867-2.902,5.623-4.564c3.734-3.531,7.023-7.468,11.111-10.631c2.816-2.179,4.73-3.476,6.076-6.778
					c0.883-2.161,2.475-4.06,3.16-6.292c0.082-0.274,0.158-2.002,0.109-1.967c0.531-0.375,1.023-0.834,1.555-1.212
					c2.271,3.219-1.881,8.213-3.037,11.188c-1.15,2.982-3.652,4.273-6.148,6.121c-7.094,5.251-11.572,13.125-19.801,16.945"/>
			</g>
			<g>
				<path d="M493.597,402.542c-10.803-0.026-17.117,0.139-27.502-0.44c-10.748-0.598-24.863-3.875-35.395-6.045
					c-9.975-2.055-19.758-4.813-29.666-7.151c-10.447-2.469-21.083-4.15-31.534-6.6c0.095-0.397,0.297-0.977,0.39-1.374
					c0.205-0.87,1.977,0.171,2.688,0.335c2.675,0.612,5.436,0.838,8.114,1.434c5.471,1.214,10.867,2.757,16.328,4.008
					c10.515,2.409,20.832,5.646,31.368,7.925c10.667,2.311,21.446,4.367,32.351,5.054c10.992,0.688,22.059,0.229,33.016,1.429
					C493.696,401.664,493.657,401.994,493.597,402.542"/>
			</g>
			<g>
				<path d="M480.958,402.571c-0.025-0.553,0.109-1.287,0.08-1.841c22.275-1.097,44.588,0.604,66.857-0.733
					c9.004-0.541,18.021-0.874,27.008-1.668c5.625-0.497,11.277-0.776,16.906-1.166c5.152-0.358,10.098,0.262,15.193,0.943
					c-0.074,0.548-0.012,0.596-0.084,1.146c-4.934-0.666-9.924-1.724-14.912-1.396c-5.549,0.361-11.064,1.537-16.605,2.031
					c-9.025,0.806-18.084,1.083-27.129,1.629c-22.369,1.347-44.738,0.474-67.115,1.57"/>
			</g>
			<g>
				<path d="M405.013,428.442c-6.109-5.755-7.876-17.297-3.191-24.465c0.264,0.173,1.215,0.57,1.297,0.849
					c-0.634,0.972-1.152,2.038-1.489,3.144c-0.778,2.553-0.851,5.312-0.565,7.954c0.28,2.604,0.993,5.189,2.246,7.494
					c0.664,1.224,1.563,2.285,2.533,3.283c0.673,0.689-0.216,1.095-0.811,1.726"/>
			</g>
			<g>
				<path d="M376.063,433.456c-4.422,0-8.615-1.979-13.016-2.028c-2.878-0.032-5.686,0.117-8.569-0.109
					c-2.837-0.224-5.705-0.129-8.532-0.447c-4.938-0.558-9.961-0.391-14.849-1.358c-4.553-0.901-8.566-3.177-12.454-5.693
					c0.333-0.514,0.352-0.879,0.685-1.394c0.661-1.025,1.926,0.732,2.827,1.229c2.798,1.54,5.961,2.234,9.09,2.898
					c3.556,0.757,7.072,0.996,10.678,1.238c4.074,0.271,8.096,1.087,12.162,1.433c3.699,0.317,7.453-0.566,11.131-0.177
					c3.369,0.355,6.582,1.914,9.986,2.023c6.6,0.214,12.016-3.9,18.324-5.136c0.088,0.446,0.807,2.522,0.594,2.882
					c-2.146,0.421-4.295,0.848-6.328,1.644c-3.852,1.507-7.521,2.736-11.729,2.736"/>
			</g>
			<g>
				<path d="M318.484,426.929c-6.754,0-13.382-1.245-20.108-1.488c-3.287-0.116-6.561-0.653-9.747-1.566
					c-3.311-0.947-6.389-2.619-9.796-3.24c-2.598-0.544-5.3-0.615-7.825-1.472c-3.33-1.126-6.179-3.283-9.227-4.989
					c-4.963-2.78-12.332-3.559-15.629-8.656c0.608-0.394,1.088-0.369,1.695-0.763c0.257-0.165,2.547,1.715,3.207,2.071
					c3.443,1.853,7.165,2.953,10.64,4.795c3.422,1.815,6.749,3.864,10.462,5.07c3.323,1.084,6.974,0.947,10.264,2.122
					c3.839,1.368,7.139,3.264,11.272,3.604c4.074,0.336,8.109,0.553,12.175,1.038c4.208,0.502,8.447,0.855,12.69,0.853
					c0.616,0,6.345-0.328,6.35-0.279c0.075,0.796,0.018,1.688,0.092,2.483c-2.152,0.201-4.354,0.58-6.515,0.58"/>
			</g>
			<g>
				<path d="M320.842,388.125c-6.063-0.366-11.596-3.959-17.561-5.061c-3.56-0.659-6.986-1.186-10.354-2.561
					c-1.588-0.65-3.154-1.384-4.793-1.895c-0.136-0.363,0.508-1.531,0.631-1.926c3.204,1,6.171,2.659,9.438,3.467
					c3.31,0.817,6.715,1.104,9.999,2.06c2.614,0.762,5.148,1.732,7.726,2.6c1.64,0.553,3.296,1.193,5.031,1.298
					c0.217,0.28-0.09,1.702-0.113,2.089"/>
			</g>
			<g>
				<path d="M355.775,399.203c-4.372-0.602-8.629-1.746-12.864-2.959c-1.902-0.544-3.859-0.899-5.758-1.448
					c-1.846-0.534-3.838-0.854-5.227-2.295c-1.311-1.359-2.253-3.614-4.424-3.716c-1.497-0.071-3.053,0.461-4.305,1.19
					c-1.156,0.673-1.028-0.098-1.672-1.119c2.335-1.471,5.463-3.093,8.184-1.607c1.953,1.063,2.882,4.049,4.987,4.629
					c4.322,1.187,8.624,2.433,12.963,3.558c2.227,0.576,4.43,1.288,6.701,1.674c2.027,0.345,1.656,0.339,1.398,2.218"/>
			</g>
			<g>
				<path d="M394.132,403.292c-4.975-3.994-10.301-7.714-16.049-10.471c-4.795-2.297-10.128-4.099-15.192-5.677
					c-6.635-2.066-12.816-4.693-19.202-7.512c-6.741-2.971-13.547-5.93-20.579-8.181c-10.163-3.253-20.579-6.226-31.058-8.237
					c-11.136-2.135-23.699-3.855-34.993-1.653c-3.72,0.726-7.655,1.217-10.786,3.374c-1.663,1.146-2.538,3.213-3.895,4.714
					c-0.455,0.501-1.061,0.998-1.7,0.501c-0.437-0.34-0.963,0.093-1.399-0.246c7.03-9.028,17.503-12.598,28.491-12.249
					c12.042,0.384,24.085,3.867,35.724,6.871c10.872,2.807,21.713,5.624,31.987,10.19c6.72,2.989,13.583,5.71,20.63,7.871
					c3.167,0.969,6.159,2.399,9.275,3.531c2.788,1.014,5.352,2.553,8.08,3.725c7.702,3.313,15.269,6.736,21.826,12
					c-0.431,0.538-1.123,1.448-1.556,1.987"/>
			</g>
			<g>
				<path d="M276.228,346.772c-0.788,0-2.542-0.611-1.834-1.796c0.093-0.255,0.205-0.553,0.483-0.493
					c1.061,0.221,2.228-0.861,3.393-0.726c0.986,0.112,1.642,0.971,2.2,1.712C279.134,346.064,277.72,346.772,276.228,346.772"/>
			</g>
		</g>
		<g>
			<g>
				<path d="M164.651,332.188c-0.232-0.65-0.411-1.431-0.643-2.079c5.095-1.802,10.666-3.621,16.162-2.731
					c2.561,0.417,5.27-0.395,7.605-1.478c2.148-0.994,3.359-2.533,4.946-4.199c1.593-1.672,4.141-1.351,5.815,0.237
					c0.562,0.534,0.868,1.121,1.144,1.834c0.407,1.044,1.897,0.163,2.626-0.302c0.98-0.621,1.346-1.41,2.567-1.349
					c1.957,0.096,3.201,1.559,3.615,3.399c-0.541,0.12-0.927,0.453-1.467,0.573c-0.76,0.171-0.668-1.575-1.474-1.966
					c-0.718-0.349-1.126,0.348-1.687,0.747c-0.979,0.698-2.07,1.319-3.276,1.412c-2.715,0.214-1.865-2.397-3.618-3.39
					c-2.255-1.281-3.244,1.248-4.637,2.639c-3.799,3.802-8.952,4.019-13.911,3.73c-4.671-0.274-9.413,1.174-13.734,2.704"/>
			</g>
			<g>
				<path d="M234.292,357.018c-3.914-0.765-7.916-2.559-10.264-5.861c-3.495-4.918-2.841-10.791-2.321-16.462
					c0.264-2.889,0.243-7.284-3.676-7.482c-1.32-0.067-2.515,0.427-3.755,0.757c-1.709,0.457-2.161-0.491-3.419-1.404
					c-0.543-0.394-1.804-0.555-2.052-1.057c-0.324-0.647-0.735-1.206-1.058-1.854c1.146-0.572,2.444-0.207,3.499,0.375
					c0.795,0.439,1.821,1.837,2.68,1.553c2.494-0.824,4.673-1.374,7.11-0.038c3.855,2.112,3.432,7.498,2.94,11.148
					c-0.695,5.176-0.351,11.42,4.081,14.944c1.75,1.392,3.866,2.252,6.015,2.809c1.212,0.314,0.296,1.585,0.083,2.685"/>
			</g>
			<g>
				<path d="M142.937,368.533c-0.969-14.337,2.505-37.012,19.79-40.153c0.058,0.317,0.508,2.255,0.33,2.294
					c-0.927,0.202-1.847,0.578-2.719,0.943c-4.218,1.785-7.7,5.093-9.92,9.104c-3.025,5.456-4.537,11.632-5.069,17.819
					c-0.231,2.679-0.17,5.364-0.059,8.05c0.039,0.945,0.374,1.6-0.693,1.671c-0.611,0.042-1.148,0.233-1.76,0.273"/>
			</g>
			<g>
				<path d="M140.855,376.004c-0.333-1.332-0.414-2.716-0.424-4.085c-0.01-1.174-0.47-2.388,0.813-2.627
					c1-0.187,1.442-0.621,1.951,0.278c0.707,1.246,1.708,2.3,2.564,3.442c-0.387,0.287-0.795,0.602-1.183,0.889
					c-0.947,0.713-0.797,0.666-1.583-0.311c0.083,0.969,0.708,1.676-0.34,1.938c-0.596,0.149-1.202,0.334-1.797,0.483"/>
			</g>
			<g>
				<path d="M152.494,398.362c-8.521-4.036-14.026-13.752-13.862-23.054c0.723,0.014,1.481,0,2.204,0.014
					c0.568,0.014,0.29,0.791,0.322,1.289c0.217,3.426,1.136,6.882,2.811,9.899c1.682,3.025,4.096,5.609,6.857,7.676
					c0.272,0.204,2.805,1.922,2.782,1.967c-0.341,0.722-0.749,1.481-1.092,2.203"/>
			</g>
			<g>
				<path d="M156.188,402.571c-3.626,0-6.123-1.43-7.763-4.62c1.46-0.26,2.901-0.426,4.393-0.398c0.65,0.012,2.02-0.353,2.02,0.441
					c0,0.553,0.015,1.082,0.015,1.635c-0.869,0-1.703-0.027-2.572-0.03c1.252,0.74,2.802,0.94,4.231,0.903
					c0.641-0.018,0.429,1.473,0.48,2.035c-0.275,0.022-0.527,0.037-0.804,0.037"/>
			</g>
			<g>
				<path d="M155.429,404.959c-0.045-0.551-0.071-1.104-0.12-1.653c-0.062-0.741,1.035-0.573,1.664-0.819
					c0.658-0.255,1.708-1.332,2.137-0.65c0.296,0.468,0.603,0.936,0.897,1.405c-1.386,0.87-2.92,1.575-4.57,1.714"/>
			</g>
			<g>
				<path d="M174.093,406.326c-2.345,0-4.383-1.232-6.601-1.763c-0.199-0.375,0.527-1.999,0.634-2.452
					c2.066,0.492,4.193,1.86,6.377,1.589c2.105-0.263,4.232-0.259,6.351-0.35c3.783-0.161,7.597-0.369,11.315-1.167
					c4.459-0.958,7.27-3.028,10.289-6.26c1.542-1.649,3.615-1.73,5.407-2.893c0.962-0.623,1.404,0.596,2.167,1.401
					c-1.176,1.119-2.547,1.598-4.021,2.155c-1.79,0.672-2.547,2.383-3.887,3.639c-2.5,2.348-5.784,3.6-9.104,4.362
					c-2.994,0.689-6.047,0.933-9.105,1.043c-3.258,0.118-6.583,0.869-9.824,0.869"/>
			</g>
			<g>
				<path d="M158.787,406.573c0-1.417,0.003-2.831,0.93-4.015c0.331,0.258,1.749,1.106,1.531,1.452
					c1.64-0.42,3.248-0.961,4.928-1.206c0.062,0.413,0.115,0.808,0.177,1.222c0.174,1.193-0.311,0.864-1.463,1.15
					c-2.035,0.503-4.014,1.095-6.087,1.432"/>
			</g>
			<g>
				<path d="M203.405,379.428c-6.51,0-9.884-6.523-7.049-12.07c0.48,0.246,1.66,0.506,1.416,1.078
					c-0.711,1.662-1.124,3.616-0.531,5.364c1.226,3.604,5.919,4.876,9.119,3.34c2.986-1.429,5.574-4.619,7.357-7.354
					c1.155-1.771,1.244-3.927-0.333-5.44c-0.241-0.23-1.884-1.205-1.829-1.314c0.229-0.456,0.5-0.843,0.728-1.301
					c4.869,2.433,4.525,6.722,1.474,10.588c-2.586,3.26-5.808,7.1-10.351,7.1"/>
			</g>
			<g>
				<path d="M157.151,339.105c-0.799-0.219-1.598-0.432-2.397-0.652c0.895-3.252,3.115-6.44,6.24-7.877
					c0.202,0.437,0.404,0.831,0.604,1.271c0.529,1.148,0.362,0.828-0.678,1.575c-1.855,1.333-3.196,3.497-3.794,5.683"/>
			</g>
			<g>
				<path d="M167.975,348.855c-1.503-3.833-6.048-5.467-9.898-4.731c-0.887,0.17-3.024,1.28-3.223-0.587
					c1.232-1.675,1.761-3.638,3.479-4.954c0.31,0.405,0.664,0.812,0.975,1.217c-0.055-0.072-1.747,2.302-1.934,2.667
					c4.726-1.061,10.334,1.067,12.185,5.773c-0.514,0.202-1.083,0.425-1.598,0.625"/>
			</g>
			<g>
				<path d="M166.932,349.146c-1.129-1.733-3.436-2.286-5.347-1.673c-0.33,0.108-2.052,1.16-2.061,1.154
					c-0.388-0.331-0.77-0.626-1.158-0.956c2.567-3.006,7.79-2.782,9.967,0.561c-0.463,0.3-0.903,0.585-1.365,0.886"/>
			</g>
			<g>
				<path d="M179.082,356.962c-3.61,0-6.73-2-10.164-2.869c-2.624-0.667-5.287-0.851-7.982-0.919
					c0.362-0.68,0.697-1.568,1.283-2.096c-0.307-0.106-2.782-0.223-2.656-0.067c-0.324-0.398-0.759-0.831-1.081-1.23
					c1.514-1.231,3.554-0.556,5.168,0.12c1.2,0.504,1.224,0.301,0.944,1.568c3.476,0.288,6.805,1.233,9.986,2.652
					c3.354,1.499,6.226,1.096,9.767,0.765c0.026,0.289,0.313,1.387,0.148,1.591c-1.805,0.165-3.597,0.437-5.414,0.437"/>
			</g>
			<g>
				<path d="M196.041,363.784c-2.508,0-4.506-1.205-6.374-2.753c-1.068-0.885-2.186-1.723-3.403-2.398
					c-0.057-0.287,0.713-1.266,0.866-1.541c2.991,1.662,5.188,5.113,8.912,5.113c1.632,0,3.336-0.326,4.855-0.906
					c1.438-0.546,1.171-0.429,1.884,0.888c-1.999,1.079-4.474,1.646-6.741,1.646"/>
			</g>
			<g>
				<path d="M210.967,393.606c-0.976-0.07-1.551,0.211-1.577-0.835c-0.049-1.822-0.903-3.515-1.909-5.003
					c-1.724-2.557-4.052-4.63-6.287-6.725c0.47-0.496,0.907-1.475,1.489-0.932c1.183,1.107,2.34,2.246,3.465,3.409
					c2.606,2.705,5.052,6.081,4.768,10.038"/>
			</g>
			<g>
				<path d="M210.382,391.654c-0.652-0.512-1.36-1.052-2.012-1.563c4.567-5.805,17.336-5.922,21.855,0
					c-0.391,0.301-1.571,1.546-2.032,1.536c-1.287-1.688-3.476-2.422-5.496-2.827c-3.846-0.767-9.623-0.481-12.279,2.893"/>
			</g>
			<g>
				<path d="M189.904,338.614c-0.136-2.357-1.678-4.331-2.607-6.424c1.417-0.628,1.313-0.894,2.075,0.57
					c0.954,1.83,2.038,3.651,2.16,5.764c-0.551,0.032-1.093,0.055-1.645,0.088"/>
			</g>
			<g>
				<path d="M180.733,334.89c-1.249-1.247-1.896-2.816-2.035-4.569c0.407-0.031,0.799-0.055,1.207-0.086
					c0.802-0.065,0.586,1.231,0.887,1.907c0.126,0.285,1.107,1.586,1.025,1.666c-0.36,0.361-0.714,0.702-1.076,1.065"/>
			</g>
			<g>
				<path d="M208.375,329.784c-0.56-1.572-1.365-3.093-1.553-4.771c0.338-0.039,1.358-0.339,1.634-0.175
					c0.17,1.537,0.938,2.95,1.458,4.388c-0.519,0.187-1.035,0.393-1.554,0.578"/>
			</g>
			<g>
				<path d="M201.355,373.709c-5.344-1.464,0.543-10.813,4.077-5.516c-0.303,0.201-1.002,0.902-1.35,0.902
					c-0.658-0.987-1.539-1.116-2.36-0.236c-0.617,0.66-1.417,2.274-0.455,3.002c0.732,0.552,0.354,0.887,0.092,1.848"/>
			</g>
			<g>
				<path d="M207.116,373.375c-1.755,0-5.979-2.319-4.949-4.604c0.212,0.098,1.535,0.729,1.535,0.611
					c0.055,1.168,2.453,2.37,3.421,2.37c1.232,0,1.002-1.843,1.164-2.667c0.083-0.421,0.776-4.325,0.084-3.911
					c-0.422,0.271-0.741,1.95-0.896,1.957c-0.512,0.022-0.983-0.02-1.495,0.003c-0.056-1.349,0.693-3.264,2.146-3.59
					c1.865-0.417,2.458,1.455,2.35,2.872c-0.168,2.196-0.288,6.926-3.361,6.926"/>
			</g>
		</g>
		<g>
			<path d="M367.519,384.298c-0.158-9.015-0.86-17.92-1.465-26.905c-0.308-4.539-0.607-9.07-0.843-13.612
				c-0.116-2.251,0.026-4.537-0.312-6.764c-0.283-1.831-0.577-1.578,1.105-1.905c1.559,8.067,0.873,16.455,1.52,24.623
				c0.65,8.199,1.754,16.311,1.9,24.545c-0.553,0.009-1.27,0.006-1.82,0.016"/>
		</g>
		<g>
			<g>
				<path d="M425.801,411.299c-0.176-1.557-0.394-1.501,1.104-1.792c2.088-0.401,4.498-0.948,4.867-3.448
					c-5.273-0.664-10.358-2.164-15.68-2.711c-2.213-0.23-4.439-0.146-6.62,0.294c-1.698,0.346-3.313,1.025-4.94,1.615
					c-1.225,0.442-0.996-0.155-1.406-1.24c7.017-2.672,14.371-2.982,21.621-0.986c1.612,0.445,3.09,1.161,4.766,1.365
					c1.643,0.201,4.338-0.284,3.941,2.12c-0.602,3.648-4.463,4.401-7.598,4.75"/>
			</g>
			<g>
				<path d="M412.181,429.322c-3.924,0-7.854-0.271-11.766-0.53c-2.396-0.159-4.787-0.311-7.188-0.344
					c-0.645-0.01-1.934,0.334-1.934-0.511c0-0.553,0.142-1.097,0.142-1.649c6.347,0,12.61,0.687,18.937,1.013
					c2.42,0.122,5.135,0.388,7.454-0.418c0.595-0.207,2.675-1.795,3.167-1.61c0.297,0.112,0.646,1.637,0.793,1.962
					c-3.244,1.469-6.008,2.238-9.605,2.238"/>
			</g>
			<g>
				<path d="M417.276,426.864c-0.062-0.55-0.105-1.071-0.166-1.621c3.355-0.375,7.061-0.059,10.236-1.387
					c0.973-0.409,1.932-1.033,2.582-1.881c0.256-0.332,1.215,0.512,1.547,0.716c-2.709,4.47-9.768,3.671-14.189,4.165"/>
			</g>
			<g>
				<path d="M427.94,423.128c-4.02,0-8.527-0.45-12.383-1.568c0.086-0.295,0.258-1.495,0.496-1.645
					c1.161,0.338,2.39,0.375,3.583,0.569c2.399,0.389,4.803,0.85,7.229,1.015c2.741,0.187,5.291-1.005,7.912-1.657
					c1.223-0.306,2.607-0.428,3.699-1.105c0.549-0.338,1.098,0.611,1.518,1.061c-1.225,1.151-3.275,1.308-4.83,1.695
					c-2.35,0.589-4.773,1.7-7.225,1.7"/>
			</g>
			<g>
				<path d="M428.389,420.023c-2.924,0-5.474-1.337-7.998-2.688c-1.349-0.722-2.646-1.539-4.001-2.253
					c-0.67-0.354,0.055-1.088,0.349-1.682c3.688,1.824,7.47,4.896,11.755,4.881c2.307-0.009,4.619-0.096,6.918-0.313
					c0.842-0.081,3.598,0.018,4.184-0.536c0.607-0.57-0.785-1.986-1.246-2.125c-2.473-0.748-5.199-0.475-7.709-1.255
					c-2.623-0.817-5.066-2.242-7.534-3.429c-2.355-1.132-4.649-2.446-7.103-3.349c-0.839-0.309-1.731-0.521-2.611-0.683
					c-0.146-0.223,0.24-1.313,0.296-1.601c7.537,1.399,13.53,7.306,21.151,8.322c1.582,0.21,3.553,0.087,4.891,1.09
					c1.135,0.85,2.26,2.745,1.307,4.073c-0.975,1.357-4.35,1.021-5.838,1.161c-2.262,0.21-4.537,0.314-6.81,0.314"/>
			</g>
		</g>
		<g>
			<path d="M251.228,401.516c-2.71-1.367-3.564-3.089-4.255-5.887c-0.948-3.839-4.935-5.854-5.986-9.54
				c-0.961-3.374,1.554-6.224,3.233-8.839c0.728-1.134,1.504-2.48,0.524-3.717c-1.006-1.271-0.918-1.003,0.042-2.391
				c3.431,2.371,2.056,5.647,0.077,8.479c-1.042,1.491-2.617,3.112-2.596,5.03c0.02,1.833,1.705,3.202,2.801,4.515
				c1.104,1.327,2.131,2.753,2.801,4.364c0.501,1.207,0.786,2.442,1.208,3.668c0.399,1.152,1.107,2.053,2.141,2.658
				c0.987,0.578,0.416,0.928-0.058,1.866"/>
		</g>
		<g>
			<path d="M230.43,387.634c-2.267-3.627-1.975-8.579-0.039-12.271c0.9,0.471,1.536,0.358,1.089,1.37
				c-0.682,1.539-0.944,3.244-0.949,4.927c-0.005,1.567,0.267,3.157,0.985,4.563c0.453,0.888-0.32,0.923-1.104,1.412"/>
		</g>
		<g>
			<path d="M319.984,424.022c-4.435-1.901-8.667-4.323-13.252-5.862c-3.008-1.01-7.956-2.351-9.697,1.389
				c1.636,0.15,3.219,0.18,4.857,0.15c1.171-0.018,2.819-0.425,3.953,0.029c-0.681,1.705-0.641,1.507-2.517,1.526
				c-2.093,0.021-4.213,0.18-6.302,0.021c-0.764-0.056-1.42-0.225-1.927-0.83c-0.857-1.021,1.837-3.551,2.646-4.026
				c3.791-2.231,9.128-0.061,12.761,1.434c2.483,1.021,4.883,2.235,7.322,3.355c0.348,0.16,2.88,1.144,2.796,1.34
				c-0.202,0.47-0.408,0.919-0.609,1.389"/>
		</g>
		<g>
			<path d="M321.466,381.238c-9.953-0.336-19.871-1.285-29.79-2.118c-4.754-0.398-9.497-0.971-14.264-1.197
				c-2.403-0.113-4.82,0.193-7.226,0.158c-0.342-0.005-2.442-0.16-2.442-0.385c0-0.512-0.278-1.193-0.278-1.703
				c9.898,0,19.769,1.095,29.62,1.961c4.792,0.418,9.583,0.906,14.384,1.243c2.432,0.168,4.882,0.003,7.318,0.113
				c0.343,0.016,2.636,0.159,2.63,0.385c-0.017,0.51,0.057,0.761,0.04,1.271"/>
		</g>
		<g>
			<path d="M361.062,396.743c-2.807-3.213-5.586-4.058-9.674-4.107c-4.926-0.058-8.965-1.783-13.211-4.19
				c-4.478-2.536-8.91-5.174-13.843-6.773c-5.187-1.684-10.616-2.487-15.949-3.584c-5.126-1.055-10.191-2.404-15.187-3.979
				c-5.22-1.646-10.383-3.433-15.791-4.382c-4.73-0.829-9.618-1.56-14.253-0.167c-2.006,0.605-3.636,2.197-5.531,3.09
				c-0.364,0.171-3.392,1.239-3.489,1.049c-0.229-0.456,0.228-0.735,0-1.191c3.827-1.911,7.531-3.875,11.773-4.638
				c4.787-0.857,9.61-0.366,14.321,0.687c5.159,1.153,10.252,2.518,15.302,4.058c5.195,1.587,10.452,2.856,15.766,3.943
				c5.079,1.042,10.552,1.437,15.404,3.31c4.944,1.907,9.259,5.198,13.901,7.702c3.958,2.134,7.386,3.635,11.853,3.689
				c4.125,0.053,7.525,0.92,10.28,4.073c-0.415,0.362-1.245,1.071-1.661,1.433"/>
		</g>
		<g>
			<path d="M395.63,404.519c-3.956,0-7.821-0.813-11.48-2.295c-4.338-1.757-8.242-4.417-12.921-5.249
				c-3.864-0.689-7.782-0.439-11.405,0.965c-2.245,0.87-4.309,2.2-6.41,3.374c-0.564,0.313-1.124,1.128-1.545,0.405
				c-0.279-0.48-0.902-1.026-1.182-1.505c4.523-2.63,9.516-5.01,14.775-5.691c5.25-0.677,10.011,0.91,14.594,3.346
				c4.221,2.241,8.68,3.966,13.49,4.331c2.316,0.175,4.656,0.421,6.953,0.104c0.395-0.056,2.994-0.784,3.03-0.609
				c0.124,0.641,0.437,1.457,0.562,2.097c-2.758,0.54-5.646,0.842-8.461,0.842"/>
		</g>
		<g>
			<path d="M387.729,427.652c-1.627-3.444-3.335-7.125-3.344-11.007c-0.008-3.981,1.861-7.663,3.815-11.037
				c0.443,0.256,0.81,0.535,1.251,0.791c0.131,0.074-1.474,3.168-1.678,3.626c-0.941,2.101-1.752,4.317-1.746,6.636
				c0.008,2.307,0.78,4.535,1.615,6.667c0.48,1.226,0.992,2.439,1.557,3.633c-0.134,0.271-1.227,0.577-1.521,0.716"/>
		</g>
	</g>
</g>
</svg>
