<?xml version="1.0" encoding="utf-8"?>
<!-- Generator: Adobe Illustrator 15.0.0, SVG Export Plug-In . SVG Version: 6.00 Build 0)  -->
<!DOCTYPE svg PUBLIC "-//W3C//DTD SVG 1.1//EN" "http://www.w3.org/Graphics/SVG/1.1/DTD/svg11.dtd">
<svg version="1.1" id="Layer_1" xmlns="http://www.w3.org/2000/svg" xmlns:xlink="http://www.w3.org/1999/xlink" x="0px" y="0px"
	 width="720px" height="450px" viewBox="0 0 720 450" enable-background="new 0 0 720 450" xml:space="preserve">
<g>
	<path fill="#CFD2D8" d="M49.682,206.402c2.677,6.503,1.758,14.157,4.54,21.465c6.139,16.133,21.045,22.762,33.287,31.637
		c22.595,16.381,31.358,21.648,58.803,25.082c15.376,1.93,42.206,4.48,42.805,22.045c0.568,16.65-25.338,40.238-34.746,50.945
		c-10.199,11.604-20.322,24.262-31.886,33.785c-4.514,3.721-10.192,5.492-13.956,9.818c7.947,3.619,22.666,11.182,26.759,18.434
		c4.771,8.451,1.552,21.035,8.848,30.271c21.57,27.299,294.324-2.516,290.722-23.822c-7.206-42.652-42.761-62.188-75.19-85.982
		c-50.737-37.219-103.221-68.615-156.847-100.862c-22.043-13.257-36.04-25.75-62.761-26.242
		c-11.641-0.214-21.629,1.588-31.798-0.839c-20.06-4.788-37.633-14.273-57.841-19.015"/>
	<g>
		<path fill="#476990" d="M517.434,290.141c0,0-8.123,3.248-23.016,31.408c-14.441,27.305-28.712,43.215-40.883,69.582
			c-12.166,26.365-42.318,62.338-42.318,62.338l252.956,0.592l0.494-101.318c0,0-16.991-10.631-25.396-16.303
			c-11.643-7.852-40.342-12.725-40.342-12.725s-4.563-4.936-15.377-7.641c-10.819-2.703-15.55-6.084-21.634-11.492
			c-6.085-5.406-14.197-8.113-18.255-8.787c-4.056-0.678-12.844-2.029-16.898-3.381
			C522.707,291.063,517.434,290.141,517.434,290.141z"/>
		<path fill="#586572" d="M199.525,279.529c-2.283,7.459-12.463,11.615-18.48,15.775c-8.163,5.639-13.819,11.053-20.368,17.949
			c11.237,0.514,23.502,1.762,34.307-1.816c31.803-10.535,62.121-41.938,83.84-66.057c20.847-23.152,19.019-38.676,13.035-65.845
			c-9.069,2.682-7.021,7.787-14.579,13.947c-1.142,0.931-20.543,2.548-21.66,3.519c-19.486,16.94-28.065,44.783-42.574,65.854"/>
		<path fill="#F4BF9A" d="M142.104,119.802c-25.277-1.15-23.886-0.002-42.815,7.21c-18.929,7.211-30.196,21.183-32.449,41.013
			c-2.254,19.83,11.266,37.407,20.281,59.04c9.014,21.631,18.479,33.803,39.209,34.703s53.633-2.703,57.689-3.154
			c4.056-0.451,11.267-1.805,13.97,0.902c2.704,2.703,6.459,10.775,5.106,14.381c-1.352,3.604-0.722,7.318-1.624,14.078
			c-0.902,6.76-8.936,20.307-8.936,20.307s-17.08,49.482,60.438,89.145c77.517,39.658,165.909,48.125,165.909,48.125
			s39.278-55.273,55.501-87.725c16.226-32.447,29.17-52.793,35.03-59.553c5.857-6.758,8.112-9.914,8.112-9.914
			s-3.604-14.873-29.743-30.197c-26.142-15.322-99.154-64.899-122.138-70.757c-22.986-5.86-36.501-9.254-58.582-0.689
			c-22.083,8.563-27.628,17.239-37.094,18.139c-9.463,0.901-19.7-3.028-22.403-4.832c-2.704-1.802-2.704-1.802-2.704-1.802
			s-8.394-4.802-16.226-12.167c-6.339-5.961-7.062-5.804-7.513-13.016c-0.452-7.211-0.836-15.521-10.417-23.941
			c-7.933-6.971-14.361-12.594-21.877-16.829c-3.888-2.189-12.051-5.288-19.712-5.288
			C161.453,126.979,152.019,120.252,142.104,119.802z"/>
		<path fill="#E0A880" d="M193.878,257.039c10.277,5.846,19.141,14.732,17.79,26.938c-0.786,7.092-10.123,26.367-19.158,24.918
			c1.679-6.682,6.795-12.146,8.699-18.547c2.024-6.814,0.845-15.475,0.845-22.73"/>
		<path fill="#E0A880" d="M293.55,370.92c17.16,4.689,35.579-0.297,52.679,4.096c12.264,3.15,12.941,5.17,25.973,5.891
			c9.515,0.525,20.889,4.721,26.679,11.262c5.26,5.945,8.785,8.938,15.506,13.912c5.155,3.816,14.77,6.609,19.072,10.461
			c7.234,6.473-14.236,19.6-14.865,30.801c-6.728-7.607-13.01-20.096-22.976-25.451c-6.132-3.291-15.367-4.336-20.683-8.615
			c-3.965-3.191-5.574-8.912-8.501-12.814c-16.079-21.465-33.95-1.176-80.225-24.457"/>
		<path fill="#8F745E" d="M90.501,135.152c-7.211,7.453-9.026,9.391-12.567,16.595c-3.539,7.206-0.415,19.947-0.175,25.717
			c0.241,5.77,0.963,11.059,0.963,11.059s0.24,9.136,0.24,9.857s4.882-6.411,5.326-2.484c0.444,3.926,1.644,12.822,8.617,16.427
			c6.973,3.607,5.77,4.087,8.174,9.137c2.405,5.048,6.73,8.415,8.414,8.654c1.683,0.24-6.731,2.164-9.136,5.529
			c-2.403,3.365-5.527,21.154,13.704,24.521c19.232,3.365,25.003-2.162,27.647-5.527c2.644-3.367,3.366-6.012,6.971-5.531
			c3.607,0.48,13.186-0.559,14.287,0.924c1.101,1.479-1.545,2.924,6.149,3.404c7.692,0.48,13.221,0.24,16.828,1.203
			c3.606,0.961,10.337,4.566,12.501,6.73c2.164,2.162-4.809,7.453-13.222,8.895c-8.415,1.441-24.281,3.605-24.281,3.605
			s-4.309,0.146-8.765,0.436c-4.457,0.285-12.149-1.156-14.795-0.916c-2.645,0.24-2.884,4.086-6.732,1.684
			c-3.846-2.406-11.298-4.33-14.903-4.809c-3.607-0.482-9.378-2.885-10.58-2.885c-1.202,0-3.847,3.123-8.894-0.721
			c-5.049-3.848-11.54-10.818-13.224-15.387c-1.683-4.566-4.566-2.402-5.529-3.848c-0.962-1.441-6.009-6.249-6.492-15.865
			c-0.481-9.617-0.959-11.06-6.49-26.206c-5.531-15.146-9.377-23.079-6.252-33.656c3.126-10.578,19.956-36.782,22.84-38.225
			C84.012,132.028,90.501,135.152,90.501,135.152z"/>
		<path fill="#E0A880" d="M118.04,236.712c-6.388-1.089-16.672-1.085-14.309,6.86c7.701-5.975,20.887,14.703,22.378-0.811
			c-1.876,0.404-2.223-3.648-4.238-3.25c0.26-2.147-3.494-1.512-3.38-3.25"/>
		<path fill="#CD8775" d="M178.304,146.893c-16.425,1.717-19.58,13.796-21.348,26.173c6.598-6.414,12.267-21.45,20.896-25.272"/>
		<path fill="#FFFFFF" d="M181.616,145.01c-18.478-6.31-26.444,12.26-27.646,30.05c2.985-1.994,3.668-14.595,8.375-20.038
			c3.178-3.677,7.229-7.345,13.74-8.863"/>
		<path fill="#6E7D8F" d="M149.218,328.859c-9.564,4.25-16.348,5.445-15.435,20.035c0.505,8.07-0.315,14.914-1.082,20.846
			c-0.611,4.713-4.737,7.998-4.737,7.998s-6.818-2.172,5.35-2.172c12.168,0,20.504-11.781,20.504-11.781s2.438-5.416,4.604-11.102
			c0.637-1.668,3.41,1.164,5.687,1.354c8.112,0.676,7.579,19.766,7.579,19.766s4.061,14.891,24.639,32.49
			c14.15,12.1,63.226,47.377,63.226,47.377l163.193-2c0,0-23.721-38.869-62.347-47.543c-31.197-7.008-74.979-27.209-96.61-42.758
			c-21.634-15.549-42.589-45.969-58.815-48.676c-16.225-2.703-24.101-5.434-39.65-1.377
			C149.775,315.371,149.218,328.859,149.218,328.859z"/>
		<path fill="#48545D" d="M163.737,314.723c-9.241,6.246-13.182,32.531-14.316,43.916c-8.25-13.551-6.686-40.9,11.611-44.592"/>
		<path fill="#48545D" d="M152.962,345.928c2.658,6.809,13.187,13.732,17.103,3.508c4.874-12.727-11.913-11.102-2.588-17
			c-2.701-2.053-6.008-3.994-8.821-5.793c-0.938,6.893-2.128,13.922-6.215,19.805"/>
		<path fill="#586572" d="M152.378,345.016c13.454,0.266-2.079-11.283,21.747-12.908c3.119-0.213,0.424-7.295,3.521-8.664
			c16.115-7.123,36.333,16.75,46.979,24.838c17.363,13.182,30.448,29.307,48.754,41.172c23.345,15.131,50.934,18.26,78.284,18.344
			c-18.838-15.428-41.491-14.357-62.25-25.748c-17.996-9.873-38.859-25.707-53.721-40.068
			c-20.482-19.793-40.653-33.08-70.371-30.664c-14.21,14.023-12.702,19.549-14.212,32.162"/>
		<path fill="#7F90A7" d="M402.908,448.529c-18.253-22.309-18.316-44.414-52.796-55.232c-34.479-10.816-54.579-9.236-74.184-34.926
			c-19.604-25.689-46.251-50.875-82.852-48.736c-41.694,2.438-43.726,5.557-44.403,11.641c-0.676,6.086,2.438,12.457,2.438,12.457
			s6.114-19.496,24.366-20.848s26.79-0.191,47.749,20.766c20.956,20.959,44.349,39.221,76.796,52.066
			c32.45,12.844,54.43,19.771,61.19,26.533c6.762,6.76,23.805,40.563,23.805,40.563L402.908,448.529z"/>
		<path fill="#6E7D8F" d="M314.373,177.239c0,0,14.348-11.912,43.859-0.813c28.857,10.855,57.272,22.068,63.356,24.097
			c6.084,2.027,39.963,25.192,60.918,36.009c20.956,10.816,49.166,27.486,70.125,32.217c20.956,4.734,27.042,4.217,38.716,20.58
			c7.834,10.979,10.831,25.99,10.831,25.99s-5.784-17.498-25.388-26.961c-19.606-9.467-41.915-10.818-62.197-14.873
			c-20.279-4.059-56.11-18.254-71.657-29.07c-15.55-10.816-20.956-28.392-43.267-35.83c-22.309-7.436-62.193-18.251-72.335-20.956
			C317.194,184.925,314.373,177.239,314.373,177.239z"/>
		<path fill="#525E6A" d="M428.063,236.305c0,0,47.321,27.717,64.897,37.855c17.579,10.141,19.497,15.303,26.367,19.23
			c7.581,4.332,17.072,0.01,29.241,8.121c12.169,8.113,8.122,12.457,30.924,13.889c8.875,0.555,24.339,6.758,24.339,6.758
			s-5.41-25.012-15.551-32.447c-10.138-7.438-27.717-10.141-39.209-10.818c-11.492-0.674-59.492-12.844-77.067-21.631
			C454.429,248.473,428.063,236.305,428.063,236.305z"/>
		<path fill="#7F90A7" d="M285.56,196.83c0,0-1.351-6.085,12.846-5.408c14.197,0.676,47.687,5.332,81.489,22.91
			c33.8,17.575,38.167,26.44,83.462,47.397c20.898,9.672,28.352,16.906,41.08,21.373c14.855,5.213,34.189,6.047,46.802,8.373
			c16.283,3,21.969,11.664,31.715,27.367l26.804,7.307c-4.731-7.434-26.415-40.074-40.612-45.484
			c-14.196-5.406-19.933-3.389-38.187-4.063c-18.252-0.678-35.153-10.818-45.969-14.195c-10.816-3.381-18.252-10.143-32.449-15.551
			c-14.196-5.406-18.769-15.197-33.658-26.839c-11.97-9.356-29.146-23.97-59.566-31.407c-30.422-7.435-38.602-10.709-50.771-10.709
			c-12.168,0-19.353,1.233-19.353,1.233s-3.388,3.799-6.768,10.559c-3.38,6.761-2.948,11.194-2.948,11.194L285.56,196.83z"/>
		<g>
			<g>
				<path d="M377.439,439.641c-5.945-11.965-13.021-23.611-24.67-30.834c-6.91-4.279-14.129-8.713-21.696-11.576
					c-7.801-2.951-15.959-4.953-23.71-8.033c-15.914-6.322-32.483-12.717-46.362-22.898c-13.076-9.592-24.271-21.451-35.678-32.889
					c-9.96-9.988-20.031-17.645-34.258-19.881c-12.19-1.916-25.464-0.299-34.201,9.086c-11.962,12.846,3.723,29.258-3.344,43.668
					c-5.731,11.689-22.252,13.84-33.296,9.961c0.177-2.461,3.821-0.828,5.388-0.51c3.007,0.609,6.198-0.361,9.255-0.629
					c5.784-0.51,11.504-2.436,15.033-7.223c10.238-13.887-5.837-30.738,5.393-44.277c8.317-10.023,20.909-14.979,33.43-13.635
					c14.838,1.596,25.72,10.432,36.167,20.73c11.498,11.34,22.834,22.832,35.751,32.627c13.642,10.346,29.688,17.029,45.491,23.385
					c15.226,6.125,32.627,9.908,46.953,17.955c12.792,7.18,20.396,21.047,26.735,33.805c-0.431,0.215-1.032,0.49-1.462,0.705"/>
			</g>
			<g>
				<path d="M131.875,368.422c-0.672-0.033-1.302-0.064-1.974-0.098c-0.382-2.238,1.8-1.031,3.293-1.139
					c2.536-0.18,5.064-1.023,7.307-2.223c4.748-2.539,8.081-7.176,9.718-12.242c4.412-13.66-5.513-27.287-1.618-41.045
					c2.554,0.092,0.452,3.039,0.315,4.703c-0.309,3.725,0.524,7.451,1.208,11.111c1.336,7.117,3.566,14.432,2.473,21.744
					c-1.546,10.348-9.876,19.117-20.723,19.117"/>
			</g>
			<g>
				<path d="M165.115,310.785c-0.568-0.35-1.044-0.963-1.504-1.451c5.421-5.094,11.683-9.164,17.63-13.592
					c3.322-2.473,6.571-5.066,9.453-8.051c1.616-1.672,3.269-6.189,5.549-3.396c-8.038,11.373-21.16,17.309-31.115,26.658"/>
			</g>
			<g>
				<path d="M207.639,274.6c-3.234-4.365-5.969-9.25-9.942-13.008c-2.13-2.018-4.646-3.594-7.348-4.744
					c-1.766-0.752-7.569-1.152-6.528-3.424c6.221,1.131,11.731,3.893,16.072,8.531c1.953,2.088,3.676,4.365,5.33,6.689
					c0.983,1.381,4.914,4.9,2.483,5.859"/>
			</g>
			<g>
				<path d="M193.708,307.947c-3.259-0.863,0.757-5.008,1.651-6.891c2.116-4.465,3.792-9.143,5.109-13.904
					c1.205-4.355,2.186-8.811,2.471-13.32c0.135-2.127-1.69-8.082,1.491-7.443c0.994,14.617-3.595,28.998-10.616,41.633"/>
			</g>
			<g>
				<path d="M167.229,355.23c-2.926,0-5.513-1.396-7.249-3.742c1.409-1.779,2.102,0.547,3.455,1.34
					c1.627,0.953,5.14,0.01,4.73,2.322c-0.322,0.014-0.612,0.018-0.936,0.031"/>
			</g>
			<g>
				<path d="M229.367,347.305c-8.002-1.75-16.128-2.648-24.313-2.572c-6.906,0.064-13.962,1.43-20.831,1.166
					c-6.302-0.238-28.276-5.154-19.307-15.25c2.222,1.109-0.645,3.158-0.422,5.176c0.251,2.26,2.585,3.801,4.397,4.754
					c4.232,2.229,9.266,3.625,14.009,4.053c6.523,0.588,13.461-1.203,20.024-1.359c8.997-0.211,18.021,0.377,26.826,2.303
					c-0.104,0.469-0.272,1.254-0.375,1.723"/>
			</g>
			<g>
				<path d="M161.553,342.551c-0.373-4.986,0.277-10.607,6.46-10.553c6.479,0.053,7.689-0.523,7.368-7.172
					c-0.434-8.977,11.653-9.74,18.114-9.139c0.138,2.473-5.269,1.48-7.295,1.717c-5.507,0.645-9.741,2.729-9.138,8.885
					c0.81,8.264-4.592,6.598-10.385,7.311c-4.919,0.609-2.885,9.443-5.289,9.012"/>
			</g>
			<g>
				<path d="M156.363,361.045c-2.71,0.201-0.584-5.99-0.283-7.797c0.638-3.824,1.587-7.59,2.389-11.383
					c1.689-7.98,3.926-16.047,8.351-22.99c2.396,0.777-1.506,5.668-2.243,7.41c-1.546,3.66-2.971,7.391-3.932,11.244
					c-1.944,7.797-3.04,15.779-4.439,23.682"/>
			</g>
			<g>
				<path d="M380.33,464.77c-6.198-2.316-12.015-7.773-17.39-11.436c-9.71-6.611-19.104-13.863-28.021-21.531
					c-6.731-5.791-12.456-12.074-18.092-18.873c-6.138-7.412-13.632-12.521-22.74-15.486c-11.343-3.695-18.998-11.779-28.301-18.572
					c-10.068-7.348-22.861-12.084-34.382-16.629c-5.394-2.129-11.034-3.629-16.47-5.646c-2.838-1.053-5.823-1.68-8.671-2.693
					c-1.516-0.541-5.842-1.035-4.375-3.225c10.659,3.703,21.372,6.996,31.858,11.158c11.637,4.619,25.24,8.145,35.199,15.926
					c9.365,7.32,15.843,15.779,27.372,19.828c9.148,3.209,16.693,7.74,22.771,15.26c12.903,15.957,28.171,27.338,45.078,38.852
					c4.595,3.131,8.584,7.256,13.353,10.113c1.386,0.832,4.88,0.979,3.617,2.832"/>
			</g>
			<g>
				<path d="M241.902,367.906c-8.622-1.898-17.527-1.949-26.254-3.107c-0.308-2.586,7.727-0.805,9.728-0.625
					c5.643,0.51,11.309,1.066,16.851,2.285c-0.103,0.469-0.232,1.047-0.333,1.516"/>
			</g>
			<g>
				<path d="M582.707,317.758c-6.608-11.873-15.21-21.73-28.604-25.695c-13.334-3.947-27.587-3.152-41.188-5.668
					c-15.631-2.889-28.021-12.943-41.918-20.166c-15.543-8.074-31.847-14.695-47.172-23.186
					c-11.861-6.57-22.089-15.097-33.419-22.427c-9.19-5.945-19.193-10.73-29.506-14.242c-13.474-4.6-25.747-8.464-39.667-11.541
					c-6.843-1.513-15.026-3.165-22.034-3.524c-3.48-0.18-7.166-0.942-10.638-0.598c-1.89,0.189-5.614,2.39-5.393-0.614
					c25.835-5.167,55.133,7.005,79.174,15.194c10.929,3.722,20.468,8.889,30.12,15.311c11.395,7.58,22.018,15.756,34.069,22.373
					c14.666,8.057,30.535,13.818,45.382,21.535c14.148,7.354,26.413,18.674,42.386,21.43c13.619,2.348,27.938,0.977,41.212,5.182
					c13.331,4.221,21.197,14.359,27.816,26.252c-0.486,0.27-1.34,1.127-1.877,1.256"/>
			</g>
			<g>
				<path d="M286.117,199.494c-0.477-0.07-0.915-0.147-1.39-0.218c0.595-4.039,2.503-7.846,4.833-11.148
					c2.375,0.931-0.327,3.008-1.087,4.439c-1.139,2.151-2.018,4.497-2.375,6.915"/>
			</g>
			<g>
				<path d="M252.69,201.483c-0.505-0.245-0.812-0.862-1.246-1.225c3.008-3.609,7.451-4.505,11.923-4.933
					c3.854-0.369,7.463-0.487,11.104-2.005c1.955-0.813,5.47-4.34,6.56-1.322c-6.195,4.255-12.106,4.354-19.261,5.288
					c-3.409,0.443-6.751,1.327-9.033,4.064"/>
			</g>
			<g>
				<path d="M609.1,324.309c-9.793-11.014-16.39-23.998-27.128-34.193c-10.492-9.955-25.446-12.709-39.352-12.508
					c-31.741,0.467-64.044-12.869-90.358-30.043c-11.354-7.411-20.756-17.367-31.801-25.222
					c-13.429-9.549-28.527-16.804-43.408-23.885c-16.435-7.821-33.906-13.367-51.84-16.679c-7.832-1.447-15.682-3.726-23.658-3.625
					c-3.412,0.043-6.585,2.51-9.962,3.012c-2.226,0.331-8.304,1.334-8.99-0.943c-0.045-0.148,0.416-1.999,0.369-2.147
					c14.887-4.492,32.249-2.023,47.179,1.145c17.944,3.807,35.636,10.167,52.047,18.293c14.668,7.265,28.596,16.511,41.81,26.172
					c10.921,7.983,20.579,17.25,32.095,24.424c27.035,16.84,57.905,26.033,89.837,25.832c13.617-0.086,28.571,6.16,38.191,16.348
					c4.903,5.197,9.779,10.117,13.286,16.309c1.28,2.264,12.383,19.098,12.491,19.002c-0.334,0.297-2.525,0.314-2.858,0.611"/>
			</g>
			<g>
				<path d="M279.626,201.238c-3.034,0.049,1.041-10.729,1.903-12.746c2.978-6.968,8.853-11.594,15.7-14.467
					c1.509,2.021-4.463,3.854-6.091,4.964c-2.809,1.918-5.189,4.361-6.93,7.296c-2.705,4.566-3.476,9.855-4.451,14.987"/>
			</g>
			<g>
				<path d="M441.42,209.241c-9.805-4.39-19.822-8.183-30.036-11.524c-9.302-3.042-18.788-5.556-27.84-9.321
					c-12.902-5.367-25.48-12.747-39.263-15.628c-5.444-1.138-10.983-0.163-16.412,1.029c-3.326,0.729-6.864,0.839-9.989,2.189
					c-2.031,0.879-4.056,3.779-4.744,0.507c11.349-5.771,23.156-8.042,35.531-4.564c12.405,3.485,23.976,9.225,35.832,14.157
					c8.602,3.578,17.496,6.235,26.349,9.078c10.717,3.441,21.06,7.708,31.331,12.308c-0.276,0.616-0.299,1.179-0.72,1.699"/>
			</g>
			<g>
				<path d="M581.528,276.736c-15.002-6.398-31.351-6.641-46.501-12.266c-15.289-5.686-30.286-13.586-44.135-22.191
					c-12.689-7.883-25.625-15.307-38.41-23.038c-6.384-3.861-12.379-8.383-18.854-12.09c-2.801-1.604-5.765-2.934-8.654-4.38
					c-1.782-0.892-4.27-0.489-2.429-2.786c12.189,5.019,23.598,12.354,34.839,19.143c12.755,7.699,25.014,16.214,37.796,23.859
					c13.242,7.92,28.229,14.105,42.797,19.229c14.654,5.156,29.707,6.906,44.16,13.068c-0.264,0.621-0.599,1.988-1.014,2.514"/>
			</g>
			<g>
				<path d="M526.506,273.373c-24.438-10.635-46.278-26.346-69.112-39.918c-10.47-6.223-21.214-11.951-31.638-18.246
					c-5.671-3.425-11.485-6.578-17.498-9.366c-2.565-1.19-5.175-2.224-7.836-3.183c-1.633-0.586-6.719-1.077-5.432-3.412
					c11.988,3.174,22.938,9.369,33.441,15.79c11.02,6.735,22.274,13.051,33.332,19.721c11.258,6.789,22.228,14.053,33.549,20.736
					c5.915,3.494,11.824,7.014,17.916,10.191c2.605,1.359,5.539,2.049,8.194,3.314c1.56,0.744,6.749,2.059,5.093,4.23"/>
			</g>
			<g>
				<path d="M419.306,445.445c-2.669-1.078,0.181-3.82,1.256-5.266c1.876-2.525,4.336-4.637,6.129-7.215
					c4.162-5.994,7.603-12.484,11.546-18.623c8.795-13.68,17.179-27.615,25.627-41.51c8.616-14.176,16.682-28.51,24.62-43.076
					c7.775-14.27,16.732-28.881,29.236-39.619c2.557,1.715-1.618,2.98-2.962,4.363c-2.604,2.676-5.066,5.498-7.306,8.48
					c-4.882,6.514-8.559,13.822-12.566,20.891c-8.58,15.139-17.09,30.211-26.13,45.086c-15.564,25.609-30.891,51.955-49.35,75.633"
					/>
			</g>
			<g>
				<path d="M671.933,355.305c-7.979-2.092-15.533-7.654-22.502-11.799c-8.825-5.246-17.479-9.703-27.384-12.695
					c-9.261-2.801-18.68-4.688-28.047-7.023c-7.736-1.93-14.046-6.383-22.015-7.375c-9.634-1.197-15.229-3.182-21.396-10.625
					c-2.654-3.203-5.387-6.914-9.553-7.904c-4.877-1.162-10.169,0.93-15.092,0.156c-3.728-0.584-6.118-3.627-9.152-5.691
					c-1.495-1.02-3.536-0.574-5.324-0.908c-1.587-0.291-4.413-0.822-3.873-3.213c8.042-0.195,12.969,6.842,20.817,7.385
					c4.517,0.311,9.108,0.324,13.526,1.578c4.718,1.34,8.492,5.029,11.468,8.711c5.853,7.232,11.686,7.666,20.49,9.035
					c4.428,0.684,8.06,2.273,11.92,4.379c4.308,2.344,9.094,3.193,13.849,4.17c8.69,1.785,17.367,3.721,25.807,6.541
					c10.06,3.361,18.559,9.182,27.669,14.447c4.912,2.842,9.615,6.25,14.806,8.553c1.508,0.668,4.957,0.201,3.817,2.289"/>
			</g>
			<g>
				<path d="M446.532,451.137c-2.49-0.928,0.704-4.287,1.618-5.65c3.867-5.762,8.15-11.238,11.99-17.014
					c8.489-12.754,16.546-25.793,24.888-38.645c8.692-13.389,17.182-26.881,24.883-40.867c4.09-7.434,8.728-14.6,12.384-22.256
					c1.788-3.752,2.459-8.014,4.148-11.813c0.866-1.955,4.186-10.723,6.316-9.156c-10.923,26.143-24.199,51.135-39.086,75.17
					c-14.874,24.014-31.518,46.994-47.29,70.35"/>
			</g>
			<g>
				<path d="M475.043,338.182c-3.374-1.932-5.819-2.951-4.178-7.361c0.41-1.094,5.241-0.914,5.209,1.066
					c-1.744,0.225-4.16-0.873-4.395,1.379c-0.218,2.109,2.673,2.881,4.069,3.68c-0.239,0.414-0.46,0.859-0.7,1.277"/>
			</g>
			<g>
				<path d="M290.341,324.453c-6.146,0-8.181-7.031-6.106-11.9c1.866,0.287,0.148,6.266,2.115,8.545
					c2.683,3.113,6.795,1.709,9.414-0.688c3.031-2.768,3.99-7.596-0.222-9.811c-2.051-1.08-4.457-0.934-6.46,0.141
					c-1.494,0.803-2.767,3.578-4.171,1.564c3.61-4.162,11.139-5.961,14.243-0.1c2.923,5.525-3.25,12.242-8.812,12.242"/>
			</g>
			<g>
				<path d="M386.697,224.583c-5.829,0-10.136-4.11-9.457-10.074c1.794-0.251,1.966,5.943,4.645,7.464
					c2.139,1.215,8.391,0.058,8.346,2.09c-1.177,0.285-2.32,0.41-3.533,0.414"/>
			</g>
			<g>
				<path d="M360.173,268.85c-3.807-2.262-7.592-4.555-11.398-6.813c-1.91-1.137-10.919-4.758-9.371-6.695
					c4.159,1.947,8.14,4.223,12.064,6.6c1.793,1.082,10.515,5.004,8.649,6.895"/>
			</g>
			<g>
				<path d="M210.477,296.34c-0.423-0.229-0.726-0.627-1.148-0.855c9.826-18.15,26.511-29.348,43.739-39.771
					c1.82,1.805-7.457,5.982-9.321,7.184c-4.521,2.914-8.832,6.156-13.021,9.537c-8.176,6.6-15.268,14.395-20.282,23.654"/>
			</g>
			<g>
				<path d="M282.772,229.772c-2.255-1.11,1.188-3.964,1.983-5.565c1.388-2.805,2.211-5.844,2.997-8.862
					c1.662-6.385,3.099-13.063,7.392-18.286c2.289,1.077-1.312,4.328-2.098,5.951c-1.378,2.848-2.251,5.936-3.045,8.99
					c-1.636,6.284-2.965,12.826-7.3,17.896"/>
			</g>
			<g>
				<path d="M422.378,453.293c-5.646-8.592-11.861-16.879-19.528-23.795c-3.527-3.186-7.299-6.102-11.212-8.789
					c-2.461-1.688-4.907-3.41-7.433-4.996c-1.479-0.928-6.83-2.57-4.925-4.568c-1.223,0.668,0.326-0.16,0.062-0.201
					c3.172,1.951,6.215,4.104,9.336,6.135c4.839,3.15,9.572,6.48,13.935,10.27c8.308,7.221,14.864,16.061,20.879,25.215
					c-0.401,0.264-0.656,0.426-1.059,0.688"/>
			</g>
			<g>
				<path d="M124.073,261.893c-8.132,0-17.196-1.506-22.883-7.844c-5.957-6.643-4.809-15.822,0.488-22.477
					c2.888,1.271-0.755,4.475-1.562,6.473c-1.331,3.293-1.766,7.01-0.463,10.348c2.608,6.699,9.979,10.121,16.694,11.172
					c6.319,0.992,13.924,1.369,19.849-1.418c3.236-1.521,5.778-4.627,6.445-8.148c0.482-2.535-2.546-6.324-0.228-7.516
					c3.679,3.9,1.77,10.295-1.434,13.885c-4.173,4.674-11.002,5.545-16.905,5.545"/>
			</g>
			<g>
				<path d="M106.725,248.428c-9.146-6.322-0.43-13.691,7.923-12.228c0.147,1.836-7.704,1.464-9.75,3.854
					c-3.134,3.666,3.888,6.598,1.818,8.396"/>
			</g>
			<g>
				<path d="M180.622,255.725c-6.172,0-10.375-2.898-16.585-2.414c0.624-1.316-1.07-3.281-1.07-3.281
					c-5.928,0.627-13.046,1.502-18.584-1.307c0.404-2.008,6.649,0.273,8.697,0.332c3.963,0.105,7.952-0.52,11.885-0.943
					c0,0,1.195,2.141,1.033,3.582c3.565-0.064,7.104,0.611,10.605,1.18c2.103,0.34,4.254,0.514,6.39,0.447
					c0.394,0.77,0.143,1.578-0.644,1.578"/>
			</g>
			<g>
				<path d="M160.735,274.875c-1.161-3.785,6.114-2.324,8.612-2.58c4.333-0.445,8.651-1.262,12.864-2.379
					c3.451-0.914,6.89-2.061,10.042-3.752c1.947-1.045,4.292-4.5,5.569-1.373c-10.113,8.061-24.605,9.625-37.04,10.066"/>
			</g>
			<g>
				<path d="M268.961,209.459c-8.856-0.651-17.659-5.725-25.146-10.104c-7.247-4.241-15.647-9.046-21.009-15.687
					c1.964-2.803,2.928,0.403,7.209,3.754c4.51,3.532,9.271,6.729,14.193,9.647c4.76,2.82,9.618,5.514,14.749,7.596
					c2.322,0.941,4.628,2.052,7.075,2.598c1.879,0.423,3.888-0.268,2.906,2.355"/>
			</g>
			<g>
				<path d="M257.307,206.793c-0.37-0.003-0.825-0.1-1.194-0.103c-0.776-3.228,6.117-1.83,8.371-2.111
					c3.733-0.466,7.426-1.399,10.922-2.796c6.916-2.768,12.917-7.51,20.131-9.586c1.645,2.787-3.626,3.075-5.535,3.976
					c-3.432,1.62-6.593,3.771-9.988,5.462c-7.12,3.542-14.763,4.92-22.706,4.92"/>
			</g>
			<g>
				<path d="M112.422,181.264c-0.479-0.004-1.009-0.004-1.49-0.008c0.053-7.682,2.449-21.184,11.758-23.063
					c0.754,1.845-4.942,4.746-6.229,6.778c-3.145,4.966-3.984,10.489-4.024,16.292"/>
			</g>
			<g>
				<path d="M152.334,131.52c-0.432-0.217-0.825-0.448-1.256-0.666c1.375-2.718,4.204-4.278,7.223-4.197
					c0.476,1.801-4.76,2.443-5.97,4.834"/>
			</g>
			<g>
				<path d="M145.188,149.301c-6.01,0-2.603-6.921,0.406-8.558c2.109,2.208-4.365,3.461-2.045,6.31
					c3.054,3.748,3.642-2.714,4.077-3.584c3.293,1.485,0.188,5.815-2.437,5.815"/>
			</g>
			<g>
				<path d="M158.088,138.264c-2.782,0-3.113-3.611-2.487-5.554c0.461,0.137,0.912,0.283,1.372,0.421
					c-0.361,0.946-0.468,2.867,0.529,3.525c2.301,1.518,1.687-3.391,4.096-2.387c-0.238,1.858-1.368,4.021-3.51,4.021"/>
			</g>
			<g>
				<path d="M134.183,136.365c-1.449-2.63,11.302-7.955,13.968-8.158c5.918-0.454,13.442,1.23,16.05,7.196
					c-1.662,1.356-3.452-2.75-5.122-3.764c-2.563-1.555-5.775-2.292-8.758-2.298c-2.854,0-5.755,0.541-8.211,2.114
					c-2.73,1.747-4.692,3.994-8.012,4.803"/>
			</g>
			<g>
				<path d="M157.268,174.943c-2.057-1.099,4.331-7.709,5.606-9.617c2.563-3.83,4.974-7.734,7.786-11.395
					c5.323-6.939,11.362-10.533,19.959-11.969c0.958,2.132-6.486,2.985-8.441,3.826c-3.317,1.426-5.984,3.776-8.331,6.485
					c-6.175,7.124-10.293,15.672-16.627,22.705"/>
			</g>
			<g>
				<path d="M154.781,174.973c-0.48-0.002-0.902-0.083-1.382-0.084c0.024-15.971,7.738-37.73,27.757-31.396
					c-0.126,2.084-7.528,0.022-9.847,0.407c-4.34,0.718-7.956,3.504-10.43,7.056c-4.722,6.78-6.165,15.836-6.177,23.937"/>
			</g>
			<g>
				<path d="M156.544,172.451c-2.938-0.182,2.537-12.444,3.55-14.499c3.294-6.674,8.784-11.503,16.518-11.792
					c0.693,2.249-4.232,2.005-5.973,2.786c-3.05,1.368-5.41,3.759-7.234,6.518c-3.375,5.104-5.168,11.079-6.957,16.862"/>
			</g>
			<g>
				<path d="M223.884,185.317c-2.875-4.375-2.853-7.758-3.576-13.093c-0.598-4.407-1.401-9.935-3.593-14.046
					c-4.899-9.192-15.852-17.984-24.522-23.524c-9.35-5.975-20.138-5.376-30.366-8.75c-5.588-1.843-10.652-4.591-16.62-5.034
					c-5.696-0.421-11.586,0.833-17.287,0.833c-1.051-3.768,8.602-2.52,11.25-2.572c6.509-0.127,12.762,0.529,18.814,3.043
					c10.658,4.426,22.592,3.944,32.729,9.563c9.773,5.417,21.38,14.933,27.134,24.59c3.135,5.263,4.223,10.317,5.082,16.077
					c0.439,2.953,0.963,5.775,1.538,8.501c0.431,2.045,2.026,3.774-0.874,4.685"/>
			</g>
			<g>
				<path d="M107.226,234.082c-2.243-1.044-4.432-2.527-6.137-4.328c1.098-1.801,7.499,2.664,6.13,4.308"/>
			</g>
			<g>
				<path d="M98.081,270.475c-2.03-4.281-6.757-5.973-10.034-9.088c-3.927-3.734-5.618-9.203-7.861-13.98
					c-0.282,0.957-0.207,1.74-0.311,2.732c-7.161-5.002-11.664-16.217-11.054-24.81c3.32-0.733,2.846,6.11,3.551,8.613
					c1.214,4.313,2.931,8.926,6.017,12.275c0.57-1.797,0.675-3.354,0.962-5.203c2.463,4.65,4.436,9.512,6.965,14.117
					c3.36,6.117,10.876,8.123,13.836,14.359c-0.606,0.287-1.451,0.932-2.104,1.043"/>
			</g>
			<g>
				<path d="M94.685,176.251c-4.099-13.078,1.984-26.5,15.826-29.399c1.076,2.16-4.507,2.84-6.198,3.785
					c-2.813,1.572-5.177,3.833-6.81,6.619c-1.877,3.204-2.824,6.917-2.81,10.611c0.009,2.063,2.466,8.185,0.07,8.326"/>
			</g>
			<g>
				<path d="M130.268,128.699c-0.451-0.163-0.959-0.349-1.413-0.511c2.591-7.249,13.261-7.139,19.512-7.021
					c0.594,2.325-7.313,1.601-9.333,1.959c-3.419,0.606-7.526,1.949-8.814,5.546"/>
			</g>
			<g>
				<path d="M75.631,192.006c-0.36-4.464,1.154-8.914,1.07-13.41c-0.088-4.857-0.914-9.498-1.604-14.286
					c-1.211-8.411,1.073-14.439,7.127-20.431c2.686,1.584-3.159,5.675-4.29,7.868c-1.962,3.82-1.859,8.029-1.272,12.185
					c0.514,3.643,3.88,28.808-1.078,27.881"/>
			</g>
			<g>
				<path d="M112.11,230.625c-9.005,0-9.597-9.395-15.06-14.25c-3.486-3.102-8.097-5.029-11.109-8.666
					c-2.849-3.437-1.034-7.825-1.652-11.814c-1.955,3.033-4.343,5.364-7.056,7.688c1.622-5.723,1.099-11.137,0.99-17.02
					c3.395-1.034,2.429,9.358,2.225,11.581c1.613-1.968,2.807-4.005,4.209-6.12c2.159,3.949,0.98,7.565,1.635,11.762
					c0.818,5.235,8.77,7.861,12.289,11.034c3.509,3.163,4.278,8.25,7.409,11.658c1.208,1.316,2.91,1.999,4.679,2.252
					c0.864,0.122,2.629,1.867,1.441,1.867"/>
			</g>
			<g>
				<path d="M133.271,248.469c-2.147,0.451-1.142-1.381-1.523-2.775c-0.451-1.646-2.72-1.311-3.982-1.641
					c-2.18-0.57-11.711-7.17-9.848-8.766c3.12,2.182,6.499,6.416,10.251,7.369c3.679,0.932,5.326,1.219,5.049,5.74"/>
			</g>
			<g>
				<path d="M120.083,255.77c-8.335,0-14.669-14.443-3.032-13.32c0.497,2.994-5.229,0.055-5.348,3.918
					c-0.109,3.611,4.018,7.355,7.322,7.984c7.574,1.432,2.364-10.018,10.46-9.295c0.297,1.611-3.751,1.805-4.055,5.113
					c-0.301,3.268-1.675,5.699-5.347,5.699"/>
			</g>
			<g>
				<path d="M603.31,325.605c-0.495-10.361-5.166-22.971-10.273-31.926c-6.045-10.598-15.985-15.438-23.958-24.113
					c1.159-1.869,1.599-1.338,2.928-0.037c2.257,2.215,4.831,4.066,7.339,5.986c5.226,4.006,9.704,8.213,13.315,13.77
					c6.475,9.955,11.876,24.275,12.445,36.227c-0.67,0.031-1.112,0.203-1.763,0.057"/>
			</g>
			<g>
				<path d="M422.826,464.291c-13.492-8.781-23.398-20.311-32.212-33.828c-6.142-9.424-11.655-17.693-20.369-25.193
					c-22.158-19.072-54.382-14.748-78.829-29.723c-13.106-8.027-20.804-21.455-31.472-32.123
					c-9.949-9.947-22.2-19.555-34.934-25.611c-13.455-6.398-29.881-7.068-44.502-5.674c-7.752,0.738-15.476,1.25-23.251,1.789
					c-1.467,0.102-8.307,2.215-9.315,1.029c-1.233-1.449,1.37-3.316,2.39-3.908c1.82,1.592,1.152,0.117,0.25,1.287
					c14.323,0.688,28.423-2.971,42.813-2.846c15.752,0.139,30.471,2.707,43.635,11.561c11.6,7.799,23.127,17.004,32.283,27.57
					c9.949,11.482,18.13,23.576,32.31,29.844c13.474,5.957,28.75,6.75,42.956,10.299c12.461,3.115,24.234,9.311,33.133,18.584
					c7.653,7.969,11.27,19.189,17.724,28.035c4.587,6.279,9.858,11.541,15.733,16.668c2.616,2.285,4.704,5.221,7.563,7.191
					c1.873,1.291,6.899,2.715,4.112,5.188"/>
			</g>
			<g>
				<path d="M136.51,382.109c-4.778-1.951-4.696-7.619-4.143-11.938c0.855-6.699,1.442-12.477,1.015-19.271
					c-0.328-5.186-0.832-12.174,2.815-16.496c2.577-3.055,6.838-4.234,10.458-5.484c0.16,0.455,0.367,0.961,0.526,1.41
					c-3.259,1.123-7.51,1.826-9.951,4.443c-3.668,3.934-2.673,11.221-2.368,16.061c0.413,6.494-0.037,12.027-1.01,18.434
					c-0.377,2.498-0.402,5.148,0.257,7.633c0.606,2.283,3.453,3.082,2.412,5.014"/>
			</g>
			<g>
				<path d="M256.297,451.367c-23.913-12.99-46.261-30.1-66.464-48.254c-9.2-8.268-16.371-19.291-19.645-31.313
					c-2.152-7.904-3.677-22.57,2.186-29.41c2.77,1.242-0.996,7.158-1.381,9.824c-0.756,5.201-0.614,10.518,0.407,15.682
					c2.429,12.295,9.925,23.113,18.932,31.652c10.635,10.086,22.533,19.211,34.23,28.018c5.848,4.402,11.881,8.516,18.032,12.492
					c3.061,1.98,5.917,4.275,9.063,6.111c2,1.17,7.327,2.32,4.705,5.066"/>
			</g>
			<g>
				<path d="M676.053,449.135c-21.802-6.914-42.248-18.143-63.483-26.576c-13.145-5.225-35.958-9.234-33.934-28.082
					c2.245-0.355,1.664,1.799,1.757,3.295c0.144,2.332,0.651,4.477,1.805,6.516c2.048,3.615,5.185,6.365,8.761,8.354
					c7.364,4.092,15.801,5.795,23.571,8.943c11.832,4.789,23.396,10.25,35.063,15.42c5.74,2.543,11.286,5.561,17.088,7.957
					c2.035,0.84,10.337,1.922,9.229,4.186"/>
			</g>
			<g>
				<path d="M133.999,277.121c-4.932,0-8.8-4.008-13.558-4.92c-6.286-0.559-12.312-1.406-18.152-3.947
					c0.47-3.24,2.73-1.125,4.824-0.459c3.06,0.971,6.207,1.602,9.392,1.945c2.067,0.223,4.343,0.039,6.367,0.625
					c3.57,1.031,6.41,3.797,10.09,4.469c2.753,0.502,2.107-2.006,4.738-2.455c2.541-0.436,4.956,1.289,7.429,1.549
					c2.272,0.352,4.753,0.596,7.046,0.375c2.289-0.223,4.615-2.787,5.914-0.045c-3.253,2.93-9.181,2.379-13.176,1.75
					c-2.22-0.232-4.548-1.613-6.802-1.225c-1.728,0.297-1.947,2.463-4.114,2.463"/>
			</g>
		</g>
	</g>
</g>
<g>
	<g>
		<path fill="#0090C0" d="M138.215-12.959c-1.967,8.853-6.395,22.133-8.361,28.528c-1.967,6.393-6.886,16.229-13.772,23.115
			s-7.377,8.853-7.377,8.853s9.836,11.313,28.526,23.117c18.691,11.805,23.117,11.313,23.117,11.313s11.804-20.167,22.133-29.511
			c10.328-9.346,15.248-10.329,23.117-16.231c7.869-5.901,24.546-39.817,24.546-39.817L138.215-12.959z"/>
		<path fill="#ECAF8B" d="M112.147,50.488c0,0-7.377,16.722-17.214,29.511c-9.837,12.788-11.314,14.755-25.577,23.117
			c-14.263,8.362-16.721,13.279-24.591,19.673c-7.871,6.395-11.313,6.886-11.313,6.886s3.442,27.051,6.393,45.742
			c2.951,18.69,4.426,30.985,9.837,45.25c5.41,14.263,8.361,15.246,8.361,15.246s5.41-3.441,6.885-6.394
			c1.476-2.951,1.476-2.951,1.476-2.951s2.458-9.345-1.476-21.641c-3.934-12.296-7.378-18.198-7.378-18.198
			s11.804-9.346,12.789-23.608c0.983-14.264,9.345-21.149,15.246-21.642c5.902-0.492,28.036-11.804,31.479-16.722
			c3.442-4.92,3.442-4.92,3.442-4.92s13.281-0.981,14.264-12.295c0.983-11.312,9.836-21.642,11.312-24.1
			c1.475-2.459,4.919-5.411,4.919-5.411S120.506,61.8,112.147,50.488z"/>
		<path fill="#F2D7C5" d="M49.191,172.466c-0.717,5.449-1.969,21.148,8.483,14.385c7.052-4.564,3.355-21.596-7.5-14.876"/>
		<path fill="#F2D7C5" d="M54.6,216.732c5.973,0.386,7.38,4.426,8.769,10.252c-3.216-1.404-6.132-4.367-7.783-7.793"/>
		<path fill="#F2D7C5" d="M51.158,224.601c4.476,1.996,7.583,5.424,7.314,10.312c-1.802-2.35-3.913-4.663-5.348-7.36"/>
	</g>
	<g>
		<g>
			<g>
				<path d="M95.605,76.429c-2.125,3.232-4.291,6.439-6.415,9.673c-4.407,6.697-10.718,10.448-17.79,13.998
					c-4.125,2.07-7.92,4.423-11.458,7.454c-3.435,2.942-5.915,6.801-8.945,10.139c-3.246,3.575-7.508,5.831-11.482,8.564
					c-2.986,2.054-7.611,4.867-7.986,8.972c0.545,0.051,1.095-0.447,1.64-0.397c0.876,0.079,1.102,0.484,1.476-0.246
					c1.156-2.258,2.928-4.602,4.938-5.975c5.153-3.512,9.535-7.225,13.679-11.886c3.671-4.131,8.128-7.454,12.959-10.269
					c4.641-2.705,9.341-5.183,13.875-8.114c4.357-2.818,7.722-6.639,10.437-11.1c1.325-2.045,3.804-3.354,5.144-5.39
					c4.983-7.579,10.084-15.13,14.596-23.006c1.358-2.373,1.943-5.109,3.107-7.582c-0.495-0.234-0.943,0.047-1.438-0.187
					c-0.997-0.468-1.53,0.645-1.948,1.46c-1.403,2.747-2.158,5.853-3.755,8.49c-3.228,5.333-7.033,10.312-10.523,15.475"/>
			</g>
		</g>
		<g>
			<g>
				<path d="M32.654,130.49c-1.798,6.582,1.473,14.195,2.666,20.638c1.773,9.562,2.98,19.312,3.474,29.035
					c0.172,3.409,0.832,6.454,1.983,9.708c1.557,4.408,2.863,8.962,4.725,13.246c3.313,7.628,7.722,14.53,12.674,21.275
					c1.815,2.473,3.902,4.642,6.032,6.856c0.251-0.239,1.379-1.02,1.182-1.23c-0.631-0.673-1.975-0.745-2.568-1.449
					c-2.744-3.239-5.139-6.922-7.384-10.525c-4.147-6.647-6.435-14.405-9.521-21.585c-1.718-4-3.839-8.18-4.497-12.526
					c-0.463-3.072,0.555-6.395,0.267-9.496c-1.002-10.775-3.399-21.332-5.52-31.933c-0.574-2.859-0.615-5.818-0.45-8.759
					c0.088-1.623-0.15-3.303,0.21-4.878c-0.704-0.116-1.285-1.153-1.987-1.27c-0.174-0.03-0.382,2.838-0.446,3.122"/>
			</g>
		</g>
		<g>
			<g>
				<path d="M41.708,193.359c2.228,9.483,3.772,19.221,7.922,28.088c2.052,4.383,4.75,8.476,6.673,12.917
					c0.386,0.894,0.648,1.843,1.019,2.743c0.25,0.605,0.929-0.063,1.418-0.258c-2.468-6.253-5.51-12.23-8.164-18.397
					c-3.509-8.155-5.346-16.851-7.373-25.459c-0.599,0.143-1.291,0.45-1.889,0.592"/>
			</g>
		</g>
		<g>
			<g>
				<path d="M63.162,123.129c-0.628,8.283-5.125,14.955-9.225,21.952c-1.587,2.706-2.993,5.561-4.031,8.536
					c-1.051,3.012-0.751,6.003-0.85,9.154c-0.228,7.453-3.272,15.18-2.443,22.641c1.551-0.172,2.3-0.009,2.21-1.67
					c-0.115-2.145-0.195-4.329-0.001-6.465c0.419-4.618,1.649-9.172,1.842-13.81c0.151-3.676-0.496-7.269,0.955-10.718
					c1.205-2.865,3.426-5.252,4.962-7.944c2.505-4.387,5.413-8.703,6.991-13.534c0.809-2.48,1.053-5.092,1.253-7.687
					c0.129-1.658-0.449-3.617,0.212-5.167c0.245-0.574,2.056-1.563,1.485-1.969c-0.4-0.287-1.353-0.46-1.757-0.747
					c-1.533,2.149-1.708,4.837-1.907,7.405"/>
			</g>
		</g>
		<g>
			<g>
				<path d="M70.563,156.981c-0.833,8.329-3.124,18.257-8.792,24.756c-2.005,2.299-4.499,4.362-7.681,4.411
					c-1.848,0.029-3.645-0.224-5.226-1.133c-0.328-0.188-2.429-1.727-2.495-1.642c-0.358,0.456-0.582,0.785-0.942,1.239
					c5.223,4.124,11.195,5.263,16.339,0.743c5.381-4.726,8.193-12.38,9.823-19.144c1.582-6.571,0.837-13.462,5.536-18.831
					c2.069-2.366,4.683-3.954,7.455-5.405c1.671-0.874,3.308-1.713,5.075-2.374c0.53-0.199,1.392-0.542,1.16-1.208
					c-0.163-0.465-0.499-1.049-0.659-1.514c-9.36,3.255-18.09,9.502-19.155,20.146"/>
			</g>
		</g>
		<g>
			<g>
				<path d="M56.816,189.054c1.153,4.217,3.697,8.052,5.332,12.1c1.866,4.621,3.514,9.532,4.236,14.478
					c0.446,3.047,0.472,6.668-1.291,9.357c-0.721,1.098-1.949,1.694-3.098,2.324c-0.224,0.122-1.166,0.732-1.11,0.879
					c0.207,0.543,0.254,1.227,0.461,1.77c8.389-3.195,7.253-12.405,5.356-19.574c-1.241-4.68-2.938-9.172-4.926-13.585
					c-0.913-2.031-1.558-4.183-2.393-6.25c-0.104-0.261-0.819-2.155-0.963-2.115c-0.562,0.152-1.38,0.457-1.94,0.609"/>
			</g>
		</g>
		<g>
			<g>
				<path d="M55.675,235.239c0.087,0.481,0.193,0.948,0.28,1.432c4.715-0.856,9.15-3.974,9.494-9.073
					c-0.869-0.058-1.501-0.438-1.637,0.496c-0.181,1.275-0.614,2.5-1.406,3.518c-1.61,2.067-4.17,3.289-6.701,3.748"/>
			</g>
		</g>
		<g>
			<g>
				<path d="M104.646,133.26c-4.711,2.995-9.757,5.744-15.243,6.928c-1.13,0.243-2.292,0.293-3.451,0.353
					c-1.014,0.054-0.604,0.976-0.646,1.943c7.063,0.343,14.597-4.122,20.286-7.741c7.353-4.681,14.519-9.747,17.224-18.4
					c-0.301-0.093-1.535-0.771-1.782-0.639c-0.246,0.786,0.108,1.861-0.209,2.62c-0.713,1.702-2.072,3.079-3.217,4.524
					c-3.455,4.356-8.268,7.545-12.907,10.496"/>
			</g>
		</g>
		<g>
			<g>
				<path d="M134.448,102.536c-1.058,4.539-2.274,9.486-5.493,12.974c-1.182,1.277-2.732,2.171-4.369,2.79
					c-0.752,0.283-1.372,0.215-1.176,1.06c0.124,0.532,0.364,0.686,0.486,1.219c9.353-2.157,11.383-12.724,13.716-20.468
					c1.496-4.96,4.458-9.12,7.676-13.167c1.796-2.26,3.196-4.865,5.175-6.964c0.313-0.331,3.084-2.725,2.99-2.815
					c-0.513-0.496-1.167-1.429-1.68-1.924c-7.744,8.041-14.675,16.171-17.273,27.308"/>
			</g>
		</g>
		<g>
			<g>
				<path d="M51.875,170.144c-3.417,1.153-3.575,5.757-3.35,8.741c0.975-0.072,1.518,0.273,1.475-0.811
					c-0.055-1.363-0.098-2.778,0.353-4.079c0.772-2.234,2.827-3.083,4.965-2.108c2.596,1.185,4.427,4.158,4.262,7.031
					c-0.088,1.495-0.623,2.963-1.545,4.129c-0.655,0.829-0.165,0.816,0.552,1.476c2.552-2.772,3.394-6.685,1.525-10.043
					c-1.479-2.658-4.951-5.259-8.181-4.168"/>
			</g>
		</g>
		<g>
			<g>
				<path d="M105.269,44.975c7.671,7.372,15.699,14.427,24.075,20.989c5.01,3.924,10.245,7.956,15.989,10.755
					c3.571,1.742,7.176,3.484,10.904,4.847c1.82,0.665,3.825,0.828,5.598,1.615c0.52,0.231,1.311,0.994,1.622,0.346
					c0.213-0.444,0.447-1.275,0.66-1.719c-6.933-3.332-14.621-4.854-21.232-8.881c-5.401-3.291-10.228-7.38-15.131-11.361
					c-4.75-3.857-9.459-7.729-13.981-11.854c-1.667-1.521-3.453-2.908-5.095-4.461c-0.582-0.55-1.127-1.136-1.705-1.69
					c-0.358-0.343-1.259,0.959-1.571,1.283"/>
			</g>
		</g>
		<g>
			<g>
				<path d="M214.35,20.451c-1.839,3.814-3.819,7.659-6.345,11.077c-2.702,3.655-6.307,6.569-10.013,9.16
					c-3.63,2.537-7.684,4.467-11.257,7.089c-3.971,2.915-7.226,6.458-10.369,10.235c-4.983,5.995-9.68,12.219-14.241,18.535
					c-1.382,1.915-2.434,4.069-3.818,5.984c-0.383,0.534-0.714,1.107-1.098,1.641c-0.027,0.036,1.755,1.352,1.939,1.488
					c2.108-2.921,3.563-6.335,5.663-9.261c5.89-8.274,12.266-17.02,19.935-23.78c7.262-6.403,16.487-10.278,22.957-17.638
					c2.963-3.367,4.735-7.501,6.707-11.506c0.67-1.363,16.013-25.858,16.674-27.226c0.299-0.621-0.045-0.154-0.583-0.417
					C230.176-3.504,214.671,19.789,214.35,20.451"/>
			</g>
		</g>
		<g>
			<g>
				<path d="M136.533-14.768c0.138,6.04-1.143,12.338-3.154,17.937c-2.32,6.45-4.504,12.914-6.735,19.388
					c-1.523,4.42-4.876,8.265-7.773,11.883c-4.265,5.325-9.951,9.776-13.507,15.637c0.55,0.335,1.243,1.346,1.793,1.68
					c0.416,0.252,2.422-3.287,2.826-3.823c2.348-3.114,5.402-5.646,7.933-8.61c3.524-4.131,7.314-8.88,9.587-13.86
					c1.392-3.049,2.445-6.284,3.548-9.442c1.248-3.568,1.52-7.483,2.821-11.032c2.311-6.304,5.001-12.932,4.845-19.755
					c-0.738,0.017-0.481,0.019-1.218,0.036"/>
			</g>
		</g>
		<g>
			<g>
				<path d="M49.447,140.508c1.684,0.249,3.256,1.058,4.397,2.333c0.173,0.194,0.937,1.331,1.063,1.27
					c0.404-0.208,0.761-0.411,1.167-0.616c-1.248-2.458-3.717-4.116-6.41-4.513c-0.072,0.486-0.124,0.964-0.196,1.45"/>
			</g>
		</g>
		<g>
			<g>
				<path d="M54.886,217.319c1.903,0.387,3.643,1.403,4.866,2.928c0.185,0.231,1.025,1.392,1.135,1.511
					c1.253,1.384,1.644,1.766,2.118,1.555c-1.271-2.875-4.955-6.639-7.881-6.797c-0.56-0.029-0.095,0.169-0.207,0.719"/>
			</g>
		</g>
		<g>
			<g>
				<path d="M52.403,225.71c1.807,0.709,3.345,2.012,4.287,3.725c0.141,0.259,0.768,1.547,0.856,1.685
					c0.995,1.579,1.31,2.023,1.816,1.896c-0.755-3.051-3.732-7.395-6.588-8.056c-0.546-0.125-0.122,0.149-0.329,0.671"/>
			</g>
		</g>
		<g>
			<g>
				<path d="M135.224,56.833c-0.772,1.232-1.656,2.398-2.43,3.632c-0.961,1.536-1.366,1.602,0.178,2.644
					c1.144-1.825,2.395-3.675,3.525-5.508c1.49-2.473,2.839-5.041,4.562-7.36c0.856-1.155,1.752-2.286,2.738-3.331
					c0.75-0.794,0.091-0.986-0.605-1.672c-3.304,3.347-5.644,7.535-8.058,11.541"/>
			</g>
		</g>
		<g>
			<g>
				<path d="M132.081,49.688c-1.469,2.14-2.95,4.292-4.682,6.231c-0.712,0.8-1.579,1.466-2.427,2.126
					c-0.015,0.251,0.9,1.138,1.069,1.354c3.038-2.368,5.07-5.833,7.259-8.94c0.573-0.813,1.135-1.634,1.709-2.447
					c0.625-0.891,0.13-0.766-0.709-1.393c-0.739,1.05-1.501,2.006-2.242,3.053"/>
			</g>
		</g>
		<g>
			<g>
				<path d="M122.532,53.208c-0.501,0.708-0.908,1.481-1.409,2.188c-0.631,0.892-0.153,0.79,0.686,1.43
					c0.933-1.316,1.835-2.604,2.756-3.93c1.044-1.5,2.134-3.012,3.454-4.286c1.093-1.051,1.006-0.825,0.114-1.963
					c-2.274,1.787-3.894,4.262-5.51,6.622"/>
			</g>
		</g>
		<g>
			<g>
				<path d="M146.773,51.922c-3.844,4.821-7.657,9.662-11.242,14.682c0.371,0.265,0.644,0.536,1.014,0.801
					c0.15,0.107,2.051-2.933,2.321-3.293c1.764-2.364,3.706-4.596,5.534-6.912c1.985-2.513,4.146-4.944,6.144-7.45
					c-0.781-0.62-1.12-1.271-1.771-0.452c-0.687,0.859-1.298,1.776-1.981,2.637"/>
			</g>
		</g>
		<g>
			<g>
				<path d="M152.996,53.265c-2.147,3.307-4.498,6.486-6.939,9.585c-1.821,2.312-4.043,4.466-5.354,7.129
					c0.855,0.421,1.267,0.95,1.775,0.037c0.915-1.645,2.229-3.025,3.423-4.467c1.742-2.125,3.476-4.262,5.025-6.532
					c1.449-2.126,2.684-4.396,4.096-6.549c0.436-0.669,0.715-1.44,1.153-2.108c0.219-0.337-0.643-0.643-0.934-0.837
					c-0.797,1.219-1.57,2.444-2.368,3.664"/>
			</g>
		</g>
		<g>
			<g>
				<path d="M158.422,56.479c-2.088,3.069-4.197,6.156-6.695,8.909c-1.909,2.105-4.504,3.797-5.726,6.428
					c0.266,0.124,1.1,0.645,1.365,0.581c0.69-1.491,2.021-2.573,3.166-3.729c1.923-1.942,3.553-4.088,5.193-6.281
					c1.9-2.539,3.674-5.159,5.483-7.759c1.044-1.497,2.413-2.749,3.557-4.171c0.72-0.892-0.095-1.127-0.879-1.778
					c-2.023,2.435-3.788,5.117-5.568,7.732"/>
			</g>
		</g>
		<g>
			<g>
				<path d="M161.374,63.837c-1.412,1.672-2.999,3.189-4.438,4.837c-1.07,1.226-1.896,2.662-2.966,3.888
					c-0.963,1.102-0.954,0.875,0.164,1.919c7.323-8.39,15.767-16.789,20.792-26.78c-1.322-0.666-1.359-0.911-2.128,0.488
					c-1.062,1.926-1.921,3.997-3.207,5.781c-2.501,3.47-5.281,6.753-8.046,10.01"/>
			</g>
		</g>
		<g>
			<g>
				<path d="M165.964,67.72c-2.52,3.051-5.35,5.936-7.568,9.217c0.834,0.565,1.213,1.214,1.862,0.28
					c1.043-1.498,2.187-2.915,3.324-4.344c2.129-2.69,4.155-5.463,6.3-8.141c4.021-5.016,7.635-10.358,9.601-16.544
					c-0.433-0.136-0.535-0.374-0.968-0.512c-0.152-0.048-1.124,2.355-1.26,2.68c-0.881,2.128-1.792,4.25-3.014,6.2
					c-2.462,3.928-5.613,7.36-8.563,10.926"/>
			</g>
		</g>
	</g>
</g>
<g>
	<g>
		<path fill="#CFD2D8" d="M416.636,75.861c8.16,57.123,79.962,35.911,120.287,35.987c39.748,0.074,23.919,41.018,40.219,63.834
			c24.836,34.764,72.68,16.461,101.238,2.104c21.644-10.878,43.872-18.172,63.385-34.126c9.485-7.753,19.571-17.414,23.31-28.865
			c4.728-14.476-0.742-35.774-0.987-50.75c-0.145-8.848,3.424-25.073,0.054-33.318c-7.093-17.356-23.405-12.356-41.495-12.43
			c-53.604-0.214-107.972-3.209-161.528-0.661c-54.029,2.571-99.122,23.929-144.481,50.847"/>
		<path fill="#576260" d="M400.405-14.145c-2.951,20.657-9.592,45.741-6.64,61.234c2.95,15.493,8.854,31.724,16.23,39.101
			s34.676,20.658,53.857,19.183c19.182-1.477,26.56-11.805,45.003-17.707c18.445-5.901,30.248-12.542,30.248-12.542
			s0.738,5.164,0.738,8.853s0,3.689,0,3.689s-0.738,15.493,7.377,39.839c8.116,24.346,15.494,53.857,34.676,57.546
			c19.182,3.688,22.87,14.018,62.709-8.115c39.841-22.134,41.316-34.676,52.382-54.596c11.066-19.92,19.181-37.625,31.725-53.12
			c12.543-15.493,12.543-15.493,12.543-15.493L736.826-3.08L400.405-14.145z"/>
		<path fill="#46514E" d="M537.629,75.124c-11.439,5.657-25.973,6.814-38.548,11.623c-14.769,5.648-11.66,7.886-22.476,17.346
			c20.241-12.458,47.008-15.503,64.712-28.232"/>
		<path fill="#46514E" d="M670.427,149.638c-1.599,11.805-14.819,12.938-19.974,23.493c17.079-0.245,30.347-16.874,34.729-31.607"/>
	</g>
	<g>
		<g>
			<path d="M392.844,44.792c0.543-0.059,1.434,0.143,1.976,0.085c1.048-0.114,0.048-1.711-0.03-2.588
				c-0.232-2.6-0.594-5.224-0.653-7.833c-0.121-5.352,1.264-10.665,1.768-15.995c0.554-5.819,1.209-11.598,2.17-17.363
				c0.571-3.437,0.464-6.992,1.104-10.415c0.121-0.651,1.306-3.553,0.758-3.657c-0.633-0.122-0.7-0.404-1.333-0.526
				c-3.682,19.223-7.203,38.591-5.08,58.209"/>
		</g>
	</g>
	<g>
		<g>
			<path d="M389.321,34.717c1.715,6.557,4.19,12.915,5.93,19.466c2.734,10.31,3.936,22.14,10.854,30.629
				c5.785,7.096,13.974,12.193,22.435,15.307c9.274,3.413,19.653,6.258,29.546,6.934c17.667,1.207,33.069-11.096,48.739-17.66
				c8.232-3.448,17.581-4.893,25.369-9.3c3.794-2.149,7.481-4.942,10.676-7.87c-0.309-0.337-2.031-2.451-2.396-2.114
				c-1.025,0.941-1.103,2.917-2.133,3.858c-2.083,1.911-4.889,2.949-7.38,4.341c-4.712,2.635-10.231,3.704-15.229,5.705
				c-5.228,2.097-10.407,4.348-15.559,6.624c-10.031,4.431-19.567,11.439-30.43,13.621c-10.063,2.024-19.95-2.31-29.642-5.067
				c-13.946-3.967-28.497-9.172-35.108-23.159c-1.886-3.988-4.567-7.643-5.731-11.876c-1.328-4.832-0.947-10.119-2.217-14.966
				c-1.352-5.162-4.694-9.666-6.05-14.826c-0.709,0.203-0.553-0.019-1.261,0.184"/>
		</g>
	</g>
	<g>
		<g>
			<path d="M544.206,60.202c-2.816,6.576-6.222,14.369-6.07,21.706c0.035,1.669,1.188,3.144,1.819,4.689
				c0.246,0.604-0.339,1.575-0.064,2.166c0.594,1.282,1.358,0.254,2.523-0.263c-1.7-3.664-2.661-6.939-1.911-11.018
				c1.735-9.438,6.88-18.399,10.877-27.042c4.691-10.148,9.235-20.414,14.47-30.294c2.562-4.832,5.499-9.479,8.207-14.23
				c1.183-2.076,3.189-3.667,4.415-5.718c0.262-0.44,0.913-2.031,0.426-2.326c-0.553-0.334-0.609-0.391-1.16-0.724
				c-12.308,20.307-22.986,41.741-32.342,63.564"/>
		</g>
	</g>
	<g>
		<g>
			<path d="M545.837,123.424c1.287,4.31,2.297,8.682,3.19,13.094c0.734,3.627,1.89,7.124,2.728,10.736
				c1.573,6.779,2.893,13.973,6.556,19.895c7.262,11.741,19.904,20.979,34.139,21.345c0.015-0.544-0.679-1.726-0.664-2.271
				c0.022-0.981-0.099-1.156-0.952-1.223c-2.392-0.184-4.66-0.529-6.958-1.227c-4.307-1.312-8.971-2.379-12.493-5.174
				c-7.315-5.81-12.288-14.551-15.607-23.212c-1.68-4.39-2.897-9.023-3.56-13.678c-0.847-5.937-2.449-11.507-4.158-17.255
				c-3.023-10.178-6.444-21.681-4.328-32.437c0.44-2.239,0.764-4.547,1.949-6.503c0.278-0.457,1.553-1.589,1.139-1.923
				c-0.5-0.404-1.405-1.295-1.907-1.7c-9.25,11.485-3.633,29.353,0.075,41.787"/>
		</g>
	</g>
	<g>
		<g>
			<path d="M702.627,105.382c-5.354,10.776-9.872,21.936-16.082,32.25c-5.854,9.72-11.477,20.727-19.995,28.342
				c-7.928,7.089-19.346,9.275-29.238,12.771c-8.188,2.891-16.015,8.43-24.562,10.026c-5.694,1.063-11.829,1.152-17.586,0.472
				c-3.035-0.363-5.655-2.885-8.604-3.689c-0.554-0.151-2.088,0.188-2.258,0.724c-0.194,0.616-1.413,1.188-1.605,1.806
				c11.648,3.688,23.879,4.332,35.695,1.209c8.218-2.174,16.403-5.416,24.35-8.402c9.753-3.663,18.809-9.275,26.154-16.883
				c8.188-8.474,15.012-17.88,20.938-28.031c8.553-14.653,16.561-29.561,24.388-44.599c3.971-7.622,7.81-15.326,12.501-22.533
				c2.372-3.646,5.179-6.977,7.854-10.411c1.324-1.699,2.911-3.237,4.323-4.865c-0.041-0.361-1.184-0.916-1.487-1.177
				c-13.914,16.061-25.4,34.093-34.789,52.989"/>
		</g>
	</g>
	<g>
		<g>
			<path d="M701.352,114.134c-6.054,9.683-12.71,19.144-20.773,27.317c-3.788,3.835-7.924,7.323-12.832,9.62
				c-2.253,1.055-4.507,2.172-6.953,2.631c-1.241,0.232-2.526,0.097-3.786,0.156c-1.378,0.065-1.063,0.049-1.057,1.343
				c14.899-0.094,26.051-11.442,34.335-22.582c4.312-5.8,8.329-11.789,12.199-17.886c1.082-1.705,2.344-3.296,3.428-5.002
				c0.472-0.741,1.021-1.436,1.492-2.178c0.36-0.572-1.057-1.124-1.53-1.436c-1.638,2.582-2.954,5.392-4.591,7.973"/>
		</g>
	</g>
	<g>
		<g>
			<path d="M636.263,164.727c-0.012,0.492-0.05,0.92-0.062,1.41c8.791,0.242,17.629-1.401,25.517-5.519
				c8.034-4.194,14.093-10.957,19.142-18.353c-0.224-0.154-0.693-0.681-0.941-0.649c-0.711,1.043-1.129,2.308-1.885,3.319
				c-1.522,2.033-3.723,3.512-5.462,5.36c-2.982,3.17-5.938,6.501-9.707,8.692c-8.013,4.656-17.461,5.679-26.602,5.427"/>
		</g>
	</g>
	<g>
		<g>
			<path d="M673.557,156.405c0.414,0.265,0.739,0.479,1.153,0.745c3.555-5.535,5.422-12.009,6.085-18.508
				c-1.521-0.156-1.438-0.304-1.651,1.344c-0.275,2.122-0.626,4.248-1.186,6.313c-0.959,3.553-2.319,7.067-4.315,10.169"/>
		</g>
	</g>
	<g>
		<g>
			<path d="M506.939,78.793c-4.132-0.104-8.347-0.64-12.47-0.297c0.035,0.454,0.176,1.225,0.216,1.678
				c0.014,0.181,2.324,0.255,2.662,0.243c2.419-0.083,4.839-0.67,7.258-0.616c4.348,0.097,8.697,0.779,13.048,0.62
				c7.696-0.28,16.651-1.486,22.107-7.489c-0.614-0.559-1.361-1.644-2.005-0.982c-0.931,0.958-1.743,2.081-2.866,2.803
				c-2.477,1.587-5.452,2.07-8.315,2.675c-6.452,1.368-13.089,1.627-19.639,1.461"/>
		</g>
	</g>
	<g>
		<g>
			<path d="M489.52,87.693c-3.985,1.05-7.865,2.287-11.785,3.569c0.479,1.466,0.229,1.373,1.837,0.871
				c1.963-0.611,3.959-1.088,5.943-1.627c3.955-1.075,7.809-2.516,11.747-3.649c7.488-2.155,14.837-4.794,21.2-9.385
				c-0.167-0.232-0.375-0.798-0.63-0.868c-1.165,0.841-2.632,1.173-3.871,1.9c-2.456,1.439-4.794,3.104-7.437,4.162
				c-5.493,2.2-11.24,3.716-16.955,5.218"/>
		</g>
	</g>
</g>
<line id="NippleLine" fill="none" stroke="#33499E" stroke-width="3" x1="231.194" y1="407.724" x2="446.253" y2="163.672"/>
<g id="Hand">
	<image id="FingersGlow" overflow="visible" width="443" height="386" xlink:href="mod4/fingersGlow.png"  transform="matrix(1 0 0 1 477.5 -167.5)" />
	<image id="Fingers" overflow="visible" width="412" height="356" xlink:href="mod4/fingers.png"  transform="matrix(1 0 0 1 493 -152)"/>
	<rect id="FingersTarget" x="534.89" y="74.752" fill="none" width="75.017" height="72.141"/>
</g>
<rect id="CompressionsTarget" x="330.09" y="262.096" fill="none" width="47.08" height="35.083"/>
<rect id="FingersTargetFixed" x="534.89" y="74.752" fill="none" width="75.017" height="72.141"/>
</svg>
