<?xml version="1.0" encoding="utf-8"?>
<!-- Generator: Adobe Illustrator 15.0.0, SVG Export Plug-In . SVG Version: 6.00 Build 0)  -->
<!DOCTYPE svg PUBLIC "-//W3C//DTD SVG 1.1//EN" "http://www.w3.org/Graphics/SVG/1.1/DTD/svg11.dtd">
<svg version="1.1" id="Layer_1" xmlns="http://www.w3.org/2000/svg" xmlns:xlink="http://www.w3.org/1999/xlink" x="0px" y="0px"
	 width="720px" height="450px" viewBox="0 0 720 450" enable-background="new 0 0 720 450" xml:space="preserve">
<g>
	<path fill="#576260" d="M234.492-1.503c1.576,21.268,7.876,62.227,8.665,132.331c0.788,70.104,0.528,80.275,0.788,84.283
		c3.819,58.765-14.021,50.653,61.596,53.016c75.618,2.363,88.064-70.344,88.064-70.344s-2.365-34.659,6.302-63.804
		c8.663-29.144,6.301-40.172,7.875-44.11c1.576-3.938,2.364-6.302,2.364-6.302s4.728,66.166,11.022,93.735
		c6.301,27.568,7.877,48.048,8.663,51.987c0.788,3.938,39.386,18.904,76.406,15.752c37.021-3.15,39.384-43.323,49.624-80.343
		c10.235-37.021,15.752-58.289,22.055-89.796c6.303-31.507,16.54-77.193,16.54-77.193L234.492-1.503z"/>
	<g>
		<g>
			<path d="M233.111-0.846c4.678,16.362,5.395,34.247,6.872,51.463c2.116,24.595,3.703,49.351,3.84,74.203
				c0.122,22.58-0.595,45.231-0.506,67.813c0.019,5.275,0.644,36.792,1.246,41.993c1.03-0.22,3.12-0.185,3.004-1.416
				c-0.126-1.293,0.002-28.721-0.043-30.026c-0.157-4.29-0.183-8.558-0.198-12.86c-0.014-4.827-0.69-9.599-0.714-14.423
				c-0.075-13.662-0.506-27.113-0.58-40.774c-0.212-38.659-2.028-77.672-8.091-115.401c-1.136-7.061-0.809-14.661-2.754-21.461
				c-0.734,0.291-0.469,0.305-1.201,0.597"/>
		</g>
	</g>
	<g>
		<g>
			<path d="M404.869,105.864c-0.627,5.863-0.616,11.899-2.321,17.567c-0.696,2.247-1.313,4.53-2.05,6.763
				c-3.05,9.275-7.07,18.335-6.598,28.261c1.156-0.053,2.605,0.31,2.57-0.987c-0.059-2.16-0.124-4.292,0.128-6.439
				c0.485-4.138,1.886-8.038,3.12-12.009c1.479-4.72,2.706-9.521,4.251-14.22c2.308-7.008,2.581-14.477,3.403-21.761
				c0.471-4.141,0.688-8.394,1.722-12.434c0.527-2.067,1.453-4.068,2.264-6.047c0.229-0.57,1.308-1.432,0.594-1.756
				c-0.481-0.217-0.979-0.214-1.457-0.431c-3.36,7.432-4.655,15.477-5.521,23.504"/>
		</g>
	</g>
	<g>
		<g>
			<path d="M409.595,32.778c-0.794,15.833-1.295,31.761,0.629,47.547c0.949,7.814,1.141,15.582,1.396,23.448
				c0.25,7.564,1.104,15.069,3.152,22.397c0.503-0.142,0.573-0.048,1.087-0.19c0.768-0.214-0.105-1.867-0.253-2.515
				c-0.677-2.924-1.313-5.881-1.608-8.867c-0.581-5.819-0.52-11.691-0.717-17.533c-0.397-11.886-1.851-23.603-1.993-35.511
				c-0.181-14.459,0.209-28.92,0.854-43.362c-1.197-0.041-2.281-0.575-2.344,0.685c-0.065,1.601,0.817,3.247,0.747,4.848
				c-0.136,3.027-0.034,6.065-0.173,9.091"/>
		</g>
	</g>
	<g>
		<g>
			<path d="M410.375,17.138c1.228,0.325,1.406,0.662,1.851-0.579c0.525-1.485,1.563-2.75,2.495-4.01
				c1.992-2.681,4.546-4.901,7.273-6.8c2.806-1.954,5.808-3.63,8.95-4.981c1.313-0.563,2.632-1.142,3.996-1.577
				c1.538-0.489,1.399-0.369,0.987-1.883c-5.377,1.46-10.484,4.118-15.029,7.323c-4.389,3.091-8.935,7.164-10.354,12.528"/>
		</g>
	</g>
	<g>
		<g>
			<path d="M381.678-1.768c5.836,1.146,11.525,3.963,16.483,7.181c2.502,1.623,4.879,3.521,6.995,5.629
				c0.938,0.945,1.774,2.011,2.563,3.093c0.816,1.119,1,0.686,2.104-0.024c-2.997-4.651-7.979-7.964-12.662-10.779
				c-4.7-2.828-9.802-5.469-15.211-6.531c-0.103,0.516-0.229,1.189-0.329,1.705"/>
		</g>
	</g>
	<g>
		<g>
			<path d="M359.272,159.831c0.08,0.518,0.133,1.02,0.214,1.538c9.555-1.47,18.702-6.521,26.614-11.903
				c7.805-5.309,15.938-12.213,19.668-21.121c-0.276-0.119-0.894-0.502-1.167-0.42c-0.396,0.956-0.902,1.837-1.415,2.738
				c-1.188,2.123-2.758,4.073-4.332,5.927c-3.391,3.988-7.504,7.366-11.744,10.419c-8.146,5.861-17.905,10.656-27.938,12.199"/>
		</g>
	</g>
	<g>
		<g>
			<path d="M577.413,68.555c-2.1,10.803-3.063,21.858-5.481,32.597c-2.328,10.331-6.544,20.175-9.192,30.423
				c-2.493,9.645-4.862,19.355-6.832,29.119c-0.938,4.642-2.314,9-4.04,13.415c-0.771,1.96-3.719,15.765-4.717,17.622
				c-0.458,0.857,0.396,0.726,1.146,1.146c6.009-10.709,10.269-31.749,12.924-43.54c2.792-12.399,9.12-26.956,12.126-39.3
				c6.678-27.397,8.832-55.823,15.585-83.204c1.087-4.402,2.222-8.834,3.466-13.196c0.156-0.566,1.963-6.308,1.844-6.345
				c-0.729-0.224-1.563,0.56-2.289,0.337c-6.119,19.991-10.377,40.46-14.359,60.958"/>
		</g>
	</g>
</g>
<g>
	<g>
		<path fill="#CFD2D8" d="M279.673,349.38c-19.729-2.583-246.387-15.972-246.649,16.591c40.024,14.171,95.254,14.923,138.015,14.916
			c19.328-0.004,53.519-6.802,72.954-5.271c40.408,3.176-4.771,17.587,12.577,20.504c2.978,21.333,26.781,2.103,117.097,38.129
			c40.938,16.328,323.327,2.854,366.541,8.608c1.271-60.789-236.447-78.65-301.522-91.011c-43.011-8.164-86.98-7.72-130.649-7.72"/>
		<path fill="#476990" d="M869.925,234.85c-14.622,0-31.071,0-52.094,0c-21.021,0-34.18-6.688-73.079-13.979
			c-38.374-7.186-72.237-16.165-95.997-18.993c-23.763-2.828-46.395-1.987-60.103-2.93c-13.71-0.94-18.278-0.94-21.938-0.94
			c-3.653,0-6.914,4.612-6.914,4.612s-22.546,11.506-23.463,41.651c-0.913,30.148,0,37.688,3.656,60.299
			c3.655,22.605,3.655,26.382,3.655,26.382l25.588,42.396c0,0,123.384,20.729,173.646,15.074c50.271-5.648,73.116,1.883,99.621,4.71
			c0,0,30.338-72.717,39.707-105.075C891.584,255.693,869.925,234.85,869.925,234.85z"/>
		<g id="ChestMains">
			<path id="ChestMainExpanded" fill="#F4BF9A" d="M564.685,201.165c-19.896-3.564-29.772-5.04-79.944-2.364
				c-50.186,2.677-54.979,3.404-85.252,3.404c-30.279,0-55.653,13.715-71.993,17.876c-17.299,8.024-42.274,22.421-54.119,28.8
				c-12.911,6.951-19.68-2.099-26.811-5.96c-9.131-4.944-9.155-27.806-9.734-41.418c-0.587-13.618-4.244-27.569-15.439-23.837
				c-11.028,3.675-11.564-4.497-14.44-4.201c-2.984,0.308-3.152,7.089-3.152,7.089c-4.201-5.514-7.936-8.017-10.502-8.401
				c-2.564-0.385-9.189,10.501-14.178,0.261c-2.999-6.155-8.08-7.375-14.441-1.836c-13.471,11.725-18.905,13.652-32.557,12.077
				c-18.389-2.123-43.756,7.134-51.961,14.686c-7.852,7.226-9.106,34.293-7.376,48.562c1.731,14.271,110.365,93.646,114.693,96.32
				c4.325,2.682,42.205-32.768,72.492-1.484c21.882,22.6,167.788,2.391,205.854,1.499c38.063-0.896,107.926-18.188,107.926-18.188
				s-4.257-13.016-5.118-56.713C567.76,223.628,564.685,201.165,564.685,201.165z"/>
			<path id="ChestMain" fill="#F4BF9A" d="M564.685,201.165c-19.896-3.564-30.185,5.649-60.435,22.333
				c-40.093,18.612-63.037,20.48-93.313,20.48c-30.279,0-70.28-3.367-89.438-5.229c-18.168-0.684-36.281,3.752-48.126,10.131
				c-12.911,6.951-19.68-2.099-26.811-5.96c-9.131-4.944-9.155-27.806-9.734-41.418c-0.587-13.618-4.244-27.569-15.439-23.837
				c-11.028,3.675-11.564-4.497-14.44-4.201c-2.984,0.308-3.152,7.089-3.152,7.089c-4.201-5.514-7.936-8.017-10.502-8.401
				c-2.564-0.385-9.189,10.501-14.178,0.261c-2.999-6.155-8.08-7.375-14.441-1.836c-13.471,11.725-18.905,13.652-32.557,12.077
				c-18.389-2.123-43.756,7.134-51.961,14.686c-7.852,7.226-9.106,34.293-7.376,48.562c1.731,14.271,110.365,93.646,114.693,96.32
				c4.325,2.682,42.205-32.768,72.492-1.484c21.882,22.6,167.788,2.391,205.854,1.499c38.063-0.896,107.926-18.188,107.926-18.188
				s-4.257-13.016-5.118-56.713C567.76,223.628,564.685,201.165,564.685,201.165z"/>
		</g>
		<path fill="#CCA387" d="M198.542,173.462c0.268,4.69,0.928,10.294,4.411,13.854c0.892-4.401,0.815-7.292-1.786-10.964"/>
		<path fill="#CCA387" d="M192.19,272.191c-2.252,0.121-5.472,1.302-7.404,2.965c-3.262,2.807-1.109,2.799-2.521,5.711
			c-2.132,4.402,1.139,1.779-3.457,3.546c-2.862,1.101-5.507-2.478-6.248,2.271c5.133,2.032,13.298,10.592,19.1,5.02
			c3.244-3.12,2.432-14.906,0.53-17.938"/>
		<path fill="#6E7D8F" d="M678.11,365.791l7.091,62.227c0,0-12.069-4.807-32.296-1.569c-12.995,2.063-18.904,13.777-56.91,8.425
			c-37.159-5.24-56.272-4.271-61.46-4.271c-5.191,0-42.252-6.649-52.63-8.438c-10.382-1.78-43.363-4.528-43.363-4.528
			s-10.382,1.188-29.991,0.593c-19.605-0.593-27.296-15.131-50.941-21.066c-23.646-5.944-47.871-13.682-53.635-19.621
			c-5.773-5.947-16.152-7.138-24.226-10.702c-8.075-3.57-17.302-10.702-17.302-10.702s5.107-11.979,18.372-41.707
			c13.261-29.729,72.938-32.938,93.131-31.156c20.188,1.785,53.636,8.324,90.549,17.236c36.913,8.923,90.551,32.114,105.543,39.836
			c14.997,7.729,17.534,3.497,35.991,11.815c18.46,8.323,8.51,3.019,23.989,9.595C649.755,370.123,678.11,365.791,678.11,365.791z"
			/>
		<path fill="#7F90A7" d="M633.836,364.565l20.854,2.479c-10.807-5.563-16.053-15.32-27.389-19.769
			c-11.339-4.455-22.587-7.323-34.466-14.563c-11.872-7.23-21.804-4.142-41.77-10.813c-19.98-6.685-56.684-20.353-96.621-32.033
			c-39.947-11.686-72.381-15.729-95.048-16.277c-22.666-0.556-47.262-2.626-64.065,5.251c-18.634,8.734-30.983,17.854-33.123,31.813
			c-3.562,23.23-6.707,36.606-6.707,38.273c0,1.67,2.163,7.794,9.18,10.021c7.015,2.222,11.873,5.563,11.873,5.563
			s-5.398,15.581-5.398,21.421c0,5.849,6.482,11.688,8.906,10.854c2.433-0.837,11.99-2.854,15.228-6.188
			c3.239-3.344,6.302-10.634,6.302-10.634s1.143-11.561,1.143-34.095c0-22.539,23.688-38.383,43.119-40.892
			c19.434-2.502,61.333,0.817,61.333,0.817s7.281,8.354,32.389,13.357c25.096,5.01,40.479,12.52,40.479,12.52
			s15.484-8.299,23.578,3.394c8.104,11.686,31.771,13.105,51.2,18.111c19.436,5.015,12.868-8.1,26.636-6.428
			c13.769,1.671,19.595,1.917,19.595,1.917s12.819,7.267,17.385,8.938C627.878,361.093,633.836,364.565,633.836,364.565z"/>
		<path fill="#F4BF9A" d="M679.635,369.518c15.248-3.313,11.831-4.903,26.832-4.903c14.997,0,38.063,6.104,42.686,10.859
			c4.606,4.753-21.847,11.817-21.847,11.817s6.659-0.735,14.396,2.579c10.426,4.47,23.096,0.806,24.823,4.966
			c1.729,4.165,3.477,8.439,3.477,8.439l-3.97,0.5c0,0-0.913,0.098-1.49,2.479c0,0-10.125,6.007-23.391,11.357
			c-13.271,5.354-26.53,10.705-39.795,9.515c-13.271-1.188-17.252,0.479-17.252,0.479s-3.596-1.854-9.936-17.313
			C667.828,394.836,668.681,371.894,679.635,369.518z"/>
		<path fill="#586572" d="M357.277,301.508c25.325-7.445,38.731,6.454,67.529,3.973c15.67-1.351,19.507,3.35,19.507,3.35
			s34.563-1.698,49.093,5.767c71.489,36.739,61.563,18.063,74.823,27.57c13.271,9.512,4.332,7.874,4.332,7.874l-10.235,5.121
			c0,0-6.439-1.003-14.967-3.149c-9.049-2.278-27.64-5.505-38.989-11.423c-8.121-4.229-6.924-9.986-13.785-12.603
			c-4.906-1.87-10.21,4.381-13.388,3.146c-13.85-5.348-18.425-6.258-24.188-9.821c-5.771-3.563-16.383-3.963-16.383-3.963
			s-27.452-5.551-35.527-7.339c-8.078-1.774-27.685-5.341-29.414-7.129C373.953,301.1,357.277,301.508,357.277,301.508z"/>
		<path fill="#586572" d="M305.621,353.228c6.403,11.568,40.536,23.932,52.166,29.781c33.088,16.661,63.45,18.578,98.136,22.646
			c18.4,2.146,29.95,11.345,47.534,16.249c25.84,7.208,55.281,4.571,82.032,10.479c6.483,1.438,12.993,2.02,19.221,3.542
			c-79.348,2.917-97.291-10.643-145.849-12.438c-31.029-1.153-65.786-5.033-95.036-15.16c-11.114-3.854-17.1-7.906-26.781-13.396
			c-6.865-3.887-23.027-10.98-28.654-15.846c-6.246-5.377-11.934-6.563-4.501-17.833"/>
		<path fill="#8F745E" d="M93.341,186.542c0,0-35.749,12.413-40.215,41.704c-4.471,29.295-7.449,56.604-6.953,58.094
			c0.498,1.492-4.467-0.996-4.467-0.996l1.488,12.912l-4.551-2.963c0,0,1.092,39.141,15.491,48.575
			c14.398,9.433,17.855,8.926,17.855,8.926l-6.564,3.676c0,0,13.134-1.354,11.034,5.34c-0.795,2.538,3.668,4.113,3.668,4.113
			l8.928,3.938c0,0,5.771-0.321,10.24-1.313c4.465-0.995,12.339,3.413,12.339,3.413s15.994-2.479,38.335-4.464
			c22.344-1.987,27.281-9.661,32.743-13.134c5.463-3.479,14.896-9.938,16.883-11.422c1.985-1.489,7.447-3.979,7.447-3.979
			s-5.336-9.353-11.792-15.808c-6.452-6.457-26.047-17.996-26.047-17.996s-9.35-13.331-7.862-19.787
			c1.49-6.45,8.439-10.923,12.412-14.396c3.97-3.478,2.483-7.94,2.483-7.94s-13.457,0.278-23.034-0.822
			c-10.828-1.249-1.769-11.627-14.181-11.627c-12.414,0-21.35-5.956-31.776-7.94c-10.427-1.983-23.441-6.955-23.441-6.955
			l10.247-5.28c0,0,0-1.488-4.47-1.983c-4.466-0.498-8.935,0.495-8.935,0.495s2.634-5.042,6.572-5.565
			c7.892-1.055,14.703-0.264,14.703-0.264s1.35-1.297-8.58-3.281c-9.928-1.984-18.369,1.984-18.369,1.984s2.469-8.226,4.631-13.145
			c3.4-7.735,6.828-12.34,6.828-12.34s-6.297,4.341-10.766,6.827C75.664,203.134,84.405,193.49,93.341,186.542z"/>
		<g>
			<g>
				<g>
					<g>
						<g id="ChestOutlines">
							<path id="ChestOutline" d="M267.071,257.223c-0.775-0.142-0.723-1.109-1.499-1.248c0.671-3.673,4.499-6.932,7.345-9.136
								c2.726-2.114,6.107-2.801,9.135-4.373c3.273-1.702,9.25-3.052,21.28-4.399c17-1.898,13.236-3.39,26.417,0
								c16.626,4.276,47.702,10.097,63.692,6.688c19.29-4.106,35.719,0.37,57.402-4.5c10.246,0.093,32.032-9.76,41.489-13.707
								c10.5-4.382,14.93-5.72,22.967-11.845c18.401-14.025,32.103-11.747,48.224-16.918c2.294,0.522-2.267,2.125,0.037,2.599
								c0.697,0.142,3.607,0.333,3.507,1.059c-0.099,0.657-0.734-0.045-0.832,0.612c-3.911-0.571-7.761-0.071-13.902,2.316
								c-6.333,1.545-12.341,1.87-18.5,4.601c-9.341,4.237-12.192,3.697-21.333,10.798c-7.889,6.128-17.986,7.942-28.167,12.897
								c-9.221,4.485-7.297,3.5-27.042,9.685c-18.979,5.938-39.037,2.403-66.104,5.153c-17.815,1.813-44.815-2-64.441-6.5
								c-14.324-3.282-14.338,0-29-0.75c-6.442-0.329-11.235,1.704-17.091,4.409c-4.945,2.281-10.01,5.398-11.861,10.898
								c-0.083,0.239-0.633-0.166-0.676,0.084"/>
							<path id="ChestOutlineExpanded" d="M267.071,257.223c-0.775-0.142-0.723-1.109-1.499-1.248
								c0.671-3.673,4.499-6.932,7.345-9.136c2.726-2.114,6.107-2.801,9.135-4.373c3.273-1.702,9.889-4.978,13.112-6.774
								c11.878-6.625,21.972-13.779,34.437-19.248c16.003-7.009,30.031-10.191,47.221-13.453c19.377-3.676,39.702-4.379,59.34-4.202
								c10.246,0.092,19.427,0.108,29.668-0.262c10.101-0.363,23.011-0.636,33.085-1.432c19.686-1.555,37.301-2.329,56.713,2.101
								c2.294,0.522,5.636,0.71,7.941,1.184c0.7,0.142,3.605,0.333,3.505,1.059c-0.094,0.657-0.734-0.045-0.832,0.612
								c-3.911-0.571-7.578-0.758-11.443-1.56c-5.02-1.043-10.188-1.241-15.291-1.702c-9.906-0.895-19.851-1.026-29.771-0.464
								c-9.979,0.563-19.943,1.166-29.905,1.898c-10.221,0.751-20.432,1.646-30.679,1.638c-19.896-0.011-39.913-0.115-59.714,2.274
								c-17.779,2.141-37.25,6.544-53.839,13.178c-13.646,5.456-24.492,12.031-37.369,19.094
								c-5.655,3.103-11.716,5.548-17.572,8.253c-4.945,2.285-10.01,5.402-11.861,10.902c-0.083,0.235-0.633-0.166-0.676,0.084"/>
						</g>
					</g>
					<g>
						<path d="M278.236,398.328c-0.297,0-0.515-1.202-0.513-1.453c0.006-0.717,0.553-0.985,1.275-1.021
							c1.692-0.075,3.299-0.179,4.889-0.76c3.195-1.173,7.341-2.593,9.704-5.017c5.32-5.454,7.605-13.133,9.292-20.503
							c1.005-4.381,1.043-8.748,0.656-13.227c-0.42-4.861-1.008-9.723-0.85-14.625c0.234-7.271,3.539-13.027,8.515-18.196
							c9.422-9.788,22.319-16.315,34.972-20.802c15.471-5.48,32.356-8.979,48.801-7.48c0.151,0.015,0.006,0.179,0.16,0.191
							c-0.041,0.438-0.279,0.76-0.324,1.203c-0.045,0.485-0.918-0.279-1.356-0.313c-2.054-0.154-4.144,0.671-6.194,0.668
							c-4.14-0.013-8.209,0.348-12.313,0.862c-8.696,1.104-17.294,2.971-25.622,5.701c-12.692,4.159-25.961,9.846-35.766,19.101
							c-4.729,4.465-8.778,9.96-9.551,16.563c-1.125,9.606,2.647,19.145,0.885,28.77c-2.366,12.916-4.469,30.755-26.651,29.687"/>
					</g>
					<g>
						<path d="M282.153,397.111c-3.336,0-7.048-1.004-9.675-3.222c-2.021-1.697-2.308-3.522-1.905-6.017
							c0.88-5.445,2.795-10.646,3.688-16.091c1.25-7.638,2.158-15.325,3.011-23.021c0.431-3.857,0.806-7.729,0.971-11.608
							c0.08-1.896,0.417-3.777,0.407-5.669c-0.002-0.432-0.492-1.797,0.023-1.813c0.444-0.009,0.703,0.12,1.145,0.111
							c0.334,14.989-1.733,30.245-4.443,44.952c-0.502,3.068-1.684,6.069-2.444,9.089c-0.517,2.057-2.187,5.342-1.102,7.385
							c1.641,3.08,6.121,3.87,9.299,4.029c1.835,0.094,3.743,0.096,5.529-0.354c0.406-0.102,0.953-0.713,1.118-0.251
							c0.149,0.417,0.667,0.855,0.815,1.271c-2.029,0.724-4.288,1.104-6.437,1.104"/>
					</g>
					<g>
						<path d="M570.537,313.987c-1.396-19.192-3.734-38.354-3.782-57.623c-0.044-16.849,1.563-33.825-1.716-50.491
							c-0.412-2.088-0.242-4.343-0.844-6.383c-0.188-0.621-1.396-1.472-0.672-1.705c0.484-0.157,0.782,0.165,1.272,0.006
							c5.271,16.302,4.995,34.16,4.568,51.055c-0.476,18.584,1.492,36.939,3.112,55.424c0.275,3.176,0.772,6.423,1.009,9.598
							c-0.656,0.049-1.205-0.057-1.855-0.003"/>
					</g>
					<g>
						<path d="M583.763,200.653c-4.104-0.424-8.174-1.312-12.271-1.802c-1.977-0.237-3.955-0.371-5.942-0.35
							c-0.413,0.002-1.365,0.311-1.379-0.345c-0.012-0.583-0.087-1.105-0.104-1.689c4.072-0.248,8.173,0.205,12.191,0.808
							c2.063,0.311,4.107,0.726,6.174,0.991c0.414,0.054,1.625-0.109,1.574,0.557c-0.048,0.583-0.184,1.202-0.229,1.787"/>
					</g>
					<g>
						<path d="M831.191,236.125c-9.561,0-19.252,0.361-28.561-1.887c-4.312-1.043-8.601-2.16-12.916-3.2
							c-9.736-2.339-19.604-3.899-29.432-5.848c-25.248-5.012-47.454-9.562-72.854-13.737c-19.189-3.155-39.838-6.876-59.215-8.736
							c-8.004-0.769-14.278-3.039-22.329-3.236c-3.813-0.093-9.222-0.844-12.938,0c-2.229,0.503-5.737,2.852-7.895,3.607
							c-0.812,0.288-1.717-0.513-1.977-1.231c-0.167-0.462,0.886-0.17,0.72-0.633c7.88-2.85,14.078-5.49,22.412-4.658
							c7.08,0.712,15.468,2.355,22.548,3.106c8.358,0.887,16.691,2.088,25.006,3.319c24.698,3.662,49.214,8.478,73.786,12.917
							c21.716,3.925,43.943,5.992,65.378,11.295c3.229,0.797,6.342,2.068,9.567,2.884c7.354,1.864,14.675,3.597,22.254,3.915
							c15.119,0.635,30.227-1.764,45.338-1.869c0.004,0.665-1.027,2.117-1.021,2.781c0.005,0.695,0.327-0.288-0.255-0.279
							c-1.032,0.012-2.027,2.059-3.063,2.082c-3.849,0.098-7.699-0.595-11.536-0.393c-7.662,0.398-15.347,1.742-23.021,1.742"/>
					</g>
					<g>
						<path d="M897.733,365.648c-20.253-2.222-40.438-5.267-60.773-6.063c-20.523-0.806-40.813-2.076-61.058-5.658
							c-19.6-3.467-38.492-5.635-57.729-10.771c-19.688-5.268-40.226-10.87-60.104-15.39c-20.768-4.711-41.792-8.321-62.521-13.179
							c0.104-0.431,0.946-1.438,1.05-1.876c0.113-0.496,1.479-0.204,1.95-0.093c2.604,0.604,5.323,0.633,7.922,1.227
							c4.989,1.14,9.02,2.915,14.009,4.024c9.815,2.179,21.95,5.156,31.771,7.352c19.961,4.471,38.467,8.079,58.17,13.589
							c19.239,5.382,38.568,10.146,58.216,13.688c10.147,1.83,20.284,3.811,30.548,4.888c10.142,1.064,20.411,0.409,30.598,0.872
							c22.777,1.037,45.706,1.093,68.395,3.572c-0.056,0.521-0.329,3.208-0.386,3.729"/>
					</g>
					<g>
						<path d="M682.718,427.127c-8.021-7.558-12.29-18.532-13.44-29.348c-1.029-9.688,0.231-20.558,5.672-28.866
							c0.758,0.496,1.274,0.433,0.756,1.282c-0.646,1.046-1.133,2.22-1.636,3.343c-1.04,2.316-1.386,4.88-1.935,7.354
							c-1.217,5.485-1.921,11.162-1.315,16.74c0.628,5.837,2.191,11.688,4.75,16.979c1.259,2.605,3.181,4.843,4.968,7.129
							c0.844,1.079,1.521,2.295,2.479,3.27c0.279,0.284,1.157,0.775,0.825,1.13c-0.304,0.321-0.636,0.472-0.938,0.789"/>
					</g>
					<g>
						<path d="M611.3,437.247c-8.837,0-17.061-2.511-25.749-3.601c-4.804-0.604-11.72,1.741-16.532,1.854
							c-5.132,0.115-9.335-1.356-14.438-1.837c-10.149-0.95-18.979-3.466-29.165-3.979c-8.775-0.438-17.563,0.644-26.163-1.361
							c-9.841-2.298-19.226-6.643-27.688-12.115c0.231-0.362,0.948-1.776,1.329-1.88c1.828,1.183,3.557,2.476,5.447,3.539
							c3.47,1.938,7.25,3.517,10.957,4.95c7.563,2.907,15.755,3.899,23.813,4.604c4.73,0.412,9.438,1.063,14.186,1.363
							c5.141,0.321,10.354-0.104,15.463,0.507c10.018,1.197,20.071,3.679,30.176,3.254c3.783-0.162,7.475-1.228,11.254-0.854
							c3.425,0.334,6.827,0.854,10.193,1.55c7.448,1.521,14.829,2.325,22.444,1.565c6.061-0.595,11.994-1.481,17.613-3.729
							c6.563-2.625,12.818-6.112,19.781-7.479c0.076,0.393,0.479,1.225,0.55,1.605c0.158,0.807,0.285,1.246-0.604,1.429
							c-2.385,0.484-3.786,0.55-6.117,1.252c-3.938,1.191-8.787,4.247-12.602,5.774c-7.854,3.146-15.619,5.104-24.147,5.104"/>
					</g>
					<g>
						<path d="M470.303,423.136c-10.025,0.604-19.992-0.504-29.95-1.346c-4.839-0.414-9.713-0.146-14.585-0.16
							c-4.918-0.019-9.818-0.188-14.729-0.34c-4.918-0.15-9.622-1.315-14.317-2.957c-4.478-1.563-8.837-3.401-13.22-5.255
							c-7.544-3.189-15.793-2.714-23.558-4.899c-11.917-3.356-21.648-12.341-32.71-18.104c-5.308-2.771-10.828-4.144-16.348-6.104
							c-4.866-1.734-8.926-5.059-11.766-10.337c0.36-0.311,0.825-0.979,1.212-0.926c1.088,2.018,2.599,3.869,4.199,5.264
							c2.938,2.564,6.854,3.271,10.34,4.3c4.513,1.33,9.316,1.589,13.585,3.789c4.283,2.217,7.644,6.692,11.72,9.396
							c4.135,2.745,8.396,5.49,12.815,7.528c3.807,1.759,7.946,2.651,11.972,3.513c3.563,0.756,7.417-0.364,10.987,0.304
							c4.627,0.864,8.521,4.862,12.848,6.869c3.841,1.783,7.938,3.017,11.999,3.993c4.16,0.996,8.521,1.187,12.778,1.221
							c4.31,0.031,8.621,0.126,12.937,0.164c4.479,0.036,8.919-0.084,13.368,0.304c8.496,0.74,17.021,1.941,25.577,1.692
							c4.438-0.13,8.918-0.601,13.346-1.142c2.256-0.272,4.452-0.287,6.697-0.688c0.302,0.375,0.083,0.544,0.127,1.119
							C480.487,421.243,475.458,422.823,470.303,423.136"/>
					</g>
					<g>
						<path d="M476.819,328.032c-6.898-0.417-13.681-2.537-20.044-5.046c-3.25-1.28-6.438-2.729-9.753-3.814
							c-3.723-1.215-7.558-1.887-11.396-2.628c-7.563-1.458-15.183-2.472-22.434-5.203c-3.417-1.289-6.535-3.354-9.938-4.688
							c-1.854-0.729-3.844-1.14-5.749-1.729c-0.136-0.313,0.496-1.583,0.606-1.938c6.979,2.178,13.402,5.921,20.396,8.051
							c7.312,2.221,15.043,2.885,22.479,4.614c7.167,1.669,13.755,4.588,20.644,7.09c3.294,1.194,6.771,1.849,10.2,2.563
							c1.693,0.354,3.415,0.539,5.143,0.646c0.202,0.231-0.146,2.028-0.172,2.375"/>
					</g>
					<g>
						<path d="M562.052,355.396c-10.006-1.386-19.869-3.685-29.573-6.432c-4.859-1.378-9.636-3.063-14.483-4.479
							c-4.104-1.191-9.512-1.335-12.733-4.336c-3.424-3.188-5.132-9.09-9.939-10.562c-2.485-0.76-5.245-0.104-7.641,0.743
							c-1.793,0.636-3.461,1.59-5.117,2.521c-0.271,0.149-2.354,1.371-2.396,1.312c-0.304-0.479-0.737-0.884-1.038-1.364
							c-0.04-0.058-0.021,0.06-0.061-0.004c4.979-3.134,11.896-7.09,17.891-4.416c4.738,2.112,6.434,7.396,10.229,10.563
							c1.634,1.355,3.776,1.396,5.771,1.963c2.468,0.692,4.927,1.438,7.388,2.159c4.821,1.408,9.69,2.646,14.531,4
							c4.866,1.354,9.74,2.631,14.672,3.729c2.333,0.525,4.541,1.665,6.896,2.097c1.166,0.213,2.386,0.102,3.551,0.276
							c0.698,0.11,2.396-0.042,2.285,0.812c-0.072,0.51-0.136,0.676-0.202,1.185"/>
					</g>
					<g>
						<path d="M367.98,227.677c-2.193,0-3.213-0.981-4.377-2.563c1.938-1.429,4.397-2.398,6.817-2.575
							c2.576-0.19,4.271,0.81,5.854,2.728c-2.623,1.137-5.379,2.331-8.295,2.331 M365.982,225.505
							c0.385,0.458,2.344,1.263,7.594-0.808c-2.273-1.501-5.496-0.383-7.656,0.787 M365.518,225.764
							c0.103,0.084,0.159,0.15,0.256,0.233c0.113-0.146,0.205-0.321,0.188-0.505c-0.146,0.081-0.341,0.167-0.483,0.25"/>
					</g>
				</g>
				<g>
					<path d="M592.148,320.381c-0.177-9.64-0.264-19.305-0.854-28.929c-0.581-9.491-2.468-18.884-3.258-28.36
						c-0.813-9.667-1.418-19.359-1.712-29.054c-0.294-9.873,0.243-19.854-1.311-29.626c-0.063-0.361-0.864-2.982-0.769-3.001
						c0.493-0.096,0.53-0.504,1.024-0.599c1.892,9.776,2.979,19.66,3.296,29.588c0.31,9.736,0.354,19.469,1.104,29.183
						c0.735,9.503,2.42,18.933,3.084,28.44c0.661,9.518,0.727,19.087,0.914,28.627c0.025,1.229,0.025,2.579,0.046,3.813
						c-0.521,0.011-1.678-0.063-2.197-0.059"/>
				</g>
				<g>
					<g>
						<path d="M732.433,384.996c-0.04-0.349-0.248-1.359,0.156-1.413c0.928-0.123,1.813-0.557,2.732-0.73
							c3.558-0.682,8.048-0.927,10.557-3.813c0.94-1.082,1.718-2.41,2.144-3.778c0.223-0.701,0.262-1.509,0.229-2.248
							c-0.028-0.684-1.282-0.794-1.832-0.853c-4.521-0.485-8.902-0.966-13.246-2.418c-6.617-2.214-13.475-2.629-20.357-3.581
							c-5.382-0.743-10.734-0.968-16.146-0.27c-3.369,0.439-6.729,1.038-9.996,1.979c-2.104,0.604-4.042,1.748-6.104,2.489
							c-0.466,0.167-2.5,0.854-2.686,0.384c-0.15-0.411,0.015-0.63-0.146-1.045c7.354-2.81,15.714-5.988,23.614-6.403
							c5.62-0.295,11.771,1.113,17.323,1.84c3.944,0.52,6.388,1.288,10.24,2.294c3.067,0.797,6.053,1.851,9.186,2.411
							c2.129,0.384,4.271,0.72,6.42,0.929c1.236,0.12,3.646-0.213,4.688,0.662c1.776,1.502-0.591,5.539-1.5,6.989
							c-2.126,3.386-5.061,4.347-8.765,5.198c-2.114,0.486-4.255,0.854-6.412,1.104"/>
					</g>
					<g>
						<path d="M698.724,430.249c-8.627,0-16.595-2.805-25.188-3.424c-4.667-0.337-10.045,0.688-14.721,0.536
							c-2.742-0.101-4.812-0.979-7.556-0.998c-0.714-0.005-2.146,0.314-2.146-0.55c0-0.521-0.324-1.053-0.324-1.563
							c14.724,0,29.293,1.313,43.964,2.271c6.015,0.395,12.565,1.232,18.48-0.184c2.381-0.565,4.521-1.952,6.749-2.949
							c1.101-0.484,2.378-0.593,3.477-1.09c0.141-0.063,0.57,1.104,0.681,1.348c-3.135,1.421-6.276,2.836-9.604,3.771
							C708.281,428.624,703.11,430.249,698.724,430.249"/>
					</g>
					<g>
						<path d="M711.746,422.923c-0.063-0.521-0.193-1.011-0.253-1.532c7.882-0.882,16.27-0.299,23.869-2.921
							c2.661-0.917,5.26-2.293,7.271-4.272c0.454-0.451,0.771-1.04,1.137-1.564c0.262-0.357,1.094,0.449,1.409,0.646
							c-2.165,3.591-6.582,5.836-10.434,6.962c-7.488,2.187-15.402,1.892-23.076,2.751"/>
					</g>
					<g>
						<path d="M737.771,413.943c-4.603,0-9.302-0.479-13.85-1.058c-5.314-0.672-10.689-1.711-15.854-3.213
							c0.133-0.461,0.085-1.247,0.605-1.099c1.063,0.297,2.167,0.438,3.236,0.665c2.636,0.559,5.34,0.744,8.004,1.137
							c5,0.731,10.026,1.328,15.072,1.678c5.922,0.412,11.377-1.625,17.028-3.183c3.188-0.881,6.462-1.458,9.57-2.596
							c1.024-0.372,2.123-0.604,2.998-1.267c0.644-0.479,1.041,0.399,1.552,0.944c-3.042,2.855-8.271,2.957-12.112,3.967
							c-5.271,1.387-10.75,3.813-16.263,3.813"/>
					</g>
					<g>
						<path d="M738.839,406.513c-5.905,0-10.812-2.813-15.979-5.468c-2.804-1.438-5.725-2.646-8.479-4.173
							c-1.429-0.793-2.729-1.82-4.18-2.583c-0.34-0.18-1.19-0.215-0.985-0.628c0.197-0.398,0.455-0.688,0.652-1.082
							c6.896,3.411,13.271,7.84,20.42,10.757c4.775,1.947,9.461,1.292,14.532,1.007c3.84-0.217,7.685-0.416,11.517-0.782
							c2.258-0.216,4.547-0.131,6.808-0.375c1.74-0.186,4.256-0.047,4.242-2.473c-0.011-3.697-2.944-5.688-6.211-6.104
							c-3.813-0.488-7.671-0.688-11.453-1.448c-9.818-1.979-18.3-8.09-27.31-12.256c-4.136-1.914-8.471-3.416-12.736-5.025
							c-1.695-0.641-3.39-1.342-5.137-1.834c-0.667-0.184-1.463-0.063-2.145-0.188c-0.145-0.237,0.322-1.354,0.381-1.646
							c6.104,1.134,11.973,4.085,17.586,6.618c6.646,3.002,13.012,6.545,19.603,9.646c4.021,1.896,8.466,2.729,12.842,3.405
							c3.631,0.564,7.672,0.211,11.188,1.273c3.081,0.931,5.433,4.761,5.134,8.014c-0.352,3.85-5.495,3.054-8.303,3.346
							c-7.3,0.754-14.646,1.68-21.99,1.68"/>
					</g>
				</g>
				<g>
					<path d="M307.509,361.432c-2.866-1.441-5.833-3.188-7.533-5.982c-1.372-2.257-1.831-4.896-2.443-7.423
						c-0.932-3.854-2.766-6.91-5.2-10.021c-2.656-3.394-5.521-6.718-7.76-10.418c-4.495-7.423,0.495-14.708,4.775-20.843
						c2.053-2.941,5.29-6.889,4.597-10.75c-0.28-1.555-1.631-2.609-2.768-3.665c-0.357-0.331-1.77-1.495-1.502-1.881
						c0.251-0.365,0.514-0.31,0.766-0.677c2.768,1.918,5.189,4.354,4.906,7.914c-0.341,4.246-3.303,8.059-5.634,11.407
						c-2.18,3.145-4.809,6.396-5.442,10.246c-0.656,4.007,1.523,7.091,3.899,10.146c2.593,3.334,5.543,6.43,7.89,9.95
						c2.128,3.188,2.83,6.88,3.696,10.561c0.539,2.283,1.134,4.589,2.75,6.349c1.044,1.14,2.542,1.77,3.861,2.563
						c0.412,0.247,1.7,0.867,1.479,1.304c-0.2,0.393-0.229,1.021-0.429,1.416"/>
				</g>
				<g>
					<path d="M257.302,327.933c-5.258-8.397-4.455-20.212,0.025-28.765c0.647,0.339,1.518,0.407,1.147,1.148
						c-0.669,1.336-1.192,2.727-1.646,4.146c-0.96,3.021-1.526,6.146-1.554,9.304c-0.027,3.021,0.296,6.069,1.244,8.938
						c0.419,1.271,1.021,2.478,1.676,3.646c0.339,0.604,0.598,0.705,0.006,1.073c-0.304,0.19-0.735,0.405-1.041,0.602"/>
				</g>
				<g>
					<path d="M478.279,311.609c-41.256-1.404-82.205-8.053-123.498-8.791c-2.086-0.037-4.185,1.156-6.271,1.146
						c-0.44-0.001-1.243-0.304-1.243-0.832c0-0.44-0.637-1.241-0.637-1.685c41.138,0,81.907,6.932,122.939,8.938
						c2.279,0.112,4.591-0.089,6.878-0.003c0.436,0.021,1.67-0.56,1.647-0.031c-0.015,0.441,0.196,0.368,0.188,0.813"/>
				</g>
				<g>
					<path d="M575.855,349.776c-4.941-5.661-10.6-8.379-18.188-8.914c-7.14-0.5-13.664-2.396-20.632-4.479
						c-9.217-2.754-17.717-7.563-25.946-12.406c-8.239-4.849-17-8.837-26.175-11.692c-19.158-5.978-38.955-9.521-58.39-14.396
						c-19.589-4.908-38.423-13.109-58.488-16.037c-9.989-1.457-21.331-0.477-31.127,2.153c-4.404,1.185-7.407,2.813-11.571,4.664
						c-2.347,1.041-5.154,1.108-7.461,2.24c-1.149,0.563-2.403,1.188-3.548,1.76c-0.266-0.127-0.698-1.563-0.838-1.84
						c7.342-3.665,15.388-6.084,23.311-8.323c8.069-2.275,16.362-3.097,24.703-2.443c20.147,1.563,39.216,8.822,58.472,14.322
						c19.354,5.534,38.953,9.783,58.408,14.905c9.458,2.492,18.088,5.778,26.61,10.569c8.521,4.79,16.792,9.396,25.685,13.505
						c4.482,2.063,9.496,3.063,14.411,3.553c3.722,0.374,7.358,1.635,11.086,1.775c3.435,0.13,6.447,0.806,9.629,2.15
						c4.368,1.859,8.271,4.213,11.36,7.755c-0.396,0.352,0.271-0.272-0.121,0.064"/>
				</g>
				<g>
					<path d="M658.465,368.299c-7.813,0-16.129-1.094-23.496-3.682c-4.161-1.462-8.011-3.646-11.961-5.595
						c-4.304-2.136-8.68-3.813-13.106-5.663c-7.406-3.104-14.343-5.172-22.36-4.405c-8.246,0.786-16.189,3.392-23.604,6.967
						c-2.938,1.42-5.981,2.688-8.838,4.275c-0.365,0.209-3.636,2.599-3.68,2.521c-0.32-0.551-0.604-1.313-0.932-1.869
						c14.847-8.637,31.747-17.137,49.387-14.213c4.262,0.705,8.081,3.146,12.051,4.83c4.42,1.879,8.669,4.038,12.979,6.151
						c7.214,3.539,14.908,6.075,22.854,7.452c5.508,0.954,11.104,1.622,16.667,1.229c3.183-0.225,5.432-0.652,8.574-1.163
						c1.622-0.265,4.424-1.26,6.04-1.575c0.261,0.193,0.079,2.24,0.146,2.599c-6.689,1.312-13.883,2.397-20.717,2.397"/>
				</g>
				<g>
					<path d="M640.939,425.524c-3.855-8.167-7.637-16.854-7.718-26.04c-0.075-9.571,3.811-18.581,8.498-26.688
						c0.28,0.162,1.314,0.568,1.438,0.854c-0.795,1.375-1.328,2.878-2.068,4.276c-1.297,2.459-2.892,4.793-3.896,7.381
						c-1.708,4.359-2.608,9.043-2.629,13.747c-0.021,4.666,0.858,9.309,2.363,13.697c0.874,2.556,2.154,4.962,3.24,7.438
						c0.611,1.393,1.238,2.771,1.885,4.146c0.404,0.861-0.46,0.873-1.218,1.231"/>
				</g>
			</g>
			<g>
				<g>
					<path d="M267.595,251.09c-5.384,0-11.403-0.931-16.31-3.148c-5.324-2.403-9.052-6.773-11.445-12.098
						c-3.197-7.103-3.983-14.974-3.931-22.636c0.032-4.649,0.652-9.292,0.666-13.939c0.011-3.833-0.358-7.793-1.557-11.47
						c-1.941-5.963-8.438-12.617-15.097-9.301c-2.532,1.261-6.831,3.523-8.987,0.584c-1.009-1.373-1.652-4.655-3.775-4.704
						c-0.966-0.022-0.848,0.921-1.406,0.043c-0.312-0.492-0.841-0.652-1.154-1.145c4.018-2.562,6.327,1.181,8.203,4.163
						c1.416,2.252,6.06-0.659,7.63-1.198c6.754-2.321,13.427,2.617,16.159,8.449c3.568,7.614,1.934,17.072,1.74,25.194
						c-0.188,7.895-0.011,16.212,2.868,23.7c2.307,6.003,6.457,10.941,12.493,13.199c3.546,1.324,7.486,1.72,11.234,2.136
						c0.865,0.095,1.763-0.271,2.633-0.252c0.101,0.001,0.4,2.524,0.4,2.796"/>
				</g>
				<g>
					<path d="M202.536,182.555c-0.921-2.217-1.872-4.79-3.263-6.752c-0.881-1.245-2.316-1.991-3.701-2.549
						c-0.282-0.112-2.365-0.788-2.348-0.851c0.128-0.486,0.204-1.014,0.334-1.5c2.793,0.737,6.02,2.012,7.409,4.758
						c1.046,2.067,2.002,4.167,2.939,6.283c-0.481,0.211-0.944,0.388-1.426,0.599"/>
				</g>
				<g>
					<path d="M203.808,187.727c-2.809-1.56-4.044-4.629-4.616-7.647c-0.267-1.421-0.473-2.846-0.659-4.278
						c-0.059-0.437-0.478-1.628-0.08-1.808c0.403-0.185,0.867-0.376,1.27-0.557c0.604,1.329,0.509,3.006,0.686,4.434
						c0.182,1.475,0.468,2.948,0.975,4.352c0.458,1.272,1.094,2.533,2.129,3.423c0.315,0.272,1.15,0.461,0.922,0.874
						c-0.216,0.389-0.403,0.809-0.619,1.195"/>
				</g>
				<g>
					<path d="M160.55,205.706c-0.359-0.01-0.717-0.078-1.076-0.086c-0.892-0.024-0.517-0.917-0.539-1.677
						c-0.051-1.855-0.309-3.685-0.743-5.49c-0.448-1.864-0.97-3.71-1.625-5.508c-0.147-0.411-0.94-1.578-0.449-1.762
						c0.416-0.154,0.824-0.274,1.24-0.428c1.817,4.863,3.407,9.662,3.264,14.911"/>
				</g>
				<g>
					<path d="M204.303,188.212c-0.498-0.077-0.987-0.208-1.481-0.285c-0.079-0.011,0.366-3.164,0.403-3.578
						c0.163-1.85,0.069-3.689-0.05-5.542c-0.08-1.253-0.406-2.864,0.161-4.036c0.537-1.11,1.7-1.953,2.819-2.416
						c0.169,0.409,0.34,0.821,0.51,1.23c0.163,0.394-0.277,0.468-0.606,0.674c-1.356,0.847-1.456,1.656-1.359,3.099
						c0.243,3.667,0.216,7.198-0.349,10.84"/>
				</g>
				<g>
					<path d="M151.159,196.118c-0.566,0-1.139-0.059-1.699-0.139c0.074-0.498,0.152-1.001,0.225-1.499
						c-0.009,0.062,3.136-0.03,3.488-0.085c1.378-0.215,2.736-0.639,3.986-1.259c0.264,0.122,0.548,1.096,0.686,1.374
						c-2.056,1.023-4.389,1.593-6.686,1.593"/>
				</g>
				<g>
					<path d="M136.842,199.931c-1.096-4.188-3.739-7.757-3.948-12.197c0.501-0.025,0.942-0.102,1.443-0.126
						c-0.074,0.004,0.683,3.364,0.811,3.74c0.942,2.783,2.458,5.327,3.202,8.181c-0.508,0.133-0.974,0.263-1.481,0.397"/>
				</g>
				<g>
					<path d="M47.429,296.581c-2.714-8.192-2.657-16.96-4.085-25.401c-0.099-0.582-0.483-1.332,0.137-1.55
						c0.608-0.211,1.165-0.567,1.773-0.782c0.104-0.037,0.38,0.719,0.426,0.813c1.163,2.323,2.319,4.647,3.482,6.979
						c-0.595,0.299-1.215,0.5-1.809,0.797c-0.569,0.285-0.445-0.291-0.695-0.791c0.625,5.16,0.85,10.34,2.04,15.414
						c0.284,1.197,0.748,2.355,1.119,3.541c0.125,0.396-1.868,0.871-2.273,1.008"/>
				</g>
				<g>
					<path d="M84.056,225.777c-0.241-0.464-0.454-0.813-0.694-1.278c4.333-2.241,9.381-2.974,14.203-2.637
						c-5.046-2.53-10.88-3.382-16.408-2.077c-1.458,0.344-2.893,0.797-4.239,1.461c-0.266,0.131-0.609,0.133-0.864,0.287
						c-0.055,0.032-0.745-1.146-0.84-1.3c5.73-3.528,13.81-3.269,19.91-1.065c1.379,0.498,2.691,1.146,3.979,1.843
						c0.705,0.381,1.373,0.816,2.046,1.247c0.69,0.443,0.634,0.346,0.351,1.007c-0.198,0.46-0.226,0.751-0.703,0.66
						c-0.593-0.11-1.177-0.28-1.774-0.352c-5.027-0.593-10.5-0.225-15.052,2.131"/>
				</g>
				<g>
					<path d="M48.563,323.389c-7.436-8.965-10.656-20.475-11.998-31.824c1.915,2.088,3.865,4.162,5.78,6.252
						c-0.333-2.645-0.495-5.313-0.396-7.979c0.006-0.146,1.795-0.137,2.021-0.15c0.664-0.041,1.1,2.129,1.363,2.805
						c0.897,2.277,1.971,4.509,3.358,6.521c0.167,0.239,0.814,0.774,0.537,0.984c-0.582,0.439-1.133,0.766-1.713,1.207
						c-1.065-1.395-2.08-2.781-2.923-4.313c0.071,0.65,0.93,4.262,0.578,4.45c-0.271,0.147-1.753,1.354-1.936,1.154
						c-1.079-1.179-2.012-2.449-3.092-3.627c0.972,4.493,2.323,8.915,4.225,13.104c1.176,2.587,2.507,5.118,4.132,7.449
						c0.403,0.58,2.087,2.093,1.533,2.552c-0.51,0.428-0.855,0.902-1.368,1.326"/>
				</g>
				<g>
					<path d="M60.772,343.008c-2.629-1.075-5.619-0.95-8.395-1.27c0.084-0.728,0.159-1.504,0.242-2.229
						c0.037-0.323,3.753,0.104,4.321,0.163c-3.391-2.767-6.877-5.478-9.744-8.811c-2.229-2.6-3.495-5.282-4.503-8.501
						c2.209,0.584,4.413,0.897,6.617,1.505c-0.154,0.562-0.445,1.182-0.6,1.743c-0.021,0.079,0.002,0.592-0.076,0.646
						c-0.756-0.207-1.552-0.396-2.32-0.557c2.104,4.042,5.791,7.173,9.254,10.015c1.882,1.542,3.921,2.906,5.744,4.522
						c0.816,0.723,0.785,0.684,0.252,1.516c-0.26,0.411-0.526,0.869-0.786,1.276"/>
				</g>
				<g>
					<path d="M73.46,352.993c-4.122-0.028-8.285-1.863-11.835-3.785c-3.649-1.971-7.196-4.405-10.198-7.281
						c0.504-0.521,0.967-1.117,1.472-1.645c0.203-0.213,2.046,1.616,2.394,1.893c2.322,1.84,4.865,3.404,7.468,4.816
						c2.511,1.362,5.17,2.563,7.966,3.212c0.426,0.1,2.78,0.354,2.778,0.596c-0.005,0.729-0.048,1.385-0.052,2.113"/>
				</g>
				<g>
					<path d="M181.16,362.348c-3.488-0.018-6.593-1.604-9.795-2.816c2.403-0.391,4.842-0.585,7.117-1.486
						c3.782-1.499,5.406-5.378,7.775-8.381c2.871-3.645,7.652-5.636,11.813-7.335c2.541-1.037,5.159-1.891,7.642-3.063
						c0.818-0.385,1.045-0.866,1.504-0.016c0.277,0.514,0.59,0.836,0.868,1.35c-5.375,2.895-11.387,4.397-16.559,7.702
						c-4.706,3.007-6.269,9.001-11.356,11.505c1.016,0.101,1.095,0.104,1.09,1.07c-0.003,0.493-0.117,0.89-0.12,1.382"/>
				</g>
				<g>
					<path d="M117.104,373.631c-3.056-0.582-6.081-1.045-9.108-1.7c-1.957-0.421-3.85-1.249-5.808-1.75
						c-0.97-0.25-1.894-0.507-2.771-1.003c-0.898-0.511-1.012,0.225-2.001,0.426c-5.616,1.174-13.359,1.313-18.435-1.755
						c-1.144-0.688-1.569-2.229-2.075-3.496c-0.576-1.443-0.572-3.642-1.667-4.797c-1.037-1.091-3.08-1.689-4.464-1.857
						c-1.905-0.233-4.012,0.215-5.836-0.442c-0.107-0.164,0.193-2.206,0.337-2.354c1.979-0.109,4.086,0.007,5.964-0.642
						c1.875-0.644,3.365-2.328,5.093-3.289c0.382,0.14,1.173,2.148,1.387,2.532c-1.757,0.976-3.677,1.781-5.571,2.459
						c2.319,0.354,5.333,0.888,6.135,3.392c0.626,1.952-0.078,4.01,1.731,5.393c2.843,2.173,6.94,2.959,10.374,2.963
						c1.899,0.001,3.731-0.865,5.603-1.188c0.714-0.125,1.563,0.368,2.258,0.163c0.74-0.22,1.17-0.973,1.712-0.38
						c1.571,1.729,4.036,2.438,6.11,3.188c1.285,0.466,2.466,0.979,3.85,1.116c1.504,0.145,3.146-0.073,4.651,0.063
						c-0.064-0.6-0.275-1.813-0.341-2.412c4.463-0.188,8.468,1.25,12.848,1.74c-0.966-1.5-1.89-2.891-2.869-4.383
						c7.551-0.099,15.032,1.702,22.563,1.517c8.554-0.209,16.418-3.915,25.016-3.78c-0.013,0.729-0.521,1.122-0.533,1.854
						c-0.003,0.162-4.145,0.029-4.796,0.134c-4.154,0.66-7.972,2.976-12.075,3.859c-4.284,0.928-8.654,0.354-13.014-0.01
						c-4.251-0.354-8.348-0.508-12.616-0.662c0.943,1.525,2.116,2.809,3.122,4.302c-1.726,0.061-3.695-0.117-5.416-0.344
						c-3.194-0.421-6.261-1.162-9.492-1.319c0.084,0.771-0.33,1.355-0.245,2.131"/>
				</g>
				<g>
					<path d="M176.768,305.596c-8.242,0-14.454-5.775-15.788-13.945c-0.733-4.489,0.257-9.973,3.313-13.479
						c0.314,0.271,1.569,1.025,1.263,1.407c-0.479,0.604-0.962,1.196-1.335,1.872c-1.421,2.582-2.158,5.51-1.96,8.458
						c0.509,7.604,6.549,13.46,14.175,13.79c3.491,0.148,6.4-0.649,9.717-1.682c3.431-1.064,6.606-2.574,9.581-4.623
						c5.074-3.487,8.877-8.701,10.542-14.533c0.979-3.432,1.715-7.529,0.304-10.941c-0.722-1.738-2.159-3.113-3.941-3.753
						c-0.303-0.108-2.865-0.528-2.865-0.507c0.02-0.503,0.205-0.989,0.227-1.494c12.334,0.514,9.154,16.152,5.406,23.441
						c-2.32,4.515-5.997,8.261-10.517,10.658C189.474,303.139,182.947,305.596,176.768,305.596"/>
				</g>
				<g>
					<path d="M168.811,295.859c-3.547-3.815-2.771-9.666,1.054-12.983c4.006-3.476,9.3-2.368,12.303,1.778
						c-0.687,0.5-1.107,1.229-1.693,0.503c-0.853-1.063-1.866-2.058-3.157-2.535c-2.16-0.8-4.509-0.058-6.24,1.379
						c-1.814,1.504-3.093,3.804-3.07,6.181c0.012,1.344,0.472,2.656,1.24,3.754c0.43,0.612,0.965,0.688,0.391,1.228
						c-0.263,0.237-0.6,0.502-0.863,0.743"/>
				</g>
				<g>
					<path d="M187.602,294.063c-3.033,0-5.809-1.957-8.267-3.521c-1.301-0.832-2.625-1.71-4.051-2.313
						c-0.639-0.271-0.056-1.017,0.15-1.604c3.958,1.392,10.331,7.847,14.788,4.479c3.112-2.353,2.72-6.944,2.781-10.408
						c0.031-1.688-0.062-3.375-0.511-5.02c-0.4-1.465-1.188-4.354-2.98-2.354c-1.641,1.824-4.268,1.896-6.231,3.259
						c-1.064,0.737-0.982,1.622-0.128,2.536c-0.055,0.302-0.904,0.854-1.141,1.072c-4.396-4.722,4.418-5.91,6.478-8.135
						c1.153-1.244,3.166-1.466,4.239,0.094c0.899,1.305,1.405,2.987,1.674,4.531c0.522,2.991,0.143,6.467-0.208,9.456
						c-0.431,3.688-2.2,7.945-6.593,7.945"/>
				</g>
				<g>
					<path d="M82.621,236.064c-0.381-0.36-0.825-0.691-1.206-1.058c3.053-3.223,7.823-4.239,12.101-4.432
						c-3.48-1.188-7.297-1.282-10.919-0.813c-0.904,0.114-1.794,0.314-2.682,0.526c-0.367,0.089-0.491-1.188-0.58-1.519
						c2.205-0.595,4.533-0.922,6.807-0.939c2.049-0.021,4.125,0.154,6.118,0.645c1.08,0.26,2.13,0.666,3.148,1.108
						c0.733,0.323,2.281,0.729,1.97,1.623c-0.344,0.992-0.164,1-1.119,0.954c-1.298-0.063-2.603-0.063-3.895,0.051
						c-3.48,0.307-7.349,1.225-9.832,3.85"/>
				</g>
				<g>
					<path d="M130.154,251.898c-4.226,0-7.195-2.15-10.292-4.674c-3.26-2.656-7.154-2.279-11.15-2.23
						c-4.201,0.053-8.285-0.551-11.936-2.831c-1.623-1.017-3.113-2.319-4.888-3.077c-1.96-0.835-4.138-1.087-6.08-1.969
						c0.126-0.275,0.39-1.273,0.643-1.396c1.278,0.578,2.716,0.723,4.051,1.148c2.897,0.919,5.163,2.604,7.748,4.102
						c5.543,3.215,11.778,1.234,17.734,2.383c4.85,0.938,7.384,5.91,12.253,6.813c2.543,0.472,5.238,0.192,7.599-0.771
						c1.391-0.565,2.76-1.291,4.031-2.088c0.821-0.521,0.816,0.092,1.289,0.813c-3.243,2.113-7.053,4.07-11.001,4.07"/>
				</g>
				<g>
					<path d="M167.891,263.805c-4.373,0-8.74-0.354-13.108-0.513c-3.393-0.119-6.708,0.071-9.653-1.873
						c-2.446-1.619-2.854-3.745-1.863-6.468c0.583-1.604,1.719-2.617,1.719-2.617c-0.41-0.131-0.737-0.066-0.664-0.549
						c0.067-0.439,0.246-0.635,0.314-1.07c5.261,0.817-3.495,5.631,0.268,8.735c3.708,3.059,8.834,2.444,13.351,2.586
						c4.536,0.146,9.084,0.321,13.62,0.184c1.714-0.054,3.442-0.225,5.137-0.495c0.526-0.084,0.996-0.367,1.49-0.563
						c0.29-0.114,0.703,1.221,0.834,1.508c-1.318,0.609-2.892,0.846-4.316,0.958c-2.366,0.19-4.755,0.313-7.128,0.313"/>
				</g>
				<g>
					<path d="M166.764,277.268c-0.45-0.271-0.873-0.522-1.322-0.8c1.861-3.075,4.922-4.78,7.429-7.233
						c2.383-2.323,2.598-5.108,3.249-8.211c0.434,0.096,0.817,0.113,1.25,0.203c0.469,0.103-0.084,1.856-0.167,2.338
						c-0.283,1.645-0.578,3.287-1.468,4.729c-2.278,3.674-6.735,5.262-8.988,8.979"/>
				</g>
			</g>
			<g>
				<path d="M254.472,338.302c-5.887-4.252-12.24-7.896-19.415-8.732c-4.602-0.539-8.448-1.479-12.943-0.322
					c-2.452,0.63-6.7,1.657-8.957,2.801c-0.634,0.321-1.695,1.364-2.123,0.638c-0.262-0.438-0.633-0.81-0.895-1.256
					c13.865-8.176,32.515-6.092,45.401,3.213c-0.385,0.532-0.748,1.049-1.133,1.578"/>
			</g>
			<g>
				<path d="M201.974,332.578c-2.594-5.569-7.869-8.694-13.517-13.444c-2.438-2.049-11.446-6.332-13.718-8.562
					c-1.179-1.153-2.39-2.271-3.628-3.36c-0.68-0.6,0.167-1.036,0.689-1.64c8.6,7.504,26.845,15.938,31.672,26.313
					c-0.476,0.228-0.988,0.449-1.463,0.669"/>
			</g>
			<g>
				<path d="M205.854,344.759c-0.177-2.039-0.917-4.089-2.528-5.446c-1.095-0.922-2.549-1.431-3.85-1.983
					c1.103-0.228,2.205-0.438,3.291-0.729c-1.138-1.315-2.492-2.415-3.997-3.299c-0.369-0.215-1.384-0.505-1.18-0.957
					c0.184-0.398,0.322-0.859,0.506-1.269c3.314,1.506,5.674,4.023,7.8,6.896c-0.529-0.012-1.076-0.021-1.604-0.034
					c2.001,1.63,2.945,4.188,3.162,6.694c-0.523,0.047-1.043,0.076-1.566,0.121"/>
			</g>
			<g>
				<path d="M481.469,419.948c-8.011-4.146-15.495-9.256-23.521-13.377c-5.965-3.063-13.699-7.269-20.653-6.069
					c-3.098,0.534-5.556,3.02-6.988,5.801c-1.47,2.856,1.355,3.671,3.688,4.184c3.631,0.786,7.372,1.311,11.072,1.394
					c3.399,0.079,7.32-0.377,10.613,0.706c0.275,0.091,0.581,0.042,0.827,0.196c-0.229,0.377-0.271,0.857-0.504,1.233
					c-0.218,0.354-0.887-0.104-1.271-0.188c-1.978-0.444-4.065-0.335-6.076-0.396c-4.231-0.106-8.503-0.105-12.704-0.678
					c-2.475-0.333-6.7-0.871-7.794-3.558c-1.229-3.016,2.481-6.752,4.688-8.313c5.733-4.054,14.021-1.243,19.748,1.222
					c8.561,3.686,16.396,8.886,24.46,13.486c1.42,0.813,2.837,1.626,4.282,2.396c0.646,0.341,1.188,0.426,0.844,1.085
					c-0.165,0.313-0.454,0.313-0.612,0.637"/>
			</g>
		</g>
	</g>
	<g>
		<path d="M272.061,364.872c-3.358-1.817-6.238-4.206-9.715-5.796c-1.782-0.814-3.97-2.817-5.34-4.219
			c-3.321-3.399-1.476-9.68-0.884-13.768c1.271-8.818,1.908-17.966,4.631-26.516c2.849-8.952,8.415-16.002,14.709-22.977
			c1.532-1.692,3.444-3.084,4.956-4.799c0.189-0.215,1.263-1.986,1.353-1.916c0.387,0.305,0.721,0.24,1.111,0.549
			c-5.682,6.688-12.394,12.904-16.875,20.455c-4.609,7.768-5.612,16.803-6.826,25.525c-0.597,4.305-1.891,8.536-2.387,12.854
			c-0.26,2.273,0.063,4.713,0.731,6.946c1.16,3.9,6.144,5.21,9.51,6.731c2.197,0.995,4.329,2.146,6.443,3.288
			c-0.256,0.438-0.678,1.229-0.936,1.671"/>
	</g>
	<g>
		<path d="M655.089,367.022c-14.2-10.146-29.371-18.198-45.667-24.666c-6.354-2.523-12.4-5.86-18.666-8.595
			c-4.001-1.738-7.132-4.296-11.354-5.479c-4.697-1.321-10.515-0.313-15.277-1.367c-20.262-4.489-39.271-12.836-58.523-20.262
			c-9.615-3.709-18.918-8.393-28.864-11.176c-9.524-2.664-18.938-6.084-28.569-8.357c-17.584-4.15-36.784-5.627-54.701-8.159
			c-17.295-2.442-33.262-3.93-50.737-4.464c-14.77-0.457-30.646-0.201-44.657,4.741c-6.904,2.436-12.554,6.487-18.279,10.969
			c-2.983,2.333-5.597,4.81-8.129,7.604c-1.34,1.479-2.455,3.021-3.665,4.604c-0.402,0.521-2.672,2.105-3.325,1.657
			c-0.432-0.306,2.14-1.414,1.709-1.716c9.009-12.301,19.904-21.23,34.704-25.723c14.357-4.347,29.471-5.043,44.388-4.438
			c16.985,0.688,34.118,1.779,50.927,4.219c17.85,2.586,35.858,4.869,53.384,9.018c9.67,2.291,19.271,5.248,28.824,7.979
			c10.004,2.863,19.271,7.912,28.957,11.661c9.737,3.771,19.821,6.688,29.681,10.188c9.69,3.438,19.164,7.335,29.22,9.563
			c4.38,0.967,9.403-0.328,13.712,0.9c4.188,1.2,8.694,5.271,12.667,6.995c6.322,2.739,12.063,5.623,18.467,8.171
			c16.336,6.51,30.344,14.263,44.582,24.437c-0.397,0.521,0.399-0.527,0,0"/>
	</g>
</g>
<g>
	<g>
		<path fill="#ECAF8B" d="M47.416,173.362c0,0-2.756,7.484-4.332,13.786c-1.576,6.3-8.271,5.12-14.572,13.39
			c-6.302,8.272-9.846,22.449-14.572,27.176c-4.726,4.724-11.422,11.026-12.603,16.146c-1.182,5.121,1.575,7.879,2.363,11.815
			c0.789,3.938,3.151,12.997,8.271,19.691c5.119,6.696,11.027,22.056,11.027,25.601s3.151,7.089,7.483,10.241
			c4.333,3.149,11.422,13.389,17.724,20.084c6.301,6.696,18.51,12.604,18.51,12.604s0.788-3.15,1.576-5.12
			c0.788-1.975,0.788-1.975,0.788-1.975s2.756,1.975,3.15-3.938s-5.908-11.027-5.908-11.027s1.969-4.332,1.969-9.058
			c0-4.729-5.908-8.272-11.816-12.998c-5.907-4.729-10.24-11.027-12.996-13.785c-2.757-2.756-5.12-7.088-5.12-10.635
			c0-3.545-0.789-7.094-0.789-7.094s2.364,7.879,10.634,7.094c8.27-0.786,9.058-11.813,9.058-19.69s-3.15-16.146-3.938-19.688
			c-0.787-3.545,6.778-20.501,6.778-20.501s5.633-12.149,9.5-15.504c8.491-7.367,18.029-12.313,18.029-12.313l5.612,5.074
			C93.244,192.738,71.441,165.486,47.416,173.362z"/>
		<path fill="#F2D7C5" d="M52.537,336.019c3.149,4.073,8.06,7.241,13.331,7.73c-1.146-4.55-6.222-8.691-11.756-7.73"/>
		<path fill="#F2D7C5" d="M56.475,329.719c3.022,3.944,9.529,7.063,14.496,8.201c0.142-0.482,0.455-0.869,0.905-1.091
			c-2.238-4.585-8.915-7.701-14.219-7.504"/>
		<path fill="#F2D7C5" d="M51.355,313.963c4.889,2.521,9.981,5.33,14.623,7.938c1.66-5.178-6.981-9.479-11.472-8.327"/>
		<path fill="#F2D7C5" d="M43.872,252.92c-9.074,3.133-7.885,23,3.947,21.286c9.605-1.392,9.054-20.142-1.19-21.286"/>
		<path fill="#0090C0" d="M84.043,3.616c-3.938,9.847-7.876,15.754-11.814,35.84s-5.514,27.963-12.997,41.353
			s-12.997,25.6-12.997,37.415c0,11.816,4.333,13.391,4.333,17.724c0,4.332-3.938,15.359-5.12,22.449
			c-1.181,7.089-2.363,12.208-4.332,14.571c-1.97,2.364-3.151,2.758-3.151,2.758s17.329-6.302,27.175-2.364
			c9.846,3.939,20.757,12.092,26.782,18.117c1.969,1.968,1.145,1.053,1.145,1.053s2.78-1.911,5.759-3.397
			c3.979-1.983,9.338-2.975,10.031-5.138c5.265-16.454,12.602-20.086,16.147-24.419c3.545-4.332,10.634-8.665,11.422-18.117
			c0.788-9.452,6.301-17.329,19.692-44.11c13.39-26.781,18.509-33.872,23.63-57.107c5.12-23.236,11.421-37.809,11.421-37.809
			L84.043,3.616z"/>
		<path fill="#0B718F" d="M46.629,172.968c-7.122,0.603-12.867,10.293-2.825,10.485c0.775-3.272,1.741-6.34,2.825-9.303"/>
		<path fill="#C8977A" d="M45.447,180.452c7.529-13.016,38.682,9.928,46.584,13.041c-1.034-9.453-43.23-35.807-47.766-13.435"/>
		<path fill="#0082A9" d="M180.929-0.322c-6.769,14.454-17.951,29.886-20.034,45.929c-1.988,15.315,2.386,28.138-9.483,40.61
			c-8.286,8.707-26.85,12.448-29.952,24.904c-2.564,10.292,7.881,21.237,5.511,31.538c-3.396,14.748-24.979,27.752-20.834,43.227
			c4.458-12.57,7.625-18.297,18.127-25.599c12.72-8.846,12.275-30.334,19.25-43.638c10.948-20.884,27.818-36.078,32.765-59.714
			c2.346-11.209,1.15-22.772,5.842-33.329c3.083-6.935,9.323-12.959,9.836-20.777"/>
	</g>
	<g>
		<g>
			<g>
				<path d="M72.4,34.876c-2.872,10.332-3.68,21.282-6.907,31.509c-3.289,10.427-9.837,19.462-14.527,29.291
					c-2.115,4.437-2.868,9.358-3.941,14.177c-1.05,4.708-2.255,8.617-1.569,13.338c0.77,5.306,2.908,10.888,4.54,16.014
					c0.326-0.104,1.076-0.162,1.001-0.4c-0.246-0.823,0.883-2.026,0.676-2.862c-1.114-4.47-3.642-8.704-4.288-13.265
					c-0.861-6.06-0.29-11.549,1.758-17.378c2.215-6.3,5.572-12.226,8.54-18.192c11.994-24.117,16.792-51.043,24.545-76.695
					c0.746-2.464,1.741-4.863,2.543-7.311c0.281-0.862,1.093-1,0.21-1.296c-0.552-0.184-0.711-0.235-1.265-0.419
					c-3.726,11.175-7.398,22.356-10.552,33.701"/>
			</g>
		</g>
		<g>
			<g>
				<path d="M181.3,28.759c-3.552,12.148-5.573,24.792-10.097,36.62c-2.31,6.037-5.479,11.717-8.401,17.485
					c-3.011,5.944-6.235,11.766-9.463,17.595c-7.643,13.81-16.229,27.855-20.11,43.237c-1.248,4.94-1.807,8.683-5.671,12.005
					c-2.713,2.332-6.184,3.985-8.661,6.572c-7.269,7.599-8.037,13.252-10.78,23.306c1.305,0.355,1.014,1.5,1.647-0.242
					c1.674-4.607,4.037-8.771,6.648-12.926c2.376-3.785,5.195-6.757,8.563-9.691c2.5-2.176,4.871-4.689,7.191-7.056
					c4.769-4.872,4.783-11.964,6.859-18.199c2.478-7.449,6.833-16.36,10.308-23.393c4.63-9.365,7.727-18.002,12.696-27.179
					c5.285-9.758,11.13-19.252,14.728-29.737c3.553-10.357,4.82-21.417,7.906-31.919c1.535-5.221,3.166-10.479,4.923-15.632
					c0.785-2.299,2.134-4.454,3.047-6.703c0.334-0.826,1.106,0.175,0.271-0.177c-0.536-0.228-1.545-1.768-2.084-1.996
					C187,9.757,184.046,19.369,181.3,28.759"/>
			</g>
		</g>
		<g>
			<g>
				<path d="M50.028,131.08c1.238,5.727-1.528,10.963-3.285,16.235c-0.97,2.906-1.348,5.951-1.914,8.953
					c-0.893,4.738-1.542,9.589-3.43,14.059c-0.986,2.333-2.659,4.276-4.25,6.246c-0.597,0.74-1.52,1.438-0.712,2.211
					c0.421,0.406,0.811,0.886,1.232,1.29c6.402-6.683,7.976-15.498,9.621-24.251c0.625-3.309,1.058-6.56,2.234-9.738
					c1.865-5.046,4.294-10.106,3.112-15.585c-0.771,0.167-1.986,0.389-2.757,0.556"/>
			</g>
		</g>
		<g>
			<g>
				<path d="M39.755,175.22c0.161,0.244,0.84,1.607,1.101,1.678c1.317-0.875,2.772-1.463,4.231-2.075
					c2.732-1.143,5.532-1.838,8.486-1.987c6.465-0.325,13.056,0.96,18.831,3.759c5.39,2.615,10.133,6.508,14.518,10.583
					c1.987,1.845,3.765,3.875,5.476,5.976l1.427-1.079c-12.175-15.231-35.962-28.328-53.813-16.485"/>
			</g>
		</g>
		<g>
			<g>
				<path d="M45.944,171.312c-0.806,4.156-1.841,8.267-3.046,12.33c-0.596,2.005-1.003,4.088-1.831,6.009
					c-0.243,0.561-1.223,1.301-0.522,1.634c0.475,0.225,1.028,0.374,1.504,0.599c2.566-5.409,4.103-11.228,5.271-17.071
					c0.342-1.715,0.6-3.448,0.938-5.164c0.32-1.629-0.229-1.384-1.826-1.705c-0.213,1.092-0.546,2.224-0.758,3.316"/>
			</g>
		</g>
		<g>
			<g>
				<path d="M37.242,192.298c-5.104,3.055-8.855,6.544-12.212,11.463c-3.253,4.764-5.879,9.888-7.992,15.252
					c-1.209,3.07-2.58,5.85-4.633,8.458c-1.901,2.411-4.258,4.426-6.311,6.707c-4.05,4.514-7.066,9.762-6.966,15.997
					c0.689-0.011,1.625-0.388,2.313-0.399c0.44-0.006,0.651-3.045,0.81-3.76c0.708-3.226,2.057-6.289,4.143-8.808
					c2.182-2.635,5.093-4.646,7.284-7.271c2.541-3.058,4.41-6.309,5.86-9.979c2.338-5.928,4.734-11.827,8.457-16.997
					c2.062-2.862,4.52-5.257,7.486-7.177c3.29-2.131,7.164-3.453,10.173-5.995c-0.292-0.345-1.053-1.528-1.466-1.6
					c-2.058,1.74-4.769,2.503-7.077,3.884"/>
			</g>
		</g>
		<g>
			<g>
				<path d="M32.155,212.312c2.237,6.266,1.092,11.651,0.04,18.038c-1.24,7.528-0.019,14.93,1.514,22.365
					c1.803,8.764,2.081,24.986,14.603,23.424c-0.048-0.396,0.145-0.646,0.096-1.043c-0.129-1.021-0.479-1.176-1.508-1.15
					c-1.616,0.049-3.086-0.008-4.433-0.936c-2.597-1.787-3.75-4.919-4.501-7.828c-1.406-5.451-2.398-11.216-3.305-16.771
					c-0.667-4.077-1.205-8.179-0.953-12.304c0.301-4.914,1.544-9.646,1.92-14.534c0.224-2.93-0.133-5.687-1.03-8.488
					c-0.442-1.39-0.432-2.917-0.628-4.374c-0.095-0.698,0.288-2.484-0.432-2.639c-0.516-0.111-1.148,0.232-1.662,0.12
					c-0.445,2.078,0.15,3.969,0.849,5.917"/>
			</g>
		</g>
		<g>
			<g>
				<path d="M53.477,225.333c-1.728,5.438-2.322,9.813,0.097,15.194c2.69,5.976,2.736,12.541,2.28,18.996
					c-0.283,4.017-0.043,9.877-3.135,12.979c-1.283,1.289-3.177,1.873-4.951,2.039c-1.126,0.105-2.293-0.296-3.418-0.395
					c-0.237,0.205-0.086,1.576-0.118,1.924c4.619,0.402,9.336-0.277,11.497-4.805c1.053-2.201,1.067-4.729,1.322-7.141
					c0.394-3.705,0.656-7.4,0.529-11.133c-0.126-3.713,0.038-7.551-1.246-11.043c-1.225-3.327-3.037-6.154-2.663-9.813
					c0.398-3.915,1.512-7.875,2.629-11.656c-1.643-0.43-1.311-0.875-1.79,0.749c-0.397,1.347-1.097,2.604-1.497,3.952"/>
			</g>
		</g>
		<g>
			<g>
				<path d="M-2.021,240.672c0,5.059,3.914,10.188,6.68,14.146c2.323,3.324,3.938,6.867,5.59,10.574
					c3.247,7.279,6.325,15.004,8.336,22.746c0.519,2.002,1.006,4.31,2.245,6.021c2.041,2.817,5.737,4.61,8.612,6.426
					c9.843,6.197,19.469,12.61,29.002,19.281c2.311,1.616,5.219,2.4,7.503,4.055c0.505,0.365,0.494-0.623,0.629-0.521
					c-0.612-0.444-0.583-1.775-1.197-2.219c-8.17-5.845-17.072-10.629-25.552-16.017c-4.697-2.979-9.601-5.754-14.105-9.024
					c-1.722-1.26-3.66-2.877-4.296-4.99c-1.967-6.502-4.083-12.789-6.606-19.119c-2.188-5.483-3.869-11.495-7.19-16.415
					c-2.173-3.214-4.689-6.21-6.231-9.8c-0.583-1.354-1.077-2.875-1.238-4.354c-0.131-1.183-0.918-0.883-2.051-0.883"/>
			</g>
		</g>
		<g>
			<g>
				<path d="M3.362,256.82c-0.039,3.697,0.591,7.063,2.304,10.359c3.04,5.844,7.341,10.901,10.107,16.928
					c2.342,5.092,4.517,10.629,5.397,16.201c0.678,4.289,1.979,8.65,4.178,12.441c0.827-0.479,1.677-0.343,1.179-1.322
					c-1.092-2.146-1.289-4.7-1.923-7.021c-0.809-2.956-1.098-6.023-1.952-8.974c-0.885-3.049-2.664-5.797-3.893-8.726
					c-2.718-6.464-6.216-12.229-9.832-18.205c-2.188-3.614-3.015-7.489-2.972-11.733c-0.788,0-1.85,0.043-2.637,0.043"/>
			</g>
		</g>
		<g>
			<g>
				<path d="M20.968,304.71c0.957,1.912,3.346,3.205,5.046,4.313c2.552,1.659,5.265,3.108,7.729,4.904
					c5.846,4.271,10.975,9.434,16.879,13.64c6.804,4.848,13.794,8.487,21.462,11.776c0.076-0.179,0.651-1.383,0.569-1.421
					c-0.688-0.295-1.548-0.188-2.233-0.489c-2.347-1.028-4.487-2.488-6.754-3.688c-3.988-2.104-7.756-4.633-11.431-7.229
					c-6.409-4.521-12.241-9.716-18.618-14.269c-2.612-1.866-5.394-3.479-8.065-5.262c-1.052-0.7-2.009-1.604-2.877-2.532
					c-0.636-0.688-0.831-0.027-1.691,0.396"/>
			</g>
		</g>
		<g>
			<g>
				<path d="M37.528,320.043c5.803,8.032,13.241,14.988,21.196,20.828c1.963,1.438,4.131,2.918,6.395,3.875
					c2.609,1.101,4.201-5.739,4.201-7.203c-0.619,0-1.271,0.208-1.892,0.208c0.026,0-0.415,2.583-0.583,2.979
					c-0.579,1.354-1.212,2.388-2.514,1.613c-3.489-2.063-6.656-4.729-9.783-7.293c-4.445-3.639-8.369-7.853-12.079-12.229
					c-0.968-1.146-1.951-2.271-2.852-3.466c-0.679-0.902-1.101,0.18-1.941,0.773"/>
			</g>
		</g>
		<g>
			<g>
				<path d="M67.386,324.313c2.967,1.663,4.775,5.229,4.571,8.566c-0.101,1.594-0.768,3.149-1.906,4.296
					c-0.685,0.688,0.249,1.192,0.819,1.895c5.315-4.352,3.04-13.495-2.462-16.58c-0.323,0.566-0.606,1.127-0.93,1.692"/>
			</g>
		</g>
		<g>
			<g>
				<path d="M28.519,260.374c4.021,2.024,6.319,6.108,7.486,10.294c0.556,1.991,0.853,4.063,1.14,6.105
					c0.046,0.336,0.164,2.646,0.358,2.623c0.616-0.078,1.335-0.176,1.951-0.254c-0.943-7.563-2.569-16.565-10.124-20.369
					c-0.295,0.586-0.581,1.134-0.877,1.72"/>
			</g>
		</g>
		<g>
			<g>
				<path d="M34.32,276.777c6.049,8.332,12.241,17.009,20.726,23.088c4.038,2.893,8.79,5.707,11.315,10.146
					c1.36,2.396,1.302,5.282,0.447,7.917c-0.478,1.461-1.237,2.813-2.129,4.062c0.107,0.354,1.293,0.898,1.615,1.132
					c3.353-4.693,4.324-10.359,0.961-15.229c-2.817-4.073-7.389-6.446-11.339-9.284c-8.293-5.953-13.911-14.979-19.831-23.127
					c-0.529,0.392-0.954,1.071-1.483,1.461"/>
			</g>
		</g>
		<g>
			<g>
				<path d="M45.344,251.962c-8.134,1.019-8.749,9.242-6.983,15.722c1.625-0.44,1.477-0.266,1.1-2.037
					c-0.425-2.004-0.73-4.146-0.383-6.187c0.586-3.44,3.53-5.883,7.088-5.854c3.604,0.029,5.681,4.14,6.634,7.063
					c0.576,1.77,0.86,3.645,0.946,5.496c0.079,1.712-0.036,1.666,1.665,1.786c0.395-5.563-2.609-16.739-10.046-15.813"/>
			</g>
		</g>
		<g>
			<g>
				<path d="M39.332,236.965c-0.999,0.244-1.999,0.479-2.997,0.723c-1.086,0.27-0.621,0.688-0.433,1.75
					c1.296-0.313,2.577-0.559,3.868-0.889c1.711-0.477,3.43-0.98,5.205-1.13c1.146-0.095,0.76-0.563,0.729-1.61
					c-2.172,0.063-4.299,0.563-6.379,1.135"/>
			</g>
		</g>
		<g>
			<g>
				<path d="M25.874,240.002c2.838,1.544,4.156,5.241,4.86,8.165c0.391,1.612,0.502,3.278,0.638,4.933
					c0.024,0.282,0.092,1.949,0.292,1.945c0.487-0.006,1.062-0.056,1.548-0.063c-0.06-5.271-1.332-13.729-6.499-16.539
					c-0.252,0.461-0.501,0.955-0.75,1.418"/>
			</g>
		</g>
		<g>
			<g>
				<path d="M20.734,292.741c0.306,0.021,1.372,0.266,1.603,0.101c0.096-1.428,0.506-2.837,1.143-4.115
					c0.606-1.219,1.466-2.326,2.534-3.176c0.01-0.275-0.837-1.059-1.023-1.292c-2.529,2.007-3.961,5.296-4.172,8.483"/>
			</g>
		</g>
		<g>
			<g>
				<path d="M23.155,303.673c1.604,0.257,1.539,0.452,1.831-1.151c0.292-1.603,0.29-1.418-1.298-1.742
					c-0.179,0.979-0.345,1.945-0.52,2.926"/>
			</g>
		</g>
		<g>
			<g>
				<path d="M54.7,311.624c-1.197,0.074-2.169,0.813-2.405,2.024c0.422,0.083,1.07,0.336,1.483,0.255
					c0.168-0.893,1.337-0.604,2.007-0.48c1.863,0.343,3.644,1.236,5.238,2.221c1.673,1.03,3.366,2.177,4.705,3.619
					c0.421,0.455,0.947,0.938,1.143,1.536c0.269,0.104,1.186-0.342,1.479-0.438c-0.779-2.394-3.783-4.246-5.755-5.556
					c-2.197-1.443-5.134-3.23-7.888-3.063"/>
			</g>
		</g>
		<g>
			<g>
				<path d="M55.226,329.424c0.191,0.269,0.595,1.074,0.886,1.165c0.666-0.479,1.562-0.39,2.367-0.367
					c2.074,0.063,4.123,0.851,5.952,1.757c2.102,1.054,4.076,2.357,5.94,3.784c0.812,0.622,1.632,1.24,2.361,1.962
					c0.464,0.459,0.897-0.392,1.309-0.782c-2.372-2.474-5.317-4.64-8.335-6.216c-2.825-1.478-7.483-3.488-10.484-1.312"/>
			</g>
		</g>
		<g>
			<g>
				<path d="M52.594,334.636c0.275,0.399,0.529,0.883,0.805,1.283c0.05,0.073,1.431-0.42,1.72-0.455
					c1.85-0.229,3.688,0.648,5.224,1.582c1.672,1.014,3.225,2.236,4.585,3.637c0.6,0.615,1.252,1.178,1.766,1.861
					c0.284,0.014,1.016-0.722,1.259-0.907c-2.842-3.813-10.206-10.477-15.326-6.961"/>
			</g>
		</g>
		<g>
			<g>
				<path d="M47.032,166.58c1.306,0.085,1.261,0.394,1.377-1.009c0.146-1.782,0.535-3.55,0.801-5.317
					c0.6-3.984,1.613-7.903,2.643-11.798c1.036-3.927,2.331-7.775,3.874-11.534c0.695-1.697,1.48-3.341,2.34-4.962
					c0.821-1.547,0.654-1.625-0.814-2.485c-3.209,5.468-5.311,11.718-6.962,17.812c-1.703,6.276-2.873,12.792-3.293,19.291"/>
			</g>
		</g>
		<g>
			<g>
				<path d="M58.081,144.037c-1.018,4.529-2.172,9.031-3.467,13.491c-0.682,2.343-1.257,4.73-2.132,7.007
					c-0.112,0.292-1.037,1.92-0.847,2.002c0.446,0.191,1.026,0.723,1.474,0.915c2.833-6.617,4.034-13.828,5.623-20.826
					c0.789-3.48,1.821-6.905,2.681-10.368c0.467-1.886,0.683-3.847,1.227-5.712c0.341-1.169,0.13-0.8-0.9-1.11
					c-1.449,4.817-2.718,9.66-3.823,14.563"/>
			</g>
		</g>
		<g>
			<g>
				<path d="M62.196,152.931c-1.572,4.702-3.12,9.476-4.274,14.3c0.995,0.237,1.491,0.719,1.768-0.4
					c0.449-1.791,0.991-3.564,1.533-5.331c1.157-3.779,2.643-7.452,3.883-11.206c2.492-7.556,5.041-15.401,5.341-23.414
					c-0.389-0.014-0.957,0.079-1.344,0.065c-0.819-0.032-0.536,1.478-0.6,2.154c-0.243,2.636-0.514,5.288-1.109,7.867
					c-1.26,5.454-2.963,10.814-4.738,16.118"/>
			</g>
		</g>
		<g>
			<g>
				<path d="M66.157,169.295c-0.287,1.022-0.86,2.034-1.146,3.055c0.451,0.127,1.893,0.75,2.044,0.211
					c0.253-0.908,0.404-1.845,0.659-2.754c1.188-4.235,2.405-8.464,3.527-12.719c2.369-8.994,4.291-18.135,5.426-27.374
					c-0.315-0.038-1.637-0.407-1.895-0.255c-0.241,1.968-0.459,3.957-0.776,5.913c-0.619,3.83-1.092,7.69-1.949,11.473
					c-1.707,7.546-3.834,14.993-5.924,22.441"/>
			</g>
		</g>
		<g>
			<g>
				<path d="M77.271,151.223c-1.031,3.92-2.464,7.728-3.614,11.614c-0.591,1.993-0.757,4.121-1.434,6.085
					c-0.566,1.646-0.692,1.404,0.809,1.946c2.456-6.821,4.249-13.88,6.093-20.882c0.93-3.535,1.64-7.133,2.681-10.635
					c0.558-1.876,1.211-3.727,1.839-5.581c0.392-1.16-0.232-0.988-1.255-1.34c-2.121,6.129-3.88,12.416-5.527,18.686"/>
			</g>
		</g>
		<g>
			<g>
				<path d="M79.278,172.717c0.479,0.217,0.464,0.203,0.944,0.42c2.933-6.503,5.234-13.303,6.772-20.249
					c0.767-3.46,1.504-6.938,2.135-10.425c0.308-1.715,0.157-3.511,0.455-5.228c0.259-1.504-0.042-1.289-1.425-1.527
					c-2.139,12.406-3.741,25.431-8.957,36.989"/>
			</g>
		</g>
		<g>
			<g>
				<path d="M94.373,155.828c-1.097,5.019-2.2,10.047-3.529,15.011c-0.706,2.634-1.335,5.309-2.2,7.895
					c-0.126,0.377-1.556,3.212-1.372,3.28c0.456,0.169,0.815-0.003,1.271,0.166c2.859-7.715,4.681-15.715,6.446-23.738
					c0.882-3.999,1.652-8.028,2.602-12.011c0.451-1.884,0.971-3.761,1.472-5.632c0.471-1.755,0.569-1.643-1.029-2.09
					c-1.564,5.593-2.914,11.338-4.159,17.01"/>
			</g>
		</g>
		<g>
			<g>
				<path d="M103.281,147.876c-1.807,6.451-3.457,12.949-5.363,19.373c-0.941,3.178-2.022,6.313-3.026,9.471
					c-0.495,1.55-0.888,3.133-1.402,4.676c-0.378,1.135-0.004,0.826,0.997,1.162c2.82-8.406,5.683-16.781,8.101-25.311
					c0.933-3.287,1.496-6.677,2.418-9.968c0.274-0.972,0.548-1.946,0.821-2.92c0.204-0.734-0.416-0.431-1.041-0.606
					c-0.404,1.441-1.266,2.635-1.672,4.077"/>
			</g>
		</g>
		<g>
			<g>
				<path d="M105.258,165.078c-2.556,7.001-5.74,14.077-6.119,21.595c0.314,0.015,1.756,0.277,1.999,0.108
					c0.099-1.941,0.254-3.888,0.629-5.793c0.769-3.9,2.195-7.619,3.518-11.36c2.471-6.998,5.015-14.031,6.212-21.396
					c-0.313-0.051-1.246-0.401-1.508-0.258c-0.313,1.925-0.596,3.873-1.114,5.753c-1.052,3.828-2.532,7.526-3.891,11.25"/>
			</g>
		</g>
		<g>
			<g>
				<path d="M103.419,186.984c1.58,0.32,1.824,0.543,2.202-1.173c0.5-2.28,0.17-0.207,0.847-2.44
					c1.24-4.089,2.281-8.283,4.124-12.138c1.705-3.567,3.709-7.049,6.017-10.262c0.997-1.388,2.457-2.41,3.591-3.688
					c0.181-0.205,1.217-1.56,1.064-1.71c-0.351-0.336-0.825-0.602-1.174-0.94c-6.438,6.662-11.12,15.152-14.285,24.044
					C104.33,182.825,103.419,186.984,103.419,186.984z"/>
			</g>
		</g>
	</g>
</g>
<g id="Meters" display="none">
	
		<rect id="Zero" x="-26.333" y="201.985" display="inline" opacity="0.2" fill="#292F78" enable-background="new    " width="755.314" height="17.785"/>
	
		<rect id="OneEighth" x="-26.333" y="219.77" display="inline" opacity="0.35" fill="#292F78" enable-background="new    " width="748.91" height="11.816"/>
	
		<rect id="OneFifth" x="-26.333" y="231.586" display="inline" opacity="0.53" fill="#292F78" enable-background="new    " width="748.91" height="18.59"/>
	
		<rect id="OneThird" x="-26.333" y="250.176" display="inline" opacity="0.7" fill="#292F78" enable-background="new    " width="769.194" height="24.135"/>
	
		<image display="inline" overflow="visible" enable-background="new    " width="34" height="13" xlink:href="../mod3/13.png"  transform="matrix(1.0002 0 0 1.0002 2.3696 243.6758)">
	</image>
	
		<image display="inline" overflow="visible" enable-background="new    " width="34" height="14" xlink:href="../mod3/15.png"  transform="matrix(1.0002 0 0 1.0002 3.1514 226.3301)">
	</image>
	
		<image display="inline" overflow="visible" enable-background="new    " width="34" height="14" xlink:href="../mod3/18.png"  transform="matrix(1.0002 0 0 1.0002 3.7305 212.1841)">
	</image>
</g>
<g id="Diagram">
	
		<image overflow="visible" enable-background="new    " width="440" height="180" id="DiagramGlow" xlink:href="diagramGlow.png"  transform="matrix(1.0002 0 0 1.0002 -8016.0513 -7976.0195)">
	</image>
	<path id="Brain" opacity="0.6" fill="#F0A8CA" stroke="#FBDDEA" stroke-width="2" enable-background="new    " d="M96.657,203.568
		c-27.246,0-45.373,38.114-44.465,74.864c0.908,36.754,19.057,68.97,47.642,72.145c28.584,3.175,49.293-15.094,49.293-35.829
		c0-20.733-10.29-34.521-21.657-52.991C117.312,245.244,123.902,203.568,96.657,203.568z"/>
	<path id="Lungs" opacity="0.6" fill="#F0A8CA" stroke="#FBDDEA" stroke-width="2" enable-background="new    " d="M458.159,244.075
		c-5.946-16.554-51.854-6.683-77.837-0.097c-25.986,6.586-43.361,12.439-43.261,20.213c0.101,7.771,15.803,7.57,60.64,5.232
		C442.539,267.089,462.797,256.979,458.159,244.075z"/>
	<g id="Arrows">
		<path opacity="0.6" fill="#ED6767" enable-background="new    " d="M381.467,250.641l-1.145-6.662
			c-0.422,0.237-206.539,42.725-246.992,32.895l-0.395-3.396l-19.159,5.604l20.254,7.61l-0.548-3.84
			C177.896,297.384,381.031,250.891,381.467,250.641z"/>
		<path id="ArrowOne" opacity="0.6" fill="#ED6767" enable-background="new    " d="M369.191,263.857
			c4.164-1.688,10.264-4.612,15.68-8.938l-3.404-4.278c-3.822,3.049-8.904,5.938-14.313,8.135l-1.545-3.875l-13.271,12.637
			l18.377,0.201L369.191,263.857z"/>
	</g>
	<path id="Heart" opacity="0.6" fill="#EE6767" stroke="#FBDDEA" stroke-width="2" enable-background="new    " d="M391.238,252.917
		c0,0-8.029-5.578-3.799-11.401c4.229-5.813,12.863-0.877,22.803,11.401c-9.938,12.278-18.572,17.229-22.803,11.401
		C383.209,258.494,391.238,252.917,391.238,252.917z"/>
</g>
<g>
	<g>
		<path d="M76.336,218.812c-0.477-7.651,2.849-15.004,7.493-20.918c-3.41,2.329-6.352,5.633-8.366,9.239
			c-0.195,0.352-0.595,0.077-0.953-0.04c-0.109-0.036-0.616-0.188-0.681-0.294c0.106-0.669,0.328-1.303,0.51-1.956
			c0.584-2.077,1.462-4.049,2.72-5.8c3.273-4.559,8.452-8.249,13.763-10.053c0.291,0.856,0.875,1.454-0.007,1.802
			c-1.237,0.49-2.506,0.944-3.673,1.582c-3.958,2.174-7.689,5.263-9.954,9.232c1.494-1.768,3.288-3.323,5.172-4.673
			c0.989-0.712,1.972-1.456,3.063-1.997c1.238-0.613,1.313-0.754,2.021,0.347c0.383,0.597,0.183,0.664-0.28,1.165
			c-0.783,0.841-1.495,1.733-2.197,2.642c-2.297,2.983-4.213,6.249-5.49,9.796c-0.763,2.113-1.34,4.283-1.536,6.522
			c-0.095,1.101-0.312,2.192-0.243,3.293c-0.197,0.19-1.277,0.108-1.575,0.125"/>
	</g>
	<g>
		<g>
			<path d="M97.412,190.687c-0.287-0.732,0.088-1.211-0.197-1.944c8.466-3.304,16.949-7.132,26.069-7.834
				c4.52-0.349,8.902,0.982,13.401,1.348c3.665,0.298,7.409-0.461,10.916-1.65c6.541-2.215,11.534-7.295,16.928-11.322
				c2.778-2.076,6.299-4.173,9.859-3.434c2.999,0.621,4.477,3.477,5.431,6.222c0.457,1.315,0.788,2.827,2.248,3.491
				c1.083,0.493,3.256,0.564,4.751,0.127c1.83-0.536,3.157-2.21,4.477-3.599c0.601-0.633,0.928-0.973,1.677-0.452
				c0.48,0.333,0.598,0.657,1.078,0.988c-1.979,2.855-5.04,4.564-8.418,5.12c-2.471,0.405-5.877,0.531-7.01-2.676
				c-0.651-1.85-1.212-3.918-2.591-5.355c-2.125-2.208-5.458-1.561-7.917-0.289c-3.471,1.797-6.576,4.549-9.577,7.005
				c-2.224,1.821-4.49,3.485-7.052,4.807c-2.971,1.532-6.031,3.014-9.357,3.262c-4.001,0.298-7.94-0.863-11.923-1.053
				c-11.244-0.529-21.857,3.351-32.213,7.393"/>
		</g>
		<path d="M51.244,232.788c0.494-1.431,0.979-2.87,1.463-4.313c3.438-10.261,6.888-20.646,14.294-28.827
			c6.418-7.089,15.171-11.788,24.24-14.566c0.129,0.423,1.027,2.422,0.861,2.794c-2.132,0.653-4.465,0.866-6.52,1.737
			c-3.454,1.464-6.379,3.961-9.426,6.151c-5.157,3.71-9.247,8.405-12.438,13.889c-2.907,4.992-5.196,10.243-7.031,15.705
			c-1.133,3.369-2.396,6.707-3.566,10.07C51.514,240.044,51.244,232.788,51.244,232.788z"/>
	</g>
</g>
<g id="Hand">
	<g>
		<path fill="#0090C0" d="M490.069-111.5c-5.25,9.977-41.746,135.801-43.321,150.504c-1.576,14.703-11.555,12.076-16.805,27.831
			c-5.252,15.753,0.002,23.631-4.201,32.033c-4.201,8.401-7.877,16.277-13.129,32.556c-5.251,16.281-6.825,18.905-10.502,22.056
			c-3.683,3.15-3.683,7.353-3.683,7.353s9.452-4.725,18.386-2.1c8.928,2.624,21.524,7.351,34.653,12.077
			c13.126,4.726,16.278,11.553,16.278,11.553s1.053-19.431,8.402-27.307c7.351-7.877,14.178-15.752,20.479-32.557
			c6.304-16.805,13.652-33.083,13.652-33.083s15.229-7.351,24.156-34.659C543.364,27.45,567-108.5,567-108.5L490.069-111.5z"/>
		<g>
			<g>
				<path fill="#ECAF8B" d="M403.162,156.633c-4.824-0.42-1.577,8.927-3.677,11.027c-2.104,2.1-2.104,2.1-2.104,2.1
					s-8.926-2.102-15.753-2.626c-6.823-0.525-11.024,3.677-11.024,3.677s-4.729,2.625-6.828,6.826
					c-2.102,4.202-6.299,7.875-9.448,11.552c-3.152,3.677-5.777,3.152-7.878,8.402c-2.099,5.25-6.301,8.927-6.301,8.927
					s1.575,6.826,8.928,7.876c7.353,1.052,11.027-2.625,11.027-2.625s-0.525,6.828,6.299,11.029
					c6.828,4.199,11.555,2.625,11.555,2.625s2.102,6.302,6.827,7.353c4.727,1.055,7.875,1.576,8.928-0.521
					c1.054-2.104,1.574-4.198,1.574-4.198s4.727,6.825,9.452,7.354c4.727,0.523,7.879-4.198,9.978-7.354
					c2.104-3.154,4.729-7.878,4.729-7.878s4.195,7.354,9.445,6.826c5.253-0.521,10.503-5.25,13.652-8.4
					c3.151-3.151,5.778-5.778,7.354-6.302c1.571-0.526,9.452-3.152,8.931-11.027c-0.529-7.878-1.577-9.978-1.577-9.978
					s0.521-7.351,1.048-11.028c0.529-3.677,0.529-6.301,0.529-6.301S427.316,158.733,403.162,156.633z"/>
			</g>
		</g>
		<path fill="#0B718F" d="M457.774,173.961c5.313,1.214,8.84,4.667,8.848,9.886c-3.087,1.715-4.964,1.626-8.324,0.615
			c-0.305-3.952-2.362-7.709-1.574-11.552"/>
		<path fill="#F2D7C5" d="M345.53,198.115c1.591-0.228,3.368,0.004,4.981-0.039c-1.923,3.469-5.224,6.268-9.271,7.491
			c1.188-2.204,2.768-5.159,4.29-7.06"/>
		<path fill="#F2D7C5" d="M367.979,211.111c-3.295,4.673-3.035,15.518,5.215,11.519c7.426-3.591,2.896-12.706-4.428-11.913"/>
		<path fill="#F2D7C5" d="M385.702,218.988c-7.034,0.98-2.726,10.021,3.327,9.366c8.867-0.961,2.813-10.62-4.508-10.542"/>
		<path fill="#F2D7C5" d="M405,220.565c-7.221,0.912-5.483,10.361,0.788,9.053c5.831-1.218,6.93-10.113-0.396-9.842"/>
		<path fill="#F2D7C5" d="M434.144,216.625c-2.13,4.095-7.115,5.051-10.646,1.989c-0.009-0.275-0.016-0.553-0.022-0.829
			c2.812-2.968,6.854-4.142,10.278-1.949"/>
		<path fill="#0082A9" d="M515.668,85.082c-8.259,6.396-18.467,8.336-21.267,18.61c-2.75,10.091-0.021,22.753-3.896,32.541
			c3.999-15.972,13.818-29.99,19.256-44.849"/>
	</g>
	<g>
		<g>
			<g>
				<path d="M446.257,34.243c-0.827,5.237-1.718,10.434-4.849,14.859c-2.31,3.256-5.254,6.049-7.563,9.307
					c-3.319,4.701-6.979,10.007-7.795,15.798c-0.419,2.982,1.197,6.027,1.335,9.01c0.146,3.126-0.593,6.199-1.106,9.288
					c-0.394,2.31-1.126,4.383-2.175,6.488c-0.991,2.004-1.798,3.685-2.984,5.5c-1.879,2.855-3.045,6.686-3.883,9.971
					c-2.708,10.607-6.854,20.949-11.743,30.719c-1.608,3.214-2.423,7.057-4.649,9.899c-1.581,2.014-5.127,3.737-4.646,6.694
					c1.063-0.173,4.122-0.35,4.216-1.455c0.105-1.24-0.719-2.659,0.086-3.463c1.146-1.147,2.594-1.949,3.465-3.313
					c5.05-7.921,8.021-17.119,11.405-25.839c1.795-4.62,3.581-9.166,4.718-13.993c0.813-3.459,2.305-6.166,4.955-8.771
					c3.375-3.313,3.849-9.263,4.391-13.798c0.729-6.072-0.84-12.289,0.538-18.25c2.799-12.123,14.696-19.334,17.565-31.305
					c1.338-5.598,0.854-11.6,2.116-17.223c0.734-3.283,2.754-6.244,3.773-9.451c0.186-0.558,36.743-126.38,36.644-126.415
					c-0.716-0.262,7.329,4.427-1.421-0.573c-3.063,8.339-41.447,137.486-42.839,146.245"/>
			</g>
		</g>
		<g>
			<g>
				<path d="M541.104,24.149c-2.188,10.018-4.691,20.051-7.977,29.782c-2.996,8.895-6.972,18.264-13.59,25.104
					c-6.635,6.858-14.746,12.82-23.396,16.92c-1.979,0.939-4.166,1.449-6.27,2.085c-1.719,0.518-1.238,1.292-0.854,3.228
					c4.764-0.949,9.62-3.697,13.731-6.148c9.442-5.625,18.963-11.605,24.729-21.064c5.836-9.571,8.705-22.406,11.438-33.2
					c0.866-3.418,31.751-149.345,31.717-149.356c-0.724-0.223-2.904,0.223-3.632,0c-1.852,6.053-25.954,126.167-27.304,132.342"/>
			</g>
		</g>
		<g>
			<g>
				<path d="M499.961,110.782c-3.07,8.372-6.002,16.995-10.307,24.835c-3.527,6.42-8.24,11.841-12.729,17.56
					c-4.842,6.164-8.627,12.614-10.626,20.138c-0.503,1.902,0.57,4.142,0.25,6.083c-0.184,1.133-0.953,2.101-1.71,3.008
					c0.054,0.391,1.032,0.787,1.365,1.063c1.822-2.188,1.798-5.587,2.471-8.299c1.214-4.88,3.033-9.78,5.417-14.227
					c4.484-8.391,12.094-14.667,16.874-22.92c6.009-10.372,8.626-22.488,12.829-33.655c1.991-5.283,4.889-10.235,7.431-15.283
					c1.082-2.152,2.146-4.33,3.502-6.323c0.498-0.732,0.9-0.735,0.182-1.265c-0.474-0.346-0.275-0.235-0.746-0.579
					c-6.526,8.896-10.171,19.716-13.938,29.962"/>
			</g>
		</g>
		<g>
			<g>
				<path d="M400.809,158.754c-1.438,0.946-2.145,2.605-2.313,4.317c0.479,0.048,0.905,0.181,1.391,0.229
					c-0.021-0.002,0.563-2.149,0.791-2.423c0.946-1.122,2.626-1.654,4.021-1.904c3.309-0.598,6.85,0.06,10.131,0.599
					c6.603,1.084,12.844,3.559,19.212,5.56c6.087,1.915,12.317,3.302,18.2,5.812c3.576,1.526,7.396,2.833,10.139,5.624
					c1.484,1.513,2.396,3.523,3.413,5.378c0.51,0.922,0.982,1.873,1.379,2.848c0.245,0.091,1.564-0.656,1.83-0.763
					c-5.229-12.861-18.627-16.179-30.779-19.677c-6.021-1.734-11.936-3.77-18.051-5.182c-5.552-1.28-13.848-3.42-19.08,0.009"/>
			</g>
		</g>
		<g>
			<g>
				<path d="M462.265,184.43c0.146,0.503,0.313,0.996,0.455,1.499c2.685-0.79,5.021-2.526,6.749-4.678
					c-1.229-0.993-1.099-1.13-2.263,0.065c-1.373,1.41-3.034,2.561-4.933,3.12"/>
			</g>
		</g>
		<g>
			<g>
				<path d="M401.695,158.417c-0.336,2.343-0.645,4.771-1.691,6.923c-0.452,0.928-0.994,1.829-1.778,2.508
					c-0.002,0.27,0.806,0.938,0.99,1.16c2.294-1.983,3.174-4.995,3.688-7.878c0.188-1.074,0.377-2.146,0.529-3.225
					c0.042-0.292-1.305-0.372-1.604-0.417c-0.038,0.265-0.073,0.678-0.034,0.942"/>
			</g>
		</g>
		<g>
			<g>
				<path d="M370.158,170.197c0.41,0.329,0.841,0.519,1.254,0.848c0.561,0.45,1.662-1.14,2.245-1.592
					c1.719-1.325,3.753-1.713,5.909-1.626c5.285,0.211,9.978,2.789,15.156,3.521c5.061,0.715,9.791-1.083,14.813-0.868
					c1.979,0.086,3.872,0.588,5.371,1.91c0.326,0.286,2.021,2.28,2.049,2.261c0.521-0.334,0.966-0.283,1.487-0.617
					c-2.373-3.703-5.648-6.137-10.063-5.967c-4.725,0.183-9.349,2.357-14.097,1.396c-8.351-1.689-17.404-7.896-24.269,0.635"/>
			</g>
		</g>
		<g>
			<g>
				<path d="M425.233,178.625c0.248,0.418,0.596,0.974,0.847,1.395c0.073,0.127,1.517-0.677,1.788-0.76
					c1.829-0.564,3.883-0.599,5.77-0.24c5.067,0.962,4.778,6.626,8.421,9.287c1.83,1.34,4.088,1.506,6.292,1.846
					c1.067,0.165,2.208,0.492,3.142,1.09c1.067,0.693,1.62,1.942,1.86,3.142c0.216,1.043,0.271,2.114,0.308,3.175
					c0.215,0.173,1.063-0.032,1.355-0.041c-0.087-2.828-0.294-6.667-3.182-8.051c-2.79-1.334-5.945-0.768-8.585-2.675
					c-3.396-2.454-3.336-7.127-7.635-8.83c-3.115-1.235-7.337-0.846-10.23,0.861"/>
			</g>
		</g>
		<g>
			<g>
				<path d="M457.192,179.132c-0.021,3.363,0.209,6.779-0.751,10.031c-0.146,0.484-1.79,4.285-1.781,4.29
					c0.683,0.331,1.5,0.679,2.188,1.01c2.421-5.028,2.787-10.005,2.879-15.492c0.025-1.448-0.039-2.9-0.012-4.35
					c0.021-1.171-1.42-0.766-2.434-0.804c-0.032,1.751,0.035,3.564,0.002,5.315"/>
			</g>
		</g>
		<g>
			<g>
				<path d="M454.538,189.978c2.248,4.545,4.668,10.521,3.109,15.688c-0.677,2.231-2.175,3.997-4.201,5.087
					c-1.182,0.632-2.458,1.08-3.759,1.396c-1.1,0.268-0.622,0.62-0.414,1.615c4.638-0.965,8.882-3.479,10.008-8.394
					c1.243-5.434-0.965-11.335-3.325-16.105c-0.471,0.233-0.865,0.455-1.335,0.686"/>
			</g>
		</g>
		<g>
			<g>
				<path d="M443.418,215.286c-2.918,4.628-7.012,8.472-12.251,10.442c-2.477,0.933-5.313,1.151-7.335-0.82
					c-0.319-0.312-2.191-3.133-2.096-3.173c-0.696,0.3-1.163,0.613-1.861,0.914c1.87,4.362,5.451,7.016,10.247,5.934
					c3.824-0.863,7.172-3.421,10.058-5.993c3.479-3.099,5.254-7.367,8.498-10.61c1.424-1.418,3.068-2.6,5.079-2.719
					c0.908-0.053,1.273,0.57,1.326-0.377c0.032-0.582,0.076-1.009,0.11-1.593c-5.873-0.335-9.229,3.243-12.101,7.795"/>
			</g>
		</g>
		<g>
			<g>
				<path d="M432.354,200.881c-3.688,4.488-6.41,9.492-9.977,14.051c-2.589,3.314-4.745,6.557-6.771,10.281
					c-2.498,4.587-5.494,9.833-11.499,9.365c-2.374-0.186-4.536-1.535-5.58-3.671c-0.186-0.367-0.81-3.323-0.854-3.315
					c-0.605,0.102-1.271,0.485-1.884,0.586c0.965,5.803,5.593,9.024,11.492,7.682c6.786-1.543,9.237-8.549,12.577-13.75
					c2.813-4.387,6.376-8.125,8.861-12.779c3.409-6.381,10.026-10.879,12.182-17.983c-0.506-0.151-1.264-0.547-1.771-0.699
					c-0.69-0.211-1.52,2.004-1.848,2.66c-1.367,2.72-2.751,5.455-4.674,7.795"/>
			</g>
		</g>
		<g>
			<g>
				<path d="M424.358,217.145c0.289,0.172,0.896,0.733,1.221,0.71c0.561-0.952,1.593-1.55,2.608-1.916
					c0.854-0.311,6.136-1.083,5.544,0.964c-0.442,1.536-2.814,3.486-4.457,2.9c-2.241-0.804-4.035-1.506-6.497-1.211
					c0.131,1.09-0.209,1.578,0.98,1.515c1.505-0.077,2.852,0.237,4.223,0.83c2.555,1.104,4.233,0.014,6.136-1.883
					c2.5-2.499,0.616-4.843-2.409-5.124c-2.7-0.25-5.928,0.748-7.381,3.21"/>
			</g>
		</g>
		<g>
			<g>
				<path d="M418.674,186.622c-3.546,3.306-7.161,6.652-9.039,11.224c-1.771,4.323-3.521,8.47-5.773,12.599
					c-2.604,4.766-5.682,9.26-7.594,14.371c-0.807,2.145-1.666,4.346-2.951,6.268c-0.519,0.78-1.314,1.245-2.12,1.743
					c-0.048,0.255,0.858,1.231,1.015,1.474c4.421-2.76,5.278-9.029,7.649-13.288c2.858-5.135,6.021-10.019,8.437-15.407
					c2.146-4.776,3.328-9.424,6.938-13.416c2.347-2.598,4.939-5.009,7.476-7.426c-0.734-0.736-1.085-1.581-1.878-0.826
					c-0.82,0.785-1.234,2-2.057,2.785"/>
			</g>
		</g>
		<g>
			<g>
				<path d="M389.911,180.857c0.303,2.559,0.753,5.243,0.159,7.782c-0.771,3.288-2.807,6.114-4.254,9.112
					c-2.082,4.312-3.135,8.998-4.409,13.588c-1.556,5.576-4.64,12.335-1.636,18.011c2.834,5.354,9.385,5.754,14.615,4.26
					c-0.099-0.323-0.158-1.422-0.43-1.567c-1.508,0.433-3.084,0.979-4.646,0.96c-2.771-0.031-6.058-0.938-7.812-3.229
					c-3.729-4.857,0.271-12.583,1.681-17.625c1.262-4.524,2.396-9.142,4.437-13.392c1.497-3.124,3.644-6.043,4.489-9.447
					c0.701-2.82-0.188-5.742-0.528-8.592c-0.652,0.079-0.897,0.073-1.55,0.151"/>
			</g>
		</g>
		<g>
			<g>
				<path d="M365.699,182.168c0.594,3.708,0.39,7.339-0.271,11.057c-0.767,4.319-2.519,8.376-3.613,12.611
					c-1.523,5.909-1.149,12.532,3.146,17.353c3.337,3.745,8.952,4.395,13.008,1.352c-0.367-0.495-0.602-0.998-0.974-1.494
					c-0.004-0.002-2.543,1.374-2.896,1.466c-2.781,0.713-5.549-0.434-7.492-2.537c-4.164-4.5-3.684-10.654-2.188-16.146
					c1.084-3.98,2.103-7.967,2.853-12.032c0.742-4.027,0.607-7.829,0.002-11.849c-0.647,0.101-1.178,0.25-1.823,0.351"/>
			</g>
		</g>
		<g>
			<g>
				<path d="M346.665,215.295c5.643,1.463,14.257,0.467,18.425-4.159c-0.308-0.275-1.215-1.426-1.585-1.41
					c-0.935,1.036-2.307,1.752-3.575,2.279c-3.89,1.615-8.561,2.03-12.662,0.967c-2.93-0.761-5.056-2.946-5.723-5.892
					c-0.132-0.596-0.382-1.219-0.375-1.829c0-0.102-1.957-0.122-2.228-0.129c-0.175,4.748,3.168,9.075,7.702,10.251"/>
			</g>
		</g>
		<g>
			<g>
				<path d="M372.15,169.593c-2.236,0.546-4.272,1.081-5.604,3.11c-1.501,2.292-2.444,5.055-4.646,6.82
					c-2.438,1.96-4.731,3.213-6.737,5.795c-1.585,2.041-3,4.238-3.991,6.629c0.556,0.229,1.719,1.138,2.012,0.488
					c0.742-1.637,1.499-3.272,2.517-4.753c1.386-2.006,3.031-3.731,5.154-4.971c1.424-0.831,2.771-1.678,3.842-2.968
					c1.697-2.049,2.521-6.352,5.13-7.43c2.28-0.939,4.981-1.261,7.368-1.877c-0.291-1.037-0.09-1.997-1.237-1.701
					c-1.259,0.326-2.524,0.627-3.784,0.95"/>
			</g>
		</g>
		<g>
			<g>
				<path d="M353.077,191.277c-1.754,0.4-3.489,0.917-4.81,2.209c-1.75,1.712-2.224,4.353-3.638,6.323
					c-2.308,3.217-5.408,4.609-5.592,9.003c0.297,0.013,1.406,0.232,1.621,0.061c0.052-1.265,0.299-2.536,1.024-3.603
					c1.207-1.77,3.108-2.974,4.345-4.753c1.518-2.186,2.028-5.433,4.521-6.762c1.521-0.813,3.44-1.048,5.098-1.5
					c-0.655-1.801-0.756-1.46-2.569-0.969"/>
			</g>
		</g>
		<g>
			<g>
				<path d="M343.851,199.648c0.757,0.763,0.774,1.342,1.661,0.6c1.246-1.043,2.746-1.761,4.387-1.722
					c-1.982,3.543-6.56,4.571-9.242,7.435c0.664,0.625,0.788,1.229,1.519,0.563c1.382-1.253,3.122-2.077,4.692-3.069
					c2.478-1.559,4.442-3.251,5.231-6.157c-3.152-0.721-5.958,0.044-8.279,2.349"/>
			</g>
		</g>
		<g>
			<g>
				<path d="M369.342,210.329c-3.889,1.967-4.396,9.868-1.027,12.499c3.285,2.567,7.035,1.033,8.938-2.337
					c-0.579-0.326-0.997-0.953-1.422-0.34c-0.669,0.987-1.679,1.867-2.813,2.293c-3.772,1.416-5.533-3.036-5.104-5.937
					c0.584-3.91,2.719-6.335,6.559-3.774c1.299,0.864,2.021,2.199,2.031,3.769c0.004,0.358-0.3,2.262-0.206,2.291
					c0.47,0.14,0.839,0.343,1.308,0.483c0.701-2.355,0.688-4.906-1.063-6.785c-1.647-1.77-4.771-3.15-7.099-1.973"/>
			</g>
		</g>
		<g>
			<g>
				<path d="M387.666,217.428c-4.314-0.061-6.504,2.532-6.355,6.673c0.115,3.167,3.592,4.163,6.084,4.995
					c1.854,0.614,4.481,1.17,6.059-0.385c1.141-1.123,1.387-3.091,1.418-4.616c0.066-3.64-3.811-6.653-6.986-7.449
					c-0.063,0.257-0.138,0.66-0.199,0.915 M387.947,227.449c-1.584-0.528-4.984-1.084-5.172-3.217
					c-0.217-2.508,0.688-4.569,3.425-4.991c1.774-0.274,3.485-0.246,4.813,0.931c1.055,0.933,2.104,2.33,2.104,3.812
					c0,0.967-0.107,2.118-0.518,2.989c-0.828,1.758-3.326,1.063-4.699,0.604"/>
			</g>
		</g>
		<g>
			<g>
				<path d="M400.167,223.231c-0.641,1.245-1.989,2.927-1.126,4.332c0.66,1.074,2.193,1.447,3.313,1.807
					c1.989,0.632,4.055,1.188,6.146,0.818c0.836-0.146,2.568-1.4,3.244-1.168c0.26-0.638,0.832-0.772,1.25-1.326
					c-1.167-0.422-0.664-1.053-0.664-1.938c0-1.167-0.126-2.361-0.696-3.388c-0.951-1.715-2.713-2.625-4.573-3.084
					c-3.353-0.829-5.545,1.073-6.963,3.913 M404.137,228.38c-1.014-0.276-2.021-0.657-2.967-1.122
					c-1.293-0.638-0.659-1.54-0.115-2.585c0.788-1.576,1.732-3.586,3.653-3.988c2.793-0.582,5.852,1.501,6.173,4.29
					c0.18,1.542-0.092,2.798-1.604,3.315c-1.651,0.565-3.479,0.556-5.144,0.103"/>
			</g>
		</g>
		<g>
			<g>
				<path d="M392.29,194.137c0.104,0.768-0.131,1.565,0.729,1.486c1.481-0.137,3.034-0.09,4.487,0.272
					c1.229,0.304,2.526,0.942,3.202,2.078c0.611,1.028,0.597,0.729,1.854,0.462c-0.909-4.268-6.797-4.771-10.271-4.304"/>
			</g>
		</g>
		<g>
			<g>
				<path d="M372.617,190.755c0.277,0.621,0.357,1.518,1.06,1.297c1.358-0.425,2.915-0.319,4.288-0.063
					c1.287,0.239,2.54,0.761,3.657,1.454c1.067,0.661,1.015,0.256,1.864-0.678c-2.533-2.303-7.648-3.368-10.828-1.943"/>
			</g>
		</g>
		<g>
			<g>
				<path d="M413.201,198.357c0.188,0.75,0.051,1.561,0.896,1.388c1.251-0.258,2.574-0.349,3.838-0.143
					c1.234,0.202,2.454,0.731,3.33,1.648c0.971,1.008,0.82,0.817,2.063,0.101c-2.006-3.45-6.584-3.845-10.106-2.955"/>
			</g>
		</g>
		<g>
			<g>
				<path d="M408.072,211.447c0.037,0.387,0.049,0.803,0.083,1.19c0.063,0.774,1.563,0.321,2.266,0.431
					c0.354,0.056,2.646,0.868,2.664,0.831c0.246-0.419,0.471-0.858,0.719-1.279c-1.705-0.986-3.771-1.308-5.723-1.131"/>
			</g>
		</g>
		<g>
			<g>
				<path d="M388.854,211.411c1.645,0.292,3.233,0.799,4.813,1.336c1.188,0.405,0.974-0.173,1.354-1.221
					c-1.918-0.705-3.883-1.239-5.896-1.599c-0.092,0.517-0.195,1.036-0.289,1.553"/>
			</g>
		</g>
		<g>
			<g>
				<path d="M372.693,203.549c1.74,0.024,3.447,0.549,4.967,1.4c0.974,0.544,0.974-0.119,1.537-0.979
					c-1.91-1.258-4.199-1.955-6.486-1.986c-0.009,0.525,0.004,1.037-0.003,1.56"/>
			</g>
		</g>
		<g>
			<g>
				<path d="M433.063,204.433c1.841,0.073,3.677,0.4,5.389,1.077c1.586,0.626,1.372,0.647,2.128-0.789
					c-2.274-1.198-4.883-1.793-7.445-1.895c-0.021,0.524-0.032,0.981-0.053,1.505"/>
			</g>
		</g>
		<g>
			<g>
				<path d="M429.163,207.413c-1.128,2.324-2.313,4.672-3.963,6.673c-0.842,1.021-1.862,1.889-2.961,2.626
					c-0.88,0.59-0.241,0.977,0.256,1.81c3.96-2.354,6.188-6.39,8.135-10.397c1.011-2.089,1.873-4.307,3.348-6.119
					c0.694-0.855,1.616-1.505,2.539-2.114c0.033-0.272-0.813-1.192-0.979-1.439c-3.157,2.09-4.913,5.59-6.516,8.892"/>
			</g>
		</g>
		<g>
			<g>
				<path d="M413.5,134.74c-1.254,4.062-2.573,8.106-4.091,12.08c-0.753,1.979-1.374,4.025-2.29,5.934
					c-0.133,0.281-1.354,2.053-1.173,2.149c0.428,0.228,0.776,0.318,1.209,0.546c4.013-7.57,6.563-15.766,9.132-23.896
					c1.246-3.946,2.223-8.007,3.868-11.807c0.809-1.872,1.773-3.688,2.772-5.467c0.848-1.504,0.854-1.271-0.515-2.093
					c-4.195,6.96-6.73,14.78-9.118,22.492"/>
			</g>
		</g>
		<g>
			<g>
				<path d="M420.771,134.205c-2.896,6.561-6,13.28-6.947,20.451c1.062,0.14,1.813,0.598,2-0.588
					c0.333-2.14,0.459-4.352,1.091-6.423c1.265-4.157,3.048-8.172,4.792-12.145c3.348-7.6,7.285-15.22,7.946-23.604
					c-0.396-0.031-1.021-0.028-1.403-0.057c-0.821-0.064-0.596,1.626-0.692,2.309c-0.338,2.352-0.678,4.73-1.359,7.002
					C424.827,125.664,422.669,129.899,420.771,134.205"/>
			</g>
		</g>
		<g>
			<g>
				<path d="M422.32,146.457c-0.646,1.938-1.503,3.806-2.146,5.745c-0.363,1.08-0.563,2.21-0.926,3.292
					c-0.297,0.892,0.46,0.715,1.277,0.996c1.666-5.016,3.578-9.918,5.236-14.936c1.81-5.445,3.896-10.779,6.035-16.103
					c1.101-2.723,2.035-5.503,3.313-8.149c0.563-1.177,1.312-2.296,1.923-3.451c-0.109-0.262-1.422-0.716-1.693-0.861
					c-5.608,10.594-8.919,22.235-12.632,33.594"/>
			</g>
		</g>
		<g>
			<g>
				<path d="M432.697,136.995c-1.271,4.431-2.585,8.837-4.113,13.188c-0.795,2.261-1.732,4.445-2.704,6.635
					c-0.126,0.288-0.71,2.098-0.521,2.189c0.438,0.212,0.942,0.694,1.388,0.906c3.787-7.848,6.146-16.303,8.551-24.647
					c1.27-4.393,2.406-8.816,3.984-13.109c0.761-2.063,1.805-3.999,2.7-6.004c0.134-0.292,0.898-2.522,0.717-2.611
					c-0.438-0.213-0.751-0.163-1.19-0.375c-3.724,7.648-6.391,15.697-8.723,23.854"/>
			</g>
		</g>
		<g>
			<g>
				<path d="M434.027,159.391c0.381,0.063,0.528-0.115,0.918-0.053c0.796,0.131,0.596-1.133,0.725-1.781
					c0.459-2.361,1.213-4.65,1.858-6.967c1.284-4.602,2.841-9.105,4.565-13.556c1.688-4.323,3.565-8.554,5.49-12.773
					c0.831-1.819,1.751-3.589,2.612-5.394c0.142-0.299,0.807-2.15,0.61-2.246c-0.438-0.212-0.944-0.673-1.388-0.885
					c-6.67,13.799-13.419,28.346-15.921,43.577"/>
			</g>
		</g>
		<g>
			<g>
				<path d="M447.093,142.238c-1.393,4.764-2.646,9.577-4.134,14.314c-0.696,2.217-1.837,4.292-2.592,6.489
					c-0.104,0.279-0.674,1.808-0.467,1.882c0.457,0.163,0.559,0.453,1.016,0.618c3.104-8.628,6.007-17.316,8.592-26.109
					c1.324-4.509,2.208-9.159,3.652-13.632c0.627-1.954,1.344-3.888,2.033-5.823c0.096-0.277,1.046-1.917,0.842-1.992
					c-0.458-0.169-1.084-0.433-1.538-0.602c-3.009,8.097-5.368,16.456-7.792,24.74"/>
			</g>
		</g>
		<g>
			<g>
				<path d="M458.804,131.53c-1.479,5.418-3.223,10.494-5.789,15.484c-2.665,5.179-5.724,10.406-6.359,16.319
					c0.479,0.052,1.092-0.102,1.568-0.049c0.142,0.014,0.579-2.391,0.682-2.763c0.636-2.458,1.78-4.724,2.935-6.982
					c1.387-2.728,2.975-5.356,4.373-8.077c2.031-3.943,3.008-8.405,4.18-12.661c0.717-2.598,1.59-5.141,2.438-7.699
					c0.43-1.296,0.802-2.621,1.326-3.88c-0.146-0.257-1.117-0.425-1.407-0.546c-1.486,3.563-2.378,7.286-3.398,11.003"/>
			</g>
		</g>
		<g>
			<g>
				<path d="M454.255,163.62c-0.534,1.075-0.494,1.283,0.571,1.815c0.711,0.354,1.643-1.771,1.923-2.332
					c2.001-4.028,3.909-8.11,5.771-12.205c3.775-8.295,7.105-16.937,8.858-25.905c-1.04-0.204-1.434-0.65-1.675,0.52
					c-0.377,1.829-1.279,3.535-1.773,5.337c-1.053,3.837-2.354,7.575-3.816,11.274c-2.896,7.346-6.285,14.46-9.805,21.522"/>
			</g>
		</g>
		<g>
			<g>
				<path d="M465.928,150.986c-1.148,3.818-2.414,7.591-3.87,11.307c-0.646,1.652-1.289,3.285-2.101,4.861
					c-0.776,1.499-0.722,1.204,0.64,1.978c4.034-7.102,5.882-15.115,8.348-22.835c1.195-3.786,2.465-7.632,4.267-11.181
					c0.846-1.667,2.213-3.04,3.32-4.546c0.173-0.232,1.401-1.868,1.258-1.997c-0.37-0.317-1.145-0.596-1.506-0.914
					c-5.604,6.467-7.948,15.305-10.366,23.321"/>
			</g>
		</g>
		<g>
			<g>
				<path d="M468.073,156.855c-1.117,2.737-2.286,5.439-3.54,8.115c-0.676,1.442-1.414,2.871-2.193,4.258
					c0.108,0.269,1.359,0.723,1.627,0.876c3.783-6.729,5.916-14.231,9.202-21.194c1.53-3.236,3.467-6.292,5.604-9.17
					c1.007-1.36,2.2-2.555,3.392-3.76c1.188-1.208,0.817-1.339-0.252-2.492c-6.753,6.287-10.416,14.994-13.833,23.369"/>
			</g>
		</g>
		<g>
			<g>
				<path d="M475.348,151.787c-0.649,1.646-1.188,3.343-1.939,4.949c-0.671,1.44-0.586,1.152,0.729,1.839
					c2.352-4.48,3.812-9.313,6.161-13.794c0.961-1.831,2.155-3.559,3.661-4.994c0.654-0.623,1.378-1.152,2.195-1.542
					c0.081-0.233-0.688-1.393-0.807-1.641c-5.511,2.639-7.938,9.928-10.022,15.173"/>
			</g>
		</g>
	</g>
	<rect id="FingersTarget" x="370.607" y="184.164" fill="#F0A8CA" fill-opacity="0" width="60.439" height="46.21"/>
</g>
<rect id="FingersTargetFixed" x="370.607" y="184.164" fill="#F0A8CA" fill-opacity="0" width="60.439" height="46.21"/>
<rect id="CompressionsTarget" x="370.607" y="227.654" fill="#F0A8CA" fill-opacity="0" width="60.439" height="46.211"/>
</svg>
