<?xml version="1.0" encoding="utf-8"?>
<!-- Generator: Adobe Illustrator 15.0.0, SVG Export Plug-In . SVG Version: 6.00 Build 0)  -->
<!DOCTYPE svg PUBLIC "-//W3C//DTD SVG 1.1//EN" "http://www.w3.org/Graphics/SVG/1.1/DTD/svg11.dtd">
<svg version="1.1" id="Layer_1" xmlns="http://www.w3.org/2000/svg" xmlns:xlink="http://www.w3.org/1999/xlink" x="0px" y="0px"
	 width="720px" height="450px" viewBox="0 0 720 450" enable-background="new 0 0 720 450" xml:space="preserve">
<g>
	<path fill="#576260" d="M234.492-1.503c1.576,21.268,7.876,62.227,8.665,132.331c0.788,70.104,0.528,80.275,0.788,84.283
		c3.819,58.765-14.021,50.653,61.596,53.016c75.618,2.363,88.065-70.344,88.065-70.344s-2.366-34.659,6.301-63.804
		c8.663-29.144,6.301-40.172,7.875-44.11c1.576-3.938,2.364-6.302,2.364-6.302s4.728,66.166,11.028,93.735
		c6.301,27.568,7.877,48.048,8.663,51.987c0.788,3.938,39.386,18.905,76.406,15.752c37.021-3.15,39.384-43.323,49.624-80.343
		c10.239-37.021,15.752-58.289,22.055-89.796c6.303-31.507,16.54-77.193,16.54-77.193L234.492-1.503z"/>
	<g>
		<g>
			<path d="M233.111-0.846c4.678,16.362,5.395,34.247,6.872,51.463c2.116,24.595,3.703,49.351,3.84,74.203
				c0.122,22.58-0.595,45.231-0.506,67.813c0.019,5.275,0.644,36.792,1.246,41.993c1.03-0.22,3.12-0.185,3.004-1.416
				c-0.126-1.293,0.002-28.721-0.043-30.026c-0.157-4.29-0.183-8.558-0.198-12.86c-0.014-4.827-0.69-9.599-0.714-14.423
				c-0.075-13.662-0.506-27.113-0.58-40.774c-0.212-38.659-2.028-77.672-8.091-115.401c-1.136-7.061-0.809-14.661-2.754-21.461
				c-0.734,0.291-0.469,0.305-1.201,0.597"/>
		</g>
	</g>
	<g>
		<g>
			<path d="M404.869,105.864c-0.627,5.863-0.616,11.899-2.321,17.567c-0.696,2.247-1.313,4.53-2.05,6.763
				c-3.05,9.275-7.07,18.335-6.597,28.261c1.155-0.053,2.61,0.31,2.575-0.987c-0.059-2.16-0.124-4.292,0.127-6.439
				c0.486-4.138,1.881-8.038,3.121-12.009c1.475-4.72,2.706-9.521,4.251-14.22c2.302-7.008,2.581-14.477,3.403-21.761
				c0.471-4.141,0.685-8.394,1.722-12.434c0.527-2.067,1.453-4.068,2.258-6.047c0.229-0.57,1.308-1.432,0.594-1.756
				c-0.481-0.217-0.978-0.214-1.457-0.431c-3.36,7.432-4.655,15.477-5.521,23.504"/>
		</g>
	</g>
	<g>
		<g>
			<path d="M409.595,32.778c-0.794,15.833-1.295,31.761,0.629,47.547c0.949,7.814,1.135,15.582,1.396,23.448
				c0.25,7.564,1.109,15.069,3.152,22.397c0.503-0.142,0.579-0.048,1.087-0.19c0.768-0.214-0.105-1.867-0.253-2.515
				c-0.671-2.924-1.312-5.881-1.608-8.867c-0.581-5.819-0.52-11.691-0.717-17.533c-0.397-11.886-1.845-23.603-1.993-35.511
				c-0.181-14.459,0.209-28.92,0.857-43.362c-1.203-0.041-2.287-0.575-2.344,0.685c-0.071,1.601,0.817,3.247,0.747,4.848
				c-0.136,3.027-0.034,6.065-0.173,9.091"/>
		</g>
	</g>
	<g>
		<g>
			<path d="M410.375,17.138c1.228,0.325,1.406,0.662,1.851-0.579c0.525-1.485,1.56-2.75,2.495-4.01
				c1.992-2.681,4.546-4.901,7.273-6.8c2.806-1.954,5.808-3.63,8.95-4.981c1.317-0.563,2.632-1.142,3.996-1.577
				c1.538-0.489,1.405-0.369,0.993-1.883c-5.377,1.46-10.49,4.118-15.035,7.323c-4.383,3.091-8.929,7.164-10.351,12.528"/>
		</g>
	</g>
	<g>
		<g>
			<path d="M381.678-1.768c5.836,1.146,11.525,3.963,16.483,7.181c2.502,1.623,4.879,3.521,6.995,5.629
				c0.942,0.945,1.78,2.011,2.564,3.093c0.816,1.119,1,0.686,2.104-0.024c-2.997-4.651-7.979-7.964-12.662-10.779
				c-4.7-2.828-9.801-5.469-15.211-6.531c-0.102,0.516-0.229,1.189-0.329,1.705"/>
		</g>
	</g>
	<g>
		<g>
			<path d="M359.272,159.831c0.08,0.518,0.133,1.02,0.214,1.538c9.555-1.47,18.702-6.521,26.614-11.903
				c7.804-5.309,15.932-12.213,19.668-21.121c-0.282-0.119-0.894-0.502-1.167-0.42c-0.402,0.956-0.908,1.837-1.415,2.738
				c-1.194,2.123-2.758,4.073-4.332,5.927c-3.391,3.988-7.504,7.366-11.744,10.419c-8.148,5.861-17.911,10.656-27.941,12.199"/>
		</g>
	</g>
	<g>
		<g>
			<path d="M577.413,68.555c-2.1,10.803-3.061,21.858-5.481,32.597c-2.329,10.331-6.544,20.175-9.198,30.423
				c-2.493,9.645-4.862,19.355-6.832,29.119c-0.935,4.642-2.314,9-4.04,13.415c-0.77,1.96-3.718,15.765-4.717,17.622
				c-0.458,0.857,0.398,0.726,1.146,1.146c6.009-10.709,10.265-31.749,12.924-43.54c2.792-12.399,9.12-26.956,12.126-39.3
				c6.674-27.397,8.832-55.823,15.585-83.204c1.085-4.402,2.216-8.834,3.463-13.196c0.159-0.566,1.961-6.308,1.841-6.345
				c-0.728-0.224-1.562,0.56-2.289,0.337c-6.119,19.991-10.377,40.46-14.359,60.958"/>
		</g>
	</g>
</g>
<g>
	<g>
		<path fill="#CFD2D8" d="M279.673,349.38c-19.729-2.583-246.387-15.972-246.649,16.591c40.024,14.171,95.254,14.923,138.015,14.916
			c19.328-0.004,53.519-6.802,72.954-5.275c40.408,3.176-4.771,17.587,12.577,20.504c2.978,21.333,26.781,2.103,117.097,38.129
			c40.938,16.328,323.327,2.857,366.541,8.608c1.27-60.789-236.447-78.65-301.522-91.005c-43.011-8.164-86.986-7.72-130.655-7.72"/>
		<path fill="#476990" d="M869.925,234.85c-14.622,0-31.071,0-52.094,0c-21.02,0-34.18-6.692-73.079-13.982
			c-38.374-7.186-72.237-16.165-95.997-18.993c-23.763-2.828-46.395-1.987-60.103-2.93c-13.71-0.94-18.278-0.94-21.937-0.94
			c-3.653,0-6.914,4.612-6.914,4.612s-22.546,11.506-23.463,41.654c-0.913,30.151,0,37.687,3.656,60.299
			c3.655,22.608,3.655,26.379,3.655,26.379l25.588,42.398c0,0,123.384,20.726,173.65,15.074c50.267-5.652,73.116,1.883,99.621,4.71
			c0,0,30.338-72.717,39.707-105.076C891.584,255.694,869.925,234.85,869.925,234.85z"/>
		<g id="ChestMains">
			<path id="ChestMainExpanded" fill="#F4BF9A" d="M564.685,201.165c-19.896-3.564-29.774-5.04-79.946-2.364
				c-50.184,2.677-54.977,3.404-85.252,3.404c-30.279,0-55.653,13.715-71.993,17.876c-17.299,8.024-42.274,22.421-54.119,28.8
				c-12.911,6.951-19.68-2.099-26.811-5.96c-9.131-4.944-9.155-27.806-9.734-41.418c-0.587-13.618-4.244-27.569-15.439-23.837
				c-11.028,3.675-11.564-4.497-14.44-4.201c-2.984,0.308-3.152,7.089-3.152,7.089c-4.201-5.514-7.936-8.017-10.502-8.401
				c-2.564-0.385-9.189,10.501-14.178,0.261c-2.999-6.155-8.08-7.375-14.441-1.836c-13.471,11.725-18.905,13.652-32.557,12.077
				c-18.389-2.123-43.756,7.134-51.961,14.686c-7.852,7.226-9.106,34.293-7.376,48.562c1.731,14.271,110.365,93.646,114.693,96.32
				c4.325,2.68,42.205-32.768,72.492-1.486c21.882,22.6,167.788,2.391,205.854,1.499c38.064-0.895,107.926-18.188,107.926-18.188
				s-4.257-13.016-5.118-56.713C567.76,223.628,564.685,201.165,564.685,201.165z"/>
			<path id="ChestMain" fill="#F4BF9A" d="M564.685,201.165c-19.896-3.564-30.185,5.649-60.435,22.333
				c-40.093,18.612-63.037,20.48-93.313,20.48c-30.279,0-70.28-3.367-89.438-5.229c-18.168-0.684-36.281,3.752-48.126,10.131
				c-12.911,6.951-19.68-2.099-26.811-5.96c-9.131-4.944-9.155-27.806-9.734-41.418c-0.587-13.618-4.244-27.569-15.439-23.837
				c-11.028,3.675-11.564-4.497-14.44-4.201c-2.984,0.308-3.152,7.089-3.152,7.089c-4.201-5.514-7.936-8.017-10.502-8.401
				c-2.564-0.385-9.189,10.501-14.178,0.261c-2.999-6.155-8.08-7.375-14.441-1.836c-13.471,11.725-18.905,13.652-32.557,12.077
				c-18.389-2.123-43.756,7.134-51.961,14.686c-7.852,7.226-9.106,34.293-7.376,48.562c1.731,14.271,110.365,93.646,114.693,96.32
				c4.325,2.682,42.205-32.768,72.492-1.484c21.882,22.6,167.788,2.391,205.854,1.499c38.063-0.896,107.926-18.188,107.926-18.188
				s-4.257-13.016-5.118-56.713C567.76,223.628,564.685,201.165,564.685,201.165z"/>
		</g>
		<path fill="#CCA387" d="M198.542,173.462c0.268,4.69,0.928,10.294,4.411,13.854c0.892-4.401,0.815-7.292-1.786-10.964"/>
		<path fill="#CCA387" d="M192.19,272.191c-2.252,0.122-5.472,1.302-7.404,2.965c-3.262,2.807-1.109,2.799-2.521,5.711
			c-2.132,4.403,1.139,1.779-3.457,3.546c-2.862,1.1-5.507-2.477-6.248,2.271c5.133,2.032,13.298,10.592,19.1,5.014
			c3.244-3.12,2.432-14.906,0.53-17.933"/>
		<path fill="#6E7D8F" d="M678.11,365.791l7.091,62.227c0,0-12.069-4.807-32.296-1.575c-12.995,2.067-18.904,13.783-56.91,8.425
			c-37.159-5.24-56.272-4.266-61.46-4.266c-5.191,0-42.252-6.655-52.63-8.443c-10.382-1.78-43.363-4.528-43.363-4.528
			s-10.382,1.188-29.991,0.593c-19.606-0.593-27.296-15.131-50.941-21.072c-23.646-5.944-47.871-13.677-53.635-19.621
			c-5.773-5.947-16.152-7.135-24.226-10.702c-8.075-3.57-17.302-10.702-17.302-10.702s5.107-11.979,18.372-41.707
			c13.261-29.728,72.938-32.94,93.131-31.156c20.188,1.785,53.636,8.323,90.549,17.236c36.913,8.923,90.551,32.114,105.543,39.836
			c14.997,7.729,17.534,3.497,35.991,11.815c18.46,8.327,8.51,3.019,23.989,9.595C649.755,370.123,678.11,365.791,678.11,365.791z"
			/>
		<path fill="#7F90A7" d="M633.836,364.565l20.853,2.483c-10.801-5.563-16.047-15.32-27.383-19.769
			c-11.339-4.455-22.587-7.323-34.466-14.561c-11.872-7.236-21.804-4.142-41.77-10.819c-19.98-6.679-56.678-20.347-96.621-32.033
			c-39.947-11.682-72.377-15.725-95.048-16.277c-22.666-0.556-47.262-2.626-64.065,5.251c-18.634,8.734-30.983,17.855-33.123,31.812
			c-3.562,23.236-6.707,36.612-6.707,38.279c0,1.67,2.163,7.794,9.18,10.021c7.015,2.222,11.873,5.563,11.873,5.563
			s-5.398,15.581-5.398,21.421c0,5.843,6.482,11.684,8.906,10.853c2.433-0.837,11.99-2.85,15.228-6.188
			c3.239-3.344,6.302-10.634,6.302-10.634s1.143-11.561,1.143-34.095c0-22.539,23.688-38.383,43.119-40.889
			c19.434-2.502,61.333,0.82,61.333,0.82s7.285,8.353,32.387,13.357c25.096,5.01,40.48,12.52,40.48,12.52s15.484-8.299,23.578,3.388
			c8.098,11.686,31.771,13.111,51.2,18.117c19.434,5.009,12.868-8.1,26.636-6.428c13.763,1.671,19.591,1.917,19.591,1.917
			s12.823,7.265,17.383,8.938C627.878,361.093,633.836,364.565,633.836,364.565z"/>
		<path fill="#F4BF9A" d="M679.635,369.518c15.248-3.315,11.831-4.909,26.832-4.909c14.997,0,38.063,6.108,42.68,10.865
			c4.612,4.753-21.841,11.817-21.841,11.817s6.659-0.735,14.395,2.579c10.426,4.47,23.096,0.806,24.823,4.966
			c1.733,4.165,3.477,8.439,3.477,8.439l-3.97,0.5c0,0-0.913,0.098-1.49,2.479c0,0-10.125,6.007-23.391,11.357
			c-13.267,5.354-26.53,10.705-39.795,9.515c-13.27-1.188-17.252,0.479-17.252,0.479s-3.59-1.853-9.93-17.31
			C667.828,394.836,668.681,371.894,679.635,369.518z"/>
		<path fill="#586572" d="M357.277,301.508c25.324-7.446,38.731,6.454,67.529,3.972c15.67-1.35,19.506,3.345,19.506,3.345
			s34.564-1.698,49.088,5.767c71.495,36.739,61.563,18.059,74.828,27.57c13.271,9.512,4.333,7.874,4.333,7.874l-10.241,5.121
			c0,0-6.439-1.003-14.965-3.149c-9.045-2.281-27.636-5.505-38.991-11.423c-8.121-4.232-6.924-9.986-13.785-12.603
			c-4.906-1.87-10.21,4.381-13.388,3.15c-13.844-5.348-18.42-6.258-24.185-9.821c-5.772-3.566-16.383-3.963-16.383-3.963
			s-27.452-5.551-35.527-7.339c-8.078-1.778-27.685-5.341-29.417-7.129C373.953,301.1,357.277,301.508,357.277,301.508z"/>
		<path fill="#586572" d="M305.621,353.228c6.403,11.568,40.536,23.926,52.166,29.781c33.088,16.661,63.45,18.578,98.136,22.64
			c18.4,2.151,29.95,11.345,47.534,16.249c25.84,7.208,55.281,4.577,82.032,10.482c6.489,1.435,12.993,2.016,19.221,3.542
			c-79.348,2.917-97.291-10.643-145.849-12.438c-31.029-1.153-65.786-5.033-95.036-15.16c-11.114-3.851-17.1-7.906-26.781-13.391
			c-6.865-3.887-23.027-10.986-28.654-15.846c-6.246-5.377-11.934-6.563-4.501-17.833"/>
		<path fill="#8F745E" d="M93.341,186.542c0,0-35.749,12.413-40.215,41.704c-4.471,29.295-7.449,56.603-6.953,58.094
			c0.498,1.492-4.467-0.996-4.467-0.996l1.488,12.912l-4.551-2.963c0,0,1.092,39.141,15.491,48.575
			c14.398,9.433,17.855,8.926,17.855,8.926l-6.564,3.676c0,0,13.134-1.359,11.034,5.34c-0.795,2.538,3.668,4.113,3.668,4.113
			l8.928,3.938c0,0,5.771-0.321,10.24-1.313c4.465-0.995,12.339,3.413,12.339,3.413s15.994-2.479,38.335-4.464
			c22.344-1.987,27.281-9.661,32.743-13.134c5.463-3.478,14.896-9.934,16.883-11.422c1.985-1.489,7.447-3.973,7.447-3.973
			s-5.336-9.353-11.792-15.808c-6.452-6.457-26.047-17.996-26.047-17.996s-9.35-13.331-7.862-19.787
			c1.49-6.45,8.439-10.923,12.412-14.399c3.97-3.473,2.483-7.941,2.483-7.941s-13.457,0.28-23.034-0.822
			c-10.828-1.249-1.769-11.627-14.181-11.627c-12.414,0-21.35-5.956-31.776-7.941c-10.427-1.988-23.441-6.956-23.441-6.956
			l10.247-5.284c0,0,0-1.488-4.47-1.983c-4.466-0.499-8.935,0.495-8.935,0.495s2.634-5.042,6.572-5.565
			c7.892-1.055,14.703-0.264,14.703-0.264s1.35-1.297-8.58-3.281c-9.928-1.984-18.369,1.984-18.369,1.984s2.469-8.226,4.631-13.145
			c3.4-7.735,6.828-12.34,6.828-12.34s-6.297,4.341-10.766,6.827C75.664,203.134,84.405,193.49,93.341,186.542z"/>
		<g>
			<g>
				<g>
					<g>
						<g id="ChestOutlines">
							<path id="ChestOutline" d="M267.071,257.223c-0.775-0.142-0.723-1.109-1.499-1.248c0.671-3.673,4.499-6.932,7.345-9.136
								c2.726-2.114,6.107-2.801,9.135-4.373c3.273-1.702,9.25-3.052,21.28-4.399c17-1.898,13.236-3.39,26.417,0
								c16.626,4.276,47.702,10.097,63.692,6.688c19.29-4.106,35.719,0.37,57.402-4.5c10.246,0.093,32.032-9.76,41.489-13.707
								c10.5-4.382,14.93-5.72,22.967-11.845c18.401-14.025,32.103-11.747,48.224-16.918c2.294,0.522-2.267,2.125,0.037,2.599
								c0.697,0.142,3.607,0.333,3.507,1.059c-0.099,0.657-0.734-0.045-0.832,0.612c-3.911-0.571-7.761-0.071-13.902,2.316
								c-6.333,1.545-12.341,1.87-18.5,4.601c-9.341,4.237-12.192,3.697-21.333,10.798c-7.889,6.128-17.986,7.942-28.167,12.897
								c-9.221,4.485-7.297,3.5-27.042,9.685c-18.979,5.938-39.037,2.403-66.104,5.153c-17.815,1.813-44.815-2-64.441-6.5
								c-14.324-3.282-14.338,0-29-0.75c-6.442-0.329-11.235,1.704-17.091,4.409c-4.945,2.281-10.01,5.398-11.861,10.898
								c-0.083,0.239-0.633-0.166-0.676,0.084"/>
							<path id="ChestOutlineExpanded" d="M267.071,257.223c-0.775-0.142-0.723-1.109-1.499-1.248
								c0.671-3.673,4.499-6.932,7.345-9.136c2.726-2.114,6.107-2.801,9.135-4.373c3.273-1.702,9.889-4.978,13.112-6.774
								c11.878-6.625,21.972-13.779,34.437-19.248c16.003-7.009,30.031-10.191,47.221-13.453c19.377-3.676,39.702-4.379,59.34-4.202
								c10.246,0.092,19.427,0.108,29.668-0.262c10.101-0.363,23.011-0.636,33.085-1.432c19.686-1.555,37.301-2.329,56.713,2.101
								c2.294,0.522,5.636,0.71,7.941,1.184c0.7,0.142,3.605,0.333,3.505,1.059c-0.094,0.657-0.734-0.045-0.832,0.612
								c-3.911-0.571-7.578-0.758-11.443-1.56c-5.02-1.043-10.188-1.241-15.291-1.702c-9.906-0.895-19.851-1.026-29.771-0.464
								c-9.979,0.563-19.943,1.166-29.905,1.898c-10.221,0.751-20.432,1.646-30.679,1.638c-19.896-0.011-39.913-0.115-59.714,2.274
								c-17.779,2.141-37.25,6.544-53.839,13.178c-13.646,5.456-24.492,12.031-37.369,19.094
								c-5.655,3.103-11.716,5.548-17.572,8.253c-4.945,2.285-10.01,5.402-11.861,10.902c-0.083,0.235-0.633-0.166-0.676,0.084"/>
						</g>
					</g>
					<g>
						<path d="M278.236,398.328c-0.297,0-0.515-1.202-0.513-1.453c0.006-0.717,0.553-0.985,1.275-1.021
							c1.692-0.081,3.299-0.179,4.889-0.76c3.195-1.173,7.341-2.593,9.704-5.017c5.32-5.454,7.605-13.133,9.292-20.503
							c1.005-4.381,1.043-8.748,0.656-13.221c-0.42-4.867-1.008-9.723-0.85-14.625c0.234-7.275,3.539-13.033,8.515-18.202
							c9.422-9.788,22.319-16.315,34.972-20.801c15.47-5.481,32.356-8.976,48.801-7.481c0.151,0.015,0.005,0.179,0.16,0.191
							c-0.042,0.441-0.28,0.76-0.324,1.203c-0.046,0.491-0.919-0.279-1.362-0.31c-2.049-0.154-4.139,0.671-6.195,0.668
							c-4.139-0.009-8.208,0.348-12.314,0.865c-8.698,1.101-17.296,2.968-25.622,5.702c-12.692,4.161-25.961,9.842-35.766,19.097
							c-4.729,4.465-8.778,9.96-9.551,16.563c-1.125,9.606,2.647,19.139,0.885,28.764c-2.366,12.916-4.469,30.755-26.651,29.687"/>
					</g>
					<g>
						<path d="M282.153,397.111c-3.336,0-7.048-1.004-9.675-3.216c-2.021-1.703-2.308-3.528-1.905-6.017
							c0.88-5.445,2.795-10.646,3.688-16.091c1.25-7.637,2.158-15.325,3.011-23.015c0.431-3.863,0.806-7.729,0.971-11.614
							c0.08-1.89,0.417-3.777,0.407-5.669c-0.002-0.426-0.492-1.796,0.023-1.808c0.444-0.009,0.703,0.12,1.145,0.111
							c0.334,14.99-1.733,30.245-4.443,44.952c-0.502,3.072-1.684,6.073-2.444,9.089c-0.517,2.057-2.187,5.342-1.102,7.385
							c1.641,3.08,6.121,3.87,9.299,4.029c1.835,0.094,3.743,0.096,5.529-0.348c0.406-0.102,0.953-0.713,1.118-0.251
							c0.149,0.417,0.667,0.855,0.815,1.271c-2.029,0.724-4.288,1.107-6.437,1.107"/>
					</g>
					<g>
						<path d="M570.537,313.987c-1.395-19.192-3.734-38.353-3.782-57.623c-0.044-16.848,1.563-33.825-1.716-50.491
							c-0.412-2.088-0.242-4.343-0.844-6.383c-0.182-0.621-1.396-1.472-0.672-1.705c0.49-0.157,0.788,0.165,1.278,0.006
							c5.265,16.302,4.995,34.16,4.568,51.054c-0.472,18.585,1.492,36.94,3.114,55.425c0.279,3.17,0.776,6.417,1.007,9.592
							c-0.656,0.049-1.205-0.051-1.855-0.003"/>
					</g>
					<g>
						<path d="M583.763,200.653c-4.106-0.424-8.174-1.312-12.276-1.802c-1.971-0.237-3.955-0.371-5.942-0.35
							c-0.413,0.002-1.365,0.311-1.379-0.345c-0.012-0.583-0.087-1.105-0.102-1.689c4.075-0.248,8.17,0.205,12.194,0.808
							c2.061,0.311,4.107,0.726,6.174,0.991c0.414,0.054,1.625-0.109,1.574,0.557c-0.048,0.583-0.184,1.202-0.229,1.787"/>
					</g>
					<g>
						<path d="M831.191,236.125c-9.555,0-19.252,0.362-28.555-1.887c-4.312-1.042-8.601-2.16-12.916-3.2
							c-9.74-2.339-19.61-3.899-29.432-5.848c-25.248-5.012-47.454-9.562-72.854-13.737c-19.195-3.155-39.838-6.876-59.215-8.736
							c-8.004-0.769-14.279-3.039-22.329-3.236c-3.813-0.093-9.222-0.844-12.943,0c-2.225,0.503-5.737,2.852-7.889,3.607
							c-0.812,0.288-1.717-0.513-1.977-1.231c-0.167-0.462,0.886-0.17,0.72-0.633c7.88-2.85,14.078-5.49,22.412-4.658
							c7.08,0.712,15.468,2.355,22.548,3.106c8.358,0.887,16.691,2.088,25.006,3.319c24.698,3.662,49.214,8.478,73.786,12.917
							c21.716,3.925,43.943,5.992,65.378,11.295c3.228,0.797,6.342,2.068,9.567,2.884c7.357,1.864,14.675,3.597,22.254,3.915
							c15.119,0.635,30.227-1.764,45.338-1.869c0.004,0.665-1.027,2.117-1.021,2.781c0.004,0.695,0.331-0.288-0.252-0.279
							c-1.036,0.012-2.031,2.059-3.067,2.082c-3.847,0.097-7.699-0.595-11.536-0.393c-7.662,0.399-15.347,1.742-23.022,1.742"/>
					</g>
					<g>
						<path d="M897.733,365.648c-20.252-2.216-40.434-5.261-60.773-6.061c-20.523-0.806-40.813-2.076-61.058-5.658
							c-19.594-3.467-38.492-5.635-57.725-10.776c-19.689-5.262-40.226-10.87-60.106-15.384
							c-20.762-4.711-41.792-8.327-62.52-13.179c0.098-0.431,0.946-1.444,1.05-1.876c0.113-0.496,1.473-0.204,1.95-0.093
							c2.598,0.604,5.323,0.633,7.922,1.227c4.989,1.134,9.014,2.915,14.007,4.024c9.817,2.179,21.952,5.156,31.77,7.352
							c19.961,4.465,38.467,8.079,58.17,13.588c19.239,5.377,38.568,10.145,58.216,13.686c10.147,1.83,20.284,3.811,30.548,4.888
							c10.136,1.064,20.411,0.409,30.592,0.872c22.783,1.037,45.707,1.093,68.395,3.572c-0.056,0.524-0.329,3.208-0.386,3.729"/>
					</g>
					<g>
						<path d="M682.718,427.127c-8.022-7.558-12.29-18.532-13.446-29.348c-1.029-9.683,0.237-20.552,5.672-28.866
							c0.758,0.496,1.28,0.433,0.756,1.282c-0.646,1.046-1.133,2.22-1.636,3.343c-1.04,2.316-1.38,4.88-1.929,7.354
							c-1.217,5.485-1.921,11.162-1.321,16.74c0.628,5.837,2.197,11.684,4.75,16.979c1.259,2.611,3.181,4.843,4.968,7.129
							c0.844,1.079,1.521,2.295,2.485,3.27c0.279,0.284,1.157,0.775,0.825,1.13c-0.304,0.321-0.636,0.466-0.94,0.789"/>
					</g>
					<g>
						<path d="M611.3,437.247c-8.837,0-17.061-2.511-25.749-3.601c-4.804-0.601-11.72,1.747-16.532,1.854
							c-5.132,0.115-9.335-1.356-14.441-1.837c-10.149-0.95-18.979-3.466-29.165-3.975c-8.775-0.438-17.563,0.638-26.163-1.367
							c-9.841-2.298-19.226-6.637-27.691-12.115c0.234-0.362,0.951-1.776,1.332-1.88c1.828,1.183,3.551,2.476,5.447,3.539
							c3.47,1.942,7.25,3.517,10.957,4.95c7.558,2.913,15.755,3.905,23.812,4.608c4.736,0.412,9.442,1.063,14.186,1.363
							c5.141,0.322,10.351-0.103,15.463,0.507c10.014,1.197,20.071,3.679,30.176,3.254c3.783-0.162,7.469-1.228,11.251-0.858
							c3.422,0.334,6.83,0.86,10.196,1.55c7.448,1.527,14.829,2.325,22.444,1.571c6.061-0.595,11.994-1.487,17.615-3.733
							c6.565-2.625,12.822-6.112,19.785-7.477c0.076,0.387,0.474,1.219,0.547,1.605c0.161,0.807,0.288,1.246-0.603,1.429
							c-2.385,0.484-3.786,0.55-6.117,1.252c-3.938,1.191-8.787,4.247-12.602,5.774c-7.853,3.146-15.619,5.105-24.147,5.105"/>
					</g>
					<g>
						<path d="M470.303,423.136c-10.031,0.603-19.992-0.504-29.95-1.346c-4.839-0.414-9.713-0.143-14.585-0.16
							c-4.918-0.019-9.824-0.188-14.734-0.34c-4.918-0.15-9.622-1.315-14.317-2.957c-4.478-1.562-8.837-3.401-13.22-5.255
							c-7.544-3.189-15.793-2.714-23.558-4.899c-11.917-3.362-21.648-12.341-32.71-18.104c-5.308-2.766-10.828-4.138-16.348-6.104
							c-4.866-1.74-8.926-5.059-11.766-10.337c0.36-0.311,0.825-0.979,1.212-0.926c1.088,2.018,2.599,3.869,4.199,5.264
							c2.938,2.564,6.854,3.271,10.34,4.299c4.513,1.331,9.316,1.584,13.585,3.79c4.283,2.211,7.644,6.692,11.72,9.395
							c4.135,2.745,8.396,5.49,12.815,7.528c3.807,1.759,7.948,2.657,11.972,3.513c3.56,0.756,7.417-0.364,10.988,0.304
							c4.626,0.864,8.521,4.862,12.847,6.869c3.839,1.783,7.938,3.017,11.999,3.993c4.16,0.996,8.52,1.187,12.778,1.221
							c4.31,0.031,8.621,0.126,12.937,0.164c4.473,0.036,8.919-0.084,13.368,0.304c8.496,0.74,17.02,1.941,25.577,1.692
							c4.438-0.13,8.918-0.601,13.346-1.142c2.256-0.272,4.452-0.287,6.697-0.683c0.302,0.375,0.083,0.544,0.127,1.119
							C480.487,421.243,475.458,422.823,470.303,423.136"/>
					</g>
					<g>
						<path d="M476.819,328.032c-6.898-0.417-13.675-2.537-20.044-5.046c-3.25-1.28-6.434-2.729-9.753-3.814
							c-3.717-1.215-7.552-1.887-11.39-2.628c-7.565-1.458-15.183-2.472-22.434-5.203c-3.417-1.289-6.535-3.359-9.935-4.691
							c-1.855-0.726-3.844-1.136-5.749-1.729c-0.136-0.313,0.496-1.583,0.606-1.938c6.981,2.176,13.405,5.919,20.399,8.049
							c7.306,2.221,15.043,2.885,22.473,4.614c7.167,1.669,13.755,4.588,20.644,7.09c3.294,1.197,6.765,1.849,10.2,2.563
							c1.693,0.35,3.415,0.539,5.143,0.644c0.202,0.237-0.15,2.031-0.172,2.375"/>
					</g>
					<g>
						<path d="M562.052,355.396c-10.006-1.38-19.869-3.679-29.574-6.426c-4.864-1.378-9.635-3.068-14.488-4.481
							c-4.098-1.191-9.512-1.335-12.733-4.336c-3.424-3.183-5.132-9.088-9.945-10.556c-2.485-0.76-5.245-0.105-7.635,0.743
							c-1.793,0.636-3.461,1.59-5.118,2.519c-0.275,0.154-2.359,1.372-2.398,1.311c-0.304-0.481-0.737-0.884-1.038-1.364
							c-0.04-0.058-0.023,0.054-0.061-0.004c4.979-3.134,11.896-7.09,17.891-4.416c4.738,2.112,6.434,7.392,10.23,10.563
							c1.629,1.361,3.777,1.399,5.772,1.963c2.468,0.694,4.927,1.44,7.388,2.159c4.821,1.41,9.69,2.647,14.531,4
							c4.866,1.36,9.74,2.631,14.672,3.734c2.333,0.525,4.541,1.665,6.892,2.093c1.166,0.212,2.386,0.1,3.551,0.28
							c0.698,0.11,2.399-0.042,2.285,0.807c-0.072,0.509-0.132,0.675-0.202,1.184"/>
					</g>
					<g>
						<path d="M367.98,227.677c-2.193,0-3.212-0.981-4.377-2.563c1.94-1.429,4.403-2.398,6.823-2.575
							c2.576-0.19,4.27,0.81,5.85,2.728c-2.623,1.138-5.379,2.331-8.296,2.331 M365.982,225.505
							c0.385,0.458,2.344,1.262,7.594-0.808c-2.273-1.501-5.496-0.383-7.656,0.787 M365.518,225.763
							c0.097,0.085,0.159,0.151,0.256,0.234c0.112-0.146,0.204-0.321,0.186-0.505c-0.145,0.081-0.341,0.167-0.485,0.25"/>
					</g>
				</g>
				<g>
					<path d="M592.148,320.381c-0.171-9.64-0.258-19.305-0.849-28.929c-0.581-9.491-2.468-18.883-3.258-28.36
						c-0.81-9.667-1.418-19.359-1.712-29.054c-0.294-9.873,0.243-19.854-1.308-29.626c-0.061-0.361-0.867-2.982-0.766-3.001
						c0.493-0.096,0.53-0.504,1.024-0.599c1.892,9.776,2.981,19.66,3.296,29.588c0.31,9.737,0.356,19.469,1.105,29.183
						c0.735,9.503,2.42,18.932,3.084,28.44c0.661,9.518,0.721,19.087,0.914,28.627c0.025,1.233,0.025,2.579,0.046,3.813
						c-0.526,0.011-1.678-0.067-2.201-0.059"/>
				</g>
				<g>
					<g>
						<path d="M732.433,384.996c-0.04-0.349-0.248-1.359,0.156-1.413c0.928-0.123,1.812-0.557,2.732-0.73
							c3.558-0.682,8.048-0.927,10.557-3.819c0.94-1.082,1.718-2.41,2.143-3.778c0.218-0.701,0.257-1.509,0.228-2.248
							c-0.028-0.684-1.282-0.794-1.832-0.853c-4.522-0.485-8.902-0.966-13.246-2.418c-6.617-2.214-13.475-2.629-20.362-3.581
							c-5.377-0.743-10.735-0.968-16.142-0.264c-3.369,0.439-6.732,1.038-9.996,1.979c-2.106,0.607-4.042,1.748-6.105,2.489
							c-0.465,0.167-2.5,0.855-2.68,0.384c-0.156-0.411,0.009-0.63-0.149-1.045c7.355-2.804,15.714-5.988,23.614-6.403
							c5.624-0.295,11.771,1.113,17.329,1.84c3.944,0.514,6.382,1.288,10.24,2.294c3.067,0.797,6.053,1.845,9.181,2.411
							c2.128,0.384,4.27,0.72,6.419,0.928c1.242,0.121,3.652-0.212,4.689,0.663c1.776,1.502-0.591,5.539-1.5,6.989
							c-2.126,3.386-5.061,4.347-8.765,5.198c-2.114,0.486-4.255,0.856-6.412,1.106"/>
					</g>
					<g>
						<path d="M698.724,430.249c-8.627,0-16.595-2.805-25.189-3.424c-4.667-0.337-10.045,0.694-14.721,0.536
							c-2.742-0.095-4.806-0.976-7.55-0.998c-0.714-0.005-2.152,0.32-2.152-0.55c0-0.515-0.324-1.047-0.324-1.56
							c14.724,0,29.293,1.309,43.964,2.268c6.015,0.395,12.565,1.238,18.48-0.178c2.381-0.571,4.522-1.952,6.749-2.949
							c1.101-0.49,2.378-0.593,3.477-1.09c0.141-0.064,0.57,1.101,0.681,1.342c-3.135,1.421-6.282,2.836-9.605,3.775
							C708.281,428.624,703.11,430.249,698.724,430.249"/>
					</g>
					<g>
						<path d="M711.746,422.923c-0.061-0.521-0.193-1.011-0.253-1.532c7.882-0.882,16.27-0.299,23.869-2.921
							c2.661-0.917,5.26-2.293,7.271-4.278c0.454-0.451,0.77-1.04,1.137-1.564c0.256-0.36,1.088,0.449,1.409,0.646
							c-2.165,3.591-6.582,5.836-10.434,6.962c-7.488,2.187-15.402,1.892-23.076,2.751"/>
					</g>
					<g>
						<path d="M737.771,413.943c-4.597,0-9.296-0.475-13.844-1.052c-5.32-0.672-10.695-1.711-15.856-3.213
							c0.133-0.461,0.085-1.247,0.611-1.099c1.058,0.297,2.167,0.438,3.236,0.665c2.636,0.559,5.34,0.744,8.004,1.137
							c5,0.731,10.026,1.328,15.072,1.678c5.922,0.412,11.377-1.625,17.03-3.183c3.19-0.881,6.46-1.458,9.574-2.596
							c1.024-0.372,2.123-0.598,2.998-1.261c0.639-0.481,1.041,0.399,1.549,0.944c-3.042,2.857-8.274,2.957-12.115,3.967
							c-5.267,1.385-10.75,3.813-16.26,3.813"/>
					</g>
					<g>
						<path d="M738.839,406.513c-5.905,0-10.812-2.815-15.98-5.468c-2.798-1.439-5.719-2.646-8.473-4.173
							c-1.429-0.793-2.733-1.82-4.18-2.583c-0.34-0.18-1.19-0.215-0.985-0.628c0.197-0.398,0.455-0.687,0.652-1.082
							c6.896,3.411,13.273,7.84,20.42,10.757c4.775,1.947,9.461,1.292,14.532,1.007c3.84-0.217,7.685-0.416,11.517-0.782
							c2.258-0.216,4.547-0.131,6.804-0.375c1.744-0.186,4.254-0.047,4.246-2.473c-0.011-3.697-2.95-5.69-6.211-6.107
							c-3.819-0.488-7.671-0.686-11.453-1.448c-9.824-1.979-18.3-8.09-27.31-12.256c-4.136-1.914-8.471-3.416-12.736-5.025
							c-1.7-0.641-3.39-1.342-5.137-1.834c-0.667-0.184-1.463-0.063-2.143-0.189c-0.141-0.238,0.326-1.352,0.379-1.645
							c6.106,1.134,11.973,4.085,17.586,6.618c6.651,3.002,13.012,6.545,19.603,9.651c4.015,1.895,8.466,2.725,12.842,3.405
							c3.628,0.564,7.669,0.211,11.187,1.273c3.081,0.931,5.433,4.761,5.134,8.014c-0.352,3.85-5.495,3.054-8.303,3.346
							c-7.3,0.754-14.643,1.674-21.99,1.674"/>
					</g>
				</g>
				<g>
					<path d="M307.509,361.432c-2.866-1.447-5.833-3.192-7.533-5.988c-1.372-2.256-1.831-4.896-2.443-7.423
						c-0.932-3.852-2.766-6.91-5.2-10.016c-2.656-3.394-5.521-6.718-7.76-10.418c-4.495-7.423,0.495-14.708,4.775-20.843
						c2.053-2.941,5.29-6.889,4.597-10.75c-0.28-1.554-1.631-2.609-2.768-3.665c-0.357-0.331-1.77-1.495-1.502-1.881
						c0.251-0.365,0.514-0.309,0.766-0.676c2.768,1.918,5.189,4.356,4.906,7.913c-0.341,4.246-3.303,8.059-5.634,11.413
						c-2.18,3.139-4.809,6.396-5.442,10.246c-0.656,4.007,1.523,7.091,3.899,10.145c2.593,3.334,5.543,6.43,7.89,9.952
						c2.128,3.189,2.83,6.878,3.696,10.559c0.539,2.283,1.134,4.589,2.75,6.349c1.044,1.134,2.542,1.764,3.861,2.557
						c0.412,0.247,1.7,0.867,1.479,1.304c-0.2,0.393-0.229,1.021-0.429,1.416"/>
				</g>
				<g>
					<path d="M257.302,327.933c-5.258-8.403-4.455-20.212,0.025-28.765c0.647,0.339,1.518,0.407,1.147,1.148
						c-0.669,1.336-1.192,2.727-1.646,4.15c-0.96,3.015-1.526,6.142-1.554,9.303c-0.027,3.018,0.296,6.07,1.244,8.939
						c0.419,1.272,1.021,2.478,1.676,3.646c0.339,0.605,0.598,0.706,0.006,1.074c-0.304,0.19-0.735,0.405-1.041,0.596"/>
				</g>
				<g>
					<path d="M478.279,311.609c-41.256-1.404-82.205-8.053-123.498-8.791c-2.086-0.037-4.185,1.157-6.271,1.148
						c-0.44-0.001-1.243-0.304-1.243-0.832c0-0.442-0.637-1.243-0.637-1.685c41.137,0,81.907,6.932,122.939,8.943
						c2.285,0.112,4.591-0.089,6.878-0.003c0.436,0.016,1.67-0.56,1.653-0.033c-0.015,0.443,0.196,0.37,0.182,0.812"/>
				</g>
				<g>
					<path d="M575.855,349.776c-4.941-5.661-10.594-8.379-18.185-8.914c-7.14-0.5-13.664-2.396-20.632-4.478
						c-9.217-2.754-17.717-7.565-25.946-12.406c-8.239-4.849-17-8.837-26.175-11.698c-19.158-5.972-38.955-9.521-58.39-14.394
						c-19.586-4.911-38.419-13.113-58.488-16.04c-9.989-1.457-21.331-0.473-31.127,2.157c-4.404,1.181-7.407,2.818-11.571,4.664
						c-2.347,1.041-5.154,1.112-7.461,2.24c-1.149,0.563-2.403,1.188-3.548,1.76c-0.266-0.127-0.698-1.56-0.838-1.84
						c7.342-3.665,15.388-6.084,23.311-8.323c8.069-2.28,16.362-3.097,24.703-2.447c20.15,1.567,39.216,8.826,58.472,14.326
						c19.352,5.534,38.953,9.783,58.408,14.905c9.458,2.492,18.088,5.778,26.61,10.569c8.523,4.79,16.792,9.401,25.685,13.505
						c4.482,2.069,9.496,3.063,14.411,3.553c3.721,0.374,7.358,1.635,11.086,1.775c3.429,0.13,6.447,0.806,9.629,2.156
						c4.368,1.859,8.269,4.213,11.36,7.755c-0.395,0.346,0.271-0.278-0.121,0.064"/>
				</g>
				<g>
					<path d="M658.465,368.299c-7.816,0-16.129-1.094-23.496-3.682c-4.161-1.462-8.011-3.642-11.961-5.595
						c-4.304-2.13-8.68-3.809-13.112-5.663c-7.406-3.101-14.338-5.172-22.36-4.405c-8.246,0.786-16.191,3.392-23.604,6.967
						c-2.938,1.42-5.984,2.684-8.836,4.275c-0.369,0.209-3.635,2.599-3.679,2.521c-0.32-0.551-0.608-1.318-0.932-1.869
						c14.847-8.637,31.747-17.137,49.387-14.213c4.262,0.705,8.081,3.141,12.051,4.83c4.42,1.879,8.669,4.038,12.975,6.151
						c7.214,3.539,14.91,6.075,22.854,7.452c5.506,0.954,11.1,1.622,16.667,1.229c3.179-0.225,5.428-0.652,8.574-1.163
						c1.622-0.265,4.424-1.26,6.04-1.575c0.261,0.193,0.079,2.24,0.146,2.593c-6.692,1.312-13.88,2.403-20.714,2.403"/>
				</g>
				<g>
					<path d="M640.939,425.524c-3.855-8.167-7.631-16.849-7.712-26.04c-0.081-9.571,3.805-18.581,8.498-26.688
						c0.28,0.162,1.314,0.568,1.437,0.85c-0.795,1.375-1.328,2.878-2.068,4.282c-1.297,2.459-2.892,4.793-3.902,7.381
						c-1.708,4.359-2.608,9.043-2.629,13.747c-0.016,4.666,0.864,9.303,2.369,13.697c0.874,2.556,2.154,4.962,3.24,7.435
						c0.611,1.393,1.238,2.773,1.885,4.149c0.404,0.861-0.46,0.873-1.218,1.231"/>
				</g>
			</g>
			<g>
				<g>
					<path d="M267.595,251.09c-5.384,0-11.403-0.931-16.31-3.149c-5.324-2.408-9.052-6.778-11.445-12.097
						c-3.197-7.103-3.983-14.974-3.931-22.636c0.032-4.649,0.652-9.292,0.666-13.939c0.011-3.833-0.358-7.793-1.557-11.47
						c-1.941-5.963-8.438-12.617-15.097-9.301c-2.532,1.261-6.831,3.523-8.987,0.584c-1.009-1.373-1.652-4.655-3.775-4.704
						c-0.966-0.022-0.848,0.921-1.406,0.043c-0.312-0.492-0.841-0.652-1.154-1.145c4.018-2.562,6.327,1.181,8.203,4.163
						c1.416,2.252,6.06-0.659,7.63-1.198c6.754-2.321,13.427,2.617,16.159,8.449c3.568,7.614,1.934,17.072,1.74,25.194
						c-0.188,7.895-0.011,16.212,2.868,23.7c2.307,6.003,6.457,10.942,12.493,13.199c3.546,1.325,7.486,1.72,11.234,2.136
						c0.865,0.095,1.763-0.271,2.633-0.252c0.101,0.001,0.4,2.524,0.4,2.796"/>
				</g>
				<g>
					<path d="M202.536,182.555c-0.921-2.217-1.872-4.79-3.263-6.752c-0.881-1.245-2.316-1.991-3.701-2.549
						c-0.282-0.112-2.365-0.788-2.348-0.851c0.128-0.486,0.204-1.014,0.334-1.5c2.793,0.737,6.02,2.012,7.409,4.758
						c1.046,2.067,2.002,4.167,2.939,6.283c-0.481,0.211-0.944,0.388-1.426,0.599"/>
				</g>
				<g>
					<path d="M203.808,187.727c-2.809-1.56-4.044-4.629-4.616-7.647c-0.267-1.421-0.473-2.846-0.659-4.278
						c-0.059-0.437-0.478-1.628-0.08-1.808c0.403-0.185,0.867-0.376,1.27-0.557c0.604,1.329,0.509,3.006,0.686,4.434
						c0.182,1.475,0.468,2.948,0.975,4.352c0.458,1.272,1.094,2.533,2.129,3.423c0.315,0.272,1.15,0.461,0.922,0.874
						c-0.216,0.389-0.403,0.809-0.619,1.195"/>
				</g>
				<g>
					<path d="M160.55,205.706c-0.359-0.01-0.717-0.078-1.076-0.086c-0.892-0.024-0.517-0.917-0.539-1.677
						c-0.051-1.855-0.309-3.685-0.743-5.49c-0.448-1.864-0.97-3.71-1.625-5.508c-0.147-0.411-0.94-1.578-0.449-1.762
						c0.416-0.154,0.824-0.274,1.24-0.428c1.817,4.863,3.407,9.662,3.264,14.911"/>
				</g>
				<g>
					<path d="M204.303,188.212c-0.498-0.077-0.987-0.208-1.481-0.285c-0.079-0.011,0.366-3.164,0.403-3.578
						c0.163-1.85,0.069-3.689-0.05-5.542c-0.08-1.253-0.406-2.864,0.161-4.036c0.537-1.11,1.7-1.953,2.819-2.416
						c0.169,0.409,0.34,0.821,0.51,1.23c0.163,0.394-0.277,0.468-0.606,0.674c-1.356,0.847-1.456,1.656-1.359,3.099
						c0.243,3.667,0.216,7.198-0.349,10.84"/>
				</g>
				<g>
					<path d="M151.159,196.118c-0.566,0-1.139-0.059-1.699-0.139c0.074-0.498,0.152-1.001,0.225-1.499
						c-0.009,0.062,3.136-0.03,3.488-0.085c1.378-0.215,2.736-0.639,3.986-1.259c0.264,0.122,0.548,1.096,0.686,1.374
						c-2.056,1.023-4.389,1.593-6.686,1.593"/>
				</g>
				<g>
					<path d="M136.842,199.931c-1.096-4.188-3.739-7.757-3.948-12.197c0.501-0.025,0.942-0.102,1.443-0.126
						c-0.074,0.004,0.683,3.364,0.811,3.74c0.942,2.783,2.458,5.327,3.202,8.181c-0.508,0.133-0.974,0.263-1.481,0.397"/>
				</g>
				<g>
					<path d="M47.429,296.581c-2.714-8.192-2.657-16.96-4.085-25.401c-0.099-0.583-0.483-1.332,0.137-1.55
						c0.608-0.211,1.165-0.567,1.773-0.782c0.104-0.037,0.38,0.718,0.426,0.81c1.163,2.327,2.319,4.65,3.482,6.978
						c-0.595,0.297-1.215,0.5-1.809,0.796c-0.569,0.286-0.445-0.292-0.695-0.791c0.625,5.161,0.85,10.34,2.04,15.414
						c0.284,1.202,0.748,2.36,1.119,3.541c0.125,0.396-1.868,0.873-2.273,1.008"/>
				</g>
				<g>
					<path d="M84.056,225.778c-0.241-0.465-0.454-0.813-0.694-1.279c4.333-2.241,9.381-2.974,14.203-2.637
						c-5.046-2.53-10.88-3.382-16.408-2.077c-1.458,0.344-2.893,0.797-4.239,1.461c-0.266,0.131-0.609,0.133-0.864,0.287
						c-0.055,0.032-0.745-1.146-0.84-1.3c5.73-3.528,13.81-3.269,19.91-1.065c1.379,0.498,2.691,1.146,3.979,1.843
						c0.705,0.381,1.373,0.816,2.046,1.247c0.69,0.443,0.634,0.346,0.351,1.007c-0.198,0.46-0.226,0.751-0.703,0.66
						c-0.593-0.11-1.177-0.28-1.774-0.352c-5.027-0.593-10.5-0.225-15.052,2.131"/>
				</g>
				<g>
					<path d="M48.563,323.389c-7.436-8.965-10.656-20.475-11.998-31.825c1.915,2.088,3.865,4.162,5.78,6.252
						c-0.333-2.644-0.495-5.315-0.396-7.979c0.006-0.146,1.795-0.137,2.021-0.151c0.664-0.042,1.1,2.128,1.363,2.8
						c0.897,2.281,1.971,4.509,3.358,6.522c0.167,0.241,0.814,0.776,0.537,0.986c-0.582,0.444-1.133,0.764-1.713,1.207
						c-1.065-1.391-2.08-2.781-2.923-4.312c0.071,0.652,0.93,4.261,0.578,4.452c-0.271,0.147-1.753,1.352-1.936,1.154
						c-1.079-1.177-2.012-2.449-3.092-3.627c0.972,4.495,2.323,8.915,4.225,13.104c1.176,2.587,2.507,5.118,4.132,7.449
						c0.403,0.58,2.087,2.093,1.533,2.552c-0.51,0.423-0.855,0.902-1.368,1.326"/>
				</g>
				<g>
					<path d="M60.772,343.008c-2.629-1.075-5.619-0.95-8.395-1.27c0.084-0.722,0.159-1.504,0.242-2.229
						c0.037-0.323,3.753,0.103,4.321,0.163c-3.391-2.767-6.877-5.478-9.744-8.811c-2.229-2.594-3.495-5.282-4.503-8.501
						c2.209,0.584,4.413,0.903,6.617,1.505c-0.154,0.562-0.445,1.182-0.6,1.743c-0.021,0.08,0.002,0.592-0.076,0.646
						c-0.756-0.207-1.552-0.398-2.32-0.557c2.104,4.042,5.791,7.173,9.254,10.015c1.882,1.542,3.921,2.906,5.744,4.522
						c0.816,0.723,0.785,0.684,0.252,1.516c-0.26,0.411-0.526,0.869-0.786,1.276"/>
				</g>
				<g>
					<path d="M73.46,352.993c-4.122-0.028-8.285-1.863-11.835-3.785c-3.649-1.971-7.196-4.405-10.198-7.281
						c0.504-0.527,0.967-1.117,1.472-1.645c0.203-0.213,2.046,1.616,2.394,1.893c2.322,1.84,4.865,3.404,7.468,4.816
						c2.511,1.362,5.17,2.564,7.966,3.212c0.426,0.1,2.78,0.356,2.778,0.596c-0.005,0.729-0.048,1.385-0.052,2.113"/>
				</g>
				<g>
					<path d="M181.16,362.348c-3.488-0.018-6.593-1.609-9.795-2.822c2.403-0.385,4.842-0.585,7.117-1.486
						c3.782-1.499,5.406-5.378,7.775-8.381c2.871-3.639,7.652-5.636,11.813-7.335c2.541-1.037,5.159-1.887,7.642-3.059
						c0.818-0.385,1.045-0.869,1.504-0.016c0.277,0.514,0.59,0.836,0.868,1.35c-5.375,2.889-11.387,4.397-16.559,7.702
						c-4.706,3.007-6.269,9.001-11.356,11.505c1.016,0.095,1.095,0.1,1.09,1.07c-0.003,0.493-0.117,0.89-0.12,1.382"/>
				</g>
				<g>
					<path d="M117.104,373.631c-3.056-0.582-6.081-1.045-9.108-1.7c-1.957-0.421-3.85-1.249-5.808-1.75
						c-0.97-0.25-1.894-0.507-2.771-1.003c-0.898-0.511-1.012,0.219-2.001,0.426c-5.616,1.168-13.359,1.31-18.435-1.755
						c-1.144-0.69-1.569-2.229-2.075-3.496c-0.576-1.449-0.572-3.642-1.667-4.797c-1.037-1.091-3.08-1.695-4.464-1.863
						c-1.905-0.233-4.012,0.215-5.836-0.442c-0.107-0.164,0.193-2.206,0.337-2.357c1.979-0.111,4.086,0.005,5.964-0.638
						c1.875-0.644,3.365-2.328,5.093-3.289c0.382,0.135,1.173,2.148,1.387,2.532c-1.757,0.975-3.677,1.781-5.571,2.459
						c2.319,0.354,5.333,0.888,6.135,3.39c0.626,1.954-0.078,4.006,1.731,5.389c2.843,2.173,6.94,2.959,10.374,2.963
						c1.899,0.001,3.731-0.865,5.603-1.189c0.714-0.125,1.563,0.37,2.258,0.164c0.74-0.219,1.17-0.972,1.712-0.379
						c1.571,1.729,4.036,2.437,6.11,3.186c1.285,0.466,2.466,0.984,3.85,1.117c1.504,0.144,3.146-0.074,4.651,0.067
						c-0.064-0.6-0.275-1.813-0.341-2.412c4.463-0.19,8.468,1.25,12.848,1.74c-0.966-1.5-1.89-2.891-2.869-4.383
						c7.551-0.096,15.032,1.702,22.563,1.517c8.554-0.209,16.418-3.915,25.016-3.782c-0.013,0.729-0.521,1.124-0.533,1.854
						c-0.003,0.162-4.145,0.029-4.796,0.134c-4.154,0.66-7.972,2.972-12.075,3.859c-4.284,0.928-8.654,0.355-13.014-0.009
						c-4.251-0.354-8.348-0.503-12.616-0.663c0.943,1.531,2.116,2.809,3.122,4.302c-1.726,0.061-3.695-0.117-5.416-0.344
						c-3.194-0.421-6.261-1.162-9.492-1.319c0.084,0.772-0.33,1.356-0.245,2.131"/>
				</g>
				<g>
					<path d="M176.768,305.595c-8.242,0-14.454-5.775-15.788-13.944c-0.733-4.495,0.257-9.973,3.313-13.479
						c0.314,0.272,1.569,1.025,1.263,1.407c-0.479,0.604-0.962,1.196-1.335,1.872c-1.421,2.582-2.158,5.51-1.96,8.458
						c0.509,7.604,6.549,13.46,14.175,13.79c3.491,0.149,6.4-0.649,9.717-1.681c3.431-1.065,6.606-2.575,9.581-4.623
						c5.074-3.488,8.877-8.701,10.542-14.534c0.979-3.432,1.715-7.529,0.304-10.941c-0.722-1.738-2.159-3.113-3.941-3.753
						c-0.303-0.108-2.865-0.528-2.865-0.507c0.02-0.503,0.205-0.989,0.227-1.494c12.334,0.514,9.154,16.152,5.406,23.441
						c-2.32,4.515-5.997,8.261-10.517,10.658C189.474,303.139,182.947,305.595,176.768,305.595"/>
				</g>
				<g>
					<path d="M168.811,295.86c-3.547-3.816-2.771-9.666,1.054-12.984c4.006-3.476,9.3-2.368,12.303,1.779
						c-0.687,0.499-1.107,1.229-1.693,0.502c-0.853-1.062-1.866-2.058-3.157-2.535c-2.16-0.799-4.509-0.058-6.24,1.379
						c-1.814,1.504-3.093,3.803-3.07,6.18c0.012,1.345,0.472,2.657,1.24,3.755c0.43,0.612,0.965,0.687,0.391,1.222
						c-0.263,0.242-0.6,0.502-0.863,0.746"/>
				</g>
				<g>
					<path d="M187.602,294.062c-3.033,0-5.809-1.956-8.267-3.526c-1.301-0.832-2.625-1.71-4.051-2.316
						c-0.639-0.271-0.056-1.012,0.15-1.603c3.958,1.389,10.331,7.846,14.788,4.479c3.112-2.349,2.72-6.946,2.781-10.408
						c0.031-1.689-0.062-3.375-0.511-5.016c-0.4-1.465-1.188-4.352-2.98-2.356c-1.641,1.824-4.268,1.896-6.231,3.257
						c-1.064,0.74-0.982,1.622-0.128,2.536c-0.055,0.302-0.904,0.853-1.141,1.075c-4.396-4.719,4.418-5.911,6.478-8.133
						c1.153-1.247,3.166-1.465,4.239,0.092c0.899,1.302,1.405,2.99,1.674,4.533c0.522,2.992,0.143,6.464-0.208,9.457
						c-0.431,3.687-2.2,7.945-6.593,7.945"/>
				</g>
				<g>
					<path d="M82.621,236.064c-0.381-0.36-0.825-0.691-1.206-1.052c3.053-3.223,7.823-4.245,12.101-4.432
						c-3.48-1.186-7.297-1.282-10.919-0.814c-0.904,0.117-1.794,0.317-2.682,0.529c-0.367,0.089-0.491-1.187-0.58-1.516
						c2.205-0.593,4.533-0.921,6.807-0.942c2.049-0.021,4.125,0.156,6.118,0.641c1.08,0.26,2.13,0.666,3.148,1.112
						c0.733,0.323,2.281,0.726,1.97,1.623c-0.344,0.992-0.164,1-1.119,0.954c-1.298-0.065-2.603-0.063-3.895,0.051
						c-3.48,0.304-7.349,1.221-9.832,3.846"/>
				</g>
				<g>
					<path d="M130.154,251.898c-4.226,0-7.195-2.15-10.292-4.673c-3.26-2.656-7.154-2.279-11.15-2.231
						c-4.201,0.053-8.285-0.55-11.936-2.831c-1.623-1.016-3.113-2.319-4.888-3.077c-1.96-0.835-4.138-1.087-6.08-1.969
						c0.126-0.275,0.39-1.273,0.643-1.397c1.278,0.579,2.716,0.724,4.051,1.149c2.897,0.919,5.163,2.604,7.748,4.102
						c5.543,3.215,11.778,1.234,17.734,2.383c4.85,0.937,7.384,5.91,12.253,6.811c2.543,0.47,5.238,0.195,7.599-0.77
						c1.391-0.567,2.76-1.292,4.031-2.089c0.821-0.518,0.816,0.092,1.289,0.815c-3.243,2.115-7.053,4.073-11.001,4.073"/>
				</g>
				<g>
					<path d="M167.891,263.804c-4.373,0-8.74-0.357-13.108-0.512c-3.393-0.119-6.708,0.071-9.653-1.873
						c-2.446-1.619-2.854-3.745-1.863-6.468c0.583-1.604,1.719-2.617,1.719-2.617c-0.41-0.131-0.737-0.067-0.664-0.549
						c0.067-0.439,0.246-0.635,0.314-1.07c5.261,0.817-3.495,5.631,0.268,8.735c3.708,3.059,8.834,2.444,13.351,2.586
						c4.536,0.146,9.084,0.321,13.62,0.184c1.714-0.054,3.442-0.225,5.137-0.495c0.526-0.084,0.996-0.367,1.49-0.565
						c0.29-0.114,0.703,1.221,0.834,1.508c-1.318,0.611-2.892,0.844-4.316,0.958c-2.366,0.192-4.755,0.316-7.128,0.316"/>
				</g>
				<g>
					<path d="M166.764,277.268c-0.45-0.271-0.873-0.528-1.322-0.8c1.861-3.076,4.922-4.781,7.429-7.233
						c2.383-2.329,2.598-5.114,3.249-8.212c0.434,0.091,0.817,0.113,1.25,0.203c0.469,0.098-0.084,1.857-0.167,2.339
						c-0.283,1.639-0.578,3.287-1.468,4.723c-2.278,3.674-6.735,5.26-8.988,8.978"/>
				</g>
			</g>
			<g>
				<path d="M254.472,338.302c-5.887-4.252-12.24-7.896-19.415-8.738c-4.602-0.539-8.448-1.474-12.943-0.322
					c-2.452,0.63-6.7,1.657-8.957,2.801c-0.634,0.321-1.695,1.364-2.123,0.638c-0.262-0.442-0.633-0.81-0.895-1.256
					c13.865-8.176,32.515-6.092,45.401,3.213c-0.385,0.532-0.748,1.046-1.133,1.578"/>
			</g>
			<g>
				<path d="M201.974,332.578c-2.594-5.569-7.869-8.694-13.517-13.444c-2.438-2.049-11.446-6.332-13.718-8.562
					c-1.179-1.153-2.39-2.267-3.628-3.36c-0.68-0.6,0.167-1.036,0.689-1.64c8.6,7.504,26.845,15.944,31.672,26.314
					c-0.476,0.222-0.988,0.449-1.463,0.669"/>
			</g>
			<g>
				<path d="M205.854,344.759c-0.177-2.039-0.917-4.089-2.528-5.447c-1.095-0.921-2.549-1.43-3.85-1.988
					c1.103-0.222,2.205-0.438,3.291-0.729c-1.138-1.321-2.492-2.415-3.997-3.299c-0.369-0.215-1.384-0.505-1.18-0.957
					c0.184-0.402,0.322-0.862,0.506-1.269c3.314,1.506,5.674,4.029,7.8,6.897c-0.529-0.012-1.076-0.024-1.604-0.034
					c2.001,1.628,2.945,4.185,3.162,6.694c-0.523,0.047-1.043,0.076-1.566,0.121"/>
			</g>
			<g>
				<path d="M481.469,419.948c-8.011-4.146-15.495-9.256-23.521-13.377c-5.965-3.061-13.699-7.263-20.653-6.069
					c-3.098,0.534-5.556,3.02-6.988,5.801c-1.47,2.856,1.355,3.671,3.688,4.178c3.631,0.79,7.372,1.311,11.072,1.394
					c3.405,0.079,7.326-0.377,10.619,0.706c0.275,0.091,0.581,0.042,0.827,0.196c-0.235,0.377-0.271,0.863-0.504,1.239
					c-0.218,0.351-0.887-0.109-1.272-0.194c-1.972-0.444-4.065-0.335-6.076-0.391c-4.231-0.112-8.503-0.111-12.704-0.678
					c-2.473-0.333-6.7-0.871-7.794-3.558c-1.226-3.01,2.486-6.752,4.689-8.311c5.733-4.054,14.021-1.243,19.748,1.221
					c8.555,3.681,16.394,8.881,24.46,13.487c1.42,0.813,2.837,1.626,4.282,2.395c0.642,0.341,1.187,0.426,0.844,1.085
					c-0.165,0.319-0.454,0.319-0.618,0.637"/>
			</g>
		</g>
	</g>
	<g>
		<path d="M272.061,364.872c-3.358-1.817-6.238-4.206-9.715-5.796c-1.782-0.814-3.97-2.817-5.34-4.219
			c-3.321-3.399-1.476-9.674-0.884-13.762c1.271-8.824,1.908-17.966,4.631-26.516c2.849-8.952,8.415-16.002,14.709-22.971
			c1.532-1.698,3.444-3.085,4.956-4.8c0.189-0.214,1.263-1.986,1.353-1.916c0.387,0.305,0.721,0.241,1.111,0.549
			c-5.682,6.688-12.394,12.904-16.875,20.456c-4.609,7.762-5.612,16.797-6.826,25.525c-0.597,4.305-1.891,8.536-2.387,12.852
			c-0.26,2.276,0.063,4.71,0.731,6.949c1.16,3.9,6.144,5.21,9.51,6.731c2.197,0.995,4.329,2.146,6.443,3.288
			c-0.256,0.439-0.678,1.231-0.936,1.671"/>
	</g>
	<g>
		<path d="M655.089,367.022c-14.2-10.146-29.371-18.198-45.667-24.666c-6.356-2.523-12.4-5.86-18.666-8.589
			c-4.001-1.744-7.132-4.296-11.354-5.484c-4.697-1.321-10.509-0.313-15.277-1.367c-20.262-4.489-39.271-12.836-58.523-20.262
			c-9.621-3.708-18.918-8.393-28.87-11.176c-9.524-2.664-18.938-6.083-28.569-8.357c-17.584-4.15-36.784-5.627-54.701-8.159
			c-17.295-2.442-33.262-3.93-50.737-4.464c-14.77-0.457-30.646-0.201-44.657,4.741c-6.904,2.436-12.554,6.488-18.279,10.969
			c-2.983,2.333-5.597,4.81-8.129,7.604c-1.34,1.479-2.455,3.023-3.665,4.609c-0.402,0.521-2.672,2.109-3.325,1.657
			c-0.432-0.301,2.14-1.414,1.709-1.713c9.009-12.298,19.904-21.233,34.704-25.72c14.357-4.347,29.471-5.043,44.388-4.443
			c16.985,0.685,34.118,1.784,50.927,4.219c17.85,2.586,35.864,4.869,53.384,9.013c9.67,2.29,19.273,5.248,28.824,7.979
			c10.004,2.864,19.273,7.912,28.957,11.661c9.743,3.774,19.827,6.694,29.681,10.188c9.693,3.438,19.164,7.335,29.22,9.557
			c4.38,0.967,9.403-0.328,13.712,0.906c4.188,1.2,8.694,5.271,12.667,6.995c6.322,2.739,12.061,5.623,18.465,8.171
			c16.336,6.504,30.34,14.257,44.583,24.431c-0.402,0.526,0.4-0.527,0,0"/>
	</g>
</g>
<g>
	<g>
		<path fill="#ECAF8B" d="M47.416,173.362c0,0-2.756,7.484-4.332,13.786c-1.576,6.3-8.271,5.12-14.572,13.39
			c-6.302,8.272-9.846,22.449-14.572,27.176C9.214,232.438,2.518,238.74,1.337,243.86c-1.182,5.12,1.575,7.878,2.363,11.815
			c0.789,3.939,3.151,12.997,8.271,19.691c5.119,6.696,11.027,22.056,11.027,25.601c0,3.544,3.151,7.089,7.483,10.241
			c4.333,3.149,11.422,13.389,17.724,20.084c6.301,6.696,18.51,12.604,18.51,12.604s0.788-3.15,1.576-5.12
			c0.788-1.969,0.788-1.969,0.788-1.969s2.756,1.969,3.15-3.938c0.394-5.907-5.908-11.027-5.908-11.027s1.969-4.332,1.969-9.058
			c0-4.728-5.908-8.272-11.816-12.998c-5.907-4.727-10.24-11.027-12.996-13.785c-2.757-2.756-5.12-7.088-5.12-10.634
			c0-3.543-0.789-7.089-0.789-7.089s2.364,7.878,10.634,7.089c8.27-0.787,9.058-11.814,9.058-19.691s-3.15-16.148-3.938-19.692
			c-0.787-3.545,6.778-20.502,6.778-20.502s5.633-12.149,9.5-15.504c8.491-7.367,18.029-12.313,18.029-12.313l5.612,5.074
			C93.244,192.738,71.441,165.486,47.416,173.362z"/>
		<path fill="#F2D7C5" d="M52.537,336.019c3.149,4.073,8.06,7.241,13.331,7.73c-1.146-4.55-6.222-8.691-11.756-7.73"/>
		<path fill="#F2D7C5" d="M56.475,329.719c3.022,3.944,9.529,7.062,14.496,8.201c0.142-0.482,0.455-0.869,0.905-1.091
			c-2.238-4.585-8.915-7.701-14.219-7.504"/>
		<path fill="#F2D7C5" d="M51.355,313.963c4.889,2.517,9.981,5.33,14.623,7.936c1.66-5.172-6.981-9.478-11.472-8.327"/>
		<path fill="#F2D7C5" d="M43.872,252.92c-9.074,3.133-7.885,23,3.947,21.286c9.605-1.391,9.054-20.141-1.19-21.286"/>
		<path fill="#0090C0" d="M84.043,3.616c-3.938,9.847-7.876,15.754-11.814,35.84c-3.938,20.086-5.514,27.963-12.997,41.353
			s-12.997,25.6-12.997,37.415c0,11.816,4.333,13.391,4.333,17.724c0,4.332-3.938,15.359-5.12,22.449
			c-1.181,7.089-2.363,12.208-4.332,14.571c-1.97,2.364-3.151,2.758-3.151,2.758s17.329-6.302,27.175-2.364
			c9.846,3.939,20.757,12.092,26.782,18.117c1.969,1.968,1.145,1.053,1.145,1.053s2.78-1.911,5.759-3.397
			c3.979-1.983,9.338-2.975,10.031-5.138c5.265-16.454,12.602-20.086,16.147-24.419c3.545-4.332,10.634-8.665,11.422-18.117
			c0.788-9.452,6.301-17.329,19.692-44.11c13.39-26.781,18.509-33.872,23.63-57.107c5.12-23.236,11.421-37.809,11.421-37.809
			L84.043,3.616z"/>
		<path fill="#0B718F" d="M46.629,172.968c-7.122,0.603-12.867,10.293-2.825,10.485c0.775-3.272,1.741-6.34,2.825-9.303"/>
		<path fill="#C8977A" d="M45.447,180.452c7.529-13.016,38.682,9.928,46.584,13.041c-1.034-9.453-43.23-35.807-47.766-13.435"/>
		<path fill="#0082A9" d="M180.929-0.322c-6.769,14.454-17.951,29.886-20.034,45.929c-1.988,15.315,2.386,28.138-9.483,40.61
			c-8.286,8.707-26.85,12.448-29.952,24.904c-2.564,10.292,7.881,21.237,5.511,31.538c-3.396,14.748-24.979,27.752-20.834,43.227
			c4.458-12.57,7.625-18.297,18.127-25.599c12.72-8.846,12.275-30.334,19.25-43.638c10.948-20.884,27.818-36.078,32.765-59.714
			c2.346-11.209,1.15-22.772,5.842-33.329c3.083-6.935,9.323-12.959,9.836-20.777"/>
	</g>
	<g>
		<g>
			<g>
				<path d="M72.4,34.876c-2.872,10.332-3.68,21.282-6.907,31.509c-3.289,10.427-9.837,19.462-14.527,29.291
					c-2.115,4.437-2.868,9.358-3.941,14.177c-1.05,4.708-2.255,8.617-1.569,13.338c0.77,5.306,2.908,10.888,4.54,16.014
					c0.326-0.104,1.076-0.162,1.001-0.4c-0.246-0.823,0.883-2.026,0.676-2.862c-1.114-4.47-3.642-8.704-4.288-13.265
					c-0.861-6.06-0.29-11.549,1.758-17.378c2.215-6.3,5.572-12.226,8.54-18.192c11.994-24.117,16.792-51.043,24.545-76.695
					c0.746-2.464,1.741-4.863,2.543-7.311c0.281-0.862,1.093-1,0.21-1.296c-0.552-0.184-0.711-0.235-1.265-0.419
					c-3.726,11.175-7.398,22.356-10.552,33.701"/>
			</g>
		</g>
		<g>
			<g>
				<path d="M181.3,28.759c-3.552,12.148-5.573,24.792-10.097,36.62c-2.31,6.037-5.479,11.717-8.401,17.485
					c-3.011,5.944-6.235,11.766-9.463,17.595c-7.643,13.81-16.229,27.855-20.11,43.237c-1.248,4.94-1.807,8.683-5.671,12.005
					c-2.713,2.332-6.184,3.985-8.661,6.572c-7.269,7.599-8.037,13.252-10.78,23.306c1.305,0.355,1.014,1.5,1.647-0.242
					c1.674-4.607,4.037-8.771,6.648-12.926c2.376-3.785,5.195-6.757,8.563-9.691c2.5-2.176,4.871-4.689,7.191-7.056
					c4.769-4.872,4.783-11.964,6.859-18.199c2.478-7.449,6.833-16.36,10.308-23.393c4.63-9.365,7.727-18.002,12.696-27.179
					c5.285-9.758,11.13-19.252,14.728-29.737c3.553-10.357,4.82-21.417,7.906-31.919c1.535-5.221,3.166-10.479,4.923-15.632
					c0.785-2.299,2.134-4.454,3.047-6.703c0.334-0.826,1.106,0.175,0.271-0.177c-0.536-0.228-1.545-1.768-2.084-1.996
					C187,9.757,184.046,19.369,181.3,28.759"/>
			</g>
		</g>
		<g>
			<g>
				<path d="M50.028,131.08c1.238,5.727-1.528,10.963-3.285,16.235c-0.97,2.906-1.348,5.951-1.914,8.953
					c-0.893,4.738-1.542,9.589-3.43,14.059c-0.986,2.333-2.659,4.276-4.25,6.246c-0.597,0.74-1.52,1.438-0.712,2.211
					c0.421,0.406,0.811,0.886,1.232,1.29c6.402-6.683,7.976-15.498,9.621-24.251c0.625-3.309,1.058-6.56,2.234-9.738
					c1.865-5.046,4.294-10.106,3.112-15.585c-0.771,0.167-1.986,0.389-2.757,0.556"/>
			</g>
		</g>
		<g>
			<g>
				<path d="M39.755,175.22c0.161,0.244,0.84,1.607,1.101,1.678c1.317-0.875,2.772-1.463,4.231-2.075
					c2.732-1.143,5.532-1.838,8.486-1.987c6.465-0.325,13.056,0.96,18.831,3.759c5.39,2.615,10.133,6.508,14.518,10.583
					c1.987,1.845,3.765,3.875,5.476,5.976l1.427-1.079c-12.175-15.231-35.962-28.328-53.813-16.485"/>
			</g>
		</g>
		<g>
			<g>
				<path d="M45.944,171.312c-0.806,4.156-1.841,8.267-3.046,12.33c-0.596,2.005-1.003,4.088-1.831,6.009
					c-0.243,0.561-1.223,1.301-0.522,1.634c0.475,0.225,1.028,0.374,1.504,0.599c2.566-5.409,4.103-11.228,5.271-17.071
					c0.342-1.715,0.6-3.448,0.938-5.164c0.32-1.629-0.229-1.384-1.826-1.705c-0.213,1.092-0.546,2.224-0.758,3.316"/>
			</g>
		</g>
		<g>
			<g>
				<path d="M37.242,192.298c-5.104,3.055-8.855,6.544-12.212,11.463c-3.253,4.764-5.879,9.888-7.992,15.252
					c-1.209,3.07-2.58,5.85-4.633,8.457c-1.901,2.412-4.258,4.426-6.311,6.708c-4.05,4.513-7.066,9.762-6.966,15.997
					c0.689-0.011,1.625-0.388,2.313-0.4c0.44-0.005,0.651-3.044,0.81-3.759c0.708-3.226,2.057-6.29,4.143-8.808
					c2.182-2.635,5.093-4.645,7.284-7.271c2.541-3.052,4.41-6.303,5.86-9.977c2.338-5.928,4.734-11.827,8.457-16.997
					c2.062-2.862,4.52-5.257,7.486-7.177c3.29-2.131,7.164-3.453,10.173-5.995c-0.292-0.345-1.053-1.528-1.466-1.6
					c-2.058,1.74-4.769,2.503-7.077,3.884"/>
			</g>
		</g>
		<g>
			<g>
				<path d="M32.155,212.312c2.237,6.266,1.092,11.651,0.04,18.037c-1.24,7.529-0.019,14.93,1.514,22.366
					c1.803,8.763,2.081,24.986,14.603,23.423c-0.048-0.396,0.145-0.646,0.096-1.042c-0.129-1.023-0.479-1.176-1.508-1.15
					c-1.616,0.043-3.086-0.008-4.433-0.936c-2.597-1.788-3.75-4.919-4.501-7.828c-1.406-5.452-2.398-11.216-3.305-16.771
					c-0.667-4.077-1.205-8.178-0.953-12.304c0.301-4.914,1.544-9.643,1.92-14.534c0.224-2.93-0.133-5.687-1.03-8.488
					c-0.442-1.39-0.432-2.917-0.628-4.374c-0.095-0.698,0.288-2.484-0.432-2.639c-0.516-0.111-1.148,0.232-1.662,0.12
					c-0.445,2.078,0.15,3.969,0.849,5.917"/>
			</g>
		</g>
		<g>
			<g>
				<path d="M53.477,225.333c-1.728,5.439-2.322,9.814,0.097,15.194c2.69,5.976,2.736,12.541,2.28,18.996
					c-0.283,4.017-0.043,9.877-3.135,12.979c-1.283,1.289-3.177,1.873-4.951,2.039c-1.126,0.105-2.293-0.296-3.418-0.395
					c-0.237,0.206-0.086,1.577-0.118,1.925c4.619,0.401,9.336-0.278,11.497-4.805c1.053-2.201,1.067-4.729,1.322-7.136
					c0.394-3.705,0.656-7.405,0.529-11.133c-0.126-3.712,0.038-7.549-1.246-11.043c-1.225-3.327-3.037-6.154-2.663-9.817
					c0.398-3.917,1.512-7.873,2.629-11.652c-1.643-0.43-1.311-0.875-1.79,0.749c-0.397,1.347-1.097,2.604-1.497,3.952"/>
			</g>
		</g>
		<g>
			<g>
				<path d="M-2.021,240.672c0,5.059,3.914,10.188,6.68,14.146c2.323,3.324,3.938,6.867,5.59,10.575
					c3.247,7.284,6.325,15.003,8.336,22.745c0.519,2.002,1.006,4.31,2.245,6.025c2.041,2.822,5.737,4.614,8.612,6.426
					c9.843,6.197,19.469,12.61,29.002,19.281c2.311,1.616,5.219,2.403,7.503,4.055c0.505,0.365,0.494-0.623,0.629-0.525
					c-0.612-0.444-0.583-1.775-1.197-2.213c-8.17-5.845-17.072-10.629-25.552-16.017c-4.697-2.981-9.601-5.754-14.105-9.03
					c-1.722-1.254-3.66-2.877-4.296-4.99c-1.967-6.502-4.083-12.788-6.606-19.119c-2.188-5.483-3.869-11.495-7.19-16.415
					c-2.173-3.214-4.689-6.21-6.231-9.799c-0.583-1.355-1.077-2.875-1.238-4.351c-0.131-1.182-0.918-0.883-2.051-0.883"/>
			</g>
		</g>
		<g>
			<g>
				<path d="M3.362,256.82c-0.039,3.697,0.591,7.065,2.304,10.359c3.04,5.844,7.341,10.907,10.107,16.928
					c2.342,5.092,4.517,10.629,5.397,16.201c0.678,4.289,1.979,8.656,4.178,12.447c0.827-0.482,1.677-0.343,1.179-1.322
					c-1.092-2.146-1.289-4.705-1.923-7.025c-0.809-2.956-1.098-6.023-1.952-8.973c-0.885-3.049-2.664-5.796-3.893-8.721
					c-2.718-6.464-6.216-12.231-9.832-18.205c-2.188-3.619-3.015-7.494-2.972-11.737c-0.788,0-1.85,0.042-2.637,0.042"/>
			</g>
		</g>
		<g>
			<g>
				<path d="M20.968,304.71c0.957,1.912,3.346,3.205,5.046,4.313c2.552,1.665,5.265,3.114,7.729,4.91
					c5.846,4.267,10.975,9.428,16.879,13.634c6.804,4.848,13.794,8.493,21.462,11.782c0.076-0.179,0.651-1.383,0.569-1.421
					c-0.688-0.295-1.548-0.19-2.233-0.491c-2.347-1.032-4.487-2.492-6.754-3.69c-3.988-2.103-7.756-4.633-11.431-7.226
					c-6.409-4.521-12.241-9.714-18.618-14.267c-2.612-1.866-5.394-3.479-8.065-5.262c-1.052-0.7-2.009-1.599-2.877-2.532
					c-0.636-0.688-0.831-0.029-1.691,0.398"/>
			</g>
		</g>
		<g>
			<g>
				<path d="M37.528,320.043c5.803,8.032,13.241,14.988,21.196,20.828c1.963,1.44,4.131,2.918,6.395,3.875
					c2.609,1.101,4.201-5.739,4.201-7.203c-0.619,0-1.271,0.208-1.892,0.208c0.026,0-0.415,2.583-0.583,2.979
					c-0.579,1.354-1.212,2.388-2.514,1.619c-3.489-2.063-6.656-4.735-9.783-7.293c-4.445-3.639-8.369-7.853-12.079-12.235
					c-0.968-1.143-1.951-2.271-2.852-3.466c-0.679-0.902-1.101,0.18-1.941,0.779"/>
			</g>
		</g>
		<g>
			<g>
				<path d="M67.386,324.313c2.967,1.663,4.775,5.225,4.571,8.566c-0.101,1.594-0.768,3.149-1.906,4.296
					c-0.685,0.688,0.249,1.192,0.819,1.889c5.315-4.346,3.04-13.495-2.462-16.58c-0.323,0.572-0.606,1.127-0.93,1.698"/>
			</g>
		</g>
		<g>
			<g>
				<path d="M28.519,260.374c4.021,2.024,6.319,6.109,7.486,10.294c0.556,1.991,0.853,4.062,1.14,6.105
					c0.046,0.336,0.164,2.646,0.358,2.623c0.616-0.078,1.335-0.176,1.951-0.253c-0.943-7.563-2.569-16.566-10.124-20.369
					c-0.295,0.586-0.581,1.133-0.877,1.719"/>
			</g>
		</g>
		<g>
			<g>
				<path d="M34.32,276.777c6.049,8.332,12.241,17.009,20.726,23.088c4.038,2.893,8.79,5.707,11.315,10.149
					c1.36,2.396,1.302,5.282,0.447,7.917c-0.478,1.461-1.237,2.808-2.129,4.056c0.107,0.354,1.293,0.904,1.615,1.132
					c3.353-4.693,4.324-10.359,0.961-15.229c-2.817-4.076-7.389-6.449-11.339-9.286c-8.293-5.954-13.911-14.979-19.831-23.127
					c-0.529,0.388-0.954,1.073-1.483,1.46"/>
			</g>
		</g>
		<g>
			<g>
				<path d="M45.344,251.962c-8.134,1.018-8.749,9.242-6.983,15.722c1.625-0.446,1.477-0.266,1.1-2.038
					c-0.425-2.004-0.73-4.151-0.383-6.186c0.586-3.44,3.53-5.883,7.088-5.855c3.604,0.03,5.681,4.135,6.634,7.058
					c0.576,1.764,0.86,3.639,0.946,5.496c0.079,1.712-0.036,1.666,1.665,1.787c0.395-5.562-2.609-16.74-10.046-15.81"/>
			</g>
		</g>
		<g>
			<g>
				<path d="M39.332,236.965c-0.999,0.244-1.999,0.479-2.997,0.722c-1.086,0.265-0.621,0.688-0.433,1.751
					c1.296-0.314,2.577-0.559,3.868-0.889c1.711-0.477,3.43-0.981,5.205-1.13c1.146-0.095,0.76-0.564,0.729-1.611
					c-2.172,0.063-4.299,0.558-6.379,1.135"/>
			</g>
		</g>
		<g>
			<g>
				<path d="M25.874,240.002c2.838,1.544,4.156,5.241,4.86,8.165c0.391,1.612,0.502,3.279,0.638,4.932
					c0.024,0.283,0.092,1.95,0.292,1.946c0.487-0.006,1.062-0.056,1.548-0.063c-0.06-5.267-1.332-13.725-6.499-16.539
					c-0.252,0.461-0.501,0.955-0.75,1.418"/>
			</g>
		</g>
		<g>
			<g>
				<path d="M20.734,292.741c0.306,0.021,1.372,0.266,1.603,0.101c0.096-1.428,0.506-2.837,1.143-4.115
					c0.606-1.219,1.466-2.326,2.534-3.176c0.01-0.275-0.837-1.059-1.023-1.292c-2.529,2.006-3.961,5.296-4.172,8.483"/>
			</g>
		</g>
		<g>
			<g>
				<path d="M23.155,303.673c1.604,0.257,1.539,0.452,1.831-1.152c0.292-1.604,0.29-1.417-1.298-1.741
					c-0.179,0.973-0.345,1.944-0.52,2.92"/>
			</g>
		</g>
		<g>
			<g>
				<path d="M54.7,311.624c-1.197,0.074-2.169,0.813-2.405,2.024c0.422,0.083,1.07,0.336,1.483,0.255
					c0.168-0.887,1.337-0.604,2.007-0.48c1.863,0.343,3.644,1.236,5.238,2.221c1.673,1.03,3.366,2.171,4.705,3.619
					c0.421,0.455,0.947,0.937,1.143,1.536c0.269,0.104,1.186-0.342,1.479-0.438c-0.779-2.388-3.783-4.246-5.755-5.55
					c-2.197-1.449-5.134-3.236-7.888-3.066"/>
			</g>
		</g>
		<g>
			<g>
				<path d="M55.226,329.424c0.191,0.263,0.595,1.074,0.886,1.165c0.666-0.483,1.562-0.39,2.367-0.367
					c2.074,0.057,4.123,0.845,5.952,1.757c2.102,1.048,4.076,2.357,5.94,3.784c0.812,0.622,1.632,1.24,2.361,1.962
					c0.464,0.459,0.897-0.392,1.309-0.788c-2.372-2.468-5.317-4.634-8.335-6.21c-2.825-1.478-7.483-3.494-10.484-1.312"/>
			</g>
		</g>
		<g>
			<g>
				<path d="M52.594,334.636c0.275,0.399,0.529,0.883,0.805,1.283c0.05,0.073,1.431-0.42,1.72-0.455
					c1.85-0.229,3.688,0.648,5.224,1.582c1.672,1.014,3.225,2.236,4.585,3.637c0.6,0.615,1.252,1.172,1.766,1.861
					c0.284,0.014,1.016-0.722,1.259-0.907c-2.842-3.813-10.206-10.477-15.326-6.961"/>
			</g>
		</g>
		<g>
			<g>
				<path d="M47.032,166.58c1.306,0.085,1.261,0.394,1.377-1.009c0.146-1.782,0.535-3.55,0.801-5.317
					c0.6-3.984,1.613-7.903,2.643-11.798c1.036-3.927,2.331-7.775,3.874-11.534c0.695-1.697,1.48-3.341,2.34-4.962
					c0.821-1.547,0.654-1.625-0.814-2.485c-3.209,5.468-5.311,11.718-6.962,17.812c-1.703,6.276-2.873,12.792-3.293,19.291"/>
			</g>
		</g>
		<g>
			<g>
				<path d="M58.081,144.037c-1.018,4.529-2.172,9.031-3.467,13.491c-0.682,2.343-1.257,4.73-2.132,7.007
					c-0.112,0.292-1.037,1.92-0.847,2.002c0.446,0.191,1.026,0.723,1.474,0.915c2.833-6.617,4.034-13.828,5.623-20.826
					c0.789-3.48,1.821-6.905,2.681-10.368c0.467-1.886,0.683-3.847,1.227-5.712c0.341-1.169,0.13-0.8-0.9-1.11
					c-1.449,4.817-2.718,9.66-3.823,14.563"/>
			</g>
		</g>
		<g>
			<g>
				<path d="M62.196,152.931c-1.572,4.702-3.12,9.476-4.274,14.3c0.995,0.237,1.491,0.719,1.768-0.4
					c0.449-1.791,0.991-3.564,1.533-5.331c1.157-3.779,2.643-7.452,3.883-11.206c2.492-7.556,5.041-15.401,5.341-23.414
					c-0.389-0.014-0.957,0.079-1.344,0.065c-0.819-0.032-0.536,1.478-0.6,2.154c-0.243,2.636-0.514,5.288-1.109,7.867
					c-1.26,5.454-2.963,10.814-4.738,16.118"/>
			</g>
		</g>
		<g>
			<g>
				<path d="M66.157,169.295c-0.287,1.022-0.86,2.034-1.146,3.055c0.451,0.127,1.893,0.75,2.044,0.211
					c0.253-0.908,0.404-1.845,0.659-2.754c1.188-4.235,2.405-8.464,3.527-12.719c2.369-8.994,4.291-18.135,5.426-27.374
					c-0.315-0.038-1.637-0.407-1.895-0.255c-0.241,1.968-0.459,3.957-0.776,5.913c-0.619,3.83-1.092,7.69-1.949,11.473
					c-1.707,7.546-3.834,14.993-5.924,22.441"/>
			</g>
		</g>
		<g>
			<g>
				<path d="M77.271,151.223c-1.031,3.92-2.464,7.728-3.614,11.614c-0.591,1.993-0.757,4.121-1.434,6.085
					c-0.566,1.646-0.692,1.404,0.809,1.946c2.456-6.821,4.249-13.88,6.093-20.882c0.93-3.535,1.64-7.133,2.681-10.635
					c0.558-1.876,1.211-3.727,1.839-5.581c0.392-1.16-0.232-0.988-1.255-1.34c-2.121,6.129-3.88,12.416-5.527,18.686"/>
			</g>
		</g>
		<g>
			<g>
				<path d="M79.278,172.717c0.479,0.217,0.464,0.203,0.944,0.42c2.933-6.503,5.234-13.303,6.772-20.249
					c0.767-3.46,1.504-6.938,2.135-10.425c0.308-1.715,0.157-3.511,0.455-5.228c0.259-1.504-0.042-1.289-1.425-1.527
					c-2.139,12.406-3.741,25.431-8.957,36.989"/>
			</g>
		</g>
		<g>
			<g>
				<path d="M94.373,155.828c-1.097,5.019-2.2,10.047-3.529,15.011c-0.706,2.634-1.335,5.309-2.2,7.895
					c-0.126,0.377-1.556,3.212-1.372,3.28c0.456,0.169,0.815-0.003,1.271,0.166c2.859-7.715,4.681-15.715,6.446-23.738
					c0.882-3.999,1.652-8.028,2.602-12.011c0.451-1.884,0.971-3.761,1.472-5.632c0.471-1.755,0.569-1.643-1.029-2.09
					c-1.564,5.593-2.914,11.338-4.159,17.01"/>
			</g>
		</g>
		<g>
			<g>
				<path d="M103.281,147.876c-1.807,6.451-3.457,12.949-5.363,19.373c-0.941,3.178-2.022,6.313-3.026,9.471
					c-0.495,1.55-0.888,3.133-1.402,4.676c-0.378,1.135-0.004,0.826,0.997,1.162c2.82-8.406,5.683-16.781,8.101-25.311
					c0.933-3.287,1.496-6.677,2.418-9.968c0.274-0.972,0.548-1.946,0.821-2.92c0.204-0.734-0.416-0.431-1.041-0.606
					c-0.404,1.441-1.266,2.635-1.672,4.077"/>
			</g>
		</g>
		<g>
			<g>
				<path d="M105.258,165.078c-2.556,7.001-5.74,14.077-6.119,21.595c0.314,0.015,1.756,0.277,1.999,0.108
					c0.099-1.941,0.254-3.888,0.629-5.793c0.769-3.9,2.195-7.619,3.518-11.36c2.471-6.998,5.015-14.031,6.212-21.396
					c-0.313-0.051-1.246-0.401-1.508-0.258c-0.313,1.925-0.596,3.873-1.114,5.753c-1.052,3.828-2.532,7.526-3.891,11.25"/>
			</g>
		</g>
		<g>
			<g>
				<path d="M103.419,186.984c1.58,0.32,1.824,0.543,2.202-1.173c0.5-2.28,0.17-0.207,0.847-2.44
					c1.24-4.089,2.281-8.283,4.124-12.138c1.705-3.567,3.709-7.049,6.017-10.262c0.997-1.388,2.457-2.41,3.591-3.688
					c0.181-0.205,1.217-1.56,1.064-1.71c-0.351-0.336-0.825-0.602-1.174-0.94c-6.438,6.662-11.12,15.152-14.285,24.044
					C104.33,182.825,103.419,186.984,103.419,186.984z"/>
			</g>
		</g>
	</g>
</g>
<g id="Meters" display="none">
	<rect id="Zero" x="-26.333" y="201.985" display="inline" opacity="0.2" fill="#292F78" width="755.314" height="17.785"/>
	<rect id="OneEighth" x="-26.333" y="219.77" display="inline" opacity="0.35" fill="#292F78" width="748.91" height="12"/>
	<rect id="OneFifth" x="-26.333" y="231.586" display="inline" opacity="0.53" fill="#292F78" width="748.91" height="18.59"/>
	<rect id="OneThird" x="-26.333" y="250.176" display="inline" opacity="0.7" fill="#292F78" width="769.194" height="24.135"/>
	
		<image display="inline" overflow="visible" width="34" height="13" xlink:href="../mod3/13.png"  transform="matrix(1.0002 0 0 1.0002 2.3701 243.6748)">
	</image>
	
		<image display="inline" overflow="visible" width="34" height="14" xlink:href="../mod3/15.png"  transform="matrix(1.0002 0 0 1.0002 3.1514 226.3291)">
	</image>
	
		<image display="inline" overflow="visible" width="34" height="14" xlink:href="../mod3/18.png"  transform="matrix(1.0002 0 0 1.0002 3.7305 212.1826)">
	</image>
</g>
<g id="Meters" display="none">
		<rect id="Zero" x="-26.333" y="201.985" display="inline" opacity="0.2" fill="#292F78" enable-background="new    " width="755.314" height="17.785"/>
		<rect id="OneEighth" x="-26.333" y="219.77" display="inline" opacity="0.35" fill="#292F78" enable-background="new    " width="748.91" height="11.816"/>
		<rect id="OneFifth" x="-26.333" y="231.586" display="inline" opacity="0.53" fill="#292F78" enable-background="new    " width="748.91" height="18.59"/>
		<rect id="OneThird" x="-26.333" y="250.176" display="inline" opacity="0.7" fill="#292F78" enable-background="new    " width="769.194" height="24.135"/>
		<image display="inline" overflow="visible" enable-background="new    " width="34" height="13" xlink:href="mod4/13.png"  transform="matrix(1.0002 0 0 1.0002 2.3696 243.6758)"/>
		<image display="inline" overflow="visible" enable-background="new    " width="34" height="14" xlink:href="mod4/15.png"  transform="matrix(1.0002 0 0 1.0002 3.1514 226.3301)"/>	
		<image display="inline" overflow="visible" enable-background="new    " width="34" height="14" xlink:href="mod4/18.png"  transform="matrix(1.0002 0 0 1.0002 3.7305 212.1841)"/>
</g>
<g id="Diagram">
	<image id="DiagramGlow" overflow="visible" width="440" height="180" xlink:href="mod4/diagramGlow.png"  transform="matrix(1 0 0 1 35.5 187.5)"/>
	<path id="Brain" opacity="0.6" fill="#F0A8CA" stroke="#FBDDEA" stroke-width="2" d="M96.657,203.568
		c-27.246,0-45.373,38.113-44.465,74.863c0.908,36.755,19.057,68.969,47.642,72.144c28.584,3.175,49.293-15.094,49.293-35.829
		c0-20.734-10.29-34.521-21.657-52.991C117.312,245.244,123.902,203.568,96.657,203.568z"/>
	<path id="Lungs" opacity="0.6" fill="#F0A8CA" stroke="#FBDDEA" stroke-width="2" d="M458.159,244.075
		c-5.946-16.554-51.852-6.682-77.837-0.097c-25.986,6.586-43.361,12.441-43.261,20.213c0.101,7.772,15.803,7.571,60.64,5.234
		C442.539,267.089,462.797,256.979,458.159,244.075z"/>
	<g id="Arrows">
		<path opacity="0.6" fill="#ED6767" enable-background="new    " d="M381.467,250.641l-1.145-6.662
			c-0.421,0.237-206.539,42.723-246.992,32.893l-0.395-3.396l-19.159,5.605l20.254,7.611l-0.548-3.84
			C177.896,297.384,381.031,250.891,381.467,250.641z"/>
		<path id="ArrowOne" opacity="0.6" fill="#ED6767" enable-background="new    " d="M369.191,263.857
			c4.164-1.686,10.264-4.612,15.68-8.937l-3.404-4.28c-3.822,3.049-8.905,5.94-14.313,8.135l-1.544-3.874l-13.271,12.636
			l18.377,0.201L369.191,263.857z"/>
	</g>
	<path id="Heart" opacity="0.6" fill="#EE6767" stroke="#FBDDEA" stroke-width="2" enable-background="new    " d="M391.238,252.917
		c0,0-8.029-5.578-3.799-11.402c4.229-5.813,12.864-0.877,22.803,11.402c-9.938,12.279-18.572,17.229-22.803,11.401
		C383.209,258.494,391.238,252.917,391.238,252.917z"/>
</g>
<g>
	<g>
		<path d="M76.336,218.812c-0.477-7.651,2.849-15.004,7.493-20.918c-3.41,2.329-6.352,5.633-8.366,9.239
			c-0.195,0.352-0.595,0.077-0.953-0.04c-0.109-0.036-0.616-0.188-0.681-0.294c0.106-0.669,0.328-1.303,0.51-1.956
			c0.584-2.077,1.462-4.049,2.72-5.8c3.273-4.559,8.452-8.249,13.763-10.053c0.291,0.856,0.875,1.454-0.007,1.802
			c-1.237,0.49-2.506,0.944-3.673,1.582c-3.958,2.174-7.689,5.263-9.954,9.232c1.494-1.768,3.288-3.323,5.172-4.673
			c0.989-0.712,1.972-1.456,3.063-1.997c1.238-0.613,1.313-0.754,2.021,0.347c0.383,0.597,0.183,0.664-0.28,1.165
			c-0.783,0.841-1.495,1.733-2.197,2.642c-2.297,2.983-4.213,6.249-5.49,9.796c-0.763,2.113-1.34,4.283-1.536,6.522
			c-0.095,1.101-0.312,2.192-0.243,3.293c-0.197,0.19-1.277,0.108-1.575,0.125"/>
	</g>
	<g>
		<g>
			<path d="M97.412,190.687c-0.287-0.732,0.088-1.211-0.197-1.944c8.466-3.304,16.949-7.132,26.069-7.834
				c4.52-0.349,8.902,0.982,13.401,1.348c3.665,0.298,7.409-0.461,10.916-1.65c6.541-2.215,11.534-7.295,16.928-11.322
				c2.778-2.076,6.299-4.173,9.859-3.434c2.999,0.621,4.477,3.477,5.431,6.222c0.457,1.315,0.788,2.827,2.248,3.491
				c1.083,0.493,3.256,0.564,4.751,0.127c1.83-0.536,3.157-2.21,4.477-3.599c0.601-0.633,0.928-0.973,1.677-0.452
				c0.48,0.333,0.598,0.657,1.078,0.988c-1.979,2.855-5.04,4.564-8.418,5.12c-2.471,0.405-5.877,0.531-7.01-2.676
				c-0.651-1.85-1.212-3.918-2.591-5.355c-2.125-2.208-5.458-1.561-7.917-0.289c-3.471,1.797-6.576,4.549-9.577,7.005
				c-2.224,1.821-4.49,3.485-7.052,4.807c-2.971,1.532-6.031,3.014-9.357,3.262c-4.001,0.298-7.94-0.863-11.923-1.053
				c-11.244-0.529-21.857,3.351-32.213,7.393"/>
		</g>
		<path d="M51.244,232.788c0.494-1.43,0.979-2.87,1.463-4.314c3.438-10.26,6.888-20.645,14.294-28.826
			c6.418-7.089,15.171-11.788,24.24-14.566c0.129,0.423,1.027,2.422,0.861,2.794c-2.132,0.653-4.465,0.866-6.52,1.737
			c-3.454,1.464-6.379,3.961-9.426,6.151c-5.157,3.71-9.247,8.405-12.438,13.889c-2.907,4.992-5.196,10.243-7.031,15.705
			c-1.133,3.369-2.396,6.707-3.566,10.07C51.514,240.044,51.244,232.788,51.244,232.788z"/>
	</g>
</g>
<g id="Hand">
	<image id="FingersGlow" overflow="visible" width="150" height="109" xlink:href="mod4/fingersGlowComp.png"  transform="matrix(1 0 0 1 324.5 141.5)" />
	<image overflow="visible" width="233" height="349" id="Hand" xlink:href="mod4/hand.png"  transform="matrix(1 0 0 1 338.5 -112.5)"/>
	<rect id="FingersTarget" x="370.608" y="184.164" opacity="0" fill="#F0A8CA" width="60.444" height="46.21"/>
</g>
<rect id="FingersTargetFixed" x="370.608" y="184.164" opacity="0" fill="#F0A8CA" width="60.444" height="46.21"/>
<rect id="CompressionsTarget" x="370.608" y="227.655" opacity="0" fill="#F0A8CA" width="60.444" height="46.21"/>
<g id="Arrow">
	<image id="ArrowGlow" overflow="visible" width="103" height="68" xlink:href="mod4/arrowGlow.png"  transform="matrix(1 0 0 1 188.5298 180.3842)"/>
	<image id="ArrowProper" overflow="visible" width="72" height="37" xlink:href="mod4/arrow.png"  transform="matrix(1.0002 0 0 1.0002 204.333 196.1987)"/>
</g>
</svg>
