<?xml version="1.0" encoding="utf-8"?>
<!-- Generator: Adobe Illustrator 15.0.0, SVG Export Plug-In . SVG Version: 6.00 Build 0)  -->
<!DOCTYPE svg PUBLIC "-//W3C//DTD SVG 1.1//EN" "http://www.w3.org/Graphics/SVG/1.1/DTD/svg11.dtd">
<svg version="1.1" id="Layer_1" xmlns="http://www.w3.org/2000/svg" xmlns:xlink="http://www.w3.org/1999/xlink" x="0px" y="0px"
	 width="640px" height="360px" viewBox="0 0 640 360" enable-background="new 0 0 640 360" xml:space="preserve">
<g>
	<g>
		<path fill="#586361" d="M223.807,204.828c-8.197,12.419-6.693,34.421-7.012,54.819c-0.319,20.399,0.318,34.104,1.913,36.336
			c1.593,2.23,93.068-10.519,93.068-10.519s5.738-11.155,11.155-31.236c5.419-20.079,7.331-26.772,9.243-30.598
			s3.507-6.374,3.188-15.299c-0.32-8.924-20.4-12.111-20.4-12.111S234.325,188.891,223.807,204.828z"/>
		<path fill="#0591C0" d="M297.008,84.031c-20.824-5.95-29.749-4.674-48.872-2.125c-19.124,2.55-39.097,14.448-46.747,22.522
			c-7.649,8.075-6.8,15.724-2.975,31.873c3.825,16.149,8.924,25.073,7.225,35.272c-1.7,10.2,1.699,15.724,1.699,15.724
			s-1.274,0.85-0.425,3.399s2.55,3.825,2.55,3.825s1.701,9.349,2.125,12.324c0.425,2.974-3.399,3.823-2.125,6.799
			c1.275,2.977,6.374,4.249,5.525,8.501c-0.849,4.248-5.242,6.483-2.55,9.772c3.825,4.675,5.95,6.374,5.95,11.476
			c0,5.099-0.425,12.322-0.425,12.322s7.649-5.522,14.874-5.098s7.225,0.425,7.225,0.425s-2.551-8.074-2.125-14.874
			c0.425-6.802-2.549-8.499-0.849-19.123c1.7-10.626,1.7-12.324,1.7-12.324s9.35,13.599,32.723,13.599
			c23.373,0,33.997-7.649,33.997-7.649s-1.274,8.075-11.048,22.099c-9.774,14.024-11.9,19.548-11.9,19.548s4.25,3.823,9.774,6.8
			c5.524,2.976,11.05,3.4,11.05,3.4s5.099-15.724,15.298-26.349c10.199-10.623,5.949-11.476,14.874-23.375
			c8.925-11.896,8.074-20.396,8.925-25.922c0.851-5.523,4.674-3.825,2.55-12.323c-2.124-8.5-2.976-11.05-3.825-17.849
			c-0.849-6.799-6.801-31.873-17.849-50.146C312.308,88.281,297.008,84.031,297.008,84.031z"/>
		<path fill="#ECAF8B" d="M277.035,79.356c0,0,11.9,8.923,5.95,30.172c-5.951,21.249-20.824,29.748-38.673,26.773
			c-17.848-2.974-17.848-11.473-22.948-16.998c-5.099-5.525-3.825-24.223-2.975-25.923C219.239,91.68,240.912,78.931,277.035,79.356
			z"/>
		<path fill="#FFFFFF" d="M236.875,40.365c1.072-0.718,2.973-1.021,4.159-1.218c1.758,2.208,3.268,5.359,2.807,8.5
			c-2.315-1.561-4.289-4.274-5.689-6.963"/>
		<path fill="#5D4631" d="M241.656,40.365c0,0,5.737-2.869,12.43,1.275c6.693,4.143,17.212,13.067,18.167,21.354
			c0.956,8.287-1.275,12.111-1.593,18.486c-0.319,6.375,8.605,8.606,8.605,8.606s-3.824,5.737-13.386,2.549
			c-9.563-3.187-12.112-12.43-11.793-22.311c0.319-9.88-1.275-17.849-2.868-19.761c-1.593-1.912-6.375-2.868-6.375-2.868
			S242.931,42.277,241.656,40.365z"/>
		<path fill="#ECAF8B" d="M238.788,251.362c3.845,11.149,10.691,18.255,9.832,31.504c-6.677-2.048-7.563-9.647-11.664-14.274
			c-3.641,10.663-5.281,22.169-19.531,22.278c-4.797-10.362,1.454-19.102,2.948-28.903c1.672-10.976,6.813-11.785,17.779-10.288"/>
		<path fill="#ECAF8B" d="M282.134,252.636c-14.188,5.914-16.594,17.111-19.168,30.621c19.813,3.555,33.587-2.763,36.982-21.968
			c-7.634-0.427-14.626-5.467-17.495-10.566"/>
		<path fill="#0B82A9" d="M223.17,157.655c-0.385,8.193,0.009,17.938,3.143,25.076c1.464,3.337,2.794,5.299,3.415,8.805
			c0.256,1.449-2.984,3.212,1.147,5.968c0.041-0.05,3.136,16.639,3.38,19.553c0.378,4.531,0.68,9.917,2.867,13.771
			c0.332-9.471-0.08-18.945,2.278-27.922c0.261-0.995,2.331-4.429,2.277-5.696c-0.125-2.964-3.412-4.079-3.479-7.321
			c4.132,0.249,9.262-0.276,11.703-3.491c-7.4,0.126-14.749,0.127-19.082-6.11c-4.126-5.942-1.014-13.851-6.056-19.124"/>
		<path fill="#0B82A9" d="M304.126,145.225c-7.188,10.061,13.581,26.137-5.322,36.357c2.673-0.813,5.418-2.588,7.833-3.485
			c0.546,8.373,2.92,11.141-2.854,19.616c12.055,0.623,9.266-0.854,11.18-8.185c0.974-3.727,4.302-6.197,1.912-10.519
			c-5.097-9.218-7.012-31.554-12.43-29.96"/>
		<path fill="#47524F" d="M327.393,235.107c-4.517,8.565-4.758,18.174-9.458,26.761c-3.887,7.104-8.676,13.253-12.509,20.328
			c16.066,5.896,17.984-35.17,21.33-44.221"/>
		<path fill="#47524F" d="M262.691,225.225c8.39,11.302,3.653,21.115,3.755,33.689c0.413-9.186,6.444-14.245,6.986-27.251
			c-2.499-0.808-4.525-2.047-6.598-3.569"/>
		<path fill="#CC9A7C" d="M237.514,108.679c2.71,9.816-11.566,9.323-18.531,8.85c-5.463-9.771,14.158-11.016,20.229-9.276"/>
		<path fill="#ECAF8B" d="M184.391,83.182c2.975,4.673,1.276,5.949,8.076,9.349c6.799,3.4,8.499,4.25,8.924,9.349
			c0.425,5.1,1.275,7.224,1.275,7.224s1.275,1.275,5.099-0.424c3.825-1.701,4.25,0.424,4.25,0.424v1.7h5.099c0,0-0.425,3.4,1.7,3.4
			c2.126,0,3.399,0,5.1,1.7c1.701,1.701,5.526,1.275,8.5-1.7c2.975-2.974,5.525-6.375,5.525-6.375s14.023-13.6,14.873-19.549
			c0.85-5.949,1.702-7.225-1.7-14.024c-3.399-6.8-7.224-16.574-12.324-19.549c-5.1-2.975-27.198-9.349-34.422-4.674
			c-7.225,4.674-19.125,18.698-19.974,22.948C183.542,77.231,184.391,83.182,184.391,83.182z"/>
		<path fill="#CC9A7C" d="M230.819,65.863c-1.377,2.889,0.395,5.563,1.97,7.913c1.2,0.337,2.155,0.301,3.4,0.326
			c0.577-3.244-0.746-5.513-4.039-5.425c0.003-1.072-0.705-3.677-0.694-3.77"/>
		<path fill="#5D4631" d="M248.35,68.094c-2.231-1.275-5.418-2.869-6.693-3.188c-1.275-0.318-4.781-0.638-4.781-0.638
			s-3.506-4.143-7.65-2.231c-4.144,1.913-2.869,6.056-2.549,7.968c0.318,1.913,0,4.462-2.231,5.1
			c-2.231,0.637-2.231,0.637-2.231,0.637s-4.781-3.824-9.243-3.824c-4.462,0-7.968,0.638-11.793,0.638
			c-3.825,0-8.605-1.275-8.605-1.275s0,1.593,1.913,2.231c1.912,0.637,4.462,1.593,4.462,1.593s-1.912,0.319-4.462,0.319
			c-2.55,0-4.781,0-4.781,0s2.231,2.869,4.144,3.825c1.913,0.956,6.056,1.912,6.056,1.912s-2.868,0.638-7.331-0.637
			c-4.462-1.274-6.056-2.869-6.056-2.869s1.594,3.825,3.506,6.056c1.912,2.231,6.375,4.462,6.375,4.462s-4.462,1.594-10.836-1.912
			c-6.375-3.506-7.968-9.243-7.968-9.243s-7.332-2.55-5.101-9.243c2.231-6.693,5.737-7.968,5.737-7.968s0.637-11.156,10.199-18.805
			c9.562-7.649,22.63-11.474,36.653-7.012c14.024,4.462,18.805,13.067,19.762,19.124C245.799,59.17,248.35,68.094,248.35,68.094z"/>
		<path fill="#0B82A9" d="M223.49,196.647c-3.31,0.367-7.085,0.051-9.835-0.839c4.746-1.469,10.095-3.978,14.145-0.003
			c-0.688,0.188-1.309,0.585-1.761,1.267"/>
		<path fill="#0B82A9" d="M343.755,183.047c-3.985,1.896-8.313,3.079-12.558,3.918c2.515,0.786,3.001,2.262,4.351,3.234
			c-2.064,0.228-4.594,1.187-6.492,1.264c6.81-1.824,9.997,2.213,10.876,7.735c2.568-4.912,1.011-10.288,2.55-15.3"/>
	</g>
	<g>
		<g>
			<path fill="#25242B" d="M197.778,136.991c1.539,6.155,3.503,12.16,5.224,18.261c0.753,2.669,0.806,5.566,1.212,8.313
				c0.387,2.608-0.369,5.198-0.337,7.819c0.068,5.865-0.025,13.612,4.884,17.728c0.255-0.306,1.171-1.099,0.867-1.388
				c-0.905-0.858-1.436-2.191-1.995-3.304c-1.348-2.68-0.316-5.833-0.448-8.756c-0.135-3-0.118-5.921-0.126-8.926
				c-0.014-4.432-1.914-8.921-3.132-13.141c-2.859-9.907-6.063-19.821-6.616-30.198c-0.186-3.483-0.584-7.031,0.274-10.427
				c0.282-1.116,1.045-2.02,1.561-3.051c0.204-0.41,0.263-0.853,0.526-1.23c0.377-0.541-0.716-0.338-1.205-0.724
				c-0.208-0.163-0.351-1.037-0.56-1.2c-2.532,3.223-2.935,7.995-3.109,11.963C194.527,124.926,196.28,130.996,197.778,136.991"/>
		</g>
	</g>
	<g>
		<g>
			<path fill="#25242B" d="M205.188,190.573c0.201,2.866,3.879,4.435,6.205,5.235c0.115-0.333,0.78-1.55,0.655-1.845
				c-1.57-0.541-3.428-1.166-4.557-2.436c-1.068-1.201-0.027-2.18,1.131-2.838c0.625-0.356-0.257-1.379-0.55-1.952
				c-1.458,0.746-3.145,2.013-3.013,3.846"/>
		</g>
	</g>
	<g>
		<g>
			<path fill="#25242B" d="M210.022,203.87c0.23,1.363,0.327,2.729,0.441,4.106c0.127,1.506-0.032,1.555-1.127,2.538
				c-1.771,1.596-1.496,3.981-0.078,5.791c1.285,1.646,4.641,3.164,4.987,5.318c0.192,1.207-0.307,2.085-0.535,3.193
				c-0.26,1.269-1.645,1.874-2.261,2.992c-2.304,4.166,3.247,6.849,5.391,9.702c0.603,0.801,2.068,2.387,1.807,3.442
				c-0.148,0.598-1.73,1.631-1.425,1.956c0.378,0.409,0.806,0.786,1.187,1.192c1.535-1.427,2.828-3.389,1.542-5.358
				c-0.709-1.089-1.913-1.889-2.698-2.927c-1.282-1.695-4.144-3.333-4.386-5.591c-0.157-1.458,1.648-2.617,2.173-3.86
				c0.268-0.632,0.443-1.118,0.774-1.73c0.257-0.477,0.337-1.111,0.458-1.641c0.68-2.997-2.236-5.088-4.113-6.879
				c-0.703-0.669-2.426-1.999-1.894-3.147c0.498-1.076,1.786-1.526,2.247-2.688c0.485-1.233,0.038-2.959-0.137-4.225
				c-0.234-1.691-0.196-3.417-0.429-5.11c-0.06-0.434-0.701-4.128-0.65-4.125c-0.616-0.042-1.595-0.428-2.209-0.469
				c-0.171,2.48,0.886,5.02,1.295,7.457"/>
		</g>
	</g>
	<g>
		<g>
			<path fill="#25242B" d="M217.583,240.523c0,4.247,0.692,8.438,0.748,12.686c0.019,1.617,0.062,3.422-0.706,4.896
				c-0.293,0.564-0.473,0.599,0.025,1.009c0.365,0.3,0.703,0.428,1.067,0.727c2.392-2.903,1.543-7.699,1.19-11.121
				c-0.241-2.356-0.531-4.722-0.655-7.09c-0.039-0.742,0.365-1.142-0.404-1.142c-0.473,0-1.031,0.012-1.503,0.012"/>
		</g>
	</g>
	<g>
		<g>
			<path fill="#25242B" d="M236.979,207.378c-0.255,4.443-1.228,8.863-0.695,13.291c0.425,3.523,1.889,7.121,1.541,10.674
				c-0.257,2.604-1.036,5.156-1.276,7.762c-0.418,4.526,0.151,8.906,1.596,13.227c0.584-0.195,1.117-0.736,1.701-0.933
				c-0.018,0.008-1.123-3.941-1.213-4.457c-0.485-2.806-0.212-5.639,0.081-8.459c0.429-4.124,0.567-8.149,0.194-12.304
				c-0.525-5.849-1.162-11.436-0.834-17.352c0.168-3.033,0.11-6.041,0.229-9.079c-0.202-0.001-1.428-0.058-1.43-0.006
				c-0.029,0.759,0.155,1.524,0.125,2.282c-0.069,1.779-0.485,3.544-0.555,5.325"/>
		</g>
	</g>
	<g>
		<g>
			<path fill="#25242B" d="M215.695,258.462c0.522,0.645,0.546,1.1,1.252,0.543c0.785-0.619,1.634-1.168,2.462-1.729
				c2.125-1.44,4.507-2.448,6.894-3.399c2.67-1.062,5.456-2.151,8.34-2.127c1.506,0.016,3.062,0.279,4.508,0.699
				c0.238,0.068,1.561,0.805,1.616,0.672c0.152-0.362,0.36-0.748,0.513-1.112c-8.841-3.681-18.489,1.045-25.402,6.659"/>
		</g>
	</g>
	<g>
		<g>
			<path fill="#25242B" d="M271.756,80.791c12.586,1.494,26.13,2.591,36.393,10.734c11.429,9.071,20.382,21.578,24.621,35.495
				c3.482,11.431,5.93,23.316,8.181,35.047c0.569,2.97,1.558,5.861,2.103,8.828c0.336,1.829,0.677,3.704,0.366,5.567
				c-0.068,0.407-0.885,3.244-0.966,3.166c0.451,0.419,1.112-0.372,1.563,0.047c1.205-1.298,3.282-2.516,2.846-4.37
				c-0.393-1.687-2.728-2.683-3.101-4.377c-0.525-2.394,0.372-5.124-0.073-7.542c-1.754-9.522-4.955-18.771-7.395-28.141
				c-2.474-9.502-5.466-18.5-10.723-26.865c-3.616-5.755-7.372-11.631-12.407-16.196c-5.656-5.125-12.315-7.933-19.73-9.966
				c-4.744-1.302-9.662-1.606-14.538-2.253c-1.692-0.225-3.24-1.586-4.938-1.787c-0.223-0.026-2.244,0.159-2.262,0.301
				c-0.083,0.61-0.556,1.167-0.637,1.776"/>
		</g>
	</g>
	<g>
		<g>
			<path fill="#25242B" d="M342.33,190.804c0,3.119-1.048,6.324-2.285,9.164c-2.759,6.352-7.245,11.761-11.015,17.519
				c-1.558,2.382-3.374,4.619-4.692,7.141c-1.181,2.26-2.383,4.499-3.807,6.622c-1.68,2.507-4.108,4.563-6.683,6.098
				c-0.421,0.25-0.429,1.399-0.883,1.585c-0.042,0.017,0.326,0.941,0.397,1.129c2.043-0.771,4.081-2.046,5.722-3.43
				c3.062-2.585,5.036-5.464,6.783-8.996c3.627-7.335,8.171-13.987,12.257-21.045c2.494-4.313,5.592-8.969,6.043-14.014
				c0.287-3.212-0.459-6.493-0.053-9.706c0.221-1.754,0.055-3.585,0.372-5.324c0.122-0.675,0.931-0.682,0.216-0.825
				c-0.463-0.091-1.194-0.446-1.659-0.539c-0.949,4.753-0.978,9.771-0.978,14.622"/>
		</g>
	</g>
	<g>
		<g>
			<path fill="#25242B" d="M310.498,244.669c-2.755,3.491-5.188,6.888-6.845,11.028c-0.813,2.027-1.236,4.228-2.208,6.184
				c-0.46,0.928,0.395,0.897,1.208,1.327c2.086-3.95,3.302-8.271,5.635-12.099c2.563-4.202,5.975-7.738,8.301-12.101
				c-0.833-0.446-1.458-1.287-1.984-0.369c-1.213,2.121-2.601,4.114-4.108,6.029"/>
		</g>
	</g>
	<g>
		<g>
			<path fill="#25242B" d="M313.983,186.298c-0.296,0.192-0.483,0.55-0.779,0.743c0.746,0.931,0.993,1.85,1.366,3.008
				c0.215,0.673,0.934,1.376,1.234,2.013c-0.632,0.325-1.52,0.631-2.035,1.119c-2.336,2.216-3.558,5.466-4.827,8.368
				c-1.518,3.472-3.137,6.89-4.818,10.288c-0.698,1.41-1.518,2.711-2.551,3.906c-0.513,0.594,0.668,1.185,1.176,1.669
				c3.921-4.087,5.539-10.269,7.748-15.339c1.067-2.449,2.143-5.153,3.944-7.165c1.125-1.256,2.579-1.525,4.144-1.937
				c-1.318-1.639-1.626-3.4-2.471-5.311c0.329-0.156,3.088-0.958,3.075-0.761c0.038-0.614,0.237-1.168,0.273-1.784
				c-1.875-0.118-3.785,0.337-5.363,1.362"/>
		</g>
	</g>
	<g>
		<g>
			<path fill="#25242B" d="M293.442,232.997c-0.753,1.166-1.966,2.063-2.664,3.263c-1.129,1.945-1.652,4.15-2.604,6.169
				c-0.888,1.887-2.074,3.491-3.559,4.939c-0.335,0.327-2.881,2.813-2.86,2.84c0.381,0.484,0.572,1.072,0.953,1.557
				c2.663-2.092,5.091-4.548,6.76-7.54c1.347-2.413,1.811-5.231,3.319-7.566c3.966-6.137,8.26-12.127,11.389-18.745
				c-0.302-0.144-0.99-0.678-1.275-0.579c-0.858,1.814-2.19,3.359-3.196,5.095c-2.052,3.544-4.36,6.924-6.589,10.359"/>
		</g>
	</g>
	<g>
		<g>
			<path fill="#25242B" d="M306.147,149.407c1.769,2.605,3.264,5.427,4.183,8.458c0.746,2.455,1.15,5.005,1.565,7.531
				c0.511,3.104,1.676,5.829,2.926,8.698c0.734,1.685,1.08,3.487,1.265,5.333c0.054,0.545-0.008,1.994,0.597,2.061
				c0.424,0.046,1.189-0.135,1.613-0.089c0.401-3.645-1.744-7.076-3.152-10.307c-0.997-2.286-1.466-4.56-1.864-6.999
				c-0.394-2.4-0.812-4.807-1.566-7.125c-0.98-3.013-2.696-5.668-4.467-8.278c-0.44,0.298-0.591,0.395-1.031,0.692"/>
		</g>
	</g>
	<g>
		<g>
			<path fill="#25242B" d="M316.107,182.173c-0.972-0.07-0.746,1.629-0.686,2.243c0.175,1.777,1.174,3.336,2.494,4.492
				c0.28-0.32,0.525-0.751,0.808-1.072c0.4-0.458-0.485-0.966-0.803-1.409c-0.46-0.646-0.78-1.363-0.859-2.156
				c-0.104-1.054,0.658-0.904,1.52-1.218c2.858-1.034,5.442-3.015,6.18-6.073c-0.309-0.073-1.484-0.559-1.753-0.436
				c-0.222,0.923-0.491,1.876-1.091,2.613c-1.417,1.736-3.676,2.563-5.809,3.024"/>
		</g>
	</g>
	<g>
		<g>
			<path fill="#25242B" d="M318.677,190.479c0.071,0.42,0.136,0.758,0.207,1.179c7.695-1.314,14.984-3.93,22.148-6.954
				c-0.153-0.362-0.126-0.809-0.279-1.171c-0.066-0.16-2.194,0.676-2.472,0.79c-2.033,0.843-4.072,1.658-6.143,2.405
				c-4.391,1.589-8.853,2.976-13.458,3.76"/>
		</g>
	</g>
	<g>
		<g>
			<path fill="#25242B" d="M321.383,189.109c4.52,2.297,9.449,4.501,14.609,4.545c0.001-0.315-0.053-0.613-0.05-0.927
				c0.005-0.651-1.245-0.248-1.798-0.313c-1.888-0.218-3.684-0.945-5.474-1.569c-1.76-0.613-3.475-1.323-5.152-2.132
				c-0.21-0.102-1.546-0.786-1.626-0.628c-0.178,0.351-0.315,0.654-0.494,1.004"/>
		</g>
	</g>
	<g>
		<g>
			<path fill="#25242B" d="M210.989,190.063c-0.25-0.012-0.352,0.12-0.6,0.154c1.004,2.881,3.071,3.461,5.945,3.529
				c1.052,0.025,2.098,0.259,3.149,0.287c1.031,0.027,0.793-0.325,0.88-1.331c-2.384-0.066-6.444,0.651-8.132-1.345
				c6.586-0.744,13.234-0.018,19.792,0.656c0.132-1.299,0.287-1.264-1.018-1.398c-1.882-0.192-3.787-0.137-5.67-0.302
				c-4.76-0.412-9.603-0.954-14.351-0.277"/>
		</g>
	</g>
	<g>
		<g>
			<path fill="#25242B" d="M222.707,196.475c-1.013-0.008-2.065-0.036-3.08-0.043c0,0.341-0.171,1.363,0.229,1.365
				c0.881,0.008,1.762,0.058,2.641,0.065c3.542,0.027,7.148,0.221,10.667-0.269c-0.054-0.389-0.157-0.88-0.212-1.269
				c-0.018-0.128-2.641,0.102-2.989,0.12c-2.418,0.126-4.839,0.256-7.258,0.229"/>
		</g>
	</g>
	<g>
		<g>
			<path fill="#25242B" d="M211.528,143.687c0.221,2.899,2.923,5.301,4.706,7.405c2.251,2.662,4.711,5.172,6.751,8.005
				c2.147,2.981,3.223,6.19,3.923,9.805c0.506,2.611,1.106,5.183,1.982,7.708c2.02,5.815,7.696,10.363,13.776,10.907
				c5.454,0.488,11.017-1.957,15.197-5.301c-0.699-0.872-0.913-1.411-1.837-0.723c-0.963,0.717-1.855,1.54-2.905,2.121
				c-2.674,1.475-5.667,2.823-8.739,2.886c-6.388,0.131-13.035-4.532-14.946-10.665c-0.828-2.656-1.235-5.437-1.833-8.145
				c-0.899-4.075-2.834-7.173-5.333-10.466c-2.118-2.791-3.959-5.773-6.156-8.501c-0.934-1.16-2.412-2.108-2.97-3.501
				c-0.089-0.223-0.017-1.825-0.114-1.818c-0.391,0.03-1.178,0.197-1.571,0.228"/>
		</g>
	</g>
	<g>
		<g>
			<path fill="#25242B" d="M235.543,203.973c10.362,6.498,20.729,14.519,33.386,15.123c6.304,0.301,12.625-0.925,18.777-2.216
				c5.789-1.219,12.008-2.271,17.191-5.215c-0.21-0.372-0.486-0.826-0.696-1.196c-0.273-0.479-0.475,0.385-0.893,0.6
				c-1.182,0.604-2.604,0.737-3.842,1.215c-3.087,1.195-6.135,2.719-9.353,3.486c-6.383,1.519-13.183,2.273-19.761,2.174
				c-12.923-0.197-24.003-7.802-34.535-14.398c-0.278,0.452-0.554,0.433-0.833,0.886"/>
		</g>
	</g>
	<g>
		<g>
			<path fill="#25242B" d="M235.876,187.535c1.158,3.314,3.208,6.294,5.237,9.126c-2.032,0.834-2.194,2.643-2.063,4.601
				c0.075,1.164-0.038,2.426-0.651,3.475c0.119,0.283,1.112,0.647,1.393,0.812c1.193-2.038,0.259-4.087,0.668-6.216
				c0.273-1.435,2.086-1.509,3.253-1.729c-1.355-1.882-2.661-3.831-3.873-5.809c-0.841-1.371-1.617-2.766-2.201-4.267
				c-0.337-0.869-1.019-0.246-1.808,0.03"/>
		</g>
	</g>
	<g>
		<g>
			<path fill="#25242B" d="M274.627,78.909c5.79,5.044,10.614,10.816,10.419,18.7c-0.107,4.36-1.411,8.677-2.644,12.835
				c-1.126,3.798-2.584,7.313-4.491,10.799c-4.423,8.085-12.437,12.381-21.257,14.394c-9.593,2.19-18.307-0.289-26.141-6.097
				c-2.53-1.877-4.726-3.862-6.446-6.505c-0.919-1.411-1.944-2.731-2.683-4.243c-0.466-0.953-0.58-2.135-1.012-3.104
				c-0.205-0.066-1.504,0.738-1.718,0.833c1.564,3.504,3.766,6.642,6.23,9.613c2.577,3.104,5.749,5.42,9.224,7.424
				c8.813,5.08,18.648,5.656,28.081,2.25c8.212-2.964,13.382-7.269,17.604-14.969c2.285-4.167,3.351-8.729,4.417-12.594
				c1.123-4.076,1.369-8.333,1.179-12.583c-0.332-7.473-3.771-13.741-9.258-18.521c-0.278,0.32-0.54,0.682-0.818,1.001"/>
		</g>
	</g>
	<g>
		<g>
			<path fill="#25242B" d="M307.474,134.064c-1.006,3.645-1.835,7.612-3.62,10.968c-1.413,2.655-2.982,4.603-2.005,7.744
				c0.301-0.093,0.688-0.177,0.99-0.271c0.618-0.191-0.199-1.25-0.245-1.823c-0.105-1.347,0.625-2.469,1.316-3.575
				c1.048-1.843,1.811-3.694,2.479-5.708c0.914-2.754,1.785-5.521,2.573-8.313c0.263-0.936,0.357-1.92,0.622-2.856
				c0.217-0.768-0.437-0.744-1.143-0.952c-0.432,1.531-0.893,3.155-1.326,4.686"/>
		</g>
	</g>
	<g>
		<g>
			<path fill="#25242B" d="M238.396,253.132c4.108,3.451,3.549,10.476,5.692,15.033c1.109,2.354,2.019,4.739,2.478,7.298
				c0.069,0.377,0.506,3.596,0.604,3.58c0.608-0.089,1.362-0.303,1.971-0.393c-0.353-2.405-0.691-4.892-1.377-7.229
				c-0.674-2.304-2.15-4.316-2.838-6.611c-1.299-4.329-1.655-9.99-5.347-13.091c-0.409,0.486-0.688,0.888-1.097,1.374"/>
		</g>
	</g>
	<g>
		<g>
			<path fill="#25242B" d="M236.915,269.736c2.185,1.542,2.762,3.798,3.393,6.262c0.65,2.537,1.818,4.774,3.972,6.391
				c0.212-0.282,1.16-1.185,1.133-1.507c-1.463-1.099-2.249-2.643-2.765-4.371c-0.967-3.249-1.625-6.288-4.589-8.385
				c-0.368,0.521-0.689,0.991-1.058,1.512"/>
		</g>
	</g>
	<g>
		<g>
			<path fill="#25242B" d="M232.686,278.705c-0.315,1.081-0.688,2.151-1.004,3.233c-0.271,0.937,0.813,0.838,1.62,1.097
				c0.748-2.575,1.481-5.152,2.267-7.72c0.65-2.118,1.275-4.313,2.372-6.249c0.221-0.393,1.275-1.356,0.929-1.645
				c-0.428-0.356-0.929-0.767-1.357-1.122c-2.812,3.373-3.92,8.21-5.063,12.34"/>
		</g>
	</g>
	<g>
		<g>
			<path fill="#25242B" d="M215.045,275.022c0.571,0.284,1.113,0.565,1.685,0.849c3.018-6.07,4.419-12.788,5.852-19.373
				c-0.935-0.203-1.794-0.833-2.027,0.231c-0.463,2.11-0.831,4.244-1.364,6.338c-1.044,4.09-2.362,8.126-4.246,11.913"/>
		</g>
	</g>
	<g>
		<g>
			<path fill="#25242B" d="M215.188,272.283c1.146,5.433-1.458,11.652,1.385,16.75c0.287-0.161,1.591-0.618,1.671-0.902
				c-0.78-1.398-1.162-3.015-1.2-4.583c-0.096-3.867,0.799-7.813-0.006-11.645c-0.624,0.129-1.07,0.252-1.694,0.384"/>
		</g>
	</g>
	<g>
		<g>
			<path fill="#25242B" d="M226.259,276.41c0.082,1.661,0.003,3.338-0.133,4.996c-0.021,0.256-0.313,1.871-0.146,1.889
				c0.392,0.046,0.721,0.109,1.112,0.155c0.271-2.359,0.509-4.729,0.394-7.104c-0.425,0.023-0.797,0.056-1.221,0.078"/>
		</g>
	</g>
	<g>
		<g>
			<path fill="#25242B" d="M220.967,283.558c0.082,0.661,0.128,1.327,0.21,1.991c0.088,0.734,0.636,0.365,1.302,0.315
				c-0.102-0.842-0.15-1.65-0.26-2.491c-0.186-1.256-0.303-2.522-0.269-3.796c-0.185-0.151-1.023-0.008-1.278-0.015
				c-0.035,1.345,0.149,2.659,0.345,3.986"/>
		</g>
	</g>
	<g>
		<g>
			<path fill="#25242B" d="M217.404,281.003c0,1.562,0.003,3.125,0.003,4.688c0,0.884,0.042,1.767,0.042,2.652
				c0,0.464,1.056,0.622,1.308,0.358c0.149-0.155-0.056-1.241-0.056-1.446c0-1.097,0.04-2.193,0.04-3.29
				c0-0.885-0.109-1.768-0.109-2.652c0-0.595-0.701-0.301-1.2-0.301"/>
		</g>
	</g>
	<g>
		<g>
			<path fill="#25242B" d="M225.929,276.719c0.11,0.613,0.93,0.094,1.381-0.042c-0.31-1.018-0.737-2.108-0.662-3.192
				c0.038-0.536,0.462-0.793-0.022-1.096c-0.266-0.166-0.561-0.341-0.828-0.507c-0.917,1.463-0.281,3.313,0.181,4.822"/>
		</g>
	</g>
	<g>
		<g>
			<path fill="#25242B" d="M279.871,250.936c4.614,3.055,8.314,7.407,13.338,9.854c2.36,1.15,4.76,1.469,7.344,1.254
				c1.295-0.107,2.567-0.156,3.869-0.113c0.914,0.032,0.707-0.787,0.766-1.61c-2.128-0.153-4.28,0.324-6.403,0.365
				c-2.416,0.047-4.652-0.528-6.706-1.743c-4.212-2.494-7.418-6.404-11.49-9.098c-0.233,0.354-0.489,0.744-0.723,1.098"/>
		</g>
	</g>
	<g>
		<g>
			<path fill="#25242B" d="M274.472,256.429c-1.54,1.378-3.196,2.714-5.138,3.503c-0.719,0.291-1.487,0.132-1.342,0.996
				c0.079,0.465,0.041,0.985,0.12,1.45c3.667-0.62,6.227-3.486,8.923-5.792c1.295-1.107,2.735-2.057,4.361-2.626
				c0.9-0.315,0.238-1.25,0.007-2.086c-2.742,0.758-4.928,2.62-6.999,4.477"/>
		</g>
	</g>
	<g>
		<g>
			<path fill="#25242B" d="M265.893,266.638c-1.373,2.683-1.91,5.274-1.938,8.276c-0.011,1.197-0.263,2.319-0.634,3.458
				c-0.235,0.725-0.946,1.487-0.096,1.81c0.442,0.169,0.741,0.26,1.183,0.426c0.639-1.685,1.413-3.337,1.482-5.154
				c0.048-1.277-0.062-2.572,0.184-3.831c0.394-2.014,1.583-3.768,2.477-5.588c1.018-2.071,2.086-4.181,2.888-6.342
				c-0.443-0.164-1.076-0.385-1.519-0.547c-0.916-0.342-0.977,1.479-1.283,2.229c-0.748,1.832-1.809,3.517-2.71,5.278"/>
		</g>
	</g>
	<g>
		<g>
			<path fill="#25242B" d="M292.937,275.841c0.384,0.51,0.68,0.911,1.065,1.42c4.588-3.482,6.969-9.6,7.038-15.215
				c-0.343-0.004-1.636-0.211-1.865,0c-0.021,1.759-0.406,3.506-0.886,5.197c-0.921,3.239-2.705,6.454-5.429,8.521"/>
		</g>
	</g>
	<g>
		<g>
			<path fill="#25242B" d="M267.233,274.219c-0.826,1.8-1.601,3.62-2.481,5.394c-0.143,0.289-1.164,2.187-1.024,2.261
				c0.345,0.189,0.518,0.457,0.865,0.646c1.89-3.489,3.415-7.14,5.103-10.729c0.828-1.759,1.707-3.504,2.652-5.204
				c0.152-0.273,1.392-2.011,1.264-2.092c-0.334-0.209-0.56-0.476-0.894-0.686c-2.086,3.332-3.885,6.829-5.52,10.395"/>
		</g>
	</g>
	<g>
		<g>
			<path fill="#25242B" d="M274.651,275.776c-1.36,1.525-2.915,3.059-3.651,5.001c0.758,0.288,1.063,0.71,1.444-0.074
				c0.655-1.35,1.64-2.532,2.626-3.647c0.835-0.94,1.641-1.89,2.452-2.85c-0.494-0.368-0.792-0.955-1.237-0.428
				c-0.555,0.655-1.157,1.273-1.712,1.932"/>
		</g>
	</g>
	<g>
		<g>
			<path fill="#25242B" d="M280.967,277.615c0.26,0.335,0.5,0.683,0.761,1.018c0.813-0.705,1.66-1.4,2.473-2.106
				c-0.603-0.628-0.713-1.136-1.398-0.543c-0.625,0.541-1.213,1.128-1.838,1.67"/>
		</g>
	</g>
	<g>
		<g>
			<path fill="#25242B" d="M333.893,218.495c0.093,1.47,0.099,2.733-0.893,3.921c-0.796,0.958-1.86,1.673-2.806,2.476
				c-0.804,0.681-0.043,0.974,0.554,1.685c2.543-2.135,5.03-3.931,4.868-7.462c-0.054-1.152-0.1-2.301-0.128-3.453
				c-0.035-1.396-0.249-1.024-1.65-1.061c0.032,1.324,0.011,2.57,0.043,3.895"/>
		</g>
	</g>
	<g>
		<g>
			<path fill="#25242B" d="M328.038,232.09c-1.169,2.915-2.65,5.699-3.452,8.745c-1.34,5.099-1.418,10.508-2.792,15.602
				c-0.975,3.611-1.925,7.247-2.975,10.836c-0.806,2.758-1.767,5.571-3.032,8.156c-0.166,0.342-2.399,3.239-2.366,3.261
				c0.519,0.334,1.438,0.622,1.957,0.957c3.466-5.379,5.232-11.761,6.795-17.893c0.851-3.233,1.004-6.646,1.755-9.904
				c1.234-5.357,2.311-10.722,4.366-15.851c1.896-4.733,3.927-9.398,4.685-14.482c-0.468-0.07-0.513,0.147-0.979,0.078
				c-0.958-0.144-0.625,1.504-0.834,2.31c-0.734,2.827-2.302,5.37-3.432,8.057"/>
		</g>
	</g>
	<g>
		<g>
			<path fill="#25242B" d="M272.987,231.471c0.211,6.226-1.99,11.945-3.924,17.748c-1.901,5.703-3.188,11.548-3.94,17.518
				c1.338,0.168,1.267,0.294,1.474-1.166c0.263-1.85,0.854-3.629,1.243-5.457c0.649-3.067,1.213-6.144,2.178-9.125
				c2.067-6.391,4.923-12.744,4.691-19.591c-0.425,0.017-1.365,0.038-1.79,0.052"/>
		</g>
	</g>
	<g>
		<g>
			<path fill="#25242B" d="M258.648,222.57c4.125,4.187,9.198,8.299,14.796,10.241c0.13-0.372,0.252-0.889,0.382-1.26
				c0.046-0.134-1.701-0.69-1.955-0.806c-1.945-0.888-3.811-1.987-5.571-3.198c-1.749-1.204-3.423-2.537-5.006-3.953
				c-0.641-0.576-1.152-1.309-1.758-1.921c-0.205,0.005-0.844,0.851-1.005,1.009"/>
		</g>
	</g>
	<g>
		<g>
			<path fill="#25242B" d="M271.91,232.354c0.216,0.229,0.548,0.467,0.764,0.695c0.436,0.457,0.934-0.311,1.312-0.661
				c1.378-1.274,2.801-2.493,4.278-3.652c1.576-1.241,3.22-2.374,4.97-3.359c0.258-0.145,2.041-1.123,1.985-1.246
				c-0.16-0.36-0.285-0.636-0.445-0.996c-4.839,2.149-9.077,5.58-12.88,9.193"/>
		</g>
	</g>
	<g>
		<g>
			<path fill="#25242B" d="M216.563,255.1c-0.133,2.772-0.141,5.554-0.273,8.328c-0.08,1.67-0.488,3.323-0.567,4.994
				c-0.071,1.47-0.052,1.146,1.521,1.24c0.221-4.637,0.646-9.195,0.867-13.832c0.082-1.687,0.362-3.362,0.437-5.049
				c0.064-1.446-0.284-2.908-0.219-4.355c0.05-1.143-0.064-0.712-1.197-0.768c-0.142,3.17-0.613,6.261-0.754,9.434"/>
		</g>
	</g>
	<g>
		<g>
			<path fill="#25242B" d="M306.697,162.746c1.263,6.623-1.625,12.662-7.072,16.403c-2.979,2.048-6.428,2.951-10.097,2.857
				c-4.13-0.105-8.027-1.529-11.806-3.041c-0.146,0.365-0.086,0.914-0.231,1.281c-0.069,0.171,2.133,1.255,2.467,1.382
				c2.072,0.784,4.243,1.466,6.425,1.864c4.613,0.844,9.055-0.181,13.009-2.656c6.339-3.971,9.952-10.802,8.519-18.326
				c-0.417,0.08-0.912,0.178-1.328,0.257"/>
		</g>
	</g>
	<g>
		<g>
			<path fill="#25242B" d="M303.651,193.218c-1.938,2.686-3.673,5.477-5.125,8.455c2.201-0.6,4.252-1.415,6.034-2.905
				c-0.252-0.302-0.407-0.549-0.659-0.851c-0.017-0.021-2.451,1.281-2.775,1.429c3.241-5.608,8.437-10.496,9.751-17.046
				c-0.24-0.049-1.024-0.373-1.224-0.265c-0.271,1.353-0.587,2.716-1.182,3.959c-1.251,2.62-3.157,4.86-4.849,7.203"/>
		</g>
	</g>
	<g>
		<g>
			<path fill="#25242B" d="M184.638,86.015c1.73,2.675,3.571,5.375,6.145,7.283c2.281,1.689,5.436,2.292,7.402,4.369
				c3.19,3.371,3.458,8.739,4.494,13.081c0.889-0.24,1.877-0.14,1.646-1.112c-0.233-0.977-0.393-1.971-0.613-2.952
				c-0.76-3.379-1.824-6.886-4.138-9.58c-2.304-2.684-5.832-3.72-8.52-5.955c-1.405-1.165-2.611-2.518-3.696-3.983
				c-0.185-0.249-1.405-1.993-1.517-1.92c-0.422,0.273-0.97,0.604-1.39,0.876"/>
		</g>
	</g>
	<g>
		<g>
			<path fill="#25242B" d="M207.138,108.129c-1.123,0.564-2.542,1.326-3.827,0.83c-0.472-0.182-0.621-0.683-0.992-0.246
				c-0.275,0.323-0.541,0.586-0.816,0.911c1.348,1.148,2.984,1.345,4.602,0.762c1.015-0.366,3.088-2.046,4.148-1.503
				c0.657,0.339,0.822,1.396,0.975,2.027c0.116,0.481,0.023,1.19,0.632,1.093c0.42-0.066,0.804-0.148,1.225-0.215
				c-0.205-1.292-0.383-2.86-1.288-3.871c-1.297-1.45-3.19-0.461-4.631,0.265"/>
		</g>
	</g>
	<g>
		<g>
			<path fill="#25242B" d="M230.445,114.771c-2.925,1.881-5.466,2.372-7.713-0.586c-0.426-0.655-1.076-1.024-1.917-1.113
				c-0.682-0.073-1.178,0.07-1.823,0.147c-1.774,0.211-1.717-1.528-1.505-2.931c-0.975,0.172-2.087,0.243-3.068,0.375
				c-0.642,0.087-1.25,0.45-1.893,0.537c-0.133,0.018-0.013,1.147-0.003,1.332c1.142-0.154,2.43-0.574,3.563-0.773
				c0.057,1.354,0.667,2.335,1.678,3.04c0.698,0.487,1.711-0.125,2.43-0.382c0.978-0.348,1.453,0.319,1.956,1.022
				c0.669,0.933,1.521,2.002,2.644,2.266c2.738,0.639,5.75-1.623,7.756-3.261c2.552-2.088,4.686-4.655,6.704-7.248
				c-0.712-0.553-0.943-1.156-1.578-0.353c-0.904,1.144-1.55,2.509-2.529,3.589c-1.415,1.563-3.128,2.87-4.911,4.016"/>
		</g>
	</g>
	<g>
		<g>
			<path fill="#25242B" d="M191.42,70.205c1.018,2.367,4.168,3.002,6.474,3.229c3.237,0.32,6.517-0.248,9.738-0.605
				c1.688-0.19,3.404,0.04,5.103-0.027c1.741-0.07,3.516-0.225,5.154,0.466c1.829,0.771,2.461,2.669,4.174,3.569
				c0.183-0.349,0.541-0.662,0.724-1.011c-0.019,0.035-1.842-1.83-2.028-2.066c-1.333-1.693-3.238-2.413-5.327-2.554
				c-2.357-0.161-4.733,0.193-7.077,0.434c-3.453,0.392-6.981,0.626-10.457,0.268c-1.33-0.137-2.937-0.007-4.07-0.764
				c-0.49-0.329-0.984-0.833-1.219-1.379c-0.205-0.07-0.808,0.275-1.025,0.369"/>
		</g>
	</g>
	<g>
		<g>
			<path fill="#25242B" d="M227.312,70.007c0.006,2.212-2.345,3.794-4.156,4.517c-0.833,0.331-1.749,0.511-2.645,0.576
				c-0.633,0.044-0.364,0.669-0.363,1.244c3.381-0.006,8.441-2.446,8.433-6.338c-0.425,0-0.914-0.034-1.339-0.032"/>
		</g>
	</g>
	<g>
		<g>
			<path fill="#25242B" d="M229.574,60.96c-3.974,1.398-4.559,6.232-3.151,9.75c0.365-0.146,0.769-0.134,1.134-0.28
				c-0.016,0.007-0.466-2.744-0.475-3.115c-0.041-1.952,0.606-3.964,2.447-4.836c3.247-1.541,5.393,0.747,7.236,3.117
				c2.094,2.398,2.874,6.439,2.486,9.534c-0.19,1.517-0.86,2.979-2.3,3.709c-0.676,0.345-1.411,0.407-2.163,0.393
				c-0.146,0.155,0.008,1.204,0.003,1.437c6.631,0.129,6.436-7.965,4.777-12.427c-1.467-3.945-5.238-8.735-9.926-7.085"/>
		</g>
	</g>
	<g>
		<g>
			<path fill="#25242B" d="M229.676,70.184c0.046,1.675,0.895,2.847,2.702,2.464c0.052,0.253,0.206,2.307,0.155,2.292
				c0.378,0.107,0.729,0.218,1.107,0.325c0.395-1.398,0.071-2.774-0.35-4.119c-0.511,0.182-1.698,0.764-2.061,0.118
				c-0.124-0.223-0.207-1.148-0.346-1.144c-0.394,0.011-0.798,0.045-1.191,0.057"/>
		</g>
	</g>
	<g>
		<g>
			<path fill="#25242B" d="M232.266,63.83c-2.405,0.528-3.625,3.315-3.458,5.559c0.831-0.062,1.213,0.229,1.256-0.649
				c0.062-1.297,0.665-2.64,1.79-3.357c1.098-0.697,2.051-0.202,2.632,0.851c0.487,0.882,0.595,0.551,1.534,0.199
				c-0.594-1.588-1.923-3.104-3.774-2.698"/>
		</g>
	</g>
	<g>
		<g>
			<path fill="#25242B" d="M230.108,68.449c0.606,1.027,0.493,1.197,1.617,0.708c1.323-0.575,2.806-0.603,3.53,0.835
				c0.515,1.021,1.014,3.48,0.007,4.217c-1.394,1.021-0.275,2.183,0.855,2.738c0.173-0.355,0.41-0.669,0.583-1.022
				c0.1-0.203-0.717-0.412-0.847-0.67c2.125-0.354,1.12-4.623,0.476-5.858c-1.31-2.515-4.074-2.171-6.175-0.934"/>
		</g>
	</g>
	<g>
		<g>
			<path fill="#25242B" d="M237.479,63.715c0.015,0.393-0.052,0.867-0.036,1.261c0.003,0.107,1.72,0.209,1.979,0.254
				c1.73,0.3,3.431,0.89,4.963,1.739c1.524,0.843,2.877,1.994,4.118,3.222c0.18,0.178,1.145,1.237,1.25,1.157
				c0.315-0.235,0.808-0.436,1.123-0.672c-2.874-3.842-8.491-7.089-13.388-6.911"/>
		</g>
	</g>
	<g>
		<g>
			<path fill="#25242B" d="M206.238,30.958c-15.657,2.164-27.442,16.55-30.147,31.7c1.081,0.193,1.419,0.66,1.663-0.514
				c0.257-1.25,1.048-2.39,1.438-3.605c0.91-2.833,2.155-5.553,3.627-8.137c3.482-6.121,8.555-11.345,14.978-14.371
				c13.955-6.576,34.691-3.466,43.262,10.142c2.304,3.66,3.256,8.108,4.261,12.271c1.123,4.643,1.511,9.549,3.947,13.748
				c0.284-0.164,1.633-0.63,1.708-0.913c-0.845-1.454-1.572-2.911-1.976-4.538c-0.698-2.811-1.18-5.669-1.854-8.486
				c-1.347-5.631-3.098-11.049-6.824-15.594c-8.177-9.972-21.725-13.013-34.028-11.313"/>
		</g>
	</g>
	<g>
		<g>
			<path fill="#25242B" d="M237.092,40.094c0.18,0.18,0.584,0.773,0.821,0.804c0.492-0.491,1.211-0.838,1.919-0.578
				c1.218,0.453,2.019,1.942,2.523,3.034c0.655,1.424,1.13,2.957,1.487,4.481c0.113,0.488,0.199,0.991,0.236,1.492
				c0.158,0.129,1.084-0.07,1.31-0.088c-0.241-3.209-3.689-13.805-8.333-9.177"/>
		</g>
	</g>
	<g>
		<g>
			<path fill="#25242B" d="M239.726,40.396c0.447,0.526,1.146,1.892,1.757,1.435c1.096-0.815,2.265-1.489,3.619-1.572
				c3.145-0.192,6.406,0.954,9.125,2.403c5.992,3.194,11.126,7.972,14.318,14.036c1.77,3.361,3.398,7.158,3.369,10.98
				c-0.019,2.503-1.668,4.9-2.102,7.358c-0.602,3.396,0.156,7.35,0.672,10.793c0.576,3.837,3.032,6.25,5.724,8.996
				c0.662-0.652,0.346-0.484-0.362-1.248c-1.259-1.355-2.231-2.927-3.004-4.612c-1.43-3.121-1.946-6.526-1.54-9.881
				c0.327-2.706,1.078-5.366,1.551-8.05c0.658-3.719,0.742-7.68-0.478-11.235c-2.406-7.018-7.686-12.713-13.799-16.763
				c-5.069-3.358-13.081-7.071-18.612-2.37"/>
		</g>
	</g>
	<g>
		<g>
			<path fill="#25242B" d="M246.284,46.316c0.001,1.141-0.305,1.381,0.772,1.608c0.948,0.199,1.96,0.616,2.568,1.351
				c1.651,1.997,2.064,4.981,2.53,7.465c1.193,6.344,0.837,12.801,1.193,19.214c0.348,6.257,3.819,12.731,9.249,16.032
				c2.652,1.613,5.608,2.541,8.696,2.428c2.809-0.102,6.29-1.043,7.885-3.649c-0.363-0.222-0.411-0.69-0.774-0.913
				c-0.456-0.279-0.593,0.744-0.954,1.065c-1.004,0.888-2.446,1.522-3.736,1.782c-3.165,0.638-6.502-0.05-9.384-1.528
				c-5.454-2.798-8.691-9.121-9.053-15.136c-0.38-6.306-0.176-12.646-1.257-18.897c-0.703-4.067-2.452-10.945-7.744-10.934"/>
		</g>
	</g>
	<g>
		<g>
			<path fill="#25242B" d="M243.757,47.799c1.96,0.972,4.16,1.378,6.304,1.733c0.295,0.048,2.041,0.556,2.295,0.341
				c0.168-0.143,0.177-0.911,0.213-1.147c-1.716-0.26-3.407-0.614-5.094-1.031c-1.074-0.265-2.139-0.601-3.131-1.094
				c-0.201,0.083-0.472,0.966-0.578,1.179"/>
		</g>
	</g>
	<g>
		<g>
			<path fill="#25242B" d="M267.688,80.592c0.413,3.53,1.915,6.914,5.171,8.597c2.727,1.41,5.96,1.455,8.971,1.335
				c-0.029-0.76,0.26-1.373-0.591-1.353c-1.166,0.026-2.32,0.045-3.478-0.095c-1.818-0.22-3.682-0.602-5.207-1.647
				c-1.359-0.933-2.311-2.306-2.898-3.838c-0.334-0.873-0.602-1.777-0.735-2.702c-0.102-0.711-0.55-0.37-1.186-0.295"/>
		</g>
	</g>
	<g>
		<g>
			<path fill="#25242B" d="M247.278,68.625c1.117,3.131,2.915,7.285,6.263,8.555c0.48-1.262,0.515-1.105-0.539-1.862
				c-1.066-0.766-1.909-1.81-2.578-2.924c-0.64-1.064-1.205-2.178-1.661-3.331c-0.416-1.053-0.515-0.806-1.55-0.437"/>
		</g>
	</g>
	<g>
		<g>
			<path fill="#25242B" d="M182.475,84.83c2.155,1.929,4.709,3.257,7.521,3.916c1.478,0.346,2.965,0.726,4.482,0.736
				c1.05,0.007,3.513,0.273,3.618-0.956c0.016-0.176,0.278-0.931,0.189-1.092c-0.765-0.25-1.648-0.254-2.388-0.574
				c-1.315-0.57-2.66-1.212-3.815-2.067c-0.953-0.708-1.576-1.796-2.247-2.781c-0.633-0.936-0.856-0.365-1.822,0.143
				c1.372,2.607,3.848,4.437,6.442,5.68c-5.27-0.053-10.465-2.299-13.493-6.715c-1.415-2.061-2.122-4.521-2.529-6.982
				c-0.21-1.274-0.209-2.547-0.184-3.838c0.014-0.736-1.108-0.453-1.751-0.478c-0.204,5.613,1.524,11.406,5.787,15.223"/>
		</g>
	</g>
	<g>
		<g>
			<path fill="#25242B" d="M189.774,74.36c-0.394,0.02-0.696-0.063-1.09-0.043c2.278,3.112,5.008,5.196,8.552,6.69
				c-2.363-0.25-4.81-0.695-6.911-1.858c-1.003-0.555-1.826-1.414-2.389-2.427c-0.53-0.952-0.504-0.685-1.543-0.337
				c1.54,4.599,7.613,5.64,11.775,5.957c0.969,0.073,1.942-0.025,2.913-0.025c0.409,0,0.237-0.13,0.296-0.51
				c0.134-0.852-0.095-0.632-0.925-0.927c-3.307-1.179-6.766-2.749-9.224-5.336c2.896-0.008,5.843,0.336,8.732,0.528
				c0.01-0.175,0.122-1.233,0.01-1.239c-0.764-0.051-1.529-0.134-2.293-0.185c-2.632-0.177-5.257-0.346-7.897-0.212"/>
		</g>
	</g>
	<g>
		<g>
			<path fill="#25242B" d="M172.002,71.416c0.264,3.072,2.069,5.478,4.78,6.87c0.134-0.262,0.757-1.069,0.69-1.329
				c-1.168-0.602-2.159-1.489-2.88-2.599c-1.362-2.097-1.198-4.669-0.53-6.982c0.757-2.616,2.182-4.996,3.923-7.075
				c0.762-0.912,1.398-1.979,2.323-2.726c0.621-0.502-0.161-1.044-0.587-1.611c-4.444,3.347-8.23,9.701-7.738,15.452"/>
		</g>
	</g>
	<g>
		<g>
			<path fill="#25242B" d="M202.156,93.937c0.179,0.386,0.396,0.847,0.574,1.232c2.271-1.045,4.629-2.356,6.38-4.173
				c-0.284-0.274-0.517-0.571-0.801-0.844c-0.08-0.077-1.447,1.168-1.668,1.327c-1.382,0.99-2.902,1.804-4.444,2.513"/>
		</g>
	</g>
	<g>
		<g>
			<path fill="#25242B" d="M205.659,92.302c0.35,0.525,0.751,1.031,1.076,1.572c-0.257-0.08-1.655-0.835-1.666-0.824
				c-0.283,0.274-0.555,0.552-0.838,0.826c0.806,0.828,1.91,1.284,3.042,1.44c0.685,0.094,0.448-0.473,0.887-0.911
				c0.486-0.483-1.339-2.612-1.599-2.992c-0.298,0.303-0.613,0.559-0.911,0.861"/>
		</g>
	</g>
	<g>
		<g>
			<path fill="#25242B" d="M195.035,91.824c0.301,0.091,0.573,0.124,0.874,0.213c0.605,0.182,0.559-0.825,0.763-1.316
				c0.458-1.106,1.14-2.167,2.108-2.903c0.89-0.676,1.985-0.927,3.09-0.956c0.221-0.005,1.25,0.089,1.268-0.066
				c0.043-0.391,0.142-0.792,0.186-1.183c-4.47-0.502-7.112,2.166-8.325,6.205"/>
		</g>
	</g>
	<g>
		<g>
			<path fill="#25242B" d="M215.615,110.55c0.158,0.395,0.307,0.792,0.465,1.187c1.513-0.61,2.914-1.463,4.166-2.507
				c-0.372-0.444-0.626-1.164-1.138-0.754c-1.067,0.853-2.229,1.567-3.496,2.078"/>
		</g>
	</g>
	<g>
		<g>
			<path fill="#25242B" d="M235.872,109.15c0.1,0.794-0.167,1.226,0.693,1.193c1.521-0.062,3.024,0.287,4.379,0.938
				c1.215,0.583,2.343,1.339,3.449,2.103c1.074,0.743,0.883,0.621,1.574-0.362c-2.949-2.074-6.333-4.495-10.132-4.015"/>
		</g>
	</g>
</g>
<g>
	<g>
		<path fill="#F3BF99" d="M536.158,305.545c3.507-1.275,9.881-5.1,14.343-9.881s4.782-4.781,7.013-6.056
			c2.231-1.274,2.549-2.869,3.506-2.55c0.957,0.318,4.779,3.188,6.055,6.693c1.275,3.507-0.317,5.418-0.636,7.012
			c-0.319,1.593-0.64,1.593-0.64,3.506s-0.955,5.101-3.822,8.606c-2.871,3.506-4.463,2.231-9.882,8.285
			c-5.419,6.058-6.693,7.65-8.924,7.969c-2.231,0.319-2.231,0.319-2.231,0.319L536.158,305.545z"/>
		<path fill="#D0D2D8" d="M173.13,331.999c-10.949-0.115-45.067-5.887-51.547,5.165c13.467,3.771,30.167,1.247,44.583,1.209
			c13.181-0.033,22.273,5.019,35.441,5.197c-12.864,19.148,12.567,15.689,28.486,16.462c21.088,1.021,42.246,1.496,63.434,2.549
			c30.922,1.536,84.804,12.431,114.348-1.275c-6.418-5.438-17.233-2.766-23.229-8.161c18.732-1.816,34.859-0.871,52.879,1.66
			c24.554,3.449,47.138-2.542,71.488-3.856c18.087-0.978,49.425,1.154,63.887-7.514c-5.934-5.462-15.982-7.013-20.416-11.469
			c1.208-0.774,2.686-1.148,3.828-1.847c-0.019-0.02-0.133-1.871-0.157-1.85c-72.341-2.703-144.419-7.243-216.625-14.275
			c-39.649-3.861-82.906-5.354-122.407,0.096c-16.954,2.337-32.818,10.67-49.729,12.171"/>
		<path fill="#F3BF99" d="M514.166,301.083c2.869-1.594,10.519-7.65,15.619-8.605c5.099-0.957,10.197-5.101,11.154-6.693
			c0.957-1.595,3.188-5.737,3.188-5.737l3.506,1.911l1.274-2.23c0,0,3.825,3.188,0.638,7.331c-3.187,4.143-3.824,5.737-4.144,7.969
			c-0.318,2.231-3.824,5.418-8.923,7.649c-5.102,2.23-22.313,5.737-22.313,5.737V301.083z"/>
		<path fill="#486788" d="M449.465,303.952c-8.574-2.782,16.574-4.145,27.092-4.782c10.519-0.637,7.331,0.638,10.836,2.551
			c3.507,1.911,6.693,0.636,8.607-0.638c1.911-1.275,13.066-2.231,15.936-2.231s2.869,0,2.869,0s0.636,5.101,0.955,8.605
			C516.08,310.963,461.259,307.775,449.465,303.952z"/>
		<path fill="#486A91" d="M536.479,302.677c0,0-16.894,2.868-27.412,3.187c-10.518,0.319-9.88-0.638-21.354-0.638
			s-13.386-0.318-26.771-2.869c-13.387-2.549-26.455-7.648-31.556-7.648c-5.098,0-10.836,0-18.167,0
			c-7.33,0-12.111-2.55-25.816-4.143c-13.704-1.595-24.86-6.058-33.147-7.012c-8.287-0.956-19.761-1.913-24.542-2.231
			c-4.782-0.319-6.374-0.319-7.649-0.319c-1.275,0-7.649,0.319-7.649,0.319s0.956,6.374,0.637,16.572
			c-0.319,10.2,0,12.751,1.275,20.399c1.275,7.649,1.275,8.925,1.275,8.925l8.925,14.342c0,0,43.028,7.013,60.558,5.1
			c17.53-1.912,25.498,0.638,34.741,1.593c9.242,0.957,29.004,0.639,45.896,0c16.893-0.636,27.41-0.955,44.621-1.911
			c17.212-0.956,25.497-0.956,25.497-0.956s5.101-5.1,7.013-7.649s1.912-2.55,1.912-2.55s0.319-4.144-1.593-11.794
			c-1.913-7.649,0-10.517-0.957-14.343C541.258,305.226,537.752,302.356,536.479,302.677z"/>
		<path fill="#365773" d="M324.525,328.175c7.089,4.048,16.303,3.842,24.252,5.416c10.454,2.069,21.505,4.022,32.19,6.065
			c16.211,3.099,33.524,4.454,50.041,4.454c23.304,0,46.227,2.175,68.816-2.249c12.492-2.446,26.224-0.233,38.892-1.24
			c0.484-0.039,1.033-0.285,1.584-0.335l-2.867,4.144c0,0-19.762,2.23-32.829,2.23s-33.147,1.913-50.997,1.913
			c-17.848,0-34.103-0.639-40.477-1.275c-6.375-0.638-10.518-1.594-15.3-1.594c-4.78,0-15.618,0.638-15.618,0.638
			s-14.022,0-34.421-0.956C327.393,344.43,324.525,328.175,324.525,328.175z"/>
		<path fill="#F3BF99" d="M312.731,282.598c-7.331-1.275-9.88-2.87-28.367-1.914c-18.486,0.957-20.398-0.956-31.554-0.956
			s-18.805,2.23-25.179,5.1s-9.881,7.013-14.662,5.738c-4.781-1.275-10.199-3.507-14.023-3.507c-3.825,0-5.418-1.912-6.375-6.692
			c-0.956-4.781-2.55-7.649-6.693-6.376c-4.143,1.274-4.462-1.273-6.374-0.956c-1.913,0.319-2.55,0.956-3.506,0.956
			c-0.957,0-2.55,1.595-4.462,0c-1.913-1.593-4.144-5.1-5.1-2.23c-0.956,2.869-2.868,6.693-9.562,7.968
			c-6.693,1.275-7.968,0.956-11.155,3.188s-4.462,7.012-3.825,12.112c0.637,5.099,15.618,23.267,17.211,24.223
			c1.593,0.956,31.235,2.231,42.709,3.825c11.474,1.593,62.151,8.605,76.176,8.286c14.023-0.318,37.609-6.374,37.609-6.374
			s-1.912-5.737-2.231-21.355C313.051,288.016,312.731,282.598,312.731,282.598z"/>
		<path fill="#8F745F" d="M144.231,284.189c-3.672-0.18-7.205,0.483-9.767,2.939c1.586,0.021,3.295,0.176,4.886,0.021
			c-9.581,1.819-12.057,25.698-6.89,24.521c1.314,4.109,0.648,12.185,2.646,15.35c0.972-0.737,1.876-0.856,2.814-1.721
			c0.162,8.425,7.403,11.018,15.606,12.65c6.959,1.386,18.839,4.04,24.262-1.446c-0.222-0.194-0.589,0.06-0.814-0.238
			c0.007-0.013,0.021-1.098,0.055-1.046c3.919-0.069,6.357-2.115,5.683-6.164c4.782-1.246,15.375-5.345,11.665-12.093
			c-1.864-3.392-8.731-5.614-11.854-3.045c0.027-0.823-0.437-1.597-0.454-2.29c-5.6-0.172-10.231,4.578-15.995,3.842
			c-5.365-0.688-6.525-1.476-6.544-6.634c-0.013-3.158,1.62-2.26-0.521-5.357c-1.761-2.549-6.799-4.568-9.422-6.337
			c-4.788-3.227-5.794-4.989-5.779-10.676c0.001-0.547,0-1.091,0-1.638"/>
		<path fill="#6F7E8F" d="M359.054,339.862l4.039,23.16c0,0-12.539,4.035-26.351,3.398c-13.811-0.638-21.248-0.849-23.16-0.849
			s-19.549-0.638-23.374-1.275c-3.825-0.637-11.474-4.037-11.474-4.037s-3.826,0.425-11.049,0.213
			c-7.223-0.213-14.661-0.426-23.373-2.551s-17.636-4.887-19.761-7.012c-2.125-2.126-5.95-2.55-8.924-3.823
			c-2.974-1.275-6.375-3.826-6.375-3.826s-6.585-7.648-1.7-18.273c4.887-10.625,39.946-13.387,47.384-12.749
			c7.438,0.638,19.761,2.976,33.36,6.162c13.599,3.188,33.362,11.474,38.885,14.235c5.523,2.762,3.186,2.337,9.985,5.313
			s5.95,2.976,12.111,2.338C355.442,339.648,359.054,339.862,359.054,339.862z"/>
		<path fill="#8091A7" d="M340.356,343.261l8.072-2.55c-4.249-2.125-6.799-3.826-11.262-5.524
			c-4.462-1.699-7.011-4.675-11.686-7.437c-4.675-2.763-10.624-4.463-18.486-7.014c-7.862-2.549-20.824-10.411-36.547-14.873
			c-15.724-4.462-27.834-7.438-36.76-7.649c-8.924-0.212-21.247-0.425-27.411,4.675c-6.163,5.101-8.075,6.586-11.05,15.086
			c-2.973,8.501-3.399,14.237-3.399,14.874c0,0.639,0.851,2.975,3.612,3.825c2.762,0.85,4.675,2.125,4.675,2.125
			s-2.124,5.949-2.124,8.18c0,2.231,2.55,4.463,3.506,4.145c0.956-0.319,4.462-4.145,5.737-5.419s1.275-1.274,1.275-1.274
			s1.912-4.144,1.912-12.749s7.649-13.387,15.299-14.342c7.649-0.957,25.816-0.957,25.816-0.957s2.869,3.188,12.749,5.1
			c9.881,1.911,15.937,4.781,15.937,4.781s3.506-3.188,6.693,1.274c3.188,4.462,8.606,4.78,16.255,6.693
			c7.649,1.911,11.155,1.593,16.573,2.231c5.418,0.636,9.881,4.143,9.881,4.143s4.147-1.077,6.058-0.956
			C339.081,339.86,340.356,343.261,340.356,343.261z"/>
		<path fill="#F3BF99" d="M359.267,341.136c5.616-1.184,8.072,1.489,13.599,1.489c5.525,0,9.987,0,11.688,1.698
			c1.699,1.699-1.063,5.101-1.063,5.101s2.125-0.001,5.1-0.851c2.974-0.85,5.099-1.275,6.586-0.213
			c1.488,1.063,1.488,1.063,1.488,1.063s1.487,0.425,2.125,1.911c0.638,1.488,0.638,2.125,0.638,2.125l-1.912,0.851
			c0,0,0.637,2.336,0.425,3.187c0,0-4.462,0.851-9.35,2.763c-4.888,1.911-9.773,3.824-14.662,3.4
			c-4.888-0.426-10.835-0.638-10.835-0.638s-4.252-1.913-6.588-7.438S355.23,341.985,359.267,341.136z"/>
		<path fill="#596673" d="M249.413,316.273c9.349,0.215,18.911,0.852,24.436,2.551c5.524,1.701,7.012,2.551,7.012,2.551
			s11.685,4.888,17.636,5.735c5.95,0.853,21.249,2.551,26.135,5.952c4.889,3.399,7.014,6.374,7.014,6.374l-2.021,1.168
			c0,0-2.232-3.933-9.88-4.143c-7.648-0.213-20.61-2.762-25.71-4.675c-5.1-1.913-6.374-4.677-8.499-5.951
			c-2.125-1.274-4.249,0.427-4.249,0.427s-11.898-3.826-14.874-4.462c-2.976-0.64-10.199-1.914-10.837-2.551
			C254.938,318.612,249.413,316.273,249.413,316.273z"/>
		<path fill="#596673" d="M210.74,335.823c2.359,4.134,14.935,8.552,19.219,10.643c12.19,5.956,23.375,6.641,36.154,8.092
			c6.778,0.769,11.035,4.055,17.513,5.808c9.521,2.576,20.367,1.636,30.221,3.745c2.393,0.514,4.788,0.722,7.082,1.267
			c-29.233,1.044-35.844-3.804-53.733-4.445c-11.432-0.411-23.688-2.364-34.463-5.983c-4.096-1.376-6.878-3.279-10.446-5.24
			c-2.53-1.391-8.453-2.905-10.526-4.642c-2.3-1.923-4.396-2.347-1.656-6.374"/>
	</g>
	<g>
		<g>
			<g>
				<path fill="#25242B" d="M179.712,273.04c0.823,1.853,2.56,2.588,4.439,2.398c1.711-0.173,4.484-1.677,5.758-0.039
					c1.381,1.776,0.782,4.617,1.278,6.711c0.545,2.313,2.134,4.519,4.319,5.523c1.917,0.882,4.136,0.687,6.18,0.938
					c1.533,0.189,2.898,0.764,4.354,1.249c4.163,1.387,8.242,2.56,12.702,2.136c-0.052-0.555-0.407-1.314-0.46-1.869
					c-0.039-0.411-2.347,0.171-2.912,0.137c-2.692-0.154-5.11-1.611-7.636-2.497c-1.123-0.384-2.296-0.629-3.421-1.007
					c-2.385-0.792-4.944-0.428-7.297-1.244c-5.824-2.025-2.2-9.804-7.115-12.344c-2.323-1.201-4.838,0.633-7.221,0.258
					c-0.274-0.045-1.489-1.014-1.34-1.081c-0.563,0.249-0.97,0.472-1.532,0.724"/>
			</g>
		</g>
		<g>
			<g>
				<path fill="#25242B" d="M279.978,280.183c-10.041,1.151-19.998-1.099-30.016-1.099c-7.288,0-14.593,1.632-21.324,4.255
					c-3.223,1.257-6.529,2.395-9.678,3.824c-0.418,0.188-2.504,1.685-2.697,2.178c-0.105,0.267,0.675,1.849,0.808,2.144
					c8.957-4.083,17.911-9.029,27.77-10.342c5.381-0.717,10.866,0.668,16.258,1.044c5.386,0.373,10.808-0.399,16.201-0.787
					c5.179-0.372,10.309,0.175,15.516,0.194c7.253,0.026,14.239-0.15,21.199,1.64c0.042-0.229,0.073-0.388-0.034-0.415
					c-0.923-0.238-1.591-1.473-2.517-1.711c-2.092-0.54-4.186-1.085-6.314-1.493C296.816,278.027,288.36,279.222,279.978,280.183"/>
			</g>
		</g>
		<g>
			<g>
				<path fill="#25242B" d="M164.23,273.524c-1.155,2.208-2.361,3.843-4.826,4.658c-1.778,0.589-3.589,0.628-5.424,0.86
					c-4.044,0.511-7.773,2.553-11.066,4.84c0.212,0.306,0.486,0.818,0.699,1.125c0.449,0.642,0.322,0.693,1.079,0.18
					c1.522-1.033,3.027-2.176,4.698-2.951c1.976-0.914,4.1-1.11,6.264-1.269c3.5-0.261,7.078-0.992,9.186-4.043
					c0.979-1.417,1.447-3.149,2.396-4.586c0.424-0.638,1.017-0.837,0.396-1.369c-0.359-0.308-0.865-0.786-1.222-1.094
					c-0.904,1.055-1.421,2.487-2.062,3.712"/>
			</g>
		</g>
		<g>
			<g>
				<path fill="#25242B" d="M167.227,269.946c0.036,0.637-0.184,1.357,0.446,1.481c1.189,0.24,1.908,1.864,2.649,2.697
					c2.177,2.443,4.766,1.814,6.949-0.283c-0.212-0.223-0.822-1.086-1.106-1.119c-0.764,0.733-2.09,1.877-3.263,1.442
					c-2.302-0.849-2.783-4.389-5.692-4.224"/>
			</g>
		</g>
		<g>
			<g>
				<path fill="#25242B" d="M179.808,272.847c-0.546,0.267-0.893,0.907-1.36,0.517c-0.461-0.384-1.045-0.619-1.624-0.771
					c-0.101,0.381-0.231,0.763-0.332,1.144c0.006-0.021,1.377,0.785,1.551,1.034c0.457,0.648,0.675,1.503,0.991,2.224
					c0.125-0.628,0.15-1.375,0.394-1.965c0.177-0.884,1.275-1.341,1.963-1.831c-0.552-0.455-0.968-1.14-1.591-0.378"/>
			</g>
		</g>
		<g>
			<g>
				<path fill="#25242B" d="M175.243,304.868c0.914,2.127-0.748,3.536-2.051,5.004c-1.791,2.016-3.886,3.577-6.463,4.428
					c-2.175,0.717-4.966,0.879-6.138-1.557c-0.571-1.189-0.533-2.578-0.024-3.775c0.077-0.186,0.588-1.085,0.533-1.15
					c-0.257-0.3-0.377-0.536-0.634-0.835c-2.198,1.884-2.16,5.861-0.135,7.789c2.13,2.034,5.362,1.35,7.822,0.332
					c2.437-1.01,4.376-2.588,6.102-4.57c1.616-1.854,3.396-3.575,2.265-6.217c-0.391,0.168-0.917,0.369-1.307,0.536"/>
			</g>
		</g>
		<g>
			<g>
				<path fill="#25242B" d="M228.997,314.76c-3.94,1.185-7.849,2.629-11.316,4.846c-3.429,2.195-6.748,5.261-7.433,9.513
					c-0.471,2.918,0.016,5.769,0.079,8.684c0.058,2.549-1,4.837-2.391,6.96c-1.364,2.084-3.153,3.781-5.16,5.241
					c-0.962,0.702-1.788,1.62-2.839,2.184c-0.684,0.367-0.213,0.66,0.104,1.275c3.996-2.048,7.491-5.326,9.599-9.353
					c1.754-3.351,1.524-6.528,1.14-10.188c-0.362-3.439,0.256-6.484,2.542-9.197c3.68-4.367,9.707-6.565,15.021-8.321
					c3.511-1.16,7.031-2.407,10.71-2.796c1.632-0.171,3.283-0.715,4.923-0.665c0.28,0.011,2.528,0.669,2.543,0.518
					c0.038-0.393-0.312-1.224-0.274-1.614c-5.847-0.565-11.627,1.335-17.217,3.019"/>
			</g>
		</g>
		<g>
			<g>
				<path fill="#25242B" d="M200.416,325.957c0.131,5.923-0.692,12.358-2.158,18.109c-0.398,1.564-1.323,3.974-0.785,5.592
					c0.929,2.808,4.952,3.024,7.246,2.207c-0.418-1.177-0.205-1.209-1.455-1.014c-1.4,0.22-3.091-0.88-4.159-1.959
					c-1.164-1.178,0.242-3.094,0.598-4.506c1.477-5.856,1.873-12.405,1.739-18.437c-0.425,0.008-0.644-0.001-1.068,0.007"/>
			</g>
		</g>
		<g>
			<g>
				<path fill="#25242B" d="M200.04,309.39c-3.228,3.715-5.817,7.108-6.857,12.021c-0.693,3.281-1.449,6.721-1.75,10.068
					c-0.243,2.715,0.536,3.991,3.017,5.193c0.986,0.479,1.788,1.336,2.768,1.826c1.172,0.587,1.269,0.373,1.92-0.784
					c-1.706-0.854-3.812-1.584-5.384-2.666c-2.069-1.422-0.558-5.054-0.279-7.053c0.587-4.2,0.483-8.788,2.73-12.498
					c1.747-2.886,4.458-5.202,6.641-7.765c-0.482-0.393-0.932-1.123-1.388-0.588c-0.567,0.666-0.966,1.479-1.534,2.145"/>
			</g>
		</g>
		<g>
			<g>
				<path fill="#25242B" d="M191.418,315.822c1.328,0.92,2.661,1.842,4.004,2.74c0.117-0.202,0.67-0.924,0.625-1.133
					c-0.053-0.248-1.119-0.814-1.33-0.958c-0.867-0.581-1.744-1.131-2.602-1.725c-0.23,0.358-0.448,0.702-0.678,1.06"/>
			</g>
		</g>
		<g>
			<g>
				<path fill="#25242B" d="M143.473,288.336c0.015,2.286,0.284,4.674,1.934,6.398c1.306,1.364,2.969,2.295,4.611,3.164
					c2.124,1.121,4.222,2.184,6.059,3.759c1.272,1.091,2.544,2.22,3.6,3.521c0.157,0.196,0.88,1.511,1.012,1.412
					c0.317-0.231,0.66-0.375,0.978-0.609c-3.133-4.274-7.031-7.006-11.657-9.45c-1.625-0.859-3.338-1.819-4.338-3.461
					c-0.594-0.968-0.742-2.08-0.842-3.198c-0.021-0.239-0.158-1.424-0.319-1.422c-0.393,0.001-0.91-0.123-1.303-0.12"/>
			</g>
		</g>
		<g>
			<g>
				<path fill="#25242B" d="M155.384,303.669c1.015,1.533,2.411,2.751,3.674,4.075c1.011,1.061,0.799,1.194,1.915,0.237
					c-0.619-0.651-1.202-1.271-1.829-1.917c-0.834-0.83-1.693-1.655-2.395-2.603c-0.525-0.709-0.646-0.245-1.317,0.197"/>
			</g>
		</g>
		<g>
			<g>
				<path fill="#25242B" d="M157.357,308.624c0.853,0.546,1.713,1.08,2.566,1.624c1.049,0.669,0.856,0.597,1.592-0.433
					c-1.184-0.754-2.342-1.482-3.527-2.236c-0.217,0.365-0.428,0.695-0.646,1.06"/>
			</g>
		</g>
		<g>
			<g>
				<path fill="#25242B" d="M182.236,311.093c-3.274,0.485-6.027,2.537-9.083,3.688c-1.452,0.546-3.046,0.595-4.599,0.689
					c-0.26,0.019-1.886,0.089-1.896,0.214c-0.035,0.392-0.049,0.567-0.083,0.96c5.426,0.475,9.686-2.708,14.76-3.887
					c-0.075,0.239-0.904,1.945-0.843,2.01c0.402,0.425,0.809,0.849,1.336,0.516c1.358-0.858,2.986-1.436,4.569-1.528
					c1.701-0.096,3.409,0.46,5.021,1.032c0.757,0.268,1.669,0.254,2.287,0.771c0.23-0.048,0.644-0.688,0.806-0.881
					c-3.075-2.574-8.489-2.817-12.077-1.388c0.247-0.775,0.457-1.318,0.731-2.087c-0.343,0.036-0.53,0.239-0.874,0.273"/>
			</g>
		</g>
		<g>
			<g>
				<path fill="#25242B" d="M137.027,285.556c-0.777,0.487-1.468,1.058-2.245,1.544c0.591,0.164,1.188,0.351,1.778,0.517
					c-1.047,0.45-2.067,0.99-2.973,1.685c0.15,0.198,0.486,0.894,0.713,0.946c0.966-0.738,2.044-1.348,3.18-1.783
					c1.049-0.4,2.136-0.625,3.216-0.929c-0.958-0.3-1.827-0.595-2.787-0.889c1.119-0.723,2.295-1.593,3.668-1.676
					c1.283-0.079,1.023,0.244,1.411-1.031c-2.181-0.663-4.191,0.49-5.954,1.63"/>
			</g>
		</g>
		<g>
			<g>
				<path fill="#25242B" d="M130.332,311.88c0.218,0.442,0.565,0.727,0.783,1.168c0.152-0.186,0.273-0.244,0.425-0.43
					c0.241,2.068,0.587,4.097,1.474,6c0.324-0.149,1.712-0.502,1.844-0.804c-0.804-1.726-1.332-3.57-1.549-5.444
					c-0.17-1.474-0.218-3.01-0.393-4.48c-0.436,0.537-0.772,1.042-1.208,1.582c-1.112-3.681-1.228-7.903-0.229-11.601
					c0.424-1.572,1.169-3.108,2.355-4.269c0.551-0.54-0.614-1.445-1.062-1.991c-2.746,2.261-3.748,6.444-4.029,9.807
					c-0.285,3.402-0.139,7.438,1.399,10.556"/>
			</g>
		</g>
		<g>
			<g>
				<path fill="#25242B" d="M136.067,326.869c0.288,0.679,0.443,1.564,0.731,2.241c0.217-0.736,0.353-1.563,0.572-2.301
					c1.469,2.59,3.25,4.888,5.388,6.96c0.241-0.459,0.341-0.782,0.583-1.24c1.357,2.214,3.008,4.479,5.025,6.16
					c0.272-0.327,0.538-0.472,0.811-0.799c0.342-0.408-0.282-0.615-0.6-0.962c-0.946-1.025-1.76-2.187-2.531-3.348
					c-0.959-1.438-1.797-2.952-2.658-4.451c-0.341,0.651-0.611,1.205-0.952,1.857c-2.226-2.553-3.754-5.515-5.235-8.535
					c-0.122,0.396-0.421,0.892-0.543,1.288c-0.221-1.363-0.283-2.755-0.242-4.135c0.023-0.821-0.669-0.472-1.388-0.499
					c-0.103,2.646-0.094,5.323,0.959,7.797"/>
			</g>
		</g>
		<g>
			<g>
				<path fill="#25242B" d="M182.527,328.659c-0.817,0.466-1.323,1.326-2.14,1.79c0.689,0.124,0.988,0.112,1.676,0.234
					c-1.736,2.563-4.856,3.196-7.685,3.873c0.476,0.338,1.173,1.133,1.648,1.47c-2.159,0.782-4.33,0.801-6.469,1.778
					c-2.145,0.98-4.072,1.119-6.477,0.918c-2.366-0.197-4.619-0.803-6.917-1.34c-1.114-0.263-2.278-0.224-3.42-0.305
					c-0.806-0.057-0.395-0.372-0.789,0.219c-1.832-0.935-3.624-1.707-5.364-2.813c-0.168-0.105-1.802-1.303-1.812-1.298
					c-0.554,0.267-0.522,0.778-1.076,1.047c1.001,2.064,3.926,2.9,5.831,3.837c1.206,0.594,2.188,1.734,3.382,2.344
					c0.175-0.419,0.382-0.937,0.531-1.363c1.603,0.198,3.212,0.384,4.774,0.789c3.042,0.786,6.262,1.522,9.329,0.462
					c1.297-0.45,2.502-1.097,3.786-1.582c1.384-0.521,2.884-0.255,4.294-0.65c1.458-0.41,2.705-1.198,4.051-1.87
					c-0.299-0.215-0.729-0.69-1.029-0.904c2.217-0.924,5.135-2.173,5.904-4.622c0.376-1.202,1.761-1.837,2.833-2.484
					c1.61-0.976,3.367-1.739,4.847-2.904c-0.292-0.371-0.994-0.462-1.288-0.832c-0.575-0.731-0.72,0.163-1.354,0.61
					c-2.157,1.518-4.728,2.38-7.016,3.686"/>
			</g>
		</g>
		<g>
			<g>
				<path fill="#25242B" d="M166.626,305.701c-0.409-0.198-0.821-0.411-1.23-0.607c-0.083,0.209-0.567,1.021-0.49,1.211
					c0.094,0.23,1.181,0.503,1.449,0.64c1.866,0.964,3.319,0.625,4.435-1.23c-1.063-0.639-0.797-0.705-1.635,0.171
					c-0.777,0.811-1.682,0.209-2.507-0.228"/>
			</g>
		</g>
		<g>
			<g>
				<path fill="#25242B" d="M162.524,311.353c0.774,1.767,3.247,1.859,4.873,1.821c-0.019-0.816,0.286-1.234-0.613-1.253
					c-0.921-0.017-2.374-0.047-3.014-0.85c-0.671-0.843,0.271-2.216,0.777-2.863c0.887-1.135,0.98-0.873-0.001-1.824
					c-1.142,1.185-2.853,3.188-2.063,4.987"/>
			</g>
		</g>
		<g>
			<g>
				<path fill="#25242B" d="M169.632,308.018c-0.49,0.559-1.015,1.209-1.773,1.395c-1.161,0.284-1.118-0.495-1.725-1.231
					c-0.661-0.731-0.558-0.567-1.548-0.153c0.463,0.697,1.096,1.398,1.186,2.25c0.094,0.909,2.608,0.348,3.156,0.043
					c0.844-0.469,1.43-1.256,2.087-1.943c0.636-0.665,0.196-0.727-0.38-1.386c-0.333,0.349-0.618,0.724-0.951,1.071"/>
			</g>
		</g>
		<g>
			<g>
				<path fill="#25242B" d="M161.096,282.835c0.304,1.403,0.416,2.874,0.239,4.302c-0.104,0.849,0.374,0.629,1.144,0.771
					c0.327-1.759,0.199-3.579-0.176-5.325c-0.417,0.091-0.803,0.165-1.219,0.255"/>
			</g>
		</g>
		<g>
			<g>
				<path fill="#25242B" d="M178.216,274.428c0.008,0.752-0.008,1.503,0.001,2.254c0.007,0.71,0.64,0.403,1.269,0.403
					c-0.009-0.75,0.013-1.488,0.004-2.24c-0.008-0.71-0.663-0.411-1.293-0.411"/>
			</g>
		</g>
		<g>
			<g>
				<path fill="#25242B" d="M156.929,288.39c0.186-0.144,0.942-0.538,0.981-0.748c-0.605-0.796-0.984-1.771-1.171-2.752
					c-0.167-0.864-0.168-1.857,0.327-2.626c-0.107-0.245-0.83-0.521-1.065-0.673c-1.324,2.049-0.472,5.037,0.893,6.827"/>
			</g>
		</g>
		<g>
			<g>
				<path fill="#25242B" d="M159.503,283.321c-0.064,0.421-0.116,0.817-0.18,1.236c0.938,0.143,1.928-0.05,2.781-0.441
					c-0.163-0.358-0.353-0.707-0.517-1.064c-0.001-0.003-1.769,0.323-2.087,0.274"/>
			</g>
		</g>
		<g>
			<g>
				<path fill="#25242B" d="M310.644,281.547c2.062,6.378,1.634,13.339,1.473,19.944c-0.194,7.754,0.554,15.279,2.391,22.835
					c0.415-0.101,0.781-0.399,1.193-0.5c0.641-0.157,0.243-1.399,0.124-1.929c-0.442-2.008-1.255-3.953-1.531-5.993
					c-0.521-3.877-0.283-7.81-0.235-11.721c0.094-7.666,1.084-15.923-1.313-23.341c-0.506,0.163-1.096,0.4-1.602,0.563"/>
			</g>
		</g>
		<g>
			<g>
				<path fill="#25242B" d="M311.644,280.328c0.009,0.394,0.08,0.823,0.087,1.216c0.002,0.047,2.628,0.373,2.988,0.441
					c1.009,0.195,2.043,0.344,3.059,0.514c0.14-1.306,0.264-1.28-1.037-1.496c-1.685-0.284-3.367-0.699-5.085-0.66"/>
			</g>
		</g>
		<g>
			<g>
				<path fill="#25242B" d="M315.997,281.491c0.16,0.443,1.118,1.212,1.279,1.653c0.318,0.883,0.604-0.206,1.364-0.407
					c2.603-0.694,5.429-0.232,8.115-0.14c3.134,0.106,6.175,0.716,9.296,1.001c8.54,0.778,17.364,0.442,25.708,2.538
					c5.438,1.365,10.62,3.115,16.171,4.056c5.435,0.922,11.763,1.5,17.192,2.444c5.455,0.948,9.806,3.098,15.334,3.589
					c4.34,0.386,8.598-0.409,12.938-0.572c1.859-0.07,3.726,0.017,5.586-0.055c0.233-0.009,1.5,0.987,1.681,0.818
					c0.198-0.183-0.229-0.738-0.232-1.048c-6.064,0.229-12.174-0.844-18.23-1.18c-5.596-0.312-10.699-2.414-16.171-3.434
					c-5.423-1.012-11.047-0.899-16.494-1.77c-5.538-0.884-11.975-2.738-17.364-4.195c-5.167-1.396-7.363-2.044-12.68-2.609
					c-6.403-0.679-14.795-0.891-21.226-1.293c-4.083-0.254-8.535-1.326-12.411,0.074"/>
			</g>
		</g>
		<g>
			<g>
				<path fill="#25242B" d="M423.344,294.979c11.333,1.034,21.71,5.841,32.957,7.359c5.391,0.728,10.592,2.83,15.979,3.571
					c5.427,0.749,11.043,1.76,16.494,1.048c3.999-0.523,7.53-0.18,11.47,0.426c6.77,1.037,14.233-0.755,21.012-1.505
					c6.44-0.711,12.808-2.23,19.22-3.173c-0.069-0.469-0.449-1.04-0.519-1.506c-0.132-0.907-0.862-0.625-1.616-0.519
					c-2.617,0.376-5.094,1.832-7.718,2.171c-4.848,0.616-9.792,0.605-14.621,1.345c-3.011,0.459-6.202-0.293-9.227,0.038
					c-3.186,0.349-5.94-0.385-9.065-0.916c-2.346-0.397-4.964-0.545-7.348-0.346c-2.949,0.245-5.73,0.722-8.701,0.695
					c-5.196-0.048-10.155-0.87-15.278-1.631c-5.458-0.811-11.575-0.349-16.918-1.753c-8.778-2.304-16.855-5.86-25.977-6.692
					c-0.058,0.635-0.27,1.603-0.328,2.238"/>
			</g>
		</g>
		<g>
			<g>
				<path fill="#25242B" d="M533.652,301.083c2.493,1.605,5.239,3.107,6.777,5.754c2.267,3.895,0.121,8.654,0.908,12.855
					c0.751,3.998,2.642,7.737,3.203,11.771c0.267,1.916,0.485,3.883,0.088,5.776c-0.22,1.047-0.997,1.978-1.37,2.98
					c0.129,0.206,1.583,0.569,1.824,0.658c1.412-3.803,1.36-7.837,0.409-11.779c-1.033-4.293-2.912-8.414-2.699-12.914
					c0.218-4.602,0.693-8.787-3.004-12.271c-1.305-1.227-2.554-2.503-4.055-3.47c-1.187-0.766-0.838-0.547-1.625,0.639"/>
			</g>
		</g>
		<g>
			<g>
				<path fill="#25242B" d="M542.098,337.904c-1.467,1.886-3.051,3.69-4.772,5.352c-0.812,0.782-1.66,1.53-2.612,2.133
					c-0.715,0.455-0.249,0.613,0.133,1.279c3.022-1.74,5.271-4.452,7.39-7.156c1.18-1.506,2.484-2.903,3.741-4.343
					c0.163-0.184,1.26-1.461,1.146-1.573c-0.279-0.277-0.691-0.599-0.971-0.875c-1.539,1.551-2.873,3.34-4.211,5.063"/>
			</g>
		</g>
		<g>
			<g>
				<path fill="#25242B" d="M495.682,346.448c-4.582,0.118-13.072-0.1-23.375,0.426c-16.233,0.826-32.014,1.978-48.244,0.545
					c-11.616-1.027-23.216-3.104-34.909-2.399c0.027,0.473-0.989,1.116-0.961,1.588c0.058,0.951,2.335,0.064,3.113,0.039
					c2.976-0.105,6.009-0.655,8.98-0.51c5.316,0.263,10.483,2.477,15.776,3.018c7.164,0.733,14.358,1.401,21.575,1.385
					c12.511-0.03,24.965-1.731,37.461-2.05c21.475-0.549,42.949-1.646,64.356-3.521c-0.03-0.359,0.163-1.717-0.075-1.947
					c-2.058,0.18-4.184,0.394-6.246,0.537c-4.152,0.289-8.279,0.765-12.438,0.942C512.167,344.866,504.216,346.27,495.682,346.448"
					/>
			</g>
		</g>
		<g>
			<g>
				<path fill="#25242B" d="M316.655,281.719c2.363,7.859,2.819,15.901,2.988,24.021c0.065,3.082,0.19,6.021,0.814,9.062
					c0.51,2.487,1.042,4.983,1.338,7.51c0.15,1.295,0.426,2.591,0.36,3.896c0.184,0.156,1.07,0.107,1.325,0.122
					c0.241-4.853-1.555-9.515-2.288-14.253c-0.381-2.457-0.434-4.912-0.486-7.392c-0.167-7.906,0.01-15.856-2.293-23.505
					c-0.407,0.122-0.719,0.244-1.128,0.367"/>
			</g>
		</g>
		<g>
			<g>
				<path fill="#25242B" d="M477.994,298.411c-2.925,0.385-5.851,0.172-8.8,0.313c-2.632,0.127-5.232,0.981-7.864,1.087
					c-2.04,0.084-4.093,0.299-6.136,0.32c-1.642,0.016-1.513,0.08-1.513,1.571c6.024,0,12.19-0.765,18.207-1.053
					c1.367-0.064,2.755-0.11,4.113-0.288c2.332-0.303,5.577-1.696,7.713-0.496c1.34,0.752,2.282,1.938,3.685,2.62
					c1.419,0.693,2.786,1.015,4.366,0.606c1.086-0.282,2.283-0.205,3.252-0.74c1.439-0.794,2.782-1.824,4.395-2.111
					c5.532-0.98,11.412,0.088,17.014-0.017c-0.026-0.968,0.227-1.974-0.82-1.955c-1.136,0.021-2.272-0.103-3.41-0.084
					c-4.359,0.071-8.746,0.322-13.049,1.105c-1.913,0.347-3.72,0.705-5.411,1.677c-1.332,0.768-2.659,1.905-4.247,1.477
					c-2.1-0.564-3.29-2.209-5.03-3.314c-2.043-1.299-4.21-1.019-6.449-0.642"/>
			</g>
		</g>
		<g>
			<g>
				<path fill="#25242B" d="M514.429,297.43c0.141,1.067,0.236,2.142,0.373,3.21c0.042,0.327,0.199,2.698,0.31,2.697
					c0.395-0.001,0.76-0.03,1.152-0.033c-0.01-1.602-0.248-3.169-0.459-4.751c-0.181-1.359-0.076-1.321-1.429-1.169"/>
			</g>
		</g>
		<g>
			<g>
				<path fill="#25242B" d="M544.619,283.393c-2.687,0.671-4.019,2.801-5.914,4.619c-2.071,1.988-4.672,2.902-7.313,3.841
					c-3.134,1.114-6.103,2.428-8.981,4.108c-1.351,0.786-2.778,1.428-4.098,2.27c-1.231,0.784-1.449,0.256-0.663,1.502
					c2.814-1.791,5.536-3.558,8.556-4.989c2.956-1.403,6.082-2.338,9.124-3.514c2.847-1.098,4.969-2.814,7.046-4.921
					c1.313-1.329,2.706-1.75,4.209-2.729c1.323-0.859,2.804-2.007,3.504-3.412c-1.085-0.54-1.494-0.761-2.137,0.226
					c-0.834,1.28-1.892,2.296-3.414,2.677"/>
			</g>
		</g>
		<g>
			<g>
				<path fill="#25242B" d="M548.095,280.592c1.811,0.307,2.647,2.553,2.205,4.179c-0.331,1.218-1.477,2.031-2.34,2.876
					c-1.102,1.076-2.016,2.251-2.528,3.718c-0.392,1.116-0.605,2.234-0.918,3.362c-0.403,1.447-1.251,2.739-2.331,3.712
					c-0.811,0.726-1.892,1.116-2.831,1.667c-0.505,0.296,0.149,0.95,0.378,1.406c1.913-0.956,3.641-2.611,4.968-4.264
					c1.671-2.08,1.288-4.7,2.672-6.912c1.436-2.295,4.366-3.527,4.366-6.572c0-1.976-1.42-3.916-3.474-4.232
					c-0.066,0.421-0.115,0.826-0.182,1.246"/>
			</g>
		</g>
		<g>
			<g>
				<path fill="#25242B" d="M543.618,281.141c-1.547,1.604-3.13,3.286-4.085,5.33c0.748,0.351,0.925,0.768,1.358-0.017
					c0.718-1.294,1.755-2.394,2.763-3.462c0.965-1.021,1.969-2.025,2.92-3.058c-0.506-0.42-0.795-1.012-1.29-0.476
					c-0.536,0.578-1.054,1.175-1.588,1.753"/>
			</g>
		</g>
		<g>
			<g>
				<path fill="#25242B" d="M543.528,280.773c0.836,0.279,1.681,0.531,2.515,0.809c0.892,0.298,0.771-0.128,1.103-0.975
					c-1.083-0.361-2.19-0.698-3.272-1.06c-0.114,0.409-0.246,0.805-0.36,1.216"/>
			</g>
		</g>
		<g>
			<g>
				<path fill="#25242B" d="M556.73,289.33c-4.017,1.824-6.526,5.377-9.744,8.234c-2.092,1.856-4.128,3.828-6.529,5.263
					c-1.095,0.655-2.188,1.312-3.355,1.832c-0.084,0.247,0.44,1.048,0.556,1.311c5.08-2.263,9.645-5.91,13.398-9.987
					c1.629-1.77,3.12-3.86,5.309-4.958c2.42-1.214,4.643-1.93,5.918-4.481c-0.287-0.144-0.708-0.57-0.997-0.715
					c-0.816-0.409-0.852,0.122-1.347,0.864c-0.833,1.25-1.884,2.007-3.22,2.613"/>
			</g>
		</g>
		<g>
			<g>
				<path fill="#25242B" d="M561.599,290.344c-2.504,1.312-5.903,2.92-6.216,6.11c1.143,0.111,1.006,0.279,1.402-0.754
					c0.521-1.346,1.855-2.274,3.039-3.001c1.563-0.962,3.189-1.811,4.789-2.719c-0.362-0.534-0.437-1.199-1.06-0.848
					c-0.665,0.377-1.298,0.813-1.965,1.19"/>
			</g>
		</g>
		<g>
			<g>
				<path fill="#25242B" d="M560.256,286.896c0.887,0.354,1.611,1.034,1.992,1.917c0.3,0.689,0.717,0.286,1.404,0.093
					c-0.416-1.472-1.516-2.63-2.926-3.192c-0.159,0.395-0.31,0.791-0.469,1.186"/>
			</g>
		</g>
		<g>
			<g>
				<path fill="#25242B" d="M564.397,289.917c0.514,1.007,1.015,1.774,0.754,2.944c-0.054,0.241,1.157,0.707,1.333,0.911
					c0.679,0.774,0.39,1.866-0.095,2.692c-0.299,0.512-0.659,0.661-0.248,1.136c0.543,0.627,0.808,1.465,0.499,2.286
					c-0.338,0.9-1.213,1.54-2.024,1.997c-0.042,0.224,0.504,0.859,0.623,1.071c1.378-0.776,2.76-2.054,2.76-3.747
					c0-1.056-0.725-1.443-0.241-2.387c0.383-0.748,0.427-1.604,0.241-2.437c-0.195-0.862-0.789-1.523-1.51-1.996
					c0.079-0.77-0.175-1.338-0.57-1.988c-0.521-1.051-0.538-0.977-1.607-0.573"/>
			</g>
		</g>
		<g>
			<g>
				<path fill="#25242B" d="M559.261,296.261c0.149,0.182,0.556,0.907,0.769,0.94c1.044-0.854,2.143-1.633,3.257-2.392
					c1.106-0.754,2.242-1.492,3.49-1.979c0.767-0.301,0.337-0.644,0.1-1.354c-2.854,0.946-5.343,2.877-7.643,4.757"/>
			</g>
		</g>
		<g>
			<g>
				<path fill="#25242B" d="M564.586,297.75c-1.204,0.787-2.412,1.561-3.453,2.562c0.548,0.57,0.665,1.146,1.319,0.575
					c0.903-0.785,1.926-1.367,2.893-2.064c1.012-0.73,2.009-1.514,3.022-2.248c-0.714-0.825-0.633-1.075-1.515-0.441
					C566.1,296.675,565.34,297.21,564.586,297.75"/>
			</g>
		</g>
		<g>
			<g>
				<path fill="#25242B" d="M560.084,306.077c0.167,0.171,0.625,0.858,0.843,0.875c0.961-0.928,1.963-1.816,3.038-2.613
					c0.922-0.685,1.9-1.293,2.974-1.707c0.821-0.317,0.402-0.61,0.155-1.377c-2.771,0.888-4.976,2.816-7.031,4.804"/>
			</g>
		</g>
		<g>
			<g>
				<path fill="#25242B" d="M564.901,303.373c1.086,1.535-1.553,5.143-2.247,6.769c-0.307,0.719-0.698,1.436-1.183,2.061
					c-0.932,1.193-2.466,1.875-3.665,2.757c-3.359,2.476-5.918,5.797-8.872,8.703c-1.453,1.434-2.851,2.968-4.599,4.028
					c-0.264,0.159-2.409,1.085-2.361,1.187c0.21,0.455,0.65,1.076,0.862,1.531c3.501-1.625,6.149-4.486,8.774-7.274
					c2.88-3.059,5.808-5.706,9.186-8.216c1.869-1.387,2.708-2.691,3.593-4.762c0.953-2.23,3.479-5.272,1.787-7.666
					c-0.434,0.306-0.55,0.506-0.984,0.812"/>
			</g>
		</g>
		<g>
			<g>
				<path fill="#25242B" d="M323.955,319.605c13.297,2.991,26.436,6.707,39.617,10.176c10.958,2.884,21.933,4.297,33.144,6.042
					c11.465,1.782,23.212,1.535,34.768,2.16c2.331,0.123,4.59,1.437,6.914,1.646c0.333,0.03,3.049,0.111,3.068-0.052
					c0.042-0.391-0.229-0.295-0.186-0.688c-11.509-1.256-23.152-1.98-34.685-2.907c-11.256-0.905-23.482-2.167-34.422-4.94
					c-11.116-2.819-21.184-6.06-32.387-8.531c-4.609-1.016-8.914-2.227-13.518-3.263c-0.564-0.129-1.182-0.032-1.745-0.16
					c-0.392-0.086-1.656,0.435-1.729,0.748"/>
			</g>
		</g>
		<g>
			<g>
				<path fill="#25242B" d="M531.719,334.533c-15.28,2.069-30.833,3.803-46.246,4.313c-18.689,0.621-37.406-1.15-56.089-0.232
					c0.012,0.255-0.063-0.135,0.091,0.047c1.373-0.067,2.677,0.328,4.053,0.282c3.013-0.099,6.71-0.23,9.723-0.25
					c5.803-0.039,11.57,0.728,17.371,0.796c10.879,0.128,22.123,0.337,32.987-0.318c9.005-0.541,16.994-1.885,25.978-2.708
					c5.612-0.517,11.285-2.245,16.92-2.311c2.591-0.029,5.246,0.74,7.816,1.041c1.299,0.153,2.521,1.06,3.818,1.23
					c0.146-0.065-0.722-0.18-0.691-0.415c0.049-0.36,2.004-0.464,2.053-0.821c0.005-0.033-0.909,0.383-0.906,0.354
					C542.953,334.796,537.404,333.766,531.719,334.533"/>
			</g>
		</g>
		<g>
			<g>
				<path fill="#25242B" d="M356.771,341.078c0.211,1.332,0.105,1.481,1.562,1.287c1.615-0.216,3.215-0.36,4.847-0.338
					c2.414,0.037,4.75,0.425,7.115,0.847c2.668,0.478,5.33,0.191,8.031,0.313c1.586,0.073,3.184,0.5,4.646,1.175
					c0.194,0.09,1.004,0.372,1.079,0.293c0.269-0.288,0.919-0.577,1.186-0.864c-3.436-3.23-10.114-1.493-14.385-2.257
					c-4.787-0.856-9.242-1.302-14.088-0.528"/>
			</g>
		</g>
		<g>
			<g>
				<path fill="#25242B" d="M367.609,348.985c0.111,0.23,0.379,1.165,0.593,1.269c1.021-0.503,2.09-0.881,3.205-0.737
					c1.245,0.163,2.436,0.732,3.681,0.908c2.489,0.308,4.957-0.228,7.43-0.531c1.464-0.179,1.572,0.081,1.404-1.392
					c-2.86,0.352-5.796,1.036-8.682,0.681c-2.599-0.35-5.176-1.604-7.713-0.351"/>
			</g>
		</g>
		<g>
			<g>
				<path fill="#25242B" d="M382.415,343.656c1.276,0.704,3.041,2.109,2.148,3.758c-0.416,0.766-1.202,1.355-1.971,1.739
					c-0.054,0.222,0.446,0.925,0.557,1.146c1.423-0.713,2.845-2.085,2.878-3.788c0.037-1.833-1.559-3.162-3.014-3.965
					c-0.205,0.372-0.41,0.785-0.617,1.155"/>
			</g>
		</g>
		<g>
			<g>
				<path fill="#25242B" d="M384.701,349.3c0.15,0.364,0.354,0.655,0.503,1.02c0.057,0.139,2.103-0.6,2.412-0.71
					c1.523-0.545,3.057-1.233,4.67-1.412c0.915-0.103,2.003-0.038,2.813,0.481c0.576,0.372,0.841,1.005,0.865,1.66
					c0.16,0.137,0.896-0.028,1.127-0.038c-0.229-6.109-9.42-2.163-12.369-0.938"/>
			</g>
		</g>
		<g>
			<g>
				<path fill="#25242B" d="M390.711,351.901c-2.381,1.452-4.606,2.71-7.395,3.153c-2.646,0.416-5.285,0.692-7.896,1.338
					c0.057,0.232,0.069,0.927,0.249,1.053c1.113-0.274,2.268-0.295,3.408-0.412c2.614-0.266,5.236-0.655,7.712-1.622
					c2.587-1.012,4.986-2.392,7.422-3.692c1.081-0.58,2.084-1.386,3.268-1.719c0.906-0.255,0.569-0.512,0.376-1.346
					c-2.564,0.594-4.884,1.952-7.104,3.312"/>
			</g>
		</g>
		<g>
			<g>
				<path fill="#25242B" d="M398.761,353.185c-4.342,2.022-8.704,3.997-13.28,5.433c-2.231,0.701-4.452,1.422-6.769,1.742
					c-1.069,0.147-2.102,0.484-3.179,0.531c-0.138,0.191,0.004,0.714,0.016,0.967c5.641-0.248,11.047-1.858,16.226-4.016
					c2.556-1.064,5.009-2.351,7.518-3.521c0.721-0.336,1.127-0.157,0.786-0.89c-0.34-0.732-0.438-0.249-1.161,0.088"/>
			</g>
		</g>
		<g>
			<g>
				<path fill="#25242B" d="M396.5,350.925c1.173,0.113,2.388,0.77,2.694,2.002c0.13,0.516-0.179,0.947,0.404,1.03
					c0.312,0.043,0.648,0.086,0.96,0.129c0.343-2.439-1.647-4.173-3.941-4.393c-0.041,0.422-0.084,0.85-0.124,1.271"/>
			</g>
		</g>
		<g>
			<g>
				<path fill="#25242B" d="M388.36,359.454c-5.367,2.313-10.447,3.718-16.33,3.335c-3.179-0.206-6.333-0.693-9.503-1.015
					c-0.042,0.494-0.41,1.13,0.183,1.19c1.016,0.102,2.021,0.295,3.037,0.396c3.499,0.355,6.986,1.175,10.512,1.037
					c4.531-0.177,8.476-2.015,12.597-3.791c2.067-0.892,4.313-1.317,6.485-1.908c0.293-0.081,2.764-0.762,2.753-0.854
					c-0.055-0.499-0.448-1.177-0.503-1.676c-3.242,0.37-6.357,1.795-9.324,3.072"/>
			</g>
		</g>
		<g>
			<g>
				<path fill="#25242B" d="M396.458,355.457c0.722,0.588,0.681,1.5,0.347,2.272c0.119,0.213,0.879,0.385,1.115,0.487
					c0.563-1.301,0.528-2.831-0.635-3.78c-0.268,0.331-0.537,0.672-0.806,1.001"/>
			</g>
		</g>
		<g>
			<g>
				<path fill="#25242B" d="M355.121,352.26c0.807,5.185,4.314,9.324,8.618,12.066c0.442-0.692,0.868-0.761,0.105-1.271
					c-1.276-0.857-2.546-1.786-3.611-2.892c-1.776-1.843-3.278-4.115-3.963-6.595c-0.728-2.635-0.434-5.502,0.553-8.042
					c0.514-1.316,1.211-2.583,2.04-3.723c0.844-1.159,0.821-1.091-0.206-1.95c-2.848,3.417-4.592,7.978-3.893,12.46"/>
			</g>
		</g>
		<g>
			<g>
				<path fill="#25242B" d="M352.723,338.818c-4.284,0.474-8.188,2.156-12.141,3.752c-1.226-4.159-6.209-4.116-9.511-3.029
					c-1.847,0.61-3.566,1.57-5.423,0.858c-0.756-0.289-1.409-0.605-2.153-0.922c-0.093,0.272-0.921,1.14-0.815,1.38
					c0.09,0.204,1.295,0.484,1.534,0.574c1.784,0.668,3.292,1.108,5.258,0.693c2.511-0.532,4.78-1.931,7.37-0.889
					c1.85,0.745,2.362,1.76,2.445,3.57c2.886-1.17,5.749-2.19,8.686-3.226c2.827-0.997,5.438-1.451,8.41-0.903
					c1.197,0.222,2.704,0.477,3.907,0.649c0.089-1.601,0.049-2.118-1.534-2.349c-1.985-0.29-4.069-0.839-6.085-0.616"/>
			</g>
		</g>
		<g>
			<g>
				<path fill="#25242B" d="M275.354,360.213c5.96,3.367,12.66,4.984,19.479,5.407c4.159,0.256,8.363-0.431,12.512,0.003
					c4.385,0.458,8.74,1.772,13.156,1.639c8.517-0.256,16.81,1.73,25.323,0.555c4.194-0.58,8.369-1.294,12.478-2.285
					c1.971-0.477,3.814-1.576,5.808-1.939c1.074-0.195,0.535-1.377,0.375-2.327c-8.26,1.41-16.237,4.502-24.707,4.441
					c-3.991-0.029-7.899-0.293-11.855-0.709c-4.312-0.453-8.647,0.264-12.971-0.012c-4.076-0.26-8.191-0.004-12.262-0.329
					c-3.988-0.319-8.023-0.391-11.993-0.96c-3.199-0.461-6.13-2.23-9.123-3.458c-1.518-0.619-2.851-1.524-4.284-2.315
					c-0.839-0.459-0.775,0.417-1.188,1.149"/>
			</g>
		</g>
		<g>
			<g>
				<path fill="#25242B" d="M207.393,342.995c1.806,2.788,4.001,3.622,7.012,4.623c3.179,1.055,6.19,1.816,9.083,3.506
					c2.162,1.242,4.837,2.689,7.209,3.498c3.339,1.14,6.65,2.036,9.951,3.266c3.717,1.383,7.264,1.778,11.284,2.105
					c2.425,0.195,4.845,0.507,7.276,0.665c7.518,0.49,14.758,1.787,22.329,1.08c-0.092-0.996,0.24-2.39-0.886-2.299
					c-2.535,0.206-5.018,0.619-7.559,0.537c-4.13-0.131-8.193-0.591-12.305-0.861c-2.118-0.141-4.253,0.159-6.374,0.074
					c-2.407-0.096-6.304-0.806-8.614-1.532c-2.188-0.689-12.371-3.028-15.816-4.393c-2.63-1.044-4.668-3.43-7.13-4.805
					c-2.829-1.58-5.713-2.739-8.727-3.842c-1.762-0.645-3.415-1.329-4.692-2.75c-0.487-0.54-0.543-0.388-1.17,0.018
					c-0.396,0.256-0.879,0.221-1.276,0.477"/>
			</g>
		</g>
		<g>
			<g>
				<path fill="#25242B" d="M233.416,316.154c-3.249,0.244-6.504,0.178-9.76,0.313c-1.635,0.07-3.247,0.763-4.883,0.764
					c-1.02,0.002-0.731,0.697-0.735,1.599c12.077,0.076,24.065-1.977,36.158-1.323c4.627,0.249,9.275,0.337,13.841,1.142
					c2.661,0.47,5.214,1.366,7.802,2.148c1.159,0.35,2.481,0.229,3.608,0.673c1.146,0.454,1.071,0.19,1.525-0.865
					c-7.006-3.002-14.978-4.304-22.52-4.948c-8.344-0.713-16.647,0.507-24.987,1.133"/>
			</g>
		</g>
		<g>
			<g>
				<path fill="#25242B" d="M246.813,316.729c4.819,1.823,9.481,3.837,14.57,4.776c3.616,0.67,7.169,1.274,10.596,2.654
					c3.773,1.52,7.765,3.479,11.88,3.729c0.031-0.502,0.268-1.342,0.299-1.842c0.003-0.08-2.71-0.439-3.032-0.514
					c-2.351-0.538-4.643-1.344-6.876-2.239c-3.924-1.572-7.809-2.645-11.977-3.383c-5.229-0.949-10.064-2.698-15.018-4.568
					c-0.157,0.51,0.031,0.903-0.126,1.41"/>
			</g>
		</g>
		<g>
			<g>
				<path fill="#25242B" d="M278.235,326.546c0.504,0.802,0.657,1.694,1.565,1.156c1.093-0.647,2.23-1.771,3.509-1.939
					c1.817-0.239,3.336,1.161,4.33,2.486c1.379,1.841,2.301,2.902,4.401,3.506c1.771,0.51,3.53,1.069,5.3,1.583
					c3.541,1.028,7.09,2.154,10.716,2.836c3.559,0.667,7.113,0.234,10.714,0.313c2.484,0.055,5.312,0.097,7.472,1.442
					c1.062,0.659,1.388,2.136,2.089,3.169c0.276,0.406,0.704,0.871,1.22,0.586c0.374-0.206,0.279-0.261,0.651-0.469
					c-2.763-4.988-7.157-6.129-12.432-6.175c-7.171-0.063-13.902-1.07-20.765-3.07c-1.548-0.452-2.827-1.843-4.379-2.288
					c-1.898-0.544-3.325-0.372-4.587-2.047c-0.856-1.137-1.509-2.493-2.943-2.864c-2.333-0.604-4.695,0.942-6.598,2.143"/>
			</g>
		</g>
		<g>
			<g>
				<path fill="#25242B" d="M289.167,356.974c8.193,1.554,16.539,3.225,24.909,1.969c-0.039-0.258,0-1.194-0.174-1.365
					c-1.601,0.239-3.21,0.474-4.829,0.502c-2.95,0.055-5.868-0.228-8.782-0.658c-3.636-0.536-7.273-0.969-10.882-1.652
					c-0.076,0.419-0.327,0.63-0.404,1.046"/>
			</g>
		</g>
		<g>
			<g>
				<path fill="#25242B" d="M333.97,342.564c-2.012,0.844-3.131,2.982-4.18,4.775c-0.622,1.063-1.247,2.15-2.002,3.129
					c-0.516,0.666-0.006,0.743,0.575,1.26c2.02-2.266,2.758-5.479,5.258-7.325c0.152,3.313-1.718,6.527-3.317,9.31
					c-0.922,1.602-1.978,3.107-3.052,4.609c-0.416,0.581-0.623,1.292-1.061,1.858c0.047,0.224,0.652,0.528,0.845,0.681
					c1.888-2.411,3.808-4.859,5.259-7.554c1.797-3.336,3.259-7.173,2.359-11.008c-0.223,0.092-0.545-0.006-0.745,0.128"/>
			</g>
		</g>
		<g>
			<g>
				<path fill="#25242B" d="M269.29,353.359c-0.774,2.494-0.104,4.164,2.545,4.61c0.744,0.124,1.509,0.128,2.255,0.24
					c0.549,0.083,0.448-0.723,0.531-1.188c-1.895-0.289-4.789-0.021-4.28-2.592c3.076,1.284,5.798,3.537,8.514,5.45
					c0.304-0.488,0.867-0.84,0.332-1.217c-0.77-0.544-1.557-1.06-2.326-1.601c-2.377-1.676-4.558-3.498-7.354-4.42
					c-0.06,0.192-0.268,0.499-0.273,0.701"/>
			</g>
		</g>
		<g>
			<g>
				<path fill="#25242B" d="M222.196,346.285c0.229-0.028,1.12,0.032,1.255-0.129c-0.141-1.15-0.495-2.316-0.467-3.477
					c0.048-2.043,0.397-4.111,1.072-6.041c1.143-3.279,3.225-6.22,5.831-8.495c2.36-2.061,5.173-3.609,8.037-4.862
					c1.251-0.547,2.595-0.855,3.895-1.274c0.541-0.175,1.05-0.45,1.598-0.603c0.412-0.117-0.033-0.968-0.13-1.328
					c-6.32,1.725-12.647,4.789-16.847,9.956c-3.716,4.57-5.137,10.463-4.43,16.28"/>
			</g>
		</g>
		<g>
			<g>
				<path fill="#25242B" d="M200.413,308.617c0.396,0.309,1.387-0.301,1.782,0.008c0.088,0.069,0.047-1.829,0.278-2.074
					c1.534-1.605,3.597-3.146,5.507-4.282c3.504-2.087,7.979-3.203,12.013-3.649c8.902-0.986,18.567,0.272,27.333,1.755
					c9.401,1.592,18.518,4.857,27.66,7.521c9.128,2.656,17.003,8.147,25.719,11.887c4.012,1.72,8.305,2.822,12.508,3.993
					c4.359,1.216,7.939,2.878,11.556,5.721c2.011,1.577,4.882,2.016,6.967,3.502c1.986,1.421,3.836,3.021,6.167,3.693
					c2.255,0.649,4.516,1.143,6.606,2.243c0.301,0.16,2.755,1.421,2.771,1.402c0.34-0.367-0.234-0.256,0.106-0.624
					c-3.648-3.384-8.181-3.944-12.548-5.861c-4.784-2.099-7.81-7.261-12.546-9.501c-3.342-1.58-7.086-1.749-10.62-2.773
					c-5.436-1.581-10.591-4.103-15.738-6.433c-17.157-7.771-35.608-13.7-54.29-16.248c-14.457-1.969-32.272-4.057-42.335,8.866"/>
			</g>
		</g>
		<g>
			<g>
				<path fill="#25242B" d="M202.733,312.598c1.003,0.741,2.236,1.595,2.256,2.955c0.018,1.122-1.354,1.728-1.983,2.5
					c-2.18,2.674,0.988,6.014,2.526,8.146c0.865,1.196,1.681,2.648,1.922,4.151c0.281,1.754,0.075,3.362,1.069,4.972
					c0.792,1.282,1.866,2.282,2.833,3.414c0.148,0.174,0.946,1.225,1.035,1.188c0.364-0.149,0.822-0.388,1.186-0.538
					c-0.673-1.633-2.218-2.644-3.342-3.931c-1.465-1.679-1.095-3.345-1.434-5.361c-0.321-1.912-1.381-3.761-2.487-5.282
					c-0.969-1.333-2.865-2.942-2.849-4.703c0.015-1.52,2.045-2.007,2.611-3.282c0.689-1.554-0.3-3.587-1.467-4.637
					c-0.806-0.726-2.421-1.221-2.569-2.431c-0.038-0.312,0.435-2.024,0.396-2.041c-0.359-0.161-0.819-0.021-1.178-0.183
					c-0.979,2.211-0.511,3.922,1.32,5.275"/>
			</g>
		</g>
		<g>
			<g>
				<path fill="#25242B" d="M228.19,308.882c0.033,0.251-0.112,0.845,0.057,1.009c1.288-0.168,2.625,0.251,3.921,0.19
					c2.572-0.12,5.118-1.034,7.671-0.71c5.587,0.704,10.732,2.368,16.111,3.828c4.92,1.339,10.057,1.759,14.982,3.069
					c2.281,0.608,4.354,2.122,6.482,3.147c2.338,1.126,4.537,2.437,6.87,3.577c8.608,4.209,18.125,5.23,27.378,7.031
					c4.429,0.861,8.911,1.691,12.958,3.726c2.036,1.023,3.592,2.753,5.382,4.164c0.951,0.75,1.776,1.552,2.643,2.399
					c0.67,0.656,1.175-0.298,1.771-0.886c-6.258-6.342-14.429-9.307-23.039-10.925c-8.916-1.674-18.317-2.201-26.604-6.242
					c-2.004-0.977-3.497-2.835-5.455-3.883c-2.162-1.16-5.032-2.588-7.384-3.271c-4.652-1.355-8.523-0.938-13.228-2.072
					c-4.922-1.188-10.018-4.291-14.989-5.301c-5.077-1.032-10.539-0.479-15.674,0.194"/>
			</g>
		</g>
		<g>
			<g>
				<path fill="#25242B" d="M199.565,310.452c1.342,0.149,1.101,0.19,1.453-1.102c0.376-1.39,1.13-2.675,1.939-3.857
					c0.997-1.456,2.261-2.707,3.549-3.91c0.24-0.226,2.028-1.771,1.944-1.875c-0.244-0.309-0.485-0.523-0.729-0.834
					c-3.6,2.858-7.631,6.77-8.169,11.568"/>
			</g>
		</g>
		<g>
			<g>
				<path fill="#25242B" d="M238.545,290.253c-0.399,0.116-1.415,0.15-1.695,0.44c-0.072,0.074-0.136,1.469,0.227,1.286
					c1.333,1.219,3.886-0.121,5.207-0.708c-1.053-1.396-2.105-1.669-3.756-1.066"/>
			</g>
		</g>
	</g>
</g>
</svg>
