<?xml version="1.0" encoding="utf-8"?>
<!-- Generator: Adobe Illustrator 15.0.0, SVG Export Plug-In . SVG Version: 6.00 Build 0)  -->
<!DOCTYPE svg PUBLIC "-//W3C//DTD SVG 1.1//EN" "http://www.w3.org/Graphics/SVG/1.1/DTD/svg11.dtd">
<svg version="1.1" id="Layer_1" xmlns="http://www.w3.org/2000/svg" xmlns:xlink="http://www.w3.org/1999/xlink" x="0px" y="0px"
	 width="640px" height="360px" viewBox="0 0 640 360" enable-background="new 0 0 640 360" xml:space="preserve">
<g>
	<g>
		<path fill="#D0D2D8" d="M56.075,148.936c2.306,5.6,1.513,12.192,3.911,18.485c5.289,13.894,18.124,19.603,28.667,27.246
			c19.458,14.104,27.006,18.644,50.64,21.603c13.242,1.66,36.347,3.856,36.863,18.982c0.49,14.34-21.82,34.656-29.922,43.876
			c-8.783,9.993-17.501,20.892-27.459,29.094c-3.888,3.205-8.778,4.729-12.02,8.454c6.844,3.117,19.519,9.631,23.045,15.876
			c4.109,7.277,1.335,18.113,7.618,26.068c18.575,23.512,253.469-2.165,250.368-20.514c-6.204-36.731-36.823-53.563-64.753-74.048
			c-43.693-32.054-88.894-59.095-135.077-86.867c-18.984-11.417-31.038-22.175-54.049-22.599
			c-10.026-0.185-18.627,1.368-27.386-0.722c-17.275-4.123-32.409-12.292-49.813-16.375"/>
		<path fill="#596673" d="M187.808,212.048c-2.146,7.011-11.712,10.917-17.368,14.825c-7.671,5.301-12.988,10.389-19.143,16.871
			c10.561,0.479,22.089,1.656,32.242-1.709c29.891-9.902,58.384-39.415,78.796-62.082c19.593-21.758,17.875-36.349,12.25-61.883
			c-8.523,2.521-17.006,12.71-24.106,18.499c-19.795,16.142-35.548,38.87-49.965,59.808"/>
		<path fill="#F3BF99" d="M136.132,65.493c-23.756-1.081-22.45-0.001-40.24,6.776c-17.791,6.776-28.379,19.909-30.498,38.544
			c-2.118,18.637,10.59,35.156,19.062,55.488c8.472,20.331,17.367,31.77,36.851,32.615c19.484,0.845,50.406-2.54,54.217-2.966
			c3.813-0.425,10.589-1.694,13.13,0.846c2.541,2.543,2.541,4.661,1.27,8.049c-1.27,3.39-5.506,11.859-6.354,18.214
			c-0.847,6.354-3.389,16.521-3.389,16.521s-12.706,49.557,60.147,86.834c72.856,37.273,173.243,57.603,173.243,57.603
			s24.563-60.566,39.813-91.064c15.249-30.496,22.448-53.368,27.956-59.726c5.507-6.354,7.624-9.318,7.624-9.318
			s-3.387-13.979-27.956-28.381c-24.563-14.399-93.186-60.991-114.789-66.5c-21.603-5.508-35.581-11.438-56.334-3.39
			c-20.755,8.048-26.263,13.555-35.157,14.402c-8.896,0.848-16.943,2.542-19.484,0.848c-2.542-1.694-2.542-1.694-2.542-1.694
			s-6.777-5.93-15.248-11.437c-8.471-5.507-10.165-8.472-10.589-15.249c-0.425-6.778-0.425-12.707-10.591-19.061
			c-10.165-6.354-13.555-12.285-16.519-15.249c-2.965-2.965-12.707-5.083-19.907-5.083
			C152.651,73.117,145.449,65.916,136.132,65.493z"/>
		<path fill="#CBA387" d="M111.987,173.08c-6.005-1.024-12.924,0.123-10.704,7.592c7.238-5.616,16.888,12.674,18.286-1.906
			c-1.761,0.38-4.356-0.618-6.248-0.245c0.242-2.018-1.02-4.233-0.911-5.867"/>
		<path fill="#BE9679" d="M107.329,90.059c-6.366,7.381-9.797,14.015-14.295,22.785c-2.311-9.9,0.958-19.541,11.33-21.938"/>
		<path fill="#BE9679" d="M142.061,66.763c-6.279-0.505-12.58-0.27-17.056,4.51c-0.675-4.71,3.603-6.019,8.162-5.78"/>
		<path fill="#CD8875" d="M166.628,92.178c-12.02,2.893-16.91,9.933-18.573,21.567c6.202-6.03,10.039-17.129,18.148-20.721"/>
		<path fill="#FFFFFF" d="M171.711,89.211c-17.366-5.929-20.922,7.65-24.206,21.505c2.394-5.215,4.718-11.267,9.372-14.61
			c3.711-2.666,8.361-2.791,12.292-5.624"/>
		<path fill="#CBA387" d="M136.978,87.517c0.024,0.105-1.118,1.866-0.783,2.901c3.55-0.186,2.165-0.059,3.802-2.087
			c-0.866-0.613-2.209-0.923-3.019-1.662"/>
		<path fill="#CBA387" d="M147.568,79.045c-0.459-0.891-0.939,1.586-0.783,2.052c1.168,0.12,2.517,0.179,3.684,0.001
			c0.408-1.989-1.427-1.863-1.629-2.9"/>
		<path fill="#6F7E8F" d="M134.859,249.959c-11.436,5.08-24.778,13.977-19.06,30.496c5.719,16.52,4.447,19.061-0.635,21.602
			c-5.082,2.543-5.719,6.354-5.719,6.354s6.989-2.543,18.426-2.543c11.436,0,10.8-4.446,10.8-4.446s2.542,8.896,10.167,9.529
			c7.625,0.637,12.708,0.637,12.708,0.637s-4.448,13.979,2.54,25.412c6.989,11.437,19.697,20.333,19.697,20.333l175.994,3.176
			c0,0-3.813-25.413-33.037-32.398c-29.227-6.99-55.912-20.973-76.244-35.585c-20.331-14.61-40.028-43.205-55.276-45.746
			c-15.249-2.541-20.966-7.623-35.581-3.813C145.024,246.779,134.859,249.959,134.859,249.959z"/>
		<path fill="#49545E" d="M156.462,248.688c-8.684,5.871-12.388,30.574-13.453,41.271c-7.754-12.734-6.284-38.438,10.911-41.906"/>
		<path fill="#49545E" d="M138.671,301.422c3.254,8.335,18.232,17.74,23.509,9.529c6.125-9.532-9.073-16.313-5.735-26.051
			c-3.309-2.52-7.356-4.895-10.799-7.094c-1.149,8.438-2.605,17.049-7.61,24.25"/>
		<path fill="#596673" d="M146.296,272.83c17.813,0.352,12.241-14.626,22.27-19.059c15.145-6.694,35.624,14.523,45.632,22.127
			c16.318,12.392,28.614,27.543,45.82,38.692c21.943,14.227,47.871,17.162,73.576,17.24c-17.706-14.497-38.996-13.494-58.505-24.197
			c-16.913-9.278-36.521-24.157-50.489-37.657c-19.249-18.603-38.206-31.093-66.137-28.817c-5.673,10.296-7.57,17.909-8.99,29.765"
			/>
		<path fill="#8091A7" d="M368.037,359.24c-17.156-20.968-11.438-31.133-43.84-41.299c-32.404-10.165-59.089-11.438-77.514-35.58
			c-18.425-24.146-28.591-38.758-62.9-41.938c-34.31-3.176-49.559,1.907-50.193,7.624c-0.635,5.722,1.906,20.332,1.906,20.332
			s6.989-20.969,24.143-22.235c17.155-1.271,33.039,0.635,52.735,20.332c19.695,19.692,41.299,38.758,71.795,50.826
			c30.497,12.07,47.017,19.693,53.371,26.05c6.354,6.354,12.071,13.343,12.071,13.343L368.037,359.24z"/>
		<path fill="#486A91" d="M488.967,223.907c0,0-7.201,5.72-18.638,32.403c-11.438,26.687-19.695,46.381-31.13,71.156
			c-11.438,24.779-13.343,27.957-13.343,27.957l165.188-1.903l3.813-74.977c0,0-15.249-1.903-20.97-9.526
			c-5.718-7.625-8.26-13.979-8.26-13.979s-4.447-2.542-14.614-5.081c-10.163-2.545-14.608-5.723-20.327-10.805
			c-5.723-5.082-13.348-7.621-17.155-8.262c-3.813-0.637-12.071-1.904-15.883-3.177C493.838,226.45,488.967,223.907,488.967,223.907
			z"/>
		<path fill="#6F7E8F" d="M289.251,115.262c0,0,18.425-10.165,46.381-2.542c27.956,7.625,51.464,20.966,57.183,22.873
			c5.722,1.907,7.623,1.907,7.623,1.907s6.989-5.083,8.897-1.907c1.904,3.177,1.904,3.177,1.904,3.177s28.592,21.602,48.288,31.768
			c19.692,10.166,45.746,26.685,65.438,31.133c19.696,4.447,33.673,8.259,51.463,14.613c17.791,6.354,20.332,12.071,20.332,12.071
			l-12.068,32.401c0,0-21.604-27.957-40.026-36.854c-18.428-8.896-39.393-10.163-58.455-13.979
			c-19.06-3.813-52.734-17.154-67.35-27.32c-14.612-10.165-19.693-26.685-40.662-33.669c-20.967-6.989-58.454-17.155-67.983-19.696
			C300.689,126.698,289.251,115.262,289.251,115.262z"/>
		<path fill="#535F6B" d="M404.888,174.985c0,0,44.479,26.049,60.993,35.58c16.521,9.533,20.332,13.346,27.321,15.889
			c6.988,2.541,20.331,1.902,31.769,9.527c11.438,7.625,13.979,12.071,22.237,13.34c8.261,1.271,22.872,6.355,22.872,6.355
			s-5.081-23.509-14.611-30.498c-9.531-6.988-26.052-9.529-36.851-10.166c-10.804-0.637-55.912-12.072-72.437-20.332
			C429.666,186.422,404.888,174.985,404.888,174.985z"/>
		<path fill="#8091A7" d="M267.649,133.051c0,0-1.271-5.718,12.072-5.083c13.341,0.636,45.746,3.177,77.513,19.695
			c31.768,16.52,34.945,26.686,77.514,46.382c42.571,19.696,60.36,25.414,82.597,27.956c22.238,2.542,41.938,13.978,45.11,26.051
			c3.176,12.07,4.448,17.791,11.436,22.871c6.989,5.084,13.979,6.354,13.979,6.354l6.354-19.695c0,0-20.968-13.979-25.415-20.967
			c-4.445-6.988-8.896-19.695-22.234-24.779c-13.344-5.081-31.134-3.177-48.288-3.813c-17.153-0.641-33.038-10.166-43.204-13.342
			c-10.167-3.18-17.153-9.531-30.498-14.618c-13.343-5.083-24.146-13.977-31.77-26.049c-7.625-12.071-24.146-23.509-52.732-30.498
			c-28.589-6.989-39.392-8.259-50.829-8.259c-11.436,0-14.612,1.271-14.612,1.271s-5.719,5.083-8.896,11.437
			c-3.176,6.354-3.813,8.896-3.813,8.896L267.649,133.051z"/>
		<path fill="#8E745E" d="M101.346,69.78c-3.169-9.034-3.448-9.086-11.411,0.159c-1.674,1.943-0.837-5.005-2.854-2.536
			c-13.466,16.496-35.326,52.011-33.658,62.204c1.046,6.399,2.479,14.607,4.816,20.657c2.555,6.616,8.485,9.911,11.714,15.714
			c2.605,4.68,2.826,11.736,6.429,16.502c0.255-0.608,0.523-1.793,0.919-2.572c5.205,11.615,12.639,17.861,23.541,23.148
			c-0.341-0.928-0.9-2.233-1.226-3.24c8.158,1.851,38.03,11.093,41.895,5.059c10.702,1.723,22.332,1.161,33.019-1.941
			c3.365-0.977,11.432-2.49,11.214-6.811c-0.205-4.066-11.049-7.018-13.798-6.889c-0.655-0.438,0.774,2.397,0.736,1.479
			c-4.164-5.172-20.104,0.561-19.039-7.438c-7.738-0.072-16.62-2.182-21.564,1.146c-6.838,4.603-4.633,7.94-14.701,8.558
			c-6.889,0.42-16.043-0.737-19.154-7.813c-2.336-5.316,0.226-15.04,5.544-16.343c0.799-11.08-15.854-25.462-23.169-33.188
			c-1.392,1.417-1.937,0.807-3.066,2.701c-1.921-4.666-4.176-8.871-3.678-14.101c-0.808,0.647-1.878,1.384-2.536,1.961
			c1.1-4.449,1.464-8.979,1.586-13.499c-0.683,0.475-1.33,1.169-1.997,1.548c0.674-8.329,1.069-14.15,7.109-19.87
			c-1.077,0.014-2.677-0.244-3.644-0.174c3.211-4.437,6.25-7.736,10.33-11.107c3.645-3.011,5.706-6.022,7.291-6.974
			c1.585-0.951,7.131-4.438,7.131-4.438"/>
	</g>
	<g>
		<g>
			<path fill="#25242B" d="M139.452,259.249c-4.181,6.231-2.717,14.78-1.396,21.478c1.376,6.963,1.607,12.939-3.048,18.881
				c-3.357,4.287-7.078,6.363-12.382,6.95c-2.727,0.307-4.989-0.518-7.696-0.941c-1.364-0.22-2.885,1.063-4.21,0.68
				c-0.247-0.073-1.364,0.161-1.416,0.313c-0.129,0.365,0.047-1.476-0.083-1.104c6.997,2.457,14.379,4.814,21.247,1.733
				c8.277-3.711,13.443-12.04,12.632-20.813c-0.858-9.313-8.205-20.075-1.793-28.438c4.803-6.266,12.344-9.063,20.049-10.504
				c7.397-1.389,14.318,0.83,21.541,2.813c8.788,2.41,15.545,5.579,22.169,11.731c12.262,11.387,25.353,21.98,38.565,32.365
				c16.657,13.088,34.249,21.76,53.88,29.265c9.902,3.786,21.24,9.528,31.132,13.341c6.998,2.695,10.281,6.463,15.25,12.073
				c3.207,3.62,9.748,6.426,12.213,10.58c1.203,2.023,0.703,5.021,1.799,7.104c0.592,1.126,0.265,2.692,0.828,3.827
				c0.377,0.756,0.834,0.109,1.502-0.224c-7.155-14.409-15.215-28.791-30.896-34.833c-9.471-3.649-18.715-7.879-28.202-11.486
				c-19.509-7.418-38.649-16.771-55.36-29.549c-13.271-10.146-25.192-20.979-37.218-32.47c-5.472-5.229-12.094-9.194-19.174-12.072
				c-5.509-2.239-10.936-5.379-16.865-5.768c-12.814-0.838-26.151,3.736-33.536,14.748"/>
		</g>
	</g>
	<g>
		<g>
			<path fill="#25242B" d="M130.199,252.214c-3.996,2.69-8.187,5.552-11.229,9.362c-3.191,4.001-4.147,9.027-4.095,14.044
				c0.037,3.748,0.341,7.405,1.102,11.06c0.727,3.498,1.446,7.108,0.29,10.604c-1.01,3.055-3.6,4.462-5.716,6.675
				c-2.197,2.292-2.767,5.651-2.101,8.744c0.383-0.083,1.241,0.175,1.625,0.09c0.082-0.017-0.657-2.44-0.653-2.753
				c0.016-1.468,0.435-3.179,1.336-4.332c2.1-2.7,6.131-3.751,7.461-7.071c1.543-3.861-0.25-8.287-1.069-12.21
				c-0.844-4.063-0.925-8.12-0.807-12.291c0.153-5.349,1.726-10.056,5.634-13.791c3.575-3.415,8.307-5.608,12.386-8.37
				c-0.488-0.714-1.009-1.826-1.759-1.313c-0.791,0.532-1.624,1.009-2.416,1.545"/>
		</g>
	</g>
	<g>
		<g>
			<path fill="#25242B" d="M136.166,267.52c0.592,3.275,0.893,6.598,1.179,9.918c0.149,1.754,0.158,3.482,0.079,5.244
				c-0.065,1.441,0.21,1.336,1.541,1.451c0.625-7.203-1.133-14.355-2.263-21.419c-0.556-3.476-1.046-6.978-0.899-10.504
				c0.072-1.759,0.129-3.535,0.519-5.251c0.323-1.425,0.211-1.396-1.094-1.766c-2.065,7.297-0.781,15.096,0.538,22.396"/>
		</g>
	</g>
	<g>
		<g>
			<path fill="#25242B" d="M130.372,251.982c0.313,0.352-0.889,1.309-0.577,1.66c0.515,0.572,2.058-0.646,2.606-1.082
				c1.377-1.109,1.753-3.986,3.308-4.826c3.312-1.789,7.707-1.623,11.327-2.631c7.582-2.109,15.427-5.151,23.277-5.521
				c7.525-0.354,15.498,0.618,22.868,2.313c9.304,2.145,18.522,6.61,26.385,12.002c8.593,5.892,13.449,15.457,19.865,23.59
				c3.057,3.873,6.985,7.371,10.429,10.91c3.534,3.637,7.148,7.23,11.403,9.975c8.295,5.341,18.673,8.396,27.989,11.63
				c4.861,1.689,9.325,2.413,14.341,3.56c4.717,1.079,9.563,1.729,14.225,3.05c11.891,3.356,23.489,9.507,32.329,18.195
				c4.224,4.147,5.457,10.571,8.449,15.677c1.646,2.805,6.288,3.271,8.514,5.681c1.207,1.308-0.342,4.825,0.523,6.403
				c0.426,0.778,1.934-0.575,2.688-0.902c-0.976-2.271-1.369-4.899-2.952-6.727c-1.503-1.731-3.063-3.217-4.167-5.214
				c-1.996-3.599-4.19-7.22-6.791-10.405c-5.192-6.371-11.694-11.926-18.751-16.125c-7.453-4.438-15.805-6.862-24.264-8.742
				c-9.961-2.215-19.822-4.637-29.349-8.41c-9.043-3.586-17.975-8.029-25.767-13.887c-8.193-6.158-13.146-15.289-19.656-23.059
				c-12.61-15.041-29.198-26.338-48.805-29.304c-9.669-1.463-21.835-2.063-31.482-0.703c-9.806,1.382-21.353,5-28.959,11.81"/>
		</g>
	</g>
	<g>
		<g>
			<path fill="#25242B" d="M162.684,233.57c-4.24,3.029-8.42,6.123-12.225,9.695c0.237,0.252,0.957,1.383,1.271,1.404
				c1.38-1.295,2.749-2.628,4.232-3.803c3.178-2.521,6.42-4.958,9.711-7.322c6.042-4.348,12.125-8.934,16.465-15.072
				c-0.384-0.272-0.802-0.313-1.186-0.582c-0.737-0.521-0.711,0.474-1.182,1.067c-1.475,1.877-3.284,3.483-5.037,5.104
				c-3.763,3.476-7.968,6.429-12.128,9.396"/>
		</g>
	</g>
	<g>
		<g>
			<path fill="#25242B" d="M172.867,188.534c5.759,1.044,10.732,3.636,14.626,8.024c2.736,3.09,5.093,6.512,7.5,9.855
				c0.588-0.438,1-0.348,0.538-0.989c-0.598-0.827-0.934-1.852-1.532-2.681c-1.526-2.119-3.304-4.037-4.974-6.045
				c-4.218-5.07-9.462-8.04-15.956-9.221c-0.076,0.414-0.176,0.85-0.25,1.267"/>
		</g>
	</g>
	<g>
		<g>
			<path fill="#25242B" d="M188.676,201.091c0.885,13.017-8.85,23.582-9.436,36.339c0.919,0.043,1.89,0.449,1.961-0.576
				c0.137-1.93,0.47-3.81,0.964-5.679c0.938-3.545,2.394-6.897,3.791-10.28c2.616-6.332,4.895-12.951,4.417-19.924
				c-0.526,0.036-1.099,0.084-1.627,0.121"/>
		</g>
	</g>
	<g>
		<g>
			<path fill="#25242B" d="M159.115,300.413c1.532,6.743,0.114,13.069-0.077,19.834c-0.179,6.303,2.201,13.859,5.318,19.245
				c2.977,5.141,4.503,10.354,8.947,14.413c2.76,2.521,7.535,1.915,10.813,3.511c1.59,0.774,3.327,1.474,4.483,2.821
				c0.638,0.738,0.953,0.02,1.651-0.521c-4.128-5.313-11.612-5.343-15.986-10.409c-3.479-4.025-6.05-8.852-8.705-13.437
				c-3.092-5.339-4.838-10.792-4.444-16.987c0.408-6.438,1.608-12.558,0.152-18.96c-0.619,0.14-1.806,0.361-2.424,0.503"/>
		</g>
	</g>
	<g>
		<g>
			<path fill="#25242B" d="M137.783,303.46c4.649,6.291,11.812,9.429,19.578,8.739c-0.021-0.233,0.044-0.937-0.112-1.082
				c-1.234,0.108-2.482,0.146-3.716,0.062c-2.313-0.15-4.546-0.962-6.667-1.902c-1.951-0.866-3.656-2.111-5.218-3.565
				c-0.887-0.822-1.766-1.634-2.505-2.59c-0.509-0.659-0.917,0-1.518,0.441"/>
		</g>
	</g>
	<g>
		<g>
			<path fill="#25242B" d="M144.985,274.665c0.852,4.616,6.531,7.808,10.221,10.038c4.212,2.545,8.224,4.714,13.022,5.682
				c7.498,1.514,14.985,3.016,22.268,5.389c3.807,1.235,7.432,2.877,11.089,4.511c1.806,0.805,3.598,1.587,5.357,2.491
				c0.292,0.146,2.496,0.931,2.573,0.785c0.189-0.347,0.66-1.024,0.849-1.371c-7.295-3.979-15.319-6.479-23.288-8.813
				c-3.927-1.15-7.795-2.545-11.792-3.438c-3.509-0.777-7.069-1.602-10.511-2.631c-4.895-1.463-10.139-3.604-14.013-6.896
				c-1.726-1.465-4.065-3.357-4.629-5.639c-0.357-1.446,0.873-2.784,1.883-3.854c0.216-0.229,1.366-1.463,1.327-1.525
				c-0.208-0.332-0.226-0.832-0.434-1.164c-2.217,1.391-4.016,3.588-3.505,6.354"/>
		</g>
	</g>
	<g>
		<g>
			<path fill="#25242B" d="M155.787,292.873c1.553,3.372,5.741,4.703,8.995,5.891c4.107,1.5,8.352,2.578,12.486,4.002
				c4.008,1.385,8.073,2.957,11.696,5.186c1.842,1.131,3.306,2.84,4.896,4.309c0.806,0.744,1.691,1.399,2.402,2.232
				c0.217,0.004,0.687-0.577,0.868-0.729c-6.229-7.295-15.373-10.981-24.266-13.754c-4.503-1.397-9.877-2.104-13.727-4.979
				c-1.452-1.084-2.631-2.655-2.778-4.52c-0.104-1.318,0.265-2.699,0.732-3.927c0.353-0.931-0.117-0.874-0.941-1.229
				c-0.992,2.307-1.16,5.004-0.065,7.379"/>
		</g>
	</g>
	<g>
		<g>
			<path fill="#25242B" d="M160.362,256.662c-2.107,2.668-1.258,5.777-1.309,8.839c-0.064,3.897-3.353,4.274-6.448,4.097
				c-2.805-0.164-5.7-0.214-7.304,2.526c-1.419,2.421-1.574,5.495-1.369,8.188c1.323-0.104,1.048,0.025,0.995-1.406
				c-0.052-1.396,0.385-2.787,0.663-4.159c0.484-2.388,1.684-4.216,4.201-4.379c2.585-0.171,5.418,0.815,7.868-0.345
				c3.265-1.549,2.477-5.174,2.257-8.104c-0.204-2.739,0.716-5.01,3.086-6.495c1.829-1.148,4.045-1.73,6.159-2.042
				c1.969-0.293,3.991-0.377,5.98-0.325c0.661,0.021,1.333-0.011,1.992,0.043c0.745,0.057,0.436-0.041,0.499-0.716
				c-5.579-0.516-13.533-0.606-17.343,4.22"/>
		</g>
	</g>
	<g>
		<g>
			<path fill="#25242B" d="M142.472,287.895c-0.208,1.236-0.176,2.519-0.387,3.756c-0.106,0.643,0.074,1.326-0.035,1.966
				c-0.04,0.231,0.484,0.183,0.718,0.226c1.052-6.205,2.377-12.355,3.673-18.521c0.939-4.454,2.362-8.771,3.941-13.051
				c0.788-2.131,1.543-4.25,2.602-6.261c0.512-0.977,0.559-2.178,1.15-3.106c-0.057-0.209-0.518-0.383-0.716-0.51
				c-6.699,10.513-8.768,23.465-10.768,35.529"/>
		</g>
	</g>
	<g>
		<g>
			<path fill="#25242B" d="M170.81,334.856c17.173,2.243,34.255,5.218,51.26,8.485c4.843,0.937,9.567,2.236,14.28,3.71
				c4.777,1.496,9.433,3.313,14.099,5.113c8.94,3.461,18.277,7.524,27.963,8.014c0.02-0.393-0.188-1.313-0.168-1.706
				c0.007-0.13-2.464-0.732-2.829-0.775c-2.574-0.325-5.138-0.575-7.645-1.238c-5.051-1.335-10.124-2.693-14.995-4.566
				c-4.928-1.893-9.808-3.874-14.832-5.51c-5.172-1.688-10.466-2.415-15.8-3.438c-9.652-1.855-19.227-4.107-28.93-5.689
				c-4.251-0.696-8.369-2.284-12.631-2.905c-2.127-0.31-4.333-0.101-6.463-0.391c-1.045-0.141-2.131,0.516-3.175,0.378
				c-0.159,0.133-0.222,1.135-0.252,1.362"/>
		</g>
	</g>
	<g>
		<g>
			<path fill="#25242B" d="M196.211,342.715c-1.893,0.189-3.782,0.452-5.675,0.646c-1.015,0.102-2.028,0.221-3.041,0.319
				c-0.866,0.086-0.526,0.164-0.464,1.017c2.98-0.304,5.934-0.475,8.914-0.771c2.846-0.289,5.676-0.718,8.529-0.954
				c2.067-0.171,4.147-0.271,6.224-0.311c0.263-0.006,2.185,0.135,2.187-0.034c0.004-0.391-0.09-0.729-0.084-1.122
				c-5.558-0.067-11.079,0.55-16.592,1.183"/>
		</g>
	</g>
	<g>
		<g>
			<path fill="#25242B" d="M268.146,129.366c0.098,0.491-2.664-0.504-2.567-0.014c0.027,0.137,4.286-2.276,4.582-2.319
				c2.14-0.313,4.49,0.023,6.652-0.044c4.483-0.14,9.58,0.104,14.027,0.661c9.682,1.212,19.264,2.47,28.617,5.207
				c8.457,2.477,17.684,7.202,26.023,10.042c7.513,2.558,15.248,6.354,22.234,10.165c6.94,3.788,11.368,7.751,17.727,12.429
				c8.93,6.575,18.418,12.095,28.179,17.327c19.429,10.414,36.678,19.166,56.709,28.38c15.884,7.309,40.896,6.778,60.085,11.38
				c8.685,2.081,26.933,15.348,32.678,22.296c5.219,6.312,2.737,6.743,6.988,13.659c2.65,4.305,1.487,7.463,5.375,10.688
				c4.404,3.651,9.061,8.502,14.564,10.245c0.147-0.478,1.118-0.413,1.27-0.891c0.025-0.075-2.188-3.481-2.502-3.64
				c-2.021-0.996-6.43,2.057-8.279,0.785c-3.618-2.488-7.791-5.195-10.856-8.354c-5.038-5.183-5.146-14.14-8.82-20.25
				c-4.803-7.979-12.746-12.418-21.19-16.712c-7.857-3.999-15.445-7.252-24.121-8.141c-9.976-1.021-19.938-2.516-29.646-5.203
				c-10.218-2.832-22.446-6.033-31.74-10.949c-9.963-5.271-16.998-8.478-27.005-13.66c-10.178-5.271-20.399-11.479-30.178-17.472
				c-7.497-4.597-15.739-11.296-23.013-16.219c-7.414-5.021-14.478-9.516-22.883-12.601c-15.828-5.806-31.767-11.311-48.25-14.898
				c-11.495-2.502-23.028-4.256-34.708-1.921"/>
		</g>
	</g>
	<g>
		<g>
			<path fill="#25242B" d="M268.856,135.294c0.72,0.104,1.312,0.477,1.458-0.319c0.266-1.46,0.771-2.854,1.353-4.216
				c0.661-1.55,1.426-3.043,2.345-4.457c0.801-1.235,0.835-1.039-0.276-1.822c-2.274,3.226-4.308,6.85-4.892,10.796"/>
		</g>
	</g>
	<g>
		<g>
			<path fill="#25242B" d="M254.226,130.1c-2.179,1.712-4.537,3.178-6.765,4.825c-0.91,0.674-1.418,1.856-2.356,2.491
				c-0.038,0.26,0.566,0.886,0.728,1.125c8.246-5.58,15.723-12.163,24.124-17.542c3.9-2.498,7.791-5.288,12.215-6.71
				c2.013-0.647,4.208-0.649,6.318-0.818c1.015-0.082,2.018-0.31,3.032-0.241c0.189-0.175,0.092-1.21,0.111-1.493
				c-6.842-0.46-13.495,2.344-19.311,5.679c-6.398,3.671-12.162,8.323-17.947,12.874"/>
		</g>
	</g>
	<g>
		<g>
			<path fill="#25242B" d="M267.814,116.065c0.036,0.499,0.001,0.889,0.039,1.388c0.011,0.157,3.099,0.437,3.477,0.41
				c2.809-0.188,5.662,1.129,8.473,1.013c5.066-0.21,10.027-1.528,15.095-1.342c9.99,0.367,19.955,0.897,29.618,3.47
				c14.029,3.736,28.527,7.333,41.838,13.14c7.023,3.064,9.125,5.931,14.99,10.914c3.819,3.246,7.404,7.576,10.516,11.504
				c2.947,3.715,8.188,9.967,11.395,13.479c8.039,8.811,21.648,11.102,32.17,16.234c16.592,8.104,33.156,16.132,51.188,20.539
				c9.371,2.291,18.743,3.025,28.389,3.242c4.685,0.104,9.499-1.104,14.174-0.791c4.279,0.28,9.028,1.045,13.159,2.186
				c5.016,1.381,9.256,5.77,13.599,8.654c5.045,3.354,6.521,10.088,10.315,14.74c7.936,9.729,19.142,15.909,28.882,23.988
				c0.319-0.386,0.575,2.632,0.896,2.246c0.087-0.104-5.872-0.843-6.153-1.093c-2.019-1.808-2.865-5.101-4.715-7.069
				c-3.363-3.592-7.125-7.066-10.152-10.941c-5.979-7.654-8.122-19.32-16.352-24.737c-7.202-4.743-12.142-8.841-20.649-9.849
				c-4.349-0.517-12.788-0.354-17.153-0.318c-5.079,0.04-11.354-0.008-16.41-0.529c-18.369-1.895-31.104-3.814-47.761-11.542
				c-6.824-3.163-17.479-9.862-24.24-13.157c-5.024-2.449-11.025-2.942-15.918-5.657c-3.388-1.879-7.555-3.062-10.334-5.773
				c-3.316-3.239-5.54-9.197-8.276-12.899c-5.315-7.181-11.4-13.762-19.062-18.425c-13.065-7.958-24.22-11.724-38.759-16.202
				c-9.793-3.015-23.148-7.652-33.353-8.869c-12.848-1.531-26.233-1.434-39.104-0.47"/>
		</g>
	</g>
	<g>
		<g>
			<path fill="#25242B" d="M262.506,136.95c1.35,0.263,1.059,0.231,1.39-1.143c0.38-1.574,1.143-3.048,1.723-4.559
				c1.183-3.081,2.564-6.122,4.398-8.867c1.805-2.699,3.852-5.358,6.335-7.459c1.095-0.927,2.356-1.705,3.605-2.413
				c0.227-0.127,1.709-0.632,1.65-0.766c-0.158-0.358-0.319-0.799-0.478-1.158c-9.794,4.339-16.391,16.252-18.367,26.404"/>
		</g>
	</g>
	<g>
		<g>
			<path fill="#25242B" d="M297.098,113.724c0.213,0.42,0.246-0.088,0.459,0.332c0.418,0.818,1.128,0.54,1.827,0.227
				c2.188-0.975,4.458-1.117,6.823-1.52c4.378-0.747,8.489-0.595,12.809,0.287c5.669,1.158,11.613,1.231,17.248,2.562
				c7.973,1.885,15.746,4.555,23.568,7.005c10.482,3.283,20.086,8.465,30.076,12.933c5.496,2.458,11.357,3.474,17.25,4.791
				c0.103-0.459,0.188,0.167,0.296-0.291c0.205-0.919-1.166-0.949-1.914-1.143c-2.813-0.73-5.87-0.831-8.582-1.872
				c-5.323-2.046-10.565-4.453-15.702-6.923c-9.966-4.797-19.497-9.718-30.242-12.422c-6.431-1.617-11.473-4.395-17.926-5.92
				c-6.521-1.541-14.555-2.386-21.292-2.601c-5.286-0.168-10.697,0.854-15.404,3.249"/>
		</g>
	</g>
	<g>
		<g>
			<path fill="#25242B" d="M400.947,137.083c0.254,0.297,0.41,0.554,0.666,0.852c0.021,0.027,2.091-1.174,2.396-1.309
				c0.844-0.378,1.698-0.769,2.613-0.918c0.559-0.089,1.13-0.089,1.694-0.093c0.865-0.006,0.758,0.526,0.99,1.269
				c0.723,2.258,1.211,4.583,1.56,6.929c0.146,1.013,0.423,2.001,0.479,3.021c0.188,0.134,0.813-0.039,1.063-0.053
				c-0.246-4.086-1.092-8.121-2.479-11.968c-0.771-0.888-2.813-0.523-4.009-0.274c-1.847,0.383-3.695,1.154-5.13,2.386"/>
		</g>
	</g>
	<g>
		<g>
			<path fill="#25242B" d="M407.854,133.422c4.372,7.946,10.736,12.793,18.317,17.42c5.428,3.312,11.742,8.475,17.279,11.597
				c8.833,4.98,18.665,8.408,27.015,14.131c8.947,6.134,15.969,11.872,25.914,16.208c8.813,3.846,14.706,7.314,24.146,9.215
				c5.164,1.033,13.925,1.986,19.061,3.177c4.949,1.146,10.827,2.646,15.566,4.479c13.858,5.346,26.917,12.613,39.9,19.76
				c0.16-0.293,0.188,0.029-0.096-0.123c-0.883-0.488-1.113-2.165-1.997-2.651c-2.021-1.11-3.294-3.569-5.313-4.683
				c-8.48-4.666-17.685-8.045-26.573-11.903c-9.524-4.135-19.491-5.752-29.749-7.312c-9.791-1.485-19.44-4.481-28.605-8.213
				c-9.996-4.07-18.388-10.92-27.396-16.877c-9.104-6.014-19.416-10.071-28.749-15.738c-12.51-7.593-27.167-14.661-35.644-27.206
				c-0.278-0.418-0.826-2.099-1.22-1.882c-0.486,0.267-2.819,1.042-3.305,1.311"/>
		</g>
	</g>
	<g>
		<g>
			<path fill="#25242B" d="M376.527,136.529c10.521,2.786,19.705,8.927,28.983,14.486c9.438,5.652,19.286,10.582,28.787,16.128
				c19.439,11.347,37.67,24.878,57.654,35.28c4.354,2.267,9.285,3.361,13.788,5.32c0.098-0.228,0.238-0.308,0.176-0.527
				c-1.143-0.497-2.397-0.636-3.532-1.155c-2.517-1.16-4.41-3.621-6.881-4.879c-4.934-2.504-10.636-3.635-15.433-6.389
				c-9.896-5.676-19.316-12.219-29.03-18.198c-9.262-5.698-18.377-11.625-27.646-17.318c-9.604-5.902-19.278-11.658-29.356-16.744
				c-5.573-2.81-11.185-5.416-17.226-7.015c-0.104,0.41,0.045-0.174-0.063,0.235"/>
		</g>
	</g>
	<g>
		<g>
			<path fill="#25242B" d="M464.27,269.057c-6.639,15.452-15.367,29.936-21.738,45.504c-3.07,7.498-6.378,14.846-9.905,22.146
				c-1.778,3.686-2.568,7.875-4.631,11.407c-1.006,1.727-2.543,3.125-3.628,4.802c-0.292,0.454-1.418,2.077-0.872,2.441
				c0.353,0.233,3.075,0.437,3.428,0.673c12.128-18.145,19.72-43.623,33.133-73.514c2.23-4.975,5.025-9.716,7.187-14.721
				c3.93-9.127,6.411-19.003,11.373-27.63c2.069-3.603,4.622-6.983,7.149-10.286c1.196-1.559,2.679-2.898,4.016-4.338
				c0.183-0.195,1.187-1.141,1.077-1.246c-0.352-0.355-0.313-0.93-0.67-1.283C477.644,235.471,471.123,253.107,464.27,269.057"/>
		</g>
	</g>
	<g>
		<g>
			<path fill="#25242B" d="M483.476,223.622c0.014,0.392,0.532,0.422,0.544,0.813c0.006,0.123,1.615,0.588,1.935,0.611
				c1.828,0.154,3.586,0.331,5.313,0.938c3.665,1.281,7.245,2.617,10.925,3.884c4.185,1.438,8.342,2.168,12.688,2.323
				c4.378,0.156,7.646,1.217,10.989,4.142c2.49,2.179,4.708,4.465,6.929,6.89c2.342,2.555,5.157,4.711,8.521,5.604
				c3.958,1.057,8.216,0.44,12.214,1.233c1.797,0.354,3.533,1.002,5.161,1.844c0.966,0.5,1.609,1.627,2.495,2.265
				c0.23-0.069,1.045-1.563,1.192-1.772c-2.914-2.104-6.427-2.619-9.974-3.153c-3.768-0.568-7.628-0.854-11.296-1.949
				c-6.445-1.926-8.906-8.106-13.597-12.325c-2.922-2.628-6.229-4.762-10.143-5.152c-4.166-0.418-8.405,0.397-12.529-0.435
				c-3.698-0.747-7.3-1.789-10.712-3.301c-3.464-1.537-6.896-3.41-10.704-3.313"/>
		</g>
	</g>
	<g>
		<g>
			<path fill="#25242B" d="M462.159,333.083c-4.354,8.642-8.536,17.376-12.888,26.017c0.317,0.159,1.731,1.147,1.939,0.736
				c0.248-0.496-0.764-1.628-0.514-2.122c0.994-1.971,2.723-3.563,3.715-5.539c2.466-4.896,5.423-9.55,7.888-14.448
				c7.621-15.136,14.413-30.666,21.611-46.011c8.412-17.937,16.84-35.944,22.876-54.825c-0.376-0.119-0.797-1.029-1.173-1.146
				c-0.16-0.052-1.356,2.829-1.457,3.136c-0.701,2.131-0.439,4.59-1.181,6.708c-1.555,4.438-3.529,8.741-5.241,13.125
				c-3.334,8.526-7.366,16.774-11.158,25.11c-7.581,16.689-15.979,32.991-24.286,49.326"/>
		</g>
	</g>
	<g>
		<g>
			<path fill="#25242B" d="M459.633,262.673c-0.396,0.009-1.72-0.171-2.011,0.063c-0.746,0.603-0.583,2.869-0.104,3.609
				c0.551,0.846,1.5,1.313,2.359,1.771c1.003,0.536,0.84,0.271,1.396-0.694c-0.954-0.511-2.869-1.109-2.869-2.395
				c0-1.178,0.547-0.998,1.439-1.023c0.561-0.018,1.104-0.066,1.661-0.083c-0.023-0.2-0.062-1.237-0.229-1.233
				c-0.548,0.02-1.104-0.039-1.647-0.021"/>
		</g>
	</g>
	<g>
		<g>
			<path fill="#25242B" d="M273.34,240.02c1.005,0.873,0.728,0.836,1.775-0.055c1.053-0.895,2.433-1.503,3.838-1.348
				c3.017,0.335,4.144,3.559,2.371,5.875c-1.532,2-4.738,3.633-6.774,1.346c-0.838-0.939-1.279-2.22-1.145-3.454
				c0.026-0.26,0.547-1.729,0.469-1.763c-0.361-0.153-0.698-0.271-1.06-0.426c-1.085,2.55-0.667,5.838,1.896,7.35
				c2.618,1.541,5.616,0.012,7.369-2.121c1.826-2.221,1.887-5.336-0.614-7.076c-2.757-1.918-6.176-0.695-8.191,1.631"/>
		</g>
	</g>
	<g>
		<g>
			<path fill="#25242B" d="M363.337,156.84c1.802,1.598,4.509,1.722,6.755,1.186c-0.309-1.287-0.125-1.157-1.494-1.02
				c-1.373,0.137-2.882-0.042-4.039-0.845c-1.033-0.72-1.547-1.901-1.619-3.144c-0.069-1.25-0.063-1.083-1.291-1.224
				c-0.211,1.839,0.318,3.735,1.734,4.99"/>
		</g>
	</g>
	<g>
		<g>
			<path fill="#25242B" d="M336.057,200.214c7.287,3.411,13.93,8.157,20.795,12.331c0.81-1.352,0.666-1.409-0.641-2.201
				c-1.275-0.777-2.506-1.635-3.781-2.412c-5.166-3.142-10.369-6.271-15.854-8.843c-0.18,0.386-0.45,0.963-0.631,1.347"/>
		</g>
	</g>
	<g>
		<g>
			<path fill="#25242B" d="M198.145,220.902c0.671,0.361,1.427,1.104,1.842,0.352c0.699-1.271,1.352-2.568,2.125-3.8
				c1.392-2.214,2.686-4.517,4.311-6.563c3.147-3.971,6.996-7.328,10.844-10.619c3.99-3.41,8.115-6.666,12.488-9.563
				c2.342-1.555,4.65-3.168,7.039-4.646c1.332-0.826,2.833-1.369,4.172-2.186c1.176-0.715,0.917-0.824,0.264-1.898
				c-8.501,5.146-17.172,10.266-24.772,16.699c-7.366,6.241-13.507,13.818-18.11,22.319"/>
		</g>
	</g>
	<g>
		<g>
			<path fill="#25242B" d="M272.582,149.255c-0.799,3.151-1.931,6.208-3.237,9.195c-0.688,1.573-1.277,3.207-2.281,4.6
				c-0.144,0.2-1.116,1.205-1,1.304c0.298,0.256,0.375,0.501,0.672,0.756c4.078-4.769,5.696-10.751,7.217-16.68
				c0.763-2.974,1.613-5.932,2.88-8.734c0.647-1.439,1.154-2.997,2.055-4.293c0.142-0.206,1.43-1.348,1.311-1.445
				c-0.303-0.25-0.526-0.295-0.829-0.545c-3.768,4.59-5.769,10.088-7.205,15.736"/>
		</g>
	</g>
	<g>
		<g>
			<path fill="#25242B" d="M360.646,344.011c2.092,1.252,4.188,2.489,6.283,3.741c2.231,1.336,4.603,2.483,6.729,3.994
				c1.057,0.749,2.089,1.544,3.088,2.372c0.734,0.613,0.564,0.295,1.121-0.354c-3.86-3.305-8.225-5.81-12.563-8.406
				c-0.959-0.574-1.757-1.426-2.714-1.993c-1.188-0.714-1.217-0.729-1.959,0.479"/>
		</g>
	</g>
	<g>
		<g>
			<path fill="#25242B" d="M243.698,266.579c0.968,4.176,2.819,7.991,4.595,11.862c0.883,1.932,1.779,3.888,2.387,5.924
				c0.092,0.309,0.453,2.693,0.578,2.67c0.383-0.075,0.638-0.262,1.023-0.338c-0.794-4.094-2.433-7.897-4.175-11.65
				c-0.865-1.863-1.643-3.755-2.31-5.699c-0.346-1.006-0.659-2.031-0.897-3.07c-0.212-0.103-0.961,0.262-1.207,0.313"/>
		</g>
	</g>
	<g>
		<g>
			<path fill="#25242B" d="M96.749,183.036c3.313,8.496,13.952,10.882,22.108,10.847c4.452-0.02,8.403-1.406,11.368-4.799
				c2.25-2.576,6.211-8.38,3.125-11.646c-0.545,0.514-1.234,0.864-0.837,1.519c0.662,1.088-0.039,2.572-0.444,3.689
				c-0.858,2.381-2.534,4.396-4.337,6.149c-4.301,4.188-10.966,3.417-16.362,2.447c-5.012-0.897-9.995-3.431-12.298-8.211
				c-1.225-2.543-1.548-5.254-0.715-7.934c0.472-1.525,1.164-2.957,2.071-4.265c0.285-0.411,1.021-0.915,0.526-1.307
				c-0.333-0.264-0.916-0.696-1.248-0.962c-3.176,3.993-4.392,9.339-2.467,14.279"/>
		</g>
	</g>
	<g>
		<g>
			<path fill="#25242B" d="M108.735,169.868c1.755,1.148,3.018,2.681,3.61,4.675c0.536,1.812,0.68,4.158,2.779,4.844
				c1.829,0.598,3.987,0.044,5.759-0.451c0.569,1.092,0.698,2.14,0.149,3.239c-0.395,0.794,0.031,0.687,0.735,1.065
				c1.021-1.901,1.147-3.603-0.038-5.493c-0.422-0.672-4.39,0.828-5.539,0.724c-2.067-0.187-2.152-2.44-2.612-4.06
				c-0.673-2.362-1.978-4.439-4.053-5.796c-0.23,0.353-0.453,0.757-0.685,1.111"/>
		</g>
	</g>
	<g>
		<g>
			<path fill="#25242B" d="M100.585,177.551c-1.222,2.983,0.312,5.751,2.792,7.465c0.224-0.32,0.409-0.642,0.632-0.964
				c-0.008,0.011-1.686-1.728-1.889-2.038c-1.086-1.646-0.851-3.546,0.291-5.104c1.1-1.508,2.774-2.488,4.569-2.944
				c1.088-0.276,2.2-0.378,3.307-0.186c0.173-0.151,0.163-1.01,0.205-1.255c-3.855-0.675-8.357,1.291-9.893,5.034"/>
		</g>
	</g>
	<g>
		<g>
			<path fill="#25242B" d="M116.854,187.625c1.045,0.549,1.676-2.665,1.786-3.316c-0.388-0.063-0.764-0.125-1.151-0.188
				c-0.03-0.005-0.669,1.938-0.816,2.199c-1.669-0.463-3.309-1.266-4.633-2.396c-1.294-1.104-2.149-2.62-2.393-4.323
				c-0.14-0.962-0.228-1.945-0.01-2.891c-0.155-0.186-0.856-0.215-1.108-0.271c-1.334,5.833,3.038,9.847,8.338,11.136"/>
		</g>
	</g>
	<g>
		<g>
			<path fill="#25242B" d="M137.172,182.743c5.066,2.569,11.491,1.848,16.913,1.271c-0.135,1.354-0.113,2.549-0.599,3.822
				c5.856-0.372,11.443,1.518,17.272,1.352c-0.023-0.861,0.293-0.848-0.668-0.85c-1.734-0.008-3.507-0.232-5.217-0.507
				c-3.212-0.521-6.314-1.665-9.586-1.595c0.167-1.362,0.136-2.664,0.59-3.969c-3.405,0.359-6.889,0.988-10.319,0.948
				c-1.908-0.021-3.755-0.489-5.603-0.989c-0.751-0.203-1.62-0.014-2.314-0.358c-0.188,0.063-0.268,0.507-0.369,0.704"/>
		</g>
	</g>
	<g>
		<g>
			<path fill="#25242B" d="M96.294,198.609c6.311,1.961,12.351,4.896,18.74,6.589c9.57,2.532,19.171,3.508,29.018,2.269
				c-0.419-0.4-0.74-0.604-1.161-1.003c1.304,0.119,2.498-0.651,3.802-0.53c1.192,0.11,0.997-0.625,1.181-1.726
				c-3.358-0.315-6.85-0.194-10.216-0.424c0.669,0.649,1.332,1.192,1.993,1.852c-14.811,1.234-29.141-3.667-43.054-7.993
				c-0.184,0.608-0.08,0.896-0.263,1.504"/>
		</g>
	</g>
	<g>
		<g>
			<path fill="#25242B" d="M151.965,204.652c0.022,0.636,0.062,1.363,0.084,1.998c11.348-0.402,24.502-1.856,33.735-9.215
				c-0.208-0.264-0.607-1.065-0.907-1.104c-1.003,0.801-2.127,1.421-3.237,2.063c-2.4,1.387-5.068,2.23-7.708,3.063
				c-7.084,2.229-14.559,3.146-21.95,3.402"/>
		</g>
	</g>
	<g>
		<g>
			<path fill="#25242B" d="M208.139,125.027c0.477-0.152,0.939-0.287,1.417-0.439c0.121-0.039-0.586-2.39-0.664-2.707
				c-0.608-2.501-0.805-5.072-1.038-7.635c-0.213-2.352-0.652-4.709-0.542-7.069c0.051-1.087,0.478-2.17,0.623-3.249
				c-0.167-0.201-1.585-0.192-1.867-0.229c-0.944,6.997-0.029,14.593,2.115,21.315"/>
		</g>
	</g>
	<g>
		<g>
			<path fill="#25242B" d="M209.061,122.433c3.243,4.324,8.711,6.648,13.253,9.365c2.363,1.414,4.531,3.118,6.696,4.828
				c2.001,1.582,3.66,3.527,5.519,5.272c7.182,6.741,15.696,12.073,25.705,13.169c0.059-0.551-0.196-1.242-0.134-1.793
				c0.044-0.414-2.54-0.839-3.115-0.964c-2.728-0.592-5.229-1.717-7.733-2.947c-4.966-2.439-9.415-5.647-13.417-9.428
				c-2.048-1.935-3.782-4.25-6.049-5.941c-2.699-2.014-6.108-2.97-8.994-4.694c-2.598-1.552-5.155-3.333-7.447-5.324
				c-0.288-0.25-2.256-2.542-2.234-2.558c-0.493,0.369-1.43,0.513-1.922,0.882"/>
		</g>
	</g>
	<g>
		<g>
			<path fill="#25242B" d="M267.957,133.646c-3.922,2.151-7.798,4.486-12.116,5.727c-2.789,0.801-5.725,1.211-8.616,1.465
				c-1.629,0.142-3.284-0.147-4.92-0.141c-1.609,0.007-1.367,0.431-1.39,1.903c7.578,0.114,15.013-1.319,21.904-4.534
				c2.92-1.364,5.556-3.26,8.402-4.764c1.976-1.047,4.226-1.518,6.324-2.292c0.296-0.109,2.373-0.961,2.338-1.082
				c-0.139-0.482-0.272-1.14-0.409-1.62c-4.085,1.176-7.957,3.031-11.666,5.066"/>
		</g>
	</g>
	<g>
		<g>
			<path fill="#25242B" d="M115.257,101.393c-3.466,1.219-5.244,4.961-6.597,8.191c-1.556,3.718-2.014,7.712-2.041,11.707
				c0.247,0.002,0.926,0.139,1.104-0.006c0.009-1.36,0.06-2.716,0.185-4.073c0.207-2.252,0.875-4.438,1.693-6.555
				c0.753-1.952,1.609-3.876,2.805-5.586c0.658-0.94,1.548-1.708,2.617-2.148c1.053-0.434,1.998-0.657,2.695-1.652
				c-0.322-0.226-0.416-0.444-0.738-0.669c0.051,0.035-1.459,0.869-1.67,0.942"/>
		</g>
	</g>
	<g>
		<g>
			<path fill="#25242B" d="M143.207,75.272c0.206,0.104,0.898,0.613,1.102,0.556c0.492-0.972,1.287-1.76,2.232-2.304
				c0.835-0.481,1.771-0.797,2.73-0.854c0.798-0.048,0.533-0.56,0.541-1.297c-2.747-0.034-5.339,1.422-6.597,3.906"/>
		</g>
	</g>
	<g>
		<g>
			<path fill="#25242B" d="M136.424,91.32c0.154,1.13,2.889-0.033,3.419-0.485c1.08-0.911,1.422-2.411,1.687-3.729
				c-1.124-0.227-1.136-0.451-1.443,0.72c-0.23,0.886-0.614,1.835-1.494,2.261c-1.636,0.792-1.458-1.271-0.868-2.291
				c0.13-0.224,1.046-1.275,0.978-1.347c-0.271-0.285-0.511-0.58-0.78-0.866c-1.68,1.584-2.384,3.52-1.497,5.74"/>
		</g>
	</g>
	<g>
		<g>
			<path fill="#25242B" d="M146.391,78.818c-0.195,0.552-0.895,2.517-0.292,2.89c1.283,0.793,2.607,1.144,4.112,1.104
				c0.858-0.023,1.046-1.927,1.112-2.535c0.113-1.031-0.208-0.804-1.182-1.011c-0.091,0.805,0.053,2.321-0.992,2.204
				c-0.823-0.092-1.997-0.187-1.816-1.159c0.112-0.584,0.326-1.148,0.521-1.707c-0.593-0.189-1.425-0.757-1.456,0.222"/>
		</g>
	</g>
	<g>
		<g>
			<path fill="#25242B" d="M132.946,75.927c-1.193,0.97-2.346,2.115-3.743,2.777c-0.226,0.107-2.065,0.407-2.039,0.516
				c0.093,0.379,0.473,0.918,0.565,1.299c3.184-0.775,5.474-3.188,8.066-4.997c2.526-1.76,4.766-2.125,7.674-1.552
				c2.271,0.43,4.447,1.281,6.521,2.338c1.136,0.579,2.43,1.062,3.238,2.06c0.16,0.197,0.83,1.771,0.918,1.731
				c0.36-0.158,0.371-0.429,0.729-0.585c-1.739-3.972-6.124-5.414-10.039-6.218c-1.817-0.374-3.695-1.278-5.558-1.054
				c-2.516,0.302-4.404,2.167-6.311,3.715"/>
		</g>
	</g>
	<g>
		<g>
			<path fill="#25242B" d="M160.209,97.924c-1.23,1.848-2.701,3.544-3.888,5.422c-1.252,1.984-2.269,4.13-3.681,6.007
				c-0.844,1.126-1.952,2.04-2.873,3.105c-0.958,1.109-0.83,1.05,0.169,1.948c4.503-5.003,7.586-10.868,11.572-16.23
				c2.248-3.026,4.861-5.818,8.253-7.592c1.595-0.835,3.193-1.722,4.938-2.145c0.958-0.233,1.932-0.464,2.903-0.634
				c0.823-0.145,0.483-0.477,0.361-1.206c-3.445,0.575-6.88,1.565-9.887,3.416c-3.212,1.976-5.478,5.036-7.679,8.046"/>
		</g>
	</g>
	<g>
		<g>
			<path fill="#25242B" d="M155.87,89.61c-7.317,5.351-9.426,16.238-9.44,24.705c0.393,0,0.968,0.214,1.36,0.216
				c0.154,0,0.311-2.335,0.328-2.641c0.097-1.863,0.059-3.745,0.378-5.584c0.657-3.793,2.061-7.465,4.052-10.783
				c1.811-3.016,4.22-5.783,7.65-6.818c1.883-0.57,3.919-0.703,5.864-0.45c1.212,0.156,2.348,0.785,3.512,1.153
				c0.194-0.13,0.439-1.446,0.514-1.686c-4.773-1.509-9.988-1.069-14.153,1.976"/>
		</g>
	</g>
	<g>
		<g>
			<path fill="#25242B" d="M149.061,111.236c-0.158,0.514-0.156,1.082-0.315,1.596c-0.045,0.15,0.739,0.306,0.928,0.365
				c1.446-4.663,2.985-9.385,5.581-13.569c1.385-2.231,2.998-4.406,5.312-5.694c1.276-0.71,2.699-1.205,4.139-1.447
				c0.268-0.044,1.902-0.056,1.897-0.189c-0.015-0.393,0.017-0.632,0.003-1.024c-11.025,0.413-14.719,11.051-17.469,19.987"/>
		</g>
	</g>
	<g>
		<g>
			<path fill="#25242B" d="M123.262,65.284c-1.444,0-1.336-0.258-1.336,1.132c0,0.519,4.542,0.146,5.133,0.151
				c4.949,0.034,9.921,0.377,14.767,1.461c4.906,1.099,8.954,3.812,13.625,5.473c4.063,1.444,8.446,0.895,12.712,1.124
				c3.68,0.201,6.988,1.602,9.981,3.878c2.439,1.856,4.119,4.493,6.192,6.734c2.396,2.587,5.079,4.765,7.906,6.902
				c3.764,2.844,8.821,4.903,11.554,8.83c1.043,1.5,1.18,3.635,1.3,5.474c0.026,0.397-0.306,1.656,0.15,1.706
				c0.552,0.061,0.69-0.516,1.242-0.455c-0.179-3.635,0.292-5.552-2.163-8.314c-3.269-3.68-8.68-7.082-12.534-10.093
				c-4.876-3.81-7.993-9.749-13.112-13.208c-6.728-4.547-15.483-2.089-22.852-4.836c-4.626-1.725-8.721-4.261-13.608-5.345
				c-4.78-1.063-9.736-0.792-14.615-0.837c-1.449-0.014-2.895,0.09-4.343,0.091"/>
		</g>
	</g>
	<g>
		<g>
			<path fill="#25242B" d="M72.326,115.185c-0.271,3.562-0.627,7.126-0.41,10.694c0.591-0.532,1.571-1.19,2.162-1.723
				c0.442,3.241,0.047,6.593-0.003,9.854c0.524,0.006,1.455,0.272,1.465-0.339c0.017-1.195,0.188-2.393,0.189-3.589
				c0.007-2.823-0.551-5.534-1.064-8.308c-0.509,0.452-0.685,0.818-1.192,1.275c-0.111-4.184-0.075-8.298,0.19-12.474
				c-1.42-0.056-0.921-0.159-1.008,1.231c-0.072,1.128-0.22,2.252-0.292,3.379"/>
		</g>
	</g>
	<g>
		<g>
			<path fill="#25242B" d="M81.625,134.267c2.348,7.312,9.12,11.657,14.156,16.975c2.767,2.924,4.574,6.113,5.567,10.028
				c0.886,3.491,1.866,6.742,4.214,9.578c0.3-0.249,0.832-0.71,1.135-0.96c0.06-0.049-1.685-2.098-1.874-2.429
				c-0.876-1.537-1.047-3.354-1.462-5.063c-1.07-4.398-2.625-8.296-5.684-11.695c-2.928-3.254-6.694-5.685-9.683-8.88
				c-1.389-1.485-2.491-3.21-3.481-4.989c-0.547-0.982-1.26-1.883-1.603-2.954c-0.206-0.086-0.959,0.28-1.189,0.354"/>
		</g>
	</g>
	<g>
		<g>
			<path fill="#25242B" d="M97.588,165.533c1.557,1.645,3.505,3.038,5.552,3.99c0.099-0.212,0.603-0.956,0.541-1.16
				c-0.987-0.46-1.922-1.036-2.812-1.663c-0.849-0.6-1.661-1.272-2.376-2.029c-0.206,0-0.81,0.767-0.976,0.923"/>
		</g>
	</g>
	<g>
		<g>
			<path fill="#25242B" d="M94.376,195.393c1.137,1.178,2.271,2.357,3.429,3.52c1.225,1.229,2.45,2.501,3.351,3.99
				c0.122,0.205,0.713,1.646,0.832,1.601c0.365-0.146,0.708-0.379,1.074-0.522c-1.131-2.834-3.334-4.912-5.403-7.061
				c-0.634-0.654-1.294-1.289-1.926-1.939c-0.599-0.623-0.695-0.021-1.317,0.516"/>
		</g>
	</g>
	<g>
		<g>
			<path fill="#25242B" d="M103.148,93.89c-2.941,3.667-5.688,7.55-7.75,11.806c-2.273,4.687-2.969,9.778-2.907,14.956
				c0.393-0.005,0.581-0.169,0.974-0.175c0.133,0,0.018-2.48,0.037-2.845c0.115-1.944,0.641-3.842,1.098-5.736
				c0.799-3.313,1.886-6.57,3.725-9.43c2.727-4.241,6.467-7.888,9.592-11.838c-1.201-0.925-1.291-0.873-2.207,0.287
				c-0.812,1.026-1.387,2.241-2.198,3.268"/>
		</g>
	</g>
	<g>
		<g>
			<path fill="#25242B" d="M91.395,116.542c0.393,0,1.045-0.197,1.437-0.197c0.174,0,0.142-1.53,0.144-1.801
				c0.02-1.75,0.291-3.483,0.42-5.23c0.23-3.097,0.636-6.178,1.806-9.075c1.013-2.507,2.279-5.005,4.489-6.588
				c1.281-0.917,2.785-1.603,4.276-2.1c0.775-0.258,1.579-0.416,2.378-0.583c0.108-0.177-0.187-1.037-0.234-1.261
				c-5.829,1.222-10.659,4.779-12.774,10.422c-1.938,5.176-1.604,10.956-1.607,16.404"/>
		</g>
	</g>
	<g>
		<g>
			<path fill="#25242B" d="M123.906,73.472c0.234,0.084,0.889,0.486,1.107,0.41c0.297-0.83,0.815-1.53,1.437-2.155
				c1.348-1.356,3.112-2.265,4.934-2.73c2.111-0.538,4.329-0.503,6.5-0.583c1.067-0.041,2.132-0.321,3.2-0.308
				c0.719,0.01,0.468-0.67,0.479-1.302c-5.702-0.1-15.306,0.067-17.667,6.672"/>
		</g>
	</g>
	<g>
		<g>
			<path fill="#25242B" d="M123.627,70.966c0.377,0.111,0.623,0.015,0.999,0.126c0.126,0.036,0.521-0.807,0.63-1.007
				c0.51-0.927,1.176-1.755,2.066-2.32c1.926-1.223,4.33-1.409,6.569-1.514c2.163-0.1,4.311,0.023,6.447,0.342
				c0.696,0.104,1.434-0.041,2.122,0.1c0.823,0.169,0.639-0.232,0.818-1.021c-5.969-1.357-17.66-2.544-19.938,5.221"/>
		</g>
	</g>
	<path fill="#25242B" d="M103.338,68.29c0.241-0.521-0.004-1.168-0.444-1.412c-0.811-1.813-2.425-3.03-4.878-3.217
		c-2.722-0.207-5.459,1.092-7.512,2.986c-0.179-0.285-0.386-0.569-0.63-0.854c-0.271-0.317-0.869-0.398-1.212-0.156
		c-5.244,3.698-9.745,9.88-12.358,15.692c-0.194,0.431-0.079,0.839,0.167,1.127C71.162,87.234,66.962,93.51,63.19,99.39
		c-4.914,7.658-10.393,16.935-11.527,26.155c-0.98,7.974,1.819,16.422,5.054,23.59c2.296,5.088,5.896,10.869,11.033,13.542
		c0.084,3.565,1.563,7.241,2.78,10.519c1.333,3.586,3.084,7.766,6.263,10.111l-0.133,0.178c0.377,0.277,0.557,0.148,0.934,0.432
		c0.216-0.84,0.969-1.545,1.188-2.384c2.227,4.806,3.836,10.146,7.331,14.213c1.916,2.229,4.048,3.284,6.549,4.675
		c0.304,0.169,2.637,2.271,2.379,2.393c0.553-0.264,1.051-0.646,1.606-0.91c-1.559-3.287-5.457-3.373-7.921-5.662
		c-3.005-2.795-4.665-6.77-6.3-10.473c-1.435-3.25-2.676-6.764-4.175-9.988c-0.397,1.581-0.975,3.226-1.368,4.809
		c-2.789-2.973-4.775-6.896-5.902-10.746c-0.573-1.965-0.806-4.062-0.959-6.104c-0.002-0.033,0-0.084,0-0.128
		c0.999,0.308,2.044,0.508,3.145,0.559c1.29,0.06,1.284-1.94,0-2c-8.468-0.392-13.284-10.271-16.024-17.094
		c-2.739-6.819-4.685-14.648-2.979-21.938c1.896-8.101,6.375-15.754,10.753-22.736c4.285-6.834,9.372-14.346,16.088-19.035
		c1.049-0.732,0.051-2.467-1.01-1.727c-0.347,0.242-0.686,0.497-1.024,0.752c2.391-4.652,5.89-9.366,9.979-12.49
		c0.055,0.096,0.089,0.193,0.134,0.29c-0.287,0.371-0.549,0.752-0.781,1.14c-0.489,0.82,0.326,1.577,1.052,1.474
		c-0.11,0.676-0.302,1.371-0.486,2.098c-0.316,1.251,1.613,1.781,1.929,0.531c0.434-1.715,0.748-3.229,0.51-4.678
		c2.899-2.826,8.188-4.47,9.748-1.053c-6.36,5.053-11.257,12.678-18.523,16.413c-0.114-0.109-0.227-0.216-0.318-0.317
		c-0.332,0.302-0.66,0.612-0.987,0.924c-0.11,0.047-0.215,0.104-0.326,0.149c-0.383,0.157-0.584,0.469-0.644,0.8
		c-2.614,2.618-4.985,5.567-6.531,8.912l-0.069-0.031c-0.183,0.395-0.145,0.847-0.327,1.243c1.153-0.279,2.229-0.603,3.39-0.838
		c-2.868,4.253-6.184,8.379-7.517,13.421c0.241,0.063,1.399,0.529,1.611,0.433c0.362-1.366,0.6-2.806,1.207-4.083
		c1.175-2.477,2.709-4.78,4.266-7.025c1.217-1.786,2.367-3.44,3.574-5.231c-1.457,0.662-2.777,1.142-4.338,1.523
		c1.241-2.271,3.218-4.205,4.978-6.096c0.373-0.401,0.746-0.797,1.124-1.187c8.146-3.432,13.177-11.32,19.863-16.826
		c0.005,0.205,0.023,0.394,0.013,0.616c-0.059,1.29,1.942,1.284,2,0C103.535,69.718,103.478,68.979,103.338,68.29z"/>
</g>
<g>
	<g>
		<path fill="#D0D2D8" d="M310.854,69.516c7.026,49.193,68.863,30.926,103.593,30.991c34.228,0.065,20.597,35.324,34.634,54.974
			c21.389,29.938,62.591,14.174,87.188,1.813c18.638-9.368,37.776-15.65,54.585-29.389c8.171-6.677,16.854-14.997,20.071-24.859
			c4.071-12.467-0.639-30.807-0.85-43.704c-0.126-7.62,2.946-21.593,0.047-28.693c-6.105-14.949-20.157-10.642-35.735-10.705
			c-46.159-0.185-92.98-2.764-139.104-0.57c-46.53,2.214-85.363,20.609-124.427,43.79"/>
		<path fill="#586361" d="M296.876-7.999c-2.542,17.791-8.26,39.393-5.719,52.735c2.542,13.342,7.626,27.32,13.979,33.674
			c6.354,6.354,29.861,17.79,46.381,16.52c16.521-1.272,22.873-10.167,38.758-15.249c15.884-5.083,26.05-10.802,26.05-10.802
			s0.635,4.448,0.635,7.625c0,3.177,0,3.177,0,3.177s-0.635,13.342,6.355,34.309c6.985,20.967,13.342,46.381,29.858,49.559
			c16.521,3.177,19.696,12.071,54.007-6.989c34.313-19.061,35.579-29.861,45.11-47.017c9.528-17.154,16.521-32.403,27.318-45.746
			c10.803-13.341,10.803-13.341,10.803-13.341L586.6,1.533L296.876-7.999z"/>
		<path fill="#47524F" d="M415.052,68.88c-9.85,4.873-22.366,5.869-33.194,10.01c-12.722,4.865-10.043,6.792-19.354,14.938
			c17.438-10.728,40.482-13.352,55.73-24.312"/>
		<path fill="#47524F" d="M529.417,133.051c-1.377,10.166-12.76,11.142-17.2,20.232c14.708-0.211,26.135-14.533,29.908-27.22"/>
	</g>
	<g>
		<g>
			<path fill="#25242B" d="M290.364,42.759c0.468-0.051,1.235,0.123,1.701,0.073c0.901-0.099,0.041-1.473-0.026-2.229
				c-0.199-2.239-0.512-4.499-0.562-6.746c-0.104-4.608,1.088-9.184,1.522-13.774c0.477-5.012,1.042-9.989,1.869-14.953
				c0.493-2.959,0.4-6.021,0.951-8.969c0.105-0.562,1.125-3.06,0.654-3.15c-0.546-0.105-0.604-0.348-1.149-0.453
				c-3.17,16.555-6.203,33.234-4.374,50.129"/>
		</g>
	</g>
	<g>
		<g>
			<path fill="#25242B" d="M287.331,34.083c1.478,5.646,3.608,11.122,5.106,16.763c2.354,8.879,3.389,19.067,9.348,26.377
				c4.981,6.111,12.033,10.501,19.32,13.183c7.984,2.939,16.924,5.39,25.438,5.971c15.22,1.04,28.479-9.556,41.978-15.208
				c7.092-2.97,15.143-4.213,21.849-8.009c3.271-1.852,6.444-4.256,9.195-6.778c-0.271-0.29-1.749-2.109-2.063-1.82
				c-0.884,0.81-0.951,2.512-1.838,3.322c-1.794,1.645-4.211,2.539-6.354,3.738c-4.06,2.269-8.812,3.189-13.113,4.914
				c-4.505,1.805-8.964,3.744-13.397,5.703c-8.64,3.816-16.854,9.851-26.205,11.731c-8.667,1.743-17.184-1.99-25.525-4.365
				c-12.012-3.416-24.542-7.898-30.236-19.944c-1.624-3.434-3.932-6.582-4.936-10.228c-1.145-4.161-0.815-8.714-1.908-12.889
				c-1.164-4.444-4.044-8.324-5.21-12.769c-0.61,0.174-0.477-0.016-1.086,0.159"/>
		</g>
	</g>
	<g>
		<g>
			<path fill="#25242B" d="M420.718,56.029c-2.428,5.663-5.355,12.375-5.229,18.691c0.026,1.438,1.021,2.708,1.563,4.039
				c0.212,0.521-0.29,1.357-0.052,1.865c0.509,1.103,1.167,0.218,2.173-0.227c-1.466-3.157-2.292-5.977-1.646-9.488
				c1.49-8.128,5.923-15.846,9.362-23.289c4.04-8.74,7.953-17.58,12.46-26.089c2.208-4.161,4.734-8.165,7.067-12.256
				c1.021-1.786,2.748-3.157,3.804-4.922c0.229-0.379,0.784-1.749,0.364-2.003c-0.475-0.288-0.521-0.336-0.999-0.624
				c-10.601,17.489-19.795,35.948-27.851,54.742"/>
		</g>
	</g>
	<g>
		<g>
			<path fill="#25242B" d="M422.121,110.477c1.104,3.71,1.979,7.477,2.748,11.277c0.633,3.124,1.628,6.134,2.349,9.246
				c1.356,5.837,2.491,12.033,5.646,17.133c6.255,10.112,17.143,18.067,29.396,18.384c0.016-0.471-0.585-1.489-0.568-1.958
				c0.02-0.847-0.085-0.996-0.819-1.053c-2.063-0.158-4.015-0.456-5.991-1.056c-3.71-1.128-7.728-2.048-10.762-4.455
				c-6.3-5.005-10.582-12.533-13.438-19.992c-1.445-3.78-2.496-7.771-3.064-11.778c-0.729-5.113-2.11-9.91-3.58-14.86
				c-2.604-8.765-5.549-18.671-3.729-27.935c0.382-1.928,0.658-3.916,1.685-5.601c0.235-0.394,1.339-1.368,0.979-1.657
				c-0.432-0.348-1.209-1.115-1.643-1.463c-7.966,9.89-3.129,25.278,0.063,35.986"/>
		</g>
	</g>
	<g>
		<g>
			<path fill="#25242B" d="M557.146,94.938c-4.607,9.28-8.5,18.891-13.851,27.774c-5.04,8.372-9.883,17.851-17.219,24.408
				c-6.826,6.105-16.662,7.987-25.181,10.998c-7.058,2.489-13.798,7.261-21.152,8.635c-4.903,0.917-10.188,0.993-15.146,0.406
				c-2.61-0.312-4.871-2.482-7.406-3.175c-0.479-0.131-1.803,0.16-1.945,0.623c-0.167,0.529-1.217,1.024-1.384,1.554
				c10.036,3.175,20.563,3.73,30.739,1.041c7.078-1.87,14.124-4.665,20.971-7.236c8.398-3.154,16.195-7.987,22.521-14.539
				c7.055-7.298,12.932-15.399,18.031-24.141c7.365-12.618,14.263-25.458,21.002-38.408c3.419-6.564,6.729-13.198,10.764-19.405
				c2.045-3.14,4.465-6.008,6.77-8.965c1.141-1.464,2.509-2.788,3.724-4.19c-0.035-0.312-1.02-0.789-1.281-1.013
				c-11.979,13.832-21.874,29.361-29.959,45.634"/>
		</g>
	</g>
	<g>
		<g>
			<path fill="#25242B" d="M556.052,102.475c-5.216,8.339-10.948,16.487-17.893,23.526c-3.263,3.304-6.825,6.306-11.05,8.286
				c-1.941,0.908-3.886,1.87-5.989,2.265c-1.069,0.2-2.174,0.083-3.262,0.134c-1.188,0.056-0.915,0.042-0.909,1.157
				c12.833-0.081,22.436-9.853,29.567-19.447c3.717-4.994,7.175-10.153,10.507-15.403c0.936-1.469,2.021-2.84,2.95-4.308
				c0.408-0.639,0.881-1.237,1.284-1.875c0.313-0.493-0.904-0.97-1.313-1.238c-1.409,2.224-2.544,4.645-3.954,6.867"/>
		</g>
	</g>
	<g>
		<g>
			<path fill="#25242B" d="M499.995,146.045c-0.011,0.423-0.042,0.792-0.05,1.215c7.565,0.207,15.179-1.207,21.974-4.753
				c6.919-3.612,12.138-9.437,16.486-15.805c-0.193-0.133-0.603-0.586-0.813-0.56c-0.609,0.898-0.972,1.988-1.625,2.859
				c-1.309,1.751-3.205,3.024-4.704,4.616c-2.563,2.729-5.108,5.599-8.354,7.484c-6.901,4.011-15.038,4.891-22.91,4.674"/>
		</g>
	</g>
	<g>
		<g>
			<path fill="#25242B" d="M532.113,138.879c0.354,0.228,0.639,0.412,0.992,0.642c3.062-4.768,4.67-10.344,5.24-15.94
				c-1.312-0.134-1.235-0.261-1.424,1.157c-0.239,1.827-0.541,3.658-1.021,5.438c-0.827,3.06-1.996,6.087-3.72,8.758"/>
		</g>
	</g>
	<g>
		<g>
			<path fill="#25242B" d="M388.622,72.039c-3.558-0.089-7.187-0.551-10.738-0.255c0.032,0.391,0.151,1.054,0.187,1.444
				c0.015,0.157,2.005,0.22,2.296,0.209c2.084-0.072,4.165-0.577,6.251-0.53c3.742,0.084,7.484,0.671,11.229,0.535
				c6.63-0.243,14.345-1.281,19.039-6.45c-0.525-0.48-1.169-1.415-1.725-0.846c-0.804,0.825-1.502,1.792-2.469,2.414
				c-2.137,1.366-4.696,1.782-7.163,2.303c-5.56,1.177-11.271,1.401-16.911,1.259"/>
		</g>
	</g>
	<g>
		<g>
			<path fill="#25242B" d="M373.62,79.705c-3.435,0.903-6.772,1.969-10.147,3.072c0.412,1.263,0.196,1.183,1.582,0.75
				c1.691-0.526,3.411-0.937,5.118-1.401c3.404-0.926,6.724-2.167,10.114-3.144c6.449-1.855,12.777-4.127,18.26-8.083
				c-0.146-0.199-0.322-0.687-0.545-0.746c-1.002,0.723-2.266,1.009-3.332,1.635c-2.115,1.241-4.129,2.673-6.402,3.584
				c-4.729,1.895-9.683,3.202-14.604,4.494"/>
		</g>
	</g>
</g>
<line id="NippleLine" fill="none" stroke="#373A95" stroke-width="3" x1="211.421" y1="310.528" x2="400.021" y2="122.031"/>
<rect id="CompressionsTarget" x="315.721" y="182.33" fill="none" width="31.925" height="28.545"/>
<g id="Hand">
	<g>
		<path fill="#008FBF" d="M400.712-162.804c-0.003,27.904,5.047,52.039,9.21,71c4.163,18.961,8.788,21.738,8.788,30.987
			c0,9.25,6.938,20.812,9.712,25.899c2.775,5.087,7.401,18.036,7.401,18.036S456.635-2.545,469.122-1.62
			c12.487,0.926,19.885,0.926,19.885,0.926s3.239-13.875,12.489-20.35c9.249-6.475,16.648-10.637,23.587-24.512
			c6.936-13.875,15.259-16.187,19.884-18.962c4.626-2.775,11.563-12.486,18.501-19.886c6.938-7.4,27.743-25.755,34.681-33.617
			c6.938-7.862,12.449-17.46,16.147-21.16c3.703-3.7,9.664-17.137,9.664-17.137l-101.713,0.186l-39.713,62.94l-4.126-66.838
			L400.712-162.804z"/>
		<path fill="#EDAF8B" d="M443.451-24.05c0,0-8.558,7.862-15.492,13.644c-6.938,5.78-15.031,10.636-21.505,16.879
			c-6.479,6.244-14.572,8.789-17.576,16.188c-3.006,7.399-6.705,12.255-6.705,12.255s2.775,2.313,4.162,2.313
			c1.388,0,0.462,6.938,0,9.25c-0.463,2.312-9.712,16.649-9.712,16.649s3.005,2.312,7.398,0.23c4.395-2.081,6.476-4.625,6.476-4.625
			l-9.019,29.369c0,0,5.086,2.773,10.638-3.239c5.549-6.012,5.549-11.562,5.549-11.562l7.168,2.081c0,0-0.924,14.801-1.848,20.35
			c-0.93,5.551-4.163,14.106,1.615,13.181c5.781-0.924,9.714-15.262,11.563-22.197c1.849-6.938,3.005-9.713,3.005-9.713
			s4.396,2.311,5.78,2.543c1.387,0.231,1.387,5.547,0.927,8.786c-0.464,3.238-7.168,15.957-6.014,22.432
			c1.157,6.474,8.325,5.084,11.794-0.926c3.469-6.012,12.717-33.53,12.717-33.53s1.391,0.924,3.933,0.694
			c2.544-0.232,3.934-0.694,3.934-0.694s-0.003,3.699,1.848,6.474c1.854,2.775,2.776,3.7,2.776,3.7s7.633-11.101,11.563-14.8
			c3.934-3.699,4.162-6.707,6.243-13.875c2.082-7.167,8.555-11.793,8.555-16.88c0-5.087,1.618-13.412-0.691-22.893
			c-2.313-9.482-4.161-13.181-4.161-13.181l2.771-5.55c0,0-12.947,0.23-22.893-6.476C448.308-13.875,443.451-24.05,443.451-24.05z"
			/>
		<path fill="#C58D6D" d="M477.907,5.55c0.383,2.082,1.499,3.796,1.878,5.805c-3.571,1.661-7.257,9.593-9.11,13.116
			c-2.252,4.276-3.095,8.916-5.081,13.176c-2.935,6.292-5.509,13.646-9.672,19.4c0.18-9.455,2.653-15.625,7.179-23.674
			c2.693-4.791,5.089-10.121,7.406-15.335c1.678-3.767,4.238-7.628,6.707-10.869"/>
		<path fill="#F2D7C6" d="M465.188,76.772c-4.447-8.936-9.146,4.318-8.979,9.218c2.771-0.783,5.748-6.515,7.825-8.756"/>
		<path fill="#F2D7C6" d="M426.338,114.695c3.239-3.278,2.554-11.261-2.831-8.386c-4.076,2.175-3.979,9.244,1.444,8.849"/>
		<path fill="#F2D7C6" d="M406.684,108.453c-0.007-2.109-1.729-10.402-4.631-7.168c-1.987,2.22-0.566,9.274,3.243,7.63"/>
		<path fill="#F2D7C6" d="M387.26,87.872c0.281-2.268,4.067-7.24,0.403-8.741c-3.817-1.566-4.577,6.675-5.455,8.694
			c0.849,0.281,2.192,0.495,3.2,0.279"/>
		<path fill="#F2D7C6" d="M378.011,63.36c0.873-0.45,9.144-5.325,5.261-7.572c-2.022-1.17-5.483,6.076-5.725,7.803"/>
		<path fill="#F2D7C6" d="M384.948,35.61c0.661-0.596,9.862-7.926,3.53-8.566c-1.346-0.135-6.302,7.756-4.227,9.029"/>
		<path fill="#C58D6D" d="M392.578,53.648c4.027-4.312,10.729,0.471,11.068-7.596c-2.546,0.328-8.465,3.873-10.146,5.746"/>
		<path fill="#C58D6D" d="M404.603,75.153c0.774-4.781,3.902-6.45,7.869-7.861c3.265-1.163,6.791-1.656,5.775-6.013
			c-1.586-6.801-14.176,6.737-13.875,11.563"/>
		<path fill="#C58D6D" d="M426.108,79.315c0.865-4.425,11.582-17.712,15.509-9.788c-0.054-3.804,0.498-11.311-5.354-8.081
			c-5.288,2.919-4.313,11.203-8.77,13.938"/>
		<path fill="none" d="M444.838-19.888c2.045,3.965,3.172,7.759,6.472,10.918c3.125,2.995,6.843,5.298,10.378,7.699
			c2.643,1.792,4.613,3.341,7.779,4.328c2.785,0.866,4.924,1.009,7.055,3.214c1.269-1.119,3.093-5.368,3.689-7.167
			c-5.73,0.095-12.861-1.434-17.438-4.585c-2.87-1.976-5.866-3.403-8.736-5.268c-3.098-2.015-4.296-4.588-6.652-7.287"/>
	</g>
	<g>
		<g>
			<path fill="#231F20" d="M444.028-31.239c-0.604-0.344-0.675-1.229-1.276-1.575c0.899-1.574,2.387-2.575,3.915-3.325
				c1.855-0.911,3.282-2.131,4.74-3.602c3.808-3.844,7.073-8.125,9.203-13.024c4.128-9.496,8.255-18.813,13.566-27.723
				c12.354-20.708,35.226-60.201,48.433-80.379c1.362,0.893,2.132,0.806,1.11,2.372c-1.724,2.641-14.706,23.522-16.401,26.182
				c-3.517,5.516-7.331,10.852-10.765,16.42c-6.621,10.741-12.85,21.728-19.315,32.56c-5.477,9.166-10.14,18.638-14.34,28.448
				c-2.387,5.57-4.372,11.51-8.44,16.1c-1.552,1.749-3.319,3.426-5.357,4.584c-1.318,0.752-4.089,0.976-4.855,2.324"/>
		</g>
		<g>
			<path fill="#231F20" d="M480.471,0.439c-18.47,0.002-46.48-16.66-35.71-38.207c2.002,1.002,2.148,0.984,1.438,2.916
				c-0.724,1.956-1.103,3.974-1.203,6.056c-0.376,7.521,3.684,13.918,9.62,18.159c6.628,4.734,14.627,8.167,22.803,8.854
				c2.338,0.197,4.632-0.359,6.966-0.359c1.804,0,3.46-0.572,5.021-1.448c0.348-0.197,1.178,1.583,1.395,1.928
				c-3.114,1.95-6.771,2.292-10.325,2.292"/>
		</g>
		<g>
			<path fill="#231F20" d="M488.408,0.57c2.183-1.324,1.973-1.346,2.759-3.591c1.027-2.93,2.805-5.371,4.58-7.889
				c1.858-2.631,3.257-5.583,5.485-7.913c2.656-2.779,6.438-3.472,9.654-5.417c6.076-3.672,10.565-10.802,14.288-16.639
				c3.813-5.974,6.558-13.647,11.956-18.417c2.837-2.503,6.012-3.171,9.479-4.409c3.851-1.375,5.65-5.38,7.921-8.657
				c5.037-7.275,11.081-13.577,17.434-19.761c7.38-7.185,15.879-13.146,23.209-20.376c3.647-3.6,6.374-8.021,9.53-12.042
				c1.438-1.831,2.315-4.05,3.891-5.765c-0.072-0.395,11.319-16.808,11.006-17.096c-7.069,7.708-16.441,25.158-32.468,39.222
				c-7.759,6.809-15.562,13.461-22.521,21.117c-3,3.3-6.238,6.477-8.78,10.146c-2.203,3.183-3.639,7.444-6.883,9.707
				c-3.229,2.252-7.775,2.002-11.138,4.11c-2.528,1.587-4.983,3.487-6.662,5.937c-4.823,7.037-8.403,14.769-13.596,21.592
				c-2.006,2.636-3.859,5.414-6.431,7.523c-3.087,2.535-7.601,2.949-10.685,5.503c-3.165,2.622-5.136,7.099-7.479,10.421
				c-1.938,2.747-6.04,8.479-3.834,12.119"/>
		</g>
		<g>
			<path fill="#231F20" d="M443.369-27.703c-0.864-1.181-0.397-1.244,0.773-1.721c1.977-0.804,3.885-1.782,5.75-2.813
				c3.534-1.951,5.227-5.801,8.642-7.811c0.98,0.933,0.553,1.083-0.293,1.774c-1.535,1.26-2.578,3.042-3.937,4.478
				c-2.847,3.016-7.153,4.638-10.959,6.09"/>
		</g>
		<g>
			<path fill="#231F20" d="M445.651-23.165c-0.335-0.263-0.642-0.723-0.897-1.069c3.258-2.423,6.997-4.28,10.068-6.936
				c1.218-1.054,2.337-2.218,3.371-3.449c0.925-1.101,1.97-3.827,3.338-1.954c-4.646,5.847-9.996,9.092-15.914,13.495"/>
		</g>
		<g>
			<path fill="#231F20" d="M446.725-17.11c-0.371-0.214-0.625-0.615-0.93-0.921c3.344-3.303,7.188-6.088,10.696-9.218
				c1.556-1.389,3.214-2.766,4.412-4.489c0.767-1.107,0.661-2.737,2.384-2.157c-0.104,3.367-4.291,6.243-6.565,8.25
				c-3.279,2.9-6.983,5.378-10.1,8.457"/>
		</g>
		<g>
			<path fill="#231F20" d="M451.567-15.187c-1.645-1.376,0.632-2.139,1.732-2.941c1.791-1.301,3.503-2.713,5.111-4.237
				c1.679-1.591,3.314-3.269,4.586-5.207c0.863-1.317,1.424-5.009,3.313-3.655c-2.506,6.961-8.771,11.882-14.714,15.88"/>
		</g>
		<g>
			<path fill="#231F20" d="M455.348-9.755c-1.759-1.085-0.021-1.938,0.939-2.937c1.545-1.605,3.033-3.265,4.414-5.013
				c3.003-3.8,5.717-7.791,8.588-11.69c1.898,0.727,0.354,1.705-0.443,2.816c-1.288,1.792-2.591,3.574-3.889,5.361
				c-2.922,4.024-5.981,7.976-9.632,11.373"/>
		</g>
		<g>
			<path fill="#231F20" d="M461.7-8.661c-0.403-0.144-0.789-0.588-1.143-0.834c2.348-3.356,5.24-6.288,7.731-9.533
				c1.222-1.594,2.384-3.258,3.354-5.019c0.718-1.298,1.088-4.376,2.942-2.984c-2.79,7.105-8.556,12.224-12.851,18.358"/>
		</g>
		<g>
			<path fill="#231F20" d="M465.843-5.567c-1.732-1.12-0.084-1.766,0.9-2.738c1.423-1.409,2.815-2.862,4.01-4.473
				c2.813-3.795,3.662-8.654,6.036-12.688c1.898,0.5,0.59,1.605,0.021,2.824c-0.883,1.896-1.586,3.872-2.423,5.788
				c-1.965,4.49-4.931,8.236-8.556,11.478"/>
		</g>
		<g>
			<path fill="#231F20" d="M471.569-4.842c-1.272-0.547-0.976-0.85-0.282-1.795c1.236-1.691,2.26-3.535,3.28-5.364
				c2.023-3.624,3.927-7.45,6.891-10.42c1.264,0.715,0.954,1.083,0.151,2.006c-1.491,1.714-2.661,3.657-3.791,5.621
				c-1.951,3.391-3.683,6.979-6.155,10.036"/>
		</g>
		<g>
			<path fill="#231F20" d="M477.927-2.929c-0.429-0.027-0.933-0.354-1.342-0.494c1.109-3.257,3.25-6.49,4.84-9.554
				c1.701-3.271,3.577-6.521,5.591-9.607c1.484,0.491,1.249,1.059,0.512,2.227c-1.343,2.118-2.62,4.268-3.814,6.471
				c-1.88,3.462-4.443,7.223-5.708,10.942"/>
		</g>
		<g>
			<path fill="#231F20" d="M484.435-4.636c-2.374-0.575,0.657-6.572,1.458-8.013c1.092-1.959,2.61-3.651,3.892-5.485
				c0.813-1.168,1.368-3.846,2.91-2.22c-1.487,2.504-3.146,4.83-4.683,7.3c-1.646,2.656-1.978,5.708-3.501,8.331"/>
		</g>
		<g>
			<path fill="#231F20" d="M488.522-3.606c-0.427,0.013-0.805-0.148-1.22-0.252c1.429-5.715,4.032-12.17,8.23-16.42
				c1.989,1.075-1.868,4.584-2.707,6.088c-1.858,3.329-3.36,6.947-4.284,10.652"/>
		</g>
		<g>
			<path fill="#231F20" d="M434.954-18.679c-1.181-11.772-11.919-19.113-15.206-30.166c-1.729-5.816-1.55-11.89-2.756-17.795
				c-1.008-4.935-3.509-9.256-5.084-14.033c-6.779-20.585-11.67-42.376-13.181-82.194c0.1,2.576,2.852,0.257,2.95,3.008
				c0.119,3.341,2.036,24.464,2.321,27.794c0.555,6.441,1.43,13.7,2.605,20.057c1.776,9.616,3.187,18.864,6.188,28.167
				c1.396,4.338,3.301,8.679,4.625,13.041c1.842,6.062,2.158,12.283,3.456,18.456c2.67,12.692,14.396,20.45,15.701,33.467
				c-0.689,0.069-0.771-0.038-1.458,0.031"/>
		</g>
		<g>
			<path fill="#231F20" d="M382.457,36.369c-0.425-0.454-0.498-1.237-0.924-1.691c-0.186-0.199,2.85-3.123,3.281-3.661
				c2.252-2.8,2.826-5.813,3.81-9.223c2.239-7.759,11.32-10.306,16.828-15.413c5.914-5.479,10.586-11.373,17.664-15.473
				c3.281-1.9,6.759-3.395,9.413-6.138c2.938-3.041,5.571-6.914,9.58-8.617c0.242,0.572,0.479,1.193,0.723,1.765
				c0.054,0.129-3.013,2.504-3.461,2.91c-2.854,2.587-5.104,5.809-8.141,8.2c-6.228,4.904-13.396,7.516-18.979,13.351
				c-2.775,2.904-5.495,5.813-8.703,8.251c-2.903,2.206-6.281,3.778-9.123,6.059c-2.935,2.355-3.392,5.708-4.543,9.082
				c-1.364,4.012-4.224,7.523-7.271,10.374"/>
		</g>
		<g>
			<path fill="#231F20" d="M454.024,78.133c-0.604-0.147-1.275-0.022-1.882-0.171c-0.362-0.09,0.681-3.462,0.783-4.009
				c0.696-3.622,0.857-7.328,1.321-10.985c1.012-8.005,1.971-16.183,5.061-23.709c2.438-5.939,6.287-11.192,9.295-16.848
				c3.908-7.348,7.241-14.991,11.535-22.125c0.534,0.321,1.236,0.079,1.771,0.4c0.332,0.2-2.385,3.699-2.667,4.197
				c-1.949,3.454-3.084,7.349-4.913,10.866c-3.115,5.992-6.707,11.729-9.858,17.699C456.96,47.683,457.758,63.205,454,78.467"/>
		</g>
		<g>
			<path fill="#231F20" d="M446.95,78.337c-1.694,0-3.267-0.641-4.024-2.219c0.561-0.269,1.146-0.597,1.707-0.867
				c0.171-0.081,1.309,0.981,1.828,1.053c2.696,0.371,5.523-1.343,7.941-2.289c0.55,1.412,1.271,1.777-0.297,2.44
				c-2.24,0.955-4.678,1.982-7.155,1.982"/>
		</g>
		<g>
			<path fill="#231F20" d="M444.851,79.51c-1.786-4.281-4.199-8.181-4.188-12.958c0.013-2.734-1.32-3.825-0.63-6.243
				c3.134,0.897,2.734,4.958,2.815,7.444c0.122,3.88,2.471,7.477,3.927,10.967c-0.643,0.267-1.334,0.531-1.978,0.799"/>
		</g>
		<g>
			<path fill="#231F20" d="M424.66,80.166c-0.553-1.886-0.619-1.63,0.692-2.866c1.883-1.769,3.13-4.336,4.219-6.621
				c1.794-3.762,5.442-14.353,11.444-10.766c-0.229,0.387-0.594,0.771-0.821,1.157c-0.688,1.149-0.959-0.062-2.18,0.309
				c-2.148,0.654-3.521,3.649-4.451,5.451c-2,3.875-4.054,11.745-8.823,13.147"/>
		</g>
		<g>
			<path fill="#231F20" d="M424.295,80.892c-5.85,0-9.356-5.912-8.152-11.059c0.71-3.032,1.777-6.22,1.771-9.372
				c-0.001-0.814-0.775-1.441-0.752-1.792c0.047-0.62,0.188-1.384,0.235-2.005c5.934,0.442,0.646,12.372,0.221,15.35
				c-0.398,2.764,2.212,5.371,4.536,6.469c2.475,1.162,3.15-0.568,4.353,2.018c-0.643,0.292-1.502,0.572-2.209,0.57"/>
		</g>
		<g>
			<path fill="#231F20" d="M403.11,73.766c-0.578-0.384-1.066-0.824-1.646-1.208c1.813-2.74,3.867-5.365,6.031-7.83
				c2.448-2.793,6.373-7.616,10.517-7.616c-0.011,0.856,0.411,1.884-0.479,2.055c-1.795,0.343-3.467,1.784-4.766,2.967
				c-3.671,3.354-6.947,7.366-9.7,11.5"/>
		</g>
		<g>
			<path fill="#231F20" d="M403.486,75.624c-4.087,0-7.881-2.403-9.338-6.17c-1.529-3.948-0.133-7.521,1.948-10.934
				c2.171-3.554,5.338-6.948,6.481-11.016c0.389-1.382,0.242-3.019-0.728-4.208c0.146-0.428,1.393-1.106,1.758-1.404
				c4.829,5.945-4.845,15.408-7.222,20.549c-1.478,3.193-0.322,7.029,2.321,9.33c1.446,1.26,3.258,1.768,5.173,1.68
				c0.252,0.283-0.034,1.887-0.016,2.294c-0.158,0.004-0.221,0.185-0.38,0.188"/>
		</g>
		<g>
			<path fill="#231F20" d="M392.945,52.841c-3.584-1.536-4.465-5.67-4.067-9.122c0.498-4.345,3.332-7.219,4.44-11.218
				c1.084-3.916,0.307-8.28,3.125-11.604c1.263-1.492,3.058-2.646,3.892-4.461c0.679-1.475,1.094-1.04,2.74-0.837
				c-0.45,3.66-4.233,5.187-5.664,8.26c-1.8,3.857-0.922,8.271-3.293,11.967c-2.125,3.309-4.13,7.548-3.222,11.61
				c0.326,1.46,1.498,2.845,2.938,3.463c0.073,0.442-1.029,1.598-1.215,2.029"/>
		</g>
		<g>
			<path fill="#231F20" d="M386.79,37.876c-2.214,0-3.696-1.443-5.378-2.653c-1.547-1.114-0.986-0.94-0.105-2.437
				c3.088,1.821,4.959,4.196,8.689,2.03c1.244-0.721,2.775-1.951,2.771-3.533c0.428-0.236,1.604-0.036,2.104-0.037
				c0.015,3.781-4.655,6.651-8.084,6.651"/>
		</g>
		<g>
			<path fill="#231F20" d="M376.917,64.477c-0.599-0.353-1.147-0.494-1.746-0.847c2.947-4.97,6.497-9.559,9.058-14.758
				c1.152-2.343,2.095-4.84,2.522-7.425c0.417-2.528-0.278-2.579,2.19-2.512c-0.266,9.864-7.305,17.665-12.077,25.718"/>
		</g>
		<g>
			<path fill="#231F20" d="M381.041,65.571c-2.188,0-3.975-1.279-5.672-2.485c0.962-1.352,0.699-1.969,2.255-0.905
				c2.2,1.504,3.913,1.675,6.306,0.379c1.891-1.024,3.807-2.217,5.299-3.774c1.43-1.496,0.947-1.437,2.78-0.427
				c-1.81,3.284-7.077,7.345-10.968,7.345"/>
		</g>
		<g>
			<path fill="#231F20" d="M383.125,89.073c-0.668-0.189-1.271-0.552-1.938-0.741c2.024-7.186,4.978-14.073,7.27-21.173
				c1.158-3.59,2.061-7.277,2.871-10.962c0.41-1.864,0.779-3.729,1.047-5.617c0.334-0.196,1.379,0.18,1.789,0.238
				c-1.873,13.183-7.518,25.313-11.113,38.042"/>
		</g>
		<g>
			<path fill="#231F20" d="M385.116,89.902c-1.269,0-2.611-0.36-3.813-0.749c0.793-2.444,0.848-1.538,3.291-1.375
				c2.064,0.141,4.064-0.593,5.609-1.951c1.906-1.677,3.027-4.119,4.146-6.362c0.732-1.466,1.461-2.938,2.084-4.453
				c0.346-0.115,1.489,0.628,1.854,0.776c-2.392,5.81-5.722,13.96-13.171,13.96"/>
		</g>
		<g>
			<path fill="#231F20" d="M392.842,53.886c-0.605-0.34-1.191-0.572-1.799-0.912c1.588-2.832,5.263-4.196,7.996-5.563
				c1.426-0.712,2.948-1.465,4.09-2.608c0.389,0.049,1.187,1.207,1.482,1.503c-3.163,3.167-9.535,3.724-11.762,7.697"/>
		</g>
		<g>
			<path fill="#231F20" d="M400.37,110.613c-0.223-6.274,0.661-11.577,1.999-17.651c1.564-7.105,0.519-14.589,1.898-21.722
				c0.427,0.084,2.219,0.171,2.495,0.472c-0.463,2.401-1.082,4.811-1.265,7.248c-0.364,4.821-0.407,9.675-1.46,14.414
				c-0.81,3.644-1.589,6.918-1.671,10.687c-0.048,2.16-0.303,4.296-0.228,6.456c-0.305,0.253-1.396,0.115-1.815,0.128"/>
		</g>
		<g>
			<path fill="#231F20" d="M404.456,110.259c-1.383,0-2.515-0.663-3.575-1.525c0.279-0.343,0.705-1.334,1.109-1.45
				c1.505,1.221,3.317,1.065,4.872-0.005c3.219-2.218,4.54-6.398,5.273-10.035c0.857-4.243,2.543-7.962,3.976-12.032
				c0.773-2.2,1.233-4.602,1.141-6.96c0.308-0.252,1.469-0.055,1.895-0.073c0.259,6.327-3.68,12.164-4.868,18.281
				c-0.975,5.011-3.284,14.004-9.82,14.004"/>
		</g>
		<g>
			<path fill="#231F20" d="M423.394,117.137c-7.646,0-4.188-13.744-2.778-17.671c1.396-3.899,3.144-7.685,4.103-11.729
				c0.502-2.121,0.947-4.28,0.957-6.462c0.013-1.94,0.408-1.465,2.135-1.547c0.417,8.961-4.57,16.163-6.54,24.585
				c-0.632,2.71-1.141,6.213-0.187,8.89c0.418,1.167,1.446,1.983,2.776,1.769c0.299,0.352-0.02,1.375,0.059,1.848
				c-0.266,0.021-0.268,0.013-0.534,0.035"/>
		</g>
		<g>
			<path fill="#231F20" d="M424.352,116.846c-0.986,0-1.775-0.205-2.726-0.471c0.403-1.428-0.081-2.291,1.477-2.017
				c1.664,0.291,3.204,0.281,4.493-0.862c3.336-2.956,4.974-9.146,6.295-13.227c1.778-5.481,3.865-10.738,5.984-16.098
				c0.939-2.382,2.021-4.745,2.492-7.271c0.438-2.331,0.021-2.196,2.315-2.103c-0.179,4.407-1.73,8.799-3.399,12.812
				c-1.805,4.339-3.474,8.6-4.901,13.072c-1.719,5.373-4.896,16.287-12.03,16.287"/>
		</g>
		<g>
			<path fill="#231F20" d="M483.081,45.636c-2.556-0.411-2.035-0.555-1.61-3.24c0.666-4.218,1.222-8.459,1.413-12.728
				c0.169-3.687,0.045-7.368-1.171-10.887c-1.367-3.958-3.179-7.681-3.689-11.898c0.616-0.075,0.975-0.456,1.594-0.531
				c0.149-0.019,1.382,4.825,1.628,5.468c1.602,4.179,3.377,8.035,3.683,12.572c0.477,7.071-0.61,14.203-1.735,21.157"/>
		</g>
		<g>
			<path fill="#231F20" d="M456.692,88.408c-1.158-1.163-1.843-1.075-0.688-2.439c1.968-2.333,3.49-4.986,5.262-7.46
				c3.179-4.434,8.858-7.737,10.69-13.04c1.929-5.58,0.866-11.063,4.585-16.093c1.758-2.379,4.089-4.292,6.146-6.408
				c1.604-1.651,1.509-1.542,3.085-0.079c-2.944,3.167-6.301,6.127-8.513,9.894c-2.274,3.879-2.284,8.187-3.453,12.393
				c-1.341,4.83-5.083,8.378-8.381,11.888c-3.302,3.511-5.604,7.693-9.015,11.094"/>
		</g>
		<g>
			<path fill="#231F20" d="M457.402,87.751c-3.059-1.204-6.057-6.042-6.182-9.271c0.431-0.016,1.729-0.313,2.063-0.085
				c0.053,1.353,0.787,2.747,1.479,3.863c0.743,1.198,1.694,2.446,2.88,3.248c0.844,0.571,0.099,1.29-0.267,2.214"/>
		</g>
		<g>
			<path fill="#231F20" d="M458.317,54.181c-0.459-0.521-0.885-0.894-1.344-1.415c2.989-2.621,5.973-5.241,8.699-8.14
				c1.694-1.799,3.167-3.814,4.398-5.965c1.201-2.093,0.77-2.117,2.924-1.229c-2.875,6.961-9.271,11.952-14.777,16.779"/>
		</g>
		<g>
			<path fill="#231F20" d="M459.063,61.129c-0.688-0.065-1.47-0.058-2.158-0.125c0.292-3.081,2.425-5.617,3.692-8.339
				c1.072-2.309,0.391-2.5,2.818-1.987c-0.789,3.743-4.039,6.688-4.399,10.51"/>
		</g>
		<g>
			<path fill="#231F20" d="M457.09,81.966c-0.422,0.064-0.878-0.092-1.303-0.142c0.408-3.514,6.344-13.971,8.636-6.127
				c-2.162,1.398-1.802-3.16-4.075-0.624c-1.592,1.771-2.938,4.531-3.216,6.917"/>
		</g>
		<g>
			<path fill="#231F20" d="M444.888,52.507c-0.632-0.005-1.25-0.065-1.861-0.217c-0.107-2.203,2.345-0.87,3.821-1.696
				c1.914-1.07,3.055-3.242,4.721-4.631c2.473,1.669-4.568,6.577-6.681,6.577"/>
		</g>
		<g>
			<path fill="#231F20" d="M430.845,50.507c-5.171,0-5.151-4.238-8.555-6.733c-2.024-1.486-4.172-0.343-6.373-0.315
				c-1.9,0.022-3.551-1.095-4.593-2.614c-2.234-3.258-1.992-6.931-6.505-7.025c-3.905-0.082-9.466-3.994-6.403-8.369
				c1.899,0.631,0.216,2.462,0.827,4.022c1.019,2.593,3.858,3.048,6.38,3.013c4.659-0.07,4.485,5.024,6.735,8.004
				c3.201,4.245,8.921-1.371,12.344,3.07c1.615,2.099,2.2,5.251,5.262,5.489c1.521,0.116,3.229-1.055,2.786,1.121
				c-0.669,0.046-1.236-0.119-1.905-0.119"/>
		</g>
		<g>
			<path fill="#231F20" d="M427.207,115.22c-0.419-0.072-0.938-0.376-1.327-0.563c0.946-1.996,3.321-5.251,0.846-7.024
				c-3.03-2.17-4.355,0.501-6.064,2.725c-2.778-1.125,2.366-5.399,4.562-4.882c5.565,1.313,3.799,6.122,2.031,9.821"/>
		</g>
		<g>
			<path fill="#231F20" d="M406.671,109.087c-2.339,0.187-0.716-4.087-1.364-5.813c-1.279-3.411-2.744-0.035-4.35-0.612
				c0.172-3.165,3.538-2.906,5.132-0.88c1.469,1.865,1.037,5.167,0.585,7.323"/>
		</g>
		<g>
			<path fill="#231F20" d="M386.842,88.632c-1.935-0.934,1.492-4.737,1.256-6.891c-0.508-4.61-2.429-0.326-4.043-1.747
				c1.289-2.741,3.887-2.557,5.014,0.206c1.14,2.789-0.252,6.361-2.16,8.465"/>
		</g>
		<g>
			<path fill="#231F20" d="M378.984,63.81c-1.33-1.545,1.308-2.746,2.146-4.095c0.979-1.58,0.401-4.546,2.118-5.07
				c1.886,2.855-1.602,8.019-4.25,9.195"/>
		</g>
		<g>
			<path fill="#231F20" d="M385.282,36.516c-1.771-1.611,3.015-3.702,4.079-5.332c1.225-1.873-1.434-2.543,0.099-3.953
				c4.959,2.97-1.601,7.558-4.173,9.191"/>
		</g>
		<g>
			<path fill="#231F20" d="M434.338-35.458c-0.671-6.394-4.07-12.117-5.083-18.443c0.613-0.098,1.232-0.094,1.848-0.192
				c0.227-0.037,1.57,4.824,1.796,5.51c1.387,4.227,3.017,8.444,3.482,12.907c-0.688,0.073-1.373,0.07-2.063,0.142"/>
		</g>
		<g>
			<path fill="#231F20" d="M480.826-97.989c0.591-9.783-3.596-50.795-3.344-60.479c0.604-0.14,1.53-0.704,2.135-0.841
				c0.223-0.053,2.333,40.195,2.412,41.245c0.507,6.485,0.713,12.894,0.301,19.724c-0.672,0.099-1.098,0.338-1.77,0.437"/>
		</g>
	</g>
	<rect id="FingersTarget" x="426.108" y="4.121" fill="none" width="27.032" height="23.595"/>
	<polyline id="FingersClick" fill="#231F20" fill-opacity="0" points="375.171,57.111 384.895,11.833 430.198,-25.563 
		485.771,1.726 488.964,39.377 463.287,87.783 431.826,116.542 375.171,89.073 	"/>
</g>
<rect id="FingersTargetFixed" x="469.471" y="63.004" fill="none" width="27.034" height="23.595"/>
</svg>
