<?xml version="1.0" encoding="utf-8"?>
<!-- Generator: Adobe Illustrator 15.0.0, SVG Export Plug-In . SVG Version: 6.00 Build 0)  -->
<!DOCTYPE svg PUBLIC "-//W3C//DTD SVG 1.1//EN" "http://www.w3.org/Graphics/SVG/1.1/DTD/svg11.dtd">
<svg version="1.1" id="Layer_1" xmlns="http://www.w3.org/2000/svg" xmlns:xlink="http://www.w3.org/1999/xlink" x="0px" y="0px"
	 width="640px" height="360px" viewBox="0 0 640 360" enable-background="new 0 0 640 360" xml:space="preserve">
<g>
	<path fill="#586361" d="M197.548-5.787c1.297,17.514,6.487,51.245,7.135,108.976c0.648,57.732,0,66.164,0.648,69.408
		c0.649,3.243-11.675,20.756,50.595,22.702c62.273,1.946,72.651-36.974,72.651-36.974s-1.946-28.541,5.19-52.542
		c7.137-24,5.188-33.082,6.484-36.326c1.299-3.243,1.947-5.189,1.947-5.189s3.893,54.488,9.083,77.191
		c5.188,22.704,6.485,39.568,7.136,42.813c0.646,3.244,32.434,15.568,62.92,12.976c30.488-2.597,32.437-35.676,40.866-66.164
		c8.436-30.487,12.973-48.002,18.162-73.949c5.187-25.946,13.62-63.569,13.62-63.569L197.548-5.787z"/>
	<g>
		<g>
			<path fill="#25242B" d="M196.477-5.049c3.834,13.417,4.294,27.755,5.406,41.615c1.59,19.801,2.73,39.691,2.641,59.551
				c-0.083,18.043-0.879,36.082-0.991,54.123c-0.025,4.215,0.175,8.567,0.641,12.766c0.877-0.098,2.65,0.084,2.562-0.908
				c-0.096-1.042,0.31-2.07,0.281-3.117c-0.097-3.438-0.085-6.848-0.061-10.287c0.028-3.855-0.506-7.717-0.488-11.572
				c0.049-10.917-0.205-21.693-0.154-32.61c0.14-30.892-1.077-62.187-5.909-92.771c-0.905-5.724-0.565-11.77-2.16-17.347
				c-0.623,0.179-0.4,0.209-1.023,0.387"/>
		</g>
	</g>
	<g>
		<g>
			<path fill="#25242B" d="M337.857,82.63c-0.522,4.829-0.51,9.8-1.912,14.467c-0.573,1.851-1.084,3.731-1.688,5.57
				c-2.511,7.637-5.821,15.098-5.437,23.273c0.953-0.045,2.15,0.255,2.125-0.815c-0.053-1.778-0.104-3.534,0.103-5.302
				c0.401-3.407,1.552-6.619,2.571-9.889c1.215-3.887,2.23-7.84,3.502-11.71c1.895-5.771,2.123-11.922,2.801-17.921
				c0.391-3.409,0.563-6.913,1.417-10.239c0.437-1.703,1.199-3.352,1.858-4.98c0.188-0.469,1.076-1.179,0.49-1.446
				c-0.396-0.178-0.808-0.176-1.197-0.355c-2.771,6.121-3.836,12.745-4.549,19.357"/>
		</g>
	</g>
	<g>
		<g>
			<path fill="#25242B" d="M341.747,22.444c-0.653,13.039-1.065,26.156,0.517,39.155c0.784,6.436,0.938,12.832,1.149,19.311
				c0.207,6.228,0.914,12.408,2.596,18.443c0.417-0.117,0.479-0.04,0.897-0.156c0.632-0.176-0.084-1.538-0.211-2.072
				c-0.553-2.408-1.079-4.843-1.321-7.301c-0.479-4.793-0.426-9.628-0.589-14.439c-0.331-9.787-1.521-19.437-1.645-29.244
				c-0.15-11.906,0.176-23.816,0.7-35.708c-0.989-0.035-1.883-0.475-1.927,0.563c-0.061,1.319,0.674,2.674,0.613,3.993
				c-0.109,2.492-0.027,4.994-0.143,7.486"/>
		</g>
	</g>
	<g>
		<g>
			<path fill="#25242B" d="M342.391,9.564c1.008,0.267,1.158,0.545,1.521-0.478c0.434-1.223,1.285-2.265,2.063-3.302
				c1.639-2.208,3.735-4.036,5.984-5.6c2.311-1.609,4.784-2.99,7.373-4.103c1.082-0.463,2.164-0.94,3.289-1.298
				c1.264-0.403,1.154-0.305,0.813-1.551c-4.426,1.203-8.638,3.392-12.379,6.031c-3.611,2.545-7.354,5.9-8.523,10.317"/>
		</g>
	</g>
	<g>
		<g>
			<path fill="#25242B" d="M318.758-6.005c4.807,0.944,9.492,3.264,13.578,5.914c2.063,1.336,4.014,2.898,5.757,4.636
				c0.775,0.777,1.47,1.655,2.116,2.546c0.666,0.921,0.82,0.565,1.727-0.019c-2.467-3.831-6.564-6.561-10.426-8.878
				c-3.867-2.329-8.068-4.504-12.523-5.379c-0.086,0.425-0.188,0.979-0.271,1.405"/>
		</g>
	</g>
	<g>
		<g>
			<path fill="#25242B" d="M300.307,127.073c0.066,0.427,0.109,0.84,0.178,1.267c7.867-1.211,15.399-5.371,21.914-9.802
				c6.429-4.373,13.119-10.058,16.197-17.395c-0.229-0.097-0.729-0.413-0.961-0.346c-0.326,0.787-0.746,1.513-1.164,2.255
				c-0.979,1.749-2.271,3.354-3.568,4.88c-2.791,3.284-6.18,6.066-9.668,8.581c-6.711,4.827-14.75,8.776-23.012,10.046"/>
		</g>
	</g>
	<g>
		<g>
			<path fill="#25242B" d="M479.947,51.906c-1.729,8.896-2.521,18-4.517,26.844c-1.922,8.507-5.393,16.615-7.574,25.053
				c-2.058,7.942-4.007,15.939-5.626,23.98c-0.771,3.822-1.906,7.411-3.325,11.048c-0.632,1.614-1.109,3.242-1.935,4.771
				c-0.38,0.705,0.329,0.598,0.938,0.943c4.954-8.818,6.506-16.405,8.69-26.113c2.303-10.212,7.518-22.2,9.991-32.364
				c5.493-22.563,7.271-45.972,12.832-68.521c0.896-3.625,1.823-7.275,2.853-10.866c0.133-0.466,1.612-5.194,1.516-5.225
				c-0.597-0.184-1.287,0.461-1.886,0.277c-5.037,16.463-8.543,33.32-11.822,50.2"/>
		</g>
	</g>
</g>
<g>
	<g>
		<path fill="#D0D2D8" d="M219.386,285.249c-16.247-2.128-202.901-13.153-203.119,13.661c32.96,11.672,78.444,12.285,113.657,12.283
			c15.917-0.002,44.82-9.342,60.078-4.346c8.765,2.869,12.292,14.224,26.578,16.624c2.452,17.567,65.14,29.479,80.211,31.659
			c35.92,5.197,72.826,2.441,108.411,7.177c1.049-50.061-1.279-64.857-54.869-75.028c-35.419-6.729-71.634-6.355-107.595-6.355"/>
		<g id="ChestMains">
			<path id="ChestMainExpanded" fill="#F3BF99" d="M504.044,155.406c0,0-20.758-5.838-37.623-7.459
				c-16.864-1.623-31.46,0.646-51.894,2.27c-20.432,1.622-43.461,0.323-67.786-0.649c-24.321-0.973-27.567,1.623-52.218,10.704
				c-24.648,9.082-30.162,13.947-33.405,15.242c-3.243,1.297-13.622-0.324-24.001-3.566c-10.379-3.245-14.595-5.189-22.703-5.515
				c-8.109-0.324-14.271-5.513-16.541-11.999c-2.271-6.488-2.916-22.271-11.782-22.054c-8.866,0.215-8.866,3.458-12.541,0.863
				c-3.676-2.595-1.299-3.675-5.407-1.73c-4.107,1.946-4.541,8.001-4.541,8.001s-1.082-10.164-7.784-8.218
				c-6.703,1.946-4.974,7.135-10.379,3.892c-5.404-3.243-9.082-11.459-12.324-10.162c-3.244,1.297-6.27,15.136-14.054,19.46
				c-7.784,4.324-12.974,0.431-29.838,7.135c-16.866,6.703-44.544,25.083-16.435,66.164c28.109,41.085,76.975,42.814,84.759,42.814
				c7.784,0,69.625-10.813,110.706,2.164c41.084,12.973,248.224,12.973,248.224,12.973S510.206,186.001,504.044,155.406z"/>
			<path id="ChestMain" fill="#F3BF99" d="M504.044,155.406c0,0-18.696-0.593-33.33,2.233c-15.696,5.161-36.58,10.109-54.075,19.294
				c-20.431,1.622-41.136,14.209-65.459,13.235c-24.322-0.973-28.643,8.65-52.076-3.904c-18.983-10.43-34.742-12.047-37.983-10.75
				c-3.244,1.297-13.623-0.324-24.001-3.566c-10.379-3.245-14.595-5.189-22.704-5.515c-8.109-0.324-14.271-5.513-16.541-11.999
				c-2.27-6.488-2.915-22.271-11.782-22.054c-8.866,0.215-8.866,3.458-12.541,0.863c-3.677-2.595-1.299-3.675-5.406-1.73
				c-4.107,1.946-4.541,8.001-4.541,8.001s-1.082-10.164-7.785-8.218c-6.703,1.946-4.974,7.135-10.378,3.892
				c-5.404-3.243-9.083-11.459-12.324-10.162c-3.244,1.297-6.271,15.136-14.054,19.46c-7.785,4.325-12.974,0.431-29.838,7.135
				c-16.866,6.703-44.544,25.083-16.436,66.164c28.11,41.085,76.974,42.814,84.759,42.814c7.784,0,69.625-10.813,110.707,2.164
				c41.083,12.973,248.225,12.973,248.225,12.973S510.206,186.001,504.044,155.406z"/>
		</g>
		<path fill="#486A91" d="M600.371,158.65c0,0-11.673-1.297-35.025-4.541c-23.354-3.243-20.762-4.865-35.677-2.594
			c-14.919,2.269-10.702,1.622-16.865,0.972c-6.162-0.649-6.812-0.649-9.401-0.649c-2.599,0,3.564,3.568,2.593,45.407
			c-0.973,41.839,0.975,42.487,2.919,51.569c1.947,9.08,10.378,42.162,10.378,42.162l79.46,16.219L600.371,158.65z"/>
		<path fill="#8F745F" d="M71.383,162.866c-1.297-3.243-6.811-3.893-10.377-1.297c-3.568,2.594-6.488,4.54-6.488,4.54l3.893,1.621
			c0,0-11.729,3.561-14.647,9.724c-2.919,6.162-8.38,26.924-6.11,38.926c2.271,12.002,0.973,14.919,0.973,14.919l4.217-6.488
			c0,0,2.918,16.543,4.216,19.141c1.297,2.594,1.297,2.594,1.297,2.594s1.621-0.646,2.595,3.896
			c0.973,4.543,1.945,11.674,2.595,13.944c0.648,2.271,0.648,2.271,0.648,2.271l1.297-2.916c0,0,2.27,7.785,7.136,12.646
			c4.865,4.866,5.514,5.841,5.514,5.841l3.568-3.566c0,0,2.271,11.027,11.028,15.244c8.757,4.217,12,4.217,37.947,6.164
			c25.945,1.943,30.487-3.567,34.055-6.164c3.567-2.592,4.217-3.566,7.459-4.861c3.244-1.3,7.785-7.137,14.92-14.598
			c7.135-7.459,12.973-8.438,17.838-10.701c4.865-2.27,9.082-3.893,9.082-3.893l1.297-15.248l-6.486-5.838
			c0,0-3.244-6.813-14.271-5.841c-11.027,0.976-16.217,4.864-16.217,4.864s5.189-9.082-0.973-6.487
			c-6.162,2.597-17.189,8.437-26.919,9.082s-18.812-0.646-18.812-0.646s-8.757-2.271-9.082-10.381
			c-0.324-8.105,3.893-12.646,4.54-13.619c0.649-0.978-4.54-9.082-18.811-18.164c-14.271-9.08-23.027-6.813-24.325-17.839
			C72.68,168.704,72.68,166.109,71.383,162.866z"/>
		<path fill="#CBA387" d="M123.601,218.977c-4.363,7.09-3.885,17.317,7.443,12.502c-0.63-1.625,0.108-4.319-0.591-5.967
			c6.123,0.674,15.265-4.63,12.964-11.691c-3.76-0.676-7.397,0.756-9.419,3.921c-2.645-2.537-5.556-2.823-7.804-0.062"/>
		<path fill="#CBA387" d="M160.899,133.352c0.021,4.5-0.583,8.804,2.921,11.665c2.921-3.403,2.699-7.448-0.975-10.044"/>
		<path fill="#8091A7" d="M599.074,302.546c-7.784-5.621-11.243-11.243-30.703-15.138c-19.46-3.893-28.661-13.344-37.743-18.104
			c-9.082-4.757-34.75-6.175-55.508-16.551c-20.758-10.379-61.401-21.626-107.246-33.301c-45.84-11.678-77.84-8.646-92.974-6.917
			c-7.854,0.896-25.615,0.653-35.027,5.621c-8.73,4.604-13.889,9.495-20.757,14.702c-14.271,10.813-17.73,17.729-19.46,29.406
			c-1.729,11.672-3.617,18.223-3.617,23.84c0,5.623,9.515,7.787,13.838,9.945c4.324,2.166,5.189,4.325,5.189,9.948
			c0,5.62-10.378,21.622,2.595,24.649c12.973,3.022,22.055-8.221,26.378-24.218c4.325-16.002-8.706-38.575,14.704-53.188
			c16.974-10.594,49.733-9.945,83.463-10.811c33.729-0.865,75.782,8.527,88.866,14.482c25.403,11.564,25.082,8.436,54.481,14.92
			c29.406,6.484,37.405,7.784,57.306,17.729c19.89,9.947,25.943,10.379,28.542,14.703c2.594,4.325,3.892,7.354,3.892,7.354
			L599.074,302.546z"/>
		<path fill="#6F7E8F" d="M242.307,312.063c6.054,5.188,13.405,7.782,20.326,9.516c6.919,1.728,27.678,12.104,48.434,19.459
			c20.76,7.352,17.296,5.188,28.104,8.217c10.815,3.026,34.595,6.056,57.084,6.92c22.488,0.864,18.164,3.025,34.167,5.62
			c15.999,2.595,37.19-0.432,64.866,3.896c27.676,4.319,51.893,4.757,64.866,6.053c12.974,1.299,40.221-3.895,46.707-4.756
			c6.484-0.866,19.893-3.027,19.893-3.027l-6.919-62.271c0,0-15.567-2.6-28.544,3.457c-12.973,6.052-16.001,7.781-16.001,7.781
			s0-10.813-8.215-11.672c-8.22-0.867-20.328,4.755-20.328,4.755s-2.164-13.838-16.865-13.401
			c-14.702,0.427-47.68-7.99-64.106-11.03c-11.682-2.163-17.191-2.377-20.221-4.974c-3.024-2.597-7.352-9.944-12.109-10.813
			c-4.758-0.865-11.238,0-11.238,0s-19.245-7.679-36.545-12.436c-17.296-4.756-33.52-7.889-39.141-9.623
			c-5.619-1.729-7.353-2.159-7.353-2.159s-41.942,3.026-55.784,3.894c-13.837,0.864-30.27,6.486-37.623,20.76
			c-7.352,14.271-3.027,24.213-2.595,27.676c0.432,3.459-0.434,14.271-0.434,14.271L242.307,312.063z"/>
		<path fill="#596673" d="M591.29,305.141c-8.216,2.599-9.945,6.489-14.702,5.191c-4.758-1.298-0.432-9.945-11.676-9.082
			c-11.243,0.865-15.567,8.217-18.164,2.596c-2.593-5.623-8.648-12.113-25.514-12.543c-16.862-0.431-24.649-2.595-48-7.785
			c-23.354-5.188-23.785-3.892-32.867-12.105c-9.083-8.221-13.407-4.762-18.162-5.624c-4.758-0.864-34.165-11.677-41.52-12.976
			c-7.35-1.297-29.836-6.914-32.865-8.646c-3.025-1.729-5.621-1.729-5.621-1.729s35.025,0,53.626,3.459
			c18.593,3.459,37.188,12.973,47.563,15.564c10.378,2.596,23.354,8.219,45.409,11.245c22.055,3.026,38.921,9.515,51.894,15.567
			c12.974,6.049,20.76,10.377,34.598,14.271C589.127,306.439,591.29,305.141,591.29,305.141z"/>
		<path fill="#596673" d="M426.96,357.899c-5.892-9.206-23.555-16.624-33.297-21.191c0.623,2.129-0.687,5.333-0.198,7.604
			c-5.59,0.563-16.836-1.89-22.271-2.97c-8.771-1.739-18-0.364-26.883-2.143c-17.969-3.591-33.484-13.335-50.627-18.417
			c-13.39-3.974-28.015,1.373-38.738-9.468c-4.351-4.397-5.229-8.652-10.573-12.104c-0.795,4.988-1.669,10.329-2.323,15.032
			c11.523,4.229,25.051,8.103,36.087,13.921c6.824,3.601,11.979,9.229,19.31,11.92c7.086,2.598,15.617,3.007,22.986,4.72
			c34.327,7.971,65.289,17.862,101.348,17.85"/>
		<path fill="#365773" d="M620.696,287.412c-25.999-1.001-53.06-9.939-78.943-13.446c13.246,14.316,25.73,11.496,39.347,17.663
			c8.369,3.789,17.297,8.381,26.694,9.957c12.229,2.053,14.472,0.234,14.196-12.014"/>
		<g>
			<g>
				<g>
					<path fill="#25242B" d="M168.488,129.997c1.713,3.859,4.715,5.297,8.715,4.839c3.881-0.443,9.128-3.011,12.715-0.571
						c3.812,2.592,4.346,8.509,5,12.695c0.76,4.84,1.715,9.669,4.995,13.553c2.885,3.415,6.204,6.229,10.614,7.047
						c4.393,0.818,9.021-0.067,13.411,0.817c5.21,1.047,10.372,3.085,15.4,4.776c8.234,2.768,16.439,5.396,25.146,4.568
						c-0.047-0.479-0.557-1.611-0.602-2.089c-0.093-0.963-0.982-1.033-1.773-0.985c-2.68,0.165-5.322,0.631-7.994,0.374
						c-4.519-0.432-9.008-1.188-13.313-2.595c-5.031-1.642-10.116-3.236-15.252-4.525c-4.544-1.143-8.997-1.747-13.601-2.389
						c-4.159-0.578-7.227-2.736-10.021-5.884c-6.495-7.306-3.388-18.229-10.488-25.268c-4.153-4.117-9.721-1.634-14.685-1.118
						c-1.915,0.201-4.041-0.203-5.488-1.636c-0.23-0.229-1.279-1.681-1.233-1.701c-0.573,0.255-1.121-0.071-1.693,0.185"/>
				</g>
			</g>
			<g>
				<g id="ChestOutlines">
					<path id="ChestOutlineExpanded" fill="#25242B" d="M421.242,148.93c-4.992,0.573-10.104,0.954-15.276,1.188
						c-7.566,0.342-15.28,0.371-22.971,0.225c-7.038-0.134-14.06-0.414-20.942-0.732c-4.078-0.188-8.107-0.391-12.063-0.583
						c-10.722-0.523-18.261,0.568-28.761,2.864c-10.498,2.297-20.811,4.704-30.802,8.629c-7.006,2.753-13.521,6.535-20.388,9.625
						c-2.834,1.276-5.698,2.463-8.527,3.753c-0.783,0.357-2.484-1.294-3.271-0.936c-0.097,0.043,1.21,2.801,1.31,3.019
						c9.164-4.177,18.362-8.248,27.719-11.909c9.353-3.661,18.861-6.911,28.646-9.444c10.391-2.69,20.718-3.9,31.475-3.521
						c4.809,0.169,9.602,0.461,14.394,0.792c6.729,0.466,13.45,1.012,20.198,1.411c3.768,0.223,7.547,0.14,11.328-0.107
						c4.313-0.281,8.635-0.775,12.945-1.269c3.396-0.389,6.793-0.777,10.175-1.063c13.655-1.148,22.565-2.744,31.068-2.983
						c6.795-0.191,13.674-0.042,20.499,0.511c4.135,0.335,8.245,0.819,12.31,1.465c7.758,1.232,15.188,3.714,22.74,5.768
						c1.721,0.467,2.875,0.097,4.626,0.432c0.176-0.918,0.969,0.665-0.071,0.452c-2.128-0.436-3.983-2.146-6.07-2.744
						c-2.063-0.587-4.433-0.056-6.492-0.628c-7.669-2.121-15.266-4.728-23.174-5.549c-8.435-0.874-16.854-0.886-25.271-0.439
						c-8.417,0.447-16.824,1.355-25.223,2.318"/>
					<path id="ChestOutline" fill="#25242B" d="M422.91,169.292c-4.479,2.201-8.489,4.606-12.24,6.542
						c-8.226,3.37-15.497,4.056-22.938,7.395c-6.426,2.881-27.102,5.004-33.981,4.688c-4.079-0.188,2.142,0.464-1.815,0.271
						c-10.72-0.521-16.209-0.271-26.953-0.545c-10.5,2.297-22.241-1.853-32.206-6.136c-5.434-2.24-15.911-6.754-22.735-11.36
						c-5.554,0.175-5.696,2.463-8.526,3.753c-0.783,0.357-2.486-1.294-3.271-0.936c-0.096,0.043,1.209,2.801,1.311,3.018
						c9.163-4.176,19.021,2.222,28.199,6.305c8.939,3.977,19.639,6.173,29.439,7.809c9.752,0.075,24.56,0.2,35.316,0.579
						c4.809,0.169,14.028-0.909,18.82-0.579c6.729,0.467,18.206-3.83,24.618-6.869c6.881-2.471,9.424-2.471,14.367-4.229
						c7.711-2.792,7.711-5.096,14.493-7.35c5.941-1.914,5.941-1.914,9.326-2.199c13.846-4.375,6.276-1.859,16.95-5.982
						c7.479-2.034,9.814-2.034,15.66-2.034c4.788-0.4,12.695-2.517,17.513-5.061c14.813-2.545,11.234-2.791,18.79-0.738
						c1.724,0.468,2.874,0.098,4.626,0.433c0.178-0.919,0.97,0.665-0.068,0.45c-2.128-0.435-3.985-2.147-6.073-2.743
						c-2.063-0.587-4.432-0.056-6.493-0.629c-7.668-2.12-15.325,2.976-24.322,4.499c-10.647,2.352-13.848,2.39-20.991,3.389
						c-8.389,2.436-10.238,4.158-18.639,5.121"/>
				</g>
			</g>
			<g>
				<g>
					<path fill="#25242B" d="M126.901,132.816c-2.671,5.1-5.753,9.718-11.271,12.069c-5.016,2.14-10.26,2.316-15.572,2.904
						c-10.426,1.152-19.611,6.457-28.078,12.348c0.579,0.832,0.399,1.347,1.346,0.697c1.963-1.353,4.318-2.126,6.357-3.36
						c3.102-1.877,6.047-4.187,9.41-5.552c4.356-1.769,9.039-2.001,13.71-2.355c7.72-0.587,15.474-2.234,20.733-8.528
						c2.307-2.759,4.279-5.724,5.961-8.875c1.062-1.985,2.039-4.019,3.417-5.802c0.472-0.612,1.194-0.969,0.563-1.51
						c-0.366-0.313-0.583-0.103-0.948-0.416c-2.237,2.61-3.992,5.379-5.579,8.409"/>
				</g>
			</g>
			<g>
				<g>
					<path fill="#25242B" d="M132.951,123.916c0.035,0.625,0.134,1.084,0.17,1.71c-0.017-0.298,2.869,0.741,3.153,0.947
						c2.416,1.742,3.73,4.729,5.684,6.921c1.795,2.013,4.17,3.559,6.972,3.1c2.987-0.489,5.576-2.681,7.689-4.711
						c-0.433-0.453-0.969-0.852-1.402-1.305c0.018,0.017-2.991,2.312-3.396,2.575c-2.038,1.327-4.409,2.189-6.586,0.715
						c-4.292-2.903-6.109-10.478-12.319-10.125"/>
				</g>
			</g>
			<g>
				<g>
					<path fill="#25242B" d="M167.53,131.015c-1.916,0.936-3.146,2.165-3.578,4.33c0.393,0.079,0.771,0.117,1.164,0.195
						c-0.041-0.007,0.854-1.831,1.097-2.101c1.183-1.318,3.123-1.54,4.276-2.938c-0.31-0.254-0.613-0.546-0.921-0.802
						c0.015,0.011-1.764,1.208-2.028,1.337"/>
				</g>
			</g>
			<g>
				<g>
					<path fill="#25242B" d="M155.771,131.716c2.874,0.761,4.761,1.977,6.005,4.631c0.512,1.09,1.029,2.18,1.541,3.271
						c0.408,0.87,0.588,0.482,1.452,0.101c-0.752-1.604-1.514-3.213-2.266-4.816c-1.202-2.563-3.801-3.72-6.416-4.412
						c-0.109,0.418-0.213,0.852-0.324,1.27"/>
				</g>
			</g>
			<g>
				<g>
					<path fill="#25242B" d="M160.043,134.532c0.75,1.647,0.268,4.181,0.579,5.991c0.373,2.17,1.397,4.127,3.568,4.903
						c0.241-0.676,0.644-0.983-0.042-1.318c-1.062-0.52-1.704-1.563-2.058-2.67c-0.753-2.359,0.267-5.306-0.739-7.518
						c-0.395,0.18-0.772,0.438-1.167,0.615"/>
				</g>
			</g>
			<g>
				<g>
					<path fill="#25242B" d="M154.486,211.634c1.155,2.694,1.448,6.114-0.488,8.454c-1.382,1.669-2.914,3.223-4.325,4.869
						c-4.348,5.072-9.527,8.82-15.76,11.307c-5.595,2.231-13,3.842-17.532-1.252c-2.2-2.472-2.904-5.818-2.522-9.047
						c0.222-1.869,0.458-3.904,1.449-5.516c0.372-0.605,0.857-1.184,1.4-1.648c-0.012-0.244-0.624-0.822-0.792-1.02
						c-5.394,4.623-4.716,15.047,0.506,19.451c5.156,4.351,12.75,2.351,18.421,0.029c6.305-2.587,11.568-6.392,15.97-11.555
						c1.365-1.604,2.543-3.361,3.885-4.992c2.251-2.719,2.204-6.373,0.849-9.521c-0.396,0.171-0.911,0.348-1.306,0.516"/>
				</g>
			</g>
			<g>
				<g>
					<path fill="#25242B" d="M290.816,237.223c-7.063,2.12-13.572,5.762-20.125,9.133c-7.139,3.672-14.535,7.422-20.104,13.27
						c-2.466,2.591-4.473,5.637-5.945,8.913c-2.042,4.546-3.245,9.548-2.89,14.448c0.404,5.57,1.704,11.033,1.292,16.643
						c-0.33,4.482-0.41,9.26-2.584,13.188c-2.971,5.36-7.879,9.591-12.582,13.483c-2.316,1.923-4.595,3.948-7.149,5.539
						c-1.147,0.713-2.848,0.448-4.036,1.092c-1.306,0.708-0.684,2.077-0.031,3.354c11.15-5.713,22.613-15.244,27.215-27.198
						c1.696-4.403,1.369-9.346,1.148-14.054c-0.271-5.691-2.044-11.358-1.875-17.073c0.248-8.369,5.399-14.935,11.518-20.313
						c9.729-8.557,22.398-13.683,34.637-17.648c8.184-2.654,16.499-4.977,25.038-6.055c4.003-0.506,7.994-0.822,12.033-0.824
						c1.838,0,3.724-0.967,5.556-0.85c0.901,0.059,1.729,0.238,2.627,0.324c0.158-0.146,0.203-1.017,0.229-1.25
						c-14.833-1.433-29.854,1.45-44.026,5.707"/>
				</g>
			</g>
			<g>
				<g>
					<path fill="#25242B" d="M219.109,266.002c0.19,8.703-0.681,17.475-1.873,26.084c-0.58,4.188-1.731,8.301-2.412,12.479
						c-0.34,2.089-0.195,4.349-0.717,6.401c-0.558,2.192-1.062,4.401-1.642,6.587c-0.687,2.59-2.812,6.126-2.231,8.858
						c0.669,3.14,4.433,5.145,7.236,5.813c3.54,0.853,7.678,0.599,11.121-0.631c-0.134-0.378-0.569-0.856-0.702-1.234
						c-0.043-0.119-1.536,0.806-1.816,0.862c-1.851,0.375-1.832-1.813-3.711-1.994c-3.191-0.306-11.305-0.866-9.027-10.848
						c0.519-2.27,1.151-4.519,1.723-6.782c1.517-6.001,1.644-12.454,2.508-18.577c1.267-8.959,2.675-17.977,2.475-27.043
						c-0.432,0.01-0.886,0.023-1.318,0.033"/>
				</g>
			</g>
			<g>
				<g>
					<path fill="#25242B" d="M195.343,239.221c3.372,2.338,6.634,4.948,10.185,7.006c0.2-0.349,0.348-0.772,0.546-1.123
						c0.077-0.129-1.79-1.179-2.058-1.354c-1.287-0.852-2.476-1.838-3.741-2.717c-1.406-0.973-2.818-1.963-4.225-2.938
						c-0.233,0.36-0.527,0.762-0.761,1.121"/>
				</g>
			</g>
			<g>
				<g>
					<path fill="#25242B" d="M72.48,169.821c0.038,5.629,0.854,11.958,4.917,16.203c3.123,3.266,7.799,4.57,11.727,6.647
						c4.768,2.521,9.144,5.479,13.422,8.813c3.003,2.336,5.989,4.705,8.55,7.521c1.366,1.5,2.371,3.297,3.624,4.896
						c0.658,0.834,1.376,1.668,2.006,2.531c0.236,0.01,0.98-0.771,1.185-0.92c-4.633-6.322-10.023-12.046-16.402-16.639
						c-3.988-2.869-8.165-5.314-12.494-7.604c-3.969-2.1-8.802-3.56-11.66-7.185c-1.498-1.901-2.225-4.376-2.724-6.729
						c-0.328-1.549-0.173-3.166-0.267-4.744c-0.056-0.938-0.046-1.904-0.052-2.845c-0.17-0.146-1.501,0.044-1.744,0.044"/>
				</g>
			</g>
			<g>
				<g>
					<path fill="#25242B" d="M103.371,208.527c1.909,2.887,4.372,5.357,6.814,7.789c1.262,1.258,2.647,2.396,3.86,3.699
						c0.175,0.188,1.16,1.56,1.288,1.448c0.304-0.259,0.686-0.481,0.989-0.743c-2.296-2.686-4.915-5.07-7.355-7.621
						c-1.166-1.218-2.257-2.5-3.278-3.844c-0.153-0.195-1.166-1.605-1.299-1.518c-0.334,0.22-0.536,0.48-0.871,0.699"/>
				</g>
			</g>
			<g>
				<g>
					<path fill="#25242B" d="M108.095,220.971c1.983,1.182,4.008,2.293,5.947,3.549c1.022,0.66,2.022,1.356,3.012,2.063
						c0.22-0.054,0.658-0.907,0.8-1.108c-2.898-2.066-5.978-3.908-9.036-5.729c-0.22,0.372-0.487,0.825-0.709,1.196"/>
				</g>
			</g>
			<g>
				<g>
					<path fill="#25242B" d="M171.48,229.352c-7.764,1.153-14.557,5.228-21.755,8.104c-3.25,1.304-6.601,2.612-10.067,3.157
						c-1.848,0.289-3.776-0.471-5.645-0.492c-0.33-0.003-3.183,0.279-3.193,0.419c-0.035,0.397,0.367,1.375,0.332,1.771
						c6.858,0.6,13.45-1.744,19.754-4.328c6.455-2.646,12.716-5.213,19.646-6.465c-0.659,1.836-1.397,3.149-2.378,4.842
						c-0.556,0.959-0.528,1.104,0.219,1.893c0.421,0.439,1.811-0.252,2.321-0.529c3.315-1.838,6.912-3.186,10.665-3.459
						c4.003-0.296,8.085,0.189,11.961,1.271c1.834,0.512,3.387,1.594,5.047,2.535c0.702,0.4,1.324,0.779,1.955,1.281
						c0.522,0.41,0.953-0.584,1.328-1.035c-4.077-3.414-9.63-4.816-14.816-5.172c-5.611-0.381-11.759-0.244-16.789,2.432
						c0.952-2.148,2.112-3.869,2.905-6.086c-0.349,0.033-1.157-0.279-1.506-0.245"/>
				</g>
			</g>
			<g>
				<g>
					<path fill="#25242B" d="M56.394,163.841c-1.49,0.934-2.882,1.685-4.373,2.617c1.923,0.201,3.535,0.775,5.389,1.351
						c-3.566,1.216-7.02,2.922-10.014,5.214c0.193,0.255,0.194,0.562,0.39,0.817c0.405,0.531,1.417-0.492,1.876-0.803
						c1.518-1.031,3.155-1.444,4.82-2.212c2.364-1.091,5.101-2.216,7.598-2.91c-2.067-0.647-3.573-1.524-5.657-2.102
						c2.688-1.687,4.444-2.928,7.437-4.042c1.508-0.562,3.396-0.943,5.01-0.808c0.257,0.021,1.635-0.251,1.667-0.358
						c0.117-0.383,0.161-0.966,0.277-1.349c-5.253-1.597-10.232,1.789-14.464,4.521"/>
				</g>
			</g>
			<g>
				<g>
					<path fill="#25242B" d="M39.66,229.484c0.223,0.451,0.813,0.972,1.035,1.422c0.624-0.764,1.217-1.752,1.841-2.512
						c0.739,6.244,1.144,12.724,3.832,18.496c0.514-0.24,1.111-0.514,1.624-0.752c0.365-0.172-1.214-3.019-1.396-3.603
						c-0.956-3.072-1.297-6.328-1.694-9.521c-0.392-3.137-0.24-6.559-0.614-9.692c-0.915,1.14-2.505,2.698-3.426,3.834
						c-3.557-8.651-3.732-19.251-2.235-28.366c0.69-4.188,2.348-8.229,4.367-11.979c0.905-1.687,1.641-3.545,2.999-4.896
						c0.526-0.521,1.351-0.516,0.826-1.148c-0.306-0.375-0.381-0.417-0.687-0.791c-6.629,5.457-8.348,15.2-9.063,23.292
						c-0.75,8.484-0.626,18.105,3.219,25.899"/>
				</g>
			</g>
			<g>
				<g>
					<path fill="#25242B" d="M54.009,268.029c0.397,0.936,0.416,1.709,0.814,2.642c0.248-2.09,0.675-3.503,1.293-5.524
						c3.618,6.89,8.242,13.451,13.852,18.893c0.695-1.331,1.485-2.742,2.183-4.072c3.669,6.172,7.312,13.66,12.89,18.313
						c0.277-0.328,0.902-0.854,1.18-1.188c0.345-0.417-0.125-0.862-0.466-1.183c-0.922-0.873-1.765-1.789-2.572-2.766
						c-1.977-2.397-3.8-4.896-5.512-7.482c-1.952-2.953-3.752-6.188-5.516-9.26c-0.805,1.545-1.998,3.691-2.806,5.231
						c-5.701-5.955-9.61-13.767-13.212-21.128c-0.45,1.473-0.741,2.869-1.251,4.318c-1.083-3.455-2.161-6.867-2.279-10.475
						c-0.056-1.732,0.073-3.494,0.131-5.229c0.034-0.996-0.701-0.688-1.58-0.725c-0.253,6.586,0.394,13.405,3.011,19.563"/>
				</g>
			</g>
			<g>
				<g>
					<path fill="#25242B" d="M173.676,275.891c-0.954,0.545-1.764,0.221-2.719,0.769c1.185,0.187,1.823,0.542,3.005,0.745
						c-1.421,3.938-5.653,6.722-9.148,8.633c-3.103,1.693-6.203,2.938-9.622,3.753c1.074,0.769,2.212,1.474,3.289,2.235
						c-2.233,0.976-4.799,1.485-7.207,1.918c-2.835,0.502-5.367,0.998-8.145,1.975c-2.85,0.995-6.008,1.191-8.786,2.359
						c-3.169,1.334-6.006,2.924-9.444,2.898c-6.345-0.037-12.317-2.556-18.412-4.099c-3.157-0.798-6.57-0.027-9.816-0.322
						c-0.372-0.032-0.945-1.157-1.091-0.729c-0.23,0.666-0.826,1.35-1.062,2.011c-4.085-2.095-8.367-3.886-12.389-6.101
						c-2.159-1.188-3.879-3.117-5.713-4.785c-0.17-0.153-1.606-0.887-1.601-0.89c-0.563,0.274-0.718,0.138-1.283,0.413
						c0.922,1.9,1.856,4.141,3.566,5.264c2.929,1.918,6.496,2.916,9.628,4.471c2.937,1.453,5.93,2.83,8.85,4.32
						c0.207-0.494-0.461-1.406-0.286-1.914c0.138-0.396,1.419-0.396,1.556-0.793c0.113-0.334,1.389,0.176,1.737,0.225
						c3.788,0.527,7.691,0.636,11.387,1.596c6.834,1.771,14.141,4.262,21.181,2.59c3.287-0.777,5.945-3.154,9.008-4.533
						c1.588-0.717,3.759,0.188,5.446-0.248c1.759-0.457,3.188-1.975,4.97-2.185c4.036-0.477,7.726-1.665,11.326-3.469
						c-0.852-0.604-1.69-1.383-2.539-1.99c6.872-2.271,16.037-6.368,17.474-14.104c-0.101-0.014-0.575-0.021-0.676-0.034
						c6.796-3.892,13.457-8.025,19.624-12.875c-0.298-0.377-1.237-0.075-1.534-0.452c-0.583-0.742-0.955-0.925-1.582-0.456
						c-2.045,1.537-3.657,3.661-5.805,5.048c-4.421,2.86-8.848,5.741-13.418,8.352"/>
				</g>
			</g>
			<g>
				<g>
					<path fill="#25242B" d="M130.918,215.077c-1.016-0.491-2.052-0.964-3.067-1.452c-0.511,1.292-0.53,1.111,0.708,1.711
						c1.166,0.563,2.317,1.148,3.488,1.697c4,1.873,6.928,0.402,9.142-3.281c-1.145-0.688-1.036-0.826-1.857,0.334
						c-0.673,0.951-1.383,2.046-2.481,2.51c-2.017,0.85-4.242-0.518-5.978-1.435"/>
				</g>
			</g>
			<g>
				<g>
					<path fill="#25242B" d="M121.559,228.384c1.78,4.058,8.12,4.165,11.794,4.077c-0.02-0.875,0.278-1.304-0.706-1.298
						c-1.529,0.012-3.05-0.22-4.559-0.479c-1.842-0.315-4.06-0.882-5.027-2.65c-1.005-1.838-0.067-4.024,0.893-5.664
						c0.795-1.361,1.755-2.611,2.805-3.784c1.005-1.121,0.977-0.99-0.021-1.957c-2.624,2.716-6.826,7.499-4.994,11.674"/>
				</g>
			</g>
			<g>
				<g>
					<path fill="#25242B" d="M139.737,220.749c-1.967,2.242-4.006,4.411-7.222,4.096c-1.38-0.127-1.041-0.686-1.601-1.786
						c-0.371-0.727-0.907-1.358-1.424-1.984c-0.174-0.217-1.312-1.805-1.374-1.777c-0.367,0.155-0.843,0.354-1.211,0.503
						c0.477,1.146,1.484,2.021,2.21,2.997c0.398,0.533,0.994,2.881,1.35,2.977c2.551,0.664,5.017,0.455,7.195-1.141
						c1.408-1.029,2.541-2.342,3.738-3.596c0.542-0.563,1.164-1.059,1.704-1.622c0.247-0.257-0.646-0.979-0.854-1.222
						c-0.824,0.858-1.714,1.676-2.538,2.531"/>
				</g>
			</g>
			<g>
				<g>
					<path fill="#25242B" d="M118.132,155.559c0.607,2.809,0.956,5.69,0.877,8.563c-0.033,1.219-0.152,2.441-0.345,3.646
						c-0.142,0.883,0.36,0.654,1.147,0.8c0.811-4.375,0.615-8.977-0.32-13.309c-0.422,0.091-0.875,0.198-1.295,0.289"/>
				</g>
			</g>
			<g>
				<g>
					<path fill="#25242B" d="M163.953,134.256c0.082,1.85,0.357,3.707,0.352,5.558c-0.005,1.54-0.221,3.078-0.604,4.569
						c-0.068,0.262-0.675,1.918-0.545,1.968c0.374,0.14,0.755,0.26,1.128,0.402c1.182-3.096,1.314-6.273,1.105-9.546
						c-0.053-0.833-0.007-1.669-0.045-2.502c-0.034-0.75-0.663-0.43-1.339-0.43"/>
				</g>
			</g>
			<g>
				<g>
					<path fill="#25242B" d="M107.318,169.389c0.318-0.241,0.575-0.524,0.894-0.767c0.087-0.067-1.048-1.833-1.201-2.11
						c-0.915-1.681-1.59-3.501-1.944-5.384c-0.331-1.756-0.352-3.594,0.119-5.333c0.196-0.72,0.35-1.466,0.755-2.096
						c-0.044-0.198-0.808-0.536-0.998-0.66c-3.169,4.903-0.92,12.123,2.329,16.386"/>
				</g>
			</g>
			<g>
				<g>
					<path fill="#25242B" d="M112.997,157.962c-0.064,0.427-0.139,0.883-0.204,1.31c2.2,0.331,4.572-0.226,6.572-1.15
						c-0.563-1.226-0.358-1.177-1.704-0.727c-1.478,0.497-3.11,0.806-4.666,0.573"/>
				</g>
			</g>
			<g>
				<g>
					<path fill="#25242B" d="M501.124,151.992c5.39,16.669,4.795,34.96,4.379,52.22c-0.228,9.44-0.498,18.899,0.295,28.317
						c0.833,9.806,3.324,19.277,5.646,28.836c0.497-0.118,0.229-0.35,0.724-0.471c0.153-0.035,0.225-2.939,0.135-3.326
						c-0.594-2.596-2.141-4.979-2.639-7.592c-0.907-4.761-1.894-9.549-2.391-14.367c-1.015-9.713-0.677-19.539-0.476-29.293
						c0.376-18.144,2.458-37.606-3.205-55.137c-0.517,0.167-1.187,0.415-1.702,0.581"/>
				</g>
			</g>
			<g>
				<g>
					<path fill="#25242B" d="M502.294,150.462c0.021,0.89-0.301,1.274,0.695,1.275c1.713,0.003,3.438,0.045,5.131,0.315
						c3.306,0.531,6.521,1.375,9.854,1.736c0.103-0.908,0.488-1.232-0.526-1.362c-1.797-0.228-3.599-0.421-5.368-0.774
						c-3.234-0.646-6.481-1.371-9.795-1.294"/>
				</g>
			</g>
			<g>
				<g>
					<path fill="#25242B" d="M726.298,183.479c-0.048,0.258-0.123,0.508-0.212,0.756c1.011-0.072,2.029-0.184,3.023-0.185
						C728.177,183.844,727.24,183.65,726.298,183.479z"/>
					<path fill="#25242B" d="M601.773,157.373c-12.355-1.554-26.354-3.144-38.549-4.383c-16.636-1.694-32.898-4.581-49.045,1.256
						l0.067,0.243c0.164,0.452,1.469,1.126,1.631,1.579c0.329,0.91,0.198-0.399,0.952-0.646c2.716-0.878,5.607-1.585,8.417-2.071
						c5.175-0.896,10.608-1.222,15.847-1.033c7.62,0.273,16.869,2.509,24.453,3.283c12.76,1.301,24.102,3.024,36.467,4.833
						C601.656,159.467,601.576,158.389,601.773,157.373z"/>
				</g>
			</g>
			<g>
				<g>
					<path fill="#25242B" d="M517.224,152.243c5.505,18.295,5.388,37.169,5.781,56.089c0.099,4.688,0.749,9.366,0.847,14.055
						c0.229,10.898,3.021,21.455,4.554,32.184c0.383,2.681,0.184,5.361,0.254,8.072c0.036,1.385,0.495,2.775,0.427,4.166
						c0.188,0.159,0.528-0.029,0.789-0.019c0.557-11.195-1.268-21.991-3.289-32.881c-1.193-6.444-1.896-12.654-2.038-19.166
						c-0.347-16.466-0.229-33.039-3.23-49.298c-0.835-4.542-1.556-9.167-2.888-13.587c-0.414,0.123-0.623,0.228-1.038,0.353"/>
				</g>
			</g>
			<g>
				<g>
					<path fill="#25242B" d="M600.713,264.52c-7.369-1.569-14.743-3.127-22.1-4.756c-8.481-1.877-16.654-5.154-25.131-7.062
						c-4.65-1.045-9.14-2.794-13.785-3.839c-1.467-0.327-3.089,0.063-4.562-0.26c-1.229-0.277,0.067,0.36-0.256,1.742l-1.355,0.338
						c22.245,5.006,43.129,9.379,65.354,14.482c0.586,0.136,1.188,0.283,1.782,0.425
						C600.644,265.232,600.659,264.873,600.713,264.52z"/>
				</g>
			</g>
			<g>
				<g>
					<path fill="#25242B" d="M607.426,300.195c-11.203,1.236-21.659,6.053-32.01,10.238c-1.373-9.037-12.433-11.613-19.793-9.535
						c-5.089,1.434-9.831,3.976-15.244,2.906c-2.771-0.554-5.596-1.611-8.201-2.716c-0.494,1.435-0.563,0.961,0.815,1.554
						c1.552,0.66,2.992,1.556,4.552,2.178c5.721,2.279,11.387,1.164,16.93-0.623c4.73-1.524,9.767-3.243,14.353-0.877
						c3.646,1.881,4.826,5.998,5.011,9.984c5.333-2.154,10.811-4.754,16.157-6.866c5.656-2.241,11.439-4.755,17.521-5.425
						c6.243-0.689,12.381,2.772,18.563,3.108c0.05-0.933,0.375-1.925-0.666-2.006c-2.011-0.156-3.942-0.993-5.923-1.369
						c-3.976-0.755-8.08-1.729-12.146-1.274"/>
				</g>
			</g>
			<g>
				<g>
					<path fill="#25242B" d="M410.302,352.09c8.027,4.532,16.629,8.804,25.549,11.148c9.478,2.5,19.664,1.829,29.441,2.097
						c11.622,0.315,23.226,0.453,34.788,1.588c5.901,0.579,11.653,3.8,17.585,3.94c5.918,0.14,11.843-1.413,17.761-1.223
						c9.06,0.3,17.928,2.133,26.91,3.146c9.308,1.042,18.717,1.094,27.988-0.238c8.952-1.286,17.322-5.502,26.098-7.65
						c4.551-1.115,9.775,0.752,14.359-0.227c2.301-0.492,4.274-2.457,6.595-2.859c1.116-0.194,0.428-1.813,0.261-2.801
						c-22.72,3.88-44.768,14.479-68.156,13.114c-11.482-0.666-22.755-2.743-34.269-3.088c-5.854-0.18-11.613-2.76-17.478-2.898
						c-5.882-0.144-11.646-0.573-17.5-1.148c-9.063-0.893-18.284,0.252-27.381-0.214c-8.246-0.427-16.347-1.724-24.536-2.931
						c-7.109-1.049-13.581-4.005-20.313-6.521c-3.445-1.288-6.833-2.354-10.119-3.994c-1.705-0.852-3.953-0.613-5.616-1.542
						c-0.855-0.479-0.392-0.38-0.813,0.371"/>
				</g>
			</g>
			<g>
				<g>
					<path fill="#25242B" d="M236.408,306.771c4.74,7.317,12.375,11.729,20.191,14.367c7.805,2.646,15.525,4.614,22.668,8.688
						c5.905,3.372,11.438,7.146,17.982,9.173c4.639,1.438,9.221,3.345,13.991,4.21c4.716,0.859,9.518,0.739,13.955,2.57
						c3.58,1.479,6.529,4.707,10.211,5.926c4.062,1.347,8.563,1.705,12.818,2.102c8.596,0.804,17.362-0.685,25.938,0.411
						c16.938,2.163,33.928,3.374,50.979,1.786c-0.045-0.478-1.18-0.226-1.223-0.704c-0.092-0.979-0.138,0.733-0.934,0.801
						c-3.07,0.241-6.281-2.271-9.359-2.2c-5.79,0.124-11.495,0.447-17.272,0.079c-11.225-0.722-22.442-0.529-33.685-0.976
						c-5.635-0.221-11.28-1.176-16.882-1.885c-5.527-0.701-10.66-2.564-15.778-4.701c-5.094-2.126-10.018-5.247-15.479-6.241
						c-1.658,0-3.49-0.651-5.107-0.954c-2.483-0.466-4.921-0.959-7.374-1.563c-6.313-1.551-12.412-3.192-18.041-6.406
						c-5.479-3.124-10.55-7.103-16.261-9.788c-5.425-2.551-11.401-3.623-16.979-5.781c-3.289-1.271-6.441-2.902-9.229-5.095
						c-1.348-1.057-2.009-2.631-3.028-4.009c-0.44-0.6-1.756-1.582-2.395-1.17c-0.403,0.257,0.051,1.521-0.353,1.784"/>
				</g>
			</g>
			<g>
				<g>
					<path fill="#25242B" d="M302.288,242.5c-7.237,0.545-14.442,1.588-21.69,1.952c-3.531,0.177-7.076,0.229-10.613,0.3
						c-1.879,0.041-3.767-0.639-5.646-0.639c-1.521-0.002-1.46,1.199-1.47,2.585c23.616,0.149,47.166-2.675,70.751-3.261
						c16.411-0.41,33.014-1.473,49.265,0.844c7.328,1.043,14.771,2.171,21.953,3.979c3.538,0.893,7.038,2.2,10.495,3.372
						c1.671,0.563,2.683,2.906,4.323,3.554c0.8,0.315,2.118-0.845,2.91-0.504c0.188-0.082,0.256-0.402,0.346-0.615
						c-16.521-7.07-34.755-10.771-52.533-12.521c-17.963-1.771-35.938-0.604-53.946,0.563c-4.701,0.305-9.509-0.808-14.207-0.451"/>
				</g>
			</g>
			<g>
				<g>
					<path fill="#25242B" d="M337.063,240.455c9.734,3.036,18.504,8.967,28.489,11.24c4.96,1.133,10.188,1.052,15.19,1.984
						c8.088,1.502,15.559,4.502,23.172,7.575c8.667,3.501,17.853,6.64,27.291,7.21c0.021-0.433,0.67-0.445,0.697-0.882
						c0.039-0.632-2.374-0.3-2.947-0.372c-2.433-0.301-4.833-0.917-7.203-1.544c-4.898-1.295-9.817-2.709-14.523-4.579
						c-7.823-3.105-15.361-6.117-23.67-7.766c-5.429-1.07-10.732-2.775-16.174-3.78c-10.451-1.927-19.99-6.729-30.07-9.875
						c-0.16,0.519-0.379,1.104-0.537,1.619"/>
				</g>
			</g>
			<g>
				<g>
					<path fill="#25242B" d="M418.022,269.354c0.271,0.433,0.933,0.09,1.203,0.523c0.067,0.105,2.075-0.841,2.425-1.031
						c1.974-1.084,3.996-2.021,6.169-2.617c2.611-0.721,4.892-0.227,7.31,1.156c5.2,2.981,6.91,9.893,13.057,11.655
						c15.143,4.342,30.563,7.854,46.073,10.692c6.63,1.211,13.099,1.647,19.836,1.687c4.943,0.031,9.779,1.653,14.688,2.358
						c4.229,0.606,8.673,0.695,12.183,3.197c1.96,1.396,3.271,3.508,4.723,5.426c0.77,1.021,1.972,1.763,2.605,2.873
						c0.47,0.813,1.474-0.056,2.202-0.461c-4.124-7.445-11.377-12.271-19.73-13.81c-9.055-1.665-18.11-0.347-27.239-1.205
						c-17.563-1.649-34.85-7.78-51.725-12.626c-2.679-0.77-5.718-0.439-7.732-2.57c-2.244-2.373-3.021-6.121-5.479-8.308
						c-6.187-5.489-14.568-0.612-20.521,3.129"/>
				</g>
			</g>
			<g>
				<g>
					<path fill="#25242B" d="M445.02,343.898c20.845,3.949,42.026,8.903,63.318,5.716c-0.137-0.91,0.121-1.456-0.908-1.313
						c-1.867,0.271-3.688,0.948-5.566,1.102c-3.457,0.275-6.941,0.456-10.411,0.379c-6.868-0.147-13.729-1.037-20.511-2.104
						c-8.617-1.352-17.185-3.045-25.749-4.667c-0.077,0.426,0.229,0.701,0.149,1.13"/>
				</g>
			</g>
			<g>
				<g>
					<path fill="#25242B" d="M559.854,309.761c-4.448,1.866-7.443,6.021-9.826,9.993c-1.438,2.4-2.542,5.003-4.071,7.347
						c-0.665,1.021-1.583,1.876-2.369,2.813c-0.563,0.669-0.17,0.57,0.424,1.101c5.434-6.083,7.715-15.6,15.279-19.616
						c1.237,8.197-2.825,16.777-6.604,23.771c-2.131,3.943-4.521,7.787-7.044,11.5c-1.176,1.735-2.505,3.371-3.759,5.055
						c-0.518,0.699-0.924,1.483-1.452,2.167c-0.427,0.552-0.021,0.492,0.455,0.865c4.604-5.892,8.761-12.162,12.361-18.711
						c4.338-7.886,9.183-17.602,7.078-26.838c-0.228,0.095-0.48-0.065-0.687,0.068"/>
				</g>
			</g>
			<g>
				<g>
					<path fill="#25242B" d="M394.955,336.435c-0.673,2.163-1.564,4.848-0.645,7.05c0.9,2.15,3.344,2.864,5.442,3.28
						c1.729,0.346,3.521,0.352,5.271,0.615c0.646,0.096,1.255,0.447,1.9,0.545c0.324,0.051,0.395-1.231,0.438-1.521
						c-2.469-0.369-4.989-0.647-7.437-1.144c-1.438-0.292-3.176-0.581-4.021-1.913c-1.09-1.711-0.493-4.143,0.008-5.929
						c8.611,3.177,15.201,9.963,22.877,14.746c0.135-0.215,0.774-0.953,0.747-1.182c-1.27-0.792-2.606-1.493-3.817-2.361
						c-2.331-1.659-4.432-3.635-6.743-5.313c-4.304-3.116-8.883-5.808-13.946-7.495c-0.063,0.191-0.252,0.357-0.258,0.563"/>
				</g>
			</g>
			<g>
				<g>
					<path fill="#25242B" d="M274.313,317.929c0.22-0.022,1.086,0.047,1.207-0.107c-0.11-0.917-0.127-1.863-0.197-2.786
						c-0.147-1.945-0.114-3.858-0.064-5.813c0.094-3.604-0.152-7.28,0.68-10.792c1.638-6.9,5.207-13.188,9.498-18.83
						c10.03-13.187,25.304-21.265,40.946-25.776c0.229-0.065,1.225-0.306,1.176-0.478c-0.104-0.392,0.194-1.078,0.092-1.466
						c-15.865,4.33-31.921,11.901-42.533,24.82c-9.351,11.379-13.378,26.295-11.712,40.869c0.017,0.152,0.264,0.284,0.281,0.438"/>
				</g>
			</g>
			<g>
				<g>
					<path fill="#25242B" d="M288.719,222.05c0.033,0.257-0.057,2.812,0.114,2.978c1.334-0.174,2.563-3.424,3.903-3.553
						c2.875-0.281,5.844,0.209,8.732,0.145c5.528-0.133,11.205-0.641,16.694,0.021c11.521,1.389,21.999,6.227,32.896,10.049
						c20.262,7.104,42.029,8.535,61.736,17.361c4.703,2.108,8.913,3.354,13.325,5.975c4.372,2.596,9.734,4.875,14.493,6.666
						c9.541,3.593,19.202,6.242,29.233,7.893c18.604,3.064,35.839,5.268,53.659,11.813c6.598,2.422,13.803,6.318,19.699,10.142
						c3.026,1.96,6.939,2.563,9.697,4.889c1.438,1.209,3.985,1.276,5.344,2.571c0.229,0.225,0.071,2.579,0.188,2.466
						c0.288-0.282,2.306-1.188,2.591-1.478c-13.874-14.059-33.152-19.867-52.216-24.2c-19.075-4.338-38.459-6.767-57.389-11.81
						c-9.816-2.619-18.205-7.961-26.667-13.646c-8.64-5.806-19.847-7.364-29.872-9.851c-10.66-2.639-21.354-5.019-32-7.717
						c-11.154-2.83-21.406-8.867-32.671-11.349c-13.496-2.972-27.938-2.207-41.642-0.413"/>
				</g>
			</g>
			<g>
				<g>
					<path fill="#25242B" d="M315.572,175.502c-1.256,0.457-2.487,1.013-3.797,1.288c-0.938,0.198-0.529,0.397-0.387,1.251
						c0.75-0.131,0.639,0.335,1.286,0.686c0.656,0.359,1.439,0.362,2.175,0.383c2.881,0.082,5.633-1.051,8.211-2.184
						c-2.205-2.781-4.358-2.489-7.474-1.356 M316.036,176.768c1.491-0.543,3.485-1.361,4.928-0.276
						c-1.975,0.788-5.448,2.227-7.595,1.154c0.879-0.253,1.809-0.56,2.669-0.871"/>
				</g>
			</g>
		</g>
		<g>
			<g>
				<path fill="#25242B" d="M69.415,157c0.093,0.972,0.157,1.948,0.257,2.919c0.154,1.333,0.333,2.669,0.324,4.011
					c-0.008,0.985,0.375,0.695,1.264,0.74c0.102-1.996-0.215-3.986-0.408-5.969c-0.151-1.589,0.158-1.729-1.456-1.641"/>
			</g>
		</g>
	</g>
	<g>
		<g>
			<path fill="#25242B" d="M225.483,226.075c-4.946,3.948-9.096,8.469-13.374,12.875c-4.061,4.18-8.356,8.399-10.451,13.362
				c-3.048,7.215-3.867,14.975-5.753,22.412c-0.87,3.428-1.639,6.893-1.879,10.392c-0.154,2.202,0.236,4.356,1.989,6.19
				c1.768,1.854,4.434,2.959,6.998,4.027c2.065,0.863,4.191,1.643,6.242,2.521c1.344,0.582,2.154,1.867,3.469,2.485
				c1.319,0.62,2.146,1.027,3.046-0.063c0.261-0.316,0.631-0.687,0.895-1.004c-4.529-2.242-9.435-3.941-14.112-5.979
				c-2.227-0.97-3.945-2.354-4.952-4.27c-1.265-2.402-0.427-5.053,0.085-7.521c0.638-3.079,0.081-6.319,0.855-9.383
				c2.165-8.537,3.889-17.435,8.725-25.374c4.917-8.066,14.059-13.947,21.891-20.325c1.817-1.478,3.169-3.229,4.987-4.711
				c-0.197-0.139-0.903-0.707-0.949-0.672c-0.685,0.562-2.158,0.542-2.845,1.103c-1.615,1.313-3.327,2.551-4.942,3.867"/>
		</g>
	</g>
	<g>
		<g>
			<path fill="#25242B" d="M213.082,239.191c0.393,0.271,3.596,0.556,3.99,0.83c0.75,0.526-0.242,0.563,0.217-0.06
				c1.452-1.966,4.831-2.237,6.479-4.042c2.967-3.244,3.794-8.896,7.364-11.459c6.782-4.871,15.803-5.59,23.863-7.697
				c16.962-4.438,37.979-5.258,55.295-3.934c20.446,1.563,37.813,1.537,57.91,5.65c15.372,3.145,29.62,11.435,44.872,15.082
				c22.146,5.301,42.814,14.611,64.183,22.268c8.636,3.096,17.282,6.777,26.229,8.811c8.829,2.004,19.062,0.407,27.146,4.666
				c5.879,3.096,9.997,8.986,15.27,12.983c5.439,4.13,11.899,5.331,18.489,7.288c6.048,1.796,12.205,3.205,18.204,5.146
				c2.743,0.894,4.479,4.106,6.941,5.613c0.357,0.223,4.604,1.957,4.609,1.951c0.399-0.477,1.592-3.023,1.994-3.503
				c-7.886-6.634-19.213-8.589-28.816-11.127c-5.193-1.372-10.855-0.567-15.313-3.581c-4.502-3.051-7.874-7.67-12.256-10.877
				c-4.28-3.129-9.315-5.031-14.288-6.905c-4.854-1.835-10.03-2.497-15.083-3.649c-7.06-1.606-14.061-3.459-20.991-5.592
				c-22.271-6.854-43.722-15.777-66.031-22.521c-6.222-1.88-11.62-6.718-17.938-8.228c-8.765-2.099-17.453-4.642-26.251-6.601
				c-20.228-4.513-40.808-8.313-61.455-10.104c-16.921-1.476-34.097,1.104-51.021,3.301c-9.788,1.272-20.241,1.195-29.001,5.82
				c-9.32,4.922-16.853,13.021-22.905,21.631"/>
		</g>
	</g>
	<g>
		<g>
			<path fill="#25242B" d="M226.178,236.432c2.428,1.797,5.139,3.729,5.591,6.895c0.442,3.111-2.217,4.818-4.119,6.813
				c-5.357,5.584,0.333,13.063,3.792,17.813c2.167,2.979,5.297,5.671,6.525,9.184c1.173,3.358-0.239,7.128,0.656,10.536
				c0.881,3.355,3.246,6.239,5.658,8.557c1.171,1.125,2.748,1.851,3.658,3.205c0.158,0.229,1.108,2.068,1.188,2.034
				c0.342-0.137,1.151-0.63,1.492-0.768c-1.543-3.736-5.411-5.976-7.985-8.929c-1.317-1.515-2.786-3.086-3.152-5.088
				c-0.417-2.291-0.466-4.625-0.671-6.936c-0.808-9.075-9.841-14.549-11.965-23.126c-0.96-3.871,1.729-5.538,4.03-8.048
				c2.514-2.743,1.967-6.697-0.181-9.567c-1.867-2.489-5.406-3.339-7.242-5.812c-0.81-1.092-0.347-2.709-0.159-4.041
				c0.146-1.058,0.075-2.163,0.505-3.135c-0.104-0.199-0.86-0.436-1.078-0.528c-0.96,2.163-1.979,5.087-0.891,7.333
				c0.813,1.672,3.092,2.267,4.547,3.343"/>
		</g>
	</g>
</g>
<g id="Diagram">
	<path id="Brain" opacity="0.6" fill="#EFA8CB" stroke="#FADDE9" stroke-width="2" enable-background="new    " d="
		M84.628,160.076c-23.834,3.734-34.468,39.557-28.636,71.582c5.831,32.027,26.122,57.717,51.56,56.581
		c25.44-1.14,41.052-19.959,38.209-38.099c-2.841-18.144-13.73-28.785-26.205-43.386
		C108.409,193.703,108.462,156.34,84.628,160.076z"/>
	<path opacity="0.6" fill="#EFA8CB" stroke="#FADDE9" stroke-width="2" enable-background="new    " d="M375.936,187.021
		c-4.482-12.479-39.086-5.035-58.67-0.072c-19.587,4.965-32.683,9.377-32.604,15.232c0.075,5.858,11.909,5.707,45.707,3.946
		C364.161,204.366,379.43,196.747,375.936,187.021z"/>
	<path opacity="0.6" fill="#ED6767" stroke="#FADDE9" stroke-width="2" enable-background="new    " d="M338.477,192.333
		c0,0-7.957-5.524-3.767-11.298c4.188-5.771,12.741-0.868,22.589,11.298c-9.847,12.166-18.4,17.063-22.589,11.296
		C330.521,197.857,338.477,192.333,338.477,192.333z"/>
	<g id="Arrows">
		<path opacity="0.6" fill="#EC6767" enable-background="new    " d="M332,190.25l-5.564-2.573
			c-0.346,0.194-189.287,33.536-222.373,25.494l-0.323-2.778l-15.671,4.586l16.566,6.226l-0.449-3.146
			C140.518,229.945,331.645,190.454,332,190.25z"/>
		<path id="ArrowOne" opacity="0.6" fill="#EC6767" enable-background="new    " d="M320.646,201.419
			c3.405-1.38,8.395-3.771,12.824-7.312l-2.783-3.498c-3.123,2.494-7.279,4.854-11.706,6.654l-1.265-3.172l-10.854,10.338
			l15.032,0.162L320.646,201.419z"/>
	</g>
</g>
<g id="Meters">
	
		<rect id="Block" x="-79.5" y="152.634" opacity="0.4" fill="#2B3278" enable-background="new    " width="728.371" height="58.222"/>
	<line id="OneThird_1_" fill="none" stroke="#001783" stroke-miterlimit="10" x1="-127" y1="189.641" x2="655" y2="190.609"/>
</g>
<rect id="FingersTargetFixed_1_" x="317.355" y="129.695" fill="none" width="39.534" height="35.946"/>
<rect id="CompressionsTarget_1_" x="335.837" y="172.736" fill="none" width="20.572" height="14.864"/>
<g id="Hand">
	<g>
		<path fill="#008FBF" d="M194.59-114.263c0,0,4.421,17.344,8.036,34.293c3.614,16.949,7.734,20.498,21.874,42.965
			c14.143,22.468,32.311,62.279,45.059,96.178c12.746,33.899,11.152,40.206,14.699,41.389c3.549,1.182,3.549,1.182,3.549,1.182
			s7.883,18.92,8.672,24.045c0.787,5.124,1.182,8.672,3.547,8.672c2.365,0,7.096-0.395,7.096-0.395l61.884-38.235l4.336,2.758
			c0,0,0.789-7.489,3.942-20.497c3.153-13.008,13.133-18.525,14.929-29.168c1.795-10.643,18.04-61.491,22.93-75.682
			c4.894-14.19,14.178-24.833,19.236-36.657c5.063-11.826,15.204-31.535,18.178-50.455l-90.25,3.154c0,0-9.064,17.737-10.644,33.504
			c-1.577,15.767-3.942,25.227-7.489,55.184c-3.548,29.957-7.884,49.271-10.249,59.52c-2.364,10.248-4.336,19.314-4.336,19.314
			s-2.759-12.219-9.46-42.176c-6.7-29.957-13.796-50.061-20.103-66.616c-6.307-16.555-11.037-35.081-13.797-43.752
			c-2.758-8.672-7.094-17.344-7.094-17.344L194.59-114.263z"/>
		<path fill="#EDAF8B" d="M324.07,88.606c0,0,0.262,10.774-3.418,13.402c-3.678,2.626-6.044,8.935-10.25,14.19
			c-4.203,5.255-7.094,9.721-7.883,14.451s-1.575,9.986-3.415,13.402c-1.841,3.416-2.104,5.781-1.841,9.461
			c0.264,3.68-2.363,8.146-2.89,10.248c-0.527,2.102-0.526,2.103-0.526,2.103s2.89,3.152,7.883,2.102
			c4.994-1.051,6.834-5.255,6.834-5.255s4.468,8.936,7.884,12.613c3.415,3.679,3.415,3.679,3.415,3.679s6.833-1.577,6.833-5.519
			s-1.315-8.672-1.315-8.672s3.155,0.788,5.259,0.526c2.102-0.263,3.939-1.052,3.939-1.052s5.521,16.031,11.563,16.557
			c6.043,0.523,7.097-4.469,6.308-8.411c-0.788-3.942-1.313-6.044-1.313-6.044s5.519-1.313,6.043-3.679
			c0.523-2.365,3.939-5.256,6.043,0.263c2.104,5.518,5.78,16.556,12.088,17.081c6.31,0.524,10.513-3.417,10.513-3.417l-8.409-17.606
			c0,0,3.682-3.153,6.833-0.525c3.153,2.629,11.563,16.556,17.08,15.505c5.52-1.052,7.358-5.782,7.358-5.782l-6.834-12.351
			c0,0,8.409,1.052,14.718,1.052c6.308,0,7.882-4.992,7.355-6.832c-0.523-1.84-10.511-2.628-12.352-4.73
			c-1.839-2.104-12.61-5.518-13.926-5.518c-1.316,0-1.315,0-1.315,0s-8.934-18.921-10.511-20.498
			c-1.576-1.576-9.459-4.729-11.036-7.095c-1.577-2.366-5.258-4.73-5.258-8.409c0-3.679,0.265-9.461,0.265-9.461
			S353.501,84.927,324.07,88.606z"/>
		<path fill="#F2D7C6" d="M326.436,173.484c-1.186-2.637-4.571-7.016-8.146-6.043c-5.534,1.505-0.658,9.054,1.576,11.562
			c1.208-1.869,3.114-1.051,4.204-3.153"/>
		<path fill="#F2D7C6" d="M342.99,178.214c0-3.105-0.959-7.383,1.846-9.402c2.874-2.068,4.66-0.113,6.038,2.307
			c1.179,2.071,3.354,6.148,1.808,8.264c-1.979,2.705-6.441,1.186-8.379,0.146"/>
		<path fill="#F2D7C6" d="M376.364,180.054c-0.892-2.717-3.161-3.9-2.628-7.099c0.6-3.596,3.378-4.01,6.496-2.581
			c5.181,2.377,6.127,11.69-1.242,10.204"/>
		<path fill="#F2D7C6" d="M402.38,174.01c-3.767-1.553-8.46-12.756-1.052-11.831c5.011,0.624,9.383,9.429,2.628,11.042"/>
	</g>
	<g>
		<g>
			<path fill="#231F20" d="M295.316,136.691c-0.427-0.057-0.844-0.357-1.102-0.654c0.034-0.34,0.235-1.225,0.227-1.565
				c-0.06-2.456,2.791-5.363,2.157-7.746c-1.165-4.396-4.376-8.235-5.706-12.576c-1.045-3.417-2.708-6.598-3.679-10.016
				c-0.569-2.006-2.956-1.563-4.322-2.945c-1.54-1.556-2.035-4.889-2.95-6.832c-3.528-7.486-15.206-45.994-26.221-70.085
				c-8.171-17.873-14.592-36.701-24.321-53.849c-4.358-7.685-10.988-14.112-14.741-22.11c-3.596-7.665-7.021-15.509-9.593-23.542
				c-2.385-7.441-1.911-15.602-3.861-23.154c-1.04-4.031-3.719-7.685-4.782-11.71c-0.518-1.962-0.305-4.002-0.864-5.954
				c0.221-0.334,2.461-0.78,2.887-0.888c4.838,16.964,5.319,35.18,11.537,51.776c3.271,8.733,10.314,15.865,15.13,23.913
				c5.229,8.742,10.469,18.579,15.016,27.68C249,4.181,254.987,22.24,263.022,40.343c3.39,7.646,6.104,15.545,8.822,23.434
				c2.382,6.91,3.847,14.128,6.379,20.989c1.17,3.171,1.86,6.676,3.323,9.732c0.699,1.459,1.998,3.035,3.071,4.276
				c0.659,0.762,2.337,0.503,3.173,1.05c2.563,1.673,2.845,4.904,3.356,7.622c0.547,2.9,2.965,8.677,3.969,11.47
				c1.248,3.479,1.372,3.82,2.34,7.391c0.802,2.951-0.448,6.234-0.79,9.299"/>
		</g>
		<g>
			<path fill="#231F20" d="M328.652,57.061c-6.522-27.323-12.885-54.658-21.671-81.379c-2.573-7.838-3.997-16.066-7.043-23.733
				c-2.669-6.723-5.42-13.383-7.732-20.242c-2.855-8.466-6.331-16.771-8.577-25.414c-1.145-4.401-0.605-9.27-1.869-13.637
				c-0.426-1.463-2.176-2.515-2.703-3.944c-0.181-0.494-0.602-2.087-0.076-2.306c0.56-0.231,2.146,2.015,2.706,1.784
				c0.056-0.022-1.563-0.786-1.508-0.809c1.311,3.169,2.773,6.203,3.66,9.507c1.183,4.415,4.091,8.374,5.254,12.794
				c2.233,8.475,3.656,17.504,6.728,25.722c2.488,6.66,5.47,12.792,8.031,19.429c3.087,8,6.242,16.025,8.816,24.205
				c5.711,18.143,9.006,36.911,13.227,55.433c1.308,5.729,1.215,11.786,2.559,17.506c0.314,1.352,0.688,2.693,1.01,4.043
				c0.305,1.276,0.94,1.722-0.355,2.032c-0.119,0.029,0.082-1.574-0.039-1.545"/>
		</g>
		<g>
			<path fill="#231F20" d="M323.891,87.167c-0.357-0.163-3.129,0.408-3.242,0.078c0.276-0.62,2.285-0.635,2.556-1.258
				c1.553-3.567,0.678-7.407,2.05-11.045c1.729-4.579,3.344-7.441,3.682-12.353c0.303-4.425-0.104-10.926,0.586-15.321
				c0.709-4.532,3.898-10.164,4.932-14.634c1.247-5.409,1.949-9.465,3.01-14.911c6.637-34.096,8.23-68.496,15.122-102.553
				c1.806-8.921,6.408-17.696,8.958-26.438c0.393,0.114,0.563-0.103,0.741,0.217c-0.287,0.981-0.661,1.883-0.929,2.869
				c-0.621,2.298,0.301,4.983-0.258,7.299c-1.479,6.124-4.258,11.948-5.488,18.127c-3.486,17.536-7.207,35.117-9.523,52.846
				c-2.173,16.619-2.956,33.463-6.21,49.907c-1.043,5.271-2.265,10.521-3.487,15.753c-1.129,4.823-1.527,9.701-2.021,14.637
				c-0.367,3.632-2.887,7.057-3.15,10.697c-0.301,4.198-1.191,7.821-2.624,11.766c-1.854,5.113-2.137,10.898-4.394,15.849"/>
		</g>
		<g>
			<path fill="#231F20" d="M376.619,98.004c-0.787-0.014-3.188,1.573-3.975,1.559c0.484-5.361,3.112-10.882,4.09-16.21
				c0.717-3.896,2.121-7.711,3.848-11.38c1.455-3.095,1.605-6.899,3.945-9.349c5.902-6.174,6.389-13.318,8.063-21.133
				c2.066-9.665,5.666-19.144,8.548-28.664c4.675-15.423,9.56-32.135,15.527-47.202c3.729-9.419,8.756-17.014,13.553-26.006
				c4.183-7.834,7.782-16.026,11.114-24.213c2.463-6.052,5.141-12.297,6.412-18.635c0.464-2.306,0.808-4.73,1.057-7.054
				c0.107-1.01-0.002-2.055,0.077-3.066c0.052-0.666-0.896-0.875-0.234-0.875c0.583,0-0.148,0.319,0.436,0.319
				c-0.692,9.501-3.036,18.17-6.562,27.229c-3.063,7.871-4.415,16.435-8.364,23.948c-4.838,9.197-11.326,17.653-15.23,27.235
				c-6.214,15.255-9.105,31.426-14.091,47.02c-2.979,9.316-4.885,18.791-6.928,28.282c-1.717,7.981-3.229,17.055-8.772,23.745
				c-2.034,2.455-4.628,4.429-6.379,7.107c-2.297,3.516-1.938,8.03-2.69,11.993c-1.068,5.605-4.494,11.092-5.023,16.734"/>
		</g>
		<g>
			<path fill="#231F20" d="M376.298,101.664c0.789-0.028,1.909-0.168,2.698-0.197c-0.137-3.783-5.508-6.124-8.43-7.605
				c-5.273-2.673-11.039-4.213-16.746-5.639c-6.711-1.677-13.519-1.684-20.396-1.684c-3.203,0-6.294,0.556-9.464,0.968
				c-0.938,0.122-1.937-0.272-2.881-0.212c-0.671,0.043-0.101,0.001-0.078,0.493c0.03,0.665-0.422,1.566-0.394,2.23
				c4.938-0.218,9.75-1.258,14.716-1.246c5.464,0.014,10.968-0.076,16.327,1.087c5.18,1.121,10.313,2.764,15.217,4.782
				c2.24,0.922,4.423,1.871,6.39,3.296c1.103,0.796,2.896,2.066,2.95,3.613"/>
		</g>
		<g>
			<path fill="#231F20" d="M327.096,89.102c-0.516-0.098-1.187-0.421-1.701-0.518c1.316-7.016,4.722-13.499,6.482-20.402
				c0.821-3.231,1.623-6.49,1.857-9.817c0.121-1.657-0.195-3.321-0.226-4.981c-0.011-0.745-0.075-1.27,0.701-1.297
				c0.358-0.011,0.888,0.108,1.242,0.095c0.216,6.164-0.841,12.261-2.529,18.19c-1.769,6.21-4.336,12.207-5.53,18.575"/>
		</g>
		<g>
			<path fill="#231F20" d="M331.904,85.07c-0.301-0.191-0.774-0.118-1.08-0.309c-0.705-0.449,0.087-1.027,0.453-1.666
				c0.873-1.524,1.677-3.098,2.343-4.722c1.403-3.429,2.407-7.03,3.144-10.656c0.674-3.32,0.93-6.709,1.221-10.083
				c0.115-1.344,0.316-2.681,0.38-4.03c0.02-0.396-0.153-1.175,0.315-1.161c0.442,0.015,0.748-0.083,1.19-0.067
				c-0.373,11.096-1.81,23.317-7.851,32.862"/>
		</g>
		<g>
			<path fill="#231F20" d="M336.499,85.613c-0.326-0.148-0.541-0.546-0.868-0.693c-0.738-0.336-0.438-0.527-0.13-1.22
				c0.81-1.821,1.705-3.606,2.431-5.462c1.33-3.402,2.338-6.912,3.295-10.438c0.858-3.16,1.597-6.343,2.025-9.59
				c0.199-1.512,0.566-3.012,0.65-4.536c0.022-0.403-0.321-1.217,0.174-1.202c0.443,0.015,0.939-0.104,1.383-0.09
				c-0.359,11.53-4.273,22.697-8.996,33.115"/>
		</g>
		<g>
			<path fill="#231F20" d="M342.684,84.686c-0.729-0.387-1.8-0.261-1.389-1.085c0.653-1.308,1.111-2.659,1.528-4.057
				c0.899-3.023,2.233-5.876,3.221-8.868c2.009-6.104,1.414-12.136,1.414-18.476c0.841,0,2.013-0.333,2.019,0.621
				c0.008,1.789-0.097,3.577-0.076,5.367c0.029,3.046,0.021,6.112-0.651,9.095c-0.716,3.188-2.313,6.055-3.37,9.133
				c-0.974,2.844-1.314,5.864-2.736,8.542"/>
		</g>
		<g>
			<path fill="#231F20" d="M348.559,85.079c-0.506-0.142-0.848-0.206-1.354-0.348c2.027-5.999,3.498-12.029,4.854-18.217
				c0.563-2.566,1.453-5.062,1.896-7.653c0.252-1.472,0.303-2.976,0.229-4.472c-0.033-0.698-0.172-0.916,0.522-1.012
				c0.354-0.05,0.544,0.009,0.899-0.04c0.664,4.781-0.957,9.771-1.976,14.393c-1.308,5.934-3.241,11.596-5.188,17.35"/>
		</g>
		<g>
			<path fill="#231F20" d="M354.721,86.453c-0.521-0.074-1.088-0.239-1.606-0.312c0.849-6.008,2.532-11.86,3.96-17.745
				c0.715-2.943,1.34-5.898,1.73-8.904c0.209-1.596,0.283-3.218,0.327-4.827c0.252-0.176,1.693,0.067,2.019,0.076
				c-0.303,10.841-4.695,21.002-6.2,31.654"/>
		</g>
		<g>
			<path fill="#231F20" d="M359.5,89.846c-0.408-0.32-1.307-0.828-1.003-1.303c0.628-0.986,1.034-2.19,1.237-3.323
				c0.516-2.878,0.457-5.833,0.942-8.716c1.173-6.922,2.942-13.704,4.728-20.489c0.742,0.195,1.414,0.001,1.191,0.847
				c-0.42,1.605-0.813,3.218-1.214,4.827c-0.854,3.429-1.667,6.875-2.364,10.339c-0.651,3.24-0.951,6.486-1.264,9.776
				c-0.243,2.571-0.377,5.95-2.042,8.075"/>
		</g>
		<g>
			<path fill="#231F20" d="M365.927,91.935c-0.524-0.061-0.888,0.059-1.407-0.002c0.332-2.841,0.815-5.617,1.492-8.387
				c0.75-3.076,1.381-6.174,1.932-9.289c0.914-5.154,0.479-11.384,3.033-16.066c0.274,0.149,1.183,0.487,1.293,0.756
				c-0.76,1.392-1.141,2.993-1.44,4.544c-0.527,2.718-0.255,5.576-0.693,8.311c-0.522,3.259-1.065,6.555-1.717,9.791
				c-0.708,3.538-2.168,6.933-2.59,10.527"/>
		</g>
		<g>
			<path fill="#231F20" d="M372.74,93.201c-0.524,0-0.936,0.137-1.459,0.137c0.011-5.39,1.003-10.691,1.863-15.996
				c0.498-3.081,0.724-6.207,1.239-9.283c0.423-2.508,1.063-5.385,2.752-7.395c0.45,0.379,1.446,0.826,1.068,1.354
				c-0.745,1.041-1.231,2.251-1.545,3.477c-0.804,3.155-1.333,6.43-1.903,9.634c-1.063,5.977-1.916,12.14-1.928,18.223"/>
		</g>
		<g>
			<path fill="#231F20" d="M297.542,131.515c-0.222-2.939-0.855-5.826-1.413-8.713c-0.548-2.861-1.003-5.737-1.453-8.616
				c-0.425-2.736-0.881-5.463-1.61-8.135c-0.407-1.487-0.636-3.009-1.158-4.459c0.167-0.253,0.811-0.306,1.115-0.416
				c1.704,4.728,2.922,9.552,3.628,14.518c0.351,2.475,0.412,4.995,0.903,7.449c0.549,2.746,1.529,5.464,1.743,8.266
				c-0.525,0.038-1.344,0.116-1.869,0.155"/>
		</g>
		<g>
			<path fill="#231F20" d="M301.982,127.344c-1.105-1.933-0.967-4.489-1.111-6.659c-0.178-2.67-0.352-5.187-1.161-7.75
				c-0.735-2.333-1.281-4.612-1.797-6.996c-0.234-1.079-0.67-2.109-1.271-3.043c-0.549-0.853-1.009-1.681-1.15-2.714
				c0.32-0.044,1.241-0.408,1.508-0.261c0.195,1.418,1.464,2.683,1.936,4.049c0.511,1.48,0.838,3.01,1.154,4.535
				c0.348,1.681,0.76,3.332,1.246,4.974c0.845,2.85,1.076,5.692,1.356,8.624c0.129,1.346-0.009,2.836,0.566,4.074
				c0.28,0.603-0.459,0.651-0.985,0.951"/>
		</g>
		<g>
			<path fill="#231F20" d="M306.129,120.239c-0.359-0.022-0.718-0.058-1.076-0.081c-0.889-0.053-0.521-0.869-0.613-1.647
				c-0.267-2.29-0.961-4.519-1.293-6.803c-0.327-2.251-0.387-4.608-1.251-6.732c-0.826-2.036-2.146-3.936-2.341-6.17
				c0.357-0.031,0.711-0.158,1.067-0.189c0.863-0.074,0.619,0.867,0.849,1.604c0.696,2.234,2.044,4.203,2.606,6.49
				c0.573,2.319,0.542,4.754,1,7.094c0.429,2.163,1.249,4.305,1.114,6.534"/>
		</g>
		<g>
			<path fill="#231F20" d="M309.403,111.471c-0.358-0.025-0.716-0.08-1.074-0.104c-0.795-0.055-0.491-0.465-0.586-1.22
				c-0.27-2.069-1.033-4.101-1.442-6.153c-0.363-1.815-0.652-3.701-1.511-5.357c-0.201-0.387-1.115-1.189-0.727-1.482
				c0.354-0.266,0.825-0.534,1.18-0.8c1.595,2.123,2.139,4.77,2.65,7.322c0.496,2.499,1.618,5.15,1.439,7.724"/>
		</g>
		<g>
			<path fill="#231F20" d="M313.744,108.37c-0.359-0.018-0.721,0.011-1.077-0.006c-0.728-0.034-0.346-0.305-0.49-1.007
				c-0.339-1.633-1.07-3.16-1.381-4.812c-0.339-1.8-0.664-3.617-1.388-5.312c-0.295-0.683-0.668-0.875,0.005-1.254
				c0.313-0.177,0.661-0.363,0.971-0.541c1.178,2.083,1.472,4.495,1.907,6.813c0.369,1.977,1.584,4.101,1.488,6.116"/>
		</g>
		<g>
			<path fill="#231F20" d="M316.793,104.475c-0.391-3.399-2.321-6.495-2.089-9.989c0.442,0.03,0.845,0.094,1.287,0.124
				c0.38,0.025,0.404,2.118,0.521,2.64c0.526,2.369,1.541,4.619,1.822,7.045c-0.521,0.061-1.031,0.117-1.554,0.177"/>
		</g>
		<g>
			<path fill="#231F20" d="M319.286,97.714c-0.253-1.215-0.369-2.453-0.648-3.662c0.17-0.224,1.24-0.29,1.534-0.358
				c0.281,1.221,0.395,2.475,0.646,3.699c-0.193,0.226-1.248,0.272-1.559,0.336"/>
		</g>
		<g>
			<path fill="#231F20" d="M294.693,166.502c-0.789,0-1.514,0.533-2.303,0.533c0-2.085,1.102-3.729,2.045-5.552
				c1.046-2.021,1.754-4.018,2.065-6.283c0.247-1.809-0.522-3.725-0.382-5.545c0.05-0.659,0.157-1.674,0.435-2.304
				c0.944-2.134,2.362-4.093,3.103-6.306c1.066-3.199,1.16-6.255,1.378-9.6c0.228-3.486,1.565-6.51,3.432-9.373
				c2.542-3.897,5.697-7.387,8.296-11.248c1.145-1.702,1.846-3.723,3.123-5.328c1.241-1.562,2.63-2.987,3.738-4.646
				c2.32-3.476,2.355-7.605,3.367-11.539c0.435,0.111,2.355,0.419,2.595,0.759c-0.517,2-0.413,4.119-0.921,6.121
				c-0.459,1.818-0.809,3.811-1.734,5.445c-1.037,1.824-3.207,2.737-4.542,4.32c-2.752,3.253-4.599,7.236-6.877,10.827
				c-2.315,3.65-5.279,7.202-7.079,11.135c-1.285,2.805-0.785,5.841-1.328,8.801c-0.609,3.348-2.352,6.408-3.626,9.553
				c-0.333,0.819-0.591,1.727-0.651,2.609c-0.123,1.844,0.231,3.735,0.007,5.569c-0.25,2.042-0.6,4.063-1.471,5.944
				c-0.868,1.873-1.828,3.623-2.124,5.708c-0.049,0.339-0.424,0.613-0.424,0.956"/>
		</g>
		<g>
			<path fill="#231F20" d="M299.23,169.67c-2.647,0-5.173-1.01-7.333-2.475c-0.464-0.314-1.374-0.68-1.005-1.214
				c0.379-0.546,0.82-1.075,1.198-1.621c2.897,2.073,6.244,3.885,9.86,2.497c2.042-0.784,3.653-2.396,4.998-4.082
				c0.713-0.896,0.485-0.854,1.348-0.234c0.4,0.285,0.905,0.464,1.304,0.75c-2.437,3.404-5.969,6.474-10.37,6.474"/>
		</g>
		<g>
			<path fill="#231F20" d="M370.509,107.146c-0.784-0.045-1.602-0.019-2.391-0.064c0.223-3.69,0.573-7.412,1.274-11.046
				c0.762,0.147,1.477,0.242,2.233,0.389c0.031,0.005-0.438,3.765-0.481,4.143c-0.248,2.208-0.558,4.425-0.658,6.646"/>
		</g>
		<g>
			<path fill="#231F20" d="M401.102,152.843c-0.62-0.383-1.367-0.563-1.988-0.945c-0.185-0.113,0.479-2.045,0.389-2.494
				c-0.512-2.486-2.305-5.029-3.413-7.275c-3.289-6.665-6.843-13.268-10.405-19.789c-0.744-1.361-1.152-2.889-2.596-3.558
				c-2.525-1.173-5.146-1.957-7.406-3.634c-2.525-1.872-4.503-4.34-6.568-6.688c-0.271-0.306-3.561-3.596-3.564-3.588
				c0.512-0.582,1.169-0.691,1.68-1.27c2.34,2.059,4.315,4.393,6.498,6.611c2.233,2.269,4.771,3.979,7.683,5.289
				c1.522,0.684,3.198,1.271,4.467,2.411c1.483,1.335,2.339,3.339,3.211,5.092c3.056,6.144,5.847,12.419,8.881,18.572
				c1.57,3.187,5.496,8.088,3.26,11.688"/>
		</g>
		<g>
			<path fill="#231F20" d="M319.13,180.2c0-0.666,0.553-1.33,0.553-1.996c0-0.577,0.061-0.375,0.6-0.526
				c2.451-0.683,5.254-2.502,5.341-5.263c0.185-5.806-4.685-10.488-6.604-15.641c-1.901-5.1-1.449-10.634-1.267-15.915
				c0.139-3.994,0.048-7.529-1.34-11.252c0.688-0.25,1.289-0.436,1.976-0.684c0.316-0.115,0.354,1.269,0.472,1.598
				c0.63,1.766,1.236,3.492,1.381,5.361c0.484,6.193-1.485,12.762,0.069,18.848c1.481,5.787,6.63,9.966,7.552,16.017
				c0.359,2.361,0.083,5.074-1.775,6.7c-1.681,1.471-4.345,2.532-6.69,2.532"/>
		</g>
		<g>
			<path fill="#231F20" d="M319.879,181.301c-4.811-5.965-9.976-12.499-11.85-20.051c-0.709-2.86-1.041-5.639,0.396-8.315
				c2.065-3.839,5.2-7.271,8.65-9.896c0.3,0.393,0.709,0.441,1.007,0.833c0.742,0.975-0.113,0.842-1.053,1.642
				c-2.002,1.71-3.428,4.024-4.99,6.141c-0.906,1.225-2.308,2.529-2.509,4.092c-0.225,1.738,0.244,3.573,0.684,5.248
				c1.441,5.469,4.897,10.099,8.186,14.61c0.997,1.37,1.69,2.977,2.752,4.298c0.367,0.457-1.088,1.233-1.493,1.565"/>
		</g>
		<g>
			<path fill="#231F20" d="M329.323,166.311c-2.765,0-5.728-1.344-7.938-2.958c0.286-0.393,1.175-2.042,1.595-1.762
				c1.484,0.993,3.232,1.751,4.996,2.103c1.719,0.344,4.039-0.025,5.375-1.285c0.463-0.436,1.883,0.707,2.422,0.992
				c-1.033,2.063-4.406,2.818-6.451,2.818"/>
		</g>
		<g>
			<path fill="#231F20" d="M347.868,182.657c-4.485,0-7.753-4.78-9.685-8.247c-1.682-3.014-2.822-6.293-4.289-9.408
				c-1.487-3.154-3.041-6.323-4.115-9.65c-0.816-2.52-1.275-5.008-0.219-7.478c1.057-2.461,2.392-4.84,3.773-7.127
				c1.292-2.134,2.854-4.102,4.225-6.188c0.194-0.297,0.646-1.342,0.953-1.145c0.612,0.397,1.127,0.732,1.738,1.13
				c-2.371,3.621-4.837,7.187-6.909,10.991c-1.061,1.943-2.069,4.137-1.884,6.431c0.238,2.94,1.355,5.919,2.607,8.532
				c1.461,3.04,2.804,6.102,4.15,9.193c1.154,2.643,2.699,5.266,4.563,7.487c1.131,1.347,2.75,2.756,4.568,3.006
				c0.59,0.081,1.754-0.553,1.907,0.052c0.166,0.643,0.271,1.515,0.438,2.159c-0.496,0.127-1.315-0.302-1.826-0.302"/>
		</g>
		<g>
			<path fill="#231F20" d="M347.652,182.896c-0.262-0.521-0.971-0.818-1.231-1.342c-0.038-0.076,0.124-0.427,0.146-0.521
				c0.846-0.424,1.521-1.128,2.318-1.627c0.899-0.561,1.723-1.294,2.416-2.112c0.383-0.451,0.227-0.886,0.094-1.402
				c-1.314-5.127-2.856-10.244-4.535-15.26c-1.754-5.229-4.43-10.556-4.599-16.138c-0.048-1.621-0.194-4.366-1.875-5.256
				c-0.481-0.254-1.442,0.002-1.347-0.596c0.105-0.656,0.546-1.525,0.65-2.183c5.144,0.812,4.063,6.675,4.681,10.514
				c0.388,2.423,1.61,4.694,2.405,7.005c1.002,2.914,2.063,5.807,3.051,8.726c1.453,4.285,3.055,8.63,4.042,13.056
				c0.282,1.268,0.442,2.344-0.466,3.403c-1.492,1.744-3.812,2.896-5.836,3.907"/>
		</g>
		<g>
			<path fill="#231F20" d="M352.042,166.498c-0.206,0.001-0.599,0.186-0.802,0.137c0.188-0.75,0.656-1.481,0.846-2.229
				c-0.003,0.005,1.448-0.793,1.615-0.909c2.662-1.904,3.787-5.074,3.572-8.268c-0.246-3.599-1.369-6.838,0.145-10.329
				c1.417-3.283,2.57-6.987,4.991-9.678c0.573,0.518,1.127,1.368,1.702,1.886c-0.104-0.095-2.375,3.617-2.58,4.013
				c-0.801,1.548-1.389,3.196-2.081,4.796c-0.722,1.663-0.597,3.176-0.288,4.936c0.697,3.975,1.047,7.849-1.2,11.446
				c-1.211,1.936-3.442,4.479-5.918,4.479"/>
		</g>
		<g>
			<path fill="#231F20" d="M384.369,177.44c-0.299-1.268-1.192-2.411-1.729-3.589c-0.904-1.993-1.845-3.97-2.771-5.953
				c-2.08-4.446-4.159-8.906-6.061-13.433c-1.316-3.14-2.785-6.373-5.246-8.795c-1.776-1.749-3.765-2.909-5.881-4.149
				c0.247-0.424,0.258-0.762,0.506-1.187c0.496-0.845,0.515-0.812,1.44-0.316c1.19,0.634,2.285,1.423,3.411,2.175
				c3.013,2.007,4.932,5.051,6.527,8.239c2.613,5.219,5.055,10.558,7.527,15.849c1.568,3.358,3.859,6.979,4.719,10.622
				c-0.769,0.181-1.561,0.173-2.328,0.354"/>
		</g>
		<g>
			<path fill="#231F20" d="M379.115,182.659c-5.863,0-10.049-4.509-12.104-9.508c-1.008-2.445-1.532-5.107-2.72-7.47
				c-1.083-2.155-2.643-3.728-4.494-5.2c0.225-0.282,1.344-1.907,1.551-1.741c1.271,1.006,2.482,2.05,3.51,3.31
				c2.724,3.345,3.402,7.707,5.244,11.511c1.773,3.66,5.258,7.188,9.698,6.649c2.091-0.254,3.688-1.639,4.542-3.48
				c0.456-0.985,0.119-0.928,1.092-0.589c0.465,0.162,0.996,0.22,1.459,0.382c-1.205,3.441-3.938,6.194-7.775,6.194"/>
		</g>
		<g>
			<path fill="#231F20" d="M381,159.561c-0.688-0.239-1.407-0.394-2.098-0.634c-0.342-0.119,0.006-1.002,0.056-1.346
				c0.106-0.712-0.031-1.398-0.108-2.109c-0.326-2.998-0.109-6.035,0.041-9.049c0.17-3.378,0.695-6.677,1.387-9.981
				c0.072-0.358,0.646-4.067,0.645-4.067c0.771,0.056,1.674-0.113,2.441-0.057c-0.352,4.75-2.156,9.316-2.41,14.105
				c-0.133,2.467-0.119,4.979,0.097,7.438c0.183,2.047,0.402,3.772-0.292,5.768"/>
		</g>
		<g>
			<path fill="#231F20" d="M406.843,168.413c-1.269-2.795-3.417-5.333-5.033-7.944c-2.332-3.77-4.297-7.763-6.376-11.678
				c-1.498-2.816-3.015-6.08-5.559-8.125c-1.939-1.563-4.674-1.929-6.854-3.072c0.185-0.349,0.613-0.707,0.799-1.056
				c0.386-0.733,0.074-1.189,0.885-0.792c1.43,0.703,3.068,0.946,4.498,1.648c2.72,1.336,4.588,3.836,6.154,6.363
				c2.802,4.514,5.156,9.303,7.931,13.842c1.934,3.172,4.268,6.391,5.8,9.774c-0.717,0.327-1.375,0.817-2.094,1.144"/>
		</g>
		<g>
			<path fill="#231F20" d="M403.078,175.15c-6.354,0-10.723-4.069-14.053-9.063c-1.338-2.01-2.438-4.719-4.172-6.416
				c-0.304-0.298-2.968-2.013-2.994-1.964c0.369-0.68,0.934-1.305,1.303-1.984c1.536,0.832,3.008,1.834,4.038,3.291
				c1.026,1.452,1.907,3.019,2.852,4.527c2.188,3.486,4.789,7.466,8.86,8.86c1.282,0.438,2.837,0.784,4.197,0.763
				c1.591-0.025,2.755-1.575,3.598-2.786c0.635-0.912,1.03-1.944,1.448-2.976c0.139-0.343,2.261,0.603,2.646,0.735
				c-1.127,3.233-3.901,7.375-7.724,7.375"/>
		</g>
		<g>
			<path fill="#231F20" d="M421.528,158.306c-0.312-0.593-1.475-1.748-0.915-2.162c1.446-1.073,2.586-3.596,2.389-5.395
				c-0.085-0.793-3.019-1.039-3.788-1.186c-1.882-0.361-3.813-0.604-5.577-1.363c-3.341-1.439-5.63-4.723-9.18-5.676
				c-1.63-0.438-3.355-0.309-5.031-0.255c-1.079,0.035-0.867,0.056-0.913-0.939c-0.021-0.491-0.219-1.15-0.24-1.642
				c3.154-0.154,6.335,0.17,9.187,1.701c1.602,0.857,3.051,1.805,4.5,2.865c1.517,1.107,3.108,2.161,4.9,2.688
				c1.549,0.456,3.152,0.811,4.749,1.049c1.729,0.258,3.148,0.28,3.477,2.32c0.452,2.818-1.22,6.606-3.771,7.943"/>
		</g>
		<g>
			<path fill="#231F20" d="M430.545,160.346c-1.996-0.011-3.91-0.573-5.747-1.281c-2.208-0.853-4.204-1.532-6.572-1.603
				c-4.609-0.14-9.215,0.562-13.822,0.562c0-0.583,0.126-1.197,0.126-1.782c0-0.084-0.196-0.73-0.137-0.805
				c1.003,0,2.015,0.055,3.018,0.014c3.638-0.143,7.278-0.26,10.921-0.148c3.293,0.1,5.975,0.83,9.042,1.88
				c0.702,0.24,1.352,0.651,2.085,0.761c0.581,0.088,1.3-0.232,1.296,0.423c-0.006,0.664-0.252,1.172-0.255,1.836"/>
		</g>
		<g>
			<path fill="#231F20" d="M325.725,176.208c-0.367-3.423-2.988-8.149-7-7.864c-1.716,0.123-2.307,0.914-2.128,2.666
				c0.027,0.259,0.475,1.484,0.462,1.518c-0.169,0.473-0.249,0.9-0.418,1.374c-1.617-0.575-1.894-2.833-1.629-4.276
				c0.382-2.091,1.854-2.897,3.895-2.942c4.761-0.109,8.018,5.145,8.468,9.361c-0.521,0.057-1.158,0.115-1.682,0.171"/>
		</g>
		<g>
			<path fill="#231F20" d="M342.318,176.023c-1.537-3.302-0.979-8.177,3.461-8.62c3.718-0.372,6.035,3.761,7.57,6.501
				c-0.438,0.247-0.803,0.556-1.242,0.803c-0.088,0.05-1.123-1.842-1.262-2.056c-1.029-1.601-2.697-3.999-4.88-3.817
				c-2.271,0.191-3.196,2.389-2.918,4.387c0.104,0.738,0.468,1.442,0.781,2.12c-0.106,0.246-1.19,0.526-1.457,0.649"/>
		</g>
		<g>
			<path fill="#231F20" d="M377.398,182.007c-1.797-2.753-5.146-6.293-3.746-9.873c1.494-3.82,8.188-3.748,9.461,0.254
				c-0.344,0.108-0.736,0.194-1.078,0.304c-0.742,0.235-0.542-0.282-1.112-0.768c-1.141-0.971-3.651-1.651-4.909-0.517
				c-3.104,2.812,1.148,7.295,2.741,9.727c-0.438,0.289-0.966,0.71-1.403,0.997"/>
		</g>
		<g>
			<path fill="#231F20" d="M401.836,174.548c-2.963-1.894-6.047-6.025-6.264-9.607c-0.327-5.383,6.812-4.929,9.211-1.62
				c-0.407,0.295-0.766,0.669-1.171,0.963c0.105-0.079-2.386-1.538-2.671-1.633c-2.607-0.841-4.24,0.597-3.479,3.305
				c0.574,2.043,1.794,3.968,3.216,5.51c0.597,0.643,1.294,1.235,2.036,1.709c0.043,0.263-0.739,1.18-0.896,1.423"/>
		</g>
		<g>
			<path fill="#231F20" d="M325.178,127.032c-0.523,0-1.027-0.05-1.554-0.05c0-2.492,0.171-4.982,0.056-7.475
				c-0.015-0.314-0.332-2.96-0.271-2.971c0.496-0.082,0.998-0.107,1.493-0.19c0.582,3.519,0.199,7.095,0.199,10.64"/>
		</g>
		<g>
			<path fill="#231F20" d="M317.348,136.062c-1.375-2.508-3.421-4.579-4.713-7.141c0.323-0.162,0.657-0.326,0.978-0.486
				c0.775-0.39,0.809,0.521,1.223,1.162c1.253,1.936,2.862,3.645,3.973,5.673c-0.461,0.253-0.938,0.493-1.398,0.745"/>
		</g>
		<g>
			<path fill="#231F20" d="M355.037,126.074c-0.169-0.316-0.459-0.569-0.626-0.887c-0.349-0.648,0.173-0.511,0.685-0.971
				c1.121-1.007,1.731-2.541,2.17-3.953c0.441-1.426,0.707-2.924,0.786-4.414c0.021-0.416-0.251-1.517,0.218-1.534
				c0.443-0.018,0.91,0.042,1.354,0.024c0.147,3.913-0.813,9.717-4.646,11.763"/>
		</g>
		<g>
			<path fill="#231F20" d="M345.959,122.8c-0.05-1.941-0.329-3.875-0.293-5.82c0.805,0.018,1.576-0.31,1.583,0.592
				c0.013,1.734,0.196,3.452,0.243,5.184c-0.525,0.014-1.016,0.023-1.541,0.035"/>
		</g>
		<g>
			<path fill="#231F20" d="M374.577,121.752c-0.072-2.622-1.347-4.576-2.741-6.691c0.42-0.276,0.828-0.541,1.246-0.817
				c0.113-0.073,0.855,1.27,0.932,1.387c1.231,1.889,2.088,3.796,2.152,6.079c-0.525,0.015-1.109,0.039-1.636,0.054"/>
		</g>
		<g>
			<path fill="#231F20" d="M325.045,157.509c-1.855,0-3.541-0.848-4.877-2.087c0.303-0.325,0.576-0.685,0.877-1.01
				c0.244-0.261,1.916,1.067,2.454,1.259c0.259,0.093,2.382,0.387,2.366,0.295c0.083,0.496,0.172,1.008,0.255,1.502
				c-0.349,0.059-0.724,0.08-1.075,0.08"/>
		</g>
		<g>
			<path fill="#231F20" d="M351.113,154.125c-0.43,0-1.668,0.215-1.678-0.313c-0.011-0.444-0.027-0.908-0.037-1.353
				c1.347,0.085,2.898,0.306,4.14-0.364c0.644-0.347,0.869,0.463,1.274,1.018c-1.078,0.787-2.394,1.05-3.699,1.05"/>
		</g>
	</g>
	<rect id="FingersTarget" x="333.619" y="109.934" fill="#2B3278" fill-opacity="0" width="23.271" height="24.527"/>
	<polyline id="FingersClick" fill="#231F20" fill-opacity="0" points="285.02,163.935 303.146,111.708 315.721,85.613 
		378.996,101.467 385.87,117.913 398.271,134.461 425.083,150.313 400.172,179.205 326.837,182.736 	"/>
</g>
<rect id="FingersTargetFixed" x="333.619" y="132.935" fill="#2B3278" fill-opacity="0" width="23.271" height="24.527"/>
<image overflow="visible" enable-background="new    " width="72" height="37" id="ArrowProper" xlink:href="../../mod4/resized/arrow.png"  transform="matrix(1.0002 0 0 1.0002 175.2222 136.2339)">
</image>
</svg>
