<?xml version="1.0" encoding="utf-8"?>
<!-- Generator: Adobe Illustrator 15.0.0, SVG Export Plug-In . SVG Version: 6.00 Build 0)  -->
<!DOCTYPE svg PUBLIC "-//W3C//DTD SVG 1.1 Basic//EN" "http://www.w3.org/Graphics/SVG/1.1/DTD/svg11-basic.dtd">
<svg version="1.1" baseProfile="basic" id="Layer_1"
	 xmlns="http://www.w3.org/2000/svg" xmlns:xlink="http://www.w3.org/1999/xlink" x="0px" y="0px" width="720px" height="450px"
	 viewBox="0 0 720 450" xml:space="preserve">
<g>
	<path fill="#576260" d="M233.892,235.461c0,0-1.645,14.793-2.818,40.859c-1.174,26.066-1.411,29.119-0.94,34.52
		c0.471,5.402,57.534,10.332,71.624,10.568c14.089,0.234,34.52-9.16,34.52-9.16s5.167-13.385,13.385-38.041
		c8.219-24.656,13.856-30.529,11.272-36.633c-2.585-6.105-4.227-8.923-4.227-8.923s-19.491-4.696-58.473-3.992
		C259.253,225.364,233.892,235.461,233.892,235.461z"/>
	<path fill="#0090C0" d="M228.021,118.518c-6.105,3.992-11.742,7.984-14.794,17.612c-3.052,9.627,0.469,13.619,9.863,28.648
		c9.394,15.029,11.508,17.614,13.855,27.71c2.348,10.097,1.644,12.211,4.696,14.794c3.053,2.583,2.818,3.758,2.114,4.932
		c-0.705,1.173-6.576,6.103-6.34,10.097c0.235,3.992-1.878,7.045-2.583,8.923c-0.704,1.879-0.939,4.227-0.939,4.227
		s12.682,0.939,29.119,1.879s39.919,2.35,53.775-1.174c13.855-3.521,15.969-3.756,22.309-3.521c6.341,0.234,7.046,0.938,14.09-0.939
		c7.044-1.879,7.75-2.35,6.34-3.759s-2.817-5.871-2.817-8.453c0-2.583-2.818-2.349-4.932-4.228
		c-2.114-1.878-2.583-6.574-4.697-8.923c-2.114-2.348-4.696-12.914-4.696-15.967s-0.938-34.755-4.696-54.48
		c-3.757-19.726-1.645-26.064-13.855-30.762c-12.21-4.697-21.368-6.106-35.693-6.576
		C273.812,98.088,228.021,118.518,228.021,118.518z"/>
	<path fill="#0090C0" d="M211.819,138.712c-0.94,5.636-3.053,10.097-6.576,32.64c-3.522,22.543-3.523,24.658-4.462,25.832
		c-0.938,1.175-5.402,3.523-6.34,7.514c-0.938,3.992,0.471,5.638-1.878,7.985c-2.349,2.347-5.636,7.983-8.454,17.142
		c-2.818,9.157-7.279,11.509-11.741,18.083c-4.462,6.572-1.175,11.271-4.698,12.68c-3.522,1.41-9.392,2.113-8.923,8.688
		c0.47,6.576-1.643,9.158-2.582,9.863c-0.94,0.705-0.94,1.408-0.94,1.408l12.916,10.568c0,0,7.279-0.705,22.073-17.377
		s30.294-40.389,31.468-44.852c1.173-4.463,3.991-16.908,8.923-28.415c4.931-11.507,4.696-15.968,4.696-16.672
		C235.3,183.095,211.819,138.712,211.819,138.712z"/>
	<path fill="#ECAF8B" d="M304.34,100.2c3.054,3.288,8.69,11.037,3.289,28.179c-5.402,17.143-16.672,30.293-37.337,29.588
		c-20.666-0.705-30.293-12.915-33.347-23.012c-3.053-10.098-3.288-15.499-2.349-18.317c0.94-2.818,37.572-17.377,41.565-17.612
		S304.34,100.2,304.34,100.2z"/>
	<path fill="#ECAF8B" d="M202.425,80.709c-0.705,10.098,5.165,17.144,11.036,20.9c5.872,3.757,10.1,6.106,11.038,11.976
		c0.938,5.87,0.47,7.043,3.522,6.575c3.052-0.469,3.99-2.816,5.87-0.938c1.879,1.878,1.878,3.052,4.227,3.052
		c2.349,0,2.349,0,2.349,0s-0.705,2.115,1.409,2.584c2.114,0.47,3.758-0.235,4.462,1.174c0.704,1.409,4.462,2.115,7.045,1.645
		s7.75-6.341,11.036-8.454c3.288-2.113,14.324-11.741,17.377-13.385c3.053-1.645,10.567-7.75,10.567-7.75s-9.629-8.22-14.09-16.674
		c-4.461-8.454-10.097-20.665-20.194-21.839c-10.098-1.173-38.981-1.172-47.67,6.106S202.425,80.709,202.425,80.709z"/>
	<path fill="#5D4530" d="M268.11,43.889c0,0,6.341-3.17,13.738,1.409c7.397,4.579,19.021,14.442,20.077,23.6
		c1.057,9.158-1.409,13.385-1.761,20.43c-0.353,7.045,9.51,9.511,9.51,9.511s-4.227,6.34-14.794,2.818S281.495,87.919,281.848,77
		c0.352-10.919-1.409-19.726-3.17-21.839c-1.761-2.113-7.045-3.17-7.045-3.17S269.519,46.002,268.11,43.889z"/>
	<path fill="#5D4530" d="M275.507,74.534c-2.466-1.409-5.988-3.17-7.397-3.522c-1.409-0.352-5.284-0.705-5.284-0.705
		s-3.875-4.579-8.454-2.466c-4.579,2.114-3.17,6.693-2.818,8.807c0.352,2.113,0,4.931-2.466,5.635
		c-2.466,0.705-2.466,0.705-2.466,0.705s-5.284-4.227-10.215-4.227c-4.932,0-8.806,0.705-13.033,0.705
		c-4.228,0-9.511-1.409-9.511-1.409s0,1.761,2.114,2.466c2.113,0.705,4.931,1.761,4.931,1.761s-2.114,0.353-4.931,0.353
		c-2.818,0-5.284,0-5.284,0s2.466,3.17,4.58,4.227c2.113,1.057,6.692,2.114,6.692,2.114s-3.17,0.705-8.102-0.705
		c-4.931-1.409-6.692-3.17-6.692-3.17s1.761,4.227,3.875,6.693c2.113,2.465,7.045,4.931,7.045,4.931s-4.932,1.762-11.976-2.113
		c-7.045-3.875-8.807-10.215-8.807-10.215s-8.101-2.817-5.635-10.214c2.465-7.397,6.34-8.806,6.34-8.806s0.705-12.329,11.271-20.782
		c10.567-8.454,25.009-12.681,40.508-7.75c15.499,4.932,20.782,14.442,21.839,21.134C272.689,64.671,275.507,74.534,275.507,74.534z
		"/>
	<path fill="#46514E" d="M352.569,260.412c-4.992,9.469-5.259,20.088-10.453,29.578c-4.296,7.852-9.588,14.646-13.825,22.465
		c17.757,6.516,19.876-38.869,23.573-48.871"/>
	<path fill="#46514E" d="M281.064,249.494c9.271,12.488,4.036,23.332,4.15,37.23c0.457-10.152,7.122-15.744,7.721-30.117
		c-2.762-0.893-5-2.262-7.292-3.943"/>
	<path fill="#0082A9" d="M230.515,176.751c-2.18,18.766-9.854,35.023-11.2,54.276c0.313-15.872,26.005-39.032,12.8-53.209"/>
	<path fill="#0082A9" d="M305.715,214.085c-4.634,0.303-9.126-2.106-12.302-3.03c7.369,11.005,31.407,10.065,28.833-6.139
		c-3.932,5.972-12.538,7.765-19.731,8.637"/>
	<path fill="#0090C0" d="M327.353,106.775c4.227,2.584,21.84,13.619,22.309,26.065c0.47,12.447,0.705,24.189-2.348,39.922
		c-3.053,15.732-4.933,30.059-12.917,45.791c-7.982,15.733-11.271,23.952-12.445,24.187c-1.173,0.236-36.164,15.5-53.775,19.492
		c-17.612,3.992-17.848,3.756-21.839,3.756s-8.218,1.41-8.218,1.41l-8.689-23.014c0,0,4.464-2.584,12.447-5.166
		c7.983-2.584,9.627-5.635,13.854-4.461s8.923,0,11.741-1.645c2.818-1.645,11.271-3.053,15.029-4.462
		c3.757-1.409,7.751-3.289,11.507-7.045c3.756-3.756,9.392-1.877,9.392-1.877s0.705-4.933,1.409-5.167s1.175-0.234,1.175-0.234
		s-1.643-8.689,2.114-18.787c3.756-10.097,10.098-22.777,15.499-33.345c5.4-10.567,11.271-27.24,11.271-28.649
		S327.353,106.775,327.353,106.775z"/>
	<g>
		<g>
			<g>
				<path d="M359.148,236.213c0.919,2.086,1.887,4.475,1.194,6.787c-0.445,1.484-1.534,2.723-2.689,3.715
					c-0.545,0.469-0.412,0.258-0.023,0.744c0.236,0.299,0.412,0.625,0.648,0.922c3.244-2.584,4.679-5.973,3.384-9.996
					c-0.561-1.742-1.381-3.375-1.959-5.105c-0.138-0.416-0.342-2.656-0.521-2.682c-0.523-0.074-1.198-0.037-1.72-0.111
					c-0.286,2,0.814,3.98,1.601,5.764"/>
			</g>
		</g>
		<g>
			<g>
				<path d="M355.398,256.166c-3.461,8.914-7.675,17.723-10.167,26.959c-1.034,3.83-0.99,7.969-2.085,11.781
					c-0.896,3.115-2.036,6.244-3.441,9.17c-0.178,0.371-2.139,3.193-2.16,3.178c0.582,0.375,0.5,0.957,1.082,1.33
					c5.772-8.955,7.281-19.785,10.498-29.781c2.006-6.238,4.223-12.449,6.602-18.557c1.999-5.133,4.943-10.176,5.762-15.664
					c-0.588-0.088-1.789,0.104-2.375,0.016c-0.439-0.064-0.217-0.438-0.317,0.166c-0.139,0.834-0.631,1.584-0.835,2.4
					c-0.752,3.035-2.063,5.842-3.231,8.734"/>
			</g>
		</g>
		<g>
			<g>
				<path d="M292.404,255.824c0.236,6.959-2.454,13.285-4.608,19.771c-2.069,6.23-3.375,12.684-4.198,19.203
					c0.394,0.049,0.843,0.305,1.235,0.354c0.446,0.057,0.545-1.836,0.608-2.268c0.288-1.934,0.199-3.947,0.612-5.857
					c0.698-3.232,1.626-6.447,2.642-9.596c2.292-7.115,5.818-14.057,5.559-21.68c-0.469,0.016-1.378,0.037-1.848,0.053"/>
			</g>
		</g>
		<g>
			<g>
				<path d="M229.764,281.926c-0.15,3.143-0.099,6.295-0.249,9.439c-0.088,1.834-0.165,3.668-0.253,5.502
					c-0.017,0.371,0.157,0.752,0.139,1.121c-0.002,0.059,1.388,0.111,1.581,0.125c0.247-5.168,0.656-10.326,0.902-15.494
					c0.094-1.949-0.086-3.912-0.001-5.863c0.069-1.508,0.465-3,0.534-4.508c0.002-0.115-0.201-0.559-0.277-0.654
					c-0.149-0.189-1.315-0.148-1.595-0.164c-0.155,3.506-0.308,7.006-0.463,10.51"/>
			</g>
		</g>
		<g>
			<g>
				<path d="M208.436,146.906c-1.401,6.036-2.037,12.214-2.864,18.352c-0.418,3.091-0.465,6.251-1.002,9.325
					c-0.622,3.569-2.366,6.943-2.892,10.528c-0.457,3.125-1.04,6.182-2.012,9.206c-0.367,1.146,0.494,3.02-0.277,3.952
					c-0.867,1.048-2.392,1.438-3.204,2.552c-2.031,2.786-2.895,6.483-2.461,9.879c0.38-0.047,1.457-0.042,1.683-0.31
					c-0.064-0.531,0.008-1.012,0.017-1.545c0.033-2.512,0.556-5.388,2.134-7.404c0.931-1.192,2.891-1.499,3.752-2.767
					c0.972-1.429,1.857-3.19,2.251-4.861c0.908-3.838,0.051-8.043,0.912-11.894c3.338-14.931,3.121-31.023,9.123-45.285
					c1.552-3.69,4.458-6.72,6.984-9.84c1.091-1.348,1.86-2.998,3.217-4.082c0.581-0.464,1.048-0.381,0.606-0.998
					c-0.304-0.424-0.852-1.026-1.156-1.45c-8.302,5.945-12.668,17.104-14.881,26.625"/>
			</g>
		</g>
		<g>
			<g>
				<path d="M227.44,173.144c3.908,5.396,7.494,11.294,8.523,18.041c0.775,5.069,0.803,10.311,3.678,14.809
					c3.406,5.326,9.737,9.352,16.062,9.167c4.825-0.144,9.532-2.545,13.491-5.226c-0.222-0.328-0.657-0.572-0.878-0.899
					c-0.226-0.334-0.28,0.334-0.568,0.517c-1.139,0.719-2.434,1.246-3.662,1.801c-3.003,1.36-6.362,1.741-9.677,1.593
					c-6.99-0.313-13.57-5.317-15.25-12.169c-0.74-3.02-0.733-6.139-1.141-9.208c-0.559-4.218-2.081-7.912-4.308-11.504
					c-2.008-3.238-4.378-6.241-6.584-9.341c-1.008-1.419-2.149-2.767-2.875-4.355c-0.279-0.61-0.783-1.184-0.901-1.846
					c-0.147-0.834,0.301-0.854-0.574-0.854c-0.235,0-0.333-0.082-0.57-0.082c-0.011,3.677,2.676,7.139,4.706,9.94"/>
			</g>
		</g>
		<g>
			<g>
				<path d="M306.295,104.25c3.072,6.033,3.469,12.285,1.752,18.694c-1.735,6.483-3.757,13.55-7.293,19.278
					c-3.33,5.395-8.293,9.895-14.17,12.337c-7,2.908-15.21,3.077-22.724,1.733c-8.39-1.5-17.046-5.943-22.151-12.778
					c-2.271-3.041-3.144-6.865-4.417-10.417c-0.771-2.159-1.25-4.27-1.602-6.54c-0.204-1.32-0.737-2.598-0.828-3.931
					c-0.225-0.147-1.393,0.103-1.677,0.122c0.454,6.678,2.943,13.253,6.425,19c3.348,5.52,8.368,10.363,14.019,13.374
					c6.453,3.44,13.865,4.212,21.083,3.264c7.161-0.939,14.928-2.856,20.509-7.582c6.211-5.262,9.195-13.25,11.997-20.701
					c3.255-8.662,4.929-17.901,0.519-26.557c-0.418,0.213-0.118,0.049-0.536,0.263"/>
			</g>
		</g>
		<g>
			<g>
				<path d="M303.243,214.048c-0.749-0.115-1.502-0.272-2.261-0.468c-2.445-0.632-4.854-1.376-7.132-2.452
					c-0.314-0.148-2.776-1.343-2.721-1.453c0.198-0.401,0.257-1.162,0.457-1.566c4.234,2.094,8.549,4.7,13.35,5.004L303.243,214.048
					z"/>
			</g>
		</g>
		<g>
			<g>
				<path d="M185.162,225.181c-1.332,4.112-2.652,7.94-5,11.635c-3.562,5.604-8.375,10.293-10.785,16.561
					c-1.07,2.781-1.676,5.609-4.063,7.551c-2.477,2.012-6.203,2.764-7.554,5.936c-1.313,3.082,1.198,6.816,0.211,9.902
					c-0.325,1.02-1.414,2.049-2.372,2.494c-0.677,0.314-0.831-0.365-0.595,0.322c0.123,0.357,0.277,1.373,0.401,1.732
					c2.94-1.012,3.999-3.967,4.027-6.945c0.035-3.559-0.988-7.477,2.336-9.781c1.435-0.994,3.104-1.557,4.457-2.676
					c1.473-1.219,3.122-2.316,3.976-4.021c1.16-2.314,1.344-5.082,2.52-7.395c3.464-6.826,9.411-12.213,11.811-19.613
					c1.373-4.236,3.118-8.785,5.521-12.555c0.901-1.415,1.692-2.935,2.998-3.984c0.458-0.369,1.82-0.744,1.421-1.314
					c-0.264-0.377-0.974-0.429-1.238-0.806c-4.628,3.24-6.33,7.775-7.874,13.016"/>
			</g>
		</g>
		<g>
			<g>
				<path d="M216.07,236.965c-3.105,4.262-6,8.516-8.546,13.139c-1.604,2.912-3.295,5.813-5.052,8.637
					c-4.917,7.904-12.682,13.793-19.146,20.426c0.158,0.146,1.642,1.58,1.714,1.506c0.465-0.48,0.636-1.246,1.102-1.725
					c1.465-1.502,3.199-2.738,4.666-4.242c4.805-4.928,9.364-9.857,12.965-15.793c2.175-3.586,4.812-6.916,6.876-10.566
					c1.645-2.912,3.313-5.76,5.288-8.465c1.706-2.338,3.459-4.684,4.993-7.141c1.175-1.883,2.074-4.033,2.668-6.179
					c-0.506-0.141-1.182-0.151-1.689-0.292c-0.243-0.066-0.824,2.627-1.044,3.076c-1.316,2.682-3.487,4.887-5.266,7.273"/>
			</g>
		</g>
		<g>
			<g>
				<path d="M233.868,186.181c0.1,4.93-1.911,9.858-3.719,14.346c-1.445,3.58-3.267,6.991-4.392,10.684
					c-2.022,6.638-3.734,13.37-5.272,20.137c0.513,0.117,0.636,0.277,1.148,0.395c0.333,0.074,0.536-2.838,0.661-3.308
					c0.748-2.797,1.745-5.536,2.621-8.295c0.756-2.379,1.704-4.697,2.432-7.084c1.08-3.55,1.925-7.158,3.323-10.601
					c2.103-5.179,4.623-10.563,4.507-16.269c-0.587,0.012-0.441,0.03-1.029,0.042"/>
			</g>
		</g>
		<g>
			<g>
				<path d="M193.693,216.112c-0.524,0.123-1.131,0.482-1.655,0.604c4.145,2.792,8.547,6.145,13.454,7.43
					c0.066-0.25,0.571-1.509,0.462-1.722c-1.245-0.326-2.539-0.609-3.692-1.175c-2.31-1.136-4.444-2.581-6.587-4.003
					c3.308-0.724,6.619-1.499,9.988-1.845c1.691-0.174,3.41-0.01,5.11-0.026c0.382-0.003,1.57,0.15,1.582-0.308
					c0.011-0.396-0.073-0.678-0.062-1.075c-6.244-0.165-12.501,0.871-18.561,2.291"/>
			</g>
		</g>
		<g>
			<g>
				<path d="M190.366,219.838c4.036,2.474,7.938,5.345,12.192,7.419c0.173-0.356,0.292-0.818,0.465-1.175
					c0.182-0.378-1.709-1.173-2.125-1.409c-1.731-0.979-3.443-1.979-5.138-3.016c-1.59-0.977-3.146-1.999-4.736-2.974
					c-0.233,0.409-0.518,0.764-0.75,1.172"/>
			</g>
		</g>
		<g>
			<g>
				<path d="M201.081,205.337c0.095,0.459,0.186,0.819,0.281,1.278c9.402-1.952,18.319-5.333,26.864-9.692
					c-0.207-0.4-0.072-0.71-0.278-1.11c-0.042-0.08-3.451,1.361-3.806,1.528c-2.535,1.202-5.032,2.469-7.649,3.478
					c-5.006,1.929-10.094,3.722-15.346,4.813"/>
			</g>
		</g>
		<g>
			<g>
				<path d="M348.392,122.824c0.953,5.076-0.321,10.54-0.438,15.676c-0.169,7.415,0.742,14.918,0.119,22.309
					c-0.669,7.918-3.272,15.674-4.456,23.535c-1.226,8.133-2.356,16.326-5.419,23.943c-3.276,8.153-7.767,16-12.13,23.637
					c-2.131,3.73-3.422,8.088-6.048,11.492c-0.549,0.711-2.434,0.344-3.017,1.029c-0.263,0.307,2.044,2.031,2.34,2.293
					c7.009-7.975,10.892-18.177,15.372-27.704c3.251-6.915,6.108-13.924,8.308-21.249c1.911-6.363,3.858-12.608,4.596-19.198
					c1.062-9.479,1.871-18.998,2.464-28.519c0.324-5.197,0.475-10.413,0.474-15.622c0-3.948-1.05-7.612-1.781-11.506
					c-0.692,0.13,0.211-0.184-0.482-0.055"/>
			</g>
		</g>
		<g>
			<g>
				<path d="M291.605,99.394c3.814,0.36,7.566,1.425,11.348,2.036c7.196,1.163,14.607,2.65,21.448,5.24
					c6.132,2.323,11.561,6.343,15.961,11.134c3.35,3.649,6.726,8.158,8.009,13.051c0.046,0.183,0.516,1.311,0.51,1.311
					c0.69,0,1.477,0.475,2.167,0.475c0.001-4.715-3.921-9.267-6.692-12.786c-4.093-5.196-9.107-9.596-14.896-12.827
					c-6.268-3.498-13.446-5.231-20.425-6.572c-5.319-1.023-10.664-1.915-16.048-2.507c-0.411-0.043-0.44,0.12-0.853,0.082
					c-0.064,0.702-0.076,1.066-0.14,1.768"/>
			</g>
		</g>
		<g>
			<g>
				<path d="M282.392,257.627c-6.061,2.014-12.246,4.346-18.487,5.699c-4.232,0.92-8.63-0.643-12.92-0.416
					c-3.46,0.182-6.636,1.895-9.948,2.914c0.107,0.346,0.201,1.984,0.487,2.135c0.768-0.234,1.642-0.377,2.422-0.564
					c2.8-0.674,5.563-0.795,8.436-0.887c3.148-0.102,6.333-0.168,9.468-0.568c2.737-0.348,5.112-2.281,7.729-3.123
					c11.585-3.729,23.439-6.754,34.673-11.443c6.866-2.867,13.583-6.121,20.184-9.555c-0.269-0.516-0.759-2.129-1.334-1.832
					c-1.417,0.732-2.58,1.98-4.013,2.68c-3.561,1.74-7.233,3.277-10.863,4.865c-8.459,3.697-17.075,7.168-25.854,10.033"/>
			</g>
		</g>
		<g>
			<g>
				<path d="M291.966,222.389c-1.327,2.914-4.709,3.802-7.503,4.671c-1.753,0.547-3.652,0.666-5.394,1.246
					c-2.55,0.851-4.932,2.518-7.645,2.623c-1.822,0.072-3.092,0.566-4.67,1.514c-1.665,1-3.239,2.494-5.131,3.029
					c-1.58,0.445-3.565,0.041-5.132-0.482c-0.867-0.289-1.64-0.783-2.565-0.867c-2.825-0.258-5.801,1.268-8.276,2.338
					c-5.088,2.203-10.178,4.561-15.519,6.033c-0.849,0.234-0.167,1.006,0.021,1.707c4.796-1.262,9.323-3.27,13.935-5.092
					c1.528-0.604,3.027-1.154,4.502-1.873c1.324-0.646,2.97-1.533,4.459-1.699c0.667-0.072,1.394,0.596,2.005,0.844
					c1.492,0.602,2.959,1.18,4.574,1.105c1.753-0.084,3.299-1.01,4.85-1.811c1.638-0.846,3.183-2.018,4.918-2.654
					c1.167-0.428,2.554-0.396,3.781-0.574c1.38-0.201,2.768-0.275,4.096-0.695c2.179-0.691,4.309-1.539,6.489-2.23
					c2.699-0.854,5.231-2.02,7.514-3.784c1.874-1.447,2.72-4.049,5.159-4.668c2.37-0.601,5.115-0.293,7.499-0.001
					c0.03-0.261,0.343-1.818,0.214-1.833c-1.3-0.161-2.615-0.307-3.921-0.417c-3.151-0.258-6.18,0.634-7.642,3.852"/>
			</g>
		</g>
		<g>
			<g>
				<path d="M326.454,153.954c-2.261,6.135-4.281,12.3-7.95,17.745c-3.553,5.271-6.32,10.908-8.479,16.885
					c-1.716,4.748-3.69,9.482-4.04,14.533c-0.188,2.734-0.435,5.447-0.564,8.178c-0.029,0.613,0.646,1.75,0.063,2.121
					c-0.48,0.308-0.072,1.148,0.129,1.665c2.546-0.979,1.402-5.168,1.393-7.293c-0.013-3.11,0.725-6.172,1.31-9.23
					c1.304-6.814,2.901-12.328,6.121-18.456c1.846-3.512,4.326-7.341,6.34-10.744c1.984-3.346,4.255-7.376,5.65-11.001
					c1.387-3.605,2.195-7.459,3.777-10.987c0.666-1.486,2.011-2.594,2.97-3.914c0.124-0.17,0.66-1.458,0.614-1.502
					c-0.318-0.318-0.33-0.545-0.648-0.863c-3.42,3.418-4.961,8.487-6.587,12.901"/>
			</g>
		</g>
		<g>
			<g>
				<path d="M308.507,212.905c-2.402,0.641-7.882,1.846-6.707,5.47c0.659,2.037,2.427,3.735,3.968,5.117
					c0.261,0.234,1.725,1.9,2.07,1.828c0.26-0.055,0.63-0.896,0.814-1.111c-1.409-1.194-2.66-2.542-3.906-3.909
					c-0.662-0.725-1.988-1.819-1.881-2.914c0.139-1.408,2.591-1.993,3.663-2.345c1.231-0.407,2.446-0.839,3.694-1.189
					c-0.073-0.232-0.188-1.229-0.381-1.331c-0.194-0.101-1.094,0.345-1.327,0.409"/>
			</g>
		</g>
		<g>
			<g>
				<path d="M305.601,218.511c-0.458,0.132-0.935,0.056-1.393,0.188c3.8,2.791,8.328,3.966,12.942,4.742
					c0.074-0.442,0.063-0.728,0.138-1.172c0.011-0.067-2.705-0.708-3.021-0.787c-2.207-0.545-4.498-1.225-6.542-2.231
					c5.042-0.675,10.122,0.615,15.167,0.498c-0.008-0.32-0.184-0.463-0.191-0.785c-0.017-0.679-0.119-0.514-0.778-0.525
					c-1.915-0.03-3.84-0.016-5.744-0.198c-3.494-0.332-7.208-0.919-10.636,0.07"/>
			</g>
		</g>
		<g>
			<g>
				<path d="M302.554,224.614c4.543,2.41,9.858,2.941,14.923,2.939c2.022-0.002,4.044-0.221,6.063-0.296
					c0.601-0.021,1.207,0.124,1.805,0.103c0.085-0.004-0.006-1.467-0.012-1.644c-3.742,0.138-7.496,0.34-11.24,0.117
					c-2.42-0.142-4.793-0.604-7.115-1.324c-1.244-0.388-2.481-0.795-3.634-1.405c-0.241,0.108-0.446,0.878-0.578,1.128"/>
			</g>
		</g>
		<g>
			<g>
				<path d="M205.225,94.251c1.883,2.91,4.08,5.586,6.866,7.682c2.483,1.867,5.582,2.947,7.779,5.161
					c3.677,3.707,4.207,9.583,5.366,14.449c0.444-0.121,0.996-0.065,1.441-0.183c0.494-0.134,0.292-0.385,0.174-0.875
					c-0.253-1.063-0.38-2.157-0.619-3.223c-0.858-3.827-1.905-7.868-4.564-10.893c-2.536-2.885-6.636-3.708-9.563-6.131
					c-1.514-1.253-2.58-2.991-3.756-4.563c-0.281-0.376-1.5-2.26-1.777-2.081c-0.442,0.286-1.2,0.538-1.642,0.824"/>
			</g>
		</g>
		<g>
			<g>
				<path d="M230.032,118.581c-1.328,0.667-2.96,1.668-4.438,0.913c-0.696-0.356-0.575-0.609-1.083-0.014
					c-0.246,0.289-0.406,0.576-0.652,0.865c1.35,1.149,2.95,1.35,4.62,0.842c1.453-0.441,3.297-2.082,4.825-1.917
					c0.902,0.098,1.245,1.685,1.415,2.356c0.143,0.577-0.07,1.543,0.631,1.432c0.455-0.073,0.854-0.247,1.308-0.319
					c-0.226-1.429-0.537-3.057-1.537-4.175c-1.434-1.602-3.451-0.699-5.044,0.104"/>
			</g>
		</g>
		<g>
			<g>
				<path d="M255.615,125.674c-1.596,1.026-3.708,2.624-5.712,2.167c-1.225-0.28-1.883-1.478-2.571-2.454
					c-0.503-0.773-1.26-1.272-2.265-1.306c-0.67-0.022-1.274-0.036-1.917,0.075c-0.501,0.087-0.356,0.388-0.815,0.192
					c-0.396-0.26-0.864-0.511-1.042-0.979c-0.256-0.673-0.118-1.293-0.015-1.983c-1.07,0.189-2.049-0.058-3.127,0.088
					c-0.695,0.095-1.389,0.201-2.083,0.294c-0.291,0.04-0.033,1.278-0.018,1.562c1.262-0.169,2.577-0.315,3.832-0.535
					c0.059,1.426,1.05,1.966,2.125,2.717c0.919,0.642,1.596,0.041,2.559-0.304c0.926-0.331,1.321,1.263,1.778,1.9
					c0.751,1.05,2.157,1.977,3.429,2.223c2.989,0.58,6.382-1.685,8.572-3.478c2.815-2.306,5.089-5.297,7.316-8.159
					c-0.608-0.473-0.748-0.975-1.288-0.288c-1.018,1.295-2.414,2.276-3.517,3.499c-1.585,1.761-3.23,3.491-5.234,4.778"/>
			</g>
		</g>
		<g>
			<g>
				<path d="M213.259,76.547c1.102,2.566,3.926,3.752,6.43,4.017c3.481,0.368,7.035-0.512,10.5-0.894
					c1.965-0.216,3.943-0.538,5.919-0.619c2.046-0.083,4.405-0.133,6.303,0.766c1.863,0.884,2.392,3.238,4.2,4.188
					c0.209-0.396,0.231-0.838,0.44-1.236c-0.052,0.099-1.612-1.695-1.776-1.909c-1.523-1.981-3.648-2.852-6.084-3.007
					c-2.681-0.172-5.378,0.479-8.042,0.78c-3.693,0.417-7.494,0.45-11.21,0.08c-1.519-0.153-3.102-0.443-4.38-1.338
					c-0.506-0.357-1.105-0.638-1.351-1.212c-0.223-0.075-0.945,0.386-1.182,0.487"/>
			</g>
		</g>
		<g>
			<g>
				<path d="M252.297,76.562c0.007,2.375-2.421,3.99-4.366,4.804c-1.007,0.421-2.081,0.758-3.174,0.817
					c-0.549,0.029-0.301,0.958-0.301,1.449c3.737-0.007,9.396-2.775,9.388-7.078c-0.469,0.001-0.932,0.035-1.402,0.036"/>
			</g>
		</g>
		<g>
			<g>
				<path d="M254.976,66.832c-4.392,1.548-5.104,6.604-3.548,10.493c0.417-0.166,0.721-0.463,1.138-0.631
					c-0.095,0.038-0.462-2.747-0.469-3.104c-0.044-2.068,0.736-4.017,2.639-5.025c3.657-1.936,5.899,0.476,8.034,3.09
					c2.206,2.7,3.26,6.723,2.965,10.167c-0.142,1.672-0.884,3.354-2.374,4.309c-0.821,0.528-1.708,0.948-2.67,0.929
					c-0.163,0.179-0.027,0.874-0.033,1.138c7.289,0.14,7.134-8.571,5.337-13.497c-1.602-4.394-5.881-9.942-11.103-8.105"/>
			</g>
		</g>
		<g>
			<g>
				<path d="M255.052,76.756c0.049,1.85,0.929,3.166,2.931,2.744c0.048,0.232,0.258,2.572,0.118,2.533
					c0.434,0.122,0.82,0.204,1.253,0.326c0.439-1.554,0.112-3.061-0.342-4.557c-0.548,0.184-1.86,0.853-2.29,0.203
					c-0.252-0.381-0.065-1.256-0.506-1.245c-0.396,0.011-0.779-0.008-1.175,0.003"/>
			</g>
		</g>
		<g>
			<g>
				<path d="M257.861,69.75c-2.657,0.583-4.039,3.67-3.856,6.152c0.321-0.023,0.611,0.023,0.933,0
					c0.666-0.049,0.368-0.333,0.428-0.981c0.125-1.347,0.839-2.719,2.002-3.473c1.178-0.762,2.289-0.296,2.947,0.849
					c0.174,0.304,0.207,0.842,0.585,0.7c0.37-0.14,0.73-0.239,1.101-0.378c-0.659-1.754-2.115-3.411-4.16-2.96"/>
			</g>
		</g>
		<g>
			<g>
				<path d="M255.541,74.888c0.163,0.275,0.293,0.587,0.457,0.864c0.374,0.636,0.72,0.021,1.332-0.235
					c1.426-0.596,3.036-0.53,3.82,0.988c0.529,1.017,1.168,3.912,0.1,4.645c-1.63,1.123-0.424,2.346,0.884,2.988
					c0.175-0.356,0.348-0.602,0.523-0.957c0.221-0.456-0.621-0.39-0.82-0.789c2.364-0.394,1.287-5.4,0.505-6.749
					c-1.51-2.606-4.541-2.033-6.776-0.717"/>
			</g>
		</g>
		<g>
			<g>
				<path d="M263.634,69.725c0.015,0.396,0.107,0.757,0.124,1.153c0.014,0.391,1.375,0.241,1.797,0.306
					c1.919,0.297,3.737,1.116,5.438,2.037c1.709,0.925,3.425,1.94,4.822,3.295c0.174,0.169,1.344,1.652,1.384,1.622
					c0.36-0.27,0.766-0.506,1.126-0.776c-3.177-4.246-9.286-7.935-14.697-7.736"/>
			</g>
		</g>
		<g>
			<g>
				<path d="M229.142,33.758c-17.306,2.391-29.912,18.005-32.902,34.75c0.366,0.063,1.176,0.399,1.455,0.212
					c0.166-0.929,1.148-1.613,1.39-2.526c0.552-2.094,0.379-4.439,1.224-6.434c2.024-4.776,4.707-9.546,8.241-13.355
					c9.204-9.919,23.611-13.329,36.681-10.836c8.861,1.691,16.46,7.68,21.306,15.452c2.515,4.037,4.479,8.301,5.582,12.88
					c1.23,5.11,2.052,10.314,4.732,14.932c0.328-0.19,0.686-0.15,0.785-0.48c-0.88-1.516-1.571-3.209-2.01-4.903
					c-0.765-2.953-0.742-6.11-1.43-9.083c-1.34-5.785-2.695-11.705-6.215-16.584c-7.406-10.271-20.287-15.099-32.597-14.778
					c-2.083,0.054-4.125,0.844-6.189,1.128"/>
			</g>
		</g>
		<g>
			<g>
				<path d="M263.125,43.453c0.197,0.198,0.749,0.961,1.009,0.994c0.503-0.503,1.239-0.957,1.985-0.719
					c1.366,0.435,2.281,2.06,2.841,3.254c0.725,1.544,1.286,3.201,1.689,4.857c0.136,0.563,0.123,1.166,0.183,1.742
					c0.033,0.295,1.183,0.053,1.478,0.031c-0.268-3.55-3.985-15.21-9.115-10.096"/>
			</g>
		</g>
		<g>
			<g>
				<path d="M266.334,44.086c0.268,0.313,0.539,0.883,0.916,0.954c1.07-0.908,2.716-0.505,4.102-0.706
					c2.884-0.421,5.952-0.4,8.563,0.754c5.42,2.394,10.263,6.62,14.023,11.208c4.729,5.769,8.545,13.376,7.285,20.935
					c-0.822,5.117-2.222,10.162-1.704,15.382c0.46,4.625,2.517,8.389,5.742,11.678c0.289-0.283,1.572-1.072,1.607-1.445
					c-1.365-1.393-3.475-2.386-4.395-4.11c-1.504-2.821-1.128-6.228-0.998-9.399c0.229-5.509,2.295-10.923,2.068-16.452
					c-0.31-7.523-4.088-15.078-9.194-20.467c-4.357-4.596-10.965-7.616-17.052-9.449c-3.833-1.154-7.634-1.433-10.837,1.286"/>
			</g>
		</g>
		<g>
			<g>
				<path d="M273.334,50.235c0.001,0.687-0.265,1.28,0.479,1.351c0.885,0.087,1.643,0.995,2.309,1.577
					c1.604,1.406,2.688,3.531,3.261,5.526c1.568,5.453,0.989,11.394,1.171,17.031c0.098,3.076,0.004,6.276,0.433,9.326
					c0.396,2.815,1.775,5.589,3.122,8.085c2.888,5.347,8.147,9.807,14.353,10.349c3.723,0.326,8.787-0.565,10.963-4.124
					c-0.325-0.198-0.167-0.292-0.491-0.49c-0.536-0.328-0.371-0.168-0.771,0.305c-0.851,1.007-2.311,1.366-3.549,1.719
					c-2.722,0.779-5.874,1.106-8.597,0.292c-6.141-1.838-9.772-7.494-11.578-13.465c-0.941-3.115-1.935-6.109-2.016-9.338
					c-0.072-2.81,0.843-5.668,0.655-8.473c-0.355-5.259-1.51-11.128-4.256-15.774c-1.235-2.09-2.954-3.381-5.48-3.377"/>
			</g>
		</g>
		<g>
			<g>
				<path d="M270.589,51.955c2.178,1.079,4.578,1.648,6.958,2.041c0.289,0.048,2.388,0.655,2.62,0.43
					c0.193-0.186,0.091-1.122,0.135-1.405c-1.918-0.29-3.837-0.578-5.721-1.047c-1.166-0.292-2.313-0.692-3.392-1.227
					c-0.23,0.101-0.515,1.032-0.634,1.274"/>
			</g>
		</g>
		<g>
			<g>
				<path d="M297.09,88.251c0.458,3.923,2.052,7.682,5.682,9.534c3.002,1.535,6.566,1.631,9.875,1.5
					c-0.025-0.64,0.244-1.278-0.484-1.258c-1.314,0.036-2.647-0.026-3.953-0.178c-2.041-0.236-4.146-0.814-5.859-1.989
					c-1.44-0.988-2.545-2.434-3.199-4.048c-0.391-0.961-0.504-2.018-0.663-3.042c-0.092-0.586-0.018-0.829-0.601-0.759
					c-0.318,0.037-0.531,0.213-0.851,0.249"/>
			</g>
		</g>
		<g>
			<g>
				<path d="M274.479,75.022c1.001,2.809,2.571,5.455,4.093,8.004c1.836,3.071,3.823,6.274,6.531,8.656
					c0.33-0.375,1.083-0.836,0.665-1.222c-0.764-0.704-1.379-1.552-2.034-2.357c-1.487-1.826-2.965-3.683-4.17-5.706
					c-1.083-1.816-2.121-3.685-3.018-5.601c-0.306-0.656-0.359-1.422-0.614-2.103c-0.128-0.342-1.177,0.229-1.496,0.343"/>
			</g>
		</g>
		<g>
			<g>
				<path d="M202.717,93.068c2.448,2.192,5.461,3.615,8.664,4.322c1.613,0.357,3.249,0.583,4.901,0.583
					c0.945-0.002,1.897,0.022,2.837-0.083c0.833-0.093,0.741-0.036,0.805-0.806c0.03-0.352,0.402-0.677,0.432-1.029
					c0.011-0.123-2.145-0.897-2.4-1.004c-1.602-0.68-3.14-1.492-4.522-2.552c-1.037-0.795-2.217-1.552-2.921-2.658
					c-0.376-0.587-0.163-0.812-0.762-0.495c-0.338,0.176-0.433,0.413-0.768,0.59c1.516,2.881,4.243,5.001,7.109,6.376
					c-5.847-0.059-11.727-2.544-15.069-7.452c-1.581-2.322-2.427-5.133-2.861-7.902c-0.233-1.497-0.389-3.019-0.329-4.533
					c-0.197-0.201-1.28-0.058-1.592-0.068c-0.224,6.203,1.772,12.485,6.482,16.703"/>
			</g>
		</g>
		<g>
			<g>
				<path d="M210.896,81.352c-0.435,0.022-0.784-0.039-1.219-0.017c2.518,3.438,5.502,5.777,9.418,7.43
					c-2.612-0.276-5.185-0.965-7.507-2.25c-1.088-0.603-2.013-1.415-2.639-2.505c-0.18-0.314-0.323-0.815-0.714-0.684
					c-0.376,0.125-0.74,0.157-1.115,0.28c1.698,5.075,8.443,6.121,13.036,6.473c1.035,0.08,2.066,0.259,3.104,0.263
					c0.562,0.001,0.523-0.179,0.61-0.715c0.153-0.964-0.356-0.78-1.268-1.106c-3.619-1.299-7.486-3.02-10.178-5.854
					c3.201-0.008,6.534,0.226,9.727,0.439c0.013-0.26,0.224-1.442-0.028-1.46c-0.787-0.052-1.585,0.073-2.371,0.02
					c-2.948-0.198-5.897-0.44-8.855-0.288"/>
			</g>
		</g>
		<g>
			<g>
				<path d="M191.336,78.111c0.292,3.396,2.254,5.946,5.25,7.484c0.139-0.271,0.801-1.098,0.718-1.357
					c-1.269-0.652-2.296-1.647-3.093-2.844c-1.537-2.312-1.396-5.122-0.659-7.693c0.834-2.917,2.131-5.803,4.075-8.121
					c0.867-1.032,1.989-1.856,3.045-2.694c0.534-0.422-0.475-1.27-0.836-1.75c-4.911,3.7-9.18,10.629-8.636,16.986"/>
			</g>
		</g>
		<g>
			<g>
				<path d="M224.623,103.053c0.197,0.427,0.391,0.872,0.589,1.298c2.51-1.156,5.195-2.533,7.132-4.541
					c-0.324-0.313-0.733-0.638-1.056-0.948c-0.021-0.021-1.655,1.396-1.874,1.549c-1.492,1.047-3.117,1.932-4.771,2.694"/>
			</g>
		</g>
		<g>
			<g>
				<path d="M228.472,101.187c0.388,0.581,0.808,1.151,1.167,1.75c-0.229-0.071-1.846-0.875-1.792-0.926
					c-0.323,0.314-0.644,0.614-0.966,0.928c0.869,0.892,2.061,1.472,3.283,1.642c0.402,0.055,0.49,0.146,0.595-0.256
					c0.077-0.291,0.475-0.733,0.503-0.927c0.142-0.939-1.344-2.501-1.815-3.186c-0.33,0.334-0.625,0.671-0.955,1.006"/>
			</g>
		</g>
		<g>
			<g>
				<path d="M216.593,100.651c0.38,0.113,0.842,0.188,1.222,0.303c0.412,0.124,0.661-1.027,0.814-1.403
					c0.491-1.194,1.105-2.374,2.125-3.193c0.926-0.743,2.05-1.135,3.224-1.204c0.221-0.014,1.682,0.066,1.688,0.007
					c0.05-0.447,0.149-0.864,0.198-1.312c-4.937-0.554-7.842,2.357-9.182,6.82"/>
			</g>
		</g>
		<g>
			<g>
				<path d="M239.45,121.36c0.175,0.436,0.347,0.9,0.521,1.336c1.672-0.673,3.159-1.662,4.542-2.816
					c-0.566-0.68-0.625-1.273-1.384-0.681c-1.128,0.883-2.374,1.576-3.705,2.11"/>
			</g>
		</g>
		<g>
			<g>
				<path d="M261.829,119.825c0.04,0.319,0.087,0.523,0.128,0.841c0.083,0.665,0.27,0.292,0.922,0.289
					c1.508-0.005,3.027,0.44,4.385,1.068c1.391,0.643,2.658,1.547,3.916,2.415c0.303,0.208,0.996,1.026,1.256,0.655
					c0.229-0.325,0.31-0.622,0.539-0.947c-3.259-2.295-6.977-5.032-11.176-4.5"/>
			</g>
		</g>
		<g>
			<g>
				<path d="M247.813,221.608c7.658,0.6,12.015,8.762,19.487,10.152c0.082-0.441,0.25-0.738,0.333-1.18
					c-0.002,0.007-2.491-0.848-2.771-0.97c-2.042-0.885-3.864-2.175-5.621-3.52c-3.385-2.593-6.892-5.481-11.323-5.828
					c-0.037,0.47-0.035,0.759-0.072,1.229"/>
			</g>
		</g>
		<g>
			<g>
				<path d="M239.899,216.354c-1.322,0.979-2.779,2.116-3.127,3.794c-0.385,1.852-0.073,3.845-0.644,5.649
					c-1.038,3.275-3.632,6.859-2.951,10.48c0.314-0.059,0.719-0.107,1.035-0.166c0.68-0.127,0.25-0.398,0.234-1.059
					c-0.022-0.979,0.521-1.859,0.791-2.781c0.274-0.941,0.545-1.859,0.948-2.754c0.717-1.588,1.349-3.203,1.479-4.98
					c0.245-2.332,0.111-4.401,1.926-6.139c0.743-0.71,1.641-1.23,2.38-1.945c1.036-1.003,1.596-2.353,2.084-3.695
					c-0.301-0.109-0.568-0.12-0.871-0.228c-0.737-0.269-0.51,0.517-0.811,1.123c-0.569,1.142-1.603,1.76-2.614,2.511"/>
			</g>
		</g>
		<g>
			<g>
				<path d="M238.366,234.754c-1.965,0.125-3.926,0.227-5.896,0.158c-0.395-0.014-1.461-0.24-1.504,0.215
					c-0.037,0.396-0.248,0.916-0.285,1.311c3.108,0.297,6.262-0.002,9.368-0.18c1.539-0.088,3.077-0.326,4.618-0.252
					c0.667,0.033,0.955,0.371,1.019-0.332c0.027-0.32,0.105-0.676,0.134-0.994c-2.477-0.219-4.974-0.037-7.451,0.123"/>
			</g>
		</g>
		<g>
			<g>
				<path d="M233.205,236.83c-0.044,1.01-0.052,2.021-0.097,3.033c-0.005,0.135-0.132,0.844-0.036,0.951
					c0.153,0.172,1.175,0.113,1.427,0.137c0.059-1.373,0.11-2.756,0.17-4.129c-0.471,0.002-0.957-0.016-1.426-0.016"/>
			</g>
		</g>
		<g>
			<g>
				<path d="M347.173,207.764c1.083,1.304,1.899,2.78,2.85,4.179c0.599,0.835,0.896,1.458,0.559,2.474
					c0.133,0.215,1.181,0.41,1.438,0.496c0.605-1.82-0.26-3.022-1.242-4.466c-1.147-1.686-2.381-3.26-3.622-4.871
					c-1.017-1.32-1.91-2.703-2.143-4.369c-0.141-1.007-0.101-2.04-0.004-3.05c-0.19-0.182-1.215-0.139-1.494-0.167
					c-0.379,3.977,0.98,6.955,3.463,9.936"/>
			</g>
		</g>
		<g>
			<g>
				<path d="M348.723,213.336c0.898,1.85,2.326,2.536,4.192,3.011c0.96,0.245,2.092,0.644,2.451,1.647
					c0.194,0.549-0.05,1.231-0.017,1.81c0.11,1.921,0.678,3.275,1.678,4.948c0.631,1.054,1.296,2.153,1.243,3.421
					c0.209,0.172,1.14,0.044,1.428,0.055c0.1-2.485-1.531-4.301-2.478-6.43c-0.582-1.308-0.288-2.59-0.615-3.925
					c-0.574-2.348-2.759-2.684-4.676-3.321c-0.925-0.309-1.492-0.985-1.917-1.857c-0.248-0.059-1.223,0.59-1.469,0.711"/>
			</g>
		</g>
		<g>
			<g>
				<path d="M349.262,231.557c-2.012,0.219-4.104,0.34-5.91,1.33c0.216,0.393,0.477,0.732,0.691,1.127
					c-0.035-0.068,2.634-0.766,2.945-0.818c1.915-0.326,3.854-0.439,5.761-0.824c3.915-0.793,6.715-3.15,8.503-6.728
					c-0.286-0.143-0.467-0.179-0.754-0.322c-0.7-0.35-0.777,0.37-1.138,0.944c-0.765,1.215-1.594,2.461-2.792,3.264
					c-2.149,1.443-4.808,1.643-7.318,1.916"/>
			</g>
		</g>
		<g>
			<g>
				<path d="M329.759,232.924c4.628,0,9.24,0.09,13.825,0.789c2.377,0.363,4.756,0.701,7.031,1.479c1.19,0.408,2.35,0.91,3.49,1.443
					c0.242-0.133,0.531-1.145,0.654-1.41c-7.858-3.672-16.472-3.688-24.989-3.688c0,0.471-0.01,0.785-0.01,1.254"/>
			</g>
		</g>
	</g>
</g>
<g>
	<g>
		<path fill="#F4BF9A" d="M589.537,318.264c3.875-1.41,10.92-5.637,15.852-10.92s5.283-5.283,7.748-6.691
			c2.467-1.41,2.82-3.172,3.875-2.818c1.057,0.352,5.283,3.521,6.693,7.396s-0.352,5.988-0.705,7.75
			c-0.352,1.762-0.705,1.762-0.705,3.873c0,2.115-1.055,5.637-4.227,9.512c-3.17,3.875-4.932,2.465-10.918,9.158
			c-5.988,6.691-7.398,8.453-9.863,8.807c-2.465,0.352-2.465,0.352-2.465,0.352L589.537,318.264z"/>
		<path fill="#CFD2D8" d="M188.334,347.5c-12.1-0.125-49.807-6.506-56.968,5.709c14.884,4.166,33.341,1.375,49.271,1.336
			c14.567-0.037,24.616,5.549,39.168,5.742c-14.217,21.164,13.889,17.342,31.481,18.193c23.306,1.131,46.689,1.656,70.104,2.818
			c34.174,1.699,93.723,13.738,126.373-1.41c-7.092-6.01-19.047-3.059-25.67-9.021c20.701-2.004,38.523-0.959,58.438,1.838
			c27.137,3.813,52.096-2.811,79.006-4.264c19.99-1.08,54.623,1.277,70.605-8.303c-6.557-6.035-17.662-7.75-22.563-12.676
			c1.334-0.854,2.969-1.268,4.23-2.039c-0.02-0.02-0.148-2.07-0.174-2.045c-79.949-2.986-159.605-8.002-239.404-15.775
			c-43.819-4.268-91.625-5.918-135.28,0.104c-18.736,2.586-36.268,11.795-54.959,13.453"/>
		<path fill="#F4BF9A" d="M565.232,313.332c3.17-1.762,11.625-8.453,17.26-9.51c5.637-1.059,11.273-5.637,12.33-7.396
			c1.055-1.764,3.521-6.342,3.521-6.342l3.875,2.113l1.408-2.465c0,0,4.227,3.521,0.705,8.102c-3.523,4.578-4.227,6.34-4.58,8.805
			c-0.352,2.467-4.227,5.988-9.861,8.455c-5.637,2.465-24.658,6.34-24.658,6.34V313.332z"/>
		<path fill="#476687" d="M493.729,316.502c-9.479-3.074,18.316-4.58,29.939-5.283c11.625-0.705,8.102,0.703,11.977,2.818
			c3.875,2.113,7.396,0.705,9.512-0.705c2.111-1.41,14.441-2.465,17.611-2.465s3.17,0,3.17,0s0.705,5.635,1.057,9.51
			C567.348,324.252,506.762,320.729,493.729,316.502z"/>
		<path fill="#476990" d="M589.891,315.094c0,0-18.67,3.17-30.293,3.523c-11.625,0.352-10.92-0.705-23.602-0.705
			c-12.68,0-14.793-0.354-29.588-3.17c-14.795-2.82-29.236-8.455-34.871-8.455c-5.637,0-11.977,0-20.078,0
			s-13.387-2.818-28.531-4.578c-15.146-1.762-27.475-6.693-36.633-7.75c-9.16-1.057-21.84-2.113-27.124-2.465
			c-5.284-0.354-7.045-0.354-8.454-0.354c-1.409,0-8.455,0.354-8.455,0.354s1.057,7.043,0.705,18.316
			c-0.352,11.271,0,14.09,1.409,22.543c1.409,8.453,1.409,9.861,1.409,9.861l9.863,15.854c0,0,47.552,7.748,66.927,5.635
			c19.371-2.113,28.178,0.703,38.393,1.76c10.217,1.059,32.055,0.705,50.723,0c18.67-0.703,30.293-1.057,49.314-2.111
			c19.021-1.057,28.18-1.057,28.18-1.057s5.637-5.637,7.748-8.455c2.115-2.818,2.115-2.818,2.115-2.818s0.352-4.578-1.762-13.033
			c-2.113-8.453,0-11.623-1.057-15.85S591.299,314.742,589.891,315.094z"/>
		<path fill="#355673" d="M355.649,343.273c7.833,4.475,18.017,4.246,26.802,5.984c11.555,2.289,23.766,4.447,35.578,6.705
			c17.914,3.426,37.047,4.922,55.301,4.922c25.756,0,51.088,2.404,76.053-2.484c13.807-2.703,28.982-0.258,42.982-1.373
			c0.535-0.041,1.141-0.314,1.752-0.369l-3.17,4.578c0,0-21.84,2.467-36.281,2.467s-36.633,2.113-56.359,2.113
			c-19.725,0-37.689-0.705-44.734-1.41c-7.045-0.703-11.625-1.76-16.908-1.76s-17.26,0.705-17.26,0.705s-15.498,0-38.041-1.057
			C358.819,361.236,355.649,343.273,355.649,343.273z"/>
		<path fill="#F4BF9A" d="M342.616,292.902c-8.102-1.408-10.92-3.17-31.35-2.113c-20.43,1.057-22.543-1.057-34.872-1.057
			s-20.782,2.465-27.828,5.635c-7.044,3.17-10.919,7.75-16.203,6.342c-5.284-1.41-11.271-3.875-15.499-3.875
			c-4.227,0-5.988-2.113-7.044-7.398c-1.057-5.283-2.818-8.453-7.397-7.043c-2.861,0.879-4.073,0.109-5.094-0.506
			c-0.613-0.369-1.675,3.711-2.479,3.711c-0.176,0-1.409-4.521-3.346-3.205c-0.874,0.592-2.818,1.76-4.932,0
			c-2.113-1.762-4.579-5.637-5.636-2.467s-3.17,7.396-10.567,8.807c-7.397,1.408-8.807,1.057-12.329,3.521
			c-3.523,2.467-4.932,7.75-4.228,13.385c0.705,5.637,17.26,25.715,19.021,26.771c1.762,1.057,34.52,2.467,47.201,4.227
			c12.681,1.762,68.688,9.51,84.186,9.158s41.564-7.045,41.564-7.045s-2.113-6.34-2.466-23.6
			C342.968,298.891,342.616,292.902,342.616,292.902z"/>
		<path fill="#8F745E" d="M156.397,294.662c-4.058-0.199-7.962,0.535-10.794,3.248c1.753,0.025,3.642,0.195,5.399,0.023
			c-10.588,2.01-13.325,28.402-7.615,27.102c1.453,4.541,0.717,13.465,2.924,16.963c1.074-0.816,2.073-0.945,3.111-1.902
			c0.18,9.313,8.181,12.174,17.247,13.979c7.692,1.531,20.82,4.465,26.813-1.596c-0.245-0.215-0.651,0.064-0.9-0.264
			c0.007-0.014,0.023-1.215,0.06-1.156c4.332-0.078,7.026-2.338,6.28-6.813c5.285-1.379,16.992-5.908,12.891-13.367
			c-2.06-3.746-9.649-6.201-13.101-3.363c0.031-0.908-0.483-1.764-0.5-2.531c-6.189-0.189-11.308,5.061-17.677,4.246
			c-5.929-0.76-7.212-1.629-7.233-7.332c-0.014-3.488,1.79-2.496-0.575-5.92c-1.947-2.814-7.515-5.047-10.413-7.002
			c-5.291-3.566-6.403-5.514-6.387-11.799c0.001-0.604,0-1.207,0-1.811"/>
		<path fill="#6E7D8F" d="M393.809,356.189l4.463,25.596c0,0-13.855,4.461-29.119,3.756c-15.263-0.703-23.483-0.939-25.597-0.939
			c-2.113,0-21.604-0.705-25.831-1.408c-4.227-0.705-12.681-4.461-12.681-4.461s-4.228,0.469-12.211,0.234
			c-7.983-0.234-16.203-0.471-25.83-2.818c-9.628-2.348-19.49-5.4-21.839-7.75c-2.349-2.348-6.575-2.816-9.863-4.227
			c-3.287-1.408-7.044-4.227-7.044-4.227s-7.279-8.453-1.878-20.195c5.4-11.74,44.146-14.795,52.366-14.09
			s21.839,3.287,36.869,6.811c15.029,3.521,36.869,12.68,42.973,15.734c6.105,3.053,3.521,2.582,11.037,5.869
			c7.516,3.289,6.574,3.289,13.385,2.584C389.818,355.953,393.809,356.189,393.809,356.189z"/>
		<path fill="#7F90A7" d="M373.145,359.945l8.922-2.818c-4.697-2.348-7.516-4.227-12.445-6.105
			c-4.932-1.877-7.748-5.164-12.916-8.217c-5.167-3.055-11.741-4.932-20.43-7.75c-8.689-2.818-23.014-11.508-40.391-16.438
			c-17.377-4.932-30.762-8.221-40.625-8.455s-23.482-0.469-30.293,5.166c-6.811,5.637-8.924,7.279-12.212,16.674
			c-3.287,9.393-3.757,15.732-3.757,16.438s0.941,3.289,3.993,4.227c3.052,0.938,5.166,2.348,5.166,2.348s-2.347,6.576-2.347,9.041
			c0,2.467,2.818,4.932,3.874,4.58c1.057-0.354,4.932-4.58,6.341-5.988c1.409-1.41,1.409-1.41,1.409-1.41s2.114-4.578,2.114-14.09
			c0-9.51,8.454-14.793,16.907-15.85c8.454-1.057,28.532-1.057,28.532-1.057s3.169,3.521,14.089,5.637
			c10.919,2.111,17.612,5.283,17.612,5.283s3.875-3.523,7.397,1.408c3.522,4.932,9.51,5.283,17.964,7.396
			c8.454,2.113,12.328,1.762,18.317,2.467c5.987,0.705,10.919,4.578,10.919,4.578s4.584-1.188,6.693-1.057
			C371.736,356.189,373.145,359.945,373.145,359.945z"/>
		<path fill="#F4BF9A" d="M394.045,357.598c6.207-1.307,8.922,1.643,15.027,1.643c6.107,0,11.039,0.002,12.916,1.881
			c1.879,1.877-1.172,5.635-1.172,5.635s2.348,0,5.635-0.939s5.635-1.41,7.279-0.234c1.645,1.174,1.645,1.174,1.645,1.174
			s1.643,0.471,2.348,2.113s0.705,2.348,0.705,2.348l-2.115,0.939c0,0,0.705,2.582,0.471,3.523c0,0-4.93,0.939-10.332,3.053
			s-10.801,4.227-16.203,3.756c-5.402-0.469-11.977-0.703-11.977-0.703s-4.697-2.115-7.279-8.221
			C388.408,367.461,389.584,358.537,394.045,357.598z"/>
		<path fill="#586572" d="M272.638,330.123c10.333,0.234,20.9,0.938,27.006,2.818c6.104,1.877,7.75,2.816,7.75,2.816
			s12.914,5.4,19.49,6.342c6.576,0.938,23.482,2.816,28.884,6.574c5.403,3.758,7.749,7.045,7.749,7.045l-2.23,1.291
			c0,0-2.467-4.344-10.919-4.578c-8.453-0.236-22.778-3.055-28.414-5.166c-5.635-2.115-7.043-5.166-9.392-6.576
			c-2.349-1.408-4.698,0.471-4.698,0.471s-13.148-4.229-16.437-4.932c-3.289-0.705-11.271-2.115-11.976-2.818
			C278.745,332.705,272.638,330.123,272.638,330.123z"/>
		<path fill="#586572" d="M229.898,351.727c2.607,4.57,16.506,9.449,21.241,11.764c13.472,6.58,25.833,7.336,39.956,8.941
			c7.49,0.85,12.195,4.48,19.354,6.418c10.521,2.846,22.509,1.809,33.399,4.141c2.643,0.564,5.292,0.795,7.827,1.398
			c-32.308,1.152-39.613-4.203-59.383-4.914c-12.634-0.453-26.18-2.613-38.089-6.611c-4.527-1.521-7.601-3.627-11.544-5.793
			c-2.796-1.535-9.342-3.213-11.634-5.129c-2.542-2.125-4.859-2.592-1.832-7.045"/>
	</g>
	<g>
		<g>
			<g>
				<path fill="#25242B" d="M195.609,282.34c0.909,2.049,2.829,2.861,4.905,2.652c1.892-0.189,4.956-1.855,6.365-0.045
					c1.524,1.963,0.864,5.104,1.412,7.418c0.602,2.557,2.358,4.994,4.773,6.104c2.119,0.977,4.571,0.76,6.83,1.039
					c1.693,0.209,3.202,0.846,4.812,1.381c4.602,1.531,9.109,2.828,14.039,2.359c-0.058-0.613-0.45-1.453-0.509-2.066
					c-0.042-0.455-2.593,0.189-3.218,0.152c-2.977-0.17-5.647-1.781-8.44-2.76c-1.241-0.424-2.537-0.697-3.781-1.111
					c-2.636-0.877-5.464-0.473-8.064-1.379c-6.437-2.236-2.431-10.832-7.863-13.639c-2.568-1.328-5.347,0.699-7.981,0.285
					c-0.302-0.049-1.645-1.123-1.48-1.195c-0.622,0.275-1.072,0.52-1.694,0.795"/>
			</g>
		</g>
		<g>
			<g>
				<path fill="#25242B" d="M306.417,290.234c-11.097,1.275-22.101-1.215-33.172-1.215c-8.054,0-16.127,1.805-23.566,4.703
					c-3.563,1.389-7.216,2.646-10.697,4.225c-0.462,0.209-2.767,1.863-2.98,2.408c-0.115,0.295,0.746,2.043,0.892,2.367
					c9.898-4.508,19.795-9.977,30.69-11.428c5.947-0.793,12.008,0.738,17.967,1.152c5.953,0.414,11.945-0.441,17.905-0.869
					c5.723-0.41,11.393,0.193,17.147,0.213c8.018,0.031,15.737-0.164,23.428,1.813c0.048-0.248,0.082-0.428-0.037-0.457
					c-1.021-0.264-1.758-1.629-2.782-1.893c-2.312-0.594-4.626-1.199-6.979-1.646C325.027,287.854,315.682,289.172,306.417,290.234"
					/>
			</g>
		</g>
		<g>
			<g>
				<path fill="#25242B" d="M177.794,282.877c-1.277,2.438-2.609,4.246-5.333,5.146c-1.965,0.652-3.966,0.697-5.995,0.953
					c-4.469,0.563-8.592,2.818-12.229,5.348c0.235,0.338,0.538,0.904,0.773,1.242c0.496,0.711,0.355,0.768,1.192,0.199
					c1.683-1.141,3.345-2.404,5.191-3.26c2.185-1.012,4.532-1.227,6.924-1.404c3.866-0.285,7.821-1.096,10.151-4.467
					c1.082-1.566,1.599-3.48,2.649-5.068c0.468-0.703,1.124-0.924,0.436-1.514c-0.396-0.34-0.955-0.867-1.351-1.207
					c-0.999,1.164-1.57,2.748-2.277,4.1"/>
			</g>
		</g>
		<g>
			<g>
				<path fill="#25242B" d="M181.106,278.924c0.04,0.701-0.204,1.498,0.492,1.637c1.314,0.264,2.108,2.059,2.928,2.98
					c2.405,2.699,5.267,2.004,7.68-0.314c-0.235-0.244-0.909-1.201-1.223-1.238c-0.845,0.811-2.31,2.074-3.606,1.596
					c-2.544-0.939-3.076-4.85-6.29-4.668"/>
			</g>
		</g>
		<g>
			<g>
				<path fill="#25242B" d="M196.679,282.127c-1.477,0.359-2.005,3.354-2.005,3.354s-0.293-2.406-1.168-2.781
					c-0.611-0.262-1.156-0.684-1.794-0.852c-0.112,0.42-0.256,0.842-0.368,1.262c0.007-0.021,1.522,0.869,1.714,1.143
					c0.505,0.717,0.647,3.459,1.616,3.459s1.317-2.521,1.585-3.174c0.195-0.975,1.409-1.482,2.169-2.021
					C197.818,282.014,197.367,281.285,196.679,282.127"/>
			</g>
		</g>
		<g>
			<g>
				<path fill="#25242B" d="M190.669,317.516c1.01,2.35-0.827,3.908-2.266,5.527c-1.98,2.23-4.296,3.957-7.144,4.895
					c-2.403,0.793-5.489,0.973-6.784-1.719c-0.63-1.314-0.589-2.85-0.027-4.172c0.085-0.203,0.651-1.201,0.589-1.275
					c-0.283-0.328-0.417-0.592-0.7-0.922c-2.43,2.084-2.387,6.479-0.15,8.611c2.354,2.242,5.926,1.488,8.645,0.363
					c2.693-1.115,4.836-2.857,6.744-5.049c1.786-2.049,3.752-3.951,2.502-6.873c-0.432,0.186-1.013,0.408-1.444,0.596"/>
			</g>
		</g>
		<g>
			<g>
				<path fill="#25242B" d="M250.076,328.449c-4.355,1.307-8.674,2.902-12.506,5.354c-3.791,2.424-7.458,5.814-8.214,10.514
					c-0.52,3.223,0.017,6.375,0.088,9.598c0.063,2.816-1.105,5.344-2.644,7.691c-1.508,2.303-3.485,4.176-5.702,5.793
					c-1.063,0.775-1.977,1.791-3.137,2.412c-0.756,0.406-0.235,0.729,0.115,1.408c4.415-2.262,8.279-5.883,10.608-10.334
					c1.938-3.703,1.684-7.217,1.259-11.262c-0.4-3.799,0.284-7.166,2.81-10.164c4.067-4.826,10.727-7.256,16.599-9.195
					c3.88-1.281,7.771-2.662,11.837-3.09c1.803-0.191,3.628-0.791,5.44-0.732c0.308,0.008,2.793,0.736,2.81,0.57
					c0.041-0.434-0.344-1.352-0.303-1.785c-6.462-0.623-12.851,1.477-19.028,3.334"/>
			</g>
		</g>
		<g>
			<g>
				<path fill="#25242B" d="M218.489,340.822c0.144,6.547-0.765,13.66-2.384,20.012c-0.44,1.73-1.463,4.393-0.868,6.182
					c1.026,3.104,5.472,3.342,8.009,2.439c-0.463-1.299-0.227-1.334-1.608-1.119c-1.548,0.24-3.417-0.975-4.595-2.168
					c-1.287-1.299,0.267-3.418,0.66-4.977c1.632-6.475,2.069-13.711,1.922-20.377c-0.469,0.012-0.712-0.002-1.181,0.008"/>
			</g>
		</g>
		<g>
			<g>
				<path fill="#25242B" d="M218.074,322.514c-3.568,4.104-6.428,7.855-7.579,13.285c-0.767,3.625-1.602,7.426-1.934,11.127
					c-0.268,3,0.592,4.41,3.334,5.74c1.09,0.529,1.976,1.475,3.061,2.018c1.294,0.646,1.401,0.412,2.122-0.867
					c-1.885-0.943-4.213-1.75-5.95-2.945c-2.287-1.572-0.618-5.584-0.31-7.795c0.65-4.643,0.534-9.711,3.018-13.814
					c1.931-3.188,4.928-5.748,7.34-8.578c-0.533-0.434-1.03-1.242-1.533-0.65c-0.627,0.736-1.067,1.633-1.695,2.369"/>
			</g>
		</g>
		<g>
			<g>
				<path fill="#25242B" d="M208.545,329.623c1.468,1.016,2.941,2.033,4.426,3.027c0.129-0.225,0.74-1.021,0.69-1.252
					c-0.058-0.273-1.237-0.9-1.471-1.059c-0.958-0.643-1.928-1.25-2.875-1.906c-0.253,0.396-0.496,0.775-0.749,1.172"/>
			</g>
		</g>
		<g>
			<g>
				<path fill="#25242B" d="M155.558,299.244c0.016,2.529,0.313,5.166,2.137,7.072c1.444,1.51,3.282,2.537,5.096,3.496
					c2.348,1.242,4.666,2.414,6.696,4.154c1.406,1.207,2.812,2.455,3.978,3.895c0.173,0.213,0.973,1.666,1.118,1.559
					c0.351-0.258,0.729-0.416,1.08-0.674c-3.461-4.727-7.771-7.742-12.883-10.443c-1.795-0.951-3.689-2.012-4.794-3.824
					c-0.655-1.072-0.818-2.301-0.93-3.537c-0.024-0.264-0.175-1.572-0.353-1.57c-0.435,0-1.006-0.135-1.44-0.133"/>
			</g>
		</g>
		<g>
			<g>
				<path fill="#25242B" d="M168.721,316.189c1.121,1.693,2.666,3.043,4.061,4.504c1.117,1.172,0.882,1.32,2.116,0.264
					c-0.686-0.719-1.328-1.406-2.021-2.119c-0.922-0.918-1.87-1.828-2.646-2.875c-0.581-0.783-0.714-0.271-1.456,0.219"/>
			</g>
		</g>
		<g>
			<g>
				<path fill="#25242B" d="M170.902,321.67c0.944,0.6,1.894,1.191,2.837,1.793c1.159,0.738,0.946,0.658,1.758-0.48
					c-1.308-0.832-2.588-1.637-3.898-2.469c-0.239,0.402-0.473,0.768-0.714,1.172"/>
			</g>
		</g>
		<g>
			<g>
				<path fill="#25242B" d="M198.397,324.395c-3.617,0.539-6.661,2.807-10.039,4.074c-1.604,0.604-3.366,0.66-5.082,0.766
					c-0.288,0.016-2.085,0.094-2.096,0.234c-0.038,0.432-0.054,0.627-0.091,1.061c5.997,0.523,10.704-2.992,16.312-4.297
					c-0.083,0.264-0.999,2.15-0.932,2.221c0.445,0.471,0.893,0.938,1.477,0.57c1.501-0.949,3.3-1.586,5.05-1.686
					c1.881-0.107,3.767,0.506,5.549,1.137c0.836,0.297,1.843,0.281,2.527,0.854c0.255-0.049,0.711-0.76,0.89-0.973
					c-3.398-2.846-9.381-3.115-13.346-1.533c0.272-0.857,0.504-1.457,0.808-2.305c-0.38,0.037-0.586,0.264-0.966,0.303"/>
			</g>
		</g>
		<g>
			<g>
				<path fill="#25242B" d="M148.435,296.174c-0.859,0.535-1.623,1.168-2.481,1.703c0.653,0.184,1.313,0.391,1.966,0.574
					c-1.157,0.498-2.284,1.094-3.285,1.861c0.165,0.219,0.537,0.988,0.787,1.047c1.068-0.818,2.26-1.488,3.516-1.971
					c1.159-0.443,2.36-0.691,3.554-1.025c-1.058-0.334-2.018-0.658-3.079-0.984c1.235-0.797,2.535-1.76,4.053-1.852
					c1.417-0.086,1.131,0.271,1.561-1.139c-2.411-0.734-4.633,0.543-6.58,1.801"/>
			</g>
		</g>
		<g>
			<g>
				<path fill="#25242B" d="M141.036,325.266c0.24,0.486,0.625,0.805,0.865,1.291c0.168-0.205,0.301-0.27,0.469-0.475
					c0.265,2.283,0.649,4.527,1.629,6.631c0.357-0.166,1.89-0.557,2.037-0.887c-0.889-1.91-1.472-3.947-1.711-6.02
					c-0.188-1.629-0.241-3.326-0.435-4.955c-0.481,0.598-0.853,1.154-1.335,1.75c-1.229-4.066-1.356-8.73-0.253-12.818
					c0.469-1.738,1.292-3.438,2.604-4.719c0.609-0.596-0.679-1.6-1.174-2.199c-3.035,2.5-4.142,7.119-4.452,10.838
					c-0.315,3.758-0.154,8.219,1.546,11.666"/>
			</g>
		</g>
		<g>
			<g>
				<path fill="#25242B" d="M147.374,341.83c0.318,0.748,0.49,1.729,0.808,2.479c0.239-0.814,0.39-1.73,0.632-2.543
					c1.625,2.859,3.592,5.4,5.955,7.691c0.266-0.508,0.377-0.865,0.645-1.373c1.5,2.449,3.324,4.953,5.553,6.813
					c0.301-0.363,0.595-0.523,0.896-0.885c0.378-0.453-0.311-0.68-0.663-1.064c-1.046-1.133-1.944-2.416-2.797-3.697
					c-1.06-1.592-1.986-3.264-2.938-4.92c-0.376,0.719-0.674,1.332-1.051,2.051c-2.46-2.82-4.148-6.092-5.784-9.432
					c-0.135,0.439-0.466,0.986-0.601,1.424c-0.244-1.508-0.313-3.045-0.267-4.57c0.026-0.908-0.739-0.521-1.534-0.553
					c-0.113,2.928-0.103,5.883,1.061,8.617"/>
			</g>
		</g>
		<g>
			<g>
				<path fill="#25242B" d="M198.72,343.809c-0.903,0.516-1.461,1.465-2.364,1.98c0.761,0.135,1.091,0.121,1.852,0.258
					c-1.919,2.834-5.368,3.531-8.492,4.277c0.525,0.377,1.295,1.252,1.822,1.629c-2.387,0.865-4.786,0.881-7.15,1.963
					c-2.371,1.084-4.501,1.238-7.158,1.016c-2.614-0.219-5.104-0.887-7.645-1.482c-1.23-0.287-2.518-0.246-3.78-0.336
					c-0.892-0.063-0.436-0.412-0.872,0.242c-2.024-1.035-4.006-1.887-5.928-3.109c-0.185-0.117-1.991-1.439-2.002-1.436
					c-0.612,0.297-0.576,0.861-1.188,1.158c1.106,2.283,4.338,3.205,6.443,4.238c1.332,0.656,2.417,1.916,3.738,2.59
					c0.193-0.463,0.421-1.033,0.586-1.508c1.772,0.223,3.55,0.426,5.275,0.875c3.362,0.867,6.921,1.682,10.31,0.51
					c1.434-0.496,2.766-1.215,4.185-1.748c1.529-0.576,3.186-0.281,4.745-0.721c1.611-0.451,2.989-1.32,4.476-2.068
					c-0.331-0.236-0.806-0.762-1.138-0.998c2.451-1.02,5.676-2.398,6.525-5.107c0.416-1.33,1.946-2.029,3.13-2.746
					c1.779-1.078,3.721-1.922,5.356-3.209c-0.323-0.41-1.099-0.51-1.423-0.922c-0.636-0.809-0.795,0.184-1.497,0.678
					c-2.384,1.676-5.226,2.627-7.754,4.07"/>
			</g>
		</g>
		<g>
			<g>
				<path fill="#25242B" d="M181.147,318.436c-0.453-0.217-0.908-0.453-1.361-0.672c-0.092,0.232-0.626,1.131-0.541,1.342
					c0.103,0.252,1.306,0.553,1.601,0.707c2.063,1.063,3.668,0.689,4.901-1.361c-1.174-0.705-0.88-0.781-1.807,0.188
					c-0.858,0.896-1.857,0.232-2.77-0.25"/>
			</g>
		</g>
		<g>
			<g>
				<path fill="#25242B" d="M176.613,324.682c0.856,1.951,3.587,2.057,5.384,2.012c-0.021-0.9,0.316-1.363-0.677-1.383
					c-1.017-0.02-2.624-0.051-3.331-0.939c-0.742-0.932,0.3-2.449,0.858-3.164c0.98-1.256,1.084-0.965-0.001-2.016
					c-1.262,1.309-3.152,3.523-2.28,5.512"/>
			</g>
		</g>
		<g>
			<g>
				<path fill="#25242B" d="M184.469,320.996c-0.542,0.617-1.123,1.336-1.961,1.541c-1.283,0.314-1.236-0.547-1.906-1.361
					c-0.73-0.811-0.617-0.627-1.712-0.17c0.512,0.771,1.211,1.549,1.31,2.49c0.105,1.004,2.883,0.383,3.488,0.045
					c0.933-0.516,1.581-1.387,2.306-2.146c0.704-0.736,0.218-0.803-0.419-1.531c-0.369,0.385-0.682,0.799-1.051,1.182"/>
			</g>
		</g>
		<g>
			<g>
				<path fill="#25242B" d="M174.33,293.166c0.335,1.551,0.459,3.176,0.265,4.754c-0.116,0.938,0.412,0.693,1.263,0.852
					c0.362-1.945,0.22-3.955-0.195-5.883c-0.459,0.1-0.888,0.182-1.347,0.279"/>
			</g>
		</g>
		<g>
			<g>
				<path fill="#25242B" d="M169.724,299.305c0.207-0.156,1.042-0.594,1.086-0.826c-0.67-0.881-1.088-1.959-1.295-3.041
					c-0.184-0.953-0.186-2.053,0.362-2.902c-0.118-0.271-0.917-0.578-1.177-0.744c-1.462,2.264-0.521,5.564,0.987,7.545"/>
			</g>
		</g>
		<g>
			<g>
				<path fill="#25242B" d="M172.57,293.703c-0.07,0.463-0.128,0.904-0.198,1.369c1.036,0.154,2.13-0.057,3.074-0.49
					c-0.182-0.396-0.391-0.781-0.572-1.176c-0.001-0.004-1.955,0.355-2.307,0.305"/>
			</g>
		</g>
		<g>
			<g>
				<path fill="#25242B" d="M340.308,291.742c2.279,7.049,1.806,14.742,1.628,22.043c-0.216,8.568,0.612,16.885,2.642,25.234
					c0.458-0.109,0.863-0.443,1.319-0.553c0.707-0.172,0.265-1.545,0.136-2.131c-0.489-2.219-1.387-4.367-1.693-6.621
					c-0.575-4.285-0.312-8.633-0.26-12.953c0.103-8.473,1.199-17.598-1.452-25.795c-0.558,0.178-1.21,0.441-1.769,0.621"/>
			</g>
		</g>
		<g>
			<g>
				<path fill="#25242B" d="M341.414,290.395c0.009,0.436,0.088,0.91,0.096,1.346c0.003,0.051,2.904,0.412,3.301,0.488
					c1.116,0.215,2.259,0.379,3.38,0.566c0.156-1.443,0.292-1.412-1.146-1.654c-1.862-0.313-3.721-0.771-5.619-0.729"/>
			</g>
		</g>
		<g>
			<g>
				<path fill="#25242B" d="M346.225,291.68c0.178,0.492,1.235,1.338,1.413,1.83c0.353,0.975,0.669-0.229,1.509-0.453
					c2.877-0.77,6-0.258,8.968-0.154c3.463,0.119,6.825,0.791,10.272,1.105c9.439,0.861,19.189,0.49,28.412,2.807
					c6.01,1.51,11.736,3.441,17.873,4.482c6.006,1.02,12.998,1.658,18.998,2.701c6.029,1.049,10.838,3.424,16.947,3.967
					c4.797,0.426,9.502-0.451,14.299-0.633c2.055-0.078,4.117,0.018,6.172-0.061c0.26-0.01,1.656,1.09,1.857,0.906
					c0.221-0.205-0.254-0.818-0.256-1.16c-6.703,0.252-13.455-0.934-20.15-1.305c-6.184-0.344-11.822-2.668-17.869-3.793
					c-5.996-1.119-12.211-0.994-18.23-1.957c-6.119-0.977-13.232-3.025-19.189-4.637c-5.711-1.541-8.139-2.26-14.012-2.885
					c-7.078-0.75-16.352-0.982-23.458-1.426c-4.514-0.281-9.434-1.467-13.716,0.082"/>
			</g>
		</g>
		<g>
			<g>
				<path fill="#25242B" d="M464.861,306.588c12.523,1.141,23.992,6.453,36.422,8.133c5.957,0.805,11.705,3.125,17.658,3.947
					c5.998,0.826,12.205,1.945,18.229,1.156c4.42-0.578,8.324-0.195,12.676,0.471c7.482,1.148,15.73-0.832,23.223-1.66
					c7.117-0.787,14.154-2.465,21.24-3.508c-0.076-0.516-0.498-1.148-0.572-1.666c-0.148-1.002-0.955-0.689-1.787-0.572
					c-2.893,0.416-5.631,2.027-8.529,2.396c-5.357,0.682-10.822,0.674-16.16,1.488c-3.326,0.506-6.852-0.324-10.195,0.043
					c-3.52,0.385-6.564-0.426-10.02-1.014c-2.592-0.441-5.486-0.602-8.119-0.383c-3.258,0.271-6.332,0.799-9.615,0.77
					c-5.744-0.051-11.225-0.961-16.885-1.803c-6.031-0.896-12.793-0.385-18.697-1.936c-9.703-2.547-18.629-6.477-28.709-7.396
					c-0.064,0.701-0.299,1.771-0.363,2.475"/>
			</g>
		</g>
		<g>
			<g>
				<path fill="#25242B" d="M586.768,313.332c2.756,1.777,5.791,3.436,7.49,6.359c2.506,4.305,0.133,9.566,1.004,14.209
					c0.83,4.418,2.92,8.551,3.539,13.008c0.295,2.117,0.537,4.291,0.1,6.385c-0.244,1.156-1.104,2.186-1.516,3.293
					c0.141,0.227,1.748,0.629,2.016,0.729c1.563-4.203,1.502-8.66,0.453-13.02c-1.143-4.742-3.219-9.299-2.982-14.271
					c0.24-5.086,0.766-9.711-3.32-13.561c-1.441-1.359-2.822-2.77-4.479-3.836c-1.314-0.846-0.928-0.604-1.797,0.707"/>
			</g>
		</g>
		<g>
			<g>
				<path fill="#25242B" d="M596.1,354.025c-1.619,2.084-3.369,4.08-5.275,5.914c-0.895,0.865-1.834,1.689-2.887,2.359
					c-0.789,0.5-0.273,0.676,0.148,1.41c3.342-1.92,5.826-4.918,8.168-7.908c1.303-1.662,2.744-3.205,4.135-4.797
					c0.18-0.205,1.393-1.617,1.268-1.74c-0.309-0.307-0.766-0.66-1.074-0.967c-1.701,1.713-3.174,3.691-4.654,5.594"/>
			</g>
		</g>
		<g>
			<g>
				<path fill="#25242B" d="M544.805,363.467c-5.063,0.131-14.447-0.107-25.832,0.471c-17.939,0.914-35.381,2.188-53.318,0.604
					c-12.838-1.135-25.656-3.432-38.582-2.65c0.031,0.52-1.092,1.232-1.061,1.752c0.064,1.055,2.582,0.072,3.443,0.041
					c3.287-0.113,6.639-0.721,9.922-0.559c5.875,0.289,11.586,2.734,17.436,3.334c7.918,0.809,15.869,1.549,23.844,1.529
					c13.826-0.033,27.59-1.912,41.4-2.264c23.732-0.605,47.467-1.822,71.125-3.893c-0.035-0.396,0.18-1.895-0.082-2.15
					c-2.275,0.197-4.625,0.434-6.904,0.594c-4.588,0.318-9.152,0.846-13.746,1.041C563.023,361.721,554.234,363.273,544.805,363.467
					"/>
			</g>
		</g>
		<g>
			<g>
				<path fill="#25242B" d="M346.951,291.932c2.614,8.688,3.117,17.574,3.304,26.549c0.071,3.406,0.209,6.652,0.898,10.014
					c0.564,2.75,1.152,5.508,1.48,8.299c0.165,1.434,0.47,2.863,0.398,4.307c0.201,0.172,1.181,0.119,1.462,0.133
					c0.267-5.363-1.718-10.514-2.529-15.75c-0.421-2.717-0.479-5.43-0.537-8.17c-0.185-8.736,0.011-17.523-2.533-25.977
					c-0.45,0.133-0.796,0.27-1.247,0.404"/>
			</g>
		</g>
		<g>
			<g>
				<path fill="#25242B" d="M525.258,310.379c-3.234,0.428-6.467,0.189-9.727,0.348c-2.91,0.141-5.783,1.084-8.691,1.203
					c-2.256,0.09-4.525,0.33-6.781,0.352c-1.814,0.018-1.672,0.09-1.672,1.738c6.658,0,13.473-0.846,20.121-1.166
					c1.512-0.072,3.047-0.121,4.547-0.316c2.578-0.336,6.16-1.875,8.523-0.549c1.48,0.83,2.523,2.141,4.072,2.898
					c1.568,0.762,3.078,1.117,4.824,0.666c1.201-0.309,2.523-0.225,3.596-0.814c1.59-0.879,3.074-2.021,4.854-2.338
					c6.117-1.084,12.615,0.096,18.805-0.016c-0.029-1.07,0.25-2.182-0.906-2.162c-1.256,0.023-2.512-0.111-3.768-0.09
					c-4.82,0.078-9.666,0.354-14.424,1.219c-2.111,0.385-4.107,0.781-5.977,1.854c-1.475,0.848-2.941,2.105-4.695,1.633
					c-2.32-0.625-3.635-2.439-5.559-3.664c-2.26-1.436-4.654-1.127-7.127-0.709"/>
			</g>
		</g>
		<g>
			<g>
				<path fill="#25242B" d="M565.521,309.295c0.158,1.18,0.262,2.367,0.412,3.547c0.047,0.363,0.221,2.984,0.344,2.982
					c0.436-0.002,0.838-0.035,1.273-0.039c-0.01-1.768-0.273-3.5-0.508-5.25c-0.199-1.5-0.084-1.459-1.578-1.291"/>
			</g>
		</g>
		<g>
			<g>
				<path fill="#25242B" d="M598.887,293.781c-2.969,0.744-4.439,3.096-6.533,5.105c-2.291,2.197-5.166,3.207-8.084,4.244
					c-3.463,1.23-6.744,2.684-9.928,4.539c-1.49,0.869-3.068,1.58-4.527,2.508c-1.363,0.869-1.602,0.285-0.732,1.662
					c3.107-1.979,6.119-3.932,9.453-5.516c3.268-1.553,6.723-2.584,10.086-3.881c3.145-1.213,5.49-3.113,7.787-5.439
					c1.449-1.469,2.988-1.932,4.652-3.016c1.461-0.949,3.098-2.219,3.871-3.771c-1.199-0.598-1.652-0.842-2.361,0.248
					c-0.922,1.414-2.09,2.541-3.773,2.961"/>
			</g>
		</g>
		<g>
			<g>
				<path fill="#25242B" d="M602.73,290.688c1.998,0.338,2.924,2.818,2.436,4.619c-0.367,1.342-1.633,2.244-2.588,3.176
					c-1.215,1.189-2.225,2.49-2.793,4.109c-0.432,1.234-0.668,2.469-1.016,3.717c-0.443,1.598-1.379,3.027-2.574,4.102
					c-0.896,0.801-2.09,1.234-3.129,1.842c-0.559,0.326,0.164,1.049,0.418,1.555c2.113-1.059,4.023-2.887,5.49-4.711
					c1.846-2.299,1.424-5.195,2.953-7.639c1.586-2.537,4.824-3.9,4.824-7.262c0-2.186-1.568-4.332-3.84-4.68
					c-0.072,0.463-0.125,0.912-0.199,1.375"/>
			</g>
		</g>
		<g>
			<g>
				<path fill="#25242B" d="M597.781,291.295c-1.711,1.771-3.459,3.631-4.514,5.891c0.828,0.385,1.023,0.848,1.502-0.02
					c0.793-1.43,1.938-2.645,3.053-3.826c1.063-1.127,2.176-2.238,3.225-3.377c-0.559-0.465-0.875-1.117-1.424-0.527
					c-0.592,0.643-1.166,1.299-1.756,1.941"/>
			</g>
		</g>
		<g>
			<g>
				<path fill="#25242B" d="M597.684,290.887c0.924,0.309,1.855,0.59,2.777,0.895c0.984,0.33,0.852-0.141,1.219-1.078
					c-1.197-0.398-2.42-0.771-3.617-1.172c-0.125,0.453-0.27,0.893-0.396,1.344"/>
			</g>
		</g>
		<g>
			<g>
				<path fill="#25242B" d="M612.271,300.342c-4.436,2.02-7.211,5.945-10.768,9.104c-2.311,2.051-4.561,4.23-7.213,5.818
					c-1.211,0.723-2.422,1.449-3.711,2.023c-0.094,0.271,0.486,1.158,0.615,1.449c5.613-2.502,10.658-6.533,14.807-11.041
					c1.801-1.957,3.447-4.266,5.869-5.479c2.672-1.338,5.129-2.131,6.539-4.951c-0.318-0.16-0.783-0.633-1.104-0.791
					c-0.902-0.453-0.941,0.133-1.486,0.953c-0.922,1.381-2.082,2.219-3.559,2.893"/>
			</g>
		</g>
		<g>
			<g>
				<path fill="#25242B" d="M617.652,301.465c-2.766,1.449-6.523,3.225-6.871,6.752c1.264,0.125,1.111,0.309,1.553-0.832
					c0.576-1.49,2.049-2.514,3.357-3.316c1.729-1.064,3.525-2.004,5.293-3.006c-0.4-0.588-0.482-1.324-1.17-0.936
					c-0.736,0.416-1.436,0.898-2.172,1.314"/>
			</g>
		</g>
		<g>
			<g>
				<path fill="#25242B" d="M616.168,297.652c0.98,0.393,1.779,1.145,2.203,2.119c0.33,0.762,0.791,0.318,1.551,0.104
					c-0.459-1.627-1.674-2.906-3.234-3.529c-0.176,0.436-0.342,0.873-0.516,1.311"/>
			</g>
		</g>
		<g>
			<g>
				<path fill="#25242B" d="M620.746,300.994c0.568,1.111,1.121,1.959,0.834,3.252c-0.061,0.268,1.277,0.781,1.473,1.004
					c0.748,0.857,0.432,2.064-0.105,2.979c-0.33,0.564-0.729,0.73-0.273,1.256c0.6,0.693,0.893,1.617,0.551,2.527
					c-0.373,0.994-1.34,1.699-2.236,2.207c-0.045,0.244,0.557,0.949,0.689,1.184c1.521-0.861,3.049-2.271,3.049-4.143
					c0-1.166-0.801-1.596-0.268-2.637c0.424-0.828,0.473-1.771,0.268-2.691c-0.215-0.955-0.871-1.686-1.668-2.207
					c0.086-0.852-0.193-1.479-0.633-2.199c-0.574-1.16-0.594-1.076-1.775-0.631"/>
			</g>
		</g>
		<g>
			<g>
				<path fill="#25242B" d="M615.07,308.004c0.164,0.199,0.613,1.002,0.85,1.039c1.152-0.943,2.367-1.805,3.598-2.645
					c1.223-0.832,2.479-1.648,3.859-2.188c0.846-0.332,0.369-0.709,0.109-1.496c-3.154,1.047-5.906,3.178-8.447,5.256"/>
			</g>
		</g>
		<g>
			<g>
				<path fill="#25242B" d="M620.955,309.65c-1.33,0.871-2.668,1.725-3.816,2.83c0.604,0.629,0.732,1.264,1.455,0.635
					c0.998-0.867,2.131-1.512,3.197-2.281c1.119-0.807,2.221-1.674,3.342-2.482c-0.791-0.912-0.699-1.189-1.674-0.488
					C622.629,308.461,621.789,309.051,620.955,309.65"/>
			</g>
		</g>
		<g>
			<g>
				<path fill="#25242B" d="M615.979,318.854c0.184,0.188,0.691,0.947,0.932,0.967c1.063-1.025,2.17-2.008,3.357-2.889
					c1.02-0.756,2.102-1.428,3.287-1.885c0.908-0.352,0.443-0.678,0.172-1.525c-3.064,0.982-5.5,3.113-7.773,5.313"/>
			</g>
		</g>
		<g>
			<g>
				<path fill="#25242B" d="M621.303,315.863c1.199,1.695-1.715,5.684-2.484,7.48c-0.338,0.793-0.77,1.588-1.305,2.275
					c-1.029,1.322-2.727,2.07-4.051,3.049c-3.713,2.734-6.541,6.404-9.805,9.621c-1.605,1.582-3.15,3.277-5.084,4.449
					c-0.289,0.176-2.66,1.199-2.607,1.313c0.232,0.502,0.719,1.188,0.951,1.691c3.869-1.797,6.797-4.959,9.697-8.039
					c3.184-3.381,6.418-6.307,10.152-9.078c2.064-1.533,2.992-2.973,3.969-5.264c1.053-2.467,3.846-5.828,1.977-8.473
					c-0.48,0.338-0.609,0.559-1.09,0.896"/>
			</g>
		</g>
		<g>
			<g>
				<path fill="#25242B" d="M355.019,333.803c14.694,3.307,29.215,7.412,43.784,11.246c12.109,3.188,24.236,4.75,36.629,6.678
					c12.67,1.969,25.652,1.693,38.424,2.385c2.576,0.141,5.072,1.59,7.641,1.822c0.369,0.033,3.371,0.123,3.389-0.059
					c0.049-0.432-0.252-0.326-0.203-0.758c-12.717-1.391-25.586-2.189-38.33-3.215c-12.439-1-25.951-2.395-38.043-5.459
					c-12.285-3.117-23.41-6.697-35.791-9.428c-5.094-1.125-9.852-2.461-14.941-3.607c-0.624-0.139-1.304-0.033-1.928-0.174
					c-0.433-0.096-1.83,0.477-1.911,0.826"/>
			</g>
		</g>
		<g>
			<g>
				<path fill="#25242B" d="M584.633,350.301c-16.889,2.285-34.078,4.201-51.111,4.768c-20.656,0.686-41.338-1.271-61.988-0.258
					c0.014,0.283-0.07-0.15,0.104,0.051c1.516-0.074,2.957,0.363,4.477,0.313c3.33-0.109,7.416-0.256,10.746-0.277
					c6.412-0.043,12.785,0.805,19.197,0.881c12.023,0.143,24.449,0.371,36.457-0.352c9.949-0.6,18.781-2.084,28.707-2.994
					c6.203-0.57,12.473-2.48,18.701-2.551c2.861-0.033,5.797,0.816,8.637,1.148c1.436,0.168,2.787,1.17,4.221,1.361
					c0.162-0.074-0.797-0.201-0.764-0.461c0.055-0.396,2.215-0.512,2.27-0.908c0.004-0.033-1.006,0.426-1.002,0.393
					C597.047,350.592,590.914,349.451,584.633,350.301"/>
			</g>
		</g>
		<g>
			<g>
				<path fill="#25242B" d="M391.285,357.531c0.234,1.473,0.117,1.639,1.727,1.426c1.785-0.24,3.553-0.402,5.357-0.375
					c2.666,0.039,5.246,0.469,7.861,0.938c2.949,0.525,5.893,0.209,8.877,0.346c1.75,0.078,3.52,0.551,5.135,1.297
					c0.215,0.1,1.107,0.41,1.191,0.322c0.297-0.318,1.014-0.639,1.311-0.957c-3.799-3.564-11.178-1.648-15.898-2.492
					c-5.291-0.945-10.215-1.436-15.57-0.586"/>
			</g>
		</g>
		<g>
			<g>
				<path fill="#25242B" d="M403.264,366.273c0.123,0.252,0.42,1.285,0.656,1.4c1.127-0.555,2.309-0.975,3.541-0.813
					c1.377,0.178,2.693,0.809,4.068,1.002c2.752,0.34,5.479-0.252,8.211-0.588c1.617-0.197,1.738,0.09,1.553-1.537
					c-3.162,0.387-6.404,1.146-9.594,0.754c-2.875-0.389-5.721-1.773-8.525-0.391"/>
			</g>
		</g>
		<g>
			<g>
				<path fill="#25242B" d="M419.627,360.383c1.412,0.779,3.359,2.332,2.375,4.152c-0.461,0.848-1.33,1.498-2.18,1.924
					c-0.057,0.242,0.494,1.023,0.615,1.264c1.574-0.785,3.145-2.303,3.182-4.186c0.041-2.027-1.723-3.494-3.332-4.381
					c-0.227,0.408-0.453,0.865-0.68,1.275"/>
			</g>
		</g>
		<g>
			<g>
				<path fill="#25242B" d="M422.154,366.621c0.166,0.402,0.389,0.723,0.555,1.125c0.064,0.152,2.322-0.662,2.666-0.783
					c1.684-0.602,3.377-1.363,5.162-1.563c1.012-0.111,2.211-0.039,3.105,0.533c0.639,0.41,0.93,1.111,0.957,1.836
					c0.178,0.15,0.988-0.033,1.246-0.043c-0.252-6.75-10.412-2.389-13.67-1.037"/>
			</g>
		</g>
		<g>
			<g>
				<path fill="#25242B" d="M428.795,369.496c-2.629,1.605-5.092,2.994-8.172,3.482c-2.924,0.463-5.842,0.768-8.727,1.48
					c0.063,0.258,0.076,1.023,0.275,1.166c1.23-0.305,2.506-0.328,3.768-0.457c2.889-0.295,5.787-0.725,8.523-1.795
					c2.857-1.119,5.51-2.641,8.201-4.08c1.195-0.641,2.305-1.529,3.611-1.898c1.004-0.283,0.629-0.564,0.416-1.486
					c-2.834,0.652-5.396,2.158-7.854,3.658"/>
			</g>
		</g>
		<g>
			<g>
				<path fill="#25242B" d="M437.691,370.914c-4.799,2.234-9.617,4.416-14.678,6.004c-2.465,0.773-4.918,1.57-7.48,1.922
					c-1.18,0.164-2.32,0.537-3.512,0.59c-0.152,0.211,0.004,0.787,0.016,1.066c6.234-0.275,12.209-2.053,17.932-4.436
					c2.824-1.178,5.535-2.6,8.309-3.893c0.797-0.371,1.246-0.172,0.869-0.982c-0.377-0.807-0.484-0.273-1.283,0.098"/>
			</g>
		</g>
		<g>
			<g>
				<path fill="#25242B" d="M435.193,368.416c1.297,0.125,2.639,0.85,2.979,2.213c0.143,0.57-0.199,1.047,0.445,1.139
					c0.344,0.049,0.717,0.094,1.061,0.143c0.381-2.697-1.822-4.611-4.354-4.854c-0.047,0.465-0.094,0.938-0.141,1.406"/>
			</g>
		</g>
		<g>
			<g>
				<path fill="#25242B" d="M426.197,377.844c-5.932,2.555-11.547,4.107-18.047,3.686c-3.514-0.229-6.998-0.77-10.504-1.123
					c-0.045,0.545-0.451,1.248,0.203,1.314c1.123,0.113,2.234,0.326,3.357,0.439c3.867,0.393,7.721,1.301,11.617,1.146
					c5.008-0.199,9.365-2.229,13.922-4.191c2.283-0.984,4.764-1.455,7.166-2.111c0.324-0.088,3.055-0.84,3.045-0.941
					c-0.064-0.551-0.496-1.301-0.559-1.852c-3.58,0.406-7.025,1.982-10.303,3.395"/>
			</g>
		</g>
		<g>
			<g>
				<path fill="#25242B" d="M435.146,373.426c0.797,0.646,0.752,1.656,0.383,2.51c0.131,0.236,0.973,0.424,1.234,0.539
					c0.623-1.439,0.582-3.129-0.703-4.18c-0.297,0.365-0.592,0.744-0.891,1.109"/>
			</g>
		</g>
		<g>
			<g>
				<path fill="#25242B" d="M389.463,369.891c0.893,5.73,4.768,10.305,9.525,13.336c0.488-0.766,0.955-0.84,0.115-1.404
					c-1.41-0.949-2.813-1.973-3.99-3.197c-1.965-2.033-3.623-4.545-4.381-7.287c-0.803-2.908-0.479-6.08,0.613-8.887
					c0.564-1.453,1.336-2.855,2.252-4.115c0.934-1.279,0.91-1.205-0.227-2.152c-3.148,3.775-5.074,8.814-4.303,13.77"/>
			</g>
		</g>
		<g>
			<g>
				<path fill="#25242B" d="M386.811,355.037c-4.732,0.521-9.047,2.383-13.416,4.146c-1.355-4.596-6.861-4.549-10.512-3.35
					c-2.04,0.674-3.941,1.736-5.993,0.949c-0.834-0.32-1.557-0.67-2.379-1.018c-0.103,0.301-1.018,1.258-0.901,1.523
					c0.099,0.227,1.431,0.537,1.694,0.637c1.973,0.734,3.64,1.223,5.811,0.764c2.775-0.588,5.283-2.133,8.145-0.98
					c2.045,0.824,2.611,1.945,2.703,3.941c3.189-1.289,6.354-2.416,9.598-3.561c3.127-1.104,6.012-1.607,9.297-0.998
					c1.322,0.242,2.988,0.525,4.318,0.717c0.096-1.768,0.053-2.342-1.697-2.598c-2.193-0.318-4.496-0.926-6.723-0.678"/>
			</g>
		</g>
		<g>
			<g>
				<path fill="#25242B" d="M301.307,378.68c6.587,3.721,13.991,5.51,21.528,5.975c4.596,0.283,9.242-0.473,13.828,0.006
					c4.846,0.506,9.659,1.957,14.539,1.811c9.413-0.283,18.577,1.912,27.987,0.613c4.635-0.641,9.25-1.432,13.789-2.527
					c2.18-0.525,4.217-1.742,6.422-2.143c1.184-0.217,0.59-1.521,0.41-2.57c-9.125,1.557-17.943,4.977-27.303,4.906
					c-4.412-0.033-8.73-0.324-13.102-0.783c-4.767-0.502-9.558,0.291-14.335-0.014c-4.505-0.287-9.052-0.004-13.552-0.363
					c-4.409-0.352-8.867-0.43-13.254-1.063c-3.536-0.51-6.775-2.463-10.083-3.818c-1.675-0.688-3.149-1.688-4.733-2.559
					c-0.927-0.51-0.857,0.459-1.314,1.27"/>
			</g>
		</g>
		<g>
			<g>
				<path fill="#25242B" d="M226.2,359.652c1.995,3.084,4.422,4.002,7.75,5.107c3.513,1.166,6.84,2.01,10.039,3.875
					c2.389,1.373,5.345,2.973,7.967,3.867c3.69,1.26,7.351,2.25,10.998,3.607c4.109,1.529,8.029,1.965,12.47,2.326
					c2.681,0.217,5.355,0.561,8.041,0.734c8.308,0.543,16.311,1.975,24.676,1.197c-0.102-1.102,0.266-2.643-0.979-2.541
					c-2.801,0.229-5.545,0.682-8.354,0.592c-4.565-0.145-9.055-0.652-13.599-0.951c-2.34-0.154-4.7,0.176-7.045,0.082
					c-2.659-0.105-6.966-0.891-9.519-1.693c-2.417-0.762-13.673-3.346-17.48-4.855c-2.906-1.15-5.16-3.789-7.88-5.309
					c-3.126-1.744-6.313-3.027-9.644-4.246c-1.947-0.713-3.773-1.469-5.186-3.039c-0.538-0.598-0.6-0.428-1.293,0.018
					c-0.438,0.285-0.971,0.244-1.41,0.527"/>
			</g>
		</g>
		<g>
			<g>
				<path fill="#25242B" d="M254.96,329.99c-3.591,0.27-7.188,0.195-10.787,0.348c-1.807,0.074-3.589,0.838-5.397,0.842
					c-1.127,0-0.808,0.77-0.813,1.766c13.348,0.086,26.597-2.184,39.96-1.463c5.114,0.277,10.251,0.375,15.296,1.264
					c2.94,0.52,5.763,1.51,8.623,2.375c1.282,0.385,2.743,0.252,3.988,0.744c1.267,0.5,1.185,0.211,1.686-0.957
					c-7.743-3.318-16.553-4.756-24.888-5.467c-9.222-0.789-18.398,0.557-27.615,1.25"/>
			</g>
		</g>
		<g>
			<g>
				<path fill="#25242B" d="M269.765,330.625c5.326,2.014,10.479,4.24,16.103,5.279c3.997,0.738,7.923,1.406,11.711,2.932
					c4.17,1.682,8.582,3.846,13.129,4.121c0.035-0.553,0.296-1.482,0.331-2.035c0.004-0.088-2.996-0.484-3.351-0.566
					c-2.598-0.596-5.131-1.486-7.599-2.475c-4.337-1.736-8.63-2.924-13.236-3.738c-5.779-1.051-11.124-2.982-16.597-5.047
					c-0.173,0.561,0.035,0.998-0.141,1.557"/>
			</g>
		</g>
		<g>
			<g>
				<path fill="#25242B" d="M304.491,341.475c0.557,0.885,0.727,1.871,1.729,1.277c1.208-0.713,2.464-1.955,3.877-2.143
					c2.009-0.266,3.688,1.283,4.786,2.748c1.524,2.031,2.542,3.207,4.864,3.873c1.958,0.563,3.901,1.182,5.857,1.75
					c3.913,1.137,7.836,2.381,11.843,3.133c3.933,0.738,7.861,0.262,11.841,0.35c2.746,0.059,5.869,0.104,8.257,1.594
					c1.174,0.729,1.534,2.359,2.309,3.5c0.304,0.449,0.777,0.963,1.348,0.646c0.412-0.227,0.309-0.287,0.719-0.514
					c-3.053-5.516-7.911-6.777-13.74-6.828c-7.926-0.068-15.364-1.18-22.948-3.393c-1.711-0.5-3.125-2.035-4.841-2.527
					c-2.097-0.604-3.674-0.412-5.069-2.264c-0.946-1.256-1.667-2.752-3.252-3.166c-2.579-0.668-5.189,1.043-7.292,2.369"/>
			</g>
		</g>
		<g>
			<g>
				<path fill="#25242B" d="M316.573,375.102c9.056,1.717,18.277,3.564,27.528,2.176c-0.043-0.285,0-1.32-0.192-1.508
					c-1.77,0.264-3.549,0.521-5.337,0.553c-3.26,0.057-6.486-0.25-9.708-0.727c-4.018-0.594-8.037-1.072-12.025-1.828
					c-0.084,0.463-0.362,0.697-0.446,1.156"/>
			</g>
		</g>
		<g>
			<g>
				<path fill="#25242B" d="M366.086,359.178c-2.223,0.93-3.459,3.293-4.619,5.277c-0.687,1.176-1.376,2.375-2.213,3.453
					c-0.569,0.74-0.005,0.824,0.636,1.396c2.234-2.504,3.048-6.057,5.812-8.096c0.168,3.66-1.898,7.215-3.666,10.289
					c-1.02,1.77-2.185,3.434-3.375,5.094c-0.46,0.643-0.686,1.43-1.172,2.053c0.054,0.246,0.723,0.584,0.935,0.752
					c2.085-2.664,4.208-5.369,5.811-8.348c1.986-3.688,3.604-7.928,2.607-12.166c-0.246,0.104-0.6-0.006-0.822,0.143"/>
			</g>
		</g>
		<g>
			<g>
				<path fill="#25242B" d="M294.606,371.105c-0.855,2.758-0.116,4.604,2.813,5.098c0.821,0.137,1.667,0.141,2.492,0.264
					c0.607,0.092,0.496-0.799,0.587-1.314c-2.094-0.316-5.292-0.021-4.729-2.861c3.4,1.418,6.408,3.908,9.409,6.021
					c0.336-0.539,0.958-0.928,0.366-1.344c-0.85-0.6-1.72-1.17-2.57-1.77c-2.627-1.852-5.038-3.867-8.128-4.885
					c-0.066,0.215-0.295,0.553-0.303,0.773"/>
			</g>
		</g>
		<g>
			<g>
				<path fill="#25242B" d="M242.56,363.289c0.253-0.031,1.237,0.035,1.387-0.143c-0.156-1.273-0.548-2.561-0.518-3.842
					c0.054-2.26,0.44-4.545,1.185-6.678c1.263-3.627,3.564-6.875,6.443-9.389c2.608-2.279,5.717-3.988,8.882-5.373
					c1.383-0.604,2.867-0.947,4.304-1.41c0.597-0.193,1.16-0.496,1.767-0.666c0.456-0.127-0.036-1.068-0.145-1.467
					c-6.984,1.906-13.977,5.293-18.619,11.006c-4.106,5.049-5.678,11.559-4.896,17.99"/>
			</g>
		</g>
		<g>
			<g>
				<path fill="#25242B" d="M218.486,321.658c0.438,0.342,1.533-0.332,1.971,0.01c0.097,0.076,0.051-2.023,0.306-2.291
					c1.695-1.775,3.976-3.479,6.086-4.734c3.873-2.307,8.818-3.539,13.276-4.033c9.838-1.09,20.52,0.301,30.206,1.939
					c10.39,1.76,20.466,5.369,30.569,8.309c10.088,2.938,18.791,9.006,28.423,13.141c4.433,1.9,9.179,3.119,13.825,4.414
					c4.818,1.34,8.774,3.178,12.771,6.318c2.223,1.746,5.395,2.23,7.7,3.875c2.195,1.568,4.238,3.338,6.814,4.08
					c2.492,0.717,4.99,1.262,7.303,2.477c0.332,0.176,3.043,1.57,3.061,1.553c0.377-0.406-0.258-0.285,0.119-0.691
					c-4.031-3.742-9.041-4.359-13.869-6.477c-5.287-2.318-8.628-8.025-13.863-10.502c-3.693-1.746-7.832-1.932-11.737-3.064
					c-6.008-1.748-11.706-4.533-17.392-7.107c-18.962-8.588-39.353-15.143-60-17.955c-15.976-2.178-35.666-4.486-46.787,9.795"/>
			</g>
		</g>
		<g>
			<g>
				<path fill="#25242B" d="M221.051,326.059c1.107,0.818,2.471,1.764,2.493,3.266c0.019,1.24-1.497,1.91-2.192,2.762
					c-2.409,2.957,1.093,6.646,2.792,9c0.957,1.326,1.858,2.93,2.124,4.592c0.311,1.939,0.084,3.715,1.182,5.492
					c0.875,1.42,2.063,2.523,3.13,3.773c0.164,0.191,1.046,1.354,1.143,1.313c0.402-0.166,0.909-0.43,1.311-0.596
					c-0.745-1.803-2.451-2.92-3.693-4.342c-1.62-1.855-1.21-3.697-1.584-5.924c-0.355-2.113-1.526-4.16-2.749-5.842
					c-1.07-1.469-3.167-3.25-3.148-5.195c0.017-1.678,2.261-2.219,2.886-3.627c0.762-1.717-0.332-3.965-1.621-5.125
					c-0.892-0.803-2.675-1.35-2.84-2.688c-0.043-0.344,0.479-2.234,0.438-2.254c-0.397-0.176-0.905-0.025-1.303-0.203
					c-1.082,2.443-0.564,4.334,1.459,5.832"/>
			</g>
		</g>
		<g>
			<g>
				<path fill="#25242B" d="M249.186,321.953c0.036,0.275-0.124,0.932,0.063,1.113c1.423-0.186,2.9,0.275,4.333,0.211
					c2.842-0.133,5.655-1.143,8.479-0.787c6.175,0.779,11.86,2.619,17.805,4.232c5.438,1.479,11.115,1.941,16.558,3.393
					c2.521,0.672,4.812,2.346,7.165,3.48c2.584,1.244,5.014,2.691,7.592,3.951c9.514,4.652,20.03,5.781,30.256,7.77
					c4.896,0.953,9.849,1.871,14.321,4.119c2.249,1.131,3.968,3.043,5.947,4.602c1.053,0.83,1.965,1.715,2.92,2.652
					c0.74,0.723,1.299-0.33,1.957-0.979c-6.915-7.008-15.945-10.287-25.459-12.072c-9.855-1.85-20.245-2.436-29.403-6.9
					c-2.215-1.078-3.864-3.133-6.028-4.293c-2.39-1.279-5.562-2.859-8.161-3.615c-5.141-1.496-9.42-1.033-14.618-2.289
					c-5.439-1.314-11.071-4.742-16.567-5.857c-5.609-1.141-11.646-0.529-17.321,0.215"/>
			</g>
		</g>
		<g>
			<g>
				<path fill="#25242B" d="M217.549,323.688c1.482,0.168,1.216,0.209,1.606-1.217c0.417-1.537,1.25-2.957,2.144-4.266
					c1.101-1.607,2.498-2.992,3.922-4.318c0.265-0.248,2.241-1.957,2.148-2.074c-0.27-0.34-0.537-0.578-0.807-0.92
					c-3.979,3.156-8.434,7.48-9.029,12.785"/>
			</g>
		</g>
		<g>
			<g>
				<path fill="#25242B" d="M260.627,301.363c-0.44,0.129-1.563,0.168-1.873,0.486c-0.08,0.082-0.15,1.623,0.25,1.422
					c1.473,1.348,4.296-0.133,5.755-0.781c-1.164-1.545-2.327-1.844-4.151-1.18"/>
			</g>
		</g>
	</g>
</g>
<g>
	<path fill="#ECAF8B" d="M157.103,281.252c-4.437,0.463-3.289,2.584-9.863,5.871c-6.574,3.287-8.453,4.934-8.453,6.576
		s0,2.113,0,2.113s-2.114,1.172-1.41,5.869c0.705,4.697,1.646,5.168,1.175,7.281c-0.47,2.113-0.001,7.75,0.938,9.393
		c0.94,1.643,8.689,6.34,9.393,6.811c0.705,0.469,0.235-3.992-2.582-7.75c-2.818-3.758-6.106-7.514-6.106-7.514
		s2.583,3.756,7.749,6.574c5.167,2.818,7.516,4.463,7.516,4.463s1.643-2.584,0.938-4.227c-0.704-1.645-0.704-1.645-0.704-1.645
		s2.818,1.174,2.818,0c0-1.176-1.644-6.576-2.583-7.984c-0.94-1.408-1.878-2.35-1.878-2.35s2.347-0.703,4.461-6.809
		c2.113-6.105,2.699-6.752,3.404-7.221s5.459-1.496,5.459-1.496S168.375,280.076,157.103,281.252z"/>
	<g>
		<g>
			<path d="M154.282,281.607c3.282,0.004,7.3-0.115,10.082,1.906c1.089,0.791,1.754,1.959,2.142,3.242
				c0.248,0.824,0.549,1.641,0.572,2.498c0.163,0.15,0.93-0.016,1.177-0.021c-0.113-4.059-2.195-7.201-6.069-8.4
				c-1.629-0.504-3.369-0.654-5.066-0.736c-0.799-0.037-1.603,0.111-2.403,0.109c-0.727-0.002-0.423,0.547-0.424,1.18"/>
		</g>
	</g>
	<g>
		<g>
			<path d="M151.248,289.91c-0.272,3.236-0.971,6.389-0.849,9.65c0.043,1.164,0.074,2.33,0.107,3.494
				c0.003,0.174-0.04,0.969,0.091,1.09c0.168,0.158,0.875,0.113,1.128,0.113c-0.032-1.211,0.055-2.391,0.023-3.598
				c-0.025-1.004,0.08-2.006,0.087-3.012c0.011-1.482,0.321-2.869,0.449-4.33c0.111-1.271,0.196-2.557,0.247-3.834
				c0.048-1.236-0.059-2.645,0.425-3.807c0.216-0.521,0.532-0.518,0.09-0.885c-0.247-0.207-0.562-0.279-0.808-0.484
				c-1.214,1.455-1.235,3.811-1.299,5.584"/>
		</g>
	</g>
	<g>
		<g>
			<path d="M160.844,291.104c-3.327,2.154-2.613,5.893-3.761,9.203c-0.639,1.834-1.977,2.928-3.958,2.834
				c-1.135-0.055-2.241-0.402-3.307-0.775c-0.801-0.281-0.757,0.48-1.022,1.188c2.044,0.768,4.566,1.535,6.699,0.639
				c1.78-0.75,2.825-2.572,3.183-4.395c0.344-1.752,0.447-3.609,0.948-5.32c0.675-2.311,3.619-2.607,4.306-4.955
				c-0.432-0.125-0.945-0.348-1.377-0.475c0.275,0.08-1.561,1.85-1.761,1.979"/>
		</g>
	</g>
	<g>
		<g>
			<path d="M153.165,305.334c2.405,1.021,3.957,3.445,4.625,5.895c0.331,1.221,0.51,2.486,0.326,3.742
				c-0.055,0.363-0.394,0.959,0.011,1.082c0.38,0.115,0.646,0.262,1.026,0.377c1.394-4.59-0.909-10.498-5.424-12.416
				c-0.183,0.434-0.362,0.844-0.545,1.277"/>
		</g>
	</g>
	<g>
		<g>
			<path d="M149.245,293.139c-0.362,2.457-0.597,4.826,0.015,7.266c0.278-0.07,1.172-0.131,1.34-0.34
				c-0.303-1.205-0.372-2.439-0.319-3.682c0.067-1.57,0.306-3.135,0.525-4.689c-0.239-0.031-1.244-0.342-1.413-0.209
				c-0.204,0.158-0.203,1.355-0.242,1.641"/>
		</g>
	</g>
	<g>
		<g>
			<path d="M140.743,298.215c3.067,8.412,10.276,13.877,17.139,19.164c0.388-0.504,0.985-0.773,0.409-1.217
				c-1.032-0.795-2.068-1.588-3.086-2.4c-2.149-1.715-4.096-3.656-6.016-5.629c-1.813-1.863-3.639-3.74-4.973-5.977
				c-0.682-1.145-1.312-2.336-1.813-3.572c-0.245-0.604-0.005-0.842-0.63-0.613c-0.302,0.109-0.637,0.1-0.938,0.211"/>
		</g>
	</g>
	<g>
		<g>
			<path d="M138.663,305.664c0.928,4.484,3.921,7.846,7.581,10.396c1.948,1.359,4.132,2.355,6.155,3.602
				c1.13,0.695,2.19,1.51,3.261,2.297c0.643,0.471,0.777-0.219,1.205-0.783c-3.8-2.881-8.196-4.885-11.841-7.98
				c-1.567-1.332-3.105-2.789-4.018-4.641c-0.487-0.99-0.764-2.086-0.988-3.164c-0.217-0.119-1.15,0.227-1.413,0.281"/>
		</g>
	</g>
	<g>
		<g>
			<path d="M154.704,316.164c1.271,0.715,1.628,2.268,1.29,3.621c-0.099,0.391-0.627,1.074-0.292,1.311
				c0.325,0.229,0.611,0.41,0.936,0.637c1.509-2.15,1.142-5.453-1.242-6.797c-0.23,0.41-0.44,0.809-0.67,1.217"/>
		</g>
	</g>
	<g>
		<g>
			<path d="M139.74,311.248c1.615,4.1,6.134,5.994,8.056,9.91c0.521,1.066,0.881,2.363,0.4,3.504
				c-0.136,0.324-0.267,0.629-0.47,0.912c0.042,0.225,0.909,0.711,1.113,0.855c1.998-2.801,0.458-6.004-1.505-8.424
				c-1.408-1.736-3.325-2.979-4.78-4.67c-0.652-0.756-1.205-1.625-1.571-2.557c-0.243-0.078-0.944,0.354-1.198,0.453"/>
		</g>
	</g>
	<g>
		<g>
			<path d="M148.045,326.445c0.385,0.322,0.811,0.596,1.194,0.918c0.088,0.074,0.949-1.029,1.072-1.174
				c-3.076-2.572-6.532-4.871-9.008-8.055c-1.296-1.666-2.323-3.744-2.493-5.896c-0.08-0.996,0.201-1.945,0.608-2.859
				c0.248-0.551,0.281-0.486-0.245-0.795c-0.276-0.162-0.479-0.439-0.755-0.604c-4.241,7.232,4.828,14.4,9.666,18.42"/>
		</g>
	</g>
	<g>
		<g>
			<path d="M142.999,288.32c-1.359,0.604-2.774,1.414-3.704,2.643c-0.446,0.586-1.01,1.158-1.138,1.877
				c-0.083,0.475,0.033,0.988,0.019,1.469c-0.018,0.65,0.377,1.539-0.251,1.805c-2.596,1.098-1.7,3.938-0.983,6.033
				c0.412,1.203,0.645,2.5,0.818,3.768c0.082,0.602,1.196,0.336,1.757,0.326c-0.042-2.352-4.32-8.625-0.332-9.4
				c0.555-0.107,0.737,0.082,0.695-0.48c-0.056-0.76-0.316-1.51-0.287-2.271c0.04-1.063,0.275-2.119,1.118-2.83
				c1.693-1.428,4.314-1.855,6.273-2.865c3.339-1.717,6.258-4.141,9.145-6.533c-0.253-0.305-0.266-0.68-0.519-0.984
				c-0.285-0.344-1.467,1.201-1.814,1.469c-1.398,1.086-3.058,1.814-4.56,2.75c-2,1.246-4.048,2.355-6.2,3.311"/>
		</g>
	</g>
</g>
<g>
	<path fill="#ECAF8B" d="M235.248,243.107c0,0-7.75,2.816-15.733,5.4c-7.985,2.584-10.569,8.219-12.212,9.158
		s-2.347,6.105-3.287,8.453c-0.94,2.35-0.94,3.992-0.94,3.992s1.409,3.289,5.167-0.938c3.758-4.229,1.175-6.576,3.758-7.281
		c2.583-0.705,3.522-0.939,3.522-0.939s-5.871,6.811-8.689,12.447c-2.818,5.635,0.705,9.627,0.705,9.627s-0.234,2.113,0.939,3.992
		c1.174,1.879,1.174,1.879,1.174,1.879l8.923-8.689c0,0,3.053,0.469,5.871-1.408c2.817-1.879,2.115-1.408,5.871-1.643
		c3.756-0.236,5.402-0.471,7.749-3.289c2.348-2.818,5.166-7.045,5.166-7.045S242.998,253.205,235.248,243.107z"/>
	<g>
		<g>
			<path d="M222.479,246.504c-4.383,1.426-8.543,2.936-11.792,6.406c-1.264,1.352-2.265,2.979-3.693,4.166
				c-0.938,0.783-1.958,1.539-3.07,2.059c-0.559,0.26,0.001,1.092,0.186,1.598c2.471-0.891,4.219-3.215,5.958-5.1
				c2.333-2.527,4.543-4.83,7.829-6.123c2.582-1.016,5.44-1.426,8.084-2.264c2.299-0.73,4.539-1.773,6.919-2.176
				c1.337-0.225,2.671-0.418,4.026-0.49c0.151-0.225,0-0.924-0.016-1.213c-4.967,0.27-9.596,2.025-14.285,3.578"/>
		</g>
	</g>
	<g>
		<g>
			<path d="M204.889,258.67c0,3.52-0.971,5.637-1.944,9.008c-0.315,1.092-0.469,2.266-0.959,3.295
				c-0.201,0.424,0.632,0.588,0.977,0.785c0.908-1.539,1.402-3.422,1.83-5.131c0.765-3.051,1.446-5.818,1.446-8.975
				c-0.469,0-1.057,0.998-1.526,0.998"/>
		</g>
	</g>
	<g>
		<g>
			<path d="M211.243,261.527c-1.384,0.771-1.428,2.488-1.892,3.83c-0.546,1.582-1.556,3.328-3.056,4.18
				c-1.07,0.607-2.292,0.734-3.44,0.348c-0.922-0.305-0.883,0.17-1.369,1.064c3.654,1.996,7.082-0.586,8.678-3.91
				c0.341-0.711,0.714-1.414,0.914-2.174c0.181-0.686,0.215-1.641,0.907-2.025c0.706-0.578,1.584-1.076,2.379-1.531
				c-0.245-0.41-0.424-1.295-0.917-1.012c-0.732,0.416-1.442,0.867-2.172,1.285"/>
		</g>
	</g>
	<g>
		<g>
			<path d="M210.898,265.889c-2.221,3.279-4.516,6.574-5.668,10.404c-0.817,2.717-1.031,6.154,2.23,7.434
				c0.15-0.367,0.435-0.643,0.583-1.01c0.149-0.361-0.483-0.572-0.758-0.82c-0.757-0.676-1.228-1.188-1.219-2.182
				c0.025-2.828,1.333-5.813,2.671-8.221c1.48-2.676,3.359-5.146,5.057-7.686c1.177-1.764,2.555-3.615,2.981-5.748
				c-0.466-0.092-1.145-0.541-1.283-0.031c-0.159,0.578-0.333,1.145-0.619,1.666c-1.178,2.145-2.673,4.121-4.044,6.145"/>
		</g>
	</g>
	<g>
		<g>
			<path d="M219.342,266.529c-2.438,2.91-5.088,5.709-7.158,8.896c-1.245,1.92-2.32,3.947-3.532,5.889
				c-0.428,0.686-0.895,1.348-1.322,2.033c-0.194,0.311,0.725,0.689,0.992,0.867c2.804-4.486,5.37-9.076,8.774-13.143
				c1.16-1.385,2.522-2.604,3.675-3.996c0.729-0.883,1.306-1.889,2.036-2.77c0.726-0.879,0.389-0.75-0.452-1.525
				c-1.029,1.242-2.046,2.451-3.075,3.695"/>
		</g>
	</g>
	<g>
		<g>
			<path d="M223.195,273.348c-2.801,3.906-6.154,7.172-9.469,10.629c-1.602,1.67-3.274,3.324-4.577,5.252
				c1.323,0.883,1.104,0.959,2.013-0.164c1.607-1.982,3.375-3.816,5.172-5.623c2.499-2.514,4.948-5.031,7.074-7.881
				c0.831-1.115,1.504-2.391,2.473-3.393c0.27-0.279,1.042-0.598,0.857-0.939c-0.188-0.35-0.301-0.619-0.49-0.969
				c-1.322,0.711-2.146,1.938-3,3.127"/>
		</g>
	</g>
	<g>
		<g>
			<path d="M210.703,290.105c0.154-0.281,0.289-0.627,0.443-0.908c0.347-0.637-0.223-0.545-0.711-0.98
				c-0.846-0.756-1.358-1.834-1.507-2.949c-0.095-0.711-0.015-1.455,0.13-2.16c0.078-0.379-0.959-0.438-1.292-0.527
				c-0.768,2.842,0.337,6.018,2.97,7.453"/>
		</g>
	</g>
	<g>
		<g>
			<path d="M224.356,277.896c-1.258,0.961-2.297,1.523-3.802,1.869c-0.13,0.029-1.116,0.133-1.085,0.264
				c0.099,0.438,0.3,0.789,0.399,1.227c0.751-0.174,1.489-0.242,2.239-0.416c1.496-0.344,2.72-1.473,3.92-2.359
				c1.242-0.92,2.499-1.844,3.958-2.361c0.404-0.145,1.864-0.232,1.783-0.643c-0.078-0.389-0.167-0.854-0.245-1.24
				c-2.727,0.545-4.952,2.041-7.13,3.707"/>
		</g>
	</g>
	<g>
		<g>
			<path d="M239.31,270.322c-1.218,2.279-2.164,5.037-4.934,5.656c-1.094,0.242-2.181,0.523-3.278,0.758
				c-1.026,0.217-2.053,0.518-3.111,0.518c-0.159,0.186-0.021,1.004-0.021,1.268c1.932,0,3.906-0.664,5.792-1.066
				c1.949-0.416,3.432-0.912,4.582-2.625c0.919-1.367,1.797-2.795,2.56-4.254c0.657-1.258,1.16-2.756,2.156-3.793
				c0.375-0.391,0.438-0.221,0.146-0.689c-0.171-0.271-0.282-0.547-0.451-0.818c-1.673,1.043-2.608,3.357-3.478,5.027"/>
		</g>
	</g>
	<g>
		<g>
			<path d="M232.383,242.82c3.839,3.246,6.426,7.66,8.122,12.391c0.903,2.516,1.656,5.078,1.961,7.732
				c0.157,1.354,0.001,2.719,0.029,4.082c0.013,0.656,0.036,0.844,0.711,0.844c0.32,0,0.564,0.084,0.885,0.084
				c-0.014-9.891-3.118-19.67-10.828-26.188c-0.302,0.359-0.585,0.719-0.889,1.078"/>
		</g>
	</g>
</g>
</svg>
