<?xml version="1.0" encoding="utf-8"?>
<!-- Generator: Adobe Illustrator 15.0.0, SVG Export Plug-In . SVG Version: 6.00 Build 0)  -->
<!DOCTYPE svg PUBLIC "-//W3C//DTD SVG 1.1//EN" "http://www.w3.org/Graphics/SVG/1.1/DTD/svg11.dtd">
<svg version="1.1" id="Layer_1" xmlns="http://www.w3.org/2000/svg" xmlns:xlink="http://www.w3.org/1999/xlink" x="0px" y="0px"
	 width="720px" height="450px" viewBox="0 0 720 450" enable-background="new 0 0 720 450" xml:space="preserve">
<path fill="#576260" d="M529.063,173.013c0,0,7.966,13.374,13.092,33.195c5.126,19.821,4.102,45.793-3.417,58.438
	c-7.52,12.645-122.002,7.519-122.002,7.519s15.721-44.769,44.085-49.211C463.603,222.517,529.063,173.013,529.063,173.013z"/>
<path fill="#0090C0" d="M205.767,107.566c-27.333,30.667-35.807,28.716-14.473,63.382s24.668,60.666,25.334,62.666
	s27.983,41.513,91.983,46.179c43.965,3.205,120.426-29.158,153.575-57.865c17.361-15.034,44.084-22.896,44.084-22.896l22.791-26.019
	c0,0-4.429-12.794-8.856-20.668c-0.973-1.73-14.02-5.442-14.271-7.381c-1.208-9.319-6.766-11.226-12.302-18.699
	c-22.587-30.493-56.338-31.983-91.005-53.983s-60.667-23.333-90.667-18S205.767,107.566,205.767,107.566z"/>
<path fill="#0090C0" d="M231.295,95.394c-26.667,13.333-49.334,29.333-53.334,49.333s0.25,43.54,15.504,77.985
	c14.856,33.548,14.763,39.384,14.763,48.716c0,9.333,26.572,21.651,26.572,21.651s1.829-53.021,2.495-66.353
	C237.961,213.393,231.295,95.394,231.295,95.394z"/>
<path fill="#ECAF8B" d="M334.869,83.757c6.666,4.667,27.332,18.667,24.666,48.667s-12.305,64.672-24.971,78.006
	c-21.296,22.419-35.099,3.263-48.186-0.703c-22-6.667-14.844-87.304-0.844-104.637S334.869,83.757,334.869,83.757z"/>
<g>
	<path fill="#25242B" d="M200.475,67.491"/>
</g>
<g>
	<g>
		<path fill="#25242B" d="M327.858,171.47c-2.425,0.938-4.842,1.899-7.381,2.484c-1.362,0.313-4.676,0.07-3.982,2.106
			c4.782-0.27,9.326-2.17,13.748-3.835c2.096-0.79,4.184-1.528,6.387-1.957c1.367-0.266,4.473,0.235,3.861-1.817
			c-4.416,0.075-8.598,1.356-12.667,2.93"/>
	</g>
</g>
<path fill="#0090C0" d="M458.202,105.597c0,0,25.589,31,50.191,64.462c24.604,33.462,32.478,53.146,33.953,68.892
	c1.477,15.746-1.476,25.096-1.476,25.096l-194.863,8.857l-0.984-36.906c0,0,0.492-1.477,23.128-2.952
	c22.636-1.476,16.838,9.019,33.27,4.755c16.431-4.263,16.923,1.15,29.225,0.166c12.303-0.984,19.191-3.938,23.129-3.938
	c3.937,0,6.702,0.843,6.55-1.055c-0.153-1.898-7.535-13.708-14.424-17.645c-6.89-3.937-18.699-10.333-21.159-28.54
	s-6.89-65.939-2.952-76.765C425.727,99.199,458.202,105.597,458.202,105.597z"/>
<path fill="#0082A9" d="M470.325,240.622c14.639-0.563,29.479-0.267,44.173-0.541c5.013-0.095,18.014-2.851,18.8,4.804
	c-13.163,5.992-31.337-1.843-44.988-2.515c2.977,2.604,8.039,4.821,8.152,9.282c-9.242,3.635-21.783-7.609-28.028-13.733"/>
<path fill="#0082A9" d="M426.816,198.734c-0.138,10.984,9.82,18.448,10.289,29.225c0.118,2.757-0.23,5.368-0.541,8.027
	c9.455,0.188,8.305-1.215,14.033-6.336c2.676-2.391,5.744-3.099,8.69-4.415c-6.944-4.425-14.022-7.489-20.324-13.011
	c-4.309-3.773-7.81-9.526-12.959-12.14"/>
<g>
	<g>
		<g>
			<path d="M359.608,235.986c-2.605,0.422-5.128,1.209-7.752,1.5c-1.996,0.224-2.323-0.803-2.207,1.231
				c6.75-0.384,13.246,0.152,19.964-0.544c2.949-0.306,5.916-2.43,8.871-2.1c1.214,0.135,2.527,1.152,3.608,1.771
				c1.404,0.802,2.851,1.485,4.144,2.437c4.074,2.994,10.845,0.221,15.292-0.635c4.409-0.851,8.993-1.522,13.505-1.338
				c2.295,0.094,4.582,1.332,6.784,1.965c3.539,1.012,7.16,0.131,10.771-0.51c3.943-0.701,7.634-2.371,11.535-3.263
				c5.931-1.356,12.641-2.298,18.702-1.351c3.308,0.517,5.259,3.561,7.917,5.576c2.36,1.791,5.354,2.242,8.412,2.306
				c0.007-0.289,0.156-0.712-0.012-0.919c-1.353-0.028-3.113,0.283-4.323-0.321c-2.328-1.17-3.843-3.733-6.17-4.909
				c-5.186-2.619-11.565-3.683-17.178-3.014c-10.169,1.214-19.875,7.59-30.167,4.83c-9.137-2.452-17.876-0.389-26.904,0.935
				c-2.551,0.373-6.203,1.896-8.344,0.065c-2.313-1.977-3.231-4.795-6.402-5.275c-6.518-0.99-13.453,1.544-19.881,2.583"/>
		</g>
	</g>
	<g>
		<g>
			<path d="M362.053,239.503c-2.371,0.218-4.715,0.774-7.09,0.942c-1.234,0.087-5.724-0.521-5.185,1.266
				c4.795-0.143,9.655-0.641,14.43-1.066c2.403-0.215,4.8-0.472,7.21-0.605c1.154-0.064,4.678,0.33,4.163-1.451
				c-4.501,0.076-9.054,0.445-13.534,0.854"/>
		</g>
	</g>
	<g>
		<g>
			<path d="M360.624,242.52c-2.324,0.19-4.644,0.433-6.97,0.576c-1.138,0.069-4.489-0.68-3.953,1.084
				c4.379-0.135,8.742-0.234,13.107-0.588c2.457-0.197,4.896-0.621,7.359-0.729c1.162-0.051,4.729,0.604,4.242-1.188
				c-4.596,0.007-9.221,0.358-13.797,0.737"/>
		</g>
	</g>
	<g>
		<g>
			<path d="M365.234,245.363c-4.69,0.46-9.463,0.923-14.124,1.635c-0.173,1.563,1.386,1.268,2.403,1.128
				c2.154-0.295,4.272-0.87,6.435-1.101c2.197-0.232,4.383-0.584,6.58-0.819c2.99-0.321,5.936-0.517,8.926-0.837
				c0.34-1.826-3.021-0.574-4.049-0.463c-2.051,0.22-4.096,0.488-6.146,0.707"/>
		</g>
	</g>
	<g>
		<g>
			<path d="M365.175,249.732c-2.471,0.283-4.944,0.563-7.425,0.754c-1.272,0.098-5.809-0.707-5.327,1.074
				c4.671-0.015,9.302-0.293,13.937-0.822c2.14-0.243,4.258-0.697,6.404-0.862c1.178-0.09,4.823,0.618,4.305-1.168
				c-3.984,0.082-7.967,0.3-11.924,0.755"/>
		</g>
	</g>
	<g>
		<g>
			<path d="M353.495,254.307c-0.081,0.295-0.006,0.896-0.007,1.209c7.793,0.024,15.814-0.56,23.407-2.371
				c0.063-1.685-2.006-1.01-3.025-0.808c-2.243,0.442-4.459,1.044-6.729,1.313c-4.521,0.543-9.089,0.799-13.644,0.783"/>
		</g>
	</g>
	<g>
		<g>
			<path d="M353.783,257.799c-0.324,1.858,3.207,0.719,4.365,0.626c2.603-0.206,5.204-0.457,7.811-0.62
				c2.066-0.131,4.145-0.094,6.213-0.188c1.133-0.053,4.694,0.51,4.145-1.23c-7.512,0.239-15.033,0.725-22.521,1.367"/>
		</g>
	</g>
	<g>
		<g>
			<path d="M353.51,262.896c-0.458,1.524,1.2,0.881,2.131,0.854c2.426-0.07,4.856,0.02,7.282-0.053
				c2.446-0.072,4.89-0.327,7.337-0.399c0.535-0.017,3.412,0.444,3.799,0.037c1.239-1.308-2-0.905-2.213-0.897
				c-2.427,0.07-4.851,0.199-7.275,0.271c-3.694,0.108-7.393,0.078-11.087,0.188"/>
		</g>
	</g>
	<g>
		<g>
			<path d="M355.971,267.257c-1.287,0.021-2.668-0.187-3.955-0.166c-0.467,1.765,2.862,1.108,3.965,1.095
				c4.495-0.045,9.218,0.06,13.585-1.149c-0.002-1.75-3.93-0.304-5.186-0.179c-2.792,0.279-5.608,0.301-8.41,0.328"/>
		</g>
	</g>
	<g>
		<g>
			<path d="M349.592,271.295c-0.559,1.879,4.715,0.852,5.813,0.818c1.753-0.053,3.51,0.007,5.263-0.045
				c0.369-0.012,2.555,0.047,2.805-0.246c0.963-1.135-0.875-0.836-1.246-0.824c-1.549,0.045-3.104-0.13-4.651-0.084
				c-2.7,0.08-5.397,0.213-8.097,0.292"/>
		</g>
	</g>
</g>
<g>
	<g>
		<path d="M452.917,99.98c14.825,16.716,29.636,33.624,42.484,51.854c15.433,21.896,32.337,44.881,41.561,70.323
			c3.355,9.257,4.756,18.916,5.748,28.704c0.326,3.214-0.694,7.521-0.75,10.75c-0.032,1.902-0.793,1.18,1.226,1.386
			c0.872-8.521,1.188-17.313-0.603-25.589c-2.394-11.063-6.158-21.01-11.373-31.046c-6.207-11.941-12.414-23.4-20-34.5
			c-9.139-13.373-20.328-26.929-29.75-40.104c-8.296-11.602-15.82-24.054-25.292-34.734c-0.374,0.332-1.547,1.463-1.921,1.795"/>
	</g>
</g>
<g>
	<g>
		<path d="M422.7,193.343c6.25,9.854,15.788,17.886,24.843,25.066c3.789,3.005,8.288,5.365,11.742,8.75
			c0.552,0.541,1.379,1.454,1.46,2.29c0.091,0.943-1.567,1.783-1.963,2.593c-1.368,2.797,2.283,5.396,4.287,6.646
			c0.6-0.959,1.149-1.067,0.127-1.785c-1.064-0.746-3.415-2.309-2.872-3.93c0.7-2.091,2.663-2.861,0.923-5.253
			c-2.943-4.044-7.854-6.89-11.766-9.96c-5.143-4.034-10.199-8.213-14.873-12.785c-2.499-2.445-4.565-5.285-6.774-7.998
			c-0.939-1.155-2.445-1.893-3.287-3.122c-0.9-1.318-0.052-1.594-1.323-0.788"/>
	</g>
</g>
<g>
	<g>
		<path d="M511.208,239.283c-3.318,0.283-6.642,0.467-9.969,0.629c-3.664,0.18-7.338-0.206-11.008-0.194
			c-2.104,0.009-4.199,0.218-6.298,0.048c-1.168-0.097-4.642-0.81-4.454,1.012c8.972,1.462,18.311-0.014,27.337-0.454
			c5.984-0.294,13.631-2.261,19.165,0.737c2.952,1.6,2.97,3.527-0.187,4.105c-3.304,0.605-6.755,0.132-10.082-0.098
			c-6.177-0.42-12.354-1.146-18.494-1.92c-0.602,1.552,1.658,1.285,2.664,1.412c2.688,0.34,5.4,0.434,8.091,0.746
			c5.661,0.658,11.604,1.506,17.291,0.657c1.275-0.19,2.874-0.174,3.702-1.288c1.429-1.918-0.939-4.503-2.533-5.259
			c-4.498-2.135-10.464-0.597-15.222-0.104"/>
	</g>
</g>
<g>
	<g>
		<path d="M431.193,213.248c1.645-0.015-0.759-1.285-1.031-2.265c-0.447-1.602,0.181-3.492-0.231-5.104
			c-0.895-3.495-2.519-6.821-3.243-10.355c-1.433-6.984-2.592-14.061-3.386-21.145c-0.857-7.658-1.388-15.384-1.646-23.083
			c-0.137-4.012,0.392-16.254,0.415-18.354c0.012-1.163-0.032-4.852-1.867-4.402c-0.551,28.646,2.351,57.314,10.384,84.931"/>
	</g>
</g>
<g>
	<g>
		<path d="M340.71,87.612c9.455,5.768,14.079,15.241,16.75,25.75c3.444,13.561,1.927,28.781-0.5,42.5
			c-2.596,14.675-7.221,30.597-14.25,43.75c-2.725,5.099-4.99,9.298-9.2,13.354c-3.979,3.834-9.333,6.504-14.776,6.991
			c-5.695,0.51-11.897-0.273-17.284-2.183c-2.541-0.901-4.728-2.901-7.133-4.114c-1.429-0.721-2.886-1.415-4.289-2.184
			c-0.887-0.485-1.002-2.897-1.37-1.414c12.097,6.724,26.066,12.904,39.532,5.857c4.897-2.563,11.271-9.809,18.771-29.809
			c5.202-13.873,9.466-29.435,10.5-44.25c0.921-13.181,1.478-25.116-3.982-37.303c-3.185-7.106-7.9-12.956-14.586-17.034
			c-0.16,0.263-0.643,0.806-0.723,1.099"/>
	</g>
</g>
<g>
	<g>
		<path d="M186.052,128.835c-2.328,4.191-8.265,6.401-8.885,11.437c-0.644,5.225,0.6,10.572-0.002,15.865
			c-0.829,7.287-0.397,14.34,0.873,21.604c1.907,10.906,5.066,21.721,8.973,32.054c1.623,4.298,3.605,8.454,4.973,12.842
			c0.763,2.447,2.466,4.667,3.06,7.161c0.396,1.658,0.221,3.414,0.56,5.086c0.267,0.123,1.267-0.198,1.572-0.262
			c-4.479-22.088-17.756-42.147-19.126-64.938c-0.216-3.574,1.046-7.084,1.436-10.64c0.618-5.646-0.025-11.057-0.057-16.7
			c-0.031-5.813,4.707-8.46,7.303-13.132c0.777-1.398,1.022-3.191,2.153-4.332c0.951-0.961,2.292-1.558,3.354-2.392
			c1.142-0.896,0.865-0.454,0.104-1.46c-2.848,2.158-5.044,4.395-6.786,7.531"/>
	</g>
</g>
<g>
	<g>
		<path d="M456.919,98.811c3.566,4.035,8.578,6.597,13.101,9.368c5.2,3.188,9.675,7.356,14.24,11.381
			c6.85,6.037,13.278,12.054,18.421,19.593c1.951,2.862,3.707,8.512,7.263,9.52c1.037,0.294,2.284-0.082,3.347-0.04
			c1.319,0.052,2.335,0.441,3.306,1.265c1.822,1.543,3.036,3.642,4.255,5.687c3.708,6.223,6.149,13.185,8.411,20.025
			c1.065-0.388,0.939,0.089,0.578-1.003c-0.463-1.401-0.787-2.848-1.25-4.248c-1.332-4.027-1.895-8.397-3.651-12.267
			c-1.771-3.898-5.65-9.948-10.104-11.338c-2.581-0.805-4.588,0.557-6.672-1.683c-1.623-1.745-2.563-4.055-3.902-6.017
			c-5.58-8.178-11.688-15.536-19.154-22.057c-4.914-4.293-10.084-8.321-15.702-11.66c-2.55-1.516-5.449-2.533-7.822-4.319
			c-1.255-0.944-2.505-1.95-3.546-3.128c-0.282,0.018-1.203,0.935-1.43,1.134"/>
	</g>
</g>
<g>
	<g>
		<path d="M518.454,182.995c0.1,0.288,0.287,0.397,0.465,0.649c5.302-3.763,11.468-10.541,12.39-17.203
			c-1.457-0.657-1.286,1.865-1.722,2.889c-0.79,1.856-1.938,3.541-3.115,5.175c-2.25,3.125-4.94,6.143-8.098,8.383"/>
	</g>
</g>
<g>
	<g>
		<path d="M527.946,175.274c0.834,3.91,3.665,6.973,5.548,10.386c0.826,1.496,1.695,3.099,1.771,4.827
			c0.076,1.779-0.538,1.697,1.196,2.023c0.763-4.053-1.563-7.584-3.688-10.815c-1.052-1.599-2.069-3.248-2.781-5.033
			c-0.671-1.685-0.245-1.741-1.967-1.374"/>
	</g>
</g>
<g>
	<g>
		<path d="M525.418,186.836c3.39,2.08,6.943,4.077,9.781,6.905c1.469,1.463,2.769,3.124,3.448,5.096
			c0.397,1.158,0.521,2.387,0.555,3.609c0.026,0.954-0.469,1.935,0.894,1.67c0.42-4.979-1.832-9.001-5.538-12.183
			c-1.729-1.485-3.519-2.896-5.448-4.104c-0.874-0.547-3.229-2.765-3.7-1.053"/>
	</g>
</g>
<g>
	<g>
		<path d="M535.537,197.416c5.153,6.258,7.547,14.177,8.329,22.118c0.405,4.119,0.446,8.276,0.319,12.411
			c-0.063,2.05-0.272,4.093-0.399,6.138c-0.113,1.787-0.104,1.742,1.555,1.854c0.996-14.638,1.46-31.66-8.425-43.664
			c-0.386,0.316-0.847,0.707-1.233,1.024"/>
	</g>
</g>
<g>
	<g>
		<path d="M444.493,233.902c-1.942,1.507-3.855,3.059-5.853,4.494c-0.94,0.68-4.256,1.974-2.893,3.213
			c4.133-2.639,7.978-5.746,11.865-8.724c1.896-1.452,3.854-2.805,5.844-4.126c0.955-0.634,4.01-1.871,2.744-3.162
			c-4.176,2.329-7.978,5.336-11.744,8.26"/>
	</g>
</g>
<g id="Head">
	<path fill="#ECAF8B" d="M319.186,135.486c1,12.5,0.168,29.496-8.832,42.496s-6.5,9.667-12,17.167s-6,9.5-9,12.5
		s-7.166,6.667-7.166,6.667s-6.334,2-13.834,2.5s-19.833-8.334-19.833-8.334s-5.835-8.496-17.335-16.496s-21-18-25-41s-4-23-4-23
		s-8-9.5-8-14.5s5-10,10.5-10s123.5,3,123.5,3s6,1,1,12S319.186,135.486,319.186,135.486z"/>
	<path fill="#5D4530" d="M270.686,37.986c9.5-8.5,17-14.5,31-10s36,19,49.5,19s29-9,29-9s1,2,0,4.5s-1,2.5-1,2.5s8-6.5,19-8
		s14.5,5.5,14.5,5.5s-8,0-12.5,5.5s-8.5,7.5-8.5,7.5s5-1,8.5,4.5s3.5,19,3.5,19s-4-15.5-22.5-18s-22,3-22,3s-2.5,8-9.5,13
		s-14,7.5-27.5,8S270.686,37.986,270.686,37.986z"/>
	<path fill="#4F3B28" d="M312.686,51.986c-10.777-9.7-26-22-54-21.5s-54.5,17.5-58.5,37s-2,30-2,30s-0.5,16.5,2,25s12,14.5,12,14.5
		l2.5,5l5.5-10.5c0,0,0,16,15,28s26,13,26,13s-10-8.5-8-20.5c0,0,7.5,6.5,17,8s13,1.5,13,1.5l-8-21.5c0,0,9,4.5,13,4.5s8-3,7-5
		s-1-2-1-2s8,4,13,4s8-4,8-4l4,1c0,0,2-11,4-19s6.5-11,6.5-11S337.686,74.486,312.686,51.986z"/>
	<path fill="#976E50" d="M298.186,170.986c0-2-2.5-5-14.5,0.5s-14.5,7.5-14.5,7.5s8-2.5,17.5-5S298.186,170.986,298.186,170.986z"/>
	<path fill="#976E50" d="M241.186,177.486c0,0-5.5-4-14-6.5s-11-4-11-4s0.5,8.5,11,10S241.186,177.486,241.186,177.486z"/>
	<path fill="#4F3B28" d="M322.758,70.017c9.658,5.649,12.847-0.475,21.871-2.431c-0.241,3.166-2.244,6.226-4.951,8.156
		c5.662-0.592,11.764-4.336,16.165-7.496c-0.908,9.861-18.15,16.523-26.597,16.694c-1.094-3.634-0.957-7.375-2.21-11.003"/>
	<path fill="#5D4530" d="M197.638,83.205c-0.681,11.782,5.487,24.543,14.592,31.9c0.919-2.808,0.796-6.177,0.718-9.434
		c8.649,13.885,17.173,27.724,32.32,35.191c-3.828-8.136-5.993-15.72-7.746-24.001c1.006,2.538,6.451,7.133,7.891,9.003
		c2.551-4.768,2.711-4.429,5.058-9.291c19.765,16.82,38.615-3.867,48.397-20.688c6.275,5.059,13.647,3.907,13.908,12.731
		c2.829-4.038,6.588-7.135,10.692-9.807c2.548,3.64,6.488,5.356,8.868,1.128c0.56,3.021-0.168,5.591-2.396,7.377
		c-0.04-5.869,1.701-11.326,1.373-16.981c-0.498-8.577-3.741-18.534-9.427-27.899c-10.784-17.764-35.502-29.152-55.08-32.991
		c-17.402-3.412-43.162,6.853-55.925,18.845c-8.614,8.094-10.675,22.684-12.628,33.882c-0.12,0.577-0.206,1.16-0.26,1.747"/>
	<g>
		<g>
			<path fill="#25242B" d="M268.862,196.473c5.516,3.555-7.061,13.638-10.581,14.328c-3.979,0.78-7.485-2.088-9.296-5.297
				c-1.087-1.927-1.669-4.117-1.886-6.32c-0.13-1.316,0.572-3.637-1.386-3.381c-1.085,7.126,5.208,19.545,14.068,15.895
				c3.901-1.607,16.46-11.718,9.653-16.098c-0.203,0.316-0.354,0.414-0.464,0.771"/>
		</g>
	</g>
	<g>
		<g>
			<path fill="#25242B" d="M317.754,146.761c0.763,7.07-1.339,14.137-3.205,21.043c-1.813,6.706-4.519,11.556-9.06,16.68
				c-2.147,2.421-9.906,12.65-11.396,15.626c-1.515,3.024-8.906,12.207-11.904,14.623c-0.229,0.185,0.838,0.492,1.076,0.318
				c3.755-2.734,7.021-8.373,9.423-10.98c3.115-3.382,4.188-6.498,6.318-9.297c2.089-2.744,4.855-4.959,7.159-7.521
				c4.794-5.329,7.66-10.854,9.769-17.824c2.241-7.414,3.595-15.124,2.771-22.769C318.207,146.713,318.251,146.708,317.754,146.761"
				/>
		</g>
	</g>
	<g>
		<g>
			<path fill="#25242B" d="M202.855,136.67c1.217,5.207,1.982,10.524,3.235,15.722c1.871,7.764,3.834,16.267,8.129,23.11
				c4.709,7.503,11.853,14.552,19.075,19.673c3.131,2.221,6.75,4.111,9.398,6.95c0.713,0.765,1.085,1.748,1.496,2.707
				c0.563,1.315,0.073,1.163,1.426,0.681c-2.222-6.223-7.83-9.117-12.746-12.885c-3.572-2.736-7.253-5.362-10.208-8.748
				c-2.803-3.212-5.909-6.571-7.984-10.317c-6.184-11.162-8.28-24.761-11.156-37.07c-0.483,0.128-0.45-0.112-0.935,0.015"/>
		</g>
	</g>
	<g>
		<g>
			<path fill="#25242B" d="M290.104,176.938c-2.477,3.228-5.183,5.289-9.276,6.045c-1.854,0.342-3.707,0.568-5.576,0.334
				c-1.589-0.197-3.602-1.04-5.172-0.59c-0.024,1.509,3.742,1.658,5.055,1.821c2.957,0.367,6.107,0.021,8.912-1.011
				c2.383-0.877,4.479-2.433,6.098-4.368c0.729-0.872,1.362-1.815,2.112-2.669c0.665-0.758,1.872-1.247,1.046-2.354
				c-1.325,0.481-2.334,1.756-3.154,2.825"/>
		</g>
	</g>
	<g>
		<g>
			<path fill="#25242B" d="M220.09,174.524c0.969,0.321,1.655,2.783,2.351,3.55c1.719,1.892,4.155,3.423,6.625,4.15
				c1.303,0.383,10.254,0.21,8.729-2.017c-2.989,1.035-5.939,2.068-9.073,0.899c-2.111-0.787-4.051-2.37-5.521-4.067
				c-0.865-0.997-1.537-2.854-2.845-3.29c-0.099,0.296-0.327,0.638-0.346,0.946"/>
		</g>
	</g>
	<g>
		<g>
			<path fill="#25242B" d="M275.019,177.32c-3.037,1.14-5.828,1.549-8.719,3.041c0.293,1.877,4.179-0.443,5.163-0.848
				c3.578-1.473,7.133-2.951,10.835-4.073c3.363-1.02,6.713-2.12,10.113-3.009c1.146-0.3,5.909-0.32,5.204-1.905
				c-3.235,0.404-5.968,1.09-9.097,1.961C284.328,173.653,279.097,175.792,275.019,177.32"/>
		</g>
	</g>
	<g>
		<g>
			<path fill="#25242B" d="M276.229,174.554c-1.686,0.898-3.283,1.952-5.008,2.776c-0.979,0.467-3.625,0.661-2.63,2.052
				c5.623-1.997,10.555-5.455,16.008-7.853c2.701-1.188,5.662-2.113,8.627-2.337c1.286-0.098,2.523,0.364,3.77,0.71
				c0.895,0.25,1.823,0.484,2.041-0.837c-7.27-3.458-16.523,2.231-22.768,5.563"/>
		</g>
	</g>
	<g>
		<g>
			<path fill="#25242B" d="M213.52,166.76c10.543,3.404,19.686,10.13,30.869,11.752c0.42-0.959,0.043-0.643-0.844-0.799
				c-1.619-0.285-3.227-0.727-4.797-1.207c-2.934-0.898-5.624-2.448-8.422-3.699c-5.43-2.429-10.839-5.095-16.515-6.926
				c-0.095,0.295-0.375,0.768-0.387,1.074"/>
		</g>
	</g>
	<g>
		<g>
			<path fill="#25242B" d="M217.606,171.364c5.565,5.712,16.071,7.072,23.645,7.082c0.474-1.643-3.313-1.46-4.474-1.572
				c-2.965-0.288-5.954-0.611-8.832-1.39c-2.861-0.772-5.854-1.773-8.248-3.561c-1.193-0.891-2.287-2.073-2.941-3.424
				c-0.533-1.098-0.062-3.759-1.622-3.357c-0.058,2.313,1.077,4.379,2.677,6.021"/>
		</g>
	</g>
	<g>
		<g>
			<path fill="#25242B" d="M244.697,179.191c-0.418,1.48,1.259,0.968,2.226,1.411c1.418,0.648,2.256,2.047,2.822,3.458
				c0.611,1.522,0.86,3.156,0.845,4.79c-0.01,1.015-0.642,2.615,0.903,2.457c0.87-4.746-0.755-12.12-6.794-12.083"/>
		</g>
	</g>
	<g>
		<g>
			<path fill="#25242B" d="M326.898,107.294c-1.2,0.27-2.402,1.289-3.008,2.36c1.598,0.904,0.98,0.159,2.496-0.673
				c1.496-0.822,3.466,0.227,3.848,1.943c0.509,2.289-0.964,5.625-1.775,7.805c-1.36,3.654-3.475,6.994-5.611,10.253
				c-1.074,1.636-1.814,3.553-3.132,5.002c-1.133,1.245-1.219,1.087-0.107,2.232c4.521-4.387,7.821-10.521,10.094-16.347
				c0.813-2.086,1.313-4.475,1.823-6.656c0.726-3.1-0.975-6.813-4.644-5.992"/>
		</g>
	</g>
	<g>
		<g>
			<path fill="#25242B" d="M221.602,135.203c0.4,21.288,22.835,33.629,41.327,36.899c0.963-1.976-3.013-1.57-4.364-1.907
				c-2.793-0.696-5.445-1.91-8.127-2.957c-5.082-1.984-9.839-4.699-14.157-8.045c-4.075-3.16-7.516-6.991-9.968-11.553
				c-1.255-2.335-2.193-4.736-2.746-7.33c-0.258-1.211-0.699-2.375-0.79-3.609c-0.081-1.098-0.153-1.942-1.578-1.505"/>
		</g>
	</g>
	<g>
		<g>
			<path fill="#25242B" d="M252.436,152.736c8.544,4.768,21.734,10.104,31.689,9.437c-0.76-2.61-3.551-9.551-5.463-11.546
				c-0.928,0.487-0.762,0.676-0.227,1.359c1.078,1.378,3.591,7.805,4.16,9.451c-5.18,0.191-10.295-1.271-15.115-3.119
				c-2.332-0.895-9.016-3.672-11.233-4.818c-1.17-0.605-3.39-2.772-3.891-0.677"/>
		</g>
	</g>
	<g>
		<g>
			<path fill="#25242B" d="M292.133,136.962c0.641,1.742,1.254,4.955-0.64,6.299c-1.259,0.894-3.154,1.034-4.608,0.882
				c-2.589-0.271-4.995-1.61-7.438-2.478c-1.595-0.566-3.163-1.15-4.713-1.828c-0.976-0.426-1.372-0.368-1.562,0.842
				c5.014,2.264,23.95,9.862,20.373-2.693c6.548,2.476,13.049,4.938,20.118,3.498c0.15-2.15-2.981-0.96-4.376-0.911
				c-2.467,0.085-4.841-0.774-7.229-1.384c-3.655-0.932-7.188-2.275-10.711-3.607c0.158,0.428,0.243,1.095,0.401,1.522"/>
		</g>
	</g>
	<g>
		<g>
			<path fill="#25242B" d="M320.636,127.688c-1.205,2.895-2.187,6.09-1.593,9.283c-3.36-0.527-6.649-1.774-9.715-3.24
				c-1.718-0.82-3.5-1.54-5.129-2.523c-1.191-0.719-0.851-0.487-1.488,0.544c5.751,3.559,11.623,6.3,18.383,7.08
				c-1.389-3.925-0.146-7.306,1.389-10.993c-0.461-0.191-1.018-0.273-1.479-0.465c-0.071,0.172-0.097,0.226-0.169,0.397"/>
		</g>
	</g>
	<g>
		<g>
			<path fill="#25242B" d="M232.748,34.1c-22.823,8.59-40.896,33.823-36.568,58.71c0.538-0.094,3.306-0.287,3.204-0.909
				c-0.115-0.725-0.476-1.356-0.54-2.085c-0.161-1.832-0.875-3.609-0.797-5.443c0.183-4.291,0.99-8.526,2.155-12.657
				c2.874-10.194,9.111-18.802,17.186-25.705c22.299-19.069,54.658-18.63,79.049-4.774c3.236,1.84,7.184,4.945,10.109,7.248
				c1.393,1.096,2.594,1.547,3.891,2.752c1.387,1.287,1.313,2.52,2.65,1.182C292.76,32.089,259.683,23.962,232.748,34.1"/>
		</g>
	</g>
	<g>
		<g>
			<path fill="#25242B" d="M215.07,142.463c0.281,0.691,0.332,1.458,0.613,2.149c0.283-1.772,0.55-3.523,1.118-5.234
				c0.443-1.336,0.987-2.662,1.737-3.854c0.59-0.938,1.33-1.624-0.057-2.26c-1.624,1.886-2.662,4.649-3.313,7.028
				c-1.416-3.77-2.652-7.909-2.652-11.97c0-1.794,0.358-3.614,0.912-5.323c0.395-1.217,2.11-2.525,0.229-2.957
				c-3.91,7.137-1.669,15.472,1.188,22.511"/>
		</g>
	</g>
	<g>
		<g>
			<path fill="#25242B" d="M202.601,128.6c2.223,4.104,5.351,7.904,9.968,9.078c1.029-1.758-1.908-2.298-3.108-3.012
				c-2.088-1.241-3.74-2.979-5.06-5.004c-2.618-4.02-3.663-8.793-4.348-13.496c-0.694-4.78-0.691-9.565-0.225-14.37
				c0.205-2.104-0.352-4.335,0.109-6.398c0.287-1.289,2.242-3.615,0.207-3.72c-3.825,11.208-3.576,26.587,2.121,37.103"/>
		</g>
	</g>
	<g>
		<g>
			<path fill="#25242B" d="M197.444,121.895c0.816,1.619,1.431,3.346,2.017,5.067c0.521,1.531,0.24,1.351,1.795,1.075
				c-0.834-4.696-3.969-8.629-5.369-13.16c-0.552-1.787-0.932-3.824-0.078-5.572c0.436-0.893,1.207-1.562,2.021-2.117
				c0.023-0.271-0.617-0.872-0.782-1.114c-5.813,3.965-2.243,11.107,0.187,15.928"/>
		</g>
	</g>
	<g>
		<g>
			<path fill="#25242B" d="M252.889,162.758c1.243,4.39,4.657,7.738,7.957,10.699c0.706-0.787,1.374-0.974,0.492-1.778
				c-1.242-1.133-2.57-2.189-3.656-3.477c-1.089-1.29-2.07-2.712-2.747-4.265c-0.703-1.611-0.386-1.673-2.021-1.21"/>
		</g>
	</g>
	<g>
		<g>
			<path fill="#25242B" d="M278.576,30.657c0.256,0.368,0.025,0.452,0.281,0.819c0.118,0.17,2.549-1.401,2.947-1.593
				c2.298-1.101,4.727-2.581,7.259-2.819c5.435-0.51,10.913,1.829,16.054,3.517c9.295,3.051,17.015,7.828,25.902,11.738
				c15.372,6.764,40.704,10.513,51.837-5.331c-0.365-0.258-1.666-0.318-2.033-0.576c-0.193-0.137-1.811,0.562-2.084,0.864
				c-1.47,1.625-2.731,3.271-4.604,4.405c-3.849,2.33-8.181,2.885-12.628,3.381c-9.095,1.013-16.653,0.521-25.152-2.743
				c-8.516-3.271-18.222-8.035-26.737-11.371c-9.886-3.874-22.268-7.747-31.695-1.212"/>
		</g>
	</g>
	<g>
		<g>
			<path fill="#25242B" d="M381.201,43.304c0.629-1.174,0.903-2.604,1.361-3.855c-0.421-0.154-0.643-0.364-1.063-0.518
				c-0.226-0.083-1.084,2.388-1.262,2.744c-1.027,2.063-2.729,3.675-3.988,5.565c1.175,1.027,0.955,0.994,2.082-0.15
				c1.599-1.622,3.636-2.786,5.543-4.021c3.884-2.514,8.258-4.445,12.822-5.304c4.133-0.777,8.126-0.196,11.52,2.429
				c1.995,1.543,4.227,2.742,6.167,4.354c0.295-0.391,1.151-0.962,0.705-1.333c-0.838-0.696-2.067-0.924-2.906-1.621
				c-2.24-1.86-4.129-4.084-6.965-5.006c-8.15-2.648-17.563,1.919-24.026,6.691"/>
		</g>
	</g>
	<g>
		<g>
			<path fill="#25242B" d="M398.099,48.644c-2.088,1.894-4.481,3.418-6.878,4.919c-1.337,0.837-2.684,1.649-4.15,2.228
				c-0.076,0.277,0.499,1.266,0.611,1.551c6.146-2.422,10.282-7.207,15.438-11.04c2.152-1.601,4.374-3.165,7.033-3.615
				c1.602-0.271,3.283-0.323,4.898-0.184c1.86,0.16,1.772,0.829,2.051-0.921c-7.943-1.254-13.542,1.643-19.234,6.808"/>
		</g>
	</g>
	<g>
		<g>
			<path fill="#25242B" d="M371.357,50.985c0.008,0.272-0.113,0.835,0.059,1.013c1.236-0.03,2.445,0.197,3.683,0.211
				c2.313,0.027,4.59,0.51,6.887,0.784c4.029,0.482,8.275,0.831,11.847,2.815c3.479,1.935,5.958,5.209,7.937,8.654
				c1.163,2.023,2.157,4.121,2.835,6.353c0.389,1.276,0.625,2.604,0.896,3.91c0.211,0.127,1.649-0.348,1.916-0.402
				c-1.705-8.269-6.205-15.771-13.952-19.738c-6.781-3.473-14.641-3.751-22.105-3.566"/>
		</g>
	</g>
	<g>
		<g>
			<path fill="#25242B" d="M357.667,64.262c-1.486,1.049-2.966,2.127-4.521,3.072c-1.636,0.998-1.943,0.643-1.077,2.225
				c5.097-2.792,9.404-7.544,15.094-9.157c5.217-1.479,11.172-0.22,16.354,1.03c5.068,1.223,10.1,3.247,14.186,6.569
				c1.734,1.41,3.665,2.796,4.66,4.812c0.529,1.072,0.586,2.348,0.771,3.527c0.147,0.953,0.467,0.538,1.342,0.448
				c-0.966-9.399-10.796-13.85-18.845-16.068c-4.407-1.216-9.008-2.367-13.594-2.25c-5.592,0.143-10.267,2.161-14.714,5.302"/>
		</g>
	</g>
	<g>
		<g>
			<path fill="#25242B" d="M321.572,66.424c3.566,7.237,7.067,14.732,8.672,22.692c0.731,3.626,0.642,7.362,0.419,11.058
				c-0.119,1.956-0.365,3.877-0.754,5.797c-0.386,1.904-0.678,1.93,1.098,2.373c3.786-15.148-1.787-28.986-8.406-42.423
				c-0.448,0.222-0.819,0.397-1.268,0.62"/>
		</g>
	</g>
	<g>
		<g>
			<path fill="#25242B" d="M334.3,81.82c0.048,0.498,0.093,0.971,0.141,1.469c14.584-1.404,25.357-11.437,25.692-26.412
				c-1.574-0.035-1.453-0.175-1.563,1.49c-0.126,1.912-0.296,3.852-0.788,5.704c-0.841,3.165-2.336,6.203-4.409,8.746
				c-4.649,5.701-11.941,8.152-19.089,8.84"/>
		</g>
	</g>
	<g>
		<g>
			<path fill="#25242B" d="M260.496,212.865c-0.272,0.14-0.46,0.425-0.686,0.636c6.81,7.302,19.572,3.818,26.746-1.011
				c-0.516-1.613-3.793,0.819-4.921,1.331c-2.279,1.034-4.644,1.906-7.108,2.357c-4.855,0.891-10.465,0.487-14.021-3.326"/>
		</g>
	</g>
	<g>
		<g>
			<path fill="#25242B" d="M274.472,206.933c-2.631,1.246-5.293,2.399-8.099,3.207c-1.538,0.442-3.056,1.104-4.654,1.188
				c-1.015,0.055-2.327-0.797-2.009,0.687c4.158,0.229,8.064-0.965,11.827-2.618c2.112-0.928,4.253-1.79,6.357-2.733
				c1.089-0.488,4.634-1.067,3.617-2.589c-2.411,0.82-4.71,1.835-7.009,2.924"/>
		</g>
	</g>
	<g>
		<g>
			<path fill="#25242B" d="M259.403,212.956c-0.222,0.212-0.297,0.499-0.454,0.766c7.681,4.518,15.987-0.235,21.302-6.153
				c-0.965-1.492-3.152,1.844-4.137,2.641c-1.726,1.395-3.6,2.594-5.686,3.369c-3.639,1.354-7.51,1.133-10.893-0.855"/>
		</g>
	</g>
</g>
<path fill="#0082A9" d="M206.96,195.612c1.701,9.749,21.857,51.873,32.411,44.912C236.251,219.86,215.57,213.898,206.96,195.612"/>
<g>
	<g>
		<path d="M203.115,188.895c6.212,9.855,13.325,19.122,20.324,28.431c1.908,2.537,4.021,4.9,6.009,7.375
			c1.758,2.189,3.415,4.455,5.064,6.73c0.964,1.332,1.905,2.688,2.713,4.119c0.475,0.842,0.503,1.129,1.322,0.354
			c-4.126-7.882-10.656-14.741-15.97-21.879c-3.602-4.838-7.548-9.441-10.964-14.413c-1.622-2.361-3.219-4.753-4.783-7.153
			c-0.764-1.173-2.098-5.369-3.614-3.679"/>
	</g>
</g>
<g>
	<g>
		<path d="M204.087,208.543c8.295,7.186,18.624,11.832,28.714,15.921c0.951-1.268-0.616-1.499-1.567-1.896
			c-1.607-0.672-3.248-1.256-4.834-1.977c-3.158-1.432-6.226-3.022-9.257-4.706c-2.631-1.462-5.325-2.819-7.783-4.556
			c-1.009-0.711-2.06-1.375-3.024-2.146c-0.766-0.613-1.56-2.087-2.203-0.692"/>
	</g>
</g>
<g>
	<path fill="#ECAF8B" d="M347.034,239.823c-2.757-2.31-7.226-1.878-12.072-4.124c-4.847-2.247-9.747-6.285-12.731-6.197
		c-2.985,0.089-13.011,4.568-20.385,7.773c-7.375,3.207-9.121,4.752-9.34,7.447c-0.22,2.693,1.607,3.836,1.607,3.836
		s-3.303-0.502-1.063,4.512c2.239,5.015,18.71,6.32,21.396,6.24c2.687-0.08-4.442,1.324-8.479,6.225
		c-4.038,4.9,1.432,8.025,1.432,8.025s26.244,8.485,30.432,8.66c4.188,0.174,13.633-13.849,13.386-22.205
		C350.97,251.658,347.034,239.823,347.034,239.823z"/>
	<g>
		<path fill="#F3D6C3" d="M301.197,245.66c1.742-6.217-9.536-6.211-7.349,2.563c2.115-0.234,4.432-0.273,6.506-0.744"/>
		<path fill="#F3D6C3" d="M303.183,252.175c-2.431-3.056-6.435-2.981-9.883-2.047c-1.402,7.343,8.729,7.22,8.969,1.476"/>
		<g>
			<g>
				<path d="M315.694,230.762c-4.229,1.857-8.439,3.555-12.816,5.014c-3.762,1.232-11.344,2.996-10.708,8.396
					c1.253-0.146,1.396,0.25,1.579-0.925c0.202-1.308,1.01-2.146,2.085-2.776c2.979-1.757,6.539-2.385,9.8-3.484
					c4.053-1.364,7.768-3.561,11.685-5.274c2.255-0.985,4.667-1.698,7.049-2.347c1.586-0.432,1.528-0.213,1.597-1.905
					c-3.368-0.138-7.095,2.467-10.063,3.771"/>
			</g>
		</g>
		<g>
			<g>
				<path d="M307.646,245.35c-4.139,0.229-11.185-0.488-13.92,3.283c0.715,0.939,0.708,0.033,1.386-0.445
					c0.924-0.653,2.245-0.6,3.341-0.819c2.316-0.466,4.637-0.915,6.986-1.048c6.27-0.353,12.603,0.978,18.83,0.408
					c0.184-1.027-0.148-0.978-1.042-0.933c-1.65,0.084-3.322,0.289-4.971,0.188c-3.527-0.217-7.069-0.883-10.599-0.488"/>
			</g>
		</g>
		<g>
			<g>
				<path d="M292.075,255.298c1.648,3.091,5.602,3.673,8.732,3.616c3.497-0.061,6.979,0.093,10.464,0.379
					c3.357,0.277,6.714,0.555,10.044,1.071c1.318,0.206,2.68,0.213,3.98,0.506c0.892,0.202,1.791,0.794,1.837-0.547
					c-6.458-2.093-14.021-2.562-20.743-2.859c-3.619-0.161-8.207,0.894-11.417-1.136c-1.577-0.997-2.375-2.477-2.148-4.339
					c0.17-1.386,2.378-3.972,0.825-4.543c-1.588,2.226-2.528,5.01-1.135,7.616"/>
			</g>
		</g>
		<g>
			<g>
				<path d="M307.251,265.275c0.957,1.105,1.355-0.598,2.214-1.176c1.36-0.918,3.042-1.349,4.62-1.75
					c1.871-0.479,3.781-0.901,5.703-1.067c1.15-0.099,4.632,0.6,4.148-1.114c-5.035-0.003-13.852,0.221-16.907,5.005"/>
			</g>
		</g>
		<g>
			<g>
				<path d="M314.558,230.011c0.073,0.269,0.224,1.522,0.437,1.662c1.581-0.434,3.18-0.78,4.818-0.858
					c2.98-0.14,5.86,0.484,8.581,1.697c2.686,1.196,5.319,2.594,7.567,4.475c1.402,1.169,2.758,2.422,4.062,3.699
					c0.971,0.951,0.734,0.633,1.574-0.209c-7.375-7.36-16.075-13.183-26.964-10.193"/>
			</g>
		</g>
		<g>
			<g>
				<path d="M332.192,235.527c4.457,1.813,9.152,4.146,14.076,3.984c0.346-1.412-0.849-0.89-1.833-1.003
					c-1.935-0.221-3.777-0.903-5.599-1.573c-2.096-0.771-4.181-1.591-6.249-2.433c-0.111,0.285-0.398,0.657-0.421,0.959"/>
			</g>
		</g>
		<g>
			<g>
				<path d="M343.658,237.492c4.601,4.277,6.162,11.898,6.614,17.869c0.26,3.451,0.074,7.025-0.618,10.426
					c-0.321,1.572-1.019,3.061-1.692,4.521c-0.495,1.074-1.466,2.196,0.187,2.738c3.5-5.168,3.43-12.514,2.875-18.512
					c-0.563-6.078-1.961-13.498-6.627-17.838c-0.257,0.273-0.884,0.785-1.055,1.117"/>
			</g>
		</g>
		<g>
			<g>
				<path d="M294.492,250.217c-2.389,2.871-0.816,7.145,3.129,6.633c2.42-0.313,5.36-1.783,6.035-4.345
					c-0.374,0.009-0.99-0.485-1.15-0.04c-0.514-3.156-5.862-4.621-7.906-2.158 M295.397,255.572
					c-1.971-1.192-0.897-5.491,1.43-5.561c1.241-0.037,2.602,0.303,3.651,0.989c0.993,0.647,0.841,2.103,1.806,2.16
					c-1.172,1.897-4.818,3.825-6.959,2.528"/>
			</g>
		</g>
		<g>
			<g>
				<path d="M298.24,240.833c-3.186,0.588-4.616,2.338-4.521,5.565c1.449,0.373,0.857-1.015,1.057-1.971
					c0.21-1.004,0.845-1.768,1.782-2.188c0.915-0.412,2.957-1.11,3.823-0.319c1.037,0.948-0.609,3.4,1.296,3.057
					c0.247-2.591-0.381-4.754-3.446-4.188"/>
			</g>
		</g>
		<g>
			<g>
				<path d="M320.104,249.066c0.598,1.27,0.87,2.703,0.729,4.106c-0.094,0.931-0.741,1.724,0.601,1.839
					c0.793-2.05,0.525-4.438-0.393-6.392c-0.282,0.133-0.654,0.231-0.891,0.433"/>
			</g>
		</g>
		<g>
			<g>
				<path d="M308.868,249.922c0.734,1.438-0.645,4.143,0.755,4.486c0.892-1.563,0.96-3.34,0.139-4.944
					c-0.276,0.144-0.652,0.244-0.881,0.451"/>
			</g>
		</g>
		<g>
			<g>
				<path d="M312.783,238.361c0.828,1.269,0.417,4.586,1.831,4.582c0.496-1.738-0.031-3.631-1.003-5.114
					c-0.261,0.17-0.551,0.264-0.756,0.495"/>
			</g>
		</g>
		<g>
			<g>
				<path d="M329.364,263.309c-0.011,0.308,0.18,0.728,0.252,1.027c2.493-0.593,4.903-1.471,7.242-2.518
					c-0.228-1.476-1.231-0.543-2.16-0.176c-1.733,0.683-3.513,1.234-5.326,1.666"/>
			</g>
		</g>
	</g>
</g>
<g>
	<path fill="#CFD2D8" d="M308.168,357.959c-12.523-1.64-156.399-10.138-156.566,10.531c25.406,8.996,60.465,9.473,87.608,9.469
		c12.269-0.002,34.548-7.199,46.309-3.349c6.756,2.212,9.475,10.962,20.486,12.813c1.891,13.541,50.211,22.724,61.828,24.403
		c27.688,4.006,56.135,1.884,83.564,5.534c0.808-38.588-0.986-49.994-42.295-57.837c-27.301-5.184-55.215-4.899-82.936-4.899"/>
	<path id="ChestMain" fill="#F4BF9A" d="M527.585,257.876c0,0-16-4.5-29-5.75s-24.25,0.5-40,1.75s-33.5,0.25-52.25-0.5
		s-21.25,1.25-40.25,8.25s-23.25,10.75-25.75,11.75s-10.5-0.25-18.5-2.75s-11.25-4-17.5-4.25s-8.435-4.224-10.185-9.224
		s-2.416-16.541-9.25-16.375s-7.667,2.375-10.5,0.375s-0.959-3.125-4.125-1.625c-1.835,0.869-2.099,2.392-2.25,5.625
		c-0.092,1.959-1.566,4.728-1.566,4.728s-2.124-12.088-7.29-10.588s-3.834,5.5-8,3s-7-8.833-9.5-7.833s-4.833,11.667-10.833,15
		s-10,0.333-23,5.5s-34.335,19.334-12.668,51.001s59.333,33,65.333,33s53.667-8.333,85.334,1.667s191.333,10,191.333,10
		S532.335,281.459,527.585,257.876z"/>
	<path id="ChestMainExpanded" fill="#F4BF9A" d="M527.585,257.876c0,0-16-4.5-29-5.75s-24.25,0.5-40,1.75
		s-33.585-4.903-52.335-5.653s-10.355-2.078-29.355,4.922s-34.06,19.231-36.56,20.231s-10.5-0.25-18.5-2.75s-11.25-4-17.5-4.25
		s-8.435-4.224-10.185-9.224s-2.416-16.541-9.25-16.375c-6.834,0.166-7.667,2.375-10.5,0.375s-0.959-3.125-4.125-1.625
		c-1.835,0.869-2.099,2.392-2.25,5.625c-0.092,1.959-1.566,4.728-1.566,4.728s-2.124-12.088-7.29-10.588s-3.834,5.5-8,3
		s-7-8.833-9.5-7.833s-4.833,11.667-10.833,15s-10,0.333-23,5.5s-34.335,19.334-12.668,51.001s59.333,33,65.333,33
		s53.667-8.333,85.334,1.667s191.333,10,191.333,10S532.335,281.459,527.585,257.876z"/>
	<path fill="#476990" d="M601.835,260.376c0,0-9-1-27-3.5s-16-3.75-27.5-2s-8.25,1.25-13,0.75s-5.25-0.5-7.25-0.5s2.75,2.75,2,35
		s0.75,32.75,2.25,39.75s8,32.5,8,32.5l61.25,12.5L601.835,260.376z"/>
	<path fill="#8F745E" d="M194.085,263.626c-1-2.5-5.25-3-8-1s-5,3.5-5,3.5l3,1.25c0,0-9.041,2.745-11.291,7.495
		s-6.459,20.755-4.709,30.005s0.75,11.5,0.75,11.5l3.25-5c0,0,2.25,12.75,3.25,14.75s1,2,1,2s1.25-0.5,2,3s1.5,9,2,10.75
		s0.5,1.75,0.5,1.75l1-2.25c0,0,1.75,6,5.5,9.75s4.25,4.5,4.25,4.5l2.75-2.75c0,0,1.75,8.5,8.5,11.75s9.25,3.25,29.25,4.75
		s23.5-2.75,26.25-4.75s3.25-2.75,5.75-3.75s6-5.5,11.5-11.25s10-6.5,13.75-8.25s7-3,7-3l1-11.75l-5-4.5c0,0-2.5-5.25-11-4.5
		s-12.5,3.75-12.5,3.75s4-7-0.75-5s-13.25,6.5-20.75,7s-14.5-0.5-14.5-0.5s-6.75-1.75-7-8s3-9.75,3.5-10.5s-3.5-7-14.5-14
		s-17.75-5.25-18.75-13.75S195.085,266.126,194.085,263.626z"/>
	<path fill="#CCA387" d="M234.335,306.876c-3.363,5.465-2.995,13.349,5.737,9.637c-0.486-1.253,0.083-3.33-0.455-4.599
		c4.72,0.518,11.767-3.568,9.993-9.014c-2.898-0.52-5.702,0.582-7.26,3.021c-2.039-1.955-4.283-2.176-6.016-0.046"/>
	<path fill="#CCA387" d="M263.085,240.876c0.017,3.47,0.42,7.498,3.121,9.703c2.251-2.622,0.694-1.552-2.181-8.302"/>
	<path fill="#7F90A7" d="M600.836,371.293c-6-4.333-8.667-8.666-23.667-11.666s-18-12-25-15.667s-26.333-6-42.333-14
		s-51.666-24-87-33s-65-7.333-76.667-6c-6.053,0.69-15.579,0.338-22.834,4.166c-6.729,3.55-11.205,11.156-16.499,15.167
		c-11,8.334-12.334,15-13.667,24s-3,20.001-3,24.334s7.334,5.999,10.667,7.666s4,3.334,4,7.667s-8,16.667,2,19
		s17-6.334,20.333-18.667s-6.711-29.736,11.333-41c13.083-8.167,38.334-7.666,64.334-8.333s58.414,6.574,68.499,11.166
		c19.583,8.916,19.333,6.5,42,11.5s28.833,6,44.167,13.667s20,8.001,22,11.334s3,5.666,3,5.666L600.836,371.293z"/>
	<path fill="#6E7D8F" d="M621.935,416.518l-5.099-45.891c0,0-12-2.001-22,2.666s-12.334,6-12.334,6s0-8.334-6.333-9
		s-15.667,3.667-15.667,3.667s-1.667-10.666-13-10.333s-36.752-6.155-49.417-8.501c-9.001-1.667-13.251-1.833-15.584-3.833
		s-5.666-7.666-9.333-8.333s-8.665,0-8.665,0s-14.835-5.918-28.168-9.584s-25.834-6.083-30.167-7.416s-5.666-1.666-5.666-1.666
		s-32.333,2.334-43,3s-23.333,5-29,16s-2.333,18.666-2,21.333s-0.334,11-0.334,11l-0.333,3c4.666,4,10.333,6,15.667,7.333
		s21.334,9.333,37.334,15s13.332,3.999,21.666,6.333s26.666,4.668,44,5.334s14.001,2.333,26.334,4.333s28.667-0.333,50,3
		s40,3.667,50,4.667s31-3,36-3.667c4.926-0.657,15.021-2.282,15.319-2.331C621.951,417.95,621.875,417.228,621.935,416.518z"/>
	<path fill="#586572" d="M594.836,373.293c-6.333,2.001-7.666,5.001-11.333,4.001s-0.333-7.666-9-7s-12,6.334-14,2
		s-6.667-9.334-19.667-9.667s-19-2-37-6s-18.333-2.999-25.333-9.333s-10.333-3.668-14-4.334s-26.333-9-32-10
		s-23.001-5.332-25.334-6.666s-4.333-1.334-4.333-1.334s26.999,0,41.333,2.667s28.667,10,36.667,12s18,6.334,35,8.667
		s30,7.334,40,12s16.001,8,26.667,11S594.836,373.293,594.836,373.293z"/>
	<path fill="#586572" d="M468.168,413.959c-4.541-7.096-18.156-12.813-25.666-16.333c0.48,1.644-0.527,4.109-0.152,5.86
		c-4.309,0.433-12.977-1.456-17.171-2.288c-6.759-1.342-13.875-0.281-20.721-1.651c-13.851-2.77-25.813-10.279-39.026-14.196
		c-10.319-3.06-21.595,1.059-29.859-7.299c-3.353-3.39-4.032-6.669-8.15-9.328c-0.613,3.847-1.286,7.961-1.791,11.587
		c8.883,3.262,19.31,6.245,27.817,10.733c5.261,2.775,9.231,7.114,14.885,9.188c5.462,2.002,12.037,2.318,17.717,3.638
		c26.459,6.144,50.325,13.769,78.12,13.759"/>
	<path fill="#355673" d="M617.999,367.772c0.447-1.524,0.565-3.63,0.502-6.479l-0.999-1.666
		c-20.04-0.771-40.896-7.663-60.849-10.364c10.212,11.035,19.834,8.861,30.33,13.615c6.45,2.921,13.333,6.46,20.575,7.675
		c5.727,0.96,8.602,0.807,9.938-1.567C617.613,368.561,617.779,368.151,617.999,367.772z"/>
	<g>
		<g>
			<g>
				<path fill="#25242B" d="M271.435,238.623c1.32,2.975,3.634,4.083,6.718,3.73c2.991-0.342,7.036-2.321,9.801-0.44
					c2.938,1.998,3.35,6.56,3.854,9.785c0.585,3.729,1.322,7.452,3.85,10.446c2.224,2.631,4.782,4.801,8.182,5.433
					c3.386,0.63,6.954-0.052,10.338,0.629c4.016,0.81,7.994,2.379,11.87,3.683c6.348,2.133,12.672,4.159,19.383,3.521
					c-0.035-0.369-0.428-1.242-0.463-1.61c-0.071-0.743-0.757-0.797-1.368-0.76c-2.064,0.126-4.102,0.485-6.162,0.288
					c-3.482-0.333-6.942-0.916-10.261-2c-3.878-1.268-7.798-2.494-11.758-3.488c-3.502-0.88-6.935-1.347-10.483-1.841
					c-3.205-0.444-5.57-2.108-7.725-4.535c-5.006-5.632-2.611-14.051-8.084-19.478c-3.201-3.174-7.493-1.26-11.318-0.861
					c-1.477,0.154-3.115-0.156-4.23-1.261c-0.178-0.177-0.986-1.296-0.951-1.313c-0.441,0.196-0.863-0.055-1.305,0.142"/>
			</g>
		</g>
		<g id="ChestOutlines">
			<path id="ChestOutline" fill="#25242B" d="M463.761,252.884c-17.677,2.027-37.258,0.938-54.926,0.075
				c-3.752-0.183-6.999-0.109-10.183,0.191c-3.828,0.361-7.566,1.05-11.985,2.017c-8.092,1.771-16.04,3.626-23.741,6.651
				c-5.402,2.121-10.423,5.037-15.716,7.418c-2.184,0.984-4.392,1.899-6.572,2.894c-0.604,0.274-1.916-0.997-2.521-0.722
				c-0.074,0.033,0.933,2.16,1.009,2.326c14.127-6.438,28.362-12.553,43.444-16.459c8.01-2.073,15.971-3.006,24.262-2.713
				c8.912,0.313,17.762,1.172,26.663,1.697c8.827,0.521,17.731-1.139,26.555-1.881c10.525-0.885,17.395-2.113,23.948-2.3
				c8.407-0.238,16.979,0.204,25.291,1.522c5.979,0.949,11.705,2.862,17.526,4.445c1.326,0.36,2.216,0.075,3.566,0.334
				c0.135-0.708,0.745,0.512-0.054,0.348c-1.641-0.336-3.073-1.654-4.682-2.114c-1.589-0.453-3.414-0.044-5.006-0.484
				c-5.909-1.635-11.766-3.646-17.86-4.276c-12.996-1.35-25.979-0.037-38.923,1.448"/>
			<path id="ChestOutlineExpanded" fill="#25242B" d="M463.761,252.884c-17.677,2.027-35.593-5.7-53.261-6.563
				c-3.752-0.183-8.663-0.308-11.847-0.007c-3.828,0.361-14.234,2.854-18.653,3.821c-7.986,2.595-6.34,4.645-14.041,7.67
				c-5.107,2.006-12.582,8.657-18.749,11.432c-2.184,0.984-4.392,1.899-6.571,2.894c-0.604,0.274-1.916-0.997-2.521-0.722
				c-0.074,0.033,0.933,2.16,1.009,2.326c14.127-6.438,27.459-15.763,41.041-21.702c8.01-2.073,23.209-4.082,31.5-3.789
				c8.912,0.313,14.747,3.592,23.648,4.117c8.827,0.521,15.911,2.761,24.734,2.019c10.525-0.885,17.395-2.113,23.948-2.3
				c8.407-0.238,16.979,0.204,25.291,1.522c5.979,0.949,11.705,2.862,17.526,4.445c1.326,0.36,2.216,0.075,3.566,0.334
				c0.135-0.708,0.745,0.512-0.054,0.348c-1.641-0.336-3.073-1.654-4.682-2.114c-1.589-0.453-3.414-0.044-5.006-0.484
				c-5.909-1.635-11.766-3.646-17.86-4.276c-12.996-1.35-25.979-0.037-38.923,1.448"/>
		</g>
		<g>
			<g>
				<path fill="#25242B" d="M236.879,240.463c-2.059,3.932-4.435,7.491-8.688,9.305c-3.866,1.647-7.908,1.784-12.003,2.237
					c-8.036,0.888-15.116,4.978-21.643,9.519c0.446,0.642,0.308,1.037,1.038,0.535c1.514-1.043,3.328-1.638,4.9-2.59
					c2.391-1.447,4.661-3.227,7.253-4.279c3.357-1.362,6.968-1.541,10.568-1.814c5.95-0.452,11.928-1.723,15.982-6.573
					c1.777-2.127,3.298-4.413,4.595-6.841c0.818-1.529,1.571-3.098,2.634-4.473c0.364-0.473,0.921-0.747,0.435-1.164
					c-0.281-0.241-0.449-0.079-0.73-0.32c-1.724,2.012-3.077,4.146-4.301,6.48"/>
			</g>
		</g>
		<g>
			<g>
				<path fill="#25242B" d="M241.542,233.604c0.027,0.481,0.104,0.836,0.131,1.317c-0.013-0.229,2.211,0.57,2.431,0.729
					c1.862,1.343,2.875,3.646,4.381,5.334c1.384,1.553,3.214,2.744,5.374,2.391c2.303-0.377,4.298-2.066,5.927-3.632
					c-0.334-0.349-0.746-0.656-1.081-1.005c0.014,0.014-2.306,1.781-2.617,1.984c-1.57,1.022-3.398,1.688-5.076,0.551
					c-3.309-2.237-4.709-8.076-9.496-7.804"/>
			</g>
		</g>
		<g>
			<g>
				<path fill="#25242B" d="M269.862,239.074c-1.477,0.721-2.425,1.668-2.758,3.337c0.303,0.062,0.595,0.09,0.897,0.149
					c-0.031-0.006,0.658-1.41,0.846-1.619c0.912-1.017,2.407-1.187,3.296-2.265c-0.238-0.196-0.472-0.422-0.71-0.618
					c0.012,0.008-1.359,0.932-1.563,1.03"/>
			</g>
		</g>
		<g>
			<g>
				<path fill="#25242B" d="M259.132,239.615c2.216,0.585,3.67,1.523,4.629,3.568c0.395,0.842,0.793,1.682,1.188,2.521
					c0.314,0.671,1.286,2.115,1.952,1.822c-0.58-1.235-2-4.223-2.579-5.457c-0.927-1.975-2.93-2.868-4.945-3.4
					c-0.084,0.322-0.164,0.656-0.249,0.979"/>
			</g>
		</g>
		<g>
			<g>
				<path fill="#25242B" d="M262.426,241.786c0.578,1.271,0.206,3.223,0.446,4.618c0.287,1.673,1.945,3.894,3.619,4.49
					c0.186-0.521,0.496-0.758-0.032-1.016c-0.818-0.4-2.183-1.918-2.455-2.771c-0.581-1.817,0.206-4.088-0.569-5.795
					c-0.305,0.139-0.596,0.338-0.899,0.476"/>
			</g>
		</g>
		<g>
			<g>
				<path fill="#25242B" d="M258.142,301.217c0.891,2.077,1.117,4.713-0.375,6.518c-1.066,1.287-2.246,2.483-3.334,3.753
					c-3.352,3.91-7.344,6.8-12.148,8.716c-4.313,1.721-10.02,2.961-13.513-0.965c-1.696-1.907-2.239-4.485-1.944-6.974
					c0.171-1.441,0.353-3.011,1.116-4.253c0.287-0.467,0.661-0.912,1.079-1.271c-0.009-0.188-0.48-0.633-0.61-0.785
					c-4.158,3.563-3.636,11.6,0.39,14.995c3.975,3.353,9.828,1.812,14.199,0.021c4.859-1.99,8.916-4.922,12.31-8.903
					c1.052-1.235,1.96-2.596,2.994-3.847c1.735-2.098,1.698-4.911,0.654-7.344c-0.306,0.132-0.702,0.267-1.007,0.397"/>
			</g>
		</g>
		<g>
			<g>
				<path fill="#25242B" d="M363.227,320.941c-5.441,1.634-10.46,4.439-15.512,7.039c-5.502,2.829-11.205,5.721-15.496,10.227
					c-1.901,1.997-3.448,4.343-4.583,6.867c-1.574,3.504-2.501,7.358-2.228,11.139c0.312,4.295,1.314,8.507,0.996,12.826
					c-0.255,3.46-0.316,7.139-1.992,10.163c-2.29,4.134-6.073,7.394-9.698,10.397c-1.785,1.479-3.542,3.043-5.511,4.269
					c-0.884,0.55-2.194,0.346-3.11,0.842c-1.007,0.545-0.527,1.601-0.023,2.584c8.594-4.406,17.431-11.75,20.978-20.965
					c1.308-3.396,1.056-7.204,0.885-10.832c-0.208-4.388-1.575-8.757-1.445-13.16c0.19-6.452,4.162-11.512,8.878-15.659
					c7.498-6.595,17.266-10.545,26.696-13.604c6.31-2.047,12.72-3.835,19.302-4.667c3.086-0.392,6.163-0.634,9.274-0.636
					c1.416,0,2.869-0.744,4.281-0.653c0.697,0.044,1.33,0.184,2.025,0.251c0.123-0.11,0.155-0.783,0.174-0.964
					c-11.43-1.104-23.012,1.119-33.936,4.396"/>
			</g>
		</g>
		<g>
			<g>
				<path fill="#25242B" d="M307.954,343.125c0.146,6.705-0.525,13.469-1.443,20.102c-0.447,3.231-1.334,6.401-1.859,9.621
					c-0.262,1.607-0.15,3.353-0.553,4.935c-0.43,1.689-0.818,3.393-1.266,5.078c-0.529,1.995-2.167,4.722-1.72,6.825
					c0.516,2.421,3.417,3.967,5.577,4.484c2.729,0.655,5.918,0.46,8.572-0.487c-0.104-0.291-0.438-0.663-0.542-0.954
					c-0.033-0.09-1.184,0.624-1.399,0.668c-1.427,0.288-1.411-1.398-2.86-1.537c-2.459-0.235-8.714-0.672-6.958-8.359
					c0.4-1.753,0.887-3.485,1.328-5.229c1.17-4.626,1.267-9.6,1.933-14.317c0.977-6.908,2.063-13.858,1.908-20.845
					c-0.333,0.007-0.683,0.019-1.016,0.024"/>
			</g>
		</g>
		<g>
			<g>
				<path fill="#25242B" d="M305.956,310.284c-2.781,3.203-5.063,6.815-7.428,10.35c-2.243,3.354-4.626,6.739-5.664,10.627
					c-1.511,5.657-1.669,11.654-2.478,17.442c-0.372,2.667-0.685,5.356-0.679,8.059c0.003,1.702,0.326,3.347,1.449,4.7
					c1.133,1.371,2.77,2.132,4.344,2.871c1.269,0.596,2.57,1.125,3.83,1.737c0.826,0.401,1.363,1.365,2.174,1.799
					c0.813,0.434,1.323,0.72,1.813-0.148c0.143-0.254,0.348-0.549,0.491-0.803c-2.796-1.576-5.793-2.724-8.669-4.135
					c-1.369-0.672-2.453-1.684-3.135-3.122c-0.856-1.811-0.469-3.874-0.269-5.791c0.25-2.39-0.221-4.869,0.111-7.249
					c0.928-6.645,1.577-13.546,4.124-19.814c2.59-6.376,7.79-11.2,12.189-16.364c1.021-1.197,1.753-2.595,2.772-3.791
					c-0.123-0.102-0.568-0.516-0.594-0.485c-0.385,0.453-1.265,0.487-1.65,0.94c-0.907,1.063-1.875,2.072-2.782,3.138"/>
			</g>
		</g>
		<g>
			<g>
				<path fill="#25242B" d="M289.635,322.48c2.599,1.802,5.114,3.814,7.851,5.396c0.154-0.267,0.268-0.597,0.422-0.863
					c0.059-0.101-1.38-0.911-1.586-1.047c-0.992-0.653-1.908-1.417-2.885-2.094c-1.083-0.751-2.172-1.514-3.256-2.265
					c-0.18,0.279-0.406,0.585-0.586,0.864"/>
			</g>
		</g>
		<g>
			<g>
				<path fill="#25242B" d="M194.931,268.986c0.029,4.34,0.658,9.218,3.79,12.488c2.407,2.517,6.013,3.523,9.04,5.125
					c3.675,1.941,7.048,4.225,10.346,6.791c2.315,1.803,4.616,3.629,6.591,5.799c1.053,1.158,1.827,2.543,2.793,3.775
					c0.507,0.646,1.061,1.287,1.546,1.95c0.182,0.009,0.756-0.593,0.913-0.708c-3.57-4.874-7.726-9.285-12.643-12.824
					c-3.074-2.212-6.293-4.097-9.63-5.859c-3.06-1.619-6.785-2.741-8.987-5.537c-1.154-1.467-1.715-3.372-2.1-5.188
					c-0.253-1.193-0.133-2.439-0.206-3.656c-0.043-0.725-0.035-1.47-0.04-2.193c-0.131-0.112-1.157,0.033-1.345,0.035"/>
			</g>
		</g>
		<g>
			<g>
				<path fill="#25242B" d="M218.741,298.823c1.471,2.225,3.37,4.131,5.252,6.005c0.973,0.969,2.041,1.846,2.976,2.851
					c0.136,0.146,0.895,1.203,0.992,1.12c0.234-0.201,0.528-0.373,0.763-0.574c-1.771-2.068-3.789-3.91-5.67-5.875
					c-0.898-0.938-1.739-1.928-2.526-2.963c-0.118-0.154-0.899-1.24-1.002-1.172c-0.258,0.17-0.413,0.372-0.671,0.542"/>
			</g>
		</g>
		<g>
			<g>
				<path fill="#25242B" d="M222.383,308.413c1.528,0.911,3.09,1.769,4.584,2.734c0.788,0.51,1.559,1.047,2.322,1.593
					c0.169-0.041,0.507-0.701,0.616-0.854c-2.233-1.596-4.607-3.016-6.965-4.42c-0.17,0.286-0.376,0.637-0.547,0.923"/>
			</g>
		</g>
		<g>
			<g>
				<path fill="#25242B" d="M271.241,314.873c-5.984,0.891-11.221,4.028-16.769,6.249c-2.505,1.003-5.089,2.013-7.761,2.433
					c-1.424,0.226-2.91-0.361-4.351-0.378c-0.255-0.002-2.453,0.216-2.462,0.323c-0.027,0.307,0.283,1.059,0.256,1.366
					c5.287,0.462,10.368-1.347,15.228-3.338c4.976-2.041,9.802-4.02,15.144-4.983c-0.508,1.414-1.077,2.427-1.833,3.73
					c-0.429,0.738-0.407,0.851,0.169,1.459c0.324,0.342,1.396-0.193,1.789-0.411c2.557-1.414,5.328-2.452,8.221-2.665
					c3.086-0.229,6.232,0.148,9.22,0.979c1.415,0.396,2.611,1.229,3.891,1.957c0.541,0.309,1.021,0.603,1.507,0.987
					c0.402,0.317,0.734-0.449,1.023-0.796c-3.143-2.632-7.423-3.715-11.421-3.987c-4.325-0.293-9.064-0.188-12.94,1.872
					c0.733-1.657,1.627-2.983,2.239-4.691c-0.27,0.026-0.892-0.217-1.161-0.188"/>
			</g>
		</g>
		<g>
			<g>
				<path fill="#25242B" d="M182.53,264.378c-1.148,0.72-2.222,1.298-3.37,2.017c1.482,0.155,2.724,0.599,4.153,1.041
					c-2.749,0.938-5.41,2.254-7.719,4.021c0.148,0.196,0.15,0.435,0.301,0.63c0.313,0.408,1.093-0.38,1.446-0.62
					c1.171-0.794,2.432-1.112,3.716-1.705c1.821-0.841,3.932-1.708,5.856-2.243c-1.594-0.498-2.754-1.176-4.361-1.619
					c2.072-1.301,3.426-2.256,5.732-3.115c1.162-0.434,2.618-0.729,3.862-0.623c0.198,0.017,1.26-0.193,1.284-0.275
					c0.09-0.295,0.124-0.744,0.214-1.039c-4.049-1.231-7.887,1.379-11.148,3.483"/>
			</g>
		</g>
		<g>
			<g>
				<path fill="#25242B" d="M169.633,314.977c0.172,0.349,0.626,0.749,0.798,1.098c0.48-0.587,0.938-1.35,1.42-1.937
					c0.569,4.812,0.881,9.807,2.953,14.256c0.396-0.185,0.856-0.395,1.252-0.578c0.281-0.132-0.937-2.323-1.077-2.775
					c-0.736-2.368-1-4.88-1.306-7.336c-0.302-2.418-0.185-5.054-0.473-7.472c-0.705,0.877-1.932,2.078-2.641,2.953
					c-2.742-6.668-2.877-14.838-1.723-21.863c0.531-3.227,1.81-6.34,3.365-9.233c0.698-1.298,1.265-2.731,2.313-3.774
					c0.406-0.401,1.041-0.396,0.637-0.887c-0.236-0.285-0.294-0.32-0.529-0.607c-5.109,4.207-6.435,11.717-6.986,17.953
					c-0.578,6.543-0.482,13.958,2.481,19.966"/>
			</g>
		</g>
		<g>
			<g>
				<path fill="#25242B" d="M180.693,344.688c0.307,0.722,0.32,1.316,0.627,2.037c0.191-1.61,0.521-2.7,0.997-4.258
					c2.789,5.31,6.353,10.369,10.677,14.561c0.536-1.025,1.146-2.113,1.683-3.14c2.828,4.757,5.637,10.529,9.936,14.114
					c0.214-0.257,0.695-0.658,0.91-0.915c0.267-0.321-0.097-0.666-0.359-0.914c-0.711-0.673-1.361-1.377-1.982-2.131
					c-1.523-1.847-2.929-3.772-4.248-5.769c-1.505-2.276-2.893-4.771-4.252-7.137c-0.621,1.188-1.54,2.844-2.163,4.032
					c-4.395-4.59-7.407-10.612-10.185-16.286c-0.346,1.134-0.57,2.211-0.964,3.329c-0.834-2.661-1.665-5.292-1.757-8.072
					c-0.043-1.337,0.057-2.69,0.102-4.026c0.026-0.769-0.541-0.53-1.218-0.558c-0.195,5.077,0.304,10.333,2.321,15.078"/>
			</g>
		</g>
		<g>
			<g>
				<path fill="#25242B" d="M272.934,350.746c-0.736,0.421-1.36,0.168-2.097,0.589c0.913,0.143,1.405,0.417,2.316,0.575
					c-1.095,3.039-4.357,5.18-7.051,6.652c-2.392,1.308-4.781,2.263-7.417,2.893c0.828,0.591,1.705,1.136,2.534,1.727
					c-1.722,0.751-3.699,1.147-5.555,1.478c-2.186,0.388-4.136,0.771-6.278,1.521c-2.196,0.769-4.631,0.92-6.771,1.82
					c-2.443,1.028-4.63,2.252-7.28,2.236c-4.891-0.03-9.494-1.973-14.191-3.16c-2.434-0.615-5.064-0.021-7.566-0.248
					c-0.287-0.026-0.729-0.895-0.842-0.562c-0.178,0.514-0.637,1.037-0.818,1.549c-3.148-1.612-6.449-2.993-9.549-4.701
					c-1.664-0.917-2.99-2.403-4.404-3.688c-0.131-0.119-1.238-0.683-1.233-0.685c-0.435,0.211-0.554,0.105-0.989,0.316
					c0.711,1.467,1.431,3.194,2.749,4.059c2.258,1.479,5.007,2.247,7.421,3.443c2.264,1.122,4.571,2.184,6.822,3.332
					c0.159-0.382-0.355-1.083-0.221-1.475c0.106-0.306,1.094-0.308,1.199-0.613c0.088-0.257,1.07,0.138,1.339,0.175
					c2.92,0.409,5.929,0.49,8.777,1.23c5.268,1.368,10.899,3.282,16.326,1.996c2.534-0.602,4.583-2.436,6.943-3.497
					c1.224-0.551,2.897,0.147,4.198-0.189c1.355-0.351,2.457-1.521,3.83-1.683c3.111-0.366,5.955-1.284,8.73-2.674
					c-0.656-0.468-1.303-1.065-1.957-1.534c5.297-1.75,12.361-4.909,13.47-10.872c-0.077-0.008-0.443-0.019-0.521-0.027
					c5.238-2.997,10.372-6.187,15.126-9.924c-0.229-0.291-0.953-0.059-1.183-0.35c-0.45-0.572-0.736-0.711-1.219-0.35
					c-1.577,1.187-2.818,2.819-4.475,3.892c-3.408,2.205-6.82,4.423-10.344,6.436"/>
			</g>
		</g>
		<g>
			<g>
				<path fill="#25242B" d="M239.976,303.87c-0.783-0.377-1.581-0.742-2.364-1.119c-0.394,0.996-0.409,0.856,0.546,1.317
					c0.898,0.435,1.787,0.888,2.689,1.311c3.083,1.443,5.34,0.311,7.047-2.529c-0.883-0.531-0.798-0.637-1.432,0.258
					c-0.519,0.731-1.066,1.578-1.912,1.936c-1.555,0.654-3.27-0.398-4.607-1.105"/>
			</g>
		</g>
		<g>
			<g>
				<path fill="#25242B" d="M232.761,314.128c1.372,3.127,6.259,3.21,9.092,3.144c-0.016-0.676,0.214-1.006-0.544-1
					c-1.179,0.009-2.351-0.17-3.514-0.369c-1.42-0.245-3.129-0.681-3.875-2.045c-0.774-1.416-0.052-3.104,0.688-4.366
					c0.613-1.049,1.353-2.015,2.162-2.917c0.774-0.864,0.753-0.764-0.017-1.508c-2.021,2.095-5.262,5.78-3.85,9"/>
			</g>
		</g>
		<g>
			<g>
				<path fill="#25242B" d="M246.772,308.244c-1.516,1.727-3.088,3.396-5.566,3.157c-1.064-0.103-0.803-0.53-1.234-1.378
					c-0.285-0.561-0.699-1.051-1.098-1.532c-0.135-0.164-1.012-1.389-1.059-1.369c-0.283,0.12-0.65,0.27-0.935,0.389
					c0.368,0.879,1.145,1.557,1.704,2.311c0.308,0.413,0.767,2.222,1.04,2.292c1.967,0.513,3.868,0.351,5.546-0.877
					c1.086-0.794,1.959-1.806,2.882-2.771c0.418-0.437,0.896-0.813,1.313-1.251c0.19-0.199-0.498-0.759-0.658-0.94
					c-0.635,0.66-1.321,1.29-1.956,1.95"/>
			</g>
		</g>
		<g>
			<g>
				<path fill="#25242B" d="M230.12,257.993c0.468,2.165,0.736,4.386,0.676,6.601c-0.025,0.94-0.117,1.883-0.266,2.812
					c-0.109,0.68,0.277,0.504,0.884,0.616c0.625-3.373,0.475-6.92-0.247-10.26c-0.325,0.07-0.674,0.153-0.998,0.225"/>
			</g>
		</g>
		<g>
			<g>
				<path fill="#25242B" d="M267.104,241.573c0.063,1.426,0.275,2.856,0.271,4.284c-0.004,1.187-0.17,2.371-0.465,3.521
					c-0.053,0.202-0.521,1.479-0.42,1.517c0.288,0.109,0.582,0.201,0.869,0.312c0.91-2.388,1.013-4.836,0.852-7.358
					c-0.041-0.642-0.006-1.287-0.035-1.929c-0.026-0.578-0.511-0.331-1.032-0.331"/>
			</g>
		</g>
		<g>
			<g>
				<path fill="#25242B" d="M221.784,268.654c0.245-0.188,0.443-0.404,0.688-0.592c0.068-0.053-0.808-1.412-0.925-1.627
					c-0.705-1.295-1.226-2.697-1.498-4.148c-0.255-1.354-0.271-2.771,0.092-4.111c0.15-0.556,0.27-1.131,0.582-1.615
					c-0.034-0.151-0.623-0.414-0.77-0.509c-2.442,3.779-0.709,9.345,1.795,12.632"/>
			</g>
		</g>
		<g>
			<g>
				<path fill="#25242B" d="M226.161,259.846c-0.05,0.329-0.107,0.682-0.157,1.01c1.696,0.256,3.524-0.174,5.066-0.887
					c-0.435-0.943-0.276-0.908-1.313-0.56c-1.14,0.383-2.397,0.621-3.597,0.44"/>
			</g>
		</g>
		<g>
			<g>
				<path fill="#25242B" d="M525.335,255.243c4.153,12.85,3.695,26.948,3.373,40.253c-0.176,7.277-0.385,14.566,0.229,21.826
					c0.64,7.559,2.56,14.86,4.35,22.228c0.383-0.093,0.175-0.269,0.557-0.36c0.116-0.028,0.174-2.269,0.104-2.567
					c-0.457-1.999-1.65-3.836-2.034-5.853c-0.699-3.67-1.456-7.358-1.843-11.075c-0.779-7.487-0.521-15.06-0.363-22.577
					c0.289-13.98,1.896-28.988-2.473-42.501c-0.396,0.128-0.914,0.319-1.312,0.446"/>
			</g>
		</g>
		<g>
			<g>
				<path fill="#25242B" d="M526.236,254.064c0.016,0.687-0.232,0.981,0.535,0.982c1.32,0.003,2.651,0.034,3.955,0.243
					c2.549,0.409,5.027,1.062,7.597,1.338c0.076-0.698,0.376-0.95-0.409-1.05c-1.385-0.176-2.772-0.324-4.14-0.598
					c-2.494-0.496-4.993-1.057-7.549-0.996"/>
			</g>
		</g>
		<g>
			<g>
				<path fill="#25242B" d="M601.964,259.274c-9.288-1.16-19.67-2.335-28.76-3.259c-12.822-1.307-25.36-3.531-37.804,0.967
					l0.051,0.187c0.126,0.349,1.132,0.867,1.258,1.216c0.254,0.702,0.151-0.308,0.733-0.496c2.094-0.678,4.321-1.224,6.487-1.598
					c3.988-0.689,8.176-0.941,12.215-0.796c5.873,0.211,13.004,1.935,18.847,2.53c9.505,0.97,17.996,2.242,27.158,3.586
					C601.927,260.859,601.865,260.057,601.964,259.274z"/>
			</g>
		</g>
		<g>
			<g>
				<path fill="#25242B" d="M537.744,255.438c4.242,14.104,4.15,28.65,4.458,43.234c0.076,3.614,0.578,7.219,0.653,10.833
					c0.177,8.4,2.325,16.538,3.506,24.805c0.295,2.067,0.142,4.134,0.195,6.223c0.027,1.069,0.381,2.143,0.327,3.212
					c0.146,0.123,0.406-0.022,0.607-0.013c0.429-8.632-0.979-16.952-2.534-25.35c-0.92-4.966-1.465-9.752-1.57-14.771
					c-0.267-12.691-0.18-25.469-2.494-38.002c-0.645-3.5-1.197-7.064-2.224-10.474c-0.319,0.097-0.481,0.177-0.801,0.272"/>
			</g>
		</g>
		<g>
			<g>
				<path fill="#25242B" d="M601.054,341.757c-5.332-1.135-10.666-2.264-15.989-3.441c-6.537-1.446-12.837-3.973-19.369-5.441
					c-3.582-0.807-7.043-2.154-10.627-2.96c-1.13-0.255-2.384,0.051-3.515-0.203c-0.948-0.214,0.052,0.283-0.196,1.344l-1.048,0.262
					c17.147,3.857,33.244,7.229,50.375,11.164c0.122,0.028,0.249,0.061,0.372,0.089
					C601.036,342.299,601.036,342.027,601.054,341.757z"/>
			</g>
		</g>
		<g>
			<g>
				<path fill="#25242B" d="M617.306,370.077c-0.243-0.062-0.487-0.127-0.732-0.174c-3.064-0.582-6.229-1.331-9.362-0.984
					l0.061,0.562c-8.638,0.952-16.695,4.669-24.673,7.896c-1.058-6.969-9.583-8.954-15.257-7.353
					c-3.922,1.104-7.578,3.063-11.75,2.237c-2.137-0.423-4.313-1.238-6.322-2.093c-0.381,1.105-0.438,0.741,0.631,1.196
					c1.191,0.507,2.305,1.199,3.507,1.679c4.41,1.76,8.776,0.897,13.051-0.479c3.648-1.177,7.529-2.5,11.061-0.678
					c2.812,1.451,3.724,4.625,3.862,7.699c4.112-1.662,8.331-3.665,12.454-5.298c4.36-1.729,8.82-3.662,13.506-4.18
					c3.394-0.374,6.745,0.841,10.098,1.681C617.31,371.231,617.264,370.651,617.306,370.077z"/>
			</g>
		</g>
		<g>
			<g>
				<path fill="#25242B" d="M621.927,416.671c-14.516,3.596-28.85,9.133-43.902,8.256c-8.854-0.516-17.54-2.114-26.415-2.382
					c-4.517-0.136-8.953-2.127-13.474-2.234c-4.532-0.107-8.979-0.443-13.489-0.887c-6.982-0.687-14.093,0.193-21.104-0.165
					c-6.357-0.324-12.6-1.324-18.914-2.257c-5.479-0.809-10.466-3.085-15.657-5.026c-2.655-0.991-5.265-1.813-7.801-3.077
					c-1.313-0.656-3.047-0.474-4.329-1.189c-0.661-0.37-0.303-0.292-0.629,0.286l-0.885,1.486
					c6.186,3.492,12.816,6.782,19.693,8.594c7.304,1.924,15.156,1.41,22.693,1.615c8.957,0.242,17.903,0.35,26.814,1.225
					c4.549,0.446,8.981,2.932,13.554,3.039c4.565,0.107,9.13-1.089,13.691-0.94c6.979,0.229,13.816,1.644,20.743,2.423
					c7.174,0.808,14.426,0.846,21.571-0.183c6.903-0.992,13.354-4.239,20.119-5.898c2.598-0.638,5.479-0.033,8.235,0.025
					C622.046,418.548,621.874,417.604,621.927,416.671z"/>
			</g>
		</g>
		<g>
			<g>
				<path fill="#25242B" d="M321.288,374.55c3.654,5.646,9.539,9.041,15.564,11.079c6.015,2.034,11.967,3.554,17.473,6.697
					c4.552,2.599,8.815,5.508,13.86,7.07c3.574,1.106,7.107,2.577,10.784,3.245c3.636,0.661,7.337,0.568,10.761,1.98
					c2.758,1.139,5.033,3.628,7.868,4.567c3.132,1.037,6.604,1.313,9.882,1.62c6.625,0.62,13.385-0.527,19.993,0.316
					c13.057,1.668,26.151,2.601,39.298,1.377c-0.034-0.369-0.908-0.177-0.942-0.545c-0.07-0.756-0.105,0.566-0.719,0.615
					c-2.367,0.187-4.841-1.749-7.216-1.697c-4.463,0.097-8.858,0.345-13.313,0.059c-8.651-0.554-17.303-0.403-25.963-0.749
					c-4.344-0.173-8.696-0.906-13.015-1.453c-4.257-0.54-8.217-1.978-12.162-3.623c-3.924-1.64-7.721-4.045-11.932-4.812
					c-1.277,0-2.688-0.504-3.936-0.735c-1.914-0.358-3.792-0.739-5.684-1.204c-4.867-1.196-9.566-2.461-13.907-4.938
					c-4.223-2.409-8.131-5.475-12.533-7.545c-4.182-1.967-8.789-2.792-13.088-4.456c-2.535-0.98-4.966-2.24-7.114-3.928
					c-1.039-0.815-1.548-2.028-2.334-3.092c-0.339-0.459-1.354-1.22-1.846-0.901c-0.311,0.201,0.04,1.175-0.271,1.376"/>
			</g>
		</g>
		<g>
			<g>
				<path fill="#25242B" d="M372.068,325.01c-5.577,0.419-11.133,1.225-16.719,1.504c-2.722,0.138-5.454,0.178-8.18,0.231
					c-1.449,0.03-2.903-0.492-4.353-0.493c-1.173-0.001-1.126,0.925-1.133,1.993c18.203,0.115,36.355-2.062,54.537-2.514
					c12.648-0.315,25.446-1.135,37.972,0.649c5.648,0.805,11.387,1.673,16.922,3.067c2.728,0.688,5.425,1.696,8.09,2.599
					c1.288,0.437,2.068,2.24,3.332,2.739c0.617,0.244,1.633-0.65,2.244-0.39c0.146-0.063,0.194-0.31,0.266-0.473
					c-12.734-5.453-26.791-8.305-40.492-9.655c-13.846-1.365-27.699-0.465-41.583,0.434c-3.625,0.232-7.329-0.621-10.95-0.351"/>
			</g>
		</g>
		<g>
			<g>
				<path fill="#25242B" d="M398.874,323.434c7.503,2.341,14.262,6.911,21.959,8.664c3.824,0.871,7.854,0.813,11.71,1.528
					c6.233,1.159,11.991,3.471,17.861,5.842c6.681,2.698,13.761,5.115,21.036,5.557c0.02-0.334,0.518-0.346,0.537-0.68
					c0.029-0.484-1.83-0.232-2.271-0.288c-1.873-0.23-3.728-0.707-5.551-1.188c-3.777-0.997-7.566-2.088-11.193-3.527
					c-6.036-2.396-11.844-4.719-18.248-5.984c-4.182-0.826-8.274-2.141-12.467-2.914c-8.057-1.488-15.41-5.191-23.18-7.613
					c-0.124,0.396-0.29,0.85-0.414,1.247"/>
			</g>
		</g>
		<g>
			<g>
				<path fill="#25242B" d="M461.279,345.707c0.21,0.333,0.719,0.071,0.929,0.404c0.052,0.082,1.6-0.648,1.867-0.796
					c1.521-0.834,3.078-1.558,4.756-2.019c2.016-0.555,3.771-0.173,5.631,0.894c4.012,2.3,5.326,7.624,10.064,8.982
					c11.67,3.349,23.559,6.055,35.514,8.242c5.113,0.936,10.097,1.271,15.29,1.303c3.811,0.023,7.538,1.272,11.318,1.817
					c3.263,0.47,6.688,0.534,9.392,2.464c1.509,1.077,2.521,2.706,3.638,4.184c0.595,0.786,1.52,1.357,2.01,2.212
					c0.362,0.631,1.136-0.041,1.698-0.354c-3.18-5.742-8.77-9.459-15.209-10.643c-6.979-1.283-13.962-0.269-20.998-0.93
					c-13.533-1.271-26.858-5.998-39.868-9.729c-2.064-0.593-4.406-0.34-5.962-1.982c-1.729-1.83-2.328-4.719-4.224-6.401
					c-4.771-4.233-11.233-0.476-15.819,2.411"/>
			</g>
		</g>
		<g>
			<g>
				<path fill="#25242B" d="M482.089,403.168c16.064,3.046,32.395,6.865,48.808,4.405c-0.105-0.701,0.094-1.123-0.701-1.011
					c-1.439,0.204-2.844,0.729-4.292,0.847c-2.663,0.213-5.352,0.35-8.022,0.292c-5.297-0.113-10.583-0.801-15.813-1.622
					c-6.644-1.042-13.241-2.346-19.848-3.598c-0.06,0.327,0.178,0.542,0.117,0.869"/>
			</g>
		</g>
		<g>
			<g>
				<path fill="#25242B" d="M570.604,376.854c-3.432,1.438-5.739,4.643-7.573,7.702c-1.107,1.849-1.962,3.856-3.139,5.663
					c-0.512,0.787-1.219,1.446-1.823,2.166c-0.437,0.52-0.131,0.442,0.323,0.85c4.187-4.688,5.946-12.024,11.777-15.123
					c0.953,6.319-2.178,12.934-5.09,18.318c-1.646,3.043-3.487,6.003-5.429,8.865c-0.908,1.338-1.935,2.599-2.898,3.896
					c-0.398,0.535-0.712,1.143-1.121,1.671c-0.328,0.422-0.017,0.379,0.353,0.666c3.549-4.541,6.752-9.375,9.527-14.424
					c3.343-6.077,7.078-13.566,5.457-20.688c-0.175,0.073-0.369-0.051-0.525,0.054"/>
			</g>
		</g>
		<g>
			<g>
				<path fill="#25242B" d="M443.498,397.414c-0.52,1.669-1.205,3.734-0.495,5.433c0.692,1.66,2.576,2.211,4.195,2.531
					c1.334,0.264,2.715,0.27,4.061,0.473c0.5,0.075,0.972,0.346,1.472,0.421c0.247,0.037,0.299-0.95,0.338-1.172
					c-1.901-0.287-3.848-0.5-5.73-0.882c-1.109-0.226-2.447-0.447-3.1-1.476c-0.841-1.318-0.383-3.191,0.006-4.569
					c6.637,2.449,11.717,7.681,17.631,11.368c0.104-0.164,0.6-0.735,0.576-0.913c-0.977-0.608-2.007-1.149-2.942-1.817
					c-1.795-1.28-3.416-2.803-5.2-4.097c-3.313-2.401-6.845-4.474-10.748-5.778c-0.047,0.151-0.192,0.28-0.197,0.438"/>
			</g>
		</g>
		<g>
			<g>
				<path fill="#25242B" d="M350.504,383.15c0.17-0.021,0.839,0.034,0.932-0.085c-0.086-0.707-0.099-1.438-0.152-2.147
					c-0.114-1.499-0.089-2.975-0.05-4.479c0.073-2.78-0.119-5.613,0.523-8.32c1.262-5.319,4.015-10.167,7.321-14.516
					c7.732-10.164,19.504-16.392,31.563-19.869c0.178-0.053,0.943-0.234,0.907-0.368c-0.081-0.298,0.151-0.83,0.07-1.128
					c-12.231,3.337-24.606,9.175-32.786,19.131c-7.207,8.771-10.313,20.269-9.028,31.503c0.014,0.119,0.204,0.218,0.218,0.337"/>
			</g>
		</g>
		<g>
			<g>
				<path fill="#25242B" d="M306.009,308.288c0.292,0.228,2.748,0.563,3.041,0.791c0.557,0.434-0.207,0.422,0.169-0.038
					c1.191-1.458,3.804-1.543,5.141-2.869c2.405-2.387,3.252-6.707,6.097-8.548c5.403-3.495,12.375-3.713,18.66-5.036
					c13.225-2.783,29.438-2.628,42.719-0.962c15.683,1.967,29.055,2.597,44.375,6.513c11.716,2.995,22.377,9.906,33.984,13.288
					c16.854,4.908,32.42,12.85,48.582,19.538c6.533,2.704,13.054,5.863,19.863,7.76c6.723,1.872,14.657,1.027,20.727,4.605
					c4.412,2.602,7.361,7.295,11.269,10.568c4.037,3.384,8.966,4.546,13.968,6.301c4.587,1.607,9.275,2.922,13.822,4.645
					c2.08,0.789,3.293,3.328,5.137,4.581c0.27,0.185,3.472,1.679,3.476,1.675c0.328-0.354,1.34-2.27,1.668-2.623
					c-5.822-5.402-14.473-7.328-21.774-9.646c-3.943-1.25-8.336-0.842-11.652-3.328c-3.354-2.515-5.776-6.2-9.033-8.832
					c-3.178-2.568-6.983-4.221-10.741-5.851c-3.673-1.594-7.628-2.297-11.478-3.372c-5.375-1.502-10.697-3.189-15.952-5.09
					c-16.895-6.107-33.073-13.778-50-19.805c-4.72-1.68-8.695-5.603-13.502-7.001c-6.669-1.941-13.265-4.224-19.963-6.063
					c-15.402-4.227-31.106-7.922-46.938-10.077c-12.976-1.767-26.292-0.42-39.407,0.64c-7.582,0.612-15.628,0.162-22.544,3.396
					c-7.359,3.441-13.461,9.398-18.443,15.799"/>
			</g>
		</g>
		<g>
			<g>
				<path fill="#25242B" d="M311.979,316.165c2.027,1.499,4.29,3.11,4.667,5.75c0.37,2.599-1.851,4.028-3.438,5.686
					c-4.472,4.664,0.278,10.905,3.165,14.873c1.809,2.485,4.422,4.73,5.447,7.666c0.979,2.806-0.199,5.947,0.548,8.795
					c0.735,2.803,2.709,5.208,4.722,7.142c0.979,0.938,2.295,1.545,3.055,2.675c0.132,0.194,0.925,1.729,0.991,1.702
					c0.285-0.117,0.961-0.525,1.246-0.644c-1.288-3.122-4.518-4.984-6.666-7.452c-1.1-1.264-2.326-2.576-2.631-4.247
					c-0.348-1.911-0.389-3.86-0.561-5.786c-0.675-7.574-8.215-12.146-9.988-19.307c-0.801-3.231,1.442-4.621,3.363-6.717
					c2.099-2.289,1.643-5.591-0.15-7.987c-1.559-2.079-4.514-2.787-6.045-4.853c-0.676-0.912-0.289-2.259-0.133-3.374
					c0.123-0.882,0.063-1.807,0.422-2.618c-0.087-0.164-0.719-0.359-0.9-0.439c-0.801,1.807-1.652,4.246-0.743,6.121
					c0.678,1.396,2.58,1.895,3.795,2.792"/>
			</g>
		</g>
		<g>
			<g>
				<path fill="#25242B" d="M361.609,309.245c0.025,0.196-0.045,2.166,0.089,2.295c1.026-0.135,1.977-2.639,3.008-2.738
					c2.217-0.216,4.506,0.162,6.731,0.109c4.263-0.102,8.638-0.493,12.869,0.018c8.881,1.07,16.959,4.8,25.357,7.744
					c15.615,5.478,32.397,6.58,47.588,13.385c3.626,1.624,6.873,2.584,10.271,4.604c3.369,2.001,7.506,3.759,11.172,5.139
					c7.354,2.769,14.801,4.812,22.533,6.085c14.342,2.364,27.627,4.061,41.364,9.107c5.082,1.867,10.64,4.869,15.187,7.813
					c2.332,1.511,5.349,1.977,7.474,3.767c1.109,0.935,3.073,0.983,4.12,1.985c0.178,0.17,0.054,1.985,0.144,1.896
					c0.22-0.218,1.775-0.918,1.995-1.135c-10.693-10.839-25.555-15.316-40.248-18.655c-14.705-3.342-29.645-5.214-44.233-9.103
					c-7.568-2.018-14.033-6.136-20.557-10.518c-6.657-4.473-15.297-5.677-23.024-7.59c-8.217-2.033-16.46-3.868-24.665-5.949
					c-8.601-2.182-16.502-6.835-25.188-8.747c-10.401-2.291-21.534-1.701-32.097-0.316"/>
			</g>
		</g>
		<g>
			<g>
				<path fill="#25242B" d="M306.006,312.66c1.013,0.113,1.091,0.211,1.271-0.813c0.191-1.1,0.254-2.252,0.639-3.299
					c0.84-2.276,2.164-4.382,3.545-6.372c1.626-2.343,3.529-4.496,5.553-6.502c1.182-1.172,2.553-2.131,3.826-3.203
					c0.193-0.164,1.469-1.365,1.391-1.463c-0.191-0.242-0.306-0.513-0.497-0.755c-6.939,5.503-14.537,13.165-15.576,22.417"/>
			</g>
		</g>
		<g>
			<g>
				<path fill="#25242B" d="M382.311,273.366c-0.969,0.353-1.918,0.78-2.929,0.993c-0.723,0.152-0.407,0.306-0.295,0.963
					c0.578-0.102,0.493,0.259,0.992,0.529c0.506,0.274,1.108,0.277,1.678,0.295c2.22,0.063,4.341-0.812,6.327-1.685
					c-1.7-2.144-3.359-1.919-5.756-1.046 M382.666,274.341c1.15-0.419,2.686-1.049,3.799-0.213c-1.521,0.606-4.199,1.716-5.854,0.89
					c0.677-0.193,1.394-0.432,2.056-0.672"/>
			</g>
		</g>
	</g>
	<g>
		<g>
			<path fill="#25242B" d="M192.568,259.104c0.071,0.75,0.121,1.502,0.198,2.25c0.119,1.026,0.256,2.058,0.249,3.092
				c-0.006,0.76,0.289,0.535,0.975,0.57c0.079-1.539-0.166-3.072-0.313-4.602c-0.117-1.225,0.121-1.333-1.123-1.266"/>
		</g>
	</g>
</g>
<g>
	<path fill="#ECAF8B" d="M238.842,244.43c-14.036-2.986-43.302-8.361-52.56-9.557c-9.258-1.195-15.826,1.195-17.021,3.584
		c-1.195,2.389,0,5.973,0,8.66s-6.869,0.597-6.57,8.361c0.299,7.764,0.597,8.66-2.091,11.349s0.599,5.075-0.298,6.868
		c-0.897,1.791-5.375,3.582-2.986,11.348s6.271,11.051,7.764,11.646c1.493,0.597,2.39,1.494,2.39,1.494l1.493-8.063
		c0,0-0.896,1.194,10.153-2.39c11.049-3.584,12.542-8.66,12.841-10.153s0.299-3.583,0.299-3.583s5.974,3.583,18.516,0.896
		c12.542-2.688,11.348-5.973,11.348-7.765s0.299-3.285,0.299-3.285s2.389,0.3,9.854-1.194c7.465-1.492,9.557-5.375,9.258-6.271
		c-0.299-0.896-2.09-3.584-2.09-3.584s5.673-1.792,3.284-5.974C240.336,242.639,238.842,244.43,238.842,244.43z"/>
	<path fill="#F3D6C3" d="M192.554,274.591c-20.967,1.405,4.336,12.118,0.598,0.896"/>
	<path fill="#F3D6C3" d="M222.118,263.542c-1.518,0.062-17.688-2.244-11.354,4.776c3.593,3.982,11.611,0.984,11.652-3.881"/>
	<path fill="#F3D6C3" d="M240.634,253.984c-3.702-0.193-13.022-4.125-13.408,1.517c3.074,2.339,19.482,7.528,12.512-1.217"/>
	<path fill="#F3D6C3" d="M241.23,245.025c-3.444-0.686-7.185-0.754-9.801,1.852c-0.081,0.174-0.105,0.355-0.075,0.547
		c3.128,2.783,11.222,7.41,11.668-0.307"/>
	<g>
		<g>
			<path d="M177.59,234.346c22.181,2.021,44.058,6.631,65.794,11.329c0.095-0.438,0.446-0.383,0.54-0.819
				c0.063-0.293-2.927-0.149-3.314-0.232c-2.94-0.635-5.729-1.977-8.671-2.6c-5.759-1.219-11.628-1.873-17.41-2.974
				c-12.22-2.321-24.47-4.147-36.862-5.276c-0.046,0.498-0.06,0.4-0.104,0.898"/>
		</g>
	</g>
	<g>
		<g>
			<path d="M195.368,248.48c-2.752,0.261-5.471,0.566-8.237,0.595c-1.335,0.014-2.666,0.301-3.998,0.209
				c-1.026-0.072-2.524-0.468-2.298,1.08c10.207,1.188,20.346-1.39,30.58-0.166c10.732,1.282,21.45,3.341,32.28,3.673
				c0.502-1.604-1.642-0.739-2.677-0.811c-2.283-0.156-4.559-0.563-6.83-0.845c-4.568-0.565-9.125-1.252-13.676-1.94
				c-8.501-1.284-16.568-2.694-25.152-1.885"/>
		</g>
	</g>
	<g>
		<g>
			<path d="M237.666,252.943c1.257,1.176,3.295,3.054,2.529,4.994c-0.651,1.649-2.647,2.51-4.188,3.008
				c-2.392,0.772-4.936,1.019-7.433,1.242c-1.37,0.125-4.996-0.416-4.398,1.662c6.307,0,24.688-2.615,14.571-12.07
				c-0.258,0.275-0.878,0.781-1.053,1.113"/>
		</g>
	</g>
	<g>
		<g>
			<path d="M183.081,261.482c-2.543,0.81-5.038,1.809-7.657,2.34c-1.26,0.255-5.444-0.148-4.951,1.529
				c4.459-0.088,8.806-1.244,13.018-2.584c1.895-0.602,3.735-1.375,5.665-1.863c1.127-0.285,4.449-0.161,3.741-1.809
				c-3.338,0.465-6.636,1.303-9.837,2.32"/>
		</g>
	</g>
	<g>
		<g>
			<path d="M184.9,261.248c12.317,1.215,24.623,2.286,37.016,2.286c0.462-1.734-2.092-0.929-3.178-0.952
				c-2.495-0.053-4.973-0.266-7.464-0.417c-4.563-0.276-9.16-0.112-13.709-0.563c-4.194-0.418-8.365-1.067-12.56-1.481
				c-0.028,0.303-0.4,0.752-0.336,1.045"/>
		</g>
	</g>
	<g>
		<g>
			<path d="M221.36,263.184c1.523,7.452-5.963,9.906-11.971,10.658c-3.188,0.399-6.401,0.957-9.604,0.766
				c-1.336-0.08-2.633-0.635-3.961-0.797c-1.121-0.139-2.092-0.629-1.893,0.965c8.733,1.36,31.205,2.731,28.246-11.754
				c-0.368,0.074-0.854,0.055-1.187,0.226"/>
		</g>
	</g>
	<g>
		<g>
			<path d="M178.167,275.997c-5.577,0.839-11.045,2.008-16.473,3.58c0.031,1.841,3.994-0.007,5.219-0.269
				c2.762-0.59,5.524-1.129,8.314-1.562c5.725-0.888,11.463-1.772,17.096-3.16c0.046-1.847-3.855,0.158-5.063,0.386
				c-2.992,0.564-6.018,1.004-9.028,1.456"/>
		</g>
	</g>
	<g>
		<g>
			<path d="M191.274,273.902c5.297,12.517-18.113,13.714-24.854,16.562c0.169,1.419,0.807,0.976,1.82,0.647
				c1.788-0.577,3.594-1.163,5.419-1.606c3.133-0.762,6.4-1.09,9.445-2.161c6.097-2.147,12.393-6.48,9.257-13.893
				c-0.348,0.146-0.655,0.165-0.95,0.396"/>
		</g>
	</g>
	<g>
		<g>
			<path d="M242.042,244.725c0.433,1.618,0.534,3.558-0.392,5.059c-0.734,1.191-3.323,1.435-2.59,2.824
				c3.996-0.825,4.776-4.576,3.83-8.104c-0.301,0.08-0.679,0.089-0.946,0.242"/>
		</g>
	</g>
	<g>
		<g>
			<path d="M227.308,253.376c-4.672,4.326,6.374,6.731,8.871,6.653c0.408-1.561-2.004-1.038-3.076-1.252
				c-1.682-0.334-4.624-0.901-5.505-2.618c-1.88-3.664,6.538-2.56,8.161-2.47c0.427-1.377-0.896-1.082-1.836-1.135
				c-2.043-0.115-4.893-0.676-6.566,0.875"/>
		</g>
	</g>
	<g>
		<g>
			<path d="M232.579,244.966c-1.603,1.414-0.976,3.828,0.724,4.763c1.159,0.637,2.496,0.904,3.746,1.301
				c0.887,0.281,1.632,0.9,1.946-0.366c-1.56-0.915-7.699-1.39-6.172-4.509c1.13-2.307,5.79,0.164,5.816-1.795
				c-1.826-0.549-4.519-0.768-6.066,0.601"/>
		</g>
	</g>
	<g>
		<g>
			<path d="M209.919,265.861c-1.391,3.099,2.646,3.963,4.706,3.994c1.046,0.018,5.907,0.515,5.359-1.289
				c-2.531,0.127-5.74,0.933-8.148-0.018c-1.818-0.717-0.931-2.641,0.351-3.375c1.018-0.583,3.585-0.579,2.98-2.07
				c-1.816,0.178-4.434,0.938-5.25,2.758"/>
		</g>
	</g>
	<g>
		<g>
			<path d="M183.118,278.212c-0.894,3.562,7.198,2.027,8.475,1.613c-0.078-1.675-1.93-0.505-3.018-0.375
				c-1.293,0.153-2.967,0.306-4.141-0.386c-0.936-0.551,0.079-1.178,0.668-1.513c1.012-0.575,3.632-0.751,2.766-2.249
				c-1.466,0.389-4.439,1.119-4.882,2.875"/>
		</g>
	</g>
	<g>
		<g>
			<path d="M167.961,240.244c-0.559,2.352,2.001,7.708-0.483,9.245c-1.113,0.688-2.183,0.886-3.167,1.843
				c-1.188,1.152-1.878,2.46-2.038,4.055c-0.22,2.178,0.629,3.822,0.188,5.977c-0.306,1.494-2.328,2.837-3.214,4.017
				c-1.486,1.983-1.088,4.194-0.615,6.438c0.696,3.303-3.606,4.298-4.248,7.328c-0.57,2.687,0.951,5.508,2.067,7.959
				c2.312,5.071,6.635,10.759,11.986,12.732c0.623-1.686,0.376-1.63-1.171-2.482c-1.664-0.916-3.084-2.203-4.427-3.541
				c-2.754-2.74-5.502-6.063-6.469-9.867c-0.396-1.557-0.351-3.547,0.322-5.068c0.789-1.781,2.461-2.791,3.386-4.49
				c1.257-2.307-1.075-4.257-0.533-6.505c0.403-1.677,3.351-2.483,3.991-4.106c1.237-3.127-0.227-6.737,0.811-9.918
				c0.704-2.158,1.919-2.031,3.673-2.967c2.118-1.131,2.411-3.961,2.083-6.021c-0.588-3.698-1.074-7.313,2.562-9.387
				c1.566-0.895,3.453-0.998,5.232-1.139c1.981-0.158,2.39,0.696,2.427-1.345c-5.57-0.101-11.237,1.067-12.688,7.166"/>
		</g>
	</g>
	<g>
		<g>
			<path d="M200.01,254.775c1.542,0.666,1.199-1.59,1.537-2.625c0.364-1.117,2.395-3.26,0.769-3.756
				c-1.242,1.939-1.984,4.129-2.303,6.404"/>
		</g>
	</g>
	<g>
		<g>
			<path d="M219.212,256.413c0.241,0.188,0.651,0.258,0.938,0.377c0.552-1.319,0.939-2.717,1.072-4.142
				c-1.602-0.604-1.459,2.645-1.936,3.787"/>
		</g>
	</g>
	<g>
		<g>
			<path d="M208.378,239.932c-0.599,1.064-1.275,2.196-1.158,3.469c1.314,0.262,1.782-2.668,2.403-3.812
				c-0.604-0.567-1.068-0.495-1.264,0.329"/>
		</g>
	</g>
	<g>
		<g>
			<path d="M223.518,245.118c1.116,1.241,3.124-1.738,1.541-2.281c-0.509,0.763-1.032,1.498-1.541,2.261"/>
		</g>
	</g>
	<g>
		<g>
			<path d="M185.226,268.131c1.557,0.346,1.012-1.511,1.271-2.557c0.255-1.026,1.494-2.313,0.031-2.783
				c-1.027,1.521-1.453,3.538-1.345,5.354"/>
		</g>
	</g>
	<g>
		<g>
			<path d="M199.758,267.669c1.425,1.058,3.015-3.364,1.243-3.453c-0.417,1.168-0.847,2.312-1.264,3.479"/>
		</g>
	</g>
	<g>
		<g>
			<path d="M166.231,284.568c1.374,0.477,1.021-0.764,1.164-1.737c0.152-1.038,1.245-2.813-0.391-2.823
				c-0.434,1.491-0.682,3.027-0.776,4.575"/>
		</g>
	</g>
</g>
<g id="HeadBlow">
	<path fill="#ECAF8B" d="M319.594,136.067c1,12.5,0,28-9,41s-12.5,9.5-18,17s-8.5,7.5-11.5,10.5s-4.5,6-4.5,6s-8.5,2.5-16,3
		s-14-5-14-5s-3.5-8-15-16s-21-18-25-41s-4-23-4-23s-8-9.5-8-14.5s5-10,10.5-10s123.5,3,123.5,3s6,1,1,12
		S319.594,136.067,319.594,136.067z"/>
	<path fill="#5D4530" d="M271.094,38.567c9.5-8.5,17-14.5,31-10s36,19,49.5,19s29-9,29-9s1,2,0,4.5s-1,2.5-1,2.5s8-6.5,19-8
		s14.5,5.5,14.5,5.5s-8,0-12.5,5.5s-8.5,7.5-8.5,7.5s5-1,8.5,4.5s3.5,19,3.5,19s-4-15.5-22.5-18s-22,3-22,3s-2.5,8-9.5,13
		s-14,7.5-27.5,8S271.094,38.567,271.094,38.567z"/>
	<path fill="#4F3B28" d="M313.094,52.567c-10.777-9.7-26-22-54-21.5s-54.5,17.5-58.5,37s-2,30-2,30s-0.5,16.5,2,25s12,14.5,12,14.5
		l2.5,5l5.5-10.5c0,0,0,16,15,28s26,13,26,13s-10-8.5-8-20.5c0,0,7.5,6.5,17,8s13,1.5,13,1.5l-8-21.5c0,0,9,4.5,13,4.5s8-3,7-5
		s-1-2-1-2s8,4,13,4s8-4,8-4l4,1c0,0,2-11,4-19s6.5-11,6.5-11S338.094,75.067,313.094,52.567z"/>
	<path fill="#976E50" d="M298.594,171.567c0-2-2.5-5-14.5,0.5s-14.5,7.5-14.5,7.5s8-2.5,17.5-5S298.594,171.567,298.594,171.567z"/>
	<path fill="#976E50" d="M241.594,178.067c0,0-5.5-4-14-6.5s-11-4-11-4s0.5,8.5,11,10S241.594,178.067,241.594,178.067z"/>
	<path fill="#4F3B28" d="M323.167,70.598c9.658,5.649,12.847-0.475,21.871-2.431c-0.241,3.166-2.244,6.226-4.951,8.156
		c5.662-0.592,11.764-4.336,16.165-7.496c-0.908,9.861-18.15,16.523-26.597,16.694c-1.094-3.634-0.957-7.375-2.21-11.003"/>
	<path fill="#5D4530" d="M198.046,83.786c-0.681,11.782,5.487,24.543,14.592,31.9c0.919-2.808,0.796-6.177,0.718-9.434
		c8.649,13.885,17.173,27.724,32.32,35.191c-3.828-8.136-5.993-15.72-7.746-24.001c1.006,2.538,6.451,7.133,7.891,9.003
		c2.551-4.768,2.711-4.429,5.058-9.291c19.765,16.82,38.615-3.867,48.397-20.688c6.275,5.059,13.647,3.907,13.908,12.731
		c2.829-4.038,6.588-7.135,10.692-9.807c2.548,3.64,6.488,5.356,8.868,1.128c0.56,3.021-0.168,5.591-2.396,7.377
		c-0.04-5.869,1.701-11.326,1.373-16.981c-0.498-8.577-3.741-18.534-9.427-27.899c-10.784-17.764-35.502-29.152-55.08-32.991
		c-17.402-3.412-43.162,6.853-55.925,18.845c-8.614,8.094-10.675,22.684-12.628,33.882c-0.12,0.577-0.206,1.16-0.26,1.747"/>
	<g>
		<g>
			<path fill="#25242B" d="M269.271,197.054c5.516,3.555-7.061,13.638-10.581,14.328c-3.979,0.78-7.485-2.088-9.296-5.297
				c-1.087-1.927-1.669-4.117-1.886-6.32c-0.13-1.316,0.572-3.637-1.386-3.381c-1.085,7.126,5.208,19.545,14.068,15.895
				c3.901-1.607,16.46-11.718,9.653-16.098c-0.203,0.316-0.354,0.414-0.464,0.771"/>
		</g>
	</g>
	<g>
		<g>
			<path fill="#25242B" d="M318.161,147.276c0,7.111-1.561,14.299-4.156,20.965c-2.521,6.474-7.018,10.617-12.081,15.224
				c-2.395,2.177-11.206,11.517-13.007,14.314c-1.83,2.846-4.34,4.712-7.223,6.368c-2.873,1.65-4.507,4.079-6.181,6.896
				c0.253,0.151,0.882,0.683,1.036,0.431c0.9-1.477,1.932-2.943,2.97-4.328c0.96-1.279,4.908-3.244,7.575-5.578
				c3.46-3.028,4.861-6.013,7.279-8.566c2.371-2.504,5.359-4.409,7.924-6.709c5.338-4.785,10.065-9.584,12.909-16.287
				c3.023-7.13,3.909-15.039,3.909-22.729C318.616,147.276,318.661,147.276,318.161,147.276"/>
		</g>
	</g>
	<g>
		<g>
			<path fill="#25242B" d="M203.264,137.252c1.217,5.207,1.982,10.524,3.235,15.722c1.871,7.764,3.834,16.267,8.129,23.11
				c4.709,7.503,11.853,14.552,19.075,19.673c3.131,2.221,6.75,4.111,9.398,6.95c0.713,0.765,1.085,1.748,1.496,2.707
				c0.563,1.315,0.073,1.163,1.426,0.681c-2.222-6.223-7.83-9.117-12.746-12.885c-3.572-2.736-7.253-5.362-10.208-8.748
				c-2.803-3.212-5.909-6.571-7.984-10.317c-6.184-11.162-8.28-24.761-11.156-37.07c-0.483,0.128-0.45-0.112-0.935,0.015"/>
		</g>
	</g>
	<g>
		<g>
			<path fill="#25242B" d="M245.87,208.081c1.096,1.838,2.116,3.571,3.996,4.73c3.431,2.114,7.837,1.914,11.643,1.559
				c4.206-0.394,8.416-0.895,12.547-1.777c1.115-0.238,2.217-0.555,3.334-0.793c1.193-0.252,0.797-0.607,0.586-1.766
				c-5.848,1.242-11.628,2.729-17.599,3.232c-3.128,0.264-6.918,0.285-9.752-1.395c-1.731-1.027-2.808-2.64-3.805-4.308
				c-0.426,0.262-0.782,0.165-1.208,0.427"/>
		</g>
	</g>
	<g>
		<g>
			<path fill="#25242B" d="M290.513,177.521c-2.477,3.228-5.183,5.289-9.276,6.045c-1.854,0.342-3.707,0.568-5.576,0.334
				c-1.589-0.197-3.602-1.04-5.172-0.59c-0.024,1.509,3.742,1.658,5.055,1.821c2.957,0.367,6.107,0.021,8.912-1.011
				c2.383-0.877,4.479-2.433,6.098-4.368c0.729-0.872,1.362-1.815,2.112-2.669c0.665-0.758,1.872-1.247,1.046-2.354
				c-1.325,0.481-2.334,1.756-3.154,2.825"/>
		</g>
	</g>
	<g>
		<g>
			<path fill="#25242B" d="M220.5,175.106c0.969,0.321,1.655,2.783,2.351,3.55c1.719,1.892,4.155,3.423,6.625,4.15
				c1.303,0.383,10.254,0.21,8.729-2.017c-2.989,1.035-5.939,2.068-9.073,0.899c-2.111-0.787-4.051-2.37-5.521-4.067
				c-0.865-0.997-1.537-2.854-2.845-3.29c-0.099,0.296-0.327,0.638-0.346,0.946"/>
		</g>
	</g>
	<g>
		<g>
			<path fill="#25242B" d="M275.427,177.901c-3.037,1.14-5.828,1.549-8.719,3.041c0.293,1.877,4.179-0.443,5.163-0.848
				c3.578-1.473,7.133-2.951,10.835-4.073c3.363-1.02,6.713-2.12,10.113-3.009c1.146-0.3,5.909-0.32,5.204-1.905
				c-3.235,0.404-5.968,1.09-9.097,1.961C284.736,174.234,279.505,176.373,275.427,177.901"/>
		</g>
	</g>
	<g>
		<g>
			<path fill="#25242B" d="M276.638,175.135c-1.686,0.898-3.283,1.952-5.008,2.776c-0.979,0.467-3.625,0.661-2.63,2.052
				c5.623-1.997,10.555-5.455,16.008-7.853c2.701-1.188,5.662-2.113,8.627-2.337c1.286-0.098,2.523,0.364,3.77,0.71
				c0.895,0.25,1.823,0.484,2.041-0.837c-7.27-3.458-16.523,2.231-22.768,5.563"/>
		</g>
	</g>
	<g>
		<g>
			<path fill="#25242B" d="M213.928,167.341c10.543,3.404,19.686,10.13,30.869,11.752c0.42-0.959,0.043-0.643-0.844-0.799
				c-1.619-0.285-3.227-0.727-4.797-1.207c-2.934-0.898-5.624-2.448-8.422-3.699c-5.43-2.429-10.839-5.095-16.515-6.926
				c-0.095,0.295-0.375,0.768-0.387,1.074"/>
		</g>
	</g>
	<g>
		<g>
			<path fill="#25242B" d="M218.015,171.945c5.565,5.712,16.071,7.072,23.645,7.082c0.474-1.643-3.313-1.46-4.474-1.572
				c-2.965-0.288-5.954-0.611-8.832-1.39c-2.861-0.772-5.854-1.773-8.248-3.561c-1.193-0.891-2.287-2.073-2.941-3.424
				c-0.533-1.098-0.062-3.759-1.622-3.357c-0.058,2.313,1.077,4.379,2.677,6.021"/>
		</g>
	</g>
	<g>
		<g>
			<path fill="#25242B" d="M245.105,179.773c-0.418,1.48,1.259,0.968,2.226,1.411c1.418,0.648,2.256,2.047,2.822,3.458
				c0.611,1.522,0.86,3.156,0.845,4.79c-0.01,1.015-0.642,2.615,0.903,2.457c0.87-4.746-0.755-12.12-6.794-12.083"/>
		</g>
	</g>
	<g>
		<g>
			<path fill="#25242B" d="M327.307,107.876c-1.2,0.27-2.402,1.289-3.008,2.36c1.598,0.904,0.98,0.159,2.496-0.673
				c1.496-0.822,3.466,0.227,3.848,1.943c0.509,2.289-0.964,5.625-1.775,7.805c-1.36,3.654-3.475,6.994-5.611,10.253
				c-1.074,1.636-1.814,3.553-3.132,5.002c-1.133,1.245-1.219,1.087-0.107,2.232c4.521-4.387,7.821-10.521,10.094-16.347
				c0.813-2.086,1.313-4.475,1.823-6.656c0.726-3.1-0.975-6.813-4.644-5.992"/>
		</g>
	</g>
	<g>
		<g>
			<path fill="#25242B" d="M222.01,135.784c0.4,21.288,22.835,33.629,41.327,36.899c0.963-1.976-3.013-1.57-4.364-1.907
				c-2.793-0.696-5.445-1.91-8.127-2.957c-5.082-1.984-9.839-4.699-14.157-8.045c-4.075-3.16-7.516-6.991-9.968-11.553
				c-1.255-2.335-2.193-4.736-2.746-7.33c-0.258-1.211-0.699-2.375-0.79-3.609c-0.081-1.098-0.153-1.942-1.578-1.505"/>
		</g>
	</g>
	<g>
		<g>
			<path fill="#25242B" d="M252.844,153.317c8.544,4.768,21.734,10.104,31.689,9.437c-0.76-2.61-3.551-9.551-5.463-11.546
				c-0.928,0.487-0.762,0.676-0.227,1.359c1.078,1.378,3.591,7.805,4.16,9.451c-5.18,0.191-10.295-1.271-15.115-3.119
				c-2.332-0.895-9.016-3.672-11.233-4.818c-1.17-0.605-3.39-2.772-3.891-0.677"/>
		</g>
	</g>
	<g>
		<g>
			<path fill="#25242B" d="M292.542,137.544c0.641,1.742,1.254,4.955-0.64,6.299c-1.259,0.894-3.154,1.034-4.608,0.882
				c-2.589-0.271-4.995-1.61-7.438-2.478c-1.595-0.566-3.163-1.15-4.713-1.828c-0.976-0.426-1.372-0.368-1.562,0.842
				c5.014,2.264,23.95,9.862,20.373-2.693c6.548,2.476,13.049,4.938,20.118,3.498c0.15-2.15-2.981-0.96-4.376-0.911
				c-2.467,0.085-4.841-0.774-7.229-1.384c-3.655-0.932-7.188-2.275-10.711-3.607c0.158,0.428,0.243,1.095,0.401,1.522"/>
		</g>
	</g>
	<g>
		<g>
			<path fill="#25242B" d="M321.044,128.271c-1.205,2.895-2.187,6.09-1.593,9.283c-3.36-0.527-6.649-1.774-9.715-3.24
				c-1.718-0.82-3.5-1.54-5.129-2.523c-1.191-0.719-0.851-0.487-1.488,0.544c5.751,3.559,11.623,6.3,18.383,7.08
				c-1.389-3.925-0.146-7.306,1.389-10.993c-0.461-0.191-1.018-0.273-1.479-0.465c-0.071,0.172-0.097,0.226-0.169,0.397"/>
		</g>
	</g>
	<g>
		<g>
			<path fill="#25242B" d="M233.156,34.682c-22.823,8.59-40.896,33.823-36.568,58.71c0.538-0.094,3.306-0.287,3.204-0.909
				c-0.115-0.725-0.476-1.356-0.54-2.085c-0.161-1.832-0.875-3.609-0.797-5.443c0.183-4.291,0.99-8.526,2.155-12.657
				c2.874-10.194,9.111-18.802,17.186-25.705c22.299-19.069,54.658-18.63,79.049-4.774c3.236,1.84,7.184,4.945,10.109,7.248
				c1.393,1.096,2.594,1.547,3.891,2.752c1.387,1.287,1.313,2.52,2.65,1.182C293.168,32.671,260.091,24.544,233.156,34.682"/>
		</g>
	</g>
	<g>
		<g>
			<path fill="#25242B" d="M215.479,143.045c0.281,0.691,0.332,1.458,0.613,2.149c0.283-1.772,0.55-3.523,1.118-5.234
				c0.443-1.336,0.987-2.662,1.737-3.854c0.59-0.938,1.33-1.624-0.057-2.26c-1.624,1.886-2.662,4.649-3.313,7.028
				c-1.416-3.77-2.652-7.909-2.652-11.97c0-1.794,0.358-3.614,0.912-5.323c0.395-1.217,2.11-2.525,0.229-2.957
				c-3.91,7.137-1.669,15.472,1.188,22.511"/>
		</g>
	</g>
	<g>
		<g>
			<path fill="#25242B" d="M203.009,129.181c2.223,4.104,5.351,7.904,9.968,9.078c1.029-1.758-1.908-2.298-3.108-3.012
				c-2.088-1.241-3.74-2.979-5.06-5.004c-2.618-4.02-3.663-8.793-4.348-13.496c-0.694-4.78-0.691-9.565-0.225-14.37
				c0.205-2.104-0.352-4.335,0.109-6.398c0.287-1.289,2.242-3.615,0.207-3.72c-3.825,11.208-3.576,26.587,2.121,37.103"/>
		</g>
	</g>
	<g>
		<g>
			<path fill="#25242B" d="M197.853,122.477c0.816,1.619,1.431,3.346,2.017,5.067c0.521,1.531,0.24,1.351,1.795,1.075
				c-0.834-4.696-3.969-8.629-5.369-13.16c-0.552-1.787-0.932-3.824-0.078-5.572c0.436-0.893,1.207-1.562,2.021-2.117
				c0.023-0.271-0.617-0.872-0.782-1.114c-5.813,3.965-2.243,11.107,0.187,15.928"/>
		</g>
	</g>
	<g>
		<g>
			<path fill="#25242B" d="M253.297,163.339c1.243,4.39,4.657,7.738,7.957,10.699c0.706-0.787,1.374-0.974,0.492-1.778
				c-1.242-1.133-2.57-2.189-3.656-3.477c-1.089-1.29-2.07-2.712-2.747-4.265c-0.703-1.611-0.386-1.673-2.021-1.21"/>
		</g>
	</g>
	<g>
		<g>
			<path fill="#25242B" d="M278.984,31.238c0.256,0.368,0.025,0.452,0.281,0.819c0.118,0.17,2.549-1.401,2.947-1.593
				c2.298-1.101,4.727-2.581,7.259-2.819c5.435-0.51,10.913,1.829,16.054,3.517c9.295,3.051,17.015,7.828,25.902,11.738
				c15.372,6.764,40.704,10.513,51.836-5.331c-0.365-0.258-1.666-0.318-2.033-0.576c-0.193-0.137-1.812,0.562-2.084,0.864
				c-1.469,1.625-2.732,3.271-4.605,4.405c-3.848,2.33-8.18,2.885-12.626,3.381c-9.096,1.013-16.654,0.521-25.153-2.743
				c-8.516-3.271-18.222-8.035-26.737-11.371c-9.886-3.874-22.268-7.747-31.695-1.212"/>
		</g>
	</g>
	<g>
		<g>
			<path fill="#25242B" d="M381.609,43.885c0.629-1.174,0.904-2.604,1.361-3.855c-0.421-0.154-0.644-0.364-1.063-0.518
				c-0.226-0.083-1.084,2.388-1.263,2.744c-1.026,2.063-2.729,3.675-3.987,5.565c1.174,1.027,0.954,0.994,2.082-0.15
				c1.598-1.622,3.635-2.786,5.543-4.021c3.883-2.514,8.258-4.445,12.821-5.304c4.134-0.777,8.128-0.196,11.521,2.429
				c1.994,1.543,4.227,2.742,6.166,4.354c0.295-0.391,1.152-0.962,0.705-1.333c-0.838-0.696-2.066-0.924-2.906-1.621
				c-2.24-1.86-4.129-4.084-6.965-5.006c-8.15-2.648-17.563,1.919-24.024,6.691"/>
		</g>
	</g>
	<g>
		<g>
			<path fill="#25242B" d="M398.508,49.226c-2.088,1.894-4.482,3.418-6.879,4.919c-1.336,0.837-2.684,1.649-4.15,2.228
				c-0.076,0.277,0.5,1.266,0.611,1.551c6.146-2.422,10.283-7.207,15.438-11.04c2.151-1.601,4.375-3.165,7.032-3.615
				c1.603-0.271,3.283-0.323,4.898-0.184c1.861,0.16,1.773,0.829,2.051-0.921c-7.942-1.254-13.541,1.643-19.233,6.808"/>
		</g>
	</g>
	<g>
		<g>
			<path fill="#25242B" d="M371.766,51.566c0.008,0.272-0.113,0.835,0.06,1.013c1.235-0.03,2.444,0.197,3.682,0.211
				c2.313,0.027,4.591,0.51,6.888,0.784c4.028,0.482,8.274,0.831,11.846,2.815c3.479,1.935,5.959,5.209,7.938,8.654
				c1.162,2.023,2.156,4.121,2.834,6.353c0.39,1.276,0.625,2.604,0.896,3.91c0.211,0.127,1.649-0.348,1.916-0.402
				c-1.705-8.269-6.205-15.771-13.951-19.738c-6.781-3.473-14.642-3.751-22.104-3.566"/>
		</g>
	</g>
	<g>
		<g>
			<path fill="#25242B" d="M358.076,64.843c-1.486,1.049-2.966,2.127-4.521,3.072c-1.636,0.998-1.943,0.643-1.077,2.225
				c5.097-2.792,9.404-7.544,15.092-9.157c5.219-1.479,11.172-0.22,16.354,1.03c5.068,1.223,10.1,3.247,14.187,6.569
				c1.733,1.41,3.666,2.796,4.659,4.812c0.529,1.072,0.587,2.348,0.771,3.527c0.148,0.953,0.467,0.538,1.342,0.448
				c-0.965-9.399-10.795-13.85-18.844-16.068c-4.408-1.216-9.008-2.367-13.595-2.25c-5.592,0.143-10.266,2.161-14.713,5.302"/>
		</g>
	</g>
	<g>
		<g>
			<path fill="#25242B" d="M321.98,67.005c3.566,7.237,7.067,14.732,8.672,22.692c0.731,3.626,0.642,7.362,0.419,11.058
				c-0.119,1.956-0.365,3.877-0.754,5.797c-0.386,1.904-0.678,1.93,1.098,2.373c3.786-15.148-1.787-28.986-8.406-42.423
				c-0.448,0.222-0.819,0.397-1.268,0.62"/>
		</g>
	</g>
	<g>
		<g>
			<path fill="#25242B" d="M334.708,82.401c0.048,0.498,0.093,0.971,0.141,1.469c14.584-1.404,25.357-11.437,25.692-26.412
				c-1.574-0.035-1.453-0.175-1.563,1.49c-0.126,1.912-0.296,3.852-0.788,5.704c-0.841,3.165-2.336,6.203-4.409,8.746
				c-4.649,5.701-11.941,8.152-19.089,8.84"/>
		</g>
	</g>
	<rect id="HeadBlowTarget" x="223.165" y="56.858" opacity="0" fill="#FFFFFF" width="38.594" height="35.4"/>
</g>
<rect id="MouthTarget" x="250.651" y="227.455" opacity="0" fill="#FFFFFF" width="39.518" height="35.058"/>
<rect id="HeadBlowTargetFixed" x="223.166" y="56.858" opacity="0" fill="#FFFFFF" width="38.594" height="35.4"/>
</svg>
