<?xml version="1.0" encoding="utf-8"?>
<!-- Generator: Adobe Illustrator 15.0.0, SVG Export Plug-In . SVG Version: 6.00 Build 0)  -->
<!DOCTYPE svg PUBLIC "-//W3C//DTD SVG 1.1//EN" "http://www.w3.org/Graphics/SVG/1.1/DTD/svg11.dtd">
<svg version="1.1" id="Layer_1" xmlns="http://www.w3.org/2000/svg" xmlns:xlink="http://www.w3.org/1999/xlink" x="0px" y="0px"
	 width="720px" height="450px" viewBox="0 0 720 450" enable-background="new 0 0 720 450" xml:space="preserve">
<g>
	<g>
		<path fill="#576260" d="M209.322,230.484c-9.645,14.612-7.875,40.499-8.25,64.499c-0.375,24,0.375,40.126,2.25,42.751
			s109.5-12.376,109.5-12.376s6.751-13.125,13.125-36.75c6.375-23.625,8.625-31.5,10.876-36c2.249-4.5,4.125-7.5,3.75-18
			c-0.376-10.5-24.001-14.25-24.001-14.25S221.697,211.733,209.322,230.484z"/>
		<path fill="#0090C0" d="M295.447,88.359c-24.501-7-35.001-5.499-57.501-2.5c-22.5,3-45.999,16.999-55,26.499
			c-9,9.501-8,18.501-3.5,37.5c4.5,19,10.5,29.5,8.5,41.5c-2,12,2,18.5,2,18.5s-1.5,1-0.5,4c1,3,3,4.5,3,4.5s2.001,11,2.501,14.501
			c0.5,3.499-4,4.499-2.501,7.998c1.5,3.502,7.499,5.001,6.5,10.003c-0.999,4.997-6.167,7.628-3,11.498c4.5,5.5,7,7.5,7,13.501
			c0,5.999-0.5,14.499-0.5,14.499s8.999-6.499,17.499-5.999s8.5,0.5,8.5,0.5s-3.001-9.5-2.5-17.499
			c0.5-8.002-2.999-10.001-0.999-22.501c2-12.501,2-14.5,2-14.5s11,16.001,38.5,16.001c27.499,0,39.999-9.001,39.999-9.001
			s-1.499,9.5-12.999,26c-11.5,16.5-14.001,23-14.001,23s5.001,4.499,11.5,8c6.499,3.5,13.001,4,13.001,4s5.999-18.5,17.999-30.999
			c12-12.501,6.999-13.502,17.5-27.502c10.5-13.999,9.5-23.999,10.5-30.499c1.001-6.5,5.499-4.501,3-14.5
			c-2.499-10-3.501-13.001-4.5-21c-0.999-8-8.001-37.5-21-59C313.448,93.36,295.447,88.359,295.447,88.359z"/>
		<path fill="#ECAF8B" d="M271.947,82.86c0,0,14.001,10.499,7,35.499s-24.501,35-45.501,31.5c-21-3.499-21-13.499-27-19.999
			c-6-6.5-4.5-28.5-3.5-30.5C203.947,97.359,229.447,82.359,271.947,82.86z"/>
		<path fill="#FFFFFF" d="M224.697,36.984c1.261-0.844,3.498-1.202,4.893-1.433c2.068,2.597,3.845,6.305,3.302,10
			c-2.723-1.836-5.046-5.029-6.694-8.192"/>
		<path fill="#5D4530" d="M230.322,36.984c0,0,6.75-3.375,14.625,1.5c7.875,4.875,20.25,15.375,21.375,25.125
			c1.125,9.75-1.5,14.25-1.875,21.75s10.125,10.125,10.125,10.125s-4.5,6.75-15.75,3c-11.25-3.75-14.25-14.625-13.875-26.25
			c0.375-11.625-1.5-21-3.375-23.25c-1.875-2.25-7.5-3.375-7.5-3.375S231.822,39.234,230.322,36.984z"/>
		<path fill="#ECAF8B" d="M226.947,285.234c4.523,13.119,12.579,21.478,11.568,37.067c-7.856-2.409-8.899-11.35-13.723-16.795
			c-4.284,12.546-6.214,26.083-22.98,26.213c-5.644-12.192,1.711-22.474,3.469-34.007c1.967-12.914,8.015-13.866,20.917-12.104"/>
		<path fill="#ECAF8B" d="M277.947,286.733c-16.693,6.959-19.524,20.133-22.553,36.028c23.312,4.182,39.517-3.25,43.512-25.847
			c-8.981-0.502-17.209-6.431-20.584-12.432"/>
		<path fill="#0082A9" d="M208.572,174.983c-0.453,9.639,0.01,21.104,3.697,29.504c1.723,3.926,3.287,6.234,4.018,10.358
			c0.301,1.706-3.51,3.78,1.35,7.021c0.048-0.058,3.69,19.577,3.977,23.007c0.445,5.331,0.8,11.667,3.374,16.201
			c0.39-11.142-0.094-22.291,2.681-32.851c0.306-1.171,2.742-5.212,2.679-6.702c-0.148-3.488-4.014-4.801-4.093-8.615
			c4.862,0.293,10.897-0.325,13.77-4.107c-8.707,0.148-17.353,0.149-22.452-7.19c-4.854-6.991-1.192-16.295-7.125-22.5"/>
		<path fill="#0082A9" d="M303.822,160.358c-8.458,11.836,15.979,30.751-6.263,42.777c3.145-0.957,6.375-3.045,9.217-4.102
			c0.642,9.853,3.436,13.107-3.359,23.08c14.184,0.733,10.902-1.003,13.154-9.63c1.146-4.384,5.062-7.291,2.25-12.375
			c-5.997-10.846-8.25-37.125-14.625-35.25"/>
		<path fill="#46514E" d="M331.196,266.109c-5.314,10.079-5.598,21.383-11.127,31.487c-4.574,8.358-10.208,15.592-14.718,23.917
			c18.903,6.937,21.16-41.379,25.096-52.029"/>
		<path fill="#46514E" d="M255.071,254.483c9.871,13.296,4.297,24.842,4.418,39.637c0.486-10.807,7.582-16.761,8.219-32.063
			c-2.94-0.95-5.323-2.409-7.762-4.199"/>
		<path fill="#CC9A7C" d="M225.448,117.36c3.189,11.549-13.607,10.968-21.802,10.412c-6.427-11.495,16.657-12.961,23.801-10.914"/>
		<path fill="#ECAF8B" d="M162.946,87.36c3.5,5.499,1.501,7,9.501,11s10,5,10.5,11c0.5,6,1.5,8.5,1.5,8.5s1.5,1.5,6-0.499
			c4.5-2.001,5,0.499,5,0.499v2h6c0,0-0.501,4,2,4s3.999,0,6,2c2.001,2.001,6.501,1.5,10-2c3.5-3.499,6.5-7.5,6.5-7.5
			s16.5-16.001,17.5-23c1-7,2.001-8.501-2-16.5c-4-8.001-8.5-19.501-14.5-23.001s-32-11-40.5-5.5c-8.5,5.5-22.501,22-23.5,27
			C161.947,80.359,162.946,87.36,162.946,87.36z"/>
		<path fill="#CC9A7C" d="M217.571,66.984c-1.62,3.399,0.465,6.545,2.318,9.31c1.412,0.397,2.536,0.354,4,0.383
			c0.68-3.817-0.877-6.486-4.752-6.383c0.004-1.262-0.829-4.326-0.816-4.435"/>
		<path fill="#5D4530" d="M238.197,69.609c-2.625-1.5-6.375-3.375-7.875-3.75c-1.5-0.375-5.625-0.75-5.625-0.75
			s-4.125-4.875-9-2.625c-4.875,2.25-3.375,7.125-3,9.375c0.375,2.25,0,5.25-2.625,6c-2.625,0.75-2.625,0.75-2.625,0.75
			s-5.625-4.5-10.875-4.5s-9.375,0.75-13.875,0.75c-4.5,0-10.125-1.5-10.125-1.5s0,1.875,2.25,2.625s5.25,1.875,5.25,1.875
			s-2.25,0.375-5.25,0.375s-5.625,0-5.625,0s2.625,3.375,4.875,4.5c2.25,1.125,7.125,2.25,7.125,2.25s-3.375,0.75-8.625-0.75
			s-7.125-3.375-7.125-3.375s1.875,4.5,4.125,7.125c2.25,2.625,7.5,5.25,7.5,5.25s-5.25,1.875-12.75-2.25
			c-7.5-4.125-9.375-10.875-9.375-10.875s-8.626-3-6.001-10.875s6.75-9.375,6.75-9.375s0.75-13.125,12-22.125
			c11.25-9,26.625-13.5,43.125-8.25s22.125,15.375,23.25,22.5C235.197,59.109,238.197,69.609,238.197,69.609z"/>
		<path fill="#0082A9" d="M208.948,220.86c-3.894,0.432-8.335,0.059-11.571-0.987c5.584-1.728,11.878-4.68,16.642-0.004
			c-0.809,0.222-1.54,0.688-2.072,1.49"/>
		<path fill="#0082A9" d="M350.447,204.858c-4.688,2.229-9.781,3.623-14.774,4.609c2.958,0.925,3.53,2.662,5.118,3.806
			c-2.429,0.268-5.404,1.395-7.638,1.487c8.011-2.147,11.762,2.603,12.795,9.1c3.022-5.778,1.19-12.104,3-18"/>
	</g>
	<g>
		<g>
			<path fill="#25242B" d="M178.697,150.67c1.81,7.241,4.121,14.307,6.146,21.485c0.886,3.14,0.948,6.549,1.426,9.78
				c0.455,3.068-0.433,6.116-0.397,9.2c0.081,6.9-0.029,16.016,5.747,20.857c0.3-0.359,1.378-1.292,1.02-1.632
				c-1.065-1.01-1.689-2.578-2.347-3.886c-1.586-3.154-0.372-6.864-0.527-10.303c-0.158-3.53-0.139-6.967-0.149-10.501
				c-0.016-5.215-2.251-10.497-3.685-15.462c-3.363-11.656-7.132-23.32-7.784-35.529c-0.218-4.098-0.687-8.273,0.322-12.269
				c0.333-1.313,1.23-2.376,1.837-3.589c0.24-0.483,0.31-1.004,0.619-1.448c0.444-0.636-0.843-0.398-1.417-0.851
				c-0.246-0.193-0.413-1.22-0.659-1.413c-2.979,3.792-3.453,9.407-3.658,14.075C174.872,136.475,176.934,143.616,178.697,150.67"/>
		</g>
	</g>
	<g>
		<g>
			<path fill="#25242B" d="M187.414,213.713c0.237,3.373,4.564,5.218,7.301,6.16c0.135-0.392,0.918-1.824,0.771-2.171
				c-1.847-0.636-4.034-1.372-5.361-2.865c-1.257-1.414-0.032-2.565,1.33-3.34c0.735-0.419-0.302-1.622-0.647-2.297
				c-1.715,0.878-3.699,2.369-3.545,4.525"/>
		</g>
	</g>
	<g>
		<g>
			<path fill="#25242B" d="M193.102,229.358c0.271,1.603,0.385,3.211,0.52,4.831c0.149,1.772-0.038,1.828-1.326,2.987
				c-2.084,1.877-1.76,4.683-0.092,6.813c1.512,1.936,5.461,3.722,5.868,6.256c0.226,1.422-0.361,2.454-0.629,3.758
				c-0.306,1.493-1.935,2.205-2.661,3.52c-2.71,4.902,3.82,8.058,6.343,11.416c0.709,0.942,2.433,2.808,2.125,4.05
				c-0.175,0.702-2.035,1.919-1.677,2.302c0.445,0.481,0.949,0.924,1.396,1.402c1.806-1.679,3.328-3.986,1.815-6.305
				c-0.835-1.281-2.25-2.222-3.174-3.442c-1.509-1.995-4.876-3.922-5.161-6.579c-0.184-1.714,1.939-3.079,2.557-4.542
				c0.315-0.743,0.521-1.314,0.911-2.035c0.302-0.561,0.396-1.307,0.538-1.931c0.801-3.526-2.631-5.986-4.839-8.093
				c-0.827-0.788-2.855-2.352-2.228-3.703c0.586-1.266,2.101-1.796,2.643-3.163c0.571-1.45,0.044-3.48-0.161-4.97
				c-0.275-1.991-0.231-4.021-0.504-6.013c-0.07-0.51-0.825-4.856-0.765-4.853c-0.724-0.05-1.876-0.503-2.599-0.552
				c-0.201,2.919,1.042,5.906,1.523,8.774"/>
		</g>
	</g>
	<g>
		<g>
			<path fill="#25242B" d="M201.998,272.483c0,4.995,0.814,9.927,0.88,14.924c0.023,1.904,0.073,4.026-0.83,5.761
				c-0.345,0.665-0.556,0.704,0.029,1.187c0.43,0.354,0.827,0.504,1.256,0.856c2.814-3.416,1.816-9.059,1.4-13.086
				c-0.284-2.772-0.624-5.554-0.771-8.341c-0.045-0.873,0.429-1.342-0.475-1.342c-0.557,0-1.213,0.012-1.768,0.012"/>
		</g>
	</g>
	<g>
		<g>
			<path fill="#25242B" d="M224.819,233.485c-0.301,5.228-1.445,10.428-0.818,15.637c0.5,4.146,2.222,8.378,1.812,12.559
				c-0.302,3.063-1.219,6.066-1.501,9.132c-0.491,5.326,0.178,10.479,1.878,15.561c0.687-0.229,1.314-0.865,2.001-1.096
				c-0.021,0.008-1.321-4.638-1.427-5.245c-0.571-3.301-0.25-6.634,0.095-9.952c0.505-4.852,0.668-9.589,0.229-14.476
				c-0.618-6.881-1.368-13.455-0.982-20.415c0.198-3.57,0.129-7.108,0.27-10.683c-0.238-0.001-1.68-0.067-1.683-0.006
				c-0.034,0.892,0.183,1.793,0.147,2.685c-0.082,2.094-0.571,4.17-0.653,6.265"/>
		</g>
	</g>
	<g>
		<g>
			<path fill="#25242B" d="M199.777,293.588c0.614,0.758,0.643,1.294,1.473,0.638c0.924-0.727,1.923-1.372,2.896-2.032
				c2.5-1.695,5.303-2.882,8.112-4c3.141-1.249,6.419-2.532,9.813-2.502c1.772,0.017,3.602,0.327,5.304,0.822
				c0.28,0.081,1.837,0.947,1.901,0.791c0.179-0.427,0.424-0.881,0.604-1.31c-10.402-4.33-21.754,1.229-29.887,7.836"/>
		</g>
	</g>
	<g>
		<g>
			<path fill="#25242B" d="M265.736,84.547c14.809,1.758,30.744,3.048,42.818,12.63c13.447,10.672,23.981,25.387,28.968,41.761
				c4.098,13.449,6.977,27.433,9.625,41.236c0.671,3.494,1.832,6.895,2.474,10.386c0.396,2.151,0.796,4.358,0.431,6.55
				c-0.081,0.479-1.041,3.817-1.137,3.725c0.531,0.493,1.309-0.438,1.841,0.055c1.417-1.526,3.86-2.96,3.347-5.142
				c-0.462-1.984-3.208-3.156-3.647-5.15c-0.618-2.816,0.437-6.028-0.087-8.873c-2.064-11.203-5.83-22.085-8.699-33.11
				c-2.911-11.18-6.431-21.767-12.617-31.607c-4.254-6.771-8.674-13.685-14.597-19.056c-6.654-6.029-14.49-9.334-23.214-11.726
				c-5.582-1.532-11.368-1.889-17.104-2.651c-1.992-0.265-3.813-1.866-5.81-2.102c-0.262-0.031-2.64,0.187-2.661,0.354
				c-0.097,0.718-0.653,1.372-0.75,2.09"/>
		</g>
	</g>
	<g>
		<g>
			<path fill="#25242B" d="M348.771,213.984c0,3.67-1.234,7.441-2.688,10.782c-3.247,7.472-8.525,13.837-12.96,20.612
				c-1.833,2.801-3.969,5.435-5.521,8.401c-1.39,2.658-2.804,5.294-4.479,7.791c-1.977,2.949-4.833,5.37-7.863,7.175
				c-0.495,0.294-0.504,1.645-1.039,1.865c-0.05,0.019,0.383,1.107,0.467,1.327c2.404-0.906,4.801-2.405,6.732-4.035
				c3.603-3.041,5.924-6.427,7.98-10.583c4.267-8.631,9.613-16.457,14.421-24.762c2.935-5.072,6.579-10.552,7.11-16.487
				c0.337-3.78-0.541-7.64-0.062-11.421c0.26-2.063,0.064-4.218,0.438-6.263c0.144-0.794,1.095-0.803,0.253-0.971
				c-0.544-0.108-1.405-0.526-1.951-0.634c-1.117,5.591-1.15,11.496-1.15,17.203"/>
		</g>
	</g>
	<g>
		<g>
			<path fill="#25242B" d="M311.318,277.36c-3.242,4.108-6.104,8.104-8.054,12.975c-0.956,2.386-1.454,4.973-2.598,7.277
				c-0.542,1.09,0.464,1.055,1.421,1.561c2.454-4.647,3.884-9.734,6.63-14.236c3.016-4.944,7.029-9.105,9.766-14.237
				c-0.981-0.524-1.716-1.514-2.334-0.434c-1.427,2.495-3.06,4.842-4.833,7.094"/>
		</g>
	</g>
	<g>
		<g>
			<path fill="#25242B" d="M315.419,208.683c-0.348,0.225-0.569,0.647-0.916,0.873c0.878,1.096,1.168,2.177,1.607,3.54
				c0.253,0.791,1.098,1.619,1.452,2.369c-0.744,0.382-1.788,0.741-2.394,1.315c-2.748,2.607-4.186,6.431-5.679,9.846
				c-1.786,4.084-3.69,8.106-5.668,12.105c-0.821,1.659-1.786,3.19-3.002,4.596c-0.603,0.698,0.787,1.393,1.383,1.964
				c4.614-4.808,6.517-12.081,9.116-18.048c1.255-2.882,2.522-6.063,4.64-8.429c1.324-1.479,3.034-1.796,4.876-2.279
				c-1.552-1.928-1.913-4.001-2.907-6.249c0.387-0.183,3.633-1.127,3.618-0.894c0.044-0.723,0.278-1.375,0.322-2.1
				c-2.206-0.138-4.453,0.397-6.31,1.603"/>
		</g>
	</g>
	<g>
		<g>
			<path fill="#25242B" d="M291.251,263.627c-0.886,1.373-2.313,2.427-3.134,3.84c-1.329,2.287-1.944,4.882-3.064,7.258
				c-1.044,2.219-2.44,4.106-4.187,5.81c-0.394,0.385-3.39,3.31-3.365,3.342c0.449,0.57,0.674,1.261,1.121,1.831
				c3.133-2.461,5.991-5.35,7.954-8.87c1.585-2.84,2.13-6.156,3.905-8.904c4.666-7.219,9.718-14.267,13.4-22.054
				c-0.356-0.169-1.165-0.797-1.5-0.681c-1.01,2.134-2.577,3.952-3.761,5.995c-2.414,4.169-5.13,8.145-7.753,12.187"/>
		</g>
	</g>
	<g>
		<g>
			<path fill="#25242B" d="M306.2,165.279c2.081,3.065,3.84,6.385,4.921,9.951c0.877,2.888,1.353,5.889,1.842,8.861
				c0.601,3.652,1.972,6.858,3.442,10.233c0.864,1.983,1.271,4.104,1.488,6.276c0.064,0.64-0.009,2.345,0.703,2.424
				c0.499,0.054,1.4-0.158,1.899-0.104c0.472-4.288-2.053-8.326-3.71-12.128c-1.172-2.689-1.724-5.364-2.193-8.234
				c-0.463-2.823-0.955-5.655-1.843-8.383c-1.153-3.545-3.173-6.669-5.256-9.74c-0.518,0.351-0.695,0.465-1.213,0.815"/>
		</g>
	</g>
	<g>
		<g>
			<path fill="#25242B" d="M317.918,203.829c-1.143-0.082-0.877,1.917-0.807,2.64c0.206,2.091,1.381,3.925,2.934,5.285
				c0.33-0.377,0.619-0.884,0.951-1.262c0.472-0.539-0.569-1.136-0.943-1.658c-0.543-0.76-0.919-1.604-1.011-2.536
				c-0.123-1.241,0.774-1.065,1.787-1.433c3.364-1.217,6.404-3.548,7.272-7.146c-0.364-0.086-1.747-0.657-2.062-0.512
				c-0.262,1.085-0.578,2.207-1.284,3.074c-1.667,2.043-4.326,3.015-6.835,3.559"/>
		</g>
	</g>
	<g>
		<g>
			<path fill="#25242B" d="M320.941,213.602c0.084,0.494,0.161,0.893,0.244,1.387c9.054-1.546,17.628-4.623,26.057-8.182
				c-0.18-0.426-0.148-0.951-0.328-1.377c-0.079-0.188-2.582,0.795-2.908,0.93c-2.392,0.99-4.791,1.95-7.227,2.83
				c-5.166,1.869-10.415,3.5-15.834,4.424"/>
		</g>
	</g>
	<g>
		<g>
			<path fill="#25242B" d="M324.125,211.99c5.317,2.703,11.118,5.297,17.189,5.348c0.002-0.371-0.062-0.721-0.059-1.091
				c0.006-0.766-1.464-0.292-2.115-0.368c-2.221-0.256-4.334-1.112-6.441-1.847c-2.069-0.722-4.087-1.556-6.061-2.508
				c-0.247-0.12-1.819-0.925-1.913-0.739c-0.21,0.412-0.372,0.769-0.581,1.181"/>
		</g>
	</g>
	<g>
		<g>
			<path fill="#25242B" d="M194.24,213.112c-0.293-0.014-0.414,0.141-0.705,0.182c1.181,3.389,3.613,4.071,6.995,4.152
				c1.237,0.03,2.468,0.304,3.705,0.337c1.213,0.034,0.933-0.382,1.036-1.565c-2.805-0.078-7.582,0.766-9.568-1.582
				c7.749-0.875,15.571-0.021,23.287,0.772c0.155-1.528,0.338-1.487-1.197-1.645c-2.215-0.227-4.455-0.162-6.672-0.356
				c-5.6-0.485-11.298-1.123-16.884-0.327"/>
		</g>
	</g>
	<g>
		<g>
			<path fill="#25242B" d="M208.027,220.656c-1.192-0.009-2.43-0.042-3.623-0.05c0,0.401-0.202,1.604,0.269,1.606
				c1.037,0.009,2.072,0.068,3.107,0.077c4.167,0.032,8.41,0.26,12.549-0.316c-0.063-0.458-0.185-1.035-0.249-1.493
				c-0.021-0.15-3.107,0.12-3.517,0.142c-2.845,0.148-5.694,0.301-8.54,0.269"/>
		</g>
	</g>
	<g>
		<g>
			<path fill="#25242B" d="M194.874,158.548c0.261,3.411,3.439,6.237,5.537,8.713c2.649,3.132,5.543,6.085,7.943,9.418
				c2.527,3.508,3.792,7.283,4.616,11.536c0.595,3.071,1.302,6.098,2.333,9.068c2.376,6.843,9.054,12.194,16.208,12.833
				c6.417,0.575,12.961-2.302,17.88-6.236c-0.822-1.027-1.074-1.66-2.161-0.851c-1.133,0.844-2.182,1.813-3.418,2.496
				c-3.147,1.735-6.667,3.321-10.282,3.396c-7.516,0.153-15.336-5.333-17.585-12.549c-0.974-3.124-1.453-6.396-2.156-9.583
				c-1.058-4.794-3.335-8.44-6.275-12.314c-2.492-3.283-4.658-6.793-7.242-10.002c-1.099-1.364-2.839-2.48-3.495-4.12
				c-0.104-0.261-0.02-2.147-0.135-2.138c-0.46,0.035-1.386,0.232-1.848,0.268"/>
		</g>
	</g>
	<g>
		<g>
			<path fill="#25242B" d="M223.13,229.479c12.192,7.645,24.389,17.082,39.28,17.792c7.416,0.354,14.854-1.087,22.093-2.607
				c6.81-1.433,14.128-2.672,20.226-6.135c-0.247-0.437-0.572-0.973-0.819-1.407c-0.321-0.565-0.559,0.452-1.05,0.705
				c-1.391,0.711-3.063,0.866-4.52,1.429c-3.633,1.406-7.219,3.199-11.005,4.101c-7.51,1.787-15.51,2.676-23.25,2.559
				c-15.204-0.233-28.241-9.179-40.632-16.942c-0.327,0.532-0.652,0.51-0.98,1.043"/>
		</g>
	</g>
	<g>
		<g>
			<path fill="#25242B" d="M223.521,210.138c1.363,3.9,3.775,7.405,6.162,10.738c-2.391,0.981-2.581,3.109-2.426,5.413
				c0.088,1.37-0.045,2.854-0.767,4.088c0.14,0.332,1.309,0.762,1.639,0.955c1.404-2.398,0.305-4.808,0.786-7.313
				c0.322-1.689,2.455-1.776,3.828-2.036c-1.595-2.214-3.13-4.507-4.557-6.834c-0.99-1.613-1.903-3.254-2.59-5.02
				c-0.397-1.023-1.198-0.289-2.127,0.036"/>
		</g>
	</g>
	<g>
		<g>
			<path fill="#25242B" d="M269.114,82.333c6.813,5.935,12.488,12.725,12.259,22.002c-0.126,5.13-1.661,10.209-3.111,15.101
				c-1.324,4.469-3.04,8.604-5.284,12.706c-5.204,9.513-14.633,14.567-25.01,16.935c-11.287,2.577-21.539-0.34-30.756-7.174
				c-2.977-2.208-5.561-4.544-7.585-7.654c-1.081-1.66-2.287-3.213-3.156-4.992c-0.548-1.121-0.683-2.512-1.191-3.651
				c-0.241-0.078-1.77,0.868-2.021,0.981c1.84,4.122,4.43,7.814,7.33,11.31c3.031,3.652,6.763,6.377,10.853,8.734
				c10.368,5.977,21.94,6.655,33.039,2.647c9.661-3.488,15.744-8.553,20.712-17.612c2.688-4.902,3.942-10.27,5.196-14.817
				c1.321-4.796,1.61-9.805,1.387-14.804c-0.391-8.793-4.437-16.168-10.893-21.791c-0.328,0.376-0.635,0.802-0.962,1.178"/>
		</g>
	</g>
	<g>
		<g>
			<path fill="#25242B" d="M307.761,147.227c-1.184,4.288-2.159,8.956-4.259,12.905c-1.662,3.124-3.509,5.415-2.359,9.111
				c0.354-0.109,0.81-0.209,1.165-0.319c0.727-0.226-0.235-1.471-0.288-2.145c-0.124-1.585,0.736-2.905,1.548-4.207
				c1.233-2.167,2.131-4.345,2.917-6.715c1.075-3.241,2.1-6.496,3.027-9.78c0.31-1.102,0.421-2.259,0.732-3.36
				c0.255-0.904-0.514-0.875-1.344-1.121c-0.508,1.802-1.051,3.712-1.56,5.514"/>
		</g>
	</g>
	<g>
		<g>
			<path fill="#25242B" d="M226.487,287.316c4.833,4.061,4.175,12.327,6.697,17.688c1.305,2.771,2.375,5.576,2.915,8.587
				c0.081,0.444,0.596,4.229,0.71,4.212c0.716-0.105,1.603-0.356,2.319-0.462c-0.415-2.83-0.814-5.755-1.62-8.505
				c-0.793-2.712-2.53-5.079-3.34-7.779c-1.528-5.093-1.948-11.754-6.29-15.403c-0.482,0.573-0.809,1.044-1.291,1.618"/>
		</g>
	</g>
	<g>
		<g>
			<path fill="#25242B" d="M224.743,306.853c2.571,1.815,3.25,4.468,3.992,7.368c0.765,2.985,2.139,5.617,4.673,7.518
				c0.249-0.331,1.365-1.394,1.333-1.772c-1.721-1.293-2.646-3.11-3.253-5.144c-1.138-3.823-1.913-7.397-5.4-9.864
				c-0.433,0.612-0.811,1.165-1.244,1.777"/>
		</g>
	</g>
	<g>
		<g>
			<path fill="#25242B" d="M219.768,317.405c-0.371,1.273-0.81,2.531-1.181,3.805c-0.319,1.102,0.957,0.985,1.906,1.29
				c0.88-3.029,1.743-6.063,2.667-9.082c0.765-2.492,1.5-5.076,2.791-7.354c0.259-0.46,1.5-1.595,1.093-1.935
				c-0.504-0.419-1.093-0.9-1.597-1.319c-3.308,3.969-4.612,9.659-5.956,14.519"/>
		</g>
	</g>
	<g>
		<g>
			<path fill="#25242B" d="M199.012,313.073c0.672,0.333,1.31,0.665,1.983,0.998c3.551-7.142,5.199-15.046,6.885-22.794
				c-1.099-0.238-2.111-0.979-2.385,0.273c-0.545,2.483-0.977,4.993-1.605,7.457c-1.229,4.812-2.779,9.559-4.995,14.016"/>
		</g>
	</g>
	<g>
		<g>
			<path fill="#25242B" d="M199.181,309.85c1.348,6.391-1.715,13.71,1.629,19.707c0.338-0.19,1.872-0.728,1.967-1.062
				c-0.917-1.644-1.367-3.547-1.412-5.392c-0.113-4.55,0.94-9.193-0.006-13.701c-0.734,0.153-1.26,0.297-1.994,0.452"/>
		</g>
	</g>
	<g>
		<g>
			<path fill="#25242B" d="M212.206,314.705c0.096,1.955,0.004,3.927-0.157,5.879c-0.025,0.301-0.368,2.2-0.171,2.222
				c0.461,0.053,0.848,0.129,1.308,0.182c0.319-2.775,0.599-5.563,0.463-8.357c-0.5,0.027-0.938,0.065-1.437,0.092"/>
		</g>
	</g>
	<g>
		<g>
			<path fill="#25242B" d="M205.98,323.115c0.096,0.778,0.151,1.562,0.247,2.342c0.104,0.864,0.748,0.43,1.532,0.371
				c-0.12-0.99-0.177-1.941-0.306-2.931c-0.218-1.477-0.356-2.967-0.316-4.465c-0.217-0.179-1.204-0.01-1.503-0.018
				c-0.041,1.583,0.176,3.129,0.406,4.69"/>
		</g>
	</g>
	<g>
		<g>
			<path fill="#25242B" d="M201.788,320.108c0,1.838,0.004,3.678,0.004,5.516c0,1.04,0.05,2.079,0.05,3.12
				c0,0.546,1.243,0.733,1.539,0.423c0.176-0.184-0.065-1.461-0.065-1.702c0-1.29,0.047-2.581,0.047-3.871
				c0-1.041-0.129-2.08-0.129-3.12c0-0.701-0.825-0.355-1.412-0.355"/>
		</g>
	</g>
	<g>
		<g>
			<path fill="#25242B" d="M211.818,315.068c0.129,0.721,1.094,0.111,1.625-0.049c-0.365-1.198-0.868-2.48-0.779-3.756
				c0.044-0.63,0.543-0.933-0.027-1.289c-0.313-0.196-0.66-0.401-0.974-0.597c-1.078,1.722-0.331,3.899,0.213,5.674"/>
		</g>
	</g>
	<g>
		<g>
			<path fill="#25242B" d="M275.284,284.732c5.429,3.595,9.782,8.716,15.693,11.594c2.777,1.353,5.6,1.729,8.64,1.476
				c1.524-0.127,3.021-0.184,4.552-0.133c1.075,0.037,0.832-0.927,0.902-1.896c-2.505-0.18-5.036,0.382-7.534,0.43
				c-2.842,0.056-5.473-0.621-7.89-2.051c-4.956-2.934-8.728-7.535-13.518-10.704c-0.275,0.417-0.576,0.875-0.851,1.292"/>
		</g>
	</g>
	<g>
		<g>
			<path fill="#25242B" d="M268.932,291.196c-1.812,1.621-3.76,3.192-6.045,4.12c-0.845,0.343-1.75,0.157-1.579,1.173
				c0.093,0.547,0.048,1.159,0.141,1.707c4.314-0.729,7.327-4.102,10.499-6.814c1.523-1.304,3.218-2.421,5.13-3.091
				c1.059-0.371,0.28-1.47,0.009-2.454c-3.226,0.891-5.798,3.083-8.235,5.266"/>
		</g>
	</g>
	<g>
		<g>
			<path fill="#25242B" d="M258.838,303.207c-1.616,3.156-2.246,6.206-2.281,9.737c-0.013,1.41-0.309,2.73-0.746,4.07
				c-0.277,0.852-1.113,1.75-0.113,2.129c0.52,0.198,0.872,0.305,1.391,0.501c0.753-1.983,1.662-3.926,1.744-6.065
				c0.056-1.503-0.073-3.026,0.216-4.507c0.463-2.37,1.862-4.434,2.914-6.575c1.197-2.436,2.454-4.918,3.397-7.461
				c-0.521-0.193-1.266-0.452-1.787-0.644c-1.077-0.402-1.149,1.74-1.509,2.623c-0.88,2.156-2.128,4.138-3.189,6.211"/>
		</g>
	</g>
	<g>
		<g>
			<path fill="#25242B" d="M290.656,314.036c0.452,0.599,0.8,1.071,1.254,1.669c5.398-4.097,8.199-11.294,8.281-17.9
				c-0.404-0.005-1.926-0.248-2.195,0c-0.024,2.07-0.478,4.124-1.043,6.114c-1.084,3.811-3.182,7.595-6.387,10.027"/>
		</g>
	</g>
	<g>
		<g>
			<path fill="#25242B" d="M260.415,312.127c-0.971,2.118-1.883,4.26-2.919,6.347c-0.168,0.338-1.369,2.571-1.205,2.659
				c0.406,0.222,0.609,0.537,1.017,0.759c2.224-4.106,4.018-8.4,6.004-12.623c0.974-2.069,2.009-4.122,3.12-6.123
				c0.18-0.322,1.638-2.366,1.488-2.46c-0.393-0.247-0.659-0.56-1.052-0.807c-2.454,3.92-4.57,8.034-6.494,12.229"/>
		</g>
	</g>
	<g>
		<g>
			<path fill="#25242B" d="M269.142,313.96c-1.6,1.794-3.429,3.599-4.296,5.883c0.892,0.34,1.251,0.836,1.699-0.087
				c0.771-1.588,1.929-2.979,3.09-4.291c0.982-1.107,1.931-2.223,2.885-3.354c-0.582-0.432-0.932-1.123-1.456-0.503
				c-0.653,0.772-1.361,1.499-2.014,2.273"/>
		</g>
	</g>
	<g>
		<g>
			<path fill="#25242B" d="M276.573,316.123c0.307,0.395,0.589,0.803,0.896,1.196c0.957-0.829,1.953-1.647,2.909-2.477
				c-0.71-0.738-0.839-1.336-1.645-0.639c-0.735,0.637-1.427,1.327-2.163,1.965"/>
		</g>
	</g>
	<g>
		<g>
			<path fill="#25242B" d="M338.843,246.564c0.109,1.73,0.116,3.217-1.049,4.614c-0.937,1.126-2.189,1.969-3.302,2.912
				c-0.945,0.801-0.05,1.146,0.653,1.983c2.991-2.512,5.917-4.626,5.726-8.78c-0.063-1.356-0.117-2.707-0.151-4.063
				c-0.04-1.642-0.292-1.204-1.941-1.248c0.039,1.558,0.013,3.025,0.051,4.582"/>
		</g>
	</g>
	<g>
		<g>
			<path fill="#25242B" d="M331.955,262.558c-1.375,3.431-3.118,6.707-4.061,10.292c-1.577,5.997-1.668,12.362-3.285,18.356
				c-1.146,4.248-2.264,8.526-3.5,12.748c-0.948,3.245-2.078,6.556-3.566,9.596c-0.196,0.403-2.823,3.812-2.785,3.838
				c0.61,0.392,1.692,0.731,2.302,1.125c4.078-6.328,6.156-13.837,7.995-21.051c1-3.805,1.181-7.822,2.064-11.654
				c1.453-6.303,2.719-12.614,5.137-18.649c2.231-5.57,4.62-11.057,5.512-17.04c-0.55-0.082-0.603,0.174-1.152,0.092
				c-1.127-0.169-0.735,1.769-0.981,2.719c-0.864,3.325-2.708,6.317-4.038,9.477"/>
		</g>
	</g>
	<g>
		<g>
			<path fill="#25242B" d="M267.185,261.831c0.249,7.325-2.341,14.055-4.617,20.883c-2.237,6.709-3.75,13.586-4.636,20.609
				c1.575,0.199,1.491,0.346,1.734-1.372c0.309-2.176,1.005-4.269,1.462-6.42c0.764-3.609,1.428-7.228,2.563-10.737
				c2.432-7.519,5.792-14.993,5.52-23.049c-0.5,0.018-1.607,0.045-2.106,0.062"/>
		</g>
	</g>
	<g>
		<g>
			<path fill="#25242B" d="M250.314,251.36c4.854,4.925,10.822,9.764,17.408,12.048c0.153-0.438,0.297-1.044,0.45-1.481
				c0.054-0.157-2.001-0.813-2.3-0.949c-2.288-1.045-4.484-2.338-6.554-3.762c-2.058-1.417-4.028-2.986-5.89-4.652
				c-0.754-0.677-1.356-1.538-2.068-2.259c-0.241,0.005-0.993,1-1.183,1.187"/>
		</g>
	</g>
	<g>
		<g>
			<path fill="#25242B" d="M265.917,262.871c0.255,0.269,0.645,0.55,0.899,0.819c0.513,0.537,1.099-0.366,1.544-0.779
				c1.621-1.5,3.296-2.932,5.033-4.297c1.854-1.459,3.789-2.793,5.848-3.952c0.304-0.171,2.401-1.321,2.335-1.466
				c-0.188-0.424-0.335-0.749-0.523-1.172c-5.694,2.528-10.68,6.565-15.155,10.816"/>
		</g>
	</g>
	<g>
		<g>
			<path fill="#25242B" d="M200.799,289.632c-0.157,3.263-0.166,6.534-0.321,9.8c-0.094,1.963-0.574,3.909-0.668,5.874
				c-0.084,1.729-0.061,1.349,1.789,1.46c0.261-5.455,0.761-10.819,1.02-16.275c0.097-1.983,0.426-3.955,0.514-5.94
				c0.075-1.701-0.334-3.421-0.258-5.123c0.059-1.345-0.075-0.839-1.408-0.905c-0.166,3.731-0.721,7.368-0.888,11.1"/>
		</g>
	</g>
	<g>
		<g>
			<path fill="#25242B" d="M306.846,180.972c1.486,7.792-1.912,14.897-8.321,19.299c-3.505,2.409-7.563,3.472-11.88,3.362
				c-4.859-0.123-9.444-1.799-13.89-3.578c-0.172,0.43-0.101,1.076-0.272,1.507c-0.081,0.201,2.509,1.477,2.903,1.627
				c2.438,0.922,4.992,1.723,7.56,2.192c5.427,0.993,10.653-0.212,15.305-3.125c7.458-4.672,11.71-12.709,10.023-21.561
				c-0.491,0.094-1.073,0.209-1.563,0.303"/>
		</g>
	</g>
	<g>
		<g>
			<path fill="#25242B" d="M303.263,216.824c-2.28,3.16-4.322,6.444-6.03,9.948c2.59-0.705,5.003-1.664,7.1-3.418
				c-0.297-0.355-0.479-0.646-0.776-1.001c-0.02-0.025-2.883,1.508-3.265,1.681c3.814-6.598,9.927-12.349,11.473-20.055
				c-0.282-0.057-1.205-0.439-1.44-0.312c-0.318,1.592-0.691,3.196-1.39,4.659c-1.472,3.081-3.714,5.718-5.705,8.475"/>
		</g>
	</g>
	<g>
		<g>
			<path fill="#25242B" d="M163.236,90.694c2.036,3.148,4.202,6.324,7.23,8.569c2.683,1.988,6.395,2.696,8.709,5.141
				c3.753,3.966,4.069,10.282,5.287,15.39c1.046-0.282,2.209-0.164,1.937-1.308c-0.274-1.149-0.462-2.319-0.721-3.473
				c-0.894-3.976-2.146-8.102-4.868-11.272c-2.711-3.158-6.861-4.377-10.024-7.005c-1.652-1.372-3.072-2.963-4.349-4.687
				c-0.217-0.293-1.653-2.345-1.784-2.259c-0.497,0.321-1.141,0.71-1.636,1.031"/>
		</g>
	</g>
	<g>
		<g>
			<path fill="#25242B" d="M189.71,116.712c-1.321,0.664-2.991,1.56-4.503,0.977c-0.555-0.214-0.73-0.803-1.167-0.29
				c-0.324,0.38-0.636,0.69-0.961,1.072c1.586,1.351,3.511,1.583,5.414,0.897c1.194-0.431,3.634-2.407,4.881-1.769
				c0.773,0.399,0.968,1.642,1.147,2.385c0.136,0.566,0.027,1.4,0.744,1.286c0.494-0.078,0.946-0.175,1.441-0.253
				c-0.241-1.521-0.45-3.365-1.515-4.554c-1.526-1.706-3.754-0.542-5.449,0.312"/>
		</g>
	</g>
	<g>
		<g>
			<path fill="#25242B" d="M217.131,124.527c-3.441,2.213-6.432,2.791-9.075-0.689c-0.501-0.771-1.266-1.205-2.254-1.31
				c-0.803-0.085-1.386,0.083-2.146,0.173c-2.087,0.248-2.02-1.797-1.771-3.448c-1.147,0.202-2.456,0.286-3.609,0.441
				c-0.756,0.103-1.471,0.53-2.227,0.631c-0.157,0.022-0.015,1.35-0.003,1.567c1.343-0.181,2.858-0.675,4.192-0.909
				c0.067,1.593,0.786,2.747,1.975,3.576c0.821,0.574,2.013-0.146,2.859-0.449c1.15-0.41,1.709,0.376,2.301,1.203
				c0.787,1.097,1.79,2.355,3.111,2.665c3.221,0.752,6.765-1.908,9.125-3.836c3.003-2.457,5.513-5.477,7.887-8.527
				c-0.838-0.651-1.11-1.36-1.857-0.416c-1.063,1.346-1.824,2.952-2.975,4.224c-1.664,1.838-3.681,3.377-5.778,4.725"/>
		</g>
	</g>
	<g>
		<g>
			<path fill="#25242B" d="M171.217,72.093c1.197,2.785,4.903,3.532,7.616,3.799c3.808,0.376,7.668-0.292,11.457-0.713
				c1.986-0.223,4.006,0.047,6.004-0.032c2.048-0.082,4.136-0.264,6.064,0.549c2.151,0.906,2.896,3.14,4.911,4.199
				c0.215-0.41,0.636-0.779,0.851-1.189c-0.022,0.041-2.167-2.153-2.386-2.431c-1.568-1.992-3.809-2.839-6.267-3.005
				c-2.773-0.189-5.569,0.228-8.327,0.51c-4.063,0.461-8.213,0.737-12.303,0.315c-1.564-0.161-3.455-0.008-4.789-0.899
				c-0.577-0.387-1.157-0.98-1.434-1.623c-0.242-0.082-0.951,0.324-1.206,0.434"/>
		</g>
	</g>
	<g>
		<g>
			<path fill="#25242B" d="M213.445,71.86c0.007,2.602-2.758,4.464-4.89,5.314c-0.98,0.389-2.057,0.601-3.111,0.677
				c-0.745,0.053-0.428,0.788-0.427,1.464c3.978-0.007,9.931-2.878,9.922-7.457c-0.5,0-1.075-0.04-1.575-0.038"/>
		</g>
	</g>
	<g>
		<g>
			<path fill="#25242B" d="M216.107,61.215c-4.676,1.646-5.364,7.333-3.708,11.472c0.429-0.171,0.904-0.157,1.334-0.329
				c-0.018,0.008-0.548-3.229-0.558-3.665c-0.048-2.297,0.713-4.664,2.878-5.69c3.82-1.813,6.346,0.879,8.514,3.667
				c2.464,2.821,3.381,7.576,2.925,11.217c-0.224,1.785-1.012,3.505-2.706,4.365c-0.796,0.405-1.66,0.479-2.545,0.462
				c-0.171,0.182,0.01,1.417,0.004,1.69c7.803,0.151,7.572-9.372,5.621-14.621c-1.726-4.641-6.163-10.277-11.679-8.336"/>
		</g>
	</g>
	<g>
		<g>
			<path fill="#25242B" d="M216.227,72.068c0.054,1.97,1.053,3.349,3.179,2.899c0.061,0.298,0.243,2.713,0.182,2.696
				c0.445,0.126,0.858,0.257,1.303,0.383c0.465-1.645,0.084-3.264-0.412-4.847c-0.601,0.215-1.998,0.9-2.425,0.139
				c-0.146-0.262-0.243-1.351-0.407-1.346c-0.463,0.013-0.939,0.054-1.402,0.067"/>
		</g>
	</g>
	<g>
		<g>
			<path fill="#25242B" d="M219.274,64.592c-2.829,0.622-4.264,3.9-4.069,6.541c0.978-0.073,1.428,0.269,1.478-0.764
				c0.073-1.526,0.782-3.106,2.106-3.95c1.292-0.82,2.413-0.238,3.097,1.001c0.573,1.038,0.7,0.649,1.805,0.234
				c-0.7-1.868-2.263-3.653-4.441-3.174"/>
		</g>
	</g>
	<g>
		<g>
			<path fill="#25242B" d="M216.735,70.026c0.713,1.209,0.58,1.408,1.903,0.834c1.557-0.677,3.302-0.709,4.154,0.983
				c0.605,1.201,1.193,4.094,0.008,4.961c-1.641,1.201-0.324,2.568,1.006,3.221c0.204-0.417,0.482-0.787,0.686-1.203
				c0.117-0.238-0.844-0.485-0.997-0.789c2.5-0.417,1.318-5.439,0.56-6.892c-1.541-2.959-4.794-2.555-7.266-1.099"/>
		</g>
	</g>
	<g>
		<g>
			<path fill="#25242B" d="M225.408,64.456c0.018,0.463-0.061,1.021-0.043,1.484c0.004,0.127,2.023,0.246,2.328,0.299
				c2.036,0.354,4.037,1.047,5.839,2.046c1.794,0.992,3.385,2.346,4.846,3.79c0.211,0.209,1.346,1.456,1.471,1.362
				c0.371-0.277,0.951-0.513,1.321-0.791c-3.382-4.521-9.99-8.341-15.752-8.131"/>
		</g>
	</g>
	<g>
		<g>
			<path fill="#25242B" d="M188.65,25.917c-18.422,2.545-32.287,19.471-35.47,37.297c1.271,0.227,1.669,0.776,1.956-0.605
				c0.303-1.471,1.233-2.811,1.691-4.241c1.071-3.333,2.536-6.533,4.268-9.574c4.098-7.201,10.065-13.348,17.622-16.908
				c16.419-7.737,40.816-4.079,50.9,11.932c2.711,4.306,3.831,9.54,5.014,14.437c1.321,5.463,1.777,11.235,4.644,16.175
				c0.334-0.193,1.921-0.741,2.009-1.074c-0.994-1.71-1.849-3.425-2.324-5.339c-0.821-3.307-1.388-6.67-2.181-9.985
				c-1.585-6.625-3.645-13-8.029-18.347c-9.62-11.733-25.56-15.311-40.036-13.31"/>
		</g>
	</g>
	<g>
		<g>
			<path fill="#25242B" d="M224.952,36.665c0.211,0.212,0.687,0.91,0.965,0.946c0.579-0.578,1.425-0.987,2.259-0.68
				c1.433,0.533,2.375,2.285,2.968,3.57c0.771,1.676,1.33,3.479,1.75,5.273c0.133,0.574,0.234,1.166,0.278,1.755
				c0.186,0.152,1.276-0.082,1.541-0.103c-0.284-3.776-4.341-16.243-9.805-10.797"/>
		</g>
	</g>
	<g>
		<g>
			<path fill="#25242B" d="M228.051,37.021c0.525,0.619,1.347,2.226,2.067,1.688c1.289-0.959,2.665-1.752,4.258-1.849
				c3.7-0.226,7.537,1.122,10.736,2.827c7.05,3.759,13.09,9.38,16.846,16.514c2.082,3.955,3.998,8.423,3.964,12.919
				c-0.023,2.945-1.963,5.766-2.474,8.657c-0.708,3.996,0.184,8.648,0.791,12.699c0.677,4.515,3.567,7.354,6.734,10.584
				c0.779-0.767,0.407-0.57-0.426-1.468c-1.481-1.594-2.625-3.444-3.535-5.426c-1.683-3.672-2.29-7.678-1.812-11.626
				c0.385-3.183,1.269-6.314,1.825-9.471c0.774-4.375,0.872-9.036-0.563-13.219c-2.83-8.256-9.042-14.958-16.235-19.723
				c-5.964-3.951-15.39-8.319-21.899-2.788"/>
		</g>
	</g>
	<g>
		<g>
			<path fill="#25242B" d="M235.767,43.986c0.001,1.342-0.359,1.625,0.909,1.891c1.115,0.234,2.306,0.725,3.021,1.59
				c1.943,2.348,2.429,5.86,2.977,8.782c1.403,7.465,0.984,15.061,1.403,22.606c0.41,7.363,4.493,14.979,10.882,18.863
				c3.12,1.898,6.598,2.989,10.232,2.856c3.305-0.12,7.401-1.228,9.277-4.293c-0.428-0.261-0.483-0.812-0.911-1.074
				c-0.536-0.329-0.697,0.875-1.122,1.253c-1.181,1.045-2.878,1.791-4.395,2.096c-3.724,0.751-7.651-0.059-11.041-1.798
				c-6.417-3.292-10.225-10.731-10.652-17.809c-0.447-7.419-0.207-14.878-1.479-22.234c-0.827-4.786-2.884-12.877-9.111-12.865"/>
		</g>
	</g>
	<g>
		<g>
			<path fill="#25242B" d="M232.794,45.73c2.307,1.143,4.895,1.622,7.417,2.039c0.347,0.057,2.402,0.655,2.701,0.401
				c0.198-0.168,0.208-1.071,0.251-1.349c-2.019-0.306-4.009-0.723-5.993-1.213c-1.264-0.312-2.516-0.707-3.684-1.287
				c-0.237,0.098-0.555,1.137-0.68,1.387"/>
		</g>
	</g>
	<g>
		<g>
			<path fill="#25242B" d="M260.949,84.314c0.486,4.153,2.253,8.134,6.084,10.114c3.208,1.659,7.013,1.712,10.555,1.571
				c-0.035-0.894,0.306-1.615-0.696-1.591c-1.371,0.031-2.73,0.053-4.092-0.112c-2.139-0.259-4.332-0.708-6.126-1.938
				c-1.6-1.097-2.719-2.713-3.41-4.516c-0.393-1.027-0.708-2.091-0.865-3.179c-0.12-0.837-0.647-0.435-1.395-0.347"/>
		</g>
	</g>
	<g>
		<g>
			<path fill="#25242B" d="M236.937,70.233c1.314,3.684,3.429,8.571,7.368,10.066c0.565-1.485,0.606-1.301-0.634-2.191
				c-1.255-0.901-2.246-2.13-3.034-3.441c-0.752-1.252-1.417-2.562-1.954-3.919c-0.489-1.238-0.606-0.948-1.823-0.514"/>
		</g>
	</g>
	<g>
		<g>
			<path fill="#25242B" d="M160.692,89.299c2.536,2.27,5.54,3.832,8.848,4.607c1.739,0.407,3.489,0.854,5.273,0.866
				c1.236,0.008,4.134,0.322,4.257-1.125c0.018-0.207,0.327-1.095,0.222-1.285c-0.9-0.294-1.939-0.299-2.809-0.675
				c-1.547-0.671-3.13-1.426-4.489-2.432c-1.122-0.832-1.855-2.113-2.643-3.272c-0.745-1.101-1.007-0.43-2.144,0.168
				c1.614,3.068,4.527,5.22,7.579,6.683c-6.201-0.062-12.313-2.705-15.876-7.901c-1.664-2.425-2.496-5.319-2.976-8.215
				c-0.246-1.499-0.245-2.997-0.215-4.516c0.016-0.865-1.304-0.533-2.061-0.562c-0.24,6.605,1.793,13.42,6.809,17.911"/>
		</g>
	</g>
	<g>
		<g>
			<path fill="#25242B" d="M169.28,76.981c-0.463,0.023-0.819-0.074-1.282-0.051c2.68,3.662,5.892,6.113,10.061,7.872
				c-2.78-0.294-5.659-0.818-8.131-2.187c-1.18-0.652-2.148-1.663-2.811-2.855c-0.624-1.12-0.593-0.806-1.816-0.397
				c1.812,5.411,8.958,6.636,13.854,7.008c1.14,0.086,2.285-0.029,3.427-0.029c0.481,0,0.279-0.153,0.349-0.601
				c0.158-1.002-0.111-0.743-1.088-1.09c-3.891-1.388-7.96-3.234-10.853-6.279c3.408-0.009,6.875,0.395,10.274,0.621
				c0.011-0.206,0.143-1.45,0.011-1.458c-0.899-0.06-1.799-0.157-2.698-0.217c-3.097-0.209-6.185-0.408-9.292-0.25"/>
		</g>
	</g>
	<g>
		<g>
			<path fill="#25242B" d="M148.369,73.517c0.311,3.615,2.435,6.445,5.624,8.083c0.158-0.308,0.891-1.257,0.812-1.563
				c-1.374-0.708-2.54-1.752-3.388-3.057c-1.603-2.467-1.409-5.494-0.624-8.215c0.891-3.078,2.568-5.878,4.616-8.324
				c0.896-1.073,1.644-2.329,2.733-3.207c0.73-0.591-0.189-1.228-0.691-1.896c-5.229,3.938-9.684,11.413-9.104,18.18"/>
		</g>
	</g>
	<g>
		<g>
			<path fill="#25242B" d="M183.848,100.014c0.211,0.455,0.466,0.997,0.675,1.45c2.672-1.23,5.446-2.772,7.506-4.91
				c-0.333-0.322-0.608-0.671-0.942-0.992c-0.094-0.091-1.702,1.374-1.963,1.561c-1.626,1.165-3.415,2.122-5.228,2.957"/>
		</g>
	</g>
	<g>
		<g>
			<path fill="#25242B" d="M187.969,98.091c0.412,0.617,0.883,1.212,1.266,1.849c-0.303-0.094-1.947-0.983-1.96-0.97
				c-0.333,0.323-0.653,0.65-0.986,0.972c0.948,0.973,2.247,1.51,3.579,1.694c0.806,0.111,0.527-0.557,1.044-1.072
				c0.572-0.569-1.575-3.073-1.881-3.52c-0.35,0.356-0.721,0.657-1.071,1.013"/>
		</g>
	</g>
	<g>
		<g>
			<path fill="#25242B" d="M175.469,97.529c0.354,0.107,0.674,0.145,1.028,0.251c0.713,0.214,0.658-0.971,0.898-1.549
				c0.539-1.301,1.342-2.55,2.48-3.415c1.047-0.795,2.336-1.092,3.636-1.125c0.259-0.006,1.471,0.104,1.491-0.078
				c0.051-0.46,0.167-0.932,0.219-1.392c-5.259-0.591-8.368,2.548-9.795,7.301"/>
		</g>
	</g>
	<g>
		<g>
			<path fill="#25242B" d="M199.682,119.56c0.186,0.465,0.362,0.932,0.548,1.396c1.78-0.717,3.428-1.721,4.901-2.949
				c-0.437-0.523-0.737-1.37-1.339-0.888c-1.255,1.004-2.622,1.845-4.113,2.446"/>
		</g>
	</g>
	<g>
		<g>
			<path fill="#25242B" d="M223.516,117.913c0.118,0.935-0.197,1.443,0.815,1.404c1.789-0.073,3.558,0.338,5.153,1.103
				c1.429,0.686,2.756,1.575,4.057,2.474c1.264,0.874,1.039,0.731,1.853-0.426c-3.47-2.44-7.451-5.289-11.922-4.724"/>
		</g>
	</g>
</g>
<g>
	<g>
		<path fill="#F4BF9A" d="M576.822,348.983c4.125-1.5,11.624-5.999,16.874-11.625c5.25-5.625,5.626-5.625,8.251-7.125
			c2.625-1.499,2.999-3.375,4.125-2.999c1.125,0.374,5.624,3.75,7.124,7.875s-0.374,6.374-0.749,8.249
			c-0.376,1.875-0.751,1.875-0.751,4.125c0,2.251-1.125,6.001-4.499,10.126c-3.376,4.125-5.25,2.625-11.625,9.749
			c-6.376,7.126-7.875,9-10.5,9.375c-2.625,0.376-2.625,0.376-2.625,0.376L576.822,348.983z"/>
		<path fill="#CFD2D8" d="M149.697,380.109c-12.882-0.135-53.024-6.926-60.649,6.077c15.845,4.437,35.494,1.466,52.455,1.422
			c15.508-0.039,26.206,5.906,41.698,6.115c-15.135,22.53,14.787,18.46,33.516,19.368c24.812,1.201,49.705,1.761,74.634,2.999
			c36.382,1.808,99.777,14.626,134.537-1.5c-7.551-6.4-20.276-3.255-27.329-9.603c22.04-2.136,41.014-1.025,62.215,1.954
			c28.889,4.058,55.46-2.991,84.11-4.538c21.281-1.15,58.151,1.359,75.167-8.84c-6.982-6.425-18.804-8.251-24.022-13.494
			c1.422-0.911,3.161-1.35,4.505-2.173c-0.021-0.021-0.157-2.201-0.185-2.175c-85.114-3.181-169.917-8.522-254.873-16.795
			c-46.649-4.544-97.543-6.301-144.019,0.111c-19.947,2.75-38.612,12.555-58.51,14.32"/>
		<path fill="#F4BF9A" d="M550.946,343.733c3.376-1.874,12.375-9,18.376-10.124c6-1.125,11.999-6.001,13.125-7.875
			c1.125-1.876,3.75-6.751,3.75-6.751l4.125,2.25l1.499-2.625c0,0,4.5,3.75,0.751,8.626c-3.75,4.874-4.501,6.75-4.875,9.375
			c-0.375,2.625-4.5,6.375-10.5,9c-6.001,2.625-26.251,6.75-26.251,6.75V343.733z"/>
		<path fill="#476687" d="M474.821,347.109c-10.089-3.272,19.5-4.876,31.876-5.626c12.375-0.75,8.624,0.75,12.749,3.001
			c4.125,2.249,7.875,0.749,10.126-0.751c2.249-1.5,15.374-2.625,18.749-2.625c3.376,0,3.376,0,3.376,0s0.749,6.001,1.124,10.126
			C553.197,355.358,488.697,351.608,474.821,347.109z"/>
		<path fill="#476990" d="M577.197,345.609c0,0-19.875,3.374-32.251,3.749c-12.375,0.376-11.624-0.75-25.125-0.75
			c-13.5,0-15.749-0.374-31.499-3.375c-15.75-3-31.125-9-37.126-9c-5.999,0-12.749,0-21.375,0c-8.624,0-14.25-3-30.375-4.874
			c-16.124-1.876-29.249-7.126-38.999-8.25c-9.751-1.125-23.25-2.25-28.875-2.625c-5.626-0.376-7.5-0.376-9-0.376
			c-1.5,0-9,0.376-9,0.376s1.125,7.499,0.75,19.499c-0.376,12,0,15.001,1.5,24.001c1.5,8.999,1.5,10.5,1.5,10.5l10.5,16.874
			c0,0,50.625,8.251,71.25,6.001c20.625-2.251,30,0.749,40.875,1.874c10.874,1.125,34.125,0.751,54,0
			c19.875-0.749,32.249-1.125,52.5-2.249c20.25-1.125,29.999-1.125,29.999-1.125s6.001-6.001,8.251-9.001
			c2.249-2.999,2.249-2.999,2.249-2.999s0.376-4.876-1.874-13.876c-2.251-9,0-12.374-1.126-16.875
			C582.821,348.608,578.696,345.233,577.197,345.609z"/>
		<path fill="#355673" d="M327.822,375.608c8.341,4.764,19.182,4.521,28.533,6.373c12.301,2.435,25.303,4.733,37.876,7.137
			c19.073,3.646,39.443,5.241,58.876,5.241c27.418,0,54.388,2.559,80.967-2.646c14.697-2.878,30.854-0.275,45.758-1.46
			c0.569-0.046,1.215-0.336,1.864-0.395l-3.374,4.876c0,0-23.251,2.625-38.626,2.625c-15.374,0-38.999,2.25-60,2.25
			c-21,0-40.124-0.751-47.624-1.501c-7.501-0.749-12.375-1.875-18.001-1.875c-5.625,0-18.375,0.751-18.375,0.751
			s-16.499,0-40.499-1.125C331.196,394.734,327.822,375.608,327.822,375.608z"/>
		<path fill="#F4BF9A" d="M313.946,321.984c-8.625-1.5-11.625-3.376-33.375-2.251c-21.75,1.126-24-1.125-37.125-1.125
			s-22.125,2.625-29.625,6.001c-7.5,3.374-11.625,8.249-17.25,6.75c-5.625-1.5-12-4.125-16.5-4.125c-4.5,0-6.375-2.251-7.5-7.875
			c-1.125-5.626-3-9-7.875-7.501c-4.875,1.5-5.25-1.499-7.5-1.125c-2.25,0.375-3,1.125-4.125,1.125c-1.125,0-3,1.875-5.25,0
			c-2.25-1.874-4.875-6-6-2.625c-1.125,3.376-3.375,7.875-11.25,9.375c-7.875,1.5-9.375,1.125-13.125,3.75s-5.25,8.25-4.5,14.251
			c0.75,5.999,18.375,27.375,20.25,28.499c1.875,1.125,36.75,2.625,50.25,4.501c13.5,1.874,73.125,10.125,89.625,9.749
			c16.5-0.375,44.25-7.499,44.25-7.499s-2.25-6.751-2.625-25.126C314.322,328.359,313.946,321.984,313.946,321.984z"/>
		<path fill="#8F745E" d="M115.696,323.858c-4.32-0.212-8.477,0.569-11.491,3.458c1.866,0.025,3.877,0.207,5.748,0.024
			c-11.272,2.14-14.186,30.236-8.106,28.852c1.547,4.834,0.763,14.335,3.113,18.059c1.144-0.867,2.208-1.007,3.312-2.024
			c0.191,9.913,8.71,12.963,18.362,14.883c8.188,1.63,22.165,4.754,28.545-1.701c-0.261-0.229-0.693,0.07-0.958-0.281
			c0.008-0.014,0.025-1.291,0.064-1.23c4.611-0.082,7.48-2.488,6.686-7.251c5.626-1.467,18.089-6.29,13.724-14.229
			c-2.193-3.99-10.273-6.605-13.947-3.583c0.032-0.968-0.514-1.878-0.534-2.693c-6.589-0.203-12.038,5.385-18.819,4.519
			c-6.312-0.808-7.677-1.735-7.7-7.805c-0.015-3.715,1.906-2.659-0.613-6.303c-2.072-2.999-8-5.374-11.086-7.455
			c-5.632-3.798-6.817-5.87-6.799-12.562c0.001-0.643,0-1.284,0-1.926"/>
		<path fill="#6E7D8F" d="M368.447,389.359l4.752,27.25c0,0-14.752,4.749-31.002,3.999c-16.249-0.75-25-0.999-27.25-0.999
			c-2.25,0-23-0.749-27.5-1.5c-4.5-0.749-13.5-4.75-13.5-4.75s-4.501,0.499-13,0.251c-8.499-0.251-17.25-0.501-27.5-3.001
			s-20.75-5.75-23.25-8.25c-2.5-2.501-7-3-10.5-4.499c-3.499-1.5-7.5-4.501-7.5-4.501s-7.749-9-2-21.5
			c5.75-12.501,46.999-15.75,55.75-15.001c8.751,0.751,23.25,3.501,39.25,7.251s39.251,13.5,45.75,16.749
			c6.499,3.249,3.748,2.75,11.749,6.25c8,3.501,7,3.501,14.25,2.75C364.198,389.109,368.447,389.359,368.447,389.359z"/>
		<path fill="#7F90A7" d="M346.448,393.359l9.499-3c-5-2.501-8-4.502-13.25-6.5c-5.25-2-8.249-5.5-13.749-8.75
			c-5.501-3.25-12.5-5.25-21.751-8.251c-9.25-2.999-24.5-12.25-43-17.5s-32.749-8.751-43.25-8.999c-10.5-0.25-24.999-0.5-32.25,5.5
			s-9.501,7.749-13.001,17.749c-3.499,10.001-4,16.751-4,17.501s1.001,3.499,4.25,4.5c3.25,1,5.5,2.5,5.5,2.5
			s-2.499,6.999-2.499,9.624s3,5.25,4.125,4.876c1.125-0.375,5.25-4.876,6.75-6.376c1.5-1.499,1.5-1.499,1.5-1.499
			s2.25-4.876,2.25-15c0-10.125,9-15.75,18-16.875c9-1.125,30.375-1.125,30.375-1.125s3.375,3.75,15,5.999
			c11.625,2.25,18.75,5.626,18.75,5.626s4.125-3.75,7.875,1.5s10.125,5.624,19.125,7.875c9,2.249,13.125,1.874,19.5,2.625
			c6.374,0.749,11.624,4.874,11.624,4.874s4.881-1.266,7.127-1.124C344.948,389.357,346.448,393.359,346.448,393.359z"/>
		<path fill="#F4BF9A" d="M368.698,390.859c6.609-1.393,9.498,1.751,15.999,1.751s11.751,0,13.751,1.999c1.999,1.999-1.25,6-1.25,6
			s2.5-0.001,6-1c3.499-1,5.999-1.501,7.749-0.25c1.751,1.25,1.751,1.25,1.751,1.25s1.75,0.5,2.5,2.25c0.75,1.751,0.75,2.5,0.75,2.5
			l-2.25,1c0,0,0.75,2.749,0.5,3.75c0,0-5.249,1-11,3.25c-5.751,2.249-11.499,4.5-17.25,4.001
			c-5.751-0.501-12.749-0.751-12.749-0.751s-5.002-2.251-7.751-8.75C362.699,401.359,363.949,391.859,368.698,390.859z"/>
		<path fill="#586572" d="M239.448,361.607c11,0.252,22.25,1.001,28.75,3.001c6.5,2.001,8.25,3,8.25,3s13.749,5.751,20.75,6.749
			c7,1.003,25,3.001,30.75,7.002c5.751,4,8.251,7.5,8.251,7.5l-2.377,1.374c0,0-2.626-4.626-11.624-4.874
			c-8.999-0.25-24.249-3.249-30.25-5.5c-6-2.25-7.499-5.502-9.999-7.001c-2.5-1.5-5,0.501-5,0.501s-13.999-4.501-17.5-5.25
			c-3.501-0.751-12-2.251-12.75-3.001C245.949,364.359,239.448,361.607,239.448,361.607z"/>
		<path fill="#586572" d="M193.947,384.608c2.776,4.864,17.572,10.062,22.612,12.522c14.343,7.007,27.503,7.813,42.538,9.52
			c7.975,0.905,12.983,4.771,20.605,6.833c11.202,3.032,23.963,1.925,35.557,4.408c2.815,0.603,5.634,0.847,8.333,1.489
			c-34.395,1.228-42.173-4.475-63.221-5.231c-13.45-0.483-27.871-2.781-40.549-7.039c-4.819-1.619-8.092-3.859-12.29-6.165
			c-2.977-1.636-9.945-3.419-12.385-5.462c-2.706-2.261-5.172-2.76-1.949-7.499"/>
	</g>
	<g>
		<g>
			<g>
				<path fill="#25242B" d="M157.441,310.739c0.968,2.181,3.012,3.046,5.222,2.823c2.014-0.203,5.276-1.973,6.776-0.046
					c1.624,2.089,0.92,5.432,1.503,7.896c0.642,2.721,2.511,5.316,5.082,6.498c2.255,1.038,4.866,0.808,7.271,1.104
					c1.803,0.223,3.409,0.899,5.123,1.47c4.898,1.631,9.697,3.012,14.945,2.513c-0.061-0.652-0.479-1.547-0.542-2.199
					c-0.045-0.484-2.761,0.201-3.426,0.161c-3.168-0.182-6.012-1.897-8.985-2.938c-1.321-0.452-2.701-0.741-4.025-1.185
					c-2.807-0.932-5.817-0.503-8.585-1.464c-6.853-2.383-2.588-11.534-8.372-14.523c-2.733-1.413-5.692,0.745-8.496,0.304
					c-0.322-0.052-1.752-1.193-1.576-1.273c-0.662,0.294-1.141,0.556-1.803,0.851"/>
			</g>
		</g>
		<g>
			<g>
				<path fill="#25242B" d="M275.41,319.145c-11.814,1.354-23.528-1.294-35.316-1.294c-8.574,0-17.169,1.92-25.088,5.006
					c-3.792,1.479-7.682,2.818-11.388,4.499c-0.492,0.223-2.946,1.983-3.173,2.563c-0.123,0.313,0.794,2.175,0.95,2.521
					c10.538-4.802,21.074-10.623,32.673-12.167c6.331-0.843,12.784,0.787,19.128,1.229c6.337,0.438,12.716-0.47,19.062-0.927
					c6.093-0.438,12.129,0.205,18.255,0.229c8.535,0.031,16.753-0.177,24.942,1.929c0.05-0.268,0.086-0.456-0.04-0.488
					c-1.086-0.28-1.872-1.733-2.962-2.013c-2.461-0.635-4.924-1.277-7.429-1.756C295.221,316.607,285.272,318.013,275.41,319.145"/>
			</g>
		</g>
		<g>
			<g>
				<path fill="#25242B" d="M139.226,311.311c-1.359,2.596-2.778,4.52-5.678,5.479c-2.092,0.693-4.223,0.74-6.382,1.013
					c-4.758,0.6-9.146,3.004-13.02,5.695c0.25,0.359,0.572,0.962,0.823,1.323c0.528,0.754,0.378,0.815,1.269,0.211
					c1.791-1.215,3.561-2.559,5.527-3.471c2.326-1.077,4.825-1.307,7.371-1.494c4.117-0.305,8.327-1.168,10.808-4.756
					c1.151-1.667,1.702-3.706,2.819-5.396c0.499-0.75,1.197-0.984,0.465-1.61c-0.422-0.363-1.017-0.926-1.438-1.287
					c-1.063,1.24-1.671,2.925-2.425,4.366"/>
			</g>
		</g>
		<g>
			<g>
				<path fill="#25242B" d="M142.751,307.101c0.043,0.749-0.216,1.596,0.525,1.743c1.399,0.281,2.244,2.193,3.117,3.173
					c2.561,2.875,5.607,2.134,8.176-0.333c-0.25-0.262-0.968-1.279-1.302-1.317c-0.899,0.862-2.459,2.208-3.839,1.697
					c-2.708-1-3.274-5.164-6.696-4.97"/>
			</g>
		</g>
		<g>
			<g>
				<path fill="#25242B" d="M157.553,310.513c-0.642,0.313-1.05,1.067-1.6,0.607c-0.543-0.451-1.23-0.727-1.91-0.905
					c-0.119,0.447-0.272,0.896-0.391,1.344c0.007-0.025,1.62,0.924,1.825,1.217c0.538,0.763,0.794,1.768,1.166,2.617
					c0.146-0.739,0.177-1.619,0.463-2.313c0.208-1.039,1.5-1.577,2.309-2.153c-0.649-0.535-1.138-1.342-1.871-0.445"/>
			</g>
		</g>
		<g>
			<g>
				<path fill="#25242B" d="M152.183,348.188c1.075,2.501-0.88,4.161-2.413,5.886c-2.108,2.372-4.573,4.21-7.605,5.211
					c-2.559,0.842-5.843,1.034-7.222-1.833c-0.671-1.398-0.627-3.032-0.029-4.441c0.091-0.218,0.693-1.277,0.627-1.354
					c-0.302-0.352-0.444-0.63-0.746-0.981c-2.586,2.216-2.541,6.896-0.159,9.164c2.506,2.392,6.309,1.588,9.204,0.391
					c2.867-1.188,5.148-3.045,7.179-5.377c1.901-2.181,3.995-4.207,2.665-7.316c-0.46,0.198-1.079,0.435-1.538,0.631"/>
			</g>
		</g>
		<g>
			<g>
				<path fill="#25242B" d="M215.427,359.826c-4.636,1.394-9.234,3.092-13.314,5.701c-4.035,2.582-7.939,6.19-8.745,11.192
					c-0.554,3.433,0.018,6.787,0.093,10.218c0.068,2.998-1.176,5.69-2.813,8.188c-1.605,2.451-3.71,4.448-6.071,6.167
					c-1.132,0.826-2.104,1.906-3.34,2.568c-0.805,0.433-0.25,0.777,0.122,1.501c4.701-2.409,8.814-6.266,11.294-11.003
					c2.064-3.943,1.793-7.682,1.34-11.988c-0.426-4.047,0.302-7.629,2.991-10.821c4.33-5.139,11.42-7.725,17.672-9.79
					c4.131-1.365,8.273-2.832,12.602-3.29c1.919-0.201,3.863-0.842,5.792-0.782c0.329,0.012,2.974,0.787,2.992,0.608
					c0.044-0.462-0.367-1.439-0.323-1.899c-6.88-0.664-13.681,1.571-20.257,3.551"/>
			</g>
		</g>
		<g>
			<g>
				<path fill="#25242B" d="M181.8,373c0.154,6.969-0.814,14.541-2.539,21.307c-0.469,1.839-1.557,4.675-0.924,6.58
					c1.093,3.302,5.826,3.557,8.526,2.595c-0.493-1.383-0.241-1.421-1.712-1.192c-1.648,0.258-3.637-1.035-4.893-2.305
					c-1.37-1.385,0.284-3.64,0.703-5.301c1.737-6.891,2.203-14.596,2.046-21.692c-0.5,0.01-0.757-0.002-1.257,0.009"/>
			</g>
		</g>
		<g>
			<g>
				<path fill="#25242B" d="M181.358,353.508c-3.798,4.37-6.844,8.363-8.068,14.144c-0.816,3.86-1.705,7.908-2.058,11.846
					c-0.286,3.194,0.63,4.696,3.549,6.11c1.16,0.564,2.104,1.572,3.257,2.149c1.379,0.689,1.493,0.438,2.259-0.923
					c-2.007-1.006-4.485-1.863-6.334-3.137c-2.434-1.673-0.657-5.946-0.329-8.299c0.691-4.941,0.568-10.338,3.212-14.704
					c2.055-3.395,5.246-6.121,7.813-9.135c-0.567-0.462-1.096-1.322-1.632-0.692c-0.668,0.783-1.137,1.739-1.805,2.523"/>
			</g>
		</g>
		<g>
			<g>
				<path fill="#25242B" d="M171.214,361.076c1.563,1.083,3.131,2.166,4.712,3.225c0.138-0.239,0.788-1.088,0.735-1.334
					c-0.062-0.292-1.316-0.959-1.565-1.126c-1.02-0.685-2.052-1.332-3.062-2.029c-0.27,0.42-0.527,0.825-0.797,1.246"/>
			</g>
		</g>
		<g>
			<g>
				<path fill="#25242B" d="M114.803,328.736c0.018,2.691,0.334,5.499,2.275,7.529c1.537,1.605,3.494,2.7,5.426,3.722
					c2.499,1.32,4.967,2.57,7.128,4.423c1.497,1.283,2.994,2.612,4.235,4.143c0.185,0.229,1.036,1.776,1.191,1.661
					c0.373-0.273,0.776-0.442,1.15-0.717c-3.686-5.03-8.273-8.243-13.715-11.119c-1.912-1.011-3.927-2.142-5.104-4.071
					c-0.698-1.14-0.872-2.449-0.99-3.764c-0.025-0.281-0.186-1.675-0.375-1.673c-0.462,0.001-1.07-0.144-1.533-0.141"/>
			</g>
		</g>
		<g>
			<g>
				<path fill="#25242B" d="M128.817,346.776c1.194,1.804,2.837,3.238,4.323,4.795c1.189,1.248,0.939,1.406,2.253,0.281
					c-0.729-0.767-1.414-1.498-2.152-2.257c-0.981-0.976-1.991-1.947-2.817-3.062c-0.618-0.834-0.76-0.288-1.55,0.233"/>
			</g>
		</g>
		<g>
			<g>
				<path fill="#25242B" d="M131.139,352.607c1.004,0.642,2.016,1.271,3.02,1.912c1.234,0.785,1.007,0.7,1.873-0.511
					c-1.393-0.887-2.755-1.743-4.149-2.63c-0.255,0.429-0.504,0.818-0.761,1.246"/>
			</g>
		</g>
		<g>
			<g>
				<path fill="#25242B" d="M160.411,355.511c-3.852,0.572-7.091,2.985-10.688,4.339c-1.708,0.642-3.583,0.7-5.41,0.812
					c-0.306,0.021-2.219,0.104-2.231,0.25c-0.041,0.462-0.058,0.668-0.097,1.131c6.383,0.558,11.395-3.188,17.366-4.573
					c-0.088,0.281-1.063,2.288-0.992,2.363c0.473,0.5,0.951,0.999,1.572,0.607c1.598-1.009,3.513-1.688,5.376-1.797
					c2.002-0.114,4.011,0.541,5.908,1.213c0.89,0.316,1.963,0.299,2.691,0.909c0.271-0.057,0.757-0.81,0.948-1.037
					c-3.618-3.029-9.988-3.315-14.209-1.633c0.29-0.912,0.537-1.551,0.86-2.454c-0.404,0.042-0.624,0.28-1.029,0.321"/>
			</g>
		</g>
		<g>
			<g>
				<path fill="#25242B" d="M107.219,325.466c-0.914,0.573-1.727,1.244-2.641,1.815c0.696,0.194,1.397,0.414,2.093,0.609
					c-1.232,0.529-2.432,1.165-3.498,1.982c0.176,0.233,0.571,1.051,0.838,1.113c1.137-0.869,2.405-1.585,3.742-2.098
					c1.234-0.471,2.513-0.736,3.784-1.092c-1.127-0.354-2.149-0.7-3.278-1.046c1.315-0.851,2.7-1.874,4.315-1.972
					c1.509-0.093,1.204,0.287,1.661-1.214c-2.566-0.78-4.932,0.579-7.005,1.918"/>
			</g>
		</g>
		<g>
			<g>
				<path fill="#25242B" d="M99.343,356.438c0.256,0.52,0.665,0.854,0.921,1.374c0.179-0.219,0.321-0.288,0.5-0.506
					c0.283,2.433,0.691,4.819,1.734,7.06c0.381-0.177,2.014-0.591,2.17-0.945c-0.946-2.032-1.567-4.201-1.823-6.406
					c-0.2-1.735-0.256-3.541-0.462-5.273c-0.513,0.633-0.909,1.227-1.421,1.862c-1.308-4.331-1.445-9.298-0.27-13.649
					c0.499-1.849,1.375-3.657,2.771-5.021c0.649-0.636-0.722-1.702-1.249-2.344c-3.231,2.66-4.409,7.582-4.74,11.539
					c-0.335,4.002-0.164,8.75,1.646,12.419"/>
			</g>
		</g>
		<g>
			<g>
				<path fill="#25242B" d="M106.09,374.073c0.338,0.798,0.521,1.841,0.86,2.637c0.255-0.866,0.415-1.839,0.672-2.707
					c1.729,3.047,3.825,5.75,6.34,8.189c0.283-0.54,0.401-0.921,0.686-1.459c1.597,2.604,3.539,5.27,5.912,7.248
					c0.321-0.385,0.633-0.555,0.954-0.94c0.403-0.48-0.331-0.725-0.706-1.132c-1.113-1.207-2.07-2.573-2.978-3.938
					c-1.128-1.694-2.114-3.474-3.128-5.238c-0.401,0.767-0.718,1.418-1.119,2.185c-2.619-3.003-4.417-6.488-6.159-10.042
					c-0.143,0.466-0.496,1.05-0.64,1.517c-0.259-1.605-0.333-3.242-0.284-4.866c0.028-0.966-0.787-0.555-1.633-0.588
					c-0.121,3.114-0.11,6.264,1.129,9.175"/>
			</g>
		</g>
		<g>
			<g>
				<path fill="#25242B" d="M160.753,376.18c-0.961,0.548-1.556,1.559-2.517,2.106c0.811,0.146,1.162,0.131,1.972,0.276
					c-2.043,3.016-5.714,3.76-9.041,4.556c0.56,0.398,1.38,1.332,1.939,1.73c-2.54,0.92-5.095,0.941-7.611,2.091
					c-2.524,1.154-4.792,1.318-7.62,1.081c-2.784-0.233-5.435-0.945-8.139-1.577c-1.31-0.308-2.681-0.263-4.024-0.358
					c-0.949-0.066-0.465-0.439-0.929,0.258c-2.155-1.101-4.264-2.01-6.311-3.311c-0.197-0.124-2.12-1.533-2.131-1.527
					c-0.652,0.314-0.614,0.915-1.266,1.231c1.178,2.43,4.619,3.413,6.86,4.515c1.418,0.698,2.574,2.04,3.979,2.758
					c0.206-0.493,0.449-1.103,0.624-1.605c1.887,0.234,3.78,0.452,5.617,0.929c3.579,0.925,7.368,1.792,10.976,0.543
					c1.526-0.529,2.944-1.29,4.454-1.86c1.629-0.613,3.393-0.3,5.052-0.766c1.716-0.483,3.182-1.41,4.766-2.2
					c-0.352-0.253-0.858-0.813-1.211-1.064c2.608-1.087,6.042-2.556,6.946-5.439c0.443-1.414,2.072-2.16,3.333-2.923
					c1.894-1.147,3.961-2.046,5.703-3.416c-0.344-0.437-1.17-0.544-1.515-0.98c-0.677-0.861-0.847,0.193-1.594,0.719
					c-2.538,1.785-5.563,2.799-8.255,4.335"/>
			</g>
		</g>
		<g>
			<g>
				<path fill="#25242B" d="M142.045,349.167c-0.481-0.231-0.966-0.482-1.448-0.714c-0.098,0.246-0.667,1.202-0.576,1.426
					c0.11,0.27,1.39,0.591,1.705,0.751c2.196,1.135,3.905,0.735,5.218-1.447c-1.25-0.752-0.938-0.83-1.924,0.201
					c-0.914,0.953-1.978,0.246-2.949-0.268"/>
			</g>
		</g>
		<g>
			<g>
				<path fill="#25242B" d="M137.219,355.817c0.911,2.078,3.819,2.188,5.732,2.143c-0.022-0.961,0.337-1.452-0.721-1.474
					c-1.083-0.02-2.793-0.055-3.546-1c-0.79-0.991,0.319-2.607,0.914-3.369c1.043-1.336,1.154-1.027-0.001-2.145
					c-1.343,1.392-3.356,3.75-2.427,5.866"/>
			</g>
		</g>
		<g>
			<g>
				<path fill="#25242B" d="M145.582,351.893c-0.577,0.658-1.195,1.423-2.087,1.641c-1.365,0.334-1.315-0.583-2.029-1.449
					c-0.778-0.861-0.656-0.667-1.822-0.18c0.545,0.821,1.289,1.646,1.395,2.648c0.111,1.069,3.069,0.409,3.713,0.05
					c0.993-0.551,1.683-1.478,2.455-2.287c0.748-0.783,0.231-0.854-0.447-1.63c-0.393,0.41-0.727,0.851-1.119,1.26"/>
			</g>
		</g>
		<g>
			<g>
				<path fill="#25242B" d="M135.538,322.265c0.357,1.651,0.489,3.381,0.281,5.061c-0.123,0.998,0.44,0.739,1.346,0.907
					c0.385-2.07,0.234-4.211-0.208-6.264c-0.49,0.105-0.945,0.193-1.434,0.299"/>
			</g>
		</g>
		<g>
			<g>
				<path fill="#25242B" d="M155.681,312.373c0.01,0.884-0.01,1.768,0.001,2.651c0.009,0.836,0.753,0.475,1.494,0.475
					c-0.011-0.883,0.015-1.751,0.004-2.636c-0.01-0.836-0.78-0.484-1.521-0.484"/>
			</g>
		</g>
		<g>
			<g>
				<path fill="#25242B" d="M130.635,328.8c0.219-0.169,1.109-0.633,1.155-0.881c-0.713-0.936-1.158-2.084-1.378-3.237
					c-0.197-1.017-0.198-2.185,0.385-3.089c-0.126-0.289-0.976-0.614-1.253-0.792c-1.557,2.41-0.555,5.927,1.051,8.032"/>
			</g>
		</g>
		<g>
			<g>
				<path fill="#25242B" d="M133.664,322.837c-0.075,0.495-0.136,0.962-0.211,1.455c1.104,0.166,2.268-0.059,3.272-0.521
					c-0.193-0.42-0.416-0.831-0.609-1.251c-0.001-0.004-2.081,0.379-2.456,0.322"/>
			</g>
		</g>
		<g>
			<g>
				<path fill="#25242B" d="M311.49,320.749c2.426,7.504,1.923,15.693,1.733,23.466c-0.229,9.122,0.652,17.976,2.813,26.866
					c0.488-0.118,0.919-0.47,1.405-0.589c0.753-0.183,0.284-1.645,0.146-2.268c-0.521-2.363-1.477-4.651-1.802-7.051
					c-0.612-4.562-0.333-9.19-0.276-13.79c0.11-9.02,1.275-18.735-1.545-27.462c-0.595,0.192-1.289,0.471-1.884,0.663"/>
			</g>
		</g>
		<g>
			<g>
				<path fill="#25242B" d="M312.667,319.314c0.011,0.464,0.094,0.969,0.102,1.431c0.003,0.056,3.092,0.44,3.515,0.521
					c1.188,0.229,2.405,0.403,3.599,0.603c0.165-1.536,0.311-1.506-1.22-1.761c-1.982-0.334-3.961-0.822-5.983-0.776"/>
			</g>
		</g>
		<g>
			<g>
				<path fill="#25242B" d="M317.789,320.684c0.188,0.521,1.315,1.424,1.504,1.945c0.375,1.039,0.712-0.242,1.605-0.48
					c3.063-0.817,6.388-0.274,9.548-0.164c3.687,0.125,7.265,0.842,10.937,1.178c10.048,0.915,20.429,0.521,30.247,2.986
					c6.398,1.607,12.495,3.665,19.026,4.772c6.395,1.084,13.839,1.765,20.228,2.876c6.418,1.115,11.537,3.644,18.042,4.223
					c5.105,0.453,10.115-0.482,15.221-0.674c2.188-0.083,4.383,0.019,6.572-0.064c0.275-0.011,1.764,1.16,1.978,0.963
					c0.234-0.216-0.271-0.869-0.274-1.233c-7.136,0.268-14.323-0.992-21.449-1.389c-6.584-0.366-12.588-2.839-19.026-4.039
					c-6.382-1.19-12.998-1.059-19.407-2.082c-6.515-1.04-14.088-3.223-20.43-4.937c-6.079-1.642-8.663-2.404-14.917-3.069
					c-7.535-0.8-17.408-1.048-24.974-1.521c-4.805-0.299-10.043-1.56-14.602,0.088"/>
			</g>
		</g>
		<g>
			<g>
				<path fill="#25242B" d="M444.089,336.553c13.334,1.217,25.543,6.873,38.776,8.659c6.341,0.856,12.461,3.329,18.8,4.202
					c6.386,0.881,12.993,2.07,19.406,1.232c4.705-0.615,8.861-0.21,13.494,0.501c7.965,1.22,16.748-0.887,24.723-1.769
					c7.577-0.838,15.069-2.625,22.612-3.734c-0.081-0.551-0.528-1.223-0.609-1.772c-0.156-1.067-1.015-0.735-1.901-0.61
					c-3.08,0.442-5.994,2.156-9.081,2.553c-5.704,0.726-11.521,0.714-17.204,1.583c-3.541,0.54-7.296-0.345-10.854,0.045
					c-3.748,0.41-6.989-0.453-10.666-1.078c-2.76-0.468-5.841-0.641-8.645-0.407c-3.47,0.289-6.743,0.85-10.238,0.818
					c-6.113-0.055-11.948-1.023-17.975-1.918c-6.422-0.954-13.62-0.41-19.906-2.062c-10.328-2.711-19.831-6.896-30.563-7.874
					c-0.068,0.747-0.317,1.886-0.386,2.633"/>
			</g>
		</g>
		<g>
			<g>
				<path fill="#25242B" d="M573.873,343.733c2.934,1.891,6.164,3.658,7.975,6.771c2.666,4.583,0.141,10.184,1.068,15.126
					c0.883,4.704,3.107,9.103,3.768,13.849c0.314,2.254,0.572,4.569,0.104,6.796c-0.259,1.232-1.174,2.328-1.612,3.507
					c0.151,0.242,1.862,0.67,2.146,0.775c1.662-4.474,1.6-9.221,0.481-13.86c-1.215-5.05-3.426-9.899-3.176-15.194
					c0.257-5.414,0.816-10.339-3.533-14.438c-1.535-1.443-3.005-2.944-4.771-4.083c-1.396-0.9-0.986-0.643-1.912,0.752"/>
			</g>
		</g>
		<g>
			<g>
				<path fill="#25242B" d="M583.809,387.057c-1.725,2.218-3.589,4.342-5.615,6.296c-0.954,0.921-1.953,1.801-3.073,2.51
					c-0.841,0.535-0.293,0.721,0.156,1.504c3.556-2.047,6.202-5.237,8.695-8.42c1.387-1.771,2.922-3.415,4.402-5.108
					c0.19-0.217,1.481-1.72,1.349-1.851c-0.328-0.327-0.814-0.704-1.143-1.029c-1.811,1.824-3.38,3.929-4.955,5.955"/>
			</g>
		</g>
		<g>
			<g>
				<path fill="#25242B" d="M529.198,397.109c-5.39,0.139-15.38-0.117-27.502,0.5c-19.099,0.973-37.667,2.328-56.762,0.642
					c-13.667-1.208-27.315-3.651-41.074-2.823c0.034,0.556-1.163,1.314-1.13,1.869c0.068,1.119,2.748,0.075,3.665,0.045
					c3.5-0.123,7.068-0.771,10.564-0.599c6.256,0.309,12.335,2.913,18.562,3.55c8.429,0.863,16.894,1.649,25.385,1.629
					c14.719-0.035,29.372-2.036,44.074-2.411c25.267-0.646,50.533-1.938,75.721-4.143c-0.037-0.422,0.192-2.019-0.089-2.291
					c-2.422,0.212-4.923,0.464-7.349,0.632c-4.886,0.341-9.742,0.9-14.635,1.109C548.595,395.248,539.238,396.898,529.198,397.109"
					/>
			</g>
		</g>
		<g>
			<g>
				<path fill="#25242B" d="M318.563,320.951c2.781,9.247,3.317,18.709,3.516,28.263c0.077,3.626,0.224,7.083,0.957,10.661
					c0.601,2.928,1.227,5.863,1.575,8.836c0.177,1.524,0.501,3.048,0.425,4.584c0.214,0.184,1.258,0.126,1.558,0.143
					c0.284-5.71-1.829-11.194-2.692-16.769c-0.449-2.892-0.511-5.78-0.571-8.697c-0.197-9.302,0.012-18.656-2.698-27.656
					c-0.479,0.144-0.847,0.288-1.327,0.433"/>
			</g>
		</g>
		<g>
			<g>
				<path fill="#25242B" d="M508.388,340.59c-3.442,0.454-6.884,0.202-10.354,0.37c-3.096,0.148-6.156,1.153-9.253,1.279
					c-2.4,0.098-4.815,0.352-7.219,0.375c-1.931,0.02-1.779,0.096-1.779,1.85c7.088,0,14.343-0.9,21.422-1.239
					c1.608-0.076,3.24-0.129,4.838-0.338c2.745-0.356,6.562-1.996,9.075-0.584c1.577,0.885,2.686,2.279,4.336,3.083
					c1.669,0.814,3.277,1.193,5.137,0.713c1.277-0.331,2.685-0.241,3.826-0.871c1.694-0.934,3.273-2.147,5.17-2.484
					c6.51-1.153,13.428,0.103,20.017-0.019c-0.031-1.14,0.267-2.323-0.964-2.301c-1.336,0.024-2.674-0.12-4.012-0.098
					c-5.13,0.083-10.29,0.378-15.354,1.3c-2.25,0.408-4.376,0.83-6.365,1.973c-1.568,0.903-3.13,2.241-4.997,1.737
					c-2.472-0.665-3.871-2.599-5.919-3.899c-2.404-1.529-4.953-1.199-7.588-0.755"/>
			</g>
		</g>
		<g>
			<g>
				<path fill="#25242B" d="M551.255,339.436c0.166,1.256,0.278,2.52,0.438,3.777c0.05,0.385,0.235,3.175,0.366,3.174
					c0.463-0.001,0.893-0.036,1.355-0.04c-0.011-1.884-0.292-3.729-0.539-5.59c-0.214-1.599-0.091-1.555-1.682-1.375"/>
			</g>
		</g>
		<g>
			<g>
				<path fill="#25242B" d="M586.775,322.921c-3.16,0.789-4.727,3.295-6.957,5.434c-2.437,2.34-5.498,3.415-8.604,4.519
					c-3.688,1.312-7.181,2.856-10.568,4.833c-1.589,0.926-3.269,1.682-4.821,2.671c-1.449,0.923-1.705,0.301-0.781,1.767
					c3.311-2.107,6.515-4.185,10.066-5.87c3.479-1.652,7.157-2.751,10.736-4.133c3.348-1.292,5.845-3.313,8.289-5.79
					c1.545-1.564,3.184-2.059,4.953-3.21c1.556-1.012,3.298-2.363,4.122-4.015c-1.277-0.637-1.757-0.897-2.514,0.265
					c-0.981,1.506-2.225,2.701-4.016,3.149"/>
			</g>
		</g>
		<g>
			<g>
				<path fill="#25242B" d="M590.866,319.625c2.129,0.36,3.114,3.003,2.594,4.916c-0.39,1.434-1.737,2.391-2.754,3.384
					c-1.295,1.266-2.371,2.649-2.974,4.374c-0.461,1.314-0.712,2.63-1.081,3.957c-0.473,1.702-1.47,3.223-2.742,4.367
					c-0.954,0.854-2.225,1.313-3.33,1.961c-0.595,0.348,0.175,1.118,0.444,1.655c2.25-1.126,4.284-3.073,5.845-5.016
					c1.966-2.448,1.516-5.531,3.144-8.133c1.688-2.7,5.137-4.151,5.137-7.733c0-2.324-1.67-4.608-4.087-4.98
					c-0.078,0.495-0.135,0.972-0.213,1.466"/>
			</g>
		</g>
		<g>
			<g>
				<path fill="#25242B" d="M585.599,320.271c-1.821,1.887-3.683,3.866-4.807,6.271c0.881,0.412,1.089,0.903,1.599-0.02
					c0.844-1.522,2.064-2.815,3.251-4.073c1.133-1.2,2.316-2.383,3.434-3.596c-0.595-0.495-0.934-1.192-1.517-0.561
					c-0.63,0.681-1.24,1.383-1.87,2.063"/>
			</g>
		</g>
		<g>
			<g>
				<path fill="#25242B" d="M585.493,319.839c0.983,0.328,1.977,0.624,2.958,0.952c1.049,0.349,0.907-0.151,1.298-1.148
					c-1.274-0.424-2.577-0.821-3.851-1.246c-0.134,0.481-0.289,0.947-0.423,1.43"/>
			</g>
		</g>
		<g>
			<g>
				<path fill="#25242B" d="M601.025,329.906c-4.724,2.147-7.677,6.326-11.464,9.689c-2.461,2.184-4.856,4.504-7.681,6.191
					c-1.289,0.772-2.576,1.544-3.949,2.156c-0.099,0.291,0.518,1.233,0.655,1.541c5.976-2.661,11.347-6.953,15.763-11.75
					c1.917-2.083,3.671-4.542,6.247-5.833c2.846-1.428,5.462-2.271,6.962-5.273c-0.338-0.169-0.833-0.671-1.173-0.841
					c-0.961-0.481-1.002,0.143-1.584,1.017c-0.98,1.47-2.217,2.361-3.788,3.075"/>
			</g>
		</g>
		<g>
			<g>
				<path fill="#25242B" d="M606.753,331.099c-2.945,1.544-6.945,3.435-7.313,7.189c1.344,0.132,1.184,0.328,1.651-0.887
					c0.612-1.584,2.182-2.675,3.575-3.531c1.84-1.132,3.752-2.131,5.634-3.198c-0.425-0.629-0.513-1.411-1.245-0.998
					c-0.784,0.444-1.528,0.958-2.313,1.401"/>
			</g>
		</g>
		<g>
			<g>
				<path fill="#25242B" d="M605.174,327.042c1.043,0.416,1.895,1.217,2.344,2.255c0.352,0.811,0.842,0.338,1.652,0.109
					c-0.489-1.731-1.783-3.094-3.443-3.756c-0.187,0.465-0.364,0.931-0.551,1.395"/>
			</g>
		</g>
		<g>
			<g>
				<path fill="#25242B" d="M610.046,330.597c0.605,1.185,1.194,2.087,0.888,3.464c-0.063,0.284,1.361,0.833,1.568,1.072
					c0.798,0.911,0.459,2.195-0.111,3.168c-0.353,0.602-0.776,0.777-0.292,1.336c0.638,0.737,0.95,1.723,0.587,2.69
					c-0.398,1.06-1.427,1.812-2.382,2.35c-0.049,0.262,0.593,1.011,0.733,1.261c1.621-0.915,3.247-2.417,3.247-4.411
					c0-1.241-0.852-1.697-0.284-2.806c0.45-0.881,0.502-1.887,0.284-2.867c-0.229-1.015-0.928-1.793-1.776-2.349
					c0.093-0.906-0.206-1.574-0.672-2.339c-0.612-1.236-0.632-1.148-1.891-0.675"/>
			</g>
		</g>
		<g>
			<g>
				<path fill="#25242B" d="M604.003,338.061c0.176,0.213,0.653,1.068,0.904,1.106c1.228-1.004,2.521-1.921,3.832-2.814
					c1.301-0.887,2.638-1.755,4.107-2.329c0.901-0.354,0.395-0.757,0.117-1.592c-3.359,1.114-6.286,3.384-8.992,5.596"/>
			</g>
		</g>
		<g>
			<g>
				<path fill="#25242B" d="M610.269,339.813c-1.417,0.926-2.839,1.836-4.063,3.014c0.645,0.67,0.781,1.347,1.552,0.677
					c1.062-0.925,2.266-1.609,3.402-2.43c1.192-0.859,2.364-1.781,3.557-2.644c-0.84-0.971-0.744-1.266-1.781-0.52
					C612.05,338.548,611.155,339.177,610.269,339.813"/>
			</g>
		</g>
		<g>
			<g>
				<path fill="#25242B" d="M604.972,349.611c0.195,0.2,0.735,1.009,0.991,1.03c1.131-1.093,2.309-2.138,3.574-3.076
					c1.085-0.804,2.236-1.521,3.499-2.007c0.966-0.374,0.473-0.72,0.184-1.622c-3.263,1.045-5.856,3.314-8.274,5.653"/>
			</g>
		</g>
		<g>
			<g>
				<path fill="#25242B" d="M610.64,346.429c1.277,1.806-1.827,6.05-2.644,7.963c-0.361,0.846-0.821,1.69-1.392,2.424
					c-1.096,1.406-2.901,2.206-4.312,3.244c-3.952,2.913-6.964,6.82-10.438,10.24c-1.71,1.686-3.354,3.492-5.412,4.739
					c-0.31,0.188-2.834,1.277-2.777,1.397c0.247,0.536,0.766,1.266,1.014,1.801c4.119-1.912,7.235-5.278,10.323-8.558
					c3.39-3.599,6.834-6.714,10.808-9.666c2.199-1.632,3.187-3.167,4.227-5.604c1.121-2.625,4.094-6.203,2.104-9.019
					c-0.511,0.36-0.648,0.595-1.16,0.955"/>
			</g>
		</g>
		<g>
			<g>
				<path fill="#25242B" d="M327.151,365.526c15.645,3.52,31.104,7.893,46.612,11.974c12.893,3.393,25.805,5.056,38.996,7.108
					c13.488,2.097,27.31,1.806,40.907,2.541c2.741,0.146,5.398,1.691,8.135,1.937c0.391,0.035,3.587,0.131,3.608-0.061
					c0.05-0.461-0.269-0.347-0.218-0.808c-13.54-1.479-27.239-2.331-40.808-3.422c-13.243-1.065-27.628-2.549-40.5-5.813
					c-13.078-3.317-24.923-7.128-38.105-10.037c-5.422-1.195-10.487-2.62-15.904-3.839c-0.664-0.151-1.389-0.037-2.053-0.187
					c-0.46-0.102-1.948,0.511-2.035,0.879"/>
			</g>
		</g>
		<g>
			<g>
				<path fill="#25242B" d="M571.599,383.091c-17.979,2.434-36.278,4.473-54.412,5.075c-21.99,0.73-44.01-1.354-65.992-0.273
					c0.014,0.299-0.075-0.16,0.107,0.053c1.615-0.078,3.149,0.388,4.768,0.333c3.544-0.116,7.894-0.271,11.44-0.294
					c6.826-0.046,13.612,0.856,20.437,0.937c12.8,0.15,26.029,0.396,38.813-0.375c10.593-0.637,19.994-2.218,30.563-3.187
					c6.604-0.606,13.278-2.641,19.908-2.717c3.047-0.035,6.172,0.87,9.195,1.225c1.528,0.18,2.968,1.246,4.493,1.447
					c0.173-0.077-0.849-0.211-0.813-0.489c0.058-0.423,2.358-0.545,2.415-0.966c0.005-0.039-1.069,0.452-1.066,0.415
					C584.816,383.4,578.287,382.188,571.599,383.091"/>
			</g>
		</g>
		<g>
			<g>
				<path fill="#25242B" d="M365.762,390.791c0.247,1.567,0.124,1.743,1.836,1.515c1.901-0.255,3.783-0.425,5.703-0.399
					c2.839,0.045,5.587,0.5,8.371,0.996c3.138,0.563,6.272,0.227,9.449,0.369c1.865,0.086,3.746,0.588,5.466,1.382
					c0.229,0.106,1.181,0.438,1.269,0.344c0.317-0.338,1.081-0.679,1.396-1.016c-4.043-3.801-11.9-1.757-16.926-2.656
					c-5.631-1.008-10.874-1.531-16.575-0.622"/>
			</g>
		</g>
		<g>
			<g>
				<path fill="#25242B" d="M378.514,400.095c0.131,0.27,0.445,1.37,0.697,1.492c1.2-0.592,2.459-1.037,3.771-0.868
					c1.465,0.192,2.865,0.862,4.33,1.069c2.929,0.362,5.833-0.268,8.742-0.625c1.721-0.211,1.85,0.095,1.652-1.638
					c-3.366,0.414-6.819,1.22-10.215,0.802c-3.058-0.412-6.088-1.888-9.075-0.413"/>
			</g>
		</g>
		<g>
			<g>
				<path fill="#25242B" d="M395.934,393.824c1.502,0.829,3.577,2.483,2.527,4.421c-0.489,0.901-1.415,1.595-2.318,2.047
					c-0.063,0.26,0.525,1.089,0.654,1.348c1.675-0.839,3.348-2.453,3.386-4.456c0.045-2.159-1.833-3.722-3.545-4.666
					c-0.242,0.438-0.483,0.923-0.726,1.359"/>
			</g>
		</g>
		<g>
			<g>
				<path fill="#25242B" d="M398.623,400.464c0.177,0.429,0.415,0.771,0.592,1.199c0.067,0.164,2.473-0.705,2.838-0.835
					c1.793-0.64,3.595-1.451,5.495-1.661c1.076-0.121,2.355-0.044,3.308,0.567c0.679,0.437,0.99,1.182,1.018,1.953
					c0.189,0.161,1.054-0.034,1.326-0.045c-0.269-7.188-11.083-2.544-14.553-1.104"/>
			</g>
		</g>
		<g>
			<g>
				<path fill="#25242B" d="M405.694,403.525c-2.801,1.709-5.421,3.189-8.7,3.71c-3.113,0.491-6.219,0.815-9.291,1.574
					c0.068,0.274,0.082,1.091,0.294,1.24c1.31-0.323,2.668-0.348,4.01-0.486c3.076-0.313,6.161-0.771,9.074-1.909
					c3.043-1.189,5.866-2.813,8.732-4.344c1.272-0.682,2.452-1.63,3.844-2.023c1.067-0.299,0.67-0.601,0.443-1.582
					c-3.018,0.698-5.746,2.297-8.36,3.896"/>
			</g>
		</g>
		<g>
			<g>
				<path fill="#25242B" d="M415.165,405.035c-5.108,2.38-10.24,4.702-15.626,6.393c-2.625,0.824-5.237,1.671-7.963,2.048
					c-1.258,0.173-2.472,0.571-3.739,0.626c-0.163,0.224,0.004,0.839,0.018,1.136c6.635-0.291,12.997-2.185,19.089-4.723
					c3.008-1.253,5.894-2.767,8.846-4.142c0.848-0.396,1.326-0.186,0.925-1.047s-0.517-0.294-1.366,0.103"/>
			</g>
		</g>
		<g>
			<g>
				<path fill="#25242B" d="M412.505,402.377c1.381,0.133,2.809,0.904,3.171,2.355c0.152,0.606-0.212,1.115,0.475,1.212
					c0.366,0.051,0.763,0.1,1.129,0.152c0.404-2.871-1.938-4.91-4.637-5.169c-0.048,0.497-0.099,1-0.147,1.496"/>
			</g>
		</g>
		<g>
			<g>
				<path fill="#25242B" d="M402.929,412.411c-6.315,2.723-12.293,4.374-19.214,3.925c-3.74-0.244-7.451-0.816-11.181-1.194
					c-0.05,0.581-0.482,1.329,0.214,1.4c1.195,0.12,2.379,0.347,3.574,0.466c4.118,0.418,8.22,1.383,12.368,1.22
					c5.332-0.208,9.972-2.372,14.822-4.461c2.431-1.048,5.072-1.549,7.629-2.245c0.345-0.094,3.252-0.897,3.24-1.004
					c-0.066-0.588-0.527-1.386-0.593-1.972c-3.813,0.434-7.479,2.11-10.97,3.613"/>
			</g>
		</g>
		<g>
			<g>
				<path fill="#25242B" d="M412.456,407.709c0.849,0.692,0.8,1.765,0.407,2.673c0.141,0.251,1.034,0.453,1.313,0.574
					c0.663-1.531,0.622-3.331-0.747-4.448c-0.316,0.388-0.632,0.791-0.948,1.178"/>
			</g>
		</g>
		<g>
			<g>
				<path fill="#25242B" d="M363.82,403.947c0.949,6.1,5.077,10.97,10.141,14.197c0.519-0.815,1.019-0.895,0.123-1.496
					c-1.501-1.008-2.995-2.1-4.249-3.402c-2.09-2.167-3.856-4.841-4.662-7.759c-0.856-3.099-0.511-6.473,0.65-9.462
					c0.604-1.547,1.424-3.039,2.4-4.379c0.993-1.364,0.966-1.283-0.243-2.295c-3.35,4.02-5.402,9.386-4.58,14.66"/>
			</g>
		</g>
		<g>
			<g>
				<path fill="#25242B" d="M360.998,388.133c-5.04,0.556-9.632,2.536-14.284,4.414c-1.442-4.895-7.305-4.843-11.19-3.564
					c-2.172,0.717-4.196,1.846-6.381,1.009c-0.888-0.34-1.657-0.712-2.532-1.085c-0.11,0.322-1.084,1.342-0.959,1.624
					c0.105,0.241,1.523,0.571,1.804,0.676c2.099,0.786,3.874,1.305,6.186,0.815c2.955-0.626,5.625-2.271,8.671-1.044
					c2.177,0.876,2.78,2.07,2.877,4.199c3.396-1.375,6.765-2.576,10.219-3.795c3.327-1.173,6.399-1.707,9.896-1.063
					c1.409,0.262,3.182,0.562,4.597,0.765c0.104-1.883,0.058-2.492-1.805-2.764c-2.335-0.341-4.788-0.986-7.159-0.724"/>
			</g>
		</g>
		<g>
			<g>
				<path fill="#25242B" d="M269.969,413.305c7.012,3.961,14.895,5.864,22.918,6.361c4.893,0.301,9.84-0.506,14.722,0.004
					c5.159,0.538,10.283,2.085,15.479,1.928c10.02-0.302,19.777,2.036,29.794,0.652c4.935-0.682,9.847-1.522,14.681-2.689
					c2.318-0.56,4.488-1.854,6.834-2.281c1.263-0.23,0.629-1.62,0.439-2.738c-9.717,1.659-19.104,5.297-29.069,5.225
					c-4.696-0.035-9.294-0.344-13.948-0.834c-5.073-0.533-10.174,0.311-15.261-0.013c-4.796-0.307-9.637-0.006-14.427-0.389
					c-4.693-0.375-9.44-0.458-14.111-1.129c-3.764-0.542-7.213-2.624-10.734-4.067c-1.785-0.73-3.354-1.795-5.04-2.725
					c-0.987-0.541-0.912,0.491-1.398,1.353"/>
			</g>
		</g>
		<g>
			<g>
				<path fill="#25242B" d="M190.009,393.047c2.124,3.28,4.708,4.261,8.25,5.438c3.74,1.242,7.282,2.138,10.687,4.125
					c2.543,1.461,5.69,3.164,8.482,4.117c3.929,1.34,7.825,2.395,11.708,3.841c4.374,1.627,8.547,2.093,13.276,2.478
					c2.853,0.23,5.701,0.596,8.561,0.782c8.845,0.577,17.364,2.103,26.271,1.272c-0.108-1.172,0.283-2.813-1.043-2.706
					c-2.982,0.243-5.903,0.728-8.893,0.632c-4.86-0.154-9.64-0.696-14.477-1.014c-2.492-0.164-5.004,0.188-7.5,0.088
					c-2.832-0.113-7.417-0.948-10.134-1.803c-2.574-0.811-14.556-3.563-18.609-5.168c-3.094-1.229-5.493-4.035-8.389-5.652
					c-3.328-1.86-6.721-3.224-10.267-4.521c-2.073-0.759-4.017-1.563-5.521-3.235c-0.573-0.636-0.639-0.457-1.377,0.021
					c-0.466,0.301-1.034,0.259-1.501,0.561"/>
			</g>
		</g>
		<g>
			<g>
				<path fill="#25242B" d="M220.627,361.467c-3.823,0.287-7.653,0.209-11.484,0.369c-1.923,0.082-3.82,0.896-5.745,0.897
					c-1.2,0.003-0.86,0.822-0.866,1.881c14.21,0.09,28.315-2.325,42.542-1.556c5.444,0.293,10.913,0.396,16.285,1.343
					c3.13,0.553,6.135,1.608,9.18,2.528c1.364,0.411,2.919,0.27,4.245,0.792c1.349,0.534,1.261,0.224,1.794-1.019
					c-8.243-3.531-17.622-5.063-26.496-5.821c-9.817-0.839-19.586,0.596-29.399,1.332"/>
			</g>
		</g>
		<g>
			<g>
				<path fill="#25242B" d="M236.389,362.144c5.67,2.144,11.156,4.514,17.143,5.619c4.255,0.788,8.435,1.499,12.467,3.124
					c4.44,1.787,9.136,4.092,13.978,4.387c0.037-0.59,0.315-1.579,0.352-2.168c0.004-0.093-3.189-0.516-3.567-0.603
					c-2.766-0.634-5.462-1.581-8.09-2.635c-4.617-1.85-9.188-3.112-14.092-3.979c-6.152-1.117-11.842-3.176-17.669-5.375
					c-0.185,0.598,0.036,1.062-0.149,1.658"/>
			</g>
		</g>
		<g>
			<g>
				<path fill="#25242B" d="M273.359,373.692c0.593,0.944,0.773,1.995,1.841,1.362c1.287-0.762,2.624-2.083,4.128-2.282
					c2.139-0.283,3.926,1.365,5.095,2.924c1.623,2.166,2.707,3.416,5.178,4.126c2.084,0.599,4.153,1.258,6.236,1.862
					c4.166,1.21,8.342,2.534,12.608,3.337c4.187,0.786,8.369,0.276,12.606,0.369c2.923,0.064,6.248,0.113,8.791,1.697
					c1.249,0.776,1.633,2.513,2.458,3.728c0.324,0.478,0.828,1.025,1.434,0.689c0.44-0.242,0.329-0.306,0.767-0.551
					c-3.251-5.869-8.422-7.212-14.628-7.265c-8.437-0.074-16.356-1.258-24.431-3.613c-1.822-0.532-3.326-2.167-5.153-2.691
					c-2.233-0.641-3.912-0.438-5.397-2.408c-1.008-1.338-1.776-2.934-3.463-3.37c-2.745-0.712-5.524,1.108-7.762,2.52"/>
			</g>
		</g>
		<g>
			<g>
				<path fill="#25242B" d="M286.222,409.493c9.64,1.828,19.458,3.794,29.307,2.317c-0.047-0.304,0-1.406-0.205-1.607
					c-1.884,0.282-3.777,0.558-5.682,0.591c-3.47,0.063-6.904-0.268-10.333-0.774c-4.278-0.632-8.557-1.14-12.803-1.944
					c-0.09,0.491-0.385,0.74-0.475,1.23"/>
			</g>
		</g>
		<g>
			<g>
				<path fill="#25242B" d="M338.934,392.54c-2.366,0.992-3.683,3.509-4.917,5.618c-0.733,1.251-1.467,2.53-2.356,3.681
					c-0.607,0.784-0.006,0.875,0.677,1.483c2.376-2.666,3.244-6.448,6.187-8.619c0.179,3.898-2.021,7.681-3.904,10.953
					c-1.084,1.884-2.326,3.657-3.591,5.424c-0.489,0.684-0.732,1.521-1.248,2.186c0.056,0.263,0.768,0.622,0.995,0.8
					c2.22-2.836,4.479-5.716,6.187-8.886c2.114-3.926,3.834-8.439,2.776-12.952c-0.262,0.109-0.641-0.006-0.877,0.151"/>
			</g>
		</g>
		<g>
			<g>
				<path fill="#25242B" d="M262.835,405.24c-0.911,2.935-0.123,4.9,2.994,5.425c0.875,0.147,1.775,0.15,2.653,0.282
					c0.646,0.099,0.527-0.85,0.625-1.397c-2.229-0.341-5.634-0.026-5.035-3.05c3.619,1.511,6.821,4.162,10.017,6.412
					c0.357-0.573,1.02-0.987,0.39-1.432c-0.905-0.639-1.831-1.246-2.736-1.883c-2.797-1.971-5.363-4.116-8.653-5.201
					c-0.07,0.228-0.315,0.588-0.322,0.826"/>
			</g>
		</g>
		<g>
			<g>
				<path fill="#25242B" d="M207.426,396.918c0.269-0.033,1.317,0.037,1.477-0.151c-0.166-1.356-0.583-2.726-0.55-4.092
					c0.057-2.403,0.468-4.836,1.261-7.108c1.345-3.858,3.794-7.318,6.86-9.995c2.776-2.424,6.086-4.246,9.456-5.719
					c1.472-0.644,3.053-1.008,4.582-1.501c0.636-0.206,1.235-0.53,1.88-0.708c0.485-0.138-0.038-1.139-0.153-1.563
					c-7.436,2.029-14.88,5.635-19.822,11.714c-4.371,5.377-6.044,12.31-5.212,19.155"/>
			</g>
		</g>
		<g>
			<g>
				<path fill="#25242B" d="M181.797,352.599c0.466,0.363,1.632-0.354,2.097,0.009c0.104,0.081,0.055-2.153,0.327-2.44
					c1.805-1.89,4.232-3.701,6.479-5.039c4.123-2.455,9.388-3.768,14.134-4.293c10.474-1.161,21.845,0.32,32.158,2.064
					c11.061,1.873,21.788,5.715,32.544,8.848c10.74,3.126,20.005,9.587,30.26,13.985c4.72,2.024,9.771,3.322,14.717,4.699
					c5.129,1.43,9.341,3.386,13.596,6.73c2.366,1.856,5.744,2.372,8.196,4.122c2.338,1.671,4.514,3.555,7.256,4.344
					c2.653,0.765,5.313,1.345,7.774,2.64c0.354,0.188,3.24,1.671,3.258,1.649c0.401-0.431-0.275-0.301,0.126-0.734
					c-4.292-3.981-9.625-4.641-14.764-6.896c-5.628-2.469-9.187-8.543-14.76-11.179c-3.932-1.858-8.337-2.057-12.495-3.262
					c-6.395-1.861-12.461-4.827-18.516-7.569c-20.187-9.143-41.895-16.119-63.876-19.116c-17.009-2.317-37.97-4.773-49.809,10.431"
					/>
			</g>
		</g>
		<g>
			<g>
				<path fill="#25242B" d="M184.527,357.282c1.18,0.871,2.631,1.876,2.654,3.477c0.021,1.32-1.593,2.032-2.333,2.941
					c-2.565,3.146,1.163,7.075,2.972,9.583c1.018,1.408,1.978,3.116,2.261,4.886c0.331,2.063,0.089,3.955,1.258,5.849
					c0.932,1.508,2.196,2.685,3.333,4.016c0.174,0.205,1.113,1.441,1.217,1.398c0.428-0.176,0.967-0.457,1.395-0.634
					c-0.792-1.92-2.609-3.109-3.932-4.624c-1.724-1.975-1.288-3.936-1.686-6.309c-0.378-2.248-1.625-4.424-2.927-6.214
					c-1.14-1.568-3.371-3.462-3.352-5.534c0.018-1.787,2.407-2.36,3.072-3.861c0.812-1.827-0.353-4.221-1.726-5.456
					c-0.949-0.854-2.848-1.436-3.023-2.859c-0.045-0.367,0.511-2.381,0.467-2.402c-0.423-0.188-0.964-0.025-1.387-0.214
					c-1.151,2.601-0.601,4.614,1.554,6.206"/>
			</g>
		</g>
		<g>
			<g>
				<path fill="#25242B" d="M214.479,352.91c0.038,0.295-0.132,0.994,0.067,1.187c1.515-0.198,3.088,0.295,4.613,0.224
					c3.026-0.141,6.021-1.218,9.026-0.836c6.574,0.829,12.627,2.786,18.955,4.505c5.789,1.574,11.833,2.069,17.628,3.612
					c2.684,0.714,5.123,2.497,7.627,3.703c2.751,1.324,5.338,2.866,8.083,4.208c10.128,4.953,21.325,6.154,32.211,8.273
					c5.211,1.013,10.485,1.989,15.246,4.383c2.396,1.204,4.226,3.239,6.332,4.9c1.12,0.882,2.09,1.825,3.109,2.823
					c0.788,0.771,1.382-0.351,2.083-1.042c-7.362-7.462-16.976-10.952-27.106-12.854c-10.491-1.97-21.552-2.591-31.302-7.345
					c-2.358-1.148-4.114-3.336-6.418-4.568c-2.544-1.365-5.921-3.046-8.688-3.85c-5.473-1.593-10.028-1.102-15.563-2.438
					c-5.791-1.398-11.787-5.048-17.636-6.236c-5.973-1.214-12.399-0.563-18.441,0.229"/>
			</g>
		</g>
		<g>
			<g>
				<path fill="#25242B" d="M180.8,354.758c1.578,0.176,1.295,0.223,1.709-1.296c0.443-1.635,1.33-3.148,2.282-4.539
					c1.172-1.713,2.66-3.185,4.176-4.6c0.282-0.265,2.386-2.083,2.287-2.207c-0.287-0.362-0.571-0.616-0.858-0.98
					c-4.236,3.362-8.979,7.964-9.612,13.61"/>
			</g>
		</g>
		<g>
			<g>
				<path fill="#25242B" d="M226.661,330.992c-0.469,0.136-1.664,0.177-1.994,0.518c-0.085,0.088-0.16,1.728,0.267,1.513
					c1.568,1.435,4.573-0.142,6.127-0.832c-1.239-1.643-2.477-1.963-4.419-1.255"/>
			</g>
		</g>
	</g>
</g>
</svg>
