<?xml version="1.0" encoding="utf-8"?>
<!-- Generator: Adobe Illustrator 15.0.0, SVG Export Plug-In . SVG Version: 6.00 Build 0)  -->
<!DOCTYPE svg PUBLIC "-//W3C//DTD SVG 1.1//EN" "http://www.w3.org/Graphics/SVG/1.1/DTD/svg11.dtd">
<svg version="1.1" id="Layer_1" xmlns="http://www.w3.org/2000/svg" xmlns:xlink="http://www.w3.org/1999/xlink" x="0px" y="0px"
	 width="720px" height="450px" viewBox="0 0 720 450" enable-background="new 0 0 720 450" xml:space="preserve">
<g>
	<g>
		<path fill="#CFD2D8" d="M35.328,189.454c2.921,7.095,1.917,15.447,4.954,23.421c6.701,17.602,22.962,24.837,36.32,34.52
			c24.653,17.871,34.216,23.619,64.16,27.369c16.777,2.103,46.051,4.887,46.705,24.051c0.62,18.167-27.646,43.908-37.911,55.589
			c-11.128,12.661-22.173,26.469-34.79,36.862c-4.926,4.06-11.122,5.991-15.229,10.71c8.671,3.951,24.73,12.203,29.198,20.115
			c5.206,9.221,1.692,22.95,9.652,33.029c23.535,29.788,321.139-2.744,317.211-25.991c-7.861-46.538-46.655-67.857-82.042-93.817
			c-55.358-40.607-112.625-74.866-171.138-110.053c-24.053-14.465-39.324-28.097-68.479-28.633
			c-12.703-0.234-23.6,1.733-34.697-0.915c-21.887-5.224-41.062-15.573-63.111-20.747"/>
		<path fill="#586572" d="M202.23,269.416c-2.718,8.882-14.839,13.831-22.005,18.783c-9.719,6.715-16.455,13.16-24.253,21.375
			c13.381,0.608,27.986,2.098,40.85-2.165c37.871-12.546,73.971-49.938,99.833-78.657c24.824-27.567,22.647-46.053,15.521-78.404
			c-10.799,3.194-21.546,16.104-30.542,23.438c-25.08,20.452-45.039,49.247-63.305,75.774"/>
		<path fill="#F4BF9A" d="M136.758,83.734c-30.099-1.37-28.443-0.002-50.983,8.585c-22.54,8.586-35.956,25.224-38.64,48.835
			c-2.684,23.612,13.417,44.542,24.15,70.302c10.733,25.759,22.004,40.25,46.689,41.323c24.686,1.072,63.863-3.219,68.692-3.758
			c4.83-0.537,13.416-2.146,16.636,1.072c3.219,3.221,3.219,5.905,1.609,10.197c-1.609,4.293-6.976,15.027-8.05,23.077
			c-1.074,8.051-4.294,20.931-4.294,20.931s-16.098,62.787,76.206,110.016c92.306,47.225,219.494,72.982,219.494,72.982
			s31.125-76.741,50.444-115.381c19.32-38.638,28.442-67.617,35.42-75.667c6.977-8.052,9.659-11.81,9.659-11.81
			s-4.29-17.709-35.419-35.955c-31.126-18.246-118.063-77.278-145.434-84.254c-27.371-6.978-45.081-14.491-71.375-4.294
			c-26.296,10.197-33.274,17.174-44.543,18.247c-11.27,1.074-21.466,3.22-24.686,1.074c-3.221-2.146-3.221-2.146-3.221-2.146
			s-8.586-7.513-19.319-14.49c-10.733-6.978-12.878-10.733-13.416-19.319c-0.538-8.588-0.538-16.1-13.418-24.15
			c-12.879-8.05-17.173-15.564-20.929-19.32c-3.756-3.757-16.099-6.439-25.222-6.439C157.688,93.393,148.563,84.27,136.758,83.734z"
			/>
		<path fill="#8F745E" d="M70.749,103.588c-5.501,3.859-8.106,10.089-12.184,15.722c1.229-0.089,3.26,0.239,4.627,0.22
			c-7.669,7.264-8.172,14.655-9.028,25.23c0.848-0.479,1.668-1.361,2.536-1.965c-0.154,5.738-0.618,11.491-2.014,17.141
			c0.837-0.733,2.195-1.669,3.22-2.491c-0.633,6.642,2.23,11.98,4.67,17.905c1.434-2.404,2.126-1.631,3.893-3.429
			c9.289,9.811,30.434,28.071,29.42,42.139c-6.755,1.656-10.007,14-7.041,20.75c3.949,8.982,15.573,10.453,24.32,9.92
			c12.783-0.781,9.982-5.021,18.666-10.863c6.279-4.225,17.556-1.547,27.38-1.451c-1.354,10.148,18.886,2.873,24.173,9.441
			c0.049,1.166-1.766-2.436-0.934-1.877c3.489-0.168,17.258,3.578,17.52,8.742c0.276,5.484-9.967,7.408-14.238,8.648
			c-13.57,3.939-28.336,4.648-41.926,2.467c-4.907,7.66-42.836-4.074-53.194-6.426c0.413,1.279,1.122,2.938,1.556,4.115
			c-13.844-6.715-23.282-14.646-29.891-29.393c-0.502,0.989-0.843,2.492-1.167,3.266c-4.576-6.051-4.855-15.01-8.164-20.952
			c-4.1-7.37-11.63-11.553-14.875-19.953c-2.967-7.682-4.786-18.104-6.115-26.229c-3.944-24.105,1.962-103.121,41.469-74.094"/>
		<path fill="#CCA387" d="M106.168,220.044c-7.608-1.298-16.375,0.155-13.562,9.619c9.17-7.115,21.396,16.058,23.168-2.415
			c-2.231,0.48-5.519-0.784-7.916-0.311c0.307-2.556-1.292-5.363-1.154-7.433"/>
		<path fill="#BF9679" d="M100.265,114.858c-8.065,9.352-12.413,17.756-18.111,28.868c-2.928-12.543,1.213-24.757,14.355-27.794"/>
		<path fill="#BF9679" d="M144.27,85.343c-7.956-0.64-15.938-0.342-21.61,5.714c-0.855-5.967,4.565-7.625,10.341-7.323"/>
		<path fill="#CD8775" d="M175.397,117.543c-15.229,3.665-21.425,12.585-23.532,27.325c7.857-7.64,12.719-21.702,22.994-26.253"/>
		<path fill="#FFFFFF" d="M181.837,113.785c-22.003-7.512-26.508,9.693-30.668,27.246c3.033-6.607,5.977-14.274,11.874-18.51
			c4.702-3.377,10.593-3.535,15.574-7.125"/>
		<path fill="#CCA387" d="M137.83,111.638c0.03,0.134-1.417,2.364-0.992,3.676c4.497-0.236,2.742-0.075,4.817-2.644
			c-1.097-0.777-2.799-1.169-3.825-2.105"/>
		<path fill="#CCA387" d="M151.248,100.905c-0.583-1.129-1.191,2.009-0.992,2.6c1.48,0.151,3.189,0.226,4.667,0.002
			c0.517-2.52-1.808-2.361-2.064-3.675"/>
		<path fill="#6E7D8F" d="M135.146,317.447c-14.489,6.438-31.394,17.709-24.149,38.639c7.245,20.931,5.635,24.149-0.805,27.368
			c-6.439,3.222-7.245,8.051-7.245,8.051s8.855-3.221,23.345-3.221c14.489,0,13.684-5.634,13.684-5.634s3.22,11.27,12.881,12.073
			c9.66,0.807,16.1,0.807,16.1,0.807s-5.635,17.709,3.219,32.198c8.855,14.489,24.955,25.761,24.955,25.761l222.981,4.023
			c0,0-4.83-32.198-41.859-41.054c-37.029-8.855-70.838-26.565-96.598-45.08c-25.76-18.515-50.715-54.739-70.034-57.959
			c-19.32-3.22-26.564-9.659-45.08-4.83C148.025,313.421,135.146,317.447,135.146,317.447z"/>
		<path fill="#48545D" d="M162.516,315.837c-11.003,7.438-15.695,38.736-17.044,52.29c-9.825-16.135-7.962-48.699,13.824-53.096"/>
		<path fill="#48545D" d="M139.976,382.65c4.123,10.561,23.1,22.476,29.785,12.073c7.761-12.077-11.495-20.665-7.266-33.005
			c-4.192-3.187-9.32-6.197-13.682-8.988c-1.456,10.693-3.301,21.601-9.641,30.724"/>
		<path fill="#586572" d="M149.636,346.425c22.568,0.445,15.509-18.53,28.215-24.147c19.188-8.481,45.135,18.406,57.815,28.035
			c20.675,15.699,36.253,34.898,58.053,49.027c27.801,18.02,60.65,21.743,93.219,21.843c-22.433-18.368-49.407-17.096-74.125-30.658
			c-21.428-11.758-46.272-30.611-63.968-47.714c-24.388-23.566-48.406-39.39-83.794-36.512c-7.188,13.044-9.591,22.691-11.39,37.712
			"/>
		<path fill="#7F90A7" d="M430.576,455.904c-21.736-26.565-14.49-39.444-55.543-52.324c-41.056-12.879-74.865-14.489-98.209-45.079
			c-23.344-30.591-36.224-49.104-79.693-53.129c-43.47-4.024-62.789,2.416-63.594,9.659c-0.805,7.245,2.415,25.76,2.415,25.76
			s8.855-26.565,30.589-28.174c21.735-1.61,41.86,0.804,66.814,25.759s52.325,49.104,90.963,64.399
			c38.639,15.294,59.568,24.953,67.62,33.004c8.05,8.05,15.294,16.902,15.294,16.902L430.576,455.904z"/>
		<path fill="#476990" d="M583.792,284.441c0,0-9.123,7.246-23.613,41.055c-14.489,33.811-24.954,58.764-39.442,90.157
			c-14.492,31.396-16.905,35.421-16.905,35.421l209.296-2.415l4.829-94.989c0,0-19.319-2.415-26.563-12.074
			c-7.244-9.66-10.465-17.709-10.465-17.709s-5.635-3.221-18.516-6.438c-12.879-3.223-18.514-7.246-25.758-13.687
			c-7.246-6.439-16.906-9.658-21.736-10.466c-4.829-0.805-15.294-2.414-20.123-4.022
			C589.964,287.662,583.792,284.441,583.792,284.441z"/>
		<path fill="#6E7D8F" d="M330.757,146.79c0,0,23.344-12.879,58.765-3.22c35.419,9.66,65.203,26.564,72.448,28.98
			c7.244,2.415,9.659,2.415,9.659,2.415s8.854-6.439,11.271-2.415c2.414,4.025,2.414,4.025,2.414,4.025s36.225,27.369,61.18,40.249
			c24.954,12.88,57.959,33.809,82.913,39.445c24.956,5.635,42.664,10.463,65.203,18.515c22.541,8.05,25.76,15.295,25.76,15.295
			l-15.295,41.055c0,0-27.368-35.42-50.712-46.69c-23.348-11.269-49.91-12.879-74.062-17.709
			c-24.148-4.83-66.813-21.733-85.329-34.613c-18.515-12.88-24.952-33.81-51.519-42.664c-26.563-8.855-74.06-21.735-86.133-24.955
			C345.249,161.279,330.757,146.79,330.757,146.79z"/>
		<path fill="#525E6A" d="M477.266,222.458c0,0,56.35,33.004,77.277,45.08s25.76,16.903,34.615,20.125
			c8.854,3.22,25.759,2.415,40.249,12.075c14.489,9.659,17.709,15.294,28.175,16.902c10.466,1.61,28.979,8.051,28.979,8.051
			s-6.438-29.784-18.513-38.639c-12.076-8.855-33.007-12.074-46.689-12.88c-13.687-0.807-70.839-15.295-91.769-25.761
			C508.659,236.948,477.266,222.458,477.266,222.458z"/>
		<path fill="#7F90A7" d="M303.388,169.329c0,0-1.61-7.245,15.295-6.44c16.903,0.806,57.959,4.025,98.208,24.954
			c40.248,20.93,44.274,33.81,98.208,58.765c53.936,24.955,76.474,32.199,104.647,35.42c28.176,3.22,53.129,17.709,57.153,33.004
			c4.025,15.294,5.636,22.541,14.49,28.979c8.854,6.44,17.709,8.05,17.709,8.05l8.052-24.954c0,0-26.565-17.71-32.2-26.564
			c-5.635-8.854-11.271-24.953-28.175-31.395c-16.904-6.438-39.444-4.025-61.18-4.83c-21.732-0.806-41.858-12.879-54.738-16.904
			c-12.881-4.023-21.733-12.075-38.64-18.516c-16.905-6.439-30.59-17.708-40.249-33.003c-9.66-15.294-30.59-29.785-66.814-38.64
			c-36.222-8.854-49.907-10.464-64.398-10.464c-14.489,0-18.514,1.61-18.514,1.61s-7.245,6.44-11.27,14.49
			c-4.024,8.05-4.83,11.27-4.83,11.27L303.388,169.329z"/>
	</g>
	<g>
		<g>
			<path fill="#25242B" d="M140.965,329.219c-5.297,7.896-3.443,18.726-1.768,27.209c1.744,8.824,2.037,16.396-3.862,23.923
				c-4.254,5.43-8.967,8.063-15.688,8.807c-3.455,0.382-6.322-0.657-9.751-1.199c-1.728-0.273-3.655,1.35-5.334,0.861
				c-0.313-0.092-1.728,0.205-1.794,0.396c-0.163,0.468,0.06-1.864-0.105-1.396c8.865,3.115,18.218,6.101,26.919,2.197
				c10.487-4.7,17.032-15.254,16.004-26.365c-1.087-11.8-10.395-25.437-2.271-36.03c6.085-7.935,15.639-11.478,25.402-13.307
				c9.372-1.759,18.141,1.053,27.292,3.563c11.134,3.054,19.695,7.07,28.087,14.864c15.536,14.426,32.122,27.854,48.862,41.008
				c21.103,16.58,43.392,27.567,68.265,37.075c12.546,4.798,26.91,12.074,39.444,16.904c8.864,3.414,13.024,8.188,19.319,15.295
				c4.063,4.588,12.351,8.142,15.473,13.406c1.525,2.567,0.894,6.362,2.28,9.006c0.746,1.425,0.331,3.411,1.048,4.848
				c0.478,0.958,1.057,0.139,1.904-0.283c-9.069-18.257-19.275-36.478-39.143-44.132c-11.999-4.624-23.711-9.982-35.731-14.553
				c-24.718-9.399-48.968-21.251-70.14-37.438c-16.815-12.855-31.918-26.58-47.155-41.137c-6.933-6.623-15.323-11.65-24.294-15.297
				c-6.979-2.837-13.855-6.813-21.367-7.304c-16.236-1.061-33.134,4.735-42.49,18.684"/>
		</g>
	</g>
	<g>
		<g>
			<path fill="#25242B" d="M129.241,320.305c-5.062,3.41-10.373,7.034-14.226,11.862c-4.043,5.069-5.254,11.438-5.188,17.793
				c0.047,4.748,0.432,9.383,1.396,14.012c0.921,4.432,1.832,9.007,0.368,13.434c-1.28,3.871-4.561,5.654-7.243,8.457
				c-2.783,2.904-3.505,7.16-2.661,11.078c0.486-0.104,1.572,0.222,2.058,0.115c0.104-0.021-0.833-3.092-0.828-3.489
				c0.021-1.858,0.552-4.026,1.694-5.488c2.66-3.421,7.768-4.752,9.453-8.961c1.955-4.891-0.318-10.497-1.355-15.468
				c-1.07-5.147-1.172-10.287-1.022-15.572c0.194-6.776,2.186-12.741,7.138-17.473c4.53-4.329,10.525-7.105,15.693-10.605
				c-0.618-0.904-1.278-2.313-2.229-1.669c-1.002,0.68-2.057,1.278-3.061,1.957"/>
		</g>
	</g>
	<g>
		<g>
			<path fill="#25242B" d="M136.801,339.695c0.75,4.152,1.131,8.356,1.493,12.567c0.189,2.221,0.201,4.413,0.101,6.644
				c-0.083,1.826,0.266,1.692,1.951,1.84c0.792-9.127-1.435-18.189-2.866-27.138c-0.704-4.404-1.326-8.839-1.14-13.308
				c0.092-2.228,0.164-4.479,0.657-6.653c0.409-1.805,0.268-1.768-1.385-2.236c-2.617,9.246-0.99,19.126,0.68,28.376"/>
		</g>
	</g>
	<g>
		<g>
			<path fill="#25242B" d="M129.46,320.012c0.397,0.445-1.126,1.658-0.731,2.104c0.653,0.729,2.607-0.813,3.302-1.372
				c1.745-1.405,2.222-5.051,4.191-6.114c4.196-2.266,9.765-2.056,14.351-3.332c9.606-2.674,19.546-6.529,29.491-6.996
				c9.534-0.449,19.636,0.783,28.973,2.932c11.788,2.712,23.467,8.376,33.429,15.205c10.887,7.461,17.039,19.584,25.169,29.889
				c3.873,4.906,8.849,9.339,13.213,13.823c4.477,4.603,9.057,9.161,14.447,12.632c10.509,6.767,23.658,10.642,35.461,14.736
				c6.159,2.14,11.815,3.056,18.17,4.509c5.976,1.368,12.114,2.191,18.021,3.859c15.066,4.258,29.76,12.046,40.959,23.058
				c5.348,5.256,6.913,13.394,10.704,19.859c2.082,3.552,7.969,4.147,10.788,7.196c1.531,1.657-0.432,6.113,0.664,8.114
				c0.54,0.989,2.45-0.73,3.406-1.144c-1.236-2.877-1.734-6.208-3.739-8.52c-1.905-2.197-3.879-4.074-5.28-6.603
				c-2.529-4.56-5.31-9.148-8.604-13.189c-6.578-8.072-14.817-15.104-23.757-20.43c-9.443-5.623-20.023-8.694-30.742-11.076
				c-12.621-2.806-25.114-5.872-37.185-10.656c-11.457-4.543-22.773-10.172-32.646-17.594c-10.38-7.802-16.656-19.369-24.903-29.21
				c-15.977-19.057-36.994-33.369-61.835-37.126c-12.25-1.854-27.664-2.611-39.887-0.891c-12.423,1.749-27.053,6.334-36.691,14.957"
				/>
		</g>
	</g>
	<g>
		<g>
			<path fill="#25242B" d="M170.399,296.686c-5.371,3.838-10.667,7.758-15.488,12.284c0.3,0.319,1.212,1.752,1.61,1.781
				c1.748-1.641,3.483-3.329,5.362-4.817c4.026-3.192,8.133-6.281,12.303-9.278c7.656-5.507,15.362-11.317,20.861-19.099
				c-0.487-0.346-1.016-0.396-1.503-0.738c-0.934-0.661-0.901,0.6-1.497,1.357c-1.869,2.377-4.161,4.417-6.381,6.467
				c-4.768,4.401-10.095,8.142-15.366,11.907"/>
		</g>
	</g>
	<g>
		<g>
			<path fill="#25242B" d="M183.301,239.624c7.297,1.323,13.597,4.606,18.531,10.169c3.468,3.914,6.453,8.25,9.503,12.49
				c0.745-0.555,1.267-0.438,0.681-1.254c-0.757-1.053-1.184-2.346-1.941-3.396c-1.933-2.685-4.186-5.115-6.302-7.658
				c-5.344-6.425-11.989-10.188-20.215-11.68c-0.096,0.525-0.223,1.073-0.316,1.602"/>
		</g>
	</g>
	<g>
		<g>
			<path fill="#25242B" d="M203.33,255.533c1.122,16.49-11.213,29.878-11.954,46.041c1.165,0.054,2.394,0.568,2.484-0.73
				c0.173-2.445,0.595-4.826,1.222-7.195c1.188-4.492,3.033-8.741,4.803-13.026c3.314-8.024,6.201-16.408,5.597-25.241
				c-0.667,0.045-1.393,0.105-2.061,0.152"/>
		</g>
	</g>
	<g>
		<g>
			<path fill="#25242B" d="M165.877,381.373c1.941,8.543,0.145,16.558-0.097,25.128c-0.227,7.986,2.789,17.56,6.738,24.383
				c3.771,6.513,5.705,13.124,11.335,18.262c3.497,3.194,9.546,2.426,13.7,4.448c2.014,0.98,4.215,1.866,5.68,3.574
				c0.808,0.94,1.208,0.025,2.092-0.66c-5.23-6.738-14.712-6.771-20.254-13.19c-4.407-5.104-7.665-11.213-11.029-17.023
				c-3.917-6.765-6.129-13.673-5.63-21.522c0.517-8.157,2.038-15.911,0.193-24.022c-0.784,0.177-2.288,0.458-3.072,0.638"/>
		</g>
	</g>
	<g>
		<g>
			<path fill="#25242B" d="M138.85,385.232c5.89,7.971,14.965,11.947,24.805,11.073c-0.027-0.296,0.056-1.182-0.143-1.37
				c-1.563,0.141-3.144,0.184-4.708,0.077c-2.931-0.196-5.759-1.219-8.447-2.415c-2.472-1.097-4.632-2.676-6.612-4.518
				c-1.123-1.044-2.237-2.069-3.174-3.281c-0.645-0.835-1.162,0-1.923,0.563"/>
		</g>
	</g>
	<g>
		<g>
			<path fill="#25242B" d="M147.976,348.75c1.078,5.849,8.274,9.892,12.95,12.718c5.336,3.223,10.419,5.972,16.498,7.199
				c9.499,1.917,18.986,3.82,28.212,6.825c4.824,1.568,9.417,3.646,14.05,5.711c2.288,1.021,4.558,2.012,6.787,3.16
				c0.37,0.188,3.162,1.176,3.26,0.996c0.239-0.438,0.836-1.301,1.075-1.737c-9.242-5.047-19.408-8.209-29.505-11.169
				c-4.975-1.459-9.876-3.223-14.939-4.351c-4.446-0.988-8.957-2.028-13.317-3.333c-6.202-1.854-12.847-4.569-17.755-8.736
				c-2.186-1.856-5.15-4.255-5.865-7.141c-0.452-1.836,1.106-3.532,2.386-4.885c0.274-0.291,1.731-1.853,1.681-1.936
				c-0.264-0.421-0.286-1.052-0.55-1.473c-2.808,1.758-5.087,4.545-4.44,8.052"/>
		</g>
	</g>
	<g>
		<g>
			<path fill="#25242B" d="M161.661,371.819c1.968,4.272,7.273,5.958,11.396,7.462c5.204,1.902,10.581,3.268,15.82,5.071
				c5.078,1.754,10.229,3.746,14.819,6.566c2.334,1.434,4.189,3.599,6.203,5.458c1.021,0.942,2.142,1.773,3.043,2.829
				c0.275,0.005,0.87-0.73,1.099-0.922c-7.892-9.242-19.477-13.917-30.744-17.426c-5.705-1.774-12.515-2.667-17.392-6.308
				c-1.84-1.375-3.333-3.367-3.52-5.725c-0.131-1.672,0.336-3.422,0.927-4.976c0.448-1.178-0.148-1.106-1.192-1.555
				c-1.256,2.919-1.47,6.339-0.083,9.349"/>
		</g>
	</g>
	<g>
		<g>
			<path fill="#25242B" d="M167.457,325.94c-2.67,3.381-1.594,7.321-1.658,11.2c-0.082,4.937-4.248,5.415-8.169,5.189
				c-3.554-0.207-7.223-0.27-9.254,3.202c-1.799,3.067-1.994,6.961-1.735,10.374c1.676-0.128,1.328,0.037,1.261-1.78
				c-0.066-1.768,0.487-3.532,0.84-5.271c0.613-3.025,2.133-5.34,5.323-5.548c3.275-0.217,6.864,1.033,9.968-0.437
				c4.138-1.961,3.138-6.554,2.86-10.266c-0.259-3.471,0.908-6.348,3.91-8.23c2.317-1.455,5.125-2.192,7.804-2.587
				c2.494-0.371,5.057-0.478,7.576-0.414c0.838,0.024,1.689-0.012,2.524,0.055c0.944,0.072,0.553-0.05,0.632-0.905
				c-7.068-0.655-17.146-0.77-21.974,5.346"/>
		</g>
	</g>
	<g>
		<g>
			<path fill="#25242B" d="M144.791,365.51c-0.264,1.568-0.223,3.188-0.489,4.759c-0.136,0.81,0.093,1.681-0.045,2.487
				c-0.05,0.298,0.614,0.23,0.91,0.285c1.333-7.862,3.011-15.658,4.654-23.464c1.19-5.646,2.993-11.115,4.993-16.535
				c0.998-2.699,1.955-5.384,3.296-7.931c0.649-1.236,0.708-2.758,1.457-3.937c-0.072-0.264-0.657-0.486-0.908-0.646
				c-8.487,13.318-11.108,29.731-13.642,45.017"/>
		</g>
	</g>
	<g>
		<g>
			<path fill="#25242B" d="M180.695,425.012c21.757,2.845,43.4,6.61,64.945,10.755c6.136,1.181,12.121,2.834,18.093,4.7
				c6.053,1.895,11.951,4.192,17.862,6.479c11.328,4.384,23.158,9.533,35.43,10.153c0.025-0.497-0.239-1.666-0.214-2.161
				c0.009-0.166-3.122-0.934-3.584-0.988c-3.261-0.412-6.51-0.729-9.686-1.569c-6.399-1.692-12.826-3.412-18.998-5.785
				c-6.244-2.398-12.427-4.909-18.792-6.982c-6.553-2.138-13.26-3.058-20.018-4.357c-12.23-2.351-24.361-5.204-36.654-7.209
				c-5.386-0.881-10.603-2.893-16.003-3.68c-2.695-0.392-5.489-0.128-8.189-0.495c-1.324-0.179-2.699,0.653-4.023,0.479
				c-0.202,0.168-0.281,1.438-0.319,1.726"/>
		</g>
	</g>
	<g>
		<g>
			<path fill="#25242B" d="M212.877,434.967c-2.398,0.24-4.792,0.573-7.19,0.813c-1.285,0.129-2.57,0.28-3.852,0.41
				c-1.097,0.109-0.667,0.207-0.588,1.283c3.776-0.38,7.518-0.596,11.293-0.974c3.607-0.365,7.192-0.91,10.806-1.209
				c2.619-0.216,5.255-0.349,7.886-0.393c0.333-0.008,2.768,0.17,2.771-0.043c0.005-0.496-0.114-0.923-0.107-1.421
				c-7.042-0.086-14.036,0.696-21.021,1.498"/>
		</g>
	</g>
	<g>
		<g>
			<path fill="#25242B" d="M304.017,164.66c0.124,0.622-3.375-0.639-3.252-0.018c0.035,0.174,5.43-2.883,5.805-2.938
				c2.711-0.397,5.689,0.03,8.429-0.056c5.68-0.177,12.137,0.132,17.772,0.837c12.266,1.536,24.407,3.129,36.256,6.597
				c10.715,3.138,22.406,9.125,32.973,12.723c9.519,3.241,19.319,8.05,28.175,12.879c8.793,4.799,14.403,9.82,22.454,15.747
				c11.313,8.331,23.335,15.325,35.701,21.954c24.616,13.193,46.471,24.281,71.85,35.955c20.124,9.26,51.813,8.588,76.127,14.418
				c11.003,2.637,34.123,19.446,41.401,28.248c6.611,7.997,3.468,8.545,8.854,17.307c3.357,5.454,1.884,9.456,6.809,13.541
				c5.581,4.626,11.48,10.771,18.455,12.979c0.19-0.604,1.419-0.523,1.607-1.128c0.032-0.095-2.771-4.412-3.169-4.609
				c-2.556-1.264-8.146,2.604-10.491,0.993c-4.583-3.151-9.872-6.583-13.759-10.582c-6.384-6.563-6.52-17.911-11.176-25.655
				c-6.085-10.113-16.149-15.735-26.848-21.174c-9.96-5.066-19.572-9.188-30.561-10.311c-12.638-1.295-25.264-3.186-37.563-6.592
				c-12.946-3.588-28.438-7.646-40.215-13.875c-12.622-6.676-21.535-10.737-34.213-17.308c-12.896-6.683-25.848-14.54-38.235-22.137
				c-9.5-5.824-19.941-14.312-29.153-20.549c-9.394-6.363-18.342-12.056-28.991-15.965c-20.056-7.357-40.247-14.331-61.132-18.876
				c-14.564-3.17-29.176-5.392-43.974-2.433"/>
		</g>
	</g>
	<g>
		<g>
			<path fill="#25242B" d="M304.917,172.17c0.912,0.133,1.662,0.604,1.847-0.404c0.337-1.85,0.977-3.615,1.714-5.341
				c0.838-1.964,1.807-3.856,2.971-5.646c1.016-1.565,1.059-1.316-0.35-2.309c-2.88,4.087-5.458,8.679-6.197,13.678"/>
		</g>
	</g>
	<g>
		<g>
			<path fill="#25242B" d="M286.381,165.589c-2.761,2.169-5.748,4.026-8.571,6.113c-1.153,0.854-1.798,2.351-2.986,3.156
				c-0.047,0.33,0.717,1.122,0.922,1.425c10.448-7.07,19.921-15.41,30.564-22.226c4.942-3.165,9.871-6.7,15.477-8.502
				c2.55-0.819,5.331-0.822,8.005-1.036c1.286-0.103,2.556-0.392,3.842-0.305c0.239-0.221,0.116-1.533,0.141-1.892
				c-8.669-0.583-17.098,2.97-24.467,7.196c-8.106,4.651-15.409,10.545-22.738,16.311"/>
		</g>
	</g>
	<g>
		<g>
			<path fill="#25242B" d="M303.596,147.807c0.046,0.632,0.002,1.127,0.05,1.759c0.014,0.199,3.926,0.553,4.406,0.519
				c3.558-0.239,7.173,1.431,10.734,1.284c6.419-0.266,12.704-1.936,19.124-1.7c12.657,0.465,25.283,1.136,37.525,4.396
				c17.776,4.734,36.144,9.29,53.007,16.648c8.9,3.883,11.563,7.515,18.995,13.828c4.838,4.113,9.379,9.598,13.322,14.575
				c3.733,4.707,10.369,12.628,14.431,17.077c10.186,11.165,27.428,14.066,40.76,20.568c21.021,10.269,42.008,20.438,64.849,26.023
				c11.874,2.903,23.75,3.837,35.967,4.106c5.935,0.133,12.035-1.396,17.958-1c5.422,0.36,11.437,1.325,16.672,2.768
				c6.354,1.749,11.727,7.309,17.229,10.965c6.392,4.249,8.262,12.781,13.069,18.677c10.054,12.328,24.251,20.16,36.593,30.396
				c0.405-0.488,0.729,3.333,1.136,2.846c0.109-0.135-7.443-1.067-7.798-1.385c-2.553-2.285-3.63-6.457-5.973-8.956
				c-4.261-4.552-9.027-8.957-12.863-13.867c-7.576-9.698-10.291-24.479-20.717-31.343c-9.125-6.009-15.379-11.201-26.162-12.478
				c-5.51-0.65-16.203-0.445-21.733-0.402c-6.438,0.05-14.388-0.01-20.793-0.672c-23.276-2.398-39.408-4.834-60.511-14.623
				c-8.647-4.008-22.144-12.496-30.713-16.67c-6.369-3.103-13.973-3.728-20.168-7.168c-4.29-2.381-9.57-3.878-13.091-7.313
				c-4.206-4.104-7.02-11.653-10.491-16.343c-6.734-9.098-14.444-17.436-24.147-23.344c-16.555-10.082-30.685-14.853-49.104-20.527
				c-12.408-3.82-29.329-9.695-42.257-11.236c-16.279-1.94-33.237-1.817-49.545-0.596"/>
		</g>
	</g>
	<g>
		<g>
			<path fill="#25242B" d="M296.871,174.269c1.71,0.333,1.342,0.293,1.762-1.449c0.481-1.994,1.447-3.861,2.183-5.775
				c1.498-3.904,3.248-7.757,5.572-11.234c2.287-3.42,4.88-6.788,8.026-9.451c1.387-1.174,2.985-2.16,4.568-3.057
				c0.287-0.162,2.166-0.801,2.091-0.971c-0.2-0.454-0.404-1.013-0.605-1.467c-12.41,5.498-20.767,20.591-23.271,33.454"/>
		</g>
	</g>
	<g>
		<g>
			<path fill="#25242B" d="M340.698,144.841c0.271,0.532,0.313-0.112,0.583,0.42c0.529,1.037,1.429,0.685,2.315,0.288
				c2.772-1.236,5.649-1.415,8.644-1.926c5.547-0.946,10.755-0.754,16.229,0.363c7.182,1.467,14.715,1.56,21.852,3.246
				c10.101,2.387,19.95,5.77,29.862,8.875c13.282,4.16,25.448,10.725,38.105,16.385c6.964,3.114,14.395,4.402,21.856,6.07
				c0.129-0.582,0.244,0.212,0.375-0.369c0.259-1.164-1.477-1.202-2.426-1.448c-3.563-0.925-7.438-1.052-10.873-2.372
				c-6.744-2.592-13.387-5.641-19.894-8.772c-12.627-6.077-24.703-12.312-38.318-15.738c-8.146-2.049-14.534-5.568-22.709-7.501
				c-8.265-1.952-18.442-3.023-26.977-3.295c-6.698-0.213-13.553,1.082-19.518,4.115"/>
		</g>
	</g>
	<g>
		<g>
			<path fill="#25242B" d="M472.272,174.436c0.323,0.377,0.521,0.702,0.844,1.08c0.028,0.035,2.65-1.488,3.036-1.659
				c1.069-0.479,2.152-0.973,3.311-1.163c0.707-0.114,1.432-0.113,2.146-0.119c1.102-0.007,0.961,0.667,1.26,1.608
				c0.911,2.861,1.534,5.806,1.971,8.779c0.189,1.283,0.536,2.535,0.612,3.828c0.235,0.17,1.03-0.049,1.342-0.067
				c-0.312-5.177-1.383-10.289-3.135-15.163c-0.978-1.125-3.566-0.662-5.079-0.347c-2.34,0.484-4.682,1.462-6.5,3.023"/>
		</g>
	</g>
	<g>
		<g>
			<path fill="#25242B" d="M481.022,169.799c5.54,10.067,13.604,16.208,23.209,22.07c6.876,4.196,14.876,10.737,21.892,14.693
				c11.191,6.31,23.648,10.653,34.227,17.903c11.336,7.771,20.233,15.042,32.833,20.534c11.162,4.868,18.631,9.269,30.59,11.672
				c6.545,1.313,17.642,2.521,24.15,4.024c6.27,1.449,13.718,3.355,19.722,5.67c17.563,6.773,34.103,15.986,50.558,25.035
				c0.202-0.371,0.236,0.037-0.121-0.156c-1.119-0.617-1.411-2.742-2.531-3.357c-2.559-1.408-4.173-4.523-6.729-5.933
				c-10.748-5.913-22.404-10.193-33.671-15.082c-12.067-5.239-24.694-7.289-37.69-9.265c-12.405-1.881-24.631-5.678-36.243-10.404
				c-12.665-5.157-23.297-13.836-34.715-21.383c-11.532-7.62-24.6-12.76-36.424-19.939c-15.845-9.62-34.42-18.575-45.155-34.47
				c-0.356-0.53-1.046-2.659-1.544-2.384c-0.617,0.338-3.572,1.321-4.188,1.661"/>
		</g>
	</g>
	<g>
		<g>
			<path fill="#25242B" d="M441.333,173.736c13.333,3.529,24.966,11.309,36.727,18.353c11.954,7.161,24.434,13.407,36.472,20.434
				c24.63,14.375,47.727,31.52,73.047,44.7c5.517,2.871,11.765,4.258,17.469,6.739c0.124-0.286,0.303-0.389,0.223-0.667
				c-1.448-0.63-3.038-0.806-4.476-1.465c-3.188-1.469-5.587-4.589-8.718-6.18c-6.25-3.174-13.474-4.606-19.553-8.096
				c-12.539-7.19-24.472-15.48-36.779-23.055c-11.735-7.22-23.284-14.729-35.023-21.943c-12.169-7.477-24.429-14.77-37.198-21.213
				c-7.061-3.56-14.166-6.862-21.819-8.888c-0.135,0.519,0.056-0.22-0.08,0.298"/>
		</g>
	</g>
	<g>
		<g>
			<path fill="#25242B" d="M552.501,341.645c-8.411,19.577-19.475,37.922-27.547,57.652c-3.89,9.5-8.08,18.805-12.55,28.052
				c-2.253,4.67-3.255,9.978-5.867,14.454c-1.274,2.187-3.223,3.959-4.597,6.083c-0.37,0.575-1.796,2.632-1.104,3.093
				c0.446,0.3,3.896,0.553,4.342,0.852c15.366-22.983,24.985-55.268,41.979-93.136c2.826-6.3,6.367-12.308,9.1-18.649
				c4.979-11.565,8.124-24.076,14.41-35.007c2.627-4.563,5.857-8.847,9.064-13.032c1.515-1.974,3.389-3.673,5.082-5.496
				c0.231-0.248,1.503-1.445,1.367-1.58c-0.444-0.451-0.398-1.176-0.847-1.625C569.446,299.092,561.184,321.438,552.501,341.645"/>
		</g>
	</g>
	<g>
		<g>
			<path fill="#25242B" d="M576.835,284.079c0.012,0.495,0.674,0.536,0.688,1.032c0.003,0.154,2.046,0.746,2.448,0.779
				c2.315,0.195,4.542,0.418,6.733,1.187c4.645,1.622,9.18,3.315,13.836,4.918c5.303,1.821,10.569,2.747,16.08,2.946
				c5.548,0.197,9.685,1.539,13.924,5.244c3.154,2.758,5.965,5.658,8.779,8.729c2.966,3.234,6.533,5.968,10.791,7.102
				c5.015,1.338,10.408,0.56,15.475,1.563c2.275,0.45,4.477,1.27,6.539,2.336c1.224,0.634,2.044,2.061,3.163,2.868
				c0.294-0.091,1.321-1.981,1.513-2.248c-3.692-2.664-8.142-3.319-12.636-3.998c-4.769-0.72-9.664-1.081-14.313-2.47
				c-8.165-2.438-11.283-10.273-17.22-15.616c-3.702-3.329-7.896-6.032-12.851-6.529c-5.278-0.529-10.649,0.506-15.874-0.549
				c-4.686-0.945-9.249-2.266-13.571-4.182c-4.389-1.947-8.738-4.321-13.562-4.2"/>
		</g>
	</g>
	<g>
		<g>
			<path fill="#25242B" d="M549.827,422.765c-5.513,10.948-10.815,22.014-16.328,32.962c0.407,0.201,2.198,1.453,2.462,0.932
				c0.314-0.628-0.968-2.062-0.651-2.688c1.259-2.496,3.451-4.521,4.707-7.018c3.125-6.206,6.87-12.1,9.993-18.305
				c9.656-19.177,18.262-38.854,27.382-58.295c10.657-22.724,21.336-45.541,28.983-69.463c-0.477-0.15-1.011-1.303-1.486-1.453
				c-0.203-0.065-1.72,3.584-1.847,3.974c-0.888,2.7-0.556,5.816-1.492,8.499c-1.968,5.624-4.475,11.075-6.644,16.628
				c-4.224,10.805-9.332,21.254-14.136,31.815c-9.605,21.147-20.242,41.799-30.771,62.496"/>
		</g>
	</g>
	<g>
		<g>
			<path fill="#25242B" d="M546.626,333.557c-0.507,0.009-2.179-0.218-2.548,0.08c-0.944,0.763-0.738,3.635-0.128,4.572
				c0.693,1.073,1.901,1.666,2.989,2.245c1.271,0.68,1.065,0.344,1.77-0.88c-1.209-0.647-3.636-1.406-3.636-3.032
				c0-1.493,0.693-1.265,1.829-1.298c0.705-0.021,1.4-0.086,2.104-0.105c-0.034-0.256-0.076-1.569-0.293-1.563
				c-0.695,0.02-1.394-0.051-2.088-0.031"/>
		</g>
	</g>
	<g>
		<g>
			<path fill="#25242B" d="M310.598,304.855c1.274,1.104,0.922,1.058,2.249-0.069c1.335-1.134,3.083-1.904,4.864-1.708
				c3.822,0.425,5.25,4.509,3.003,7.443c-1.941,2.535-6.002,4.604-8.583,1.706c-1.061-1.191-1.62-2.813-1.45-4.376
				c0.034-0.33,0.693-2.193,0.594-2.235c-0.458-0.193-0.885-0.343-1.343-0.537c-1.375,3.229-0.846,7.396,2.403,9.311
				c3.317,1.953,7.115,0.013,9.336-2.688c2.313-2.813,2.39-6.761-0.779-8.966c-3.493-2.432-7.825-0.881-10.378,2.066"/>
		</g>
	</g>
	<g>
		<g>
			<path fill="#25242B" d="M424.621,199.469c2.282,2.024,5.713,2.182,8.559,1.502c-0.391-1.63-0.158-1.465-1.895-1.292
				c-1.738,0.174-3.649-0.052-5.115-1.07c-1.311-0.912-1.961-2.409-2.053-3.983c-0.091-1.584-0.079-1.372-1.637-1.551
				c-0.266,2.33,0.406,4.732,2.201,6.323"/>
		</g>
	</g>
	<g>
		<g>
			<path fill="#25242B" d="M390.059,254.422c9.232,4.322,17.647,10.335,26.345,15.624c1.021-1.713,0.843-1.786-0.811-2.79
				c-1.617-0.984-3.174-2.07-4.792-3.055c-6.544-3.98-13.137-7.947-20.084-11.204c-0.229,0.487-0.57,1.221-0.799,1.706"/>
		</g>
	</g>
	<g>
		<g>
			<path fill="#25242B" d="M215.327,280.635c0.85,0.458,1.808,1.399,2.334,0.444c0.886-1.612,1.713-3.255,2.692-4.813
				c1.763-2.805,3.403-5.722,5.462-8.316c3.988-5.031,8.864-9.285,13.739-13.454c5.055-4.321,10.281-8.446,15.822-12.118
				c2.968-1.968,5.891-4.013,8.918-5.888c1.687-1.046,3.589-1.735,5.286-2.767c1.491-0.906,1.162-1.045,0.335-2.408
				c-10.771,6.517-21.757,13.004-31.385,21.16c-9.333,7.907-17.114,17.508-22.946,28.277"/>
		</g>
	</g>
	<g>
		<g>
			<path fill="#25242B" d="M309.637,189.859c-1.012,3.992-2.446,7.866-4.101,11.65c-0.872,1.993-1.618,4.063-2.89,5.829
				c-0.182,0.253-1.415,1.526-1.268,1.652c0.378,0.324,0.476,0.635,0.852,0.958c5.167-6.042,7.217-13.621,9.144-21.133
				c0.967-3.768,2.044-7.516,3.649-11.067c0.82-1.822,1.462-3.797,2.603-5.439c0.18-0.26,1.812-1.708,1.661-1.831
				c-0.384-0.316-0.667-0.374-1.05-0.69c-4.773,5.816-7.309,12.781-9.128,19.937"/>
		</g>
	</g>
	<g>
		<g>
			<path fill="#25242B" d="M421.214,436.609c2.649,1.587,5.31,3.155,7.96,4.741c2.832,1.693,5.832,3.146,8.527,5.059
				c1.338,0.95,2.647,1.957,3.912,3.006c0.933,0.776,0.716,0.374,1.421-0.444c-4.89-4.187-10.42-7.361-15.92-10.656
				c-1.215-0.727-2.219-1.8-3.432-2.524c-1.512-0.905-1.542-0.92-2.482,0.612"/>
		</g>
	</g>
	<g>
		<g>
			<path fill="#25242B" d="M273.042,338.505c1.226,5.291,3.572,10.125,5.822,15.03c1.119,2.446,2.254,4.925,3.024,7.505
				c0.117,0.391,0.574,3.413,0.732,3.383c0.486-0.095,0.809-0.331,1.297-0.428c-1.007-5.187-3.083-10.007-5.29-14.761
				c-1.096-2.362-2.081-4.757-2.927-7.222c-0.438-1.273-0.834-2.575-1.137-3.89c-0.269-0.129-1.218,0.327-1.529,0.398"/>
		</g>
	</g>
	<g>
		<g>
			<path fill="#25242B" d="M86.861,232.659c4.196,10.764,17.677,13.786,28.01,13.741c5.641-0.024,10.647-1.782,14.403-6.08
				c2.851-3.264,7.869-10.616,3.96-14.756c-0.691,0.652-1.563,1.096-1.06,1.925c0.838,1.378-0.05,3.259-0.563,4.676
				c-1.088,3.017-3.211,5.567-5.496,7.794c-5.449,5.307-13.894,4.33-20.73,3.102c-6.35-1.141-12.663-4.342-15.582-10.404
				c-1.551-3.221-1.961-6.656-0.905-10.052c0.598-1.931,1.474-3.746,2.624-5.404c0.361-0.519,1.293-1.159,0.667-1.655
				c-0.422-0.335-1.16-0.882-1.581-1.22c-4.024,5.059-5.564,11.832-3.125,18.091"/>
		</g>
	</g>
	<g>
		<g>
			<path fill="#25242B" d="M102.048,215.974c2.223,1.456,3.823,3.397,4.573,5.925c0.68,2.294,0.862,5.267,3.521,6.137
				c2.317,0.757,5.053,0.056,7.297-0.571c0.721,1.383,0.885,2.71,0.19,4.104c-0.5,1.005,0.039,0.869,0.931,1.349
				c1.294-2.409,1.454-4.565-0.048-6.96c-0.535-0.851-5.562,1.05-7.018,0.918c-2.619-0.238-2.727-3.092-3.309-5.144
				c-0.852-2.993-2.506-5.624-5.135-7.344c-0.292,0.448-0.574,0.96-0.868,1.409"/>
		</g>
	</g>
	<g>
		<g>
			<path fill="#25242B" d="M91.721,225.708c-1.548,3.78,0.395,7.287,3.538,9.458c0.283-0.406,0.518-0.813,0.801-1.221
				c-0.01,0.013-2.135-2.188-2.393-2.582c-1.376-2.086-1.078-4.493,0.369-6.472c1.393-1.91,3.515-3.153,5.788-3.73
				c1.379-0.351,2.788-0.48,4.19-0.235c0.22-0.191,0.206-1.28,0.26-1.59c-4.885-0.855-10.589,1.634-12.534,6.378"/>
		</g>
	</g>
	<g>
		<g>
			<path fill="#25242B" d="M112.333,238.473c1.324,0.694,2.123-3.377,2.262-4.203c-0.491-0.082-0.967-0.158-1.458-0.242
				c-0.038-0.006-0.847,2.453-1.034,2.791c-2.114-0.586-4.192-1.604-5.87-3.037c-1.639-1.402-2.723-3.321-3.031-5.477
				c-0.177-1.219-0.288-2.465-0.013-3.663c-0.196-0.236-1.085-0.273-1.404-0.342c-1.691,7.392,3.849,12.476,10.564,14.107"/>
		</g>
	</g>
	<g>
		<g>
			<path fill="#25242B" d="M138.076,232.287c6.419,3.257,14.559,2.341,21.429,1.611c-0.171,1.711-0.143,3.229-0.759,4.842
				c7.42-0.471,14.498,1.922,21.884,1.713c-0.03-1.096,0.371-1.073-0.847-1.076c-2.197-0.01-4.444-0.296-6.61-0.643
				c-4.07-0.657-8-2.109-12.146-2.018c0.212-1.728,0.172-3.377,0.748-5.029c-4.314,0.459-8.728,1.256-13.074,1.205
				c-2.417-0.031-4.757-0.625-7.098-1.257c-0.952-0.258-2.052-0.013-2.932-0.456c-0.239,0.08-0.339,0.643-0.467,0.893"/>
		</g>
	</g>
	<g>
		<g>
			<path fill="#25242B" d="M86.285,252.391c7.996,2.484,15.648,6.202,23.744,8.346c12.125,3.209,24.289,4.445,36.765,2.875
				c-0.532-0.508-0.938-0.766-1.471-1.271c1.652,0.151,3.165-0.826,4.817-0.674c1.511,0.141,1.264-0.791,1.496-2.184
				c-4.255-0.401-8.679-0.246-12.943-0.537c0.848,0.824,1.688,1.51,2.525,2.345c-18.765,1.565-36.921-4.646-54.549-10.127
				c-0.233,0.771-0.101,1.136-0.333,1.905"/>
		</g>
	</g>
	<g>
		<g>
			<path fill="#25242B" d="M156.819,260.047c0.028,0.805,0.079,1.727,0.107,2.532c14.377-0.513,31.043-2.354,42.741-11.677
				c-0.264-0.33-0.77-1.35-1.15-1.396c-1.271,1.014-2.695,1.799-4.101,2.611c-3.041,1.757-6.421,2.831-9.767,3.885
				c-8.975,2.823-18.446,3.982-27.81,4.314"/>
		</g>
	</g>
	<g>
		<g>
			<path fill="#25242B" d="M227.99,159.162c0.604-0.193,1.19-0.363,1.794-0.556c0.154-0.049-0.742-3.028-0.84-3.43
				c-0.77-3.169-1.02-6.426-1.315-9.673c-0.27-2.979-0.827-5.967-0.687-8.956c0.064-1.378,0.605-2.749,0.789-4.117
				c-0.211-0.254-2.008-0.242-2.366-0.29c-1.195,8.866-0.036,18.49,2.681,27.006"/>
		</g>
	</g>
	<g>
		<g>
			<path fill="#25242B" d="M229.157,155.875c4.109,5.478,11.037,8.424,16.792,11.865c2.994,1.791,5.741,3.951,8.483,6.117
				c2.536,2.005,4.638,4.469,6.992,6.68c9.099,8.54,19.887,15.297,32.568,16.685c0.075-0.698-0.249-1.572-0.17-2.271
				c0.056-0.524-3.218-1.063-3.947-1.222c-3.456-0.75-6.625-2.176-9.798-3.734c-6.291-3.091-11.928-7.155-16.999-11.944
				c-2.595-2.453-4.792-5.385-7.665-7.528c-3.419-2.551-7.738-3.762-11.394-5.947c-3.292-1.967-6.531-4.223-9.435-6.746
				c-0.365-0.317-2.859-3.22-2.831-3.241c-0.624,0.467-1.811,0.65-2.435,1.117"/>
		</g>
	</g>
	<g>
		<g>
			<path fill="#25242B" d="M303.778,170.081c-4.969,2.726-9.88,5.684-15.351,7.256c-3.534,1.015-7.254,1.535-10.917,1.856
				c-2.064,0.18-4.161-0.187-6.234-0.178c-2.038,0.009-1.732,0.546-1.761,2.411c9.601,0.145,19.021-1.671,27.752-5.745
				c3.7-1.728,7.039-4.129,10.645-6.035c2.504-1.326,5.354-1.923,8.014-2.904c0.375-0.138,3.006-1.217,2.962-1.371
				c-0.176-0.61-0.345-1.444-0.519-2.052c-5.175,1.489-10.081,3.84-14.779,6.418"/>
		</g>
	</g>
	<g>
		<g>
			<path fill="#25242B" d="M110.311,129.219c-4.391,1.544-6.644,6.286-8.359,10.378c-1.971,4.71-2.551,9.771-2.585,14.832
				c0.312,0.002,1.174,0.176,1.398-0.008c0.012-1.724,0.076-3.442,0.235-5.16c0.262-2.854,1.109-5.623,2.144-8.305
				c0.955-2.473,2.039-4.911,3.554-7.078c0.834-1.191,1.962-2.164,3.316-2.721c1.335-0.55,2.532-0.833,3.415-2.094
				c-0.407-0.285-0.526-0.563-0.935-0.848c0.064,0.045-1.849,1.101-2.116,1.193"/>
		</g>
	</g>
	<g>
		<g>
			<path fill="#25242B" d="M145.722,96.124c0.261,0.132,1.138,0.777,1.396,0.704c0.623-1.232,1.631-2.23,2.829-2.92
				c1.058-0.609,2.243-1.009,3.459-1.082c1.01-0.061,0.674-0.71,0.685-1.644c-3.48-0.043-6.765,1.802-8.358,4.949"/>
		</g>
	</g>
	<g>
		<g>
			<path fill="#25242B" d="M137.128,116.456c0.195,1.431,3.66-0.042,4.333-0.615c1.367-1.154,1.802-3.054,2.137-4.724
				c-1.424-0.287-1.44-0.571-1.828,0.913c-0.292,1.122-0.778,2.324-1.893,2.864c-2.073,1.003-1.847-1.611-1.099-2.903
				c0.164-0.283,1.325-1.615,1.238-1.707c-0.343-0.361-0.648-0.734-0.988-1.097c-2.129,2.008-3.021,4.46-1.897,7.272"/>
		</g>
	</g>
	<g>
		<g>
			<path fill="#25242B" d="M149.756,100.616c-0.247,0.7-1.134,3.189-0.37,3.662c1.625,1.005,3.303,1.45,5.21,1.399
				c1.088-0.03,1.326-2.441,1.41-3.212c0.143-1.307-0.264-1.019-1.498-1.281c-0.115,1.02,0.067,2.941-1.257,2.793
				c-1.043-0.116-2.531-0.237-2.302-1.468c0.142-0.74,0.413-1.455,0.661-2.163c-0.751-0.239-1.806-0.959-1.845,0.281"/>
		</g>
	</g>
	<g>
		<g>
			<path fill="#25242B" d="M132.722,96.954c-1.512,1.229-2.973,2.679-4.743,3.518c-0.286,0.136-2.616,0.516-2.583,0.653
				c0.118,0.481,0.6,1.164,0.717,1.646c4.034-0.982,6.935-4.039,10.219-6.33c3.2-2.231,6.039-2.693,9.723-1.967
				c2.878,0.544,5.635,1.623,8.263,2.962c1.439,0.734,3.079,1.345,4.102,2.61c0.203,0.25,1.051,2.244,1.164,2.193
				c0.456-0.199,0.469-0.542,0.923-0.741c-2.203-5.032-7.758-6.859-12.718-7.878c-2.302-0.474-4.681-1.619-7.042-1.335
				c-3.188,0.383-5.58,2.746-7.996,4.707"/>
		</g>
	</g>
	<g>
		<g>
			<path fill="#25242B" d="M167.264,124.824c-1.559,2.341-3.422,4.49-4.925,6.869c-1.587,2.514-2.875,5.233-4.664,7.611
				c-1.07,1.427-2.474,2.584-3.64,3.934c-1.214,1.405-1.051,1.33,0.214,2.469c5.705-6.339,9.612-13.77,14.661-20.564
				c2.849-3.834,6.16-7.371,10.457-9.619c2.021-1.057,4.045-2.181,6.256-2.717c1.213-0.295,2.448-0.588,3.678-0.803
				c1.043-0.183,0.612-0.603,0.457-1.527c-4.365,0.729-8.717,1.983-12.527,4.327c-4.07,2.504-6.94,6.38-9.729,10.194"/>
		</g>
	</g>
	<g>
		<g>
			<path fill="#25242B" d="M161.766,114.29c-9.27,6.779-11.942,20.573-11.96,31.301c0.497,0.001,1.227,0.271,1.723,0.273
				c0.195,0,0.394-2.958,0.416-3.346c0.123-2.361,0.074-4.745,0.479-7.075c0.832-4.806,2.61-9.458,5.134-13.662
				c2.294-3.821,5.346-7.326,9.692-8.638c2.386-0.722,4.965-0.89,7.43-0.57c1.535,0.198,2.975,0.995,4.45,1.461
				c0.245-0.165,0.556-1.832,0.651-2.135c-6.047-1.912-12.655-1.355-17.932,2.503"/>
		</g>
	</g>
	<g>
		<g>
			<path fill="#25242B" d="M153.139,141.689c-0.201,0.652-0.198,1.37-0.4,2.022c-0.058,0.19,0.936,0.387,1.175,0.462
				c1.832-5.908,3.782-11.891,7.071-17.192c1.754-2.827,3.798-5.582,6.73-7.215c1.617-0.9,3.42-1.527,5.244-1.833
				c0.34-0.057,2.41-0.071,2.404-0.24c-0.019-0.497,0.021-0.801,0.003-1.298c-13.968,0.524-18.648,14.001-22.132,25.323"/>
		</g>
	</g>
	<g>
		<g>
			<path fill="#25242B" d="M120.452,83.469c-1.829,0-1.692-0.327-1.692,1.434c0,0.658,5.754,0.184,6.503,0.191
				c6.27,0.043,12.57,0.478,18.71,1.851c6.216,1.392,11.345,4.829,17.263,6.934c5.147,1.83,10.7,1.133,16.106,1.424
				c4.663,0.255,8.854,2.03,12.646,4.914c3.091,2.352,5.218,5.692,7.845,8.531c3.036,3.279,6.434,6.037,10.017,8.745
				c4.768,3.603,11.176,6.213,14.638,11.188c1.322,1.901,1.495,4.606,1.647,6.935c0.033,0.503-0.387,2.098,0.19,2.161
				c0.7,0.077,0.875-0.654,1.574-0.577c-0.227-4.605,0.369-7.034-2.741-10.534c-4.142-4.662-10.997-8.973-15.879-12.787
				c-6.179-4.827-10.127-12.352-16.614-16.735c-8.524-5.761-19.617-2.647-28.952-6.127c-5.861-2.185-11.049-5.399-17.241-6.772
				c-6.056-1.346-12.335-1.003-18.517-1.061c-1.836-0.017-3.668,0.115-5.503,0.116"/>
		</g>
	</g>
	<g>
		<g>
			<path fill="#25242B" d="M55.918,146.692c-0.343,4.512-0.795,9.029-0.52,13.549c0.749-0.674,1.991-1.508,2.739-2.183
				c0.561,4.107,0.06,8.354-0.003,12.487c0.664,0.008,1.843,0.344,1.856-0.43c0.021-1.515,0.237-3.032,0.24-4.548
				c0.009-3.577-0.698-7.011-1.348-10.525c-0.646,0.573-0.869,1.036-1.511,1.615c-0.14-5.301-0.095-10.513,0.242-15.804
				c-1.8-0.071-1.168-0.201-1.278,1.56c-0.091,1.429-0.279,2.853-0.369,4.282"/>
		</g>
	</g>
	<g>
		<g>
			<path fill="#25242B" d="M67.699,170.868c2.975,9.265,11.555,14.769,17.935,21.507c3.506,3.704,5.795,7.745,7.053,12.706
				c1.122,4.423,2.364,8.541,5.339,12.135c0.38-0.315,1.053-0.9,1.438-1.216c0.075-0.062-2.136-2.658-2.375-3.078
				c-1.11-1.947-1.327-4.25-1.852-6.415c-1.355-5.573-3.327-10.511-7.202-14.817c-3.71-4.123-8.481-7.203-12.268-11.251
				c-1.76-1.882-3.155-4.067-4.411-6.322c-0.693-1.244-1.596-2.385-2.031-3.742c-0.261-0.109-1.215,0.355-1.506,0.448"/>
		</g>
	</g>
	<g>
		<g>
			<path fill="#25242B" d="M87.925,210.483c1.972,2.083,4.44,3.849,7.034,5.055c0.126-0.268,0.764-1.211,0.686-1.469
				c-1.251-0.583-2.435-1.312-3.563-2.107c-1.076-0.76-2.104-1.612-3.011-2.571c-0.261,0-1.026,0.972-1.237,1.17"/>
		</g>
	</g>
	<g>
		<g>
			<path fill="#25242B" d="M61.409,233.225c0.478,0.353,0.706,0.191,1.184,0.545c0.273-1.065,1.227-1.957,1.505-3.02
				c2.821,6.088,4.861,12.854,9.288,18.007c2.427,2.825,5.128,4.161,8.297,5.923c0.385,0.213,3.341,2.877,3.015,3.03
				c0.701-0.333,1.332-0.821,2.035-1.153c-1.976-4.164-6.914-4.274-10.036-7.175c-3.808-3.54-5.911-8.575-7.982-13.268
				c-1.818-4.119-3.391-8.568-5.29-12.653c-0.504,2.002-1.236,4.088-1.733,6.094c-3.534-3.767-6.05-8.738-7.478-13.616
				c-0.726-2.489-1.021-5.145-1.216-7.734c-0.044-0.586,0.301-2.758-0.252-2.797c-0.702-0.048-1.908,0.007-2.609-0.044
				c-0.352,4.974,1.792,10.211,3.506,14.825c1.688,4.546,3.908,9.841,7.935,12.81"/>
		</g>
	</g>
	<g>
		<g>
			<path fill="#25242B" d="M83.855,248.313c1.44,1.492,2.877,2.988,4.344,4.455c1.552,1.555,3.104,3.17,4.246,5.059
				c0.153,0.262,0.902,2.087,1.053,2.025c0.462-0.186,0.898-0.481,1.361-0.668c-1.433-3.588-4.224-6.223-6.845-8.94
				c-0.803-0.832-1.64-1.632-2.441-2.463c-0.759-0.788-0.881-0.027-1.668,0.655"/>
		</g>
	</g>
	<g>
		<g>
			<path fill="#25242B" d="M94.969,119.713c-3.726,4.646-7.207,9.566-9.819,14.957c-2.88,5.938-3.761,12.388-3.683,18.949
				c0.497-0.006,0.736-0.214,1.233-0.221c0.169-0.001,0.022-3.143,0.047-3.605c0.145-2.464,0.811-4.868,1.39-7.268
				c1.013-4.198,2.39-8.325,4.72-11.948c3.455-5.373,8.194-9.994,12.153-14.999c-1.521-1.172-1.635-1.106-2.796,0.363
				c-1.028,1.3-1.757,2.84-2.785,4.14"/>
		</g>
	</g>
	<g>
		<g>
			<path fill="#25242B" d="M80.077,148.412c0.498,0,1.324-0.25,1.821-0.25c0.22,0,0.179-1.938,0.182-2.281
				c0.026-2.218,0.369-4.413,0.533-6.626c0.292-3.924,0.806-7.828,2.288-11.497c1.283-3.177,2.887-6.342,5.688-8.348
				c1.623-1.162,3.528-2.031,5.418-2.661c0.982-0.327,2-0.527,3.013-0.739c0.137-0.225-0.237-1.314-0.297-1.598
				c-7.385,1.548-13.505,6.055-16.185,13.204c-2.456,6.559-2.031,13.881-2.036,20.784"/>
		</g>
	</g>
	<g>
		<g>
			<path fill="#25242B" d="M121.269,93.843c0.296,0.106,1.126,0.616,1.403,0.52c0.377-1.052,1.033-1.939,1.82-2.731
				c1.708-1.718,3.944-2.87,6.252-3.459c2.674-0.682,5.485-0.639,8.235-0.74c1.352-0.051,2.701-0.407,4.054-0.39
				c0.911,0.012,0.593-0.849,0.607-1.65c-7.224-0.127-19.392,0.086-22.384,8.454"/>
		</g>
	</g>
	<g>
		<g>
			<path fill="#25242B" d="M120.915,90.668c0.478,0.141,0.789,0.019,1.265,0.159c0.161,0.046,0.661-1.022,0.799-1.275
				c0.646-1.174,1.49-2.224,2.618-2.939c2.439-1.549,5.486-1.786,8.323-1.918c2.74-0.127,5.461,0.029,8.169,0.434
				c0.881,0.132,1.816-0.052,2.688,0.127c1.043,0.214,0.809-0.294,1.036-1.294c-7.563-1.72-22.375-3.223-25.261,6.615"/>
		</g>
	</g>
	<g>
		<g>
			<path fill="#25242B" d="M57.604,120.548c-0.231,0.501-0.184,1.073-0.415,1.575c1.462-0.353,2.824-0.763,4.295-1.062
				c-3.634,5.389-7.835,10.617-9.524,17.005c0.305,0.08,1.773,0.67,2.042,0.548c0.458-1.731,0.759-3.555,1.529-5.173
				c1.489-3.138,3.432-6.056,5.404-8.901c1.542-2.262,2.999-4.358,4.529-6.627c-1.846,0.838-3.519,1.447-5.497,1.93
				c1.572-2.878,4.077-5.328,6.307-7.724c1.028-1.104,2.048-2.186,3.156-3.208c0.684-0.632-0.434-1.38-0.985-1.988
				c-4.262,3.874-8.315,8.386-10.754,13.664"/>
		</g>
	</g>
</g>
<g>
	<g>
		<path fill="#0090C0" d="M126.025-63.312c-2.147,9.66-6.979,24.149-9.124,31.127c-2.146,6.976-7.512,17.708-15.026,25.222
			c-7.515,7.513-8.05,9.659-8.05,9.659s10.732,12.344,31.126,25.224c20.393,12.879,25.223,12.344,25.223,12.344
			s12.88-22.004,24.15-32.2c11.269-10.197,16.637-11.27,25.223-17.709c8.586-6.44,12.342-19.32,12.342-19.32L126.025-63.312z"/>
		<path fill="#ECAF8B" d="M97.581,5.917c0,0-8.048,18.245-18.782,32.199C68.065,52.07,66.454,54.217,50.892,63.34
			C35.33,72.464,32.647,77.829,24.061,84.805c-8.588,6.978-12.344,7.515-12.344,7.515s3.756,29.515,6.977,49.908
			c3.22,20.394,4.83,33.809,10.733,49.374c5.904,15.562,9.124,16.636,9.124,16.636s5.902-3.756,7.512-6.976
			c1.611-3.22,1.611-3.22,1.611-3.22s2.682-10.196-1.611-23.613c-4.292-13.416-8.05-19.856-8.05-19.856s12.88-10.197,13.954-25.76
			c1.075-15.563,10.196-23.076,16.636-23.613c6.44-0.536,30.591-12.879,34.347-18.246c3.756-5.368,3.756-5.368,3.756-5.368
			s14.491-1.071,15.564-13.415c1.07-12.345,10.73-23.615,12.34-26.297c1.61-2.684,5.368-5.903,5.368-5.903
			S106.704,18.259,97.581,5.917z"/>
		<path fill="#F2D7C5" d="M28.89,139.008c-0.783,5.946-2.147,23.076,9.255,15.695c7.695-4.979,3.661-23.562-8.184-16.231"/>
		<path fill="#F2D7C5" d="M34.792,187.308c6.516,0.421,8.051,4.83,9.566,11.186c-3.509-1.531-6.691-4.763-8.493-8.503"/>
		<path fill="#F2D7C5" d="M31.036,195.894c4.883,2.178,8.273,5.919,7.98,11.252c-1.966-2.564-4.27-5.089-5.834-8.032"/>
	</g>
	<g>
		<g>
			<g>
				<path fill="#25242B" d="M79.533,34.222c-2.319,3.527-4.682,7.026-7,10.553c-4.806,7.309-11.694,11.4-19.411,15.274
					c-4.5,2.26-8.641,4.827-12.501,8.133c-3.749,3.211-6.455,7.42-9.761,11.063c-3.542,3.901-8.192,6.362-12.529,9.345
					c-3.258,2.24-8.305,5.309-8.714,9.789c0.595,0.055,1.195-0.488,1.79-0.434c0.957,0.087,1.203,0.528,1.61-0.268
					c1.261-2.465,3.195-5.021,5.388-6.52c5.623-3.833,10.404-7.883,14.925-12.97c4.007-4.508,8.87-8.133,14.141-11.204
					c5.063-2.951,10.193-5.656,15.14-8.853c4.754-3.075,8.426-7.243,11.387-12.112c1.447-2.23,4.151-3.658,5.613-5.88
					c5.437-8.27,11.003-16.508,15.925-25.102c1.483-2.59,2.121-5.575,3.392-8.273c-0.542-0.254-1.03,0.053-1.569-0.202
					c-1.086-0.511-1.67,0.702-2.125,1.592c-1.531,2.997-2.355,6.386-4.098,9.263c-3.521,5.819-7.674,11.251-11.481,16.884"/>
			</g>
		</g>
		<g>
			<g>
				<path fill="#25242B" d="M10.845,93.208c-1.962,7.182,1.607,15.488,2.908,22.518c1.934,10.433,3.251,21.073,3.791,31.68
					c0.188,3.72,0.907,7.043,2.164,10.594c1.7,4.809,3.125,9.779,5.155,14.454c3.615,8.322,8.426,15.853,13.83,23.214
					c1.981,2.698,4.258,5.064,6.581,7.48c0.273-0.263,1.505-1.113,1.289-1.343c-0.688-0.734-2.154-0.814-2.801-1.582
					c-2.994-3.535-5.607-7.553-8.056-11.484c-4.525-7.252-7.021-15.718-10.388-23.552c-1.875-4.365-4.19-8.925-4.907-13.667
					c-0.506-3.352,0.606-6.978,0.291-10.361c-1.093-11.757-3.709-23.275-6.023-34.843c-0.625-3.119-0.669-6.348-0.491-9.557
					c0.098-1.77-0.163-3.604,0.23-5.322c-0.768-0.127-1.401-1.258-2.168-1.385c-0.19-0.033-0.415,3.096-0.486,3.405"/>
			</g>
		</g>
		<g>
			<g>
				<path fill="#25242B" d="M20.725,161.806c2.43,10.346,4.116,20.972,8.644,30.646c2.239,4.784,5.183,9.248,7.281,14.096
					c0.421,0.973,0.708,2.011,1.112,2.991c0.272,0.662,1.014-0.067,1.546-0.282c-2.693-6.821-6.012-13.343-8.907-20.072
					c-3.83-8.897-5.834-18.385-8.045-27.778c-0.654,0.156-1.409,0.49-2.061,0.646"/>
			</g>
		</g>
		<g>
			<g>
				<path fill="#25242B" d="M44.133,85.177c-0.686,9.037-5.591,16.317-10.065,23.951c-1.732,2.953-3.265,6.067-4.398,9.313
					c-1.147,3.287-0.821,6.551-0.927,9.989c-0.249,8.132-3.571,16.564-2.665,24.705c1.691-0.188,2.51-0.01,2.412-1.823
					c-0.125-2.34-0.213-4.723-0.002-7.053c0.458-5.039,1.8-10.008,2.009-15.068c0.166-4.011-0.541-7.93,1.043-11.694
					c1.313-3.126,3.738-5.731,5.415-8.668c2.732-4.788,5.905-9.497,7.627-14.768c0.883-2.706,1.149-5.557,1.368-8.387
					c0.14-1.81-0.491-3.948,0.232-5.64c0.266-0.625,2.243-1.704,1.62-2.147c-0.437-0.313-1.476-0.502-1.914-0.816
					c-1.675,2.346-1.867,5.279-2.083,8.081"/>
			</g>
		</g>
		<g>
			<g>
				<path fill="#25242B" d="M52.208,122.113c-0.91,9.087-3.408,19.921-9.593,27.013c-2.189,2.507-4.909,4.76-8.382,4.812
					c-2.016,0.031-3.976-0.244-5.702-1.236c-0.357-0.204-2.649-1.883-2.722-1.791c-0.392,0.497-0.636,0.855-1.028,1.352
					c5.699,4.5,12.214,5.742,17.829,0.811c5.871-5.157,8.94-13.509,10.716-20.889c1.726-7.169,0.915-14.688,6.041-20.546
					c2.258-2.581,5.111-4.315,8.135-5.897c1.823-0.954,3.609-1.87,5.539-2.59c0.578-0.217,1.517-0.591,1.265-1.317
					c-0.178-0.508-0.544-1.145-0.72-1.652c-10.212,3.551-19.738,10.369-20.9,21.981"/>
			</g>
		</g>
		<g>
			<g>
				<path fill="#25242B" d="M37.208,157.107c1.258,4.603,4.035,8.787,5.817,13.203c2.036,5.042,3.834,10.4,4.622,15.796
					c0.486,3.325,0.516,7.276-1.409,10.209c-0.786,1.199-2.126,1.85-3.38,2.536c-0.243,0.134-1.272,0.8-1.211,0.96
					c0.227,0.592,0.278,1.34,0.504,1.932c9.153-3.488,7.916-13.537,5.843-21.358c-1.353-5.107-3.206-10.008-5.374-14.823
					c-0.996-2.216-1.699-4.565-2.611-6.819c-0.113-0.285-0.893-2.352-1.05-2.309c-0.613,0.166-1.506,0.499-2.118,0.665"/>
			</g>
		</g>
		<g>
			<g>
				<path fill="#25242B" d="M35.964,207.501c0.095,0.528,0.21,1.035,0.306,1.563c5.145-0.936,9.984-4.336,10.359-9.9
					c-0.948-0.063-1.638-0.477-1.786,0.541c-0.198,1.392-0.669,2.728-1.534,3.838c-1.756,2.256-4.55,3.587-7.311,4.089"/>
			</g>
		</g>
		<g>
			<g>
				<path fill="#25242B" d="M89.396,96.229c-5.139,3.269-10.646,6.27-16.631,7.56c-1.235,0.265-2.501,0.321-3.766,0.386
					c-1.107,0.058-0.659,1.064-0.706,2.12c7.707,0.374,15.926-4.497,22.133-8.446c8.024-5.108,15.842-10.636,18.793-20.077
					c-0.329-0.101-1.675-0.841-1.945-0.697c-0.268,0.856,0.118,2.031-0.228,2.857c-0.777,1.857-2.261,3.36-3.509,4.938
					c-3.771,4.753-9.022,8.232-14.083,11.453"/>
			</g>
		</g>
		<g>
			<g>
				<path fill="#25242B" d="M121.914,62.708c-1.153,4.951-2.481,10.35-5.993,14.155c-1.289,1.394-2.98,2.369-4.767,3.044
					c-0.82,0.31-1.497,0.234-1.284,1.158c0.134,0.579,0.397,0.748,0.53,1.33c10.205-2.354,12.419-13.883,14.966-22.333
					c1.631-5.412,4.864-9.951,8.375-14.366c1.96-2.466,3.487-5.309,5.646-7.6c0.342-0.361,3.366-2.973,3.263-3.071
					c-0.56-0.54-1.274-1.56-1.833-2.1c-8.45,8.773-16.012,17.645-18.849,29.796"/>
			</g>
		</g>
		<g>
			<g>
				<path fill="#25242B" d="M31.817,136.476c-3.726,1.257-3.9,6.28-3.656,9.537c1.064-0.079,1.658,0.298,1.61-0.885
					c-0.06-1.487-0.107-3.03,0.385-4.449c0.843-2.438,3.084-3.365,5.417-2.3c2.833,1.292,4.831,4.536,4.649,7.671
					c-0.094,1.63-0.678,3.234-1.684,4.505c-0.716,0.904-0.181,0.89,0.602,1.61c2.785-3.025,3.703-7.295,1.663-10.959
					c-1.613-2.9-5.402-5.738-8.926-4.548"/>
			</g>
		</g>
		<g>
			<g>
				<path fill="#25242B" d="M90.077-0.099c8.37,8.044,17.129,15.742,26.268,22.901c5.468,4.281,11.179,8.681,17.446,11.735
					c3.896,1.901,7.831,3.801,11.897,5.287c1.985,0.727,4.174,0.905,6.108,1.762c0.567,0.252,1.43,1.085,1.77,0.376
					c0.233-0.484,0.487-1.389,0.72-1.875c-7.565-3.634-15.953-5.294-23.167-9.691c-5.894-3.59-11.16-8.051-16.51-12.396
					c-5.183-4.208-10.32-8.434-15.252-12.933c-1.82-1.66-3.771-3.174-5.561-4.869c-0.636-0.599-1.231-1.239-1.861-1.844
					c-0.39-0.373-1.373,1.047-1.714,1.401"/>
			</g>
		</g>
		<g>
			<g>
				<path fill="#25242B" d="M208.452-27.167c-2.006,4.162-3.523,8.668-6.279,12.397c-2.948,3.988-6.882,7.168-10.925,9.994
					c-3.961,2.769-8.384,4.874-12.283,7.735c-4.332,3.181-7.884,7.047-11.313,11.167c-5.438,6.542-10.562,13.333-15.538,20.224
					c-1.508,2.089-2.655,4.44-4.165,6.529c-0.418,0.582-0.779,1.208-1.2,1.79c-0.028,0.039,1.917,1.474,2.118,1.624
					c2.3-3.187,3.888-6.912,6.179-10.105c6.425-9.029,13.382-18.57,21.75-25.946c7.924-6.987,17.99-11.215,25.049-19.245
					c3.232-3.674,5.168-8.185,7.317-12.554c0.731-1.488,2.464-2.488,3.185-3.98c0.329-0.677-2.115-1.592-2.704-1.88
					c-0.351,0.723-0.195,1.836-0.546,2.56"/>
			</g>
		</g>
		<g>
			<g>
				<path fill="#25242B" d="M124.189-65.285c0.151,6.59-1.245,13.462-3.441,19.57c-2.531,7.038-4.915,14.091-7.349,21.154
					c-1.662,4.823-5.32,9.019-8.48,12.966C100.265-5.784,94.06-0.927,90.181,5.467c0.6,0.367,1.355,1.469,1.955,1.833
					c0.454,0.275,2.643-3.586,3.083-4.171c2.563-3.397,5.894-6.161,8.655-9.394c3.846-4.508,7.98-9.69,10.461-15.123
					c1.519-3.327,2.667-6.857,3.871-10.303c1.362-3.893,1.659-8.166,3.079-12.036c2.523-6.879,5.458-14.11,5.287-21.557
					c-0.804,0.019-0.525,0.021-1.33,0.04"/>
			</g>
		</g>
		<g>
			<g>
				<path fill="#25242B" d="M29.169,104.139c1.836,0.271,3.553,1.154,4.797,2.546c0.188,0.211,1.022,1.453,1.16,1.384
					c0.44-0.227,0.83-0.447,1.273-0.671c-1.361-2.681-4.056-4.49-6.993-4.924c-0.079,0.53-0.133,1.051-0.212,1.582"/>
			</g>
		</g>
		<g>
			<g>
				<path fill="#25242B" d="M35.103,187.948c2.076,0.422,3.975,1.532,5.31,3.195c0.201,0.252,1.118,1.518,1.238,1.648
					c1.367,1.51,1.792,1.927,2.311,1.697c-1.386-3.137-5.405-7.245-8.6-7.417c-0.61-0.033-0.103,0.185-0.225,0.784"/>
			</g>
		</g>
		<g>
			<g>
				<path fill="#25242B" d="M32.395,197.104c1.971,0.773,3.649,2.196,4.677,4.064c0.154,0.282,0.838,1.688,0.934,1.837
					c1.086,1.723,1.431,2.208,1.982,2.069c-0.824-3.33-4.072-8.069-7.188-8.791c-0.596-0.137-0.132,0.163-0.356,0.732"/>
			</g>
		</g>
		<g>
			<g>
				<path fill="#25242B" d="M122.761,12.84c-0.843,1.345-1.807,2.617-2.651,3.963c-1.049,1.676-1.49,1.748,0.195,2.884
					c1.247-1.991,2.613-4.009,3.846-6.01c1.625-2.698,3.097-5.5,4.977-8.031c0.935-1.259,1.912-2.493,2.988-3.634
					c0.817-0.866,0.099-1.077-0.659-1.825c-3.607,3.652-6.16,8.222-8.794,12.593"/>
			</g>
		</g>
		<g>
			<g>
				<path fill="#25242B" d="M119.331,5.042c-1.604,2.335-3.218,4.684-5.108,6.8c-0.776,0.874-1.723,1.599-2.647,2.319
					c-0.016,0.275,0.982,1.243,1.167,1.479c3.314-2.583,5.531-6.365,7.921-9.755c0.625-0.888,1.239-1.784,1.864-2.671
					c0.683-0.971,0.143-0.834-0.773-1.518c-0.807,1.145-1.639,2.188-2.446,3.332"/>
			</g>
		</g>
		<g>
			<g>
				<path fill="#25242B" d="M108.912,8.885c-0.547,0.771-0.991,1.615-1.538,2.387c-0.688,0.973-0.167,0.861,0.748,1.561
					c1.019-1.437,2.003-2.841,3.007-4.288c1.141-1.637,2.328-3.287,3.769-4.676c1.192-1.147,1.1-0.901,0.125-2.143
					c-2.481,1.95-4.248,4.651-6.012,7.226"/>
			</g>
		</g>
		<g>
			<g>
				<path fill="#25242B" d="M135.363,7.481c-4.194,5.261-8.355,10.542-12.267,16.02c0.404,0.289,0.702,0.585,1.106,0.874
					c0.166,0.118,2.237-3.199,2.532-3.593c1.924-2.579,4.044-5.015,6.039-7.542c2.167-2.742,4.525-5.396,6.703-8.128
					c-0.853-0.677-1.222-1.388-1.932-0.493c-0.749,0.938-1.416,1.938-2.162,2.876"/>
			</g>
		</g>
		<g>
			<g>
				<path fill="#25242B" d="M142.153,8.947c-2.343,3.608-4.909,7.077-7.573,10.458c-1.987,2.522-4.412,4.873-5.842,7.779
					c0.934,0.459,1.382,1.037,1.937,0.04c0.999-1.793,2.432-3.3,3.736-4.875c1.901-2.319,3.792-4.65,5.482-7.126
					c1.582-2.319,2.93-4.797,4.47-7.146c0.476-0.729,0.78-1.57,1.258-2.3c0.24-0.368-0.7-0.701-1.017-0.914
					c-0.871,1.331-1.714,2.667-2.585,3.997"/>
			</g>
		</g>
		<g>
			<g>
				<path fill="#25242B" d="M148.074,12.454c-2.278,3.348-4.581,6.717-7.305,9.72c-2.083,2.296-4.915,4.144-6.248,7.014
					c0.289,0.134,1.2,0.703,1.489,0.634c0.754-1.626,2.206-2.809,3.455-4.068c2.099-2.119,3.877-4.462,5.666-6.854
					c2.075-2.77,4.01-5.627,5.985-8.466c1.138-1.633,2.632-3,3.879-4.552c0.787-0.973-0.104-1.229-0.958-1.94
					c-2.208,2.658-4.131,5.583-6.075,8.438"/>
			</g>
		</g>
		<g>
			<g>
				<path fill="#25242B" d="M151.292,20.482c-1.54,1.824-3.271,3.481-4.842,5.28c-1.167,1.336-2.069,2.903-3.236,4.24
					c-1.05,1.204-1.04,0.955,0.18,2.095c7.99-9.154,17.203-18.318,22.686-29.22c-1.443-0.727-1.482-0.993-2.322,0.533
					c-1.159,2.103-2.098,4.361-3.501,6.308c-2.729,3.786-5.76,7.37-8.778,10.923"/>
			</g>
		</g>
		<g>
			<g>
				<path fill="#25242B" d="M156.303,24.719c-2.75,3.328-5.838,6.477-8.259,10.056c0.912,0.617,1.325,1.325,2.033,0.306
					c1.139-1.634,2.388-3.181,3.626-4.74c2.325-2.935,4.534-5.959,6.875-8.883c4.386-5.473,8.331-11.301,10.476-18.051
					C170.58,3.258,170.47,3,169.996,2.85c-0.165-0.052-1.227,2.569-1.374,2.924c-0.962,2.323-1.954,4.637-3.288,6.766
					c-2.688,4.285-6.125,8.031-9.343,11.921"/>
			</g>
		</g>
	</g>
</g>
<g>
	<g>
		<path fill="#CFD2D8" d="M358.127,88.831c8.902,62.327,87.248,39.183,131.25,39.265c43.366,0.082,26.096,44.754,43.88,69.65
			c27.099,37.931,79.302,17.959,110.465,2.297c23.614-11.869,47.866-19.828,69.159-37.235c10.351-8.459,21.354-19,25.433-31.496
			c5.159-15.795-0.809-39.032-1.076-55.372c-0.159-9.655,3.733-27.358,0.059-36.354c-7.739-18.939-25.538-13.483-45.275-13.563
			c-58.488-0.234-117.81-3.502-176.245-0.722c-58.953,2.805-108.153,26.111-157.646,55.48"/>
		<path fill="#576260" d="M340.418-9.378c-3.22,22.541-10.466,49.91-7.246,66.814c3.22,16.905,9.661,34.615,17.71,42.665
			c8.051,8.05,37.835,22.539,58.765,20.93c20.93-1.611,28.979-12.88,49.104-19.32s33.005-13.685,33.005-13.685
			s0.805,5.635,0.805,9.66s0,4.025,0,4.025s-0.805,16.904,8.051,43.469c8.855,26.564,16.904,58.764,37.834,62.79
			c20.929,4.025,24.955,15.294,68.426-8.855c43.468-24.15,45.077-37.834,57.153-59.569c12.074-21.734,20.929-41.054,34.612-57.959
			c13.687-16.903,13.687-16.903,13.687-16.903l-4.829-61.985L340.418-9.378z"/>
		<path fill="#46514E" d="M490.144,88.025c-12.48,6.173-28.338,7.436-42.059,12.682c-16.116,6.164-12.723,8.605-24.524,18.927
			c22.087-13.592,51.29-16.916,70.609-30.803"/>
		<path fill="#46514E" d="M635.041,169.329c-1.744,12.879-16.166,14.117-21.791,25.634c18.634-0.268,33.111-18.413,37.892-34.488"/>
	</g>
	<g>
		<g>
			<path fill="#25242B" d="M332.167,54.93c0.593-0.064,1.564,0.156,2.155,0.093c1.142-0.125,0.052-1.866-0.033-2.824
				c-0.252-2.837-0.648-5.7-0.712-8.547c-0.132-5.838,1.379-11.636,1.929-17.452c0.604-6.35,1.32-12.655,2.368-18.945
				c0.624-3.75,0.506-7.629,1.204-11.364c0.133-0.712,1.426-3.877,0.828-3.991c-0.691-0.133-0.765-0.441-1.456-0.574
				c-4.016,20.975-7.858,42.107-5.542,63.513"/>
		</g>
	</g>
	<g>
		<g>
			<path fill="#25242B" d="M328.324,43.938c1.872,7.154,4.571,14.091,6.47,21.238c2.982,11.249,4.294,24.157,11.843,33.419
				c6.311,7.743,15.246,13.305,24.479,16.702c10.12,3.724,21.442,6.829,32.235,7.566c19.278,1.317,36.082-12.107,53.18-19.268
				c8.985-3.763,19.185-5.338,27.681-10.147c4.146-2.346,8.164-5.393,11.649-8.587c-0.337-0.368-2.215-2.673-2.613-2.307
				c-1.12,1.027-1.205,3.183-2.328,4.209c-2.273,2.084-5.335,3.218-8.052,4.737c-5.143,2.875-11.164,4.041-16.619,6.225
				c-5.703,2.287-11.353,4.744-16.975,7.226c-10.945,4.835-21.352,12.481-33.201,14.863c-10.981,2.208-21.771-2.521-32.345-5.53
				c-15.217-4.328-31.093-10.007-38.308-25.269c-2.056-4.351-4.982-8.339-6.253-12.958c-1.45-5.272-1.033-11.041-2.418-16.33
				c-1.474-5.631-5.124-10.546-6.6-16.177c-0.774,0.221-0.604-0.02-1.376,0.201"/>
		</g>
	</g>
	<g>
		<g>
			<path fill="#25242B" d="M497.322,71.744c-3.075,7.175-6.79,15.678-6.624,23.682c0.037,1.821,1.296,3.43,1.982,5.117
				c0.269,0.659-0.368,1.719-0.067,2.363c0.646,1.397,1.48,0.276,2.754-0.288c-1.857-3.999-2.904-7.572-2.087-12.021
				c1.893-10.298,7.505-20.077,11.868-29.506c5.118-11.073,10.076-22.273,15.787-33.055c2.796-5.272,5.998-10.344,8.954-15.528
				c1.293-2.264,3.481-4,4.818-6.237c0.285-0.48,0.994-2.216,0.463-2.538c-0.603-0.365-0.663-0.426-1.266-0.79
				c-13.431,22.158-25.081,45.545-35.286,69.357"/>
		</g>
	</g>
	<g>
		<g>
			<path fill="#25242B" d="M499.1,140.728c1.403,4.701,2.509,9.472,3.481,14.287c0.803,3.958,2.063,7.772,2.976,11.714
				c1.718,7.396,3.157,15.246,7.153,21.707c7.925,12.812,21.719,22.891,37.249,23.292c0.016-0.596-0.74-1.886-0.725-2.48
				c0.025-1.072-0.107-1.261-1.038-1.333c-2.61-0.2-5.086-0.578-7.591-1.339c-4.7-1.429-9.79-2.594-13.633-5.644
				c-7.983-6.34-13.409-15.878-17.028-25.329c-1.835-4.789-3.162-9.845-3.886-14.923c-0.925-6.478-2.674-12.555-4.537-18.827
				c-3.299-11.105-7.03-23.656-4.724-35.393c0.48-2.443,0.833-4.961,2.128-7.096c0.303-0.499,1.696-1.733,1.243-2.099
				c-0.548-0.441-1.532-1.413-2.081-1.854c-10.093,12.531-3.965,32.027,0.08,45.594"/>
		</g>
	</g>
	<g>
		<g>
			<path fill="#25242B" d="M670.176,121.04c-5.84,11.758-10.771,23.935-17.545,35.189c-6.386,10.607-12.522,22.616-21.817,30.925
				c-8.649,7.735-21.11,10.12-31.902,13.933c-8.937,3.154-17.476,9.199-26.8,10.941c-6.213,1.161-12.906,1.258-19.188,0.514
				c-3.312-0.395-6.172-3.145-9.389-4.023c-0.604-0.166-2.278,0.202-2.464,0.789c-0.212,0.67-1.542,1.298-1.753,1.969
				c12.715,4.023,26.057,4.726,38.95,1.319c8.968-2.37,17.896-5.91,26.566-9.168c10.644-3.996,20.521-10.12,28.538-18.42
				c8.933-9.247,16.379-19.51,22.845-30.586c9.332-15.987,18.07-32.254,26.61-48.662c4.331-8.316,8.521-16.722,13.637-24.585
				c2.591-3.979,5.653-7.613,8.571-11.359c1.446-1.854,3.18-3.532,4.719-5.309c-0.045-0.395-1.293-1-1.624-1.284
				c-15.182,17.524-27.714,37.2-37.958,57.817"/>
		</g>
	</g>
	<g>
		<g>
			<path fill="#25242B" d="M668.786,130.589c-6.607,10.565-13.87,20.889-22.669,29.807c-4.132,4.186-8.646,7.99-13.999,10.497
				c-2.46,1.15-4.919,2.369-7.588,2.87c-1.355,0.253-2.756,0.106-4.134,0.17c-1.5,0.071-1.158,0.054-1.151,1.466
				c16.259-0.102,28.425-12.484,37.466-24.639c4.704-6.328,9.086-12.864,13.309-19.516c1.183-1.86,2.559-3.597,3.741-5.458
				c0.517-0.809,1.113-1.566,1.627-2.375c0.396-0.625-1.148-1.229-1.669-1.568c-1.786,2.817-3.222,5.884-5.009,8.7"/>
		</g>
	</g>
	<g>
		<g>
			<path fill="#25242B" d="M597.765,185.792c-0.014,0.536-0.054,1.003-0.064,1.54c9.59,0.262,19.232-1.529,27.841-6.022
				c8.766-4.576,15.377-11.956,20.887-20.025c-0.245-0.168-0.758-0.743-1.027-0.709c-0.777,1.139-1.231,2.519-2.058,3.622
				c-1.659,2.219-4.062,3.832-5.96,5.849c-3.254,3.458-6.478,7.094-10.59,9.483c-8.745,5.081-19.053,6.196-29.027,5.922"/>
		</g>
	</g>
	<g>
		<g>
			<path fill="#25242B" d="M638.458,176.712c0.45,0.289,0.808,0.523,1.258,0.813c3.878-6.04,5.915-13.105,6.642-20.196
				c-1.662-0.17-1.57-0.331-1.803,1.466c-0.303,2.315-0.686,4.634-1.295,6.889c-1.049,3.877-2.531,7.712-4.708,11.096"/>
		</g>
	</g>
	<g>
		<g>
			<path fill="#25242B" d="M456.657,92.028c-4.507-0.113-9.104-0.698-13.605-0.323c0.041,0.495,0.193,1.336,0.235,1.83
				c0.016,0.198,2.536,0.279,2.905,0.265c2.64-0.091,5.279-0.73,7.919-0.672c4.745,0.107,9.489,0.851,14.234,0.678
				c8.399-0.308,18.169-1.623,24.122-8.172c-0.67-0.609-1.481-1.793-2.185-1.072c-1.019,1.045-1.904,2.27-3.129,3.058
				c-2.702,1.73-5.949,2.258-9.074,2.918c-7.039,1.492-14.28,1.775-21.426,1.595"/>
		</g>
	</g>
	<g>
		<g>
			<path fill="#25242B" d="M437.65,101.74c-4.35,1.145-8.581,2.495-12.856,3.893c0.521,1.6,0.248,1.499,2.004,0.951
				c2.143-0.667,4.321-1.187,6.484-1.775c4.314-1.173,8.52-2.746,12.816-3.983c8.171-2.35,16.188-5.229,23.134-10.24
				c-0.185-0.253-0.409-0.87-0.69-0.946c-1.271,0.917-2.87,1.279-4.223,2.072c-2.679,1.571-5.23,3.387-8.113,4.541
				c-5.993,2.401-12.266,4.056-18.5,5.694"/>
		</g>
	</g>
</g>
<line id="NippleLine" fill="none" stroke="#363795" stroke-width="3" x1="248.787" y1="399.207" x2="477.266" y2="150.348"/>
<image overflow="visible" enable-background="new    " width="359" height="328" xlink:href="955F220F.png"  transform="matrix(1.0002 0 0 1.0002 -7975.541 -8050.0371)">
</image>
<rect id="CompressionsTarget" x="363.025" y="235.564" fill="none" width="40.45" height="36.166"/>
<rect id="FingersTargetFixed" x="492.303" y="112.31" fill="none" width="45.935" height="50.919"/>
<g id="Hand">
	<g>
		<path fill="#008FBF" d="M672-34.584c-20.64,13.592-13.089,15.604-21.647,29.195c-8.557,13.592-13.086,10.572-25.67,25.673
			c-12.586,15.101-33.726,36.746-40.773,43.291c-7.048,6.543-7.552,12.583-9.062,17.113c-1.51,4.531-6.039,4.531-11.073,11.578
			c-5.035,7.047-13.088,16.108-21.645,21.142c-8.56,5.033-13.09,6.04-11.578,9.563c1.51,3.523,9.925,14.341,20.063,24.537
			c10.138,10.197,22.22,14.727,25.743,15.23c3.523,0.504,3.523-6.042,12.082-12.081c8.558-6.04,17.114-9.06,31.208-18.624
			c14.096-9.565,17.62-21.645,23.156-26.679c5.537-5.034,17.619-5.034,39.263-28.189c21.645-23.155,80.037-87.083,80.037-87.083
			L672-34.584z"/>
		<path fill="#EDAF8B" d="M532.181,124.811c0,0-12.381,8.253-19.258,16.967c-6.879,8.711-14.213,12.837-27.969,17.423
			c-13.757,4.586-23.387,4.127-29.347,14.674c-5.964,10.546-15.592,15.131-25.222,22.927c-9.63,7.794-15.589,11.003-14.213,13.297
			c1.375,2.292,1.832,6.419,8.711,5.501c6.877-0.916,10.089-1.834,10.089-1.834s-5.963,10.088-16.049,28.889
			c-10.088,18.8-13.297,27.054-10.088,30.264c3.21,3.209,8.254,1.834,8.254,1.834s-2.293,4.587-2.293,7.795
			c0,3.21,0.46,7.795,5.045,7.795s9.168-3.669,9.168-3.669s4.127,5.044,8.254,4.585c4.126-0.457,22.01-19.257,22.01-19.257
			s2.294,7.795,11.465,3.669c9.169-4.128,19.717-17.426,33.016-27.971c13.296-10.548,26.593-21.554,33.93-38.978
			c7.339-17.423,4.586-16.507,17.883-30.722c13.299-14.214,15.594-17.425,15.594-17.425S546.854,151.405,532.181,124.811z"/>
		<path fill="#F2D7C6" d="M425.802,201.157c10.372-0.993-1.928,11.153-9.92,9.921c1.583-3.764,5.907-5.724,8.889-8.545"/>
		<path fill="#F2D7C6" d="M407.575,267.874c3.35-3.853,6.241-9.975,11.985-9.502c0.979,3.55,2.375,9.225-0.209,12.684
			c-2.552,3.417-9.187,5.1-9.369-1.116"/>
		<path fill="#F2D7C6" d="M422.02,276.128c-5.335,3.163-11.726,16.034,0,14.101c9.462-1.56,7.732-20.111,0.343-13.412"/>
		<path fill="#F2D7C6" d="M430.616,285.07c1.486-5.864,13.146-11.874,13.421-2.751c0.189,6.334-11.073,12.926-12.733,4.471"/>
		<path fill="#F2D7C6" d="M460.192,271.313c2.109-3.255,10.605-8.502,11.003-1.376c0.249,4.465-9.652,9.931-11.348,3.438"/>
	</g>
	<g>
		<g>
			<g>
				<path fill="#231F20" d="M652.118-12.642c-1.695,4.618-3.26,9.271-6.618,12.892c-3.503,3.777-9.059,5.497-12.937,8.878
					c-4.038,3.521-6.523,8.762-10.43,12.432c-2.077,1.949-3.689,3.833-5.409,6.091c-8.385,11-19.035,19.922-28.465,30.049
					c-4.071,4.369-9.394,8.655-12.291,13.912c-1.941,3.523-1.08,8.525-4.053,11.414c-2.758,2.682-5.739,3.387-8.209,6.362
					c-3.455,4.165-6.876,9.693-10.717,13.55c-3.162,3.177-6.19,6.582-9.896,9.093c-2.967,2.011-7.058,2.396-9.791,4.711
					c-2.42,2.053-3.611,5.609-6.144,7.523c-0.568,0.428-0.219-0.076,0.136,0.396c2.313-1.742,4.492-3.244,6.729-5.084
					c2.769-2.275,6.736-2.603,9.729-4.597c3.568-2.379,6.694-5.591,9.83-8.522c4.023-3.762,6.063-8.909,9.379-13.253
					c2.415-3.171,6.152-4.981,9.105-7.64c1.565-1.411,3.173-3.056,4.28-4.865c1.122-1.833,0.771-4.454,1.7-6.383
					c2.585-5.366,8-9.115,12.012-13.424c9.472-10.17,19.253-20.01,27.678-31.062c1.507-1.979,2.722-4.039,4.483-5.803
					c3.761-3.774,6.578-8.594,10.601-12.077c4.102-3.549,9.59-5.694,13.343-9.617c3.517-3.68,5.454-8.234,7.236-13.016
					c1.642-4.402,3.408-8.523,6.198-12.358c1.692-2.329,2.568-5.528,4.796-7.347c0.394-0.322,5.584-2.862,5.569-2.886
					c-0.361-0.558-1.528,0.137-1.889-0.421c-4.357,2.82-7.357,6.563-10.253,10.9c-2.219,3.326-3.8,6.614-5.172,10.348"/>
			</g>
		</g>
		<g>
			<g>
				<path fill="#231F20" d="M762.744-11.73C757.58-6.186,752.36-0.696,746.976,4.639l0.127,0.128
					c-6.458,6.457-11.983,13.852-18.442,20.309c-15.214,15.212-29.72,30.895-44.296,46.675c-5.794,6.272-9.934,13.26-16.912,18.211
					c-6.755,4.792-15.568,8.044-22.784,12.084c-3.559,1.991-7.298,3.708-10.778,5.833c-0.746,0.456-1.917,1.26-2.545,1.889
					c0.425,0.453,1.178,1.307,1.818,0.87c0.627-0.427,2.361,0.896,3.011,0.502c4.874-2.95,9.848-5.638,14.831-8.398
					c9.208-5.096,16.813-7.553,24.701-14.614c8.143-7.289,15.956-19.235,22.967-27.592c11.334-13.513,22.398-27.15,34.877-39.628
					c9.383-9.379,18.797-18.728,28.136-28.146c1.115-1.124,2.249-2.241,3.393-3.358C764.296-10.963,763.519-11.342,762.744-11.73z"
					/>
			</g>
		</g>
		<g>
			<g>
				<path fill="#231F20" d="M635.162,114.186c-4.201,5.425-8.666,10.648-14.171,14.829c-5.501,4.179-12.151,5.908-18.183,9.121
					c-5.964,3.179-11.176,7.766-16.113,12.397c-4.583,4.299-9.529,9.423-10.541,15.803c0.398,0.065,1.138,0.538,1.533,0.601
					c0.927,0.146,1.365-0.05,1.572-1.001c0.394-1.806,0.284-3.815,1.168-5.434c1.913-3.502,4.773-6.549,7.693-9.24
					c6.206-5.714,13.941-9.796,21.657-13.167c8.264-3.611,15.491-8.097,21.426-14.945c2.775-3.203,4.921-6.945,7.531-10.28
					c1.679-2.145,3.146-4.473,4.931-6.529c0.551-0.632,1.726-0.85,0.963-1.539c-0.379-0.34-0.519-1.01-0.897-1.351
					c-3.072,3.398-5.424,7.378-8.229,10.998"/>
			</g>
		</g>
		<g>
			<g>
				<path fill="#231F20" d="M527.873,121.59c6.646,9.527,13.383,19.247,22.096,27.021c8.759,7.814,19.208,13.418,30.514,16.446
					c0.226-0.847,0.921-2.084-0.039-2.348c-1.712-0.47-3.28-1.364-4.96-1.938c-3.117-1.063-6.292-1.925-9.241-3.39
					c-5.411-2.689-10.269-6.255-14.784-10.268c-4.571-4.061-8.726-8.521-12.498-13.322c-2.045-2.604-3.852-5.375-5.779-8.064
					c-1.021-1.42-2.193-2.728-3.194-4.159c-0.888-1.269-1.317-0.557-2.476,0.251"/>
			</g>
		</g>
		<g>
			<g>
				<path fill="#231F20" d="M505.059,149.386c-5.947,5.949-13.978,7.658-21.779,9.863c-4.65,1.315-9.412,2.257-14.03,3.687
					c-10.009,3.096-14.511,11.941-21.224,19.077c-3.639,3.866-8.167,6.23-12.25,9.556c-3.139,2.553-6.743,4.676-9.522,7.601
					c-2.761,2.902-5.371,5.606-8.569,8.028c-1.401,1.062-2.791,2.083-4.233,3.088c-0.802,0.559,0.809,2.11,1.275,2.796
					c5.281-3.607,9.435-8.295,13.837-12.925c3.175-3.338,7.209-5.705,10.977-8.392c2.131-1.519,4.414-2.731,6.559-4.214
					c2.189-1.517,3.815-3.717,5.503-5.767c3.427-4.161,6.437-8.641,10.349-12.392c3.02-2.897,6.435-4.115,10.398-5.223
					c4.365-1.22,8.706-2.537,13.067-3.771c5.209-1.471,9.827-3.829,14.477-6.729c5.088-3.175,9.884-7.003,14.238-11.089
					c4.438-4.166,8.646-8.597,13.223-12.606c1.715-1.501,3.902-2.444,5.67-3.882c0.645-0.522,1.931-0.507,2.601-0.998
					c0.059-0.283-1.844-2.129-2.043-2.397c-4.759,3.492-9.758,6.886-14.124,10.849c-5.269,4.78-9.249,10.927-14.28,15.959"/>
			</g>
		</g>
		<g>
			<g>
				<path fill="#231F20" d="M414.585,208.122c1.125,11.561,15.805,9.032,22.963,5.111c-0.146-0.266-0.51-1.307-0.773-1.39
					c-1.308,0.716-2.731,1.195-4.146,1.671c-2.691,0.913-5.575,1.434-8.427,1.281c-2.438-0.129-4.87-0.911-6.359-2.979
					c-0.715-0.993-1.385-2.06-1.567-3.259c-0.146-0.949-0.854-0.534-1.719-0.45"/>
			</g>
		</g>
		<g>
			<g>
				<path fill="#231F20" d="M442.292,198.575c-3.346,7.601-7.549,14.628-11.938,21.691c-3.979,6.399-7.207,13.268-10.864,19.858
					c-3.932,7.091-8.748,14.275-11.18,22.055c-0.95,3.039-2.211,7.216-0.714,10.226c1.572,3.163,5.843,3.183,9.004,2.748
					c-0.076-0.536-0.798-0.869-0.873-1.408c-0.006-0.044-1.938,0.415-2.317,0.37c-1.641-0.194-3.364-1.335-4.03-2.905
					c-1.409-3.324,0.589-7.761,1.808-10.885c2.064-5.288,5.476-9.995,8.186-14.971c2.421-4.448,4.405-9.133,6.961-13.507
					c5.257-8.997,10.391-17.889,14.729-27.393c1.27-2.781,2.231-5.701,3.504-8.479c0.561-1.227,1.842-2.123,2.402-3.35
					c0.482-1.048-0.768-1.48-1.76-1.975c-1.133,2.473-2.291,5.226-3.423,7.699"/>
			</g>
		</g>
		<g>
			<g>
				<path fill="#231F20" d="M558.664,172.585c-4.17,4.206-7.991,8.765-12.006,13.121c-3.558,3.858-6.2,7.921-7.634,12.897
					c-1.272,4.411-2.271,8.771-4.162,12.966c-2.394,5.303-4.698,10.554-8.49,14.951c-6.758,7.83-15.365,13.477-23.444,19.841
					c-8.616,6.786-15.905,15.062-24.384,21.997c-3.569,2.924-7.882,6.884-12.544,7.889c-1.947,0.419-3.811-0.532-4.313-2.772
					c-0.377-1.685-1.109-3.383-0.6-4.982c0.357-1.112-1.467-1.556-2.45-1.897c-1.403,4.034-1.226,10.025,4.166,11.196
					c1.373,0.3,2.731,0.838,4.087,0.479c4.738-1.253,9.504-4.403,13.212-7.413c8.403-6.822,15.184-15.52,23.679-22.243
					c8.004-6.336,15.789-12.68,22.6-20.355c5.731-6.461,11.592-12.829,14.396-21.008c2.352-6.865,3.043-13.996,8.114-19.498
					c7.048-7.645,13.033-16.235,20.312-23.661c-0.567-0.538-1-1.68-1.653-1.012c-1.065,1.086-0.968,3.312-2.033,4.397
					c-1.969,2.011-4.313,3.659-6.284,5.669"/>
			</g>
		</g>
		<g>
			<g>
				<path fill="#231F20" d="M481.404,244.787c-8.667,11.151-18.751,21.013-28.279,31.421c-2.133,2.329-4.106,4.799-6.284,7.087
					c-2.218,2.335-4.364,5.486-7.359,6.837c-2.218,1-5.443,0.779-7.201-0.952c-1.667-1.639-1.6-4.718-1.175-6.928
					c0.053-0.273,1.158-2.675,1.126-2.697c-0.453-0.3-1.562-0.477-2.011-0.775c-2.648,3.966-0.841,10.4,3.531,12.443
					c2.45,1.144,5.021,1.312,7.343-0.026c3.487-2.011,6.091-5.568,8.791-8.487c2.043-2.213,4.536-4.012,6.568-6.233
					c5.184-5.661,10.458-11.266,15.482-17.068c5.385-6.221,9.696-13.289,14.899-19.649c2.582-3.153,5.721-5.772,9.111-8.077
					c1.551-1.055,2.915-2.432,4.685-3.052c0.27-0.094,1.702-0.364,1.669-0.503c-0.129-0.526,0.046-1.519-0.08-2.045
					c-9.573,2.312-15.781,10.827-21.473,18.199"/>
			</g>
		</g>
		<g>
			<g>
				<path fill="#231F20" d="M459.728,244.475c-4.326,5.584-9.102,10.782-13.696,16.145c-5.296,6.179-9.294,12.901-13.462,19.877
					c-2.964,4.971-7.363,10.683-14.193,8.774c-1.904-0.531-3.846-1.285-4.52-3.147c-0.161-0.441-0.62-0.939-0.669-1.404
					c-0.023-0.212-1.282-0.069-1.546-0.053c0.302,5.641,7.345,8.618,12.204,7.014c4.253-1.402,6.924-5.994,9.122-9.606
					c3.03-4.98,5.556-10.195,9.166-14.795c6.317-8.047,13.978-15.006,20.316-23.045c6.201-7.862,11.991-16.715,19.805-23.039
					c0.993-0.805,2.798-0.495,3.879-1.178c0.94-0.592,0.138-0.939-0.377-1.824c-4.654,2.693-9.117,5.913-12.805,9.763
					c-4.876,5.087-8.748,11.076-13.061,16.646"/>
			</g>
		</g>
		<g>
			<g>
				<path fill="#231F20" d="M446.302,231.416c-7.359,8.738-13.8,17.939-19.969,27.524c-3.245,5.039-6.731,11.394-9.473,16.73
					c-2.128,4.145-2.884,7.691-2.042,12.455c0.234-0.043,0.239,0.076,0.362-0.099c-0.087-0.481,0.58-0.973,0.555-1.46
					c-0.063-1.147,0.359-2.123,0.59-3.247c0.626-3.052,0.821-6.322,2.273-9.058c3.379-6.357,8.607-11.647,12.503-17.696
					c4.165-6.47,7.967-13.036,12.82-19.02c6.624-8.166,14.153-16.207,17.388-26.433c0.537-1.697-0.238-3.495,0.013-5.257
					c-0.671-0.096-0.456-0.581-0.574,0.175c-0.177,1.096-0.269,2.254-0.563,3.325c-0.644,2.349-1.736,4.616-2.798,6.806
					c-2.747,5.667-7.104,10.397-11.149,15.2"/>
			</g>
		</g>
		<g>
			<g>
				<path fill="#231F20" d="M462.253,268.087c-1.177,0.859-1.126,0.74-0.285,1.934c1.389-1.018,2.755-2.141,4.323-2.873
					c1.661-0.772,4.239-0.355,4.463,1.926c0.199,2.008-1.808,3.949-3.115,5.182c-0.886,0.833-1.859,1.557-2.848,2.271
					c-0.722,0.523-0.113,0.788,0.343,1.444c2.71-1.883,6.434-4.652,6.963-8.15c0.357-2.374-1.803-4.552-4.137-4.474
					c-2.15,0.07-4.082,1.482-5.731,2.707"/>
			</g>
		</g>
		<g>
			<g>
				<path fill="#231F20" d="M430.303,285.636c1.061,0.598,0.884,0.812,1.573-0.283c0.893-1.424,2.066-2.653,3.224-3.871
					c1.593-1.676,4.382-4.467,6.975-3.551c3.213,1.135,1.887,5.228,0.788,7.491c-0.63,1.307-1.347,2.613-2.399,3.623
					c-0.916,0.882-0.79,0.688-0.108,1.816c3.624-2.188,7.935-10.843,3.006-13.741c-5.187-3.052-10.896,4.798-13.016,8.565"/>
			</g>
		</g>
		<g>
			<g>
				<path fill="#231F20" d="M422.127,275.077c-3.445,1.624-6.836,5.598-7.498,9.41c1.064,0.188,1.199,0.508,1.535-0.537
					c0.42-1.302,1.183-2.469,1.999-3.559c1.483-1.975,5.015-5.862,7.827-4.264c2.606,1.482,1.765,5.086,0.884,7.34
					c-0.52,1.325-1.146,2.638-1.92,3.833c-0.782,1.204-0.839,1.052,0.28,1.913c2.019-2.625,3.804-6.167,3.895-9.533
					c0.109-3.942-3.431-6.388-7.042-4.687"/>
			</g>
		</g>
		<g>
			<g>
				<path fill="#231F20" d="M416.419,257.454c-3.879,1.385-6.595,5.751-8.267,9.313c0.725,0.339,0.997,0.838,1.396,0.042
					c0.734-1.466,1.645-2.85,2.661-4.139c1.64-2.078,4.644-5.273,7.594-3.858c1.898,1.167,1.121,4.532,0.7,6.25
					c-0.401,1.636-1.008,3.217-1.689,4.756c-0.602,1.355-0.58,1.099,0.658,1.703c1.192-2.434,2.286-4.964,2.718-7.647
					c0.604-3.757-1.022-8.082-5.762-6.391"/>
			</g>
		</g>
		<g>
			<g>
				<path fill="#231F20" d="M434.173,227.454c1.725,0.949,3.313,2.179,4.622,3.65c0.165,0.188,1.032,1.359,1.159,1.275
					c0.354-0.233,0.697-0.396,1.051-0.629c-1.532-2.323-3.731-4.196-6.154-5.531c-0.223,0.402-0.418,0.785-0.642,1.185"/>
			</g>
		</g>
		<g>
			<g>
				<path fill="#231F20" d="M422.742,247.897c1.671,0.967,3.345,1.931,4.987,2.95c0.111-0.187,0.821-1.208,0.673-1.3
					c-0.515-0.319-1.071-0.571-1.597-0.873c-1.162-0.672-2.307-1.352-3.47-2.021c-0.194,0.415-0.372,0.799-0.566,1.215"/>
			</g>
		</g>
		<g>
			<g>
				<path fill="#231F20" d="M445.684,241.906c1.613,2.136,3.84,3.716,6.182,4.975c0.129-0.24,0.691-0.936,0.646-1.186
					c-1.164-0.624-2.289-1.334-3.316-2.162c-0.898-0.724-1.709-1.552-2.404-2.471c-0.229-0.021-0.969,0.732-1.17,0.886"/>
			</g>
		</g>
		<g>
			<g>
				<path fill="#231F20" d="M444.819,245.328c0.995,0.393,1.913,1.041,2.598,1.864c0.528,0.636,0.791,0.093,1.426-0.343
					c-0.86-1.246-2.125-2.186-3.529-2.745c-0.17,0.425-0.326,0.813-0.495,1.242"/>
			</g>
		</g>
		<g>
			<g>
				<path fill="#231F20" d="M430.391,265.806c1.388,0.46,2.757,1.03,3.995,1.814c1.074,0.682,0.929,0.451,1.694-0.509
					c-1.539-1.222-3.396-2.014-5.247-2.628c-0.145,0.436-0.265,0.817-0.407,1.253"/>
			</g>
		</g>
		<g>
			<g>
				<path fill="#231F20" d="M464.299,245.481c0.882,0.667,1.813,1.267,2.695,1.936c1.048,0.792,2.121,1.5,3.016,2.483
					c0.661,0.729,0.767,0.233,1.488-0.324c-1.241-1.606-2.959-2.654-4.552-3.862c-0.552-0.416-1.151-0.774-1.703-1.189
					c-0.104-0.078-0.828,0.766-0.956,0.905"/>
			</g>
		</g>
		<g>
			<g>
				<path fill="#231F20" d="M448.446,267.607c1.401,0.615,2.635,1.563,3.681,2.667c0.897,0.942,0.743,0.711,1.662-0.094
					c-1.366-1.559-2.856-3.035-4.776-3.881c-0.185,0.422-0.389,0.885-0.572,1.305"/>
			</g>
		</g>
		<g>
			<g>
				<path fill="#231F20" d="M487.404,245.32c1.464,0.732,2.679,1.912,3.604,3.258c0.812,1.186,0.701,1.045,1.932,0.414
					c-1.063-2.073-2.828-3.884-4.916-4.925c-0.207,0.41-0.436,0.875-0.641,1.284"/>
			</g>
		</g>
		<g>
			<g>
				<path fill="#231F20" d="M427.587,202.299c4.165,1.707-2.457,5.167-4.032,5.919c-1.821,0.866-3.77,1.598-5.747,2.014
					c-0.714,0.147-1.485,0.322-2.216,0.264c-0.465-0.039-0.363,0.729-0.431,1.147c3.509,0.553,7.817-1.648,10.747-3.337
					c2.651-1.532,7.142-5.25,2.201-7.271c-0.173,0.425-0.285,0.731-0.457,1.154"/>
			</g>
		</g>
		<g>
			<g>
				<path fill="#231F20" d="M450.697,196.347c0.425,0.001,0.946,0.074,1.369,0.075c0.047,0,0.537-1.998,0.649-2.292
					c0.655-1.718,1.788-3.214,3.167-4.401c1.433-1.234,3.049-2.309,4.801-3.02c0.83-0.339,1.757-0.443,2.642-0.593
					c0.124-0.218-0.226-1.232-0.271-1.497c-5.346,0.91-12.152,5.756-12.179,11.721"/>
			</g>
		</g>
		<g>
			<g>
				<path fill="#231F20" d="M473.118,205.933c-0.331,1.588-0.537,1.685,1.058,2.062c0.302-1.432,0.465-2.938,0.855-4.348
					c0.271-0.98,0.669-1.959,1.275-2.789c-0.063-0.24-0.918-0.691-1.132-0.847c-1.251,1.707-1.608,3.901-2.006,5.932"/>
			</g>
		</g>
		<g>
			<g>
				<path fill="#231F20" d="M483.382,210.458c-1.639,0.921-3.231,1.91-4.742,3.036c0.253,0.34,0.499,0.597,0.752,0.936
					c0.074,0.1,2.48-1.417,2.802-1.605c2.22-1.292,4.555-2.468,6.65-3.962c-0.494-0.695-0.611-1.395-1.402-0.865
					c-1.314,0.883-2.702,1.647-4.08,2.424"/>
			</g>
		</g>
		<g>
			<g>
				<path fill="#231F20" d="M548.363,110.664c-5.059,3.367-10.292,6.585-14.577,10.937c0.645,0.635,0.791,1.263,1.517,0.55
					c1.306-1.284,2.671-2.488,4.104-3.63c2.724-2.17,5.395-4.43,8.292-6.362c5.864-3.915,11.963-7.614,16.766-12.848
					c-1.025-0.941-0.559-0.771-1.612,0.303c-1.405,1.433-3.052,2.645-4.614,3.903c-3.164,2.546-6.59,4.757-9.966,7.005"/>
			</g>
		</g>
		<g>
			<g>
				<path fill="#231F20" d="M545.427,120.656c-3.205,2.242-6.384,4.457-9.452,6.884c0.847,1.068,0.463,0.949,1.638,0.044
					c1.607-1.236,3.483-2.109,5.136-3.282c3.382-2.403,6.696-4.909,10.046-7.36c6.199-4.539,12.59-9.443,16.764-15.999
					c-0.217-0.138-0.959-0.776-1.192-0.742c-0.766,1.201-1.539,2.408-2.441,3.507c-1.757,2.139-3.874,3.978-5.94,5.815
					c-4.569,4.061-9.468,7.756-14.472,11.255"/>
			</g>
		</g>
		<g>
			<g>
				<path fill="#231F20" d="M549.927,124.637c-2.932,2.321-5.975,4.569-8.709,7.126c0.232,0.249,0.564,0.629,0.796,0.878
					c0.479,0.509,1.038-0.712,1.468-1.092c1.443-1.275,2.883-2.574,4.386-3.779c2.645-2.121,5.657-3.791,8.286-5.935
					c6.188-5.048,11.729-10.776,17.161-16.635c-0.711-0.66-0.522-0.994-1.276-0.189c-1.16,1.242-2.584,2.224-3.783,3.425
					c-2.181,2.184-4.149,4.587-6.452,6.641c-3.794,3.384-7.792,6.531-11.776,9.686"/>
			</g>
		</g>
		<g>
			<g>
				<path fill="#231F20" d="M559.899,123.011c-2.896,3.168-5.761,6.243-9.072,8.983c-1.495,1.237-2.731,2.798-4.277,3.974
					c-0.281,0.214-2.335,1.445-2.228,1.588c0.252,0.343,0.438,0.836,0.69,1.179c3.157-2.329,6.129-4.929,9.055-7.543
					c3.156-2.815,6.171-5.797,9.035-8.898c2.854-3.088,5.803-6.1,9.176-8.631c1.39-1.042,2.673-2.289,4.272-2.979
					c0.262-0.115,1.873-0.519,1.841-0.647c-0.104-0.411-0.068-0.933-0.173-1.345c-7.448,1.873-13.273,9.014-18.214,14.417"/>
			</g>
		</g>
		<g>
			<g>
				<path fill="#231F20" d="M564.377,127.233c-2.833,3.096-5.828,6.063-8.934,8.889c-1.623,1.475-3.311,2.897-5.105,4.157
					c-0.27,0.189-2.294,1.34-2.213,1.475c0.219,0.362,0.361,0.501,0.584,0.863c6.92-4.202,12.316-10.266,17.738-16.166
					c2.677-2.913,5.407-5.808,8.398-8.403c1.467-1.272,2.916-2.625,4.534-3.704c0.271-0.18,2.195-0.961,2.116-1.096
					c-0.208-0.37-0.324-0.998-0.533-1.367c-6.604,3.748-11.941,9.421-17.011,14.964"/>
			</g>
		</g>
		<g>
			<g>
				<path fill="#231F20" d="M556.55,142.449c-0.841,0.889-1.281,2.155-2.123,3.042c-1.036,1.098-1.368,0.655-0.251,1.716
					c4.528-4.791,9.225-9.386,13.88-14.055c3.285-3.294,6.469-6.704,10.021-9.712c1.679-1.424,3.358-2.871,5.137-4.171
					c0.851-0.623,1.722-1.197,2.601-1.779c0.033-0.238-0.476-0.744-0.619-0.961c-10.74,7.124-19.762,16.693-28.547,26.01"/>
			</g>
		</g>
		<g>
			<g>
				<path fill="#231F20" d="M574.064,135.456c-5.354,4.613-10.775,9.161-15.271,14.644c1.104,0.906,0.918,0.978,1.932-0.201
					c1.371-1.599,2.973-2.964,4.47-4.444c2.983-2.95,6.062-5.776,9.238-8.513c6.147-5.298,11.97-10.944,16.956-17.393
					c-0.337-0.259-0.351-0.419-0.687-0.679c-0.13-0.1-1.823,1.816-2.046,2.078c-1.496,1.768-3.04,3.477-4.684,5.107
					c-3.232,3.208-6.738,6.107-10.189,9.079"/>
			</g>
		</g>
		<g>
			<g>
				<path fill="#231F20" d="M579.701,138.939c-5.226,4.426-11.384,8.89-14.929,14.833c0.365,0.218,0.768,0.511,1.133,0.729
					c0.122,0.073,1.193-1.565,1.374-1.796c1.414-1.809,3.011-3.49,4.705-5.035c2.1-1.912,4.485-3.496,6.65-5.328
					c6.2-5.247,12.755-10.468,17.298-17.303c-0.286-0.188-0.621-0.56-0.905-0.749c-0.592-0.394-1.389,0.857-1.742,1.331
					c-1.302,1.758-2.474,3.62-4.001,5.185c-2.93,3.001-6.178,5.67-9.384,8.369"/>
			</g>
		</g>
		<g>
			<g>
				<path fill="#231F20" d="M584.794,142.484c-1.473,1.703-3.2,3.186-4.673,4.89c-3.208,3.707-7.546,6.266-10.51,10.218
					c0.339,0.255,0.805,0.499,1.146,0.753c0.079,0.058,1.969-2.016,2.244-2.287c1.791-1.766,3.879-3.199,5.756-4.868
					c2.043-1.82,3.66-4.001,5.445-6.063c2.139-2.471,4.337-4.882,6.553-7.283c1.646-1.783,3.369-3.455,5.266-4.975
					c1.007-0.807,1.888-1.774,2.993-2.445c0.037-0.242-0.56-0.927-0.697-1.152c-5.441,3.302-9.478,8.394-13.523,13.21"/>
			</g>
		</g>
		<g>
			<g>
				<path fill="#231F20" d="M590.76,143.615c-5.899,5.032-11.957,10.133-16.722,16.303c0.689,0.532,0.698,0.954,1.308,0.187
					c1.107-1.392,2.698-2.365,3.928-3.651c2.611-2.732,5.149-5.542,7.997-8.024c5.728-4.992,11.585-9.817,16.807-15.36
					c-0.643-0.605-0.428-0.904-1.119-0.185c-1.266,1.318-2.703,2.471-4.045,3.71c-2.636,2.435-5.402,4.717-8.132,7.043"/>
			</g>
		</g>
	</g>
	<rect id="FingersTarget_1_" x="460.684" y="186.708" fill="none" width="46.809" height="42.593"/>
</g>
<rect id="FingersTargetFixed_1_" x="460.684" y="186.709" fill="none" width="46.809" height="42.593"/>
</svg>
