<?xml version="1.0" encoding="utf-8"?>
<!-- Generator: Adobe Illustrator 15.0.0, SVG Export Plug-In . SVG Version: 6.00 Build 0)  -->
<!DOCTYPE svg PUBLIC "-//W3C//DTD SVG 1.1//EN" "http://www.w3.org/Graphics/SVG/1.1/DTD/svg11.dtd">
<svg version="1.1" id="Layer_1" xmlns="http://www.w3.org/2000/svg" xmlns:xlink="http://www.w3.org/1999/xlink" x="0px" y="0px"
	 width="720px" height="450px" viewBox="0 0 720 450" enable-background="new 0 0 720 450" xml:space="preserve">
<g>
	<path fill="#576260" d="M249.865-3.982c1.586,21.412,7.931,62.651,8.723,133.232c0.793,70.582,0,80.891,0.793,84.857
		c0.793,3.965-14.274,25.377,61.857,27.756c76.134,2.379,88.823-45.204,88.823-45.204s-2.38-34.894,6.347-64.237
		c8.725-29.343,6.344-40.445,7.93-44.411c1.587-3.965,2.38-6.344,2.38-6.344s4.759,66.616,11.104,94.373
		c6.344,27.757,7.932,48.376,8.725,52.341c0.792,3.967,39.651,19.034,76.924,15.861c37.275-3.172,39.653-43.617,49.963-80.891
		c10.313-37.273,15.861-58.686,22.205-90.408C601.98,41.221,612.29-4.776,612.29-4.776L249.865-3.982z"/>
	<g>
		<g>
			<path fill="#25242B" d="M248.555-3.08c4.688,16.403,5.25,33.933,6.609,50.878c1.944,24.208,3.339,48.526,3.229,72.806
				c-0.102,22.06-1.075,44.113-1.211,66.17c-0.031,5.153,0.214,10.474,0.784,15.607c1.072-0.119,3.24,0.104,3.131-1.109
				c-0.117-1.275,0.379-2.532,0.344-3.812c-0.119-4.203-0.104-8.372-0.075-12.576c0.034-4.713-0.618-9.435-0.596-14.148
				c0.06-13.347-0.251-26.521-0.189-39.868c0.171-37.768-1.317-76.028-7.224-113.42c-1.106-6.998-0.691-14.39-2.64-21.208
				c-0.762,0.219-0.489,0.256-1.251,0.474"/>
		</g>
	</g>
	<g>
		<g>
			<path fill="#25242B" d="M421.404,104.116c-0.637,5.903-0.622,11.981-2.338,17.687c-0.7,2.262-1.324,4.561-2.063,6.81
				c-3.07,9.337-7.118,18.459-6.646,28.453c1.165-0.054,2.63,0.312,2.598-0.995c-0.063-2.174-0.128-4.321,0.125-6.483
				c0.49-4.166,1.896-8.092,3.144-12.09c1.484-4.752,2.727-9.586,4.28-14.317c2.316-7.055,2.596-14.576,3.425-21.91
				c0.476-4.168,0.688-8.451,1.733-12.518c0.532-2.082,1.465-4.098,2.271-6.089c0.232-0.573,1.317-1.441,0.601-1.768
				c-0.482-0.218-0.984-0.216-1.466-0.434c-3.385,7.483-4.689,15.582-5.56,23.665"/>
		</g>
	</g>
	<g>
		<g>
			<path fill="#25242B" d="M426.16,30.533c-0.799,15.941-1.304,31.978,0.632,47.871c0.958,7.868,1.145,15.688,1.405,23.608
				c0.253,7.615,1.118,15.171,3.174,22.549c0.51-0.143,0.586-0.049,1.098-0.191c0.771-0.215-0.105-1.88-0.259-2.533
				c-0.674-2.944-1.319-5.921-1.615-8.927c-0.586-5.859-0.521-11.771-0.721-17.653c-0.403-11.966-1.859-23.763-2.01-35.753
				c-0.184-14.557,0.214-29.117,0.861-43.656c-1.212-0.042-2.303-0.58-2.357,0.689c-0.071,1.613,0.824,3.27,0.752,4.882
				c-0.136,3.046-0.036,6.105-0.173,9.152"/>
		</g>
	</g>
	<g>
		<g>
			<path fill="#25242B" d="M426.947,14.786c1.231,0.327,1.416,0.666,1.859-0.584c0.529-1.495,1.569-2.769,2.518-4.037
				c2.004-2.699,4.57-4.934,7.32-6.846c2.823-1.967,5.848-3.655,9.013-5.016c1.323-0.566,2.646-1.149,4.021-1.587
				c1.545-0.493,1.411-0.372,0.997-1.896c-5.412,1.47-10.561,4.146-15.136,7.373c-4.416,3.112-8.989,7.213-10.422,12.613"/>
		</g>
	</g>
	<g>
		<g>
			<path fill="#25242B" d="M398.054-4.249c5.877,1.154,11.604,3.99,16.6,7.23c2.52,1.634,4.907,3.544,7.039,5.668
				c0.949,0.95,1.795,2.024,2.586,3.113c0.816,1.126,1.005,0.691,2.112-0.023c-3.016-4.684-8.03-8.021-12.746-10.854
				c-4.729-2.848-9.866-5.507-15.313-6.576c-0.104,0.519-0.23,1.197-0.332,1.717"/>
		</g>
	</g>
	<g>
		<g>
			<path fill="#25242B" d="M375.496,158.451c0.08,0.521,0.134,1.027,0.216,1.549c9.619-1.481,18.828-6.566,26.793-11.984
				c7.856-5.346,16.039-12.297,19.803-21.266c-0.282-0.119-0.896-0.505-1.175-0.423c-0.4,0.962-0.913,1.85-1.425,2.757
				c-1.2,2.138-2.775,4.1-4.364,5.966c-3.412,4.015-7.554,7.417-11.818,10.49c-8.207,5.901-18.033,10.73-28.135,12.283"/>
		</g>
	</g>
	<g>
		<g>
			<path fill="#25242B" d="M595.122,66.553c-2.113,10.876-3.081,22.007-5.519,32.819c-2.349,10.401-6.592,20.313-9.263,30.63
				c-2.512,9.71-4.896,19.487-6.879,29.318c-0.938,4.673-2.33,9.061-4.065,13.507c-0.772,1.973-1.356,3.964-2.362,5.832
				c-0.464,0.862,0.403,0.732,1.148,1.154c6.055-10.782,7.953-20.056,10.626-31.927c2.813-12.484,9.188-27.14,12.216-39.567
				c6.716-27.585,8.889-56.205,15.688-83.772c1.094-4.432,2.229-8.894,3.484-13.285c0.163-0.57,1.976-6.35,1.854-6.388
				c-0.731-0.224-1.574,0.564-2.306,0.339C603.586,25.34,599.3,45.949,595.29,66.587"/>
		</g>
	</g>
</g>
<g>
	<g>
		<path fill="#CFD2D8" d="M276.564,351.833c-19.864-2.602-248.065-16.08-248.331,16.703c40.297,14.27,95.904,15.021,138.956,15.019
			c19.46-0.004,54.797-11.42,73.45-5.312c10.716,3.509,15.028,17.387,32.494,20.324c2.998,21.479,79.639,36.041,98.064,38.707
			c43.916,6.354,89.037,2.985,132.542,8.775c1.282-61.204-1.564-79.297-67.082-91.732c-43.302-8.224-87.578-7.771-131.544-7.771"/>
		<g id="ChestMains">
			<path id="ChestMainExpanded" fill="#F4BF9A" d="M624.582,193.091c0,0-25.378-7.138-45.998-9.121
				c-20.617-1.983-38.462,0.792-63.443,2.775c-24.979,1.983-53.134,0.396-82.874-0.793c-29.736-1.19-33.704,1.983-63.84,13.086
				c-30.136,11.102-36.877,17.051-40.842,18.636c-3.966,1.586-16.655-0.396-29.344-4.362c-12.689-3.966-17.843-6.344-27.756-6.741
				c-9.914-0.397-17.448-6.741-20.223-14.671c-2.776-7.931-3.565-27.228-14.404-26.963c-10.84,0.263-10.84,4.228-15.333,1.056
				c-4.494-3.172-1.588-4.493-6.61-2.115c-5.021,2.379-5.551,9.782-5.551,9.782s-1.323-12.426-9.517-10.047
				c-8.194,2.38-6.081,8.724-12.689,4.759c-6.607-3.965-11.103-14.01-15.067-12.424c-3.966,1.586-7.666,18.505-17.183,23.792
				c-9.517,5.287-15.861,0.528-36.48,8.724c-20.62,8.195-54.459,30.666-20.093,80.892c34.366,50.229,94.108,52.345,103.625,52.345
				c9.516,0,85.122-13.217,135.348,2.646c50.228,15.86,303.474,15.86,303.474,15.86S632.116,230.496,624.582,193.091z"/>
			<path id="ChestMain" fill="#F4BF9A" d="M624.582,193.091c0,0-22.857-0.726-40.748,2.729c-19.19,6.31-44.723,12.36-66.112,23.589
				c-24.979,1.983-50.291,17.373-80.029,16.183c-29.738-1.189-35.018,10.575-63.669-4.775
				c-23.208-12.75-42.474-14.728-46.438-13.143c-3.966,1.586-16.655-0.396-29.344-4.362s-17.843-6.344-27.757-6.741
				s-17.448-6.741-20.223-14.671c-2.775-7.931-3.564-27.228-14.404-26.963c-10.84,0.263-10.84,4.228-15.332,1.056
				c-4.495-3.172-1.589-4.493-6.61-2.115c-5.021,2.379-5.552,9.782-5.552,9.782s-1.322-12.426-9.517-10.047
				c-8.194,2.38-6.081,8.724-12.688,4.759s-11.104-14.01-15.067-12.424c-3.966,1.586-7.666,18.505-17.183,23.792
				c-9.518,5.287-15.861,0.528-36.48,8.724c-20.62,8.195-54.459,30.666-20.093,80.892c34.366,50.229,94.107,52.345,103.625,52.345
				c9.516,0,85.122-13.217,135.349,2.646c50.228,15.86,303.474,15.86,303.474,15.86S632.116,230.496,624.582,193.091z"/>
		</g>
		<path fill="#476990" d="M742.35,197.056c0,0-14.271-1.586-42.822-5.551c-28.552-3.965-25.381-5.948-43.617-3.172
			c-18.24,2.775-13.085,1.983-20.619,1.189c-7.534-0.793-8.328-0.793-11.498-0.793c-3.174,0,4.361,4.362,3.17,55.513
			c-1.188,51.152,1.191,51.945,3.569,63.048c2.38,11.103,12.688,51.548,12.688,51.548l97.146,19.827L742.35,197.056z"/>
		<path fill="#8F745E" d="M95.617,202.211c-1.586-3.965-8.327-4.759-12.688-1.586c-4.362,3.172-7.932,5.551-7.932,5.551l4.759,1.982
			c0,0-14.34,4.354-17.908,11.888c-3.569,7.534-10.245,32.919-7.469,47.591c2.775,14.674,1.189,18.24,1.189,18.24l5.155-7.932
			c0,0,3.568,20.225,5.155,23.396c1.586,3.173,1.586,3.173,1.586,3.173s1.982-0.791,3.172,4.761
			c1.189,5.552,2.378,14.271,3.172,17.05c0.793,2.772,0.793,2.772,0.793,2.772l1.586-3.565c0,0,2.775,9.518,8.724,15.464
			c5.948,5.948,6.741,7.139,6.741,7.139l4.362-4.362c0,0,2.776,13.482,13.482,18.639c10.706,5.154,14.671,5.154,46.394,7.534
			c31.721,2.38,37.273-4.36,41.635-7.534c4.361-3.171,5.155-4.361,9.119-5.946c3.966-1.588,9.517-8.725,18.241-17.845
			c8.723-9.119,15.861-10.313,21.809-13.085c5.948-2.775,11.103-4.758,11.103-4.758l1.586-18.641l-7.93-7.137
			c0,0-3.966-8.327-17.447-7.138c-13.482,1.188-19.827,5.947-19.827,5.947s6.344-11.104-1.189-7.933
			c-7.534,3.172-21.016,10.312-32.912,11.104c-11.896,0.791-22.998-0.793-22.998-0.793s-10.707-2.774-11.103-12.689
			c-0.396-9.912,4.759-15.464,5.551-16.652c0.793-1.191-5.551-11.104-22.998-22.207c-17.448-11.103-28.153-8.326-29.739-21.809
			C97.203,209.348,97.203,206.176,95.617,202.211z"/>
		<path fill="#CCA387" d="M159.458,270.811c-5.334,8.668-4.75,21.172,9.1,15.285c-0.771-1.988,0.132-5.283-0.722-7.295
			c7.486,0.821,18.663-5.66,15.85-14.295c-4.597-0.824-9.044,0.921-11.515,4.791c-3.234-3.102-6.793-3.451-9.542-0.072"/>
		<path fill="#CCA387" d="M205.058,166.127c0.026,5.503-0.712,10.763,3.571,14.261c3.571-4.159,3.3-9.105-1.192-12.279"/>
		<path fill="#7F90A7" d="M740.765,372.981c-9.517-6.872-13.745-13.745-37.538-18.507c-23.791-4.757-35.039-16.314-46.143-22.134
			c-11.104-5.814-42.486-7.546-67.864-20.232c-25.378-12.688-75.069-26.438-131.116-40.712
			c-56.044-14.273-95.166-10.572-113.669-8.457c-9.601,1.098-31.317,0.802-42.825,6.873c-10.672,5.629-16.98,11.61-25.377,17.976
			c-17.447,13.219-21.677,21.677-23.792,35.952c-2.115,14.271-4.422,22.277-4.422,29.148c0,6.873,11.633,9.518,16.919,12.159
			c5.286,2.646,6.344,5.287,6.344,12.161c0,6.872-12.689,26.436,3.172,30.137c15.861,3.699,26.964-10.047,32.25-29.606
			c5.287-19.563-10.644-47.164,17.976-65.03c20.75-12.952,60.804-12.159,102.04-13.216c41.239-1.058,92.651,10.428,108.647,17.71
			c31.061,14.142,30.664,10.31,66.612,18.24c35.952,7.93,45.731,9.517,70.057,21.678c24.318,12.16,31.722,12.688,34.896,17.977
			c3.17,5.286,4.758,8.986,4.758,8.986L740.765,372.981z"/>
		<path fill="#6E7D8F" d="M304.586,384.614c7.401,6.344,16.389,9.516,24.85,11.631c8.46,2.114,33.837,14.803,59.214,23.791
			c25.38,8.989,21.146,6.343,34.361,10.045c13.223,3.702,42.296,7.404,69.79,8.462c27.494,1.056,22.207,3.699,41.771,6.871
			c19.561,3.171,45.469-0.527,79.306,4.759c33.835,5.286,63.442,5.816,79.304,7.401c15.861,1.587,49.173-4.759,57.103-5.815
			c7.932-1.058,24.32-3.701,24.32-3.701l-8.459-76.133c0,0-19.032-3.174-34.896,4.229c-15.861,7.398-19.563,9.516-19.563,9.516
			s0-13.219-10.045-14.271c-10.046-1.061-24.852,5.813-24.852,5.813s-2.645-16.918-20.619-16.389
			c-17.975,0.524-58.292-9.767-78.38-13.483c-14.277-2.646-21.017-2.907-24.718-6.08c-3.701-3.172-8.987-12.158-14.808-13.217
			c-5.813-1.059-13.739,0-13.739,0s-23.529-9.387-44.68-15.201c-21.146-5.813-40.976-9.646-47.849-11.764
			c-6.871-2.113-8.988-2.643-8.988-2.643s-51.28,3.701-68.201,4.76c-16.919,1.056-37.008,7.93-45.998,25.376
			c-8.988,17.449-3.7,29.604-3.172,33.838c0.528,4.229-0.53,17.446-0.53,17.446L304.586,384.614z"/>
		<path fill="#586572" d="M731.248,376.154c-10.045,3.173-12.159,7.933-17.975,6.346c-5.816-1.586-0.528-12.159-14.275-11.103
			c-13.745,1.057-19.032,10.046-22.206,3.172c-3.171-6.875-10.573-14.808-31.193-15.333c-20.616-0.528-30.136-3.172-58.685-9.519
			c-28.551-6.346-29.078-4.757-40.182-14.804c-11.104-10.046-16.392-5.818-22.205-6.874c-5.816-1.057-41.769-14.274-50.758-15.862
			c-8.986-1.586-36.479-8.453-40.184-10.568c-3.699-2.116-6.872-2.116-6.872-2.116s42.824,0,65.562,4.229
			c22.732,4.229,45.469,15.858,58.155,19.03c12.688,3.172,28.548,10.046,55.515,13.747c26.965,3.701,47.585,11.632,63.442,19.033
			c15.862,7.398,25.38,12.688,42.298,17.447C728.604,377.741,731.248,376.154,731.248,376.154z"/>
		<path fill="#586572" d="M530.341,440.655c-7.203-11.256-28.798-20.324-40.709-25.907c0.762,2.604-0.837,6.519-0.242,9.296
			c-6.834,0.688-20.583-2.311-27.232-3.63c-10.722-2.128-22.007-0.445-32.865-2.619c-21.967-4.392-40.94-16.303-61.896-22.517
			c-16.371-4.854-34.252,1.678-47.362-11.576c-5.318-5.376-6.395-10.578-12.927-14.796c-0.973,6.099-2.041,12.628-2.841,18.378
			c14.089,5.173,30.627,9.906,44.121,17.021c8.343,4.402,14.645,11.284,23.608,14.571c8.663,3.176,19.092,3.679,28.101,5.771
			c41.968,9.741,79.821,21.839,123.907,21.819"/>
		<path fill="#355673" d="M767.199,354.478c-31.785-1.222-64.866-12.151-96.515-16.438c16.196,17.503,31.459,14.055,48.106,21.595
			c10.231,4.633,21.146,10.246,32.636,12.173c14.95,2.51,17.692,0.288,17.356-14.687"/>
		<g>
			<g>
				<g>
					<path fill="#25242B" d="M214.336,162.025c2.094,4.719,5.764,6.477,10.655,5.917c4.745-0.541,11.16-3.682,15.545-0.699
						c4.661,3.169,5.313,10.404,6.114,15.521c0.929,5.917,2.097,11.821,6.106,16.569c3.527,4.175,7.585,7.616,12.977,8.616
						c5.37,1,11.029-0.082,16.396,0.998c6.37,1.282,12.68,3.773,18.828,5.84c10.068,3.384,20.099,6.598,30.743,5.586
						c-0.056-0.586-0.679-1.97-0.734-2.554c-0.113-1.178-1.201-1.264-2.17-1.205c-3.275,0.2-6.506,0.77-9.774,0.457
						c-5.524-0.528-11.012-1.453-16.275-3.172c-6.151-2.009-12.368-3.957-18.648-5.534c-5.556-1.396-10.999-2.135-16.628-2.919
						c-5.084-0.707-8.835-3.346-12.252-7.194c-7.94-8.932-4.142-22.286-12.822-30.892c-5.077-5.034-11.885-1.999-17.953-1.367
						c-2.341,0.245-4.94-0.248-6.709-2c-0.282-0.28-1.564-2.055-1.508-2.08c-0.7,0.312-1.37-0.087-2.07,0.225"/>
				</g>
			</g>
			<g>
				<g id="ChestOutlines">
					<path id="ChestOutlineExpanded" fill="#25242B" d="M523.35,185.173c-6.104,0.7-12.35,1.166-18.677,1.452
						c-9.254,0.418-18.681,0.453-28.084,0.275c-8.604-0.163-17.188-0.505-25.604-0.894c-4.986-0.23-9.914-0.478-14.751-0.714
						c-13.106-0.64-22.323,0.695-35.16,3.502c-12.836,2.807-25.442,5.751-37.657,10.55c-8.567,3.366-16.531,7.989-24.926,11.767
						c-3.464,1.56-6.966,3.012-10.425,4.588c-0.958,0.437-3.039-1.582-3.999-1.145c-0.118,0.054,1.479,3.426,1.601,3.691
						c11.203-5.106,22.449-10.083,33.885-14.559s23.062-8.449,35.023-11.547c12.702-3.289,25.329-4.768,38.479-4.304
						c5.877,0.207,11.736,0.563,17.594,0.968c8.229,0.57,16.448,1.237,24.697,1.725c4.605,0.272,9.227,0.17,13.85-0.131
						c5.272-0.344,10.555-0.948,15.828-1.552c4.152-0.476,8.305-0.951,12.44-1.299c16.695-1.403,27.588-3.354,37.983-3.647
						c8.308-0.235,16.718-0.052,25.063,0.625c5.054,0.41,10.08,1.001,15.05,1.791c9.481,1.506,18.563,4.54,27.8,7.051
						c2.104,0.572,3.515,0.119,5.656,0.529c0.215-1.123,1.184,0.812-0.086,0.552c-2.602-0.533-4.874-2.625-7.426-3.355
						c-2.518-0.718-5.416-0.069-7.938-0.769c-9.375-2.592-18.663-5.78-28.331-6.784c-10.308-1.069-20.606-1.084-30.897-0.537
						c-10.29,0.547-20.569,1.657-30.837,2.834"/>
					<path id="ChestOutline" fill="#25242B" d="M525.389,210.067c-5.473,2.69-10.379,5.63-14.964,7.998
						c-10.058,4.12-18.947,4.958-28.047,9.039c-7.853,3.521-33.129,6.119-41.545,5.729c-4.986-0.229,2.618,0.569-2.219,0.334
						c-13.106-0.64-19.816-0.334-32.955-0.667c-12.835,2.809-27.192-2.264-39.372-7.5c-6.644-2.739-19.454-8.258-27.797-13.889
						c-6.79,0.214-6.966,3.012-10.425,4.588c-0.958,0.437-3.039-1.582-3.999-1.145c-0.118,0.053,1.479,3.426,1.601,3.69
						c11.203-5.106,23.256,2.717,34.476,7.708c10.931,4.862,24.011,7.547,35.994,9.547c11.923,0.092,30.026,0.244,43.178,0.708
						c5.877,0.206,17.151-1.112,23.009-0.708c8.229,0.569,22.26-4.683,30.099-8.397c8.412-3.022,11.521-3.022,17.564-5.174
						c9.428-3.414,9.428-6.231,17.721-8.986c7.267-2.341,7.267-2.341,11.404-2.689c16.924-5.348,7.673-2.272,20.723-7.313
						c9.141-2.487,12-2.487,19.146-2.487c5.854-0.489,15.521-3.078,21.411-6.188c18.109-3.11,13.735-3.412,22.972-0.901
						c2.104,0.572,3.515,0.119,5.656,0.529c0.215-1.123,1.184,0.812-0.086,0.551c-2.602-0.532-4.874-2.625-7.426-3.354
						c-2.518-0.718-5.416-0.069-7.938-0.769c-9.375-2.592-18.736,3.637-29.736,5.5c-13.021,2.874-16.93,2.921-25.667,4.143
						c-10.253,2.977-12.518,5.083-22.784,6.261"/>
				</g>
			</g>
			<g>
				<g>
					<path fill="#25242B" d="M163.493,165.473c-3.266,6.235-7.034,11.881-13.779,14.756c-6.133,2.615-12.544,2.831-19.038,3.551
						c-12.747,1.408-23.976,7.893-34.328,15.095c0.708,1.018,0.488,1.647,1.646,0.852c2.4-1.654,5.279-2.599,7.772-4.108
						c3.792-2.295,7.393-5.118,11.504-6.788c5.325-2.162,11.051-2.446,16.762-2.879c9.438-0.718,18.918-2.731,25.349-10.426
						c2.819-3.373,5.231-6.999,7.288-10.851c1.298-2.427,2.492-4.913,4.178-7.094c0.577-0.748,1.46-1.185,0.689-1.846
						c-0.447-0.383-0.713-0.126-1.159-0.509c-2.735,3.191-4.881,6.577-6.821,10.281"/>
				</g>
			</g>
			<g>
				<g>
					<path fill="#25242B" d="M170.889,154.591c0.043,0.765,0.164,1.326,0.208,2.091c-0.021-0.366,3.507,0.905,3.855,1.158
						c2.954,2.129,4.56,5.783,6.949,8.461c2.195,2.461,5.098,4.351,8.524,3.79c3.652-0.598,6.817-3.279,9.4-5.76
						c-0.529-0.554-1.184-1.041-1.714-1.595c0.022,0.021-3.657,2.827-4.151,3.149c-2.491,1.622-5.391,2.675-8.052,0.874
						c-5.248-3.55-7.469-12.811-15.062-12.378"/>
				</g>
			</g>
			<g>
				<g>
					<path fill="#25242B" d="M213.165,163.27c-2.342,1.143-3.846,2.646-4.374,5.292c0.48,0.097,0.943,0.143,1.423,0.239
						c-0.05-0.009,1.044-2.238,1.341-2.568c1.447-1.612,3.818-1.883,5.228-3.592c-0.378-0.311-0.749-0.669-1.126-0.981
						c0.019,0.014-2.156,1.477-2.479,1.635"/>
				</g>
			</g>
			<g>
				<g>
					<path fill="#25242B" d="M198.788,164.127c3.514,0.929,5.821,2.417,7.342,5.662c0.626,1.333,1.258,2.665,1.883,3.999
						c0.499,1.064,0.719,0.589,1.775,0.123c-0.92-1.96-1.851-3.928-2.77-5.888c-1.469-3.132-4.646-4.549-7.843-5.393
						c-0.134,0.511-0.261,1.041-0.396,1.552"/>
				</g>
			</g>
			<g>
				<g>
					<path fill="#25242B" d="M204.012,167.57c0.917,2.014,0.327,5.111,0.708,7.325c0.456,2.654,1.708,5.046,4.362,5.994
						c0.294-0.827,0.787-1.202-0.051-1.611c-1.298-0.636-2.083-1.912-2.516-3.264c-0.921-2.884,0.327-6.486-0.903-9.191
						c-0.483,0.219-0.945,0.534-1.427,0.752"/>
				</g>
			</g>
			<g>
				<g>
					<path fill="#25242B" d="M197.218,261.834c1.412,3.294,1.771,7.475-0.596,10.336c-1.691,2.041-3.562,3.939-5.288,5.952
						c-5.316,6.202-11.648,10.785-19.268,13.823c-6.841,2.729-15.893,4.697-21.434-1.529c-2.69-3.023-3.551-7.114-3.083-11.061
						c0.271-2.287,0.56-4.774,1.771-6.744c0.455-0.74,1.048-1.447,1.711-2.016c-0.015-0.299-0.762-1.006-0.968-1.246
						c-6.595,5.652-5.767,18.396,0.618,23.782c6.304,5.317,15.588,2.873,22.521,0.034c7.708-3.158,14.143-7.809,19.524-14.123
						c1.669-1.961,3.109-4.113,4.75-6.102c2.752-3.325,2.694-7.791,1.037-11.646c-0.484,0.209-1.113,0.426-1.596,0.632"/>
				</g>
			</g>
			<g>
				<g>
					<path fill="#25242B" d="M363.893,293.118c-8.633,2.593-16.592,7.043-24.604,11.165c-8.727,4.49-17.771,9.073-24.578,16.221
						c-3.016,3.168-5.469,6.891-7.269,10.896c-2.497,5.558-3.967,11.673-3.533,17.667c0.494,6.812,2.084,13.489,1.58,20.344
						c-0.404,5.484-0.502,11.321-3.16,16.12c-3.632,6.556-9.633,11.726-15.382,16.489c-2.832,2.35-5.619,4.826-8.741,6.771
						c-1.402,0.871-3.481,0.549-4.934,1.335c-1.597,0.865-0.836,2.539-0.038,4.099c13.631-6.986,27.647-18.637,33.273-33.252
						c2.074-5.386,1.674-11.427,1.403-17.182c-0.331-6.959-2.499-13.888-2.293-20.873c0.303-10.233,6.602-18.259,14.082-24.837
						c11.893-10.46,27.385-16.728,42.346-21.579c10.006-3.247,20.172-6.083,30.611-7.4c4.895-0.619,9.774-1.008,14.712-1.011
						c2.246,0,4.551-1.18,6.79-1.036c1.104,0.069,2.111,0.292,3.214,0.398c0.193-0.178,0.248-1.243,0.276-1.529
						c-18.134-1.75-36.5,1.773-53.825,6.979"/>
				</g>
			</g>
			<g>
				<g>
					<path fill="#25242B" d="M276.225,328.305c0.232,10.637-0.833,21.362-2.29,31.887c-0.709,5.121-2.116,10.149-2.949,15.259
						c-0.415,2.55-0.238,5.313-0.876,7.825c-0.682,2.681-1.298,5.381-2.008,8.054c-0.839,3.166-3.438,7.49-2.728,10.829
						c0.818,3.838,5.419,6.289,8.846,7.108c4.328,1.039,9.387,0.729,13.597-0.771c-0.164-0.462-0.696-1.052-0.859-1.513
						c-0.053-0.146-1.878,0.986-2.22,1.058c-2.263,0.459-2.239-2.219-4.537-2.438c-3.901-0.373-13.821-1.063-11.037-13.261
						c0.635-2.777,1.407-5.526,2.107-8.294c1.855-7.336,2.009-15.226,3.066-22.71c1.549-10.956,3.271-21.979,3.026-33.063
						c-0.528,0.011-1.083,0.027-1.612,0.041"/>
				</g>
			</g>
			<g>
				<g>
					<path fill="#25242B" d="M247.169,295.561c4.122,2.856,8.111,6.051,12.452,8.563c0.244-0.423,0.425-0.946,0.668-1.37
						c0.094-0.158-2.188-1.441-2.515-1.658c-1.574-1.037-3.027-2.246-4.575-3.32c-1.718-1.19-3.445-2.399-5.165-3.59
						c-0.285,0.441-0.645,0.928-0.93,1.371"/>
				</g>
			</g>
			<g>
				<g>
					<path fill="#25242B" d="M96.959,210.714c0.046,6.882,1.043,14.62,6.011,19.808c3.818,3.99,9.536,5.59,14.337,8.129
						c5.829,3.08,11.179,6.699,16.41,10.772c3.672,2.858,7.322,5.755,10.453,9.197c1.67,1.835,2.899,4.032,4.43,5.987
						c0.804,1.022,1.682,2.041,2.452,3.095c0.289,0.013,1.199-0.94,1.449-1.125c-5.664-7.729-12.254-14.726-20.053-20.341
						c-4.875-3.508-9.981-6.497-15.274-9.295c-4.852-2.565-10.762-4.35-14.255-8.781c-1.831-2.327-2.72-5.349-3.33-8.226
						c-0.401-1.895-0.211-3.871-0.327-5.801c-0.068-1.147-0.056-2.329-0.063-3.479c-0.208-0.178-1.835,0.054-2.132,0.055"/>
				</g>
			</g>
			<g>
				<g>
					<path fill="#25242B" d="M134.725,258.037c2.333,3.527,5.345,6.553,8.33,9.523c1.543,1.537,3.237,2.928,4.72,4.521
						c0.214,0.229,1.418,1.907,1.574,1.774c0.371-0.317,0.838-0.592,1.209-0.91c-2.808-3.281-6.009-6.2-8.993-9.318
						c-1.425-1.486-2.759-3.057-4.007-4.697c-0.187-0.242-1.426-1.968-1.589-1.856c-0.409,0.269-0.655,0.591-1.064,0.858"/>
				</g>
			</g>
			<g>
				<g>
					<path fill="#25242B" d="M140.5,273.247c2.425,1.446,4.901,2.806,7.271,4.338c1.25,0.81,2.472,1.66,3.683,2.524
						c0.269-0.063,0.805-1.11,0.978-1.355c-3.543-2.529-7.308-4.779-11.047-7.008c-0.27,0.454-0.596,1.009-0.868,1.464"/>
				</g>
			</g>
			<g>
				<g>
					<path fill="#25242B" d="M217.995,283.494c-9.492,1.412-17.797,6.389-26.597,9.91c-3.973,1.593-8.071,3.193-12.309,3.859
						c-2.259,0.354-4.616-0.574-6.901-0.602c-0.404-0.004-3.891,0.342-3.904,0.513c-0.043,0.486,0.449,1.681,0.406,2.166
						c8.385,0.731,16.444-2.134,24.152-5.293c7.892-3.235,15.546-6.374,24.019-7.903c-0.806,2.244-1.708,3.851-2.907,5.918
						c-0.68,1.174-0.646,1.351,0.267,2.313c0.515,0.541,2.214-0.309,2.838-0.65c4.054-2.244,8.451-3.893,13.038-4.229
						c4.895-0.359,9.886,0.235,14.624,1.556c2.243,0.626,4.141,1.95,6.17,3.104c0.858,0.488,1.619,0.953,2.39,1.564
						c0.638,0.504,1.165-0.713,1.623-1.263c-4.984-4.175-11.773-5.892-18.114-6.324c-6.86-0.465-14.377-0.299-20.525,2.97
						c1.163-2.627,2.581-4.731,3.551-7.439c-0.427,0.042-1.414-0.344-1.842-0.301"/>
				</g>
			</g>
			<g>
				<g>
					<path fill="#25242B" d="M77.291,203.403c-1.822,1.141-3.524,2.06-5.346,3.199c2.351,0.246,4.321,0.948,6.588,1.651
						c-4.36,1.487-8.582,3.573-12.243,6.375c0.236,0.312,0.238,0.687,0.477,0.999c0.496,0.648,1.733-0.602,2.294-0.983
						c1.856-1.26,3.857-1.765,5.893-2.705c2.89-1.333,6.236-2.708,9.289-3.557c-2.527-0.791-4.368-1.865-6.917-2.57
						c3.287-2.062,5.434-3.579,9.092-4.942c1.844-0.686,4.153-1.153,6.126-0.987c0.314,0.026,1.998-0.307,2.037-0.438
						c0.143-0.468,0.197-1.181,0.339-1.649c-6.422-1.953-12.509,2.187-17.683,5.526"/>
				</g>
			</g>
			<g>
				<g>
					<path fill="#25242B" d="M56.833,283.657c0.273,0.553,0.993,1.188,1.266,1.739c0.762-0.934,1.488-2.141,2.251-3.07
						c0.903,7.632,1.398,15.555,4.684,22.613c0.628-0.295,1.358-0.625,1.986-0.92c0.447-0.207-1.485-3.687-1.708-4.4
						c-1.168-3.758-1.586-7.739-2.071-11.637c-0.479-3.836-0.293-8.019-0.75-11.853c-1.118,1.392-3.063,3.3-4.188,4.688
						c-4.349-10.577-4.563-23.536-2.733-34.68c0.843-5.119,2.871-10.058,5.338-14.646c1.107-2.059,2.006-4.334,3.667-5.986
						c0.644-0.638,1.652-0.627,1.01-1.406c-0.375-0.454-0.466-0.51-0.84-0.964c-8.104,6.67-10.206,18.583-11.081,28.478
						c-0.917,10.375-0.765,22.136,3.936,31.666"/>
				</g>
			</g>
			<g>
				<g>
					<path fill="#25242B" d="M74.376,330.782c0.486,1.143,0.508,2.089,0.995,3.229c0.303-2.555,0.825-4.282,1.581-6.754
						c4.424,8.421,10.076,16.446,16.935,23.094c0.85-1.626,1.816-3.352,2.668-4.979c4.486,7.545,8.94,16.702,15.759,22.388
						c0.339-0.404,1.103-1.044,1.443-1.451c0.422-0.51-0.153-1.057-0.57-1.447c-1.127-1.067-2.158-2.187-3.144-3.379
						c-2.417-2.933-4.646-5.984-6.739-9.149c-2.386-3.612-4.587-7.563-6.743-11.318c-0.985,1.888-2.443,4.513-3.431,6.396
						c-6.97-7.279-11.749-16.83-16.154-25.83c-0.549,1.799-0.905,3.507-1.529,5.279c-1.324-4.224-2.642-8.396-2.787-12.806
						c-0.068-2.119,0.09-4.27,0.161-6.389c0.042-1.218-0.857-0.841-1.932-0.883c-0.309,8.053,0.482,16.39,3.682,23.915"/>
				</g>
			</g>
			<g>
				<g>
					<path fill="#25242B" d="M220.679,340.392c-1.167,0.669-2.157,0.269-3.325,0.938c1.449,0.227,2.229,0.661,3.674,0.913
						c-1.737,4.816-6.912,8.215-11.184,10.552c-3.793,2.073-7.583,3.587-11.764,4.587c1.313,0.938,2.705,1.802,4.02,2.737
						c-2.73,1.189-5.867,1.817-8.81,2.343c-3.467,0.615-6.561,1.222-9.958,2.412c-3.484,1.217-7.345,1.46-10.741,2.887
						c-3.875,1.631-7.343,3.572-11.546,3.546c-7.757-0.047-15.059-3.126-22.51-5.012c-3.859-0.975-8.032-0.033-12.001-0.394
						c-0.455-0.041-1.155-1.416-1.334-0.891c-0.282,0.813-1.01,1.646-1.298,2.454c-4.994-2.557-10.229-4.747-15.146-7.456
						c-2.639-1.454-4.743-3.812-6.985-5.851c-0.208-0.188-1.964-1.083-1.957-1.086c-0.689,0.335-0.878,0.169-1.569,0.504
						c1.128,2.325,2.27,5.063,4.36,6.437c3.581,2.344,7.942,3.563,11.771,5.463c3.591,1.779,7.25,3.462,10.82,5.285
						c0.253-0.604-0.563-1.719-0.35-2.34c0.169-0.484,1.735-0.488,1.903-0.972c0.139-0.408,1.698,0.216,2.123,0.272
						c4.632,0.649,9.404,0.778,13.922,1.952c8.355,2.17,17.288,5.207,25.895,3.166c4.019-0.954,7.268-3.858,11.013-5.546
						c1.941-0.874,4.596,0.233,6.659-0.302c2.15-0.558,3.897-2.412,6.075-2.668c4.935-0.58,9.446-2.035,13.847-4.241
						c-1.041-0.741-2.066-1.688-3.104-2.434c8.401-2.774,19.606-7.787,21.364-17.243c-0.123-0.015-0.703-0.029-0.826-0.043
						c8.309-4.757,16.452-9.813,23.991-15.741c-0.364-0.462-1.512-0.093-1.875-0.555c-0.714-0.907-1.168-1.127-1.934-0.556
						c-2.501,1.88-4.471,4.475-7.097,6.171c-5.406,3.498-10.818,7.019-16.406,10.208"/>
				</g>
			</g>
			<g>
				<g>
					<path fill="#25242B" d="M168.404,266.043c-1.242-0.6-2.508-1.178-3.75-1.775c-0.624,1.58-0.648,1.359,0.866,2.092
						c1.425,0.688,2.833,1.406,4.265,2.076c4.89,2.289,8.47,0.491,11.177-4.012c-1.4-0.842-1.266-1.011-2.271,0.408
						c-0.823,1.161-1.691,2.502-3.033,3.068c-2.466,1.037-5.186-0.633-7.308-1.754"/>
				</g>
			</g>
			<g>
				<g>
					<path fill="#25242B" d="M156.961,282.313c2.176,4.961,9.927,5.092,14.42,4.984c-0.024-1.07,0.339-1.594-0.863-1.587
						c-1.869,0.015-3.729-0.269-5.573-0.585c-2.252-0.389-4.963-1.078-6.146-3.244c-1.229-2.244-0.083-4.921,1.09-6.925
						c0.973-1.664,2.146-3.192,3.43-4.627c1.228-1.37,1.194-1.211-0.027-2.392c-3.207,3.32-8.345,9.168-6.105,14.272"/>
				</g>
			</g>
			<g>
				<g>
					<path fill="#25242B" d="M179.185,272.979c-2.404,2.739-4.898,5.392-8.829,5.008c-1.688-0.158-1.273-0.84-1.958-2.186
						c-0.453-0.888-1.109-1.665-1.741-2.431c-0.213-0.261-1.604-2.2-1.679-2.171c-0.449,0.189-1.031,0.428-1.482,0.615
						c0.584,1.396,1.815,2.469,2.703,3.664c0.487,0.652,1.215,3.521,1.65,3.635c3.119,0.813,6.134,0.557,8.796-1.391
						c1.722-1.262,3.106-2.863,4.571-4.396c0.663-0.688,1.422-1.292,2.083-1.983c0.302-0.314-0.79-1.201-1.044-1.49
						c-1.007,1.049-2.096,2.045-3.102,3.094"/>
				</g>
			</g>
			<g>
				<g>
					<path fill="#25242B" d="M152.772,193.277c0.742,3.434,1.168,6.957,1.072,10.469c-0.04,1.491-0.186,2.984-0.421,4.458
						c-0.174,1.079,0.44,0.799,1.402,0.978c0.991-5.35,0.752-10.976-0.392-16.272c-0.516,0.111-1.069,0.243-1.583,0.354"/>
				</g>
			</g>
			<g>
				<g>
					<path fill="#25242B" d="M208.792,167.233c0.1,2.261,0.436,4.531,0.43,6.795c-0.006,1.882-0.27,3.762-0.738,5.585
						c-0.083,0.321-0.825,2.346-0.666,2.406c0.457,0.173,0.923,0.319,1.379,0.493c1.444-3.785,1.606-7.67,1.351-11.671
						c-0.065-1.018-0.009-2.041-0.056-3.059c-0.042-0.917-0.81-0.525-1.637-0.525"/>
				</g>
			</g>
			<g>
				<g>
					<path fill="#25242B" d="M139.551,210.186c0.389-0.296,0.703-0.641,1.092-0.937c0.107-0.083-1.281-2.241-1.467-2.58
						c-1.119-2.055-1.944-4.28-2.377-6.582c-0.404-2.148-0.43-4.394,0.146-6.521c0.239-0.88,0.428-1.793,0.923-2.562
						c-0.054-0.242-0.988-0.657-1.22-0.807c-3.874,5.994-1.125,14.821,2.847,20.033"/>
				</g>
			</g>
			<g>
				<g>
					<path fill="#25242B" d="M146.493,196.215c-0.079,0.522-0.17,1.08-0.249,1.602c2.69,0.404,5.59-0.276,8.035-1.407
						c-0.689-1.498-0.438-1.44-2.083-0.888c-1.807,0.607-3.803,0.985-5.705,0.7"/>
				</g>
			</g>
			<g>
				<g>
					<path fill="#25242B" d="M621.013,188.916c6.589,20.38,5.861,42.742,5.353,63.844c-0.278,11.543-0.609,23.106,0.361,34.62
						c1.018,11.988,4.063,23.569,6.898,35.255c0.608-0.146,0.279-0.428,0.884-0.574c0.188-0.045,0.275-3.597,0.166-4.068
						c-0.726-3.173-2.618-6.084-3.227-9.282c-1.109-5.817-2.312-11.673-2.923-17.565c-1.236-11.875-0.824-23.888-0.577-35.812
						c0.46-22.179,3.005-45.979-3.92-67.411c-0.63,0.203-1.45,0.507-2.08,0.71"/>
				</g>
			</g>
			<g>
				<g>
					<path fill="#25242B" d="M622.442,187.046c0.023,1.088-0.367,1.558,0.85,1.56c2.096,0.004,4.206,0.054,6.273,0.385
						c4.042,0.649,7.975,1.682,12.048,2.122c0.121-1.109,0.596-1.506-0.648-1.665c-2.196-0.278-4.396-0.514-6.563-0.946
						c-3.955-0.789-7.923-1.676-11.974-1.582"/>
				</g>
			</g>
			<g>
				<g>
					<path fill="#25242B" d="M637.059,191.969c0.2,0.553,1.795,1.376,1.994,1.929c0.402,1.113,0.241-0.488,1.164-0.788
						c3.32-1.074,6.855-1.939,10.29-2.533c6.327-1.094,12.97-1.494,19.375-1.263c9.315,0.334,20.623,3.068,29.895,4.013
						c17.814,1.818,33.363,4.306,51.104,6.856c13.201,1.898,27.01,1.273,39.771,5.164c13.39,4.082,26.065,9.782,39.893,12.091
						c13.622,2.274,27.277,4.371,40.928,6.465c6.94,1.064,13.673,2.832,20.543,4.295c3.304,0.702,7.063-0.647,10.328,0.196
						c1.636,0.422,3.272,0.457,4.896,0.922c0.297-0.192-0.354-1.03-0.249-1.387c0.024-0.097,0.554,0.721,0.581,0.625
						c-27.025-7.729-54.935-10.564-82.479-15.634c-6.867-1.262-14.281-0.463-21.019-2.304c-6.751-1.843-13.308-4.353-20.062-6.201
						c-12.847-3.519-24.258-6.929-37.464-8.611c-15.685-1.998-33.887-4.071-49.612-5.67c-20.337-2.071-40.224-5.601-59.961,1.535"/>
				</g>
			</g>
			<g>
				<g>
					<path fill="#25242B" d="M640.695,189.223c6.729,22.368,6.584,45.442,7.068,68.574c0.12,5.732,0.917,11.45,1.036,17.184
						c0.28,13.324,3.689,26.23,5.563,39.345c0.468,3.275,0.225,6.555,0.312,9.868c0.043,1.694,0.604,3.396,0.521,5.095
						c0.229,0.195,0.646-0.036,0.964-0.021c0.681-13.688-1.55-26.888-4.021-40.202c-1.459-7.877-2.321-15.471-2.491-23.431
						c-0.424-20.129-0.282-40.394-3.954-60.272c-1.021-5.552-1.898-11.207-3.526-16.611c-0.507,0.15-0.763,0.279-1.271,0.431"/>
				</g>
			</g>
			<g>
				<g>
					<path fill="#25242B" d="M660.625,309.574c27.197,6.12,52.729,11.466,79.9,17.708c12.121,2.784,25.766,6.832,37.813,9.92
						c12.128,3.105,24.281,6.106,36.421,9.167c11.642,2.93,23.39,5.62,35.166,7.926c6.156,1.207,12.734,0.16,18.908,1.279
						c3.116,0.563,6.097,1.872,9.217,2.425c1.423,0.252,2.799-0.456,4.227-0.204c0.222-0.204,0.054,0.872,0.106,0.559
						c-27.676-4.881-55.137-10.708-82.22-18.285c-27.816-7.787-56.22-13.152-84.415-19.392c-10.369-2.294-20.361-6.301-30.724-8.632
						c-5.685-1.278-11.171-3.417-16.854-4.694c-1.791-0.4-3.777,0.081-5.573-0.319c-1.506-0.338,0.082,0.446-0.313,2.132"/>
				</g>
			</g>
			<g>
				<g>
					<path fill="#25242B" d="M750.975,370.107c-13.697,1.512-26.48,7.401-39.135,12.522c-1.678-11.053-15.199-14.201-24.198-11.662
						c-6.221,1.754-12.02,4.861-18.637,3.554c-3.388-0.674-6.841-1.968-10.027-3.318c-0.604,1.752-0.693,1.175,0.998,1.896
						c1.896,0.808,3.657,1.902,5.563,2.663c6.995,2.791,13.922,1.424,20.699-0.762c5.783-1.864,11.938-3.966,17.543-1.073
						c4.458,2.302,5.901,7.334,6.126,12.212c6.521-2.637,13.215-5.813,19.754-8.4c6.915-2.74,13.989-5.812,21.422-6.63
						c7.633-0.843,15.134,3.393,22.692,3.803c0.062-1.137,0.459-2.354-0.813-2.451c-2.459-0.192-4.82-1.215-7.241-1.674
						c-4.857-0.924-9.88-2.113-14.851-1.563"/>
				</g>
			</g>
			<g>
				<g>
					<path fill="#25242B" d="M509.975,433.553c9.813,5.54,20.33,10.762,31.235,13.63c11.584,3.056,24.042,2.236,35.995,2.563
						c14.208,0.386,28.396,0.555,42.531,1.941c7.215,0.709,14.247,4.647,21.499,4.818c7.236,0.171,14.479-1.728,21.714-1.491
						c11.073,0.362,21.917,2.604,32.9,3.846c11.379,1.275,22.883,1.339,34.218-0.29c10.945-1.573,21.179-6.727,31.907-9.357
						c5.563-1.363,11.951,0.919,17.555-0.274c2.813-0.601,5.23-3.003,8.063-3.499c1.365-0.238,0.523-2.218,0.319-3.42
						c-27.777,4.743-54.733,17.696-83.327,16.032c-14.042-0.814-27.82-3.354-41.896-3.775c-7.16-0.218-14.198-3.373-21.368-3.544
						c-7.188-0.175-14.24-0.705-21.396-1.407c-11.075-1.088-22.353,0.308-33.472-0.262c-10.084-0.517-19.984-2.103-30.001-3.578
						c-8.692-1.283-16.603-4.896-24.834-7.976c-4.213-1.574-8.354-2.876-12.372-4.883c-2.085-1.042-4.833-0.75-6.866-1.886
						c-1.05-0.588-0.479-0.464-0.998,0.454"/>
				</g>
			</g>
			<g>
				<g>
					<path fill="#25242B" d="M297.374,378.147c5.796,8.951,15.13,14.34,24.687,17.57c9.541,3.229,18.981,5.64,27.714,10.622
						c7.219,4.122,13.982,8.736,21.985,11.214c5.67,1.757,11.273,4.089,17.105,5.148c5.766,1.05,11.637,0.902,17.063,3.142
						c4.375,1.809,7.984,5.754,12.482,7.244c4.967,1.646,10.472,2.085,15.673,2.57c10.508,0.98,21.229-0.837,31.711,0.502
						c20.708,2.646,41.479,4.126,62.33,2.185c-0.055-0.585-1.441-0.277-1.494-0.862c-0.112-1.197-0.169,0.896-1.142,0.978
						c-3.754,0.295-7.679-2.775-11.442-2.692c-7.079,0.152-14.054,0.549-21.119,0.096c-13.721-0.879-27.44-0.645-41.18-1.188
						c-6.89-0.271-13.793-1.438-20.641-2.306c-6.756-0.856-13.032-3.135-19.29-5.747c-6.228-2.599-12.247-6.415-18.926-7.63
						c-2.027,0-4.266-0.8-6.244-1.168c-3.035-0.567-6.015-1.172-9.014-1.909c-7.72-1.897-15.175-3.904-22.058-7.832
						c-6.697-3.821-12.896-8.684-19.879-11.968c-6.633-3.119-13.94-4.429-20.759-7.067c-4.021-1.557-7.876-3.553-11.284-6.229
						c-1.648-1.293-2.456-3.218-3.702-4.903c-0.537-0.728-2.147-1.933-2.927-1.43c-0.493,0.315,0.063,1.86-0.431,2.183"/>
				</g>
			</g>
			<g>
				<g>
					<path fill="#25242B" d="M377.918,299.57c-8.848,0.666-17.657,1.941-26.519,2.387c-4.317,0.217-8.651,0.279-12.975,0.367
						c-2.299,0.048-4.604-0.781-6.903-0.782c-1.86-0.002-1.786,1.468-1.797,3.16c28.873,0.185,57.665-3.269,86.5-3.985
						c20.063-0.5,40.361-1.798,60.229,1.031c8.96,1.275,18.06,2.654,26.84,4.865c4.326,1.091,8.604,2.689,12.831,4.122
						c2.043,0.688,3.28,3.553,5.285,4.344c0.979,0.388,2.59-1.031,3.559-0.616c0.232-0.101,0.313-0.49,0.422-0.75
						c-20.195-8.648-42.492-13.172-64.226-15.313c-21.961-2.168-43.938-0.738-65.954,0.686c-5.748,0.37-11.625-0.984-17.369-0.554"
						/>
				</g>
			</g>
			<g>
				<g>
					<path fill="#25242B" d="M420.433,297.07c11.901,3.713,22.621,10.963,34.83,13.744c6.065,1.382,12.457,1.284,18.572,2.423
						c9.888,1.839,19.021,5.505,28.33,9.267c10.596,4.279,21.826,8.113,33.365,8.813c0.028-0.529,0.819-0.546,0.854-1.077
						c0.047-0.771-2.903-0.368-3.604-0.456c-2.974-0.367-5.91-1.121-8.807-1.886c-5.989-1.584-12.002-3.313-17.756-5.599
						c-9.569-3.799-18.783-7.482-28.939-9.493c-6.636-1.311-13.124-3.394-19.773-4.622c-12.778-2.356-24.44-8.231-36.766-12.073
						c-0.196,0.63-0.461,1.349-0.657,1.979"/>
				</g>
			</g>
			<g>
				<g>
					<path fill="#25242B" d="M519.414,332.4c0.333,0.525,1.141,0.109,1.474,0.64c0.082,0.131,2.537-1.027,2.961-1.261
						c2.413-1.324,4.885-2.473,7.543-3.2c3.196-0.88,5.98-0.274,8.935,1.414c6.359,3.646,8.448,12.094,15.963,14.251
						c18.51,5.309,37.366,9.603,56.328,13.071c8.107,1.481,16.014,2.018,24.252,2.063c6.043,0.038,11.957,2.021,17.953,2.883
						c5.174,0.745,10.604,0.85,14.895,3.908c2.396,1.707,4,4.291,5.771,6.636c0.939,1.247,2.408,2.153,3.188,3.511
						c0.574,0.998,1.801-0.064,2.693-0.563c-5.043-9.104-13.91-15.002-24.123-16.88c-11.07-2.035-22.146-0.424-33.305-1.473
						c-21.469-2.02-42.604-9.516-63.235-15.437c-3.275-0.938-6.991-0.539-9.456-3.145c-2.744-2.901-3.693-7.483-6.7-10.154
						c-7.563-6.714-17.813-0.752-25.089,3.825"/>
				</g>
			</g>
			<g>
				<g>
					<path fill="#25242B" d="M552.42,423.539c25.48,4.831,51.381,10.889,77.412,6.987c-0.167-1.112,0.148-1.781-1.111-1.604
						c-2.284,0.325-4.51,1.157-6.809,1.342c-4.226,0.339-8.486,0.558-12.727,0.464c-8.398-0.182-16.782-1.27-25.078-2.57
						c-10.535-1.653-21.005-3.723-31.479-5.706c-0.095,0.521,0.28,0.856,0.186,1.381"/>
				</g>
			</g>
			<g>
				<g>
					<path fill="#25242B" d="M692.814,381.803c-5.442,2.281-9.104,7.361-12.016,12.217c-1.756,2.934-3.109,6.116-4.978,8.981
						c-0.813,1.248-1.936,2.294-2.896,3.438c-0.688,0.819-0.208,0.698,0.517,1.345c6.639-7.437,9.432-19.071,18.68-23.985
						c1.513,10.024-3.453,20.515-8.072,29.06c-2.605,4.823-5.529,9.521-8.611,14.061c-1.438,2.121-3.063,4.121-4.596,6.18
						c-0.632,0.854-1.13,1.813-1.776,2.65c-0.521,0.67-0.025,0.601,0.558,1.056c5.629-7.202,10.709-14.869,15.112-22.875
						c5.303-9.641,11.227-21.52,8.654-32.813c-0.275,0.115-0.587-0.08-0.835,0.084"/>
				</g>
			</g>
			<g>
				<g>
					<path fill="#25242B" d="M491.212,414.413c-0.822,2.646-1.912,5.923-0.787,8.615c1.103,2.633,4.087,3.507,6.656,4.015
						c2.115,0.42,4.306,0.426,6.44,0.751c0.792,0.118,1.536,0.548,2.328,0.666c0.396,0.063,0.478-1.507,0.537-1.858
						c-3.017-0.452-6.101-0.792-9.089-1.396c-1.762-0.357-3.882-0.711-4.917-2.34c-1.333-2.091-0.604-5.063,0.01-7.248
						c10.527,3.886,18.584,12.182,27.967,18.029c0.165-0.262,0.948-1.166,0.914-1.445c-1.55-0.968-3.187-1.826-4.667-2.886
						c-2.85-2.03-5.418-4.443-8.247-6.496c-5.258-3.813-10.857-7.099-17.051-9.166c-0.073,0.239-0.308,0.442-0.313,0.691"/>
				</g>
			</g>
			<g>
				<g>
					<path fill="#25242B" d="M343.714,391.788c0.27-0.031,1.329,0.057,1.477-0.134c-0.135-1.121-0.156-2.28-0.242-3.407
						c-0.181-2.378-0.14-4.718-0.079-7.104c0.116-4.406-0.188-8.901,0.83-13.194c2.002-8.438,6.368-16.126,11.613-23.021
						c12.264-16.122,30.935-25.998,50.06-31.517c0.282-0.081,1.497-0.371,1.438-0.582c-0.129-0.477,0.239-1.317,0.11-1.791
						c-19.397,5.293-39.026,14.552-52.002,30.344c-11.431,13.912-16.356,32.149-14.319,49.967c0.021,0.189,0.324,0.35,0.346,0.536"
						/>
				</g>
			</g>
			<g>
				<g>
					<path fill="#25242B" d="M361.328,274.568c0.041,0.312-0.069,3.435,0.141,3.638c1.631-0.212,3.135-4.185,4.771-4.341
						c3.517-0.344,7.146,0.256,10.678,0.173c6.759-0.16,13.698-0.781,20.41,0.028c14.087,1.697,26.896,7.609,40.221,12.283
						c24.771,8.686,51.386,10.436,75.479,21.229c5.751,2.577,10.898,4.099,16.291,7.302c5.346,3.173,11.902,5.962,17.72,8.15
						c11.664,4.391,23.476,7.631,35.742,9.648c22.745,3.75,43.815,6.438,65.604,14.445c8.063,2.961,16.874,7.724,24.086,12.394
						c3.699,2.396,8.484,3.136,11.854,5.976c1.76,1.479,4.875,1.562,6.534,3.146c0.28,0.272,0.086,3.151,0.228,3.012
						c0.352-0.347,2.816-1.455,3.165-1.802c-16.962-17.188-40.532-24.293-63.837-29.59c-23.322-5.3-47.019-8.27-70.16-14.436
						c-12.005-3.2-22.258-9.731-32.604-16.685c-10.562-7.095-24.264-9.004-36.521-12.039c-13.032-3.226-26.105-6.136-39.122-9.436
						c-13.64-3.46-26.172-10.84-39.944-13.875c-16.5-3.632-34.155-2.697-50.91-0.503"/>
				</g>
			</g>
			<g>
				<g>
					<path fill="#25242B" d="M394.16,217.66c-1.535,0.559-3.042,1.238-4.643,1.575c-1.147,0.241-0.647,0.485-0.472,1.528
						c0.917-0.16,0.782,0.41,1.573,0.839c0.803,0.438,1.76,0.442,2.66,0.468c3.521,0.099,6.885-1.286,10.036-2.67
						c-2.696-3.4-5.329-3.043-9.132-1.659 M394.727,219.207c1.824-0.665,4.261-1.665,6.024-0.338
						c-2.414,0.963-6.661,2.722-9.284,1.411c1.073-0.309,2.21-0.685,3.262-1.066"/>
				</g>
			</g>
		</g>
		<g>
			<g>
				<path fill="#25242B" d="M93.211,195.039c0.113,1.188,0.192,2.381,0.314,3.568c0.189,1.629,0.406,3.263,0.396,4.905
					c-0.01,1.204,0.458,0.849,1.545,0.905c0.125-2.441-0.263-4.874-0.498-7.298c-0.186-1.942,0.192-2.114-1.781-2.006"/>
			</g>
		</g>
	</g>
	<g>
		<g>
			<path fill="#25242B" d="M284.018,279.49c-6.047,4.828-11.12,10.353-16.351,15.74c-4.965,5.109-10.217,10.27-12.777,16.335
				c-3.727,8.824-4.728,18.31-7.034,27.401c-1.063,4.192-2.004,8.428-2.297,12.706c-0.188,2.693,0.289,5.325,2.431,7.569
				c2.162,2.27,5.421,3.618,8.556,4.926c2.525,1.055,5.125,2.006,7.632,3.086c1.643,0.711,2.633,2.283,4.241,3.04
				c1.613,0.758,2.624,1.255,3.724-0.076c0.32-0.39,0.772-0.839,1.095-1.229c-5.538-2.742-11.535-4.821-17.254-7.31
				c-2.723-1.186-4.823-2.88-6.054-5.219c-1.546-2.938-0.522-6.178,0.104-9.193c0.78-3.764,0.099-7.729,1.045-11.471
				c2.647-10.438,4.754-21.313,10.667-31.021c6.013-9.867,17.188-17.055,26.764-24.85c2.221-1.807,3.875-3.953,6.097-5.76
				c-0.241-0.171-1.104-0.866-1.16-0.822c-0.838,0.684-2.639,0.662-3.479,1.346c-1.975,1.605-4.068,3.119-6.042,4.729"/>
		</g>
	</g>
	<g>
		<g>
			<path fill="#25242B" d="M268.856,295.525c0.48,0.334,4.396,0.68,4.878,1.016c0.916,0.646-0.296,0.688,0.265-0.071
				c1.776-2.401,5.906-2.737,7.922-4.94c3.628-3.967,4.638-10.875,9.003-14.01c8.291-5.955,19.32-6.834,29.175-9.414
				c20.737-5.426,46.434-6.424,67.603-4.805c24.996,1.911,46.229,1.879,70.8,6.909c18.793,3.843,36.212,13.978,54.86,18.44
				c27.077,6.479,52.347,17.863,78.468,27.221c10.559,3.785,21.13,8.288,32.063,10.77c10.797,2.448,23.304,0.5,33.188,5.703
				c7.188,3.785,12.222,10.989,18.666,15.877c6.653,5.049,14.55,6.516,22.608,8.909c7.391,2.195,14.92,3.918,22.255,6.296
				c3.354,1.089,5.475,5.021,8.487,6.863c0.44,0.271,5.63,2.392,5.638,2.386c0.489-0.584,1.944-3.698,2.438-4.282
				c-9.641-8.11-23.489-10.501-35.233-13.605c-6.35-1.677-13.272-0.695-18.722-4.378c-5.505-3.729-9.628-9.377-14.985-13.298
				c-5.233-3.825-11.39-6.151-17.467-8.443c-5.938-2.244-12.264-3.053-18.442-4.462c-8.63-1.967-17.189-4.229-25.662-6.837
				c-27.232-8.38-53.455-19.288-80.733-27.532c-7.604-2.299-14.207-8.211-21.927-10.058c-10.715-2.563-21.338-5.672-32.093-8.068
				c-24.729-5.514-49.891-10.163-75.135-12.355c-20.688-1.803-41.686,1.352-62.379,4.035c-11.966,1.557-24.746,1.461-35.456,7.115
				c-11.394,6.02-20.603,15.922-28.003,26.446"/>
		</g>
	</g>
	<g>
		<g>
			<path fill="#25242B" d="M284.867,292.15c2.969,2.197,6.283,4.559,6.836,8.425c0.541,3.807-2.711,5.896-5.037,8.328
				c-6.549,6.829,0.408,15.97,4.636,21.778c2.649,3.643,6.477,6.933,7.978,11.229c1.435,4.106-0.292,8.71,0.802,12.881
				c1.077,4.104,3.968,7.628,6.916,10.459c1.433,1.374,3.36,2.261,4.474,3.917c0.192,0.284,1.354,2.532,1.451,2.491
				c0.418-0.169,1.408-0.769,1.825-0.94c-1.887-4.569-6.616-7.302-9.763-10.914c-1.611-1.85-3.407-3.771-3.854-6.221
				c-0.509-2.8-0.57-5.654-0.821-8.477c-0.988-11.095-12.031-17.786-14.629-28.273c-1.173-4.732,2.113-6.77,4.927-9.839
				c3.073-3.354,2.405-8.188-0.221-11.697c-2.283-3.045-6.61-4.083-8.853-7.104c-0.99-1.334-0.424-3.311-0.195-4.939
				c0.18-1.293,0.092-2.646,0.618-3.835c-0.127-0.241-1.052-0.528-1.318-0.646c-1.173,2.646-2.42,6.218-1.089,8.965
				c0.994,2.044,3.779,2.771,5.559,4.088"/>
		</g>
	</g>
</g>
<g id="Diagram">
	<g>
		<g>
			<path opacity="0.6" fill="#F0A8CA" stroke="#FBDDEA" stroke-width="2" enable-background="new    " d="M111.811,198.799
				c-29.139,4.565-42.14,48.363-35.01,87.516c7.128,39.155,31.936,70.564,63.037,69.175c31.103-1.395,50.189-24.403,46.714-46.578
				c-3.474-22.179-16.787-35.193-32.038-53.042C140.885,239.912,140.949,194.233,111.811,198.799z"/>
			<path opacity="0.6" fill="#F0A8CA" stroke="#FBDDEA" stroke-width="2" enable-background="new    " d="M440.651,232.449
				c-5.482-15.253-47.783-6.156-71.729-0.088c-23.946,6.068-39.957,11.464-39.863,18.625c0.092,7.162,14.561,6.977,55.88,4.824
				C426.258,253.657,444.925,244.342,440.651,232.449z"/>
			<path opacity="0.6" fill="#EE6767" stroke="#FBDDEA" stroke-width="2" enable-background="new    " d="M394.855,238.945
				c0,0-9.728-6.756-4.604-13.812c5.121-7.055,15.578-1.063,27.618,13.812c-12.039,14.873-22.497,20.863-27.618,13.811
				C385.13,245.701,394.855,238.945,394.855,238.945z"/>
			<path opacity="0.6" fill="#ED6767" enable-background="new    " d="M383.711,237.479l-1.145-6.662
				c-0.422,0.238-206.542,42.727-246.993,32.896l-0.395-3.396l-19.159,5.604l20.254,7.609l-0.548-3.841
				C180.14,284.223,383.275,237.729,383.711,237.479z"/>
			<path opacity="0.6" fill="#ED6767" enable-background="new    " d="M376.141,249.346c4.164-1.688,10.264-4.611,15.68-8.938
				l-3.403-4.278c-3.821,3.05-8.903,5.938-14.313,8.136l-1.545-3.875l-13.271,12.637l18.378,0.201L376.141,249.346z"/>
		</g>
	</g>
</g>
<g>
	<g>
		<path fill="#ECAF8B" d="M61.515,172.075c0,0-2.775,7.534-4.361,13.878c-1.586,6.344-8.327,5.155-14.671,13.482
			c-6.344,8.327-9.914,22.602-14.672,27.361c-4.759,4.759-11.499,11.103-12.689,16.257c-1.189,5.155,1.586,7.93,2.379,11.896
			c0.793,3.966,3.172,13.085,8.327,19.826c5.155,6.738,11.103,22.205,11.103,25.771c0,3.569,3.172,7.138,7.534,10.313
			c4.362,3.172,11.499,13.479,17.844,20.223c6.344,6.741,18.637,12.688,18.637,12.688s0.793-3.172,1.585-5.152
			c0.793-1.982,0.793-1.982,0.793-1.982s2.776,1.982,3.172-3.966c0.397-5.946-5.948-11.103-5.948-11.103s1.982-4.361,1.982-9.12
			c0-4.761-5.947-8.326-11.895-13.087c-5.949-4.76-10.31-11.104-13.085-13.879c-2.776-2.772-5.155-7.137-5.155-10.705
			c0-3.567-0.793-7.139-0.793-7.139s2.378,7.93,10.706,7.139c8.327-0.795,9.12-11.896,9.12-19.824c0-7.934-3.172-16.26-3.965-19.826
			s2.388-20.636,2.388-20.636l-1.861-0.498c0,0,2.75-2.838,8.088-4.616c3.033-1.01,3.677-1.215,3.677-1.215l-5.901-1.675
			c0,0,5.251-4.857,10.01-6.839c4.758-1.983,11.104-2.526,11.104-2.526l0.234,2.026l12.453-7.562
			C107.657,191.582,85.704,164.145,61.515,172.075z"/>
		<path fill="#F2D7C5" d="M66.67,335.841c3.171,4.101,8.115,7.286,13.422,7.782c-1.154-4.582-6.264-8.752-11.835-7.782"/>
		<path fill="#F2D7C5" d="M70.636,329.496c3.042,3.969,9.594,7.111,14.593,8.257c0.143-0.487,0.458-0.876,0.911-1.099
			c-2.252-4.615-8.974-7.753-14.315-7.559"/>
		<path fill="#F2D7C5" d="M65.481,313.635c4.923,2.532,10.049,5.365,14.723,7.987c1.671-5.207-7.029-9.541-11.55-8.385"/>
		<path fill="#F2D7C5" d="M57.947,252.173c-9.136,3.156-7.94,23.157,3.974,21.435c9.67-1.399,9.116-20.278-1.198-21.435"/>
		<path fill="#0090C0" d="M98.393,1.172c-3.965,9.914-7.931,15.861-11.896,36.084c-3.965,20.223-5.551,28.154-13.084,41.635
			c-7.534,13.482-13.086,25.774-13.086,37.669c0,11.896,4.361,13.482,4.361,17.844c0,4.362-3.964,15.464-5.154,22.602
			c-1.19,7.138-2.379,12.293-4.362,14.672c-1.983,2.378-3.172,2.775-3.172,2.775s17.447-6.345,27.36-2.379
			c9.913,3.965,20.898,12.175,26.964,18.241c1.982,1.981,1.982,1.981,1.982,1.981s13.849-5.708,15.068-9.516
			c5.302-16.565,12.689-20.223,16.257-24.584c3.569-4.362,10.707-8.723,11.5-18.24c0.793-9.516,6.344-17.446,19.826-44.411
			c13.482-26.963,18.637-34.101,23.792-57.496c5.155-23.396,11.499-38.067,11.499-38.067L98.393,1.172z"/>
		<path fill="#0B718F" d="M60.723,171.679c-7.17,0.605-12.956,10.361-2.844,10.556c0.781-3.294,1.754-6.383,2.844-9.367"/>
		<path fill="#C8977A" d="M59.534,179.212c7.58-13.104,40.048,11.5,48.005,14.633c-2.61-13.2-44.629-37.554-49.195-15.029"/>
		<path fill="#0082A9" d="M195.938-2.793c-6.815,14.552-18.073,30.09-20.17,46.242c-1.999,15.419,2.402,28.331-9.547,40.887
			c-8.343,8.766-27.031,12.533-30.157,25.074c-2.582,10.361,7.936,21.382,5.548,31.753c-3.418,14.848-27.507,33.194-23.333,48.773
			c4.487-12.656,10.034-23.674,20.606-31.026c12.809-8.906,12.359-30.54,19.383-43.935c11.021-21.027,28.007-36.324,32.987-60.121
			c2.362-11.287,1.158-22.928,5.881-33.556c3.104-6.982,9.387-13.048,9.904-20.919"/>
	</g>
	<g>
		<g>
			<g>
				<path fill="#25242B" d="M86.67,32.645c-2.892,10.402-3.707,21.427-6.955,31.725c-3.31,10.499-9.904,19.595-14.623,29.489
					c-2.132,4.468-2.889,9.422-3.971,14.274c-1.056,4.74-2.271,8.676-1.58,13.429c0.774,5.342,2.928,10.962,4.571,16.122
					c0.329-0.104,1.083-0.162,1.01-0.402c-0.25-0.828,0.886-2.04,0.678-2.881c-1.122-4.501-3.666-8.764-4.317-13.355
					c-0.868-6.101-0.292-11.628,1.771-17.497c2.23-6.342,5.61-12.309,8.598-18.315C83.929,60.952,88.76,33.843,96.565,8.016
					c0.751-2.481,1.753-4.896,2.562-7.36c0.282-0.868,1.102-1.006,0.211-1.304c-0.557-0.186-0.716-0.237-1.273-0.424
					c-3.752,11.252-7.449,22.51-10.624,33.932"/>
			</g>
		</g>
		<g>
			<g>
				<path fill="#25242B" d="M196.312,26.487c-3.577,12.23-5.61,24.959-10.166,36.869c-2.325,6.078-5.517,11.797-8.459,17.604
					c-3.033,5.986-6.278,11.847-9.528,17.715c-7.695,13.904-16.339,28.045-20.247,43.532c-1.256,4.974-1.818,8.742-5.709,12.086
					c-2.732,2.348-6.227,4.012-8.719,6.617c-7.318,7.65-9.758,18.745-12.521,28.867c1.313,0.358,0.942,1.006,1.354-0.434
					c0.515-1.793,1.333-3.458,1.97-5.211c1.687-4.639,4.065-8.831,6.693-13.015c2.393-3.81,5.23-6.802,8.621-9.756
					c2.517-2.191,4.904-4.721,7.24-7.105c4.802-4.904,4.816-12.044,6.904-18.322c2.496-7.5,6.881-16.471,10.378-23.551
					c4.663-9.431,7.781-18.126,12.783-27.365c5.321-9.826,11.207-19.383,14.829-29.939c3.577-10.427,4.852-21.565,7.959-32.138
					c1.546-5.256,3.188-10.549,4.957-15.738c0.79-2.314,2.148-4.484,3.068-6.749c0.338-0.832,1.113,0.177,0.273-0.178
					c-0.541-0.229-1.558-1.78-2.099-2.009C202.05,7.355,199.077,17.032,196.312,26.487"/>
			</g>
		</g>
		<g>
			<g>
				<path fill="#25242B" d="M64.146,129.504c1.246,5.766-1.54,11.039-3.309,16.347c-0.973,2.925-1.356,5.991-1.926,9.013
					c-0.898,4.771-1.552,9.654-3.452,14.156c-0.991,2.348-2.679,4.304-4.28,6.289c-0.602,0.745-1.531,1.448-0.718,2.226
					c0.425,0.409,0.816,0.893,1.241,1.298c6.446-6.729,8.029-15.603,9.687-24.416c0.628-3.332,1.065-6.605,2.249-9.805
					c1.877-5.081,4.323-10.175,3.133-15.691c-0.776,0.167-2,0.392-2.776,0.559"/>
			</g>
		</g>
		<g>
			<g>
				<path fill="#25242B" d="M53.802,173.944c0.163,0.247,0.846,1.619,1.109,1.69c1.327-0.882,2.791-1.473,4.26-2.089
					c2.75-1.151,5.569-1.851,8.543-2.001c6.509-0.328,13.145,0.966,18.959,3.786c5.427,2.631,10.202,6.552,14.617,10.655
					c1.999,1.856,3.79,3.899,5.512,6.015c0.833,1.022,1.729,1.986,2.472,3.077c0.499,0.729,1.017-0.036,1.667-0.467
					c-11.101-16.769-37.476-33.167-56.881-20.293"/>
			</g>
		</g>
		<g>
			<g>
				<path fill="#25242B" d="M60.034,170.01c-0.813,4.184-1.854,8.323-3.067,12.414c-0.598,2.018-1.01,4.115-1.843,6.05
					c-0.245,0.564-1.231,1.309-0.524,1.646c0.478,0.225,1.034,0.376,1.513,0.602c2.583-5.446,4.131-11.305,5.308-17.187
					c0.344-1.728,0.604-3.473,0.945-5.2c0.322-1.64-0.23-1.394-1.839-1.717c-0.215,1.1-0.55,2.24-0.764,3.34"/>
			</g>
		</g>
		<g>
			<g>
				<path fill="#25242B" d="M51.271,191.14c-5.138,3.076-8.916,6.589-12.295,11.541c-3.275,4.797-5.918,9.956-8.047,15.356
					c-1.217,3.092-2.598,5.889-4.664,8.514c-1.915,2.43-4.288,4.457-6.354,6.756c-4.078,4.543-7.115,9.828-7.013,16.106
					c0.694-0.013,1.635-0.394,2.328-0.403c0.443-0.007,0.655-3.064,0.815-3.785c0.714-3.246,2.071-6.332,4.17-8.867
					c2.197-2.649,5.128-4.676,7.332-7.318c2.56-3.071,4.442-6.344,5.902-10.045c2.354-5.968,4.766-11.907,8.514-17.112
					c2.076-2.881,4.551-5.293,7.537-7.225c3.312-2.146,7.212-3.477,10.243-6.035c-0.294-0.347-1.061-1.54-1.476-1.611
					c-2.072,1.752-4.802,2.521-7.125,3.909"/>
			</g>
		</g>
		<g>
			<g>
				<path fill="#25242B" d="M46.15,211.291c2.253,6.307,1.101,11.73,0.042,18.158c-1.25,7.578-0.02,15.031,1.523,22.518
					c1.815,8.824,2.094,25.158,14.702,23.582c-0.049-0.396,0.147-0.648,0.097-1.048c-0.131-1.028-0.482-1.185-1.519-1.158
					c-1.627,0.046-3.107-0.008-4.464-0.942c-2.615-1.799-3.774-4.948-4.532-7.879c-1.416-5.489-2.414-11.293-3.328-16.887
					c-0.67-4.104-1.213-8.234-0.958-12.39c0.302-4.946,1.555-9.708,1.933-14.631c0.226-2.95-0.133-5.725-1.036-8.547
					c-0.448-1.399-0.436-2.937-0.634-4.402c-0.096-0.702,0.29-2.502-0.435-2.657c-0.519-0.111-1.155,0.234-1.673,0.122
					c-0.448,2.091,0.152,3.995,0.855,5.958"/>
			</g>
		</g>
		<g>
			<g>
				<path fill="#25242B" d="M67.617,224.399c-1.739,5.478-2.338,9.88,0.097,15.296c2.708,6.019,2.754,12.629,2.296,19.125
					c-0.285,4.046-0.044,9.945-3.157,13.07c-1.292,1.299-3.199,1.887-4.984,2.053c-1.134,0.104-2.31-0.297-3.442-0.396
					c-0.238,0.208-0.086,1.587-0.117,1.938c4.65,0.402,9.4-0.275,11.575-4.838c1.06-2.215,1.073-4.762,1.331-7.185
					c0.396-3.729,0.66-7.456,0.533-11.209c-0.127-3.735,0.038-7.601-1.254-11.114c-1.234-3.354-3.058-6.199-2.682-9.887
					c0.401-3.945,1.522-7.926,2.647-11.732c-1.654-0.433-1.318-0.881-1.801,0.753c-0.4,1.357-1.104,2.622-1.506,3.979"/>
			</g>
		</g>
		<g>
			<g>
				<path fill="#25242B" d="M11.741,239.844c0,5.092,3.94,10.258,6.726,14.242c2.339,3.346,3.964,6.912,5.626,10.646
					c3.271,7.334,6.37,15.104,8.395,22.897c0.521,2.017,1.013,4.343,2.26,6.065c2.054,2.842,5.775,4.646,8.671,6.473
					c9.909,6.237,19.601,12.693,29.2,19.41c2.327,1.627,5.254,2.419,7.554,4.084c0.508,0.365,0.498-0.63,0.634-0.529
					c-0.615-0.445-0.587-1.788-1.206-2.229c-8.226-5.884-17.188-10.701-25.726-16.127c-4.729-3.004-9.667-5.795-14.201-9.094
					c-1.733-1.26-3.685-2.896-4.326-5.022c-1.979-6.544-4.111-12.873-6.651-19.247c-2.203-5.521-3.895-11.574-7.239-16.525
					c-2.188-3.236-4.721-6.256-6.273-9.865c-0.587-1.363-1.084-2.896-1.247-4.379c-0.132-1.19-0.925-0.892-2.065-0.892"/>
			</g>
		</g>
		<g>
			<g>
				<path fill="#25242B" d="M17.161,256.102c-0.039,3.724,0.594,7.111,2.32,10.434c3.061,5.882,7.391,10.979,10.177,17.042
					c2.358,5.126,4.547,10.7,5.434,16.313c0.682,4.315,1.992,8.712,4.207,12.528c0.833-0.484,1.688-0.345,1.187-1.331
					c-1.1-2.16-1.299-4.736-1.937-7.07c-0.815-2.979-1.106-6.063-1.965-9.035c-0.89-3.068-2.679-5.834-3.919-8.778
					c-2.737-6.511-6.259-12.315-9.899-18.329c-2.203-3.645-3.037-7.545-2.993-11.814c-0.792,0-1.861,0.039-2.655,0.039"/>
			</g>
		</g>
		<g>
			<g>
				<path fill="#25242B" d="M34.887,304.316c0.963,1.924,3.369,3.228,5.081,4.343c2.569,1.676,5.3,3.138,7.781,4.941
					c5.887,4.299,11.051,9.492,16.996,13.729c6.849,4.88,13.886,8.552,21.609,11.862c0.076-0.185,0.656-1.396,0.573-1.433
					c-0.694-0.296-1.559-0.189-2.249-0.497c-2.364-1.039-4.518-2.509-6.801-3.713c-4.015-2.118-7.809-4.666-11.509-7.272
					c-6.452-4.557-12.325-9.779-18.743-14.363c-2.632-1.879-5.433-3.504-8.122-5.297c-1.059-0.707-2.022-1.61-2.896-2.553
					c-0.641-0.692-0.836-0.028-1.703,0.4"/>
			</g>
		</g>
		<g>
			<g>
				<path fill="#25242B" d="M51.561,319.756c5.841,8.085,13.33,15.088,21.339,20.968c1.978,1.451,4.159,2.938,6.439,3.9
					c2.626,1.109,4.229-5.775,4.229-7.25c-0.624,0-1.281,0.207-1.906,0.207c0.029,0-0.418,2.604-0.588,3.003
					c-0.58,1.363-1.219,2.403-2.529,1.628c-3.513-2.075-6.701-4.766-9.849-7.345c-4.475-3.66-8.426-7.903-12.161-12.315
					c-0.974-1.146-1.963-2.287-2.872-3.489c-0.683-0.904-1.107,0.184-1.955,0.785"/>
			</g>
		</g>
		<g>
			<g>
				<path fill="#25242B" d="M81.621,324.052c2.988,1.677,4.81,5.266,4.603,8.626c-0.101,1.605-0.771,3.172-1.92,4.327
					c-0.689,0.692,0.251,1.201,0.825,1.901c5.351-4.377,3.061-13.588-2.479-16.693c-0.325,0.576-0.609,1.133-0.935,1.711"/>
			</g>
		</g>
		<g>
			<g>
				<path fill="#25242B" d="M42.489,259.68c4.048,2.038,6.363,6.15,7.537,10.363c0.559,2.005,0.857,4.089,1.147,6.148
					c0.047,0.336,0.166,2.664,0.361,2.639c0.62-0.078,1.345-0.176,1.964-0.254c-0.949-7.614-2.586-16.68-10.191-20.51
					c-0.298,0.592-0.586,1.142-0.883,1.729"/>
			</g>
		</g>
		<g>
			<g>
				<path fill="#25242B" d="M48.33,276.193c6.09,8.39,12.325,17.125,20.867,23.244c4.066,2.912,8.849,5.746,11.393,10.22
					c1.369,2.413,1.311,5.315,0.449,7.971c-0.48,1.473-1.246,2.829-2.144,4.085c0.109,0.356,1.303,0.908,1.626,1.141
					c3.375-4.728,4.354-10.432,0.968-15.334c-2.835-4.104-7.439-6.492-11.417-9.349c-8.349-5.995-14.005-15.082-19.965-23.286
					c-0.532,0.391-0.961,1.08-1.494,1.471"/>
			</g>
		</g>
		<g>
			<g>
				<path fill="#25242B" d="M59.429,251.21c-8.189,1.022-8.809,9.306-7.03,15.826c1.637-0.447,1.487-0.267,1.107-2.052
					c-0.428-2.018-0.735-4.178-0.388-6.229c0.592-3.463,3.557-5.922,7.14-5.896c3.627,0.029,5.718,4.16,6.678,7.104
					c0.58,1.774,0.866,3.665,0.952,5.532c0.079,1.727-0.036,1.682,1.676,1.8c0.398-5.601-2.626-16.854-10.114-15.915"/>
			</g>
		</g>
		<g>
			<g>
				<path fill="#25242B" d="M53.376,236.109c-1.005,0.246-2.012,0.48-3.018,0.728c-1.094,0.267-0.623,0.692-0.436,1.765
					c1.304-0.314,2.595-0.563,3.894-0.896c1.722-0.479,3.453-0.985,5.24-1.138c1.154-0.096,0.765-0.566,0.734-1.623
					c-2.187,0.063-4.329,0.563-6.423,1.144"/>
			</g>
		</g>
		<g>
			<g>
				<path fill="#25242B" d="M39.826,239.168c2.857,1.555,4.184,5.277,4.893,8.223c0.394,1.623,0.505,3.301,0.641,4.965
					c0.025,0.285,0.093,1.961,0.294,1.959c0.49-0.006,1.069-0.058,1.558-0.063c-0.06-5.302-1.341-13.816-6.542-16.65
					c-0.254,0.467-0.505,0.963-0.756,1.428"/>
			</g>
		</g>
		<g>
			<g>
				<path fill="#25242B" d="M34.651,292.27c0.309,0.02,1.381,0.269,1.614,0.101c0.096-1.438,0.51-2.854,1.151-4.146
					c0.61-1.226,1.476-2.341,2.551-3.195c0.008-0.275-0.843-1.063-1.03-1.301c-2.547,2.021-3.988,5.332-4.201,8.543"/>
			</g>
		</g>
		<g>
			<g>
				<path fill="#25242B" d="M37.089,303.271c1.615,0.26,1.549,0.455,1.843-1.16c0.295-1.614,0.292-1.426-1.307-1.754
					c-0.179,0.979-0.347,1.961-0.523,2.938"/>
			</g>
		</g>
		<g>
			<g>
				<path fill="#25242B" d="M68.849,311.279c-1.205,0.069-2.184,0.816-2.421,2.038c0.425,0.082,1.077,0.337,1.494,0.256
					c0.169-0.896,1.346-0.607,2.019-0.483c1.875,0.343,3.67,1.244,5.274,2.235c1.684,1.038,3.39,2.185,4.738,3.645
					c0.423,0.459,0.953,0.943,1.15,1.547c0.27,0.104,1.194-0.346,1.49-0.438c-0.786-2.404-3.809-4.275-5.795-5.587
					c-2.211-1.46-5.169-3.264-7.941-3.089"/>
			</g>
		</g>
		<g>
			<g>
				<path fill="#25242B" d="M69.378,329.198c0.192,0.265,0.6,1.081,0.894,1.175c0.669-0.488,1.571-0.396,2.38-0.37
					c2.088,0.057,4.153,0.849,5.993,1.767c2.115,1.061,4.103,2.373,5.98,3.813c0.818,0.626,1.643,1.248,2.377,1.974
					c0.468,0.462,0.903-0.394,1.318-0.793c-2.388-2.482-5.353-4.665-8.392-6.252c-2.843-1.484-7.534-3.52-10.556-1.316"/>
			</g>
		</g>
		<g>
			<g>
				<path fill="#25242B" d="M66.728,334.446c0.277,0.398,0.533,0.891,0.81,1.293c0.052,0.075,1.441-0.423,1.732-0.459
					c1.864-0.231,3.713,0.649,5.26,1.593c1.684,1.021,3.246,2.251,4.616,3.663c0.605,0.618,1.261,1.179,1.778,1.872
					c0.285,0.015,1.022-0.729,1.267-0.912c-2.862-3.841-10.273-10.548-15.429-7.01"/>
			</g>
		</g>
		<g>
			<g>
				<path fill="#25242B" d="M61.129,165.246c1.315,0.085,1.27,0.396,1.386-1.016c0.147-1.793,0.539-3.573,0.808-5.353
					c0.604-4.011,1.623-7.957,2.661-11.878c1.044-3.953,2.347-7.829,3.9-11.612c0.7-1.709,1.49-3.365,2.356-4.997
					c0.827-1.557,0.658-1.636-0.82-2.501c-3.231,5.504-5.345,11.798-7.009,17.933c-1.714,6.318-2.893,12.879-3.315,19.422"/>
			</g>
		</g>
		<g>
			<g>
				<path fill="#25242B" d="M72.253,142.549c-1.025,4.56-2.187,9.092-3.491,13.583c-0.687,2.359-1.265,4.763-2.147,7.055
					c-0.113,0.294-1.044,1.934-0.852,2.015c0.448,0.194,1.033,0.729,1.484,0.922c2.852-6.662,4.063-13.921,5.661-20.968
					c0.794-3.503,1.834-6.951,2.698-10.438c0.471-1.9,0.688-3.874,1.236-5.751c0.344-1.177,0.132-0.805-0.906-1.117
					c-1.459,4.85-2.737,9.725-3.85,14.663"/>
			</g>
		</g>
		<g>
			<g>
				<path fill="#25242B" d="M76.396,151.504c-1.583,4.733-3.141,9.54-4.302,14.397c1,0.238,1.5,0.724,1.779-0.402
					c0.453-1.803,0.998-3.589,1.543-5.367c1.165-3.806,2.66-7.502,3.909-11.283c2.51-7.606,5.074-15.506,5.378-23.573
					c-0.392-0.014-0.963,0.079-1.354,0.065c-0.824-0.031-0.539,1.488-0.604,2.17c-0.245,2.653-0.518,5.323-1.118,7.92
					c-1.269,5.491-2.983,10.889-4.768,16.228"/>
			</g>
		</g>
		<g>
			<g>
				<path fill="#25242B" d="M80.383,167.979c-0.289,1.029-0.866,2.048-1.154,3.077c0.454,0.126,1.905,0.754,2.057,0.212
					c0.255-0.914,0.407-1.857,0.665-2.773c1.195-4.265,2.42-8.522,3.55-12.806c2.386-9.055,4.32-18.257,5.463-27.56
					c-0.318-0.039-1.649-0.411-1.907-0.257c-0.243,1.981-0.463,3.984-0.782,5.954c-0.623,3.856-1.1,7.742-1.962,11.55
					c-1.717,7.599-3.86,15.097-5.965,22.595"/>
			</g>
		</g>
		<g>
			<g>
				<path fill="#25242B" d="M91.573,149.784c-1.038,3.947-2.48,7.781-3.639,11.693c-0.595,2.006-0.763,4.148-1.444,6.126
					c-0.57,1.657-0.697,1.414,0.815,1.959c2.472-6.868,4.276-13.975,6.134-21.025c0.937-3.558,1.65-7.181,2.699-10.706
					c0.561-1.89,1.219-3.753,1.852-5.62c0.395-1.168-0.232-0.994-1.265-1.349c-2.134,6.171-3.906,12.501-5.563,18.813"/>
			</g>
		</g>
		<g>
			<g>
				<path fill="#25242B" d="M93.594,171.424c0.482,0.219,0.47,0.205,0.951,0.423c2.952-6.548,5.27-13.394,6.817-20.387
					c0.772-3.483,1.516-6.986,2.15-10.496c0.31-1.727,0.159-3.534,0.459-5.263c0.26-1.515-0.044-1.298-1.434-1.538
					c-2.155,12.491-3.767,25.604-9.018,37.241"/>
			</g>
		</g>
		<g>
			<g>
				<path fill="#25242B" d="M108.794,154.42c-1.106,5.053-2.217,10.116-3.555,15.113c-0.711,2.652-1.343,5.346-2.215,7.949
					c-0.127,0.379-1.567,3.234-1.381,3.303c0.458,0.169,0.821-0.004,1.279,0.167c2.878-7.768,4.712-15.823,6.491-23.9
					c0.887-4.026,1.663-8.083,2.619-12.093c0.453-1.897,0.978-3.786,1.482-5.67c0.474-1.767,0.573-1.654-1.036-2.105
					c-1.575,5.632-2.934,11.416-4.185,17.126"/>
			</g>
		</g>
		<g>
			<g>
				<path fill="#25242B" d="M117.76,146.416c-1.817,6.495-3.48,13.038-5.398,19.504c-0.95,3.2-2.037,6.357-3.048,9.537
					c-0.497,1.56-0.893,3.153-1.411,4.707c-0.381,1.143-0.005,0.832,1.004,1.169c2.839-8.463,5.721-16.896,8.157-25.483
					c0.938-3.308,1.506-6.722,2.436-10.035c0.274-0.979,0.55-1.959,0.824-2.94c0.208-0.738-0.418-0.433-1.047-0.609
					c-0.408,1.451-1.275,2.653-1.682,4.104"/>
			</g>
		</g>
		<g>
			<g>
				<path fill="#25242B" d="M119.751,163.734c-2.574,7.049-5.778,14.172-6.162,21.743c0.318,0.015,1.769,0.278,2.014,0.108
					c0.099-1.955,0.254-3.915,0.632-5.833c0.775-3.927,2.211-7.671,3.542-11.438c2.488-7.045,5.049-14.126,6.254-21.541
					c-0.314-0.052-1.254-0.403-1.516-0.261c-0.316,1.939-0.601,3.901-1.123,5.793c-1.06,3.854-2.548,7.577-3.917,11.327"/>
			</g>
		</g>
		<g>
			<g>
				<path fill="#25242B" d="M116.845,190.104c1.592,0.319,1.837,0.544,2.217-1.182c0.503-2.295,1.227-4.522,1.909-6.769
					c1.249-4.117,2.296-8.339,4.152-12.221c1.715-3.592,3.735-7.098,6.058-10.332c1.004-1.398,2.474-2.427,3.615-3.714
					c0.183-0.206,1.225-1.571,1.072-1.721c-0.353-0.339-0.83-0.606-1.182-0.947c-9.506,9.834-15.208,23.631-17.867,36.855"/>
			</g>
		</g>
	</g>
</g>
<g id="Meters">
	
		<rect id="Zero" x="-15.5" y="190.512" opacity="0.25" fill="#292F78" enable-background="new    " width="757.85" height="16.936"/>
	
		<rect id="OneEighth" x="-15.5" y="207.448" opacity="0.35" fill="#292F78" enable-background="new    " width="757.85" height="10.617"/>
	
		<rect id="OneFifth" x="-15.5" y="218.064" opacity="0.53" fill="#292F78" enable-background="new    " width="757.85" height="16.881"/>
	
		<rect id="OneThird" x="-15.5" y="234.945" opacity="0.7" fill="#292F78" enable-background="new    " width="757.85" height="25.938"/>
	
		<image overflow="visible" enable-background="new    " width="34" height="13" xlink:href="../mod4/13.png"  transform="matrix(1.0002 0 0 1.0002 19.313 228.4434)">
	</image>
	
		<image overflow="visible" enable-background="new    " width="34" height="14" xlink:href="../mod4/15.png"  transform="matrix(1.0002 0 0 1.0002 19.3135 211.063)">
	</image>
	
		<image overflow="visible" enable-background="new    " width="34" height="14" xlink:href="../mod4/18.png"  transform="matrix(1.0002 0 0 1.0002 19.3135 195.938)">
	</image>
</g>
<g id="Hand">
	<g>
		<path fill="#0090C0" d="M535.761-167.167c-5.287,10.044-67.806,181.69-69.394,196.495c-1.586,14.802-11.632,12.158-16.918,28.02
			c-5.287,15.861,0.001,23.793-4.229,32.251c-4.229,8.458-7.932,16.387-13.219,32.779c-5.286,16.39-6.87,19.033-10.572,22.205
			s-3.702,7.402-3.702,7.402s9.52-4.757,18.508-2.114c8.985,2.643,21.678,7.401,34.893,12.159
			c13.219,4.759,16.392,11.632,16.392,11.632s1.063-19.563,8.46-27.493c7.4-7.93,14.274-15.859,20.619-32.779
			c6.347-16.918,13.745-33.308,13.745-33.308s15.334-7.401,24.322-34.895c8.984-27.494,57.627-207.02,57.627-207.02L535.761-167.167
			z"/>
		<path fill="#ECAF8B" d="M422.485,147.757c-4.855-0.423-1.586,8.988-3.7,11.103c-2.115,2.114-2.115,2.114-2.115,2.114
			s-8.986-2.116-15.86-2.644c-6.874-0.528-11.103,3.703-11.103,3.703s-4.76,2.642-6.875,6.873c-2.113,4.229-6.344,7.929-9.516,11.63
			c-3.172,3.701-5.816,3.173-7.934,8.46s-6.344,8.987-6.344,8.987s1.585,6.872,8.984,7.93c7.404,1.057,11.104-2.643,11.104-2.643
			s-0.528,6.875,6.345,11.103c6.873,4.229,11.634,2.643,11.634,2.643s2.112,6.344,6.875,7.402c4.757,1.058,7.928,1.588,8.981-0.528
			c1.063-2.116,1.588-4.23,1.588-4.23s4.758,6.874,9.519,7.402c4.758,0.524,7.932-4.23,10.047-7.402
			c2.114-3.172,4.758-7.931,4.758-7.931s4.229,7.401,9.517,6.873s10.573-5.286,13.745-8.459c3.172-3.172,5.817-5.815,7.403-6.344
			c1.584-0.528,9.518-3.172,8.988-11.103c-0.53-7.931-1.587-10.045-1.587-10.045s0.524-7.401,1.057-11.102
			c0.53-3.702,0.53-6.345,0.53-6.345S446.807,149.873,422.485,147.757z"/>
		<path fill="#0B718F" d="M477.471,165.204c5.354,1.222,8.9,4.698,8.908,9.953c-3.109,1.727-4.998,1.638-8.38,0.62
			c-0.308-3.979-2.38-7.762-1.587-11.631"/>
		<path fill="#F2D7C5" d="M364.461,189.522c1.604-0.227,3.393,0.005,5.016-0.039c-1.936,3.493-5.259,6.31-9.333,7.542
			c1.195-2.219,2.788-5.194,4.318-7.107"/>
		<path fill="#F2D7C5" d="M387.063,202.607c-3.313,4.706-3.056,15.623,5.252,11.597c7.474-3.617,2.914-12.793-4.459-11.994"/>
		<path fill="#F2D7C5" d="M404.907,210.538c-7.081,0.987-2.742,10.088,3.348,9.428c8.935-0.968,2.837-10.692-4.538-10.618"/>
		<path fill="#F2D7C5" d="M424.336,212.124c-7.269,0.918-5.52,10.434,0.795,9.116c5.869-1.226,6.979-10.181-0.396-9.909"/>
		<path fill="#F2D7C5" d="M453.679,208.158c-2.145,4.124-7.17,5.087-10.721,2.003c-0.009-0.277-0.015-0.556-0.024-0.833
			c2.824-2.989,6.897-4.171,10.352-1.962"/>
		<path fill="#0082A9" d="M535.761,75.719c-8.313,6.439-18.594,8.393-21.412,18.736c-2.769,10.159-0.017,22.908-3.924,32.763
			c4.026-16.082,13.915-30.195,19.388-45.155"/>
	</g>
	<g>
		<g>
			<g>
				<path fill="#25242B" d="M465.875,24.534c-0.833,5.273-1.729,10.505-4.883,14.961c-2.319,3.277-5.29,6.09-7.609,9.369
					c-3.348,4.734-7.024,10.076-7.848,15.906c-0.421,3.003,1.206,6.069,1.344,9.072c0.146,3.147-0.598,6.241-1.121,9.351
					c-0.39,2.325-1.132,4.413-2.186,6.532c-1.002,2.018-1.808,3.71-3.012,5.538c-1.892,2.875-3.063,6.731-3.906,10.039
					c-2.728,10.68-6.896,21.092-11.822,30.93c-1.622,3.234-2.438,7.104-4.681,9.965c-1.595,2.028-5.16,3.762-4.686,6.74
					c1.076-0.173,4.149-0.353,4.246-1.464c0.111-1.249-0.725-2.678,0.086-3.487c1.155-1.155,2.611-1.962,3.488-3.336
					c5.084-7.975,8.072-17.234,11.481-26.014c1.81-4.652,3.604-9.229,4.747-14.089c0.82-3.483,2.321-6.208,4.989-8.831
					c3.398-3.336,3.876-9.326,4.422-13.892c0.732-6.114-0.846-12.373,0.541-18.374c2.819-12.206,14.797-19.467,17.687-31.52
					c1.35-5.636,0.86-11.679,2.133-17.34c0.744-3.305,2.771-6.287,3.806-9.515c0.183-0.563,62.762-172.207,62.667-172.242
					c-10.928,0-6.487,0.525-7.208,0.263c-3.081,8.397-61.729,182.548-63.127,191.367"/>
			</g>
		</g>
		<g>
			<g>
				<path fill="#25242B" d="M561.368,14.371c-2.205,10.086-4.729,20.187-8.029,29.984c-3.019,8.956-7.021,18.389-13.686,25.275
					c-6.681,6.906-14.847,12.907-23.555,17.035c-1.992,0.945-4.193,1.459-6.311,2.099c-1.731,0.521-1.247,1.301-0.857,3.25
					c4.789-0.956,9.688-3.722,13.825-6.189c9.505-5.665,19.093-11.685,24.897-21.208c5.873-9.635,8.765-22.558,11.518-33.425
					c0.871-3.442,49.347-165.358,58.661-193.025c-0.732-0.224-5.544,0-5.544,0c-1.863,6.094-50.974,169.675-52.336,175.894"/>
			</g>
		</g>
		<g>
			<g>
				<path fill="#25242B" d="M519.945,101.594c-3.096,8.429-6.042,17.111-10.377,25.004c-3.554,6.464-8.297,11.922-12.815,17.68
					c-4.874,6.207-8.684,12.7-10.698,20.276c-0.508,1.914,0.574,4.169,0.252,6.124c-0.187,1.14-0.96,2.115-1.724,3.028
					c0.057,0.394,1.041,0.791,1.377,1.07c1.833-2.203,1.809-5.625,2.487-8.355c1.222-4.913,3.054-9.847,5.452-14.324
					c4.516-8.448,12.178-14.768,16.986-23.076c6.054-10.443,8.688-22.642,12.919-33.884c2.002-5.319,4.92-10.305,7.479-15.387
					c1.09-2.167,2.155-4.36,3.524-6.366c0.5-0.737,0.905-0.741,0.18-1.273c-0.477-0.349-0.278-0.237-0.751-0.585
					c-6.571,8.958-10.241,19.852-14.027,30.167"/>
			</g>
		</g>
		<g>
			<g>
				<path fill="#25242B" d="M420.117,149.893c-1.45,0.953-2.157,2.622-2.329,4.346c0.487,0.049,0.911,0.183,1.396,0.231
					c-0.022-0.001,0.564-2.164,0.8-2.44c0.949-1.129,2.642-1.665,4.045-1.917c3.332-0.602,6.896,0.06,10.205,0.604
					c6.646,1.092,12.928,3.583,19.338,5.598c6.131,1.926,12.4,3.324,18.327,5.852c3.599,1.536,7.448,2.852,10.203,5.661
					c1.495,1.524,2.408,3.547,3.438,5.416c0.512,0.929,0.988,1.885,1.387,2.866c0.247,0.092,1.576-0.66,1.847-0.769
					c-5.271-12.946-18.759-16.288-30.991-19.81c-6.063-1.746-12.019-3.794-18.173-5.217c-5.591-1.289-13.942-3.443-19.211,0.009"/>
			</g>
		</g>
		<g>
			<g>
				<path fill="#25242B" d="M481.991,175.744c0.147,0.507,0.31,1.002,0.46,1.509c2.69-0.795,5.05-2.544,6.797-4.709
					c-1.244-1-1.109-1.138-2.28,0.065c-1.382,1.419-3.057,2.578-4.969,3.141"/>
			</g>
		</g>
		<g>
			<g>
				<path fill="#25242B" d="M421.009,149.554c-0.336,2.359-0.641,4.804-1.702,6.97c-0.456,0.934-1.002,1.841-1.789,2.525
					c-0.005,0.271,0.806,0.944,0.996,1.167c2.312-1.997,3.195-5.029,3.708-7.932c0.189-1.081,0.382-2.161,0.54-3.247
					c0.043-0.294-1.313-0.375-1.613-0.419c-0.039,0.266-0.073,0.683-0.034,0.948"/>
			</g>
		</g>
		<g>
			<g>
				<path fill="#25242B" d="M389.259,161.414c0.413,0.332,0.847,0.522,1.261,0.854c0.564,0.454,1.674-1.147,2.266-1.603
					c1.729-1.333,3.772-1.724,5.947-1.638c5.319,0.212,10.046,2.809,15.262,3.544c5.095,0.72,9.857-1.09,14.913-0.874
					c1.999,0.086,3.896,0.591,5.404,1.922c0.328,0.289,2.036,2.296,2.063,2.277c0.527-0.335,0.974-0.285,1.499-0.621
					c-2.391-3.729-5.688-6.179-10.128-6.008c-4.757,0.184-9.412,2.373-14.191,1.406c-8.399-1.701-17.521-7.95-24.43,0.639"/>
			</g>
		</g>
		<g>
			<g>
				<path fill="#25242B" d="M444.709,169.898c0.248,0.422,0.601,0.982,0.851,1.405c0.074,0.129,1.528-0.681,1.805-0.765
					c1.843-0.568,3.907-0.602,5.81-0.241c5.104,0.969,4.811,6.671,8.479,9.351c1.845,1.349,4.114,1.516,6.335,1.858
					c1.072,0.167,2.225,0.496,3.154,1.1c1.079,0.697,1.634,1.954,1.883,3.162c0.213,1.051,0.27,2.128,0.304,3.197
					c0.216,0.173,1.071-0.033,1.371-0.042c-0.089-2.847-0.296-6.713-3.205-8.106c-2.81-1.343-5.985-0.772-8.646-2.693
					c-3.419-2.47-3.354-7.174-7.686-8.889c-3.138-1.245-7.388-0.852-10.301,0.867"/>
			</g>
		</g>
		<g>
			<g>
				<path fill="#25242B" d="M476.885,170.41c-0.018,3.385,0.211,6.825-0.755,10.099c-0.146,0.488-1.804,4.313-1.794,4.318
					c0.688,0.334,1.511,0.685,2.201,1.018c2.438-5.062,2.806-10.074,2.902-15.597c0.021-1.459-0.042-2.92-0.016-4.379
					c0.02-1.181-1.434-0.771-2.451-0.81c-0.027,1.763,0.034,3.589,0.003,5.352"/>
			</g>
		</g>
		<g>
			<g>
				<path fill="#25242B" d="M474.213,181.33c2.266,4.576,4.699,10.593,3.132,15.796c-0.677,2.245-2.186,4.022-4.229,5.121
					c-1.188,0.636-2.479,1.089-3.787,1.407c-1.104,0.27-0.627,0.625-0.418,1.626c4.669-0.974,8.944-3.503,10.079-8.454
					c1.251-5.469-0.975-11.412-3.353-16.213c-0.474,0.234-0.866,0.458-1.344,0.691"/>
			</g>
		</g>
		<g>
			<g>
				<path fill="#25242B" d="M463.017,206.812c-2.937,4.659-7.059,8.528-12.332,10.512c-2.492,0.938-5.352,1.164-7.387-0.827
					c-0.321-0.313-2.208-3.152-2.106-3.193c-0.703,0.301-1.174,0.617-1.878,0.92c1.886,4.393,5.488,7.065,10.316,5.974
					c3.854-0.87,7.223-3.445,10.127-6.034c3.502-3.12,5.288-7.417,8.557-10.682c1.433-1.428,3.094-2.618,5.113-2.737
					c0.914-0.054,1.281,0.574,1.334-0.379c0.034-0.585,0.078-1.017,0.11-1.603c-5.911-0.339-9.285,3.264-12.176,7.846"/>
			</g>
		</g>
		<g>
			<g>
				<path fill="#25242B" d="M451.877,192.307c-3.714,4.518-6.46,9.555-10.044,14.146c-2.608,3.338-4.776,6.602-6.817,10.352
					c-2.515,4.619-5.529,9.899-11.575,9.427c-2.392-0.188-4.569-1.543-5.619-3.695c-0.183-0.368-0.812-3.345-0.854-3.338
					c-0.613,0.103-1.282,0.489-1.896,0.59c0.973,5.843,5.632,9.086,11.566,7.734c6.834-1.557,9.307-8.609,12.663-13.853
					c2.833-4.417,6.423-8.179,8.93-12.866c3.436-6.425,10.098-10.951,12.26-18.104c-0.507-0.153-1.27-0.552-1.776-0.705
					c-0.704-0.212-1.53,2.018-1.863,2.679c-1.375,2.738-2.769,5.492-4.704,7.848"/>
			</g>
		</g>
		<g>
			<g>
				<path fill="#25242B" d="M443.826,208.682c0.295,0.172,0.905,0.737,1.229,0.714c0.564-0.958,1.604-1.559,2.625-1.93
					c0.861-0.312,6.182-1.09,5.583,0.972c-0.442,1.546-2.835,3.509-4.486,2.919c-2.254-0.809-4.064-1.517-6.541-1.219
					c0.134,1.098-0.21,1.587,0.993,1.525c1.517-0.078,2.861,0.239,4.241,0.834c2.573,1.113,4.271,0.014,6.184-1.896
					c2.519-2.515,0.62-4.876-2.428-5.158c-2.718-0.252-5.972,0.752-7.432,3.232"/>
			</g>
		</g>
		<g>
			<g>
				<path fill="#25242B" d="M438.104,177.95c-3.566,3.329-7.211,6.698-9.101,11.301c-1.786,4.353-3.548,8.527-5.818,12.684
					c-2.622,4.799-5.712,9.323-7.641,14.469c-0.811,2.159-1.675,4.375-2.97,6.312c-0.523,0.785-1.331,1.253-2.135,1.755
					c-0.051,0.256,0.861,1.24,1.016,1.482c4.452-2.779,5.313-9.089,7.703-13.377c2.882-5.169,6.062-10.087,8.495-15.512
					c2.152-4.809,3.347-9.488,6.979-13.508c2.359-2.614,4.979-5.041,7.526-7.475c-0.74-0.741-1.094-1.591-1.893-0.832
					c-0.823,0.79-1.242,2.014-2.068,2.803"/>
			</g>
		</g>
		<g>
			<g>
				<path fill="#25242B" d="M409.145,172.148c0.311,2.576,0.762,5.277,0.161,7.834c-0.771,3.31-2.823,6.156-4.28,9.174
					c-2.099,4.34-3.155,9.06-4.44,13.681c-1.565,5.614-4.668,12.418-1.645,18.132c2.853,5.391,9.443,5.795,14.716,4.289
					c-0.098-0.332-0.159-1.431-0.432-1.583c-1.518,0.434-3.104,0.983-4.685,0.966c-2.786-0.032-6.092-0.945-7.858-3.248
					c-3.753-4.895,0.271-12.671,1.688-17.75c1.271-4.555,2.411-9.204,4.467-13.483c1.507-3.144,3.668-6.084,4.521-9.51
					c0.704-2.839-0.188-5.783-0.532-8.651c-0.657,0.079-0.904,0.073-1.563,0.152"/>
			</g>
		</g>
		<g>
			<g>
				<path fill="#25242B" d="M384.77,173.468c0.6,3.732,0.395,7.389-0.271,11.132c-0.771,4.347-2.536,8.432-3.641,12.696
					c-1.539,5.947-1.164,12.617,3.162,17.47c3.361,3.77,9.018,4.424,13.104,1.362c-0.374-0.499-0.61-1.005-0.983-1.504
					c-0.003-0.003-2.559,1.383-2.909,1.475c-2.803,0.719-5.584-0.437-7.543-2.554c-4.191-4.531-3.705-10.725-2.203-16.255
					c1.09-4.007,2.111-8.022,2.869-12.116c0.748-4.054,0.611-7.881,0-11.928c-0.652,0.101-1.187,0.251-1.84,0.352"/>
			</g>
		</g>
		<g>
			<g>
				<path fill="#25242B" d="M365.604,206.819c5.685,1.473,14.354,0.469,18.551-4.187c-0.309-0.279-1.223-1.437-1.596-1.421
					c-0.938,1.044-2.322,1.764-3.6,2.294c-3.916,1.628-8.619,2.045-12.749,0.974c-2.948-0.765-5.091-2.966-5.76-5.933
					c-0.135-0.599-0.387-1.225-0.38-1.84c0-0.104-1.97-0.122-2.243-0.131c-0.176,4.781,3.188,9.139,7.755,10.322"/>
			</g>
		</g>
		<g>
			<g>
				<path fill="#25242B" d="M391.264,160.807c-2.252,0.55-4.302,1.089-5.638,3.131c-1.512,2.308-2.467,5.089-4.683,6.866
					c-2.455,1.974-4.764,3.235-6.783,5.834c-1.596,2.053-3.02,4.267-4.018,6.674c0.559,0.231,1.729,1.145,2.024,0.492
					c0.746-1.648,1.507-3.295,2.534-4.785c1.395-2.02,3.05-3.759,5.188-5.005c1.436-0.836,2.797-1.69,3.868-2.987
					c1.708-2.063,2.535-6.396,5.164-7.482c2.294-0.946,5.017-1.27,7.415-1.889c-0.29-1.044-0.089-2.011-1.243-1.714
					c-1.269,0.329-2.543,0.631-3.81,0.958"/>
			</g>
		</g>
		<g>
			<g>
				<path fill="#25242B" d="M372.061,182.639c-1.766,0.401-3.514,0.923-4.842,2.224c-1.764,1.724-2.24,4.382-3.664,6.366
					c-2.322,3.238-5.444,4.641-5.629,9.064c0.299,0.013,1.415,0.233,1.632,0.061c0.052-1.273,0.3-2.554,1.031-3.627
					c1.216-1.781,3.13-2.995,4.375-4.786c1.527-2.2,2.041-5.47,4.552-6.808c1.531-0.817,3.463-1.055,5.133-1.51
					c-0.66-1.814-0.763-1.47-2.586-0.976"/>
			</g>
		</g>
		<g>
			<g>
				<path fill="#25242B" d="M362.771,191.067c0.762,0.766,0.776,1.35,1.672,0.602c1.254-1.049,2.764-1.771,4.418-1.731
					c-1.998,3.565-6.606,4.602-9.307,7.484c0.668,0.628,0.793,1.236,1.528,0.566c1.393-1.262,3.143-2.092,4.725-3.089
					c2.494-1.571,4.473-3.275,5.27-6.201c-3.176-0.727-5.999,0.044-8.335,2.365"/>
			</g>
		</g>
		<g>
			<g>
				<path fill="#25242B" d="M388.436,201.818c-3.914,1.982-4.426,9.936-1.033,12.585c3.31,2.584,7.084,1.04,9-2.354
					c-0.586-0.329-1.01-0.96-1.434-0.341c-0.676,0.993-1.689,1.879-2.838,2.309c-3.802,1.425-5.57-3.057-5.136-5.978
					c0.587-3.936,2.735-6.377,6.601-3.799c1.307,0.871,2.035,2.213,2.049,3.794c0.004,0.36-0.305,2.278-0.209,2.307
					c0.469,0.14,0.847,0.345,1.313,0.486c0.71-2.37,0.688-4.94-1.069-6.831c-1.662-1.784-4.806-3.172-7.146-1.987"/>
			</g>
		</g>
		<g>
			<g>
				<path fill="#25242B" d="M406.886,208.967c-4.346-0.061-6.55,2.549-6.397,6.719c0.113,3.187,3.613,4.191,6.127,5.028
					c1.857,0.621,4.511,1.176,6.095-0.388c1.146-1.129,1.396-3.112,1.426-4.647c0.074-3.665-3.829-6.697-7.032-7.499
					c-0.063,0.258-0.141,0.663-0.201,0.92 M407.168,219.056c-1.595-0.532-5.019-1.09-5.206-3.238
					c-0.217-2.524,0.695-4.6,3.448-5.025c1.784-0.276,3.509-0.248,4.849,0.938c1.063,0.939,2.117,2.344,2.117,3.837
					c0,0.975-0.108,2.132-0.518,3.009c-0.832,1.77-3.353,1.069-4.733,0.607"/>
			</g>
		</g>
		<g>
			<g>
				<path fill="#25242B" d="M419.471,214.811c-0.644,1.253-2.003,2.947-1.134,4.359c0.663,1.081,2.208,1.458,3.335,1.814
					c2.005,0.637,4.077,1.193,6.187,0.828c0.843-0.146,2.587-1.415,3.267-1.176c0.263-0.639,0.838-0.782,1.261-1.335
					c-1.176-0.424-0.669-1.058-0.669-1.951c0-1.175-0.129-2.376-0.701-3.41c-0.958-1.728-2.73-2.645-4.603-3.106
					c-3.38-0.835-5.585,1.082-7.013,3.938 M423.468,219.992c-1.021-0.278-2.034-0.66-2.983-1.129
					c-1.305-0.642-0.666-1.549-0.118-2.602c0.795-1.588,1.747-3.612,3.681-4.015c2.813-0.585,5.89,1.51,6.214,4.318
					c0.184,1.554-0.092,2.817-1.617,3.338c-1.666,0.568-3.5,0.559-5.176,0.102"/>
			</g>
		</g>
		<g>
			<g>
				<path fill="#25242B" d="M411.541,185.518c0.104,0.772-0.133,1.575,0.732,1.495c1.5-0.138,3.061-0.09,4.523,0.274
					c1.229,0.306,2.543,0.949,3.227,2.092c0.611,1.036,0.599,0.734,1.857,0.465c-0.916-4.297-6.844-4.804-10.342-4.334"/>
			</g>
		</g>
		<g>
			<g>
				<path fill="#25242B" d="M391.732,182.112c0.281,0.626,0.358,1.527,1.065,1.306c1.366-0.428,2.938-0.323,4.319-0.063
					c1.294,0.24,2.554,0.767,3.678,1.463c1.076,0.665,1.024,0.258,1.878-0.682c-2.549-2.319-7.696-3.391-10.897-1.957"/>
			</g>
		</g>
		<g>
			<g>
				<path fill="#25242B" d="M432.598,189.766c0.191,0.755,0.052,1.572,0.899,1.398c1.259-0.26,2.591-0.352,3.865-0.144
					c1.238,0.202,2.471,0.735,3.352,1.659c0.972,1.015,0.827,0.822,2.069,0.101c-2.021-3.472-6.629-3.869-10.174-2.974"/>
			</g>
		</g>
		<g>
			<g>
				<path fill="#25242B" d="M427.431,202.945c0.037,0.391,0.048,0.809,0.082,1.198c0.071,0.779,1.578,0.324,2.282,0.434
					c0.354,0.056,2.661,0.874,2.684,0.836c0.245-0.423,0.476-0.864,0.724-1.287c-1.716-0.993-3.8-1.317-5.759-1.14"/>
			</g>
		</g>
		<g>
			<g>
				<path fill="#25242B" d="M408.08,202.91c1.651,0.294,3.258,0.803,4.844,1.345c1.196,0.407,0.979-0.173,1.367-1.23
					c-1.932-0.709-3.91-1.247-5.938-1.61c-0.093,0.521-0.198,1.044-0.293,1.564"/>
			</g>
		</g>
		<g>
			<g>
				<path fill="#25242B" d="M391.813,194.993c1.75,0.025,3.473,0.553,4.999,1.409c0.979,0.548,0.979-0.119,1.551-0.983
					c-1.929-1.268-4.23-1.967-6.532-2c-0.01,0.528,0.006,1.042-0.003,1.57"/>
			</g>
		</g>
		<g>
			<g>
				<path fill="#25242B" d="M452.588,195.883c1.854,0.073,3.697,0.402,5.421,1.083c1.602,0.63,1.382,0.652,2.146-0.794
					c-2.29-1.205-4.915-1.805-7.495-1.907c-0.021,0.528-0.033,0.988-0.054,1.517"/>
			</g>
		</g>
		<g>
			<g>
				<path fill="#25242B" d="M448.666,198.884c-1.135,2.338-2.324,4.705-3.991,6.719c-0.846,1.027-1.875,1.901-2.979,2.643
					c-0.89,0.595-0.242,0.983,0.257,1.821c3.983-2.368,6.23-6.431,8.188-10.466c1.021-2.104,1.889-4.336,3.369-6.162
					c0.7-0.861,1.627-1.515,2.559-2.129c0.032-0.274-0.82-1.2-0.986-1.45c-3.18,2.105-4.948,5.629-6.559,8.954"/>
			</g>
		</g>
		<g>
			<g>
				<path fill="#25242B" d="M432.896,125.715c-1.267,4.089-2.595,8.162-4.119,12.163c-0.761,1.992-1.387,4.052-2.308,5.974
					c-0.135,0.282-1.359,2.066-1.181,2.164c0.431,0.23,0.787,0.321,1.217,0.551c4.04-7.623,6.608-15.874,9.194-24.059
					c1.257-3.972,2.235-8.062,3.893-11.887c0.817-1.886,1.792-3.713,2.797-5.505c0.851-1.514,0.854-1.28-0.518-2.106
					c-4.223,7.006-6.775,14.88-9.179,22.645"/>
			</g>
		</g>
		<g>
			<g>
				<path fill="#25242B" d="M440.215,125.177c-2.914,6.606-6.039,13.37-6.994,20.59c1.069,0.141,1.831,0.603,2.017-0.592
					c0.336-2.154,0.464-4.381,1.098-6.467c1.273-4.185,3.067-8.228,4.826-12.228c3.37-7.651,7.331-15.323,8-23.765
					c-0.395-0.031-1.024-0.028-1.413-0.057c-0.825-0.065-0.6,1.637-0.697,2.325c-0.339,2.368-0.681,4.763-1.375,7.05
					C444.302,116.577,442.127,120.841,440.215,125.177"/>
			</g>
		</g>
		<g>
			<g>
				<path fill="#25242B" d="M441.775,137.512c-0.648,1.952-1.518,3.832-2.161,5.784c-0.363,1.087-0.572,2.225-0.937,3.314
					c-0.298,0.898,0.465,0.72,1.288,1.003c1.679-5.051,3.604-9.986,5.279-15.038c1.813-5.482,3.919-10.853,6.074-16.212
					c1.103-2.741,2.052-5.54,3.333-8.204c0.566-1.185,1.318-2.313,1.938-3.474c-0.109-0.266-1.434-0.723-1.706-0.868
					c-5.65,10.666-8.979,22.387-12.72,33.823"/>
			</g>
		</g>
		<g>
			<g>
				<path fill="#25242B" d="M452.226,127.987c-1.272,4.461-2.604,8.896-4.144,13.277c-0.8,2.276-1.745,4.475-2.723,6.681
					c-0.128,0.29-0.718,2.112-0.527,2.204c0.441,0.214,0.954,0.699,1.396,0.913c3.815-7.902,6.195-16.415,8.612-24.815
					c1.273-4.422,2.421-8.877,4.012-13.198c0.769-2.078,1.813-4.026,2.722-6.046c0.132-0.293,0.904-2.539,0.722-2.629
					c-0.438-0.214-0.759-0.164-1.197-0.377c-3.754,7.701-6.437,15.803-8.781,24.016"/>
			</g>
		</g>
		<g>
			<g>
				<path fill="#25242B" d="M453.563,150.534c0.386,0.063,0.537-0.117,0.927-0.053c0.8,0.132,0.6-1.142,0.728-1.794
					c0.464-2.377,1.225-4.682,1.873-7.015c1.294-4.633,2.862-9.167,4.604-13.647c1.69-4.353,3.592-8.612,5.524-12.861
					c0.837-1.831,1.768-3.614,2.631-5.431c0.146-0.301,0.813-2.166,0.616-2.261c-0.439-0.214-0.952-0.677-1.393-0.891
					c-6.713,13.893-13.513,28.539-16.031,43.874"/>
			</g>
		</g>
		<g>
			<g>
				<path fill="#25242B" d="M466.718,133.265c-1.4,4.797-2.667,9.642-4.162,14.412c-0.697,2.232-1.851,4.321-2.608,6.533
					c-0.102,0.28-0.679,1.82-0.472,1.895c0.459,0.164,0.563,0.457,1.022,0.622c3.125-8.686,6.047-17.433,8.648-26.286
					c1.334-4.54,2.225-9.221,3.678-13.726c0.634-1.967,1.354-3.914,2.047-5.863c0.099-0.279,1.054-1.93,0.848-2.005
					c-0.46-0.17-1.088-0.436-1.548-0.606c-3.028,8.153-5.403,16.569-7.846,24.91"/>
			</g>
		</g>
		<g>
			<g>
				<path fill="#25242B" d="M478.509,122.482c-1.496,5.456-3.246,10.566-5.83,15.591c-2.684,5.213-5.763,10.477-6.409,16.429
					c0.487,0.053,1.103-0.102,1.588-0.049c0.138,0.014,0.584-2.407,0.682-2.782c0.638-2.475,1.797-4.754,2.952-7.028
					c1.396-2.747,2.997-5.392,4.403-8.132c2.046-3.969,3.028-8.461,4.207-12.747c0.721-2.615,1.602-5.175,2.454-7.752
					c0.436-1.304,0.811-2.637,1.335-3.906c-0.146-0.259-1.124-0.428-1.414-0.55c-1.495,3.587-2.396,7.336-3.423,11.079"/>
			</g>
		</g>
		<g>
			<g>
				<path fill="#25242B" d="M473.928,154.792c-0.538,1.083-0.498,1.292,0.575,1.829c0.715,0.355,1.654-1.784,1.938-2.349
					c2.013-4.055,3.935-8.165,5.809-12.288c3.802-8.352,7.152-17.052,8.919-26.082c-1.048-0.204-1.442-0.653-1.686,0.523
					c-0.383,1.842-1.289,3.56-1.788,5.373c-1.063,3.863-2.375,7.627-3.849,11.352c-2.917,7.395-6.323,14.558-9.861,21.667"/>
			</g>
		</g>
		<g>
			<g>
				<path fill="#25242B" d="M485.682,142.072c-1.163,3.845-2.433,7.643-3.896,11.383c-0.654,1.664-1.299,3.306-2.116,4.894
					c-0.78,1.509-0.725,1.213,0.646,1.992c4.06-7.149,5.922-15.218,8.396-22.99c1.21-3.813,2.481-7.685,4.295-11.258
					c0.854-1.677,2.229-3.06,3.345-4.577c0.174-0.233,1.414-1.88,1.269-2.01c-0.371-0.319-1.146-0.6-1.517-0.92
					c-5.64,6.512-8.007,15.408-10.438,23.48"/>
			</g>
		</g>
		<g>
			<g>
				<path fill="#25242B" d="M487.841,147.981c-1.124,2.755-2.304,5.475-3.563,8.171c-0.682,1.451-1.424,2.89-2.207,4.288
					c0.105,0.269,1.365,0.727,1.641,0.88c3.806-6.774,5.952-14.327,9.263-21.337c1.539-3.257,3.491-6.335,5.644-9.233
					c1.016-1.37,2.223-2.572,3.417-3.786c1.194-1.215,0.823-1.349-0.257-2.509c-6.797,6.33-10.481,15.095-13.927,23.528"/>
			</g>
		</g>
		<g>
			<g>
				<path fill="#25242B" d="M495.163,142.879c-0.66,1.657-1.201,3.366-1.957,4.982c-0.675,1.45-0.591,1.159,0.735,1.852
					c2.357-4.511,3.832-9.376,6.199-13.887c0.969-1.844,2.17-3.583,3.688-5.028c0.66-0.628,1.39-1.161,2.212-1.553
					c0.08-0.235-0.688-1.403-0.809-1.652c-5.548,2.656-7.988,9.995-10.099,15.277"/>
			</g>
		</g>
	</g>
	<rect id="FingersTarget_1_" x="396.339" y="161.656" fill="none" width="48.336" height="43.947"/>
</g>
<rect id="FingersTargetFixed_1_" x="396.339" y="161.656" fill="none" width="48.336" height="43.947"/>
<rect id="CompressionsTarget_1_" x="407.932" y="226.505" fill="none" width="25.151" height="18.173"/>
<image overflow="visible" enable-background="new    " width="72" height="37" id="ArrowProper" xlink:href="../mod4/arrow.png"  transform="matrix(1.0002 0 0 1.0002 225.4346 161.8848)">
</image>
</svg>
