<?xml version="1.0" encoding="utf-8"?>
<!-- Generator: Adobe Illustrator 15.0.0, SVG Export Plug-In . SVG Version: 6.00 Build 0)  -->
<!DOCTYPE svg PUBLIC "-//W3C//DTD SVG 1.1//EN" "http://www.w3.org/Graphics/SVG/1.1/DTD/svg11.dtd">
<svg version="1.1" id="Layer_1" xmlns="http://www.w3.org/2000/svg" xmlns:xlink="http://www.w3.org/1999/xlink" x="0px" y="0px"
	 width="640px" height="360px" viewBox="0 0 640 360" enable-background="new 0 0 640 360" xml:space="preserve">
<path fill="#0591C0" d="M348.169,279.533c-2.108-8.857-13.497-44.71-18.979-62.426c-5.48-17.713-11.388-21.928-17.292-21.086
	s-11.809,27.836-11.388,45.129c0.422,17.291,8.435,29.945,9.701,33.74c1.265,3.797,1.265,3.797,1.265,3.797L348.169,279.533z"/>
<path fill="#0591C0" d="M185.785,202.77c-1.709,8.943-2.954,26.994,8.857,42.183c11.811,15.184,20.667,24.885,20.667,24.885
	s30.367,23.196,33.741,24.462c3.374,1.27,45.129-15.188,45.129-15.188s11.81-15.184,16.45-31.633
	c4.64-16.445,9.278-49.771,9.278-49.771s-22.775-20.667-50.19-24.884c-27.415-4.217-68.221,11.176-73.916,14.338
	C190.109,190.326,187.155,195.602,185.785,202.77z"/>
<path fill="#0591C0" d="M194.643,186.742c-5.904,5.063-20.244,12.652-21.088,25.306c-0.843,12.654-1.688,20.669-0.843,34.589
	c0.844,13.918-0.843,29.943-1.687,34.162c-0.844,4.217,6.746,10.965,13.496,12.229c6.749,1.27,21.721-18.869,21.721-18.869
	s0.211-16.137,0.211-17.82S194.643,186.742,194.643,186.742z"/>
<path fill="#F1F2DB" d="M568.756,359.669c-9.701-17.293-30.788-46.396-34.163-47.662c-3.374-1.266-45.13-0.842-80.56-0.842
	c-35.433,0-302.411,0-318.86-0.424c-16.449-0.419-18.979-1.271-26.572,7.592c-7.592,8.857-29.524,41.336-29.524,41.336H568.756z"/>
<path fill="#D3D8B9" d="M213.623,327.613c-10.906,1.878-25.708-0.78-35.764,3.882c-0.035-0.051-0.031,1.559-0.021,1.538
	c14.25,2.247,29.155,2.813,43.776,3.344c9.678,0.351,18.538-1.218,27.548-0.291c15.003,1.539,29.312,4.849,44.587,5.448
	c14.439,0.563,29.61,4.688,43.883,3.794c7.162-0.449,9.823-1.604,16.015-3.796c19.197-6.802,32.711-9.367,53.146-8.438
	c10.919,0.494,33.654-0.561,44.443-1.6c12.914-1.236,23.527-0.568,23.885-5.57c0.354-5.01-49.385-5.537-72.123-7.592
	c-43.497-3.929-87.502,2.302-131.171,0.844c-12.927-0.438-53.917-4.418-61.578,10.122"/>
<g id="ChestMains">
	<path id="ChestMain" fill="#F3BF99" d="M332.773,278.582c-9.172-0.314-22.775-2.53-37.01-1.266
		c-6.71,0.598-11.873,0.701-16.286,1.176c-4.948,0.531-8.952,1.529-13.132,4.203c-7.908,5.061-12.653,8.541-13.918,9.49
		c-1.265,0.943-5.378-1.584-7.908-8.229c-2.531-6.646-2.214-13.604-6.011-13.604c-3.795,0-4.745,0.948-5.377-0.631
		c-0.632-1.582,0.316-1.896-2.53-1.269c-2.847,0.633-4.112-2.214-4.112-2.214s-3.796,1.265-4.745-0.316
		c-0.949-1.582-1.898-2.847-3.164-0.947c-1.265,1.896-3.479,4.432-8.224,4.432s-6.959-1.268-9.173,0.632
		c-2.215,1.896,7.908,43.654,12.336,52.828c4.428,9.174,9.49,6.643,9.49,6.643s6.01-1.582,9.174-4.107
		c3.164-2.53,2.531-4.745,9.173-3.479c6.643,1.266,8.225,5.377,12.021,6.959s16.449,5.063,31.949,7.275s13.603,5.062,28.47,5.689
		c14.867,0.632,21.827,0.949,25.623,1.582c3.797,0.632,11.071,1.27,16.449-0.946c5.378-2.217,8.541-5.063,8.541-5.063l1.897-5.063
		c0,0,17.715-2.529,26.567-5.382c8.857-2.847,13.286-4.106,16.449-3.157c3.163,0.943,16.133,3.479,22.144,3.157
		c6.015-0.313,9.173-1.265,9.173-1.265s3.479-10.438,2.22-13.602c-1.271-3.164-4.746-3.164-4.746-3.164s-6.015-3.799-18.351-7.908
		c-12.338-4.112-17.715-4.112-21.512-3.479c-3.795,0.633-17.714,1.582-17.714,1.582L332.773,278.582z"/>
	<path id="ChestMainExpanded" fill="#F3BF99" d="M332.773,278.76c-9.172-0.316-22.324-5.109-36.313-5.506
		c-6.407-0.184-13.133-1.71-17.679,0c-4.323,2.167-9.771,4.426-13.778,7.91c-7.908,5.063-11.315,10.25-12.581,11.199
		c-1.265,0.947-5.378-1.582-7.908-8.227c-2.531-6.646-2.214-13.604-6.011-13.604c-3.795,0-4.745,0.946-5.377-0.636
		s0.316-1.896-2.53-1.267c-2.847,0.634-4.112-2.215-4.112-2.215s-3.796,1.267-4.745-0.315c-0.949-1.582-1.898-2.848-3.164-0.945
		c-1.265,1.896-3.479,4.429-8.224,4.429s-6.959-1.269-9.173,0.633c-2.215,1.897,7.908,43.653,12.336,52.827
		c4.428,9.174,9.49,6.646,9.49,6.646s6.01-1.581,9.174-4.112c3.164-2.53,2.531-4.744,9.173-3.479
		c6.643,1.271,8.225,5.378,12.021,6.96c3.796,1.581,16.449,5.063,31.949,7.274c15.5,2.215,13.603,5.062,28.47,5.694
		c14.867,0.632,21.827,0.944,25.623,1.582c3.797,0.632,11.068,1.265,16.447-0.949c5.38-2.214,8.541-5.063,8.541-5.063l1.896-5.063
		c0,0,17.716-2.53,26.571-5.377c8.854-2.853,13.286-4.112,16.449-3.164c3.162,0.949,16.133,3.479,22.144,3.164
		c6.01-0.317,9.173-1.271,9.173-1.271s3.479-10.438,2.218-13.602c-1.269-3.163-4.744-3.163-4.744-3.163s-6.015-3.797-18.351-7.909
		c-12.338-4.11-17.715-4.11-21.512-3.479c-3.795,0.637-17.714,1.582-17.714,1.582L332.773,278.76z"/>
</g>
<path fill="#E8B294" d="M378.325,293.134c0,0,4.43-3.163,14.868-1.265c10.438,1.896,12.021,5.693,12.021,5.693l-23.092,1.58
	L378.325,293.134z"/>
<path fill="#B5D1E2" d="M429.255,305.787c0,0,3.479-6.012,9.49-8.857c6.01-2.847,9.173,0,9.489,3.479
	c0.313,3.479,0.313,3.479,0.313,3.479s-5.377,3.791-9.806,3.791S429.255,305.787,429.255,305.787z"/>
<path fill="#D9E8F0" d="M436.53,308.317c0,0,8.854-2.219,17.715-5.693c8.854-3.479,13.603-5.378,16.449-1.897
	c2.846,3.479,2.525,18.662-9.49,23.729c-12.021,5.062-17.715,8.225-23.409,6.96c-5.693-1.271-8.854-4.113-8.854-4.113
	s0.944-0.948,5.689-1.265c4.745-0.317,6.959-5.378,6.326-9.49C440.327,312.431,436.53,308.317,436.53,308.317z"/>
<g id="HeadCap">
	<path fill="#F3BF98" d="M205.923,269.423c-5.987,1.263-8.575,1.604-12.4,3.961c-1.26,1.896-12.031,7.814-13.921,19.154
		c-1.89,11.342-4.726,29.61,13.231,37.49c17.957,7.875,29.929,4.096,31.187,3.465c1.262-0.631,2.594-1.459,2.908-5.238
		c0.316-3.781,1.189-13.664-4.797-26.896c-5.986-13.229-12.287-22.055-13.861-26.463
		C206.696,270.484,205.923,269.423,205.923,269.423z"/>
	<g>
		<g>
			<g>
				<path fill="#020202" d="M175.954,305.264c0.208,10.07,5.875,19.187,14.268,24.803c9.239,6.188,19.845,7.238,30.28,4.035
					c6.313-2.188,7.279-3.646,10.688-6.812c4.375-4.063,9.932-3.915,9.932-3.915l-0.117-1.768c-4.83,0.061-9.711,2.767-12.752,5.808
					s-6.23,4.26-9.467,5.278c-2.729,0.75-4.654,0.816-7.479,0.988c-5.264,0.328-10.361-0.636-15.222-2.717
					c-8.771-3.759-15.492-11.115-17.34-20.484c-1.707-8.652,0.22-18.812,4.676-26.44c1.491-2.552,2.952-4.884,5.185-6.83
					c0.909-0.793,2.18-1.938,3.223-2.548c1.11-0.645,0.171-0.727-0.374-1.816c-11.354,5.678-15.345,20.75-15.106,32.416"/>
			</g>
		</g>
		<path fill="#020202" d="M214.37,308.605c-2.334,0-6.178-1.441-6.555-5.066c-0.203-1.941,0.188-5.75,3.029-6.462
			c1.971,0.774-4.439,5.825,0.123,8.805c1.541,1.005,3.303,1.208,5.004,0.998c1.424-0.177,5.51-2.688,5.703-0.493
			c-2.197,1.021-4.824,2.166-7.182,2.166"/>
		<path fill="#020202" d="M215.077,305.129c-2.15-0.084-4.543-2.393-3.35-4.611c1.496-2.779,5.549-2.084,7.75-0.668
			c-0.777,1.211-0.844,0.537-2.018,0.172c-1.223-0.379-2.654-0.594-3.82,0.062c-0.975,0.543-1.471,1.71-0.855,2.729
			c0.865,1.434,2.246,0.477,2.18,2.178"/>
		<path fill="#020202" d="M219.959,303.744c-1.709,0.13-4.924-0.957-3.152-3.122c1.186,0.972,0.281,2.228,2.574,2.235
			c1.99,0.01,3.031-1.506,2.992-3.385c-0.027-1.271-0.088-1.019,0.955-1.125c0.088,0.869-0.096,1.822-0.318,2.676
			c-0.404,1.541-1.434,2.686-3.043,2.809"/>
	</g>
	<g>
		<g>
			<path fill="#020202" d="M225.143,297.678c1.934,1.981,1.297,4.338-0.762,5.883c-0.947,0.711-5.34,2.219-5.34,2.219
				s0.244,0.17,0.414,0.756c4.764-0.01,11.195-5.156,6.662-9.813c-0.281,0.272-0.787,0.623-0.984,0.961"/>
		</g>
	</g>
</g>
<path fill="#FFFFFF" d="M327.08,275.42c1.088,6.782,5.947,21.697,0.943,27.766c2.551,0.604,5.26,0.936,7.865,1.068
	c0.34,6.434-0.973,16.591-3.4,22.428c5.972,2.115,10.227,2.22,16.408,2.815c4.229,0.409,7.881-0.885,6.006,5.29
	c2.636-2.146,7.086-2.553,10.476-2.232c-1.919-8.102-10.144-24.861-7.136-28.271c7.044-7.979,16.113-4.688,23.816-5.896
	c4.668-14.287-46.279-23.281-55.308-23.281"/>
<path fill="#B5D1E2" d="M454.033,326.771c-7.893,1.191-17.676-2.645-23.685,2.116c2.161,0.627,4.646,2.333,7.441,2.521
	c4.034,0.263,8.489-1.249,11.6-2.108"/>
<path fill="#D7DADE" d="M334.25,321.71c7.006,2.231,28.26,2.53,28.26,2.53s2.031,4.682,2.805,7.523
	c-3.64-0.115-7.301,0.257-10.754,0.848c-0.619-5.041-17.024-5.063-22.354-5.905c0.011-0.071-0.104-1.224-0.104-1.226
	c1.037-0.803,0.688-1.403,1.307-2.511"/>
<path fill="#976F51" d="M243.252,225.123c0,0-2.531-1.898-7.276,0.633c-4.745,2.53-6.01,4.112-6.01,4.112s5.694-1.582,7.908-2.847
	C240.088,225.756,243.252,225.123,243.252,225.123z"/>
<path fill="#E0A685" d="M268.242,282.695c0,0-6.01-2.531-8.541-3.164c-2.531-0.633-5.062-2.215-5.062-2.215
	s-2.847-4.111-4.745-4.744c-1.897-0.633-11.387-5.063-11.387-5.063s-1.582-0.315-1.898,0.949s-0.316,1.267-0.316,1.267
	s4.429,1.896,5.062,3.797c0.632,1.896,1.898,6.326,3.163,10.438c1.265,4.108,4.112,7.272,5.377,7.593
	c1.266,0.315,3.796-1.584,7.909-3.479C261.915,286.175,268.242,282.695,268.242,282.695z"/>
<g>
	<g>
		<path fill="#010101" d="M105.661,310.478c-0.756,2.162,3.453,1.46,4.657,1.46c4.29,0,8.583-0.423,12.873-0.423
			c11.279,0,22.556-0.164,33.834-0.164c4.024,0,8.048,0.516,12.074,0.516c0.938,0,1.879-0.159,2.818-0.159
			c0.808,0,0.545-1.354,0.386-1.354c-7.002,0-14.006,0.329-21.01,0.329c-15.106,0-30.213,0.393-45.32,0.393"/>
	</g>
</g>
<g>
	<g>
		<path fill="#010101" d="M475.747,310.618c-0.76,2.163,3.053,1.681,4.256,1.681c4.29,0,8.582-0.788,12.874-0.788
			c11.275,0,22.553,0.158,33.832,0.158c4.023,0,8.049,0.51,12.071,0.51c0.938,0,1.882-0.247,2.815-0.247
			c0.811,0,0.547-1.006,0.392-1.006c-7.005,0-14.01,0.164-21.002,0.164c-15.106,0-30.22-0.51-45.324-0.51"/>
	</g>
</g>
<g>
	<g>
		<path fill="#010101" d="M96.06,334.281c-7.381,9.771-14.316,19.808-20.68,30.286c1.558,1.636,2.006-1.816,2.743-2.975
			c1.698-2.661,3.642-5.168,5.446-7.761c3.633-5.224,7.35-10.387,11.178-15.465c7.39-9.813,15.266-19.396,21.846-29.774
			c-1.529-1.67-2.741,1.479-3.497,2.617c-1.752,2.647-3.942,4.989-5.785,7.575c-3.709,5.197-7.015,10.691-10.863,15.786"/>
	</g>
</g>
<g>
	<g>
		<path fill="#010101" d="M531.427,308.463c6.581,10.382,14.185,20.069,21.569,29.879c3.555,4.717,6.744,9.697,10.139,14.531
			c1.819,2.59,3.448,5.29,5.166,7.956c0.8,1.229,3.159,5.151,4.8,3.449c-6.14-10.105-13.875-19.278-21.001-28.701
			c-3.836-5.079-7.35-10.389-11.063-15.562c-1.854-2.584-4.128-4.869-5.896-7.52c-0.826-1.216-1.963-5.818-3.563-4.077"/>
	</g>
</g>
<g>
	<g>
		<g>
			<path fill="#010101" d="M205.525,268.032c-0.239,0.579-0.499,1.177-0.741,1.764c4.97,2.05,12.978,0.157,15.484-4.938
				c-0.35-0.164-1.476-1-1.837-0.93c-0.694,1.405-1.935,2.385-3.305,3.09c-2.807,1.446-6.612,2.25-9.61,1.018"/>
		</g>
	</g>
	<g>
		<g>
			<path fill="#010101" d="M219.12,264.221c2.331,1.178,4.82,6.92,7.687,2.104c-0.354-0.21-0.619-0.435-0.973-0.646
				c-1.055-0.625-0.717,0.598-1.871,0.514c-1.431-0.088-2.525-2.949-3.978-3.672c-0.282,0.564-0.609,1.104-0.89,1.668"/>
		</g>
	</g>
	<g>
		<g>
			<path fill="#010101" d="M226.071,267.115c1.045,1.256,2.236,2.277,3.282,3.533c2.459-4.188,3.495,2.314,4.942,1.312
				c5.505-3.834,7.37,4.413,8.01,7.801c1.51,8,4.361,14.595,13.785,14.044c-0.123-2.141,0.042-1.18-2.165-1.33
				c-2.146-0.146-4.187-1.18-5.75-2.703c-2.991-2.91-3.628-7.521-4.379-11.4c-1.034-5.326-3.001-10.354-9.399-8.646
				c-0.949-0.968-1.05-2.141-2.115-2.514c-0.952-0.088-2.007,0.053-2.805,0.563c-0.582-0.688-1.157-1.387-1.738-2.082
				c-0.486,0.404-1.036,0.787-1.521,1.191"/>
		</g>
	</g>
	<g>
		<g>
			<path fill="#010101" d="M213.074,270.676c0.144,1.458-0.737,5.395,1.446,4.879c0.061-1.67-0.047-3.336-0.215-5.003
				c-0.393,0.05-0.84-0.017-1.205,0.124"/>
		</g>
	</g>
	<g>
		<g>
			<path fill="#010101" d="M240.108,321.455c0.032,0.574-0.029,1.07,0.003,1.636c0.013,0.234,3.285,0.37,3.811,0.461
				c1.518,0.271,3.092,0.729,4.291,1.734c0.318-0.047,1.058-1.248,1.284-1.521c-2.509-2.104-6.244-2.517-9.42-2.35"/>
		</g>
	</g>
	<g>
		<g>
			<path fill="#010101" d="M254.371,330.926c10.064,3.271,20.66,5.075,31.223,5.77c0.093-1.426,0.613-1.221-0.997-1.345
				c-2.353-0.183-4.708-0.486-7.047-0.813c-5.328-0.743-10.488-2.408-15.696-3.748c-4.546-1.175-9.417-1.625-12.226-5.75
				c-1.169-1.707-2.219-3.709-2.483-5.779c-0.28-2.151,0.268-2.18-1.864-2.3c-0.314,5.621,3.473,12.424,9.006,14.217"/>
		</g>
	</g>
	<g>
		<g>
			<path fill="#010101" d="M260,306.604c-0.561,2.104,1.115,1.604,2.649,1.697c2.967,0.186,5.951,0.677,8.82,1.448
				c5.358,1.44,10.318,4.067,15.375,6.323c5.997,2.688,12.497,7.021,19.118,7.259c0.591-1.784-0.341-1.361-1.676-1.67
				c-2.65-0.605-5.113-1.774-7.524-2.99c-2.162-1.089-4.316-2.256-6.529-3.245c-9.546-4.271-19.495-8.707-30.184-8.592"/>
		</g>
	</g>
	<g>
		<g>
			<path fill="#010101" d="M300.284,322.41c-0.247,1.508,0.201,1.353,1.516,1.248c2.679-0.225,5.413-0.315,8.097-0.17
				c5.357,0.297,10.546,1.959,15.773,3.124c5.854,1.3,11.736,2.438,17.553,3.896c1.178-2.229-1.547-1.975-3.173-2.382
				c-2.856-0.716-5.653-1.673-8.515-2.38c-10.176-2.521-20.693-4.229-31.216-3.082"/>
		</g>
	</g>
	<g>
		<g>
			<path fill="#010101" d="M352.243,328.645c-4.582,0.188-9.528,0.188-13.8,2.064c0.338,2.561,4.563,0.193,6.431-0.04
				c2.778-0.354,5.569-0.51,8.362-0.626c0.205-0.925,0.123-1.743-0.986-1.39"/>
		</g>
	</g>
	<g>
		<g>
			<path fill="#010101" d="M353.35,330.141c3.424,1.359-3.701,3.146-4.396,3.436c-1.789,0.729-3.497,1.673-5.376,2.178
				c-1.209,0.334-1.635,0.403-0.962,1.739c3.579-0.708,6.679-2.711,10.196-3.58c2.521-0.623,4.677-3.891,1.158-5.3
				c-0.183,0.44-0.453,0.896-0.514,1.375"/>
		</g>
	</g>
	<g>
		<g>
			<path fill="#010101" d="M358.848,335.815c-1.488,0.813-3.035,1.674-4.791,1.555c-1.104-0.074-1.599,0.053-1.599,1.459
				c3.075,0.895,5.631-0.804,8.265-2.117c1.088-0.545,2.342-1.128,3.536-0.612c0.938,0.408,1.349,0.566,1.837-0.678
				c-2.361-1.832-4.938-0.938-7.279,0.335"/>
		</g>
	</g>
	<g>
		<g>
			<path fill="#010101" d="M361.048,337.935c-4.366,3.309-8.276,4.063-13.539,4.717c-2.513,0.313-5.085,1.3-7.63,0.854
				c-1.584-0.292-2.984-1.284-3.971-2.579c-0.334-0.015-0.949,0.74-1.24,0.968c4.121,5.396,13.402,3.037,19.212,2.021
				c3.601-0.63,6.16-2.864,9.052-4.917c0.943-0.666,2.043-1.108,2.984-1.775c0.65-0.457-0.369-1.396-0.721-1.973
				c-1.348,0.947-2.618,2.01-3.954,2.956"/>
		</g>
	</g>
	<g>
		<g>
			<path fill="#010101" d="M284.882,336.648c4.121,0.027,7.922,1.901,11.758,3.181c4.5,1.503,9.186,2.028,13.881,2.518
				c8.344,0.867,16.758,1.401,25.15,1.416c0.004-1.38,0.474-1.523-1.094-1.525c-2.231-0.021-4.457-0.688-6.697-0.774
				c-4.866-0.197-9.767-0.099-14.62-0.563c-4.989-0.479-10.09-1.334-14.899-2.828c-4.41-1.369-8.813-3.42-13.52-3.458
				c-0.003,0.633,0.003,1.811-0.001,2.438"/>
		</g>
	</g>
	<g>
		<g>
			<path fill="#010101" d="M353.336,334.787c1.566,0.509,1.109,2.662,2.857,2.045c-0.07-1.537-1.002-2.789-2.463-3.27
				c-0.121,0.368-0.398,0.865-0.416,1.258"/>
		</g>
	</g>
	<g>
		<g>
			<path fill="#010101" d="M358.186,332.887c-1.492,0.438-2.275,0.229-1.646,2.019c1.834-0.522,3.644-1.129,5.524-1.439
				c2.201-0.366,2.057,1.646,3.953,1.021c-0.139-4.209-5.47-2.378-7.824-1.604"/>
		</g>
	</g>
	<g id="ChestOutlines">
		<path id="ChestOutline" fill="#010101" d="M280.176,277.501c-7.489,1.069-14.078,5.171-20.471,9.06
			c-1.91,1.162-4.456,1.279-6.367,2.44c-1.887,1.147-1.861,0.71-0.845,2.67c4.468-2.709,9.085-4.642,13.729-7.043
			c4.74-2.454,9.475-4.104,14.41-5.229c3.019-0.688,6.113-1.178,9.328-1.527c12.408-1.354,24.698,1.771,37.097,0.938
			c-0.158-2.396-0.385-2.646-2.695-2.607c-4.71,0.074-9.42,0.511-14.107,0.084C299.976,275.334,290.369,276.044,280.176,277.501"/>
		<path id="ChestOutlineExpanded" fill="#010101" d="M276.887,273.254c-6.889,2.777-3.304,0.95-10.123,5.334
			c-1.911,1.161-11.514,9.255-13.425,10.417c-1.887,1.146-1.861,0.709-0.845,2.67c4.468-2.709,9.551-8.194,14.411-11.536
			c4.077-2.674,4.411-3.971,11.276-5.935c5.366-1.2,10.796-1.517,14.381-0.95c3.374,0.283,22.425,4.305,34.495,5.553
			c-0.156-2.396-0.385-2.646-2.695-2.605c-4.708,0.072-23.868-4.053-30.316-4.247C288.661,272.161,280.436,271.633,276.887,273.254"
			/>
	</g>
	<g>
		<g>
			<path fill="#010101" d="M327.18,275.457c0.449,3.807,1.059,7.596,1.34,11.419c0.246,3.373,0.461,6.767-0.045,10.12
				c-0.246,1.634-2.714,6.259-0.554,6.513c2.496-6.227,2.327-12.94,1.655-19.502c-0.223-2.172-0.104-4.384-0.36-6.553
				c-0.138-1.181-0.073-2.731-1.765-2.002"/>
		</g>
	</g>
	<g>
		<g>
			<path fill="#010101" d="M326.857,304.079c1.717,0.168,3.438,0.243,5.164,0.382c1.803,0.146,3.59,0.421,5.36,0.768
				c1.222,0.238,2.604,1.317,2.896-0.479c-2.856-1.377-6.317-1.43-9.403-1.729c-1.304-0.125-4.286-1.193-3.944,0.946"/>
		</g>
	</g>
	<g>
		<g>
			<path fill="#010101" d="M336.575,300.291c-0.558,3.993-1.313,7.961-1.868,11.949c-0.201,1.438-0.755,2.84-0.926,4.287
				c-0.195,1.578,0.023,3.257-0.6,4.736c-0.502,1.188-2.086,1.646-0.861,2.87c3.097-1.657,2.916-6.188,3.336-9.193
				c0.455-3.271,0.955-6.529,1.41-9.796c0.267-1.914,0.305-3.854,0.559-5.775c0.193-1.477,2.41-7.559,0-7.141
				c-0.361,2.736-1.1,5.267-1.458,8.008"/>
		</g>
	</g>
	<g>
		<g>
			<path fill="#010101" d="M339.502,277.616c0.415,4.993,1.541,10.176-0.013,15.046c4.401,0.37,8.866,1.143,13.253,0.337
				c1.707-0.312-0.403-12.319-0.858-13.951c-2.075-0.009-0.721,2.195-0.516,3.502c0.37,2.341,0.44,4.728,0.378,7.104
				c-0.036,1.494,0.542,2.142-1.188,2.301c-1.261,0.119-2.535,0.076-3.795,0.043c-1.924-0.046-3.824-0.287-5.738-0.438
				c0.854-3.563,0.27-7.152-0.029-10.742c-0.105-1.264,0.604-3.864-1.355-3.137"/>
		</g>
	</g>
	<g>
		<g>
			<path fill="#010101" d="M353.506,291.839c2.955,6.911,3.461,14.372,4.457,21.738c0.368,2.796,1.001,5.378,2.08,8.029
				c0.887,2.191,2.3,4.184,3.173,6.382c0.511,1.276,0.511,4.259,2.374,3.31c-0.838-4.188-3.965-7.751-5.273-11.77
				c-0.721-2.172-0.584-4.58-0.881-6.834c-0.979-7.261-1.979-14.46-4.889-21.28c-0.371,0.154-0.658,0.138-0.967,0.38"/>
		</g>
	</g>
	<g>
		<g>
			<path fill="#010101" d="M326.77,274.003c0.004,0.574-0.299,1.705-0.297,2.269c0.002,0.332,3.813,0.776,4.336,0.805
				c3.519,0.152,6.965,0.475,10.438,1.033c6.565,1.059,13.202,1.976,19.508,4.074c5.304,1.775,9.103,5.068,13.992,7.498
				c2.267,1.119,4.42,2.446,5.687,4.795c0.568,1.063,1.229,2.152,1.383,3.34c0.267,0.184,1.25-0.09,1.582-0.129
				c-0.678-5.063-4.068-6.902-8.313-9.064c-4.561-2.313-7.747-6.253-12.686-7.946c-11.373-3.892-23.529-6.62-35.596-6.53"/>
		</g>
	</g>
	<g>
		<g>
			<path fill="#010101" d="M356.105,303.109c0.811,2.056,3.023-0.65,4.229-1.385c1.973-1.19,4.061-2.187,6.316-2.654
				c1.979-0.414,4.018-0.592,6.035-0.488c1.492,0.078,5.815,1.445,5.522-0.813c-8.479-1.183-15.313-0.076-22.247,5.178"/>
		</g>
	</g>
	<g>
		<g>
			<path fill="#010101" d="M381.404,298.657c-3.075,0.475-6.137,1.044-9.225,1.419c-0.516,0.063-3.66,0.104-3.636,0.451
				c0.047,0.563-0.104,1.601-0.063,2.162c8.809-0.75,17.459-2.98,26.261-3.777c4.285-0.387,8.595-0.6,12.868-0.107
				c2.104,0.24,4.253,0.396,6.296,0.969c1.705,0.479,1.353,0.068,1.815-1.424c-11.122-3.548-23.072-1.527-34.332,0.229"/>
		</g>
	</g>
	<g>
		<g>
			<path fill="#010101" d="M412.837,299.84c5.063,0.77,9.624,3.989,14.015,6.479c2.325,1.313,4.904,1.896,7.488,2.553
				c2.123,0.563,1.968,1.143,2.564-0.967c-3.69-0.98-7.091-2.093-10.434-3.99c-4.214-2.39-8.444-5.185-13.337-5.922
				c-0.094,0.625-0.232,1.247-0.335,1.873"/>
		</g>
	</g>
	<g>
		<g>
			<path fill="#010101" d="M406.278,322.784c4.974,3.821,11.352,4.454,17.421,4.411c3.223-0.022,6.455-0.619,9.678-0.517
				c0.511,0.021,3.893,0.688,3.931,0.374c0.073-0.563-0.123-0.857-0.052-1.424c-6.103-0.765-12.201-0.018-18.313-0.478
				c-2.928-0.229-5.753-1.104-8.398-2.408c-2.303-1.137-2.408-2.325-4.027-0.207"/>
		</g>
	</g>
	<g>
		<g>
			<path fill="#010101" d="M407.739,321.427c-6.636,2.688-13.701,3.729-20.646,5.36c-2.831,0.667-5.548,1.811-8.329,2.623
				c-2.757,0.806-5.478,1.771-8.332,2.05c-0.521,0.054-3.418-0.018-3.428,0.261c-0.018,0.565-0.563,1.487-0.58,2.058
				c8.705,0.336,16.973-4.032,25.334-6.01c4.624-1.087,9.502-1.599,13.906-3.383c1.715-0.689,3.303-1.698,5.021-2.387
				c1.452-0.585,3.044-0.878,4.617-1.007c0.195-0.291-0.134-1.67-0.162-2.051c-2.612,0.212-5.205,1.059-7.568,2.104"/>
		</g>
	</g>
	<g>
		<g>
			<path fill="#010101" d="M385.195,290.338c-1.154,0.005-2.303,0.256-3.463,0.266c-0.904,0.004-0.498,0.756-0.521,1.527
				c3.273-0.015,6.58-0.229,9.838,0.055c2.838,0.244,5.57,1.156,8.104,2.457c0.479,0.25,3.216,2.06,3.381,1.844
				c0.33-0.463,0.706-0.854,1.037-1.313c-5.626-4.029-11.642-5.109-18.384-4.955"/>
		</g>
	</g>
	<g>
		<g>
			<path fill="#010101" d="M437.733,309.819c2.063,3.956,3.098,7.33,1.423,11.618c-0.656,1.675-1.394,4.003-2.988,5.029
				c-1.389,0.897-3.281-0.813-3.653,1.146c4.559,2.345,7.027-3.251,8.173-6.662c1.438-4.271,0.242-7.907-1.765-11.75
				c-0.351,0.183-0.919,0.368-1.207,0.633"/>
		</g>
	</g>
	<g>
		<g>
			<path fill="#010101" d="M428.168,328.351c5.293,3.279,8.496,4.563,14.569,2.261c-0.138-0.352-0.354-1.56-0.654-1.729
				c-1.653,0.628-3.427,1.423-5.225,1.451c-2.829,0.042-5.378-2.271-7.668-3.688c-0.331,0.538-0.811,1.107-1.143,1.646"/>
		</g>
	</g>
	<g>
		<g>
			<path fill="#010101" d="M466.522,297.818c7.816,5.979,5.046,21.008-3.356,25.013c-3.331,1.587-7.063,2.724-10.599,3.796
				c-2.794,0.851-5.589,1.705-8.445,2.36c-1.667,0.378-3.406,0.425-5.115,0.507c-0.199,0.288,0.123,2.113,0.135,2.491
				c5.479-0.27,10.638-2.783,15.833-4.362c3.889-1.184,8.247-1.771,11.581-4.229c7.709-5.692,9.302-21.122,1.273-27.263
				c-0.383,0.502-0.814,1.042-1.194,1.546"/>
		</g>
	</g>
	<g>
		<g>
			<path fill="#010101" d="M468.036,297.881c-6.192,0.648-11.527,2.814-17.236,5.139c-5.146,2.092-11.386,1.752-16.056,4.888
				c0.228,0.325,0.613,1.229,0.952,1.354c1.982-1.332,4.452-1.751,6.771-2.174c3.259-0.596,6.396-0.953,9.451-2.196
				c2.734-1.104,5.308-2.66,8.102-3.615c4.521-1.541,9.179-1.455,13.764-2.604c-0.089-0.351-0.113-1.472-0.377-1.657
				c-1.75,0.438-3.595,0.479-5.378,0.666"/>
		</g>
	</g>
	<g>
		<g>
			<path fill="#010101" d="M429.082,303.791c1.554,1.432,1.107,1.257,2.695-0.335c2.082-2.09,4.397-3.978,6.89-5.571
				c1.585-1.017,3.483-2.205,5.438-2.131c0.51,0.02,2.376,0.971,2.396,0.958c0.446-0.344,0.938-0.569,1.382-0.921
				c-5.145-6.52-15.514,4.208-18.978,7.97"/>
		</g>
	</g>
	<g>
		<g>
			<path fill="#010101" d="M444.073,295.152c1.523,1.768,2.962,3.933,3.267,6.293c0.3,2.396-0.903,2.515,1.424,3.578
				c1.743-3.812-0.707-8.324-3.188-11.184c-0.479,0.414-0.865,0.787-1.354,1.201"/>
		</g>
	</g>
	<g>
		<g>
			<path fill="#010101" d="M181.528,293.161c-0.047,0.476-0.226,1.05-0.146,1.514"/>
			<path fill="#010101" d="M187.431,301.299"/>
			<path fill="#010101" d="M181.371,294.718"/>
		</g>
	</g>
</g>
<g>
	<g>
		<path fill="#010101" d="M188.017,190.413c-4.766,3.504-9.283,7.221-12.135,12.456c-4.968,9.122-5.777,19.842-5.444,29.979
			c0.313,9.543,2.236,18.659,1.499,28.248c-0.319,4.139-0.021,8.354-0.502,12.479c-0.278,2.392-1.802,2.599,0.686,2.95
			c0.95-6.334,0.989-12.773,1.421-19.162c0.604-8.911-0.724-17.576-0.869-26.465c-0.159-9.795,1.255-19.487,6.489-28.08
			c2.886-4.731,6.721-8.131,11.106-11.402c-0.608-0.793-1.406-2.359-2.323-1.137"/>
	</g>
</g>
<g>
	<path fill="#010101" d="M194.567,173.341"/>
</g>
<g>
	<g>
		<path fill="#010101" d="M258.631,225.432c-1.762,0.688-5.993,1.813-5.593,3.045c0,0,4.95-1.178,7.316-2.052
			c1.712-0.633,5.485-0.256,4.749-2.706c-2.286,0.039-4.402,0.807-6.507,1.621"/>
	</g>
</g>
<g>
	<g>
		<path fill="#010101" d="M277.987,174.94c9.665,4.065,19.527,7.927,28.622,13.199c5.713,3.313,10.334,7.58,14.657,12.538
			c1.346,1.542,1.729,4.353,3.859,3.064c-0.846-2.251-2.764-4.188-4.337-5.888c-4.799-5.224-9.604-9.643-15.878-12.979
			c-6.239-3.324-12.8-6.104-19.343-8.764c-1.799-0.745-6.791-3.881-7.337-0.955"/>
	</g>
</g>
<g>
	<g>
		<path fill="#010101" d="M316.468,193.15c7.818,11.771,13.069,24.408,17.429,37.847c3.42,10.545,5.789,21.401,8.436,32.167
			c0.811,3.294,1.939,6.504,2.678,9.813c0.383,1.725,0.447,2.797,2.5,2.063c-3.506-16.813-9.129-33.253-14.688-49.494
			c-2.771-8.065-4.924-16.474-9.004-23.979c-1.11-2.056-2.521-3.928-3.796-5.871c-0.974-1.488-1.562-4.041-3.367-2.313"/>
	</g>
</g>
<g>
	<g>
		<path fill="#010101" d="M304.444,261.768c-1.234,3.334-3.126,6.521-5.304,9.334c-0.994,1.281-2.291,1.938-0.475,3.104
			c5.112-5.108,7.396-12.453,9.782-19.079c2.827-7.854,5.825-15.807,8.079-23.85c-2.14-1.288-2.532,1.703-3.024,3.24
			c-0.982,3.069-1.888,6.168-2.944,9.215c-2.078,5.998-4.146,12.002-6.35,17.953"/>
	</g>
</g>
<g>
	<g>
		<path fill="#010101" d="M303.224,259.813c1.954,5.42,4.003,10.801,5.958,16.224c1.797-0.354,1.492-0.688,0.987-2.083
			c-0.752-2.09-1.601-4.139-2.355-6.225c-0.779-2.164-1.637-4.299-2.418-6.461c-0.553-1.533-0.24-2.347-2.037-1.41"/>
	</g>
</g>
<g>
	<g>
		<path fill="#010101" d="M184.025,225.102c3.052,6.605,5.683,13.51,9.395,19.781c3,5.071,7.261,9.238,11.346,13.443
			c2.071,2.132,3.984,4.41,5.956,6.635c1.034,1.168,1.94,3.225,3.36,1.346c-6.393-8.521-15.3-14.67-20.484-24.176
			c-3.116-5.712-5.079-12.061-7.81-17.965c-0.426,0.229-1.116,0.725-1.47,1.051"/>
	</g>
</g>
<g>
	<g>
		<path fill="#010101" d="M205.068,260.594c0,0.59-0.507,6.795,1.579,4.768c0.35-0.34,0.027-2.825,0.027-3.324
			c0-1.276,0.04-1.893-1.587-1.438"/>
	</g>
</g>
<g>
	<g>
		<path fill="#010101" d="M243.728,271.732c2.419,3.063,5.605,5.291,8.782,7.478c1.081,0.744,3.329,3.22,4.045,1.142
			c-1.751-1.205-3.461-2.426-5.215-3.629c-1.522-1.045-2.998-2.164-4.361-3.404c-0.986-0.896-2.089-3.225-3.297-1.562"/>
	</g>
</g>
<g>
	<g>
		<path fill="#010101" d="M240.684,272.303c-1.295,5.131,7.475,12.063,10.948,14.858c1.629-1.128-0.574-2.062-1.5-2.937
			c-1.814-1.703-3.445-3.602-5.012-5.535c-1.199-1.485-2.936-3.217-3.21-5.174c-0.29-2.063,2.77-1.646,1.818-3.5
			c-1.262,0.239-2.543,0.987-2.883,2.326"/>
	</g>
</g>
<g>
	<g>
		<path fill="#010101" d="M238.171,267.738c2.511,2.197,5.715,3.428,8.798,4.561c1.178,0.446,3.273,1.956,3.47-0.093
			c-1.647-0.633-3.363-1.265-5.009-1.901c-1.669-0.646-3.354-1.296-4.875-2.246c-1.017-0.637-1.712-1.801-2.445-0.229"/>
	</g>
</g>
<g>
	<g>
		<path fill="#010101" d="M235.768,269.412c1.556,0.607,0.997-0.616,1.895-1.299c0.922-0.703,2.122,0.066,1.754-1.625
			c-1.891-0.137-3.492,0.963-3.654,2.924"/>
	</g>
</g>
<g>
	<g>
		<path fill="#010101" d="M246.956,271.066c-0.387,1.916,2.583,1.158,3.85,2.373c1.18,1.141,2.022,2.688,2.929,4.041
			c1.228,1.848,2.993,2.849,4.661,4.252c1.367,1.146,1.238,4.023,2.877,3.887c0.892-4.361-4.583-6.162-6.594-9.184
			c-1.982-2.979-3.67-5.785-7.785-5.449"/>
	</g>
</g>
<g>
	<g>
		<path fill="#010101" d="M256.782,279.596c1.468,0.582,2.966,1.105,4.429,1.688c1.25,0.509,4.296,2.682,4.589,0.465
			c-1.448-0.581-2.921-1.183-4.37-1.758c-1.252-0.509-4.41-2.692-4.676-0.454"/>
	</g>
</g>
<g>
	<g>
		<path display="none" fill="#010101" d="M244.408,252.458c1.935,1.171-0.093,3.96,2.306,3.954c0.553-1.883,0.22-4.092-1.577-5.17
			c-0.229,0.381-0.655,0.857-0.772,1.273"/>
	</g>
	<g>
		<path fill="#F3BF99" d="M254.007,184.949c12.969,3.162,24.99,10.121,24.99,28.469s-7.275,29.419-16.133,31.316
			c-8.857,1.896-23.408,2.216-31-1.582C224.272,239.357,254.007,184.949,254.007,184.949z"/>
	</g>
</g>
<g>
	<g>
		<path fill="#010101" d="M262.996,188.525c15.952,5.162,17.435,25.084,13.424,38.66c-1.632,5.521-4.141,11.287-8.795,14.941
			c-2.97,2.338-6.944,2.986-10.667,3.498c-2.449,0.335-4.918,0.725-7.377,0.514c-1.77-0.15-5.773-2.66-5.559,0.104
			c8.73,1.74,18.491,2.126,25.423-4.2c4.332-3.954,6.882-9.351,8.496-14.853c4.2-14.34,2.103-34.648-14.489-40.02
			c-0.146,0.449-0.364,0.646-0.378,1.118"/>
	</g>
</g>
<g id="Head">
	<path fill="#F3BF99" d="M254.323,204.563c0.949,4.433,0.633,22.146-7.592,33.215c-8.224,11.07-11.388,13.604-17.082,13.604
		s-9.806-6.646-13.286-8.854c-3.479-2.213-12.337-9.809-15.816-18.35c-3.479-8.537-5.377-17.396-4.745-21.191
		c0.632-3.795,16.132-11.389,33.847-9.487C247.364,195.389,254.323,204.563,254.323,204.563z"/>
	<g>
		<path fill="#010101" d="M262.07,180.097c0.061,0.629,0.127,1.375,0.189,2.006c7.651-0.735,13.156-6.083,13.333-13.938
			c-1.273-0.03-1.744-0.521-1.854,0.867c-0.154,1.95-0.693,3.862-1.717,5.539c-2.134,3.493-6.011,5.112-9.948,5.49"/>
	</g>
	<g>
		<g>
			<path fill="#010101" d="M254.629,211.758c-0.995,11.871-5.31,22.941-13.844,31.588c-3.244,3.286-6.729,7.75-11.645,7.506
				c-2.406-0.115-4.842-1.453-6.688-2.992c-1.128-0.938-2.127-1.881-3.116-2.963c-0.335,0.02-0.825,0.756-1.09,0.998
				c3.955,4.316,9.357,8.125,15.476,5.914c4.572-1.656,8.602-6.914,11.541-10.677c4.268-5.456,7.513-11.705,9.109-18.456
				c0.681-2.875,1.006-5.783,1.293-8.722c0.231-2.371,1.064-3.019-1.343-3.229c-0.021,0.256,0.352,0.78,0.33,1.036"/>
		</g>
	</g>
	<g>
		<g>
			<path fill="#010101" d="M228.916,238.855c2.14,1.389-3.77,6.396-5.306,6.521c-2.369,0.192-3.905-2.058-4.55-4.08
				c-0.487-1.526,0.18-3.573-2.069-3.271c-0.579,3.813,2.643,10.185,7.338,8.826c2.524-0.729,9.454-6.729,5.431-9.313
				c-0.258,0.396-0.736,0.883-0.88,1.335"/>
		</g>
	</g>
	<g>
		<g>
			<path fill="#010101" d="M239.677,228.49c-1.253,1.635-2.7,2.716-4.786,3.039c-1.672,0.262-3.718-0.815-5.271-0.371
				c0.02,2.479,5.335,1.693,6.825,1.253c1.563-0.462,6.344-3.606,4.903-5.521c-0.747,0.271-1.215,0.996-1.677,1.598"/>
		</g>
	</g>
	<g>
		<g>
			<path fill="#010101" d="M204.428,227.904c0.255,0.08,0.654,0.912,0.804,1.104c0.968,1.258,2.45,2.408,4,2.784
				c1.188,0.3,5.619,0.25,4.149-1.854c-1.464,0.555-2.972,0.992-4.497,0.334c-1.695-0.726-2.536-3.141-4.037-3.641
				c-0.125,0.374-0.392,0.826-0.417,1.219"/>
		</g>
	</g>
	<g>
		<g>
			<path fill="#010101" d="M201.161,223.861c5.338,1.727,9.965,5.31,15.628,6.133c0.858-1.949-4.152-2.482-5.651-3.107
				c-3.216-1.336-6.261-3.173-9.581-4.242c-0.12,0.373-0.38,0.813-0.396,1.199"/>
		</g>
	</g>
	<g>
		<g>
			<path fill="#010101" d="M203.199,225.958c2.874,2.95,8.14,3.778,12.057,3.78c0.458-1.572-0.608-0.906-1.739-0.999
				c-1.691-0.14-3.216-0.374-4.851-0.837c-1.569-0.441-3.528-1.512-4.688-2.705c-0.99-1.018-0.498-3.004-2.266-2.527
				c-0.031,1.271,0.491,2.497,1.371,3.398"/>
		</g>
	</g>
	<g>
		<g>
			<path fill="#010101" d="M217.005,229.408c-0.51,1.759,1.461,1.313,2.129,2.759c0.626,1.364-0.33,4.009,1.667,3.796
				c0.483-2.62-0.509-6.555-3.817-6.539"/>
		</g>
	</g>
	<g>
		<g>
			<path fill="#010101" d="M231.999,244.463c-1.705,0.628-3.422,0.979-5.208,1.361c-1.754,0.376-5.147-0.616-4.789,1.9
				c3.246,0.44,6.427-0.429,9.444-1.535c1.807-0.664,5.848-2.117,5.34-3.237C236.787,242.952,233.534,243.83,231.999,244.463"/>
		</g>
	</g>
	<g>
		<g>
			<path fill="#010101" d="M225.048,248.273c-0.275,0.3-0.194,1.094-0.559,1.037c5.062,0.826,9-1.723,10.558-4.166
				c-1.522-0.754-2.189,0.412-3.381,1.394c-2.269,1.866-4.684,2.008-6.635,1.743"/>
		</g>
	</g>
	<g>
		<g>
			<path fill="#010101" d="M232.417,228.824c-1.532,0.638-2.95,0.681-4.482,1.318c0.396,2.295,4.629-0.813,6.169-1.32
				c2.168-0.719,4.411-1.215,6.621-1.801c1.236-0.33,3.668-0.16,2.865-1.953C239.859,225.536,235.921,227.509,232.417,228.824"/>
		</g>
	</g>
	<g>
		<g>
			<path fill="#010101" d="M232.724,226.811c-1.278,0.604-4.962,1.037-3.796,2.85c3.079-0.936,5.832-2.729,8.86-3.803
				c1.364-0.48,2.839-0.822,4.301-0.721c1.178,0.088,2.083,0.963,2.426-0.688c-3.708-1.988-8.427,0.791-11.781,2.373"/>
		</g>
	</g>
	<g>
		<g>
			<path fill="#010101" d="M195.057,208.561c1.7,7.274,2.91,15.285,7.47,21.412c2.69,3.617,5.111,7.868,8.989,10.327
				c1.708,1.081,3.488,2.093,4.932,3.521c1.379,1.367,0.441,1.529,1.979,0.289c-2.513-3.09-5.405-4.094-8.224-6.801
				c-2.638-2.545-4.753-5.813-6.802-8.854c-4.038-5.286-4.544-14.182-6.022-20.52c-0.614,0.158-1.496,0.528-2.108,0.688"/>
		</g>
	</g>
	<g>
		<g>
			<path fill="#010101" d="M192.654,201.166c1.156,2.292,0.663,3.229,3.163,2.786c-0.471-2.668-2.565-4.837-3.041-7.513
				c-0.178-0.998-0.037-1.955,0.828-2.547c-0.035-0.438-0.792-1.229-1.046-1.604c-3.229,2.193-1.29,6.166,0.084,8.891"/>
		</g>
	</g>
	<path fill="#5D4631" d="M251.792,166.601c-7.86-6.652-27.204-17.082-40.49-9.806c-13.286,7.276-17.715,13.286-17.715,23.408
		s0,12.971,0.316,18.348c0.316,5.379,0.949,6.645,3.164,8.857c2.214,2.215,4.745,2.215,4.745,2.215l0.316,2.214l2.531-5.062
		c0,0,0.316,7.592,7.275,12.336c6.959,4.746,12.337,6.328,12.337,6.328s-2.847-2.215-2.847-6.016c0-3.795,0.949-1.576,7.908,0.637
		c6.959,2.215,6.959,2.215,6.959,2.215s-2.214-5.377-2.53-8.541c-0.316-3.164-0.316-3.164-0.316-3.164s5.062,2.531,6.959,1.582
		c1.898-0.948,1.265-2.846,1.265-2.846l8.225,1.264l1.898-1.58l3.164,0.316c0,0,0.632-3.164,1.898-4.746s4.745-5.377,4.112-16.771
		C260.333,176.407,255.905,170.08,251.792,166.601z"/>
	<path fill="#5D4631" d="M285.007,159.009c0,0-5.377,5.694-15.5,3.796s-13.919-6.327-20.878-8.541
		c-6.959-2.215-9.173-1.582-11.704-0.633c-2.531,0.949-6.959,5.377-6.959,5.377l27.204,23.094c0,0,7.592-0.313,11.072-2.532
		c3.479-2.214,5.377-7.275,5.377-7.275s4.745-3.48,12.02-2.531c7.276,0.949,11.705,6.959,11.705,6.959s0.316-4.112-0.949-6.01
		c-1.266-1.898-4.745-3.479-4.745-3.479s2.53-3.163,4.745-4.429c2.214-1.265,4.745-1.898,4.745-1.898s-1.898-4.745-7.908-3.164
		c-6.01,1.582-9.49,4.745-9.49,4.745L285.007,159.009z"/>
	<g>
		<g>
			<path fill="#010101" d="M258.328,193.203c-0.76,0.168-1.513,0.545-1.896,1.23c1.186,0.674,1.156,0.58,2.245,0.334
				c1.916-0.412,0.289,3.615,0.021,4.344c-0.863,2.348-2.173,4.602-3.718,6.568c-1.266,1.61-1.311,1.389,0.08,2.814
				c1.491-1.449,10.914-17.063,3.253-15.354"/>
		</g>
	</g>
	<g>
		<g>
			<path fill="#010101" d="M204.736,207.616c0.209,10.96,11.805,17.368,21.349,19.058c1.172-2.392-2.924-2.02-4.557-2.563
				c-3.121-1.041-6.195-2.565-8.792-4.604c-2.188-1.713-4.152-3.93-5.324-6.468c-0.801-1.734-0.275-6.188-2.694-5.438"/>
		</g>
	</g>
	<g>
		<g>
			<path fill="#010101" d="M222.847,217.809c4.63,2.582,9.309,4.346,14.676,3.951c-0.433-1.585-1.003-3.26-2.162-4.469
				c-1.746,0.909-0.563,1.7,0,3.025c-2.688-0.021-5.343-0.771-7.799-1.822c-1.534-0.659-4.125-3.229-4.739-0.635"/>
		</g>
	</g>
	<g>
		<g>
			<path fill="#010101" d="M240.394,208.672c0.999,2.713-0.822,3.084-3.091,2.616c-1.841-0.381-5.736-3.226-6.165-0.465
				c2.635,1.188,11.554,4.852,10.732-1.218c3.144,1.178,6.375,2.009,9.747,1.317c0.191-2.567-3.205-1.11-5.026-1.503
				c-2.384-0.507-4.644-1.604-6.919-2.46c0.199,0.543,0.377,1.224,0.577,1.765"/>
		</g>
	</g>
	<g>
		<g>
			<path fill="#010101" d="M254.848,203.654c-0.546,1.316-1.197,2.55-1.13,3.998c-2.102-0.439-3.974-1.291-5.822-2.362
				c-1.406-0.821-1.182-0.19-1.943,1.04c3.262,2.021,6.531,3.355,10.345,3.777c-0.809-2.043-0.679-3.743,0.166-5.771
				c-0.186-0.516-1.06-0.968-1.587-0.652"/>
		</g>
	</g>
	<g>
		<g>
			<path fill="#010101" d="M210.873,156.417c-11.746,4.421-20.533,17.005-18.31,29.804c0.691-0.119,1.752,0.079,1.64-0.716
				c-0.142-1.008,0.214-2.016,0.237-3.03c0.058-2.602,0.607-5.042,1.397-7.521c2.061-6.438,5.676-12.544,11.622-15.799
				c7.935-4.342,17.922-4.619,26.542-2.261c4.088,1.119,7.622,3.633,11.165,5.964c1.626,1.07,3.168,2.126,4.587,3.46
				c1.017,0.955,1.055,0.176,1.944-0.714c-10.392-10.395-27.281-14.974-41.054-9.789"/>
		</g>
	</g>
	<g>
		<g>
			<path fill="#010101" d="M201.44,211.516c0.354,0.875,0.728,1.635,1.084,2.514c0.2-1.243,0.26-2.502,0.602-3.725
				c0.435-1.57,2.405-2.854,0.319-3.803c-0.551,0.641-1.018,1.368-1.338,2.145c-0.654-2.045-0.971-4.266-0.484-6.396
				c0.305-1.338,1.038-2.235-0.835-2.653c-2.044,3.734-0.736,8.184,0.76,11.866"/>
		</g>
	</g>
	<g>
		<g>
			<path fill="#010101" d="M195.163,204.609c1.181,2.187,3.089,4.074,5.547,4.699c1.208-2.057-1.591-2.438-2.773-3.766
				c-1.813-2.035-2.666-4.768-3.07-7.4c-0.41-2.681-0.499-5.42-0.163-8.105c0.206-1.655,2.002-4.28-0.481-4.404
				c-1.967,5.764-2.082,13.623,0.846,19.027"/>
		</g>
	</g>
	<g>
		<g>
			<path fill="#010101" d="M233.197,153.937c1.422,2.046,1.611,1.19,3.884,0.462c2.779-0.889,5.972-0.724,8.735,0.018
				c4.898,1.318,9.136,4.24,13.652,6.445c8.103,3.956,20.946,5.775,26.938-2.754c-1.918-1.347-1.193-0.699-2.882,0.798
				c-1.628,1.444-3.576,2.438-5.684,2.912c-4.798,1.077-9.88-0.097-14.461-1.72c-8.928-3.166-19.977-12.148-29.563-5.503"/>
		</g>
	</g>
	<g>
		<g>
			<path fill="#010101" d="M287.001,159.772c0.151-0.391-1.111-0.792-1.479-0.926c-0.098-0.036-2.12,3.576-2.549,4.059
				c0.587,2.862,3.522-0.566,4.305-1.087c2.669-1.775,6.169-3.63,9.454-3.046c2.135,0.38,3.787,2.288,5.396,3.623
				c0.272-0.361,1.351-1.319,0.968-1.634c-0.952-0.793-2.035-1.451-3.026-2.196c-3.981-2.995-9.25-1.062-13.048,1.244"/>
		</g>
	</g>
	<g>
		<g>
			<path fill="#010101" d="M293.809,163.478c-1.299,1.179-2.654,2.292-4.227,3.098c-1.472,0.754-0.925,0.855-0.366,2.272
				c3.381-1.33,5.524-4.02,8.472-5.947c1.485-0.971,3.094-1.498,4.859-1.379c1.604,0.109,1.248-0.369,1.478-1.833
				c-4.166-0.657-7.224,1.08-10.215,3.791"/>
		</g>
	</g>
	<g>
		<g>
			<path fill="#010101" d="M280.771,164.37c0.014,0.568-0.018,1.262-0.005,1.829c0.009,0.301,3.501,0.109,4.078,0.151
				c2.536,0.188,5.072,0.916,7.277,2.248c1.919,1.161,3.398,2.808,4.277,4.854c0.518,1.207,0.817,2.501,1.082,3.786
				c0.305,0.158,1.526-0.321,1.886-0.395c-1.993-9.688-9.541-12.742-18.588-12.52"/>
		</g>
	</g>
	<g>
		<g>
			<path fill="#010101" d="M273.463,171.239c-0.87,0.562-1.534,1.437-2.408,1.999c-0.833,0.538-0.207,0.814,0.215,1.584
				c4.61-2.97,8.123-5.39,13.918-4.381c3.003,0.521,6.279,1.473,8.688,3.408c1.143,0.917,2.129,2.249,2.482,3.698
				c0.272,1.123,0.526,0.652,1.628,0.539c-0.498-4.837-5.161-7.676-9.329-8.9c-5.476-1.61-10.494-1.336-15.232,2.008"/>
		</g>
	</g>
	<g>
		<g>
			<path fill="#010101" d="M255.03,173.29c1.93,3.919,3.841,7.948,4.508,12.308c0.351,2.307,0.211,4.61-0.228,6.905
				c-0.327,1.72,0.24,1.353,1.757,1.724c1.945-7.771-0.776-14.955-4.176-21.857c-0.566,0.279-1.047,0.543-1.616,0.822"/>
		</g>
	</g>
</g>
<g id="HeadBlow" display="none">
	<path display="inline" fill="#F3BF99" d="M253.997,208.592c0.518,6.488,0,14.533-4.671,21.281
		c-4.672,6.748-6.487,4.932-9.343,8.822c-2.854,3.892-4.411,3.892-5.967,5.451c-1.557,1.555-2.336,3.106-2.336,3.106
		s-4.411,1.304-8.303,1.563c-3.893,0.26-7.266-2.594-7.266-2.594s-1.816-4.152-7.785-8.312c-5.967-4.147-10.898-9.341-12.974-21.282
		c-2.076-11.934-2.076-11.934-2.076-11.934s-4.151-4.934-4.151-7.524s2.595-5.188,5.45-5.188s64.095,1.56,64.095,1.56
		s3.113,0.521,0.518,6.229C256.591,205.479,253.997,208.592,253.997,208.592z"/>
	<path display="inline" fill="#5D4631" d="M228.825,157.99c4.931-4.411,8.823-7.525,16.089-5.189
		c7.266,2.335,18.684,9.86,25.689,9.86c7.007,0,15.051-4.671,15.051-4.671s0.519,1.037,0,2.336
		c-0.518,1.297-0.518,1.297-0.518,1.297s4.152-3.373,9.859-4.152c5.71-0.778,7.527,2.854,7.527,2.854s-4.153,0-6.487,2.854
		c-2.336,2.855-4.411,3.892-4.411,3.892s2.594-0.519,4.411,2.336c1.816,2.854,1.816,9.861,1.816,9.861s-2.076-8.044-11.678-9.342
		c-9.602-1.298-11.417,1.557-11.417,1.557s-1.298,4.152-4.932,6.747c-3.633,2.595-7.265,3.893-14.271,4.151
		C248.546,182.643,228.825,157.99,228.825,157.99z"/>
	<path display="inline" fill="#503C29" d="M250.622,165.256c-5.594-5.035-13.493-11.418-28.025-11.158
		c-14.531,0.259-28.286,9.082-30.362,19.202c-2.075,10.122-1.037,15.57-1.037,15.57s-0.259,8.563,1.037,12.976
		c1.298,4.41,6.229,7.525,6.229,7.525l1.297,2.594l2.855-5.449c0,0,0,8.305,7.785,14.532c7.785,6.229,13.494,6.745,13.494,6.745
		s-5.19-4.41-4.151-10.637c0,0,3.892,3.373,8.821,4.152c4.931,0.773,6.747,0.773,6.747,0.773l-4.151-11.158
		c0,0,4.67,2.336,6.746,2.336c2.076,0,4.153-1.559,3.635-2.596c-0.521-1.036-0.521-1.036-0.521-1.036s4.152,2.076,6.748,2.076
		c2.594,0,4.153-2.076,4.153-2.076l2.077,0.521c0,0,1.036-5.709,2.075-9.856c1.038-4.157,3.374-5.712,3.374-5.712
		S263.598,176.933,250.622,165.256z"/>
	<path display="inline" fill="#966F51" d="M243.097,227.016c0-1.037-1.298-2.595-7.525,0.262c-6.229,2.854-7.526,3.895-7.526,3.895
		s4.151-1.296,9.083-2.594C242.059,227.275,243.097,227.016,243.097,227.016z"/>
	<path display="inline" fill="#5D4631" d="M190.914,181.459c-0.353,6.114,2.848,12.738,7.573,16.555
		c0.477-1.457,0.413-3.209,0.372-4.896c4.49,7.2,8.913,14.394,16.774,18.26c-1.985-4.229-3.11-8.161-4.02-12.46
		c0.521,1.314,3.348,3.702,4.094,4.673c1.324-2.479,1.407-2.298,2.625-4.815c10.256,8.729,20.04-2.01,25.117-10.738
		c3.256,2.627,7.083,2.027,7.217,6.609c1.47-2.101,3.42-3.709,5.549-5.1c1.322,1.896,3.368,2.773,4.603,0.585
		c0.291,1.563-0.088,2.897-1.243,3.829c-0.021-3.041,0.882-5.878,0.712-8.813c-0.26-4.451-1.942-9.622-4.893-14.479
		c-5.598-9.219-18.425-15.13-28.586-17.123c-9.031-1.77-22.4,3.557-29.025,9.78c-4.47,4.2-5.539,11.771-6.553,17.584
		c-0.063,0.299-0.107,0.602-0.136,0.902"/>
	<g display="inline">
		<g>
			<path fill="#231F20" stroke="#231F20" stroke-miterlimit="10" d="M227.879,240.242c2.863,1.846-3.665,7.078-5.491,7.438
				c-2.066,0.403-3.885-1.084-4.825-2.756c-0.564-1-0.866-2.13-0.978-3.279c-0.068-0.687,0.296-1.887-0.72-1.756
				c-0.563,3.699,2.704,10.141,7.301,8.243c2.025-0.827,8.542-6.079,5.01-8.348c-0.105,0.157-0.183,0.216-0.241,0.403"/>
		</g>
	</g>
	<g display="inline">
		<g>
			<path fill="#010101" stroke="#231F20" stroke-miterlimit="10" d="M253.251,214.409c0,3.69-0.811,7.42-2.158,10.88
				c-1.307,3.355-3.641,5.505-6.269,7.896c-1.243,1.133-5.816,5.979-6.751,7.435c-0.95,1.478-2.252,2.442-3.748,3.305
				c-1.492,0.856-2.338,2.117-3.208,3.578c0.13,0.079,0.458,0.354,0.537,0.226c0.468-0.768,1.002-1.525,1.542-2.246
				c0.498-0.664,2.547-1.687,3.931-2.896c1.796-1.573,2.522-3.122,3.778-4.446c1.23-1.301,2.781-2.289,4.112-3.479
				c2.769-2.484,5.224-4.977,6.698-8.454c1.57-3.7,2.029-7.808,2.029-11.791C253.488,214.409,253.511,214.409,253.251,214.409"/>
		</g>
	</g>
	<g display="inline">
		<g>
			<path fill="#231F20" stroke="#231F20" stroke-miterlimit="10" d="M193.622,209.206c0.63,2.703,1.028,5.464,1.68,8.16
				c0.971,4.028,1.989,8.44,4.218,11.993c2.444,3.896,6.151,7.554,9.899,10.211c1.625,1.152,3.503,2.134,4.878,3.604
				c0.37,0.396,0.563,0.903,0.777,1.405c0.292,0.687,0.037,0.604,0.74,0.354c-1.153-3.229-4.063-4.73-6.615-6.689
				c-1.854-1.424-3.765-2.782-5.298-4.541c-1.455-1.669-3.068-3.41-4.144-5.359c-3.209-5.793-4.297-12.846-5.79-19.24
				c-0.252,0.065-0.234-0.058-0.486,0.013"/>
		</g>
	</g>
	<g display="inline">
		<g>
			<path fill="#231F20" stroke="#231F20" stroke-miterlimit="10" d="M215.732,245.967c0.569,0.953,1.099,1.854,2.075,2.454
				c1.781,1.099,4.068,0.993,6.042,0.81c2.184-0.205,4.368-0.463,6.513-0.924c0.579-0.123,1.148-0.291,1.73-0.412
				c0.618-0.129,0.414-0.313,0.303-0.914c-3.035,0.646-6.034,1.416-9.134,1.683c-1.623,0.131-3.59,0.146-5.061-0.729
				c-0.898-0.531-1.457-1.369-1.975-2.229c-0.22,0.135-0.406,0.084-0.627,0.221"/>
		</g>
	</g>
	<g display="inline">
		<g>
			<path fill="#231F20" stroke="#231F20" stroke-miterlimit="10" d="M238.904,230.105c-1.286,1.67-2.691,2.746-4.814,3.139
				c-0.963,0.176-1.925,0.293-2.896,0.173c-0.824-0.103-1.868-0.543-2.683-0.308c-0.012,0.783,1.942,0.861,2.623,0.945
				c1.535,0.188,3.171,0.012,4.625-0.522c1.237-0.455,2.325-1.265,3.164-2.269c0.379-0.451,0.708-0.941,1.097-1.391
				c0.345-0.396,0.972-0.646,0.542-1.225c-0.687,0.252-1.211,0.91-1.635,1.471"/>
		</g>
	</g>
	<g display="inline">
		<g>
			<path fill="#231F20" stroke="#231F20" stroke-miterlimit="10" d="M202.567,228.854c0.503,0.168,0.859,1.443,1.219,1.842
				c0.893,0.981,2.158,1.777,3.438,2.156c0.676,0.196,5.322,0.107,4.531-1.041c-1.552,0.535-3.083,1.07-4.71,0.465
				c-1.095-0.4-2.102-1.229-2.865-2.106c-0.449-0.519-0.798-1.479-1.476-1.705c-0.051,0.154-0.17,0.333-0.179,0.491"/>
		</g>
	</g>
	<g display="inline">
		<g>
			<path fill="#231F20" stroke="#231F20" stroke-miterlimit="10" d="M231.073,230.303c-1.576,0.592-3.023,0.805-4.523,1.578
				c0.152,0.977,2.167-0.229,2.679-0.439c1.858-0.756,3.701-1.524,5.622-2.109c1.746-0.527,3.485-1.104,5.251-1.563
				c0.595-0.154,3.066-0.164,2.7-0.988c-1.679,0.209-3.097,0.563-4.722,1.021C235.906,228.398,233.19,229.511,231.073,230.303"/>
		</g>
	</g>
	<g display="inline">
		<g>
			<path fill="#231F20" stroke="#231F20" stroke-miterlimit="10" d="M231.704,228.868c-0.876,0.466-1.705,1.013-2.601,1.438
				c-0.507,0.238-1.881,0.344-1.366,1.063c2.917-1.036,5.478-2.829,8.309-4.076c1.402-0.609,2.938-1.096,4.478-1.213
				c0.668-0.053,1.309,0.188,1.956,0.368c0.465,0.131,0.946,0.257,1.06-0.438c-3.773-1.795-8.576,1.158-11.817,2.891"/>
		</g>
	</g>
	<g display="inline">
		<g>
			<path fill="#231F20" stroke="#231F20" stroke-miterlimit="10" d="M199.157,224.823c5.471,1.769,10.216,5.258,16.02,6.1
				c0.217-0.498,0.023-0.335-0.438-0.416c-0.841-0.146-1.675-0.377-2.489-0.626c-1.523-0.468-2.918-1.271-4.371-1.919
				c-2.818-1.263-5.626-2.646-8.571-3.595c-0.049,0.152-0.195,0.396-0.201,0.556"/>
		</g>
	</g>
	<g display="inline">
		<g>
			<path fill="#231F20" stroke="#231F20" stroke-miterlimit="10" d="M201.278,227.212c2.888,2.966,8.34,3.671,12.271,3.677
				c0.247-0.853-1.72-0.759-2.321-0.813c-1.539-0.156-3.09-0.318-4.584-0.725c-1.484-0.397-3.038-0.922-4.281-1.849
				c-0.619-0.463-1.187-1.069-1.525-1.774c-0.277-0.568-0.032-1.949-0.843-1.735c-0.029,1.198,0.559,2.269,1.389,3.116"/>
		</g>
	</g>
	<g display="inline">
		<g>
			<path fill="#231F20" stroke="#231F20" stroke-miterlimit="10" d="M215.337,231.275c-0.217,0.77,0.652,0.502,1.155,0.729
				c0.736,0.333,1.171,1.063,1.465,1.793c0.317,0.791,0.446,1.643,0.438,2.485c-0.005,0.524-0.333,1.354,0.469,1.271
				c0.452-2.461-0.392-6.289-3.525-6.271"/>
		</g>
	</g>
	<g display="inline">
		<g>
			<path fill="#231F20" stroke="#231F20" stroke-miterlimit="10" d="M257.998,193.961c-0.622,0.141-1.247,0.669-1.561,1.225
				c0.83,0.469,0.509,0.084,1.295-0.35c0.776-0.427,1.798,0.119,1.997,1.01c0.265,1.188-0.5,2.918-0.921,4.051
				c-0.706,1.896-1.803,3.629-2.913,5.32c-0.557,0.85-0.941,1.848-1.625,2.596c-0.588,0.646-0.634,0.564-0.056,1.16
				c2.346-2.277,4.06-5.461,5.238-8.479c0.423-1.09,0.683-2.323,0.947-3.455c0.376-1.609-0.507-3.536-2.411-3.111"/>
		</g>
	</g>
	<g display="inline">
		<g>
			<path fill="#231F20" stroke="#231F20" stroke-miterlimit="10" d="M203.351,208.445c0.208,11.048,10.164,19.021,21.449,19.15
				c1.141,0.014-1.564-0.816-2.265-0.99c-1.449-0.362-2.827-0.992-4.218-1.533c-2.637-1.032-5.105-2.44-7.347-4.178
				c-2.115-1.639-3.901-3.629-5.173-5.992c-0.65-1.211-1.139-2.457-1.425-3.812c-0.134-0.626-0.363-1.229-0.41-1.868
				c-0.042-0.572-0.079-1.014-0.819-0.783"/>
		</g>
	</g>
	<g display="inline">
		<g>
			<path fill="#231F20" stroke="#231F20" stroke-miterlimit="10" d="M219.354,217.544c4.435,2.476,9.692,6.692,16.446,4.897
				c-1.365,0.367,1.236-0.789-2.835-5.991c-0.335-0.431-0.396,0.349-0.118,0.704c0.56,0.717,1.716,3.848,2.012,4.703
				c-2.687,0.1-5.195-0.459-7.697-1.418c-1.209-0.463-4.678-1.903-5.83-2.5c-0.606-0.313-1.76-1.438-2.02-0.354"/>
		</g>
	</g>
	<g display="inline">
		<g>
			<path fill="#231F20" stroke="#231F20" stroke-miterlimit="10" d="M239.957,209.357c0.334,0.899,0.65,2.566-0.333,3.271
				c-0.653,0.463-1.637,0.535-2.392,0.456c-1.344-0.141-2.593-0.835-3.86-1.285c-0.829-0.295-1.643-0.597-2.446-0.949
				c-0.507-0.221-1.335,0.086-0.811,0.44c4.525,3.076,12.43,5.114,10.574-1.394c3.397,1.283,6.771,2.56,10.441,1.813
				c0.08-1.118-1.547-0.5-2.271-0.475c-1.281,0.045-2.512-0.405-3.751-0.727c-1.897-0.479-3.731-1.179-5.558-1.867
				c0.081,0.221,0.125,0.563,0.207,0.791"/>
		</g>
	</g>
	<g display="inline">
		<g>
			<path fill="#231F20" stroke="#231F20" stroke-miterlimit="10" d="M254.748,204.545c-0.624,1.503-1.133,3.16-0.826,4.816
				c-1.745-0.271-3.452-0.92-5.043-1.68c-0.89-0.43-1.816-0.793-2.661-1.313c-0.618-0.374-0.44-0.254-0.772,0.278
				c2.985,1.851,6.031,3.271,9.542,3.678c-0.722-2.037-0.078-3.791,0.72-5.704c-0.238-0.104-0.527-0.146-0.768-0.242
				c-0.037,0.087-0.05,0.117-0.087,0.206"/>
		</g>
	</g>
	<g display="inline">
		<g>
			<path fill="#231F20" stroke="#231F20" stroke-miterlimit="10" d="M209.135,155.974c-11.845,4.458-21.224,17.555-18.978,30.471
				c0.279-0.049,1.715-0.149,1.662-0.473c-0.06-0.377-0.247-0.703-0.279-1.082c-0.084-0.951-0.455-1.873-0.415-2.826
				c0.095-2.229,0.514-4.424,1.12-6.567c1.491-5.291,4.728-9.758,8.918-13.341c11.573-9.896,28.366-9.668,41.025-2.479
				c1.679,0.955,3.729,2.566,5.248,3.761c0.722,0.569,1.346,0.803,2.018,1.429c0.721,0.668,0.683,1.307,1.376,0.613
				C240.28,154.93,223.114,150.712,209.135,155.974"/>
		</g>
	</g>
	<g display="inline">
		<g>
			<path fill="#231F20" stroke="#231F20" stroke-miterlimit="10" d="M199.961,212.213c0.146,0.359,0.173,0.756,0.319,1.115
				c0.146-0.919,0.285-1.829,0.58-2.717c0.23-0.691,0.512-1.381,0.902-2c0.306-0.488,0.689-0.844-0.03-1.174
				c-0.843,0.979-1.381,2.408-1.718,3.646c-0.735-1.956-1.377-4.104-1.377-6.212c0-0.934,0.186-1.88,0.473-2.766
				c0.205-0.631,1.096-1.312,0.12-1.532c-2.031,3.708-0.866,8.03,0.617,11.687"/>
		</g>
	</g>
	<g display="inline">
		<g>
			<path fill="#231F20" stroke="#231F20" stroke-miterlimit="10" d="M190.813,201.538c0.424,0.84,0.742,1.735,1.046,2.63
				c0.271,0.791,0.125,0.702,0.931,0.559c-0.433-2.438-2.059-4.479-2.787-6.834c-0.286-0.933-0.483-1.982-0.04-2.896
				c0.226-0.467,0.627-0.813,1.049-1.104c0.012-0.14-0.321-0.451-0.405-0.578c-3.018,2.063-1.165,5.77,0.097,8.271"/>
		</g>
	</g>
	<g display="inline">
		<g>
			<path fill="#231F20" stroke="#231F20" stroke-miterlimit="10" d="M232.921,154.187c0.132,0.192,0.012,0.235,0.145,0.425
				c0.061,0.088,1.323-0.728,1.53-0.827c1.192-0.571,2.453-1.339,3.767-1.463c2.819-0.264,5.663,0.95,8.331,1.826
				c4.825,1.583,8.831,4.063,13.442,6.092c7.979,3.511,21.125,5.456,26.904-2.767c-0.191-0.135-0.865-0.165-1.056-0.299
				c-0.099-0.071-0.939,0.292-1.081,0.448c-0.762,0.844-1.418,1.698-2.39,2.287c-1.996,1.208-4.246,1.497-6.553,1.754
				c-4.721,0.525-8.645,0.27-13.056-1.424c-4.418-1.697-9.457-4.169-13.875-5.901c-5.131-2.011-11.557-4.021-16.45-0.629"/>
		</g>
	</g>
	<g display="inline">
		<g>
			<path fill="#231F20" stroke="#231F20" stroke-miterlimit="10" d="M286.182,160.75c0.328-0.61,0.471-1.352,0.708-2
				c-0.219-0.081-0.334-0.189-0.551-0.269c-0.118-0.043-0.563,1.239-0.655,1.424c-0.533,1.071-1.417,1.907-2.07,2.889
				c0.611,0.533,0.497,0.516,1.08-0.078c0.829-0.842,1.887-1.446,2.877-2.087c2.015-1.304,4.285-2.307,6.655-2.752
				c2.145-0.403,4.218-0.103,5.979,1.261c1.036,0.8,2.194,1.423,3.199,2.26c0.155-0.202,0.599-0.499,0.368-0.692
				c-0.436-0.362-1.073-0.479-1.508-0.841c-1.164-0.966-2.143-2.12-3.615-2.599c-4.229-1.374-9.114,0.996-12.468,3.473"/>
		</g>
	</g>
	<g display="inline">
		<g>
			<path fill="#231F20" stroke="#231F20" stroke-miterlimit="10" d="M294.951,163.522c-1.084,0.983-2.326,1.774-3.57,2.553
				c-0.692,0.434-1.391,0.856-2.154,1.156c-0.041,0.143,0.258,0.657,0.316,0.805c3.19-1.256,5.337-3.74,8.012-5.729
				c1.117-0.831,2.27-1.643,3.65-1.876c0.83-0.141,1.705-0.168,2.543-0.096c0.967,0.084,0.919,0.431,1.065-0.477
				c-4.123-0.65-7.028,0.853-9.982,3.533"/>
		</g>
	</g>
	<g display="inline">
		<g>
			<path fill="#231F20" d="M281.072,164.736c0.003,0.141-0.059,0.434,0.03,0.525c0.642-0.016,1.27,0.103,1.912,0.11
				c1.201,0.015,2.382,0.264,3.575,0.406c2.091,0.251,4.294,0.432,6.147,1.461c1.807,1.004,3.092,2.704,4.12,4.491
				c0.603,1.05,1.12,2.139,1.47,3.297c0.202,0.663,0.325,1.351,0.465,2.029c0.11,0.065,0.858-0.181,0.995-0.209
				c-0.885-4.291-3.219-8.185-7.24-10.244c-3.52-1.803-7.599-1.947-11.474-1.851"/>
		</g>
	</g>
	<g display="inline">
		<g>
			<path fill="#231F20" stroke="#231F20" stroke-miterlimit="10" d="M273.968,171.626c-0.771,0.545-1.54,1.104-2.348,1.595
				c-0.848,0.518-1.006,0.334-0.558,1.155c2.647-1.449,4.881-3.915,7.833-4.753c2.71-0.768,5.798-0.113,8.489,0.535
				c2.63,0.634,5.242,1.685,7.361,3.41c0.901,0.732,1.904,1.45,2.418,2.497c0.275,0.557,0.304,1.218,0.401,1.831
				c0.078,0.494,0.241,0.279,0.696,0.233c-0.502-4.878-5.604-7.188-9.781-8.339c-2.288-0.631-4.675-1.228-7.054-1.167
				c-2.902,0.075-5.329,1.122-7.638,2.752"/>
		</g>
	</g>
	<g display="inline">
		<g>
			<path fill="#231F20" stroke="#231F20" stroke-miterlimit="10" d="M255.235,172.75c1.85,3.755,3.667,7.646,4.5,11.775
				c0.379,1.884,0.333,3.822,0.217,5.74c-0.063,1.017-0.189,2.012-0.391,3.01c-0.2,0.981-0.352,1.002,0.57,1.229
				c1.965-7.859-0.928-15.043-4.363-22.02c-0.232,0.115-0.426,0.207-0.657,0.322"/>
		</g>
	</g>
	<g display="inline">
		<g>
			<path fill="#231F20" stroke="#231F20" stroke-miterlimit="10" d="M261.84,180.741c0.023,0.258,0.048,0.503,0.072,0.761
				c7.57-0.729,13.161-5.935,13.335-13.708c-0.818-0.018-0.756-0.09-0.813,0.773c-0.065,0.992-0.154,2-0.408,2.96
				c-0.437,1.643-1.212,3.22-2.288,4.539c-2.413,2.958-6.199,4.231-9.908,4.586"/>
		</g>
	</g>
	
		<rect id="HeadBlowTarget" x="205.013" y="178.281" display="inline" fill="#FFFFFF" fill-opacity="0" width="17.81" height="17.642"/>
</g>
<rect id="HeadBlowTargetFixed" x="205.013" y="178.281" fill="#FFFFFF" fill-opacity="0" width="17.81" height="17.642"/>
<rect id="MouthTarget" x="215.365" y="259.458" fill="#FFFFFF" fill-opacity="0" width="28.909" height="22.569"/>
<g id="Cursor">
	
		<image overflow="visible" enable-background="new    " width="77" height="76" id="CursorGlow" xlink:href="cursorGlow.png"  transform="matrix(0.9999 0 0 0.9999 399.8984 172.7275)">
	</image>
	
		<image overflow="visible" enable-background="new    " width="44" height="43" id="CursorProper" xlink:href="cursor.png"  transform="matrix(1.0002 0 0 1.0002 415.8955 188.7275)">
	</image>
	<rect id="CursorTarget" x="405.525" y="176.238" fill="#FFFFFF" fill-opacity="0" width="26.602" height="27"/>
</g>
<path d="M208.266,268.536c-6.381-1.749-11.617,2.342-17.531,4c-1.24,0.347-0.713,2.276,0.531,1.928
	c5.454-1.526,10.593-5.608,16.469-4C208.98,270.807,209.508,268.876,208.266,268.536z"/>
<g>
	<path fill="#F3BF99" d="M216.29,266.315c0,0-0.151-3.366-3.91-6.756s-5.713-2.166-5.713-2.166l-4.072,3.569
		c0,0-5.733-2.617-10.224-2.834c-4.492-0.214-5.149,0.041-5.505,1.854c-0.354,1.809-0.499,3.387-2.472,4.157
		c-1.974,0.772-3.224,2.632-3.577,4.438c-0.354,1.81-0.854,5.198-2.101,7.055c-1.25,1.857-3.343,4.651-2.851,5.521
		c0.494,0.869,0.494,0.869,0.494,0.869s-1.3,5.22-1.162,7.9c0.139,2.681,2.3,5.48,2.3,5.48s3.293-1.29,3.624-3.547
		c0.331-2.257,0.171-5.384,0.171-5.384l5.499,2.404c0,0,2.542-2.816,0.872-4.744c-1.668-1.93-5.426-5.319-5.426-5.319l1.604-3.667
		c0,0,1.969,3.483,5.257,6.449c3.289,2.967,4.933,4.449,4.933,4.449s2.188-1.009,2.308-3.031c0.118-2.021-2.368-6.821-2.368-6.821
		l5.428,5.317c0,0,2.944-3.736,1.678-6.582c-1.267-2.848-1.336-4.188-1.336-4.188s-0.604-2.318,3.416-2.521
		c4.022-0.209,11.971-1.202,11.971-1.202L216.29,266.315z"/>
	<g>
		<g>
			<path fill="#010101" d="M194.82,263.145c1.591,3.117,3.388,6.164,4.68,9.416c0.823,2.062,1.437,4.539,1.009,6.801
				c-0.349,1.859-2.756,2.288-1.313,4.101c5.447-2.217,2.448-9.521,0.73-13.294c-0.889-1.962-1.882-3.864-2.86-5.784
				c-0.728-1.422-0.661-2.239-2.254-1.133"/>
		</g>
	</g>
	<g>
		<g>
			<path fill="#010101" d="M186.073,264.469c1.813,5.266,5.213,9.587,8.897,13.683c1.073,1.19,2.062,2.46,3.136,3.654
				c1.044,1.163,1.385,1.471,2.561,0.108c-2.21-2.451-4.751-4.708-6.866-7.241c-1.661-1.984-3.001-4.228-4.234-6.509
				c-0.815-1.514-1.15-5.235-3.333-3.725"/>
		</g>
	</g>
	<g>
		<g>
			<path fill="#010101" d="M180.9,271.427c3.427,5.831,7.464,11.017,12.485,15.545c1.831-1.166,0.514-2.138-0.599-3.195
				c-1.628-1.545-3.323-3.021-4.762-4.745c-1.405-1.669-2.657-3.457-3.844-5.287c-0.875-1.353-1.5-4.139-3.254-2.319"/>
		</g>
	</g>
	<g>
		<g>
			<path fill="#010101" d="M184.991,287.224c-4.155-1.699-5.977-4.812-9.368-7.424c-1.217,0.911-0.917,1.206-0.013,2.079
				c1.654,1.597,2.99,3.515,4.856,4.894c1.506,1.1,3.334,1.604,5.033,2.331c1.347,0.579,2.229,1.703,2.796-0.247
				c-1.048-0.658-2.161-1.168-3.306-1.632"/>
		</g>
	</g>
	<g>
		<g>
			<path fill="#010101" d="M181.179,277.82c1.613,2.446,4.122,4.193,5.547,6.757c1.053,1.884-0.735,5.128,1.706,5.269
				c1.044-2.942,0.496-5.539-1.511-7.863c-0.985-1.146-2.229-2.049-3.237-3.176c-0.973-1.078-1.155-2.438-2.463-0.912"/>
		</g>
	</g>
	<g>
		<g>
			<path fill="#010101" d="M176.473,282.707c-3.403,4.413-2.2,8.371,0.061,12.983c1.851-0.332,1.173-1.182,0.589-2.448
				c-0.619-1.338-1.132-2.784-1.265-4.267c-0.121-1.372,0.158-2.711,0.843-3.89c0.665-1.145,1.438-1.738-0.243-2.402"/>
		</g>
	</g>
	<g>
		<g>
			<path fill="#010101" d="M180.41,287.146c-0.758,1.894,0.186,4.011-0.5,5.848c-0.686,1.821-3.584,0.672-2.511,3.095
				c2.386-0.332,4.197-1.534,4.301-4.066c0.068-1.707,1-4.638-1.215-4.856"/>
		</g>
	</g>
	<g>
		<g>
			<path fill="#010101" d="M198.887,264.225c-1.484,1.927,4.481,4.302,5.897,4.444c4.002,0.408,6.918-2.468,6.75-6.448
				c-2.297-0.561-1.249,1.603-2.111,3.016c-1.372,2.243-4.556,2.375-6.696,1.325c-1.325-0.653-2.683-1.407-1.495-2.723
				c0.907-1.007,1.949-1.867,2.926-2.809c1.235-1.188,4.928-3.103,2.598-4.633c-2.776,2.439-5.482,4.994-7.819,7.851"/>
		</g>
	</g>
	<g>
		<g>
			<path fill="#010101" d="M198.27,258.743c-2.881-1.083-6.954-2.587-10.066-1.338c-1.565,0.626-1.97,1.809-2.151,3.351
				c-0.318,2.671-2.279,2.442-3.874,4.036c-2.652,2.647-1.754,4.479-2.402,7.748c-0.78,3.913-6.51,5.845-4.888,10.352
				c2.083-0.125,1.289-1.314,1.767-2.669c0.713-2.02,2.657-3.288,3.67-5.146c1.708-3.132-0.4-7.738,3.353-9.783
				c2.079-1.136,3.519-1.798,3.828-4.359c0.263-2.211,1.517-2.885,3.601-2.598c3.337,0.466,6.505,1.896,9.686,2.998
				c0.968-2.129-0.898-1.748-2.618-2.345"/>
		</g>
	</g>
	<g>
		<g>
			<path fill="#010101" d="M209.977,257.177c-1.93-0.95-4.107-1.425-6.188-0.701c0.093,1.895,0.969,1.123,2.318,1.166
				c1.786,0.056,3.473,0.922,4.892,1.951c1.664,1.19,3.021,2.795,4.046,4.57c0.671,1.16,0.792,2.113,2.308,1.068
				c-1.144-3.455-4.075-6.617-7.297-8.211"/>
		</g>
	</g>
</g>
<path d="M198.5,283.5c-0.021,1.677-0.472,3.064-1.571,4.209c-0.641-0.562-1.14-1.307-1.722-1.916
	c-0.892-0.935-2.304,0.481-1.414,1.414c0.883,0.925,1.572,2.007,2.702,2.656c0.425,0.244,0.852,0.129,1.212-0.156
	c1.964-1.555,2.761-3.755,2.793-6.207C200.517,282.21,198.517,282.211,198.5,283.5z"/>
</svg>
