<?xml version="1.0" encoding="utf-8"?>
<!-- Generator: Adobe Illustrator 15.0.0, SVG Export Plug-In . SVG Version: 6.00 Build 0)  -->
<!DOCTYPE svg PUBLIC "-//W3C//DTD SVG 1.1//EN" "http://www.w3.org/Graphics/SVG/1.1/DTD/svg11.dtd">
<svg version="1.1" id="Layer_1" xmlns="http://www.w3.org/2000/svg" xmlns:xlink="http://www.w3.org/1999/xlink" x="0px" y="0px"
	 width="640px" height="360px" viewBox="0 0 640 360" enable-background="new 0 0 640 360" xml:space="preserve">
<polygon fill="#F1F2DB" points="312.879,-59.574 643.962,386.128 1.357,386.128 -8.447,-65.702 "/>
<path fill="#D3D8B9" d="M115.458,108.847c-1.127,23.294-6.607,46.033,11.206,65.14c6.741,7.229,16.427,14.818,25.264,18.846
	c5.113,2.332,10.557-1.056,14.831,4.985c4.43,6.267,1.657,33.521-0.267,40.648c-3.187,11.809-9.916,16.508-9.371,29.432
	c1.175,27.726,26.002,42.271,37.346,64.521c8.276,16.238,10.617,42.303,32.131,47.723c21.747,5.48,19.372-13.475,19.006-28.209
	c12.2,10.563,21.088,24.277,36.818,30.107c17.655,6.545,44.145,10.65,60.496-0.162c10.986-7.272,15.939-18.092,30.211-18.699
	c15.34-0.647,34.838,6.383,49.675,9.656c8.08,1.783,33.165,11.938,40.961,6.672c31.354-21.16-57.893-74.404-68.438-90.174
	c12.834-0.109,29.542,10.334,33.084-5.65c4.713-21.328-44.923-43.67-57.771-53.076c-27.682-20.254-59.958-33.246-90.938-47.235
	c-28.74-12.975-53.281-32.99-81.375-46.011c-16.992-7.879-37.04-9.226-53.621-17.926c-8.377-4.396-15.713-10.82-24.827-15.006"/>
<path fill="#F3BF98" d="M252.366,148.605c-5.68-0.632-9.468-8.838-11.361-14.519c-1.894-5.68-1.894-5.68,0.631-6.943
	c2.523-1.262,3.788-8.206,1.263-11.361c-2.525-3.156-4.418-16.413-9.469-18.306c-5.049-1.893-20.877-23.66-24.666-26.187
	c-3.788-2.523-39.842-22.794-72.667-1.333c-29.456,19.155-24.325,55.039-17.833,68.833c3.786,19.568,21.112,24.335,21.112,24.335
	s-5.681,6.943,3.789,13.887c9.467,6.943,10.73,8.207,14.517,8.207c3.788,0,4.419-3.155,4.419-3.155s10.099,2.524,12.624,3.155
	c2.526,0.632,6.312-0.631,6.312,1.263c0,1.896-6.944,9.47-15.15,28.405c-8.206,18.938-15.149,39.136-3.155,56.179
	c11.992,17.041,16.412,18.938,23.986,34.086c7.576,15.149,25.25,39.771,34.717,53.022c9.469,13.258,9.469,16.412,9.469,16.412
	l32.194-1.893c0,0-5.05-18.939-12.625-35.354c-7.574-16.41-10.1-22.094-10.1-22.094s32.192,26.51,37.241,32.192
	c5.051,5.681,24.619,29.036,24.619,29.036l102.256-1.896l0.632-20.832c0,0,15.147,2.521,34.09,7.578
	c18.938,5.049,20.831,11.358,20.831,11.358l38.505,0.632c0,0-1.267-27.146-34.088-51.13c-32.827-23.983-60.598-36.61-60.598-36.61
	l4.414-2.526l0.631-1.89c0,0,7.577,6.941,9.47,5.049c1.896-1.896,2.524-5.049,2.524-5.049s8.841,1.262,8.21-0.631
	c-0.636-1.896-0.636-5.055-0.636-5.055s6.313-3.785,1.267-10.102c-5.051-6.313-6.944-10.729-6.944-10.729s-4.42-6.313-11.994-11.994
	c-7.574-5.68-20.83-1.892-30.301-13.885c-9.469-11.994-15.775-17.043-28.4-25.882c-12.625-8.84-25.248-19.569-30.932-32.191
	c-5.68-12.626-18.304-22.725-32.822-24.62C273.827,144.185,252.366,148.605,252.366,148.605z"/>
<path fill="#FFFFFF" d="M369.212,256.557c-7.575-6.941-8.207-20.834-8.207-20.834s-24.614,23.354-44.186,39.77
	c-19.571,16.41-30.298,25.881-44.188,33.457c-13.886,7.576-23.355,15.778-23.355,15.778l8.838,6.313c0,0-6.944,1.895,1.893,11.365
	c8.837,9.469,27.775,30.932,27.775,30.932l17.042,3.156l103.518-6.314c0,0,11.995-14.518,5.682-30.297
	c-6.313-15.777-8.207-23.354-11.359-33.459c-3.155-10.1-2.525-15.146-2.525-15.146l10.732-1.894c0,0-11.993-8.838-13.887-10.102
	c-1.896-1.263-5.684-10.729-15.149-14.517C372.368,260.973,369.212,256.557,369.212,256.557z"/>
<path fill="#D9A988" d="M415.293,257.188c-10.168-1.814-15.508-3.722-23.258,3.897c0.318,2.006,2.492,8.457,3.708,10.554
	c8.255-0.441,18.89-4.605,20.812-12.56"/>
<g>
	<g>
		<g>
			<g>
				<path fill="#020202" d="M170.885,137.08c1.903,0.979,4.321,0.903,5.992-0.499c-0.733-1.683-3.556,0.348-5.419-0.611
					c-1.695-0.873-1.162-3.557-3.011-3.168c-0.148,1.866,0.787,3.415,2.443,4.271"/>
			</g>
		</g>
		<g>
			<g>
				<path fill="#020202" d="M174.331,129.637c-1.189,0.677-2.296,3.27-0.91,3.773c1.272,0.113,4.423-1.529,2.229-2.611
					c-0.353,0.48-0.884,1.039-1.46,1.227c0.57-3.067,3.416,0.324,4.079-1.986c-1.123-0.71-2.731-1.162-3.969-0.46"/>
			</g>
		</g>
		<g>
			<g>
				<path fill="#020202" d="M182.219,123.135c-1.128,0.677-1.55,2.068-1.441,3.315c1.938,0.392,0.848-1.443,2.11-2.203
					c1.494-0.896,0.633,2.04,2.479,1.744c0.217-1.76-0.966-4.207-3.164-2.888"/>
			</g>
		</g>
		<g>
			<g>
				<path fill="#020202" d="M187.463,120.877c2.524,2.003-1.041,4.639,0.821,5.799c1.998-1.783,2.135-5.101-0.021-6.813
					c-0.246,0.307-0.704,0.689-0.857,1.049"/>
			</g>
		</g>
		<g>
			<g>
				<path fill="#020202" d="M201.347,135.907c-5.274,0.362-8.715,1.742-12.832,5.055c-2.009,1.617-4.576,3.274-5.57,5.741
					c-0.508,1.259-0.128,2.492-0.224,3.793c-0.094,1.262-1.547,1.805,0.03,2.627c2.049-2.16,0.636-5.135,2.469-7.5
					c1.472-1.896,3.366-3.437,5.226-4.923c3.728-2.984,7.423-3.52,12.049-3.845c0.22-1.021-0.131-1.32-1.143-0.97"/>
			</g>
		</g>
		<g>
			<g>
				<path fill="#020202" d="M193.02,143.667c-1.156,0.929-6.056,3.448-4.119,4.839c1.641-1.315,3.285-2.541,4.925-3.862
					c1.11-0.892,5.295-2.975,3.39-4.327c-1.4,1.13-2.78,2.242-4.18,3.374"/>
			</g>
		</g>
		<g>
			<g>
				<path fill="#020202" d="M187.67,135.859c-0.96,2.311-3.083,1.811-4.781,2.974c-2.337,1.17-1.878,5.243-1.604,7.301
					c2.164,0.292,0.923-3.38,1.466-4.958c0.501-1.456,1.927-1.39,3.187-1.894c2.025-0.81,2.38-3.582,4.185-4.152
					c1.792-0.566,4.075,0.301,5.888,0.58c0.777-1.734-1.202-1.623-2.399-1.805C191.451,133.573,188.68,133.436,187.67,135.859"/>
			</g>
		</g>
		<g>
			<g>
				<path fill="#020202" d="M160.322,127.997c-3.766,2.341-5.853,5.453-8.192,9.144c-0.694,1.092-3.759,4.215-1.66,5.066
					c1.557-1.835,2.766-4.139,4.013-6.182c1.318-2.161,2.628-4.188,4.688-5.706c1.295-0.955,3.693-1.697,4.293-3.304
					c-1.236-0.948-1.985,0.491-3.041,1.146"/>
			</g>
		</g>
		<g>
			<g>
				<path fill="#020202" d="M195.677,100.89c-4.608,1.976-9.477,3.984-12.455,8.237c1.265,1.562,2.387-0.611,3.357-1.513
					c1.796-1.661,3.875-3.178,6.13-4.144c2.811-1.207,5.802-2.306,8.285-4.113c-0.708-1.925-4.001,0.685-5.429,1.26"/>
			</g>
		</g>
		<g>
			<g>
				<path fill="#020202" d="M145.951,115.971c-5.12,5.547-11.491,12.258-11.354,20.352c2.004,0.537,1.375-2.605,1.768-3.995
					c0.683-2.413,1.803-4.678,3.181-6.758c2.427-3.665,5.426-6.876,8.39-10.103c-0.854-1.393-1.326-0.435-2.094,0.402"/>
			</g>
		</g>
		<g>
			<g>
				<path fill="#020202" d="M176.323,93.379c1.045,1.667,1.913-0.489,2.927-1.282c1.906-1.492,4.181-2.538,6.452-3.357
					c1.966-0.708,4.048-1.098,6.132-1.266c1.392-0.112,4.436,0.732,4.156-1.334c-6.896-1.005-15.057,2.014-19.711,7.208"/>
			</g>
		</g>
		<g>
			<g>
				<path fill="#020202" d="M136.052,166.915c-1.649,7.002,6.824,10.117,11.384,12.902c2.412,1.471,4.704,3.104,6.971,4.785
					c1.495,1.104,1.444,0.769,2.628-0.729c-4.38-3.432-9.146-6.59-14.121-9.074c-2.426-1.211-4.956-3.156-5.229-6.016
					c-0.084-0.893,0.01-2.277,0.793-2.863c0.727-0.549,0.653-0.959,0.653-1.994c-1.645,0-2.828,1.498-3.176,2.967"/>
			</g>
		</g>
		<g>
			<g>
				<path fill="#020202" d="M228.034,95.309c-1.455,0.61-2.644,2.215-2.901,3.745c1.708,0.286,1.757,0.495,2.595-0.88
					c1.341-2.213,3.52-0.827,5.03,0.426c4.289,3.564,5.299,8.975,7.154,13.903c1.19,3.163,6.686,9.389,2.124,11.953
					c-1.491,0.837-3.233,1.29-4.91,1.189c-1.243-0.074-1.067,0.67-1.268,1.876c2.487,0.419,5.702,0.021,7.812-1.409
					c4.681-3.171,0.939-8.579-0.882-12.253c-1.866-3.759-2.953-7.737-4.919-11.476c-1.672-3.172-5.69-9.137-9.951-7.35"/>
			</g>
		</g>
		<g>
			<g>
				<path fill="#020202" d="M232.632,117.15c3.64,5.993,5.799,13.016,8.453,19.474c2.421,5.896,4.685,13.425,9.613,17.75
					c0.246-0.283,1.382-1.307,1.396-1.652c-1.03-0.905-1.951-1.969-2.726-3.094c-2.256-3.275-3.871-7.012-5.447-10.648
					c-3.244-7.487-5.298-15.894-9.551-22.889c-0.539,0.326-0.846,0.588-1.384,0.916"/>
			</g>
		</g>
		<g>
			<g>
				<path fill="#020202" d="M135.212,159.47c8.03,8.611,14.083,19.626,26.161,23.045c4.96,1.402,10.14,2.926,15.25,3.521
					c5.44,0.637,11.751,0.84,17.012-1.035c-0.788-2.203-1.059-1.893-3.319-1.453c-2.916,0.563-5.9,0.658-8.854,0.492
					c-5.657-0.314-11.25-1.336-16.795-2.453c-13.389-2.697-19.728-13.846-28.368-23.114c-0.463,0.432-0.665,0.632-1.127,1.062"/>
			</g>
		</g>
		<g>
			<g>
				<path fill="#020202" d="M188.717,183.82c-0.008,0.468,0.36,1.38,0.481,1.837c19.655-5.23,39.096-18.275,47.681-37.316
					c-1.983-1.675-2.452,1.619-3.248,3.051c-1.337,2.4-2.896,4.627-4.583,6.793c-3.555,4.55-7.428,8.927-12.059,12.369
					c-8.36,6.217-18.308,10.205-28.373,12.885"/>
			</g>
		</g>
	</g>
	<g>
		<g>
			<path fill="#020202" d="M230.158,102.095c-1.251,2.608,0.197,5.956,1.136,8.42c0.558,1.465,0.873,5.546,2.634,5.419
				c0.76-3.394-2.202-7.145-2.754-10.419c-0.246-1.456-0.152-3.102,1.106-4.045c0.921-0.69,2.275-0.583,1.333-1.976
				c-1.36,0.437-2.636,1.36-3.274,2.688"/>
		</g>
	</g>
	<g>
		<g>
			<path fill="#020202" d="M233.02,107.88c2.957,1.222,3.813,3.695,3.852,6.684c0.036,2.836-0.351,2.814,2.384,3.574
				c0.68-1.297-0.344-0.899-0.55-1.449c-0.218-0.059-0.282-0.176-0.499-0.238c0.017-1.016-0.062-2.019-0.133-3.036
				c-0.219-3.082-1.636-5.424-4.58-6.64c-0.15,0.362-0.442,0.746-0.49,1.131"/>
		</g>
	</g>
</g>
<g>
	<g>
		<path fill="#020202" d="M172.683,201.294c-5.838,8.213-12.063,18.226-14.616,28.119c-2.01,7.791-0.512,18.537,0.315,26.508
			c1.91,18.416,11.666,30.156,27.105,39.951c1.231-1.947,1.201-2.315-0.829-3.688c-2.638-1.785-5.526-3.313-7.907-5.43
			c-4.03-3.58-16.159-12.842-17.289-38.738c-0.483-11.088,0.772-22.293,6.179-32.174c2.906-5.313,17.319-24.242,18.895-30.15
			c-0.324-0.084-2.109-0.842-2.372-0.692c-0.504,1.894-0.871,3.836-1.792,5.554C178.285,194.438,175.237,197.706,172.683,201.294"/>
	</g>
</g>
<g>
	<g>
		<path fill="#020202" d="M181.71,297.1c4.431,15.026,14.185,28.432,22.833,41.274c4.103,6.09,9.506,11.148,14.015,16.938
			c2.555,3.281,5.065,6.693,6.843,10.47c0.828,1.758,1.289,3.688,1.83,5.555c0.471,1.631,1.406,0.963,2.865,0.592
			c-3.604-14.229-16.19-24.57-24.154-36.393c-4.715-6.99-9.578-13.879-13.718-21.232c-2.144-3.799-3.695-7.858-5.362-11.896
			c-0.706-1.71-1.54-3.329-2.097-5.097c-0.468-1.479-1.623-0.683-2.947-0.289"/>
	</g>
</g>
<g>
	<g>
		<path fill="#020202" d="M264.088,145.612c-4.642,0.759-9.292,1.862-14.016,1.558c-1.917-0.12-3.685-0.502-5.436-1.316
			c-1.848-0.865-1.542-0.753-2.682,0.904c5.494,3.776,12.718,2.952,18.893,2.008c5.994-0.918,11.954-1.982,18.028-2.216
			c6.002-0.234,11.989,0.38,17.535,2.78c3.298,1.429,6.789,2.816,9.523,5.146c1.574,1.339,2.267,3.702,3.644,5.241
			c0.366-0.032,1.101-1.115,1.391-1.374c-6.208-6.942-13.798-12.452-23.061-13.831C280.001,143.331,271.903,144.335,264.088,145.612
			"/>
	</g>
</g>
<g>
	<g>
		<path fill="#020202" d="M286.62,159.632c7.85,1.755,13.625,9.923,17.716,16.128c5.399,8.193,10.664,15.924,17.355,23.164
			c6.896,7.465,13.966,14.74,20.897,22.168c3.325,3.557,6.271,7.418,9.167,11.338c1.42,1.924,3.508,3.414,4.749,5.457
			c0.833,1.363,0.405,4.535,2.188,2.805c-9.375-17.381-24.907-29.944-37.889-44.428c-6.362-7.096-11.147-14.992-16.467-22.833
			c-4.139-6.105-9.64-13.51-17.355-15.235c-0.103,0.461-0.074-0.306-0.047,0.162"/>
	</g>
</g>
<g>
	<g>
		<path fill="#020202" d="M188.975,251.939c6.041,5.009,13.936,6.957,17.992,14.101c4.14,7.299,6.847,15.058,11.465,22.142
			c9.133,14.008,20.322,26.94,33.444,37.229c1.191-0.879,1.531-2.027,0.525-2.834c-2.007-1.601-4.695-2.392-6.637-4.076
			c-3.472-3.02-6.695-6.385-9.913-9.68c-6.263-6.408-11.257-13.938-16.154-21.439c-4.82-7.396-8.055-15.346-12.657-22.799
			c-2.301-3.728-5.342-6.185-8.994-8.51c-2.052-1.313-3.594-3.382-5.585-4.781c-1.209-0.853-2.09-1.701-2.923,0.187"/>
	</g>
</g>
<g>
	<g>
		<path fill="#020202" d="M325.604,264.934c-14.151,12.862-26.173,25.188-41.919,36.121c-5.597,3.887-13.169,8.628-19.292,11.589
			c-7.181,3.479-14.532,7.695-18.716,14.847c2.19,1.276,1.464,0.303,3.032-1.615c1.774-2.168,3.83-4.115,6.142-5.682
			c4.229-2.865,8.574-5.687,13.152-7.929c11.493-5.627,21.579-13.006,31.312-21.225c11.491-9.713,22.792-19.604,33.941-29.697
			c5.707-5.165,11.724-9.977,17.563-14.985c2.742-2.351,4.615-5.74,7.414-8.021c1.381-1.131,4.137-0.771,5.539-1.877
			c-0.015-0.369-2.146-2.547-2.391-2.853c-12.404,9.822-23.563,21.234-35.262,31.879"/>
	</g>
</g>
<g>
	<g>
		<path fill="#020202" d="M249.092,324.548c2.347,1.717,4.574,3.604,6.928,5.312c2.661,1.924,5.212,3.979,7.631,6.204
			c0.383,0.354,2.656,2.566,2.893,2.353c0.416-0.387,0.976-0.76,1.39-1.148c-3.855-4.147-8.474-7.403-13.028-10.731
			c-1.243-0.906-2.487-1.808-3.732-2.711c-1.299-0.951-1.09-0.354-2.055,0.924"/>
	</g>
</g>
<g>
	<g>
		<path fill="#020202" d="M282.567,331.716c-6.314,4.49-11.653,7.574-19.472,7.142c-2.374-0.134-5.353-0.808-7.319-2.316
			c-3.015-2.326,2.851-4.906,0.614-6.164c-9.732,9.773,10.277,10.23,15.791,8.85c5.333-1.334,10.033-5.389,14.503-8.371
			c2.474-1.655,4.865-3.385,7.688-4.354c1.402-0.48,2.805-0.959,4.266-1.211c1.253-0.215,3.034-0.205,2.371-1.979
			c-7.045,0.65-13.007,4.095-18.651,8.109"/>
	</g>
</g>
<g>
	<g>
		<path fill="#020202" d="M346.682,292.71c-6.045,4.422-12.479,8.319-18.464,12.824c-5.913,4.451-11.021,10.014-17.148,14.172
			c-3.567,2.418-7.712,3.924-11.469,6.041c-2.154,1.215-3.96,3.094-6.179,4.188c-1.216,0.604-4.553,0.787-3.129,2.496
			c17.022-7.84,31.913-19.172,46.786-30.371c11.588-8.729,22.851-17.68,33.637-27.41c-0.979-1.981-2.265,1.422-3.291,2.302
			c-2.077,1.776-3.84,3.952-5.991,5.633c-4.701,3.656-9.871,6.715-14.686,10.224"/>
	</g>
</g>
<g>
	<g>
		<path fill="#020202" d="M369.135,274.523c2.938,9.031,7.92,18.604,15.717,24.461c-14.271,9.05-26.676,20.953-40.031,31.238
			c-6.443,4.97-13.313,9.496-20.334,13.634c-3.487,2.055-7.594,2.915-11.274,4.598c-1.841,0.846-3.193,2.846-5.081,3.57
			c-1.181,0.457-2.98,0.524-1.897,2.082c31.274-11.121,53.167-37.732,80.762-54.896c-3.714-2.563-6.643-6.301-9.092-10.086
			c-1.735-2.684-4.1-5.09-5.352-8.027c-0.623-1.457-1.229-2.969-1.766-4.457c-0.426-1.201-0.354-3.147-1.958-2.104"/>
	</g>
</g>
<g>
	<g>
		<path fill="#020202" d="M358.924,232.96c0.234,6.008,2.287,11.638,4.664,17.072c1.32,3.036,2.835,5.997,3.742,9.19
			c0.143,0.502,0.748,3.578,1.035,3.533c0.563-0.092,1.351-0.021,1.91-0.113c-0.957-5.947-4.08-11.227-6.366-16.735
			c-1.229-2.964-2.326-6.048-2.875-9.218c-0.091-0.52-0.104-3.932-0.39-3.914c-0.563,0.019-1.03,0.164-1.6,0.187"/>
	</g>
</g>
<g>
	<g>
		<path fill="#020202" d="M364.367,250.505c4.259,7.896,12.188,12.172,19.412,16.981c3.457,2.302,6.644,5.082,9.303,8.312
			c1.32,1.606,2.396,3.363,3.213,5.279c0.615,1.442,1.012,0.791,2.345,0.303c-3.034-8.269-10.722-12.836-17.757-17.422
			c-3.646-2.371-7.258-4.922-10.326-8.026c-1.556-1.574-2.729-3.486-3.867-5.388c-0.836-1.392-1.332-0.631-2.613,0.063"/>
	</g>
</g>
<g>
	<g>
		<path fill="#020202" d="M404.249,290.456c-6.611,1.633-13.274,3.301-19.502,6.137c0.207,1.298,0.428,0.791,1.473,0.347
			c1.903-0.812,3.955-1.269,5.929-1.896c3.672-1.185,7.392-2.229,11.138-3.153c2.879-0.72,5.771-1.363,8.646-2.103
			c0.104-2.414-6.138,0.321-7.666,0.719"/>
	</g>
</g>
<g>
	<g>
		<path fill="#020202" d="M368.129,258.458c0.246,2.931,0.523,5.867,0.586,8.81c0.043,2.02,0.085,4.078-0.311,6.061
			c-0.266,1.346-2.053,3.533,0.006,3.822c1.742-3.979,1.576-8.506,1.288-12.752c-0.081-1.269,0.468-6.943-1.701-6.103"/>
	</g>
</g>
<g>
	<g>
		<path fill="#020202" d="M290.083,332.657c6.636,6.217,9.586,15.412,16.154,21.67c1.788-1.064-0.478-2.439-1.325-3.455
			c-1.752-2.121-3.178-4.484-4.662-6.799c-2.77-4.322-5.631-8.687-9.406-12.224c-0.268,0.283-0.487,0.388-0.667,0.732"/>
	</g>
</g>
<g>
	<g>
		<path fill="#020202" d="M303.541,363.739c-2.972,3.5-5.878,7.188-7.972,11.303c1.641,1.506,2.901-2.25,3.741-3.449
			c1.673-2.385,3.385-4.75,5.27-6.969c3.486-4.115,7.219-8.217,9.393-13.207c-1.709-1.381-3.504,3.336-4.399,4.662
			c-1.828,2.701-3.593,5.457-5.702,7.938"/>
	</g>
</g>
<g>
	<g>
		<path fill="#020202" d="M399.248,294.441c3.479,8.978,2.267,18.808,5.159,27.929c1.495-0.479,1.584,0.027,1.118-1.687
			c-0.8-2.924-1.113-5.983-1.399-9.002c-0.578-6.053-0.612-12.309-2.83-18.047c-0.591,0.23-1.462,0.551-2.05,0.777"/>
	</g>
</g>
<g>
	<g>
		<path fill="#020202" d="M400.759,316.245c2.982,10.717,11.661,18.94,14.259,29.801c2.367,9.898-4.442,15.287-8.095,23.629
			c2.087,0.92,1.604,0.578,2.739-1.549c1.309-2.447,3.285-4.48,4.756-6.826c2.783-4.447,3.111-9.104,2.104-14.315
			c-1.282-6.627-4.244-12.664-7.614-18.398c-1.781-3.033-3.329-6.154-4.674-9.412c-0.195-0.473-1.521-3.258-1.802-3.184
			c-0.549,0.147-1.547,0.182-2.089,0.328"/>
	</g>
</g>
<g>
	<g>
		<path fill="#020202" d="M254.402,336.747c8.289,13.926,20.309,27.076,33.153,36.916c1.202-1.57,1.626-1.854-0.025-3.178
			c-1.884-1.517-4.09-2.646-5.875-4.271c-3.886-3.545-7.505-7.406-11.03-11.309c-3.455-3.824-6.715-7.836-9.768-11.986
			c-1.349-1.838-2.342-3.908-3.557-5.838c-1.081-1.711-1.105-1.396-2.738-0.422"/>
	</g>
</g>
<g>
	<g>
		<path fill="#020202" d="M413.316,289.952c14.346,9.231,29.136,17.727,43.186,27.432c6.501,4.494,12.54,9.547,18.173,15.101
			c2.745,2.698,5.318,5.51,7.745,8.498c1.246,1.532,2.907,2.75,4.063,4.362c0.988,1.379,1.432,0.539,2.647-0.313
			c-9.211-13.203-22.006-23.377-35.375-32.172c-6.679-4.396-13.299-8.929-20.186-12.982c-4.146-2.442-8.677-4.229-12.774-6.739
			c-1.896-1.16-4.028-1.964-5.902-3.16c-1.556-0.992-1.262-0.648-2.117,0.688"/>
	</g>
</g>
<g>
	<g>
		<path fill="#020202" d="M485.438,340.858c2.62,6.487,5.807,12.729,8.482,19.192c1.396,3.373,2.288,6.926,3.189,10.465
			c0.42,1.648,0.874,3.304,1.146,4.982c0.327,0.17,1.278-0.229,1.657-0.289c-1.161-7.121-3.415-13.891-6.396-20.432
			c-1.492-3.297-3.219-6.49-4.695-9.801c-0.691-1.55-1.437-3.052-2.067-4.621c-0.352-0.099-1.47,0.532-1.829,0.684"/>
	</g>
</g>
<g>
	<g>
		<path fill="#020202" d="M391.389,277.846c6.45,4.086,12.956,8.088,19.386,12.213c0.147-0.238,1.192-1.668,1.021-1.775
			c-1.083-0.693-2.194-1.332-3.271-2.025c-1.333-0.854-2.75-1.572-4.085-2.414c-4.014-2.551-7.864-5.389-11.881-7.934
			c-0.33,0.536-0.568,1.342-0.896,1.877"/>
	</g>
</g>
<g>
	<g>
		<path fill="#020202" d="M417.304,356.626c7.577,2.158,15.505,2.875,23.184,4.631c3.36,0.771,6.646,2.041,9.766,3.527
			c1.231,0.584,2.595,0.979,3.63,1.879c0.348-0.064,0.882-0.971,1.124-1.256c-4.99-4.314-12.572-5.92-18.824-7.121
			c-3.963-0.76-8.036-0.924-12.001-1.666c-1.851-0.344-3.602-1.107-5.423-1.574c-1.396-0.361-1.248,0.705-1.604,1.947"/>
	</g>
</g>
<g>
	<g>
		<path fill="#020202" d="M398.063,237.307c10.715,2.332,16.901,11.633,25.435,17.588c0.326-0.461,0.761-0.681,1.084-1.14
			c0.182-0.256-2.78-2.299-3.18-2.633c-2.44-2.037-4.788-4.179-7.139-6.313c-4.623-4.203-9.587-8.135-15.793-9.479
			c-0.135,0.612-0.265,1.349-0.397,1.965"/>
	</g>
</g>
<g>
	<g>
		<path fill="#020202" d="M395.482,254.161c0.373,1.864,3.824-0.218,5.479-0.119c3.57,0.215,6.962,1.83,10.342,2.896
			c4.265,1.352,11.062,3.537,13.6-1.758c-1.396-1.263-2.278,1.497-3.848,1.95c-2.286,0.664-4.979-0.051-7.179-0.683
			c-5.627-1.618-12.867-5.557-18.621-2.569"/>
	</g>
</g>
<g>
	<g>
		<path fill="#020202" d="M424.634,258.282c2.104,3.133,4.483,6.258,5.852,9.801c0.479,1.258,1.85,5.094-0.025,5.41
			c-1.946,0.33-1.824-0.162-2.052,1.842c1.656,0.188,4.077,0.158,4.809-1.244c0.328-3.051-0.604-6.098-1.98-8.793
			c-1.132-2.2-2.482-4.282-3.86-6.329c-1.188-1.771-1.117-1.732-2.879-0.593"/>
	</g>
</g>
<g>
	<g>
		<path fill="#020202" d="M417.374,262.639c1.732,2.2,3.627,4.286,5.33,6.512c1.634,2.127,3.051,4.432,3.873,7.014
			c0.466,1.467-0.147,4.879,1.894,4.467c0.405-5.572-2.843-10.273-6.171-14.371c-0.975-1.193-3.349-5.566-4.761-3.717"/>
	</g>
</g>
<g>
	<g>
		<path fill="#020202" d="M411.183,267.706c2.211,4.619,8.282,16.867,14.977,14.5c-0.085-1.733-1.521-0.813-2.733-1.222
			c-1.956-0.661-3.63-2.256-4.931-3.789c-1.638-1.926-3.016-4.098-4.279-6.278c-0.681-1.179-1.339-4.64-2.94-3.196"/>
	</g>
</g>
<g>
	<g>
		<path fill="#020202" d="M405.213,272.982c1.949,4.271,4.688,10.045,9.296,12.068c4.629,2.037,6.481-1.41,4.328-5.605
			c-2.634,0.498,1.274,4.224-1.039,4.744c-1.519,0.347-2.932-0.379-4.146-1.276c-1.832-1.353-3.312-3.183-4.479-5.103
			c-0.827-1.36-2.157-6.309-3.917-4.85"/>
	</g>
</g>
<g>
	<g>
		<path fill="#020202" d="M406.595,278.102c0.799,1.563,1.836,4.938-0.92,5.157c-2.274,0.183-2.063-0.711-2.766,1.563
			c5.548,1.719,7.848-2.938,5.448-7.631c-0.563,0.289-1.18,0.602-1.736,0.889"/>
	</g>
</g>
<g>
	<g>
		<path fill="#020202" d="M400.229,280.249c1.782,0.672,1.314-1.326,2.039-2.435c0.831-1.274,3.45-1.461,2.413-3.119
			c-2.581,0.736-4.251,2.878-4.458,5.533"/>
	</g>
</g>
<g>
	<g>
		<path fill="#020202" d="M404.212,267.827c-2.97,1.67-5.958,3.313-8.927,4.979c0.535,2.394,6.09-1.992,7.387-2.723
			c5.271-2.963,10.691-5.715,15.771-9.006c-0.721-2.227-4.044,0.805-5.309,1.551c-2.961,1.75-5.896,3.553-8.914,5.201"/>
	</g>
</g>
<g>
	<g>
		<path fill="#020202" d="M304.857,153.161c3.248,3.007,6.369,6.169,9.485,9.319c4.671,4.719,7.996,10.582,12.24,15.688
			c4.438,5.34,9.596,9.887,14.222,15.027c2.728,3.029,4.948,6.934,8.531,8.916c11.669,6.471,18.547,14.928,23.147,19.555
			c8.797,8.838,19.049,16.354,31.989,17.104c0.032-0.563,0.317-0.188,0.354-0.75c0.016-0.268-3.826-1.291-4.403-1.399
			c-3.413-0.658-6.792-1.267-9.877-2.854c-5.805-2.981-10.2-7.887-14.853-12.426c-4.991-4.869-10.041-9.768-15.358-14.289
			c-3.032-2.574-7.188-3.602-9.806-6.561c-10.676-12.104-19.571-18.268-24.112-23.855c-4.396-5.412-6.806-12.283-11.817-17.17
			c-2.12-2.069-4.236-4.162-6.412-6.171c-1.696-1.571-2.08-1.691-3.67-0.002"/>
	</g>
</g>
<g>
	<g>
		<path fill="#020202" d="M387.941,246.292c-1.092,1.726-2.112,3.608-3.707,4.92c-1.191,0.981-4.063,0.869-3.428,2.688
			c3.656-0.188,5.922-3.291,7.736-6.119c0.732-1.139,3.332-3.469,1.288-4.209c-0.604,0.9-1.188,1.881-1.792,2.781"/>
	</g>
</g>
<g>
	<g>
		<path fill="#020202" d="M234.375,308.88c12.738,18.176,18.895,39.635,27.412,59.865c2.566-0.332,0.513-2.709-0.096-4.213
			c-1.14-2.826-1.813-5.834-2.897-8.683c-2.069-5.43-4.546-10.698-6.687-16.104c-4.416-11.131-8.658-22.576-15.555-32.422
			c-0.39,0.274-1.243,0.752-1.542,1.115"/>
	</g>
</g>
<g>
	<g>
		<path fill="#020202" d="M178.536,182.518c2.284,2.807,3.747,6.178,4.47,9.727c0.372,1.813,0.551,3.646,0.498,5.492
			c0.266,0.229,1.631,0.041,2.006,0.053c0.175-5.953-1.856-11.719-5.625-16.352c-0.491,0.396-0.922,0.723-1.411,1.119"/>
	</g>
</g>
<g>
	<g>
		<path fill="#020202" d="M212.327,232.415c1.906,1.047,3.923,0.174,3.54,2.942c-1.032,1.037-3.212,0.023-4.515-0.219
			c-0.799,2.312,4.648,2.584,5.664,0.781c1.854-3.295-4.109-5.895-4.629-3.553"/>
	</g>
</g>
<g>
	<g>
		<path fill="#020202" d="M288.567,180.548c0.07,0.125,0.124,0.229,0.193,0.356c-0.153-0.165-0.323-0.271-0.476-0.438
			c-1.177,0.373-1.038,4.07-1.004,5.021c0.045,1.17,1.44,0.713,2.371,0.701c2.132-0.025,3.13,0.396,2.743-2.31
			c-0.21-1.457-2.441-4.291-3.895-3.353 M289.038,181.402c0.758,0.986,2.119,1.574,2.119,2.988c0,0.969-1.863,0.576-2.667,0.566
			c0.024-1.16,0.237-2.396,0.532-3.516"/>
	</g>
</g>
<g>
	<g>
		<path fill="#020202" d="M312.914,274.57c1.686,0.82,1.226-1.088,2.488-1.698c1.082-0.522,2.471,0.305,2.158-1.463
			c-2.242-0.252-4.292,0.817-4.681,3.161"/>
	</g>
</g>
<line id="NippleLine" fill="none" stroke="#364B9E" stroke-width="3" stroke-miterlimit="10" x1="128.061" y1="293.714" x2="363.766" y2="133.316"/>
<g id="Hand">
	<path fill="#0892C0" d="M642.854,9.802c0,0-17.024-3.244-27.971-0.407c-10.941,2.839-19.863,4.46-40.131,4.46
		c-20.271,0-42.563,1.216-44.59,1.622c-2.025,0.406-4.053,0.812-4.053,0.812s2.023,15.404,4.862,30.402
		c2.841,15,5.679,23.513,5.679,25.944c0,2.432,0,4.053,0,4.053s3.243-1.621,12.563-8.512c9.324-6.891,19.15-3.271,23.254-3.057
		c8.112-1.46,9.1,0.237,11.525-0.979c2.435-1.216,6.938-0.812,14.641,0c7.703,0.81,8.598-1.801,17.99,0
		c7.195,0,15.308-1.801,20.985-1.801C643.279,62.336,642.854,9.802,642.854,9.802z"/>
	<path fill="#ECAF8B" d="M526.239,18.313c0,0-7.566,1.352-17.564,5.947c-9.999,4.594-19.188,5.676-27.563,9.728
		c-8.377,4.053-7.299,7.297-12.704,15.405c-5.403,8.106-12.161,17.295-17.025,24.593c-4.864,7.295-10.54,11.351-10.811,14.592
		c-0.271,3.243,1.081,3.784,1.081,3.784s-5.943,7.837-4.596,9.458c1.354,1.622,6.486,2.703,17.024-4.595
		c10.543-7.297,18.918-13.784,23.782-18.107c4.864-4.324,8.816-9.684,9.999-2.972c2.453,5.976,3.582,6.418,7.906,6.958
		c4.324,0.542,6.688-0.472,7.769-0.742c1.081-0.27,4.053,4.865,9.997,4.865c5.947,0,11.084-3.784,14.596-7.297
		c3.518-3.512,8.379-5.675,8.379-5.675s0-4.324-3.247-17.836C530.023,42.906,526.239,18.313,526.239,18.313z"/>
	<path fill="#F2D7C5" d="M442.732,103.442c3.018-1.812,5.401-5.675,2.974-8.106c-2.434-2.432-7.297,2.162-8.379,3.784
		c-1.08,1.621-1.08,1.621-1.08,1.621S438.679,105.874,442.732,103.442z"/>
	<path fill="#F2D7C5" d="M441.651,92.361c0-1.892-1.08-4.054,0.271-6.757c1.354-2.701,4.323-2.162,5.408-1.351
		c1.08,0.81,1.348,1.892,1.348,1.892L441.651,92.361z"/>
	<g>
		<g>
			<g>
				<path fill="#020202" d="M604.109,10.131c-6.178,1.526-12.193,3.34-18.604,3.058c-7.887-0.349-16.724-0.615-24.664-0.365
					c-12.503,0.394-23.507,0.856-35.922,2.344c0.146,1.224-0.442,2.115,0.719,1.98c1.73-0.202,3.43-0.726,5.16-0.917
					c5.775-0.633,11.172-1.009,16.96-1.455c4.837-0.38,10.088-0.062,14.94-0.187c6.146-0.154,12.098,0.088,18.191,0.745
					c9.449,1.016,17.93-1.898,27.102-3.958c5.963-1.34,12.056-2.95,18.175-2.964c3.219-0.007,6.376,1.477,9.553,1.959
					c1.705,0.258,3.508-0.048,5.184,0.348c1.584,0.372,1.807,0.417,2.191-1.061C630.246,6.256,616.867,6.975,604.109,10.131"/>
			</g>
		</g>
		<g>
			<g>
				<path fill="#020202" d="M525.54,13.812c0.284,11.88,3.093,23.51,5.311,35.115c1.068,5.596,2.803,10.939,4.188,16.469
					c0.65,2.59,1.408,5.296,1.438,7.977c0.021,1.347-0.896,2.633-1.174,3.952c-0.207,0.973-0.555,1.961,0.855,2.007
					c1.726-5.512,0.695-11.208-0.734-16.614c-1.534-5.784-3.207-11.499-4.396-17.357c-1.15-5.644-1.515-11.44-2.493-17.115
					c-0.488-2.834-1.292-5.622-1.577-8.485c-0.145-1.417-0.521-2.831-0.586-4.255c-0.046-0.994,0.907-2.067-0.449-1.658"/>
			</g>
		</g>
		<g>
			<g>
				<path fill="#020202" d="M528.2,18.22c-0.102,1.467,1.862,0.176,2.73,0.017c1.722-0.311,3.493-0.284,5.22-0.554
					c3.537-0.556,7.084-1.024,10.645-1.378c3.286-0.328,6.581-0.331,9.882-0.435c1.433-0.047,2.853-0.146,4.28-0.141
					c0.878,0.004,3.116,0.486,2.771-0.908c-11.923-0.339-23.837,1.207-35.521,3.465"/>
			</g>
		</g>
		<g>
			<g>
				<path fill="#020202" d="M528.068,21.565c-0.082,1.442,2.146,0.613,3.014,0.443c1.682-0.333,3.439-0.213,5.131-0.488
					c3.778-0.613,7.545-1.16,11.355-1.535c3.445-0.34,6.876-1.194,10.339-1.319c1.591-0.059,3.191,0.27,4.784,0.273
					c0.899,0.004,3.496,0.752,3.147-0.655c-12.537-0.466-25.473,0.723-37.707,3.42"/>
			</g>
		</g>
		<g>
			<g>
				<path fill="#020202" d="M545.651,24.092c-3.298,0.381-6.646,0.242-9.952,0.528c-1.515,0.131-3.009,0.345-4.521,0.413
					c-0.834,0.039-2.471-0.393-2.083,0.906c6.447-0.099,12.875-0.462,19.271-1.19c3.413-0.388,6.762-1.488,10.188-1.722
					c1.603-0.11,3.229,0.354,4.831,0.328c0.902-0.013,3.315,0.605,2.979-0.81c-6.937-0.248-13.86,0.515-20.732,1.311"/>
			</g>
		</g>
		<g>
			<g>
				<path fill="#020202" d="M546.399,29.311c-3.062,0.483-6.147,0.801-9.216,1.261c-1.379,0.207-2.772,0.305-4.15,0.499
					c-0.854,0.121-2.882-0.314-2.327,1.004c6.713-0.897,13.41-1.675,20.1-2.721c3.449-0.539,6.841-1.506,10.304-1.987
					c1.71-0.236,3.471-0.089,5.182-0.3c0.866-0.106,2.979-0.244,2.451-1.59c-7.481,0.836-14.941,2.394-22.381,3.567"/>
			</g>
		</g>
		<g>
			<g>
				<path fill="#020202" d="M552.809,34.145c-4.149,0.714-8.387,1.031-12.604,1.231c-2.987,0.141-6.358,0.063-9.238,0.952
					c0.021,1.275,1.588,0.492,2.434,0.405c1.679-0.175,3.382,0.143,5.058,0.062c3.138-0.151,6.221-0.734,9.327-1.213
					c4.238-0.655,8.4-1.837,12.65-2.405c2.235-0.299,4.547,0.108,6.803,0.032c1.017-0.036,4.383,0.799,4.085-0.646
					c-6.263-0.392-12.396,0.386-18.538,1.444"/>
			</g>
		</g>
		<g>
			<g>
				<path fill="#020202" d="M553.807,38.697c-4.002,1.012-8.164,1.828-12.309,2.004c-2.924,0.124-6.028,0.055-8.908,0.623
					c-0.115,1.392,2.16,0.895,3.063,0.835c1.228-0.077,2.438-0.35,3.671-0.403c2.765-0.119,5.447-0.414,8.173-0.965
					c4.1-0.831,8.07-2.232,12.161-3.099c1.901-0.402,3.896-0.241,5.839-0.411c1.021-0.09,4.439,0.076,4.145-1.335
					c-5.359-0.311-10.671,1.496-15.82,2.798"/>
			</g>
		</g>
		<g>
			<g>
				<path fill="#020202" d="M551.679,44.14c-3.327,0.629-6.663,1.227-10.027,1.593c-1.704,0.186-3.419,0.165-5.135,0.181
					c-0.963,0.011-3.866-0.37-3.595,1.093c6.633,0.501,13.246-1.127,19.73-2.349c3.134-0.591,6.333-0.7,9.511-1.03
					c1.749-0.184,3.473-0.742,5.229-0.742c0.897-0.002,3.101,0.425,2.814-0.998c-6.211-0.407-12.41,1.333-18.484,2.481"/>
			</g>
		</g>
		<g>
			<g>
				<path fill="#020202" d="M534.52,51.216c-0.097,1.294,1.287,0.887,2.082,0.728c1.551-0.311,3.076-0.732,4.636-1.022
					c3.398-0.635,6.784-1.344,10.211-1.827c3.249-0.458,6.521-0.601,9.798-0.829c1.682-0.117,3.347-0.308,5.028-0.33
					c0.882-0.011,3.144,0.219,2.796-1.167c-11.563-0.348-23.232,2.305-34.515,4.614"/>
			</g>
		</g>
		<g>
			<g>
				<path fill="#020202" d="M536.321,55.228c0.106,1.361,1.636,0.584,2.438,0.331c1.432-0.45,2.79-1.124,4.25-1.464
					c3.271-0.759,6.571-1.455,9.903-1.831c3.052-0.346,6.136-0.443,9.203-0.588c1.462-0.07,2.924-0.095,4.388-0.134
					c0.874-0.023,3.195,0.494,2.782-0.894c-11.012,0.188-22.445,0.986-32.885,4.804"/>
			</g>
		</g>
		<g>
			<g>
				<path fill="#020202" d="M534.83,61.002c0.188,1.384,1.729-0.134,2.53-0.443c1.412-0.545,2.845-1.024,4.288-1.462
					c3.063-0.93,6.155-1.876,9.317-2.392c3.476-0.566,7.021-0.722,10.533-0.902c1.898-0.098,3.804,0.183,5.704,0.174
					c0.938-0.005,3.795,0.303,3.432-1.169c-12.142-0.247-24.787,0.862-36.015,5.787"/>
			</g>
		</g>
		<g>
			<g>
				<path fill="#020202" d="M534.975,64.604c0.377,1.242,1.25-0.106,1.979-0.497c1.368-0.739,2.818-1.362,4.287-1.883
					c3.179-1.134,6.564-1.58,9.902-2.044c3.649-0.507,7.318-0.604,10.999-0.706c1.904-0.052,3.807-0.341,5.712-0.333
					c0.923,0.002,3.641,0.916,3.271-0.546c-11.825-0.182-25.975-0.919-36.325,5.748"/>
			</g>
		</g>
		<g>
			<g>
				<path fill="#020202" d="M533.451,70.257c0.559,1.356,2.449-0.358,3.205-0.875c1.647-1.13,3.188-2.441,4.965-3.368
					c3.235-1.693,6.71-2.959,10.247-3.861c3.526-0.899,7.178-0.95,10.821-1.01c1.979-0.032,3.98-0.525,5.955-0.318
					c0.979,0.101,3.959,1.658,3.817,0.186c-13.84-2.483-27.787,0.767-38.899,9.366"/>
			</g>
		</g>
		<g>
			<g>
				<path fill="#020202" d="M552.785,62.932c-3.014,0.503-5.639,1.637-8.031,3.481c-1.311,1.01-2.63,2.011-3.971,2.984
					c-0.772,0.561-3.27,1.317-2.285,2.368c2.822-1.489,5.211-3.486,7.787-5.325c2.773-1.98,5.701-2.934,9.095-3.172
					c4.883-0.343,9.87,0.558,14.733,0.977c0.555-1.45-3.557-1.188-4.525-1.272c-4.292-0.371-8.558-1.032-12.846-0.316"/>
			</g>
		</g>
		<g>
			<g>
				<path fill="#020202" d="M510.024,22.636c-3.619,1.75-7.397,4.289-11.352,5.135c-3.413,0.732-6.062,1.454-9.39,2.507
					c-6.721,2.127-13.36,5.168-17.692,10.897c0.187,0.141,1.171,1.121,1.386,1.111c0.821-1.087,1.05-2.792,2.035-3.728
					c1.782-1.686,4.374-2.324,6.52-3.507c4.633-2.55,9.542-4.453,14.662-5.653c5.831-1.366,10.854-3.533,16.257-6.115
					c2.566-1.227,5.094-1.771,7.845-2.539c1.51-0.422,3.254-0.945,4.816-1.07c1.118-0.09,0.573-1.532,0.527-2.527
					C520.186,17.387,514.861,20.301,510.024,22.636"/>
			</g>
		</g>
		<g>
			<g>
				<path fill="#020202" d="M461.378,58.041c-4.56,6.077-7.319,13.173-12.709,18.568c-3.093,3.095-12.297,11.039-7.163,15.785
					c0.188-0.198,0.657-0.568,0.701-0.821c-0.811-0.75-0.529-1.901-0.424-2.98c0.23-2.402,1.438-4.677,2.899-6.501
					c3.57-4.453,7.964-8.037,10.894-13.012c6.296-10.698,15.779-19.371,19.2-31.646c-0.352-0.098-0.427,0.129-0.775,0.032
					c-0.182-0.051-1.129,2.903-1.269,3.279c-0.805,2.146-2.053,3.51-3.173,5.507C467.219,50.427,464.246,54.22,461.378,58.041"/>
			</g>
		</g>
		<g>
			<g>
				<path fill="#020202" d="M465.582,71.309c-3.324,2.432-6.029,4.726-8.798,7.736c-2.222,2.419-4.78,4.431-7.337,6.473
					c-5.825,4.653-10.563,10.046-14.835,16.104c1.299,1.424,2.249-1.821,2.976-2.814c1.709-2.351,3.531-4.666,5.541-6.772
					c3.688-3.864,8.112-6.758,12.043-10.319c1.908-1.727,3.448-3.705,5.233-5.539c2.039-2.099,4.454-3.88,6.799-5.611
					c4.688-3.463,9.062-7.132,12.6-11.796c-1.005-1.316-1.863,0.325-2.543,1.128c-1.313,1.564-2.521,3.188-4.019,4.583
					c-2.506,2.332-4.981,4.697-7.744,6.712"/>
			</g>
		</g>
		<path fill="#020202" d="M537.367,72.606c-2.94,1.746-5.623,3.993-8.221,6.198l-0.021-0.023c-3.667,3.111-7.489,7-12.381,7.932
			c-2.449,0.467-4.923,0.166-7.116-1c-1.287-0.686-2.354-1.719-3.437-2.694c-0.058-0.048-0.099-0.088-0.146-0.133
			c0.222-0.481,0.002-1.17-0.682-1.15c-5.663,0.17-11.738,2.299-15.099-3.565c-0.846-1.479-1.603-2.837-2.681-3.805
			c0.189,0.005,0.382-0.002,0.566,0.016c1.582,0.159,1.229,1.581,2.16,0.139c-1.271-0.822-2.622-1.095-3.991-1.012
			c-0.576-0.283-1.234-0.48-2.016-0.566c-0.694-0.077-0.899,0.636-0.646,1.137c-2.832,1.024-5.516,3.171-7.37,4.885l0.111,0.119
			c-5.891,5.438-12.648,9.859-18.832,14.961c-3.695,3.051-7.608,5.975-12.104,7.771c-1.896,0.763-4.036,1.892-6.032,1.092
			c-1.075-0.431-1.59-1.469-2.146-2.471c-0.684-1.243-1.18-1.019-2.48-0.545c4.563,12.54,21.367-3.396,26.769-7.572
			c4.583-3.545,9.763-6.394,14.145-10.182c2.645-2.285,4.699-5.432,7.878-6.977c0.425-0.207,0.896-0.361,1.376-0.491
			c3.448,0.93,3.784,5.784,6.575,7.746c3.729,2.617,8.854,1.216,13.145,0.954c5.174,4.921,11.365,6.44,17.761,2.636
			c2.796-1.666,5.048-4.126,7.52-6.226c1.725-1.46,2.847-2.112,4.667-3.448c0.879-0.644,1.915-1.063,2.854-1.621
			C537.519,74.49,537.489,72.811,537.367,72.606z"/>
		<g>
			<g>
				<path fill="#020202" d="M493.443,75.374c-0.018,0.8,0.018,1.617-0.23,2.386c-0.249,0.762-1.125,1.3-0.015,1.649
					c1.059-1.627,0.89-3.235,1.049-5.069c0.063-0.722,0.354-1.385,0.752-1.997c0.43-0.667,1.313-1.074,0.316-1.678
					c-1.406,1.314-1.91,2.845-1.94,4.708"/>
			</g>
		</g>
		<g>
			<g>
				<path fill="#020202" d="M504.069,81.285c1.316,0.23,2.64,0.583,3.839,1.188c0.833,0.42,1.989,2.004,2.693,0.942
					c-1.504-1.782-4.171-2.557-6.387-2.946c-0.045,0.247-0.168,0.522-0.143,0.771"/>
			</g>
		</g>
		<g>
			<g>
				<path fill="#020202" d="M440.374,95.885c-1.284,1.191-2.448,2.494-3.648,3.768c0.705,1.212,1.633-0.556,2.204-1.153
					c1.257-1.306,2.613-2.895,4.405-3.444c1.956-0.601,3.171,1.179,2.976,2.997c-0.117,1.1-0.796,2.083-1.476,2.916
					c-0.528,0.647-1.967,1.405-0.813,2.056c1.989-1.976,4.063-4.555,2.516-7.446c-1.439-2.68-4.543-1.324-6.229,0.24"/>
			</g>
		</g>
		<g>
			<g>
				<path fill="#020202" d="M442.258,84.086c0.525,1.159,2.233-0.557,3.478-0.188c1.11,0.331,1.568,2.309,2.583,1.648
					c-0.814-2.732-4.008-3.118-6.004-1.429"/>
			</g>
		</g>
		<g>
			<g>
				<path fill="#020202" d="M461.25,78.994c0.871,0.803,1.748,1.606,2.49,2.529c0.549,0.677,0.983,2.365,1.944,1.442
					c-0.948-1.769-2.43-3.198-3.891-4.55c-0.173,0.185-0.447,0.366-0.559,0.589"/>
			</g>
		</g>
		<g>
			<g>
				<path fill="#020202" d="M459.763,79.832c0.595,0.791,1.813,3.803,2.829,2.76c-0.661-1.13-1.354-2.235-2.144-3.282
					c-0.201,0.152-0.505,0.305-0.657,0.502"/>
			</g>
		</g>
		<g>
			<g>
				<path fill="#020202" d="M448.726,90.336c0.817,0.655,2.348,3.335,3.223,2.295c-0.75-1.104-1.672-2.089-2.714-2.925
					c-0.157,0.197-0.415,0.406-0.519,0.636"/>
			</g>
		</g>
		<g>
			<g>
				<path fill="#020202" d="M458.786,69.817c1.004,1.246,2.115,2.406,3.302,3.48c1.17-0.742-0.516-1.607-1.112-2.237
					c-0.595-0.631-1.336-2.382-2.146-1.257"/>
			</g>
		</g>
		<g>
			<g>
				<path fill="#020202" d="M457.64,71.895c0.774,0.636,1.619,1.203,2.509,1.675c0.906-0.95-1.954-2.881-2.482-1.68"/>
			</g>
		</g>
		<g>
			<g>
				<path fill="#020202" d="M451.883,79.12c0.604,0.842,1.318,1.61,2.104,2.29c1.085-0.713-1.276-3.313-2.087-2.298"/>
			</g>
		</g>
		<g>
			<g>
				<path fill="#020202" d="M494.807,80.689c-0.081,0.237-0.021,0.554-0.032,0.806c2.196,0.103,4.277-0.704,6.105-1.876
					c-0.38-1.193-1.119-0.184-1.876,0.178c-1.301,0.63-2.743,0.935-4.194,0.867"/>
			</g>
		</g>
		<g>
			<g>
				<path fill="#020202" d="M478.063,46.879c0.028,1.359,2.218,0.314,3.174,0.284c1.273-0.041,2.563,0.09,3.836,0.107
					c0.318-1.082-0.554-0.817-1.312-0.827c-1.901-0.026-3.856-0.104-5.702,0.455"/>
			</g>
		</g>
	</g>
	<path fill="#020202" d="M635.801,61.311c-9.082,1.933-18.235,1.961-27.475,1.628c-9.359-0.337-18.557,0.137-27.887,0.762
		c-4.168,0.278-8.149-0.609-12.288-0.797c-3.521-0.162-7.064,0.461-10.462,1.332c-7.773,1.99-14.813,6.461-21.217,11.146
		c-0.821,0.601-0.025,1.991,0.81,1.38c6.748-4.941,13.919-9.215,22.085-11.307c4.552-1.166,9.268-1.198,13.874-0.405
		c3.774,0.65,7.653,0.243,11.438-0.082c17.163-1.474,34.584,1.492,51.544-2.117C637.232,62.639,636.805,61.098,635.801,61.311z"/>
	<rect id="FingersTarget" x="419.912" y="74.089" fill="#D9A988" fill-opacity="0" width="41.716" height="37.302"/>
	<polyline id="FingerClick" fill="#D9A988" fill-opacity="0" points="422.939,95.458 474.776,37.434 494.247,74.34 441.477,122.728 
			"/>
</g>
<rect id="CompressionsTarget" x="246.534" y="204.191" fill="#D9A988" fill-opacity="0" width="27.513" height="23.728"/>
<rect id="FingersTargetFixed" x="419.913" y="74.089" fill="#D9A988" fill-opacity="0" width="41.715" height="37.3"/>
<g>
	<g>
		<path fill="#020202" d="M142.581,64.036c-12.306,5.443-23.591,17.482-28.366,30.382c-2.716,7.336-4.887,19.812-3.521,28.22
			c1.379,8.485,6.095,18.696,10.67,26.157c4.575,7.463,15.285,14.69,15.285,14.69l0.381-2.024
			c-17.942-12.111-21.871-26.813-23.731-36.713c-1.105-12.743-2.136-17.214,2.687-29.938c4.357-11.492,13.985-22.154,24.566-27.884
			c11.044-5.984,23.922-8.627,35.77-6.791c6.143,0.951,13.288,2.327,19.163,5.248c3.307,1.644,10.188,6.146,11.615,7.18
			c4.82,4.229,12.803,8.567,20.241,21.284c0,0,1.337,0.77,1.243-0.371c-0.093-1.141-7.557-11.898-20.161-23.164
			c-10.089-7.294-18.856-10.247-30.64-11.942C166.374,56.731,153.464,59.22,142.581,64.036"/>
	</g>
</g>
</svg>
