<?xml version="1.0" encoding="utf-8"?>
<!-- Generator: Adobe Illustrator 15.0.0, SVG Export Plug-In . SVG Version: 6.00 Build 0)  -->
<!DOCTYPE svg PUBLIC "-//W3C//DTD SVG 1.1//EN" "http://www.w3.org/Graphics/SVG/1.1/DTD/svg11.dtd">
<svg version="1.1" id="Layer_1" xmlns="http://www.w3.org/2000/svg" xmlns:xlink="http://www.w3.org/1999/xlink" x="0px" y="0px"
	 width="640px" height="360px" viewBox="0 0 640 360" enable-background="new 0 0 640 360" xml:space="preserve">
<g>
	<path fill="#0892C0" d="M158.815,38.253c-3.541,25.968-7.082,54.298-7.082,76.727c0,22.427-3.542,27.74-5.901,32.46
		c-2.36,4.723-8.262,0-6.492,10.624c1.771,10.625,3.542,11.216,3.542,12.985c0,1.771,1.18,20.066,5.9,39.541
		c4.723,19.479,10.626,54.303,12.396,58.436c1.771,4.129,46.035-7.084,46.035-7.084s-5.903-31.276-7.67-54.299
		c-1.771-23.021-6.493-34.23-8.263-35.415c-1.771-1.178,2.36-4.128,2.36-7.67s4.131-33.643,6.493-55.481
		c2.361-21.838,6.492-60.202,6.492-60.202L158.815,38.253z"/>
	<path fill="#0892C0" d="M195.999,42.386c2.951,5.313,2.951,14.164,1.18,26.558c-1.771,12.395-2.361,20.068,4.131,28.33
		c6.492,8.262,6.492,11.214,6.492,11.214s12.395,41.313,7.673,71.415c-4.722,30.101-10.034,34.82-12.395,54.295
		c-2.363,19.481,1.179,46.631,1.179,46.631h191.818c0,0,5.313-34.233-2.95-74.367c-8.258-40.134-17.109-59.022-14.749-80.859
		c2.358-21.837,4.132-24.788,4.132-24.788s9.434-18.887,4.723-36.004c-4.723-17.115-4.723-20.657-4.723-20.657L195.999,42.386z"/>
	<path fill="#1083AA" d="M198.95,162.196c-12.037-6.491-26.592-9.5-40.056-10.621c7.642,4.575,14.755,10.547,22.378,14.48
		c-2.975,0.356-7.123,0.915-10.64,1.07c6.653,4.74,14.763,5.777,23.505,5.517c0.116-3.771,0.414-7.832,0.09-11.627"/>
	<path fill="#1083AA" d="M143.991,165.738c-0.02,37.495,25.921,64.112,28.317,100.206c-19.72,2.73-24.078-49.935-25.374-69.517"/>
	<path fill="#1083AA" d="M195.802,77.6c-0.089,28.004-2.546,55.429-1.573,83.417c4.769-23.309,13.305-50.665,4.722-73.187"/>
	<path fill="#0C89B5" d="M389.041,72.832c-0.604,23.718-19.409,28.035-39.135,28.901c-11.653,0.51-40.012,0.34-18.067,10.719
		c27.063,12.795,57.91-4.24,57.2-33.573"/>
	<path fill="#0C89B5" d="M196.058,72.832c0.601,23.718,19.407,28.035,39.133,28.901c11.654,0.51,40.014,0.34,18.063,10.719
		c-27.061,12.795-57.909-4.24-57.196-33.573"/>
</g>
<rect id="ExtendedTable" x="-49.5" y="303.255" fill="#F2F3DC" width="692.044" height="75.55"/>
<path fill="#D3D8B9" d="M148.539,335.128c-11.875,0.12-39.752,0.939-47.167,10.982c38.939,8.948,81.342-2.564,119.715-0.903
	c2.348,15.751,73.678,11.271,86.525,11.729c31.193,1.111,62.701,3.177,93.701,4.867c6.014,0.339,20.693,2.889,25.207-3.083
	c4.689-6.189-4.598-12.068,0.159-17.583c3.873-4.475,44.197-0.681,50.081-0.71c10.171-0.055,20.905-0.66,31.073,0
	c9.946,0.655,20.137,5.583,29.887,5.235c8.4-0.303,13.251-4.037,21.009-5.989c7.514-1.891,57.66,2.418,60.815-7.479
	c6.303-19.809-226.099-28.438-240.228-28.97c-25.164-0.945-244.426-20.27-236.102,20.083"/>
<g>
	<path fill="#0892C0" d="M427.651,32.167c0,8.679,6.194,29.759,4.131,60.757c-2.063,30.996,2.242,63.287,0.176,71.138
		c-2.064,7.853-43.896,13.133-51.335,13.548c-7.439,0.41-6.702-37.571-6.702-41.703c0-4.133,4.545-18.6,5.368-25.213
		c0.837-6.614-3.719-63.651-3.719-66.542C375.573,41.26,427.651,32.167,427.651,32.167z"/>
	<path fill="#1083AA" d="M386,96.88c-0.002,9.277,3.652,30.233-1.874,38.58c-4.673,7.061-10.196,3.796-10.052-4.017
		c0.199-10.434,5.96-24.175,11.542-32.593"/>
</g>
<g>
	<g>
		<g>
			<path fill="#020202" d="M156.569,53.95c-1.459,13.411-1.305,26.908-2.143,40.377c-0.535,8.603-2.521,17.07-3.673,25.615
				c-0.686,5.077-0.336,10.329-1.313,15.357c-0.549,2.824-1.985,5.47-2.615,8.276c-0.52,2.31-0.883,2.457,1.276,2.962
				c5.036-21.582,7.203-43.115,8.785-65.13c0.563-7.822-0.071-15.755,0.779-23.55c0.359-3.293,0.671-6.587,1.02-9.878
				c0.354-3.323,1.577-6.556,1.979-9.873c0.204-1.674-0.201-3.331,0.022-5.004c-0.23-0.237-0.547-0.17-0.898-0.218
				c-0.941,7.036-1.09,14.151-1.821,21.212"/>
		</g>
	</g>
	<g>
		<g>
			<path fill="#020202" d="M138.495,158.118c-0.078,4.16,3.625,6.412,7.116,7.616c0.442-1.281,0.924-1.167-0.466-1.729
				c-1.702-0.688-3.437-1.827-4.419-3.445c-1.648-2.72,0.334-5.796,2.065-7.973c2.337-2.939,5.104-5.689,8.3-7.621
				c1.303-0.786,2.833-1.159,4.249-1.721c1.467-0.584,1.058-0.629,0.613-2.092c-6.714,2.042-17.634,9.071-17.78,16.959"/>
		</g>
	</g>
	<g>
		<g>
			<path fill="#020202" d="M141.512,157.707c0.288,20.052,4.094,39.878,8.948,59.273c0.512-0.131,0.968-0.78,1.481-0.91
				c0.335-0.088-0.777-2.737-0.893-3.229c-0.769-3.181-1.694-6.336-2.388-9.534c-1.334-6.152-2.419-12.386-3.36-18.604
				c-0.793-5.244-1.453-10.536-1.853-15.823c-0.19-2.495,0.091-5.022,0.004-7.522c-0.043-1.225,0.455-2.543,0.438-3.769
				c-0.222-0.196-1.423,0.117-1.75,0.123"/>
		</g>
	</g>
	<g>
		<g>
			<path fill="#020202" d="M208.28,108.54c2.841,15.462,7.085,30.901,8.506,46.569c1.078,11.888-0.912,23.347-3.903,34.888
				c-3.183,12.28-6.07,24.558-8.759,36.962c0.515,0.109,0.001,0.678,0.517,0.805c0.332,0.067,2.121-3.627,2.235-4.125
				c0.842-3.639,0.302-7.613,1.26-11.217c1.747-6.604,4.464-12.945,6.217-19.547c3.269-12.318,4.556-24.398,3.462-37.138
				c-1.014-11.796-6.568-39.784-7.001-42.145c-0.285-1.552-1.024-3.021-1.31-4.576c-0.199-1.08-0.571-0.699-1.574-0.518"/>
		</g>
	</g>
	<g>
		<g>
			<path fill="#020202" d="M384.314,54.621c3.336,11.826,5.732,24.727,2.143,36.807c-2.316,7.792-7.287,14.28-14.355,18.289
				c-5.026,2.853-10.664,5.076-16.391,5.904c-2.982,0.432-6.095,0.754-9.105,0.514c-1.594-0.128-4.869-2.323-4.664,0.2
				c18.938,3.703,41.082-6.04,46.242-25.597c3.187-12.081,0.303-24.577-3.015-36.337c-0.438,0.123-0.446-0.006-0.838,0.219"/>
		</g>
	</g>
	<g>
		<g>
			<path fill="#020202" d="M215.477,111.474c9.031,4.547,19.175,7.295,29.187,5.339c0.187-2.33-2.241-1.132-3.737-0.97
				c-2.995,0.326-6-0.473-8.988-0.822c-6.124-0.717-12.435-1.954-17.794-4.993c-7.303-4.138-12.757-11.039-14.987-19.12
				c-1.97-7.133-1.354-14.855-0.266-22.123c0.46-3.072,1.258-6.078,2.011-9.089c0.407-1.618,2.327-5.38-0.158-5.453
				c-5.771,20.468-7.634,46.139,14.658,57.372"/>
		</g>
	</g>
	<g>
		<g>
			<path fill="#020202" d="M377.184,128.82c-0.603,16.4,3.069,33.81,6.676,49.688c2.692,11.85,8.188,23.082,10.363,35.041
				c1.067,5.901,1.283,11.967,1.549,17.96c0.127,2.778-0.265,5.56-0.319,8.343c-0.013,0.479,0.059,3.57,0.392,3.586
				c0.529,0.022,2.349,0.127,2.87,0.146c0.697-13.93-1.299-28.521-5.146-41.943c-4.063-14.188-9.531-27.938-11.896-42.533
				c-1.473-9.107-1.036-18.546-1.172-27.79c-0.075-5.012-1.13-10.078-0.866-15.081c0.105-2.02,1.909-3.92,2.084-5.935
				c0.165-1.972,0.252-1.844-1.794-2.104c-0.885,6.936-2.116,13.49-2.37,20.465"/>
		</g>
	</g>
	<g>
		<g>
			<path fill="#020202" d="M200.252,108.109c-0.833,9.826-1.678,19.653-2.988,29.428c-0.66,4.927-1.613,9.796-2.571,14.67
				c-0.479,2.441-0.578,4.96-1.153,7.375c-0.354,1.485-1.607,4.178,0.835,4.145c4.104-15.685,5.544-32.027,6.958-48.135
				c0.388-4.416,1.02-8.814,1.409-13.23c0.172-1.953,0.317-3.908,0.488-5.863c0.112-1.296,0.157-1.57-1.463-1.425
				c-0.386,4.386-0.979,8.664-1.365,13.049"/>
		</g>
	</g>
	<g>
		<g>
			<path fill="#020202" d="M182.667,156.487c1.305,1.851,2.888,3.465,4.587,4.958c1.212,1.062,5.224,3.158,5.309,4.612
				c-3.197,0.065-6.367,0.005-9.563-0.098c-1.416-0.046-6.128-1.201-5.693,0.944c5.501,0.382,11,0.568,16.514,0.432
				c-0.024-0.644,0.234-1.842-0.007-2.404c-0.419-0.968-3.271-2.058-4.15-2.739c-1.594-1.237-3.13-2.594-4.47-4.108
				c-0.794-0.893-1.538-2.986-2.706-1.532"/>
		</g>
	</g>
	<g>
		<g>
			<path fill="#020202" d="M188.594,173.612c6.121,4.834,8.244,13.664,9.216,20.93c0.972,7.272,0.039,14.701,0.446,22.022
				c0.34,6.1,2.146,11.877,3.355,17.877c0.949,4.717,1.769,9.463,2.808,14.156c0.401,1.813,1.618,3.441,2.021,5.258
				c0.324,1.453-0.706,2.42,0.979,1.713c-2.93-13.147-6.257-26.271-7.009-39.773c-0.403-7.331-0.275-14.732-1.279-22.027
				c-1.039-7.539-3.323-16.25-9.645-21.246c-0.274,0.345-0.329,0.208-0.499,0.614"/>
		</g>
	</g>
	<g>
		<g>
			<path fill="#020202" d="M384.199,53.294c0.283,0.226,0.564,0.236,0.898,0.38c3.143-7.346,5.774-14.932,7.76-22.669
				c-1.586-0.893-1.381,0.896-1.693,2.052c-0.643,2.359-1.479,4.665-2.227,6.994c-1.426,4.467-2.869,8.944-4.709,13.255"/>
		</g>
	</g>
</g>
<g>
	<g>
		<path id="ExtendedLine" fill="#020202" d="M-41.729,302.052c-2.667,2.003,9.996,1.329,14.443,1.329
			c14.342,0,28.683,0.018,43.023,0.018c15.237,0,30.481,0.021,45.729,0.021c3.229,0,20.917,0.498,23.293-0.113
			c6.27-1.617-14.717-1.521-15.741-1.521c-14.341,0-28.679,0.416-43.017,0.416c-22.833,0-45.668-0.379-68.501-0.379"/>
	</g>
</g>
<g>
	<g>
		<path fill="#020202" d="M625.038,302.064c-0.69,2.039,2.821,1.098,3.97,1.098c3.908,0,7.799-0.227,11.7-0.227
			c4.083,0,8.153,0.211,12.231,0.211c0.71,0,5.013,0.438,5.492-0.123c1.488-1.729-3.652-1.271-4.049-1.271
			c-3.905,0-7.798-0.021-11.695-0.021c-5.969,0-11.937-0.018-17.891-0.018"/>
	</g>
</g>
<g>
	<g>
		<path fill="#020202" d="M196.44,46.113c1.864,1.13,2.95,3.05,3.233,5.194c0.209,1.573-1.011,4.204,1.33,4.011
			c0.787-3.942-0.194-8.226-3.817-10.426c-0.23,0.377-0.59,0.757-0.709,1.182"/>
	</g>
</g>
<g>
	<g>
		<path fill="#020202" d="M387.618,127.06c-3.966,3.197-10.203,4.691-12.351,9.77c1.404,1.146,1.834-1.081,2.688-1.997
			c1.386-1.475,3.165-2.64,4.905-3.64c3.891-2.237,7.438-4.904,11.359-7.073c3.445-1.908,7.214-3.121,11.077-3.87
			c2.043-0.396,4.104-0.483,6.183-0.589c1.337-0.071,4.883,0.798,4.381-1.261c-10.312-0.298-20.166,2.131-28.258,8.651"/>
	</g>
</g>
<g>
	<g>
		<path fill="#020202" d="M426.74,29.714c2.895,18.546,4.241,37.353,4.563,56.131c0.124,7.968,0.659,15.893,0.269,23.849
			c-0.219,4.257-0.205,8.876-0.528,13.126c-0.155,2.037,1.091,39.204,0.918,41.242c-0.178,2.13-0.993-0.18,0.983-0.009
			c1.367-15.784-0.399-64.807-0.788-80.656c-0.445-18.04-1.231-36.093-4.018-53.913c-0.589,0.091-1.957,0.313-2.551,0.404"/>
	</g>
</g>
<g>
	<g>
		<g id="ChestMains">
			<path id="ChestMainExpanded" fill="#F3BF98" d="M372.311,243.805c-11.41-0.395-26.64-2.428-43.422-2.873
				c-7.373-0.197-15.056-0.088-22.838,0.604c-25.479,2.269-38.503,0.567-52.658,9.626c-14.157,9.063-22.648,15.291-24.916,16.988
				c-2.264,1.697-9.625-2.828-14.155-14.721c-4.529-11.896-3.962-24.347-10.759-24.347c-6.796,0-8.495,1.688-9.625-1.124
				c-1.132-2.835,0.568-3.402-4.531-2.27c-5.097,1.137-7.359-3.963-7.359-3.963s-6.795,2.268-8.494-0.563
				c-1.697-2.833-3.398-5.097-5.663-1.701c-2.264,3.409-6.226,7.938-14.72,7.938c-8.492,0-12.458-2.267-16.42,1.125
				c-3.963,3.396,14.157,78.143,22.083,94.565c7.929,16.425,16.987,11.896,16.987,11.896s10.758-2.837,16.421-7.365
				c5.661-4.526,4.528-8.497,16.421-6.229c11.891,2.27,14.719,9.631,21.517,12.469c6.793,2.835,29.444,9.062,57.186,13.031
				c27.746,3.963,24.349,9.054,50.962,10.185c26.611,1.129,39.068,1.694,45.863,2.834c6.795,1.129,19.813,2.265,29.44-1.693
				c9.626-3.964,15.289-9.058,15.289-9.058l3.397-9.063c0,0,31.71-4.526,47.563-9.624c15.854-5.094,23.773-7.357,29.446-5.648
				c5.66,1.689,28.873,6.226,39.633,5.648c10.758-0.563,16.426-2.265,16.426-2.265s6.228-18.687,3.968-24.342
				c-2.27-5.656-8.493-5.656-8.493-5.656s-10.763-6.794-32.845-14.153c-22.082-7.365-31.709-7.365-38.506-6.229
				c-6.795,1.129-31.708,2.837-31.708,2.837L372.311,243.805z"/>
			<path id="ChestMain" fill="#F3BF98" d="M371.878,243.516c-11.405-0.391-10.079-0.865-25.632,2.291
				c-5.839,4.729-18.404,11.129-29.249,18.549c-23.826,12.578-43.074,11.873-56.841,9.197c-12.568-2.492-29.839-7.388-32.104-5.688
				c-2.265,1.691-9.626-2.838-14.155-14.725c-4.53-11.896-3.962-24.344-10.759-24.344c-6.795,0-8.495,1.694-9.625-1.128
				c-1.132-2.835,0.569-3.401-4.532-2.267c-5.096,1.133-7.359-3.963-7.359-3.963s-6.794,2.265-8.494-0.564
				c-1.698-2.833-3.396-5.098-5.663-1.7c-2.264,3.408-6.227,7.929-14.722,7.929c-8.491,0-12.457-2.265-16.42,1.137
				c-3.963,3.396,14.157,78.139,22.083,94.562c7.928,16.426,16.986,11.896,16.986,11.896s10.758-2.835,16.422-7.365
				c5.661-4.525,4.528-8.494,16.42-6.228c11.892,2.268,14.72,9.633,21.517,12.463c6.793,2.839,29.444,9.063,57.188,13.03
				c27.744,3.967,24.346,9.053,50.959,10.188c26.613,1.129,39.067,1.693,45.867,2.831c6.791,1.132,19.813,2.268,29.438-1.694
				c9.628-3.963,15.29-9.059,15.29-9.059l3.396-9.063c0,0,31.708-4.522,47.564-9.624c15.853-5.097,23.777-7.359,29.443-5.652
				c5.662,1.688,28.877,6.22,39.636,5.652c10.759-0.564,16.427-2.266,16.427-2.266s6.225-18.683,3.964-24.345
				c-2.266-5.656-8.494-5.656-8.494-5.656s-10.757-6.796-32.843-14.153c-22.081-7.364-31.708-7.364-38.504-6.226
				c-6.796,1.133-31.709,2.838-31.709,2.838L371.878,243.516z"/>
		</g>
		<path fill="#E8B294" d="M453.843,269.848c0,0,7.938-5.66,26.623-2.266c18.676,3.408,21.521,10.191,21.521,10.191l-41.332,2.836
			L453.843,269.848z"/>
		<path fill="#B5D1E2" d="M545.004,292.496c0,0,6.229-10.756,16.995-15.854c10.755-5.098,16.422,0,16.989,6.229
			c0.563,6.225,0.563,6.225,0.563,6.225s-9.623,6.797-17.554,6.797C554.065,295.895,545.004,292.496,545.004,292.496z"/>
		<path fill="#D9E8F0" d="M558.029,297.027c0,0,15.854-3.963,31.709-10.191c15.854-6.225,24.346-9.626,29.44-3.4
			c5.101,6.229,4.534,33.409-16.979,42.475c-21.528,9.059-31.712,14.714-41.905,12.454c-10.19-2.268-15.854-7.366-15.854-7.366
			s1.697-1.692,10.191-2.263c8.494-0.565,12.455-9.624,11.324-16.988C564.822,304.391,558.029,297.027,558.029,297.027z"/>
		<path fill="#FFFFFF" d="M362.115,238.141c1.941,12.145,10.643,38.84,1.689,49.703c4.561,1.086,9.408,1.663,14.07,1.908
			c0.607,11.516-1.729,29.699-6.081,40.146c10.685,3.791,18.313,3.972,29.373,5.048c7.568,0.729,14.106-1.589,10.752,9.468
			c4.729-3.832,12.698-4.573,18.751-3.979c-3.444-14.507-18.158-44.521-12.771-50.622c12.605-14.285,28.839-8.379,42.645-10.543
			c8.363-25.572-82.856-41.68-98.991-41.68"/>
		<path fill="#B5D1E2" d="M581.754,332.176c-10.976,7.154-24.53-4.241-37.115-2.253c6.568,10.469,23.143,12.452,32.39,4.024"/>
		<path fill="#E6E5E9" d="M425.938,325.095c-17.211,2.454-35.646,2.531-53.025,3.174c-0.221,1.619-0.117,3.355-0.038,4.989
			c10.11,2.318,43.763-3.549,39.541,10.468c5.979-0.813,11.783-2.622,18.159-2.782c-0.676-4.847-2.354-9.687-4.04-14.075"/>
		<path fill="#D5A386" d="M301.994,315.063c9.512,0.846,72.55,1.194,70.73,17.026c-21.887-2.653-44.293-9.104-66.009-13.485"/>
		<path fill="#D5A386" d="M427.706,330.409c27.186,0,51.396-7.497,77.188-10.167c14.319-1.486,27.258,4.117,41.182,10.217
			c-13.78-0.195-22.37-2.024-34.707-4.627c-10.54-2.229-14.402,0.381-25.521,3.262c-9.397,2.433-57.78,18.698-58.14,3.082"/>
		<path fill="#D5A386" d="M220.544,326.273c0.458-28.907-28.329,0-41.815-1.685c-1.859,19.979,10.941,0.039,23.519-3.631
			c5.866-1.708,12.417,0.691,15.936,4.133"/>
	</g>
	<g>
		<g>
			<g>
				<path fill="#020202" d="M144.865,225.479c-0.224,0.547-0.449,1.133-0.675,1.682c8.426,3.477,22.331,0.391,26.593-8.258
					c-0.323-0.159-1.201-0.799-1.529-0.729c-0.533,1.076-1.198,2.132-2.045,2.979c-1.861,1.869-4.451,2.854-6.904,3.772
					c-4.773,1.784-10.702,2.788-15.529,0.798"/>
			</g>
		</g>
		<g>
			<g>
				<path fill="#020202" d="M169.805,217.404c2.708,1.359,3.125,3.97,5.294,5.754c2.507,2.063,5.871,1.008,7.468-1.682
					c-0.323-0.193-1.209-0.986-1.565-0.957c-0.97,1.638-2.736,2.48-4.419,1.316c-1.54-1.066-2.003-2.938-3.346-4.212
					c-0.772-0.731-1.636-1.451-2.592-1.927c-0.264,0.525-0.606,1.117-0.87,1.646"/>
			</g>
		</g>
		<g>
			<g>
				<path fill="#020202" d="M183.164,222.225c1.654,1.986,3,4.262,4.656,6.248c0.661-0.979,1.339-2.187,2.498-2.572
					c2.466-0.818,2.435,1.688,3.95,3.336c2.393,2.594,4.076,0.859,7.395,0.908c8.438,0.125,8.726,11.532,9.913,17.654
					c1.079,5.58,2.474,11.654,5.976,16.281c4.248,5.613,11.509,7.322,18.273,6.926c-0.116-2.013-0.154-2.354-2.282-2.359
					c-2.078-0.004-4.229,0.387-6.238-0.17c-3.192-0.873-5.741-3.066-7.773-5.688c-4.26-5.514-5.753-12.783-7.044-19.393
					c-0.822-4.229-1.356-9.114-4.382-12.396c-1.382-1.509-3.124-2.059-5.146-2.316c-1.505-0.194-5.704,0.265-6.499-0.488
					c-1.164-1.1-2.861-1.986-3.192-3.573c-0.151-0.722-1.66-0.88-2.202-0.782c-0.857,0.158-1.715,0.725-2.468,1.166
					c-1.221,0.729-0.759,0.161-1.632-0.876c-0.828-0.991-1.686-2.229-2.514-3.229c-0.453,0.377-0.998,1.349-1.451,1.729"/>
			</g>
		</g>
		<g>
			<g>
				<path fill="#020202" d="M159.229,229.598c0.206,2.07,0.231,4.155,0.238,6.237c0.003,1.205-0.616,2.909,1.168,2.498
					c0.108-2.955-0.051-5.894-0.345-8.828c-0.365,0.039-0.696-0.022-1.039,0.095"/>
			</g>
		</g>
		<g>
			<g>
				<path fill="#020202" d="M207.013,319.776c0.063,1.833-0.342,2.886,0.948,2.835c2.18-0.089,4.392-0.097,6.533,0.565
					c2.141,0.661,4.284,1.792,6.157,3.593c1.654,1.588,1.349,1.815,2.567-0.475c-4.309-5.719-10.779-7.021-16.214-6.56"/>
			</g>
		</g>
		<g>
			<g>
				<path fill="#020202" d="M232.776,338.272c17.951,5.834,36.903,8.415,55.743,9.646c0.021-0.33,0.232-1.32,0.048-1.555
					c-2.128-0.143-4.23-0.265-6.354-0.479c-4.112-0.409-8.256-0.854-12.338-1.485c-8.79-1.371-17.445-3.711-26.041-6.003
					c-7.111-1.896-14.392-3.441-19.221-9.447c-2.215-2.751-3.405-6.152-4.294-9.571c-0.48-1.86-1.487-3.689-1.474-5.612
					c0.011-1.383,0.154-0.931-1.107-0.992C217.194,322.494,223.205,335.165,232.776,338.272"/>
			</g>
		</g>
		<g>
			<g>
				<path fill="#020202" d="M242.63,294.298c-0.523,1.981,1.104,2.019,2.544,2.058c2.411,0.065,4.889-0.121,7.279,0.199
					c4.751,0.623,9.25,2.657,13.833,4.043c9.217,2.784,18.08,6.496,26.855,10.42c3.278,1.469,6.801,2.411,10.017,4.011
					c6.871,3.398,14.03,8.685,21.922,8.969c0.545-1.664-0.521-0.816-1.801-1.003c-1.981-0.291-3.784-1.606-5.658-2.291
					c-4.333-1.564-8.185-4.153-12.263-6.26c-3.224-1.656-6.75-2.745-10.062-4.229c-16.668-7.444-33.935-15.688-52.587-15.499"/>
			</g>
		</g>
		<g>
			<g>
				<path fill="#020202" d="M314.727,322.379c-0.228,1.404,0.236,1.404,1.465,1.313c2.091-0.162,4.278,1.104,6.378,1.086
					c4.588-0.046,9.143-0.183,13.715,0.317c9.134,0.991,18.188,2.628,27.111,4.876c9.492,2.396,18.912,5.084,28.359,7.646
					c0.656-1.466,0.451-2.071-0.804-2.416c-2.089-0.56-4.397-0.267-6.491-0.831c-5.327-1.443-10.717-2.575-16.063-3.986
					c-17.522-4.618-35.5-9.253-53.589-7.666"/>
			</g>
		</g>
		<g>
			<g>
				<path fill="#020202" d="M399.951,334.894c-5.615,0.364-11.555,0.444-16.781,2.729c0.25,1.837,1.104,0.917,2.379,0.498
					c2.387-0.774,4.939-0.86,7.434-1.146c5.526-0.618,11.191-0.642,16.714-1.474c0.247-1.979-1.23-1.669-2.656-1.516
					c-2.366,0.269-4.729,0.339-7.116,0.479"/>
			</g>
		</g>
		<g>
			<g>
				<path fill="#020202" d="M410.13,335.078c1.632,0.653,2.429,2.497,1.422,4.062c-1.317,2.057-4.479,2.77-6.657,3.44
					c-4.567,1.427-9.455,2.571-13.16,5.787c1.021,2.158,2.877-0.271,4.306-0.999c2.969-1.504,6.153-2.436,9.319-3.411
					c2.44-0.768,5.479-1.428,7.152-3.549c1.854-2.338,0.771-5.224-1.953-6.313c-0.166,0.415-0.46,0.74-0.509,1.187"/>
			</g>
		</g>
		<g>
			<g>
				<path fill="#020202" d="M419.879,346.851c-2.123,1.158-4.213,2.644-6.631,3.028c-1.714,0.279-4.835-1.354-4.869,1.036
					c4.868,1.41,9.036-1.16,13.202-3.387c1.99-1.063,4.34-2.022,6.671-1.563c1.546,0.313,2.954,2.284,3.805,0.179
					c-3.996-3.104-8.066-1.146-12.011,1.009"/>
			</g>
		</g>
		<g>
			<g>
				<path fill="#020202" d="M424.134,350.885c-3.19,2.404-6.387,4.688-10.185,6.036c-4.896,1.744-10.224,2.004-15.317,2.844
					c-4.315,0.705-8.942,1.729-13.309,0.908c-2.015-0.376-3.582-1.866-5.162-3.159c-1.785-1.445-1.835-2.014-3.737-0.563
					c7.229,9.465,21.361,4.259,31.126,3.537c5.297-0.396,9.807-2.739,14.126-5.77c2.291-1.59,4.859-2.8,7.131-4.438
					c1.211-0.87,2.12-2.12,3.394-2.916c0.033-0.332-0.771-1.337-0.956-1.649c-2.468,1.544-4.429,3.882-6.749,5.641"/>
			</g>
		</g>
		<g>
			<g>
				<path fill="#020202" d="M287.168,347.203c7.567-0.091,14.608,2.711,21.669,4.904c7.768,2.424,15.731,3.928,23.83,4.616
					c15.049,1.285,30.265,1.621,45.392,1.358c0.002-0.34,0.127-1.301-0.076-1.535c-1.754,0.031-3.426-1.16-5.182-1.16
					c-3.656,0.021-7.363,1.411-11.02,1.316c-8.311-0.221-16.588-1.336-24.862-1.98c-8.72-0.688-17.693-1.423-26.091-3.88
					c-7.759-2.271-15.4-5.852-23.687-5.763c-0.005,0.59,0.051,1.378,0.046,1.967"/>
			</g>
		</g>
		<g>
			<g>
				<path fill="#020202" d="M409.86,343.918c1.308,0.436,2.388,1.325,2.901,2.627c0.396,1.012,0.089,2.107,1.578,1.592
					c-0.119-2.546-1.69-4.52-4.106-5.314c-0.128,0.34-0.35,0.715-0.358,1.069"/>
			</g>
		</g>
		<g>
			<g>
				<path fill="#020202" d="M418.534,341.492c-1.455,0.479-4.203,0.375-3.229,2.438c3.544-0.554,6.731-2.332,10.314-2.821
					c1.335-0.182,3.308-0.196,4.171,1.104c0.703,1.071,0.203,2.269,1.989,1.688c-0.222-6.865-9.418-3.405-13.164-2.177"/>
			</g>
		</g>
		<g id="ChestOutlines">
			<path id="ChestOutlineExpanded" fill="#020202" d="M278.914,243.047c-7.572,1.077-14.746,3.648-21.619,6.895
				c-2.859,1.352-5.667,2.817-8.43,4.353c-4.132,2.289-16.341,9.604-18.405,10.847c-1.886,1.133-2.194,1.551-1.188,3.482
				c6.354-3.296,12.293-7.242,18.393-10.938c4.597-2.787,9.283-5.422,14.302-7.519c5.572-2.33,11.347-3.892,17.227-5.005
				c7.383-1.395,14.926-2.082,22.429-2.693c1.527-0.127,3.052-0.22,4.577-0.285c5.871-0.252,11.724-0.101,17.575,0.188
				c12.92,0.631,25.813,1.942,38.798,1.021c-0.097-1.475,0.229-1.888-1.162-1.822c-1.94,0.08-3.897-0.362-5.843-0.355
				c-8.533,0.033-16.979-0.98-25.463-1.843c-2.525-0.259-5.047-0.397-7.545-0.445c-5.904-0.11-11.732,0.302-17.556,0.976
				c-8.628,0.996-17.232,2.559-26.004,3.813"/>
			<path id="ChestOutline" fill="#020202" d="M291.36,272.962c-7.572,1.085-15.002,0.019-22.735,0.593
				c-3.154,0.232-15.831-3.615-19.113-3.978c-3.995-0.951-16.989-5.679-19.053-4.442c-1.885,1.133-2.194,1.553-1.188,3.485
				c6.354-3.296,13.258,4.584,21.382,4.584c9.02-0.94,13.833,3.009,17.971,2.497c6.663-0.822,20.448,0.373,28.2-1.645
				c10.412-4.056,11.816-4.711,19.128-7.371c7.077-4.602,0.634-0.537,9.274-6.002c6.944-5.776,11.313-7.533,18.558-11.775
				c9.021-3.893,5.808-4.605,18.789-5.516c-0.095-1.479,0.231-1.888-1.16-1.826c-1.942,0.084-2.541-0.327-7.164,0.643
				c-7.353,2.854,0,0-8.112,2.635c-2.697,0.871-5.455,2.568-10.914,5.887c-8.658,6.41-3.961,2.461-13.162,9.414
				C313.608,265.604,300.133,271.71,291.36,272.962"/>
		</g>
		<g>
			<g>
				<path fill="#020202" d="M364.201,238.063c0.82,6.963,1.588,13.951,2.081,20.945c0.381,5.461,0.34,10.979-0.339,16.418
					c-0.34,2.709-1.125,5.325-1.871,7.941c-0.377,1.326-2.66,4.525-0.547,4.775c4.189-10.453,4.158-21.617,3.123-32.664
					c-0.381-4.104-0.684-8.201-1.157-12.287c-0.157-1.271,0.522-5.785-1.517-4.893"/>
			</g>
		</g>
		<g>
			<g>
				<path fill="#020202" d="M362.42,288.499c2.773,0.269,5.53,0.694,8.309,0.92c3.336,0.267,6.653,0.744,9.941,1.337
					c1.422,0.252,5.196,2.213,5.503,0.328c-4.999-2.406-11.136-2.512-16.532-3.038c-1.47-0.144-7.836-1.501-7.464,0.724"/>
			</g>
		</g>
		<g>
			<g>
				<path fill="#020202" d="M379.982,282.659c-1.16,9.042-3.203,17.989-4.287,27.036c-0.316,2.661-0.482,5.339-1.055,7.957
					c-0.361,1.635-0.896,3.136-1.942,4.475c-0.731,0.941-2.21,1.018-1.017,2.232c4.813-2.583,4.582-9.063,5.133-13.766
					c0.912-7.611,2.053-15.226,3.033-22.834c0.519-3.906,1.229-7.783,1.73-11.688c0.261-1.977,0.611-3.938,0.877-5.908
					c0.141-1.059,1.3-2.354-0.415-2.041c-0.646,4.891-1.065,9.691-1.715,14.588"/>
			</g>
		</g>
		<g>
			<g>
				<path fill="#020202" d="M385.63,242.039c0.728,8.734,2.503,18.029-0.151,26.564c7.438,0.619,15.164,1.652,22.578,0.313
					c1.712-1.336,0.61-8.85,0.489-11.227c-0.229-4.39-0.599-8.856-1.777-13.094c-1.692-0.008-1.237,1.336-0.979,2.452
					c0.412,1.765,0.746,3.521,0.979,5.312c0.558,4.314,0.977,8.668,0.808,13.019c-0.032,0.802-0.155,1.599-0.197,2.399
					c-1.102,0.184-2.193,0.492-3.308,0.574c-1.943,0.141-3.913,0.121-5.868,0.067c-3.731-0.103-7.542-0.563-11.281-0.868
					c1.704-6.341,1.146-13.029,0.528-19.471c-0.125-1.408,0.363-6.787-1.743-6.002"/>
			</g>
		</g>
		<g>
			<g>
				<path fill="#020202" d="M411.228,267.016c5.14,12.002,5.263,23.664,6.895,36.486c0.862,6.759,2.783,14.344,5.618,20.567
					c1.307,2.875,4.864,14.999,6.72,14.068c-1.196-5.9-3.584-11.473-5.919-16.962c-2.479-5.782-4.354-11.396-5.126-17.593
					c-1.553-12.511-2.399-25.201-7.411-36.897c-0.34,0.146-0.739,0.215-1.025,0.438"/>
			</g>
		</g>
		<g>
			<g>
				<path fill="#020202" d="M362.159,237.089c0.018,2.195,0.243,2.319,2.585,2.351c2.945,0.033,5.939-0.596,8.883-0.383
					c6.161,0.446,12.139,2.519,18.211,3.611c10.453,1.887,20.6,4.732,30.68,8.083c4.461,1.481,9.688,1.319,13.646,3.919
					c4.063,2.676,7.216,6.616,11.574,8.829c3.902,1.981,7.413,3.894,9.933,7.703c0.981,1.497,1.674,2.976,2.104,4.708
					c0.516,2.156,0.587,2.572,2.832,2.271c-0.479-3.563-2.146-6.804-4.532-9.551c-2.955-3.402-6.839-4.773-10.687-6.863
					c-3.834-2.072-6.938-5.229-10.539-7.637c-3.864-2.578-8.293-3.615-12.681-5.096c-19.957-6.725-40.854-11.771-61.979-11.607"/>
			</g>
		</g>
		<g>
			<g>
				<path fill="#020202" d="M414.894,288.075c0.73,1.86,2.126-0.496,3.149-1.205c1.585-1.114,3.529-1.653,5.213-2.61
					c3.108-1.771,6.29-3.301,9.788-4.082c3.515-0.781,7.089-0.979,10.682-0.813c1.94,0.087,3.868,0.207,5.801,0.426
					c1.31,0.145,4.688,1.585,4.4-0.529c-6.867-0.945-13.965-2.177-20.814-0.736c-6.813,1.431-12.97,5.098-18.452,9.259"/>
			</g>
		</g>
		<g>
			<g>
				<path fill="#020202" d="M460.181,281.295c-4.959,0.775-10.086,0.381-15.062,1.021c-2.453,0.308-4.857,0.983-7.322,1.222
					c-1.677,0.155-1.194,0.147-1.063,1.603c15.272-1.3,30.321-4.059,45.574-5.557c7.229-0.708,14.534-1.789,21.799-1.203
					c3.563,0.286,7.104,1.133,10.604,1.912c1.946,0.436,3.967,0.458,5.868,1.064c0.268-0.201,0.551-1.489,0.657-1.84
					c-19.777-6.309-41.229-2.533-61.259,0.592"/>
			</g>
		</g>
		<g>
			<g>
				<path fill="#020202" d="M516.392,280.632c9.867,1.494,17.646,8.905,26.354,13.2c3.915,1.938,8.21,2.929,12.412,4.048
					c1.033,0.269,2.104,0.406,3.146,0.673c0.771,0.2,0.643-0.766,0.822-1.41c-6.401-1.689-12.451-3.803-18.287-7.076
					c-7.653-4.301-15.311-9.504-24.221-10.857c-0.092,0.589-0.255,1.385-0.34,1.973"/>
			</g>
		</g>
		<g>
			<g>
				<path fill="#020202" d="M505.32,321.815c8.058,6.188,18.021,7.461,27.903,7.547c5.233,0.05,10.471-0.229,15.688-0.231
					c2.809-0.001,5.646,0.091,8.447,0.336c2.262,0.197,2.396,0.646,2.651-1.479c-10.375-1.313-19.351,0.854-29.764,0.294
					c-4.799-0.26-9.663-1.238-14.178-2.943c-2.288-0.862-5.826-2.424-7.858-3.772c-1.812-1.21-1.952-1.063-3.217,0.57"/>
			</g>
		</g>
		<g>
			<g>
				<path fill="#020202" d="M507.217,320.802c-12.099,5.34-25.332,7.365-38.156,10.393c-4.718,1.115-22.783,6.638-27.35,7.188
					c-2.404,0.288-4.751,0.45-7.179,0.421c-1.693-0.021-1.336,1.505-1.399,2.98c14.226,0.549,27.071-6.407,40.608-9.605
					c7.153-1.688,14.321-3.257,21.386-5.212c5.232-1.439,10.348-2.741,15.321-4.881c2.566-1.098,5.225-1.604,7.976-2.159
					c2.191-0.439,2.195-1.01,2.023-3.13c-4.584,0.374-8.891,2.644-13.039,4.478"/>
			</g>
		</g>
		<g>
			<g>
				<path fill="#020202" d="M466.735,265.432c-1.698,0.01-3.393,0.021-5.085,0.028c-2.021,0.011-2.086,0.183-2.159,2.249
					c5.604-0.029,11.347-0.414,16.938-0.021c4.368,0.308,8.695,1.069,12.751,2.767c2.413,1.004,4.744,2.219,6.938,3.638
					c1.938,1.264,1.898,1.691,3.183-0.087c-9.912-7.11-20.686-8.829-32.563-8.563"/>
			</g>
		</g>
		<g>
			<g>
				<path fill="#020202" d="M561.496,299.342c3.229,6.201,5.226,12.173,3.012,19.125c-1.121,3.501-2.721,7.479-5.314,10.167
					c-1.09,1.126-2.268,2.054-3.864,1.979c-1.322-0.062-3.092-1.563-3.479,0.309c7.907,4.073,11.813-6.143,13.704-12.01
					c2.356-7.303,0.203-13.46-3.209-20.012c-0.327,0.174-1.038,0.428-1.302,0.676"/>
			</g>
		</g>
		<g>
			<g>
				<path fill="#020202" d="M543.976,332.35c3.482,2.159,7.015,4.729,10.938,6.02c4.876,1.6,9.979-0.379,14.555-2.123
					c-0.188-0.486-0.387-0.979-0.575-1.467c-0.104-0.278-3.561,0.911-4.126,1.087c-2.319,0.729-4.708,1.26-7.147,0.937
					c-4.611-0.595-8.864-3.537-12.701-5.913c-0.313,0.503-0.627,0.771-0.93,1.271"/>
			</g>
		</g>
		<g>
			<g>
				<path fill="#020202" d="M612.946,277.396c12.255,9.367,10.736,32.188,0.932,42.507c-5.877,6.188-15.178,6.828-22.94,9.256
					c-5.628,1.758-13.639,3.603-19.359,5.033c-2.798,0.69-3.1,2.013-5.969,2.313c-2.271,0.238-2.521-0.224-2.415,1.929
					c11.003-0.528,21.272-5.862,31.737-8.865c8.131-2.333,16.271-3.959,21.621-11.103c8.571-11.44,10.161-33.492-2.188-42.947
					c-0.36,0.469-1.271,1.637-1.626,2.104"/>
			</g>
		</g>
		<g>
			<g>
				<path fill="#020202" d="M615.154,279.707c-6.446,0.671-12.642,0.759-18.713,3.085c-3.803,1.456-7.577,3.015-11.36,4.548
					c-3.646,1.479-6.803,3.799-10.701,4.547c-6.286,1.229-13.361,0.992-18.823,4.654c0.198,0.307,0.881,1.553,1.196,1.656
					c1.497-1.012,3.253-1.559,4.942-2.174c3.446-1.25,7.044-2.23,10.646-2.865c5.116-0.905,9.693-2.057,14.458-4.004
					c5.192-2.104,10.327-4.32,15.678-5.975c7.431-2.302,15.318-1.707,22.813-3.6c-0.464-1.84-0.383-2.159-2.362-1.809
					c-2.607,0.481-5.121,1.781-7.758,2.061"/>
			</g>
		</g>
		<g>
			<g>
				<path fill="#020202" d="M545.79,289.581c0.646,0.597,0.997,1.504,1.67,0.78c0.893-0.95,1.411-2.264,2.339-3.182
					c2.86-2.826,5.989-5.436,9.219-7.832c3.02-2.229,6.491-4.08,10.161-5.041c1.872-0.488,3.843-0.685,5.616,0.221
					c2.055,1.055,1.417,2.174,3.348,0.646c-8.718-11.048-26.961,7.77-32.762,14.076"/>
			</g>
		</g>
		<g>
			<g>
				<path fill="#020202" d="M572.712,272.947c2.653,3.05,5.105,6.617,5.927,10.621c0.374,1.828,0.559,3.8-0.046,5.584
					c-0.426,1.281,0.082,1.094,1.234,1.623c2.979-6.508-1.524-14.146-5.759-19.004c-0.445,0.39-0.901,0.746-1.338,1.131"/>
			</g>
		</g>
		<g id="HeadCap">
			<path fill="#F3BF98" d="M146.102,226.688c-10.552,2.224-15.113,2.826-21.853,6.979c-2.221,3.34-21.204,13.772-24.535,33.758
				c-3.331,19.989-8.329,52.186,23.318,66.071c31.647,13.88,52.748,7.219,54.964,6.106c2.224-1.11,4.571-2.57,5.125-9.231
				c0.558-6.663,2.096-24.081-8.454-47.4c-10.55-23.316-21.655-38.867-24.43-46.639
				C147.464,228.561,146.102,226.688,146.102,226.688z"/>
			<g>
				<path fill="#020202" d="M160.987,295.741c-4.113,0-10.887-2.54-11.551-8.929c-0.359-3.422,0.331-10.135,5.337-11.39
					c3.474,1.365-7.823,10.267,0.219,15.519c2.714,1.771,5.819,2.129,8.817,1.76c2.51-0.313,9.71-4.739,10.051-0.87
					c-3.872,1.797-8.501,3.817-12.656,3.817"/>
				<path fill="#020202" d="M162.233,289.615c-3.79-0.148-8.006-4.217-5.903-8.127c2.637-4.9,9.779-3.674,13.659-1.18
					c-1.371,2.137-1.485,0.947-3.556,0.305c-2.155-0.67-4.678-1.047-6.733,0.106c-1.717,0.956-2.59,3.015-1.505,4.81
					c1.523,2.524,3.957,0.839,3.842,3.838"/>
				<path fill="#020202" d="M170.838,287.174c-3.012,0.229-8.677-1.688-5.555-5.502c2.089,1.712,0.495,3.928,4.536,3.939
					c3.51,0.018,5.343-2.654,5.274-5.967c-0.048-2.237-0.155-1.793,1.684-1.981c0.156,1.534-0.169,3.214-0.562,4.717
					c-0.712,2.716-2.526,4.731-5.362,4.949"/>
			</g>
			<g>
				<g>
					<path fill="#020202" d="M179.976,276.482c3.408,3.492,2.283,7.646-1.344,10.367c-1.668,1.254-9.411,3.908-9.411,3.908
						s0.432,0.301,0.731,1.332c8.396-0.017,19.729-9.087,11.74-17.291c-0.496,0.479-1.387,1.098-1.733,1.692"/>
				</g>
			</g>
		</g>
	</g>
</g>
<g id="Meters" display="none">
	
		<rect id="OneThird" x="-53" y="236.813" display="inline" opacity="0.4" fill="#2B3379" enable-background="new    " width="725.118" height="55.08"/>
	<line display="inline" fill="none" stroke="#001783" stroke-miterlimit="10" x1="-42.833" y1="279.577" x2="739" y2="279.577"/>
</g>
<g id="Diagram" display="none">
	
		<path id="Brain" display="inline" opacity="0.6" fill="#EEA8CA" stroke="#FADDE8" stroke-width="2" enable-background="new    " d="
		M134.872,238.17c-18.268,0-30.42,25.555-29.812,50.194c0.606,24.64,12.775,46.239,31.941,48.37s33.049-10.122,33.049-24.023
		c0-13.9-6.899-23.143-14.52-35.527C148.722,266.115,153.141,238.17,134.872,238.17z"/>
	<g display="inline">
		<path id="Lungs" opacity="0.6" fill="#EEA8CA" stroke="#FADDE8" stroke-width="2" enable-background="new    " d="
			M339.154,275.673c-4.498-12.521-39.205-5.054-58.854-0.075c-19.648,4.98-32.784,9.407-32.709,15.283
			c0.077,5.87,11.949,5.725,45.852,3.955C327.346,293.073,342.66,285.43,339.154,275.673z"/>
		<path id="Heart" opacity="0.6" fill="#EC6767" stroke="#FADDE8" stroke-width="2" enable-background="new    " d="
			M281.693,283.414c0,0-6.874-4.775-3.251-9.762c3.619-4.978,11.012-0.752,19.521,9.762c-8.508,10.511-15.9,14.748-19.521,9.764
			C274.82,288.189,281.693,283.414,281.693,283.414z"/>
		<g id="Arrows">
			<path opacity="0.6" fill="#EC6767" enable-background="new    " d="M273.926,278.674l-1.432-2.443
				c-0.219,0.127-84.474,23.086-105.526,17.974l-0.205-1.769l-9.97,2.916l10.541,3.959l-0.286-1.992
				C190.16,304.876,273.7,278.807,273.926,278.674z"/>
			<path id="ArrowOne" opacity="0.6" fill="#EC6767" enable-background="new    " d="M268.93,287.938
				c2.167-0.881,5.34-2.398,8.16-4.648l-1.771-2.229c-1.991,1.588-4.637,3.09-7.45,4.232l-0.804-2.02l-6.905,6.574l9.563,0.105
				L268.93,287.938z"/>
		</g>
	</g>
</g>
<g id="Hand">
	<g>
		<path fill="#0892C0" d="M397.168,125.667c-7.863-0.412-13.645,2.067-22.736,6.2c-9.098,4.134-11.574,4.134-14.465,3.72
			c-2.892-0.412-11.984,3.308-22.314,4.96c-10.334,1.654-21.488,2.066-28.104,10.333c-6.613,8.265-7.851,10.746-7.851,10.746
			s37.198,27.278,40.917,28.933c3.722,1.654,15.709,3.309,24.8,2.063c9.096-1.24,11.575-4.957,23.562-7.026
			c11.986-2.063,20.249-10.747,27.692-15.292c7.438-4.544,10.334-8.266,12.397-14.464c2.063-6.2,1.235-9.093,2.894-11.572
			c1.654-2.48,3.721-13.641-2.064-17.773C426.101,122.361,397.168,125.667,397.168,125.667z"/>
		<g>
			<path fill="#D5A386" d="M311.796,213.475c0.661,5.512,3.998,9.146,6.296,13.772c4.928-2.433,5.738-11.269,4.303-16.054
				c-4.051-13.563-20.584-12.608-14.535,3.065"/>
			<g>
				<g>
					<path fill="#ECAF8B" d="M332.648,165.083c-10.506-8.326-20.065-12.201-29.125-3.544c-9.051,8.657-14.161,16.921-14.953,21.247
						c-0.788,4.331,0.392,3.938,0,20.464c-0.393,16.523-0.788,27.936-0.788,31.477s0.788,7.084,0.788,7.084s9.839,1.963,19.674,0
						c0,0,4.328-13.381,5.115-20.461c0.788-7.082,1.574-16.136,1.574-16.136s3.151,13.382,9.047,13.382
						c5.902,0,7.478-5.119,8.265-11.414c0,0,11.013-9.048,12.192-16.521C345.633,183.184,344.057,174.131,332.648,165.083z"/>
				</g>
			</g>
		</g>
		<path fill="#F3D7C3" d="M296.056,242.596c2.773-3.738,0.201-10.041-5.114-6.297c-4.456,3.143-0.16,7.33,4.721,6.297"/>
		<path fill="#F3D7C3" d="M299.596,242.596c-0.785-17.313,15.026,0.44,0.788-0.785"/>
		<path fill="#1083AA" d="M343.664,185.545c4.65-3.016,11.225-1.844,16.896-1.484c10.073,0.633,13.364-0.586,22.002-4.294
			c9.985-4.301,21.523-3.704,31.868-6.661c-5.361,6.905-18.259,10.708-29.853,14.415c-3.939,1.26-5.921,4.438-9.837,5.114
			c-11.536,1.991-21.499,0.759-29.451-2.022c-0.065-1.328-0.271-2.938-0.058-4.271"/>
	</g>
	<g>
		<g>
			<g>
				<path fill="#020202" d="M298.555,165.625c-5.446,6.49-12.58,13.347-12.431,22.453c1.469,0,1.574,0.479,1.659-1.057
					c0.124-2.287,0.646-4.531,1.654-6.583c1.5-3.047,3.805-5.557,5.972-8.141c1.521-1.814,2.827-3.812,4.349-5.624
					c1.568-1.873,3.361-3.552,4.967-5.388c0.324-0.373,2.322-2.471,2.086-2.694c-0.381-0.358-0.513-0.811-0.898-1.172
					c-2.516,2.685-5.123,5.272-7.455,8.117"/>
			</g>
		</g>
		<g>
			<g>
				<path fill="#020202" d="M287.233,181.006c0.706,9.188,0.586,18.246,0.352,27.459c-0.169,6.735,0.191,13.438-0.257,20.164
					c-0.282,4.249-1.817,12.973,2.057,16.214c1.286-1.518,1.216-1.63,0.495-3.241c-1.588-3.549-0.749-7.854-0.517-11.608
					c0.453-7.263,0.073-14.517,0.258-21.792c0.131-5.139-0.004-10.221-0.342-15.354c-0.192-2.896-0.635-5.767-0.86-8.656
					c-0.187-2.356,0.806-3.724-1.627-3.724"/>
			</g>
		</g>
		<g>
			<g>
				<path fill="#020202" d="M313.274,213.275c-0.819,6.273-1.677,12.557-3.03,18.74c-0.486,2.229-1.251,4.403-1.905,6.594
					c-0.327,1.111,0.297,0.854,1.343,1.207c2.348-6.903,3.578-14.426,4.684-21.612c0.777-5.056,0.874-10.272,2.199-15.226
					c0.441-1.646,1.372-3.181,2.121-4.715c0.676-1.395,0.055-1.476-1.233-2.229c-2.922,5.021-3.833,11.536-4.566,17.184"/>
			</g>
		</g>
		<g>
			<g>
				<path fill="#020202" d="M302.829,192.96c0.649,9.74-1.15,18.761-3.179,28.163c-1.416,6.563-1.744,13.268-2.258,19.943
					c1.013,0.055,1.552,0.533,1.638-0.56c0.12-1.563,0.426-3.11,0.546-4.676c0.291-3.767,0.037-7.61,0.672-11.351
					c0.708-4.176,1.795-8.313,2.739-12.436c1.432-6.256,2.124-12.824,1.697-19.227c-0.589,0.047-1.619,0.076-2.203,0.115"/>
			</g>
		</g>
		<g>
			<g>
				<path fill="#020202" d="M288.16,241.459c0.224,0.59,0.833,0.48,1.168,0.118c0.177-1.813,0.304-4.649,2.196-5.604
					c1.918-0.968,3.75,0.271,4.118,2.204c0.292,1.562-1.408,4.72,0.423,5.017c1.53-3.235,1.003-9.438-3.953-8.621
					c-3.227,0.541-3.644,4.248-3.905,6.896"/>
			</g>
		</g>
		<g>
			<g>
				<path fill="#020202" d="M302.954,234.127c-2.142,0.255-5.412,7.15-2.973,7.376c0.604-1.879,1.15-6.7,3.869-6.258
					c3.732,0.603,0.61,7.608,3.081,7.491c0.723-2.951,0.441-9.104-3.973-8.577"/>
			</g>
		</g>
		<g>
			<g>
				<path fill="#020202" d="M291.113,214.938c1.46,0.014,6.227,1.354,6.025-0.715c-1.966-0.354-4.034-0.468-6.029-0.479
					c-0.001,0.373-0.094,0.904-0.001,1.265"/>
			</g>
		</g>
		<g>
			<g>
				<path fill="#020202" d="M304.491,216.338c1.992,0.313,4.032,0.813,6.045,0.873c0.567-1.83-1.893-1.393-3.137-1.646
					c-0.931-0.152-1.872-0.234-2.807-0.387c-0.027,0.36-0.176,0.807-0.102,1.152"/>
			</g>
		</g>
		<g>
			<g>
				<path fill="#020202" d="M291.367,229.623c1.12,0.053,2.254,0.091,3.376,0.143c0.601-1.897-3.777-2.111-3.354-0.166"/>
			</g>
		</g>
		<g>
			<g>
				<path fill="#020202" d="M302.89,230.666c1.399,0.053,2.779,0.059,4.17,0.135c0.714-1.984-2.96-1.305-4.193-1.342
					c0.006,0.373-0.104,0.874,0.005,1.209"/>
			</g>
		</g>
		<g>
			<g>
				<path fill="#020202" d="M330.902,204.783c-0.063,4.52-0.541,14.833-7.723,13.416c-4.266-0.848-4.888-6.672-5.81-10.147
					c-0.94,0.302-1.662,0.054-1.38,1.108c0.489,1.838,1.148,3.632,1.763,5.433c1.624,4.745,6.728,7.464,10.981,3.782
					c3.955-3.419,3.732-9.986,3.816-14.689c0.047-2.48,0.161-4.978,0.881-7.369c0.693-2.274,1.707-2.521-0.4-3.813
					c-2.248,3.688-2.09,8.098-2.148,12.282"/>
			</g>
		</g>
		<g>
			<g>
				<path fill="#020202" d="M318.022,203.962c2.033,0.522,1.138-2.884,1.261-4.201c0.126-1.364,1.691-4.016-0.188-4.302
					c-1.209,2.63-1.199,5.7-1.146,8.536"/>
			</g>
		</g>
		<g>
			<g>
				<path fill="#020202" d="M321.021,220.221c1.041,1.809,0.313,3.729-1.269,4.916c-1.672,1.266-1.932,0.627-1.179,2.588
					c3.402-1.303,5.986-4.8,3.933-8.363c-0.513,0.3-1.077,0.601-1.588,0.895"/>
			</g>
		</g>
		<g>
			<g>
				<path fill="#020202" d="M314.222,220.975c0.685,2.353,1.799,4.695,3.146,6.741c1.98-1.315,1.12-1.479,0.09-3.589
					c-0.577-1.186-1.195-2.361-1.561-3.63c-0.283-0.123-1.266,0.373-1.587,0.462"/>
			</g>
		</g>
		<g>
			<g>
				<path fill="#020202" d="M342.34,181.016c2.026,6.369,1.495,10.769-2.221,16.285c-1.529,2.274-3.229,4.445-5.107,6.438
					c-0.854,0.909-1.83,1.7-2.779,2.513c-0.006,0.297,0.94,1.063,1.152,1.313c3.666-3.123,6.902-6.926,9.401-11.021
					c3.288-5.392,3.157-10.176,1.278-16.083c-0.564,0.178-1.271,0.4-1.838,0.579"/>
			</g>
		</g>
		<g>
			<g>
				<path fill="#020202" d="M291.509,185.865c2.015,0.283,0.953-3.457,1.146-4.872c0.154-1.15,0.506-2.266,1.23-3.19
					c0.688-0.871,1.872-1.219,0.674-2.282c-3.485,2.198-3.456,6.656-2.954,10.29"/>
			</g>
		</g>
		<g>
			<g>
				<path fill="#020202" d="M309.131,186.73c1.8,0.066,0.87-1.416,0.767-2.625c-0.105-1.281,0.73-4.185-1.283-3.667
					c-0.027,2.112,0.047,4.25,0.524,6.32"/>
			</g>
		</g>
		<g>
			<g>
				<path fill="#020202" d="M314.29,189.29c0.233,0.282,0.747,0.552,1.043,0.767c1.984-2.709,3.294-5.896,3.707-9.242
					c-1.78-0.747-1.473,1.695-1.837,2.891c-0.624,2.021-1.571,3.943-2.815,5.648"/>
			</g>
		</g>
		<g>
			<g>
				<path fill="#020202" d="M336.844,193.914c1.745,0.307,1.086-1.182,1.028-2.359c-0.054-1.188,0.535-2.748-1.196-2.392
					c-0.103,1.589,0.035,3.185,0.182,4.767"/>
			</g>
		</g>
		<g>
			<g>
				<path fill="#020202" d="M299.649,160.841c0.384,0.365,1.042,0.772,1.425,1.141c0.138,0.128,2.615-1.649,3.065-1.939
					c2.261-1.444,4.722-2.586,7.378-2.824c6.011-0.534,11.543,1.622,16.299,5.092c4.994,3.651,9.689,8.1,13.015,13.385
					c1.299,2.056,2.507,4.256,3.13,6.613c0.323,1.221,0.016,2.604,0.104,3.862c0.27,0.19,1.756-0.175,2.104-0.194
					c-0.75-10.729-9.538-18.743-17.709-24.702c-8.457-6.165-20.758-8.766-28.748-0.388"/>
			</g>
		</g>
		<g>
			<g>
				<path fill="#020202" d="M380.787,127.171c-5.564,3.392-10.171,7.623-17.07,7.21c-7.974-0.479-14.863,3.785-22.63,4.458
					c-9.313,0.806-19.521,2.509-27.304,8.048c-3.872,2.753-7.036,6.443-10.268,9.887c-1.704,1.815-1.526,1.319-3.545,2.787
					c-1.602,1.168-1.072,2.011-0.151,3.694c4.859-2.651,5.185-6.111,9.079-9.926c4.405-4.32,10.609-7.926,16.51-9.771
					c8.688-2.711,17.48-1.364,26.033-4.42c2.518-0.899,4.869-2.75,7.521-3.104c2.938-0.392,5.994,0.738,8.937,0.281
					c4.521-0.702,8.328-2.98,12.104-5.375c2.335-1.477,4.405-3.837,7.021-4.735c1.896-0.646,4.09-0.274,6.084-0.274
					c1.438-0.001,2.938,0.766,4.385,0.901c0.229-0.248,0.157-2.604,0.19-2.96c-6.223-0.584-10.888,1.219-16.169,4.488"/>
			</g>
		</g>
		<g>
			<g>
				<path fill="#020202" d="M428.936,157.077c-1.963,3.744-3.711,7.444-6.982,10.212c-3.813,3.224-8.043,5.566-11.896,8.793
					c-6.51,5.443-14.354,8.93-22.854,9.628c-7.762,0.64-13.521,7.185-21.563,7.229c-3.766,0.021-7.42-1.119-11.109-1.906
					c-1.91-0.409-3.817-0.73-5.672-1.334c-0.996-0.32-1.1,1.054-1.416,1.953c6.666,2.334,14.798,3.281,21.856,2.074
					c4.979-0.854,9.101-3.699,13.66-5.617c3.104-1.313,6.296-1.76,9.55-2.489c5.062-1.142,10.198-2.652,14.443-5.686
					c3.978-2.84,7.224-6.217,11.6-8.53c4.424-2.339,8.637-4.941,11.141-9.241c0.875-1.505,1.517-3.169,2.336-4.705
					c0.873-1.646,0.433-2.524-1.193-3.412c-0.439,0.826-1.499,2.176-1.939,3.002"/>
			</g>
		</g>
		<g>
			<g>
				<path fill="#020202" d="M348.424,187.195c-1.574,0.813-3.744,1.037-2.511,2.979c1.413-0.73,2.825-1.463,4.226-2.23
					c1.605-0.879,3.303-1.584,5.135-1.84c1.11-0.151,1.51-0.349,1.111-1.662c-2.904,0.049-5.5,1.344-7.973,2.729"/>
			</g>
		</g>
		<g>
			<g>
				<path fill="#020202" d="M420.596,127.702c2.729,2.981,5.827,5.777,8.081,9.122c1.656,2.446,3.031,5.322,3.331,8.283
					c0.161,1.445-1.479,6.043,0.746,5.634c0.713-6.458-0.602-11.917-4.771-16.96c-1.326-1.604-2.758-3.129-4.151-4.667
					c-0.813-0.892-2.117-3.127-3.188-1.467"/>
			</g>
		</g>
		<g>
			<g>
				<path fill="#020202" d="M427.959,116.099c3.774,5.452,4.938,12.578,5.759,18.988c0.375,2.847,1.021,5.584-0.543,8.193
					c-1.051,1.753-2.724,3.305-3.884,4.996c2.1,1.243,2.232,0.258,3.554-1.68c1.924-2.812,3.479-5.333,3.034-8.913
					c-0.937-7.585-1.827-16.219-6.304-22.694c-0.479,0.334-0.823,0.561-1.301,0.896"/>
			</g>
		</g>
		<g>
			<g>
				<path fill="#020202" d="M319.818,154.764c0.892,1.372,1.342,0.123,2.144-0.666c1.492-1.472,3.101-2.852,4.879-3.96
					c1.778-1.105,3.701-2.095,5.733-2.622c1.197-0.314,3.467,0.397,2.891-1.398c-6.046,0.195-11.957,4.12-15.803,8.542"/>
			</g>
		</g>
		<g>
			<g>
				<path fill="#020202" d="M326.166,154.156c-1.219,0.885-6.126,3.073-4.58,4.563c3.139-1.893,5.977-4.192,9.028-6.216
					c1.579-1.046,3.19-2.072,4.934-2.823c1.183-0.508,3.925-0.519,2.976-2.253c-4.621,1.083-8.502,4.085-12.279,6.829"/>
			</g>
		</g>
		<g>
			<g>
				<path fill="#020202" d="M325.616,159.423c0.7,1.537,1.548,0.205,2.423-0.497c1.473-1.178,3.122-2.118,4.688-3.167
					c1.742-1.165,3.481-2.371,5.412-3.195c1.146-0.492,3.635-0.458,2.803-2.127c-5.67,0.991-10.957,5.406-15.215,9.051"/>
			</g>
		</g>
		<g>
			<g>
				<path fill="#020202" d="M329.555,159.421c0.336,1.728,1.448,0.545,2.502,0.025c1.758-0.864,3.575-1.608,5.354-2.433
					c1.801-0.838,3.604-1.648,5.438-2.41c1.088-0.453,2.728-0.74,1.67-2.173c-5.133,1.983-10.03,4.598-14.959,7.043"/>
			</g>
		</g>
		<g>
			<g>
				<path fill="#020202" d="M334.484,162.207c0.695,1.395,1.267,0.361,2.136-0.289c1.327-0.984,2.848-1.693,4.313-2.454
					c1.52-0.791,3.072-1.513,4.674-2.121c1.113-0.428,3.3-0.427,2.287-2.01c-4.688,1.402-9.711,3.568-13.35,6.914"/>
			</g>
		</g>
		<g>
			<g>
				<path fill="#020202" d="M337.953,165.646c0.695,1.229,1.063,0.524,1.843-0.121c1.354-1.114,2.769-2.189,4.3-3.039
					c1.572-0.866,3.213-1.667,4.903-2.256c1.065-0.374,2.677-0.206,1.924-1.716c-4.554,0.804-9.774,3.841-12.989,7.161"/>
			</g>
		</g>
		<g>
			<g>
				<path fill="#020202" d="M339.725,168.401c1.037,1.322,1.645-0.215,2.528-0.938c1.337-1.088,2.972-1.801,4.552-2.466
					c1.553-0.655,3.154-1.268,4.819-1.573c1.085-0.198,2.416,0.342,1.94-1.221c-4.61,0.031-11.073,2.328-13.812,6.182"/>
			</g>
		</g>
		<g>
			<g>
				<path fill="#020202" d="M341.749,173.284c1.065,1.242,1.433-0.175,2.308-0.887c1.322-1.078,2.842-1.946,4.402-2.621
					c1.646-0.711,3.421-1.097,5.148-1.589c1.086-0.313,2.756-0.423,1.908-1.942c-4.552,1.043-11.092,2.911-13.777,7.066"/>
			</g>
		</g>
		<g>
			<g>
				<path fill="#020202" d="M344.416,176.264c0.875,1.624,4.054-1.416,5.473-1.977c1.452-0.575,5.694-0.267,5.43-1.982
					c-3.689-0.494-8.223,1.411-10.819,3.979"/>
			</g>
		</g>
		<g>
			<g>
				<path fill="#020202" d="M345.011,178.95c0.884,1.197,3.39-0.772,4.942-0.861c1.336-0.073,4.792,1.059,4.546-0.917
					c-2.872-0.466-7.431-0.854-9.435,1.821"/>
			</g>
		</g>
		<g>
			<g>
				<path fill="#020202" d="M344.884,183.607c0.669,1.803,2.394-0.228,3.575-0.688c1.333-0.524,3.52,0.431,3.758-1.218
					c-2.47-1.146-5.296,0.504-7.25,1.959"/>
			</g>
		</g>
		<g>
			<g>
				<path fill="#020202" d="M346.491,185.236c0.321,1.617,4.065,1.08,3.845-0.59c-1.32-0.19-2.656-0.043-3.845,0.567"/>
			</g>
		</g>
		<g>
			<g>
				<path fill="#020202" d="M313.581,154.281c0.853,1.547,1.881,0.145,2.738-0.611c1.612-1.424,3.147-2.97,4.957-4.131
					c1.793-1.149,3.77-2.091,5.809-2.737c1.196-0.383,3.611-0.008,3.083-1.766c-6.142,0.045-12.277,5.253-16.39,9.393"/>
			</g>
		</g>
		<g>
			<g>
				<path fill="#020202" d="M309.082,154.931c1.053,1.282,1.436-0.073,2.16-0.944c1.125-1.35,2.444-2.553,3.801-3.672
					c1.41-1.167,2.942-2.208,4.531-3.114c1.017-0.583,2.588-0.803,1.445-2.112c-4.622,2.209-9.026,5.576-11.958,9.803"/>
			</g>
		</g>
		<g>
			<g>
				<path fill="#020202" d="M283.725,241.158c-0.032,0.588-0.083,1.648-0.116,2.229c11.011,0.6,21.954-0.134,32.675-2.802
					c-0.126-0.517-0.513-1.119-0.641-1.622c-0.081-0.326-2.555,0.646-3.009,0.746c-3.136,0.682-6.367,0.87-9.555,1.245
					c-6.43,0.729-12.903,0.872-19.356,0.521"/>
			</g>
		</g>
	</g>
	<rect id="FingersTarget" x="276.85" y="222.521" fill="#F3BF98" fill-opacity="0" width="41.107" height="33.397"/>
	<polygon id="FingersClick" fill="none" stroke="#000000" stroke-miterlimit="10" stroke-opacity="0" points="283.878,239.816 
		277.387,170.898 325.114,180.467 313.607,243.193 	"/>
</g>
<rect id="FingersTargetFixed" x="276.837" y="224.969" fill="#F3BF98" fill-opacity="0" width="41.109" height="33.403"/>
<rect id="CompressionsTarget" x="278.831" y="255.887" fill="#F3BF98" fill-opacity="0" width="37.123" height="26.592"/>
<image overflow="visible" enable-background="new    " width="72" height="37" id="ArrowProper" xlink:href="../arrow.png"  transform="matrix(1.0002 0 0 1.0002 179.3511 200.8574)">
</image>
<path fill="#020202" d="M206.234,318.536c-8.459,3.265-15.304,9.124-22.588,14.354c-10.279,7.382-20.795,9.543-33.274,7.707
	c-9.868-1.45-20.333-4.477-29.502-8.392c-10.7-4.569-16.769-13.05-20.476-23.787c-6.18-17.9-3.748-36.575,5.827-52.686
	c8.936-15.034,24.86-28.715,43.28-27.732c1.29,0.068,1.283-1.932,0-2c-18.422-0.982-33.799,11.916-43.54,26.405
	c-11.121,16.541-13.511,36.038-7.969,55.056c2.837,9.734,7.948,18.22,16.581,23.727c8.807,5.615,20.27,8.128,30.331,10.404
	c10.692,2.419,21.774,2.803,31.818-2.063c10.756-5.209,18.77-14.714,30.044-19.065C207.956,320.005,207.439,318.07,206.234,318.536z
	"/>
</svg>
